<svg width="18" height="14" viewBox="0 0 18 14" fill="none" xmlns="http://www.w3.org/2000/svg">
<path d="M15.8026 0.150879H2.20112C0.986965 0.150879 0 1.13784 0 2.352V11.6481C0 12.8622 0.986965 13.8492 2.20112 13.8492H15.7989C17.013 13.8492 18 12.8622 18 11.6481V2.35572C18.0037 1.14157 17.0168 0.150879 15.8026 0.150879ZM16.9981 11.6481C16.9981 12.3073 16.4618 12.8436 15.8026 12.8436H2.20112C1.5419 12.8436 1.00559 12.3073 1.00559 11.6481V2.35572C1.00559 1.6965 1.5419 1.16019 2.20112 1.16019H15.7989C16.4581 1.16019 16.9944 1.6965 16.9944 2.35572V11.6481H16.9981Z" fill="#333333"/>
<path d="M11.3517 6.88474L15.7539 2.93688C15.9588 2.75066 15.9774 2.43409 15.7912 2.22552C15.6049 2.02068 15.2884 2.00206 15.0798 2.18828L9.00904 7.63707L7.82469 6.57934C7.82096 6.57562 7.81724 6.57189 7.81724 6.56817C7.79117 6.5421 7.7651 6.51975 7.7353 6.49741L2.91593 2.18456C2.70737 1.99834 2.39079 2.01696 2.20457 2.22552C2.01836 2.43409 2.03698 2.75066 2.24554 2.93688L6.69992 6.91826L2.26417 11.071C2.06305 11.2609 2.05187 11.5775 2.24182 11.7823C2.34238 11.8866 2.47646 11.9425 2.61053 11.9425C2.73344 11.9425 2.85634 11.8978 2.95318 11.8084L7.45597 7.5961L8.67757 8.68735C8.77441 8.77301 8.89359 8.81398 9.01277 8.81398C9.13195 8.81398 9.25485 8.76929 9.34796 8.68363L10.6031 7.55886L15.0798 11.8121C15.1766 11.9052 15.3033 11.9499 15.4262 11.9499C15.5603 11.9499 15.6906 11.8978 15.7912 11.7935C15.9811 11.5924 15.9737 11.2721 15.7725 11.0821L11.3517 6.88474Z" fill="#333333"/>
</svg>
