<svg width="212" height="19" viewBox="0 0 212 19" fill="none" xmlns="http://www.w3.org/2000/svg">
<path d="M20.538 2.4L16.416 15H13.284L10.512 6.468L7.65 15H4.536L0.396 2.4H3.42L6.264 11.256L9.234 2.4H11.934L14.814 11.328L17.748 2.4H20.538ZM31.2732 10.194C31.2732 10.23 31.2552 10.482 31.2192 10.95H23.8932C24.0252 11.55 24.3372 12.024 24.8292 12.372C25.3212 12.72 25.9332 12.894 26.6652 12.894C27.1692 12.894 27.6132 12.822 27.9972 12.678C28.3932 12.522 28.7592 12.282 29.0952 11.958L30.5892 13.578C29.6772 14.622 28.3452 15.144 26.5932 15.144C25.5012 15.144 24.5352 14.934 23.6952 14.514C22.8552 14.082 22.2072 13.488 21.7512 12.732C21.2952 11.976 21.0672 11.118 21.0672 10.158C21.0672 9.21 21.2892 8.358 21.7332 7.602C22.1892 6.834 22.8072 6.24 23.5872 5.82C24.3792 5.388 25.2612 5.172 26.2332 5.172C27.1812 5.172 28.0392 5.376 28.8072 5.784C29.5752 6.192 30.1752 6.78 30.6072 7.548C31.0512 8.304 31.2732 9.186 31.2732 10.194ZM26.2512 7.296C25.6152 7.296 25.0812 7.476 24.6492 7.836C24.2172 8.196 23.9532 8.688 23.8572 9.312H28.6272C28.5312 8.7 28.2672 8.214 27.8352 7.854C27.4032 7.482 26.8752 7.296 26.2512 7.296ZM43.5466 1.644V15H40.8646V13.884C40.1686 14.724 39.1606 15.144 37.8406 15.144C36.9286 15.144 36.1006 14.94 35.3566 14.532C34.6246 14.124 34.0486 13.542 33.6286 12.786C33.2086 12.03 32.9986 11.154 32.9986 10.158C32.9986 9.162 33.2086 8.286 33.6286 7.53C34.0486 6.774 34.6246 6.192 35.3566 5.784C36.1006 5.376 36.9286 5.172 37.8406 5.172C39.0766 5.172 40.0426 5.562 40.7386 6.342V1.644H43.5466ZM38.3266 12.84C39.0346 12.84 39.6226 12.6 40.0906 12.12C40.5586 11.628 40.7926 10.974 40.7926 10.158C40.7926 9.342 40.5586 8.694 40.0906 8.214C39.6226 7.722 39.0346 7.476 38.3266 7.476C37.6066 7.476 37.0126 7.722 36.5446 8.214C36.0766 8.694 35.8426 9.342 35.8426 10.158C35.8426 10.974 36.0766 11.628 36.5446 12.12C37.0126 12.6 37.6066 12.84 38.3266 12.84ZM56.5495 1.644V15H53.8675V13.884C53.1715 14.724 52.1635 15.144 50.8435 15.144C49.9315 15.144 49.1035 14.94 48.3595 14.532C47.6275 14.124 47.0515 13.542 46.6315 12.786C46.2115 12.03 46.0015 11.154 46.0015 10.158C46.0015 9.162 46.2115 8.286 46.6315 7.53C47.0515 6.774 47.6275 6.192 48.3595 5.784C49.1035 5.376 49.9315 5.172 50.8435 5.172C52.0795 5.172 53.0455 5.562 53.7415 6.342V1.644H56.5495ZM51.3295 12.84C52.0375 12.84 52.6255 12.6 53.0935 12.12C53.5615 11.628 53.7955 10.974 53.7955 10.158C53.7955 9.342 53.5615 8.694 53.0935 8.214C52.6255 7.722 52.0375 7.476 51.3295 7.476C50.6095 7.476 50.0155 7.722 49.5475 8.214C49.0795 8.694 48.8455 9.342 48.8455 10.158C48.8455 10.974 49.0795 11.628 49.5475 12.12C50.0155 12.6 50.6095 12.84 51.3295 12.84ZM59.6884 5.316H62.4964V15H59.6884V5.316ZM61.0924 3.966C60.5764 3.966 60.1564 3.816 59.8324 3.516C59.5084 3.216 59.3464 2.844 59.3464 2.4C59.3464 1.956 59.5084 1.584 59.8324 1.284C60.1564 0.983999 60.5764 0.833999 61.0924 0.833999C61.6084 0.833999 62.0284 0.977999 62.3524 1.266C62.6764 1.554 62.8384 1.914 62.8384 2.346C62.8384 2.814 62.6764 3.204 62.3524 3.516C62.0284 3.816 61.6084 3.966 61.0924 3.966ZM71.5285 5.172C72.7285 5.172 73.6945 5.532 74.4265 6.252C75.1705 6.972 75.5425 8.04 75.5425 9.456V15H72.7345V9.888C72.7345 9.12 72.5665 8.55 72.2305 8.178C71.8945 7.794 71.4085 7.602 70.7725 7.602C70.0645 7.602 69.5005 7.824 69.0805 8.268C68.6605 8.7 68.4505 9.348 68.4505 10.212V15H65.6425V5.316H68.3245V6.45C68.6965 6.042 69.1585 5.73 69.7105 5.514C70.2625 5.286 70.8685 5.172 71.5285 5.172ZM88.7233 5.316V13.38C88.7233 15.156 88.2613 16.476 87.3373 17.34C86.4133 18.204 85.0633 18.636 83.2873 18.636C82.3513 18.636 81.4633 18.522 80.6233 18.294C79.7833 18.066 79.0873 17.736 78.5353 17.304L79.6513 15.288C80.0593 15.624 80.5753 15.888 81.1993 16.08C81.8233 16.284 82.4473 16.386 83.0713 16.386C84.0433 16.386 84.7573 16.164 85.2133 15.72C85.6813 15.288 85.9153 14.628 85.9153 13.74V13.326C85.1833 14.13 84.1633 14.532 82.8553 14.532C81.9673 14.532 81.1513 14.34 80.4073 13.956C79.6753 13.56 79.0933 13.008 78.6613 12.3C78.2293 11.592 78.0133 10.776 78.0133 9.852C78.0133 8.928 78.2293 8.112 78.6613 7.404C79.0933 6.696 79.6753 6.15 80.4073 5.766C81.1513 5.37 81.9673 5.172 82.8553 5.172C84.2593 5.172 85.3273 5.634 86.0593 6.558V5.316H88.7233ZM83.4133 12.228C84.1573 12.228 84.7633 12.012 85.2313 11.58C85.7113 11.136 85.9513 10.56 85.9513 9.852C85.9513 9.144 85.7113 8.574 85.2313 8.142C84.7633 7.698 84.1573 7.476 83.4133 7.476C82.6693 7.476 82.0573 7.698 81.5773 8.142C81.0973 8.574 80.8573 9.144 80.8573 9.852C80.8573 10.56 81.0973 11.136 81.5773 11.58C82.0573 12.012 82.6693 12.228 83.4133 12.228ZM109.826 2.4L104.372 15H101.492L96.0564 2.4H99.2064L103.04 11.4L106.928 2.4H109.826ZM111.396 5.316H114.204V15H111.396V5.316ZM112.8 3.966C112.284 3.966 111.864 3.816 111.54 3.516C111.216 3.216 111.054 2.844 111.054 2.4C111.054 1.956 111.216 1.584 111.54 1.284C111.864 0.983999 112.284 0.833999 112.8 0.833999C113.316 0.833999 113.736 0.977999 114.06 1.266C114.384 1.554 114.546 1.914 114.546 2.346C114.546 2.814 114.384 3.204 114.06 3.516C113.736 3.816 113.316 3.966 112.8 3.966ZM127.214 1.644V15H124.532V13.884C123.836 14.724 122.828 15.144 121.508 15.144C120.596 15.144 119.768 14.94 119.024 14.532C118.292 14.124 117.716 13.542 117.296 12.786C116.876 12.03 116.666 11.154 116.666 10.158C116.666 9.162 116.876 8.286 117.296 7.53C117.716 6.774 118.292 6.192 119.024 5.784C119.768 5.376 120.596 5.172 121.508 5.172C122.744 5.172 123.71 5.562 124.406 6.342V1.644H127.214ZM121.994 12.84C122.702 12.84 123.29 12.6 123.758 12.12C124.226 11.628 124.46 10.974 124.46 10.158C124.46 9.342 124.226 8.694 123.758 8.214C123.29 7.722 122.702 7.476 121.994 7.476C121.274 7.476 120.68 7.722 120.212 8.214C119.744 8.694 119.51 9.342 119.51 10.158C119.51 10.974 119.744 11.628 120.212 12.12C120.68 12.6 121.274 12.84 121.994 12.84ZM139.839 10.194C139.839 10.23 139.821 10.482 139.785 10.95H132.459C132.591 11.55 132.903 12.024 133.395 12.372C133.887 12.72 134.499 12.894 135.231 12.894C135.735 12.894 136.179 12.822 136.563 12.678C136.959 12.522 137.325 12.282 137.661 11.958L139.155 13.578C138.243 14.622 136.911 15.144 135.159 15.144C134.067 15.144 133.101 14.934 132.261 14.514C131.421 14.082 130.773 13.488 130.317 12.732C129.861 11.976 129.633 11.118 129.633 10.158C129.633 9.21 129.855 8.358 130.299 7.602C130.755 6.834 131.373 6.24 132.153 5.82C132.945 5.388 133.827 5.172 134.799 5.172C135.747 5.172 136.605 5.376 137.373 5.784C138.141 6.192 138.741 6.78 139.173 7.548C139.617 8.304 139.839 9.186 139.839 10.194ZM134.817 7.296C134.181 7.296 133.647 7.476 133.215 7.836C132.783 8.196 132.519 8.688 132.423 9.312H137.193C137.097 8.7 136.833 8.214 136.401 7.854C135.969 7.482 135.441 7.296 134.817 7.296ZM146.857 15.144C145.837 15.144 144.919 14.934 144.103 14.514C143.299 14.082 142.669 13.488 142.213 12.732C141.757 11.976 141.529 11.118 141.529 10.158C141.529 9.198 141.757 8.34 142.213 7.584C142.669 6.828 143.299 6.24 144.103 5.82C144.919 5.388 145.837 5.172 146.857 5.172C147.877 5.172 148.789 5.388 149.593 5.82C150.397 6.24 151.027 6.828 151.483 7.584C151.939 8.34 152.167 9.198 152.167 10.158C152.167 11.118 151.939 11.976 151.483 12.732C151.027 13.488 150.397 14.082 149.593 14.514C148.789 14.934 147.877 15.144 146.857 15.144ZM146.857 12.84C147.577 12.84 148.165 12.6 148.621 12.12C149.089 11.628 149.323 10.974 149.323 10.158C149.323 9.342 149.089 8.694 148.621 8.214C148.165 7.722 147.577 7.476 146.857 7.476C146.137 7.476 145.543 7.722 145.075 8.214C144.607 8.694 144.373 9.342 144.373 10.158C144.373 10.974 144.607 11.628 145.075 12.12C145.543 12.6 146.137 12.84 146.857 12.84ZM163.335 4.74V8.07H169.167V10.41H163.335V15H160.419V2.4H169.941V4.74H163.335ZM172.082 5.316H174.89V15H172.082V5.316ZM173.486 3.966C172.97 3.966 172.55 3.816 172.226 3.516C171.902 3.216 171.74 2.844 171.74 2.4C171.74 1.956 171.902 1.584 172.226 1.284C172.55 0.983999 172.97 0.833999 173.486 0.833999C174.002 0.833999 174.422 0.977999 174.746 1.266C175.07 1.554 175.232 1.914 175.232 2.346C175.232 2.814 175.07 3.204 174.746 3.516C174.422 3.816 174.002 3.966 173.486 3.966ZM178.036 1.644H180.844V15H178.036V1.644ZM196.392 5.172C197.604 5.172 198.564 5.532 199.272 6.252C199.992 6.96 200.352 8.028 200.352 9.456V15H197.544V9.888C197.544 9.12 197.382 8.55 197.058 8.178C196.746 7.794 196.296 7.602 195.708 7.602C195.048 7.602 194.526 7.818 194.142 8.25C193.758 8.67 193.566 9.3 193.566 10.14V15H190.758V9.888C190.758 8.364 190.146 7.602 188.922 7.602C188.274 7.602 187.758 7.818 187.374 8.25C186.99 8.67 186.798 9.3 186.798 10.14V15H183.99V5.316H186.672V6.432C187.032 6.024 187.47 5.712 187.986 5.496C188.514 5.28 189.09 5.172 189.714 5.172C190.398 5.172 191.016 5.31 191.568 5.586C192.12 5.85 192.564 6.24 192.9 6.756C193.296 6.252 193.794 5.862 194.394 5.586C195.006 5.31 195.672 5.172 196.392 5.172ZM206.667 15.144C205.863 15.144 205.077 15.048 204.309 14.856C203.541 14.652 202.929 14.4 202.473 14.1L203.409 12.084C203.841 12.36 204.363 12.588 204.975 12.768C205.587 12.936 206.187 13.02 206.775 13.02C207.963 13.02 208.557 12.726 208.557 12.138C208.557 11.862 208.395 11.664 208.071 11.544C207.747 11.424 207.249 11.322 206.577 11.238C205.785 11.118 205.131 10.98 204.615 10.824C204.099 10.668 203.649 10.392 203.265 9.996C202.893 9.6 202.707 9.036 202.707 8.304C202.707 7.692 202.881 7.152 203.229 6.684C203.589 6.204 204.105 5.832 204.777 5.568C205.461 5.304 206.265 5.172 207.189 5.172C207.873 5.172 208.551 5.25 209.223 5.406C209.907 5.55 210.471 5.754 210.915 6.018L209.979 8.016C209.127 7.536 208.197 7.296 207.189 7.296C206.589 7.296 206.139 7.38 205.839 7.548C205.539 7.716 205.389 7.932 205.389 8.196C205.389 8.496 205.551 8.706 205.875 8.826C206.199 8.946 206.715 9.06 207.423 9.168C208.215 9.3 208.863 9.444 209.367 9.6C209.871 9.744 210.309 10.014 210.681 10.41C211.053 10.806 211.239 11.358 211.239 12.066C211.239 12.666 211.059 13.2 210.699 13.668C210.339 14.136 209.811 14.502 209.115 14.766C208.431 15.018 207.615 15.144 206.667 15.144Z" fill="#333333"/>
</svg>
