<svg width="18" height="18" viewBox="0 0 18 18" fill="none" xmlns="http://www.w3.org/2000/svg">
<path d="M14.2258 11.1502C13.8573 10.7665 13.4128 10.5614 12.9417 10.5614C12.4744 10.5614 12.0261 10.7627 11.6424 11.1464L10.4419 12.3431C10.3432 12.2899 10.2444 12.2405 10.1494 12.1911C10.0126 12.1228 9.88348 12.0582 9.77331 11.9898C8.6488 11.2756 7.62686 10.3448 6.64671 9.14053C6.17184 8.54029 5.85272 8.03502 5.62098 7.52215C5.9325 7.23722 6.22122 6.9409 6.50235 6.65597C6.60872 6.5496 6.7151 6.43943 6.82147 6.33305C7.61926 5.53526 7.61926 4.50193 6.82147 3.70413L5.78434 2.667C5.66657 2.54923 5.545 2.42766 5.43103 2.30609C5.20309 2.07055 4.96375 1.82741 4.71681 1.59947C4.34831 1.23477 3.90762 1.04102 3.44414 1.04102C2.98066 1.04102 2.53237 1.23477 2.15247 1.59947C2.14867 1.60327 2.14867 1.60327 2.14487 1.60707L0.853204 2.91014C0.366929 3.39641 0.0896004 3.98906 0.028816 4.67668C-0.0623605 5.786 0.264355 6.81933 0.515091 7.49556C1.13053 9.15573 2.0499 10.6943 3.42134 12.3431C5.08532 14.33 7.0874 15.899 9.37441 17.0045C10.2482 17.4186 11.4145 17.9087 12.7176 17.9923C12.7973 17.9961 12.8809 17.9999 12.9569 17.9999C13.8345 17.9999 14.5715 17.6845 15.1489 17.0577C15.1527 17.0501 15.1603 17.0463 15.1641 17.0387C15.3617 16.7994 15.5896 16.5828 15.829 16.3511C15.9923 16.1953 16.1595 16.032 16.3228 15.861C16.6989 15.4697 16.8965 15.0138 16.8965 14.5465C16.8965 14.0755 16.6951 13.6234 16.3114 13.2435L14.2258 11.1502ZM15.5858 15.1506C15.582 15.1506 15.582 15.1544 15.5858 15.1506C15.4377 15.3101 15.2857 15.4545 15.1223 15.6141C14.8754 15.8496 14.6247 16.0965 14.3891 16.3739C14.0054 16.7842 13.5533 16.9779 12.9607 16.9779C12.9037 16.9779 12.8429 16.9779 12.7859 16.9741C11.6576 16.9019 10.6091 16.4613 9.8227 16.0851C7.67245 15.0442 5.78434 13.5664 4.21534 11.6935C2.91987 10.1321 2.0537 8.68845 1.48004 7.13845C1.12673 6.19249 0.997567 5.45548 1.05455 4.76026C1.09254 4.31577 1.2635 3.94727 1.57882 3.63195L2.87428 2.33648C3.06044 2.16173 3.25799 2.06675 3.45174 2.06675C3.69107 2.06675 3.88482 2.21111 4.00639 2.33268C4.01019 2.33648 4.01399 2.34028 4.01779 2.34408C4.24953 2.56062 4.46987 2.78477 4.70161 3.02411C4.81938 3.14567 4.94095 3.26724 5.06252 3.39261L6.09966 4.42974C6.50235 4.83244 6.50235 5.20475 6.09966 5.60744C5.98948 5.71761 5.88311 5.82778 5.77294 5.93416C5.45382 6.26087 5.1499 6.5648 4.81938 6.86112C4.81179 6.86872 4.80419 6.87252 4.80039 6.88011C4.47367 7.20683 4.53446 7.52595 4.60284 7.74249C4.60664 7.75389 4.61044 7.76529 4.61424 7.77668C4.88397 8.43012 5.26387 9.04556 5.84132 9.77877L5.84512 9.78257C6.89365 11.0742 7.99917 12.081 9.21865 12.8522C9.37441 12.951 9.53397 13.0307 9.68593 13.1067C9.8227 13.1751 9.95186 13.2397 10.062 13.3081C10.0772 13.3157 10.0924 13.3271 10.1076 13.3347C10.2368 13.3992 10.3584 13.4296 10.4837 13.4296C10.799 13.4296 10.9966 13.2321 11.0612 13.1675L12.3604 11.8682C12.4896 11.7391 12.6948 11.5833 12.9341 11.5833C13.1696 11.5833 13.3634 11.7315 13.4812 11.8606C13.485 11.8644 13.485 11.8644 13.4888 11.8682L15.582 13.9615C15.9733 14.349 15.9733 14.7479 15.5858 15.1506Z" fill="#333333"/>
<path d="M9.72782 4.28157C10.7232 4.44872 11.6273 4.9198 12.3491 5.64162C13.071 6.36343 13.5382 7.2676 13.7092 8.26294C13.751 8.51368 13.9675 8.68843 14.2145 8.68843C14.2448 8.68843 14.2714 8.68463 14.3018 8.68083C14.583 8.63525 14.7691 8.36932 14.7235 8.08819C14.5184 6.8839 13.9485 5.78598 13.0786 4.916C12.2086 4.04603 11.1107 3.47617 9.90637 3.27103C9.62525 3.22544 9.36311 3.41159 9.31373 3.68892C9.26434 3.96625 9.44669 4.23598 9.72782 4.28157Z" fill="#333333"/>
<path d="M17.9792 7.94018C17.6411 5.95709 16.7066 4.15255 15.2705 2.71652C13.8345 1.28049 12.03 0.345932 10.0469 0.00781895C9.76955 -0.0415683 9.50742 0.148383 9.45803 0.425712C9.41245 0.706839 9.5986 0.968972 9.87973 1.01836C11.6501 1.31848 13.2647 2.15807 14.5487 3.43834C15.8328 4.72241 16.6686 6.33699 16.9687 8.10734C17.0105 8.35807 17.227 8.53283 17.474 8.53283C17.5044 8.53283 17.531 8.52903 17.5614 8.52523C17.8387 8.48344 18.0286 8.21751 17.9792 7.94018Z" fill="#333333"/>
</svg>
