<svg width="54" height="49" viewBox="0 0 54 49" fill="none" xmlns="http://www.w3.org/2000/svg">
<path d="M42.3087 11.8817C39.8895 10.839 37.2828 10.3013 34.6485 10.3019C32.0201 10.3008 29.4194 10.8384 27.0068 11.8817C25.6395 11.2905 24.2077 10.8608 22.7407 10.6015L27.1283 6.94526C27.4278 6.6956 27.5323 6.28154 27.3874 5.91965L25.5881 1.42135C25.4515 1.07948 25.1205 0.855356 24.7523 0.855469H13.0567C12.6887 0.855356 12.3575 1.07948 12.2209 1.42135L10.4216 5.91965C10.2767 6.28154 10.3813 6.6956 10.6807 6.94526L15.2474 10.7508C4.80979 13.0118 -1.81867 23.306 0.442395 33.7436C2.70335 44.1812 12.9976 50.8097 23.4352 48.5487C24.6562 48.2842 25.8487 47.902 26.9962 47.4074C36.8063 51.6359 48.1868 47.1111 52.4153 37.3009C56.6437 27.4908 52.1189 16.1102 42.3087 11.8817ZM24.5904 3.77306L25.2201 5.35376H23.6421L24.5904 3.77306ZM23.1635 2.65479L22.0533 4.50538L20.9431 2.65479H23.1635ZM19.2491 3.32773L20.4645 5.35376H17.6279L19.2491 3.32773ZM17.4821 2.65479L15.8628 4.68082L14.6455 2.65479H17.4821ZM13.2187 3.77306L14.1669 5.35376H12.5862L13.2187 3.77306ZM13.7423 7.15308H24.0667L20.828 9.85206H16.981L13.7423 7.15308ZM19.3543 47.1879C9.66547 47.1785 1.81865 39.3164 1.82798 29.6276C1.83731 19.9387 9.69943 12.0919 19.3884 12.1012C21.2504 12.103 23.1002 12.4012 24.8685 12.9847C24.1879 13.3863 23.5324 13.8288 22.9054 14.3099C14.4188 12.3314 5.93526 17.6072 3.9568 26.0937C1.97834 34.5802 7.25416 43.0638 15.7406 45.0422C24.2271 47.0207 32.7107 41.7449 34.6891 33.2584C36.1135 27.1486 33.7829 20.7755 28.7531 17.0259C29.3845 16.7271 30.0378 16.4766 30.7071 16.2765C38.0931 22.5428 39.0007 33.61 32.7346 40.9959C29.4008 44.9255 24.5076 47.1899 19.3543 47.1879ZM21.1456 15.8204C13.5059 23.256 13.3405 35.4769 20.776 43.1166C20.8903 43.234 21.0059 43.3498 21.1231 43.4642C13.4877 44.4479 6.50058 39.0555 5.51692 31.4201C4.53325 23.7847 9.92558 16.7976 17.5609 15.814C18.1555 15.7374 18.7546 15.6992 19.3542 15.6997C19.9534 15.7021 20.5517 15.7423 21.1456 15.8204ZM27.0014 41.2915C20.569 37.0827 18.7664 28.4562 22.9752 22.0238C24.0255 20.4186 25.3963 19.0478 27.0014 17.9976C33.4339 22.2073 35.2358 30.8345 31.0261 37.2669C29.976 38.8713 28.6059 40.2415 27.0014 41.2915ZM32.878 15.8249H32.8798C40.5158 14.8498 47.4964 20.2494 48.4716 27.8854C49.4467 35.5213 44.047 42.502 36.4111 43.4771C35.2285 43.6282 34.0314 43.6268 32.8491 43.4732C40.4917 36.0407 40.662 23.8198 33.2294 16.1772C33.1139 16.0582 32.9968 15.9408 32.878 15.8249ZM48.0137 41.0098C44.681 44.9303 39.7944 47.1893 34.6486 47.188C32.7751 47.1915 30.9133 46.8931 29.1346 46.3045C29.8164 45.9024 30.4728 45.4589 31.1004 44.9767C39.5906 46.9568 48.0785 41.6794 50.0587 33.1892C52.0388 24.699 46.7614 16.2111 38.2712 14.2309C29.781 12.2508 21.2931 17.5282 19.313 26.0183C17.8871 32.1318 20.2192 38.509 25.2525 42.2605C24.62 42.5606 23.9655 42.8121 23.2948 43.0126C15.9158 36.7397 15.0192 25.6727 21.2921 18.2938C27.565 10.9148 38.632 10.0182 46.011 16.291C53.3899 22.5638 54.2866 33.6308 48.0137 41.0098Z" fill="#F7DA8D"/>
</svg>
