<svg width="54" height="54" viewBox="0 0 54 54" fill="none" xmlns="http://www.w3.org/2000/svg">
<g clip-path="url(#clip0)">
<path d="M37.125 10.125C33.3294 10.125 29.8225 11.3853 27.0004 13.5087C24.1779 11.3853 20.6711 10.125 16.875 10.125C7.57027 10.125 0 17.6949 0 27C0 36.3051 7.57027 43.875 16.875 43.875C20.6711 43.875 24.1783 42.6147 27.0008 40.4905C29.8229 42.6143 33.3294 43.875 37.125 43.875C46.4297 43.875 54 36.3051 54 27C54 17.6949 46.4297 10.125 37.125 10.125ZM2.10938 27C2.10938 18.8583 8.73331 12.2344 16.875 12.2344C25.0167 12.2344 31.6406 18.8583 31.6406 27C31.6406 35.1417 25.0167 41.7656 16.875 41.7656C8.73331 41.7656 2.10938 35.1417 2.10938 27ZM31.2834 18.2243C32.9569 17.1065 34.9658 16.4531 37.125 16.4531C42.9406 16.4531 47.6719 21.1844 47.6719 27C47.6719 32.8156 42.9406 37.5469 37.125 37.5469C34.9658 37.5469 32.9573 36.8931 31.2838 35.7749C32.8477 33.2165 33.75 30.2119 33.75 27C33.75 23.7881 32.8477 20.7831 31.2834 18.2243ZM37.125 41.7656C33.9712 41.7656 31.0461 40.7715 28.6447 39.0803C29.1526 38.5851 29.6297 38.0586 30.0726 37.5036C32.0893 38.8624 34.5159 39.6562 37.125 39.6562C44.1037 39.6562 49.7812 33.9787 49.7812 27C49.7812 20.0213 44.1037 14.3438 37.125 14.3438C34.5159 14.3438 32.0893 15.1381 30.073 16.4968C29.6301 15.9414 29.1526 15.4149 28.6447 14.9197C31.0461 13.2289 33.9712 12.2344 37.125 12.2344C45.2667 12.2344 51.8906 18.8583 51.8906 27C51.8906 35.1417 45.2667 41.7656 37.125 41.7656Z" fill="#F7DA8D"/>
<path d="M40.0484 29.139C40.3302 29.139 40.5947 29.029 40.7941 28.8309L43.7769 25.8473C43.9763 25.6479 44.0859 25.3834 44.0859 25.1016C44.0859 24.8198 43.9763 24.5553 43.7769 24.3559C43.5775 24.1565 43.313 24.0469 43.0312 24.0469C42.7494 24.0469 42.4849 24.1565 42.2855 24.3559L39.3019 27.3387C38.8916 27.7498 38.8916 28.4197 39.3019 28.8309C39.5013 29.029 39.7658 29.139 40.0484 29.139Z" fill="#F7DA8D"/>
<path d="M37.0648 32.1226C37.3466 32.1226 37.6111 32.013 37.8105 31.8136C38.0099 31.6142 38.1195 31.3493 38.1195 31.0679C38.1195 30.7861 38.0099 30.5216 37.8105 30.3222C37.6111 30.1228 37.3466 30.0132 37.0648 30.0132C36.7834 30.0132 36.5185 30.1228 36.3191 30.3222C35.908 30.7333 35.908 31.402 36.3191 31.8136C36.5185 32.013 36.7834 32.1226 37.0648 32.1226Z" fill="#F7DA8D"/>
<path d="M42.2856 30.684L40.0707 32.8988C39.6587 33.3108 39.6587 33.9782 40.0707 34.3902C40.2767 34.5962 40.5466 34.6992 40.8164 34.6992C41.0863 34.6992 41.3561 34.5962 41.5621 34.3902L43.7769 32.1754C44.1889 31.7638 44.1889 31.096 43.7769 30.684C43.365 30.272 42.6975 30.272 42.2856 30.684Z" fill="#F7DA8D"/>
<path d="M16.875 14.3438C9.89635 14.3438 4.21875 20.0213 4.21875 27C4.21875 33.9787 9.89635 39.6562 16.875 39.6562C23.8537 39.6562 29.5312 33.9787 29.5312 27C29.5312 20.0213 23.8537 14.3438 16.875 14.3438ZM16.875 37.5469C11.0594 37.5469 6.32812 32.8156 6.32812 27C6.32812 21.1844 11.0594 16.4531 16.875 16.4531C22.6906 16.4531 27.4219 21.1844 27.4219 27C27.4219 32.8156 22.6906 37.5469 16.875 37.5469Z" fill="#F7DA8D"/>
<path d="M20.7856 28.1519C20.7856 27.8688 20.676 27.6043 20.4766 27.4062C20.2784 27.2068 20.0127 27.0972 19.7309 27.0972C19.4495 27.0972 19.1846 27.2068 18.9856 27.4062L13.9145 32.4769C13.5033 32.8881 13.5033 33.5571 13.9145 33.9683C14.1139 34.1677 14.3783 34.2773 14.6601 34.2773C14.9419 34.2773 15.2064 34.1677 15.4058 33.9683L20.4766 28.8976C20.676 28.6982 20.7856 28.4332 20.7856 28.1519Z" fill="#F7DA8D"/>
<path d="M22.715 26.2227C22.9964 26.2227 23.2613 26.1131 23.4607 25.9137C23.6597 25.7143 23.7697 25.4498 23.7697 25.168C23.7697 24.8866 23.6597 24.6217 23.4607 24.4223C23.2613 24.2233 22.9964 24.1133 22.715 24.1133C22.4332 24.1133 22.1687 24.2233 21.9693 24.4223C21.7699 24.6217 21.6603 24.8866 21.6603 25.168C21.6603 25.4498 21.7699 25.7143 21.9693 25.9137C22.1687 26.1131 22.4332 26.2227 22.715 26.2227Z" fill="#F7DA8D"/>
<path d="M22.0356 30.684L19.8207 32.8988C19.4087 33.3108 19.4087 33.9782 19.8207 34.3902C20.0267 34.5962 20.2966 34.6992 20.5664 34.6992C20.8363 34.6992 21.1061 34.5962 21.3121 34.3902L23.5269 32.1754C23.9389 31.7638 23.9389 31.096 23.5269 30.684C23.115 30.272 22.4475 30.272 22.0356 30.684Z" fill="#F7DA8D"/>
</g>
<defs>
<clipPath id="clip0">
<rect width="54" height="54" fill="white"/>
</clipPath>
</defs>
</svg>
