<svg width="54" height="54" viewBox="0 0 54 54" fill="none" xmlns="http://www.w3.org/2000/svg">
<g clip-path="url(#clip0)">
<path d="M31.1635 42.6494C30.726 42.6494 30.3714 43.0041 30.3714 43.4415V44.9865C30.3714 45.424 30.726 45.7786 31.1635 45.7786C31.601 45.7786 31.9555 45.4239 31.9555 44.9865V43.4415C31.9556 43.004 31.601 42.6494 31.1635 42.6494Z" fill="#F7DA8D"/>
<path d="M30.4471 1.37744C29.1543 1.37744 27.9372 1.84941 26.9963 2.69559C26.0554 1.84941 24.8383 1.37744 23.5455 1.37744C20.6939 1.37744 18.374 3.69733 18.374 6.54889C18.3739 9.05936 19.8384 11.4739 22.6088 13.5313C24.6281 15.031 26.6236 15.82 26.7075 15.8528C26.8003 15.8891 26.8982 15.9072 26.9962 15.9072C27.0942 15.9072 27.192 15.8891 27.2849 15.8528C27.3688 15.82 29.3642 15.031 31.3836 13.5313C34.1541 11.4738 35.6186 9.05936 35.6186 6.54889C35.6186 3.69733 33.2987 1.37744 30.4471 1.37744ZM26.9961 14.2546C25.6367 13.6526 19.9581 10.8777 19.9581 6.549C19.9581 4.57093 21.5673 2.96169 23.5454 2.96169C24.6563 2.96169 25.6867 3.46425 26.3723 4.34048C26.5224 4.53233 26.7526 4.64444 26.9961 4.64444C27.2396 4.64444 27.4698 4.53233 27.6198 4.34048C28.3056 3.46425 29.336 2.96169 30.4468 2.96169C32.4249 2.96169 34.0341 4.57093 34.0341 6.549C34.0341 10.8784 28.3542 13.6534 26.9961 14.2546Z" fill="#F7DA8D"/>
<path d="M49.4038 36.5204L44.3967 35.046C44.3729 35.0388 44.3487 35.0326 44.324 35.0276L43.5384 34.8697C43.3516 34.8321 43.2159 34.6665 43.2159 34.476V34.0981C45.2723 33.1603 46.8629 31.3739 47.5348 29.1876H48.1403C49.2086 29.1876 50.0777 28.3185 50.0777 27.2502V25.981C50.0777 25.4095 49.824 24.8759 49.4031 24.5133V23.1162C49.4031 18.5628 45.6986 14.8583 41.1452 14.8583H38.706C34.1526 14.8583 30.4481 18.5628 30.4481 23.1162V24.5133C30.0272 24.8759 29.7734 25.4095 29.7734 25.981V27.2502C29.7734 28.3185 30.6426 29.1876 31.7109 29.1876H32.3164C32.9728 31.3236 34.5052 33.0794 36.4929 34.0336V34.5045C36.4929 34.6951 36.3573 34.8608 36.1705 34.8984L35.5394 35.0252C35.5389 35.0253 35.5383 35.0254 35.5377 35.0255L35.5272 35.0277C35.5024 35.0326 35.4781 35.0389 35.4543 35.0461L30.4474 36.5204C28.7034 37.0338 27.2994 38.2663 26.5208 39.8323C26.1835 39.2966 25.7626 38.8151 25.2735 38.4094L27.2035 37.7982C28.3089 37.4482 29.0341 36.394 28.9672 35.2349C28.8483 33.1739 28.3468 28.9993 26.3255 24.196C23.8143 18.2287 20.2149 15.9431 17.5376 15.0871C16.8538 14.1395 15.7411 13.521 14.4859 13.521C13.2308 13.521 12.118 14.1395 11.4342 15.0871C8.75687 15.9432 5.15744 18.2288 2.64623 24.196C0.624706 28.9993 0.123307 33.1739 0.00433865 35.2348C-0.062634 36.3939 0.662675 37.4481 1.76809 37.7981L3.69796 38.4093C2.36473 39.5154 1.53617 41.1836 1.53617 42.9807V51.8301C1.53617 52.2676 1.89086 52.6222 2.32824 52.6222L53.2079 52.617C53.6454 52.617 54 52.2624 54 51.8249V42.665C54 39.8439 52.1099 37.3171 49.4038 36.5204ZM24.8652 24.8105C26.7946 29.3952 27.2724 33.3668 27.3855 35.3261C27.4106 35.7613 27.139 36.1568 26.7251 36.2879L23.3682 37.351C23.3057 37.3302 23.2429 37.3106 23.1801 37.2922L18.5926 35.9412C18.5703 35.9346 18.5477 35.9291 18.5249 35.9245L17.8058 35.7799C17.6659 35.7518 17.5645 35.6279 17.5645 35.4853V35.1218C17.5949 35.1086 17.6243 35.0933 17.6545 35.0795C17.7374 35.0421 17.8198 35.0041 17.9011 34.9638C17.9413 34.9439 17.981 34.9231 18.0207 34.9025C18.1026 34.8602 18.1836 34.8169 18.2637 34.7719C18.2983 34.7524 18.3326 34.7326 18.3669 34.7125C18.4541 34.6617 18.5403 34.6091 18.6253 34.5549C18.6501 34.5391 18.6748 34.5235 18.6993 34.5074C18.7984 34.4427 18.8959 34.3758 18.9918 34.3067C19.0012 34.2999 19.0108 34.2934 19.0201 34.2865C20.3566 33.3152 21.3722 31.9279 21.872 30.3151H22.456C23.5041 30.3151 24.357 29.4623 24.357 28.4141V27.1853C24.357 27.127 24.3534 27.0695 24.3482 27.0126C24.3469 26.9987 24.3456 26.985 24.3441 26.9713C24.3378 26.9152 24.3298 26.8595 24.3187 26.8049C24.3179 26.8013 24.3169 26.7978 24.3162 26.7943C24.3053 26.7426 24.2918 26.6917 24.2768 26.6415C24.273 26.6289 24.2692 26.6162 24.2652 26.6037C24.2484 26.5514 24.23 26.5001 24.2089 26.45C24.2066 26.4445 24.2039 26.4393 24.2016 26.4339C24.1818 26.3881 24.1601 26.3435 24.1369 26.2996C24.1309 26.2884 24.1251 26.2772 24.1189 26.2662C24.0928 26.219 24.065 26.1729 24.0352 26.1284C24.0309 26.122 24.0262 26.116 24.0218 26.1096C23.9945 26.0701 23.9657 26.0317 23.9355 25.9944C23.9279 25.985 23.9205 25.9755 23.9127 25.9662C23.8783 25.9252 23.8426 25.8855 23.8049 25.8477C23.7986 25.8412 23.7919 25.8352 23.7854 25.8289C23.7517 25.7959 23.7168 25.7641 23.6807 25.7336C23.6719 25.7263 23.6634 25.7188 23.6545 25.7115C23.6131 25.6777 23.5703 25.6456 23.526 25.6153C23.5176 25.6096 23.509 25.6043 23.5007 25.5989C23.4804 25.5855 23.4604 25.5717 23.4396 25.5591C23.4394 25.4276 23.4353 25.2967 23.4293 25.166C23.4272 25.1186 23.4241 25.0715 23.4212 25.0243C23.4162 24.9429 23.41 24.8619 23.4027 24.7811C23.3972 24.7188 23.392 24.6565 23.3853 24.5947C23.3829 24.5733 23.3797 24.552 23.3772 24.5306C23.1139 22.2687 22.005 20.2626 20.3751 18.8357L20.3749 18.8355C20.223 18.7025 20.0671 18.574 19.9065 18.4514C19.8988 18.4455 19.8913 18.4393 19.8835 18.4334C19.8343 18.3961 19.7839 18.36 19.7339 18.3237C19.675 18.2809 19.6158 18.2385 19.5559 18.1971C19.5151 18.1689 19.4743 18.1409 19.4331 18.1135C19.3445 18.0545 19.2548 17.9969 19.1639 17.9408C19.1478 17.9309 19.132 17.9204 19.1159 17.9106C19.0015 17.8411 18.885 17.7743 18.7671 17.7098C18.749 17.6999 18.7306 17.6905 18.7125 17.6807C18.6111 17.6262 18.5086 17.5736 18.4048 17.5229C18.3807 17.5111 18.3565 17.4993 18.3323 17.4877C18.3029 17.4736 18.274 17.4587 18.2443 17.4449C18.2466 17.3907 18.2479 17.3366 18.2479 17.2826C18.2479 17.2129 18.2457 17.1437 18.2419 17.0749C18.2417 17.0716 18.2418 17.0683 18.2416 17.0651C20.4015 18.0898 22.951 20.2616 24.8652 24.8105ZM18.1077 26.8687H20.6324V28.0308C20.6324 28.1403 20.6294 28.25 20.6234 28.3599C20.623 28.3671 20.6221 28.3742 20.6218 28.3813C20.6158 28.4851 20.6076 28.5889 20.5963 28.6927C20.596 28.6952 20.5956 28.6976 20.5953 28.7002C20.5835 28.8073 20.569 28.9144 20.5515 29.0211C20.5507 29.0265 20.5495 29.0318 20.5487 29.0371C20.5319 29.1382 20.5126 29.2389 20.4909 29.3393C20.4813 29.3832 20.4711 29.4268 20.4605 29.4705C20.4456 29.5326 20.4296 29.5944 20.4128 29.6559C20.4012 29.6983 20.3892 29.7406 20.3767 29.7827C20.364 29.825 20.3514 29.8673 20.3379 29.9092C20.3232 29.9548 20.3075 30 20.2918 30.0451C20.2684 30.1122 20.244 30.1788 20.2183 30.2449C20.2076 30.2724 20.1969 30.2998 20.1858 30.3271C20.1178 30.4949 20.0427 30.6596 19.9604 30.8201C19.9582 30.8243 19.9561 30.8286 19.9539 30.8328C19.5413 31.6329 18.9558 32.336 18.2461 32.8879C18.2386 32.8937 18.2312 32.8997 18.2237 32.9054C18.1804 32.9388 18.1364 32.9715 18.0921 33.0038C18.0674 33.0217 18.0424 33.0394 18.0176 33.0569C17.9595 33.0979 17.9007 33.1379 17.8412 33.1769C17.8004 33.2036 17.7596 33.2302 17.7181 33.2559C17.6865 33.2756 17.6545 33.2949 17.6225 33.3141C17.5663 33.3475 17.5096 33.3803 17.4524 33.4121C17.4291 33.425 17.4059 33.4377 17.3826 33.4504C17.3172 33.4855 17.2511 33.5193 17.1844 33.552C17.1608 33.5636 17.1371 33.575 17.1134 33.5863C17.0368 33.6227 16.9596 33.6581 16.8813 33.6914C16.8724 33.6952 16.8633 33.6986 16.8542 33.7023C16.7829 33.7322 16.7108 33.7605 16.6382 33.7877C16.6114 33.7977 16.5846 33.8076 16.5576 33.8173C16.5094 33.8346 16.4606 33.8505 16.4119 33.8667C16.3677 33.8812 16.3236 33.8963 16.2792 33.9099C16.234 33.9237 16.1881 33.9361 16.1424 33.9488C16.0651 33.9704 15.9874 33.9907 15.9093 34.0093C15.8571 34.0217 15.8051 34.0345 15.7525 34.0455C15.71 34.0545 15.6673 34.0619 15.6246 34.07C15.5732 34.0797 15.522 34.0893 15.4702 34.0976C15.4284 34.1044 15.3865 34.1103 15.3447 34.1162C15.2899 34.1239 15.2349 34.131 15.1797 34.1372C15.1405 34.1416 15.1012 34.1458 15.0619 34.1495C14.9997 34.1553 14.937 34.1599 14.8742 34.1639C14.8413 34.166 14.8085 34.1685 14.7754 34.1701C14.6794 34.1746 14.5829 34.1775 14.4856 34.1775C14.3857 34.1775 14.2864 34.1746 14.1877 34.1699C14.1575 34.1684 14.1274 34.1658 14.0974 34.1639C14.0282 34.1595 13.959 34.1547 13.8905 34.148C13.8569 34.1448 13.8235 34.1407 13.7901 34.1369C13.7245 34.1295 13.6592 34.1214 13.5942 34.1119C13.5614 34.1071 13.5287 34.1019 13.496 34.0966C13.4298 34.0858 13.3637 34.074 13.2983 34.0611C13.2683 34.0552 13.2383 34.0493 13.2085 34.043C13.1389 34.0282 13.0698 34.0121 13.0011 33.995C12.976 33.9888 12.9509 33.9828 12.9259 33.9762C12.8484 33.9559 12.7716 33.9338 12.6954 33.9106C12.68 33.9059 12.6644 33.9017 12.649 33.8968C12.2736 33.779 11.9138 33.6261 11.5731 33.4419C11.5622 33.436 11.5515 33.4301 11.5407 33.4242C11.4646 33.3825 11.3894 33.3392 11.3153 33.2945C11.2967 33.2831 11.2783 33.2713 11.2598 33.2598C11.2093 33.2286 11.1596 33.1964 11.1101 33.1637C11.0715 33.1381 11.033 33.1123 10.995 33.0859C10.9812 33.0764 10.9677 33.0664 10.954 33.0568C9.97873 32.3659 9.21155 31.3975 8.7689 30.2842C8.76605 30.2769 8.7631 30.2696 8.76025 30.2624C8.72112 30.1628 8.68494 30.0619 8.65109 29.9602C8.64539 29.943 8.63917 29.926 8.63369 29.9087C8.61945 29.8644 8.60616 29.8198 8.59287 29.7752C8.58095 29.7349 8.56946 29.6943 8.55828 29.6536C8.54298 29.598 8.52843 29.5422 8.51482 29.4861C8.5028 29.4369 8.4913 29.3875 8.48055 29.3377C8.45924 29.2393 8.44036 29.1405 8.4238 29.0414C8.42264 29.0341 8.42106 29.0269 8.4199 29.0196C8.40281 28.9148 8.38858 28.8096 8.37698 28.7045C8.37655 28.7002 8.37582 28.6959 8.37529 28.6916C8.36421 28.5894 8.35609 28.4871 8.35019 28.3848C8.34966 28.3763 8.34871 28.3679 8.34829 28.3594C8.34238 28.2497 8.33932 28.14 8.33932 28.0305V26.7572C8.34671 26.7542 8.35367 26.7503 8.36094 26.7472C8.39005 26.7348 8.41864 26.7215 8.4468 26.7072C8.45808 26.7015 8.46937 26.696 8.48044 26.6901C8.51809 26.67 8.55501 26.6487 8.59076 26.6254C8.59139 26.625 8.59192 26.6245 8.59255 26.6241C8.62768 26.6011 8.66142 26.5763 8.69454 26.5505C8.70446 26.5428 8.71405 26.5347 8.72376 26.5267C8.74833 26.5064 8.77227 26.4854 8.79548 26.4637C8.80455 26.4552 8.81372 26.4468 8.82269 26.4381C8.88386 26.378 8.94007 26.3124 8.99049 26.2417C8.99787 26.2314 9.00473 26.2208 9.0119 26.2104C9.03004 26.1836 9.04733 26.1562 9.06379 26.128C9.07022 26.1169 9.07687 26.1061 9.08309 26.0948C9.10429 26.0563 9.12454 26.017 9.14247 25.9763C9.15903 25.9388 9.17274 25.9 9.18328 25.8602L9.76726 23.668C9.80196 23.5378 9.89952 23.4893 9.95458 23.472C10.0099 23.4547 10.1181 23.4385 10.2216 23.5259C13.056 25.9197 15.3214 26.6742 16.8731 26.8332L18.1077 26.8687ZM22.1846 28.7312C22.1891 28.6833 22.1911 28.6354 22.1945 28.5874C22.199 28.5251 22.2045 28.4631 22.2074 28.4003C22.2134 28.277 22.2168 28.1537 22.2168 28.0308V26.8687H22.2478H22.4559C22.6305 26.8687 22.7727 27.0109 22.7727 27.1855V28.4143C22.7727 28.589 22.6305 28.7312 22.4559 28.7312H22.1846ZM12.3495 16.862C12.3604 16.8062 12.3732 16.7512 12.3884 16.6971C12.3913 16.6863 12.3952 16.6758 12.3984 16.665C12.4119 16.6197 12.4266 16.5748 12.4428 16.5308C12.4484 16.5157 12.4543 16.5008 12.4602 16.4858C12.477 16.4434 12.4949 16.4017 12.5142 16.3605C12.5193 16.3496 12.5242 16.3386 12.5295 16.3277C12.884 15.6045 13.6275 15.105 14.4858 15.105C15.344 15.105 16.0874 15.6043 16.442 16.3274C16.4474 16.3385 16.4524 16.3498 16.4577 16.361C16.4769 16.4018 16.4946 16.4433 16.5113 16.4854C16.5172 16.5005 16.5233 16.5156 16.5289 16.5309C16.5451 16.5747 16.5597 16.6194 16.5731 16.6645C16.5763 16.6754 16.5801 16.686 16.5832 16.697C16.5983 16.7511 16.6111 16.8061 16.622 16.8618C16.6229 16.8666 16.6235 16.8713 16.6244 16.8761C16.5225 16.851 16.4202 16.8283 16.3176 16.8069C16.2911 16.8014 16.2646 16.7963 16.238 16.7911C16.1156 16.7667 15.993 16.7443 15.8697 16.7251C15.8601 16.7237 15.8506 16.7218 15.8409 16.7203C15.7093 16.7002 15.577 16.684 15.4444 16.6698C15.4185 16.667 15.3927 16.6641 15.3667 16.6615C15.2359 16.6487 15.1048 16.6387 14.9733 16.6315C14.9496 16.6302 14.9258 16.6294 14.9021 16.6283C14.7637 16.622 14.625 16.6178 14.4858 16.6178C14.3466 16.6178 14.208 16.622 14.0695 16.6283C14.0458 16.6294 14.022 16.6302 13.9982 16.6315C13.8667 16.6385 13.7355 16.6487 13.6049 16.6615C13.5788 16.6641 13.553 16.667 13.527 16.6698C13.3944 16.6839 13.2623 16.7001 13.1307 16.7203C13.121 16.7218 13.1114 16.7237 13.1017 16.7251C12.9786 16.7443 12.856 16.7666 12.7339 16.7909C12.7071 16.7962 12.6803 16.8013 12.6536 16.8069C12.5511 16.8283 12.4489 16.851 12.3471 16.8761C12.348 16.8715 12.3485 16.8667 12.3495 16.862ZM11.018 19.0711C11.0334 19.0629 11.0487 19.0542 11.0642 19.0461C11.2584 18.9439 11.4578 18.8501 11.6617 18.7652C11.6849 18.7556 11.7083 18.7466 11.7316 18.7372C11.803 18.7083 11.8752 18.6806 11.9477 18.6539C11.9962 18.6361 12.0449 18.619 12.0936 18.6023C12.1517 18.5823 12.21 18.5629 12.2687 18.5444C12.3206 18.528 12.3726 18.5122 12.4248 18.4969C12.4829 18.4799 12.5412 18.4638 12.5999 18.4483C12.6523 18.4344 12.7047 18.4209 12.7573 18.4082C12.8177 18.3937 12.8787 18.3802 12.9397 18.367C12.9909 18.356 13.0422 18.345 13.0935 18.3351C13.1578 18.3228 13.2225 18.3119 13.2874 18.3013C13.3364 18.2931 13.3855 18.2848 13.4347 18.2777C13.5039 18.2678 13.5736 18.2597 13.6435 18.2518C13.6893 18.2465 13.735 18.2406 13.781 18.2362C13.8589 18.2288 13.9375 18.2236 14.0162 18.2187C14.0547 18.2163 14.093 18.2127 14.1316 18.2109C14.2489 18.2053 14.3669 18.2021 14.4856 18.2021C14.6043 18.2021 14.7222 18.2053 14.8396 18.2109C14.8783 18.2127 14.9168 18.2163 14.9555 18.2187C15.034 18.2236 15.1123 18.2287 15.19 18.2362C15.2362 18.2406 15.2821 18.2466 15.3281 18.2519C15.3977 18.2598 15.4672 18.2679 15.5362 18.2778C15.5857 18.2849 15.6348 18.2934 15.6842 18.3015C15.7488 18.3121 15.8134 18.323 15.8774 18.3352C15.9291 18.3451 15.9804 18.3561 16.0319 18.3672C16.0928 18.3803 16.1534 18.3937 16.2136 18.4082C16.2665 18.421 16.3191 18.4346 16.3716 18.4485C16.43 18.464 16.4882 18.48 16.5461 18.4969C16.5985 18.5122 16.6507 18.5281 16.7029 18.5446C16.7613 18.563 16.8194 18.5823 16.8772 18.6023C16.9263 18.6191 16.9751 18.6362 17.0238 18.6542C17.0964 18.6809 17.1686 18.7085 17.2401 18.7375C17.2632 18.7468 17.2864 18.7557 17.3093 18.7653C17.5134 18.8503 17.7129 18.9441 17.9072 19.0464C17.9225 19.0544 17.9375 19.0629 17.9527 19.071C18.0321 19.1135 18.1106 19.1575 18.1882 19.2028C18.2121 19.2168 18.2362 19.231 18.2599 19.2452C18.329 19.2866 18.3971 19.3293 18.4646 19.3728C18.4902 19.3893 18.516 19.4053 18.5413 19.4222C18.6147 19.4708 18.687 19.5211 18.7586 19.5723C18.8158 19.6133 18.8721 19.6555 18.928 19.6981C18.9591 19.7217 18.9904 19.745 19.0211 19.7691C19.0804 19.8157 19.1388 19.8634 19.1966 19.9118C19.2088 19.922 19.2211 19.9322 19.2333 19.9426C20.6533 21.1475 21.5925 22.8686 21.8069 24.7494C21.8111 24.7859 21.8158 24.8222 21.8193 24.8589C21.8243 24.9105 21.8281 24.9622 21.832 25.014C21.837 25.0795 21.8413 25.1453 21.8445 25.2113C21.8457 25.2357 21.8468 25.2602 21.8478 25.2848H21.424H17.5387C15.1193 25.2848 12.5556 23.4248 11.243 22.3161C11.2047 22.2838 11.165 22.2537 11.1248 22.2248C11.1134 22.2167 11.102 22.2089 11.0905 22.201C11.0582 22.1788 11.0254 22.1578 10.9921 22.138C10.9823 22.1321 10.9727 22.126 10.9628 22.1203C10.9207 22.0962 10.878 22.0738 10.8345 22.0532C10.8247 22.0486 10.8147 22.0445 10.8049 22.04C10.7696 22.0241 10.734 22.0092 10.698 21.9956C10.6849 21.9907 10.672 21.9857 10.6588 21.9811C10.616 21.9659 10.5728 21.952 10.5291 21.94C10.5262 21.9393 10.5235 21.9382 10.5206 21.9375C10.4744 21.9252 10.4276 21.9151 10.3806 21.9064C10.3671 21.9039 10.3535 21.9018 10.34 21.8995C10.3029 21.8935 10.2658 21.8886 10.2285 21.8848C10.2166 21.8836 10.2046 21.882 10.1927 21.8811C10.1452 21.8772 10.0975 21.8751 10.0497 21.8748C10.0471 21.8748 10.0443 21.8744 10.0417 21.8744C10.0315 21.8744 10.0213 21.8755 10.0111 21.8756C9.98063 21.8761 9.95004 21.8771 9.91946 21.8791C9.90364 21.8801 9.88781 21.8816 9.87189 21.8831C9.84341 21.8857 9.81504 21.8889 9.78656 21.8929C9.77064 21.8951 9.75471 21.8973 9.73879 21.9C9.70873 21.9049 9.67878 21.9108 9.64893 21.9173C9.63532 21.9202 9.62172 21.9227 9.60811 21.9259C9.56487 21.9362 9.52173 21.9477 9.47881 21.9612C8.86582 22.1539 8.40113 22.6397 8.23565 23.2608L7.69639 25.2849H7.54641H7.12264C7.12358 25.2604 7.12464 25.2359 7.12591 25.2115C7.12907 25.1453 7.1335 25.0795 7.13846 25.0139C7.14246 24.9622 7.14615 24.9106 7.15122 24.8591C7.1548 24.8222 7.15955 24.7856 7.16366 24.7489C7.37819 22.8682 8.31738 21.1474 9.73731 19.9426C9.74944 19.9323 9.76167 19.9221 9.77391 19.9119C9.83181 19.8635 9.89035 19.8157 9.94973 19.769C9.97999 19.7452 10.0109 19.7222 10.0415 19.699C10.0983 19.6558 10.1554 19.613 10.2136 19.5713C10.2846 19.5206 10.3563 19.4707 10.4291 19.4225C10.4547 19.4055 10.4809 19.3893 10.5067 19.3726C10.574 19.3293 10.6417 19.2868 10.7105 19.2456C10.7345 19.2312 10.7587 19.2169 10.7829 19.2028C10.8608 19.1572 10.9389 19.1135 11.018 19.0711ZM2.24639 36.2879C1.83232 36.1568 1.56074 35.7613 1.58584 35.3261C1.69901 33.3667 2.17678 29.3952 4.10612 24.8105C6.02038 20.2617 8.56988 18.0898 10.7302 17.0653C10.73 17.0685 10.7301 17.0718 10.7299 17.0751C10.7261 17.1438 10.7239 17.2131 10.7239 17.2829C10.7239 17.3369 10.725 17.3909 10.7275 17.4451C10.6979 17.4588 10.6691 17.4738 10.6397 17.4877C10.6152 17.4994 10.5909 17.5114 10.5665 17.5232C10.4631 17.5737 10.3608 17.6262 10.2599 17.6805C10.2413 17.6905 10.2226 17.7001 10.2041 17.7102C10.0864 17.7747 9.97019 17.8412 9.85607 17.9106C9.83941 17.9207 9.82316 17.9316 9.8065 17.9418C9.71622 17.9975 9.6271 18.0547 9.53903 18.1134C9.49748 18.1411 9.45624 18.1693 9.4151 18.1977C9.35562 18.2388 9.29687 18.2808 9.23855 18.3234C9.18814 18.36 9.13741 18.3964 9.08773 18.434C9.08214 18.4383 9.07676 18.4428 9.07128 18.447C7.18307 19.8854 5.88253 22.0555 5.5945 24.531C5.59197 24.5524 5.5887 24.5736 5.58638 24.5951C5.57963 24.657 5.57446 24.7192 5.56897 24.7815C5.5617 24.8624 5.55548 24.9434 5.55041 25.0247C5.54756 25.0719 5.54451 25.1191 5.5424 25.1664C5.53639 25.297 5.53227 25.428 5.53206 25.5595C5.51128 25.5722 5.49124 25.5859 5.47099 25.5993C5.46256 25.6049 5.45401 25.61 5.44568 25.6157C5.40139 25.646 5.35857 25.6782 5.31712 25.7119C5.30826 25.7191 5.29971 25.7267 5.29096 25.7341C5.25489 25.7645 5.21987 25.7963 5.18623 25.8293C5.1798 25.8356 5.17305 25.8416 5.16672 25.8481C5.12907 25.886 5.09321 25.9257 5.05893 25.9666C5.05123 25.9759 5.04374 25.9853 5.03615 25.9948C5.00609 26.0321 4.97719 26.0704 4.94987 26.1101C4.94555 26.1164 4.9408 26.1225 4.93648 26.1288C4.90653 26.1733 4.87889 26.2194 4.85274 26.2666C4.84662 26.2777 4.84082 26.2888 4.83481 26.3C4.8116 26.3439 4.78977 26.3885 4.77005 26.4343C4.76773 26.4397 4.76499 26.4449 4.76277 26.4504C4.74168 26.5005 4.72322 26.5519 4.70645 26.6041C4.70244 26.6166 4.69865 26.6293 4.69485 26.6419C4.67987 26.6921 4.66637 26.7429 4.65551 26.7948C4.65477 26.7984 4.65372 26.8018 4.65298 26.8053C4.6418 26.8599 4.63389 26.9155 4.62756 26.9717C4.62598 26.9855 4.62471 26.9992 4.62345 27.013C4.61828 27.07 4.61469 27.1274 4.61469 27.1857V28.4146C4.61469 29.4627 5.46751 30.3155 6.51566 30.3155H7.09943C7.09996 30.3172 7.10059 30.3188 7.10112 30.3205C7.11652 30.3699 7.13424 30.4185 7.15058 30.4675C7.80628 32.4546 9.23117 34.0789 11.12 34.9896C11.13 34.9944 11.1399 34.9994 11.1501 35.0042C11.1926 35.0245 11.234 35.0465 11.2769 35.066V35.5118C11.2769 35.6544 11.1755 35.7783 11.0353 35.8064L10.4465 35.925C10.4238 35.9296 10.4013 35.9351 10.3791 35.9417L5.7913 37.2922C5.78983 37.2926 5.78824 37.2931 5.78677 37.2937C5.7256 37.3117 5.66432 37.3309 5.60325 37.3511L2.24639 36.2879ZM6.76415 28.4005C6.76699 28.4617 6.77237 28.5222 6.7767 28.583C6.78028 28.6323 6.78239 28.6817 6.78682 28.7311H6.51556C6.3409 28.7311 6.19873 28.5889 6.19873 28.4142V27.1854C6.19873 27.0108 6.3409 26.8686 6.51556 26.8686H6.72375H6.75476V28.0306C6.75476 28.1538 6.75814 28.2771 6.76415 28.4005ZM25.8514 51.038H25.851H23.6697V43.5668C23.6697 43.1696 23.5404 42.7766 23.3058 42.4601C22.2998 41.1035 20.6926 40.2936 19.0064 40.2936C17.4126 40.2936 15.9133 40.9971 14.893 42.2235C14.7531 42.3918 14.5778 42.417 14.4857 42.417C14.3937 42.417 14.2184 42.3919 14.0783 42.2235C13.0581 40.997 11.5588 40.2936 9.96502 40.2936C8.27889 40.2936 6.67165 41.1035 5.66569 42.4601C5.43092 42.7767 5.30172 43.1697 5.30172 43.5669V44.9863C5.30172 45.4238 5.65641 45.7784 6.09379 45.7784C6.53117 45.7784 6.88586 45.4237 6.88586 44.9863V43.5669C6.88586 43.5072 6.90442 43.4493 6.93817 43.4038C7.65726 42.434 8.76057 41.8778 9.96502 41.8778C11.0868 41.8778 12.1421 42.373 12.8605 43.2366C13.2647 43.7225 13.857 44.0013 14.4858 44.0012C15.1145 44.0012 15.7068 43.7225 16.111 43.2366C16.8293 42.373 17.8847 41.8778 19.0065 41.8778C20.211 41.8778 21.3143 42.4339 22.0334 43.4038C22.067 43.4492 22.0856 43.5071 22.0856 43.5668V51.038H6.88586V48.6718C6.88586 48.2343 6.53117 47.8798 6.09379 47.8798C5.65641 47.8798 5.30172 48.2345 5.30172 48.6718V51.038H3.12031V42.9807C3.12031 41.1392 4.30767 39.483 6.03304 38.8786C6.04527 38.8743 6.0574 38.8696 6.06964 38.8653C6.09136 38.858 6.11351 38.8515 6.13545 38.8445C6.16994 38.8334 6.20442 38.8218 6.23891 38.8117L10.7929 37.4706L11.3477 37.3591C11.4017 37.3483 11.4548 37.3351 11.5069 37.3197C11.5246 37.3145 11.5416 37.3077 11.559 37.302C11.5928 37.2909 11.6269 37.2802 11.6599 37.2673C11.6804 37.2593 11.7 37.2497 11.72 37.241C11.749 37.2285 11.7782 37.2165 11.8064 37.2026C11.8273 37.1923 11.8472 37.1805 11.8677 37.1695C11.8938 37.1554 11.9203 37.1417 11.9457 37.1264C11.9664 37.1139 11.986 37.1001 12.006 37.0869C12.03 37.0712 12.0541 37.0559 12.0773 37.0392C12.0973 37.0247 12.1161 37.0091 12.1354 36.994C12.1573 36.9767 12.1795 36.9598 12.2007 36.9417C12.2196 36.9256 12.2373 36.9083 12.2555 36.8914C12.2756 36.8726 12.296 36.8542 12.3153 36.8347C12.3329 36.8168 12.3493 36.7981 12.3662 36.7796C12.3846 36.7595 12.403 36.7396 12.4205 36.7187C12.4367 36.6993 12.4519 36.6792 12.4673 36.6593C12.4837 36.6378 12.5004 36.6166 12.5159 36.5945C12.5304 36.5738 12.544 36.5524 12.5579 36.531C12.5725 36.5084 12.5872 36.4859 12.6008 36.4627C12.6137 36.4407 12.6256 36.4183 12.6376 36.3957C12.6504 36.372 12.663 36.3482 12.6747 36.3239C12.6858 36.3009 12.6959 36.2774 12.706 36.2538C12.7168 36.2291 12.7274 36.2043 12.7371 36.179C12.7462 36.1549 12.7545 36.1305 12.7626 36.1062C12.7712 36.0804 12.7797 36.0546 12.7872 36.0283C12.7943 36.0036 12.8005 35.9786 12.8067 35.9534C12.8132 35.9267 12.8193 35.9 12.8247 35.8729C12.8298 35.8474 12.8339 35.8217 12.8379 35.796C12.8421 35.7686 12.8459 35.741 12.849 35.7132C12.8518 35.6872 12.8539 35.6611 12.8556 35.6347C12.8565 35.6197 12.8588 35.6049 12.8594 35.5897C12.873 35.5927 12.8869 35.5946 12.9006 35.5974C12.958 35.6094 13.016 35.6192 13.0738 35.63C13.1421 35.6426 13.2101 35.6559 13.2787 35.6667C13.3463 35.6773 13.4147 35.6855 13.4829 35.6943C13.5423 35.702 13.6015 35.7107 13.6612 35.717C13.7384 35.7252 13.8163 35.7307 13.8942 35.7366C13.9459 35.7405 13.9976 35.7456 14.0495 35.7484C14.1307 35.753 14.2126 35.7547 14.2943 35.7567C14.344 35.7578 14.3935 35.7601 14.4432 35.7605C14.4575 35.7606 14.4715 35.7615 14.4858 35.7615C14.5561 35.7615 14.6256 35.758 14.6954 35.7562C14.7426 35.755 14.7899 35.7548 14.8371 35.7526C14.9245 35.7487 15.0111 35.7419 15.0977 35.7351C15.1415 35.7317 15.1854 35.7293 15.2292 35.7251C15.318 35.7166 15.4058 35.7053 15.4937 35.6938C15.5352 35.6883 15.5769 35.684 15.6182 35.6779C15.7112 35.6642 15.803 35.6476 15.8948 35.6306C15.9247 35.625 15.955 35.6211 15.9849 35.6152C15.9853 35.6216 15.9864 35.6278 15.987 35.6341C15.9889 35.6578 15.992 35.6812 15.9949 35.7049C15.9984 35.7346 16.0018 35.7642 16.0067 35.7936C16.0106 35.8172 16.0157 35.8404 16.0205 35.8637C16.0264 35.8923 16.0323 35.9209 16.0396 35.9489C16.0455 35.9721 16.0524 35.995 16.0592 36.0179C16.0673 36.0454 16.0758 36.0727 16.0852 36.0999C16.0931 36.1225 16.1016 36.1448 16.1104 36.167C16.1207 36.1935 16.1314 36.2198 16.1429 36.2457C16.1526 36.2675 16.1628 36.2891 16.1733 36.3105C16.1858 36.3358 16.1985 36.3608 16.212 36.3855C16.2235 36.4065 16.2353 36.4271 16.2476 36.4476C16.262 36.4717 16.2769 36.4955 16.2923 36.5189C16.3054 36.5388 16.3188 36.5584 16.3326 36.5778C16.3489 36.6006 16.3658 36.623 16.3831 36.645C16.3978 36.6638 16.4125 36.6824 16.4279 36.7005C16.4461 36.722 16.465 36.7428 16.484 36.7635C16.5002 36.7809 16.5162 36.7983 16.533 36.815C16.5529 36.8351 16.5736 36.8543 16.5945 36.8734C16.6119 36.8894 16.6292 36.9054 16.6471 36.9207C16.6688 36.9393 16.6914 36.9568 16.714 36.9743C16.7324 36.9886 16.7508 37.0033 16.7698 37.0169C16.7934 37.0339 16.8179 37.0496 16.8423 37.0655C16.8617 37.0781 16.8807 37.0912 16.9005 37.103C16.9262 37.1183 16.9526 37.1322 16.979 37.1463C16.9989 37.157 17.0185 37.1682 17.0388 37.1783C17.067 37.1921 17.0961 37.2042 17.1251 37.2166C17.1448 37.225 17.1641 37.2343 17.1841 37.2421C17.2169 37.2548 17.2507 37.2656 17.2843 37.2765C17.3016 37.2821 17.3183 37.2887 17.3358 37.2938C17.3874 37.3088 17.4399 37.322 17.4935 37.3328L18.1785 37.4706L22.7329 38.8116C22.79 38.8283 22.8465 38.8464 22.9027 38.8655C22.9091 38.8677 22.9154 38.8702 22.9219 38.8724C24.6563 39.4717 25.8514 41.1329 25.8514 42.9805V51.038ZM44.3878 37.8012L45.4679 39.7084L42.3299 44.5687L44.3878 37.8012ZM40.3627 40.2054H39.4884L39.1791 39.6697L39.9256 38.9881L40.672 39.6695L40.3627 40.2054ZM40.5649 44.9279L40.2149 46.0787L39.9255 47.0303L39.2865 44.9289L39.7209 41.7897H40.1262L40.5649 44.9279ZM37.8131 37.1825C38.2958 37.3094 38.7884 37.3908 39.2836 37.4291L37.6407 38.9292C37.5888 38.9765 37.547 39.0308 37.5104 39.0879L36.8544 36.9306L37.8131 37.1825ZM37.7857 35.5374C37.9561 35.2586 38.0594 34.9362 38.0751 34.5953C38.1509 34.6135 38.2271 34.6304 38.3035 34.6463C38.3265 34.651 38.3497 34.6551 38.3727 34.6598C38.4693 34.679 38.5662 34.6964 38.6636 34.7119C38.6873 34.7157 38.7109 34.72 38.7348 34.7236C38.8395 34.7393 38.9448 34.7522 39.0501 34.7638C39.0848 34.7676 39.1193 34.7716 39.1541 34.775C39.2562 34.7848 39.3586 34.7925 39.461 34.7984C39.498 34.8005 39.535 34.8024 39.5721 34.8041C39.6763 34.8087 39.7806 34.8114 39.8849 34.812C39.8985 34.8121 39.9119 34.813 39.9256 34.813C39.9459 34.813 39.9658 34.8117 39.9861 34.8114C40.0945 34.8107 40.2029 34.8084 40.3112 34.8032C40.337 34.802 40.3626 34.8001 40.3883 34.7986C40.4926 34.7926 40.5968 34.7848 40.7008 34.7747C40.7174 34.7732 40.7341 34.772 40.7506 34.7703C40.8679 34.7583 40.9847 34.7429 41.1013 34.7256C41.1194 34.7229 41.1377 34.7204 41.1558 34.7176C41.2729 34.6994 41.3894 34.6783 41.5053 34.655C41.52 34.6521 41.5347 34.6491 41.5492 34.6461C41.5786 34.64 41.6082 34.6344 41.6375 34.6279C41.6638 34.9694 41.7779 35.2904 41.959 35.5654L41.6354 35.6504C40.5167 35.9444 39.3343 35.9444 38.2157 35.6504L37.7857 35.5374ZM40.5675 37.4291C41.0628 37.3909 41.5552 37.3094 42.038 37.1825L42.9967 36.9306L42.3408 39.0878C42.3043 39.0308 42.2624 38.9765 42.2105 38.9292L40.5675 37.4291ZM47.8584 27.4692C47.8642 27.3932 47.871 27.3174 47.8747 27.2407C47.881 27.1117 47.8845 26.9827 47.8845 26.8539V25.6278H48.133C48.1364 25.6278 48.1402 25.6281 48.1434 25.6281C48.1662 25.6283 48.1889 25.6307 48.2112 25.6355C48.2127 25.6358 48.2144 25.6362 48.2159 25.6366C48.2312 25.6401 48.2447 25.6458 48.2587 25.6507C48.2673 25.6539 48.2761 25.6555 48.2846 25.6593L48.2848 25.6594C48.4116 25.7167 48.4936 25.8429 48.4936 25.9809V27.2501C48.4936 27.4449 48.3351 27.6033 48.1404 27.6033H47.849C47.853 27.5587 47.8549 27.514 47.8584 27.4692ZM31.7109 27.6033C31.5161 27.6034 31.3577 27.4449 31.3577 27.2502V25.981C31.3577 25.8431 31.4395 25.717 31.5667 25.6594C31.5874 25.6501 31.6086 25.6436 31.6299 25.6384C31.6336 25.6375 31.6365 25.6364 31.6405 25.6355C31.6629 25.6307 31.6855 25.6283 31.7082 25.6281C31.7115 25.6281 31.7149 25.6279 31.7182 25.6278H31.9666V26.8539C31.9666 26.9827 31.9701 27.1117 31.9765 27.2407C31.9801 27.3172 31.9869 27.3927 31.9927 27.4685C31.9962 27.5134 31.9981 27.5584 32.0023 27.6033H31.7109ZM32.9856 21.5934C32.9554 21.6019 32.926 21.6122 32.8974 21.6242C32.8849 21.6294 32.873 21.636 32.8608 21.6419C32.8454 21.6493 32.8297 21.656 32.8148 21.6643C32.8001 21.6726 32.7864 21.6823 32.7722 21.6913C32.7608 21.6987 32.7489 21.7055 32.7378 21.7134C32.7232 21.7239 32.7097 21.7359 32.6959 21.7473C32.6864 21.7553 32.6763 21.7625 32.6673 21.7709C32.6536 21.7833 32.6411 21.797 32.6284 21.8104C32.6201 21.8191 32.6115 21.8271 32.6037 21.836C32.5913 21.8502 32.5804 21.8654 32.5691 21.8804C32.562 21.8898 32.5545 21.8987 32.5479 21.9084C32.5372 21.924 32.5278 21.9405 32.5184 21.9569C32.5124 21.967 32.506 21.9767 32.5005 21.9872C32.4917 22.004 32.4843 22.0216 32.4766 22.0391C32.4726 22.0484 32.4676 22.0571 32.4639 22.0666C32.4625 22.0703 32.4612 22.0739 32.4597 22.0776C32.4593 22.0787 32.4587 22.0799 32.4581 22.0811C32.4574 22.0832 32.4567 22.0854 32.4559 22.0875C32.4558 22.0877 32.4557 22.0881 32.4556 22.0883C32.4551 22.0898 32.4545 22.0913 32.454 22.0928C32.413 22.2043 32.375 22.3167 32.3392 22.4296C32.3384 22.4321 32.3375 22.4344 32.3367 22.4367C32.3362 22.4383 32.3358 22.4399 32.3354 22.4413C32.1939 22.8888 32.0923 23.3467 32.0322 23.812V23.116C32.0322 19.4362 35.026 16.4424 38.7059 16.4424H41.145C44.8248 16.4424 47.8186 19.4361 47.8186 23.116V23.814C47.8131 23.7716 47.8064 23.7293 47.8002 23.687C47.7997 23.6835 47.7994 23.6801 47.7989 23.6766L47.7883 23.6038C47.7881 23.6024 47.7878 23.6009 47.7876 23.5995C47.7705 23.4904 47.751 23.3819 47.7295 23.2739C47.7293 23.2731 47.7292 23.2722 47.7291 23.2715L47.7114 23.187C47.711 23.1852 47.7106 23.1835 47.7102 23.1817C47.6892 23.0827 47.6666 22.9842 47.6419 22.8861C47.6413 22.8836 47.6409 22.8811 47.6403 22.8786L47.633 22.8488C47.6321 22.8455 47.6314 22.8422 47.6305 22.8389C47.6304 22.8385 47.6302 22.8382 47.6301 22.8378C47.6292 22.8341 47.6281 22.8303 47.6271 22.8265C47.6224 22.8095 47.6148 22.7941 47.6091 22.7777C47.6008 22.7537 47.5934 22.7295 47.583 22.7067C47.5751 22.6896 47.5649 22.674 47.5559 22.6576C47.544 22.6359 47.5329 22.6137 47.5191 22.5933C47.5084 22.5777 47.4958 22.5639 47.4842 22.5491C47.4693 22.5302 47.4552 22.5106 47.4387 22.4932C47.425 22.4788 47.4094 22.4664 47.3947 22.4531C47.3779 22.4379 47.3619 22.4218 47.3439 22.408C47.3265 22.3947 47.3073 22.384 47.2888 22.3721C47.2714 22.3611 47.2549 22.3488 47.2367 22.3391C47.2156 22.3278 47.1931 22.3195 47.1709 22.3101C47.1536 22.3029 47.137 22.2941 47.1191 22.2881C47.0953 22.28 47.0704 22.2751 47.0457 22.2693C47.028 22.2651 47.0109 22.2594 46.9929 22.2564C46.9689 22.2525 46.9443 22.252 46.9198 22.2503C46.9011 22.249 46.883 22.2457 46.8641 22.2457C46.8612 22.2457 46.8582 22.2457 46.8552 22.2457H46.855L46.8365 22.2459C46.6974 22.2475 46.5611 22.2856 46.4414 22.3565C45.5913 22.8606 44.465 23.1161 43.094 23.1161C41.7006 23.1161 40.2902 22.6741 38.9264 22.2466C37.1992 21.7053 35.4192 21.148 33.608 21.454C33.5901 21.4571 33.5723 21.4595 33.5544 21.4627C33.5483 21.4638 33.542 21.4652 33.5359 21.4663C33.3526 21.4995 33.1693 21.5414 32.9856 21.5934ZM33.6974 28.2098C33.6751 28.1072 33.6554 28.0043 33.6382 27.901C33.6371 27.8941 33.6356 27.8871 33.6344 27.8801C33.6166 27.7708 33.6017 27.6611 33.5896 27.5513C33.5892 27.5474 33.5885 27.5436 33.5881 27.5397C33.5765 27.433 33.5681 27.3261 33.5619 27.2194C33.5614 27.2113 33.5605 27.2032 33.56 27.1951C33.5537 27.0813 33.5506 26.9675 33.5506 26.8539V24.8479C33.5506 24.8437 33.5507 24.8395 33.5507 24.8356C33.5507 24.8354 33.5507 24.8352 33.5507 24.8349C33.5507 24.7722 33.5523 24.7095 33.5542 24.647C33.5551 24.6177 33.5562 24.5879 33.5575 24.5574C33.5585 24.5356 33.5599 24.5139 33.561 24.4922C33.5614 24.4869 33.5616 24.4816 33.5621 24.4764L33.5659 24.423C33.5702 24.3561 33.5746 24.2894 33.5811 24.2224V24.222C33.5839 24.1921 33.5875 24.1625 33.591 24.1329L33.5951 24.098C33.6019 24.0388 33.6091 23.9795 33.6177 23.9202C33.6239 23.8767 33.631 23.8334 33.6382 23.7901C33.6475 23.7342 33.6573 23.6786 33.6682 23.6225C33.6766 23.5785 33.6855 23.5347 33.6949 23.4913C33.7066 23.4371 33.7192 23.3831 33.7322 23.3295L33.7352 23.3168C33.7447 23.2778 33.7541 23.2388 33.7647 23.1992C33.779 23.1451 33.7949 23.0914 33.8104 23.0384L33.8142 23.0256C33.8475 23.0196 33.881 23.0159 33.9143 23.0107C33.972 23.0016 34.0296 22.9916 34.0875 22.9847C34.1603 22.9761 34.2335 22.9705 34.3067 22.9652C34.3256 22.9638 34.3443 22.9613 34.3633 22.9601C35.4471 22.8952 36.5803 23.1845 37.7586 23.543C37.9882 23.6128 38.2193 23.685 38.4522 23.758C39.4681 24.0764 40.5077 24.4022 41.5899 24.5748C42.0818 24.6532 42.5825 24.6999 43.0937 24.6999C43.3452 24.6999 43.5893 24.6906 43.8287 24.6755C44.0041 24.6644 44.1772 24.6503 44.3459 24.6311C44.3585 24.6297 44.3716 24.6289 44.3841 24.6274C44.4701 24.6173 44.5535 24.6043 44.6377 24.5921C44.6875 24.5848 44.7387 24.5791 44.788 24.5711C44.8388 24.5628 44.8877 24.5523 44.9379 24.5433C45.0184 24.5289 45.0996 24.5153 45.1784 24.4988C45.2294 24.4882 45.2785 24.4751 45.3288 24.4636C45.4044 24.4463 45.4809 24.4298 45.5549 24.4106C45.6274 24.3918 45.6974 24.37 45.7684 24.3494C45.8181 24.3349 45.869 24.3218 45.9178 24.3064C45.9768 24.2879 46.0334 24.2667 46.0913 24.2467C46.1498 24.2267 46.2094 24.2079 46.2666 24.1864L46.268 24.1981C46.2774 24.2918 46.2842 24.3859 46.2895 24.48V24.4803L46.2928 24.5481C46.2928 24.5487 46.2928 24.5493 46.2929 24.5501C46.2971 24.6448 46.3002 24.7397 46.3002 24.8347C46.3002 24.8349 46.3002 24.8351 46.3002 24.8353C46.3002 24.8392 46.3002 24.8433 46.3003 24.8476V26.8536C46.3003 26.9672 46.2971 27.081 46.2909 27.1948C46.2905 27.2029 46.2895 27.2109 46.289 27.2191C46.2828 27.3259 46.2743 27.4326 46.2627 27.5394C46.2623 27.5433 46.2617 27.5472 46.2612 27.5511C46.2491 27.6608 46.2342 27.7704 46.2164 27.8796C46.2153 27.8868 46.2138 27.8939 46.2126 27.901C46.1954 28.0042 46.1758 28.107 46.1536 28.2095C45.6659 30.4512 43.9966 32.2568 41.8324 32.9367C41.8137 32.9425 41.795 32.9478 41.7762 32.9535C41.6997 32.9768 41.6227 32.9989 41.545 33.0193C41.5174 33.0266 41.4896 33.0331 41.462 33.04C41.3924 33.0573 41.3225 33.0736 41.2519 33.0886C41.2197 33.0955 41.1875 33.1019 41.1552 33.1082C41.0881 33.1214 41.0207 33.1334 40.953 33.1444C40.9185 33.15 40.884 33.1556 40.8494 33.1607C40.7826 33.1705 40.7152 33.1787 40.6476 33.1864C40.6125 33.1904 40.5776 33.1947 40.5425 33.1981C40.4714 33.2049 40.3999 33.2099 40.3282 33.2144C40.2969 33.2163 40.2658 33.2192 40.2344 33.2207C40.1319 33.2256 40.029 33.2285 39.9253 33.2285C39.8195 33.2285 39.7145 33.2256 39.61 33.2204C39.5739 33.2187 39.5381 33.2152 39.5022 33.2129C39.434 33.2083 39.3659 33.2039 39.2984 33.1974C39.2541 33.193 39.2101 33.187 39.1659 33.1817C39.1077 33.1748 39.0494 33.168 38.9916 33.1595C38.9421 33.1522 38.893 33.1434 38.8437 33.1349C38.7926 33.1262 38.7413 33.1175 38.6905 33.1075C38.6365 33.0968 38.5828 33.0847 38.529 33.0727C38.4841 33.0626 38.4392 33.0527 38.3946 33.0416C38.3369 33.0272 38.2794 33.0116 38.2219 32.9956C38.1823 32.9846 38.1428 32.9737 38.1036 32.9619C38.0437 32.944 37.9841 32.9249 37.9247 32.9052C37.8878 32.893 37.8509 32.8806 37.8141 32.8678C37.7557 32.8472 37.6977 32.8256 37.6397 32.8032C35.6612 32.0406 34.1562 30.3188 33.6974 28.2098ZM35.4632 37.8012L37.5212 44.5686L34.3831 39.7083L35.4632 37.8012ZM49.3647 51.0328V43.4412C49.3647 43.0037 49.0101 42.6491 48.5726 42.6491C48.1351 42.6491 47.7805 43.0038 47.7805 43.4412V51.0328H31.9557V48.6717C31.9557 48.2342 31.601 47.8797 31.1636 47.8797C30.7262 47.8797 30.3715 48.2344 30.3715 48.6717V51.0328H27.4354V42.9807V42.6649C27.4354 40.5415 28.858 38.6396 30.895 38.04L34.0303 37.1167L32.8516 39.1979C32.6461 39.5607 32.6694 40.0062 32.9085 40.3448L39.2601 50.1826C39.2613 50.1844 39.2628 50.1859 39.2639 50.1877C39.2681 50.1941 39.2724 50.2004 39.2767 50.2066C39.28 50.2113 39.2835 50.2157 39.2869 50.2203C39.2969 50.234 39.3072 50.2477 39.318 50.2608C39.3218 50.2654 39.3259 50.2696 39.3298 50.2741C39.3396 50.2854 39.3493 50.2968 39.3598 50.3074C39.3602 50.3079 39.3606 50.3082 39.3611 50.3086C39.3674 50.315 39.3742 50.3209 39.3808 50.3272C39.3866 50.3328 39.3924 50.3383 39.3984 50.3436C39.4139 50.3574 39.43 50.3705 39.4467 50.3832C39.4505 50.3861 39.4541 50.3892 39.458 50.3919C39.461 50.3941 39.4638 50.3966 39.4668 50.3988C39.4688 50.4003 39.4711 50.4014 39.4731 50.4028C39.4948 50.4179 39.5176 50.4318 39.5411 50.4449C39.5461 50.4476 39.5508 50.4506 39.5559 50.4532C39.5604 50.4556 39.5652 50.4575 39.5699 50.4598C39.5774 50.4636 39.5845 50.468 39.5922 50.4716C39.6009 50.4756 39.6098 50.4783 39.6184 50.482C39.6306 50.4872 39.643 50.4922 39.6554 50.4968C39.6614 50.499 39.6672 50.5018 39.6732 50.5038C39.6743 50.5041 39.6755 50.5045 39.6765 50.5048C39.6876 50.5085 39.6988 50.5108 39.7098 50.5141C39.7208 50.5171 39.7317 50.5205 39.7428 50.5231C39.7565 50.5264 39.7702 50.5289 39.784 50.5315C39.7925 50.533 39.8011 50.5344 39.8096 50.5357C39.8175 50.5368 39.8252 50.5385 39.8331 50.5395C39.8637 50.5431 39.8944 50.5452 39.9249 50.5452H39.9253H39.9257C39.9563 50.5452 39.9869 50.5431 40.0175 50.5395C40.0254 50.5385 40.0332 50.5368 40.0411 50.5357C40.0496 50.5344 40.058 50.533 40.0663 50.5316C40.0802 50.529 40.0941 50.5265 40.1079 50.5232C40.119 50.5206 40.1298 50.5172 40.1408 50.5142C40.1523 50.5109 40.1639 50.5085 40.1753 50.5047C40.1757 50.5046 40.1762 50.5045 40.1766 50.5042C40.1829 50.5021 40.189 50.4992 40.1952 50.4969C40.2078 50.4923 40.22 50.4873 40.2322 50.4821C40.2409 50.4784 40.2498 50.4757 40.2584 50.4717C40.2663 50.468 40.2736 50.4636 40.2814 50.4597C40.2856 50.4576 40.2901 50.4558 40.2943 50.4536C40.2995 50.4509 40.3045 50.4478 40.3095 50.4451C40.3331 50.432 40.3558 50.4182 40.3776 50.403C40.3796 50.4015 40.3818 50.4004 40.3838 50.399C40.3871 50.3967 40.3899 50.3941 40.3932 50.3917C40.3964 50.3893 40.3995 50.3867 40.4028 50.3842C40.4199 50.3714 40.4364 50.3579 40.4522 50.3438C40.4582 50.3385 40.4641 50.3329 40.47 50.3273C40.4878 50.3104 40.5048 50.2928 40.5208 50.2744C40.5248 50.2699 40.5289 50.2656 40.5328 50.2609C40.544 50.2475 40.5544 50.2335 40.5647 50.2195C40.5676 50.2155 40.5707 50.2117 40.5735 50.2076C40.5781 50.2011 40.5825 50.1946 40.5868 50.1881C40.588 50.1863 40.5895 50.1847 40.5906 50.1829L46.9423 40.3451C47.1814 40.0066 47.2048 39.561 46.9992 39.1985L45.8204 37.1171L48.9559 38.0404C50.9928 38.6401 52.4153 40.5419 52.4153 42.6653V51.0328H49.3647Z" fill="#F7DA8D"/>
</g>
<defs>
<clipPath id="clip0">
<rect width="54" height="54" fill="white"/>
</clipPath>
</defs>
</svg>
