<svg width="48" height="48" viewBox="0 0 48 48" fill="none" xmlns="http://www.w3.org/2000/svg">
<path d="M47.2006 12.0003C46.7582 12.0003 46.4007 12.3587 46.4007 12.8002V44C46.4007 45.3232 45.3239 46.4 44.0007 46.4H24.8008V44.5592C25.9673 44.1512 29.0056 43.2 32.0008 43.2C38.9695 43.2 43.7015 44.7432 43.7487 44.7592C43.9894 44.8392 44.2583 44.7992 44.4687 44.6487C44.6775 44.4984 44.8006 44.2568 44.8006 43.9999V8.80034C44.8006 8.42516 44.5407 8.10032 44.1742 8.01951C44.1742 8.01951 43.547 7.87954 42.475 7.68266C42.0422 7.6027 41.6239 7.89069 41.5438 8.32428C41.4638 8.75947 41.751 9.17628 42.1854 9.25625C42.5943 9.33143 42.9366 9.39781 43.2006 9.45068V42.9368C41.3878 42.4616 37.3623 41.6 32.0007 41.6C28.5151 41.6 25.0912 42.7448 24.0319 43.1328C23.0903 42.7169 20.244 41.6 16.8008 41.6C11.2904 41.6 6.7512 42.5088 4.80084 42.9705V9.41946C6.39843 9.02665 11.1168 8.00029 16.8008 8.00029C19.7176 8.00029 22.2191 8.90825 23.2007 9.31868V40.8001C23.2007 41.0881 23.3559 41.3545 23.6063 41.4961C23.8567 41.6385 24.1655 41.6344 24.4127 41.4856C24.4919 41.4385 32.4182 36.7041 39.4534 34.3593C39.7806 34.2497 40.0006 33.9449 40.0006 33.6001V0.800343C40.0006 0.537939 39.8718 0.292316 39.6558 0.142786C39.4414 -0.00683769 39.1662 -0.0412437 38.919 0.0508181C32.5183 2.45155 26.0416 6.48192 25.9767 6.52195C25.6023 6.75633 25.4879 7.24992 25.7223 7.62435C25.9559 7.99879 26.4495 8.11316 26.8247 7.87879C26.8839 7.84119 32.5183 4.33563 38.4006 1.97005V33.0274C32.9398 34.925 27.2382 38.0234 24.8007 39.4105V8.80034C24.8007 8.49716 24.6295 8.22032 24.3583 8.08438C24.2206 8.01641 20.9423 6.40036 16.8008 6.40036C9.57203 6.40036 4.01448 7.96438 3.78085 8.0315C3.43764 8.1291 3.20083 8.44353 3.20083 8.80034V44.0001C3.20083 44.2505 3.31923 44.4873 3.51845 44.6385C3.65926 44.7449 3.82885 44.8002 4.00088 44.8002C4.07448 44.8002 4.14807 44.7897 4.22007 44.7689C4.27529 44.7537 9.80724 43.2001 16.8008 43.2001C19.7255 43.2001 22.2247 44.1105 23.2007 44.5193V46.4001H4.00088C2.67771 46.4001 1.6009 45.3233 1.6009 44.0001V12.8003C1.6009 12.3588 1.2425 12.0004 0.800939 12.0004C0.35938 12.0004 0.000976562 12.3588 0.000976562 12.8003V44.0001C0.000976562 46.2056 1.79534 48.0001 4.00098 48.0001H44.0007C46.2062 48.0001 48.0007 46.2057 48.0007 44.0001V12.8003C48.0006 12.3587 47.643 12.0003 47.2006 12.0003Z" fill="#F7DA8D"/>
</svg>
