<svg width="50" height="50" fill="none" xmlns="http://www.w3.org/2000/svg"><path d="M24.995 30.957a1.466 1.466 0 01-.57-2.815c.655-.278 1.44-.04 2.154.65a1.465 1.465 0 002.038-2.104c-.661-.64-1.396-1.093-2.157-1.349v-1.706a1.465 1.465 0 00-2.93 0v1.716c-.083.03-.166.06-.248.095a4.388 4.388 0 00-2.682 4.048 4.4 4.4 0 004.395 4.395 1.466 1.466 0 01.501 2.842c-.752.274-1.628-.098-2.403-1.02a1.465 1.465 0 00-2.243 1.884c.792.943 1.714 1.59 2.68 1.915v1.703a1.465 1.465 0 002.93 0v-1.716l.039-.014a4.409 4.409 0 002.89-4.13 4.4 4.4 0 00-4.394-4.394z" fill="#202020"/><path d="M38.47 21.998c-1.74-2.142-3.73-3.848-5.915-5.076.357-.423.64-.92.822-1.473.715-2.178-.33-4.766-2.997-5.61l3.74-6.52a1.466 1.466 0 00-.862-2.134A29.907 29.907 0 0024.904 0c-2.84 0-5.65.399-8.353 1.185a1.466 1.466 0 00-.862 2.135l3.74 6.52c-2.657.839-3.715 3.423-2.997 5.61a4.4 4.4 0 00.823 1.472c-2.185 1.227-4.176 2.934-5.917 5.076-3.48 4.282-5.477 9.683-5.477 14.818C5.861 47.47 14.362 50 24.904 50c10.55 0 19.043-2.535 19.043-13.184 0-5.135-1.996-10.536-5.476-14.818zM19.192 3.537a27.072 27.072 0 015.713-.607c1.93 0 3.845.204 5.714.607l-3.226 5.625a17.968 17.968 0 00-4.975 0l-3.226-5.625zm.957 9.148a15.145 15.145 0 019.51 0 1.469 1.469 0 01.936 1.85 1.46 1.46 0 01-1.234.998c-1.46-.457-2.95-.69-4.456-.69-1.502 0-2.99.232-4.447.688a1.457 1.457 0 01-1.242-.995 1.469 1.469 0 01.933-1.85zm4.756 34.405c-11.445 0-16.113-2.99-16.113-10.274 0-4.408 1.802-9.257 4.82-12.97 3.183-3.916 7.194-6.073 11.293-6.073 4.513 0 8.46 2.587 11.293 6.073 3.018 3.713 4.82 8.562 4.82 12.97 0 7.284-4.668 10.274-16.113 10.274z" fill="#202020"/></svg>