<svg width="50" height="50" fill="none" xmlns="http://www.w3.org/2000/svg"><path d="M16.113 32.422c-.78 0-1.465-.73-1.465-1.563 0-.614.388-1.167.964-1.377.752-.274 1.628.098 2.403 1.02a1.465 1.465 0 102.243-1.884c-.792-.943-1.713-1.591-2.68-1.916V25a1.465 1.465 0 10-2.93 0v1.716l-.039.013a4.409 4.409 0 00-2.89 4.13c0 1.168.449 2.28 1.264 3.133.838.877 1.95 1.36 3.13 1.36a1.466 1.466 0 01.57 2.815c-.655.277-1.44.04-2.153-.65a1.465 1.465 0 00-2.04 2.103c.662.64 1.397 1.094 2.158 1.35v1.706a1.465 1.465 0 002.93 0V40.96a4.387 4.387 0 002.93-4.144 4.4 4.4 0 00-4.395-4.394z" fill="#202020"/><path d="M45.215 1.84C42.517.654 38.98 0 35.254 0c-7.625 0-14.648 2.8-14.648 7.324v10.99a16.05 16.05 0 00-4.493-.638c-4.294 0-8.34 1.697-11.393 4.778C1.676 25.526 0 29.586 0 33.887 0 42.772 7.228 50 16.113 50c2.965 0 5.816-.797 8.307-2.289C27.144 49.173 31.027 50 35.254 50c3.726 0 7.264-.654 9.96-1.84C48.302 46.802 50 44.855 50 42.676V7.324c0-2.179-1.7-4.126-4.785-5.484zM16.113 47.07c-7.27 0-13.183-5.914-13.183-13.183 0-7.324 5.914-13.282 13.183-13.282 7.323 0 13.282 5.958 13.282 13.282 0 7.27-5.959 13.183-13.282 13.183zm30.957-4.394c0 1.792-4.603 4.394-11.816 4.394-3.069 0-5.967-.492-8.167-1.353a16.226 16.226 0 003.63-4.846 29.82 29.82 0 004.537.34c3.852 0 8.628-.749 11.816-2.834v4.299zm0-8.79c0 1.792-4.603 4.395-11.816 4.395-1.195 0-2.36-.075-3.483-.22a15.982 15.982 0 00.462-5.885 30.6 30.6 0 003.02.148c3.853 0 8.63-.749 11.817-2.834v4.397zm0-8.886c0 1.792-4.603 4.395-11.816 4.395-1.247 0-2.467-.082-3.64-.24a16.234 16.234 0 00-3.996-6.637c2.265.661 4.896 1.017 7.636 1.017 3.852 0 8.628-.749 11.816-2.834V25zm0-8.79c0 1.793-4.603 4.395-11.816 4.395-3.321 0-6.42-.564-8.727-1.59-1.846-.82-2.992-1.894-2.992-2.804v-4.376c3.171 2.08 7.908 2.813 11.719 2.813 3.852 0 8.628-.748 11.816-2.833v4.396zm-11.816-4.49c-7.156 0-11.719-2.564-11.719-4.395 0-1.836 4.576-4.394 11.719-4.394 7.213 0 11.816 2.602 11.816 4.394 0 1.792-4.603 4.395-11.816 4.395z" fill="#202020"/></svg>