<svg width="50" height="50" fill="none" xmlns="http://www.w3.org/2000/svg"><path d="M43.442 15.798l2.34-2.34a4.4 4.4 0 000-6.214 4.4 4.4 0 00-6.215 0l-2.312 2.312a21.801 21.801 0 00-7.765-3.253V2.93h1.465a1.465 1.465 0 000-2.93H19.236a1.465 1.465 0 000 2.93h1.465v3.373a21.8 21.8 0 00-7.764 3.253l-2.312-2.312a4.399 4.399 0 00-6.215 0 4.4 4.4 0 000 6.215l2.34 2.34a22.009 22.009 0 00-3.627 12.13C3.123 40.1 12.98 50 25.096 50c12.115 0 21.972-9.9 21.972-22.07a22.01 22.01 0 00-3.626-12.132zm-1.804-6.482a1.466 1.466 0 012.072 0c.57.571.57 1.5 0 2.071l-2.054 2.053a22.21 22.21 0 00-2.062-2.08l2.044-2.044zM23.631 2.93h2.93v2.98a21.567 21.567 0 00-2.93 0V2.93zM6.482 11.387a1.466 1.466 0 010-2.071 1.466 1.466 0 012.071 0l2.045 2.044a22.204 22.204 0 00-2.063 2.08l-2.053-2.053zM25.096 47.07c-10.5 0-19.043-8.586-19.043-19.14 0-10.535 8.526-19.14 19.043-19.14 10.498 0 19.043 8.588 19.043 19.14 0 10.554-8.543 19.14-19.043 19.14z" fill="#202020"/><path d="M25.096 11.816c-8.885 0-16.114 7.229-16.114 16.114 0 4.3 1.677 8.36 4.72 11.432 3.053 3.082 7.1 4.779 11.394 4.779 4.294 0 8.34-1.697 11.393-4.779 3.044-3.071 4.72-7.131 4.72-11.432 0-8.885-7.228-16.114-16.113-16.114zM26.56 41.13v-1.383a1.465 1.465 0 10-2.93 0v1.383c-6.105-.683-10.965-5.583-11.638-11.734h1.384a1.465 1.465 0 000-2.93h-1.383c.678-6.102 5.535-10.96 11.637-11.637v1.383a1.465 1.465 0 102.93 0v-1.383c6.101.678 10.959 5.535 11.636 11.637h-1.383c-.809 0-1.464.656-1.464 1.465s.655 1.455 1.465 1.455h1.384c-.673 6.151-5.533 11.06-11.638 11.744z" fill="#202020"/><path d="M30.764 26.465h-4.395V22.07a1.465 1.465 0 10-2.93 0v5.86c0 .809.656 1.465 1.465 1.465h5.86a1.465 1.465 0 100-2.93z" fill="#202020"/></svg>