<svg width="50" height="50" fill="none" xmlns="http://www.w3.org/2000/svg"><g clip-path="url(#clip0)" fill="#202020"><path d="M25.765 9.992c-11.03 0-20.003 8.974-20.003 20.004C5.762 41.026 14.735 50 25.765 50S45.77 41.026 45.77 29.996c0-11.03-8.973-20.004-20.003-20.004zm0 37.079c-9.414 0-17.074-7.66-17.074-17.075 0-9.414 7.66-17.074 17.075-17.074 9.414 0 17.074 7.66 17.074 17.074 0 9.415-7.66 17.075-17.075 17.075z"/><path d="M34.5 33.716a1.465 1.465 0 00-2.065.158 8.78 8.78 0 01-6.67 3.069 8.78 8.78 0 01-6.67-3.068 1.465 1.465 0 00-2.224 1.907c2.23 2.6 5.471 4.09 8.894 4.09 3.422 0 6.664-1.49 8.894-4.09a1.465 1.465 0 00-.159-2.066zm-16.867-6.024c.809 0 1.465-.656 1.465-1.465a.853.853 0 011.703 0 1.465 1.465 0 002.93 0 3.786 3.786 0 00-3.782-3.781 3.786 3.786 0 00-3.781 3.781c0 .81.656 1.465 1.465 1.465zm13.949-5.246a3.786 3.786 0 00-3.781 3.781 1.465 1.465 0 002.93 0 .853.853 0 011.703 0 1.465 1.465 0 002.93 0 3.786 3.786 0 00-3.782-3.781zm6.25-14.217h2.137a1.465 1.465 0 000-2.93h-2.137a1.465 1.465 0 000 2.93zm5.352 5.298c.809 0 1.464-.655 1.464-1.464V9.925a1.465 1.465 0 10-2.93 0v2.136c0 .81.657 1.465 1.466 1.465zm5.351-8.228h-2.137a1.465 1.465 0 000 2.93h2.137a1.465 1.465 0 000-2.93zm-5.351-.232c.809 0 1.464-.656 1.464-1.465V1.465a1.465 1.465 0 10-2.93 0v2.137c0 .809.657 1.465 1.466 1.465zM3.17 7.252H1.466a1.465 1.465 0 000 2.93H3.17a1.465 1.465 0 000-2.93zm4.52 6.184V11.73a1.465 1.465 0 00-2.93 0v1.706a1.465 1.465 0 002.93 0zm1.59-3.254h1.705a1.465 1.465 0 000-2.93H9.28a1.465 1.465 0 000 2.93zM6.225 7.17c.809 0 1.464-.657 1.464-1.466V3.998a1.465 1.465 0 00-2.93 0v1.706c0 .81.657 1.465 1.466 1.465z"/></g><defs><clipPath id="clip0"><path fill="#fff" d="M0 0h50v50H0z"/></clipPath></defs></svg>