<svg width="50" height="50" fill="none" xmlns="http://www.w3.org/2000/svg"><g clip-path="url(#clip0)" fill="#202020"><path d="M47.809 20.199c-.268-.329-.71-.873-.813-1.102-.036-.263.082-1.004.152-1.45.226-1.423.534-3.37-.496-5.152-1.04-1.798-2.896-2.505-4.258-3.024-.41-.157-1.088-.417-1.293-.571-.153-.204-.412-.878-.569-1.285l-.006-.017c-.515-1.354-1.221-3.21-3.022-4.25-1.78-1.03-3.728-.722-5.15-.496-.447.07-1.19.188-1.453.15-.226-.101-.767-.54-1.094-.806l-.01-.008C28.663 1.265 27.108 0 25 0c-2.108 0-3.663 1.265-4.796 2.187l-.01.01c-.328.265-.87.705-1.096.806-.263.037-1.005-.08-1.452-.151-1.422-.226-3.37-.534-5.15.495-1.8 1.042-2.506 2.897-3.02 4.247l-.008.02c-.157.408-.415 1.082-.569 1.286-.205.155-.884.414-1.3.573-1.355.517-3.21 1.224-4.25 3.022-1.029 1.778-.722 3.724-.497 5.151.07.447.188 1.188.152 1.451-.103.229-.545.773-.816 1.105C1.265 21.337 0 22.892 0 25c0 2.11 1.265 3.663 2.188 4.796.269.33.713.877.816 1.107.036.262-.081 1.002-.153 1.456-.224 1.422-.53 3.368.498 5.146 1.04 1.798 2.895 2.505 4.248 3.02.413.159 1.097.42 1.303.576.153.203.41.875.567 1.28l.007.02c.515 1.354 1.22 3.208 3.022 4.251 1.777 1.029 3.724.722 5.15.497.42-.066.854-.135 1.195-.152.145-.008.225-.003.258.001.231.105.775.547 1.107.817C21.34 48.737 22.894 50 25 50c2.106 0 3.66-1.263 4.8-2.19.328-.267.87-.708 1.1-.812.033-.003.114-.009.265 0 .332.016.768.085 1.193.152 1.422.224 3.37.531 5.147-.498 1.8-1.043 2.506-2.897 3.02-4.246l.007-.02c.156-.408.415-1.08.568-1.285.207-.156.89-.417 1.301-.574 1.355-.517 3.21-1.224 4.25-3.022 1.03-1.781.723-3.729.497-5.153-.07-.447-.188-1.187-.152-1.45.102-.227.542-.769.808-1.096l.009-.01C48.737 28.66 50 27.108 50 25c0-2.109-1.265-3.663-2.191-4.801zm-2.27 7.748l-.01.013c-.598.736-1.162 1.432-1.362 2.177-.211.788-.06 1.746.087 2.675.183 1.153.372 2.344-.139 3.226-.52.898-1.657 1.332-2.759 1.752-.907.346-1.763.674-2.33 1.24-.559.56-.884 1.408-1.23 2.306l-.008.024c-.419 1.099-.851 2.236-1.752 2.757-.878.509-2.017.33-3.225.138-.497-.078-1.012-.159-1.493-.183-.46-.025-.847.006-1.181.096-.747.199-1.446.768-2.191 1.374-.967.786-1.88 1.528-2.946 1.528-1.065 0-1.98-.742-2.948-1.53-.74-.602-1.439-1.17-2.188-1.372a3.432 3.432 0 00-.887-.105c-.49.025-1.316.118-1.791.193-1.206.19-2.344.37-3.222-.139-.901-.522-1.334-1.658-1.754-2.761l-.009-.025c-.344-.896-.67-1.744-1.23-2.305-.565-.562-1.42-.89-2.329-1.237-1.1-.42-2.238-.853-2.757-1.752-.51-.879-.33-2.017-.139-3.228.147-.926.298-1.884.087-2.674-.201-.747-.77-1.447-1.372-2.188C3.673 26.98 2.93 26.068 2.93 25c0-1.067.743-1.981 1.534-2.953.6-.739 1.168-1.436 1.37-2.184.21-.789.058-1.748-.09-2.678-.189-1.205-.368-2.343.14-3.223.52-.898 1.658-1.332 2.758-1.751l.01-.004c.904-.346 1.758-.672 2.323-1.237.558-.56.883-1.408 1.228-2.306l.01-.024c.418-1.1.85-2.236 1.75-2.757.881-.51 2.072-.32 3.225-.138.927.147 1.884.298 2.674.088.745-.2 1.44-.764 2.178-1.363l.012-.01c.968-.787 1.881-1.53 2.948-1.53s1.98.743 2.95 1.532l.01.009c.737.598 1.433 1.163 2.177 1.362.791.21 1.748.06 2.675-.088 1.153-.182 2.344-.371 3.225.138.9.52 1.332 1.658 1.752 2.761l.008.02c.345.898.67 1.746 1.23 2.308.563.563 1.417.89 2.32 1.235l.01.004c1.101.42 2.239.853 2.758 1.752.51.881.322 2.072.14 3.225-.147.927-.299 1.886-.088 2.677.2.746.768 1.444 1.372 2.187.787.967 1.53 1.88 1.53 2.948.001 1.068-.742 1.98-1.53 2.947z"/><path d="M35.719 19.288a12.563 12.563 0 00-4.139-4.297 12.488 12.488 0 00-6.695-1.938c-2.392 0-4.718.677-6.726 1.958a12.555 12.555 0 00-4.104 4.271 6.369 6.369 0 00-5.463 6.297 6.369 6.369 0 005.463 6.296 12.554 12.554 0 004.104 4.272 12.484 12.484 0 006.726 1.957c2.38 0 4.694-.67 6.695-1.938a12.566 12.566 0 004.139-4.296 6.37 6.37 0 005.425-6.291c0-3.19-2.36-5.838-5.425-6.29zm-15.985-1.807a9.563 9.563 0 015.151-1.498 9.538 9.538 0 017.195 3.237H17.698a9.64 9.64 0 012.036-1.739zm5.151 17.694a9.56 9.56 0 01-5.151-1.498 9.65 9.65 0 01-2.036-1.739H32.08a9.538 9.538 0 01-7.195 3.237zm9.899-6.167H14.951a3.433 3.433 0 01-3.429-3.429 3.433 3.433 0 013.43-3.43h19.832a3.434 3.434 0 013.43 3.43 3.433 3.433 0 01-3.43 3.43z"/><path d="M31.934 24.114H17.932a1.465 1.465 0 000 2.93h14.002a1.465 1.465 0 000-2.93z"/></g><defs><clipPath id="clip0"><path fill="#fff" d="M0 0h50v50H0z"/></clipPath></defs></svg>