<svg width="50" height="50" fill="none" xmlns="http://www.w3.org/2000/svg"><path d="M48.535 3.609H42.12c.023-.711.036-1.426.036-2.144A1.465 1.465 0 0040.69 0H9.31C8.5 0 7.845.656 7.845 1.465c0 .718.013 1.433.036 2.144H1.465C.655 3.609 0 4.264 0 5.074c0 6.563 1.715 12.755 4.83 17.436 3.079 4.628 7.18 7.282 11.61 7.54 1.005 1.094 2.067 1.985 3.172 2.665v6.51h-2.457a5.394 5.394 0 00-5.387 5.387v2.458h-.105a1.465 1.465 0 000 2.93h26.674a1.465 1.465 0 100-2.93h-.105v-2.458a5.394 5.394 0 00-5.387-5.387h-2.457v-6.51c1.105-.68 2.167-1.571 3.172-2.664 4.43-.259 8.531-2.913 11.61-7.54C48.285 17.83 50 11.636 50 5.073c0-.81-.656-1.465-1.465-1.465zM7.27 20.888c-2.57-3.861-4.079-8.911-4.309-14.35h5.084c.528 6.686 2.098 12.866 4.55 17.771.391.781.8 1.52 1.223 2.215-2.436-.92-4.691-2.844-6.549-5.636zm28.034 23.724v2.458H14.697v-2.458a2.46 2.46 0 012.458-2.457h15.69a2.46 2.46 0 012.458 2.457zm-7.845-5.387h-4.916v-5.238A9.622 9.622 0 0025 34.31c.832 0 1.652-.11 2.458-.323v5.238zm.907-8.723c-.066.027-.13.06-.19.096-1.035.515-2.1.782-3.175.782-1.075 0-2.139-.267-3.174-.78a1.46 1.46 0 00-.192-.098c-1.148-.608-2.26-1.525-3.31-2.73a1.485 1.485 0 00-.187-.218c-1.043-1.239-2.025-2.762-2.921-4.555-2.692-5.384-4.247-12.463-4.424-20.07h28.416c-.177 7.607-1.732 14.687-4.424 20.07-.896 1.793-1.878 3.316-2.92 4.555-.07.066-.133.14-.188.219-1.05 1.205-2.162 2.122-3.311 2.73zm14.366-9.614c-1.858 2.792-4.113 4.715-6.55 5.636.425-.695.833-1.434 1.224-2.215 2.453-4.905 4.021-11.085 4.55-17.77h5.084c-.23 5.438-1.74 10.488-4.308 14.349z" fill="#202020"/></svg>