<svg width="50" height="50" fill="none" xmlns="http://www.w3.org/2000/svg"><path d="M25.096 0C12.98 0 3.123 9.857 3.123 21.973v11.914a4.4 4.4 0 004.395 4.394h1.716a4.402 4.402 0 004.143 2.93 4.4 4.4 0 004.394-4.395V24.902a4.4 4.4 0 00-4.394-4.394 4.402 4.402 0 00-4.143 2.93H7.518a4.36 4.36 0 00-1.465.252v-1.717c0-10.5 8.542-19.043 19.043-19.043 10.5 0 19.043 8.542 19.043 19.043v1.716a4.374 4.374 0 00-1.465-.252h-1.717a4.402 4.402 0 00-4.142-2.93 4.4 4.4 0 00-4.395 4.395v11.914a4.4 4.4 0 005.67 4.206 4.402 4.402 0 01-4.205 3.119h-4.647a4.402 4.402 0 00-4.142-2.93 4.4 4.4 0 00-4.395 4.395A4.4 4.4 0 0025.096 50a4.402 4.402 0 004.142-2.93h4.647c4.038 0 7.324-3.285 7.324-7.324v-1.465h1.465a4.4 4.4 0 004.394-4.394V21.973C47.068 9.857 37.211 0 25.096 0zM11.912 24.902c0-.807.657-1.465 1.465-1.465s1.465.658 1.465 1.465v11.914c0 .808-.657 1.465-1.465 1.465a1.466 1.466 0 01-1.465-1.465V24.902zm-4.394 1.465h1.464v8.985H7.518a1.467 1.467 0 01-1.465-1.465v-6.055c0-.808.657-1.465 1.465-1.465zM25.096 47.07a1.466 1.466 0 01-1.465-1.465 1.466 1.466 0 012.93.001c0 .807-.658 1.464-1.465 1.464zm13.183-10.254c0 .808-.657 1.465-1.465 1.465a1.466 1.466 0 01-1.464-1.465V24.902c0-.807.657-1.465 1.465-1.465.807 0 1.464.658 1.464 1.465v11.914zm5.86-2.93c0 .808-.658 1.466-1.465 1.466h-1.465v-8.985h1.465c.807 0 1.465.657 1.465 1.465v6.055z" fill="#202020"/></svg>