<svg width="50" height="50" fill="none" xmlns="http://www.w3.org/2000/svg"><path d="M47.07 32.48V4.395A4.4 4.4 0 0042.676 0H10.352a4.4 4.4 0 00-4.395 4.395v1.562H4.395A4.4 4.4 0 000 10.352a4.4 4.4 0 004.395 4.394h1.562v5.86H4.395A4.4 4.4 0 000 25a4.4 4.4 0 004.395 4.395h1.562v5.859H4.395A4.4 4.4 0 000 39.648a4.4 4.4 0 004.395 4.395h1.562v1.465a4.52 4.52 0 001.264 3.133c.838.876 1.95 1.359 3.13 1.359h29.395C45.4 50 50 45.356 50 39.648a10.22 10.22 0 00-2.93-7.168zM4.395 11.816a1.466 1.466 0 01-1.465-1.464c0-.808.657-1.465 1.465-1.465h3.027c.808 0 1.465.657 1.465 1.465 0 .807-.657 1.464-1.465 1.464H4.395zm0 14.649A1.466 1.466 0 012.93 25c0-.808.657-1.465 1.465-1.465h3.027c.808 0 1.465.657 1.465 1.465s-.657 1.465-1.465 1.465H4.395zm3.027 14.648H4.395a1.466 1.466 0 01-1.465-1.465c0-.807.657-1.464 1.465-1.464h3.027c.808 0 1.465.657 1.465 1.464 0 .808-.657 1.465-1.465 1.465zm2.93 5.957c-.78 0-1.465-.73-1.465-1.562V43.79a4.401 4.401 0 002.93-4.143 4.401 4.401 0 00-2.93-4.142v-6.363A4.401 4.401 0 0011.817 25a4.401 4.401 0 00-2.93-4.143v-6.363a4.401 4.401 0 002.93-4.142 4.401 4.401 0 00-2.93-4.143V4.395c0-.808.657-1.465 1.465-1.465h32.324c.807 0 1.465.657 1.465 1.465v25.99a10.192 10.192 0 00-4.395-.99c-5.654 0-10.254 4.6-10.254 10.253 0 2.909 1.195 5.54 3.114 7.422H10.352zm29.394 0c-4.038 0-7.324-3.33-7.324-7.422 0-4.038 3.286-7.324 7.324-7.324 4.039 0 7.324 3.286 7.324 7.324 0 4.093-3.285 7.422-7.324 7.422z" fill="#202020"/><path d="M39.746 11.816h-8.789a1.465 1.465 0 000 2.93h8.79a1.465 1.465 0 000-2.93zm0 11.719h-8.789a1.465 1.465 0 100 2.93h8.79a1.465 1.465 0 100-2.93zm2.93 14.649H41.21v-1.465a1.465 1.465 0 10-2.93 0v2.93c0 .808.656 1.464 1.465 1.464h2.93a1.465 1.465 0 000-2.93zM25.96 9.316a1.465 1.465 0 00-2.071 0l-4.824 4.823-2.306-2.305a1.465 1.465 0 00-2.071 2.071l3.341 3.342a1.46 1.46 0 002.072-.001l5.86-5.859c.571-.572.571-1.5 0-2.071zm0 11.719a1.465 1.465 0 00-2.071 0l-4.824 4.823-2.306-2.306a1.465 1.465 0 10-2.071 2.072l3.341 3.342a1.46 1.46 0 002.072-.001l5.86-5.859c.571-.572.571-1.5 0-2.072zm0 11.718a1.465 1.465 0 00-2.071 0l-4.824 4.824-2.306-2.306a1.465 1.465 0 00-2.071 2.072l3.341 3.341a1.46 1.46 0 002.072 0l5.86-5.86a1.465 1.465 0 000-2.07z" fill="#202020"/></svg>