<svg width="624" height="320" viewBox="0 0 624 320" fill="none" xmlns="http://www.w3.org/2000/svg">
<path d="M0 16C0 7.16344 7.16344 0 16 0H608C616.837 0 624 7.16344 624 16V303.999C624 312.836 616.837 319.999 608 319.999H16C7.16344 319.999 0 312.836 0 303.999V16Z" fill="white"/>
<g clip-path="url(#clip0)">
<rect x="46.25" y="24.25" width="0.5" height="247.5" stroke="#E0E9F5" stroke-width="0.5"/>
<rect x="96.52" y="24.25" width="0.5" height="247.5" stroke="#E0E9F5" stroke-width="0.5"/>
<rect x="146.79" y="24.25" width="0.5" height="247.5" stroke="#E0E9F5" stroke-width="0.5"/>
<rect x="197.06" y="24.25" width="0.5" height="247.5" stroke="#E0E9F5" stroke-width="0.5"/>
<rect x="247.33" y="24.25" width="0.5" height="247.5" stroke="#E0E9F5" stroke-width="0.5"/>
<rect x="297.6" y="24.25" width="0.5" height="247.5" stroke="#E0E9F5" stroke-width="0.5"/>
<rect x="347.87" y="24.25" width="0.5" height="247.5" stroke="#E0E9F5" stroke-width="0.5"/>
<rect x="398.14" y="24.25" width="0.5" height="247.5" stroke="#E0E9F5" stroke-width="0.5"/>
<rect x="448.41" y="24.25" width="0.5" height="247.5" stroke="#E0E9F5" stroke-width="0.5"/>
<rect x="498.68" y="24.25" width="0.5" height="247.5" stroke="#E0E9F5" stroke-width="0.5"/>
<rect x="548.95" y="24.25" width="0.5" height="247.5" stroke="#E0E9F5" stroke-width="0.5"/>
<rect x="599.22" y="24.25" width="0.5" height="247.5" stroke="#E0E9F5" stroke-width="0.5"/>
</g>
<rect x="46.25" y="24.25" width="553.5" height="0.5" stroke="#E0E9F5" stroke-width="0.5"/>
<rect x="46.25" y="37.25" width="553.5" height="0.5" stroke="#E0E9F5" stroke-width="0.5"/>
<rect x="46.25" y="50.25" width="553.5" height="0.5" stroke="#E0E9F5" stroke-width="0.5"/>
<rect x="46.25" y="63.25" width="553.5" height="0.5" stroke="#E0E9F5" stroke-width="0.5"/>
<rect x="46.25" y="76.25" width="553.5" height="0.5" stroke="#E0E9F5" stroke-width="0.5"/>
<rect x="46.25" y="89.25" width="553.5" height="0.5" stroke="#E0E9F5" stroke-width="0.5"/>
<rect x="46.25" y="102.25" width="553.5" height="0.5" stroke="#E0E9F5" stroke-width="0.5"/>
<rect x="46.25" y="115.25" width="553.5" height="0.5" stroke="#E0E9F5" stroke-width="0.5"/>
<rect x="46.25" y="128.25" width="553.5" height="0.5" stroke="#E0E9F5" stroke-width="0.5"/>
<rect x="46.25" y="141.25" width="553.5" height="0.5" stroke="#E0E9F5" stroke-width="0.5"/>
<rect x="46.25" y="154.25" width="553.5" height="0.5" stroke="#E0E9F5" stroke-width="0.5"/>
<rect x="46.25" y="167.25" width="553.5" height="0.5" stroke="#E0E9F5" stroke-width="0.5"/>
<rect x="46.25" y="180.25" width="553.5" height="0.5" stroke="#E0E9F5" stroke-width="0.5"/>
<rect x="46.25" y="193.25" width="553.5" height="0.5" stroke="#E0E9F5" stroke-width="0.5"/>
<rect x="46.25" y="206.25" width="553.5" height="0.5" stroke="#E0E9F5" stroke-width="0.5"/>
<rect x="46.25" y="219.25" width="553.5" height="0.5" stroke="#E0E9F5" stroke-width="0.5"/>
<rect x="46.25" y="232.25" width="553.5" height="0.5" stroke="#E0E9F5" stroke-width="0.5"/>
<rect x="46.25" y="245.25" width="553.5" height="0.5" stroke="#E0E9F5" stroke-width="0.5"/>
<rect x="46.25" y="258.25" width="553.5" height="0.5" stroke="#E0E9F5" stroke-width="0.5"/>
<rect x="46.25" y="271.25" width="553.5" height="0.5" stroke="#E0E9F5" stroke-width="0.5"/>
<path d="M49 269C49 269 71.5841 244.202 87.2721 244.202C87.6242 244.202 87.9671 244.208 88.3015 244.22C104.326 244.808 99.4182 259.184 126.269 259.184C132.819 259.184 152.443 252.032 166.046 250.716C179.649 249.4 187.05 234.717 204.961 230.408C210.117 229.168 231.094 225.944 244.903 232.189C261.136 239.531 268.416 254.147 283.399 262.729C289.985 266.501 307.383 271.909 322.574 266.273C337.765 260.638 349.255 238.781 361.777 222.995C371.477 210.765 378.491 200.343 401.171 200.96C414.093 201.312 426.222 217.944 439.987 231.827C450.384 242.314 461.713 251.232 475.021 250.381C476.366 250.295 477.641 249.954 478.861 249.4C491.557 243.634 503.345 211.398 518.373 211.398C533.402 211.398 539.036 219.544 557.689 219.544C580.781 219.544 578.065 185.339 597 184.633" stroke="#28805F" stroke-width="4" stroke-linecap="round"/>
<path d="M49 268.999C49 268.999 70.2449 214.262 87.2479 203.082C98.1225 195.931 100.253 206.875 126.216 184.713C152.179 162.552 149.572 136.769 165.518 136.769C181.465 136.769 202.04 142.815 206.161 154.631C212.97 174.152 228.189 188.154 245.187 188.154C262.186 188.154 279.438 197.808 284.252 197.808C299.05 197.808 315.964 178.177 322.797 156.616C329.157 136.545 338.17 117.168 349.946 117.168C355.951 117.168 358.739 119.872 362.476 123.89C373.938 136.216 377.885 163.029 400.536 159.173C423.187 155.317 427.116 121.562 440.629 110.387C445.159 106.641 451.013 104.27 455.946 104.27C468.128 104.27 467.492 117.168 478.638 116.075C489.055 115.053 508.716 95.5725 518.257 88.1557C527.798 80.7389 533.953 49.5486 558.099 49.5486C577.332 49.5486 595.195 27 597 27" stroke="#EB2F96" stroke-width="4" stroke-linecap="round"/>
<path d="M49 268.999C49 268.999 68.4185 221.686 87.086 221.686C102.288 221.686 106.491 239.539 125.931 239.539C141.681 239.539 160.719 226.345 166.841 210.778C175.434 188.927 188.026 155.466 204.93 155.466C223.36 155.466 213.976 167.933 243.799 167.933C265.642 167.933 248.633 212.807 283.686 212.807C290.547 212.807 316.342 199.381 322.417 192.597C337.22 176.066 349.075 158.639 362.125 134.367C371.86 116.263 381.486 102.648 401.187 102.648C420.887 102.648 430.975 128.919 440.191 150.583C449.727 172.996 469.328 192.597 480.135 190.828C500.977 187.417 499.091 158.122 518.394 158.122C533.846 158.122 530.674 166.031 557.168 163.959C583.662 161.886 578.024 100.463 597 99.1558" stroke="#FFC53D" stroke-width="4" stroke-linecap="round"/>
<path d="M43.952 295.28C43.76 295.28 43.592 295.264 43.448 295.232C43.304 295.208 43.176 295.172 43.064 295.124V294.212C43.192 294.244 43.328 294.272 43.472 294.296C43.616 294.32 43.768 294.332 43.928 294.332C44.128 294.332 44.316 294.292 44.492 294.212C44.676 294.132 44.824 293.992 44.936 293.792C45.048 293.592 45.104 293.312 45.104 292.952V284.432H46.184V292.868C46.184 293.692 45.98 294.3 45.572 294.692C45.164 295.084 44.624 295.28 43.952 295.28ZM50.6573 286.46C51.4413 286.46 52.0213 286.632 52.3973 286.976C52.7733 287.32 52.9613 287.868 52.9613 288.62V293H52.1933L51.9893 292.088H51.9413C51.6613 292.44 51.3653 292.7 51.0533 292.868C50.7493 293.036 50.3253 293.12 49.7813 293.12C49.1973 293.12 48.7133 292.968 48.3293 292.664C47.9453 292.352 47.7533 291.868 47.7533 291.212C47.7533 290.572 48.0053 290.08 48.5093 289.736C49.0133 289.384 49.7893 289.192 50.8373 289.16L51.9293 289.124V288.74C51.9293 288.204 51.8133 287.832 51.5813 287.624C51.3493 287.416 51.0213 287.312 50.5973 287.312C50.2613 287.312 49.9413 287.364 49.6373 287.468C49.3333 287.564 49.0493 287.676 48.7853 287.804L48.4613 287.012C48.7413 286.86 49.0733 286.732 49.4573 286.628C49.8413 286.516 50.2413 286.46 50.6573 286.46ZM51.9173 289.856L50.9693 289.892C50.1693 289.924 49.6133 290.052 49.3013 290.276C48.9973 290.5 48.8453 290.816 48.8453 291.224C48.8453 291.584 48.9533 291.848 49.1693 292.016C49.3933 292.184 49.6773 292.268 50.0213 292.268C50.5653 292.268 51.0173 292.12 51.3773 291.824C51.7373 291.52 51.9173 291.056 51.9173 290.432V289.856ZM57.9638 286.448C58.7318 286.448 59.3118 286.636 59.7038 287.012C60.0958 287.38 60.2918 287.98 60.2918 288.812V293H59.2478V288.884C59.2478 287.852 58.7678 287.336 57.8078 287.336C57.0958 287.336 56.6038 287.536 56.3318 287.936C56.0598 288.336 55.9238 288.912 55.9238 289.664V293H54.8678V286.568H55.7198L55.8758 287.444H55.9358C56.1438 287.108 56.4318 286.86 56.7998 286.7C57.1678 286.532 57.5558 286.448 57.9638 286.448Z" fill="#8594A8"/>
<path d="M94.244 293H93.164V284.432H97.952V285.38H94.244V288.416H97.724V289.364H94.244V293ZM101.647 286.448C102.199 286.448 102.671 286.568 103.063 286.808C103.463 287.048 103.767 287.388 103.975 287.828C104.191 288.26 104.299 288.768 104.299 289.352V289.988H99.8947C99.9107 290.716 100.095 291.272 100.447 291.656C100.807 292.032 101.307 292.22 101.947 292.22C102.355 292.22 102.715 292.184 103.027 292.112C103.347 292.032 103.675 291.92 104.011 291.776V292.7C103.683 292.844 103.359 292.948 103.039 293.012C102.719 293.084 102.339 293.12 101.899 293.12C101.291 293.12 100.751 292.996 100.279 292.748C99.8147 292.5 99.4507 292.132 99.1867 291.644C98.9307 291.148 98.8027 290.544 98.8027 289.832C98.8027 289.128 98.9187 288.524 99.1507 288.02C99.3907 287.516 99.7227 287.128 100.147 286.856C100.579 286.584 101.079 286.448 101.647 286.448ZM101.635 287.312C101.131 287.312 100.731 287.476 100.435 287.804C100.147 288.124 99.9747 288.572 99.9187 289.148H103.195C103.187 288.604 103.059 288.164 102.811 287.828C102.563 287.484 102.171 287.312 101.635 287.312ZM106.912 283.88V286.1C106.912 286.372 106.904 286.628 106.888 286.868C106.88 287.1 106.868 287.284 106.852 287.42H106.912C107.096 287.148 107.348 286.92 107.668 286.736C107.988 286.552 108.4 286.46 108.904 286.46C109.704 286.46 110.344 286.74 110.824 287.3C111.312 287.852 111.556 288.68 111.556 289.784C111.556 290.888 111.312 291.72 110.824 292.28C110.336 292.84 109.696 293.12 108.904 293.12C108.4 293.12 107.988 293.028 107.668 292.844C107.348 292.66 107.096 292.44 106.912 292.184H106.828L106.612 293H105.856V283.88H106.912ZM108.724 287.336C108.044 287.336 107.572 287.532 107.308 287.924C107.044 288.316 106.912 288.924 106.912 289.748V289.796C106.912 290.588 107.04 291.196 107.296 291.62C107.56 292.036 108.044 292.244 108.748 292.244C109.324 292.244 109.752 292.032 110.032 291.608C110.32 291.184 110.464 290.572 110.464 289.772C110.464 288.148 109.884 287.336 108.724 287.336Z" fill="#8594A8"/>
<path d="M144.944 293L142.124 285.488H142.076C142.1 285.736 142.12 286.072 142.136 286.496C142.152 286.912 142.16 287.348 142.16 287.804V293H141.164V284.432H142.76L145.4 291.452H145.448L148.136 284.432H149.72V293H148.652V287.732C148.652 287.316 148.66 286.904 148.676 286.496C148.7 286.088 148.72 285.756 148.736 285.5H148.688L145.832 293H144.944ZM154.263 286.46C155.047 286.46 155.627 286.632 156.003 286.976C156.379 287.32 156.567 287.868 156.567 288.62V293H155.799L155.595 292.088H155.547C155.267 292.44 154.971 292.7 154.659 292.868C154.355 293.036 153.931 293.12 153.387 293.12C152.803 293.12 152.319 292.968 151.935 292.664C151.551 292.352 151.359 291.868 151.359 291.212C151.359 290.572 151.611 290.08 152.115 289.736C152.619 289.384 153.395 289.192 154.443 289.16L155.535 289.124V288.74C155.535 288.204 155.419 287.832 155.187 287.624C154.955 287.416 154.627 287.312 154.203 287.312C153.867 287.312 153.547 287.364 153.243 287.468C152.939 287.564 152.655 287.676 152.391 287.804L152.067 287.012C152.347 286.86 152.679 286.732 153.063 286.628C153.447 286.516 153.847 286.46 154.263 286.46ZM155.523 289.856L154.575 289.892C153.775 289.924 153.219 290.052 152.907 290.276C152.603 290.5 152.451 290.816 152.451 291.224C152.451 291.584 152.559 291.848 152.775 292.016C152.999 292.184 153.283 292.268 153.627 292.268C154.171 292.268 154.623 292.12 154.983 291.824C155.343 291.52 155.523 291.056 155.523 290.432V289.856ZM161.473 286.448C161.593 286.448 161.721 286.456 161.857 286.472C162.001 286.48 162.125 286.496 162.229 286.52L162.097 287.492C161.993 287.468 161.877 287.448 161.749 287.432C161.629 287.416 161.513 287.408 161.401 287.408C161.073 287.408 160.765 287.5 160.477 287.684C160.189 287.86 159.957 288.112 159.781 288.44C159.613 288.76 159.529 289.136 159.529 289.568V293H158.473V286.568H159.337L159.457 287.744H159.505C159.713 287.392 159.981 287.088 160.309 286.832C160.637 286.576 161.025 286.448 161.473 286.448Z" fill="#8594A8"/>
<path d="M194.54 293L193.508 290.348H190.112L189.092 293H188L191.348 284.396H192.32L195.656 293H194.54ZM193.184 289.388L192.224 286.796C192.2 286.732 192.16 286.616 192.104 286.448C192.048 286.28 191.992 286.108 191.936 285.932C191.888 285.748 191.848 285.608 191.816 285.512C191.76 285.76 191.696 286.004 191.624 286.244C191.552 286.476 191.492 286.66 191.444 286.796L190.472 289.388H193.184ZM199.664 286.448C200.456 286.448 201.092 286.724 201.572 287.276C202.06 287.828 202.304 288.66 202.304 289.772C202.304 290.868 202.06 291.7 201.572 292.268C201.092 292.836 200.452 293.12 199.652 293.12C199.156 293.12 198.744 293.028 198.416 292.844C198.096 292.652 197.844 292.432 197.66 292.184H197.588C197.604 292.32 197.62 292.492 197.636 292.7C197.652 292.908 197.66 293.088 197.66 293.24V295.88H196.604V286.568H197.468L197.612 287.444H197.66C197.852 287.164 198.104 286.928 198.416 286.736C198.728 286.544 199.144 286.448 199.664 286.448ZM199.472 287.336C198.816 287.336 198.352 287.52 198.08 287.888C197.816 288.256 197.676 288.816 197.66 289.568V289.772C197.66 290.564 197.788 291.176 198.044 291.608C198.308 292.032 198.792 292.244 199.496 292.244C199.888 292.244 200.208 292.136 200.456 291.92C200.712 291.704 200.9 291.412 201.02 291.044C201.148 290.668 201.212 290.24 201.212 289.76C201.212 289.024 201.068 288.436 200.78 287.996C200.5 287.556 200.064 287.336 199.472 287.336ZM206.907 286.448C207.027 286.448 207.155 286.456 207.291 286.472C207.435 286.48 207.559 286.496 207.663 286.52L207.531 287.492C207.427 287.468 207.311 287.448 207.183 287.432C207.063 287.416 206.947 287.408 206.835 287.408C206.507 287.408 206.199 287.5 205.911 287.684C205.623 287.86 205.391 288.112 205.215 288.44C205.047 288.76 204.963 289.136 204.963 289.568V293H203.907V286.568H204.771L204.891 287.744H204.939C205.147 287.392 205.415 287.088 205.743 286.832C206.071 286.576 206.459 286.448 206.907 286.448Z" fill="#8594A8"/>
<path d="M240.944 293L238.124 285.488H238.076C238.1 285.736 238.12 286.072 238.136 286.496C238.152 286.912 238.16 287.348 238.16 287.804V293H237.164V284.432H238.76L241.4 291.452H241.448L244.136 284.432H245.72V293H244.652V287.732C244.652 287.316 244.66 286.904 244.676 286.496C244.7 286.088 244.72 285.756 244.736 285.5H244.688L241.832 293H240.944ZM250.263 286.46C251.047 286.46 251.627 286.632 252.003 286.976C252.379 287.32 252.567 287.868 252.567 288.62V293H251.799L251.595 292.088H251.547C251.267 292.44 250.971 292.7 250.659 292.868C250.355 293.036 249.931 293.12 249.387 293.12C248.803 293.12 248.319 292.968 247.935 292.664C247.551 292.352 247.359 291.868 247.359 291.212C247.359 290.572 247.611 290.08 248.115 289.736C248.619 289.384 249.395 289.192 250.443 289.16L251.535 289.124V288.74C251.535 288.204 251.419 287.832 251.187 287.624C250.955 287.416 250.627 287.312 250.203 287.312C249.867 287.312 249.547 287.364 249.243 287.468C248.939 287.564 248.655 287.676 248.391 287.804L248.067 287.012C248.347 286.86 248.679 286.732 249.063 286.628C249.447 286.516 249.847 286.46 250.263 286.46ZM251.523 289.856L250.575 289.892C249.775 289.924 249.219 290.052 248.907 290.276C248.603 290.5 248.451 290.816 248.451 291.224C248.451 291.584 248.559 291.848 248.775 292.016C248.999 292.184 249.283 292.268 249.627 292.268C250.171 292.268 250.623 292.12 250.983 291.824C251.343 291.52 251.523 291.056 251.523 290.432V289.856ZM253.465 286.568H254.593L255.985 290.228C256.105 290.548 256.213 290.856 256.309 291.152C256.405 291.44 256.477 291.716 256.525 291.98H256.573C256.621 291.78 256.697 291.52 256.801 291.2C256.905 290.872 257.013 290.544 257.125 290.216L258.433 286.568H259.573L256.801 293.888C256.577 294.496 256.285 294.98 255.925 295.34C255.573 295.7 255.085 295.88 254.461 295.88C254.269 295.88 254.101 295.868 253.957 295.844C253.813 295.828 253.689 295.808 253.585 295.784V294.944C253.673 294.96 253.777 294.976 253.897 294.992C254.025 295.008 254.157 295.016 254.293 295.016C254.661 295.016 254.957 294.912 255.181 294.704C255.413 294.496 255.593 294.22 255.721 293.876L256.057 293.024L253.465 286.568Z" fill="#8594A8"/>
<path d="M283.952 295.28C283.76 295.28 283.592 295.264 283.448 295.232C283.304 295.208 283.176 295.172 283.064 295.124V294.212C283.192 294.244 283.328 294.272 283.472 294.296C283.616 294.32 283.768 294.332 283.928 294.332C284.128 294.332 284.316 294.292 284.492 294.212C284.676 294.132 284.824 293.992 284.936 293.792C285.048 293.592 285.104 293.312 285.104 292.952V284.432H286.184V292.868C286.184 293.692 285.98 294.3 285.572 294.692C285.164 295.084 284.624 295.28 283.952 295.28ZM293.597 286.568V293H292.733L292.577 292.148H292.529C292.321 292.484 292.033 292.732 291.665 292.892C291.297 293.044 290.905 293.12 290.489 293.12C289.713 293.12 289.129 292.936 288.737 292.568C288.345 292.192 288.149 291.596 288.149 290.78V286.568H289.217V290.708C289.217 291.732 289.693 292.244 290.645 292.244C291.357 292.244 291.849 292.044 292.121 291.644C292.401 291.244 292.541 290.668 292.541 289.916V286.568H293.597ZM298.655 286.448C299.423 286.448 300.003 286.636 300.395 287.012C300.787 287.38 300.983 287.98 300.983 288.812V293H299.939V288.884C299.939 287.852 299.459 287.336 298.499 287.336C297.787 287.336 297.295 287.536 297.023 287.936C296.751 288.336 296.615 288.912 296.615 289.664V293H295.559V286.568H296.411L296.567 287.444H296.627C296.835 287.108 297.123 286.86 297.491 286.7C297.859 286.532 298.247 286.448 298.655 286.448Z" fill="#8594A8"/>
<path d="M331.952 295.28C331.76 295.28 331.592 295.264 331.448 295.232C331.304 295.208 331.176 295.172 331.064 295.124V294.212C331.192 294.244 331.328 294.272 331.472 294.296C331.616 294.32 331.768 294.332 331.928 294.332C332.128 294.332 332.316 294.292 332.492 294.212C332.676 294.132 332.824 293.992 332.936 293.792C333.048 293.592 333.104 293.312 333.104 292.952V284.432H334.184V292.868C334.184 293.692 333.98 294.3 333.572 294.692C333.164 295.084 332.624 295.28 331.952 295.28ZM341.597 286.568V293H340.733L340.577 292.148H340.529C340.321 292.484 340.033 292.732 339.665 292.892C339.297 293.044 338.905 293.12 338.489 293.12C337.713 293.12 337.129 292.936 336.737 292.568C336.345 292.192 336.149 291.596 336.149 290.78V286.568H337.217V290.708C337.217 291.732 337.693 292.244 338.645 292.244C339.357 292.244 339.849 292.044 340.121 291.644C340.401 291.244 340.541 290.668 340.541 289.916V286.568H341.597ZM344.615 293H343.559V283.88H344.615V293Z" fill="#8594A8"/>
<path d="M386.54 293L385.508 290.348H382.112L381.092 293H380L383.348 284.396H384.32L387.656 293H386.54ZM385.184 289.388L384.224 286.796C384.2 286.732 384.16 286.616 384.104 286.448C384.048 286.28 383.992 286.108 383.936 285.932C383.888 285.748 383.848 285.608 383.816 285.512C383.76 285.76 383.696 286.004 383.624 286.244C383.552 286.476 383.492 286.66 383.444 286.796L382.472 289.388H385.184ZM393.98 286.568V293H393.116L392.96 292.148H392.912C392.704 292.484 392.416 292.732 392.048 292.892C391.68 293.044 391.288 293.12 390.872 293.12C390.096 293.12 389.512 292.936 389.12 292.568C388.728 292.192 388.532 291.596 388.532 290.78V286.568H389.6V290.708C389.6 291.732 390.076 292.244 391.028 292.244C391.74 292.244 392.232 292.044 392.504 291.644C392.784 291.244 392.924 290.668 392.924 289.916V286.568H393.98ZM398.222 286.448C398.646 286.448 399.026 286.528 399.362 286.688C399.706 286.848 399.998 287.092 400.238 287.42H400.298L400.442 286.568H401.282V293.108C401.282 294.028 401.046 294.72 400.574 295.184C400.11 295.648 399.386 295.88 398.402 295.88C397.458 295.88 396.686 295.744 396.086 295.472V294.5C396.718 294.836 397.51 295.004 398.462 295.004C399.014 295.004 399.446 294.84 399.758 294.512C400.078 294.192 400.238 293.752 400.238 293.192V292.94C400.238 292.844 400.242 292.708 400.25 292.532C400.258 292.348 400.266 292.22 400.274 292.148H400.226C399.794 292.796 399.13 293.12 398.234 293.12C397.402 293.12 396.75 292.828 396.278 292.244C395.814 291.66 395.582 290.844 395.582 289.796C395.582 288.772 395.814 287.96 396.278 287.36C396.75 286.752 397.398 286.448 398.222 286.448ZM398.366 287.336C397.83 287.336 397.414 287.552 397.118 287.984C396.822 288.408 396.674 289.016 396.674 289.808C396.674 290.6 396.818 291.208 397.106 291.632C397.402 292.048 397.83 292.256 398.39 292.256C399.038 292.256 399.51 292.084 399.806 291.74C400.102 291.388 400.25 290.824 400.25 290.048V289.796C400.25 288.916 400.098 288.288 399.794 287.912C399.49 287.528 399.014 287.336 398.366 287.336Z" fill="#8594A8"/>
<path d="M434.024 290.708C434.024 291.468 433.748 292.06 433.196 292.484C432.644 292.908 431.9 293.12 430.964 293.12C430.484 293.12 430.04 293.084 429.632 293.012C429.224 292.94 428.884 292.84 428.612 292.712V291.68C428.9 291.808 429.256 291.924 429.68 292.028C430.112 292.132 430.556 292.184 431.012 292.184C431.652 292.184 432.132 292.06 432.452 291.812C432.78 291.564 432.944 291.228 432.944 290.804C432.944 290.524 432.884 290.288 432.764 290.096C432.644 289.904 432.436 289.728 432.14 289.568C431.852 289.4 431.448 289.224 430.928 289.04C430.2 288.776 429.648 288.452 429.272 288.068C428.904 287.684 428.72 287.16 428.72 286.496C428.72 286.04 428.836 285.652 429.068 285.332C429.3 285.004 429.62 284.752 430.028 284.576C430.444 284.4 430.92 284.312 431.456 284.312C431.928 284.312 432.36 284.356 432.752 284.444C433.144 284.532 433.5 284.648 433.82 284.792L433.484 285.716C433.188 285.588 432.864 285.48 432.512 285.392C432.168 285.304 431.808 285.26 431.432 285.26C430.896 285.26 430.492 285.376 430.22 285.608C429.948 285.832 429.812 286.132 429.812 286.508C429.812 286.796 429.872 287.036 429.992 287.228C430.112 287.42 430.308 287.592 430.58 287.744C430.852 287.896 431.22 288.06 431.684 288.236C432.188 288.42 432.612 288.62 432.956 288.836C433.308 289.044 433.572 289.296 433.748 289.592C433.932 289.888 434.024 290.26 434.024 290.708ZM438.01 286.448C438.562 286.448 439.034 286.568 439.426 286.808C439.826 287.048 440.13 287.388 440.338 287.828C440.554 288.26 440.662 288.768 440.662 289.352V289.988H436.258C436.274 290.716 436.458 291.272 436.81 291.656C437.17 292.032 437.67 292.22 438.31 292.22C438.718 292.22 439.078 292.184 439.39 292.112C439.71 292.032 440.038 291.92 440.374 291.776V292.7C440.046 292.844 439.722 292.948 439.402 293.012C439.082 293.084 438.702 293.12 438.262 293.12C437.654 293.12 437.114 292.996 436.642 292.748C436.178 292.5 435.814 292.132 435.55 291.644C435.294 291.148 435.166 290.544 435.166 289.832C435.166 289.128 435.282 288.524 435.514 288.02C435.754 287.516 436.086 287.128 436.51 286.856C436.942 286.584 437.442 286.448 438.01 286.448ZM437.998 287.312C437.494 287.312 437.094 287.476 436.798 287.804C436.51 288.124 436.338 288.572 436.282 289.148H439.558C439.55 288.604 439.422 288.164 439.174 287.828C438.926 287.484 438.534 287.312 437.998 287.312ZM445.279 286.448C446.071 286.448 446.707 286.724 447.187 287.276C447.675 287.828 447.919 288.66 447.919 289.772C447.919 290.868 447.675 291.7 447.187 292.268C446.707 292.836 446.067 293.12 445.267 293.12C444.771 293.12 444.359 293.028 444.031 292.844C443.711 292.652 443.459 292.432 443.275 292.184H443.203C443.219 292.32 443.235 292.492 443.251 292.7C443.267 292.908 443.275 293.088 443.275 293.24V295.88H442.219V286.568H443.083L443.227 287.444H443.275C443.467 287.164 443.719 286.928 444.031 286.736C444.343 286.544 444.759 286.448 445.279 286.448ZM445.087 287.336C444.431 287.336 443.967 287.52 443.695 287.888C443.431 288.256 443.291 288.816 443.275 289.568V289.772C443.275 290.564 443.403 291.176 443.659 291.608C443.923 292.032 444.407 292.244 445.111 292.244C445.503 292.244 445.823 292.136 446.071 291.92C446.327 291.704 446.515 291.412 446.635 291.044C446.763 290.668 446.827 290.24 446.827 289.76C446.827 289.024 446.683 288.436 446.395 287.996C446.115 287.556 445.679 287.336 445.087 287.336Z" fill="#8594A8"/>
<path d="M484.64 288.703C484.64 289.591 484.488 290.367 484.184 291.031C483.888 291.687 483.448 292.199 482.864 292.567C482.28 292.935 481.556 293.119 480.692 293.119C479.804 293.119 479.064 292.935 478.472 292.567C477.888 292.199 477.452 291.683 477.164 291.019C476.876 290.355 476.732 289.579 476.732 288.691C476.732 287.811 476.876 287.043 477.164 286.387C477.452 285.731 477.888 285.219 478.472 284.851C479.064 284.483 479.808 284.299 480.704 284.299C481.56 284.299 482.28 284.483 482.864 284.851C483.448 285.211 483.888 285.723 484.184 286.387C484.488 287.043 484.64 287.815 484.64 288.703ZM477.872 288.703C477.872 289.783 478.1 290.635 478.556 291.259C479.012 291.875 479.724 292.183 480.692 292.183C481.668 292.183 482.38 291.875 482.828 291.259C483.276 290.635 483.5 289.783 483.5 288.703C483.5 287.623 483.276 286.779 482.828 286.171C482.38 285.555 481.672 285.247 480.704 285.247C479.736 285.247 479.02 285.555 478.556 286.171C478.1 286.779 477.872 287.623 477.872 288.703ZM488.895 293.119C488.327 293.119 487.819 293.003 487.371 292.771C486.931 292.539 486.583 292.179 486.327 291.691C486.079 291.203 485.955 290.579 485.955 289.819C485.955 289.027 486.087 288.383 486.351 287.887C486.615 287.391 486.971 287.027 487.419 286.795C487.875 286.563 488.391 286.447 488.967 286.447C489.295 286.447 489.611 286.483 489.915 286.555C490.219 286.619 490.467 286.699 490.659 286.795L490.335 287.671C490.143 287.599 489.919 287.531 489.663 287.467C489.407 287.403 489.167 287.371 488.943 287.371C487.679 287.371 487.047 288.183 487.047 289.807C487.047 290.583 487.199 291.179 487.503 291.595C487.815 292.003 488.275 292.207 488.883 292.207C489.235 292.207 489.543 292.171 489.807 292.099C490.079 292.027 490.327 291.939 490.551 291.835V292.771C490.335 292.883 490.095 292.967 489.831 293.023C489.575 293.087 489.263 293.119 488.895 293.119ZM494.149 292.255C494.309 292.255 494.473 292.243 494.641 292.219C494.809 292.187 494.945 292.155 495.049 292.123V292.927C494.937 292.983 494.777 293.027 494.569 293.059C494.361 293.099 494.161 293.119 493.969 293.119C493.633 293.119 493.321 293.063 493.033 292.951C492.753 292.831 492.525 292.627 492.349 292.339C492.173 292.051 492.085 291.647 492.085 291.127V287.383H491.173V286.879L492.097 286.459L492.517 285.091H493.141V286.567H495.001V287.383H493.141V291.103C493.141 291.495 493.233 291.787 493.417 291.979C493.609 292.163 493.853 292.255 494.149 292.255Z" fill="#8594A8"/>
<path d="M533.956 293H532.696L528.112 285.884H528.064C528.08 286.164 528.1 286.512 528.124 286.928C528.148 287.344 528.16 287.772 528.16 288.212V293H527.164V284.432H528.412L532.984 291.524H533.032C533.024 291.396 533.012 291.204 532.996 290.948C532.988 290.692 532.976 290.412 532.96 290.108C532.952 289.804 532.948 289.524 532.948 289.268V284.432H533.956V293ZM541.649 289.772C541.649 290.836 541.377 291.66 540.833 292.244C540.297 292.828 539.569 293.12 538.649 293.12C538.081 293.12 537.573 292.992 537.125 292.736C536.685 292.472 536.337 292.092 536.081 291.596C535.825 291.092 535.697 290.484 535.697 289.772C535.697 288.708 535.965 287.888 536.501 287.312C537.037 286.736 537.765 286.448 538.685 286.448C539.269 286.448 539.781 286.58 540.221 286.844C540.669 287.1 541.017 287.476 541.265 287.972C541.521 288.46 541.649 289.06 541.649 289.772ZM536.789 289.772C536.789 290.532 536.937 291.136 537.233 291.584C537.537 292.024 538.017 292.244 538.673 292.244C539.321 292.244 539.797 292.024 540.101 291.584C540.405 291.136 540.557 290.532 540.557 289.772C540.557 289.012 540.405 288.416 540.101 287.984C539.797 287.552 539.317 287.336 538.661 287.336C538.005 287.336 537.529 287.552 537.233 287.984C536.937 288.416 536.789 289.012 536.789 289.772ZM544.424 293L541.988 286.568H543.116L544.484 290.36C544.548 290.536 544.616 290.732 544.688 290.948C544.76 291.164 544.824 291.372 544.88 291.572C544.936 291.764 544.976 291.928 545 292.064H545.048C545.08 291.928 545.124 291.76 545.18 291.56C545.244 291.36 545.312 291.152 545.384 290.936C545.464 290.72 545.532 290.528 545.588 290.36L546.956 286.568H548.084L545.636 293H544.424Z" fill="#8594A8"/>
<path d="M584.028 288.631C584.028 290.079 583.632 291.171 582.84 291.907C582.056 292.635 580.96 292.999 579.552 292.999H577.164V284.431H579.804C580.668 284.431 581.416 284.591 582.048 284.911C582.68 285.231 583.168 285.703 583.512 286.327C583.856 286.943 584.028 287.711 584.028 288.631ZM582.888 288.667C582.888 287.523 582.604 286.687 582.036 286.159C581.476 285.623 580.68 285.355 579.648 285.355H578.244V292.075H579.408C581.728 292.075 582.888 290.939 582.888 288.667ZM588.19 286.447C588.742 286.447 589.214 286.567 589.606 286.807C590.006 287.047 590.31 287.387 590.518 287.827C590.734 288.259 590.842 288.767 590.842 289.351V289.987H586.438C586.454 290.715 586.638 291.271 586.99 291.655C587.35 292.031 587.85 292.219 588.49 292.219C588.898 292.219 589.258 292.183 589.57 292.111C589.89 292.031 590.218 291.919 590.554 291.775V292.699C590.226 292.843 589.902 292.947 589.582 293.011C589.262 293.083 588.882 293.119 588.442 293.119C587.834 293.119 587.294 292.995 586.822 292.747C586.358 292.499 585.994 292.131 585.73 291.643C585.474 291.147 585.346 290.543 585.346 289.831C585.346 289.127 585.462 288.523 585.694 288.019C585.934 287.515 586.266 287.127 586.69 286.855C587.122 286.583 587.622 286.447 588.19 286.447ZM588.178 287.311C587.674 287.311 587.274 287.475 586.978 287.803C586.69 288.123 586.518 288.571 586.462 289.147H589.738C589.73 288.603 589.602 288.163 589.354 287.827C589.106 287.483 588.714 287.311 588.178 287.311ZM594.979 293.119C594.411 293.119 593.903 293.003 593.455 292.771C593.015 292.539 592.667 292.179 592.411 291.691C592.163 291.203 592.039 290.579 592.039 289.819C592.039 289.027 592.171 288.383 592.435 287.887C592.699 287.391 593.055 287.027 593.503 286.795C593.959 286.563 594.475 286.447 595.051 286.447C595.379 286.447 595.695 286.483 595.999 286.555C596.303 286.619 596.551 286.699 596.743 286.795L596.419 287.671C596.227 287.599 596.003 287.531 595.747 287.467C595.491 287.403 595.251 287.371 595.027 287.371C593.763 287.371 593.131 288.183 593.131 289.807C593.131 290.583 593.283 291.179 593.587 291.595C593.899 292.003 594.359 292.207 594.967 292.207C595.319 292.207 595.627 292.171 595.891 292.099C596.163 292.027 596.411 291.939 596.635 291.835V292.771C596.419 292.883 596.179 292.967 595.915 293.023C595.659 293.087 595.347 293.119 594.979 293.119Z" fill="#8594A8"/>
<path d="M30.24 37.0015H24.576V36.1255L26.82 33.8575C27.252 33.4255 27.616 33.0415 27.912 32.7055C28.208 32.3695 28.432 32.0415 28.584 31.7215C28.736 31.3935 28.812 31.0375 28.812 30.6535C28.812 30.1815 28.672 29.8255 28.392 29.5855C28.112 29.3375 27.748 29.2135 27.3 29.2135C26.884 29.2135 26.516 29.2855 26.196 29.4295C25.884 29.5735 25.564 29.7735 25.236 30.0295L24.672 29.3215C25.008 29.0415 25.392 28.8055 25.824 28.6135C26.264 28.4135 26.756 28.3135 27.3 28.3135C28.1 28.3135 28.732 28.5175 29.196 28.9255C29.66 29.3255 29.892 29.8815 29.892 30.5935C29.892 31.0415 29.8 31.4615 29.616 31.8535C29.432 32.2455 29.176 32.6335 28.848 33.0175C28.52 33.3935 28.136 33.7975 27.696 34.2295L25.908 35.9935V36.0415H30.24V37.0015ZM34.0872 31.7455C34.9672 31.7455 35.6672 31.9655 36.1872 32.4055C36.7072 32.8455 36.9672 33.4655 36.9672 34.2655C36.9672 35.1535 36.6832 35.8535 36.1152 36.3655C35.5552 36.8695 34.7712 37.1215 33.7632 37.1215C33.3232 37.1215 32.9072 37.0815 32.5152 37.0015C32.1312 36.9215 31.8072 36.8055 31.5432 36.6535V35.6575C31.8312 35.8335 32.1792 35.9735 32.5872 36.0775C33.0032 36.1735 33.3992 36.2215 33.7752 36.2215C34.4072 36.2215 34.9152 36.0735 35.2992 35.7775C35.6912 35.4735 35.8872 35.0055 35.8872 34.3735C35.8872 33.8135 35.7152 33.3855 35.3712 33.0895C35.0272 32.7855 34.4832 32.6335 33.7392 32.6335C33.5152 32.6335 33.2592 32.6535 32.9712 32.6935C32.6832 32.7335 32.4512 32.7735 32.2752 32.8135L31.7472 32.4775L32.0712 28.4335H36.3672V29.3935H32.9712L32.7672 31.8775C32.9032 31.8535 33.0872 31.8255 33.3192 31.7935C33.5512 31.7615 33.8072 31.7455 34.0872 31.7455Z" fill="#8594A8"/>
<path d="M30.24 83.4014H24.576V82.5254L26.82 80.2574C27.252 79.8254 27.616 79.4414 27.912 79.1054C28.208 78.7694 28.432 78.4414 28.584 78.1214C28.736 77.7934 28.812 77.4374 28.812 77.0534C28.812 76.5814 28.672 76.2254 28.392 75.9854C28.112 75.7374 27.748 75.6134 27.3 75.6134C26.884 75.6134 26.516 75.6854 26.196 75.8294C25.884 75.9734 25.564 76.1734 25.236 76.4294L24.672 75.7214C25.008 75.4414 25.392 75.2054 25.824 75.0134C26.264 74.8134 26.756 74.7134 27.3 74.7134C28.1 74.7134 28.732 74.9174 29.196 75.3254C29.66 75.7254 29.892 76.2814 29.892 76.9934C29.892 77.4414 29.8 77.8614 29.616 78.2534C29.432 78.6454 29.176 79.0334 28.848 79.4174C28.52 79.7934 28.136 80.1974 27.696 80.6294L25.908 82.3934V82.4414H30.24V83.4014ZM37.0632 79.1054C37.0632 80.0254 36.9672 80.8174 36.7752 81.4814C36.5832 82.1374 36.2792 82.6414 35.8632 82.9934C35.4472 83.3454 34.8952 83.5214 34.2072 83.5214C33.2392 83.5214 32.5232 83.1334 32.0592 82.3574C31.6032 81.5734 31.3752 80.4894 31.3752 79.1054C31.3752 78.1774 31.4672 77.3854 31.6512 76.7294C31.8432 76.0734 32.1472 75.5734 32.5632 75.2294C32.9792 74.8774 33.5272 74.7014 34.2072 74.7014C35.1672 74.7014 35.8832 75.0894 36.3552 75.8654C36.8272 76.6334 37.0632 77.7134 37.0632 79.1054ZM32.4312 79.1054C32.4312 80.2814 32.5632 81.1614 32.8272 81.7454C33.0992 82.3294 33.5592 82.6214 34.2072 82.6214C34.8472 82.6214 35.3032 82.3334 35.5752 81.7574C35.8552 81.1734 35.9952 80.2894 35.9952 79.1054C35.9952 77.9374 35.8552 77.0614 35.5752 76.4774C35.3032 75.8934 34.8472 75.6014 34.2072 75.6014C33.5592 75.6014 33.0992 75.8934 32.8272 76.4774C32.5632 77.0614 32.4312 77.9374 32.4312 79.1054Z" fill="#8594A8"/>
<path d="M28.26 129.801H27.228V123.813C27.228 123.469 27.232 123.193 27.24 122.985C27.248 122.777 27.26 122.561 27.276 122.337C27.148 122.465 27.032 122.573 26.928 122.661C26.824 122.749 26.692 122.861 26.532 122.997L25.62 123.741L25.068 123.033L27.384 121.233H28.26V129.801ZM34.0872 124.545C34.9672 124.545 35.6672 124.765 36.1872 125.205C36.7072 125.645 36.9672 126.265 36.9672 127.065C36.9672 127.953 36.6832 128.653 36.1152 129.165C35.5552 129.669 34.7712 129.921 33.7632 129.921C33.3232 129.921 32.9072 129.881 32.5152 129.801C32.1312 129.721 31.8072 129.605 31.5432 129.453V128.457C31.8312 128.633 32.1792 128.773 32.5872 128.877C33.0032 128.973 33.3992 129.021 33.7752 129.021C34.4072 129.021 34.9152 128.873 35.2992 128.577C35.6912 128.273 35.8872 127.805 35.8872 127.173C35.8872 126.613 35.7152 126.185 35.3712 125.889C35.0272 125.585 34.4832 125.433 33.7392 125.433C33.5152 125.433 33.2592 125.453 32.9712 125.493C32.6832 125.533 32.4512 125.573 32.2752 125.613L31.7472 125.277L32.0712 121.233H36.3672V122.193H32.9712L32.7672 124.677C32.9032 124.653 33.0872 124.625 33.3192 124.593C33.5512 124.561 33.8072 124.545 34.0872 124.545Z" fill="#8594A8"/>
<path d="M28.26 176.202H27.228V170.214C27.228 169.87 27.232 169.594 27.24 169.386C27.248 169.178 27.26 168.962 27.276 168.738C27.148 168.866 27.032 168.974 26.928 169.062C26.824 169.15 26.692 169.262 26.532 169.398L25.62 170.142L25.068 169.434L27.384 167.634H28.26V176.202ZM37.0632 171.906C37.0632 172.826 36.9672 173.618 36.7752 174.282C36.5832 174.938 36.2792 175.442 35.8632 175.794C35.4472 176.146 34.8952 176.322 34.2072 176.322C33.2392 176.322 32.5232 175.934 32.0592 175.158C31.6032 174.374 31.3752 173.29 31.3752 171.906C31.3752 170.978 31.4672 170.186 31.6512 169.53C31.8432 168.874 32.1472 168.374 32.5632 168.03C32.9792 167.678 33.5272 167.502 34.2072 167.502C35.1672 167.502 35.8832 167.89 36.3552 168.666C36.8272 169.434 37.0632 170.514 37.0632 171.906ZM32.4312 171.906C32.4312 173.082 32.5632 173.962 32.8272 174.546C33.0992 175.13 33.5592 175.422 34.2072 175.422C34.8472 175.422 35.3032 175.134 35.5752 174.558C35.8552 173.974 35.9952 173.09 35.9952 171.906C35.9952 170.738 35.8552 169.862 35.5752 169.278C35.3032 168.694 34.8472 168.402 34.2072 168.402C33.5592 168.402 33.0992 168.694 32.8272 169.278C32.5632 169.862 32.4312 170.738 32.4312 171.906Z" fill="#8594A8"/>
<path d="M30.8 217.346C31.68 217.346 32.38 217.566 32.9 218.006C33.42 218.446 33.68 219.066 33.68 219.866C33.68 220.754 33.396 221.454 32.828 221.966C32.268 222.47 31.484 222.722 30.476 222.722C30.036 222.722 29.62 222.682 29.228 222.602C28.844 222.522 28.52 222.406 28.256 222.254V221.258C28.544 221.434 28.892 221.574 29.3 221.678C29.716 221.774 30.112 221.822 30.488 221.822C31.12 221.822 31.628 221.674 32.012 221.378C32.404 221.074 32.6 220.606 32.6 219.974C32.6 219.414 32.428 218.986 32.084 218.69C31.74 218.386 31.196 218.234 30.452 218.234C30.228 218.234 29.972 218.254 29.684 218.294C29.396 218.334 29.164 218.374 28.988 218.414L28.46 218.078L28.784 214.034H33.08V214.994H29.684L29.48 217.478C29.616 217.454 29.8 217.426 30.032 217.394C30.264 217.362 30.52 217.346 30.8 217.346Z" fill="#8594A8"/>
<path d="M33.776 264.705C33.776 265.625 33.68 266.417 33.488 267.081C33.296 267.737 32.992 268.241 32.576 268.593C32.16 268.945 31.608 269.121 30.92 269.121C29.952 269.121 29.236 268.733 28.772 267.957C28.316 267.173 28.088 266.089 28.088 264.705C28.088 263.777 28.18 262.985 28.364 262.329C28.556 261.673 28.86 261.173 29.276 260.829C29.692 260.477 30.24 260.301 30.92 260.301C31.88 260.301 32.596 260.689 33.068 261.465C33.54 262.233 33.776 263.313 33.776 264.705ZM29.144 264.705C29.144 265.881 29.276 266.761 29.54 267.345C29.812 267.929 30.272 268.221 30.92 268.221C31.56 268.221 32.016 267.933 32.288 267.357C32.568 266.773 32.708 265.889 32.708 264.705C32.708 263.537 32.568 262.661 32.288 262.077C32.016 261.493 31.56 261.201 30.92 261.201C30.272 261.201 29.812 261.493 29.54 262.077C29.276 262.661 29.144 263.537 29.144 264.705Z" fill="#8594A8"/>
<defs>
<clipPath id="clip0">
<rect x="46" y="24" width="553.97" height="248" fill="white"/>
</clipPath>
</defs>
</svg>
