<svg width="750" height="320" viewBox="0 0 750 320" fill="none" xmlns="http://www.w3.org/2000/svg">
<path d="M0 16C0 7.16345 7.16344 0 16 0H734C742.837 0 750 7.16344 750 16V304C750 312.837 742.837 320 734 320H16C7.16345 320 0 312.837 0 304V16Z" fill="white"/>
<g clip-path="url(#clip0)">
<rect x="46.25" y="24.25" width="0.5" height="247.5" stroke="#E0E9F5" stroke-width="0.5"/>
<rect x="107.97" y="24.25" width="0.5" height="247.5" stroke="#E0E9F5" stroke-width="0.5"/>
<rect x="169.69" y="24.25" width="0.5" height="247.5" stroke="#E0E9F5" stroke-width="0.5"/>
<rect x="231.41" y="24.25" width="0.5" height="247.5" stroke="#E0E9F5" stroke-width="0.5"/>
<rect x="293.13" y="24.25" width="0.5" height="247.5" stroke="#E0E9F5" stroke-width="0.5"/>
<rect x="354.85" y="24.25" width="0.5" height="247.5" stroke="#E0E9F5" stroke-width="0.5"/>
<rect x="416.57" y="24.25" width="0.5" height="247.5" stroke="#E0E9F5" stroke-width="0.5"/>
<rect x="478.29" y="24.25" width="0.5" height="247.5" stroke="#E0E9F5" stroke-width="0.5"/>
<rect x="540.01" y="24.25" width="0.5" height="247.5" stroke="#E0E9F5" stroke-width="0.5"/>
<rect x="601.73" y="24.25" width="0.5" height="247.5" stroke="#E0E9F5" stroke-width="0.5"/>
<rect x="663.45" y="24.25" width="0.5" height="247.5" stroke="#E0E9F5" stroke-width="0.5"/>
<rect x="725.17" y="24.25" width="0.5" height="247.5" stroke="#E0E9F5" stroke-width="0.5"/>
</g>
<rect x="46.25" y="24.25" width="679.5" height="0.5" stroke="#E0E9F5" stroke-width="0.5"/>
<rect x="46.25" y="37.25" width="679.5" height="0.5" stroke="#E0E9F5" stroke-width="0.5"/>
<rect x="46.25" y="50.25" width="679.5" height="0.5" stroke="#E0E9F5" stroke-width="0.5"/>
<rect x="46.25" y="63.25" width="679.5" height="0.5" stroke="#E0E9F5" stroke-width="0.5"/>
<rect x="46.25" y="76.25" width="679.5" height="0.5" stroke="#E0E9F5" stroke-width="0.5"/>
<rect x="46.25" y="89.25" width="679.5" height="0.5" stroke="#E0E9F5" stroke-width="0.5"/>
<rect x="46.25" y="102.25" width="679.5" height="0.5" stroke="#E0E9F5" stroke-width="0.5"/>
<rect x="46.25" y="115.25" width="679.5" height="0.5" stroke="#E0E9F5" stroke-width="0.5"/>
<rect x="46.25" y="128.25" width="679.5" height="0.5" stroke="#E0E9F5" stroke-width="0.5"/>
<rect x="46.25" y="141.25" width="679.5" height="0.5" stroke="#E0E9F5" stroke-width="0.5"/>
<rect x="46.25" y="154.25" width="679.5" height="0.5" stroke="#E0E9F5" stroke-width="0.5"/>
<rect x="46.25" y="167.25" width="679.5" height="0.5" stroke="#E0E9F5" stroke-width="0.5"/>
<rect x="46.25" y="180.25" width="679.5" height="0.5" stroke="#E0E9F5" stroke-width="0.5"/>
<rect x="46.25" y="193.25" width="679.5" height="0.5" stroke="#E0E9F5" stroke-width="0.5"/>
<rect x="46.25" y="206.25" width="679.5" height="0.5" stroke="#E0E9F5" stroke-width="0.5"/>
<rect x="46.25" y="219.25" width="679.5" height="0.5" stroke="#E0E9F5" stroke-width="0.5"/>
<rect x="46.25" y="232.25" width="679.5" height="0.5" stroke="#E0E9F5" stroke-width="0.5"/>
<rect x="46.25" y="245.25" width="679.5" height="0.5" stroke="#E0E9F5" stroke-width="0.5"/>
<rect x="46.25" y="258.25" width="679.5" height="0.5" stroke="#E0E9F5" stroke-width="0.5"/>
<rect x="46.25" y="271.25" width="679.5" height="0.5" stroke="#E0E9F5" stroke-width="0.5"/>
<path fill-rule="evenodd" clip-rule="evenodd" d="M170 194C181.046 194 190 185.046 190 174C190 162.954 181.046 154 170 154C158.954 154 150 162.954 150 174C150 185.046 158.954 194 170 194Z" fill="#EB2F96"/>
<path fill-rule="evenodd" clip-rule="evenodd" d="M705.5 101C711.299 101 716 96.299 716 90.5C716 84.701 711.299 80 705.5 80C699.701 80 695 84.701 695 90.5C695 96.299 699.701 101 705.5 101Z" fill="#EB2F96"/>
<path fill-rule="evenodd" clip-rule="evenodd" d="M303.5 105C309.299 105 314 100.299 314 94.5C314 88.701 309.299 84 303.5 84C297.701 84 293 88.701 293 94.5C293 100.299 297.701 105 303.5 105Z" fill="#EB2F96"/>
<path fill-rule="evenodd" clip-rule="evenodd" d="M102 170C105.866 170 109 166.866 109 163C109 159.134 105.866 156 102 156C98.134 156 95 159.134 95 163C95 166.866 98.134 170 102 170Z" fill="#EB2F96"/>
<path fill-rule="evenodd" clip-rule="evenodd" d="M504 198C507.866 198 511 194.866 511 191C511 187.134 507.866 184 504 184C500.134 184 497 187.134 497 191C497 194.866 500.134 198 504 198Z" fill="#EB2F96"/>
<path fill-rule="evenodd" clip-rule="evenodd" d="M370 60C372.761 60 375 57.7614 375 55C375 52.2386 372.761 50 370 50C367.239 50 365 52.2386 365 55C365 57.7614 367.239 60 370 60Z" fill="#EB2F96"/>
<path fill-rule="evenodd" clip-rule="evenodd" d="M638 132C640.761 132 643 129.761 643 127C643 124.239 640.761 122 638 122C635.239 122 633 124.239 633 127C633 129.761 635.239 132 638 132Z" fill="#EB2F96"/>
<path fill-rule="evenodd" clip-rule="evenodd" d="M437.5 38C439.985 38 442 35.9853 442 33.5C442 31.0147 439.985 29 437.5 29C435.015 29 433 31.0147 433 33.5C433 35.9853 435.015 38 437.5 38Z" fill="#EB2F96"/>
<path fill-rule="evenodd" clip-rule="evenodd" d="M236 137C239.866 137 243 133.866 243 130C243 126.134 239.866 123 236 123C232.134 123 229 126.134 229 130C229 133.866 232.134 137 236 137Z" fill="#EB2F96"/>
<path fill-rule="evenodd" clip-rule="evenodd" d="M571 53C573.761 53 576 50.7614 576 48C576 45.2386 573.761 43 571 43C568.239 43 566 45.2386 566 48C566 50.7614 568.239 53 571 53Z" fill="#EB2F96"/>
<path fill-rule="evenodd" clip-rule="evenodd" d="M370 94C373.866 94 377 90.866 377 87C377 83.134 373.866 80 370 80C366.134 80 363 83.134 363 87C363 90.866 366.134 94 370 94Z" fill="#FFC53D"/>
<path fill-rule="evenodd" clip-rule="evenodd" d="M571 161C574.866 161 578 157.866 578 154C578 150.134 574.866 147 571 147C567.134 147 564 150.134 564 154C564 157.866 567.134 161 571 161Z" fill="#FFC53D"/>
<path fill-rule="evenodd" clip-rule="evenodd" d="M170 228C173.866 228 177 224.866 177 221C177 217.134 173.866 214 170 214C166.134 214 163 217.134 163 221C163 224.866 166.134 228 170 228Z" fill="#FFC53D"/>
<path fill-rule="evenodd" clip-rule="evenodd" d="M102.5 263C104.985 263 107 260.985 107 258.5C107 256.015 104.985 254 102.5 254C100.015 254 98 256.015 98 258.5C98 260.985 100.015 263 102.5 263Z" fill="#FFC53D"/>
<path fill-rule="evenodd" clip-rule="evenodd" d="M437.5 76C439.985 76 442 73.9853 442 71.5C442 69.0147 439.985 67 437.5 67C435.015 67 433 69.0147 433 71.5C433 73.9853 435.015 76 437.5 76Z" fill="#FFC53D"/>
<path fill-rule="evenodd" clip-rule="evenodd" d="M236.5 80C238.985 80 241 77.9853 241 75.5C241 73.0147 238.985 71 236.5 71C234.015 71 232 73.0147 232 75.5C232 77.9853 234.015 80 236.5 80Z" fill="#FFC53D"/>
<path fill-rule="evenodd" clip-rule="evenodd" d="M704.5 148C706.985 148 709 145.985 709 143.5C709 141.015 706.985 139 704.5 139C702.015 139 700 141.015 700 143.5C700 145.985 702.015 148 704.5 148Z" fill="#FFC53D"/>
<path fill-rule="evenodd" clip-rule="evenodd" d="M638 70C647.389 70 655 62.3888 655 53C655 43.6112 647.389 36 638 36C628.611 36 621 43.6112 621 53C621 62.3888 628.611 70 638 70Z" fill="#FFC53D"/>
<path fill-rule="evenodd" clip-rule="evenodd" d="M504.5 132C510.299 132 515 127.299 515 121.5C515 115.701 510.299 111 504.5 111C498.701 111 494 115.701 494 121.5C494 127.299 498.701 132 504.5 132Z" fill="#FFC53D"/>
<path fill-rule="evenodd" clip-rule="evenodd" d="M303 144C305.761 144 308 141.761 308 139C308 136.239 305.761 134 303 134C300.239 134 298 136.239 298 139C298 141.761 300.239 144 303 144Z" fill="#FFC53D"/>
<path d="M45.952 295.28C45.76 295.28 45.592 295.264 45.448 295.232C45.304 295.208 45.176 295.172 45.064 295.124V294.212C45.192 294.244 45.328 294.272 45.472 294.296C45.616 294.32 45.768 294.332 45.928 294.332C46.128 294.332 46.316 294.292 46.492 294.212C46.676 294.132 46.824 293.992 46.936 293.792C47.048 293.592 47.104 293.312 47.104 292.952V284.432H48.184V292.868C48.184 293.692 47.98 294.3 47.572 294.692C47.164 295.084 46.624 295.28 45.952 295.28ZM52.6573 286.46C53.4413 286.46 54.0213 286.632 54.3973 286.976C54.7733 287.32 54.9613 287.868 54.9613 288.62V293H54.1933L53.9893 292.088H53.9413C53.6613 292.44 53.3653 292.7 53.0533 292.868C52.7493 293.036 52.3253 293.12 51.7813 293.12C51.1973 293.12 50.7133 292.968 50.3293 292.664C49.9453 292.352 49.7533 291.868 49.7533 291.212C49.7533 290.572 50.0053 290.08 50.5093 289.736C51.0133 289.384 51.7893 289.192 52.8373 289.16L53.9293 289.124V288.74C53.9293 288.204 53.8133 287.832 53.5813 287.624C53.3493 287.416 53.0213 287.312 52.5973 287.312C52.2613 287.312 51.9413 287.364 51.6373 287.468C51.3333 287.564 51.0493 287.676 50.7853 287.804L50.4613 287.012C50.7413 286.86 51.0733 286.732 51.4573 286.628C51.8413 286.516 52.2413 286.46 52.6573 286.46ZM53.9173 289.856L52.9693 289.892C52.1693 289.924 51.6133 290.052 51.3013 290.276C50.9973 290.5 50.8453 290.816 50.8453 291.224C50.8453 291.584 50.9533 291.848 51.1693 292.016C51.3933 292.184 51.6773 292.268 52.0213 292.268C52.5653 292.268 53.0173 292.12 53.3773 291.824C53.7373 291.52 53.9173 291.056 53.9173 290.432V289.856ZM59.9638 286.448C60.7318 286.448 61.3118 286.636 61.7038 287.012C62.0958 287.38 62.2918 287.98 62.2918 288.812V293H61.2478V288.884C61.2478 287.852 60.7678 287.336 59.8078 287.336C59.0958 287.336 58.6038 287.536 58.3318 287.936C58.0598 288.336 57.9238 288.912 57.9238 289.664V293H56.8678V286.568H57.7198L57.8758 287.444H57.9358C58.1438 287.108 58.4318 286.86 58.7998 286.7C59.1678 286.532 59.5558 286.448 59.9638 286.448Z" fill="#8594A8"/>
<path d="M109.135 293H108.055V284.432H112.843V285.38H109.135V288.416H112.615V289.364H109.135V293ZM116.537 286.448C117.089 286.448 117.561 286.568 117.953 286.808C118.353 287.048 118.657 287.388 118.865 287.828C119.081 288.26 119.189 288.768 119.189 289.352V289.988H114.785C114.801 290.716 114.985 291.272 115.337 291.656C115.697 292.032 116.197 292.22 116.837 292.22C117.245 292.22 117.605 292.184 117.917 292.112C118.237 292.032 118.565 291.92 118.901 291.776V292.7C118.573 292.844 118.249 292.948 117.929 293.012C117.609 293.084 117.229 293.12 116.789 293.12C116.181 293.12 115.641 292.996 115.169 292.748C114.705 292.5 114.341 292.132 114.077 291.644C113.821 291.148 113.693 290.544 113.693 289.832C113.693 289.128 113.809 288.524 114.041 288.02C114.281 287.516 114.613 287.128 115.037 286.856C115.469 286.584 115.969 286.448 116.537 286.448ZM116.525 287.312C116.021 287.312 115.621 287.476 115.325 287.804C115.037 288.124 114.865 288.572 114.809 289.148H118.085C118.077 288.604 117.949 288.164 117.701 287.828C117.453 287.484 117.061 287.312 116.525 287.312ZM121.803 283.88V286.1C121.803 286.372 121.795 286.628 121.779 286.868C121.771 287.1 121.759 287.284 121.743 287.42H121.803C121.987 287.148 122.239 286.92 122.559 286.736C122.879 286.552 123.291 286.46 123.795 286.46C124.595 286.46 125.235 286.74 125.715 287.3C126.203 287.852 126.447 288.68 126.447 289.784C126.447 290.888 126.203 291.72 125.715 292.28C125.227 292.84 124.587 293.12 123.795 293.12C123.291 293.12 122.879 293.028 122.559 292.844C122.239 292.66 121.987 292.44 121.803 292.184H121.719L121.503 293H120.747V283.88H121.803ZM123.615 287.336C122.935 287.336 122.463 287.532 122.199 287.924C121.935 288.316 121.803 288.924 121.803 289.748V289.796C121.803 290.588 121.931 291.196 122.187 291.62C122.451 292.036 122.935 292.244 123.639 292.244C124.215 292.244 124.643 292.032 124.923 291.608C125.211 291.184 125.355 290.572 125.355 289.772C125.355 288.148 124.775 287.336 123.615 287.336Z" fill="#8594A8"/>
<path d="M168.944 293L166.124 285.488H166.076C166.1 285.736 166.12 286.072 166.136 286.496C166.152 286.912 166.16 287.348 166.16 287.804V293H165.164V284.432H166.76L169.4 291.452H169.448L172.136 284.432H173.72V293H172.652V287.732C172.652 287.316 172.66 286.904 172.676 286.496C172.7 286.088 172.72 285.756 172.736 285.5H172.688L169.832 293H168.944ZM178.263 286.46C179.047 286.46 179.627 286.632 180.003 286.976C180.379 287.32 180.567 287.868 180.567 288.62V293H179.799L179.595 292.088H179.547C179.267 292.44 178.971 292.7 178.659 292.868C178.355 293.036 177.931 293.12 177.387 293.12C176.803 293.12 176.319 292.968 175.935 292.664C175.551 292.352 175.359 291.868 175.359 291.212C175.359 290.572 175.611 290.08 176.115 289.736C176.619 289.384 177.395 289.192 178.443 289.16L179.535 289.124V288.74C179.535 288.204 179.419 287.832 179.187 287.624C178.955 287.416 178.627 287.312 178.203 287.312C177.867 287.312 177.547 287.364 177.243 287.468C176.939 287.564 176.655 287.676 176.391 287.804L176.067 287.012C176.347 286.86 176.679 286.732 177.063 286.628C177.447 286.516 177.847 286.46 178.263 286.46ZM179.523 289.856L178.575 289.892C177.775 289.924 177.219 290.052 176.907 290.276C176.603 290.5 176.451 290.816 176.451 291.224C176.451 291.584 176.559 291.848 176.775 292.016C176.999 292.184 177.283 292.268 177.627 292.268C178.171 292.268 178.623 292.12 178.983 291.824C179.343 291.52 179.523 291.056 179.523 290.432V289.856ZM185.473 286.448C185.593 286.448 185.721 286.456 185.857 286.472C186.001 286.48 186.125 286.496 186.229 286.52L186.097 287.492C185.993 287.468 185.877 287.448 185.749 287.432C185.629 287.416 185.513 287.408 185.401 287.408C185.073 287.408 184.765 287.5 184.477 287.684C184.189 287.86 183.957 288.112 183.781 288.44C183.613 288.76 183.529 289.136 183.529 289.568V293H182.473V286.568H183.337L183.457 287.744H183.505C183.713 287.392 183.981 287.088 184.309 286.832C184.637 286.576 185.025 286.448 185.473 286.448Z" fill="#8594A8"/>
<path d="M232.618 293L231.586 290.348H228.19L227.17 293H226.078L229.426 284.396H230.398L233.734 293H232.618ZM231.262 289.388L230.302 286.796C230.278 286.732 230.238 286.616 230.182 286.448C230.126 286.28 230.07 286.108 230.014 285.932C229.966 285.748 229.926 285.608 229.894 285.512C229.838 285.76 229.774 286.004 229.702 286.244C229.63 286.476 229.57 286.66 229.522 286.796L228.55 289.388H231.262ZM237.742 286.448C238.534 286.448 239.17 286.724 239.65 287.276C240.138 287.828 240.382 288.66 240.382 289.772C240.382 290.868 240.138 291.7 239.65 292.268C239.17 292.836 238.53 293.12 237.73 293.12C237.234 293.12 236.822 293.028 236.494 292.844C236.174 292.652 235.922 292.432 235.738 292.184H235.666C235.682 292.32 235.698 292.492 235.714 292.7C235.73 292.908 235.738 293.088 235.738 293.24V295.88H234.682V286.568H235.546L235.69 287.444H235.738C235.93 287.164 236.182 286.928 236.494 286.736C236.806 286.544 237.222 286.448 237.742 286.448ZM237.55 287.336C236.894 287.336 236.43 287.52 236.158 287.888C235.894 288.256 235.754 288.816 235.738 289.568V289.772C235.738 290.564 235.866 291.176 236.122 291.608C236.386 292.032 236.87 292.244 237.574 292.244C237.966 292.244 238.286 292.136 238.534 291.92C238.79 291.704 238.978 291.412 239.098 291.044C239.226 290.668 239.29 290.24 239.29 289.76C239.29 289.024 239.146 288.436 238.858 287.996C238.578 287.556 238.142 287.336 237.55 287.336ZM244.985 286.448C245.105 286.448 245.233 286.456 245.369 286.472C245.513 286.48 245.637 286.496 245.741 286.52L245.609 287.492C245.505 287.468 245.389 287.448 245.261 287.432C245.141 287.416 245.025 287.408 244.913 287.408C244.585 287.408 244.277 287.5 243.989 287.684C243.701 287.86 243.469 288.112 243.293 288.44C243.125 288.76 243.041 289.136 243.041 289.568V293H241.985V286.568H242.849L242.969 287.744H243.017C243.225 287.392 243.493 287.088 243.821 286.832C244.149 286.576 244.537 286.448 244.985 286.448Z" fill="#8594A8"/>
<path d="M289.159 293L286.339 285.488H286.291C286.315 285.736 286.335 286.072 286.351 286.496C286.367 286.912 286.375 287.348 286.375 287.804V293H285.379V284.432H286.975L289.615 291.452H289.663L292.351 284.432H293.935V293H292.867V287.732C292.867 287.316 292.875 286.904 292.891 286.496C292.915 286.088 292.935 285.756 292.951 285.5H292.903L290.047 293H289.159ZM298.477 286.46C299.261 286.46 299.841 286.632 300.217 286.976C300.593 287.32 300.781 287.868 300.781 288.62V293H300.013L299.809 292.088H299.761C299.481 292.44 299.185 292.7 298.873 292.868C298.569 293.036 298.145 293.12 297.601 293.12C297.017 293.12 296.533 292.968 296.149 292.664C295.765 292.352 295.573 291.868 295.573 291.212C295.573 290.572 295.825 290.08 296.329 289.736C296.833 289.384 297.609 289.192 298.657 289.16L299.749 289.124V288.74C299.749 288.204 299.633 287.832 299.401 287.624C299.169 287.416 298.841 287.312 298.417 287.312C298.081 287.312 297.761 287.364 297.457 287.468C297.153 287.564 296.869 287.676 296.605 287.804L296.281 287.012C296.561 286.86 296.893 286.732 297.277 286.628C297.661 286.516 298.061 286.46 298.477 286.46ZM299.737 289.856L298.789 289.892C297.989 289.924 297.433 290.052 297.121 290.276C296.817 290.5 296.665 290.816 296.665 291.224C296.665 291.584 296.773 291.848 296.989 292.016C297.213 292.184 297.497 292.268 297.841 292.268C298.385 292.268 298.837 292.12 299.197 291.824C299.557 291.52 299.737 291.056 299.737 290.432V289.856ZM301.68 286.568H302.808L304.2 290.228C304.32 290.548 304.428 290.856 304.524 291.152C304.62 291.44 304.692 291.716 304.74 291.98H304.788C304.836 291.78 304.912 291.52 305.016 291.2C305.12 290.872 305.228 290.544 305.34 290.216L306.648 286.568H307.788L305.016 293.888C304.792 294.496 304.5 294.98 304.14 295.34C303.788 295.7 303.3 295.88 302.676 295.88C302.484 295.88 302.316 295.868 302.172 295.844C302.028 295.828 301.904 295.808 301.8 295.784V294.944C301.888 294.96 301.992 294.976 302.112 294.992C302.24 295.008 302.372 295.016 302.508 295.016C302.876 295.016 303.172 294.912 303.396 294.704C303.628 294.496 303.808 294.22 303.936 293.876L304.272 293.024L301.68 286.568Z" fill="#8594A8"/>
<path d="M346.973 295.28C346.781 295.28 346.613 295.264 346.469 295.232C346.325 295.208 346.197 295.172 346.085 295.124V294.212C346.213 294.244 346.349 294.272 346.493 294.296C346.637 294.32 346.789 294.332 346.949 294.332C347.149 294.332 347.337 294.292 347.513 294.212C347.697 294.132 347.845 293.992 347.957 293.792C348.069 293.592 348.125 293.312 348.125 292.952V284.432H349.205V292.868C349.205 293.692 349.001 294.3 348.593 294.692C348.185 295.084 347.645 295.28 346.973 295.28ZM356.619 286.568V293H355.755L355.599 292.148H355.551C355.343 292.484 355.055 292.732 354.687 292.892C354.319 293.044 353.927 293.12 353.511 293.12C352.735 293.12 352.151 292.936 351.759 292.568C351.367 292.192 351.171 291.596 351.171 290.78V286.568H352.239V290.708C352.239 291.732 352.715 292.244 353.667 292.244C354.379 292.244 354.871 292.044 355.143 291.644C355.423 291.244 355.563 290.668 355.563 289.916V286.568H356.619ZM361.677 286.448C362.445 286.448 363.025 286.636 363.417 287.012C363.809 287.38 364.005 287.98 364.005 288.812V293H362.961V288.884C362.961 287.852 362.481 287.336 361.521 287.336C360.809 287.336 360.317 287.536 360.045 287.936C359.773 288.336 359.637 288.912 359.637 289.664V293H358.581V286.568H359.433L359.589 287.444H359.649C359.857 287.108 360.145 286.86 360.513 286.7C360.881 286.532 361.269 286.448 361.677 286.448Z" fill="#8594A8"/>
<path d="M409.136 295.28C408.944 295.28 408.776 295.264 408.632 295.232C408.488 295.208 408.36 295.172 408.248 295.124V294.212C408.376 294.244 408.512 294.272 408.656 294.296C408.8 294.32 408.952 294.332 409.112 294.332C409.312 294.332 409.5 294.292 409.676 294.212C409.86 294.132 410.008 293.992 410.12 293.792C410.232 293.592 410.288 293.312 410.288 292.952V284.432H411.368V292.868C411.368 293.692 411.164 294.3 410.756 294.692C410.348 295.084 409.808 295.28 409.136 295.28ZM418.781 286.568V293H417.917L417.761 292.148H417.713C417.505 292.484 417.217 292.732 416.849 292.892C416.481 293.044 416.089 293.12 415.673 293.12C414.897 293.12 414.313 292.936 413.921 292.568C413.529 292.192 413.333 291.596 413.333 290.78V286.568H414.401V290.708C414.401 291.732 414.877 292.244 415.829 292.244C416.541 292.244 417.033 292.044 417.305 291.644C417.585 291.244 417.725 290.668 417.725 289.916V286.568H418.781ZM421.799 293H420.743V283.88H421.799V293Z" fill="#8594A8"/>
<path d="M471.388 293L470.356 290.348H466.96L465.94 293H464.848L468.196 284.396H469.168L472.504 293H471.388ZM470.032 289.388L469.072 286.796C469.048 286.732 469.008 286.616 468.952 286.448C468.896 286.28 468.84 286.108 468.784 285.932C468.736 285.748 468.696 285.608 468.664 285.512C468.608 285.76 468.544 286.004 468.472 286.244C468.4 286.476 468.34 286.66 468.292 286.796L467.32 289.388H470.032ZM478.828 286.568V293H477.964L477.808 292.148H477.76C477.552 292.484 477.264 292.732 476.896 292.892C476.528 293.044 476.136 293.12 475.72 293.12C474.944 293.12 474.36 292.936 473.968 292.568C473.576 292.192 473.38 291.596 473.38 290.78V286.568H474.448V290.708C474.448 291.732 474.924 292.244 475.876 292.244C476.588 292.244 477.08 292.044 477.352 291.644C477.632 291.244 477.772 290.668 477.772 289.916V286.568H478.828ZM483.07 286.448C483.494 286.448 483.874 286.528 484.21 286.688C484.554 286.848 484.846 287.092 485.086 287.42H485.146L485.29 286.568H486.13V293.108C486.13 294.028 485.894 294.72 485.422 295.184C484.958 295.648 484.234 295.88 483.25 295.88C482.306 295.88 481.534 295.744 480.934 295.472V294.5C481.566 294.836 482.358 295.004 483.31 295.004C483.862 295.004 484.294 294.84 484.606 294.512C484.926 294.192 485.086 293.752 485.086 293.192V292.94C485.086 292.844 485.09 292.708 485.098 292.532C485.106 292.348 485.114 292.22 485.122 292.148H485.074C484.642 292.796 483.978 293.12 483.082 293.12C482.25 293.12 481.598 292.828 481.126 292.244C480.662 291.66 480.43 290.844 480.43 289.796C480.43 288.772 480.662 287.96 481.126 287.36C481.598 286.752 482.246 286.448 483.07 286.448ZM483.214 287.336C482.678 287.336 482.262 287.552 481.966 287.984C481.67 288.408 481.522 289.016 481.522 289.808C481.522 290.6 481.666 291.208 481.954 291.632C482.25 292.048 482.678 292.256 483.238 292.256C483.886 292.256 484.358 292.084 484.654 291.74C484.95 291.388 485.098 290.824 485.098 290.048V289.796C485.098 288.916 484.946 288.288 484.642 287.912C484.338 287.528 483.862 287.336 483.214 287.336Z" fill="#8594A8"/>
<path d="M531.733 290.708C531.733 291.468 531.457 292.06 530.905 292.484C530.353 292.908 529.609 293.12 528.673 293.12C528.193 293.12 527.749 293.084 527.341 293.012C526.933 292.94 526.593 292.84 526.321 292.712V291.68C526.609 291.808 526.965 291.924 527.389 292.028C527.821 292.132 528.265 292.184 528.721 292.184C529.361 292.184 529.841 292.06 530.161 291.812C530.489 291.564 530.653 291.228 530.653 290.804C530.653 290.524 530.593 290.288 530.473 290.096C530.353 289.904 530.145 289.728 529.849 289.568C529.561 289.4 529.157 289.224 528.637 289.04C527.909 288.776 527.357 288.452 526.981 288.068C526.613 287.684 526.429 287.16 526.429 286.496C526.429 286.04 526.545 285.652 526.777 285.332C527.009 285.004 527.329 284.752 527.737 284.576C528.153 284.4 528.629 284.312 529.165 284.312C529.637 284.312 530.069 284.356 530.461 284.444C530.853 284.532 531.209 284.648 531.529 284.792L531.193 285.716C530.897 285.588 530.573 285.48 530.221 285.392C529.877 285.304 529.517 285.26 529.141 285.26C528.605 285.26 528.201 285.376 527.929 285.608C527.657 285.832 527.521 286.132 527.521 286.508C527.521 286.796 527.581 287.036 527.701 287.228C527.821 287.42 528.017 287.592 528.289 287.744C528.561 287.896 528.929 288.06 529.393 288.236C529.897 288.42 530.321 288.62 530.665 288.836C531.017 289.044 531.281 289.296 531.457 289.592C531.641 289.888 531.733 290.26 531.733 290.708ZM535.719 286.448C536.271 286.448 536.743 286.568 537.135 286.808C537.535 287.048 537.839 287.388 538.047 287.828C538.263 288.26 538.371 288.768 538.371 289.352V289.988H533.967C533.983 290.716 534.167 291.272 534.519 291.656C534.879 292.032 535.379 292.22 536.019 292.22C536.427 292.22 536.787 292.184 537.099 292.112C537.419 292.032 537.747 291.92 538.083 291.776V292.7C537.755 292.844 537.431 292.948 537.111 293.012C536.791 293.084 536.411 293.12 535.971 293.12C535.363 293.12 534.823 292.996 534.351 292.748C533.887 292.5 533.523 292.132 533.259 291.644C533.003 291.148 532.875 290.544 532.875 289.832C532.875 289.128 532.991 288.524 533.223 288.02C533.463 287.516 533.795 287.128 534.219 286.856C534.651 286.584 535.151 286.448 535.719 286.448ZM535.707 287.312C535.203 287.312 534.803 287.476 534.507 287.804C534.219 288.124 534.047 288.572 533.991 289.148H537.267C537.259 288.604 537.131 288.164 536.883 287.828C536.635 287.484 536.243 287.312 535.707 287.312ZM542.988 286.448C543.78 286.448 544.416 286.724 544.896 287.276C545.384 287.828 545.628 288.66 545.628 289.772C545.628 290.868 545.384 291.7 544.896 292.268C544.416 292.836 543.776 293.12 542.976 293.12C542.48 293.12 542.068 293.028 541.74 292.844C541.42 292.652 541.168 292.432 540.984 292.184H540.912C540.928 292.32 540.944 292.492 540.96 292.7C540.976 292.908 540.984 293.088 540.984 293.24V295.88H539.928V286.568H540.792L540.936 287.444H540.984C541.176 287.164 541.428 286.928 541.74 286.736C542.052 286.544 542.468 286.448 542.988 286.448ZM542.796 287.336C542.14 287.336 541.676 287.52 541.404 287.888C541.14 288.256 541 288.816 540.984 289.568V289.772C540.984 290.564 541.112 291.176 541.368 291.608C541.632 292.032 542.116 292.244 542.82 292.244C543.212 292.244 543.532 292.136 543.78 291.92C544.036 291.704 544.224 291.412 544.344 291.044C544.472 290.668 544.536 290.24 544.536 289.76C544.536 289.024 544.392 288.436 544.104 287.996C543.824 287.556 543.388 287.336 542.796 287.336Z" fill="#8594A8"/>
<path d="M594.982 288.703C594.982 289.591 594.83 290.367 594.526 291.031C594.23 291.687 593.79 292.199 593.206 292.567C592.622 292.935 591.898 293.119 591.034 293.119C590.146 293.119 589.406 292.935 588.814 292.567C588.23 292.199 587.794 291.683 587.506 291.019C587.218 290.355 587.074 289.579 587.074 288.691C587.074 287.811 587.218 287.043 587.506 286.387C587.794 285.731 588.23 285.219 588.814 284.851C589.406 284.483 590.15 284.299 591.046 284.299C591.902 284.299 592.622 284.483 593.206 284.851C593.79 285.211 594.23 285.723 594.526 286.387C594.83 287.043 594.982 287.815 594.982 288.703ZM588.214 288.703C588.214 289.783 588.442 290.635 588.898 291.259C589.354 291.875 590.066 292.183 591.034 292.183C592.01 292.183 592.722 291.875 593.17 291.259C593.618 290.635 593.842 289.783 593.842 288.703C593.842 287.623 593.618 286.779 593.17 286.171C592.722 285.555 592.014 285.247 591.046 285.247C590.078 285.247 589.362 285.555 588.898 286.171C588.442 286.779 588.214 287.623 588.214 288.703ZM599.237 293.119C598.669 293.119 598.161 293.003 597.713 292.771C597.273 292.539 596.925 292.179 596.669 291.691C596.421 291.203 596.297 290.579 596.297 289.819C596.297 289.027 596.429 288.383 596.693 287.887C596.957 287.391 597.313 287.027 597.761 286.795C598.217 286.563 598.733 286.447 599.309 286.447C599.637 286.447 599.953 286.483 600.257 286.555C600.561 286.619 600.809 286.699 601.001 286.795L600.677 287.671C600.485 287.599 600.261 287.531 600.005 287.467C599.749 287.403 599.509 287.371 599.285 287.371C598.021 287.371 597.389 288.183 597.389 289.807C597.389 290.583 597.541 291.179 597.845 291.595C598.157 292.003 598.617 292.207 599.225 292.207C599.577 292.207 599.885 292.171 600.149 292.099C600.421 292.027 600.669 291.939 600.893 291.835V292.771C600.677 292.883 600.437 292.967 600.173 293.023C599.917 293.087 599.605 293.119 599.237 293.119ZM604.49 292.255C604.65 292.255 604.814 292.243 604.982 292.219C605.15 292.187 605.286 292.155 605.39 292.123V292.927C605.278 292.983 605.118 293.027 604.91 293.059C604.702 293.099 604.502 293.119 604.31 293.119C603.974 293.119 603.662 293.063 603.374 292.951C603.094 292.831 602.866 292.627 602.69 292.339C602.514 292.051 602.426 291.647 602.426 291.127V287.383H601.514V286.879L602.438 286.459L602.858 285.091H603.482V286.567H605.342V287.383H603.482V291.103C603.482 291.495 603.574 291.787 603.758 291.979C603.95 292.163 604.194 292.255 604.49 292.255Z" fill="#8594A8"/>
<path d="M651.915 293H650.655L646.071 285.884H646.023C646.039 286.164 646.059 286.512 646.083 286.928C646.107 287.344 646.119 287.772 646.119 288.212V293H645.123V284.432H646.371L650.943 291.524H650.991C650.983 291.396 650.971 291.204 650.955 290.948C650.947 290.692 650.935 290.412 650.919 290.108C650.911 289.804 650.907 289.524 650.907 289.268V284.432H651.915V293ZM659.608 289.772C659.608 290.836 659.336 291.66 658.792 292.244C658.256 292.828 657.528 293.12 656.608 293.12C656.04 293.12 655.532 292.992 655.084 292.736C654.644 292.472 654.296 292.092 654.04 291.596C653.784 291.092 653.656 290.484 653.656 289.772C653.656 288.708 653.924 287.888 654.46 287.312C654.996 286.736 655.724 286.448 656.644 286.448C657.228 286.448 657.74 286.58 658.18 286.844C658.628 287.1 658.976 287.476 659.224 287.972C659.48 288.46 659.608 289.06 659.608 289.772ZM654.748 289.772C654.748 290.532 654.896 291.136 655.192 291.584C655.496 292.024 655.976 292.244 656.632 292.244C657.28 292.244 657.756 292.024 658.06 291.584C658.364 291.136 658.516 290.532 658.516 289.772C658.516 289.012 658.364 288.416 658.06 287.984C657.756 287.552 657.276 287.336 656.62 287.336C655.964 287.336 655.488 287.552 655.192 287.984C654.896 288.416 654.748 289.012 654.748 289.772ZM662.383 293L659.947 286.568H661.075L662.443 290.36C662.507 290.536 662.575 290.732 662.647 290.948C662.719 291.164 662.783 291.372 662.839 291.572C662.895 291.764 662.935 291.928 662.959 292.064H663.007C663.039 291.928 663.083 291.76 663.139 291.56C663.203 291.36 663.271 291.152 663.343 290.936C663.423 290.72 663.491 290.528 663.547 290.36L664.915 286.568H666.043L663.595 293H662.383Z" fill="#8594A8"/>
<path d="M710.028 288.631C710.028 290.079 709.632 291.171 708.84 291.907C708.056 292.635 706.96 292.999 705.552 292.999H703.164V284.431H705.804C706.668 284.431 707.416 284.591 708.048 284.911C708.68 285.231 709.168 285.703 709.512 286.327C709.856 286.943 710.028 287.711 710.028 288.631ZM708.888 288.667C708.888 287.523 708.604 286.687 708.036 286.159C707.476 285.623 706.68 285.355 705.648 285.355H704.244V292.075H705.408C707.728 292.075 708.888 290.939 708.888 288.667ZM714.19 286.447C714.742 286.447 715.214 286.567 715.606 286.807C716.006 287.047 716.31 287.387 716.518 287.827C716.734 288.259 716.842 288.767 716.842 289.351V289.987H712.438C712.454 290.715 712.638 291.271 712.99 291.655C713.35 292.031 713.85 292.219 714.49 292.219C714.898 292.219 715.258 292.183 715.57 292.111C715.89 292.031 716.218 291.919 716.554 291.775V292.699C716.226 292.843 715.902 292.947 715.582 293.011C715.262 293.083 714.882 293.119 714.442 293.119C713.834 293.119 713.294 292.995 712.822 292.747C712.358 292.499 711.994 292.131 711.73 291.643C711.474 291.147 711.346 290.543 711.346 289.831C711.346 289.127 711.462 288.523 711.694 288.019C711.934 287.515 712.266 287.127 712.69 286.855C713.122 286.583 713.622 286.447 714.19 286.447ZM714.178 287.311C713.674 287.311 713.274 287.475 712.978 287.803C712.69 288.123 712.518 288.571 712.462 289.147H715.738C715.73 288.603 715.602 288.163 715.354 287.827C715.106 287.483 714.714 287.311 714.178 287.311ZM720.979 293.119C720.411 293.119 719.903 293.003 719.455 292.771C719.015 292.539 718.667 292.179 718.411 291.691C718.163 291.203 718.039 290.579 718.039 289.819C718.039 289.027 718.171 288.383 718.435 287.887C718.699 287.391 719.055 287.027 719.503 286.795C719.959 286.563 720.475 286.447 721.051 286.447C721.379 286.447 721.695 286.483 721.999 286.555C722.303 286.619 722.551 286.699 722.743 286.795L722.419 287.671C722.227 287.599 722.003 287.531 721.747 287.467C721.491 287.403 721.251 287.371 721.027 287.371C719.763 287.371 719.131 288.183 719.131 289.807C719.131 290.583 719.283 291.179 719.587 291.595C719.899 292.003 720.359 292.207 720.967 292.207C721.319 292.207 721.627 292.171 721.891 292.099C722.163 292.027 722.411 291.939 722.635 291.835V292.771C722.419 292.883 722.179 292.967 721.915 293.023C721.659 293.087 721.347 293.119 720.979 293.119Z" fill="#8594A8"/>
<path d="M30.24 37.0015H24.576V36.1255L26.82 33.8575C27.252 33.4255 27.616 33.0415 27.912 32.7055C28.208 32.3695 28.432 32.0415 28.584 31.7215C28.736 31.3935 28.812 31.0375 28.812 30.6535C28.812 30.1815 28.672 29.8255 28.392 29.5855C28.112 29.3375 27.748 29.2135 27.3 29.2135C26.884 29.2135 26.516 29.2855 26.196 29.4295C25.884 29.5735 25.564 29.7735 25.236 30.0295L24.672 29.3215C25.008 29.0415 25.392 28.8055 25.824 28.6135C26.264 28.4135 26.756 28.3135 27.3 28.3135C28.1 28.3135 28.732 28.5175 29.196 28.9255C29.66 29.3255 29.892 29.8815 29.892 30.5935C29.892 31.0415 29.8 31.4615 29.616 31.8535C29.432 32.2455 29.176 32.6335 28.848 33.0175C28.52 33.3935 28.136 33.7975 27.696 34.2295L25.908 35.9935V36.0415H30.24V37.0015ZM34.0872 31.7455C34.9672 31.7455 35.6672 31.9655 36.1872 32.4055C36.7072 32.8455 36.9672 33.4655 36.9672 34.2655C36.9672 35.1535 36.6832 35.8535 36.1152 36.3655C35.5552 36.8695 34.7712 37.1215 33.7632 37.1215C33.3232 37.1215 32.9072 37.0815 32.5152 37.0015C32.1312 36.9215 31.8072 36.8055 31.5432 36.6535V35.6575C31.8312 35.8335 32.1792 35.9735 32.5872 36.0775C33.0032 36.1735 33.3992 36.2215 33.7752 36.2215C34.4072 36.2215 34.9152 36.0735 35.2992 35.7775C35.6912 35.4735 35.8872 35.0055 35.8872 34.3735C35.8872 33.8135 35.7152 33.3855 35.3712 33.0895C35.0272 32.7855 34.4832 32.6335 33.7392 32.6335C33.5152 32.6335 33.2592 32.6535 32.9712 32.6935C32.6832 32.7335 32.4512 32.7735 32.2752 32.8135L31.7472 32.4775L32.0712 28.4335H36.3672V29.3935H32.9712L32.7672 31.8775C32.9032 31.8535 33.0872 31.8255 33.3192 31.7935C33.5512 31.7615 33.8072 31.7455 34.0872 31.7455Z" fill="#8594A8"/>
<path d="M30.24 83.4014H24.576V82.5254L26.82 80.2574C27.252 79.8254 27.616 79.4414 27.912 79.1054C28.208 78.7694 28.432 78.4414 28.584 78.1214C28.736 77.7934 28.812 77.4374 28.812 77.0534C28.812 76.5814 28.672 76.2254 28.392 75.9854C28.112 75.7374 27.748 75.6134 27.3 75.6134C26.884 75.6134 26.516 75.6854 26.196 75.8294C25.884 75.9734 25.564 76.1734 25.236 76.4294L24.672 75.7214C25.008 75.4414 25.392 75.2054 25.824 75.0134C26.264 74.8134 26.756 74.7134 27.3 74.7134C28.1 74.7134 28.732 74.9174 29.196 75.3254C29.66 75.7254 29.892 76.2814 29.892 76.9934C29.892 77.4414 29.8 77.8614 29.616 78.2534C29.432 78.6454 29.176 79.0334 28.848 79.4174C28.52 79.7934 28.136 80.1974 27.696 80.6294L25.908 82.3934V82.4414H30.24V83.4014ZM37.0632 79.1054C37.0632 80.0254 36.9672 80.8174 36.7752 81.4814C36.5832 82.1374 36.2792 82.6414 35.8632 82.9934C35.4472 83.3454 34.8952 83.5214 34.2072 83.5214C33.2392 83.5214 32.5232 83.1334 32.0592 82.3574C31.6032 81.5734 31.3752 80.4894 31.3752 79.1054C31.3752 78.1774 31.4672 77.3854 31.6512 76.7294C31.8432 76.0734 32.1472 75.5734 32.5632 75.2294C32.9792 74.8774 33.5272 74.7014 34.2072 74.7014C35.1672 74.7014 35.8832 75.0894 36.3552 75.8654C36.8272 76.6334 37.0632 77.7134 37.0632 79.1054ZM32.4312 79.1054C32.4312 80.2814 32.5632 81.1614 32.8272 81.7454C33.0992 82.3294 33.5592 82.6214 34.2072 82.6214C34.8472 82.6214 35.3032 82.3334 35.5752 81.7574C35.8552 81.1734 35.9952 80.2894 35.9952 79.1054C35.9952 77.9374 35.8552 77.0614 35.5752 76.4774C35.3032 75.8934 34.8472 75.6014 34.2072 75.6014C33.5592 75.6014 33.0992 75.8934 32.8272 76.4774C32.5632 77.0614 32.4312 77.9374 32.4312 79.1054Z" fill="#8594A8"/>
<path d="M28.26 129.801H27.228V123.813C27.228 123.469 27.232 123.193 27.24 122.985C27.248 122.777 27.26 122.561 27.276 122.337C27.148 122.465 27.032 122.573 26.928 122.661C26.824 122.749 26.692 122.861 26.532 122.997L25.62 123.741L25.068 123.033L27.384 121.233H28.26V129.801ZM34.0872 124.545C34.9672 124.545 35.6672 124.765 36.1872 125.205C36.7072 125.645 36.9672 126.265 36.9672 127.065C36.9672 127.953 36.6832 128.653 36.1152 129.165C35.5552 129.669 34.7712 129.921 33.7632 129.921C33.3232 129.921 32.9072 129.881 32.5152 129.801C32.1312 129.721 31.8072 129.605 31.5432 129.453V128.457C31.8312 128.633 32.1792 128.773 32.5872 128.877C33.0032 128.973 33.3992 129.021 33.7752 129.021C34.4072 129.021 34.9152 128.873 35.2992 128.577C35.6912 128.273 35.8872 127.805 35.8872 127.173C35.8872 126.613 35.7152 126.185 35.3712 125.889C35.0272 125.585 34.4832 125.433 33.7392 125.433C33.5152 125.433 33.2592 125.453 32.9712 125.493C32.6832 125.533 32.4512 125.573 32.2752 125.613L31.7472 125.277L32.0712 121.233H36.3672V122.193H32.9712L32.7672 124.677C32.9032 124.653 33.0872 124.625 33.3192 124.593C33.5512 124.561 33.8072 124.545 34.0872 124.545Z" fill="#8594A8"/>
<path d="M28.26 176.202H27.228V170.214C27.228 169.87 27.232 169.594 27.24 169.386C27.248 169.178 27.26 168.962 27.276 168.738C27.148 168.866 27.032 168.974 26.928 169.062C26.824 169.15 26.692 169.262 26.532 169.398L25.62 170.142L25.068 169.434L27.384 167.634H28.26V176.202ZM37.0632 171.906C37.0632 172.826 36.9672 173.618 36.7752 174.282C36.5832 174.938 36.2792 175.442 35.8632 175.794C35.4472 176.146 34.8952 176.322 34.2072 176.322C33.2392 176.322 32.5232 175.934 32.0592 175.158C31.6032 174.374 31.3752 173.29 31.3752 171.906C31.3752 170.978 31.4672 170.186 31.6512 169.53C31.8432 168.874 32.1472 168.374 32.5632 168.03C32.9792 167.678 33.5272 167.502 34.2072 167.502C35.1672 167.502 35.8832 167.89 36.3552 168.666C36.8272 169.434 37.0632 170.514 37.0632 171.906ZM32.4312 171.906C32.4312 173.082 32.5632 173.962 32.8272 174.546C33.0992 175.13 33.5592 175.422 34.2072 175.422C34.8472 175.422 35.3032 175.134 35.5752 174.558C35.8552 173.974 35.9952 173.09 35.9952 171.906C35.9952 170.738 35.8552 169.862 35.5752 169.278C35.3032 168.694 34.8472 168.402 34.2072 168.402C33.5592 168.402 33.0992 168.694 32.8272 169.278C32.5632 169.862 32.4312 170.738 32.4312 171.906Z" fill="#8594A8"/>
<path d="M30.8 217.346C31.68 217.346 32.38 217.566 32.9 218.006C33.42 218.446 33.68 219.066 33.68 219.866C33.68 220.754 33.396 221.454 32.828 221.966C32.268 222.47 31.484 222.722 30.476 222.722C30.036 222.722 29.62 222.682 29.228 222.602C28.844 222.522 28.52 222.406 28.256 222.254V221.258C28.544 221.434 28.892 221.574 29.3 221.678C29.716 221.774 30.112 221.822 30.488 221.822C31.12 221.822 31.628 221.674 32.012 221.378C32.404 221.074 32.6 220.606 32.6 219.974C32.6 219.414 32.428 218.986 32.084 218.69C31.74 218.386 31.196 218.234 30.452 218.234C30.228 218.234 29.972 218.254 29.684 218.294C29.396 218.334 29.164 218.374 28.988 218.414L28.46 218.078L28.784 214.034H33.08V214.994H29.684L29.48 217.478C29.616 217.454 29.8 217.426 30.032 217.394C30.264 217.362 30.52 217.346 30.8 217.346Z" fill="#8594A8"/>
<path d="M33.776 264.705C33.776 265.625 33.68 266.417 33.488 267.081C33.296 267.737 32.992 268.241 32.576 268.593C32.16 268.945 31.608 269.121 30.92 269.121C29.952 269.121 29.236 268.733 28.772 267.957C28.316 267.173 28.088 266.089 28.088 264.705C28.088 263.777 28.18 262.985 28.364 262.329C28.556 261.673 28.86 261.173 29.276 260.829C29.692 260.477 30.24 260.301 30.92 260.301C31.88 260.301 32.596 260.689 33.068 261.465C33.54 262.233 33.776 263.313 33.776 264.705ZM29.144 264.705C29.144 265.881 29.276 266.761 29.54 267.345C29.812 267.929 30.272 268.221 30.92 268.221C31.56 268.221 32.016 267.933 32.288 267.357C32.568 266.773 32.708 265.889 32.708 264.705C32.708 263.537 32.568 262.661 32.288 262.077C32.016 261.493 31.56 261.201 30.92 261.201C30.272 261.201 29.812 261.493 29.54 262.077C29.276 262.661 29.144 263.537 29.144 264.705Z" fill="#8594A8"/>
<defs>
<clipPath id="clip0">
<rect x="46" y="24" width="679.92" height="248" fill="white"/>
</clipPath>
</defs>
</svg>
