<svg width="1532" height="320" viewBox="0 0 1532 320" fill="none" xmlns="http://www.w3.org/2000/svg">
<path d="M0 16C0 7.16344 7.16344 0 16 0H1516C1524.84 0 1532 7.16344 1532 16V303.999C1532 312.836 1524.84 319.999 1516 319.999H16C7.16345 319.999 0 312.836 0 303.999V16Z" fill="white"/>
<g clip-path="url(#clip0)">
<rect x="46.25" y="24.25" width="0.5" height="247.5" stroke="#E0E9F5" stroke-width="0.5"/>
<rect x="179.06" y="24.25" width="0.5" height="247.5" stroke="#E0E9F5" stroke-width="0.5"/>
<rect x="311.87" y="24.25" width="0.5" height="247.5" stroke="#E0E9F5" stroke-width="0.5"/>
<rect x="444.68" y="24.25" width="0.5" height="247.5" stroke="#E0E9F5" stroke-width="0.5"/>
<rect x="577.49" y="24.25" width="0.5" height="247.5" stroke="#E0E9F5" stroke-width="0.5"/>
<rect x="710.3" y="24.25" width="0.5" height="247.5" stroke="#E0E9F5" stroke-width="0.5"/>
<rect x="843.11" y="24.25" width="0.5" height="247.5" stroke="#E0E9F5" stroke-width="0.5"/>
<rect x="975.92" y="24.25" width="0.5" height="247.5" stroke="#E0E9F5" stroke-width="0.5"/>
<rect x="1108.73" y="24.25" width="0.5" height="247.5" stroke="#E0E9F5" stroke-width="0.5"/>
<rect x="1241.54" y="24.25" width="0.5" height="247.5" stroke="#E0E9F5" stroke-width="0.5"/>
<rect x="1374.35" y="24.25" width="0.5" height="247.5" stroke="#E0E9F5" stroke-width="0.5"/>
<rect x="1507.16" y="24.25" width="0.5" height="247.5" stroke="#E0E9F5" stroke-width="0.5"/>
</g>
<rect x="46.25" y="24.25" width="1461.5" height="0.5" stroke="#E0E9F5" stroke-width="0.5"/>
<rect x="46.25" y="37.25" width="1461.5" height="0.5" stroke="#E0E9F5" stroke-width="0.5"/>
<rect x="46.25" y="50.25" width="1461.5" height="0.5" stroke="#E0E9F5" stroke-width="0.5"/>
<rect x="46.25" y="63.25" width="1461.5" height="0.5" stroke="#E0E9F5" stroke-width="0.5"/>
<rect x="46.25" y="76.25" width="1461.5" height="0.5" stroke="#E0E9F5" stroke-width="0.5"/>
<rect x="46.25" y="89.25" width="1461.5" height="0.5" stroke="#E0E9F5" stroke-width="0.5"/>
<rect x="46.25" y="102.25" width="1461.5" height="0.5" stroke="#E0E9F5" stroke-width="0.5"/>
<rect x="46.25" y="115.25" width="1461.5" height="0.5" stroke="#E0E9F5" stroke-width="0.5"/>
<rect x="46.25" y="128.25" width="1461.5" height="0.5" stroke="#E0E9F5" stroke-width="0.5"/>
<rect x="46.25" y="141.25" width="1461.5" height="0.5" stroke="#E0E9F5" stroke-width="0.5"/>
<rect x="46.25" y="154.25" width="1461.5" height="0.5" stroke="#E0E9F5" stroke-width="0.5"/>
<rect x="46.25" y="167.25" width="1461.5" height="0.5" stroke="#E0E9F5" stroke-width="0.5"/>
<rect x="46.25" y="180.25" width="1461.5" height="0.5" stroke="#E0E9F5" stroke-width="0.5"/>
<rect x="46.25" y="193.25" width="1461.5" height="0.5" stroke="#E0E9F5" stroke-width="0.5"/>
<rect x="46.25" y="206.25" width="1461.5" height="0.5" stroke="#E0E9F5" stroke-width="0.5"/>
<rect x="46.25" y="219.25" width="1461.5" height="0.5" stroke="#E0E9F5" stroke-width="0.5"/>
<rect x="46.25" y="232.25" width="1461.5" height="0.5" stroke="#E0E9F5" stroke-width="0.5"/>
<rect x="46.25" y="245.25" width="1461.5" height="0.5" stroke="#E0E9F5" stroke-width="0.5"/>
<rect x="46.25" y="258.25" width="1461.5" height="0.5" stroke="#E0E9F5" stroke-width="0.5"/>
<rect x="46.25" y="271.25" width="1461.5" height="0.5" stroke="#E0E9F5" stroke-width="0.5"/>
<path d="M49 269C49 269 109.004 244.202 150.686 244.202C151.622 244.202 152.533 244.208 153.421 244.22C195.998 244.808 182.958 259.184 254.3 259.184C271.701 259.184 323.84 252.032 359.983 250.716C396.126 249.4 415.791 234.717 463.379 230.408C477.078 229.168 532.811 225.944 569.501 232.189C612.631 239.531 631.975 254.147 671.782 262.729C689.282 266.501 735.507 271.909 775.868 266.273C816.229 260.638 846.758 238.781 880.027 222.995C905.801 210.765 924.435 200.343 984.696 200.96C1019.03 201.312 1051.25 217.944 1087.83 231.827C1115.45 242.314 1145.55 251.232 1180.91 250.381C1184.48 250.295 1187.87 249.954 1191.11 249.4C1224.84 243.634 1256.16 211.398 1296.09 211.398C1336.02 211.398 1350.99 219.544 1400.55 219.544C1461.91 219.544 1454.69 185.339 1505 184.633" stroke="#28805F" stroke-width="4" stroke-linecap="round"/>
<path d="M49 268.999C49 268.999 105.446 214.262 150.622 203.082C179.515 195.931 185.175 206.875 254.158 184.713C323.141 162.552 316.213 136.769 358.582 136.769C400.951 136.769 455.616 142.815 466.567 154.631C484.657 174.152 525.092 188.154 570.256 188.154C615.42 188.154 661.258 197.808 674.05 197.808C713.367 197.808 758.307 178.177 776.459 156.616C793.358 136.545 817.306 117.168 848.592 117.168C864.548 117.168 871.956 119.872 881.884 123.89C912.338 136.216 922.826 163.029 983.008 159.173C1043.19 155.317 1053.63 121.562 1089.53 110.387C1101.57 106.641 1117.12 104.27 1130.23 104.27C1162.6 104.27 1160.91 117.168 1190.52 116.075C1218.2 115.053 1270.44 95.5725 1295.79 88.1557C1321.13 80.7389 1337.49 49.5486 1401.64 49.5486C1452.74 49.5486 1500.2 27 1505 27" stroke="#EB2F96" stroke-width="4" stroke-linecap="round"/>
<g filter="url(#filter0_d)">
<path d="M49 268.999C49 268.999 100.594 221.686 150.192 221.686C190.583 221.686 201.749 239.539 253.399 239.539C295.248 239.539 345.829 226.345 362.096 210.778C384.928 188.927 418.382 155.466 463.295 155.466C512.264 155.466 487.331 167.933 566.567 167.933C624.604 167.933 579.412 212.807 672.544 212.807C690.773 212.807 759.31 199.381 775.451 192.597C814.781 176.066 846.279 158.639 880.954 134.367C906.818 116.263 932.393 102.648 984.736 102.648C1037.08 102.648 1063.88 128.919 1088.37 150.583C1113.7 172.996 1165.78 192.597 1194.5 190.828C1249.87 187.417 1244.86 158.122 1296.15 158.122C1337.2 158.122 1328.77 166.031 1399.17 163.959C1469.56 161.886 1454.58 100.463 1505 99.1558" stroke="#FFC53D" stroke-width="4" stroke-linecap="round"/>
</g>
<path d="M638 42.6V26.0667H638.5V26.0667H639V42.6001H638.5V42.6H638ZM638.5 46.7334H639V63.2667H638.5V63.2667H638V46.7333H638.5V46.7334ZM638.5 67.4001H639V83.9334H638.5V83.9333H638V67.4H638.5V67.4001ZM638.5 88.0667L639 88.0667V104.6L638.5 104.6H638V88.0667H638.5ZM638.5 108.733L639 108.733V125.267L638.5 125.267H638V108.733H638.5ZM638.5 129.4L639 129.4V145.933L638.5 145.933H638V129.4H638.5ZM638.5 150.067L639 150.067V166.6L638.5 166.6H638V150.067H638.5ZM638.5 170.733L639 170.733V187.267L638.5 187.267H638V170.733H638.5ZM638.5 191.4L639 191.4V207.933L638.5 207.933H638V191.4H638.5ZM638.5 212.067L639 212.067V228.6L638.5 228.6H638V212.067H638.5ZM638.5 232.733L639 232.733V249.267L638.5 249.267H638V232.733H638.5ZM638.5 253.4L639 253.4V269.933L638.5 269.933H638V253.4H638.5Z" stroke="#8594A8" stroke-dasharray="4 16"/>
<g filter="url(#filter1_d)">
<path fill-rule="evenodd" clip-rule="evenodd" d="M638 219C643.523 219 648 214.523 648 209C648 203.477 643.523 199 638 199C632.477 199 628 203.477 628 209C628 214.523 632.477 219 638 219Z" fill="white"/>
<path fill-rule="evenodd" clip-rule="evenodd" d="M638 212C639.657 212 641 210.657 641 209C641 207.343 639.657 206 638 206C636.343 206 635 207.343 635 209C635 210.657 636.343 212 638 212Z" fill="#FFE700"/>
<mask id="mask0" mask-type="alpha" maskUnits="userSpaceOnUse" x="635" y="206" width="6" height="6">
<path fill-rule="evenodd" clip-rule="evenodd" d="M638 212C639.657 212 641 210.657 641 209C641 207.343 639.657 206 638 206C636.343 206 635 207.343 635 209C635 210.657 636.343 212 638 212Z" fill="white"/>
</mask>
<g mask="url(#mask0)">
</g>
</g>
<g filter="url(#filter2_d)">
<path fill-rule="evenodd" clip-rule="evenodd" d="M661.5 191C659.291 191 657.5 192.791 657.5 195V197L652.089 202.102C651.304 202.842 651.304 204.158 652.089 204.898L657.5 210V223C657.5 225.209 659.291 227 661.5 227H711.5C713.709 227 715.5 225.209 715.5 223V195C715.5 192.791 713.709 191 711.5 191H661.5Z" fill="white"/>
</g>
<path d="M677.706 209.252V208.316H680.61V209.252H677.706ZM684.314 206.744C685.194 206.744 685.894 206.964 686.414 207.404C686.934 207.844 687.194 208.464 687.194 209.264C687.194 210.152 686.91 210.852 686.342 211.364C685.782 211.868 684.998 212.12 683.99 212.12C683.55 212.12 683.134 212.08 682.742 212C682.358 211.92 682.034 211.804 681.77 211.652V210.656C682.058 210.832 682.406 210.972 682.814 211.076C683.23 211.172 683.626 211.22 684.002 211.22C684.634 211.22 685.142 211.072 685.526 210.776C685.918 210.472 686.114 210.004 686.114 209.372C686.114 208.812 685.942 208.384 685.598 208.088C685.254 207.784 684.71 207.632 683.966 207.632C683.742 207.632 683.486 207.652 683.198 207.692C682.91 207.732 682.678 207.772 682.502 207.812L681.974 207.476L682.298 203.432H686.594V204.392H683.198L682.994 206.876C683.13 206.852 683.314 206.824 683.546 206.792C683.778 206.76 684.034 206.744 684.314 206.744ZM690.141 203.312C690.733 203.312 691.181 203.548 691.485 204.02C691.789 204.484 691.941 205.14 691.941 205.988C691.941 206.836 691.793 207.5 691.497 207.98C691.209 208.452 690.757 208.688 690.141 208.688C689.573 208.688 689.137 208.452 688.833 207.98C688.537 207.5 688.389 206.836 688.389 205.988C688.389 205.14 688.529 204.484 688.809 204.02C689.089 203.548 689.533 203.312 690.141 203.312ZM695.625 203.432L690.873 212H689.949L694.701 203.432H695.625ZM690.141 204.056C689.837 204.056 689.613 204.22 689.469 204.548C689.333 204.868 689.265 205.348 689.265 205.988C689.265 206.628 689.333 207.112 689.469 207.44C689.613 207.768 689.837 207.932 690.141 207.932C690.757 207.932 691.065 207.284 691.065 205.988C691.065 204.7 690.757 204.056 690.141 204.056ZM695.385 206.744C695.969 206.744 696.413 206.98 696.717 207.452C697.029 207.916 697.185 208.572 697.185 209.42C697.185 210.268 697.037 210.932 696.741 211.412C696.453 211.884 696.001 212.12 695.385 212.12C694.817 212.12 694.381 211.884 694.077 211.412C693.781 210.932 693.633 210.268 693.633 209.42C693.633 208.572 693.773 207.916 694.053 207.452C694.333 206.98 694.777 206.744 695.385 206.744ZM695.385 207.5C695.081 207.5 694.857 207.66 694.713 207.98C694.577 208.3 694.509 208.78 694.509 209.42C694.509 210.068 694.577 210.556 694.713 210.884C694.857 211.204 695.081 211.364 695.385 211.364C696.001 211.364 696.309 210.716 696.309 209.42C696.309 208.14 696.001 207.5 695.385 207.5Z" fill="#505D6F"/>
<path d="M43.952 295.28C43.76 295.28 43.592 295.264 43.448 295.232C43.304 295.208 43.176 295.172 43.064 295.124V294.212C43.192 294.244 43.328 294.272 43.472 294.296C43.616 294.32 43.768 294.332 43.928 294.332C44.128 294.332 44.316 294.292 44.492 294.212C44.676 294.132 44.824 293.992 44.936 293.792C45.048 293.592 45.104 293.312 45.104 292.952V284.432H46.184V292.868C46.184 293.692 45.98 294.3 45.572 294.692C45.164 295.084 44.624 295.28 43.952 295.28ZM50.6573 286.46C51.4413 286.46 52.0213 286.632 52.3973 286.976C52.7733 287.32 52.9613 287.868 52.9613 288.62V293H52.1933L51.9893 292.088H51.9413C51.6613 292.44 51.3653 292.7 51.0533 292.868C50.7493 293.036 50.3253 293.12 49.7813 293.12C49.1973 293.12 48.7133 292.968 48.3293 292.664C47.9453 292.352 47.7533 291.868 47.7533 291.212C47.7533 290.572 48.0053 290.08 48.5093 289.736C49.0133 289.384 49.7893 289.192 50.8373 289.16L51.9293 289.124V288.74C51.9293 288.204 51.8133 287.832 51.5813 287.624C51.3493 287.416 51.0213 287.312 50.5973 287.312C50.2613 287.312 49.9413 287.364 49.6373 287.468C49.3333 287.564 49.0493 287.676 48.7853 287.804L48.4613 287.012C48.7413 286.86 49.0733 286.732 49.4573 286.628C49.8413 286.516 50.2413 286.46 50.6573 286.46ZM51.9173 289.856L50.9693 289.892C50.1693 289.924 49.6133 290.052 49.3013 290.276C48.9973 290.5 48.8453 290.816 48.8453 291.224C48.8453 291.584 48.9533 291.848 49.1693 292.016C49.3933 292.184 49.6773 292.268 50.0213 292.268C50.5653 292.268 51.0173 292.12 51.3773 291.824C51.7373 291.52 51.9173 291.056 51.9173 290.432V289.856ZM57.9638 286.448C58.7318 286.448 59.3118 286.636 59.7038 287.012C60.0958 287.38 60.2918 287.98 60.2918 288.812V293H59.2478V288.884C59.2478 287.852 58.7678 287.336 57.8078 287.336C57.0958 287.336 56.6038 287.536 56.3318 287.936C56.0598 288.336 55.9238 288.912 55.9238 289.664V293H54.8678V286.568H55.7198L55.8758 287.444H55.9358C56.1438 287.108 56.4318 286.86 56.7998 286.7C57.1678 286.532 57.5558 286.448 57.9638 286.448Z" fill="#8594A8"/>
<path d="M168.244 293H167.164V284.432H171.952V285.38H168.244V288.416H171.724V289.364H168.244V293ZM175.646 286.448C176.198 286.448 176.67 286.568 177.062 286.808C177.462 287.048 177.766 287.388 177.974 287.828C178.19 288.26 178.298 288.768 178.298 289.352V289.988H173.894C173.91 290.716 174.094 291.272 174.446 291.656C174.806 292.032 175.306 292.22 175.946 292.22C176.354 292.22 176.714 292.184 177.026 292.112C177.346 292.032 177.674 291.92 178.01 291.776V292.7C177.682 292.844 177.358 292.948 177.038 293.012C176.718 293.084 176.338 293.12 175.898 293.12C175.29 293.12 174.75 292.996 174.278 292.748C173.814 292.5 173.45 292.132 173.186 291.644C172.93 291.148 172.802 290.544 172.802 289.832C172.802 289.128 172.918 288.524 173.15 288.02C173.39 287.516 173.722 287.128 174.146 286.856C174.578 286.584 175.078 286.448 175.646 286.448ZM175.634 287.312C175.13 287.312 174.73 287.476 174.434 287.804C174.146 288.124 173.974 288.572 173.918 289.148H177.194C177.186 288.604 177.058 288.164 176.81 287.828C176.562 287.484 176.17 287.312 175.634 287.312ZM180.912 283.88V286.1C180.912 286.372 180.904 286.628 180.888 286.868C180.88 287.1 180.868 287.284 180.852 287.42H180.912C181.096 287.148 181.348 286.92 181.668 286.736C181.988 286.552 182.4 286.46 182.904 286.46C183.704 286.46 184.344 286.74 184.824 287.3C185.312 287.852 185.556 288.68 185.556 289.784C185.556 290.888 185.312 291.72 184.824 292.28C184.336 292.84 183.696 293.12 182.904 293.12C182.4 293.12 181.988 293.028 181.668 292.844C181.348 292.66 181.096 292.44 180.912 292.184H180.828L180.612 293H179.856V283.88H180.912ZM182.724 287.336C182.044 287.336 181.572 287.532 181.308 287.924C181.044 288.316 180.912 288.924 180.912 289.748V289.796C180.912 290.588 181.04 291.196 181.296 291.62C181.56 292.036 182.044 292.244 182.748 292.244C183.324 292.244 183.752 292.032 184.032 291.608C184.32 291.184 184.464 290.572 184.464 289.772C184.464 288.148 183.884 287.336 182.724 287.336Z" fill="#8594A8"/>
<path d="M305.944 293L303.124 285.488H303.076C303.1 285.736 303.12 286.072 303.136 286.496C303.152 286.912 303.16 287.348 303.16 287.804V293H302.164V284.432H303.76L306.4 291.452H306.448L309.136 284.432H310.72V293H309.652V287.732C309.652 287.316 309.66 286.904 309.676 286.496C309.7 286.088 309.72 285.756 309.736 285.5H309.688L306.832 293H305.944ZM315.263 286.46C316.047 286.46 316.627 286.632 317.003 286.976C317.379 287.32 317.567 287.868 317.567 288.62V293H316.799L316.595 292.088H316.547C316.267 292.44 315.971 292.7 315.659 292.868C315.355 293.036 314.931 293.12 314.387 293.12C313.803 293.12 313.319 292.968 312.935 292.664C312.551 292.352 312.359 291.868 312.359 291.212C312.359 290.572 312.611 290.08 313.115 289.736C313.619 289.384 314.395 289.192 315.443 289.16L316.535 289.124V288.74C316.535 288.204 316.419 287.832 316.187 287.624C315.955 287.416 315.627 287.312 315.203 287.312C314.867 287.312 314.547 287.364 314.243 287.468C313.939 287.564 313.655 287.676 313.391 287.804L313.067 287.012C313.347 286.86 313.679 286.732 314.063 286.628C314.447 286.516 314.847 286.46 315.263 286.46ZM316.523 289.856L315.575 289.892C314.775 289.924 314.219 290.052 313.907 290.276C313.603 290.5 313.451 290.816 313.451 291.224C313.451 291.584 313.559 291.848 313.775 292.016C313.999 292.184 314.283 292.268 314.627 292.268C315.171 292.268 315.623 292.12 315.983 291.824C316.343 291.52 316.523 291.056 316.523 290.432V289.856ZM322.473 286.448C322.593 286.448 322.721 286.456 322.857 286.472C323.001 286.48 323.125 286.496 323.229 286.52L323.097 287.492C322.993 287.468 322.877 287.448 322.749 287.432C322.629 287.416 322.513 287.408 322.401 287.408C322.073 287.408 321.765 287.5 321.477 287.684C321.189 287.86 320.957 288.112 320.781 288.44C320.613 288.76 320.529 289.136 320.529 289.568V293H319.473V286.568H320.337L320.457 287.744H320.505C320.713 287.392 320.981 287.088 321.309 286.832C321.637 286.576 322.025 286.448 322.473 286.448Z" fill="#8594A8"/>
<path d="M439.54 293L438.508 290.348H435.112L434.092 293H433L436.348 284.396H437.32L440.656 293H439.54ZM438.184 289.388L437.224 286.796C437.2 286.732 437.16 286.616 437.104 286.448C437.048 286.28 436.992 286.108 436.936 285.932C436.888 285.748 436.848 285.608 436.816 285.512C436.76 285.76 436.696 286.004 436.624 286.244C436.552 286.476 436.492 286.66 436.444 286.796L435.472 289.388H438.184ZM444.664 286.448C445.456 286.448 446.092 286.724 446.572 287.276C447.06 287.828 447.304 288.66 447.304 289.772C447.304 290.868 447.06 291.7 446.572 292.268C446.092 292.836 445.452 293.12 444.652 293.12C444.156 293.12 443.744 293.028 443.416 292.844C443.096 292.652 442.844 292.432 442.66 292.184H442.588C442.604 292.32 442.62 292.492 442.636 292.7C442.652 292.908 442.66 293.088 442.66 293.24V295.88H441.604V286.568H442.468L442.612 287.444H442.66C442.852 287.164 443.104 286.928 443.416 286.736C443.728 286.544 444.144 286.448 444.664 286.448ZM444.472 287.336C443.816 287.336 443.352 287.52 443.08 287.888C442.816 288.256 442.676 288.816 442.66 289.568V289.772C442.66 290.564 442.788 291.176 443.044 291.608C443.308 292.032 443.792 292.244 444.496 292.244C444.888 292.244 445.208 292.136 445.456 291.92C445.712 291.704 445.9 291.412 446.02 291.044C446.148 290.668 446.212 290.24 446.212 289.76C446.212 289.024 446.068 288.436 445.78 287.996C445.5 287.556 445.064 287.336 444.472 287.336ZM451.906 286.448C452.026 286.448 452.154 286.456 452.29 286.472C452.434 286.48 452.558 286.496 452.662 286.52L452.53 287.492C452.426 287.468 452.31 287.448 452.182 287.432C452.062 287.416 451.946 287.408 451.834 287.408C451.506 287.408 451.198 287.5 450.91 287.684C450.622 287.86 450.39 288.112 450.214 288.44C450.046 288.76 449.962 289.136 449.962 289.568V293H448.906V286.568H449.77L449.89 287.744H449.938C450.146 287.392 450.414 287.088 450.742 286.832C451.07 286.576 451.458 286.448 451.906 286.448Z" fill="#8594A8"/>
<path d="M571.944 293L569.124 285.488H569.076C569.1 285.736 569.12 286.072 569.136 286.496C569.152 286.912 569.16 287.348 569.16 287.804V293H568.164V284.432H569.76L572.4 291.452H572.448L575.136 284.432H576.72V293H575.652V287.732C575.652 287.316 575.66 286.904 575.676 286.496C575.7 286.088 575.72 285.756 575.736 285.5H575.688L572.832 293H571.944ZM581.263 286.46C582.047 286.46 582.627 286.632 583.003 286.976C583.379 287.32 583.567 287.868 583.567 288.62V293H582.799L582.595 292.088H582.547C582.267 292.44 581.971 292.7 581.659 292.868C581.355 293.036 580.931 293.12 580.387 293.12C579.803 293.12 579.319 292.968 578.935 292.664C578.551 292.352 578.359 291.868 578.359 291.212C578.359 290.572 578.611 290.08 579.115 289.736C579.619 289.384 580.395 289.192 581.443 289.16L582.535 289.124V288.74C582.535 288.204 582.419 287.832 582.187 287.624C581.955 287.416 581.627 287.312 581.203 287.312C580.867 287.312 580.547 287.364 580.243 287.468C579.939 287.564 579.655 287.676 579.391 287.804L579.067 287.012C579.347 286.86 579.679 286.732 580.063 286.628C580.447 286.516 580.847 286.46 581.263 286.46ZM582.523 289.856L581.575 289.892C580.775 289.924 580.219 290.052 579.907 290.276C579.603 290.5 579.451 290.816 579.451 291.224C579.451 291.584 579.559 291.848 579.775 292.016C579.999 292.184 580.283 292.268 580.627 292.268C581.171 292.268 581.623 292.12 581.983 291.824C582.343 291.52 582.523 291.056 582.523 290.432V289.856ZM584.465 286.568H585.593L586.985 290.228C587.105 290.548 587.213 290.856 587.309 291.152C587.405 291.44 587.477 291.716 587.525 291.98H587.573C587.621 291.78 587.697 291.52 587.801 291.2C587.905 290.872 588.013 290.544 588.125 290.216L589.433 286.568H590.573L587.801 293.888C587.577 294.496 587.285 294.98 586.925 295.34C586.573 295.7 586.085 295.88 585.461 295.88C585.269 295.88 585.101 295.868 584.957 295.844C584.813 295.828 584.689 295.808 584.585 295.784V294.944C584.673 294.96 584.777 294.976 584.897 294.992C585.025 295.008 585.157 295.016 585.293 295.016C585.661 295.016 585.957 294.912 586.181 294.704C586.413 294.496 586.593 294.22 586.721 293.876L587.057 293.024L584.465 286.568Z" fill="#8594A8"/>
<path d="M699.952 295.28C699.76 295.28 699.592 295.264 699.448 295.232C699.304 295.208 699.176 295.172 699.064 295.124V294.212C699.192 294.244 699.328 294.272 699.472 294.296C699.616 294.32 699.768 294.332 699.928 294.332C700.128 294.332 700.316 294.292 700.492 294.212C700.676 294.132 700.824 293.992 700.936 293.792C701.048 293.592 701.104 293.312 701.104 292.952V284.432H702.184V292.868C702.184 293.692 701.98 294.3 701.572 294.692C701.164 295.084 700.624 295.28 699.952 295.28ZM709.597 286.568V293H708.733L708.577 292.148H708.529C708.321 292.484 708.033 292.732 707.665 292.892C707.297 293.044 706.905 293.12 706.489 293.12C705.713 293.12 705.129 292.936 704.737 292.568C704.345 292.192 704.149 291.596 704.149 290.78V286.568H705.217V290.708C705.217 291.732 705.693 292.244 706.645 292.244C707.357 292.244 707.849 292.044 708.121 291.644C708.401 291.244 708.541 290.668 708.541 289.916V286.568H709.597ZM714.655 286.448C715.423 286.448 716.003 286.636 716.395 287.012C716.787 287.38 716.983 287.98 716.983 288.812V293H715.939V288.884C715.939 287.852 715.459 287.336 714.499 287.336C713.787 287.336 713.295 287.536 713.023 287.936C712.751 288.336 712.615 288.912 712.615 289.664V293H711.559V286.568H712.411L712.567 287.444H712.627C712.835 287.108 713.123 286.86 713.491 286.7C713.859 286.532 714.247 286.448 714.655 286.448Z" fill="#8594A8"/>
<path d="M833.952 295.28C833.76 295.28 833.592 295.264 833.448 295.232C833.304 295.208 833.176 295.172 833.064 295.124V294.212C833.192 294.244 833.328 294.272 833.472 294.296C833.616 294.32 833.768 294.332 833.928 294.332C834.128 294.332 834.316 294.292 834.492 294.212C834.676 294.132 834.824 293.992 834.936 293.792C835.048 293.592 835.104 293.312 835.104 292.952V284.432H836.184V292.868C836.184 293.692 835.98 294.3 835.572 294.692C835.164 295.084 834.624 295.28 833.952 295.28ZM843.597 286.568V293H842.733L842.577 292.148H842.529C842.321 292.484 842.033 292.732 841.665 292.892C841.297 293.044 840.905 293.12 840.489 293.12C839.713 293.12 839.129 292.936 838.737 292.568C838.345 292.192 838.149 291.596 838.149 290.78V286.568H839.217V290.708C839.217 291.732 839.693 292.244 840.645 292.244C841.357 292.244 841.849 292.044 842.121 291.644C842.401 291.244 842.541 290.668 842.541 289.916V286.568H843.597ZM846.615 293H845.559V283.88H846.615V293Z" fill="#8594A8"/>
<path d="M973.54 293L972.508 290.348H969.112L968.092 293H967L970.348 284.396H971.32L974.656 293H973.54ZM972.184 289.388L971.224 286.796C971.2 286.732 971.16 286.616 971.104 286.448C971.048 286.28 970.992 286.108 970.936 285.932C970.888 285.748 970.848 285.608 970.816 285.512C970.76 285.76 970.696 286.004 970.624 286.244C970.552 286.476 970.492 286.66 970.444 286.796L969.472 289.388H972.184ZM980.98 286.568V293H980.116L979.96 292.148H979.912C979.704 292.484 979.416 292.732 979.048 292.892C978.68 293.044 978.288 293.12 977.872 293.12C977.096 293.12 976.512 292.936 976.12 292.568C975.728 292.192 975.532 291.596 975.532 290.78V286.568H976.6V290.708C976.6 291.732 977.076 292.244 978.028 292.244C978.74 292.244 979.232 292.044 979.504 291.644C979.784 291.244 979.924 290.668 979.924 289.916V286.568H980.98ZM985.222 286.448C985.646 286.448 986.026 286.528 986.362 286.688C986.706 286.848 986.998 287.092 987.238 287.42H987.298L987.442 286.568H988.282V293.108C988.282 294.028 988.046 294.72 987.574 295.184C987.11 295.648 986.386 295.88 985.402 295.88C984.458 295.88 983.686 295.744 983.086 295.472V294.5C983.718 294.836 984.51 295.004 985.462 295.004C986.014 295.004 986.446 294.84 986.758 294.512C987.078 294.192 987.238 293.752 987.238 293.192V292.94C987.238 292.844 987.242 292.708 987.25 292.532C987.258 292.348 987.266 292.22 987.274 292.148H987.226C986.794 292.796 986.13 293.12 985.234 293.12C984.402 293.12 983.75 292.828 983.278 292.244C982.814 291.66 982.582 290.844 982.582 289.796C982.582 288.772 982.814 287.96 983.278 287.36C983.75 286.752 984.398 286.448 985.222 286.448ZM985.366 287.336C984.83 287.336 984.414 287.552 984.118 287.984C983.822 288.408 983.674 289.016 983.674 289.808C983.674 290.6 983.818 291.208 984.106 291.632C984.402 292.048 984.83 292.256 985.39 292.256C986.038 292.256 986.51 292.084 986.806 291.74C987.102 291.388 987.25 290.824 987.25 290.048V289.796C987.25 288.916 987.098 288.288 986.794 287.912C986.49 287.528 986.014 287.336 985.366 287.336Z" fill="#8594A8"/>
<path d="M1104.02 290.708C1104.02 291.468 1103.75 292.06 1103.2 292.484C1102.64 292.908 1101.9 293.12 1100.96 293.12C1100.48 293.12 1100.04 293.084 1099.63 293.012C1099.22 292.94 1098.88 292.84 1098.61 292.712V291.68C1098.9 291.808 1099.26 291.924 1099.68 292.028C1100.11 292.132 1100.56 292.184 1101.01 292.184C1101.65 292.184 1102.13 292.06 1102.45 291.812C1102.78 291.564 1102.94 291.228 1102.94 290.804C1102.94 290.524 1102.88 290.288 1102.76 290.096C1102.64 289.904 1102.44 289.728 1102.14 289.568C1101.85 289.4 1101.45 289.224 1100.93 289.04C1100.2 288.776 1099.65 288.452 1099.27 288.068C1098.9 287.684 1098.72 287.16 1098.72 286.496C1098.72 286.04 1098.84 285.652 1099.07 285.332C1099.3 285.004 1099.62 284.752 1100.03 284.576C1100.44 284.4 1100.92 284.312 1101.46 284.312C1101.93 284.312 1102.36 284.356 1102.75 284.444C1103.14 284.532 1103.5 284.648 1103.82 284.792L1103.48 285.716C1103.19 285.588 1102.86 285.48 1102.51 285.392C1102.17 285.304 1101.81 285.26 1101.43 285.26C1100.9 285.26 1100.49 285.376 1100.22 285.608C1099.95 285.832 1099.81 286.132 1099.81 286.508C1099.81 286.796 1099.87 287.036 1099.99 287.228C1100.11 287.42 1100.31 287.592 1100.58 287.744C1100.85 287.896 1101.22 288.06 1101.68 288.236C1102.19 288.42 1102.61 288.62 1102.96 288.836C1103.31 289.044 1103.57 289.296 1103.75 289.592C1103.93 289.888 1104.02 290.26 1104.02 290.708ZM1108.01 286.448C1108.56 286.448 1109.03 286.568 1109.43 286.808C1109.83 287.048 1110.13 287.388 1110.34 287.828C1110.55 288.26 1110.66 288.768 1110.66 289.352V289.988H1106.26C1106.27 290.716 1106.46 291.272 1106.81 291.656C1107.17 292.032 1107.67 292.22 1108.31 292.22C1108.72 292.22 1109.08 292.184 1109.39 292.112C1109.71 292.032 1110.04 291.92 1110.37 291.776V292.7C1110.05 292.844 1109.72 292.948 1109.4 293.012C1109.08 293.084 1108.7 293.12 1108.26 293.12C1107.65 293.12 1107.11 292.996 1106.64 292.748C1106.18 292.5 1105.81 292.132 1105.55 291.644C1105.29 291.148 1105.17 290.544 1105.17 289.832C1105.17 289.128 1105.28 288.524 1105.51 288.02C1105.75 287.516 1106.09 287.128 1106.51 286.856C1106.94 286.584 1107.44 286.448 1108.01 286.448ZM1108 287.312C1107.49 287.312 1107.09 287.476 1106.8 287.804C1106.51 288.124 1106.34 288.572 1106.28 289.148H1109.56C1109.55 288.604 1109.42 288.164 1109.17 287.828C1108.93 287.484 1108.53 287.312 1108 287.312ZM1115.28 286.448C1116.07 286.448 1116.71 286.724 1117.19 287.276C1117.67 287.828 1117.92 288.66 1117.92 289.772C1117.92 290.868 1117.67 291.7 1117.19 292.268C1116.71 292.836 1116.07 293.12 1115.27 293.12C1114.77 293.12 1114.36 293.028 1114.03 292.844C1113.71 292.652 1113.46 292.432 1113.27 292.184H1113.2C1113.22 292.32 1113.23 292.492 1113.25 292.7C1113.27 292.908 1113.27 293.088 1113.27 293.24V295.88H1112.22V286.568H1113.08L1113.23 287.444H1113.27C1113.47 287.164 1113.72 286.928 1114.03 286.736C1114.34 286.544 1114.76 286.448 1115.28 286.448ZM1115.09 287.336C1114.43 287.336 1113.97 287.52 1113.69 287.888C1113.43 288.256 1113.29 288.816 1113.27 289.568V289.772C1113.27 290.564 1113.4 291.176 1113.66 291.608C1113.92 292.032 1114.41 292.244 1115.11 292.244C1115.5 292.244 1115.82 292.136 1116.07 291.92C1116.33 291.704 1116.51 291.412 1116.63 291.044C1116.76 290.668 1116.83 290.24 1116.83 289.76C1116.83 289.024 1116.68 288.436 1116.39 287.996C1116.11 287.556 1115.68 287.336 1115.09 287.336Z" fill="#8594A8"/>
<path d="M1237.64 288.703C1237.64 289.591 1237.49 290.367 1237.18 291.031C1236.89 291.687 1236.45 292.199 1235.86 292.567C1235.28 292.935 1234.56 293.119 1233.69 293.119C1232.8 293.119 1232.06 292.935 1231.47 292.567C1230.89 292.199 1230.45 291.683 1230.16 291.019C1229.88 290.355 1229.73 289.579 1229.73 288.691C1229.73 287.811 1229.88 287.043 1230.16 286.387C1230.45 285.731 1230.89 285.219 1231.47 284.851C1232.06 284.483 1232.81 284.299 1233.7 284.299C1234.56 284.299 1235.28 284.483 1235.86 284.851C1236.45 285.211 1236.89 285.723 1237.18 286.387C1237.49 287.043 1237.64 287.815 1237.64 288.703ZM1230.87 288.703C1230.87 289.783 1231.1 290.635 1231.56 291.259C1232.01 291.875 1232.72 292.183 1233.69 292.183C1234.67 292.183 1235.38 291.875 1235.83 291.259C1236.28 290.635 1236.5 289.783 1236.5 288.703C1236.5 287.623 1236.28 286.779 1235.83 286.171C1235.38 285.555 1234.67 285.247 1233.7 285.247C1232.74 285.247 1232.02 285.555 1231.56 286.171C1231.1 286.779 1230.87 287.623 1230.87 288.703ZM1241.9 293.119C1241.33 293.119 1240.82 293.003 1240.37 292.771C1239.93 292.539 1239.58 292.179 1239.33 291.691C1239.08 291.203 1238.96 290.579 1238.96 289.819C1238.96 289.027 1239.09 288.383 1239.35 287.887C1239.62 287.391 1239.97 287.027 1240.42 286.795C1240.88 286.563 1241.39 286.447 1241.97 286.447C1242.3 286.447 1242.61 286.483 1242.92 286.555C1243.22 286.619 1243.47 286.699 1243.66 286.795L1243.34 287.671C1243.14 287.599 1242.92 287.531 1242.66 287.467C1242.41 287.403 1242.17 287.371 1241.94 287.371C1240.68 287.371 1240.05 288.183 1240.05 289.807C1240.05 290.583 1240.2 291.179 1240.5 291.595C1240.82 292.003 1241.28 292.207 1241.88 292.207C1242.24 292.207 1242.54 292.171 1242.81 292.099C1243.08 292.027 1243.33 291.939 1243.55 291.835V292.771C1243.34 292.883 1243.1 292.967 1242.83 293.023C1242.58 293.087 1242.26 293.119 1241.9 293.119ZM1247.15 292.255C1247.31 292.255 1247.47 292.243 1247.64 292.219C1247.81 292.187 1247.94 292.155 1248.05 292.123V292.927C1247.94 292.983 1247.78 293.027 1247.57 293.059C1247.36 293.099 1247.16 293.119 1246.97 293.119C1246.63 293.119 1246.32 293.063 1246.03 292.951C1245.75 292.831 1245.52 292.627 1245.35 292.339C1245.17 292.051 1245.08 291.647 1245.08 291.127V287.383H1244.17V286.879L1245.1 286.459L1245.52 285.091H1246.14V286.567H1248V287.383H1246.14V291.103C1246.14 291.495 1246.23 291.787 1246.42 291.979C1246.61 292.163 1246.85 292.255 1247.15 292.255Z" fill="#8594A8"/>
<path d="M1369.96 293H1368.7L1364.11 285.884H1364.06C1364.08 286.164 1364.1 286.512 1364.12 286.928C1364.15 287.344 1364.16 287.772 1364.16 288.212V293H1363.16V284.432H1364.41L1368.98 291.524H1369.03C1369.02 291.396 1369.01 291.204 1369 290.948C1368.99 290.692 1368.98 290.412 1368.96 290.108C1368.95 289.804 1368.95 289.524 1368.95 289.268V284.432H1369.96V293ZM1377.65 289.772C1377.65 290.836 1377.38 291.66 1376.83 292.244C1376.3 292.828 1375.57 293.12 1374.65 293.12C1374.08 293.12 1373.57 292.992 1373.12 292.736C1372.68 292.472 1372.34 292.092 1372.08 291.596C1371.82 291.092 1371.7 290.484 1371.7 289.772C1371.7 288.708 1371.96 287.888 1372.5 287.312C1373.04 286.736 1373.76 286.448 1374.68 286.448C1375.27 286.448 1375.78 286.58 1376.22 286.844C1376.67 287.1 1377.02 287.476 1377.26 287.972C1377.52 288.46 1377.65 289.06 1377.65 289.772ZM1372.79 289.772C1372.79 290.532 1372.94 291.136 1373.23 291.584C1373.54 292.024 1374.02 292.244 1374.67 292.244C1375.32 292.244 1375.8 292.024 1376.1 291.584C1376.4 291.136 1376.56 290.532 1376.56 289.772C1376.56 289.012 1376.4 288.416 1376.1 287.984C1375.8 287.552 1375.32 287.336 1374.66 287.336C1374 287.336 1373.53 287.552 1373.23 287.984C1372.94 288.416 1372.79 289.012 1372.79 289.772ZM1380.42 293L1377.99 286.568H1379.12L1380.48 290.36C1380.55 290.536 1380.62 290.732 1380.69 290.948C1380.76 291.164 1380.82 291.372 1380.88 291.572C1380.94 291.764 1380.98 291.928 1381 292.064H1381.05C1381.08 291.928 1381.12 291.76 1381.18 291.56C1381.24 291.36 1381.31 291.152 1381.38 290.936C1381.46 290.72 1381.53 290.528 1381.59 290.36L1382.96 286.568H1384.08L1381.64 293H1380.42Z" fill="#8594A8"/>
<path d="M1492.03 288.631C1492.03 290.079 1491.63 291.171 1490.84 291.907C1490.06 292.635 1488.96 292.999 1487.55 292.999H1485.16V284.431H1487.8C1488.67 284.431 1489.42 284.591 1490.05 284.911C1490.68 285.231 1491.17 285.703 1491.51 286.327C1491.86 286.943 1492.03 287.711 1492.03 288.631ZM1490.89 288.667C1490.89 287.523 1490.6 286.687 1490.04 286.159C1489.48 285.623 1488.68 285.355 1487.65 285.355H1486.24V292.075H1487.41C1489.73 292.075 1490.89 290.939 1490.89 288.667ZM1496.19 286.447C1496.74 286.447 1497.21 286.567 1497.61 286.807C1498.01 287.047 1498.31 287.387 1498.52 287.827C1498.73 288.259 1498.84 288.767 1498.84 289.351V289.987H1494.44C1494.45 290.715 1494.64 291.271 1494.99 291.655C1495.35 292.031 1495.85 292.219 1496.49 292.219C1496.9 292.219 1497.26 292.183 1497.57 292.111C1497.89 292.031 1498.22 291.919 1498.55 291.775V292.699C1498.23 292.843 1497.9 292.947 1497.58 293.011C1497.26 293.083 1496.88 293.119 1496.44 293.119C1495.83 293.119 1495.29 292.995 1494.82 292.747C1494.36 292.499 1493.99 292.131 1493.73 291.643C1493.47 291.147 1493.35 290.543 1493.35 289.831C1493.35 289.127 1493.46 288.523 1493.69 288.019C1493.93 287.515 1494.27 287.127 1494.69 286.855C1495.12 286.583 1495.62 286.447 1496.19 286.447ZM1496.18 287.311C1495.67 287.311 1495.27 287.475 1494.98 287.803C1494.69 288.123 1494.52 288.571 1494.46 289.147H1497.74C1497.73 288.603 1497.6 288.163 1497.35 287.827C1497.11 287.483 1496.71 287.311 1496.18 287.311ZM1502.98 293.119C1502.41 293.119 1501.9 293.003 1501.46 292.771C1501.02 292.539 1500.67 292.179 1500.41 291.691C1500.16 291.203 1500.04 290.579 1500.04 289.819C1500.04 289.027 1500.17 288.383 1500.44 287.887C1500.7 287.391 1501.06 287.027 1501.5 286.795C1501.96 286.563 1502.48 286.447 1503.05 286.447C1503.38 286.447 1503.7 286.483 1504 286.555C1504.3 286.619 1504.55 286.699 1504.74 286.795L1504.42 287.671C1504.23 287.599 1504 287.531 1503.75 287.467C1503.49 287.403 1503.25 287.371 1503.03 287.371C1501.76 287.371 1501.13 288.183 1501.13 289.807C1501.13 290.583 1501.28 291.179 1501.59 291.595C1501.9 292.003 1502.36 292.207 1502.97 292.207C1503.32 292.207 1503.63 292.171 1503.89 292.099C1504.16 292.027 1504.41 291.939 1504.64 291.835V292.771C1504.42 292.883 1504.18 292.967 1503.92 293.023C1503.66 293.087 1503.35 293.119 1502.98 293.119Z" fill="#8594A8"/>
<path d="M30.24 37.0015H24.576V36.1255L26.82 33.8575C27.252 33.4255 27.616 33.0415 27.912 32.7055C28.208 32.3695 28.432 32.0415 28.584 31.7215C28.736 31.3935 28.812 31.0375 28.812 30.6535C28.812 30.1815 28.672 29.8255 28.392 29.5855C28.112 29.3375 27.748 29.2135 27.3 29.2135C26.884 29.2135 26.516 29.2855 26.196 29.4295C25.884 29.5735 25.564 29.7735 25.236 30.0295L24.672 29.3215C25.008 29.0415 25.392 28.8055 25.824 28.6135C26.264 28.4135 26.756 28.3135 27.3 28.3135C28.1 28.3135 28.732 28.5175 29.196 28.9255C29.66 29.3255 29.892 29.8815 29.892 30.5935C29.892 31.0415 29.8 31.4615 29.616 31.8535C29.432 32.2455 29.176 32.6335 28.848 33.0175C28.52 33.3935 28.136 33.7975 27.696 34.2295L25.908 35.9935V36.0415H30.24V37.0015ZM34.0872 31.7455C34.9672 31.7455 35.6672 31.9655 36.1872 32.4055C36.7072 32.8455 36.9672 33.4655 36.9672 34.2655C36.9672 35.1535 36.6832 35.8535 36.1152 36.3655C35.5552 36.8695 34.7712 37.1215 33.7632 37.1215C33.3232 37.1215 32.9072 37.0815 32.5152 37.0015C32.1312 36.9215 31.8072 36.8055 31.5432 36.6535V35.6575C31.8312 35.8335 32.1792 35.9735 32.5872 36.0775C33.0032 36.1735 33.3992 36.2215 33.7752 36.2215C34.4072 36.2215 34.9152 36.0735 35.2992 35.7775C35.6912 35.4735 35.8872 35.0055 35.8872 34.3735C35.8872 33.8135 35.7152 33.3855 35.3712 33.0895C35.0272 32.7855 34.4832 32.6335 33.7392 32.6335C33.5152 32.6335 33.2592 32.6535 32.9712 32.6935C32.6832 32.7335 32.4512 32.7735 32.2752 32.8135L31.7472 32.4775L32.0712 28.4335H36.3672V29.3935H32.9712L32.7672 31.8775C32.9032 31.8535 33.0872 31.8255 33.3192 31.7935C33.5512 31.7615 33.8072 31.7455 34.0872 31.7455Z" fill="#8594A8"/>
<path d="M30.24 83.4014H24.576V82.5254L26.82 80.2574C27.252 79.8254 27.616 79.4414 27.912 79.1054C28.208 78.7694 28.432 78.4414 28.584 78.1214C28.736 77.7934 28.812 77.4374 28.812 77.0534C28.812 76.5814 28.672 76.2254 28.392 75.9854C28.112 75.7374 27.748 75.6134 27.3 75.6134C26.884 75.6134 26.516 75.6854 26.196 75.8294C25.884 75.9734 25.564 76.1734 25.236 76.4294L24.672 75.7214C25.008 75.4414 25.392 75.2054 25.824 75.0134C26.264 74.8134 26.756 74.7134 27.3 74.7134C28.1 74.7134 28.732 74.9174 29.196 75.3254C29.66 75.7254 29.892 76.2814 29.892 76.9934C29.892 77.4414 29.8 77.8614 29.616 78.2534C29.432 78.6454 29.176 79.0334 28.848 79.4174C28.52 79.7934 28.136 80.1974 27.696 80.6294L25.908 82.3934V82.4414H30.24V83.4014ZM37.0632 79.1054C37.0632 80.0254 36.9672 80.8174 36.7752 81.4814C36.5832 82.1374 36.2792 82.6414 35.8632 82.9934C35.4472 83.3454 34.8952 83.5214 34.2072 83.5214C33.2392 83.5214 32.5232 83.1334 32.0592 82.3574C31.6032 81.5734 31.3752 80.4894 31.3752 79.1054C31.3752 78.1774 31.4672 77.3854 31.6512 76.7294C31.8432 76.0734 32.1472 75.5734 32.5632 75.2294C32.9792 74.8774 33.5272 74.7014 34.2072 74.7014C35.1672 74.7014 35.8832 75.0894 36.3552 75.8654C36.8272 76.6334 37.0632 77.7134 37.0632 79.1054ZM32.4312 79.1054C32.4312 80.2814 32.5632 81.1614 32.8272 81.7454C33.0992 82.3294 33.5592 82.6214 34.2072 82.6214C34.8472 82.6214 35.3032 82.3334 35.5752 81.7574C35.8552 81.1734 35.9952 80.2894 35.9952 79.1054C35.9952 77.9374 35.8552 77.0614 35.5752 76.4774C35.3032 75.8934 34.8472 75.6014 34.2072 75.6014C33.5592 75.6014 33.0992 75.8934 32.8272 76.4774C32.5632 77.0614 32.4312 77.9374 32.4312 79.1054Z" fill="#8594A8"/>
<path d="M28.26 129.801H27.228V123.813C27.228 123.469 27.232 123.193 27.24 122.985C27.248 122.777 27.26 122.561 27.276 122.337C27.148 122.465 27.032 122.573 26.928 122.661C26.824 122.749 26.692 122.861 26.532 122.997L25.62 123.741L25.068 123.033L27.384 121.233H28.26V129.801ZM34.0872 124.545C34.9672 124.545 35.6672 124.765 36.1872 125.205C36.7072 125.645 36.9672 126.265 36.9672 127.065C36.9672 127.953 36.6832 128.653 36.1152 129.165C35.5552 129.669 34.7712 129.921 33.7632 129.921C33.3232 129.921 32.9072 129.881 32.5152 129.801C32.1312 129.721 31.8072 129.605 31.5432 129.453V128.457C31.8312 128.633 32.1792 128.773 32.5872 128.877C33.0032 128.973 33.3992 129.021 33.7752 129.021C34.4072 129.021 34.9152 128.873 35.2992 128.577C35.6912 128.273 35.8872 127.805 35.8872 127.173C35.8872 126.613 35.7152 126.185 35.3712 125.889C35.0272 125.585 34.4832 125.433 33.7392 125.433C33.5152 125.433 33.2592 125.453 32.9712 125.493C32.6832 125.533 32.4512 125.573 32.2752 125.613L31.7472 125.277L32.0712 121.233H36.3672V122.193H32.9712L32.7672 124.677C32.9032 124.653 33.0872 124.625 33.3192 124.593C33.5512 124.561 33.8072 124.545 34.0872 124.545Z" fill="#8594A8"/>
<path d="M28.26 176.202H27.228V170.214C27.228 169.87 27.232 169.594 27.24 169.386C27.248 169.178 27.26 168.962 27.276 168.738C27.148 168.866 27.032 168.974 26.928 169.062C26.824 169.15 26.692 169.262 26.532 169.398L25.62 170.142L25.068 169.434L27.384 167.634H28.26V176.202ZM37.0632 171.906C37.0632 172.826 36.9672 173.618 36.7752 174.282C36.5832 174.938 36.2792 175.442 35.8632 175.794C35.4472 176.146 34.8952 176.322 34.2072 176.322C33.2392 176.322 32.5232 175.934 32.0592 175.158C31.6032 174.374 31.3752 173.29 31.3752 171.906C31.3752 170.978 31.4672 170.186 31.6512 169.53C31.8432 168.874 32.1472 168.374 32.5632 168.03C32.9792 167.678 33.5272 167.502 34.2072 167.502C35.1672 167.502 35.8832 167.89 36.3552 168.666C36.8272 169.434 37.0632 170.514 37.0632 171.906ZM32.4312 171.906C32.4312 173.082 32.5632 173.962 32.8272 174.546C33.0992 175.13 33.5592 175.422 34.2072 175.422C34.8472 175.422 35.3032 175.134 35.5752 174.558C35.8552 173.974 35.9952 173.09 35.9952 171.906C35.9952 170.738 35.8552 169.862 35.5752 169.278C35.3032 168.694 34.8472 168.402 34.2072 168.402C33.5592 168.402 33.0992 168.694 32.8272 169.278C32.5632 169.862 32.4312 170.738 32.4312 171.906Z" fill="#8594A8"/>
<path d="M30.8 217.346C31.68 217.346 32.38 217.566 32.9 218.006C33.42 218.446 33.68 219.066 33.68 219.866C33.68 220.754 33.396 221.454 32.828 221.966C32.268 222.47 31.484 222.722 30.476 222.722C30.036 222.722 29.62 222.682 29.228 222.602C28.844 222.522 28.52 222.406 28.256 222.254V221.258C28.544 221.434 28.892 221.574 29.3 221.678C29.716 221.774 30.112 221.822 30.488 221.822C31.12 221.822 31.628 221.674 32.012 221.378C32.404 221.074 32.6 220.606 32.6 219.974C32.6 219.414 32.428 218.986 32.084 218.69C31.74 218.386 31.196 218.234 30.452 218.234C30.228 218.234 29.972 218.254 29.684 218.294C29.396 218.334 29.164 218.374 28.988 218.414L28.46 218.078L28.784 214.034H33.08V214.994H29.684L29.48 217.478C29.616 217.454 29.8 217.426 30.032 217.394C30.264 217.362 30.52 217.346 30.8 217.346Z" fill="#8594A8"/>
<path d="M33.776 264.705C33.776 265.625 33.68 266.417 33.488 267.081C33.296 267.737 32.992 268.241 32.576 268.593C32.16 268.945 31.608 269.121 30.92 269.121C29.952 269.121 29.236 268.733 28.772 267.957C28.316 267.173 28.088 266.089 28.088 264.705C28.088 263.777 28.18 262.985 28.364 262.329C28.556 261.673 28.86 261.173 29.276 260.829C29.692 260.477 30.24 260.301 30.92 260.301C31.88 260.301 32.596 260.689 33.068 261.465C33.54 262.233 33.776 263.313 33.776 264.705ZM29.144 264.705C29.144 265.881 29.276 266.761 29.54 267.345C29.812 267.929 30.272 268.221 30.92 268.221C31.56 268.221 32.016 267.933 32.288 267.357C32.568 266.773 32.708 265.889 32.708 264.705C32.708 263.537 32.568 262.661 32.288 262.077C32.016 261.493 31.56 261.201 30.92 261.201C30.272 261.201 29.812 261.493 29.54 262.077C29.276 262.661 29.144 263.537 29.144 264.705Z" fill="#8594A8"/>
<defs>
<filter id="filter0_d" x="43" y="94.1558" width="1468" height="181.843" filterUnits="userSpaceOnUse" color-interpolation-filters="sRGB">
<feFlood flood-opacity="0" result="BackgroundImageFix"/>
<feColorMatrix in="SourceAlpha" type="matrix" values="0 0 0 0 0 0 0 0 0 0 0 0 0 0 0 0 0 0 127 0"/>
<feOffset dy="1"/>
<feGaussianBlur stdDeviation="2"/>
<feColorMatrix type="matrix" values="0 0 0 0 1 0 0 0 0 0.839216 0 0 0 0 0.4 0 0 0 0.8 0"/>
<feBlend mode="normal" in2="BackgroundImageFix" result="effect1_dropShadow"/>
<feBlend mode="normal" in="SourceGraphic" in2="effect1_dropShadow" result="shape"/>
</filter>
<filter id="filter1_d" x="620" y="194" width="36" height="36" filterUnits="userSpaceOnUse" color-interpolation-filters="sRGB">
<feFlood flood-opacity="0" result="BackgroundImageFix"/>
<feColorMatrix in="SourceAlpha" type="matrix" values="0 0 0 0 0 0 0 0 0 0 0 0 0 0 0 0 0 0 127 0"/>
<feOffset dy="3"/>
<feGaussianBlur stdDeviation="4"/>
<feColorMatrix type="matrix" values="0 0 0 0 0.439216 0 0 0 0 0.470588 0 0 0 0 0.529412 0 0 0 0.24 0"/>
<feBlend mode="normal" in2="BackgroundImageFix" result="effect1_dropShadow"/>
<feBlend mode="normal" in="SourceGraphic" in2="effect1_dropShadow" result="shape"/>
</filter>
<filter id="filter2_d" x="627.5" y="177" width="112" height="84" filterUnits="userSpaceOnUse" color-interpolation-filters="sRGB">
<feFlood flood-opacity="0" result="BackgroundImageFix"/>
<feColorMatrix in="SourceAlpha" type="matrix" values="0 0 0 0 0 0 0 0 0 0 0 0 0 0 0 0 0 0 127 0"/>
<feOffset dy="10"/>
<feGaussianBlur stdDeviation="12"/>
<feColorMatrix type="matrix" values="0 0 0 0 0.113725 0 0 0 0 0.164706 0 0 0 0 0.266667 0 0 0 0.12 0"/>
<feBlend mode="normal" in2="BackgroundImageFix" result="effect1_dropShadow"/>
<feBlend mode="normal" in="SourceGraphic" in2="effect1_dropShadow" result="shape"/>
</filter>
<clipPath id="clip0">
<rect x="46" y="24" width="1461.91" height="248" fill="white"/>
</clipPath>
</defs>
</svg>
