<svg width="300" height="300" viewBox="0 0 300 300" fill="none" xmlns="http://www.w3.org/2000/svg">
<g clip-path="url(#clip0)">
<g opacity="0.41">
<g opacity="0.41">
<g opacity="0.41">
<path opacity="0.41" d="M299.881 186.892C300.142 182.063 300.011 177.234 299.489 172.471C296.942 150.024 285.38 128.816 268.398 113.808C262.324 108.457 255.465 103.694 251.481 96.6463C244.819 84.7701 245.341 71.1322 237.111 59.4518C228.881 47.7062 216.798 38.5707 203.277 33.8725C162.781 19.843 106.151 42.6817 111.311 91.3608C111.311 91.5565 111.377 91.8175 111.377 92.0785C112.03 102.193 104.126 110.676 94.0023 110.937C56.6411 111.85 24.5052 140.562 17.647 176.973C13.2054 200.399 20.4556 226.044 37.6339 242.618C50.436 254.951 67.6143 261.803 84.7926 266.436C119.215 275.767 155.465 277.725 190.998 274.201C224.244 270.873 259.319 261.281 280.808 235.767C292.239 222.129 298.836 204.641 299.881 186.892Z" fill="#E1E2FE"/>
</g>
</g>
</g>
<g opacity="0.31">
<path opacity="0.31" d="M137.542 23.0905C138.307 18.3588 135.088 13.9032 130.352 13.1387C125.615 12.3742 121.155 15.5903 120.39 20.322C119.625 25.0538 122.844 29.5094 127.581 30.2739C132.317 31.0384 136.777 27.8223 137.542 23.0905Z" fill="#E1E2FE"/>
</g>
<g opacity="0.31">
<path opacity="0.31" d="M246.256 20.9522C248.745 20.9522 250.763 18.9364 250.763 16.4498C250.763 13.9631 248.745 11.9473 246.256 11.9473C243.767 11.9473 241.749 13.9631 241.749 16.4498C241.749 18.9364 243.767 20.9522 246.256 20.9522Z" fill="#E1E2FE"/>
</g>
<g opacity="0.31">
<path opacity="0.31" d="M93.9444 42.5738C94.7475 39.3567 92.7881 36.0983 89.568 35.2959C86.3478 34.4936 83.0862 36.4511 82.2831 39.6681C81.4799 42.8852 83.4393 46.1436 86.6595 46.946C89.8797 47.7483 93.1413 45.7908 93.9444 42.5738Z" fill="#E1E2FE"/>
</g>
<g opacity="0.31">
<path opacity="0.31" d="M18.888 272.244C26.4274 272.244 32.5392 266.138 32.5392 258.606C32.5392 251.074 26.4274 244.968 18.888 244.968C11.3487 244.968 5.23682 251.074 5.23682 258.606C5.23682 266.138 11.3487 272.244 18.888 272.244Z" fill="#E1E2FE"/>
</g>
<path opacity="0.47" d="M296.158 45.5531C300.077 37.9837 297.072 28.6525 289.496 24.8025C281.919 20.8873 267.288 21.2136 263.434 28.783C259.515 36.3524 271.207 42.8777 275.975 49.9251C282.572 59.7784 292.239 53.1225 296.158 45.5531Z" fill="#ECF1F7"/>
<path opacity="0.47" d="M262.977 278.638C268.464 282.162 275.779 280.596 279.372 275.115C282.899 269.633 283.813 258.475 278.327 254.951C272.84 251.428 266.961 259.845 261.214 262.912C253.114 267.219 257.49 275.049 262.977 278.638Z" fill="#E1E2FE"/>
<path opacity="0.47" d="M38.8097 10.7729C32.8005 5.16111 23.3296 5.48738 17.7124 11.5559C12.0951 17.5593 8.56801 31.1972 14.5772 36.809C20.5863 42.4208 29.7307 33.2853 37.5687 30.6752C48.5419 27.0863 44.8841 16.3847 38.8097 10.7729Z" fill="#E1E2FE"/>
<path opacity="0.47" d="M5.49821 75.8961C0.142232 87.5765 -1.36005 101.019 1.25262 113.613C4.32251 128.425 13.5322 139.779 10.3317 155.571C8.37215 165.163 7.91493 174.103 6.93518 183.63C4.84504 203.206 17.5818 220.367 33.3232 229.699C46.1253 237.268 61.0828 240.074 75.8444 239.878C89.1037 239.682 102.298 237.268 115.1 233.94C127.445 230.808 139.528 226.632 152.526 227.937C163.304 229.046 173.036 233.679 183.029 237.137C207.001 245.425 236.001 246.599 257.948 234.005C271.991 225.914 281.854 212.733 286.23 198.638C289.692 187.349 290.149 176.778 287.536 165.228C284.858 153.417 280.286 141.476 281.723 129.143C282.703 120.529 286.622 112.242 285.903 103.629C285.446 97.8865 282.899 92.5357 279.829 87.6417C268.529 69.958 249.652 58.0819 229.731 51.5566C210.92 45.4227 191.586 40.9203 171.991 42.4211C131.56 45.488 123.264 39.0932 81.9189 30.2187C55.2043 24.4764 25.3545 44.8355 9.7438 68.392C8.11088 70.8063 6.73923 73.286 5.49821 75.8961Z" fill="#E1E2FE"/>
<path opacity="0.81" d="M33.3231 94.1021C32.474 103.433 35.6092 113.026 32.9965 122.292C29.8613 133.319 20.717 141.607 16.9939 152.504C11.5073 168.556 11.7686 186.501 18.4309 202.162C21.6314 209.666 26.3342 216.713 32.7353 221.542C42.5981 228.981 55.5961 230.612 67.7451 229.699C85.9031 228.263 105.041 220.433 123.264 222.586C133.323 223.761 136.393 234.658 141.618 241.836C147.497 249.927 155.531 256.322 164.349 260.564C180.678 268.394 200.208 269.112 216.863 262.065C234.629 254.495 250.175 236.028 249.13 215.147C248.673 205.49 244.754 195.898 246.582 186.371C248.803 174.429 257.817 163.597 264.349 153.874C271.533 143.173 275.91 130.383 276.759 117.332C276.759 117.202 276.759 117.006 276.759 116.876C278.065 94.3631 263.891 73.8083 242.402 66.7609L196.746 51.7526C150.567 36.4833 104.322 37.0053 61.7359 59.322C52.5263 64.1508 37.5034 78.5718 34.4335 88.4903C33.8457 90.3174 33.5191 92.2098 33.3231 94.1021Z" fill="#E1E2FE"/>
<path opacity="0.58" d="M292.304 244.053C293.928 244.053 295.243 242.739 295.243 241.117C295.243 239.495 293.928 238.181 292.304 238.181C290.681 238.181 289.365 239.495 289.365 241.117C289.365 242.739 290.681 244.053 292.304 244.053Z" fill="#3E479B"/>
<path opacity="0.58" d="M156.576 15.1453C158.199 15.1453 159.515 13.8306 159.515 12.2089C159.515 10.5871 158.199 9.27246 156.576 9.27246C154.953 9.27246 153.637 10.5871 153.637 12.2089C153.637 13.8306 154.953 15.1453 156.576 15.1453Z" fill="#3E479B"/>
<path opacity="0.58" d="M50.3709 271.135C51.9942 271.135 53.3101 269.82 53.3101 268.198C53.3101 266.576 51.9942 265.262 50.3709 265.262C48.7476 265.262 47.4316 266.576 47.4316 268.198C47.4316 269.82 48.7476 271.135 50.3709 271.135Z" fill="#3E479B"/>
<path opacity="0.58" d="M235.871 282.815C237.133 282.815 238.157 281.792 238.157 280.531C238.157 279.27 237.133 278.247 235.871 278.247C234.608 278.247 233.584 279.27 233.584 280.531C233.584 281.792 234.608 282.815 235.871 282.815Z" fill="#EF929C"/>
<path opacity="0.58" d="M37.3728 63.2369C37.9139 63.2369 38.3526 62.7987 38.3526 62.2581C38.3526 61.7175 37.9139 61.2793 37.3728 61.2793C36.8317 61.2793 36.3931 61.7175 36.3931 62.2581C36.3931 62.7987 36.8317 63.2369 37.3728 63.2369Z" fill="#3E479B"/>
<path opacity="0.58" d="M246.06 33.0239C245.668 34.9162 243.774 36.156 241.88 35.7645C239.985 35.373 238.744 33.4807 239.136 31.5883C239.528 29.6959 241.422 28.4561 243.317 28.8477C245.276 29.2392 246.517 31.1315 246.06 33.0239Z" fill="#EF929C"/>
<path opacity="0.58" d="M57.4251 16.8408C57.2944 17.5586 56.5106 18.0806 55.7921 17.8848C55.0737 17.7543 54.5511 16.9713 54.7471 16.2535C54.8777 15.5357 55.6615 15.0137 56.38 15.2094C57.1638 15.34 57.621 16.123 57.4251 16.8408Z" fill="#EF929C"/>
<path opacity="0.58" d="M278.065 11.034C277.935 11.6865 277.281 12.0781 276.693 11.9475C276.106 11.817 275.648 11.1645 275.779 10.5772C275.91 9.92469 276.563 9.53317 277.151 9.66368C277.804 9.79418 278.196 10.3815 278.065 11.034Z" fill="#3E479B"/>
<path opacity="0.58" d="M29.2083 291.363C29.0777 292.016 28.4245 292.407 27.8367 292.277C27.1835 292.146 26.7916 291.494 26.9222 290.906C27.0529 290.254 27.706 289.862 28.2939 289.993C28.8818 290.123 29.339 290.711 29.2083 291.363Z" fill="#3E479B"/>
<g opacity="0.66">
<g opacity="0.66">
<g opacity="0.66">
<g opacity="0.66">
<path opacity="0.66" d="M113.859 115.896L108.633 115.505C108.242 111.59 107.001 107.935 105.106 104.673L109.091 101.28C111.115 99.5829 111.311 96.516 109.613 94.5584C107.915 92.5355 104.845 92.3398 102.886 94.0364L98.9012 97.4296C95.962 95.0152 92.5002 93.2533 88.7118 92.2745L89.1037 87.0543C89.2997 84.4441 87.3402 82.1602 84.7275 81.8992C82.1148 81.7035 79.8287 83.6611 79.5675 86.2712L79.1756 91.4915C75.2566 91.883 71.5988 93.1228 68.333 95.0152L64.9365 91.0347C63.2383 89.0119 60.1684 88.8161 58.2089 90.5127C56.1841 92.2093 55.9881 95.2762 57.6864 97.2338L61.0828 101.214C58.6661 104.151 56.9026 107.609 55.9228 111.394L50.6975 111.002C48.0848 110.807 45.7987 112.764 45.5374 115.374C45.3415 117.984 47.301 120.268 49.9137 120.529L55.139 120.921C55.5309 124.836 56.7719 128.49 58.6661 131.753L54.6818 135.146C52.657 136.843 52.461 139.91 54.1592 141.867C55.8575 143.89 58.9274 144.086 60.8869 142.389L64.8712 138.996C67.8105 141.41 71.2722 143.172 75.0606 144.151L74.6687 149.371C74.4728 151.981 76.4323 154.265 79.0449 154.526C81.6576 154.722 83.9437 152.764 84.205 150.154L84.5969 144.934C88.5159 144.543 92.1736 143.303 95.4395 141.41L98.8359 145.391C100.534 147.414 103.604 147.609 105.564 145.913C107.588 144.216 107.784 141.149 106.086 139.192L102.69 135.211C105.106 132.275 106.87 128.816 107.85 125.032L113.075 125.423C115.688 125.619 117.974 123.661 118.235 121.051C118.431 118.441 116.471 116.092 113.859 115.896ZM80.4166 137.691C69.7046 136.843 61.6707 127.511 62.4545 116.81C63.3036 106.108 72.6439 98.0821 83.3559 98.8651C94.0678 99.7134 102.102 109.045 101.318 119.746C100.534 130.448 91.1285 138.474 80.4166 137.691Z" fill="white"/>
</g>
</g>
<g opacity="0.66">
<g opacity="0.66">
<path opacity="0.66" d="M224.897 262.325C224.244 262.325 223.656 262.195 223.068 261.869C222.154 261.347 221.435 260.564 221.109 259.52L220.194 256.583C217.778 256.844 215.361 256.648 213.075 255.996L211.638 258.737C210.658 260.694 208.241 261.477 206.282 260.433C205.368 259.911 204.649 259.128 204.322 258.084C203.996 257.04 204.127 255.996 204.584 255.017L206.021 252.276C204.127 250.776 202.624 248.883 201.383 246.795L198.444 247.709C196.354 248.361 194.133 247.187 193.415 245.099C193.088 244.055 193.219 243.01 193.676 242.032C194.198 241.118 194.982 240.4 196.027 240.074L198.966 239.161C198.705 236.746 198.901 234.332 199.554 232.048L196.811 230.612C195.897 230.09 195.178 229.307 194.852 228.263C194.525 227.219 194.656 226.175 195.113 225.196C195.635 224.283 196.419 223.565 197.464 223.239C198.509 222.912 199.554 223.043 200.534 223.5L203.277 224.935C204.78 223.043 206.674 221.542 208.764 220.302L207.85 217.366C207.196 215.278 208.372 213.059 210.462 212.341C211.507 212.015 212.552 212.146 213.532 212.602C214.447 213.124 215.165 213.907 215.492 214.952L216.406 217.888C218.823 217.627 221.24 217.823 223.526 218.475L224.963 215.735C225.942 213.777 228.359 212.994 230.319 214.038C232.278 215.017 233.062 217.431 232.017 219.389L230.58 222.129C232.474 223.63 233.976 225.523 235.217 227.611L238.157 226.697C239.202 226.371 240.247 226.501 241.226 226.958C242.141 227.48 242.859 228.263 243.186 229.307C243.839 231.395 242.663 233.614 240.573 234.332L237.634 235.245C237.895 237.66 237.699 240.074 237.046 242.358L239.79 243.794C241.749 244.772 242.533 247.187 241.488 249.144C240.965 250.058 240.181 250.776 239.136 251.102C238.091 251.428 237.046 251.298 236.066 250.841L233.323 249.405C231.821 251.298 229.927 252.798 227.837 254.038L228.751 256.975C229.078 258.019 228.947 259.063 228.49 260.042C227.967 260.955 227.183 261.673 226.138 261.999C225.746 262.26 225.289 262.325 224.897 262.325ZM221.109 255.213L222.35 259.193C222.546 259.846 223.003 260.433 223.656 260.759C224.309 261.086 225.028 261.151 225.681 260.955C226.334 260.759 226.922 260.303 227.249 259.65C227.575 258.998 227.641 258.28 227.445 257.627L226.204 253.647L226.661 253.386C228.947 252.146 230.972 250.515 232.539 248.426L232.866 247.97L236.589 249.862C237.242 250.188 237.961 250.254 238.614 250.058C239.267 249.862 239.855 249.405 240.181 248.753C240.835 247.448 240.377 245.816 239.006 245.164L235.283 243.271L235.413 242.749C236.197 240.27 236.393 237.66 236.066 235.115L236.001 234.593L239.985 233.353C241.422 232.896 242.206 231.395 241.749 230.025C241.553 229.373 241.096 228.785 240.443 228.459C239.79 228.133 239.071 228.067 238.418 228.263L234.434 229.503L234.172 229.046C232.931 226.762 231.298 224.74 229.208 223.173L228.751 222.847L230.645 219.128C231.298 217.823 230.841 216.191 229.469 215.539C228.163 214.886 226.53 215.343 225.877 216.713L223.983 220.433L223.46 220.302C220.978 219.519 218.366 219.324 215.818 219.65L215.296 219.715L214.055 215.735C213.859 215.082 213.402 214.495 212.748 214.168C212.095 213.842 211.377 213.777 210.724 213.973C209.287 214.43 208.503 215.93 208.96 217.301L210.201 221.281L209.744 221.542C207.458 222.782 205.433 224.413 203.865 226.501L203.539 226.958L199.816 225.066C199.162 224.74 198.444 224.674 197.791 224.87C197.138 225.066 196.55 225.523 196.223 226.175C195.897 226.828 195.831 227.545 196.027 228.198C196.223 228.85 196.68 229.438 197.334 229.764L201.057 231.656L200.926 232.178C200.142 234.658 199.946 237.268 200.273 239.813L200.338 240.335L196.354 241.575C195.701 241.771 195.113 242.227 194.786 242.88C194.46 243.532 194.394 244.25 194.59 244.903C195.047 246.338 196.55 247.121 197.921 246.665L201.906 245.425L202.167 245.882C203.408 248.165 205.041 250.188 207.131 251.754L207.588 252.081L205.694 255.8C205.368 256.453 205.302 257.17 205.498 257.823C205.694 258.476 206.151 259.063 206.805 259.389C208.111 260.042 209.744 259.585 210.397 258.214L212.291 254.495L212.814 254.626C215.296 255.409 217.908 255.604 220.456 255.278L221.109 255.213ZM218.235 251.559C216.014 251.559 213.728 251.037 211.703 249.927C208.307 248.165 205.825 245.229 204.714 241.575C203.539 237.986 203.931 234.136 205.629 230.743C207.392 227.35 210.332 224.87 213.989 223.761C217.582 222.586 221.435 222.978 224.832 224.674C228.228 226.436 230.71 229.373 231.821 233.027C232.997 236.616 232.605 240.466 230.906 243.859C229.208 247.252 226.204 249.732 222.546 250.841C221.109 251.363 219.672 251.559 218.235 251.559ZM218.235 224.413C216.929 224.413 215.622 224.609 214.316 225.001C211.05 226.045 208.372 228.328 206.739 231.33C205.172 234.397 204.845 237.855 205.89 241.183C206.935 244.446 209.221 247.121 212.226 248.753C215.296 250.319 218.757 250.645 222.089 249.601C225.354 248.557 228.032 246.273 229.665 243.271C231.233 240.205 231.56 236.746 230.515 233.418C229.469 230.156 227.183 227.48 224.179 225.849C222.35 224.935 220.325 224.413 218.235 224.413Z" fill="white"/>
</g>
</g>
<g opacity="0.66">
<g opacity="0.66">
<path opacity="0.66" d="M259.189 237.986C258.927 237.986 258.666 237.986 258.47 237.92C255.662 237.529 253.702 234.919 254.159 232.113L254.812 227.806C251.677 226.697 248.803 225 246.321 222.716L242.859 225.326C241.749 226.175 240.443 226.501 239.071 226.305C237.699 226.109 236.524 225.392 235.675 224.282C233.976 221.998 234.434 218.801 236.72 217.104L240.181 214.494C238.745 211.493 237.895 208.23 237.765 204.902L233.454 204.25C230.645 203.858 228.686 201.248 229.143 198.442C229.339 197.072 230.057 195.897 231.168 195.049C232.278 194.201 233.65 193.874 234.956 194.07L239.267 194.723C240.377 191.59 242.076 188.719 244.362 186.24L241.749 182.781C240.9 181.672 240.573 180.302 240.769 178.996C240.965 177.626 241.684 176.452 242.794 175.603C243.905 174.755 245.211 174.429 246.583 174.624C247.954 174.82 249.13 175.538 249.979 176.647L252.592 180.106C255.596 178.67 258.862 177.822 262.193 177.691L262.846 173.385C263.238 170.579 265.851 168.621 268.66 169.078C270.031 169.274 271.207 169.991 272.056 171.101C272.905 172.21 273.232 173.58 273.036 174.885L272.383 179.192C275.518 180.302 278.392 181.998 280.874 184.282L284.336 181.672C286.622 179.975 289.822 180.432 291.52 182.716C293.219 185 292.761 188.197 290.475 189.894L287.014 192.504C288.451 195.506 289.3 198.768 289.43 202.096L293.741 202.749C296.55 203.14 298.509 205.75 298.052 208.556C297.66 211.362 295.048 213.32 292.239 212.863L287.928 212.21C286.818 215.343 285.119 218.214 282.833 220.693L285.446 224.152C287.144 226.436 286.687 229.633 284.401 231.33C283.291 232.178 281.919 232.504 280.613 232.309C279.241 232.113 278.065 231.395 277.216 230.286L274.603 226.827C271.599 228.263 268.333 229.111 265.002 229.242L264.349 233.548C263.891 236.158 261.736 237.986 259.189 237.986ZM246.321 221.085L246.713 221.476C249.326 223.891 252.33 225.653 255.662 226.827L256.184 227.023L255.4 232.374C255.074 234.462 256.576 236.419 258.666 236.68C260.756 237.007 262.716 235.506 262.977 233.418L263.761 228.067H264.283C267.81 227.937 271.207 227.088 274.407 225.522L274.865 225.261L278.13 229.633C278.718 230.481 279.633 231.003 280.613 231.134C281.592 231.264 282.637 231.003 283.421 230.416C285.119 229.176 285.446 226.762 284.205 225.065L280.939 220.693L281.331 220.302C283.748 217.692 285.511 214.69 286.687 211.362L286.883 210.84L292.239 211.623C294.329 211.949 296.289 210.449 296.55 208.361C296.876 206.272 295.374 204.315 293.284 204.054L287.928 203.271V202.749C287.797 199.225 286.948 195.832 285.381 192.634L285.119 192.178L289.496 188.915C291.194 187.675 291.52 185.261 290.279 183.564C289.692 182.716 288.777 182.194 287.797 182.063C286.818 181.933 285.773 182.194 284.989 182.781L280.613 186.044L280.221 185.587C277.608 183.173 274.603 181.346 271.272 180.236L270.75 180.041L271.534 174.69C271.664 173.711 271.403 172.667 270.815 171.884C270.227 171.036 269.313 170.513 268.333 170.383C266.243 170.057 264.283 171.558 264.022 173.646L263.238 178.996H262.716C259.189 179.127 255.792 179.975 252.592 181.541L252.134 181.802L248.869 177.43C248.281 176.582 247.366 176.06 246.387 175.93C245.407 175.799 244.362 176.06 243.578 176.647C242.729 177.235 242.206 178.148 242.076 179.127C241.945 180.106 242.206 181.15 242.794 181.933L246.06 186.305L245.668 186.696C243.251 189.307 241.422 192.308 240.312 195.636L240.116 196.158L234.76 195.375C233.78 195.245 232.735 195.506 231.952 196.093C231.102 196.68 230.58 197.594 230.449 198.572C230.123 200.661 231.625 202.618 233.715 202.879L239.071 203.662V204.184C239.202 207.708 240.051 211.101 241.618 214.299L241.88 214.755L237.503 218.018C236.654 218.605 236.132 219.519 236.001 220.498C235.871 221.476 236.132 222.52 236.72 223.304C237.308 224.152 238.222 224.674 239.202 224.804C240.181 224.935 241.227 224.674 242.01 224.087L246.321 221.085ZM263.5 222.39C257.752 222.39 252.069 219.78 248.346 214.821C242.141 206.468 243.839 194.657 252.2 188.393C256.249 185.391 261.213 184.086 266.243 184.869C271.207 185.587 275.648 188.197 278.653 192.243C281.658 196.289 282.964 201.248 282.18 206.272C281.462 211.232 278.849 215.669 274.799 218.671C271.403 221.15 267.419 222.39 263.5 222.39ZM263.434 185.979C259.646 185.979 256.053 187.153 252.984 189.502C245.211 195.31 243.578 206.338 249.391 214.103C255.204 221.868 266.243 223.434 274.016 217.692C277.804 214.886 280.221 210.775 280.874 206.142C281.527 201.509 280.351 196.876 277.543 193.091C274.734 189.306 270.619 186.892 265.982 186.24C265.132 186.044 264.283 185.979 263.434 185.979Z" fill="white"/>
</g>
</g>
</g>
</g>
<g opacity="0.81">
<path opacity="0.81" d="M174.734 240.596H161.344C160.952 240.596 160.691 240.335 160.691 239.944C160.691 239.552 160.952 239.291 161.344 239.291H174.734C175.126 239.291 175.387 239.552 175.387 239.944C175.387 240.335 175.126 240.596 174.734 240.596Z" fill="white"/>
<path opacity="0.81" d="M174.734 254.56H161.344C160.952 254.56 160.691 254.299 160.691 253.907C160.691 253.516 160.952 253.255 161.344 253.255H174.734C175.126 253.255 175.387 253.516 175.387 253.907C175.387 254.234 175.126 254.56 174.734 254.56Z" fill="white"/>
<g opacity="0.81">
<g opacity="0.81">
<g opacity="0.81">
<path opacity="0.81" d="M184.858 268.655H102.037C101.057 268.655 100.273 267.872 100.273 266.893V223.956C100.273 222.977 101.057 222.194 102.037 222.194H184.858C185.838 222.194 186.622 222.977 186.622 223.956V266.893C186.687 267.807 185.838 268.655 184.858 268.655ZM102.037 223.434C101.775 223.434 101.579 223.63 101.579 223.891V266.828C101.579 267.089 101.775 267.285 102.037 267.285H184.858C185.119 267.285 185.315 267.089 185.315 266.828V223.891C185.315 223.63 185.119 223.434 184.858 223.434H102.037Z" fill="white"/>
<path opacity="0.66" d="M184.858 268.655H102.037C101.057 268.655 100.273 267.872 100.273 266.893V223.956C100.273 222.977 101.057 222.194 102.037 222.194H184.858C185.838 222.194 186.622 222.977 186.622 223.956V266.893C186.687 267.807 185.838 268.655 184.858 268.655ZM102.037 223.434C101.775 223.434 101.579 223.63 101.579 223.891V266.828C101.579 267.089 101.775 267.285 102.037 267.285H184.858C185.119 267.285 185.315 267.089 185.315 266.828V223.891C185.315 223.63 185.119 223.434 184.858 223.434H102.037Z" fill="white"/>
</g>
</g>
<path opacity="0.81" d="M174.734 233.874H110.789C110.397 233.874 110.136 233.613 110.136 233.222C110.136 232.83 110.397 232.569 110.789 232.569H174.734C175.126 232.569 175.387 232.83 175.387 233.222C175.387 233.548 175.126 233.874 174.734 233.874Z" fill="white"/>
<path opacity="0.81" d="M174.734 247.382H110.789C110.397 247.382 110.136 247.121 110.136 246.73C110.136 246.338 110.397 246.077 110.789 246.077H174.734C175.126 246.077 175.387 246.338 175.387 246.73C175.387 247.121 175.126 247.382 174.734 247.382Z" fill="white"/>
<path opacity="0.81" d="M145.276 240.596H110.789C110.397 240.596 110.136 240.335 110.136 239.944C110.136 239.552 110.397 239.291 110.789 239.291H145.276C145.668 239.291 145.929 239.552 145.929 239.944C145.929 240.335 145.668 240.596 145.276 240.596Z" fill="white"/>
<path opacity="0.81" d="M145.276 254.56H110.789C110.397 254.56 110.136 254.299 110.136 253.907C110.136 253.516 110.397 253.255 110.789 253.255H145.276C145.668 253.255 145.929 253.516 145.929 253.907C145.929 254.234 145.668 254.56 145.276 254.56Z" fill="white"/>
<path opacity="0.81" d="M134.042 261.02H110.789C110.397 261.02 110.136 260.759 110.136 260.367C110.136 259.976 110.397 259.715 110.789 259.715H134.042C134.434 259.715 134.695 259.976 134.695 260.367C134.695 260.694 134.434 261.02 134.042 261.02Z" fill="white"/>
</g>
</g>
<g opacity="0.81">
<path opacity="0.81" d="M46.3866 198.833H31.2984C30.9065 198.833 30.6453 198.572 30.6453 198.181C30.6453 197.789 30.9065 197.528 31.2984 197.528H46.3866C46.7785 197.528 47.0398 197.789 47.0398 198.181C47.0398 198.572 46.7132 198.833 46.3866 198.833Z" fill="white"/>
<path opacity="0.81" d="M46.3866 183.172H31.2984C30.9065 183.172 30.6453 182.911 30.6453 182.52C30.6453 182.128 30.9065 181.867 31.2984 181.867H46.3866C46.7785 181.867 47.0398 182.128 47.0398 182.52C47.0398 182.911 46.7132 183.172 46.3866 183.172Z" fill="white"/>
<g opacity="0.81">
<g opacity="0.81">
<g opacity="0.81">
<path opacity="0.81" d="M113.206 218.148H19.8026C18.8229 218.148 18.0391 217.365 18.0391 216.387V167.838C18.0391 166.859 18.8229 166.076 19.8026 166.076H113.206C114.185 166.076 114.969 166.859 114.969 167.838V216.387C114.969 217.365 114.185 218.148 113.206 218.148ZM19.8026 167.381C19.5413 167.381 19.3454 167.577 19.3454 167.838V216.387C19.3454 216.648 19.5413 216.843 19.8026 216.843H113.206C113.467 216.843 113.663 216.648 113.663 216.387V167.838C113.663 167.577 113.467 167.381 113.206 167.381H19.8026Z" fill="white"/>
<path opacity="0.66" d="M113.206 218.148H19.8026C18.8229 218.148 18.0391 217.365 18.0391 216.387V167.838C18.0391 166.859 18.8229 166.076 19.8026 166.076H113.206C114.185 166.076 114.969 166.859 114.969 167.838V216.387C114.969 217.365 114.185 218.148 113.206 218.148ZM19.8026 167.381C19.5413 167.381 19.3454 167.577 19.3454 167.838V216.387C19.3454 216.648 19.5413 216.843 19.8026 216.843H113.206C113.467 216.843 113.663 216.648 113.663 216.387V167.838C113.663 167.577 113.467 167.381 113.206 167.381H19.8026Z" fill="white"/>
</g>
</g>
<path opacity="0.81" d="M103.147 206.468H31.2984C30.9065 206.468 30.6453 206.207 30.6453 205.816C30.6453 205.424 30.9065 205.163 31.2984 205.163H103.147C103.539 205.163 103.8 205.424 103.8 205.816C103.8 206.142 103.539 206.468 103.147 206.468Z" fill="white"/>
<path opacity="0.81" d="M103.147 191.264H31.2984C30.9065 191.264 30.6453 191.003 30.6453 190.612C30.6453 190.22 30.9065 189.959 31.2984 189.959H103.147C103.539 189.959 103.8 190.22 103.8 190.612C103.8 191.003 103.539 191.264 103.147 191.264Z" fill="white"/>
<path opacity="0.81" d="M103.147 198.833H64.4139C64.022 198.833 63.7607 198.572 63.7607 198.181C63.7607 197.789 64.022 197.528 64.4139 197.528H103.147C103.539 197.528 103.8 197.789 103.8 198.181C103.8 198.572 103.539 198.833 103.147 198.833Z" fill="white"/>
<path opacity="0.81" d="M103.147 183.172H64.4139C64.022 183.172 63.7607 182.911 63.7607 182.52C63.7607 182.128 64.022 181.867 64.4139 181.867H103.147C103.539 181.867 103.8 182.128 103.8 182.52C103.8 182.911 103.539 183.172 103.147 183.172Z" fill="white"/>
<path opacity="0.81" d="M103.147 175.929H77.0201C76.6282 175.929 76.3669 175.668 76.3669 175.277C76.3669 174.885 76.6282 174.624 77.0201 174.624H103.147C103.539 174.624 103.8 174.885 103.8 175.277C103.8 175.668 103.539 175.929 103.147 175.929Z" fill="white"/>
</g>
</g>
<path opacity="0.14" d="M222.024 244.51L150.567 202.16C149.979 201.834 149.783 201.051 150.175 200.529L207.85 103.301C208.176 102.714 208.96 102.518 209.483 102.91L280.939 145.259C281.527 145.586 281.723 146.369 281.331 146.891L223.656 244.118C223.33 244.706 222.546 244.901 222.024 244.51Z" fill="#3E479B"/>
<path d="M220.129 240.66L148.673 198.311C148.085 197.984 147.889 197.201 148.281 196.679L205.956 99.4517C206.282 98.8644 207.066 98.6686 207.588 99.0601L279.045 141.41C279.633 141.736 279.829 142.519 279.437 143.041L221.762 240.269C221.436 240.791 220.717 240.986 220.129 240.66Z" fill="#F7A9B4"/>
<path opacity="0.14" d="M240.704 239.42L158.993 224.347C158.34 224.216 157.882 223.564 158.013 222.911L178.523 111.85C178.653 111.197 179.306 110.74 179.96 110.871L261.671 125.945C262.324 126.075 262.781 126.728 262.651 127.38L242.141 238.507C241.945 239.159 241.357 239.551 240.704 239.42Z" fill="#3E479B"/>
<path d="M176.983 107.557L156.034 221.074L240.115 236.56L261.063 123.043L176.983 107.557Z" fill="white"/>
<path opacity="0.39" d="M238.94 236.354L157.229 221.28C156.576 221.15 156.119 220.497 156.249 219.845L176.759 108.718C176.89 108.065 177.543 107.609 178.196 107.739L259.907 122.813C260.56 122.943 261.018 123.596 260.887 124.248L240.377 235.375C240.181 236.027 239.594 236.419 238.94 236.354Z" fill="#F7A9B4"/>
<path d="M248.346 136.385C248.281 136.385 248.281 136.385 248.216 136.385L227.771 132.6C227.445 132.535 227.184 132.209 227.249 131.817C227.314 131.491 227.641 131.23 228.033 131.295L248.477 135.08C248.803 135.145 249.065 135.471 248.999 135.863C248.934 136.189 248.673 136.385 248.346 136.385Z" fill="white"/>
<path d="M247.105 142.91C247.04 142.91 247.04 142.91 246.975 142.91L226.53 139.126C226.204 139.06 225.943 138.734 226.008 138.343C226.073 138.016 226.4 137.755 226.792 137.821L247.236 141.605C247.562 141.671 247.824 141.997 247.758 142.388C247.693 142.715 247.432 142.91 247.105 142.91Z" fill="white"/>
<path d="M245.799 150.024C245.733 150.024 245.734 150.024 245.668 150.024L225.224 146.239C224.897 146.174 224.636 145.847 224.701 145.456C224.767 145.13 225.093 144.869 225.485 144.934L245.929 148.719C246.256 148.784 246.517 149.11 246.452 149.502C246.387 149.828 246.125 150.024 245.799 150.024Z" fill="white"/>
<path opacity="0.14" d="M214.185 156.027L179.11 149.567C178.392 149.436 177.935 148.784 178.065 148.066L184.989 110.415C185.119 109.697 185.773 109.24 186.491 109.371L221.566 115.831C222.285 115.961 222.742 116.614 222.611 117.332L215.688 154.983C215.557 155.701 214.904 156.158 214.185 156.027Z" fill="#3E479B"/>
<path d="M212.879 153.873L179.502 147.739C178.784 147.609 178.326 146.956 178.457 146.239L185.054 110.61C185.185 109.892 185.838 109.436 186.556 109.566L219.933 115.7C220.652 115.83 221.109 116.483 220.978 117.201L214.381 152.829C214.251 153.547 213.598 154.004 212.879 153.873Z" fill="#599AF2"/>
<path opacity="0.07" d="M220.39 120.528L184.401 113.873L185.054 110.479C185.185 109.762 185.838 109.305 186.556 109.435L220.064 115.634C220.717 115.765 221.174 116.417 221.044 117.07L220.39 120.528Z" fill="#ECF1F7"/>
<path d="M194.46 131.622C194.198 131.622 193.937 131.622 193.676 131.557L193.153 131.491C190.541 131.035 188.777 128.49 189.234 125.814L190.475 119.028C190.606 118.506 191.063 118.114 191.586 118.245C192.108 118.31 192.5 118.832 192.369 119.354L191.128 126.141C190.867 127.707 191.912 129.273 193.48 129.534L194.002 129.599C195.243 129.86 196.419 129.012 196.615 127.772L199.881 110.545C200.142 109.305 199.293 108.065 197.987 107.804L197.138 107.674C195.766 107.413 194.46 108.326 194.264 109.697L194.198 110.154C194.068 110.676 193.611 111.067 193.088 110.937C192.565 110.871 192.174 110.349 192.304 109.827L192.369 109.371C192.827 106.956 195.113 105.39 197.53 105.782L198.379 105.912C200.73 106.369 202.232 108.587 201.84 110.937L198.64 128.163C198.248 130.186 196.484 131.622 194.46 131.622Z" fill="#3E479B"/>
<path d="M197.856 117.136C197.856 117.136 197.791 117.136 197.856 117.136L184.727 114.721C184.532 114.721 184.401 114.526 184.466 114.33C184.532 114.134 184.662 114.003 184.858 114.069L197.921 116.483C198.117 116.483 198.248 116.679 198.183 116.875C198.117 117.07 197.987 117.136 197.856 117.136Z" fill="white"/>
<path d="M237.765 184.607C237.699 184.607 237.699 184.607 237.634 184.607L175.126 173.123C174.799 173.057 174.538 172.731 174.603 172.34C174.669 172.013 174.995 171.752 175.387 171.818L237.895 183.302C238.222 183.368 238.483 183.694 238.418 184.085C238.353 184.346 238.091 184.607 237.765 184.607Z" fill="white"/>
<path d="M233.323 208.816C233.258 208.816 233.258 208.816 233.193 208.816L170.684 197.332C170.358 197.266 170.097 196.94 170.162 196.549C170.227 196.222 170.554 195.961 170.946 196.027L233.454 207.511C233.78 207.577 234.042 207.903 233.976 208.294C233.911 208.555 233.65 208.816 233.323 208.816Z" fill="white"/>
<path d="M202.559 190.611C202.494 190.611 202.494 190.611 202.428 190.611L172.905 185.195C172.579 185.13 172.317 184.804 172.383 184.412C172.448 184.086 172.775 183.825 173.166 183.89L202.69 189.306C203.016 189.371 203.277 189.697 203.212 190.089C203.147 190.415 202.886 190.611 202.559 190.611Z" fill="white"/>
<path d="M206.674 168.555C206.609 168.555 206.609 168.555 206.543 168.555L177.02 163.139C176.694 163.074 176.432 162.748 176.498 162.356C176.563 162.03 176.89 161.769 177.281 161.834L206.805 167.25C207.131 167.316 207.392 167.642 207.327 168.033C207.262 168.36 207.001 168.555 206.674 168.555Z" fill="white"/>
<path d="M235.544 196.615C235.479 196.615 235.479 196.615 235.413 196.615L207.262 191.46C206.935 191.394 206.674 191.068 206.739 190.677C206.805 190.35 207.131 190.089 207.523 190.155L235.675 195.31C236.001 195.375 236.263 195.701 236.197 196.093C236.132 196.354 235.871 196.615 235.544 196.615Z" fill="white"/>
<path d="M228.947 68.3261H194.198C193.023 68.3261 192.043 67.3473 192.043 66.1728V54.5577C192.043 53.3831 193.023 52.4043 194.198 52.4043H228.947C230.123 52.4043 231.102 53.3831 231.102 54.5577V66.1728C231.102 67.3473 230.123 68.3261 228.947 68.3261Z" fill="#87E8DE"/>
<path d="M255.139 85.7483H206.543C205.368 85.7483 204.388 84.7695 204.388 83.5949V66.3028C204.388 65.1282 205.368 64.1494 206.543 64.1494H255.139C256.315 64.1494 257.295 65.1282 257.295 66.3028V83.5949C257.295 84.7695 256.315 85.7483 255.139 85.7483Z" fill="#FF85C0"/>
<path d="M217.255 81.1807H271.076C272.709 81.1807 274.015 82.4857 274.015 84.1171V100.561C274.015 102.192 272.709 103.497 271.076 103.497H217.255C215.622 103.497 214.316 102.192 214.316 100.561V84.1171C214.316 82.4857 215.688 81.1807 217.255 81.1807Z" fill="white"/>
<path opacity="0.74" d="M217.255 81.1807H271.076C272.709 81.1807 274.015 82.4857 274.015 84.1171V100.561C274.015 102.192 272.709 103.497 271.076 103.497H217.255C215.622 103.497 214.316 102.192 214.316 100.561V84.1171C214.316 82.4857 215.688 81.1807 217.255 81.1807Z" fill="#FFD666"/>
<path d="M255.074 94.9488C253.637 94.9488 252.461 93.7742 252.461 92.3387C252.461 90.9031 253.637 89.7285 255.074 89.7285C256.511 89.7285 257.686 90.9031 257.686 92.3387C257.686 93.8395 256.511 94.9488 255.074 94.9488ZM255.074 90.4463C254.029 90.4463 253.114 91.2946 253.114 92.4039C253.114 93.448 253.963 94.3615 255.074 94.3615C256.184 94.3615 257.033 93.5132 257.033 92.4039C257.033 91.2946 256.184 90.4463 255.074 90.4463Z" fill="white"/>
<path d="M244.362 94.9488C242.925 94.9488 241.749 93.7742 241.749 92.3387C241.749 90.9031 242.925 89.7285 244.362 89.7285C245.799 89.7285 246.974 90.9031 246.974 92.3387C246.974 93.8395 245.799 94.9488 244.362 94.9488ZM244.362 90.4463C243.317 90.4463 242.402 91.2946 242.402 92.4039C242.402 93.448 243.251 94.3615 244.362 94.3615C245.407 94.3615 246.321 93.5132 246.321 92.4039C246.321 91.2946 245.472 90.4463 244.362 90.4463Z" fill="white"/>
<path d="M234.433 94.9488C232.996 94.9488 231.821 93.7742 231.821 92.3387C231.821 90.9031 232.996 89.7285 234.433 89.7285C235.87 89.7285 237.046 90.9031 237.046 92.3387C236.981 93.8395 235.87 94.9488 234.433 94.9488ZM234.433 90.4463C233.388 90.4463 232.474 91.2946 232.474 92.4039C232.474 93.448 233.323 94.3615 234.433 94.3615C235.479 94.3615 236.393 93.5132 236.393 92.4039C236.328 91.2946 235.479 90.4463 234.433 90.4463Z" fill="white"/>
<path d="M86.4265 53.9707H169.771C171.469 53.9707 172.841 55.341 172.841 57.0376V179.714C172.841 185.522 168.138 190.22 162.325 190.22H104.454C92.1091 190.22 82.1156 180.236 82.1156 167.903V58.2774C82.0503 55.8631 84.0098 53.9707 86.4265 53.9707Z" fill="white"/>
<path opacity="0.39" d="M83.1597 53.9707H171.207C172.121 53.9707 172.84 54.6885 172.84 55.602V180.171C172.84 185.717 168.333 190.155 162.846 190.155H102.494C91.259 190.155 82.1147 181.019 82.1147 169.796V55.0148C82.0494 54.4275 82.5719 53.9707 83.1597 53.9707Z" fill="#8594A8"/>
<path opacity="0.39" d="M90.8672 53.9707H171.533C172.252 53.9707 172.84 54.558 172.84 55.2758V180.562C172.84 185.913 168.529 190.22 163.173 190.22H110.201C99.1624 190.22 90.1487 181.28 90.1487 170.187V54.6885C90.1487 54.297 90.4753 53.9707 90.8672 53.9707Z" fill="#2D415C"/>
<path d="M102.82 190.154H175.714C184.074 190.154 190.932 183.368 190.932 174.95V169.208H117.19V174.95C117.19 183.107 110.789 189.698 102.82 190.154Z" fill="#00474F"/>
<path opacity="0.28" d="M112.487 190.154H177.347C184.793 190.154 190.867 183.368 190.867 174.95V169.208H125.224V174.95C125.224 183.107 119.607 189.698 112.487 190.154Z" fill="#505965"/>
<path d="M159.058 153.482H106.674C106.282 153.482 106.021 153.221 106.021 152.829C106.021 152.438 106.282 152.177 106.674 152.177H159.058C159.45 152.177 159.711 152.438 159.711 152.829C159.711 153.221 159.384 153.482 159.058 153.482Z" fill="white"/>
<path d="M160.103 131.492H105.629C105.237 131.492 104.976 131.231 104.976 130.839C104.976 130.448 105.237 130.187 105.629 130.187H160.103C160.495 130.187 160.756 130.448 160.756 130.839C160.756 131.165 160.495 131.492 160.103 131.492Z" fill="white"/>
<path d="M132.866 142.454H105.041C104.649 142.454 104.388 142.193 104.388 141.802C104.388 141.41 104.649 141.149 105.041 141.149H132.866C133.258 141.149 133.519 141.41 133.519 141.802C133.519 142.193 133.192 142.454 132.866 142.454Z" fill="white"/>
<path d="M130.71 142.454H107.131C106.739 142.454 106.478 142.193 106.478 141.802C106.478 141.41 106.739 141.149 107.131 141.149H130.776C131.168 141.149 131.429 141.41 131.429 141.802C131.363 142.193 131.102 142.454 130.71 142.454Z" fill="white"/>
<path d="M141.88 107.935H106.021C105.629 107.935 105.367 107.674 105.367 107.282C105.367 106.891 105.629 106.63 106.021 106.63H141.88C142.271 106.63 142.533 106.891 142.533 107.282C142.533 107.609 142.271 107.935 141.88 107.935Z" fill="white"/>
<path d="M158.535 107.935H147.627C147.235 107.935 146.974 107.674 146.974 107.282C146.974 106.891 147.235 106.63 147.627 106.63H158.535C158.927 106.63 159.188 106.891 159.188 107.282C159.188 107.609 158.862 107.935 158.535 107.935Z" fill="white"/>
<path d="M160.103 118.898H121.305C120.913 118.898 120.652 118.637 120.652 118.245C120.652 117.854 120.913 117.593 121.305 117.593H160.103C160.495 117.593 160.756 117.854 160.756 118.245C160.756 118.637 160.495 118.898 160.103 118.898Z" fill="white"/>
<path d="M117.451 118.898H105.629C105.237 118.898 104.976 118.637 104.976 118.245C104.976 117.854 105.237 117.593 105.629 117.593H117.451C117.843 117.593 118.104 117.854 118.104 118.245C118.104 118.637 117.843 118.898 117.451 118.898Z" fill="white"/>
<path d="M159.058 98.6039H106.674C106.282 98.6039 106.021 98.3429 106.021 97.9514C106.021 97.5598 106.282 97.2988 106.674 97.2988H159.058C159.45 97.2988 159.711 97.5598 159.711 97.9514C159.711 98.2776 159.384 98.6039 159.058 98.6039Z" fill="white"/>
<path d="M159.058 76.5482H106.674C106.282 76.5482 106.021 76.2872 106.021 75.8957C106.021 75.5042 106.282 75.2432 106.674 75.2432H159.058C159.45 75.2432 159.711 75.5042 159.711 75.8957C159.711 76.2872 159.384 76.5482 159.058 76.5482Z" fill="white"/>
<path d="M125.877 87.5765H106.021C105.629 87.5765 105.367 87.3155 105.367 86.924C105.367 86.5325 105.629 86.2715 106.021 86.2715H125.877C126.269 86.2715 126.53 86.5325 126.53 86.924C126.53 87.2503 126.203 87.5765 125.877 87.5765Z" fill="white"/>
<path d="M158.666 87.5765H135.021C134.629 87.5765 134.368 87.3155 134.368 86.924C134.368 86.5325 134.629 86.2715 135.021 86.2715H158.666C159.058 86.2715 159.319 86.5325 159.319 86.924C159.319 87.2503 158.993 87.5765 158.666 87.5765Z" fill="white"/>
<path opacity="0.21" d="M229.124 163.814C245.27 147.683 245.27 121.53 229.124 105.399C212.978 89.2687 186.799 89.2687 170.653 105.399C154.507 121.53 154.507 147.683 170.653 163.814C186.799 179.944 212.978 179.944 229.124 163.814Z" fill="white"/>
<path opacity="0.76" d="M167.484 137.561C166.047 137.561 164.871 136.386 164.871 134.951C164.871 114.135 181.853 97.1689 202.689 97.1689C204.126 97.1689 205.302 98.3435 205.302 99.7791C205.302 101.215 204.126 102.389 202.689 102.389C184.727 102.389 170.096 117.006 170.096 134.951C170.096 136.386 168.921 137.561 167.484 137.561Z" fill="white"/>
<path opacity="0.58" d="M199.881 177.235C176.367 177.235 157.229 158.115 157.229 134.624C157.229 111.133 176.367 92.0137 199.881 92.0137C223.395 92.0137 242.533 111.133 242.533 134.624C242.533 158.115 223.395 177.235 199.881 177.235ZM199.881 94.6238C177.804 94.6238 159.842 112.569 159.842 134.624C159.842 156.68 177.804 174.625 199.881 174.625C221.958 174.625 239.92 156.68 239.92 134.624C239.92 112.569 221.958 94.6238 199.881 94.6238Z" fill="#3E479B"/>
<path d="M237.83 164.184C237.895 164.119 237.961 164.054 238.026 164.054C244.296 155.897 248.085 145.718 248.085 134.625C248.085 108.001 226.465 86.4023 199.816 86.4023C173.166 86.4023 151.547 108.001 151.547 134.625C151.547 161.248 173.166 182.847 199.816 182.847C210.854 182.847 221.044 179.128 229.143 172.863L234.695 167.317L237.83 164.184ZM199.881 175.93C177.02 175.93 158.536 157.463 158.536 134.625C158.536 111.786 177.02 93.3192 199.881 93.3192C222.742 93.3192 241.227 111.786 241.227 134.625C241.227 157.398 222.677 175.93 199.881 175.93Z" fill="#2D415C"/>
<path d="M199.881 183.434C172.905 183.434 150.959 161.509 150.959 134.559C150.959 107.61 172.905 85.6846 199.881 85.6846C226.857 85.6846 248.803 107.61 248.803 134.559C248.803 145.457 245.276 155.767 238.614 164.38L238.483 164.511C238.418 164.576 238.353 164.576 238.353 164.641L229.665 173.32C220.978 179.976 210.724 183.434 199.881 183.434ZM199.881 87.0549C173.624 87.0549 152.265 108.393 152.265 134.625C152.265 160.857 173.624 182.194 199.881 182.194C210.397 182.194 220.456 178.801 228.816 172.406L237.438 163.793C237.504 163.728 237.569 163.662 237.634 163.597C244.1 155.245 247.497 145.196 247.497 134.625C247.432 108.393 226.073 87.0549 199.881 87.0549ZM199.881 176.583C176.694 176.583 157.882 157.79 157.882 134.625C157.882 111.46 176.694 92.6667 199.881 92.6667C223.068 92.6667 241.88 111.46 241.88 134.625C241.88 157.79 223.003 176.583 199.881 176.583ZM199.881 93.9718C177.477 93.9718 159.189 112.177 159.189 134.625C159.189 157.007 177.412 175.278 199.881 175.278C222.285 175.278 240.573 157.072 240.573 134.625C240.573 112.177 222.285 93.9718 199.881 93.9718Z" fill="#2D415C"/>
<path d="M236.654 171.753L234.76 169.861C234.042 169.143 234.042 167.969 234.76 167.251L229.208 172.798L229.143 172.863C228.424 173.581 228.424 174.755 229.143 175.473L231.429 177.757C232.147 176.517 234.368 174.103 236.654 171.753Z" fill="#ADC1DB"/>
<path d="M234.825 167.252C234.107 167.969 234.107 169.144 234.825 169.862L236.72 171.754C239.006 169.47 241.357 167.317 242.663 166.403L240.508 164.25C239.855 163.597 238.81 163.532 238.091 164.119C238.026 164.185 237.961 164.25 237.895 164.25L234.825 167.252Z" fill="#4C65BA"/>
<path opacity="0.43" d="M234.825 167.252C234.107 167.969 234.107 169.144 234.825 169.862L236.72 171.754C239.006 169.47 241.357 167.317 242.663 166.403L240.508 164.25C239.855 163.597 238.81 163.532 238.091 164.119C238.026 164.185 237.961 164.25 237.895 164.25L234.825 167.252Z" fill="#ADC1DB"/>
<path d="M277.673 200.269L243.709 165.946C243.578 165.816 243.186 166.011 242.664 166.338C241.357 167.251 238.941 169.405 236.72 171.688C234.368 174.038 232.213 176.517 231.429 177.757C231.168 178.149 231.103 178.475 231.168 178.54L265.133 212.863C268.594 216.322 274.212 216.322 277.608 212.863C281.07 209.405 281.07 203.793 277.673 200.269Z" fill="#8594A8"/>
<path opacity="0.14" d="M277.673 200.269L243.709 165.946C243.251 165.489 239.398 168.948 236.066 172.341C233.258 175.277 274.211 216.322 277.673 212.863C281.07 209.405 281.07 203.793 277.673 200.269Z" fill="#2D415C"/>
<path d="M152.2 157.659H40.5079C33.9762 157.659 28.6855 152.373 28.6855 145.848C28.6855 139.323 33.9762 134.037 40.5079 134.037H152.2C158.731 134.037 164.022 139.323 164.022 145.848C164.022 152.373 158.731 157.659 152.2 157.659Z" fill="white"/>
<path d="M152.2 157.659H134.042L133.976 134.037H152.2C158.731 134.037 164.022 139.323 164.022 145.848C164.022 152.373 158.731 157.659 152.2 157.659Z" fill="#40A9FF"/>
<path d="M147.627 150.024C144.753 150.024 142.467 147.74 142.467 144.869C142.467 141.998 144.753 139.714 147.627 139.714C150.501 139.714 152.787 141.998 152.787 144.869C152.787 146.239 152.265 147.544 151.285 148.523C150.305 149.502 148.999 150.024 147.627 150.024ZM147.627 141.019C145.472 141.019 143.774 142.781 143.774 144.869C143.774 147.022 145.537 148.719 147.627 148.719C148.672 148.719 149.652 148.327 150.371 147.61C151.089 146.892 151.481 145.913 151.481 144.869C151.481 142.716 149.717 141.019 147.627 141.019Z" fill="white"/>
<path d="M154.878 152.83C154.682 152.83 154.551 152.765 154.42 152.634L150.305 148.523C150.044 148.262 150.044 147.871 150.305 147.61C150.567 147.349 150.958 147.349 151.22 147.61L155.335 151.721C155.596 151.982 155.596 152.373 155.335 152.634C155.204 152.765 155.008 152.83 154.878 152.83Z" fill="white"/>
<path d="M153.767 182.063H98.1827C94.2637 182.063 91.1285 178.931 91.1285 175.015V170.382C91.1285 166.467 87.9933 163.335 84.0743 163.335H58.4048C54.4858 163.335 51.3506 166.467 51.3506 170.382V188.588V209.534V243.662C51.3506 247.316 54.2898 250.253 57.9476 250.253H153.833C157.49 250.253 160.43 247.316 160.43 243.662V188.588C160.364 184.999 157.425 182.063 153.767 182.063Z" fill="#FFD6E7"/>
<path opacity="0.36" d="M147.693 182.063H92.1081C88.1891 182.063 85.0539 178.931 85.0539 175.015V170.382C85.0539 166.467 81.9187 163.335 77.9997 163.335H52.2649C48.3459 163.335 45.2107 166.467 45.2107 170.382V188.588V209.534V243.662C45.2107 247.316 48.15 250.253 51.8077 250.253H147.693C151.35 250.253 154.29 247.316 154.29 243.662V188.588C154.224 184.999 151.285 182.063 147.693 182.063Z" fill="white"/>
<path d="M133.584 182.063H85.6419C82.3107 182.063 79.5674 178.931 79.5674 175.015V170.382C79.5674 166.467 76.8241 163.335 73.493 163.335H51.3506C47.9541 163.335 45.2761 166.467 45.2761 170.382V188.588V209.534V243.662C45.2761 247.316 47.8235 250.253 50.9587 250.253H133.65C136.785 250.253 139.332 247.316 139.332 243.662V188.588C139.267 184.999 136.72 182.063 133.584 182.063Z" fill="#FFF0F6"/>
<path d="M50.3707 189.371C49.9788 189.371 49.7175 189.11 49.7175 188.718V172.731C49.7175 170.251 51.7424 168.229 54.2244 168.229H73.1663C73.5581 168.229 73.8194 168.49 73.8194 168.881C73.8194 169.273 73.5581 169.534 73.1663 169.534H54.2244C52.4608 169.534 51.0239 170.969 51.0239 172.731V188.718C51.0239 189.11 50.6973 189.371 50.3707 189.371Z" fill="white"/>
</g>
<defs>
<clipPath id="clip0">
<rect width="300" height="300" fill="white"/>
</clipPath>
</defs>
</svg>
