<svg width="22" height="16" viewBox="0 0 22 16" fill="none" xmlns="http://www.w3.org/2000/svg">
<path d="M-5.52197 0H27.566V16.0427H-5.52197V0Z" fill="#012169"/>
<path d="M-5.52197 0V1.79227L23.8662 16.0427H27.566V14.2504L-1.82219 0H-5.52197ZM27.566 0V1.79227L-1.82219 16.0427H-5.52197V14.2504L23.8662 0H27.566Z" fill="white"/>
<path d="M8.26577 0V16.0427H13.7783V0H8.26577ZM-5.52197 5.3486V10.6941H27.566V5.3486H-5.52197Z" fill="white"/>
<path d="M-5.52197 6.41706V9.6256H27.566V6.41706H-5.52197ZM9.36762 0V16.0427H12.6764V0H9.36762ZM-5.52197 16.0427L5.50628 10.6941H7.97496L-3.05653 16.0427H-5.52197ZM-5.52197 0L5.50628 5.3486H3.04084L-5.52197 1.19693V0ZM14.0723 5.3486L25.1006 0H27.566L16.5378 5.3486H14.0723ZM27.566 16.0427L16.5378 10.6941H19.0032L27.566 14.8457V16.0427Z" fill="#C8102E"/>
</svg>
