<svg width="18" height="18" viewBox="0 0 18 18" fill="none" xmlns="http://www.w3.org/2000/svg">
<path d="M6.16463 2.64568C6.14587 2.49099 5.95603 2.42537 5.84587 2.53552L4.82166 3.55974L1.68806 0.428492C1.65282 0.393598 1.60523 0.374023 1.55564 0.374023C1.50605 0.374023 1.45846 0.393598 1.42322 0.428492L0.429469 1.4199C0.394575 1.45514 0.375 1.50273 0.375 1.55232C0.375 1.60191 0.394575 1.6495 0.429469 1.68474L3.56306 4.81834L2.53416 5.84724C2.50937 5.87215 2.49208 5.90351 2.48423 5.93776C2.47639 5.97201 2.47832 6.00777 2.48979 6.04098C2.50127 6.07419 2.52184 6.10351 2.54915 6.12561C2.57647 6.14771 2.60944 6.1617 2.64431 6.16599L6.399 6.60896C6.51853 6.62302 6.62166 6.52224 6.60759 6.40037L6.16463 2.64568ZM6.40134 11.3926L2.64431 11.8355C2.48963 11.8543 2.424 12.0441 2.53416 12.1543L3.56306 13.1832L0.429469 16.3121C0.394575 16.3473 0.375 16.3949 0.375 16.4445C0.375 16.4941 0.394575 16.5417 0.429469 16.5769L1.42322 17.5683C1.49588 17.641 1.61541 17.641 1.68806 17.5683L4.82166 14.4371L5.84587 15.4613C5.87078 15.4861 5.90214 15.5034 5.93639 15.5112C5.97064 15.5191 6.00641 15.5171 6.03962 15.5057C6.07282 15.4942 6.10215 15.4736 6.12425 15.4463C6.14635 15.419 6.16034 15.386 6.16463 15.3511L6.60759 11.5988C6.62166 11.4793 6.52088 11.3785 6.40134 11.3926ZM11.5998 6.60662L15.3568 6.16365C15.5115 6.1449 15.5771 5.95505 15.467 5.8449L14.4381 4.81834L17.5717 1.68709C17.6443 1.61443 17.6443 1.4949 17.5717 1.42224L16.5779 0.430836C16.5427 0.395942 16.4951 0.376367 16.4455 0.376367C16.3959 0.376367 16.3483 0.395942 16.3131 0.430836L13.1795 3.55974L12.1552 2.53552C12.1303 2.51074 12.099 2.49344 12.0647 2.4856C12.0305 2.47776 11.9947 2.47969 11.9615 2.49116C11.9283 2.50264 11.899 2.5232 11.8769 2.55052C11.8548 2.57784 11.8408 2.61081 11.8365 2.64568L11.3935 6.39802C11.3795 6.5199 11.4803 6.62068 11.5998 6.60662ZM14.4381 13.1808L15.467 12.1519C15.4918 12.127 15.509 12.0957 15.5169 12.0614C15.5247 12.0272 15.5228 11.9914 15.5113 11.9582C15.4999 11.925 15.4793 11.8957 15.452 11.8736C15.4247 11.8515 15.3917 11.8375 15.3568 11.8332L11.6021 11.3902C11.4826 11.3761 11.3795 11.4769 11.3935 11.5988L11.8365 15.3535C11.8552 15.5082 12.0451 15.5738 12.1552 15.4636L13.1795 14.4394L16.3131 17.5707C16.3857 17.6433 16.5052 17.6433 16.5779 17.5707L17.5717 16.5793C17.6443 16.5066 17.6443 16.3871 17.5717 16.3144L14.4381 13.1808Z" fill="#2D415C"/>
</svg>
