<svg width="24" height="24" viewBox="0 0 24 24" fill="none" xmlns="http://www.w3.org/2000/svg">
<path d="M6.79682 5.5395L7.82573 4.51059C7.85051 4.48568 7.86781 4.45432 7.87565 4.42007C7.88349 4.38582 7.88157 4.35006 7.87009 4.31685C7.85861 4.28364 7.83805 4.25432 7.81073 4.23222C7.78341 4.21012 7.75045 4.19613 7.71557 4.19184L3.96088 3.74887C3.84135 3.73481 3.73823 3.83559 3.75229 3.95747L4.19526 7.71215C4.21401 7.86684 4.40385 7.93247 4.51401 7.82231L5.53823 6.79809L8.67182 9.92934C8.74448 10.002 8.86401 10.002 8.93667 9.92934L9.93042 8.93793C10.0031 8.86528 10.0031 8.74575 9.93042 8.67309L6.79682 5.5395ZM15.0632 9.92934C15.1359 10.002 15.2554 10.002 15.3281 9.92934L18.4617 6.79809L19.4859 7.82231C19.5108 7.84709 19.5422 7.86439 19.5764 7.87223C19.6107 7.88007 19.6464 7.87815 19.6796 7.86667C19.7128 7.85519 19.7422 7.83463 19.7643 7.80731C19.7864 7.78 19.8003 7.74703 19.8046 7.71215L20.2476 3.95981C20.2617 3.84028 20.1609 3.73715 20.039 3.75122L16.2843 4.19418C16.1296 4.21293 16.064 4.40278 16.1742 4.51294L17.2031 5.54184L14.0695 8.67075C14.0346 8.70599 14.015 8.75358 14.015 8.80317C14.015 8.85276 14.0346 8.90035 14.0695 8.93559L15.0632 9.92934ZM19.8046 16.2856C19.7859 16.1309 19.596 16.0653 19.4859 16.1754L18.4617 17.1997L15.3281 14.0684C15.2928 14.0335 15.2452 14.0139 15.1956 14.0139C15.1461 14.0139 15.0985 14.0335 15.0632 14.0684L14.0695 15.0598C14.0346 15.095 14.015 15.1426 14.015 15.1922C14.015 15.2418 14.0346 15.2894 14.0695 15.3247L17.2031 18.4582L16.1742 19.4872C16.1494 19.5121 16.1321 19.5434 16.1242 19.5777C16.1164 19.6119 16.1183 19.6477 16.1298 19.6809C16.1413 19.7141 16.1618 19.7434 16.1892 19.7655C16.2165 19.7876 16.2494 19.8016 16.2843 19.8059L20.039 20.2489C20.1585 20.2629 20.2617 20.1622 20.2476 20.0403L19.8046 16.2856ZM8.93667 14.0684C8.90142 14.0335 8.85384 14.0139 8.80424 14.0139C8.75465 14.0139 8.70706 14.0335 8.67182 14.0684L5.53823 17.1997L4.51401 16.1754C4.4891 16.1507 4.45774 16.1334 4.42349 16.1255C4.38924 16.1177 4.35348 16.1196 4.32027 16.1311C4.28706 16.1425 4.25774 16.1631 4.23564 16.1904C4.21354 16.2177 4.19955 16.2507 4.19526 16.2856L3.75229 20.0379C3.73823 20.1575 3.83901 20.2606 3.96088 20.2465L7.71557 19.8036C7.87026 19.7848 7.93588 19.595 7.82573 19.4848L6.79682 18.4582L9.93042 15.327C10.0031 15.2543 10.0031 15.1348 9.93042 15.0622L8.93667 14.0684Z" fill="#13C2C2"/>
</svg>
