<svg width="180" height="22" viewBox="0 0 180 22" fill="none" xmlns="http://www.w3.org/2000/svg">
<g filter="url(#filter0_i)">
<mask id="path-2-inside-1" fill="white">
<rect width="180" height="22" rx="4"/>
</mask>
<rect width="180" height="22" rx="4" stroke="#FAFAFA" stroke-width="22" mask="url(#path-2-inside-1)"/>
</g>
<mask id="path-3-inside-2" fill="white">
<rect width="177" height="22" rx="4"/>
</mask>
<rect width="177" height="22" rx="4" stroke="url(#paint0_linear)" stroke-width="22" mask="url(#path-3-inside-2)"/>
<path d="M87.28 10.274C87.28 10.9927 87.2147 11.702 87.084 12.402C86.9627 13.0927 86.734 13.7227 86.398 14.292C86.0713 14.852 85.6047 15.3 84.998 15.636C84.4007 15.972 83.6307 16.14 82.688 16.14C82.5013 16.14 82.282 16.126 82.03 16.098C81.7873 16.0793 81.5867 16.0467 81.428 16V14.95C81.792 15.0713 82.2027 15.132 82.66 15.132C83.3133 15.132 83.85 15.0247 84.27 14.81C84.6993 14.5953 85.04 14.306 85.292 13.942C85.544 13.5687 85.726 13.1393 85.838 12.654C85.95 12.1593 86.0153 11.6413 86.034 11.1H85.95C85.7447 11.4173 85.446 11.6927 85.054 11.926C84.6713 12.15 84.1767 12.262 83.57 12.262C82.7113 12.262 82.016 12.0007 81.484 11.478C80.9613 10.946 80.7 10.1993 80.7 9.238C80.7 8.538 80.8307 7.936 81.092 7.432C81.3627 6.928 81.736 6.54067 82.212 6.27C82.688 5.99933 83.248 5.864 83.892 5.864C84.5267 5.864 85.1007 6.02733 85.614 6.354C86.1273 6.67133 86.5333 7.15667 86.832 7.81C87.1307 8.454 87.28 9.27533 87.28 10.274ZM83.892 6.9C83.3133 6.9 82.8373 7.09133 82.464 7.474C82.1 7.85667 81.918 8.44 81.918 9.224C81.918 9.868 82.072 10.3767 82.38 10.75C82.6973 11.114 83.1827 11.296 83.836 11.296C84.284 11.296 84.6713 11.2073 84.998 11.03C85.3247 10.8433 85.5767 10.61 85.754 10.33C85.9407 10.05 86.034 9.76067 86.034 9.462C86.034 9.06067 85.9547 8.664 85.796 8.272C85.6373 7.88 85.3993 7.55333 85.082 7.292C84.7647 7.03067 84.368 6.9 83.892 6.9ZM95.0517 10.274C95.0517 10.9927 94.9864 11.702 94.8557 12.402C94.7344 13.0927 94.5057 13.7227 94.1697 14.292C93.8431 14.852 93.3764 15.3 92.7697 15.636C92.1724 15.972 91.4024 16.14 90.4597 16.14C90.2731 16.14 90.0537 16.126 89.8017 16.098C89.5591 16.0793 89.3584 16.0467 89.1997 16V14.95C89.5637 15.0713 89.9744 15.132 90.4317 15.132C91.0851 15.132 91.6217 15.0247 92.0417 14.81C92.4711 14.5953 92.8117 14.306 93.0637 13.942C93.3157 13.5687 93.4977 13.1393 93.6097 12.654C93.7217 12.1593 93.7871 11.6413 93.8057 11.1H93.7217C93.5164 11.4173 93.2177 11.6927 92.8257 11.926C92.4431 12.15 91.9484 12.262 91.3417 12.262C90.4831 12.262 89.7877 12.0007 89.2557 11.478C88.7331 10.946 88.4717 10.1993 88.4717 9.238C88.4717 8.538 88.6024 7.936 88.8637 7.432C89.1344 6.928 89.5077 6.54067 89.9837 6.27C90.4597 5.99933 91.0197 5.864 91.6637 5.864C92.2984 5.864 92.8724 6.02733 93.3857 6.354C93.8991 6.67133 94.3051 7.15667 94.6037 7.81C94.9024 8.454 95.0517 9.27533 95.0517 10.274ZM91.6637 6.9C91.0851 6.9 90.6091 7.09133 90.2357 7.474C89.8717 7.85667 89.6897 8.44 89.6897 9.224C89.6897 9.868 89.8437 10.3767 90.1517 10.75C90.4691 11.114 90.9544 11.296 91.6077 11.296C92.0557 11.296 92.4431 11.2073 92.7697 11.03C93.0964 10.8433 93.3484 10.61 93.5257 10.33C93.7124 10.05 93.8057 9.76067 93.8057 9.462C93.8057 9.06067 93.7264 8.664 93.5677 8.272C93.4091 7.88 93.1711 7.55333 92.8537 7.292C92.5364 7.03067 92.1397 6.9 91.6637 6.9Z" fill="#2D415C"/>
<defs>
<filter id="filter0_i" x="0" y="0" width="180" height="23" filterUnits="userSpaceOnUse" color-interpolation-filters="sRGB">
<feFlood flood-opacity="0" result="BackgroundImageFix"/>
<feBlend mode="normal" in="SourceGraphic" in2="BackgroundImageFix" result="shape"/>
<feColorMatrix in="SourceAlpha" type="matrix" values="0 0 0 0 0 0 0 0 0 0 0 0 0 0 0 0 0 0 127 0" result="hardAlpha"/>
<feOffset dy="1"/>
<feGaussianBlur stdDeviation="2"/>
<feComposite in2="hardAlpha" operator="arithmetic" k2="-1" k3="1"/>
<feColorMatrix type="matrix" values="0 0 0 0 0.176471 0 0 0 0 0.254902 0 0 0 0 0.360784 0 0 0 0.12 0"/>
<feBlend mode="normal" in2="shape" result="effect1_innerShadow"/>
</filter>
<linearGradient id="paint0_linear" x1="-8.24221e-08" y1="11" x2="177" y2="11" gradientUnits="userSpaceOnUse">
<stop stop-color="#F6FFED"/>
<stop offset="1" stop-color="#52C41A"/>
</linearGradient>
</defs>
</svg>
