<svg width="53" height="52" viewBox="0 0 53 52" fill="none" xmlns="http://www.w3.org/2000/svg">
<path d="M24.4549 51.9541C20.435 51.7147 16.5256 50.5449 13.0349 48.5368C9.54424 46.5286 6.56777 43.7371 4.34013 40.3823C2.1125 37.0274 0.694609 33.201 0.19825 29.2046C-0.298108 25.2083 0.140634 21.1512 1.47989 17.3534L7.36471 19.4286C6.34688 22.3149 6.01344 25.3983 6.39067 28.4355C6.7679 31.4728 7.8455 34.3809 9.5385 36.9305C11.2315 39.4802 13.4936 41.6018 16.1465 43.128C18.7994 44.6541 21.7706 45.5432 24.8258 45.7251L24.4549 51.9541Z" fill="#C3BDF3" stroke="white" stroke-width="2"/>
<path d="M27.271 0.0310852C30.693 0.198569 34.0481 1.04072 37.1436 2.50914C40.239 3.97755 43.0137 6.04327 45.3082 8.58755C47.6027 11.1318 49.3717 14.1045 50.5135 17.3347C51.6554 20.5649 52.1475 23.9889 51.9617 27.41C51.7759 30.831 50.9158 34.1816 49.4309 37.2691C47.9459 40.3567 45.8654 43.1203 43.3089 45.4011C40.7523 47.6819 37.7702 49.435 34.534 50.5596C31.2977 51.6841 27.8711 52.1579 24.4511 51.9538L24.8228 45.7249C27.422 45.88 30.0262 45.5199 32.4858 44.6653C34.9454 43.8106 37.2118 42.4783 39.1547 40.7449C41.0977 39.0114 42.6789 36.9111 43.8075 34.5646C44.936 32.218 45.5897 29.6716 45.7309 27.0716C45.8721 24.4716 45.4981 21.8693 44.6303 19.4144C43.7625 16.9594 42.418 14.7002 40.6742 12.7665C38.9304 10.8329 36.8217 9.26294 34.4691 8.14694C32.1166 7.03095 29.5667 6.39091 26.966 6.26362L27.271 0.0310852Z" fill="#475F7B" stroke="white" stroke-width="2"/>
<path d="M1.47693 17.3618C3.33586 12.0845 6.84758 7.54763 11.4904 4.42521C16.1332 1.30279 21.6595 -0.238619 27.2481 0.0299758L26.9486 6.26278C22.7012 6.05865 18.5013 7.23012 14.9727 9.60316C11.4442 11.9762 8.77525 15.4242 7.36247 19.4349L1.47693 17.3618Z" fill="#481AF9"/>
</svg>
