<svg width="1032" height="146" viewBox="0 0 1032 146" fill="none" xmlns="http://www.w3.org/2000/svg">
<rect y="65.8433" width="8" height="80.1569" rx="2" fill="#E7EDF3"/>
<rect x="32" y="83.0195" width="8" height="62.9804" rx="2" fill="#E7EDF3"/>
<rect x="64" y="21.4707" width="8" height="124.529" rx="2" fill="#E7EDF3"/>
<rect x="96" y="37.2158" width="8" height="108.784" rx="2" fill="#E7EDF3"/>
<rect x="128" y="83.0195" width="8" height="62.9804" rx="2" fill="#E7EDF3"/>
<rect x="160" width="8" height="146" rx="2" fill="#E7EDF3"/>
<rect x="192" y="83.0195" width="8" height="62.9804" rx="2" fill="#E7EDF3"/>
<rect x="224" y="107.353" width="8" height="38.6471" rx="2" fill="#E7EDF3"/>
<rect x="256" y="48.6665" width="8" height="97.3333" rx="2" fill="#E7EDF3"/>
<rect x="288" y="75.8628" width="8" height="70.1373" rx="2" fill="#E7EDF3"/>
<rect x="320" y="37.2158" width="8" height="108.784" rx="2" fill="#E7EDF3"/>
<rect x="352" y="14.314" width="8" height="131.686" rx="2" fill="#E7EDF3"/>
<rect x="384" y="60.1177" width="8" height="85.8824" rx="2" fill="#E7EDF3"/>
<rect x="416" y="37.2158" width="8" height="108.784" rx="2" fill="#E7EDF3"/>
<rect y="86.2754" width="8" height="59.7247" rx="2" fill="#481AF9"/>
<rect x="32" y="99.0737" width="8" height="46.9266" rx="2" fill="#481AF9"/>
<rect x="64" y="53.2134" width="8" height="92.7866" rx="2" fill="#481AF9"/>
<rect x="96" y="64.9448" width="8" height="81.055" rx="2" fill="#481AF9"/>
<rect x="128" y="99.0737" width="8" height="46.9266" rx="2" fill="#481AF9"/>
<rect x="160" y="37.2158" width="8" height="108.784" rx="2" fill="#481AF9"/>
<rect x="192" y="99.0737" width="8" height="46.9266" rx="2" fill="#481AF9"/>
<rect x="224" y="117.204" width="8" height="28.7958" rx="2" fill="#481AF9"/>
<rect x="256" y="73.4771" width="8" height="72.5229" rx="2" fill="#481AF9"/>
<rect x="288" y="93.7407" width="8" height="52.2591" rx="2" fill="#481AF9"/>
<rect x="320" y="64.9448" width="8" height="81.055" rx="2" fill="#481AF9"/>
<rect x="352" y="47.8809" width="8" height="98.1192" rx="2" fill="#481AF9"/>
<rect x="384" y="82.0093" width="8" height="63.9908" rx="2" fill="#481AF9"/>
<rect x="416" y="64.9448" width="8" height="81.055" rx="2" fill="#481AF9"/>
<rect x="448" y="65.8433" width="8" height="80.1569" rx="2" fill="#E7EDF3"/>
<rect x="480" y="83.0195" width="8" height="62.9804" rx="2" fill="#E7EDF3"/>
<rect x="512" y="21.4707" width="8" height="124.529" rx="2" fill="#E7EDF3"/>
<rect x="544" y="37.2158" width="8" height="108.784" rx="2" fill="#E7EDF3"/>
<rect x="576" y="83.0195" width="8" height="62.9804" rx="2" fill="#E7EDF3"/>
<rect x="608" width="8" height="146" rx="2" fill="#E7EDF3"/>
<rect x="640" y="83.0195" width="8" height="62.9804" rx="2" fill="#E7EDF3"/>
<rect x="672" y="107.353" width="8" height="38.6471" rx="2" fill="#E7EDF3"/>
<rect x="704" y="48.6665" width="8" height="97.3333" rx="2" fill="#E7EDF3"/>
<rect x="736" y="75.8628" width="8" height="70.1373" rx="2" fill="#E7EDF3"/>
<rect x="768" y="37.2158" width="8" height="108.784" rx="2" fill="#E7EDF3"/>
<rect x="896" y="37.2158" width="8" height="108.784" rx="2" fill="#E7EDF3"/>
<rect x="800" y="14.314" width="8" height="131.686" rx="2" fill="#E7EDF3"/>
<rect x="928" y="14.314" width="8" height="131.686" rx="2" fill="#E7EDF3"/>
<rect x="832" y="60.1177" width="8" height="85.8824" rx="2" fill="#E7EDF3"/>
<rect x="960" y="60.1177" width="8" height="85.8824" rx="2" fill="#E7EDF3"/>
<rect x="864" y="37.2158" width="8" height="108.784" rx="2" fill="#E7EDF3"/>
<rect x="992" y="37.2158" width="8" height="108.784" rx="2" fill="#E7EDF3"/>
<rect x="1024" y="37.2158" width="8" height="108.784" rx="2" fill="#E7EDF3"/>
<rect x="480" y="99.0737" width="8" height="46.9265" rx="2" fill="#481AF9"/>
<rect x="512" y="53.2129" width="8" height="92.7866" rx="2" fill="#481AF9"/>
<rect x="544" y="64.9448" width="8" height="81.055" rx="2" fill="#481AF9"/>
<rect x="576" y="99.0737" width="8" height="46.9265" rx="2" fill="#481AF9"/>
<rect x="608" y="37.2158" width="8" height="108.784" rx="2" fill="#481AF9"/>
<rect x="640" y="99.0737" width="8" height="46.9265" rx="2" fill="#481AF9"/>
<rect x="672" y="117.204" width="8" height="28.7958" rx="2" fill="#481AF9"/>
<rect x="704" y="73.4775" width="8" height="72.5229" rx="2" fill="#481AF9"/>
<rect x="736" y="93.7407" width="8" height="52.2591" rx="2" fill="#481AF9"/>
<rect x="768" y="64.9448" width="8" height="81.055" rx="2" fill="#481AF9"/>
<rect x="896" y="64.9448" width="8" height="81.055" rx="2" fill="#481AF9"/>
<rect x="800" y="47.8809" width="8" height="98.1192" rx="2" fill="#481AF9"/>
<rect x="928" y="47.8809" width="8" height="98.1192" rx="2" fill="#481AF9"/>
<rect x="832" y="82.0088" width="8" height="63.9908" rx="2" fill="#481AF9"/>
<rect x="960" y="82.0088" width="8" height="63.9908" rx="2" fill="#481AF9"/>
<rect x="864" y="64.9448" width="8" height="81.055" rx="2" fill="#481AF9"/>
<rect x="992" y="64.9448" width="8" height="81.055" rx="2" fill="#481AF9"/>
<rect x="1024" y="64.9448" width="8" height="81.055" rx="2" fill="#481AF9"/>
<rect x="448" y="86.2754" width="8" height="59.7247" rx="2" fill="#481AF9"/>
</svg>
