<svg width="476" height="203" viewBox="0 0 476 203" fill="none" xmlns="http://www.w3.org/2000/svg">
<path opacity="0.2" d="M0 94.7049C0 94.7049 55.7288 88.1906 71.7996 119.76C87.8704 151.329 116.23 138.521 125.471 107.232C134.711 75.9434 155.437 72.6869 175.758 94.7049C190.261 113.008 214.233 118.726 226.926 92.5638C233.195 80.3563 231.053 70.7196 254.998 64.8243C279.414 55.9639 283.38 17.8166 283.38 17.8166C283.38 17.8166 286.593 2.29902 300.257 1C312.005 1.09457 316.001 4.20414 324.828 16.4763C337.68 36.8645 334.881 51.8268 350.016 64.8243C366.102 72.9868 383.263 44.0806 383.263 44.0806C383.263 44.0806 398.653 21.791 412.331 46.7228C426.009 71.6545 431.294 112.47 450.107 116.115C468.92 119.76 474 133.677 474 133.677" stroke="#481AF9" stroke-width="2" stroke-linecap="round" stroke-linejoin="bevel" stroke-dasharray="5"/>
<path d="M474 83.1256C474 83.1256 447.028 46.5289 419.746 65.7726C388.972 92.0379 388.972 120 349.692 120C326.071 115.169 322.989 103.068 314.521 95.3895C305.384 85.7051 293.215 83.7208 286.73 95.3895C275.683 110.246 263.8 103.176 263.8 103.176C263.8 103.176 239.747 84.4014 215.664 44.6264C191.581 4.85145 164.148 101.15 164.148 101.15C164.148 101.15 156.65 127.008 131.784 105.067C106.918 83.1256 84.275 110.539 84.275 110.539C84.275 110.539 72.7257 125.78 42.6645 101.15C12.6033 76.5197 -1.28746e-05 113.543 -1.28746e-05 113.543" stroke="#481AF9" stroke-width="3" stroke-linecap="round" stroke-linejoin="round"/>
<path opacity="0.3" fill-rule="evenodd" clip-rule="evenodd" d="M475.478 82.9123C475.478 82.9123 448.422 46.4713 421.055 65.6332C390.184 91.7868 390.184 119.63 350.782 119.63C327.088 114.819 323.996 102.77 315.501 95.124C306.336 85.4808 294.129 83.505 287.624 95.124C276.543 109.917 264.623 102.877 264.623 102.877C264.623 102.877 240.495 84.1827 216.337 44.577C192.179 4.97121 164.66 100.86 164.66 100.86C164.66 100.86 157.139 126.608 132.195 104.76C107.251 82.9123 84.5377 110.209 84.5377 110.209C84.5377 110.209 72.9524 125.385 42.7975 100.86C12.6426 76.3346 0 113.2 0 113.2V201.997L476 203L475.478 82.9123Z" fill="url(#paint0_linear)"/>
<path fill-rule="evenodd" clip-rule="evenodd" d="M202 42C205.866 42 209 38.866 209 35C209 31.134 205.866 28 202 28C198.134 28 195 31.134 195 35C195 38.866 198.134 42 202 42Z" fill="#481AF9" stroke="white" stroke-width="3"/>
<defs>
<linearGradient id="paint0_linear" x1="476" y1="33" x2="476" y2="203" gradientUnits="userSpaceOnUse">
<stop offset="0.00556905" stop-color="#0500FB"/>
<stop offset="1" stop-color="white"/>
</linearGradient>
</defs>
</svg>
