<svg width="128" height="128" viewBox="0 0 128 128" fill="none" xmlns="http://www.w3.org/2000/svg">
<g filter="url(#filter0_i)">
<mask id="path-3-inside-1" fill="white">
<path d="M124 64C124 97.1371 97.1371 124 64 124C30.8629 124 4 97.1371 4 64C4 30.8629 30.8629 4 64 4C97.1371 4 124 30.8629 124 64ZM16 64C16 90.5097 37.4903 112 64 112C90.5097 112 112 90.5097 112 64C112 37.4903 90.5097 16 64 16C37.4903 16 16 37.4903 16 64Z"/>
</mask>
<path d="M124 64C124 97.1371 97.1371 124 64 124C30.8629 124 4 97.1371 4 64C4 30.8629 30.8629 4 64 4C97.1371 4 124 30.8629 124 64ZM16 64C16 90.5097 37.4903 112 64 112C90.5097 112 112 90.5097 112 64C112 37.4903 90.5097 16 64 16C37.4903 16 16 37.4903 16 64Z" stroke="#E0E9F5" stroke-width="24" mask="url(#path-3-inside-1)"/>
</g>
<g filter="url(#filter1_d)">
<path d="M64 8C64 5.79086 65.793 3.98611 67.9972 4.13327C78.2992 4.82104 88.2741 8.15822 96.9414 13.8516C106.726 20.2786 114.416 29.4275 119.065 40.1711C123.714 50.9147 125.119 62.7837 123.107 74.3157C121.094 85.8478 115.752 96.5392 107.738 105.073C99.7245 113.606 89.3897 119.609 78.0067 122.342C66.6238 125.075 54.69 124.418 43.6757 120.453C32.6614 116.487 23.0477 109.387 16.0189 100.025C9.79259 91.7325 5.83566 81.9868 4.50239 71.7484C4.21712 69.5578 5.90572 67.655 8.1105 67.5163L12.1026 67.2651C14.3074 67.1264 16.1901 68.8055 16.5118 70.9911C17.6749 78.8919 20.795 86.4003 25.6151 92.8202C31.2381 100.309 38.9291 105.99 47.7406 109.162C56.552 112.335 66.099 112.86 75.2054 110.674C84.3117 108.488 92.5796 103.685 98.9905 96.8583C105.401 90.0314 109.675 81.4783 111.285 72.2526C112.895 63.0269 111.772 53.5318 108.052 44.9369C104.333 36.342 98.1805 29.0229 90.3531 23.8812C83.6432 19.4737 75.9537 16.8313 67.9955 16.1666C65.7941 15.9827 64 14.2091 64 12V8Z" fill="url(#paint0_angular)"/>
</g>
<g clip-path="url(#clip0)">
<path d="M40.2801 51.4H25.6681V43.6H49.5881V48.904L37.2641 80H28.7361L40.2801 51.4ZM76.1919 80H68.3919V72.2H51.8559V66.376L64.8559 43.6H73.7999L61.8919 64.4H68.3919V56.6H76.1919V64.4H80.4559V72.2H76.1919V80Z" fill="#FF7A45"/>
<path d="M88.0118 63.664C86.9678 63.664 86.1158 63.37 85.4558 62.782C84.7958 62.194 84.4658 61.414 84.4658 60.442C84.4658 59.482 84.7958 58.708 85.4558 58.12C86.1158 57.532 86.9678 57.238 88.0118 57.238C89.0438 57.238 89.8898 57.532 90.5498 58.12C91.2218 58.72 91.5578 59.494 91.5578 60.442C91.5578 61.402 91.2218 62.182 90.5498 62.782C89.8898 63.37 89.0438 63.664 88.0118 63.664ZM86.4098 60.442C86.4098 60.91 86.5598 61.288 86.8598 61.576C87.1598 61.852 87.5438 61.99 88.0118 61.99C88.4918 61.99 88.8818 61.852 89.1818 61.576C89.4818 61.288 89.6318 60.91 89.6318 60.442C89.6318 59.986 89.4758 59.62 89.1638 59.344C88.8638 59.056 88.4798 58.912 88.0118 58.912C87.5438 58.912 87.1598 59.056 86.8598 59.344C86.5598 59.62 86.4098 59.986 86.4098 60.442ZM95.9678 70.18C94.9238 70.18 94.0718 69.886 93.4118 69.298C92.7518 68.71 92.4218 67.93 92.4218 66.958C92.4218 65.998 92.7518 65.224 93.4118 64.636C94.0718 64.048 94.9238 63.754 95.9678 63.754C96.9998 63.754 97.8458 64.048 98.5058 64.636C99.1778 65.236 99.5138 66.01 99.5138 66.958C99.5138 67.918 99.1778 68.698 98.5058 69.298C97.8458 69.886 96.9998 70.18 95.9678 70.18ZM94.3658 66.958C94.3658 67.426 94.5158 67.804 94.8158 68.092C95.1158 68.368 95.4998 68.506 95.9678 68.506C96.4478 68.506 96.8378 68.368 97.1378 68.092C97.4378 67.804 97.5878 67.426 97.5878 66.958C97.5878 66.502 97.4318 66.136 97.1198 65.86C96.8198 65.572 96.4358 65.428 95.9678 65.428C95.4998 65.428 95.1158 65.572 94.8158 65.86C94.5158 66.136 94.3658 66.502 94.3658 66.958ZM88.0478 70.198L86.8598 69.37L95.9498 57.202L97.1198 58.084L88.0478 70.198Z" fill="#ADC1DB"/>
</g>
<path d="M53.5345 28.568V35H52.6705L52.5145 34.148H52.4665C52.2585 34.484 51.9705 34.732 51.6025 34.892C51.2345 35.044 50.8425 35.12 50.4265 35.12C49.6505 35.12 49.0665 34.936 48.6745 34.568C48.2825 34.192 48.0865 33.596 48.0865 32.78V28.568H49.1545V32.708C49.1545 33.732 49.6305 34.244 50.5825 34.244C51.2945 34.244 51.7865 34.044 52.0585 33.644C52.3385 33.244 52.4785 32.668 52.4785 31.916V28.568H53.5345ZM59.6845 33.224C59.6845 33.848 59.4525 34.32 58.9885 34.64C58.5245 34.96 57.9005 35.12 57.1165 35.12C56.6685 35.12 56.2805 35.084 55.9525 35.012C55.6325 34.94 55.3485 34.84 55.1005 34.712V33.752C55.3565 33.88 55.6645 34 56.0245 34.112C56.3925 34.216 56.7645 34.268 57.1405 34.268C57.6765 34.268 58.0645 34.184 58.3045 34.016C58.5445 33.84 58.6645 33.608 58.6645 33.32C58.6645 33.16 58.6205 33.016 58.5325 32.888C58.4445 32.76 58.2845 32.632 58.0525 32.504C57.8285 32.376 57.5045 32.232 57.0805 32.072C56.6645 31.912 56.3085 31.752 56.0125 31.592C55.7165 31.432 55.4885 31.24 55.3285 31.016C55.1685 30.792 55.0885 30.504 55.0885 30.152C55.0885 29.608 55.3085 29.188 55.7485 28.892C56.1965 28.596 56.7805 28.448 57.5005 28.448C57.8925 28.448 58.2565 28.488 58.5925 28.568C58.9365 28.64 59.2565 28.744 59.5525 28.88L59.1925 29.72C58.9205 29.608 58.6365 29.512 58.3405 29.432C58.0445 29.352 57.7405 29.312 57.4285 29.312C56.9965 29.312 56.6645 29.384 56.4325 29.528C56.2085 29.664 56.0965 29.852 56.0965 30.092C56.0965 30.268 56.1485 30.42 56.2525 30.548C56.3565 30.668 56.5285 30.788 56.7685 30.908C57.0165 31.02 57.3445 31.156 57.7525 31.316C58.1605 31.468 58.5085 31.624 58.7965 31.784C59.0845 31.944 59.3045 32.14 59.4565 32.372C59.6085 32.596 59.6845 32.88 59.6845 33.224ZM63.5947 28.46C64.3787 28.46 64.9587 28.632 65.3347 28.976C65.7107 29.32 65.8987 29.868 65.8987 30.62V35H65.1307L64.9267 34.088H64.8787C64.5987 34.44 64.3027 34.7 63.9907 34.868C63.6867 35.036 63.2627 35.12 62.7187 35.12C62.1347 35.12 61.6507 34.968 61.2667 34.664C60.8827 34.352 60.6907 33.868 60.6907 33.212C60.6907 32.572 60.9427 32.08 61.4467 31.736C61.9507 31.384 62.7267 31.192 63.7747 31.16L64.8667 31.124V30.74C64.8667 30.204 64.7507 29.832 64.5187 29.624C64.2867 29.416 63.9587 29.312 63.5347 29.312C63.1987 29.312 62.8787 29.364 62.5747 29.468C62.2707 29.564 61.9867 29.676 61.7227 29.804L61.3987 29.012C61.6787 28.86 62.0107 28.732 62.3947 28.628C62.7787 28.516 63.1787 28.46 63.5947 28.46ZM64.8547 31.856L63.9067 31.892C63.1067 31.924 62.5507 32.052 62.2387 32.276C61.9347 32.5 61.7827 32.816 61.7827 33.224C61.7827 33.584 61.8907 33.848 62.1067 34.016C62.3307 34.184 62.6147 34.268 62.9587 34.268C63.5027 34.268 63.9547 34.12 64.3147 33.824C64.6747 33.52 64.8547 33.056 64.8547 32.432V31.856ZM70.0852 28.448C70.5092 28.448 70.8892 28.528 71.2252 28.688C71.5692 28.848 71.8612 29.092 72.1012 29.42H72.1612L72.3052 28.568H73.1452V35.108C73.1452 36.028 72.9092 36.72 72.4372 37.184C71.9732 37.648 71.2492 37.88 70.2652 37.88C69.3212 37.88 68.5492 37.744 67.9492 37.472V36.5C68.5812 36.836 69.3732 37.004 70.3252 37.004C70.8772 37.004 71.3092 36.84 71.6212 36.512C71.9412 36.192 72.1012 35.752 72.1012 35.192V34.94C72.1012 34.844 72.1052 34.708 72.1132 34.532C72.1212 34.348 72.1292 34.22 72.1372 34.148H72.0892C71.6572 34.796 70.9932 35.12 70.0972 35.12C69.2652 35.12 68.6132 34.828 68.1412 34.244C67.6772 33.66 67.4452 32.844 67.4452 31.796C67.4452 30.772 67.6772 29.96 68.1412 29.36C68.6132 28.752 69.2612 28.448 70.0852 28.448ZM70.2292 29.336C69.6932 29.336 69.2772 29.552 68.9812 29.984C68.6852 30.408 68.5372 31.016 68.5372 31.808C68.5372 32.6 68.6812 33.208 68.9692 33.632C69.2652 34.048 69.6932 34.256 70.2532 34.256C70.9012 34.256 71.3732 34.084 71.6692 33.74C71.9652 33.388 72.1132 32.824 72.1132 32.048V31.796C72.1132 30.916 71.9612 30.288 71.6572 29.912C71.3532 29.528 70.8772 29.336 70.2292 29.336ZM77.592 28.448C78.144 28.448 78.616 28.568 79.008 28.808C79.408 29.048 79.712 29.388 79.92 29.828C80.136 30.26 80.244 30.768 80.244 31.352V31.988H75.84C75.856 32.716 76.04 33.272 76.392 33.656C76.752 34.032 77.252 34.22 77.892 34.22C78.3 34.22 78.66 34.184 78.972 34.112C79.292 34.032 79.62 33.92 79.956 33.776V34.7C79.628 34.844 79.304 34.948 78.984 35.012C78.664 35.084 78.284 35.12 77.844 35.12C77.236 35.12 76.696 34.996 76.224 34.748C75.76 34.5 75.396 34.132 75.132 33.644C74.876 33.148 74.748 32.544 74.748 31.832C74.748 31.128 74.864 30.524 75.096 30.02C75.336 29.516 75.668 29.128 76.092 28.856C76.524 28.584 77.024 28.448 77.592 28.448ZM77.58 29.312C77.076 29.312 76.676 29.476 76.38 29.804C76.092 30.124 75.92 30.572 75.864 31.148H79.14C79.132 30.604 79.004 30.164 78.756 29.828C78.508 29.484 78.116 29.312 77.58 29.312Z" fill="#8594A8"/>
<path d="M60.1421 94.632C60.1421 96.08 59.7461 97.172 58.9541 97.908C58.1701 98.636 57.0741 99 55.6661 99H53.2781V90.432H55.9181C56.7821 90.432 57.5301 90.592 58.1621 90.912C58.7941 91.232 59.2821 91.704 59.6261 92.328C59.9701 92.944 60.1421 93.712 60.1421 94.632ZM59.0021 94.668C59.0021 93.524 58.7181 92.688 58.1501 92.16C57.5901 91.624 56.7941 91.356 55.7621 91.356H54.3581V98.076H55.5221C57.8421 98.076 59.0021 96.94 59.0021 94.668ZM62.3598 90.156C62.5198 90.156 62.6598 90.212 62.7798 90.324C62.9078 90.428 62.9718 90.596 62.9718 90.828C62.9718 91.052 62.9078 91.22 62.7798 91.332C62.6598 91.444 62.5198 91.5 62.3598 91.5C62.1838 91.5 62.0358 91.444 61.9158 91.332C61.7958 91.22 61.7358 91.052 61.7358 90.828C61.7358 90.596 61.7958 90.428 61.9158 90.324C62.0358 90.212 62.1838 90.156 62.3598 90.156ZM62.8758 92.568V99H61.8198V92.568H62.8758ZM69.0215 97.224C69.0215 97.848 68.7895 98.32 68.3255 98.64C67.8615 98.96 67.2375 99.12 66.4535 99.12C66.0055 99.12 65.6175 99.084 65.2895 99.012C64.9695 98.94 64.6855 98.84 64.4375 98.712V97.752C64.6935 97.88 65.0015 98 65.3615 98.112C65.7295 98.216 66.1015 98.268 66.4775 98.268C67.0135 98.268 67.4015 98.184 67.6415 98.016C67.8815 97.84 68.0015 97.608 68.0015 97.32C68.0015 97.16 67.9575 97.016 67.8695 96.888C67.7815 96.76 67.6215 96.632 67.3895 96.504C67.1655 96.376 66.8415 96.232 66.4175 96.072C66.0015 95.912 65.6455 95.752 65.3495 95.592C65.0535 95.432 64.8255 95.24 64.6655 95.016C64.5055 94.792 64.4255 94.504 64.4255 94.152C64.4255 93.608 64.6455 93.188 65.0855 92.892C65.5335 92.596 66.1175 92.448 66.8375 92.448C67.2295 92.448 67.5935 92.488 67.9295 92.568C68.2735 92.64 68.5935 92.744 68.8895 92.88L68.5295 93.72C68.2575 93.608 67.9735 93.512 67.6775 93.432C67.3815 93.352 67.0775 93.312 66.7655 93.312C66.3335 93.312 66.0015 93.384 65.7695 93.528C65.5455 93.664 65.4335 93.852 65.4335 94.092C65.4335 94.268 65.4855 94.42 65.5895 94.548C65.6935 94.668 65.8655 94.788 66.1055 94.908C66.3535 95.02 66.6815 95.156 67.0895 95.316C67.4975 95.468 67.8455 95.624 68.1335 95.784C68.4215 95.944 68.6415 96.14 68.7935 96.372C68.9455 96.596 69.0215 96.88 69.0215 97.224ZM71.5397 89.88V94.644C71.5397 94.772 71.5317 94.94 71.5157 95.148C71.5077 95.356 71.4997 95.536 71.4917 95.688H71.5397C71.5877 95.624 71.6597 95.532 71.7557 95.412C71.8517 95.292 71.9477 95.172 72.0437 95.052C72.1477 94.924 72.2357 94.82 72.3077 94.74L74.3597 92.568H75.5957L72.9917 95.316L75.7757 99H74.5037L72.2717 96L71.5397 96.636V99H70.4957V89.88H71.5397Z" fill="#8594A8"/>
<defs>
<filter id="filter0_i" x="4" y="4" width="120" height="121" filterUnits="userSpaceOnUse" color-interpolation-filters="sRGB">
<feFlood flood-opacity="0" result="BackgroundImageFix"/>
<feBlend mode="normal" in="SourceGraphic" in2="BackgroundImageFix" result="shape"/>
<feColorMatrix in="SourceAlpha" type="matrix" values="0 0 0 0 0 0 0 0 0 0 0 0 0 0 0 0 0 0 127 0" result="hardAlpha"/>
<feOffset dy="1"/>
<feGaussianBlur stdDeviation="2"/>
<feComposite in2="hardAlpha" operator="arithmetic" k2="-1" k3="1"/>
<feColorMatrix type="matrix" values="0 0 0 0 0.176471 0 0 0 0 0.254902 0 0 0 0 0.360784 0 0 0 0.12 0"/>
<feBlend mode="normal" in2="shape" result="effect1_innerShadow"/>
</filter>
<filter id="filter1_d" x="0.470947" y="0.125" width="127.529" height="127.875" filterUnits="userSpaceOnUse" color-interpolation-filters="sRGB">
<feFlood flood-opacity="0" result="BackgroundImageFix"/>
<feColorMatrix in="SourceAlpha" type="matrix" values="0 0 0 0 0 0 0 0 0 0 0 0 0 0 0 0 0 0 127 0"/>
<feOffset/>
<feGaussianBlur stdDeviation="2"/>
<feColorMatrix type="matrix" values="0 0 0 0 0.529412 0 0 0 0 0.909804 0 0 0 0 0.870588 0 0 0 0.4 0"/>
<feBlend mode="normal" in2="BackgroundImageFix" result="effect1_dropShadow"/>
<feBlend mode="normal" in="SourceGraphic" in2="effect1_dropShadow" result="shape"/>
</filter>
<radialGradient id="paint0_angular" cx="0" cy="0" r="1" gradientUnits="userSpaceOnUse" gradientTransform="translate(64 64) rotate(-90) scale(48.0066)">
<stop stop-color="#FF7A45"/>
<stop offset="1" stop-color="#FFF7E6"/>
</radialGradient>
<clipPath id="clip0">
<rect x="27.5" y="28" width="73" height="74" fill="white"/>
</clipPath>
</defs>
</svg>
