<svg width="124" height="128" viewBox="0 0 124 128" fill="none" xmlns="http://www.w3.org/2000/svg">
<g filter="url(#filter0_i)">
<mask id="path-3-inside-1" fill="white">
<path d="M124 64C124 97.1371 97.1371 124 64 124C30.8629 124 4 97.1371 4 64C4 30.8629 30.8629 4 64 4C97.1371 4 124 30.8629 124 64ZM16 64C16 90.5097 37.4903 112 64 112C90.5097 112 112 90.5097 112 64C112 37.4903 90.5097 16 64 16C37.4903 16 16 37.4903 16 64Z"/>
</mask>
<path d="M124 64C124 97.1371 97.1371 124 64 124C30.8629 124 4 97.1371 4 64C4 30.8629 30.8629 4 64 4C97.1371 4 124 30.8629 124 64ZM16 64C16 90.5097 37.4903 112 64 112C90.5097 112 112 90.5097 112 64C112 37.4903 90.5097 16 64 16C37.4903 16 16 37.4903 16 64Z" stroke="#E0E9F5" stroke-width="24" mask="url(#path-3-inside-1)"/>
</g>
<path d="M64 4C78.4169 4 92.3518 9.19103 103.255 18.6233C114.158 28.0555 121.301 41.0983 123.375 55.3651C125.45 69.6319 122.319 84.1688 114.554 96.3159C106.789 108.463 94.9097 117.408 81.09 121.515L77.672 110.012C88.7278 106.727 98.231 99.5705 104.443 89.8527C110.655 80.135 113.16 68.5055 111.5 57.0921C109.84 45.6786 104.127 35.2444 95.404 27.6986C86.6814 20.1528 75.5335 16 64 16V4Z" fill="#FFC53D"/>
<g filter="url(#filter1_d)">
<path d="M81.49 121.394C73.2379 123.909 64.5407 124.615 55.9912 123.463C47.4416 122.312 39.241 119.33 31.9483 114.722C24.6556 110.113 18.4424 103.987 13.7324 96.7592C9.02229 89.5318 5.92612 81.3737 4.65496 72.8412C3.38379 64.3086 3.96752 55.6023 6.36635 47.3158C8.76517 39.0293 12.9227 31.3576 18.5554 24.8236C24.1881 18.2897 31.1636 13.0472 39.0062 9.45361C46.8488 5.86004 55.3741 3.99989 64.0008 4L64.0006 16C57.0992 15.9999 50.279 17.488 44.0049 20.3629C37.7309 23.2377 32.1505 27.4317 27.6443 32.6589C23.1381 37.8861 19.8121 44.0235 17.8931 50.6527C15.974 57.2818 15.507 64.2469 16.524 71.0729C17.5409 77.8989 20.0178 84.4254 23.7859 90.2073C27.5539 95.9893 32.5245 100.891 38.3586 104.577C44.1928 108.264 50.7533 110.649 57.5929 111.57C64.4325 112.492 71.3904 111.927 77.992 109.915L81.49 121.394Z" fill="#EB2F96"/>
</g>
<path d="M27.7433 67.104C27.7433 63.984 28.2979 61.0027 29.4073 58.16C30.5166 55.2827 31.9899 52.8213 33.8273 50.776C37.6406 46.6853 41.6446 44.0853 45.8393 42.976L49.0113 48.852C46.2379 49.788 43.7939 51.1747 41.6793 53.012C39.5993 54.8147 38.0393 56.912 36.9993 59.304C38.4206 57.9867 40.5526 57.328 43.3953 57.328C46.0993 57.328 48.4393 58.368 50.4153 60.448C52.4259 62.4933 53.4313 65.1453 53.4313 68.404C53.4313 72.2173 52.2006 75.216 49.7393 77.4C47.2779 79.5493 44.4179 80.624 41.1593 80.624C37.1726 80.624 33.9313 79.324 31.4353 76.724C28.9739 74.0893 27.7433 70.8827 27.7433 67.104ZM36.0633 67.156C36.0633 68.924 36.5139 70.3107 37.4153 71.316C38.3166 72.3213 39.5819 72.824 41.2113 72.824C42.4246 72.824 43.3779 72.46 44.0713 71.732C44.7646 71.004 45.1113 70.0853 45.1113 68.976C45.1113 67.6587 44.7126 66.6013 43.9153 65.804C43.1526 65.0067 42.0779 64.608 40.6913 64.608C38.7846 64.608 37.2419 65.4573 36.0633 67.156ZM59.9988 75.528C57.8495 72.2347 56.7748 67.6587 56.7748 61.8C56.7748 55.9413 57.8322 51.3827 59.9468 48.124C62.0962 44.8307 65.2335 43.184 69.3588 43.184C73.4495 43.184 76.5695 44.8307 78.7188 48.124C80.8682 51.4173 81.9428 55.976 81.9428 61.8C81.9428 67.6933 80.8855 72.2693 78.7708 75.528C76.6562 78.7867 73.5535 80.416 69.4628 80.416C65.3375 80.416 62.1828 78.7867 59.9988 75.528ZM65.0948 61.8C65.0948 69.3573 66.5508 73.136 69.4628 73.136C70.9535 73.136 72.0108 72.2867 72.6348 70.588C73.2935 68.8893 73.6228 65.96 73.6228 61.8C73.6228 57.64 73.2935 54.7107 72.6348 53.012C72.0108 51.3133 70.9188 50.464 69.3588 50.464C67.8682 50.464 66.7762 51.348 66.0828 53.116C65.4242 54.8493 65.0948 57.744 65.0948 61.8Z" fill="#EB2F96"/>
<path d="M90.0118 63.664C88.9678 63.664 88.1158 63.37 87.4558 62.782C86.7958 62.194 86.4658 61.414 86.4658 60.442C86.4658 59.482 86.7958 58.708 87.4558 58.12C88.1158 57.532 88.9678 57.238 90.0118 57.238C91.0438 57.238 91.8898 57.532 92.5498 58.12C93.2218 58.72 93.5578 59.494 93.5578 60.442C93.5578 61.402 93.2218 62.182 92.5498 62.782C91.8898 63.37 91.0438 63.664 90.0118 63.664ZM88.4098 60.442C88.4098 60.91 88.5598 61.288 88.8598 61.576C89.1598 61.852 89.5438 61.99 90.0118 61.99C90.4918 61.99 90.8818 61.852 91.1818 61.576C91.4818 61.288 91.6318 60.91 91.6318 60.442C91.6318 59.986 91.4758 59.62 91.1638 59.344C90.8638 59.056 90.4798 58.912 90.0118 58.912C89.5438 58.912 89.1598 59.056 88.8598 59.344C88.5598 59.62 88.4098 59.986 88.4098 60.442ZM97.9678 70.18C96.9238 70.18 96.0718 69.886 95.4118 69.298C94.7518 68.71 94.4218 67.93 94.4218 66.958C94.4218 65.998 94.7518 65.224 95.4118 64.636C96.0718 64.048 96.9238 63.754 97.9678 63.754C98.9998 63.754 99.8458 64.048 100.506 64.636C101.178 65.236 101.514 66.01 101.514 66.958C101.514 67.918 101.178 68.698 100.506 69.298C99.8458 69.886 98.9998 70.18 97.9678 70.18ZM96.3658 66.958C96.3658 67.426 96.5158 67.804 96.8158 68.092C97.1158 68.368 97.4998 68.506 97.9678 68.506C98.4478 68.506 98.8378 68.368 99.1378 68.092C99.4378 67.804 99.5878 67.426 99.5878 66.958C99.5878 66.502 99.4318 66.136 99.1198 65.86C98.8198 65.572 98.4358 65.428 97.9678 65.428C97.4998 65.428 97.1158 65.572 96.8158 65.86C96.5158 66.136 96.3658 66.502 96.3658 66.958ZM90.0478 70.198L88.8598 69.37L97.9498 57.202L99.1198 58.084L90.0478 70.198Z" fill="#ADC1DB"/>
<defs>
<filter id="filter0_i" x="4" y="4" width="120" height="121" filterUnits="userSpaceOnUse" color-interpolation-filters="sRGB">
<feFlood flood-opacity="0" result="BackgroundImageFix"/>
<feBlend mode="normal" in="SourceGraphic" in2="BackgroundImageFix" result="shape"/>
<feColorMatrix in="SourceAlpha" type="matrix" values="0 0 0 0 0 0 0 0 0 0 0 0 0 0 0 0 0 0 127 0" result="hardAlpha"/>
<feOffset dy="1"/>
<feGaussianBlur stdDeviation="2"/>
<feComposite in2="hardAlpha" operator="arithmetic" k2="-1" k3="1"/>
<feColorMatrix type="matrix" values="0 0 0 0 0.176471 0 0 0 0 0.254902 0 0 0 0 0.360784 0 0 0 0.12 0"/>
<feBlend mode="normal" in2="shape" result="effect1_innerShadow"/>
</filter>
<filter id="filter1_d" x="0" y="0" width="85.49" height="128" filterUnits="userSpaceOnUse" color-interpolation-filters="sRGB">
<feFlood flood-opacity="0" result="BackgroundImageFix"/>
<feColorMatrix in="SourceAlpha" type="matrix" values="0 0 0 0 0 0 0 0 0 0 0 0 0 0 0 0 0 0 127 0"/>
<feOffset/>
<feGaussianBlur stdDeviation="2"/>
<feColorMatrix type="matrix" values="0 0 0 0 1 0 0 0 0 0.521569 0 0 0 0 0.752941 0 0 0 1 0"/>
<feBlend mode="normal" in2="BackgroundImageFix" result="effect1_dropShadow"/>
<feBlend mode="normal" in="SourceGraphic" in2="effect1_dropShadow" result="shape"/>
</filter>
</defs>
</svg>
