<svg width="24" height="24" viewBox="0 0 24 24" fill="none" xmlns="http://www.w3.org/2000/svg">
<path d="M20.0297 6.77578C19.5884 5.75831 18.9523 4.83708 18.157 4.06406C17.3592 3.28406 16.4186 2.66498 15.3867 2.24062C14.3133 1.79531 13.1742 1.57031 12 1.57031C10.8258 1.57031 9.68672 1.79531 8.61328 2.23828C7.575 2.66719 6.64453 3.28125 5.84297 4.06172C5.04826 4.83517 4.41215 5.7563 3.97031 6.77344C3.51328 7.82812 3.28125 8.94844 3.28125 10.1016C3.28125 11.7563 3.67734 13.4039 4.45547 14.993C5.08125 16.2703 5.95547 17.5148 7.05703 18.6984C8.93906 20.7188 10.9125 21.9539 11.4727 22.2844C11.6317 22.3783 11.813 22.4277 11.9977 22.4273C12.1805 22.4273 12.3609 22.3805 12.5227 22.2844C13.0828 21.9539 15.0563 20.7188 16.9383 18.6984C18.0398 17.5172 18.9141 16.2703 19.5398 14.993C20.3227 13.4063 20.7188 11.7609 20.7188 10.1039C20.7188 8.95078 20.4867 7.83047 20.0297 6.77578ZM12 20.6297C10.4555 19.6477 4.96875 15.7594 4.96875 10.1039C4.96875 8.27813 5.69766 6.5625 7.02188 5.26875C8.35078 3.97266 10.118 3.25781 12 3.25781C13.882 3.25781 15.6492 3.97266 16.9781 5.27109C18.3023 6.5625 19.0312 8.27813 19.0312 10.1039C19.0312 15.7594 13.5445 19.6477 12 20.6297Z" fill="#13C2C2"/>
<path d="M9.9548 13.2698H8.59502V7.94895H9.9548V13.2698ZM8.45312 6.03343C8.45312 5.79695 8.53195 5.60776 8.68961 5.46587C8.85515 5.3161 9.0601 5.24121 9.30447 5.24121C9.5173 5.24121 9.69861 5.3161 9.84838 5.46587C10.006 5.61564 10.0849 5.80483 10.0849 6.03343C10.0849 6.28568 10.006 6.49064 9.84838 6.64829C9.69861 6.80595 9.5173 6.88478 9.30447 6.88478C9.0601 6.88478 8.85515 6.80595 8.68961 6.64829C8.53195 6.49064 8.45312 6.28568 8.45312 6.03343Z" fill="#13C2C2"/>
<path d="M11.969 15.6347H10.6092V7.94895H11.969V8.45739C12.1424 8.26821 12.3789 8.11449 12.6784 7.99625C12.978 7.87801 13.2893 7.81889 13.6125 7.81889C14.3456 7.81889 14.929 8.07114 15.3625 8.57564C15.804 9.08802 16.0247 9.73835 16.0247 10.5266C16.0247 11.3543 15.7645 12.0401 15.2443 12.584C14.724 13.128 14.0461 13.3999 13.2105 13.3999C12.6745 13.3999 12.2606 13.3132 11.969 13.1398V15.6347ZM13.1869 9.0959C12.7139 9.0959 12.3079 9.28903 11.969 9.67529V11.8273C12.2922 12.0322 12.6666 12.1347 13.0923 12.1347C13.5416 12.1347 13.9003 11.9889 14.1683 11.6972C14.4442 11.4056 14.5821 11.0272 14.5821 10.5621C14.5821 10.1207 14.456 9.76594 14.2038 9.49792C13.9594 9.22991 13.6204 9.0959 13.1869 9.0959Z" fill="#13C2C2"/>
</svg>
