<svg width="19" height="22" viewBox="0 0 19 22" fill="none" xmlns="http://www.w3.org/2000/svg">
<path d="M6.9548 12.2698H5.59502V6.94895H6.9548V12.2698ZM5.45312 5.03343C5.45312 4.79695 5.53195 4.60776 5.68961 4.46587C5.85515 4.3161 6.0601 4.24121 6.30447 4.24121C6.5173 4.24121 6.69861 4.3161 6.84838 4.46587C7.00604 4.61564 7.08487 4.80483 7.08487 5.03343C7.08487 5.28568 7.00604 5.49064 6.84838 5.64829C6.69861 5.80595 6.5173 5.88478 6.30447 5.88478C6.0601 5.88478 5.85515 5.80595 5.68961 5.64829C5.53195 5.49064 5.45312 5.28568 5.45312 5.03343Z" fill="#13C2C2"/>
<path d="M8.96898 14.6347H7.60919V6.94895H8.96898V7.45739C9.1424 7.26821 9.37888 7.11449 9.67843 6.99625C9.97798 6.87801 10.2893 6.81889 10.6125 6.81889C11.3456 6.81889 11.929 7.07114 12.3625 7.57564C12.804 8.08802 13.0247 8.73835 13.0247 9.52663C13.0247 10.3543 12.7645 11.0401 12.2443 11.584C11.724 12.128 11.0461 12.3999 10.2105 12.3999C9.67449 12.3999 9.26064 12.3132 8.96898 12.1398V14.6347ZM10.1869 8.0959C9.7139 8.0959 9.30794 8.28903 8.96898 8.67529V10.8273C9.29217 11.0322 9.66661 11.1347 10.0923 11.1347C10.5416 11.1347 10.9003 10.9889 11.1683 10.6972C11.4442 10.4056 11.5821 10.0272 11.5821 9.5621C11.5821 9.12067 11.456 8.76594 11.2038 8.49792C10.9594 8.22991 10.6204 8.0959 10.1869 8.0959Z" fill="#13C2C2"/>
<path d="M15.157 3.06406C15.9523 3.83708 16.5884 4.75831 17.0297 5.77578C17.4867 6.83047 17.7188 7.95078 17.7188 9.10391C17.7188 10.7609 17.3227 12.4063 16.5398 13.993C16.291 14.5009 16.0029 15.0041 15.6768 15.5002V12.4676C15.6768 12.4005 15.6066 12.3669 15.4662 12.3669H15.4141C15.798 11.361 16.0312 10.27 16.0312 9.10391C16.0312 7.27813 15.3023 5.5625 13.9781 4.27109C12.6492 2.97266 10.882 2.25781 9 2.25781C7.11797 2.25781 5.35078 2.97266 4.02188 4.26875C2.69766 5.5625 1.96875 7.27813 1.96875 9.10391C1.96875 14.7594 7.45547 18.6477 9 19.6297C9.41857 19.3636 10.1267 18.884 10.9366 18.2136H13.4402C11.7198 19.9292 10.0335 20.983 9.52266 21.2844C9.36094 21.3805 9.18047 21.4273 8.99766 21.4273C8.813 21.4277 8.63166 21.3783 8.47266 21.2844C7.9125 20.9539 5.93906 19.7188 4.05703 17.6984C2.95547 16.5148 2.08125 15.2703 1.45547 13.993C0.677344 12.4039 0.28125 10.7563 0.28125 9.10156C0.28125 7.94844 0.513281 6.82812 0.970312 5.77344C1.41215 4.7563 2.04826 3.83517 2.84297 3.06172C3.64453 2.28125 4.575 1.66719 5.61328 1.23828C6.68672 0.795313 7.82578 0.570312 9 0.570312C10.1742 0.570312 11.3133 0.795312 12.3867 1.24062C13.4186 1.66498 14.3592 2.28406 15.157 3.06406Z" fill="#13C2C2"/>
<path d="M13.0123 16.2136H13.6768V15.4081C13.4612 15.6885 13.2385 15.9572 13.0123 16.2136Z" fill="#13C2C2"/>
<path d="M15.0279 13H14.3257C14.2632 13 14.232 13.0312 14.232 13.0936V16.7689H10.744C10.6816 16.7689 10.6504 16.8001 10.6504 16.8625V17.5648C10.6504 17.6272 10.6816 17.6585 10.744 17.6585H14.232V21.3337C14.232 21.3962 14.2632 21.4274 14.3257 21.4274H15.0279C15.0904 21.4274 15.1216 21.3962 15.1216 21.3337V17.6585H18.6096C18.672 17.6585 18.7032 17.6272 18.7032 17.5648V16.8625C18.7032 16.8001 18.672 16.7689 18.6096 16.7689H15.1216V13.0936C15.1216 13.0312 15.0904 13 15.0279 13Z" fill="#13C2C2"/>
</svg>
