<svg width="14" height="14" viewBox="0 0 14 14" fill="none" xmlns="http://www.w3.org/2000/svg">
<path d="M8.49998 0.75C5.87655 0.75 3.74998 2.87656 3.74998 5.5C3.74998 6.59844 4.12342 7.60938 4.74842 8.41406L4.10623 9.05625L3.1328 8.08281C3.109 8.05953 3.07703 8.04649 3.04373 8.04649C3.01044 8.04649 2.97847 8.05953 2.95467 8.08281L2.3328 8.70469C2.30951 8.72848 2.29647 8.76046 2.29647 8.79375C2.29647 8.82704 2.30951 8.85902 2.3328 8.88281L3.30623 9.85625L2.60467 10.5578L1.63123 9.58438C1.60744 9.56109 1.57547 9.54805 1.54217 9.54805C1.50888 9.54805 1.47691 9.56109 1.45311 9.58438L0.831234 10.2063C0.807948 10.23 0.794909 10.262 0.794909 10.2953C0.794909 10.3286 0.807948 10.3606 0.831234 10.3844L1.80467 11.3578L0.784359 12.3781C0.761097 12.4016 0.748047 12.4333 0.748047 12.4664C0.748047 12.4995 0.761097 12.5312 0.784359 12.5547L1.4453 13.2156C1.49373 13.2641 1.57342 13.2641 1.62186 13.2156L5.58436 9.25313C6.41849 9.90011 7.44435 10.2509 8.49998 10.25C11.1234 10.25 13.25 8.12344 13.25 5.5C13.25 2.87656 11.1234 0.75 8.49998 0.75ZM11.0187 8.01875C10.3469 8.69219 9.45155 9.0625 8.49998 9.0625C7.54842 9.0625 6.65311 8.69219 5.98123 8.01875C5.3078 7.34688 4.93748 6.45156 4.93748 5.5C4.93748 4.54844 5.3078 3.65313 5.98123 2.98125C6.65311 2.30781 7.54842 1.9375 8.49998 1.9375C9.45155 1.9375 10.3469 2.30781 11.0187 2.98125C11.6922 3.65313 12.0625 4.54844 12.0625 5.5C12.0625 6.45156 11.6922 7.34688 11.0187 8.01875Z" fill="#8594A8"/>
</svg>
