<svg width="15" height="14" viewBox="0 0 15 14" fill="none" xmlns="http://www.w3.org/2000/svg">
<path d="M7.37695 9.91016C7.39157 9.92883 7.41024 9.94394 7.43156 9.95432C7.45288 9.96471 7.47629 9.97011 7.5 9.97011C7.52371 9.97011 7.54712 9.96471 7.56844 9.95432C7.58976 9.94394 7.60843 9.92883 7.62305 9.91016L9.81055 7.14258C9.89062 7.04102 9.81836 6.89062 9.6875 6.89062H8.24023V0.28125C8.24023 0.195312 8.16992 0.125 8.08398 0.125H6.91211C6.82617 0.125 6.75586 0.195312 6.75586 0.28125V6.88867H5.3125C5.18164 6.88867 5.10938 7.03906 5.18945 7.14062L7.37695 9.91016ZM14.6484 9.22656H13.4766C13.3906 9.22656 13.3203 9.29688 13.3203 9.38281V12.3906H1.67969V9.38281C1.67969 9.29688 1.60938 9.22656 1.52344 9.22656H0.351562C0.265625 9.22656 0.195312 9.29688 0.195312 9.38281V13.25C0.195312 13.5957 0.474609 13.875 0.820312 13.875H14.1797C14.5254 13.875 14.8047 13.5957 14.8047 13.25V9.38281C14.8047 9.29688 14.7344 9.22656 14.6484 9.22656Z" fill="#1F92A9"/>
</svg>
