<svg width="180" height="22" viewBox="0 0 180 22" fill="none" xmlns="http://www.w3.org/2000/svg">
<g filter="url(#filter0_i)">
<mask id="path-2-inside-1" fill="white">
<rect width="180" height="22" rx="4"/>
</mask>
<rect width="180" height="22" rx="4" stroke="#FAFAFA" stroke-width="22" mask="url(#path-2-inside-1)"/>
</g>
<mask id="path-3-inside-2" fill="white">
<rect width="90" height="22" rx="4"/>
</mask>
<rect width="90" height="22" rx="4" stroke="url(#paint0_linear)" stroke-width="22" mask="url(#path-3-inside-2)"/>
<path d="M83.85 9.868C84.8767 9.868 85.6933 10.1247 86.3 10.638C86.9067 11.1513 87.21 11.8747 87.21 12.808C87.21 13.844 86.8787 14.6607 86.216 15.258C85.5627 15.846 84.648 16.14 83.472 16.14C82.9587 16.14 82.4733 16.0933 82.016 16C81.568 15.9067 81.19 15.7713 80.882 15.594V14.432C81.218 14.6373 81.624 14.8007 82.1 14.922C82.5853 15.034 83.0473 15.09 83.486 15.09C84.2233 15.09 84.816 14.9173 85.264 14.572C85.7213 14.2173 85.95 13.6713 85.95 12.934C85.95 12.2807 85.7493 11.7813 85.348 11.436C84.9467 11.0813 84.312 10.904 83.444 10.904C83.1827 10.904 82.884 10.9273 82.548 10.974C82.212 11.0207 81.9413 11.0673 81.736 11.114L81.12 10.722L81.498 6.004H86.51V7.124H82.548L82.31 10.022C82.4687 9.994 82.6833 9.96133 82.954 9.924C83.2247 9.88667 83.5233 9.868 83.85 9.868ZM95.0937 10.988C95.0937 12.0613 94.9817 12.9853 94.7577 13.76C94.5337 14.5253 94.1791 15.1133 93.6937 15.524C93.2084 15.9347 92.5644 16.14 91.7617 16.14C90.6324 16.14 89.7971 15.6873 89.2557 14.782C88.7237 13.8673 88.4577 12.6027 88.4577 10.988C88.4577 9.90533 88.5651 8.98133 88.7797 8.216C89.0037 7.45067 89.3584 6.86733 89.8437 6.466C90.3291 6.05533 90.9684 5.85 91.7617 5.85C92.8817 5.85 93.7171 6.30267 94.2677 7.208C94.8184 8.104 95.0937 9.364 95.0937 10.988ZM89.6897 10.988C89.6897 12.36 89.8437 13.3867 90.1517 14.068C90.4691 14.7493 91.0057 15.09 91.7617 15.09C92.5084 15.09 93.0404 14.754 93.3577 14.082C93.6844 13.4007 93.8477 12.3693 93.8477 10.988C93.8477 9.62533 93.6844 8.60333 93.3577 7.922C93.0404 7.24067 92.5084 6.9 91.7617 6.9C91.0057 6.9 90.4691 7.24067 90.1517 7.922C89.8437 8.60333 89.6897 9.62533 89.6897 10.988Z" fill="#2D415C"/>
<defs>
<filter id="filter0_i" x="0" y="0" width="180" height="23" filterUnits="userSpaceOnUse" color-interpolation-filters="sRGB">
<feFlood flood-opacity="0" result="BackgroundImageFix"/>
<feBlend mode="normal" in="SourceGraphic" in2="BackgroundImageFix" result="shape"/>
<feColorMatrix in="SourceAlpha" type="matrix" values="0 0 0 0 0 0 0 0 0 0 0 0 0 0 0 0 0 0 127 0" result="hardAlpha"/>
<feOffset dy="1"/>
<feGaussianBlur stdDeviation="2"/>
<feComposite in2="hardAlpha" operator="arithmetic" k2="-1" k3="1"/>
<feColorMatrix type="matrix" values="0 0 0 0 0.176471 0 0 0 0 0.254902 0 0 0 0 0.360784 0 0 0 0.12 0"/>
<feBlend mode="normal" in2="shape" result="effect1_innerShadow"/>
</filter>
<linearGradient id="paint0_linear" x1="-4.19096e-08" y1="11" x2="90" y2="11" gradientUnits="userSpaceOnUse">
<stop stop-color="#FFF7E6"/>
<stop offset="1" stop-color="#FA8C16"/>
</linearGradient>
</defs>
</svg>
