<svg width="245" height="190" viewBox="0 0 245 190" fill="none" xmlns="http://www.w3.org/2000/svg">
<path d="M200.464 92.4105C200.779 92.4445 201.054 92.2884 201.079 92.0617L201.478 88.3674C201.503 88.1407 201.267 87.9293 200.952 87.8953C200.636 87.8612 200.361 88.0174 200.337 88.2441L199.982 91.5278L195.416 91.0344C195.101 91.0004 194.825 91.1565 194.801 91.3832C194.776 91.6099 195.012 91.8213 195.327 91.8554L200.464 92.4105ZM139.348 37.7774L200.073 92.2466L200.943 91.7534L140.218 37.2841L139.348 37.7774Z" fill="#C3BDF3"/>
<path d="M191.916 164.404C192.195 164.528 192.501 164.447 192.6 164.224L194.215 160.588C194.314 160.365 194.169 160.084 193.89 159.96C193.612 159.836 193.305 159.917 193.206 160.14L191.771 163.372L187.736 161.58C187.457 161.456 187.151 161.536 187.052 161.76C186.953 161.983 187.098 162.264 187.377 162.388L191.916 164.404ZM128.61 42.3494L191.612 164.127L192.579 163.873L129.577 42.0949L128.61 42.3494Z" fill="#C3BDF3"/>
<path d="M118.847 129.362C119.052 129.552 119.368 129.544 119.554 129.344L122.581 126.087C122.766 125.888 122.751 125.571 122.546 125.381C122.342 125.191 122.025 125.199 121.839 125.399L119.149 128.293L116.184 125.538C115.98 125.348 115.663 125.356 115.477 125.556C115.292 125.755 115.307 126.072 115.512 126.262L118.847 129.362ZM114.616 45.1666L118.683 129.012L119.683 128.987L115.616 45.142L114.616 45.1666Z" fill="#C3BDF3"/>
<path d="M77.7349 21.1111C77.7349 9.45177 87.1866 0 98.846 0H128.624C140.283 0 149.735 9.45177 149.735 21.1111C149.735 32.7705 140.283 42.2222 128.624 42.2222H98.846C87.1866 42.2222 77.7349 32.7705 77.7349 21.1111Z" fill="white"/>
<path d="M122.735 25.1112V17.1112C122.735 16.7605 122.642 16.416 122.466 16.1124C122.291 15.8087 122.039 15.5566 121.735 15.3812L114.735 11.3812C114.431 11.2057 114.086 11.1133 113.735 11.1133C113.384 11.1133 113.039 11.2057 112.735 11.3812L105.735 15.3812C105.431 15.5566 105.179 15.8087 105.003 16.1124C104.828 16.416 104.735 16.7605 104.735 17.1112V25.1112C104.735 25.462 104.828 25.8064 105.003 26.1101C105.179 26.4137 105.431 26.6659 105.735 26.8412L112.735 30.8412C113.039 31.0168 113.384 31.1092 113.735 31.1092C114.086 31.1092 114.431 31.0168 114.735 30.8412L121.735 26.8412C122.039 26.6659 122.291 26.4137 122.466 26.1101C122.642 25.8064 122.735 25.462 122.735 25.1112Z" stroke="#C3BDF3" stroke-linecap="round" stroke-linejoin="round"/>
<path d="M105.005 16.0713L113.735 21.1213L122.465 16.0713" stroke="#C3BDF3" stroke-linecap="round" stroke-linejoin="round"/>
<path d="M113.735 31.1913V21.1113" stroke="#C3BDF3" stroke-linecap="round" stroke-linejoin="round"/>
<path d="M103.604 70.3705C103.604 62.2737 110.167 55.71 118.264 55.71H138.943C147.04 55.71 153.604 62.2737 153.604 70.3705C153.604 78.4672 147.04 85.0309 138.943 85.0309H118.264C110.167 85.0309 103.604 78.4672 103.604 70.3705Z" fill="white"/>
<path d="M135.354 73.3705V67.3705C135.353 67.1075 135.284 66.8491 135.152 66.6214C135.021 66.3937 134.831 66.2046 134.604 66.073L129.354 63.073C129.125 62.9414 128.867 62.8721 128.604 62.8721C128.34 62.8721 128.082 62.9414 127.854 63.073L122.604 66.073C122.376 66.2046 122.187 66.3937 122.055 66.6214C121.923 66.8491 121.854 67.1075 121.854 67.3705V73.3705C121.854 73.6336 121.923 73.8919 122.055 74.1197C122.187 74.3474 122.376 74.5365 122.604 74.668L127.854 77.668C128.082 77.7997 128.34 77.869 128.604 77.869C128.867 77.869 129.125 77.7997 129.354 77.668L134.604 74.668C134.831 74.5365 135.021 74.3474 135.152 74.1197C135.284 73.8919 135.353 73.6336 135.354 73.3705Z" stroke="#C3BDF3" stroke-linecap="round" stroke-linejoin="round"/>
<path d="M122.056 66.5903L128.604 70.3778L135.151 66.5903" stroke="#C3BDF3" stroke-linecap="round" stroke-linejoin="round"/>
<path d="M128.604 77.9306V70.3706" stroke="#C3BDF3" stroke-linecap="round" stroke-linejoin="round"/>
<path d="M194.874 106.728C194.874 98.6316 201.437 92.0679 209.534 92.0679H230.213C238.31 92.0679 244.874 98.6316 244.874 106.728C244.874 114.825 238.31 121.389 230.213 121.389H209.534C201.437 121.389 194.874 114.825 194.874 106.728Z" fill="white"/>
<path d="M226.624 109.728V103.728C226.623 103.465 226.554 103.207 226.422 102.979C226.291 102.752 226.101 102.562 225.874 102.431L220.624 99.4309C220.396 99.2993 220.137 99.23 219.874 99.23C219.61 99.23 219.352 99.2993 219.124 99.4309L213.874 102.431C213.646 102.562 213.457 102.752 213.325 102.979C213.193 103.207 213.124 103.465 213.124 103.728V109.728C213.124 109.991 213.193 110.25 213.325 110.478C213.457 110.705 213.646 110.894 213.874 111.026L219.124 114.026C219.352 114.158 219.61 114.227 219.874 114.227C220.137 114.227 220.396 114.158 220.624 114.026L225.874 111.026C226.101 110.894 226.291 110.705 226.422 110.478C226.554 110.25 226.623 109.991 226.624 109.728Z" stroke="#C3BDF3" stroke-linecap="round" stroke-linejoin="round"/>
<path d="M213.326 102.948L219.874 106.736L226.421 102.948" stroke="#C3BDF3" stroke-linecap="round" stroke-linejoin="round"/>
<path d="M219.874 114.289V106.729" stroke="#C3BDF3" stroke-linecap="round" stroke-linejoin="round"/>
<path d="M0 136.049C0 127.952 6.56373 121.389 14.6605 121.389H35.3395C43.4363 121.389 50 127.952 50 136.049C50 144.146 43.4363 150.71 35.3395 150.71H14.6605C6.56373 150.71 0 144.146 0 136.049Z" fill="#C3BDF3"/>
<path d="M31.75 139.049V133.049C31.7497 132.786 31.6803 132.528 31.5487 132.3C31.417 132.072 31.2278 131.883 31 131.752L25.75 128.752C25.522 128.62 25.2633 128.551 25 128.551C24.7367 128.551 24.478 128.62 24.25 128.752L19 131.752C18.7722 131.883 18.583 132.072 18.4513 132.3C18.3197 132.528 18.2503 132.786 18.25 133.049V139.049C18.2503 139.312 18.3197 139.571 18.4513 139.798C18.583 140.026 18.7722 140.215 19 140.347L24.25 143.347C24.478 143.478 24.7367 143.548 25 143.548C25.2633 143.548 25.522 143.478 25.75 143.347L31 140.347C31.2278 140.215 31.417 140.026 31.5487 139.798C31.6803 139.571 31.7497 139.312 31.75 139.049Z" stroke="white" stroke-linecap="round" stroke-linejoin="round"/>
<path d="M18.4526 132.269L25.0001 136.057L31.5476 132.269" stroke="white" stroke-linecap="round" stroke-linejoin="round"/>
<path d="M25 143.609V136.049" stroke="white" stroke-linecap="round" stroke-linejoin="round"/>
<path d="M14.6605 122.389H35.3395V120.389H14.6605V122.389ZM35.3395 149.71H14.6605V151.71H35.3395V149.71ZM14.6605 149.71C7.11601 149.71 1 143.594 1 136.049H-1C-1 144.698 6.01144 151.71 14.6605 151.71V149.71ZM49 136.049C49 143.594 42.884 149.71 35.3395 149.71V151.71C43.9886 151.71 51 144.698 51 136.049H49ZM35.3395 122.389C42.884 122.389 49 128.505 49 136.049H51C51 127.4 43.9886 120.389 35.3395 120.389V122.389ZM14.6605 120.389C6.01144 120.389 -1 127.4 -1 136.049H1C1 128.505 7.11601 122.389 14.6605 122.389V120.389Z" fill="white"/>
<path d="M178.429 178.272C178.429 171.794 183.68 166.543 190.157 166.543H206.7C213.178 166.543 218.429 171.794 218.429 178.272C218.429 184.749 213.178 190 206.7 190H190.157C183.68 190 178.429 184.749 178.429 178.272Z" fill="white"/>
<path d="M204.429 180.938V175.605C204.428 175.371 204.367 175.142 204.25 174.939C204.133 174.737 203.965 174.569 203.762 174.452L199.095 171.785C198.893 171.668 198.663 171.606 198.429 171.606C198.195 171.606 197.965 171.668 197.762 171.785L193.095 174.452C192.893 174.569 192.725 174.737 192.608 174.939C192.491 175.142 192.429 175.371 192.429 175.605V180.938C192.429 181.172 192.491 181.402 192.608 181.604C192.725 181.807 192.893 181.975 193.095 182.092L197.762 184.758C197.965 184.875 198.195 184.937 198.429 184.937C198.663 184.937 198.893 184.875 199.095 184.758L203.762 182.092C203.965 181.975 204.133 181.807 204.25 181.604C204.367 181.402 204.428 181.172 204.429 180.938Z" stroke="#C3BDF3" stroke-linecap="round" stroke-linejoin="round"/>
<path d="M192.609 174.912L198.429 178.278L204.249 174.912" stroke="#C3BDF3" stroke-linecap="round" stroke-linejoin="round"/>
<path d="M198.429 184.992V178.272" stroke="#C3BDF3" stroke-linecap="round" stroke-linejoin="round"/>
<path d="M91.2695 141.328C91.2695 134.85 96.5205 129.599 102.998 129.599H119.541C126.019 129.599 131.27 134.85 131.27 141.328C131.27 147.805 126.019 153.056 119.541 153.056H102.998C96.5205 153.056 91.2695 147.805 91.2695 141.328Z" fill="white"/>
<path d="M117.27 143.994V138.661C117.269 138.427 117.208 138.197 117.091 137.995C116.974 137.792 116.805 137.624 116.603 137.507L111.936 134.841C111.734 134.724 111.504 134.662 111.27 134.662C111.035 134.662 110.806 134.724 110.603 134.841L105.936 137.507C105.734 137.624 105.566 137.792 105.449 137.995C105.331 138.197 105.27 138.427 105.27 138.661V143.994C105.27 144.228 105.331 144.458 105.449 144.66C105.566 144.862 105.734 145.03 105.936 145.147L110.603 147.814C110.806 147.931 111.035 147.993 111.27 147.993C111.504 147.993 111.734 147.931 111.936 147.814L116.603 145.147C116.805 145.03 116.974 144.862 117.091 144.66C117.208 144.458 117.269 144.228 117.27 143.994Z" stroke="#C3BDF3" stroke-linecap="round" stroke-linejoin="round"/>
<path d="M105.45 137.967L111.27 141.334L117.09 137.967" stroke="#C3BDF3" stroke-linecap="round" stroke-linejoin="round"/>
<path d="M111.27 148.048V141.328" stroke="#C3BDF3" stroke-linecap="round" stroke-linejoin="round"/>
<path d="M40.119 121.155C40.1833 121.381 40.4788 121.494 40.7789 121.409L45.6691 120.016C45.9692 119.93 46.1603 119.678 46.096 119.452C46.0316 119.226 45.7362 119.112 45.4361 119.198L41.0892 120.436L40.1573 117.165C40.0929 116.939 39.7975 116.825 39.4974 116.911C39.1973 116.996 39.0062 117.249 39.0706 117.474L40.119 121.155ZM99.8484 42.0425L40.1958 120.82L41.129 121.18L100.782 42.4019L99.8484 42.0425Z" fill="#C3BDF3"/>
</svg>
