<svg width="20" height="14" viewBox="0 0 20 14" fill="none" xmlns="http://www.w3.org/2000/svg">
<path d="M16.4835 0.518161C16.2738 0.308399 15.9337 0.308399 15.7239 0.518161C15.5141 0.727923 15.5141 1.06799 15.7239 1.27775C17.2513 2.80513 18.0925 4.83737 18.0925 7.00005C18.0925 9.16273 17.2513 11.195 15.7239 12.7223C15.5141 12.9321 15.5141 13.2722 15.7239 13.4819C15.934 13.6921 16.2741 13.6913 16.4835 13.4819C18.2138 11.7517 19.1667 9.44969 19.1667 7.00005C19.1667 4.5504 18.2138 2.24843 16.4835 0.518161Z" fill="#8594A8"/>
<path d="M14.8574 2.1446C14.6476 1.93487 14.3075 1.93487 14.0978 2.1446C13.888 2.35436 13.888 2.69443 14.0978 2.90419C15.1911 3.99744 15.7932 5.45209 15.7932 7.00013C15.7932 8.54817 15.1911 10.0028 14.0978 11.0961C13.888 11.3058 13.888 11.6459 14.0978 11.8557C14.3075 12.0654 14.6475 12.0655 14.8574 11.8557C16.1536 10.5595 16.8675 8.8351 16.8675 7.0001C16.8675 5.16509 16.1536 3.44073 14.8574 2.1446Z" fill="#8594A8"/>
<path d="M13.2297 3.77204C13.0199 3.56231 12.6798 3.56231 12.4701 3.77204C12.2603 3.9818 12.2604 4.3219 12.4701 4.53163C13.129 5.19042 13.4918 6.06706 13.4918 7C13.4918 7.93293 13.129 8.80958 12.4701 9.46837C12.2603 9.67809 12.2603 10.0182 12.4701 10.228C12.6798 10.4377 13.0199 10.4378 13.2297 10.228C14.0914 9.36624 14.566 8.21986 14.566 6.99996C14.566 5.78007 14.0914 4.63375 13.2297 3.77204Z" fill="#8594A8"/>
<path d="M1.90778 7.00052C1.90778 4.83784 2.74894 2.80561 4.27636 1.27823C4.48612 1.0685 4.48612 0.728398 4.27636 0.518636C4.06663 0.30891 3.72657 0.308874 3.51677 0.518636C1.78647 2.2489 0.833549 4.55088 0.833549 7.00052C0.833549 9.45017 1.78647 11.7521 3.51677 13.4824C3.72646 13.6921 4.0666 13.6922 4.27636 13.4824C4.48612 13.2726 4.48612 12.9326 4.27636 12.7228C2.74894 11.1954 1.90778 9.1632 1.90778 7.00052Z" fill="#8594A8"/>
<path d="M4.20714 7.00015C4.20714 5.4521 4.80925 3.99749 5.90261 2.9042C6.11237 2.69444 6.11237 2.35437 5.90261 2.14461C5.69288 1.93485 5.35278 1.93489 5.14302 2.14461C3.84678 3.44075 3.13291 5.16518 3.13291 7.00015C3.13291 8.83511 3.84678 10.5595 5.14302 11.8557C5.35306 12.0657 5.69313 12.0652 5.90261 11.8557C6.11233 11.646 6.11233 11.3059 5.90261 11.0961C4.80925 10.0028 4.20714 8.54819 4.20714 7.00015Z" fill="#8594A8"/>
<path d="M7.52991 3.77207C7.32018 3.56231 6.98008 3.56231 6.77032 3.77207C5.90857 4.63378 5.43398 5.78017 5.43398 7.00007C5.43398 8.21997 5.90857 9.36635 6.77032 10.2281C6.98037 10.4381 7.32043 10.4375 7.52991 10.2281C7.73967 10.0183 7.73963 9.6782 7.52991 9.46847C6.87105 8.80968 6.50821 7.93304 6.50821 7.0001C6.50821 6.06717 6.87105 5.19052 7.52991 4.53173C7.73963 4.32193 7.73963 3.98183 7.52991 3.77207Z" fill="#8594A8"/>
<path d="M10.0012 4.73682C8.75331 4.73682 7.73812 5.75204 7.73812 6.99986C7.73812 8.24769 8.75334 9.26291 10.0012 9.26291C11.249 9.26291 12.2642 8.24769 12.2642 6.99986C12.2642 5.75204 11.249 4.73682 10.0012 4.73682ZM10.0012 8.18868C9.34564 8.18868 8.81235 7.65536 8.81235 6.99986C8.81235 6.34437 9.34567 5.81105 10.0012 5.81105C10.6567 5.81105 11.19 6.34437 11.19 6.99986C11.19 7.65536 10.6567 8.18868 10.0012 8.18868Z" fill="#8594A8"/>
</svg>
