<svg width="17" height="17" viewBox="0 0 17 17" fill="none" xmlns="http://www.w3.org/2000/svg">
<path d="M7.27083 10.5H1.125C0.779297 10.5 0.5 10.7793 0.5 11.125V15.5C0.5 15.8457 0.779297 16.125 1.125 16.125H7.27083C7.61654 16.125 7.89583 15.8457 7.89583 15.5V11.125C7.89583 10.7793 7.61654 10.5 7.27083 10.5ZM6.48958 14.7188H1.90625V11.9062H6.48958V14.7188Z" fill="#8594A8"/>
<path d="M9.45833 6.125L15.6042 6.125C15.9499 6.125 16.2292 5.8457 16.2292 5.5L16.2292 1.125C16.2292 0.779296 15.9499 0.5 15.6042 0.5L9.45833 0.5C9.11263 0.5 8.83333 0.779297 8.83333 1.125L8.83333 5.5C8.83333 5.8457 9.11263 6.125 9.45833 6.125ZM10.2396 1.90625L14.8229 1.90625L14.8229 4.71875L10.2396 4.71875L10.2396 1.90625Z" fill="#8594A8"/>
<path d="M7.27083 0.5L1.125 0.5C0.779297 0.5 0.5 0.779297 0.5 1.125V8.83333C0.5 9.17904 0.779297 9.45833 1.125 9.45833H7.27083C7.61654 9.45833 7.89583 9.17904 7.89583 8.83333V1.125C7.89583 0.779297 7.61654 0.5 7.27083 0.5ZM6.48958 8.05208H1.90625V1.90625H6.48958V8.05208Z" fill="#8594A8"/>
<path d="M9.45833 16.125L15.6042 16.125C15.9499 16.125 16.2292 15.8457 16.2292 15.5L16.2292 7.79167C16.2292 7.44596 15.9499 7.16667 15.6042 7.16667L9.45833 7.16667C9.11263 7.16667 8.83333 7.44597 8.83333 7.79167L8.83333 15.5C8.83333 15.8457 9.11263 16.125 9.45833 16.125ZM10.2396 8.57292L14.8229 8.57292L14.8229 14.7188L10.2396 14.7188L10.2396 8.57292Z" fill="#8594A8"/>
</svg>
