<svg width="18" height="12" viewBox="0 0 18 12" fill="none" xmlns="http://www.w3.org/2000/svg">
<path d="M16.8906 0.101562H6.34375C5.99805 0.101562 5.71875 0.380859 5.71875 0.726562V5.33594H1.10938C0.763672 5.33594 0.484375 5.61523 0.484375 5.96094V11.2734C0.484375 11.6191 0.763672 11.8984 1.10938 11.8984H11.6562C12.002 11.8984 12.2812 11.6191 12.2812 11.2734V6.66406H16.8906C17.2363 6.66406 17.5156 6.38477 17.5156 6.03906V0.726562C17.5156 0.380859 17.2363 0.101562 16.8906 0.101562ZM7.04688 1.42969H10.9531V5.33594H7.04688V1.42969ZM5.71875 10.5703H1.8125V6.66406H5.71875V10.5703ZM10.9531 10.5703H7.04688V6.66406H10.9531V10.5703ZM16.1875 5.33594H12.2812V1.42969H16.1875V5.33594Z" fill="#8594A8"/>
</svg>
