<svg width="14" height="18" viewBox="0 0 14 18" fill="none" xmlns="http://www.w3.org/2000/svg">
<path d="M13.291 8.16453C12.9118 7.31112 12.3606 6.54515 11.6719 5.91453L11.1035 5.39304C11.0842 5.37582 11.061 5.3636 11.0359 5.35745C11.0107 5.35131 10.9845 5.35142 10.9594 5.35778C10.9344 5.36415 10.9112 5.37656 10.8921 5.39395C10.8729 5.41134 10.8584 5.43316 10.8496 5.4575L10.5957 6.18601C10.4375 6.64304 10.1465 7.10984 9.73438 7.56882C9.70703 7.59812 9.67578 7.60593 9.6543 7.60789C9.63281 7.60984 9.59961 7.60593 9.57031 7.57859C9.54297 7.55515 9.5293 7.52 9.53125 7.48484C9.60352 6.30906 9.25195 4.98289 8.48242 3.53953C7.8457 2.34031 6.96094 1.40476 5.85547 0.752418L5.04883 0.277809C4.94336 0.215309 4.80859 0.29734 4.81445 0.420387L4.85742 1.35789C4.88672 1.99851 4.8125 2.56492 4.63672 3.03562C4.42188 3.61179 4.11328 4.14695 3.71875 4.62742C3.44419 4.96133 3.13299 5.26335 2.79102 5.52781C1.96739 6.16094 1.29768 6.97221 0.832031 7.90086C0.367527 8.8376 0.125567 9.86894 0.125 10.9145C0.125 11.8364 0.306641 12.729 0.666016 13.5708C1.01302 14.3813 1.51379 15.1168 2.14063 15.7368C2.77344 16.3618 3.50781 16.854 4.32617 17.1958C5.17383 17.5512 6.07227 17.7309 7 17.7309C7.92774 17.7309 8.82617 17.5512 9.67383 17.1977C10.4902 16.8579 11.2325 16.3624 11.8594 15.7387C12.4922 15.1137 12.9883 14.3833 13.334 13.5727C13.6928 12.7332 13.8769 11.8294 13.875 10.9165C13.875 9.96336 13.6797 9.03757 13.291 8.16453ZM10.9258 14.7915C9.87695 15.8305 8.48438 16.4009 7 16.4009C5.51563 16.4009 4.12305 15.8305 3.07422 14.7915C2.0293 13.7544 1.45313 12.3794 1.45313 10.9165C1.45313 10.0669 1.64453 9.25242 2.02148 8.49461C2.38867 7.75437 2.93555 7.09226 3.59961 6.5825C4.02312 6.25866 4.40725 5.88633 4.74414 5.47312C5.23242 4.87742 5.61524 4.21336 5.88086 3.50046C5.98982 3.2064 6.06899 2.90214 6.11719 2.59226C6.58789 3.02586 6.98242 3.54929 7.3125 4.16257C7.96484 5.38523 8.26563 6.47312 8.20703 7.3989C8.19303 7.61694 8.22864 7.83532 8.31119 8.03761C8.39373 8.23991 8.52106 8.42086 8.68359 8.56687C8.82445 8.69411 8.98919 8.79209 9.16823 8.85513C9.34728 8.91816 9.53706 8.94499 9.72656 8.93406C10.1113 8.91453 10.4648 8.74461 10.7227 8.4575C10.9824 8.16648 11.207 7.86961 11.3945 7.56687C11.668 7.91648 11.8965 8.29734 12.0781 8.7075C12.3887 9.40672 12.5469 10.1509 12.5469 10.9165C12.5469 12.3794 11.9707 13.7563 10.9258 14.7915Z" fill="#8594A8"/>
</svg>
