<svg width="16" height="18" viewBox="0 0 16 18" fill="none" xmlns="http://www.w3.org/2000/svg">
<path d="M1.76955 14.5469C1.76955 14.8926 2.04885 15.1719 2.39455 15.1719H13.6055C13.9512 15.1719 14.2305 14.8926 14.2305 14.5469V9.99609C14.2305 6.55469 11.4414 3.76562 8.00002 3.76562C4.55861 3.76562 1.76955 6.55469 1.76955 9.99609V14.5469ZM3.1758 9.99609C3.1758 7.33203 5.33596 5.17188 8.00002 5.17188C10.6641 5.17188 12.8242 7.33203 12.8242 9.99609V13.7656H5.89064V10.4258C5.89064 10.3184 5.80275 10.2305 5.69533 10.2305H4.83596C4.72853 10.2305 4.64064 10.3184 4.64064 10.4258V13.7656H3.1758V9.99609ZM2.23635 5.06445L3.00978 4.29102C3.07033 4.23047 3.07033 4.13086 3.00978 4.07031L1.68361 2.74414C1.65425 2.71506 1.61459 2.69875 1.57326 2.69875C1.53193 2.69875 1.49228 2.71506 1.46291 2.74414L0.689472 3.51758C0.660393 3.54694 0.644081 3.5866 0.644081 3.62793C0.644081 3.66926 0.660393 3.70891 0.689472 3.73828L2.01564 5.06445C2.07619 5.125 2.17385 5.125 2.23635 5.06445ZM15.3145 3.51758L14.541 2.74414C14.5117 2.71506 14.472 2.69875 14.4307 2.69875C14.3894 2.69875 14.3497 2.71506 14.3203 2.74414L12.9942 4.07031C12.9651 4.09968 12.9488 4.13934 12.9488 4.18066C12.9488 4.22199 12.9651 4.26165 12.9942 4.29102L13.7676 5.06445C13.8281 5.125 13.9278 5.125 13.9883 5.06445L15.3145 3.73828C15.375 3.67578 15.375 3.57812 15.3145 3.51758ZM14.25 16.4219H1.75002C1.40432 16.4219 1.12502 16.7012 1.12502 17.0469V17.5156C1.12502 17.6016 1.19533 17.6719 1.28127 17.6719H14.7188C14.8047 17.6719 14.875 17.6016 14.875 17.5156V17.0469C14.875 16.7012 14.5957 16.4219 14.25 16.4219ZM7.45314 2.51562H8.54689C8.63283 2.51562 8.70314 2.44531 8.70314 2.35938V0.484375C8.70314 0.398438 8.63283 0.328125 8.54689 0.328125H7.45314C7.36721 0.328125 7.29689 0.398438 7.29689 0.484375V2.35938C7.29689 2.44531 7.36721 2.51562 7.45314 2.51562Z" fill="#8594A8"/>
</svg>
