<svg width="17" height="18" viewBox="0 0 17 18" fill="none" xmlns="http://www.w3.org/2000/svg">
<path d="M11.4375 5.09375V4.15625C11.4375 4.07031 11.3672 4 11.2812 4H3.78125C3.69531 4 3.625 4.07031 3.625 4.15625V5.09375C3.625 5.17969 3.69531 5.25 3.78125 5.25H11.2812C11.3672 5.25 11.4375 5.17969 11.4375 5.09375ZM3.78125 6.8125C3.69531 6.8125 3.625 6.88281 3.625 6.96875V7.90625C3.625 7.99219 3.69531 8.0625 3.78125 8.0625H7.375C7.46094 8.0625 7.53125 7.99219 7.53125 7.90625V6.96875C7.53125 6.88281 7.46094 6.8125 7.375 6.8125H3.78125ZM6.59375 15.6406H2.0625V1.89062H13V7.53127C13 7.61721 13.0703 7.68752 13.1562 7.68752H14.25C14.3359 7.68752 14.4062 7.61721 14.4062 7.53127V1.10938C14.4062 0.763672 14.127 0.484375 13.7812 0.484375H1.28125C0.935547 0.484375 0.65625 0.763672 0.65625 1.10938V16.4219C0.65625 16.7676 0.935547 17.0469 1.28125 17.0469H6.59375C6.67969 17.0469 6.75 16.9766 6.75 16.8906V15.7969C6.75 15.7109 6.67969 15.6406 6.59375 15.6406Z" fill="#8594A8"/>
<mask id="path-2-inside-1" fill="white">
<path d="M14.9112 13.3133C15.1321 13.3133 15.3132 13.4928 15.2922 13.7127C15.2263 14.4029 14.9904 15.0682 14.603 15.6481C14.1412 16.3392 13.4848 16.8778 12.7169 17.1959C11.949 17.514 11.1041 17.5972 10.2889 17.435C9.47366 17.2729 8.72485 16.8726 8.13713 16.2849C7.5494 15.6972 7.14915 14.9484 6.987 14.1332C6.82485 13.318 6.90807 12.473 7.22614 11.7051C7.54422 10.9372 8.08286 10.2809 8.77395 9.81908C9.35383 9.43162 10.0192 9.19575 10.7093 9.12986C10.9292 9.10887 11.1087 9.28993 11.1087 9.51084V12.9133C11.1087 13.1342 11.2878 13.3133 11.5087 13.3133H14.9112Z"/>
</mask>
<path d="M14.9112 13.3133C15.1321 13.3133 15.3132 13.4928 15.2922 13.7127C15.2263 14.4029 14.9904 15.0682 14.603 15.6481C14.1412 16.3392 13.4848 16.8778 12.7169 17.1959C11.949 17.514 11.1041 17.5972 10.2889 17.435C9.47366 17.2729 8.72485 16.8726 8.13713 16.2849C7.5494 15.6972 7.14915 14.9484 6.987 14.1332C6.82485 13.318 6.90807 12.473 7.22614 11.7051C7.54422 10.9372 8.08286 10.2809 8.77395 9.81908C9.35383 9.43162 10.0192 9.19575 10.7093 9.12986C10.9292 9.10887 11.1087 9.28993 11.1087 9.51084V12.9133C11.1087 13.1342 11.2878 13.3133 11.5087 13.3133H14.9112Z" stroke="#8594A8" stroke-width="2.8" stroke-linecap="round" mask="url(#path-2-inside-1)"/>
<mask id="path-3-inside-2" fill="white">
<path d="M12.0137 8.67734C12.0137 8.45643 12.1932 8.27537 12.4131 8.29637C12.828 8.33598 13.2354 8.43717 13.6219 8.59724C14.1318 8.80843 14.595 9.11798 14.9853 9.50822C15.3755 9.89846 15.6851 10.3617 15.8962 10.8716C16.0563 11.258 16.1575 11.6655 16.1971 12.0804C16.2181 12.3003 16.0371 12.4798 15.8161 12.4798L12.4137 12.4798C12.1928 12.4798 12.0137 12.3007 12.0137 12.0798V8.67734Z"/>
</mask>
<path d="M12.0137 8.67734C12.0137 8.45643 12.1932 8.27537 12.4131 8.29637C12.828 8.33598 13.2354 8.43717 13.6219 8.59724C14.1318 8.80843 14.595 9.11798 14.9853 9.50822C15.3755 9.89846 15.6851 10.3617 15.8962 10.8716C16.0563 11.258 16.1575 11.6655 16.1971 12.0804C16.2181 12.3003 16.0371 12.4798 15.8161 12.4798L12.4137 12.4798C12.1928 12.4798 12.0137 12.3007 12.0137 12.0798V8.67734Z" stroke="#8594A8" stroke-width="2.8" stroke-linecap="round" mask="url(#path-3-inside-2)"/>
</svg>
