<svg width="18" height="16" viewBox="0 0 18 16" fill="none" xmlns="http://www.w3.org/2000/svg">
<path d="M16.3497 11.5391C15.5196 11.0586 14.5079 11.1875 13.8262 11.7891L12.7911 11.1895V8.22656C12.7911 7.91992 12.627 7.63477 12.3614 7.48242L9.70514 5.95313V4.64258C10.5684 4.34961 11.1895 3.5332 11.1895 2.57031C11.1895 1.36133 10.211 0.382812 9.00201 0.382812C7.79303 0.382812 6.81451 1.36133 6.81451 2.57031C6.81451 3.5332 7.43561 4.34961 8.29889 4.64258V5.95313L5.64264 7.48242C5.37701 7.63477 5.21295 7.91992 5.21295 8.22656V11.1875L4.1778 11.7871C3.49615 11.1855 2.48248 11.0566 1.65436 11.5371C0.609436 12.1426 0.253968 13.4785 0.853577 14.5234C1.45514 15.5684 2.78522 15.9277 3.82623 15.3242C4.65631 14.8438 5.05084 13.8984 4.87311 13.0039L5.82428 12.4512L8.57037 14.0332C8.70319 14.1094 8.85162 14.1484 9.00006 14.1484C9.1485 14.1484 9.29694 14.1094 9.42975 14.0332L12.1739 12.4531L13.1251 13.0059C12.9473 13.8984 13.3438 14.8457 14.1719 15.3262C15.213 15.9297 16.545 15.5723 17.1446 14.5254C17.7462 13.4785 17.3907 12.1426 16.3497 11.5391ZM3.20514 14.2422C3.09905 14.3036 2.98186 14.3435 2.86032 14.3595C2.73877 14.3754 2.61526 14.3672 2.4969 14.3353C2.37854 14.3033 2.26767 14.2483 2.17067 14.1733C2.07367 14.0983 1.99246 14.0049 1.9317 13.8984C1.67389 13.4512 1.82623 12.877 2.2735 12.6191C2.37958 12.5577 2.49677 12.5178 2.61832 12.5019C2.73987 12.4859 2.86338 12.4941 2.98174 12.5261C3.10009 12.558 3.21096 12.6131 3.30796 12.688C3.40496 12.763 3.48618 12.8564 3.54694 12.9629C3.80475 13.4102 3.6524 13.9844 3.20514 14.2422ZM8.06256 2.57031C8.06757 2.32499 8.16854 2.0914 8.34381 1.91967C8.51908 1.74794 8.75468 1.65175 9.00006 1.65175C9.24544 1.65175 9.48104 1.74794 9.65631 1.91967C9.83158 2.0914 9.93255 2.32499 9.93756 2.57031C9.93255 2.81564 9.83158 3.04923 9.65631 3.22096C9.48104 3.39269 9.24544 3.48887 9.00006 3.48887C8.75468 3.48887 8.51908 3.39269 8.34381 3.22096C8.16854 3.04923 8.06757 2.81564 8.06256 2.57031ZM11.3829 11.2852L9.00006 12.6582L6.61725 11.2852V8.54297L9.00006 7.16992L11.3829 8.54297V11.2852ZM16.0684 13.9004C15.8106 14.3477 15.2403 14.502 14.795 14.2441C14.3497 13.9863 14.1954 13.4121 14.4532 12.9648C14.711 12.5176 15.2813 12.3633 15.7266 12.6211C16.1739 12.8789 16.3262 13.4512 16.0684 13.9004Z" fill="#8594A8"/>
</svg>
