<svg width="478" height="131" viewBox="0 0 478 131" fill="none" xmlns="http://www.w3.org/2000/svg">
<path opacity="0.2" d="M2 61.5799C2 61.5799 57.7288 57.4041 73.7996 77.6407C89.8704 97.8772 118.23 89.6673 127.471 69.6103C136.711 49.5534 157.437 47.4658 177.758 61.5799C192.261 73.3128 216.233 76.9779 228.926 60.2075C235.195 52.3821 233.053 46.2048 256.998 42.4257C281.414 36.7459 285.38 12.2926 285.38 12.2926C285.38 12.2926 288.593 2.3454 302.257 1.5127C314.005 1.57331 318.001 3.56663 326.828 11.4334C339.68 24.5028 336.881 34.094 352.016 42.4257C368.102 47.6581 385.263 29.1285 385.263 29.1285C385.263 29.1285 400.653 14.8403 414.331 30.8222C428.009 46.804 433.294 72.968 452.107 75.3043C470.92 77.6407 476 86.5618 476 86.5618" stroke="#481AF9" stroke-width="2" stroke-linecap="round" stroke-linejoin="bevel" stroke-dasharray="5"/>
<path d="M476 54.1572C476 54.1572 449.028 30.6978 421.746 43.0335C390.972 59.8702 390.972 77.7946 351.692 77.7946C328.071 74.6976 324.989 66.9406 316.521 62.0186C307.384 55.8107 295.215 54.5387 288.73 62.0186C277.683 71.5417 265.8 67.0099 265.8 67.0099C265.8 67.0099 241.747 54.975 217.664 29.4782C193.581 3.98145 166.148 65.7112 166.148 65.7112C166.148 65.7112 158.65 82.2868 133.784 68.222C108.918 54.1572 86.275 71.7299 86.275 71.7299C86.275 71.7299 74.7257 81.4998 44.6645 65.7112C14.6033 49.9226 1.99999 73.6553 1.99999 73.6553" stroke="#481AF9" stroke-width="3" stroke-linecap="round" stroke-linejoin="round"/>
<path opacity="0.3" fill-rule="evenodd" clip-rule="evenodd" d="M477.478 54.0205C477.478 54.0205 450.422 30.6609 423.055 42.9441C392.184 59.7092 392.184 77.5573 352.782 77.5573C329.088 74.4735 325.996 66.7495 317.501 61.8485C308.336 55.667 296.129 54.4004 289.624 61.8485C278.543 71.3311 266.623 66.8185 266.623 66.8185C266.623 66.8185 242.495 54.8348 218.337 29.4465C194.179 4.05822 166.66 65.5254 166.66 65.5254C166.66 65.5254 159.139 82.0305 134.195 68.0255C109.251 54.0205 86.5377 71.5184 86.5377 71.5184C86.5377 71.5184 74.9524 81.2468 44.7975 65.5254C14.6426 49.804 1.99999 73.4357 1.99999 73.4357V130.357L478 131L477.478 54.0205Z" fill="url(#paint0_linear)"/>
<path fill-rule="evenodd" clip-rule="evenodd" d="M204 31.8203C207.866 31.8203 211 28.6863 211 24.8203C211 20.9543 207.866 17.8203 204 17.8203C200.134 17.8203 197 20.9543 197 24.8203C197 28.6863 200.134 31.8203 204 31.8203Z" fill="#481AF9" stroke="white" stroke-width="3"/>
<defs>
<linearGradient id="paint0_linear" x1="478" y1="22.0254" x2="478" y2="131" gradientUnits="userSpaceOnUse">
<stop offset="0.00556905" stop-color="#0500FB"/>
<stop offset="1" stop-color="white"/>
</linearGradient>
</defs>
</svg>
