<svg width="566" height="118" viewBox="0 0 566 118" fill="none" xmlns="http://www.w3.org/2000/svg">
<rect x="2.47559" y="38.333" width="6.60058" height="46.6666" rx="2" fill="#E7EDF3"/>
<rect x="28.8779" y="48.333" width="6.60058" height="36.6667" rx="2" fill="#E7EDF3"/>
<rect x="55.2803" y="12.5" width="6.60058" height="72.5" rx="2" fill="#E7EDF3"/>
<rect x="81.6826" y="21.667" width="6.60058" height="63.3333" rx="2" fill="#E7EDF3"/>
<rect x="108.085" y="48.333" width="6.60058" height="36.6667" rx="2" fill="#E7EDF3"/>
<rect x="134.487" width="6.60057" height="85" rx="2" fill="#E7EDF3"/>
<rect x="160.89" y="48.333" width="6.6006" height="36.6667" rx="2" fill="#E7EDF3"/>
<rect x="187.292" y="62.5" width="6.6006" height="22.5" rx="2" fill="#E7EDF3"/>
<rect x="213.694" y="28.333" width="6.6006" height="56.6666" rx="2" fill="#E7EDF3"/>
<rect x="240.097" y="44.167" width="6.6006" height="40.8334" rx="2" fill="#E7EDF3"/>
<rect x="266.499" y="21.667" width="6.60056" height="63.3333" rx="2" fill="#E7EDF3"/>
<rect x="292.901" y="8.33301" width="6.60056" height="76.6667" rx="2" fill="#E7EDF3"/>
<rect x="319.304" y="35" width="6.60059" height="50" rx="2" fill="#E7EDF3"/>
<rect x="345.706" y="21.667" width="6.60062" height="63.3333" rx="2" fill="#E7EDF3"/>
<rect x="2.47559" y="50.2285" width="6.60058" height="34.7713" rx="2" fill="#481AF9"/>
<rect x="28.8779" y="57.6797" width="6.60058" height="27.3202" rx="2" fill="#481AF9"/>
<rect x="55.2803" y="30.9805" width="6.60058" height="54.0196" rx="2" fill="#481AF9"/>
<rect x="81.6826" y="37.8105" width="6.60058" height="47.1895" rx="2" fill="#481AF9"/>
<rect x="108.085" y="57.6797" width="6.60058" height="27.3202" rx="2" fill="#481AF9"/>
<rect x="134.487" y="21.667" width="6.60057" height="63.3333" rx="2" fill="#481AF9"/>
<rect x="160.89" y="57.6797" width="6.6006" height="27.3202" rx="2" fill="#481AF9"/>
<rect x="187.292" y="68.2354" width="6.6006" height="16.7647" rx="2" fill="#481AF9"/>
<rect x="213.694" y="42.7773" width="6.6006" height="42.2222" rx="2" fill="#481AF9"/>
<rect x="240.097" y="54.5752" width="6.6006" height="30.4248" rx="2" fill="#481AF9"/>
<rect x="266.499" y="37.8105" width="6.60056" height="47.1895" rx="2" fill="#481AF9"/>
<rect x="292.901" y="27.876" width="6.60056" height="57.1242" rx="2" fill="#481AF9"/>
<rect x="319.304" y="47.7451" width="6.60059" height="37.2549" rx="2" fill="#481AF9"/>
<rect x="345.706" y="37.8105" width="6.60062" height="47.1895" rx="2" fill="#481AF9"/>
<rect x="372.108" y="38.333" width="6.60056" height="46.6666" rx="2" fill="#E7EDF3"/>
<rect x="398.511" y="48.333" width="6.60059" height="36.6667" rx="2" fill="#E7EDF3"/>
<rect x="424.913" y="12.5" width="6.60056" height="72.5" rx="2" fill="#E7EDF3"/>
<rect x="451.315" y="21.667" width="6.60065" height="63.3333" rx="2" fill="#E7EDF3"/>
<rect x="477.718" y="48.333" width="6.60052" height="36.6667" rx="2" fill="#E7EDF3"/>
<rect x="504.12" width="6.60056" height="85" rx="2" fill="#E7EDF3"/>
<rect x="530.522" y="48.333" width="6.60059" height="36.6667" rx="2" fill="#E7EDF3"/>
<rect x="556.925" y="62.5" width="6.60052" height="22.5" rx="2" fill="#E7EDF3"/>
<rect x="398.511" y="57.6797" width="6.60059" height="27.3202" rx="2" fill="#481AF9"/>
<rect x="424.913" y="30.9805" width="6.60056" height="54.0196" rx="2" fill="#481AF9"/>
<rect x="451.315" y="37.8105" width="6.60065" height="47.1896" rx="2" fill="#481AF9"/>
<rect x="477.718" y="57.6797" width="6.60052" height="27.3202" rx="2" fill="#481AF9"/>
<rect x="504.12" y="21.667" width="6.60056" height="63.3333" rx="2" fill="#481AF9"/>
<rect x="530.522" y="57.6797" width="6.60059" height="27.3202" rx="2" fill="#481AF9"/>
<rect x="556.925" y="68.2354" width="6.60052" height="16.7647" rx="2" fill="#481AF9"/>
<rect x="372.108" y="50.2285" width="6.60056" height="34.7713" rx="2" fill="#481AF9"/>
<path d="M6.34241 110.704C6.34241 111.624 6.24641 112.416 6.05441 113.08C5.86241 113.736 5.55841 114.24 5.14241 114.592C4.72641 114.944 4.17441 115.12 3.48641 115.12C2.51841 115.12 1.80241 114.732 1.33841 113.956C0.882406 113.172 0.654406 112.088 0.654406 110.704C0.654406 109.776 0.746406 108.984 0.930406 108.328C1.12241 107.672 1.42641 107.172 1.84241 106.828C2.25841 106.476 2.80641 106.3 3.48641 106.3C4.44641 106.3 5.16241 106.688 5.63441 107.464C6.10641 108.232 6.34241 109.312 6.34241 110.704ZM1.71041 110.704C1.71041 111.88 1.84241 112.76 2.10641 113.344C2.37841 113.928 2.83841 114.22 3.48641 114.22C4.12641 114.22 4.58241 113.932 4.85441 113.356C5.13441 112.772 5.27441 111.888 5.27441 110.704C5.27441 109.536 5.13441 108.66 4.85441 108.076C4.58241 107.492 4.12641 107.2 3.48641 107.2C2.83841 107.2 2.37841 107.492 2.10641 108.076C1.84241 108.66 1.71041 109.536 1.71041 110.704Z" fill="#828D99"/>
<path d="M137.433 114H136.401V108.012C136.401 107.668 136.405 107.392 136.413 107.184C136.421 106.976 136.433 106.76 136.449 106.536C136.321 106.664 136.205 106.772 136.101 106.86C135.997 106.948 135.865 107.06 135.705 107.196L134.793 107.94L134.241 107.232L136.557 105.432H137.433V114ZM146.236 109.704C146.236 110.624 146.14 111.416 145.948 112.08C145.756 112.736 145.452 113.24 145.036 113.592C144.62 113.944 144.068 114.12 143.38 114.12C142.412 114.12 141.696 113.732 141.232 112.956C140.776 112.172 140.548 111.088 140.548 109.704C140.548 108.776 140.64 107.984 140.824 107.328C141.016 106.672 141.32 106.172 141.736 105.828C142.152 105.476 142.7 105.3 143.38 105.3C144.34 105.3 145.056 105.688 145.528 106.464C146 107.232 146.236 108.312 146.236 109.704ZM141.604 109.704C141.604 110.88 141.736 111.76 142 112.344C142.272 112.928 142.732 113.22 143.38 113.22C144.02 113.22 144.476 112.932 144.748 112.356C145.028 111.772 145.168 110.888 145.168 109.704C145.168 108.536 145.028 107.66 144.748 107.076C144.476 106.492 144.02 106.2 143.38 106.2C142.732 106.2 142.272 106.492 142 107.076C141.736 107.66 141.604 108.536 141.604 109.704Z" fill="#828D99"/>
<path d="M277.433 114H276.401V108.012C276.401 107.668 276.405 107.392 276.413 107.184C276.421 106.976 276.433 106.76 276.449 106.536C276.321 106.664 276.205 106.772 276.101 106.86C275.997 106.948 275.865 107.06 275.705 107.196L274.793 107.94L274.241 107.232L276.557 105.432H277.433V114ZM283.26 108.744C284.14 108.744 284.84 108.964 285.36 109.404C285.88 109.844 286.14 110.464 286.14 111.264C286.14 112.152 285.856 112.852 285.288 113.364C284.728 113.868 283.944 114.12 282.936 114.12C282.496 114.12 282.08 114.08 281.688 114C281.304 113.92 280.98 113.804 280.716 113.652V112.656C281.004 112.832 281.352 112.972 281.76 113.076C282.176 113.172 282.572 113.22 282.948 113.22C283.58 113.22 284.088 113.072 284.472 112.776C284.864 112.472 285.06 112.004 285.06 111.372C285.06 110.812 284.888 110.384 284.544 110.088C284.2 109.784 283.656 109.632 282.912 109.632C282.688 109.632 282.432 109.652 282.144 109.692C281.856 109.732 281.624 109.772 281.448 109.812L280.92 109.476L281.244 105.432H285.54V106.392H282.144L281.94 108.876C282.076 108.852 282.26 108.824 282.492 108.792C282.724 108.76 282.98 108.744 283.26 108.744Z" fill="#828D99"/>
<path d="M419.413 114H413.749V113.124L415.993 110.856C416.425 110.424 416.789 110.04 417.085 109.704C417.381 109.368 417.605 109.04 417.757 108.72C417.909 108.392 417.985 108.036 417.985 107.652C417.985 107.18 417.845 106.824 417.565 106.584C417.285 106.336 416.921 106.212 416.473 106.212C416.057 106.212 415.689 106.284 415.369 106.428C415.057 106.572 414.737 106.772 414.409 107.028L413.845 106.32C414.181 106.04 414.565 105.804 414.997 105.612C415.437 105.412 415.929 105.312 416.473 105.312C417.273 105.312 417.905 105.516 418.369 105.924C418.833 106.324 419.065 106.88 419.065 107.592C419.065 108.04 418.973 108.46 418.789 108.852C418.605 109.244 418.349 109.632 418.021 110.016C417.693 110.392 417.309 110.796 416.869 111.228L415.081 112.992V113.04H419.413V114ZM426.236 109.704C426.236 110.624 426.14 111.416 425.948 112.08C425.756 112.736 425.452 113.24 425.036 113.592C424.62 113.944 424.068 114.12 423.38 114.12C422.412 114.12 421.696 113.732 421.232 112.956C420.776 112.172 420.548 111.088 420.548 109.704C420.548 108.776 420.64 107.984 420.824 107.328C421.016 106.672 421.32 106.172 421.736 105.828C422.152 105.476 422.7 105.3 423.38 105.3C424.34 105.3 425.056 105.688 425.528 106.464C426 107.232 426.236 108.312 426.236 109.704ZM421.604 109.704C421.604 110.88 421.736 111.76 422 112.344C422.272 112.928 422.732 113.22 423.38 113.22C424.02 113.22 424.476 112.932 424.748 112.356C425.028 111.772 425.168 110.888 425.168 109.704C425.168 108.536 425.028 107.66 424.748 107.076C424.476 106.492 424.02 106.2 423.38 106.2C422.732 106.2 422.272 106.492 422 107.076C421.736 107.66 421.604 108.536 421.604 109.704Z" fill="#828D99"/>
<path d="M558.413 114H552.749V113.124L554.993 110.856C555.425 110.424 555.789 110.04 556.085 109.704C556.381 109.368 556.605 109.04 556.757 108.72C556.909 108.392 556.985 108.036 556.985 107.652C556.985 107.18 556.845 106.824 556.565 106.584C556.285 106.336 555.921 106.212 555.473 106.212C555.057 106.212 554.689 106.284 554.369 106.428C554.057 106.572 553.737 106.772 553.409 107.028L552.845 106.32C553.181 106.04 553.565 105.804 553.997 105.612C554.437 105.412 554.929 105.312 555.473 105.312C556.273 105.312 556.905 105.516 557.369 105.924C557.833 106.324 558.065 106.88 558.065 107.592C558.065 108.04 557.973 108.46 557.789 108.852C557.605 109.244 557.349 109.632 557.021 110.016C556.693 110.392 556.309 110.796 555.869 111.228L554.081 112.992V113.04H558.413V114ZM562.26 108.744C563.14 108.744 563.84 108.964 564.36 109.404C564.88 109.844 565.14 110.464 565.14 111.264C565.14 112.152 564.856 112.852 564.288 113.364C563.728 113.868 562.944 114.12 561.936 114.12C561.496 114.12 561.08 114.08 560.688 114C560.304 113.92 559.98 113.804 559.716 113.652V112.656C560.004 112.832 560.352 112.972 560.76 113.076C561.176 113.172 561.572 113.22 561.948 113.22C562.58 113.22 563.088 113.072 563.472 112.776C563.864 112.472 564.06 112.004 564.06 111.372C564.06 110.812 563.888 110.384 563.544 110.088C563.2 109.784 562.656 109.632 561.912 109.632C561.688 109.632 561.432 109.652 561.144 109.692C560.856 109.732 560.624 109.772 560.448 109.812L559.92 109.476L560.244 105.432H564.54V106.392H561.144L560.94 108.876C561.076 108.852 561.26 108.824 561.492 108.792C561.724 108.76 561.98 108.744 562.26 108.744Z" fill="#828D99"/>
</svg>
