<svg width="14" height="14" viewBox="0 0 14 14" fill="none" xmlns="http://www.w3.org/2000/svg">
<path d="M12.5 7.09325H6.90626V1.4995C6.90626 1.43075 6.85001 1.3745 6.78126 1.3745H6.37501C5.55423 1.37315 4.74128 1.53412 3.98294 1.84813C3.2246 2.16214 2.53583 2.62299 1.95626 3.20419C1.38549 3.77319 0.930713 4.44766 0.617197 5.19012C0.290955 5.96018 0.123548 6.78818 0.125009 7.6245C0.123665 8.44528 0.284628 9.25823 0.598638 10.0166C0.912647 10.7749 1.3735 11.4637 1.9547 12.0432C2.52813 12.6167 3.19688 13.0682 3.94063 13.3823C4.71069 13.7086 5.53869 13.876 6.37501 13.8745C7.19579 13.8758 8.00874 13.7149 8.76708 13.4009C9.52542 13.0869 10.2142 12.626 10.7938 12.0448C11.3672 11.4714 11.8188 10.8026 12.1328 10.0589C12.4591 9.28881 12.6265 8.46081 12.625 7.6245V7.21825C12.625 7.1495 12.5688 7.09325 12.5 7.09325ZM10.0266 11.3089C9.54274 11.7889 8.96894 12.1688 8.33805 12.4267C7.70716 12.6847 7.03158 12.8156 6.35001 12.812C4.97345 12.8057 3.6797 12.2667 2.70626 11.2932C1.72657 10.3136 1.18751 9.01044 1.18751 7.6245C1.18751 6.23856 1.72657 4.93544 2.70626 3.95575C3.55938 3.10262 4.65782 2.58231 5.84376 2.46356V8.15575H11.5359C11.4156 9.34794 10.8906 10.4526 10.0266 11.3089ZM13.875 6.2245L13.8344 5.78387C13.7016 4.34481 13.0625 2.987 12.0344 1.962C11.0055 0.935117 9.65051 0.2996 8.20313 0.165123L7.76095 0.124498C7.68751 0.118248 7.62501 0.174498 7.62501 0.247936V6.2495C7.62501 6.31825 7.68126 6.3745 7.75001 6.3745L13.75 6.35887C13.8234 6.35887 13.8813 6.29637 13.875 6.2245ZM8.68438 5.31512V1.30575C9.66866 1.51176 10.5719 1.99921 11.2844 2.70887C11.9984 3.42137 12.4875 4.32762 12.6906 5.30419L8.68438 5.31512Z" fill="#8594A8"/>
</svg>
