<svg width="14" height="16" viewBox="0 0 14 16" fill="none" xmlns="http://www.w3.org/2000/svg">
<path d="M2.63022 4.39062C2.94116 4.39062 3.19272 4.13906 3.19272 3.82812V0.5625C3.19272 0.251563 2.94116 0 2.63022 0C2.31928 0 2.06772 0.251563 2.06772 0.5625V3.82812C2.06772 4.13906 2.31928 4.39062 2.63022 4.39062ZM12.2083 6.64062H10.3333C10.3333 6.01875 9.83022 5.51562 9.20834 5.51562H1.45834C0.836469 5.51562 0.333344 6.01875 0.333344 6.64062V10.5156C0.333344 10.5688 0.336468 10.6203 0.344281 10.6703C0.336468 10.7797 0.333344 10.8891 0.333344 11C0.333344 13.7609 2.57241 16 5.33334 16C7.83491 16 9.90678 14.1641 10.2755 11.7656H12.2083C12.8302 11.7656 13.3333 11.2625 13.3333 10.6406V7.76562C13.3333 7.14375 12.8302 6.64062 12.2083 6.64062ZM9.20834 10.6406H9.19116C9.20209 10.7594 9.20834 10.8781 9.20834 11C9.20834 13.1406 7.47397 14.875 5.33334 14.875C3.19272 14.875 1.45834 13.1406 1.45834 11C1.45834 10.8781 1.46459 10.7594 1.47553 10.6406H1.45834V6.64062H9.20834V10.6406ZM12.2083 10.5156H10.4583V7.76562H12.2083V10.5156ZM7.91147 4.39062C8.22241 4.39062 8.47397 4.13906 8.47397 3.82812V0.5625C8.47397 0.251563 8.22241 0 7.91147 0C7.60053 0 7.34897 0.251563 7.34897 0.5625V3.82812C7.34897 4.13906 7.60053 4.39062 7.91147 4.39062ZM5.25522 4.39062C5.56616 4.39062 5.81772 4.13906 5.81772 3.82812V0.5625C5.81772 0.251563 5.56616 0 5.25522 0C4.94428 0 4.69272 0.251563 4.69272 0.5625V3.82812C4.69272 4.13906 4.94428 4.39062 5.25522 4.39062Z" fill="#2D415C"/>
</svg>
