<svg width="15" height="15" viewBox="0 0 15 15" fill="none" xmlns="http://www.w3.org/2000/svg">
<path d="M14.2151 6.62046C14.7583 6.62046 14.985 5.92261 14.5438 5.60093L7.83073 0.717724C7.73486 0.647486 7.61911 0.609619 7.50026 0.609619C7.38142 0.609619 7.26566 0.647486 7.16979 0.717724L0.456707 5.60093C0.0154959 5.92085 0.242254 6.62046 0.787176 6.62046H1.87526V13.1947H0.609636C0.532293 13.1947 0.469012 13.258 0.469012 13.3353V14.2494C0.469012 14.3267 0.532293 14.39 0.609636 14.39H14.3909C14.4682 14.39 14.5315 14.3267 14.5315 14.2494V13.3353C14.5315 13.258 14.4682 13.1947 14.3909 13.1947H13.1253V6.62046H14.2151ZM7.50026 1.95698L12.2657 5.42339H2.73483L7.50026 1.95698ZM3.14089 6.62046H5.19753V13.1947H3.14089V6.62046ZM6.46315 6.62046H8.51979V13.1947H6.46315V6.62046ZM11.8596 13.1947H9.78542V6.62046H11.8596V13.1947Z" fill="#8594A8"/>
</svg>
