<svg width="25" height="25" viewBox="0 0 25 25" fill="none" xmlns="http://www.w3.org/2000/svg">
<path d="M0 12C0 5.37258 5.37258 0 12 0H13C19.6274 0 25 5.37258 25 12V13C25 19.6274 19.6274 25 13 25H12C5.37258 25 0 19.6274 0 13V12Z" fill="#E0E9F5"/>
<path d="M15.6566 7.07666L18.7747 12.4775C18.7828 12.4914 18.7828 12.5085 18.7747 12.5224L15.6566 17.9232C15.6486 17.9371 15.6337 17.9457 15.6177 17.9457L9.38134 17.9457C9.3653 17.9457 9.35047 17.9371 9.34245 17.9232L6.22428 12.5224C6.21626 12.5085 6.21626 12.4914 6.22428 12.4775L9.34245 7.07666C9.35047 7.06276 9.3653 7.0542 9.38134 7.0542H15.6177C15.6337 7.0542 15.6486 7.06276 15.6566 7.07666Z" stroke="#8594A8" stroke-width="1.5"/>
</svg>
