<svg width="458" height="62" viewBox="0 0 458 62" fill="none" xmlns="http://www.w3.org/2000/svg">
<g filter="url(#filter0_i)">
<rect x="4" y="4" width="454" height="54" rx="8" fill="#E0E9F5"/>
</g>
<g filter="url(#filter1_d)">
<rect x="4" y="4" width="17" height="54" rx="8" fill="url(#paint0_linear)"/>
</g>
<path d="M40.2341 25.026L37.9161 21.416L44.7181 16.324H47.8721V43H43.5021V22.556L40.2341 25.026ZM61.1216 43.418C59.1709 43.418 57.4483 43.0253 55.9536 42.24C54.4843 41.4293 53.3949 40.3273 52.6856 38.934L55.1556 35.742C56.6503 37.946 58.5503 39.048 60.8556 39.048C62.1983 39.048 63.2496 38.706 64.0096 38.022C64.7696 37.338 65.1496 36.4513 65.1496 35.362C65.1496 34.146 64.7063 33.2213 63.8196 32.588C62.9583 31.9293 61.7549 31.6 60.2096 31.6H58.3096V27.23H60.0196C61.1849 27.23 62.1603 26.888 62.9456 26.204C63.7309 25.52 64.1236 24.646 64.1236 23.582C64.1236 22.5687 63.8323 21.7833 63.2496 21.226C62.6669 20.6433 61.8309 20.352 60.7416 20.352C58.6896 20.352 57.0176 21.302 55.7256 23.202L53.2936 20.124C54.7629 17.3627 57.3849 15.982 61.1596 15.982C63.4649 15.982 65.3143 16.6027 66.7076 17.844C68.1009 19.06 68.7976 20.694 68.7976 22.746C68.7976 25.7607 67.4423 27.8633 64.7316 29.054V29.168C66.3276 29.4467 67.5689 30.1687 68.4556 31.334C69.3676 32.474 69.8236 33.8673 69.8236 35.514C69.8236 37.9207 69.0003 39.846 67.3536 41.29C65.7069 42.7087 63.6296 43.418 61.1216 43.418Z" fill="#8594A8"/>
<path d="M78.5118 30.664C77.4678 30.664 76.6158 30.37 75.9558 29.782C75.2958 29.194 74.9658 28.414 74.9658 27.442C74.9658 26.482 75.2958 25.708 75.9558 25.12C76.6158 24.532 77.4678 24.238 78.5118 24.238C79.5438 24.238 80.3898 24.532 81.0498 25.12C81.7218 25.72 82.0578 26.494 82.0578 27.442C82.0578 28.402 81.7218 29.182 81.0498 29.782C80.3898 30.37 79.5438 30.664 78.5118 30.664ZM76.9098 27.442C76.9098 27.91 77.0598 28.288 77.3598 28.576C77.6598 28.852 78.0438 28.99 78.5118 28.99C78.9918 28.99 79.3818 28.852 79.6818 28.576C79.9818 28.288 80.1318 27.91 80.1318 27.442C80.1318 26.986 79.9758 26.62 79.6638 26.344C79.3638 26.056 78.9798 25.912 78.5118 25.912C78.0438 25.912 77.6598 26.056 77.3598 26.344C77.0598 26.62 76.9098 26.986 76.9098 27.442ZM86.4678 37.18C85.4238 37.18 84.5718 36.886 83.9118 36.298C83.2518 35.71 82.9218 34.93 82.9218 33.958C82.9218 32.998 83.2518 32.224 83.9118 31.636C84.5718 31.048 85.4238 30.754 86.4678 30.754C87.4998 30.754 88.3458 31.048 89.0058 31.636C89.6778 32.236 90.0138 33.01 90.0138 33.958C90.0138 34.918 89.6778 35.698 89.0058 36.298C88.3458 36.886 87.4998 37.18 86.4678 37.18ZM84.8658 33.958C84.8658 34.426 85.0158 34.804 85.3158 35.092C85.6158 35.368 85.9998 35.506 86.4678 35.506C86.9478 35.506 87.3378 35.368 87.6378 35.092C87.9378 34.804 88.0878 34.426 88.0878 33.958C88.0878 33.502 87.9318 33.136 87.6198 32.86C87.3198 32.572 86.9358 32.428 86.4678 32.428C85.9998 32.428 85.6158 32.572 85.3158 32.86C85.0158 33.136 84.8658 33.502 84.8658 33.958ZM78.5478 37.198L77.3598 36.37L86.4498 24.202L87.6198 25.084L78.5478 37.198Z" fill="#8594A8"/>
<defs>
<filter id="filter0_i" x="4" y="4" width="454" height="55" filterUnits="userSpaceOnUse" color-interpolation-filters="sRGB">
<feFlood flood-opacity="0" result="BackgroundImageFix"/>
<feBlend mode="normal" in="SourceGraphic" in2="BackgroundImageFix" result="shape"/>
<feColorMatrix in="SourceAlpha" type="matrix" values="0 0 0 0 0 0 0 0 0 0 0 0 0 0 0 0 0 0 127 0" result="hardAlpha"/>
<feOffset dy="1"/>
<feGaussianBlur stdDeviation="2"/>
<feComposite in2="hardAlpha" operator="arithmetic" k2="-1" k3="1"/>
<feColorMatrix type="matrix" values="0 0 0 0 0.176471 0 0 0 0 0.254902 0 0 0 0 0.360784 0 0 0 0.12 0"/>
<feBlend mode="normal" in2="shape" result="effect1_innerShadow"/>
</filter>
<filter id="filter1_d" x="0" y="0" width="25" height="62" filterUnits="userSpaceOnUse" color-interpolation-filters="sRGB">
<feFlood flood-opacity="0" result="BackgroundImageFix"/>
<feColorMatrix in="SourceAlpha" type="matrix" values="0 0 0 0 0 0 0 0 0 0 0 0 0 0 0 0 0 0 127 0"/>
<feOffset/>
<feGaussianBlur stdDeviation="2"/>
<feColorMatrix type="matrix" values="0 0 0 0 0.529412 0 0 0 0 0.909804 0 0 0 0 0.870588 0 0 0 0.4 0"/>
<feBlend mode="normal" in2="BackgroundImageFix" result="effect1_dropShadow"/>
<feBlend mode="normal" in="SourceGraphic" in2="effect1_dropShadow" result="shape"/>
</filter>
<linearGradient id="paint0_linear" x1="21" y1="31" x2="4" y2="31" gradientUnits="userSpaceOnUse">
<stop stop-color="#28805F"/>
<stop offset="1" stop-color="#FCFFE6"/>
</linearGradient>
</defs>
</svg>
