<svg width="458" height="62" viewBox="0 0 458 62" fill="none" xmlns="http://www.w3.org/2000/svg">
<g filter="url(#filter0_i)">
<rect x="4" y="4" width="454" height="54" rx="8" fill="#E0E9F5"/>
</g>
<g filter="url(#filter1_d)">
<rect x="4" y="4" width="374" height="54" rx="8" fill="url(#paint0_linear)"/>
</g>
<path d="M317.018 20.77H305.542V16.4H322.262V19.326L312.838 43H308.05L317.018 20.77ZM326.558 30.536L328.306 16.4H340.884V20.77H332.144L331.384 26.052C331.891 25.9507 332.398 25.9 332.904 25.9C335.336 25.9 337.325 26.6727 338.87 28.218C340.466 29.7633 341.264 31.8153 341.264 34.374C341.264 37.1353 340.39 39.3393 338.642 40.986C336.92 42.6073 334.741 43.418 332.106 43.418C330.662 43.418 329.18 43.0887 327.66 42.43C326.242 41.7713 325.127 40.834 324.316 39.618L326.824 36.312C327.356 37.1227 328.129 37.7813 329.142 38.288C330.181 38.7947 331.207 39.048 332.22 39.048C333.487 39.048 334.526 38.63 335.336 37.794C336.172 36.958 336.59 35.8813 336.59 34.564C336.59 33.1707 336.071 32.0433 335.032 31.182C334.019 30.2953 332.651 29.852 330.928 29.852C329.079 29.852 327.622 30.08 326.558 30.536Z" fill="white"/>
<path d="M349.512 30.664C348.468 30.664 347.616 30.37 346.956 29.782C346.296 29.194 345.966 28.414 345.966 27.442C345.966 26.482 346.296 25.708 346.956 25.12C347.616 24.532 348.468 24.238 349.512 24.238C350.544 24.238 351.39 24.532 352.05 25.12C352.722 25.72 353.058 26.494 353.058 27.442C353.058 28.402 352.722 29.182 352.05 29.782C351.39 30.37 350.544 30.664 349.512 30.664ZM347.91 27.442C347.91 27.91 348.06 28.288 348.36 28.576C348.66 28.852 349.044 28.99 349.512 28.99C349.992 28.99 350.382 28.852 350.682 28.576C350.982 28.288 351.132 27.91 351.132 27.442C351.132 26.986 350.976 26.62 350.664 26.344C350.364 26.056 349.98 25.912 349.512 25.912C349.044 25.912 348.66 26.056 348.36 26.344C348.06 26.62 347.91 26.986 347.91 27.442ZM357.468 37.18C356.424 37.18 355.572 36.886 354.912 36.298C354.252 35.71 353.922 34.93 353.922 33.958C353.922 32.998 354.252 32.224 354.912 31.636C355.572 31.048 356.424 30.754 357.468 30.754C358.5 30.754 359.346 31.048 360.006 31.636C360.678 32.236 361.014 33.01 361.014 33.958C361.014 34.918 360.678 35.698 360.006 36.298C359.346 36.886 358.5 37.18 357.468 37.18ZM355.866 33.958C355.866 34.426 356.016 34.804 356.316 35.092C356.616 35.368 357 35.506 357.468 35.506C357.948 35.506 358.338 35.368 358.638 35.092C358.938 34.804 359.088 34.426 359.088 33.958C359.088 33.502 358.932 33.136 358.62 32.86C358.32 32.572 357.936 32.428 357.468 32.428C357 32.428 356.616 32.572 356.316 32.86C356.016 33.136 355.866 33.502 355.866 33.958ZM349.548 37.198L348.36 36.37L357.45 24.202L358.62 25.084L349.548 37.198Z" fill="white"/>
<defs>
<filter id="filter0_i" x="4" y="4" width="454" height="55" filterUnits="userSpaceOnUse" color-interpolation-filters="sRGB">
<feFlood flood-opacity="0" result="BackgroundImageFix"/>
<feBlend mode="normal" in="SourceGraphic" in2="BackgroundImageFix" result="shape"/>
<feColorMatrix in="SourceAlpha" type="matrix" values="0 0 0 0 0 0 0 0 0 0 0 0 0 0 0 0 0 0 127 0" result="hardAlpha"/>
<feOffset dy="1"/>
<feGaussianBlur stdDeviation="2"/>
<feComposite in2="hardAlpha" operator="arithmetic" k2="-1" k3="1"/>
<feColorMatrix type="matrix" values="0 0 0 0 0.176471 0 0 0 0 0.254902 0 0 0 0 0.360784 0 0 0 0.12 0"/>
<feBlend mode="normal" in2="shape" result="effect1_innerShadow"/>
</filter>
<filter id="filter1_d" x="0" y="0" width="382" height="62" filterUnits="userSpaceOnUse" color-interpolation-filters="sRGB">
<feFlood flood-opacity="0" result="BackgroundImageFix"/>
<feColorMatrix in="SourceAlpha" type="matrix" values="0 0 0 0 0 0 0 0 0 0 0 0 0 0 0 0 0 0 127 0"/>
<feOffset/>
<feGaussianBlur stdDeviation="2"/>
<feColorMatrix type="matrix" values="0 0 0 0 0.529412 0 0 0 0 0.909804 0 0 0 0 0.870588 0 0 0 0.4 0"/>
<feBlend mode="normal" in2="BackgroundImageFix" result="effect1_dropShadow"/>
<feBlend mode="normal" in="SourceGraphic" in2="effect1_dropShadow" result="shape"/>
</filter>
<linearGradient id="paint0_linear" x1="378" y1="31" x2="3.99999" y2="30.9999" gradientUnits="userSpaceOnUse">
<stop stop-color="#28805F"/>
<stop offset="1" stop-color="#FCFFE6"/>
</linearGradient>
</defs>
</svg>
