<svg width="94" height="94" viewBox="0 0 94 94" fill="none" xmlns="http://www.w3.org/2000/svg">
<path d="M1.175 47C0.526062 47 -0.00153351 47.5263 0.0146866 48.175C0.236809 57.0598 2.97433 65.7087 7.92093 73.1118C13.0854 80.8409 20.4258 86.865 29.0139 90.4223C37.602 93.9797 47.0521 94.9104 56.1692 93.0969C65.2864 91.2834 73.661 86.8071 80.234 80.234C86.8071 73.6609 91.2834 65.2864 93.0969 56.1692C94.9104 47.0521 93.9797 37.602 90.4223 29.0139C86.865 20.4258 80.8409 13.0854 73.1118 7.92093C65.7087 2.97433 57.0598 0.23681 48.175 0.014685C47.5263 -0.00153362 47 0.526066 47 1.175C47 1.82394 47.5263 2.34839 48.175 2.36546C56.595 2.58705 64.7896 5.18651 71.8062 9.87488C79.1489 14.7811 84.8718 21.7545 88.2512 29.9132C91.6307 38.0719 92.5149 47.0495 90.7921 55.7108C89.0692 64.372 84.8167 72.3279 78.5723 78.5723C72.3279 84.8167 64.372 89.0692 55.7108 90.7921C47.0495 92.5149 38.0719 91.6307 29.9132 88.2512C21.7545 84.8718 14.7811 79.1489 9.87489 71.8062C5.18652 64.7896 2.58705 56.595 2.36546 48.175C2.34839 47.5263 1.82394 47 1.175 47Z" fill="#481AF9"/>
<path d="M10.2227 37.2656C9.70192 37.1278 9.16669 37.4381 9.04191 37.9621C7.23394 45.5552 7.74337 53.5244 10.5165 60.8364C13.4051 68.4528 18.605 74.9742 25.387 79.4862C32.169 83.9982 40.193 86.2744 48.334 85.9959C56.475 85.7173 64.3247 82.8979 70.7825 77.9329C77.2402 72.9679 81.9821 66.1063 84.3433 58.3103C86.7045 50.5142 86.5666 42.1747 83.949 34.461C81.3313 26.7473 76.3651 20.0462 69.7468 15.2974C63.3929 10.7384 55.8222 8.19822 48.0196 7.99428C47.481 7.98021 47.0436 8.41772 47.043 8.95645C47.0424 9.49519 47.4788 9.93108 48.0173 9.94587C55.4126 10.1489 62.5865 12.561 68.6094 16.8826C74.8969 21.3939 79.6147 27.7599 82.1015 35.0879C84.5883 42.4159 84.7193 50.3385 82.4761 57.7447C80.233 65.151 75.7282 71.6695 69.5933 76.3862C63.4585 81.103 56.0013 83.7814 48.2673 84.0461C40.5334 84.3107 32.9105 82.1482 26.4676 77.8619C20.0247 73.5755 15.0849 67.3802 12.3407 60.1446C9.71196 53.2134 9.22436 45.6606 10.9285 38.4615C11.0526 37.9372 10.7435 37.4034 10.2227 37.2656Z" fill="#475F7B"/>
<path d="M16.7386 47.0001C16.31 47.0001 15.9616 47.3477 15.9723 47.7761C16.119 53.6434 17.9268 59.3549 21.1934 64.2438C24.6039 69.3479 29.4513 73.3261 35.1227 75.6753C40.7941 78.0244 47.0348 78.6391 53.0555 77.4415C59.0762 76.2439 64.6066 73.2878 68.9473 68.9471C73.288 64.6064 76.2441 59.076 77.4417 53.0553C78.6393 47.0346 78.0247 40.7939 75.6755 35.1225C73.3263 29.4511 69.3481 24.6037 64.244 21.1932C59.3551 17.9266 53.6436 16.1188 47.7763 15.9721C47.3479 15.9614 47.0004 16.3098 47.0004 16.7383C47.0004 17.1669 47.3479 17.5132 47.7763 17.5245C53.3366 17.6708 58.7482 19.3875 63.3818 22.4836C68.2307 25.7235 72.01 30.3286 74.2417 35.7164C76.4734 41.1042 77.0574 47.0328 75.9196 52.7525C74.7819 58.4722 71.9737 63.7261 67.85 67.8498C63.7263 71.9734 58.4724 74.7817 52.7528 75.9194C47.0331 77.0571 41.1044 76.4732 35.7166 74.2415C30.3288 72.0098 25.7237 68.2305 22.4838 63.3816C19.3877 58.748 17.671 53.3364 17.5247 47.7761C17.5134 47.3477 17.1671 47.0001 16.7386 47.0001Z" fill="#C3BDF3"/>
</svg>
