<svg width="177" height="106" viewBox="0 0 177 106" fill="none" xmlns="http://www.w3.org/2000/svg">
<rect y="48" width="8" height="58" rx="2" fill="#E7EDF3"/>
<rect x="28" y="61" width="8" height="45" rx="2" fill="#E7EDF3"/>
<rect x="56" y="15" width="8" height="91" rx="2" fill="#E7EDF3"/>
<rect x="84" y="27" width="8" height="79" rx="2" fill="#E7EDF3"/>
<rect x="112" y="61" width="8" height="45" rx="2" fill="#E7EDF3"/>
<rect x="140" width="8" height="106" rx="2" fill="#E7EDF3"/>
<rect x="169" y="61" width="8" height="45" rx="2" fill="#E7EDF3"/>
<rect y="62" width="8" height="44" rx="2" fill="#481AF9"/>
<rect x="28" y="72" width="8" height="34" rx="2" fill="#481AF9"/>
<rect x="56" y="39" width="8" height="67" rx="2" fill="#481AF9"/>
<rect x="84" y="47" width="8" height="59" rx="2" fill="#481AF9"/>
<rect x="112" y="72" width="8" height="34" rx="2" fill="#481AF9"/>
<rect x="140" y="27" width="8" height="79" rx="2" fill="#481AF9"/>
<rect x="169" y="72" width="8" height="34" rx="2" fill="#481AF9"/>
</svg>
