<svg width="202" height="107" viewBox="0 0 202 107" fill="none" xmlns="http://www.w3.org/2000/svg">
<path opacity="0.2" d="M1 73.7075C15.0483 84.5888 38.2689 87.9879 50.5635 72.4347C56.6362 65.1773 54.5608 59.4483 77.7556 55.9435C101.406 50.676 105.248 27.9975 105.248 27.9975C105.248 27.9975 108.36 18.7723 121.596 18C132.976 18.0562 136.846 19.9049 145.397 27.2006C157.846 39.3214 155.135 48.2165 169.795 55.9435C185.377 60.7961 202 43.6114 202 43.6114" stroke="#481AF9" stroke-width="2" stroke-linecap="round" stroke-linejoin="bevel" stroke-dasharray="5"/>
<path opacity="0.3" fill-rule="evenodd" clip-rule="evenodd" d="M202 34C202 34 190.355 11.9714 178.798 23.6046C165.763 39.4824 165.763 56.386 149.124 56.386C139.119 53.4653 137.814 46.1501 134.226 41.5085C130.356 35.6541 125.202 34.4545 122.455 41.5085C117.775 50.4892 112.742 46.2154 112.742 46.2154C112.742 46.2154 102.553 34.866 92.3522 10.8213C82.151 -13.2233 70.5309 44.9908 70.5309 44.9908C70.5309 44.9908 67.3548 60.6223 56.8219 47.3585C46.289 34.0947 36.6976 50.6666 36.6976 50.6666C36.6976 50.6666 31.8055 59.8802 19.0721 44.9908C6.33858 30.1014 1 52 1 52V107H202V34Z" fill="url(#paint0_linear)"/>
<path d="M202 34.5363C202 34.5363 190.563 12.2417 178.994 23.9649C165.944 39.9656 165.944 57 149.287 57C139.271 54.0568 137.964 46.6849 134.373 42.0074C130.498 36.1077 125.338 34.8989 122.588 42.0074C117.904 51.0576 112.865 46.7508 112.865 46.7508C112.865 46.7508 102.665 35.3135 92.4526 11.0828C82.2401 -13.148 70.6072 45.5166 70.6072 45.5166C70.6072 45.5166 67.4277 61.2692 56.8832 47.9027C46.3387 34.5363 36.7368 51.2364 36.7368 51.2364C36.7368 51.2364 31.8394 60.5212 19.0919 45.5166C6.34445 30.512 0.999997 53.0663 0.999997 53.0663" stroke="#481AF9" stroke-linecap="round" stroke-linejoin="round"/>
<path fill-rule="evenodd" clip-rule="evenodd" d="M87 9C89.2091 9 91 7.20914 91 5C91 2.79086 89.2091 1 87 1C84.7909 1 83 2.79086 83 5C83 7.20914 84.7909 9 87 9Z" fill="#481AF9" stroke="white"/>
<defs>
<linearGradient id="paint0_linear" x1="202" y1="3.79291" x2="202" y2="107" gradientUnits="userSpaceOnUse">
<stop offset="0.00556905" stop-color="#0500FB"/>
<stop offset="1" stop-color="white"/>
</linearGradient>
</defs>
</svg>
