<svg width="24" height="24" viewBox="0 0 24 24" fill="none" xmlns="http://www.w3.org/2000/svg">
<path fill-rule="evenodd" clip-rule="evenodd" d="M2.82206 5.67463L7.056 8.1192C7.33791 8.27454 7.51384 8.57013 7.51595 8.892C7.51807 9.21387 7.34605 9.51174 7.06621 9.67078C6.78636 9.82981 6.44242 9.82517 6.16697 9.65863L1.93303 7.2144C1.51237 6.96683 1.36998 6.4264 1.61404 6.00369C1.85811 5.58098 2.39733 5.4341 2.82206 5.67463ZM18 1.60766C18.4251 1.85317 18.5708 2.39686 18.3253 2.82206L15.8807 7.056C15.7254 7.33791 15.4298 7.51384 15.108 7.51596C14.7861 7.51807 14.4882 7.34605 14.3292 7.06621C14.1701 6.78637 14.1748 6.44242 14.3413 6.16697L16.7859 1.93303C17.0314 1.50805 17.5748 1.36241 18 1.60766ZM17.833 14.3414L22.0669 16.7859C22.3488 16.9413 22.5248 17.2369 22.5269 17.5587C22.529 17.8806 22.357 18.1785 22.0771 18.3375C21.7973 18.4966 21.4533 18.4919 21.1779 18.3254L16.944 15.8808C16.662 15.7255 16.4861 15.4299 16.484 15.108C16.4819 14.7861 16.6539 14.4883 16.9337 14.3292C17.2136 14.1702 17.5575 14.1748 17.833 14.3414ZM9.33329 16.619C9.75847 16.8645 9.90414 17.4082 9.65866 17.8334L7.21409 22.0673C7.0567 22.3452 6.76233 22.5174 6.44295 22.5182C6.12356 22.5191 5.82825 22.3486 5.66933 22.0716C5.51042 21.7945 5.51232 21.4535 5.67431 21.1783L8.11889 16.9443C8.23672 16.7401 8.4309 16.591 8.65867 16.53C8.88643 16.469 9.12912 16.501 9.33329 16.619ZM7.2144 1.93303L9.65897 6.16697C9.82551 6.44242 9.83015 6.78636 9.67112 7.06621C9.51208 7.34605 9.21421 7.51807 8.89234 7.51595C8.57047 7.51384 8.27488 7.33791 8.11954 7.056L5.67463 2.82206C5.4341 2.39733 5.58098 1.85811 6.00369 1.61404C6.4264 1.36998 6.96683 1.51237 7.2144 1.93303ZM22.3923 6C22.5102 6.20413 22.5421 6.44674 22.4811 6.67442C22.4201 6.90211 22.2711 7.09622 22.0669 7.21406L17.833 9.65863C17.5575 9.82516 17.2136 9.82981 16.9337 9.67077C16.6539 9.51174 16.4819 9.21386 16.484 8.89199C16.4861 8.57012 16.662 8.27454 16.944 8.1192L21.1779 5.67463C21.6031 5.42915 22.1468 5.57482 22.3923 6ZM15.8807 16.9443L18.3253 21.1783C18.4919 21.4537 18.4965 21.7977 18.3375 22.0775C18.1784 22.3574 17.8806 22.5294 17.5587 22.5273C17.2368 22.5252 16.9412 22.3492 16.7859 22.0673L14.3413 17.8334C14.1748 17.5579 14.1701 17.214 14.3292 16.9341C14.4882 16.6543 14.7861 16.4823 15.108 16.4844C15.4298 16.4865 15.7254 16.6624 15.8807 16.9443ZM7.38142 14.6667C7.49929 14.8709 7.53122 15.1135 7.4702 15.3412C7.40918 15.5689 7.2602 15.763 7.05605 15.8808L2.8221 18.3254C2.39817 18.559 1.86525 18.4105 1.62318 17.9913C1.38111 17.5722 1.51886 17.0364 1.93308 16.7859L6.16702 14.3414C6.59222 14.0959 7.13591 14.2416 7.38142 14.6667ZM0.685714 11.1106H5.97874C6.35745 11.1106 6.66446 11.4176 6.66446 11.7963V12.2037C6.66446 12.5824 6.35745 12.8894 5.97874 12.8894H0.685714C0.307005 12.8894 0 12.5824 0 12.2037V11.7963C0 11.4176 0.307005 11.1106 0.685714 11.1106ZM11.7964 0H12.2037C12.5824 0 12.8894 0.307005 12.8894 0.685714V5.97874C12.8894 6.35745 12.5824 6.66446 12.2037 6.66446H11.7964C11.4177 6.66446 11.1107 6.35745 11.1107 5.97874V0.685714C11.1107 0.307005 11.4177 0 11.7964 0ZM18.0216 11.1106H23.3143C23.693 11.1106 24 11.4176 24 11.7963V12.2037C24 12.5824 23.693 12.8894 23.3143 12.8894H18.0216C17.6429 12.8894 17.3359 12.5824 17.3359 12.2037V11.7963C17.3359 11.4176 17.6429 11.1106 18.0216 11.1106ZM11.7964 17.3359H12.2037C12.5824 17.3359 12.8894 17.6429 12.8894 18.0216V23.3143C12.8894 23.693 12.5824 24 12.2037 24H11.7964C11.4177 24 11.1107 23.693 11.1107 23.3143V18.0216C11.1107 17.6429 11.4177 17.3359 11.7964 17.3359Z" fill="url(#paint0_angular)"/>
<defs>
<radialGradient id="paint0_angular" cx="0" cy="0" r="1" gradientUnits="userSpaceOnUse" gradientTransform="translate(12 12) rotate(-90) scale(12)">
<stop stop-color="#8594A8"/>
<stop offset="1" stop-color="#8594A8" stop-opacity="0.01"/>
</radialGradient>
</defs>
</svg>
