<svg width="16" height="16" viewBox="0 0 16 16" fill="none" xmlns="http://www.w3.org/2000/svg">
<path d="M5.99609 0.5C5.16797 0.5 4.49805 1.17188 4.49805 2C4.49805 2.39648 4.65625 2.7793 4.93555 3.06055C5.2168 3.3418 5.59766 3.5 5.99609 3.5H7.49414V2C7.49414 1.17383 6.82422 0.501953 5.99609 0.5ZM5.99609 4.5H1.99805C1.16992 4.5 0.5 5.17188 0.5 6C0.5 6.82812 1.17188 7.5 1.99805 7.5H5.99414C6.82227 7.5 7.49219 6.82812 7.49219 6C7.49414 5.17188 6.82227 4.5 5.99609 4.5ZM9.99219 7.5C10.8203 7.5 11.4922 6.82812 11.4902 6V2C11.4902 1.17188 10.8203 0.5 9.99219 0.5C9.16406 0.5 8.49414 1.17188 8.49414 2V6C8.49414 6.83008 9.16406 7.5 9.99219 7.5ZM15.4883 6C15.4883 5.17188 14.8164 4.5 13.9902 4.5C13.1641 4.5 12.4922 5.17188 12.4922 6V7.5H13.9902C14.8164 7.5 15.4883 6.82812 15.4883 6ZM13.9883 8.5H9.99219C9.16406 8.5 8.49414 9.17188 8.49414 10C8.49414 10.3965 8.65234 10.7793 8.93164 11.0605C9.21289 11.3418 9.59375 11.5 9.99219 11.5H13.9883C14.8164 11.5 15.4863 10.8281 15.4863 10C15.4883 9.17188 14.8164 8.50195 13.9883 8.5ZM9.99219 12.5H8.49414V14C8.49414 14.8281 9.16602 15.5 9.99219 15.5C10.8203 15.5 11.4922 14.8281 11.4902 14C11.4922 13.1719 10.8203 12.502 9.99219 12.5ZM5.99609 8.5C5.16797 8.5 4.49805 9.17188 4.49805 10V14C4.49805 14.8281 5.16992 15.5 5.99609 15.5C6.82422 15.5 7.49609 14.8281 7.49414 14V10C7.49414 9.60352 7.33594 9.2207 7.05664 8.93945C6.77539 8.6582 6.39258 8.5 5.99609 8.5ZM0.5 10C0.5 10.3965 0.658203 10.7793 0.9375 11.0605C1.21875 11.3418 1.59961 11.5 1.99805 11.5C2.82617 11.5 3.49805 10.8281 3.49609 10V8.5H1.99805C1.17188 8.5 0.5 9.17188 0.5 10Z" fill="#2D415C"/>
</svg>
