<svg width="729" height="127" viewBox="0 0 729 127" fill="none" xmlns="http://www.w3.org/2000/svg">
<path opacity="0.2" d="M0 59.1381C0 59.1381 85.4744 55.0964 110.123 74.683C134.772 94.2696 178.268 86.3233 192.441 66.9105C206.614 47.4977 238.402 45.4773 269.57 59.1381C291.814 70.4941 328.582 74.0415 348.049 57.8097C357.664 50.2356 354.378 44.2567 391.105 40.599C428.552 35.1017 434.636 11.4337 434.636 11.4337C434.636 11.4337 439.563 1.80596 460.521 1C478.54 1.05867 484.669 2.98797 498.207 10.6021C517.918 23.2517 513.626 32.5349 536.84 40.599C561.511 45.6633 587.832 27.7288 587.832 27.7288C587.832 27.7288 611.436 13.8995 632.415 29.3681C653.394 44.8367 661.5 70.1604 690.354 72.4217C719.209 74.683 727 83.3176 727 83.3176" stroke="#481AF9" stroke-width="2" stroke-linecap="round" stroke-linejoin="bevel" stroke-dasharray="5"/>
<path opacity="0.3" fill-rule="evenodd" clip-rule="evenodd" d="M729 51.9504C729 51.9504 685.606 29.1764 643.764 41.1518C596.565 57.4966 596.565 74.8973 536.321 74.8973C500.095 71.8908 495.368 64.3604 482.38 59.5822C468.367 53.5557 449.703 52.3208 439.757 59.5822C422.814 68.8271 404.59 64.4277 404.59 64.4277C404.59 64.4277 367.7 52.7444 330.764 27.9925C293.828 3.24068 251.754 63.167 251.754 63.167C251.754 63.167 240.254 79.2583 202.117 65.6044C163.98 51.9504 129.252 69.0098 129.252 69.0098C129.252 69.0098 111.539 78.4943 65.4343 63.167C19.3296 47.8396 0 70.879 0 70.879V126.373L729 127V51.9504Z" fill="url(#paint0_linear)"/>
<path d="M727 52.1124C727 52.1124 685.632 29.3973 643.788 41.3416C596.587 57.6442 596.587 75 536.342 75C500.114 72.0012 495.387 64.4903 482.398 59.7245C468.385 53.7135 449.72 52.4819 439.774 59.7245C422.83 68.9455 404.605 64.5574 404.605 64.5574C404.605 64.5574 367.714 52.9043 330.776 28.2164C293.839 3.52849 251.763 63.3 251.763 63.3C251.763 63.3 240.263 79.3497 202.125 65.7311C163.986 52.1124 129.257 69.1277 129.257 69.1277C129.257 69.1277 111.543 78.5877 65.4369 63.3C19.3304 48.0122 1.68085e-05 70.992 1.68085e-05 70.992" stroke="#481AF9" stroke-width="3" stroke-linecap="round" stroke-linejoin="round"/>
<path fill-rule="evenodd" clip-rule="evenodd" d="M307 28C310.866 28 314 24.866 314 21C314 17.134 310.866 14 307 14C303.134 14 300 17.134 300 21C300 24.866 303.134 28 307 28Z" fill="#481AF9" stroke="white" stroke-width="3"/>
<defs>
<linearGradient id="paint0_linear" x1="726.541" y1="20.7575" x2="726.541" y2="127" gradientUnits="userSpaceOnUse">
<stop offset="0.00556905" stop-color="#0500FB"/>
<stop offset="1" stop-color="white"/>
</linearGradient>
</defs>
</svg>
