<svg width="968" height="127" viewBox="0 0 968 127" fill="none" xmlns="http://www.w3.org/2000/svg">
<path opacity="0.2" d="M3 59.1381C3 59.1381 116.456 55.0964 149.174 74.683C181.892 94.2696 239.629 86.3233 258.441 66.9105C277.254 47.4977 319.449 45.4773 360.82 59.1381C390.346 70.4941 439.15 74.0415 464.991 57.8097C477.754 50.2356 473.392 44.2567 522.142 40.599C571.848 35.1017 579.924 11.4337 579.924 11.4337C579.924 11.4337 586.465 1.80596 614.283 1C638.2 1.05867 646.336 2.98797 664.306 10.6021C690.471 23.2517 684.773 32.5349 715.586 40.599C748.334 45.6633 783.272 27.7288 783.272 27.7288C783.272 27.7288 814.603 13.8995 842.451 29.3681C870.298 44.8367 881.057 70.1604 919.357 72.4217C957.658 74.683 968 83.3176 968 83.3176" stroke="#481AF9" stroke-width="2" stroke-linecap="round" stroke-linejoin="bevel" stroke-dasharray="5"/>
<path opacity="0.3" fill-rule="evenodd" clip-rule="evenodd" d="M968 51.9504C968 51.9504 910.201 29.1764 854.468 41.1518C791.601 57.4966 791.601 74.8973 711.359 74.8973C663.107 71.8908 656.811 64.3604 639.511 59.5822C620.847 53.5557 595.987 52.3208 582.739 59.5822C560.173 68.8271 535.898 64.4277 535.898 64.4277C535.898 64.4277 486.762 52.7444 437.564 27.9925C388.367 3.24068 332.326 63.167 332.326 63.167C332.326 63.167 317.009 79.2583 266.212 65.6044C215.415 51.9504 169.159 69.0098 169.159 69.0098C169.159 69.0098 145.566 78.4943 84.1561 63.167C22.7463 47.8396 -3 70.879 -3 70.879V126.373L968 127V51.9504Z" fill="url(#paint0_linear)"/>
<path d="M967 52.1124C967 52.1124 911.748 29.3973 855.86 41.3416C792.818 57.6442 792.818 75 712.352 75C663.965 72.0012 657.651 64.4903 640.303 59.7245C621.587 53.7135 596.657 52.4819 583.373 59.7245C560.743 68.9455 536.401 64.5574 536.401 64.5574C536.401 64.5574 487.128 52.9043 437.793 28.2164C388.459 3.52849 332.262 63.3 332.262 63.3C332.262 63.3 316.902 79.3497 265.963 65.7311C215.024 52.1124 168.639 69.1277 168.639 69.1277C168.639 69.1277 144.98 78.5877 83.3993 63.3C21.8182 48.0122 -3.99996 70.992 -3.99996 70.992" stroke="#481AF9" stroke-width="3" stroke-linecap="round" stroke-linejoin="round"/>
<path fill-rule="evenodd" clip-rule="evenodd" d="M411 29C414.866 29 418 25.866 418 22C418 18.134 414.866 15 411 15C407.134 15 404 18.134 404 22C404 25.866 407.134 29 411 29Z" fill="#481AF9" stroke="white" stroke-width="3"/>
<defs>
<linearGradient id="paint0_linear" x1="964.725" y1="20.7575" x2="964.725" y2="127" gradientUnits="userSpaceOnUse">
<stop offset="0.00556905" stop-color="#0500FB"/>
<stop offset="1" stop-color="white"/>
</linearGradient>
</defs>
</svg>
