<svg width="6" height="12" viewBox="0 0 6 12" fill="none" xmlns="http://www.w3.org/2000/svg">
<path d="M3.79102 1.625C3.79102 1.85706 3.8832 2.07962 4.0473 2.24372C4.21139 2.40781 4.43395 2.5 4.66602 2.5C4.89808 2.5 5.12064 2.40781 5.28473 2.24372C5.44883 2.07962 5.54102 1.85706 5.54102 1.625C5.54102 1.39294 5.44883 1.17038 5.28473 1.00628C5.12064 0.842187 4.89808 0.75 4.66602 0.75C4.43395 0.75 4.21139 0.842187 4.0473 1.00628C3.8832 1.17038 3.79102 1.39294 3.79102 1.625ZM3.79102 6C3.79102 6.23206 3.8832 6.45462 4.0473 6.61872C4.21139 6.78281 4.43395 6.875 4.66602 6.875C4.89808 6.875 5.12064 6.78281 5.28473 6.61872C5.44883 6.45462 5.54102 6.23206 5.54102 6C5.54102 5.76794 5.44883 5.54538 5.28473 5.38128C5.12064 5.21719 4.89808 5.125 4.66602 5.125C4.43395 5.125 4.21139 5.21719 4.0473 5.38128C3.8832 5.54538 3.79102 5.76794 3.79102 6ZM3.79102 10.375C3.79102 10.6071 3.8832 10.8296 4.0473 10.9937C4.21139 11.1578 4.43395 11.25 4.66602 11.25C4.89808 11.25 5.12064 11.1578 5.28473 10.9937C5.44883 10.8296 5.54102 10.6071 5.54102 10.375C5.54102 10.1429 5.44883 9.92038 5.28473 9.75628C5.12064 9.59219 4.89808 9.5 4.66602 9.5C4.43395 9.5 4.21139 9.59219 4.0473 9.75628C3.8832 9.92038 3.79102 10.1429 3.79102 10.375Z" fill="#8594A8"/>
<path d="M0.458008 1.625C0.458008 1.85706 0.550195 2.07962 0.714289 2.24372C0.878384 2.40781 1.10094 2.5 1.33301 2.5C1.56507 2.5 1.78763 2.40781 1.95173 2.24372C2.11582 2.07962 2.20801 1.85706 2.20801 1.625C2.20801 1.39294 2.11582 1.17038 1.95173 1.00628C1.78763 0.842187 1.56507 0.75 1.33301 0.75C1.10094 0.75 0.878384 0.842187 0.714289 1.00628C0.550195 1.17038 0.458008 1.39294 0.458008 1.625ZM0.458008 6C0.458008 6.23206 0.550195 6.45462 0.714289 6.61872C0.878384 6.78281 1.10094 6.875 1.33301 6.875C1.56507 6.875 1.78763 6.78281 1.95173 6.61872C2.11582 6.45462 2.20801 6.23206 2.20801 6C2.20801 5.76794 2.11582 5.54538 1.95173 5.38128C1.78763 5.21719 1.56507 5.125 1.33301 5.125C1.10094 5.125 0.878384 5.21719 0.714289 5.38128C0.550195 5.54538 0.458008 5.76794 0.458008 6ZM0.458008 10.375C0.458008 10.6071 0.550195 10.8296 0.714289 10.9937C0.878384 11.1578 1.10094 11.25 1.33301 11.25C1.56507 11.25 1.78763 11.1578 1.95173 10.9937C2.11582 10.8296 2.20801 10.6071 2.20801 10.375C2.20801 10.1429 2.11582 9.92038 1.95173 9.75628C1.78763 9.59219 1.56507 9.5 1.33301 9.5C1.10094 9.5 0.878384 9.59219 0.714289 9.75628C0.550195 9.92038 0.458008 10.1429 0.458008 10.375Z" fill="#8594A8"/>
</svg>
