<svg width="14" height="14" viewBox="0 0 14 14" fill="none" xmlns="http://www.w3.org/2000/svg">
<path fill-rule="evenodd" clip-rule="evenodd" d="M7 0C5.16406 0 3.49375 0.70625 2.24531 1.8625C2.2438 1.86401 2.24213 1.86552 2.24041 1.86708C2.23676 1.87037 2.23287 1.87389 2.22969 1.87812C2.21406 1.89219 2.19844 1.90781 2.18282 1.92343C2.17501 1.93124 2.16719 1.93906 2.15781 1.94688C2.14609 1.95781 2.13438 1.96914 2.12266 1.98047C2.11094 1.9918 2.09922 2.00312 2.0875 2.01406L2.00625 2.09531C1.95469 2.14688 1.90469 2.2 1.85469 2.25312L1.85313 2.25469C1.82813 2.28125 1.80469 2.30781 1.78125 2.33437L1.77969 2.33594C1.75781 2.35938 1.73594 2.38438 1.71563 2.40937C1.7125 2.41328 1.70938 2.4168 1.70625 2.42031C1.70313 2.42383 1.7 2.42734 1.69688 2.43125C1.68828 2.44063 1.68008 2.45039 1.67188 2.46016C1.66367 2.46992 1.65547 2.47969 1.64687 2.48906C1.64531 2.49141 1.64336 2.49336 1.64141 2.49531C1.63945 2.49727 1.6375 2.49922 1.63594 2.50156C0.615625 3.71719 0 5.28594 0 7C0 8.71406 0.615625 10.2828 1.6375 11.5C1.63906 11.5023 1.64101 11.5047 1.64297 11.507C1.64492 11.5094 1.64687 11.5117 1.64844 11.5141L1.69688 11.5719C1.7 11.5758 1.70313 11.5793 1.70625 11.5828C1.70938 11.5863 1.7125 11.5898 1.71563 11.5938L1.77969 11.6672C1.77969 11.6688 1.78125 11.6688 1.78125 11.6703C1.80468 11.6969 1.82813 11.7234 1.85313 11.7484L1.85469 11.75C1.90469 11.8031 1.95469 11.8562 2.00469 11.9078L2.00625 11.9094C2.01464 11.9178 2.02286 11.9262 2.03101 11.9345C2.04716 11.951 2.06308 11.9672 2.07969 11.9828L2.08437 11.9875C2.13594 12.0391 2.18906 12.0891 2.24219 12.1375C3.49375 13.2937 5.16406 14 7 14V0ZM6.5625 9.01406V7.4375H4.25781C4.28281 8.12969 4.36875 8.79844 4.5125 9.43437L4.51719 9.45312C5.15938 9.20938 5.84688 9.05781 6.5625 9.01406ZM4.5125 4.56563C4.36875 5.20156 4.28281 5.87188 4.25781 6.5625H6.5625V4.98594C5.84531 4.94219 5.15938 4.79063 4.51719 4.54688L4.5125 4.56563ZM6.5625 12.7875V9.89062C5.93906 9.93438 5.33438 10.0703 4.75313 10.2984C4.88281 10.6812 5.03438 11.0359 5.20625 11.3578C5.47813 11.8641 5.79844 12.2703 6.12969 12.5312C6.27344 12.6453 6.41875 12.7297 6.5625 12.7875ZM4.75469 3.7C5.33283 3.92806 5.94251 4.06612 6.5625 4.10938H6.56406V1.21094C6.41875 1.26875 6.275 1.35469 6.13125 1.46719C5.79844 1.72812 5.47969 2.13438 5.20781 2.64062C5.03438 2.96094 4.88438 3.31562 4.75469 3.7ZM4.75281 1.57016C4.73995 1.57541 4.72705 1.58067 4.71406 1.58594C4.09375 1.84844 3.52969 2.21094 3.03281 2.66719C3.32188 2.91406 3.63281 3.13281 3.96094 3.32031C4.20625 2.61719 4.52031 2.00625 4.88594 1.51719C4.84111 1.53415 4.79722 1.55205 4.75281 1.57016ZM2.43281 3.30469C2.08594 3.73281 1.80156 4.20469 1.58594 4.71406C1.3375 5.30313 1.1875 5.92344 1.14062 6.5625H3.38281C3.4125 5.71563 3.525 4.91094 3.70625 4.17812C3.24844 3.93437 2.82188 3.64062 2.43281 3.30469ZM3.38281 7.4375H1.14062C1.22776 8.6301 1.6788 9.76723 2.43281 10.6953C2.82347 10.3577 3.25059 10.0647 3.70625 9.82187C3.525 9.08906 3.4125 8.28438 3.38281 7.4375ZM3.03281 11.3328C3.52969 11.7891 4.09375 12.1516 4.71406 12.4141C4.77031 12.4375 4.82813 12.4609 4.88594 12.4828C4.52031 11.9938 4.20625 11.3828 3.96094 10.6797C3.63281 10.8688 3.32188 11.0859 3.03281 11.3328Z" fill="#8594A8"/>
<path d="M7 14C10.7449 13.8895 13.7513 10.8369 13.7896 7.07168C13.828 3.23712 10.8054 0.111237 7 0V1.23839C7.70429 1.26325 8.38777 1.41334 9.0308 1.68745C9.71574 1.97711 10.338 2.39691 10.863 2.92357C11.3939 3.45288 11.8092 4.07012 12.0991 4.75577C12.4004 5.46585 12.5519 6.22154 12.5519 7.00002C12.5536 7.7701 12.4007 8.53269 12.1024 9.24263C11.8109 9.92828 11.3956 10.5455 10.8663 11.0748C10.3412 11.6015 9.71899 12.0213 9.03406 12.311C8.38757 12.5853 7.70464 12.7354 7 12.7601V14Z" fill="#8594A8"/>
<path d="M7.64093 3.16965L8.35912 3.39114C8.42481 3.4114 8.46199 3.48173 8.44173 3.54743L7.30205 7.24287L8.95647 9.4389C8.99871 9.4928 8.98764 9.57114 8.93028 9.61395L8.32367 10.0646C8.26827 10.1063 8.19039 10.0938 8.14861 10.0384L6.9982 8.49631L6.9982 7.62451L6.99992 6.7417L6.99992 4.82401L7.48465 3.25226C7.50491 3.18656 7.57524 3.14939 7.64093 3.16965Z" fill="#8594A8"/>
<rect x="6.69275" y="1.66602" width="0.614749" height="1.33333" rx="0.2" fill="#8594A8"/>
<rect x="6.69275" y="11" width="0.614749" height="1.33333" rx="0.2" fill="#8594A8"/>
<rect x="10.6666" y="7.30664" width="0.614749" height="1.33333" rx="0.2" transform="rotate(-90 10.6666 7.30664)" fill="#8594A8"/>
</svg>
