<svg width="280" height="268" viewBox="0 0 280 268" fill="none" xmlns="http://www.w3.org/2000/svg">
<line x1="351.326" y1="146.38" x2="32.3256" y2="419.38" stroke="#ADC1DB"/>
<line x1="350.709" y1="146.406" x2="48.6358" y2="-70.4922" stroke="#ADC1DB"/>
<line x1="350.956" y1="146.498" x2="136.956" y2="127.498" stroke="#ADC1DB"/>
<line x1="351.108" y1="145.488" x2="-326.847" y2="294.696" stroke="#ADC1DB"/>
<line x1="134.431" y1="123.745" x2="192.431" y2="221.745" stroke="#ADC1DB"/>
<line x1="133.515" y1="124.121" x2="116.515" y2="56.1213" stroke="#ADC1DB"/>
<line x1="133.94" y1="124.496" x2="51.94" y2="114.496" stroke="#ADC1DB"/>
<line x1="134.456" y1="124.207" x2="94.4557" y2="212.207" stroke="#ADC1DB"/>
<g filter="url(#filter0_d)">
<g clip-path="url(#clip0)">
<path d="M98 54C98 45.1634 105.163 38 114 38H118C126.837 38 134 45.1634 134 54V58C134 66.8366 126.837 74 118 74H114C105.163 74 98 66.8366 98 58V54Z" fill="#FAFAFA"/>
<path d="M124.689 62.5059L123.508 58.3438V49.2812C123.508 48.9355 123.228 48.6562 122.883 48.6562H109.133C108.787 48.6562 108.508 48.9355 108.508 49.2812V58.3438L107.326 62.5059C107.18 62.9141 107.48 63.3438 107.914 63.3438H124.101C124.535 63.3438 124.836 62.9141 124.689 62.5059ZM109.914 50.0625H122.101V57.7773H109.914V50.0625ZM114.373 61.9375L114.531 61.2148H117.467L117.625 61.9375H114.373ZM118.748 61.9375L118.375 60.2441C118.359 60.1719 118.295 60.1211 118.223 60.1211H113.777C113.703 60.1211 113.641 60.1719 113.625 60.2441L113.252 61.9375H108.949L109.775 59.0273H122.24L123.066 61.9375H118.748Z" fill="#2D415C"/>
</g>
</g>
<g filter="url(#filter1_d)">
<g clip-path="url(#clip1)">
<path d="M120 -10C120 -18.8366 127.163 -26 136 -26H140C148.837 -26 156 -18.8366 156 -10V-6C156 2.83656 148.837 10 140 10H136C127.163 10 120 2.83656 120 -6V-10Z" fill="#FAFAFA"/>
</g>
</g>
<g filter="url(#filter2_d)">
<g clip-path="url(#clip2)">
<path d="M34 112C34 103.163 41.1634 96 50 96H54C62.8366 96 70 103.163 70 112V116C70 124.837 62.8366 132 54 132H50C41.1634 132 34 124.837 34 116V112Z" fill="#FAFAFA"/>
<path d="M60.6894 120.506L59.5077 116.344V107.281C59.5077 106.936 59.2284 106.656 58.8827 106.656H45.1327C44.787 106.656 44.5077 106.936 44.5077 107.281V116.344L43.3261 120.506C43.1796 120.914 43.4804 121.344 43.914 121.344H60.1015C60.5351 121.344 60.8358 120.914 60.6894 120.506ZM45.914 108.062H58.1015V115.777H45.914V108.062ZM50.3729 119.938L50.5311 119.215H53.4667L53.6249 119.938H50.3729ZM54.7479 119.938L54.3749 118.244C54.3593 118.172 54.2948 118.121 54.2226 118.121H49.7772C49.703 118.121 49.6405 118.172 49.6249 118.244L49.2519 119.938H44.9491L45.7753 117.027H58.2401L59.0663 119.938H54.7479Z" fill="#2D415C"/>
</g>
</g>
<g filter="url(#filter3_d)">
<g clip-path="url(#clip3)">
<path d="M76 210C76 201.163 83.1634 194 92 194H96C104.837 194 112 201.163 112 210V214C112 222.837 104.837 230 96 230H92C83.1634 230 76 222.837 76 214V210Z" fill="#FAFAFA"/>
<path d="M102.689 218.506L101.508 214.344V205.281C101.508 204.936 101.228 204.656 100.883 204.656H87.1327C86.787 204.656 86.5077 204.936 86.5077 205.281V214.344L85.3261 218.506C85.1796 218.914 85.4804 219.344 85.914 219.344H102.101C102.535 219.344 102.836 218.914 102.689 218.506ZM87.914 206.062H100.101V213.777H87.914V206.062ZM92.3729 217.938L92.5311 217.215H95.4667L95.6249 217.938H92.3729ZM96.7479 217.938L96.3749 216.244C96.3593 216.172 96.2948 216.121 96.2226 216.121H91.7772C91.703 216.121 91.6405 216.172 91.6249 216.244L91.2519 217.938H86.9491L87.7753 215.027H100.24L101.066 217.938H96.7479Z" fill="#2D415C"/>
</g>
</g>
<g filter="url(#filter4_d)">
<g clip-path="url(#clip4)">
<path d="M174 220C174 211.163 181.163 204 190 204H194C202.837 204 210 211.163 210 220V224C210 232.837 202.837 240 194 240H190C181.163 240 174 232.837 174 224V220Z" fill="#FAFAFA"/>
<path d="M200.689 228.506L199.508 224.344V215.281C199.508 214.936 199.228 214.656 198.883 214.656H185.133C184.787 214.656 184.508 214.936 184.508 215.281V224.344L183.326 228.506C183.18 228.914 183.48 229.344 183.914 229.344H200.101C200.535 229.344 200.836 228.914 200.689 228.506ZM185.914 216.062H198.101V223.777H185.914V216.062ZM190.373 227.938L190.531 227.215H193.467L193.625 227.938H190.373ZM194.748 227.938L194.375 226.244C194.359 226.172 194.295 226.121 194.223 226.121H189.777C189.703 226.121 189.641 226.172 189.625 226.244L189.252 227.938H184.949L185.775 225.027H198.24L199.066 227.938H194.748Z" fill="#2D415C"/>
</g>
</g>
<g filter="url(#filter5_d)">
<path d="M65 83C65 74.1634 72.1634 67 81 67H187C195.837 67 203 74.1634 203 83V165C203 173.837 195.837 181 187 181H81C72.1634 181 65 173.837 65 165V83Z" fill="#FAFAFA"/>
<path d="M140.25 76.25H127.75C127.404 76.25 127.125 76.5293 127.125 76.875V93.125C127.125 93.4707 127.404 93.75 127.75 93.75H140.25C140.596 93.75 140.875 93.4707 140.875 93.125V76.875C140.875 76.5293 140.596 76.25 140.25 76.25ZM128.531 77.6562H139.469V81.7188H128.531V77.6562ZM139.469 87.0312H128.531V82.9688H139.469V87.0312ZM139.469 92.3438H128.531V88.2812H139.469V92.3438ZM129.938 79.6875C129.938 79.8947 130.02 80.0934 130.166 80.2399C130.313 80.3864 130.512 80.4688 130.719 80.4688C130.926 80.4688 131.125 80.3864 131.271 80.2399C131.418 80.0934 131.5 79.8947 131.5 79.6875C131.5 79.4803 131.418 79.2816 131.271 79.1351C131.125 78.9886 130.926 78.9062 130.719 78.9062C130.512 78.9062 130.313 78.9886 130.166 79.1351C130.02 79.2816 129.938 79.4803 129.938 79.6875ZM129.938 85C129.938 85.2072 130.02 85.4059 130.166 85.5524C130.313 85.6989 130.512 85.7812 130.719 85.7812C130.926 85.7812 131.125 85.6989 131.271 85.5524C131.418 85.4059 131.5 85.2072 131.5 85C131.5 84.7928 131.418 84.5941 131.271 84.4476C131.125 84.3011 130.926 84.2188 130.719 84.2188C130.512 84.2188 130.313 84.3011 130.166 84.4476C130.02 84.5941 129.938 84.7928 129.938 85ZM129.938 90.3125C129.938 90.5197 130.02 90.7184 130.166 90.8649C130.313 91.0114 130.512 91.0938 130.719 91.0938C130.926 91.0938 131.125 91.0114 131.271 90.8649C131.418 90.7184 131.5 90.5197 131.5 90.3125C131.5 90.1053 131.418 89.9066 131.271 89.7601C131.125 89.6136 130.926 89.5312 130.719 89.5312C130.512 89.5312 130.313 89.6136 130.166 89.7601C130.02 89.9066 129.938 90.1053 129.938 90.3125Z" fill="#2D415C"/>
<path d="M120.528 116.326C120.528 117.213 120.206 117.903 119.562 118.398C118.918 118.893 118.05 119.14 116.958 119.14C116.398 119.14 115.88 119.098 115.404 119.014C114.928 118.93 114.531 118.813 114.214 118.664V117.46C114.55 117.609 114.965 117.745 115.46 117.866C115.964 117.987 116.482 118.048 117.014 118.048C117.761 118.048 118.321 117.903 118.694 117.614C119.077 117.325 119.268 116.933 119.268 116.438C119.268 116.111 119.198 115.836 119.058 115.612C118.918 115.388 118.675 115.183 118.33 114.996C117.994 114.8 117.523 114.595 116.916 114.38C116.067 114.072 115.423 113.694 114.984 113.246C114.555 112.798 114.34 112.187 114.34 111.412C114.34 110.88 114.475 110.427 114.746 110.054C115.017 109.671 115.39 109.377 115.866 109.172C116.351 108.967 116.907 108.864 117.532 108.864C118.083 108.864 118.587 108.915 119.044 109.018C119.501 109.121 119.917 109.256 120.29 109.424L119.898 110.502C119.553 110.353 119.175 110.227 118.764 110.124C118.363 110.021 117.943 109.97 117.504 109.97C116.879 109.97 116.407 110.105 116.09 110.376C115.773 110.637 115.614 110.987 115.614 111.426C115.614 111.762 115.684 112.042 115.824 112.266C115.964 112.49 116.193 112.691 116.51 112.868C116.827 113.045 117.257 113.237 117.798 113.442C118.386 113.657 118.881 113.89 119.282 114.142C119.693 114.385 120.001 114.679 120.206 115.024C120.421 115.369 120.528 115.803 120.528 116.326ZM125.032 111.356C125.676 111.356 126.226 111.496 126.684 111.776C127.15 112.056 127.505 112.453 127.748 112.966C128 113.47 128.126 114.063 128.126 114.744V115.486H122.988C123.006 116.335 123.221 116.984 123.632 117.432C124.052 117.871 124.635 118.09 125.382 118.09C125.858 118.09 126.278 118.048 126.642 117.964C127.015 117.871 127.398 117.74 127.79 117.572V118.65C127.407 118.818 127.029 118.939 126.656 119.014C126.282 119.098 125.839 119.14 125.326 119.14C124.616 119.14 123.986 118.995 123.436 118.706C122.894 118.417 122.47 117.987 122.162 117.418C121.863 116.839 121.714 116.135 121.714 115.304C121.714 114.483 121.849 113.778 122.12 113.19C122.4 112.602 122.787 112.149 123.282 111.832C123.786 111.515 124.369 111.356 125.032 111.356ZM125.018 112.364C124.43 112.364 123.963 112.555 123.618 112.938C123.282 113.311 123.081 113.834 123.016 114.506H126.838C126.828 113.871 126.679 113.358 126.39 112.966C126.1 112.565 125.643 112.364 125.018 112.364ZM133.296 111.356C133.436 111.356 133.585 111.365 133.744 111.384C133.912 111.393 134.057 111.412 134.178 111.44L134.024 112.574C133.903 112.546 133.767 112.523 133.618 112.504C133.478 112.485 133.343 112.476 133.212 112.476C132.829 112.476 132.47 112.583 132.134 112.798C131.798 113.003 131.527 113.297 131.322 113.68C131.126 114.053 131.028 114.492 131.028 114.996V119H129.796V111.496H130.804L130.944 112.868H131C131.243 112.457 131.555 112.103 131.938 111.804C132.321 111.505 132.773 111.356 133.296 111.356ZM136.991 119L134.149 111.496H135.465L137.061 115.92C137.136 116.125 137.215 116.354 137.299 116.606C137.383 116.858 137.458 117.101 137.523 117.334C137.588 117.558 137.635 117.749 137.663 117.908H137.719C137.756 117.749 137.808 117.553 137.873 117.32C137.948 117.087 138.027 116.844 138.111 116.592C138.204 116.34 138.284 116.116 138.349 115.92L139.945 111.496H141.261L138.405 119H136.991ZM145.107 111.356C145.751 111.356 146.301 111.496 146.759 111.776C147.225 112.056 147.58 112.453 147.823 112.966C148.075 113.47 148.201 114.063 148.201 114.744V115.486H143.063C143.081 116.335 143.296 116.984 143.707 117.432C144.127 117.871 144.71 118.09 145.457 118.09C145.933 118.09 146.353 118.048 146.717 117.964C147.09 117.871 147.473 117.74 147.865 117.572V118.65C147.482 118.818 147.104 118.939 146.731 119.014C146.357 119.098 145.914 119.14 145.401 119.14C144.691 119.14 144.061 118.995 143.511 118.706C142.969 118.417 142.545 117.987 142.237 117.418C141.938 116.839 141.789 116.135 141.789 115.304C141.789 114.483 141.924 113.778 142.195 113.19C142.475 112.602 142.862 112.149 143.357 111.832C143.861 111.515 144.444 111.356 145.107 111.356ZM145.093 112.364C144.505 112.364 144.038 112.555 143.693 112.938C143.357 113.311 143.156 113.834 143.091 114.506H146.913C146.903 113.871 146.754 113.358 146.465 112.966C146.175 112.565 145.718 112.364 145.093 112.364ZM153.371 111.356C153.511 111.356 153.66 111.365 153.819 111.384C153.987 111.393 154.132 111.412 154.253 111.44L154.099 112.574C153.978 112.546 153.842 112.523 153.693 112.504C153.553 112.485 153.418 112.476 153.287 112.476C152.904 112.476 152.545 112.583 152.209 112.798C151.873 113.003 151.602 113.297 151.397 113.68C151.201 114.053 151.103 114.492 151.103 114.996V119H149.871V111.496H150.879L151.019 112.868H151.075C151.318 112.457 151.63 112.103 152.013 111.804C152.396 111.505 152.848 111.356 153.371 111.356Z" fill="#1C2026"/>
<path d="M76.576 146H73.48V145.376L74.488 145.148V138.296L73.48 138.056V137.432H76.576V138.056L75.568 138.296V145.148L76.576 145.376V146ZM80.4184 137.432C81.5384 137.432 82.3544 137.652 82.8664 138.092C83.3784 138.532 83.6344 139.152 83.6344 139.952C83.6344 140.424 83.5264 140.868 83.3104 141.284C83.1024 141.692 82.7464 142.024 82.2424 142.28C81.7464 142.536 81.0704 142.664 80.2144 142.664H79.2304V146H78.1504V137.432H80.4184ZM80.3224 138.356H79.2304V141.74H80.0944C80.9104 141.74 81.5184 141.608 81.9184 141.344C82.3184 141.08 82.5184 140.632 82.5184 140C82.5184 139.448 82.3424 139.036 81.9904 138.764C81.6384 138.492 81.0824 138.356 80.3224 138.356ZM85.036 140.216C85.036 139.912 85.108 139.7 85.252 139.58C85.396 139.46 85.568 139.4 85.768 139.4C85.976 139.4 86.152 139.46 86.296 139.58C86.448 139.7 86.524 139.912 86.524 140.216C86.524 140.504 86.448 140.712 86.296 140.84C86.152 140.968 85.976 141.032 85.768 141.032C85.568 141.032 85.396 140.968 85.252 140.84C85.108 140.712 85.036 140.504 85.036 140.216ZM85.036 145.352C85.036 145.056 85.108 144.848 85.252 144.728C85.396 144.608 85.568 144.548 85.768 144.548C85.976 144.548 86.152 144.608 86.296 144.728C86.448 144.848 86.524 145.056 86.524 145.352C86.524 145.64 86.448 145.848 86.296 145.976C86.152 146.104 85.976 146.168 85.768 146.168C85.568 146.168 85.396 146.104 85.252 145.976C85.108 145.848 85.036 145.64 85.036 145.352Z" fill="#8594A8"/>
<path d="M94.26 146H93.228V140.012C93.228 139.668 93.232 139.392 93.24 139.184C93.248 138.976 93.26 138.76 93.276 138.536C93.148 138.664 93.032 138.772 92.928 138.86C92.824 138.948 92.692 139.06 92.532 139.196L91.62 139.94L91.068 139.232L93.384 137.432H94.26V146ZM103.063 141.704C103.063 142.624 102.967 143.416 102.775 144.08C102.583 144.736 102.279 145.24 101.863 145.592C101.447 145.944 100.895 146.12 100.207 146.12C99.2392 146.12 98.5232 145.732 98.0592 144.956C97.6032 144.172 97.3752 143.088 97.3752 141.704C97.3752 140.776 97.4672 139.984 97.6512 139.328C97.8432 138.672 98.1472 138.172 98.5632 137.828C98.9792 137.476 99.5272 137.3 100.207 137.3C101.167 137.3 101.883 137.688 102.355 138.464C102.827 139.232 103.063 140.312 103.063 141.704ZM98.4312 141.704C98.4312 142.88 98.5632 143.76 98.8272 144.344C99.0992 144.928 99.5592 145.22 100.207 145.22C100.847 145.22 101.303 144.932 101.575 144.356C101.855 143.772 101.995 142.888 101.995 141.704C101.995 140.536 101.855 139.66 101.575 139.076C101.303 138.492 100.847 138.2 100.207 138.2C99.5592 138.2 99.0992 138.492 98.8272 139.076C98.5632 139.66 98.4312 140.536 98.4312 141.704ZM104.438 145.352C104.438 145.056 104.51 144.848 104.654 144.728C104.798 144.608 104.97 144.548 105.17 144.548C105.378 144.548 105.554 144.608 105.698 144.728C105.85 144.848 105.926 145.056 105.926 145.352C105.926 145.64 105.85 145.848 105.698 145.976C105.554 146.104 105.378 146.168 105.17 146.168C104.97 146.168 104.798 146.104 104.654 145.976C104.51 145.848 104.438 145.64 104.438 145.352ZM112.621 139.436C112.621 140.012 112.461 140.472 112.141 140.816C111.821 141.152 111.389 141.376 110.845 141.488V141.536C111.533 141.616 112.045 141.832 112.381 142.184C112.717 142.536 112.885 142.996 112.885 143.564C112.885 144.06 112.769 144.504 112.537 144.896C112.305 145.28 111.945 145.58 111.457 145.796C110.977 146.012 110.357 146.12 109.597 146.12C109.149 146.12 108.733 146.084 108.349 146.012C107.965 145.948 107.597 145.828 107.245 145.652V144.668C107.605 144.844 107.993 144.984 108.409 145.088C108.825 145.184 109.225 145.232 109.609 145.232C110.377 145.232 110.929 145.084 111.265 144.788C111.609 144.484 111.781 144.068 111.781 143.54C111.781 143.004 111.569 142.62 111.145 142.388C110.729 142.148 110.141 142.028 109.381 142.028H108.553V141.128H109.393C110.097 141.128 110.629 140.98 110.989 140.684C111.357 140.388 111.541 139.996 111.541 139.508C111.541 139.092 111.401 138.772 111.121 138.548C110.841 138.316 110.461 138.2 109.981 138.2C109.517 138.2 109.121 138.268 108.793 138.404C108.465 138.54 108.141 138.712 107.821 138.92L107.293 138.2C107.597 137.96 107.973 137.752 108.421 137.576C108.877 137.4 109.393 137.312 109.969 137.312C110.865 137.312 111.529 137.512 111.961 137.912C112.401 138.312 112.621 138.82 112.621 139.436ZM116.793 140.744C117.673 140.744 118.373 140.964 118.893 141.404C119.413 141.844 119.673 142.464 119.673 143.264C119.673 144.152 119.389 144.852 118.821 145.364C118.261 145.868 117.477 146.12 116.469 146.12C116.029 146.12 115.613 146.08 115.221 146C114.837 145.92 114.513 145.804 114.249 145.652V144.656C114.537 144.832 114.885 144.972 115.293 145.076C115.709 145.172 116.105 145.22 116.481 145.22C117.113 145.22 117.621 145.072 118.005 144.776C118.397 144.472 118.593 144.004 118.593 143.372C118.593 142.812 118.421 142.384 118.077 142.088C117.733 141.784 117.189 141.632 116.445 141.632C116.221 141.632 115.965 141.652 115.677 141.692C115.389 141.732 115.157 141.772 114.981 141.812L114.453 141.476L114.777 137.432H119.073V138.392H115.677L115.473 140.876C115.609 140.852 115.793 140.824 116.025 140.792C116.257 140.76 116.513 140.744 116.793 140.744ZM121.144 145.352C121.144 145.056 121.216 144.848 121.36 144.728C121.504 144.608 121.676 144.548 121.876 144.548C122.084 144.548 122.26 144.608 122.404 144.728C122.556 144.848 122.632 145.056 122.632 145.352C122.632 145.64 122.556 145.848 122.404 145.976C122.26 146.104 122.084 146.168 121.876 146.168C121.676 146.168 121.504 146.104 121.36 145.976C121.216 145.848 121.144 145.64 121.144 145.352ZM129.327 139.436C129.327 140.012 129.167 140.472 128.847 140.816C128.527 141.152 128.095 141.376 127.551 141.488V141.536C128.239 141.616 128.751 141.832 129.087 142.184C129.423 142.536 129.591 142.996 129.591 143.564C129.591 144.06 129.475 144.504 129.243 144.896C129.011 145.28 128.651 145.58 128.163 145.796C127.683 146.012 127.063 146.12 126.303 146.12C125.855 146.12 125.439 146.084 125.055 146.012C124.671 145.948 124.303 145.828 123.951 145.652V144.668C124.311 144.844 124.699 144.984 125.115 145.088C125.531 145.184 125.931 145.232 126.315 145.232C127.083 145.232 127.635 145.084 127.971 144.788C128.315 144.484 128.487 144.068 128.487 143.54C128.487 143.004 128.275 142.62 127.851 142.388C127.435 142.148 126.847 142.028 126.087 142.028H125.259V141.128H126.099C126.803 141.128 127.335 140.98 127.695 140.684C128.063 140.388 128.247 139.996 128.247 139.508C128.247 139.092 128.107 138.772 127.827 138.548C127.547 138.316 127.167 138.2 126.687 138.2C126.223 138.2 125.827 138.268 125.499 138.404C125.171 138.54 124.847 138.712 124.527 138.92L123.999 138.2C124.303 137.96 124.679 137.752 125.127 137.576C125.583 137.4 126.099 137.312 126.675 137.312C127.571 137.312 128.235 137.512 128.667 137.912C129.107 138.312 129.327 138.82 129.327 139.436ZM136.438 146H130.774V145.124L133.018 142.856C133.45 142.424 133.814 142.04 134.11 141.704C134.406 141.368 134.63 141.04 134.782 140.72C134.934 140.392 135.01 140.036 135.01 139.652C135.01 139.18 134.87 138.824 134.59 138.584C134.31 138.336 133.946 138.212 133.498 138.212C133.082 138.212 132.714 138.284 132.394 138.428C132.082 138.572 131.762 138.772 131.434 139.028L130.87 138.32C131.206 138.04 131.59 137.804 132.022 137.612C132.462 137.412 132.954 137.312 133.498 137.312C134.298 137.312 134.93 137.516 135.394 137.924C135.858 138.324 136.09 138.88 136.09 139.592C136.09 140.04 135.998 140.46 135.814 140.852C135.63 141.244 135.374 141.632 135.046 142.016C134.718 142.392 134.334 142.796 133.894 143.228L132.106 144.992V145.04H136.438V146ZM137.849 145.352C137.849 145.056 137.921 144.848 138.065 144.728C138.209 144.608 138.381 144.548 138.581 144.548C138.789 144.548 138.965 144.608 139.109 144.728C139.261 144.848 139.337 145.056 139.337 145.352C139.337 145.64 139.261 145.848 139.109 145.976C138.965 146.104 138.789 146.168 138.581 146.168C138.381 146.168 138.209 146.104 138.065 145.976C137.921 145.848 137.849 145.64 137.849 145.352ZM146.74 144.056H145.492V146H144.472V144.056H140.368V143.156L144.4 137.384H145.492V143.108H146.74V144.056ZM144.472 143.108V140.408C144.472 139.992 144.48 139.64 144.496 139.352C144.512 139.056 144.524 138.776 144.532 138.512H144.484C144.42 138.664 144.34 138.828 144.244 139.004C144.148 139.18 144.056 139.328 143.968 139.448L141.4 143.108H144.472ZM150.203 140.744C151.083 140.744 151.783 140.964 152.303 141.404C152.823 141.844 153.083 142.464 153.083 143.264C153.083 144.152 152.799 144.852 152.231 145.364C151.671 145.868 150.887 146.12 149.879 146.12C149.439 146.12 149.023 146.08 148.631 146C148.247 145.92 147.923 145.804 147.659 145.652V144.656C147.947 144.832 148.295 144.972 148.703 145.076C149.119 145.172 149.515 145.22 149.891 145.22C150.523 145.22 151.031 145.072 151.415 144.776C151.807 144.472 152.003 144.004 152.003 143.372C152.003 142.812 151.831 142.384 151.487 142.088C151.143 141.784 150.599 141.632 149.855 141.632C149.631 141.632 149.375 141.652 149.087 141.692C148.799 141.732 148.567 141.772 148.391 141.812L147.863 141.476L148.187 137.432H152.483V138.392H149.087L148.883 140.876C149.019 140.852 149.203 140.824 149.435 140.792C149.667 140.76 149.923 140.744 150.203 140.744Z" fill="#505965"/>
<path d="M77.944 170L75.124 162.488H75.076C75.1 162.736 75.12 163.072 75.136 163.496C75.152 163.912 75.16 164.348 75.16 164.804V170H74.164V161.432H75.76L78.4 168.452H78.448L81.136 161.432H82.72V170H81.652V164.732C81.652 164.316 81.66 163.904 81.676 163.496C81.7 163.088 81.72 162.756 81.736 162.5H81.688L78.832 170H77.944ZM90.3467 170L89.3147 167.348H85.9187L84.8987 170H83.8067L87.1547 161.396H88.1267L91.4627 170H90.3467ZM88.9907 166.388L88.0307 163.796C88.0067 163.732 87.9667 163.616 87.9107 163.448C87.8547 163.28 87.7987 163.108 87.7427 162.932C87.6947 162.748 87.6547 162.608 87.6227 162.512C87.5667 162.76 87.5027 163.004 87.4307 163.244C87.3587 163.476 87.2987 163.66 87.2507 163.796L86.2787 166.388H88.9907ZM95.9924 162.26C95.0724 162.26 94.3484 162.568 93.8204 163.184C93.2924 163.8 93.0284 164.644 93.0284 165.716C93.0284 166.78 93.2724 167.624 93.7604 168.248C94.2564 168.864 94.9964 169.172 95.9804 169.172C96.3564 169.172 96.7124 169.14 97.0484 169.076C97.3844 169.012 97.7124 168.932 98.0324 168.836V169.772C97.7124 169.892 97.3804 169.98 97.0364 170.036C96.7004 170.092 96.2964 170.12 95.8244 170.12C94.9524 170.12 94.2244 169.94 93.6404 169.58C93.0564 169.22 92.6164 168.708 92.3204 168.044C92.0324 167.38 91.8884 166.6 91.8884 165.704C91.8884 164.84 92.0444 164.08 92.3564 163.424C92.6764 162.76 93.1444 162.244 93.7604 161.876C94.3764 161.5 95.1244 161.312 96.0044 161.312C96.9084 161.312 97.6964 161.48 98.3684 161.816L97.9364 162.728C97.6724 162.608 97.3764 162.5 97.0484 162.404C96.7284 162.308 96.3764 162.26 95.9924 162.26ZM99.5224 164.216C99.5224 163.912 99.5944 163.7 99.7384 163.58C99.8824 163.46 100.054 163.4 100.254 163.4C100.462 163.4 100.638 163.46 100.782 163.58C100.934 163.7 101.01 163.912 101.01 164.216C101.01 164.504 100.934 164.712 100.782 164.84C100.638 164.968 100.462 165.032 100.254 165.032C100.054 165.032 99.8824 164.968 99.7384 164.84C99.5944 164.712 99.5224 164.504 99.5224 164.216ZM99.5224 169.352C99.5224 169.056 99.5944 168.848 99.7384 168.728C99.8824 168.608 100.054 168.548 100.254 168.548C100.462 168.548 100.638 168.608 100.782 168.728C100.934 168.848 101.01 169.056 101.01 169.352C101.01 169.64 100.934 169.848 100.782 169.976C100.638 170.104 100.462 170.168 100.254 170.168C100.054 170.168 99.8824 170.104 99.7384 169.976C99.5944 169.848 99.5224 169.64 99.5224 169.352Z" fill="#8594A8"/>
<path d="M110.24 170H104.576V169.124L106.82 166.856C107.252 166.424 107.616 166.04 107.912 165.704C108.208 165.368 108.432 165.04 108.584 164.72C108.736 164.392 108.812 164.036 108.812 163.652C108.812 163.18 108.672 162.824 108.392 162.584C108.112 162.336 107.748 162.212 107.3 162.212C106.884 162.212 106.516 162.284 106.196 162.428C105.884 162.572 105.564 162.772 105.236 163.028L104.672 162.32C105.008 162.04 105.392 161.804 105.824 161.612C106.264 161.412 106.756 161.312 107.3 161.312C108.1 161.312 108.732 161.516 109.196 161.924C109.66 162.324 109.892 162.88 109.892 163.592C109.892 164.04 109.8 164.46 109.616 164.852C109.432 165.244 109.176 165.632 108.848 166.016C108.52 166.392 108.136 166.796 107.696 167.228L105.908 168.992V169.04H110.24V170ZM117.027 170H111.363V169.124L113.607 166.856C114.039 166.424 114.403 166.04 114.699 165.704C114.995 165.368 115.219 165.04 115.371 164.72C115.523 164.392 115.599 164.036 115.599 163.652C115.599 163.18 115.459 162.824 115.179 162.584C114.899 162.336 114.535 162.212 114.087 162.212C113.671 162.212 113.303 162.284 112.983 162.428C112.671 162.572 112.351 162.772 112.023 163.028L111.459 162.32C111.795 162.04 112.179 161.804 112.611 161.612C113.051 161.412 113.543 161.312 114.087 161.312C114.887 161.312 115.519 161.516 115.983 161.924C116.447 162.324 116.679 162.88 116.679 163.592C116.679 164.04 116.587 164.46 116.403 164.852C116.219 165.244 115.963 165.632 115.635 166.016C115.307 166.392 114.923 166.796 114.483 167.228L112.695 168.992V169.04H117.027V170ZM120.874 164.744C121.754 164.744 122.454 164.964 122.974 165.404C123.494 165.844 123.754 166.464 123.754 167.264C123.754 168.152 123.47 168.852 122.902 169.364C122.342 169.868 121.558 170.12 120.55 170.12C120.11 170.12 119.694 170.08 119.302 170C118.918 169.92 118.594 169.804 118.33 169.652V168.656C118.618 168.832 118.966 168.972 119.374 169.076C119.79 169.172 120.186 169.22 120.562 169.22C121.194 169.22 121.702 169.072 122.086 168.776C122.478 168.472 122.674 168.004 122.674 167.372C122.674 166.812 122.502 166.384 122.158 166.088C121.814 165.784 121.27 165.632 120.526 165.632C120.302 165.632 120.046 165.652 119.758 165.692C119.47 165.732 119.238 165.772 119.062 165.812L118.534 165.476L118.858 161.432H123.154V162.392H119.758L119.554 164.876C119.69 164.852 119.874 164.824 120.106 164.792C120.338 164.76 120.594 164.744 120.874 164.744ZM125.226 169.352C125.226 169.056 125.298 168.848 125.442 168.728C125.586 168.608 125.758 168.548 125.958 168.548C126.166 168.548 126.342 168.608 126.486 168.728C126.638 168.848 126.714 169.056 126.714 169.352C126.714 169.64 126.638 169.848 126.486 169.976C126.342 170.104 126.166 170.168 125.958 170.168C125.758 170.168 125.586 170.104 125.442 169.976C125.298 169.848 125.226 169.64 125.226 169.352ZM133.733 170H128.069V169.124L130.313 166.856C130.745 166.424 131.109 166.04 131.405 165.704C131.701 165.368 131.925 165.04 132.077 164.72C132.229 164.392 132.305 164.036 132.305 163.652C132.305 163.18 132.165 162.824 131.885 162.584C131.605 162.336 131.241 162.212 130.793 162.212C130.377 162.212 130.009 162.284 129.689 162.428C129.377 162.572 129.057 162.772 128.729 163.028L128.165 162.32C128.501 162.04 128.885 161.804 129.317 161.612C129.757 161.412 130.249 161.312 130.793 161.312C131.593 161.312 132.225 161.516 132.689 161.924C133.153 162.324 133.385 162.88 133.385 163.592C133.385 164.04 133.293 164.46 133.109 164.852C132.925 165.244 132.669 165.632 132.341 166.016C132.013 166.392 131.629 166.796 131.189 167.228L129.401 168.992V169.04H133.733V170ZM140.52 170H134.856V169.124L137.1 166.856C137.532 166.424 137.896 166.04 138.192 165.704C138.488 165.368 138.712 165.04 138.864 164.72C139.016 164.392 139.092 164.036 139.092 163.652C139.092 163.18 138.952 162.824 138.672 162.584C138.392 162.336 138.028 162.212 137.58 162.212C137.164 162.212 136.796 162.284 136.476 162.428C136.164 162.572 135.844 162.772 135.516 163.028L134.952 162.32C135.288 162.04 135.672 161.804 136.104 161.612C136.544 161.412 137.036 161.312 137.58 161.312C138.38 161.312 139.012 161.516 139.476 161.924C139.94 162.324 140.172 162.88 140.172 163.592C140.172 164.04 140.08 164.46 139.896 164.852C139.712 165.244 139.456 165.632 139.128 166.016C138.8 166.392 138.416 166.796 137.976 167.228L136.188 168.992V169.04H140.52V170ZM144.367 164.744C145.247 164.744 145.947 164.964 146.467 165.404C146.987 165.844 147.247 166.464 147.247 167.264C147.247 168.152 146.963 168.852 146.395 169.364C145.835 169.868 145.051 170.12 144.043 170.12C143.603 170.12 143.187 170.08 142.795 170C142.411 169.92 142.087 169.804 141.823 169.652V168.656C142.111 168.832 142.459 168.972 142.867 169.076C143.283 169.172 143.679 169.22 144.055 169.22C144.687 169.22 145.195 169.072 145.579 168.776C145.971 168.472 146.167 168.004 146.167 167.372C146.167 166.812 145.995 166.384 145.651 166.088C145.307 165.784 144.763 165.632 144.019 165.632C143.795 165.632 143.539 165.652 143.251 165.692C142.963 165.732 142.731 165.772 142.555 165.812L142.027 165.476L142.351 161.432H146.647V162.392H143.251L143.047 164.876C143.183 164.852 143.367 164.824 143.599 164.792C143.831 164.76 144.087 164.744 144.367 164.744ZM148.718 169.352C148.718 169.056 148.79 168.848 148.934 168.728C149.078 168.608 149.25 168.548 149.45 168.548C149.658 168.548 149.834 168.608 149.978 168.728C150.13 168.848 150.206 169.056 150.206 169.352C150.206 169.64 150.13 169.848 149.978 169.976C149.834 170.104 149.658 170.168 149.45 170.168C149.25 170.168 149.078 170.104 148.934 169.976C148.79 169.848 148.718 169.64 148.718 169.352ZM157.225 170H151.561V169.124L153.805 166.856C154.237 166.424 154.601 166.04 154.897 165.704C155.193 165.368 155.417 165.04 155.569 164.72C155.721 164.392 155.797 164.036 155.797 163.652C155.797 163.18 155.657 162.824 155.377 162.584C155.097 162.336 154.733 162.212 154.285 162.212C153.869 162.212 153.501 162.284 153.181 162.428C152.869 162.572 152.549 162.772 152.221 163.028L151.657 162.32C151.993 162.04 152.377 161.804 152.809 161.612C153.249 161.412 153.741 161.312 154.285 161.312C155.085 161.312 155.717 161.516 156.181 161.924C156.645 162.324 156.877 162.88 156.877 163.592C156.877 164.04 156.785 164.46 156.601 164.852C156.417 165.244 156.161 165.632 155.833 166.016C155.505 166.392 155.121 166.796 154.681 167.228L152.893 168.992V169.04H157.225V170ZM161.072 164.744C161.952 164.744 162.652 164.964 163.172 165.404C163.692 165.844 163.952 166.464 163.952 167.264C163.952 168.152 163.668 168.852 163.1 169.364C162.54 169.868 161.756 170.12 160.748 170.12C160.308 170.12 159.892 170.08 159.5 170C159.116 169.92 158.792 169.804 158.528 169.652V168.656C158.816 168.832 159.164 168.972 159.572 169.076C159.988 169.172 160.384 169.22 160.76 169.22C161.392 169.22 161.9 169.072 162.284 168.776C162.676 168.472 162.872 168.004 162.872 167.372C162.872 166.812 162.7 166.384 162.356 166.088C162.012 165.784 161.468 165.632 160.724 165.632C160.5 165.632 160.244 165.652 159.956 165.692C159.668 165.732 159.436 165.772 159.26 165.812L158.732 165.476L159.056 161.432H163.352V162.392H159.956L159.752 164.876C159.888 164.852 160.072 164.824 160.304 164.792C160.536 164.76 160.792 164.744 161.072 164.744ZM167.859 164.744C168.739 164.744 169.439 164.964 169.959 165.404C170.479 165.844 170.739 166.464 170.739 167.264C170.739 168.152 170.455 168.852 169.887 169.364C169.327 169.868 168.543 170.12 167.535 170.12C167.095 170.12 166.679 170.08 166.287 170C165.903 169.92 165.579 169.804 165.315 169.652V168.656C165.603 168.832 165.951 168.972 166.359 169.076C166.775 169.172 167.171 169.22 167.547 169.22C168.179 169.22 168.687 169.072 169.071 168.776C169.463 168.472 169.659 168.004 169.659 167.372C169.659 166.812 169.487 166.384 169.143 166.088C168.799 165.784 168.255 165.632 167.511 165.632C167.287 165.632 167.031 165.652 166.743 165.692C166.455 165.732 166.223 165.772 166.047 165.812L165.519 165.476L165.843 161.432H170.139V162.392H166.743L166.539 164.876C166.675 164.852 166.859 164.824 167.091 164.792C167.323 164.76 167.579 164.744 167.859 164.744ZM172.211 169.352C172.211 169.056 172.283 168.848 172.427 168.728C172.571 168.608 172.743 168.548 172.943 168.548C173.151 168.548 173.327 168.608 173.471 168.728C173.623 168.848 173.699 169.056 173.699 169.352C173.699 169.64 173.623 169.848 173.471 169.976C173.327 170.104 173.151 170.168 172.943 170.168C172.743 170.168 172.571 170.104 172.427 169.976C172.283 169.848 172.211 169.64 172.211 169.352ZM180.718 170H175.054V169.124L177.298 166.856C177.73 166.424 178.094 166.04 178.39 165.704C178.686 165.368 178.91 165.04 179.062 164.72C179.214 164.392 179.29 164.036 179.29 163.652C179.29 163.18 179.15 162.824 178.87 162.584C178.59 162.336 178.226 162.212 177.778 162.212C177.362 162.212 176.994 162.284 176.674 162.428C176.362 162.572 176.042 162.772 175.714 163.028L175.15 162.32C175.486 162.04 175.87 161.804 176.302 161.612C176.742 161.412 177.234 161.312 177.778 161.312C178.578 161.312 179.21 161.516 179.674 161.924C180.138 162.324 180.37 162.88 180.37 163.592C180.37 164.04 180.278 164.46 180.094 164.852C179.91 165.244 179.654 165.632 179.326 166.016C178.998 166.392 178.614 166.796 178.174 167.228L176.386 168.992V169.04H180.718V170ZM187.505 170H181.841V169.124L184.085 166.856C184.517 166.424 184.881 166.04 185.177 165.704C185.473 165.368 185.697 165.04 185.849 164.72C186.001 164.392 186.077 164.036 186.077 163.652C186.077 163.18 185.937 162.824 185.657 162.584C185.377 162.336 185.013 162.212 184.565 162.212C184.149 162.212 183.781 162.284 183.461 162.428C183.149 162.572 182.829 162.772 182.501 163.028L181.937 162.32C182.273 162.04 182.657 161.804 183.089 161.612C183.529 161.412 184.021 161.312 184.565 161.312C185.365 161.312 185.997 161.516 186.461 161.924C186.925 162.324 187.157 162.88 187.157 163.592C187.157 164.04 187.065 164.46 186.881 164.852C186.697 165.244 186.441 165.632 186.113 166.016C185.785 166.392 185.401 166.796 184.961 167.228L183.173 168.992V169.04H187.505V170ZM191.352 164.744C192.232 164.744 192.932 164.964 193.452 165.404C193.972 165.844 194.232 166.464 194.232 167.264C194.232 168.152 193.948 168.852 193.38 169.364C192.82 169.868 192.036 170.12 191.028 170.12C190.588 170.12 190.172 170.08 189.78 170C189.396 169.92 189.072 169.804 188.808 169.652V168.656C189.096 168.832 189.444 168.972 189.852 169.076C190.268 169.172 190.664 169.22 191.04 169.22C191.672 169.22 192.18 169.072 192.564 168.776C192.956 168.472 193.152 168.004 193.152 167.372C193.152 166.812 192.98 166.384 192.636 166.088C192.292 165.784 191.748 165.632 191.004 165.632C190.78 165.632 190.524 165.652 190.236 165.692C189.948 165.732 189.716 165.772 189.54 165.812L189.012 165.476L189.336 161.432H193.632V162.392H190.236L190.032 164.876C190.168 164.852 190.352 164.824 190.584 164.792C190.816 164.76 191.072 164.744 191.352 164.744Z" fill="#505965"/>
</g>
<defs>
<filter id="filter0_d" x="92" y="32" width="60" height="60" filterUnits="userSpaceOnUse" color-interpolation-filters="sRGB">
<feFlood flood-opacity="0" result="BackgroundImageFix"/>
<feColorMatrix in="SourceAlpha" type="matrix" values="0 0 0 0 0 0 0 0 0 0 0 0 0 0 0 0 0 0 127 0"/>
<feOffset dx="6" dy="6"/>
<feGaussianBlur stdDeviation="6"/>
<feColorMatrix type="matrix" values="0 0 0 0 0.866667 0 0 0 0 0.870588 0 0 0 0 0.882353 0 0 0 1 0"/>
<feBlend mode="normal" in2="BackgroundImageFix" result="effect1_dropShadow"/>
<feBlend mode="normal" in="SourceGraphic" in2="effect1_dropShadow" result="shape"/>
</filter>
<filter id="filter1_d" x="114" y="-32" width="60" height="60" filterUnits="userSpaceOnUse" color-interpolation-filters="sRGB">
<feFlood flood-opacity="0" result="BackgroundImageFix"/>
<feColorMatrix in="SourceAlpha" type="matrix" values="0 0 0 0 0 0 0 0 0 0 0 0 0 0 0 0 0 0 127 0"/>
<feOffset dx="6" dy="6"/>
<feGaussianBlur stdDeviation="6"/>
<feColorMatrix type="matrix" values="0 0 0 0 0.866667 0 0 0 0 0.870588 0 0 0 0 0.882353 0 0 0 1 0"/>
<feBlend mode="normal" in2="BackgroundImageFix" result="effect1_dropShadow"/>
<feBlend mode="normal" in="SourceGraphic" in2="effect1_dropShadow" result="shape"/>
</filter>
<filter id="filter2_d" x="28" y="90" width="60" height="60" filterUnits="userSpaceOnUse" color-interpolation-filters="sRGB">
<feFlood flood-opacity="0" result="BackgroundImageFix"/>
<feColorMatrix in="SourceAlpha" type="matrix" values="0 0 0 0 0 0 0 0 0 0 0 0 0 0 0 0 0 0 127 0"/>
<feOffset dx="6" dy="6"/>
<feGaussianBlur stdDeviation="6"/>
<feColorMatrix type="matrix" values="0 0 0 0 0.866667 0 0 0 0 0.870588 0 0 0 0 0.882353 0 0 0 1 0"/>
<feBlend mode="normal" in2="BackgroundImageFix" result="effect1_dropShadow"/>
<feBlend mode="normal" in="SourceGraphic" in2="effect1_dropShadow" result="shape"/>
</filter>
<filter id="filter3_d" x="70" y="188" width="60" height="60" filterUnits="userSpaceOnUse" color-interpolation-filters="sRGB">
<feFlood flood-opacity="0" result="BackgroundImageFix"/>
<feColorMatrix in="SourceAlpha" type="matrix" values="0 0 0 0 0 0 0 0 0 0 0 0 0 0 0 0 0 0 127 0"/>
<feOffset dx="6" dy="6"/>
<feGaussianBlur stdDeviation="6"/>
<feColorMatrix type="matrix" values="0 0 0 0 0.866667 0 0 0 0 0.870588 0 0 0 0 0.882353 0 0 0 1 0"/>
<feBlend mode="normal" in2="BackgroundImageFix" result="effect1_dropShadow"/>
<feBlend mode="normal" in="SourceGraphic" in2="effect1_dropShadow" result="shape"/>
</filter>
<filter id="filter4_d" x="168" y="198" width="60" height="60" filterUnits="userSpaceOnUse" color-interpolation-filters="sRGB">
<feFlood flood-opacity="0" result="BackgroundImageFix"/>
<feColorMatrix in="SourceAlpha" type="matrix" values="0 0 0 0 0 0 0 0 0 0 0 0 0 0 0 0 0 0 127 0"/>
<feOffset dx="6" dy="6"/>
<feGaussianBlur stdDeviation="6"/>
<feColorMatrix type="matrix" values="0 0 0 0 0.866667 0 0 0 0 0.870588 0 0 0 0 0.882353 0 0 0 1 0"/>
<feBlend mode="normal" in2="BackgroundImageFix" result="effect1_dropShadow"/>
<feBlend mode="normal" in="SourceGraphic" in2="effect1_dropShadow" result="shape"/>
</filter>
<filter id="filter5_d" x="59" y="61" width="162" height="138" filterUnits="userSpaceOnUse" color-interpolation-filters="sRGB">
<feFlood flood-opacity="0" result="BackgroundImageFix"/>
<feColorMatrix in="SourceAlpha" type="matrix" values="0 0 0 0 0 0 0 0 0 0 0 0 0 0 0 0 0 0 127 0"/>
<feOffset dx="6" dy="6"/>
<feGaussianBlur stdDeviation="6"/>
<feColorMatrix type="matrix" values="0 0 0 0 0.866667 0 0 0 0 0.870588 0 0 0 0 0.882353 0 0 0 1 0"/>
<feBlend mode="normal" in2="BackgroundImageFix" result="effect1_dropShadow"/>
<feBlend mode="normal" in="SourceGraphic" in2="effect1_dropShadow" result="shape"/>
</filter>
<clipPath id="clip0">
<path d="M98 54C98 45.1634 105.163 38 114 38H118C126.837 38 134 45.1634 134 54V58C134 66.8366 126.837 74 118 74H114C105.163 74 98 66.8366 98 58V54Z" fill="white"/>
</clipPath>
<clipPath id="clip1">
<path d="M120 -10C120 -18.8366 127.163 -26 136 -26H140C148.837 -26 156 -18.8366 156 -10V-6C156 2.83656 148.837 10 140 10H136C127.163 10 120 2.83656 120 -6V-10Z" fill="white"/>
</clipPath>
<clipPath id="clip2">
<path d="M34 112C34 103.163 41.1634 96 50 96H54C62.8366 96 70 103.163 70 112V116C70 124.837 62.8366 132 54 132H50C41.1634 132 34 124.837 34 116V112Z" fill="white"/>
</clipPath>
<clipPath id="clip3">
<path d="M76 210C76 201.163 83.1634 194 92 194H96C104.837 194 112 201.163 112 210V214C112 222.837 104.837 230 96 230H92C83.1634 230 76 222.837 76 214V210Z" fill="white"/>
</clipPath>
<clipPath id="clip4">
<path d="M174 220C174 211.163 181.163 204 190 204H194C202.837 204 210 211.163 210 220V224C210 232.837 202.837 240 194 240H190C181.163 240 174 232.837 174 224V220Z" fill="white"/>
</clipPath>
</defs>
</svg>
