<svg width="146" height="145" viewBox="0 0 146 145" fill="none" xmlns="http://www.w3.org/2000/svg">
<path d="M51.0801 73H49.1601V68.8H41.4081V67.432L48.3681 56.2H50.5761L43.9281 66.88H49.1601V62.2H51.0801V66.88H53.4081V68.8H51.0801V73ZM60.2514 73.24C59.0674 73.24 58.0274 72.992 57.1314 72.496C56.2514 72 55.5954 71.288 55.1634 70.36L56.2674 68.992C56.6514 69.728 57.1954 70.304 57.8994 70.72C58.6034 71.12 59.3634 71.32 60.1794 71.32C61.1874 71.32 61.9874 71.04 62.5794 70.48C63.1874 69.92 63.4914 69.192 63.4914 68.296C63.4914 67.4 63.1714 66.688 62.5314 66.16C61.9074 65.632 61.0834 65.368 60.0594 65.368H58.7394V63.448H59.9394C60.7234 63.448 61.3954 63.176 61.9554 62.632C62.5474 62.088 62.8434 61.392 62.8434 60.544C62.8434 59.712 62.5954 59.064 62.0994 58.6C61.6194 58.12 60.9554 57.88 60.1074 57.88C58.5874 57.88 57.4354 58.576 56.6514 59.968L55.5714 58.648C55.9554 57.8 56.5554 57.144 57.3714 56.68C58.2034 56.2 59.1634 55.96 60.2514 55.96C61.6594 55.96 62.7794 56.344 63.6114 57.112C64.4594 57.88 64.8834 58.912 64.8834 60.208C64.8834 61.136 64.6594 61.952 64.2114 62.656C63.7634 63.36 63.1154 63.888 62.2674 64.24V64.312C63.2594 64.472 64.0514 64.928 64.6434 65.68C65.2354 66.432 65.5314 67.328 65.5314 68.368C65.5314 69.84 65.0354 71.024 64.0434 71.92C63.0674 72.8 61.8034 73.24 60.2514 73.24ZM68.4969 71.704C68.4969 71.368 68.6249 71.072 68.8809 70.816C69.1529 70.56 69.4809 70.432 69.8649 70.432C70.2009 70.432 70.4969 70.56 70.7529 70.816C71.0089 71.072 71.1369 71.368 71.1369 71.704C71.1369 72.088 71.0169 72.416 70.7769 72.688C70.5369 72.944 70.2329 73.072 69.8649 73.072C69.4809 73.072 69.1529 72.944 68.8809 72.688C68.6249 72.416 68.4969 72.088 68.4969 71.704ZM73.7359 67.048C73.7359 65.608 73.9759 64.224 74.4559 62.896C74.9519 61.568 75.6079 60.44 76.4239 59.512C78.1039 57.608 79.9279 56.424 81.8959 55.96L82.6879 57.424C81.1039 57.824 79.6719 58.68 78.3919 59.992C77.1599 61.272 76.3599 62.904 75.9919 64.888C76.7919 63.4 78.1119 62.656 79.9519 62.656C81.3439 62.656 82.4879 63.136 83.3839 64.096C84.2959 65.056 84.7519 66.296 84.7519 67.816C84.7519 69.384 84.2319 70.688 83.1919 71.728C82.1679 72.736 80.9599 73.24 79.5679 73.24C77.7599 73.24 76.3359 72.648 75.2959 71.464C74.2559 70.248 73.7359 68.776 73.7359 67.048ZM75.7759 67.048C75.7759 68.248 76.1039 69.264 76.7599 70.096C77.4159 70.912 78.3439 71.32 79.5439 71.32C80.4399 71.32 81.1919 70.992 81.7999 70.336C82.4079 69.648 82.7119 68.856 82.7119 67.96C82.7119 66.92 82.4079 66.08 81.7999 65.44C81.2079 64.784 80.3759 64.456 79.3039 64.456C78.4559 64.456 77.7119 64.704 77.0719 65.2C76.4479 65.696 76.0159 66.312 75.7759 67.048ZM88.353 63.064C87.521 62.296 87.105 61.312 87.105 60.112C87.105 58.912 87.513 57.936 88.329 57.184C89.177 56.432 90.233 56.056 91.497 56.056C92.761 56.056 93.809 56.432 94.641 57.184C95.473 57.92 95.889 58.896 95.889 60.112C95.889 61.312 95.473 62.296 94.641 63.064C93.793 63.816 92.745 64.192 91.497 64.192C90.249 64.192 89.201 63.816 88.353 63.064ZM88.905 60.112C88.905 60.848 89.153 61.456 89.649 61.936C90.161 62.4 90.777 62.632 91.497 62.632C92.233 62.632 92.849 62.4 93.345 61.936C93.841 61.456 94.089 60.848 94.089 60.112C94.089 59.392 93.841 58.8 93.345 58.336C92.849 57.856 92.233 57.616 91.497 57.616C90.761 57.616 90.145 57.856 89.649 58.336C89.153 58.8 88.905 59.392 88.905 60.112ZM98.457 72.016C97.625 71.248 97.209 70.264 97.209 69.064C97.209 67.864 97.617 66.888 98.433 66.136C99.281 65.384 100.337 65.008 101.601 65.008C102.865 65.008 103.913 65.384 104.745 66.136C105.577 66.872 105.993 67.848 105.993 69.064C105.993 70.264 105.577 71.248 104.745 72.016C103.897 72.768 102.849 73.144 101.601 73.144C100.353 73.144 99.305 72.768 98.457 72.016ZM99.009 69.064C99.009 69.8 99.257 70.408 99.753 70.888C100.265 71.352 100.881 71.584 101.601 71.584C102.337 71.584 102.953 71.352 103.449 70.888C103.945 70.408 104.193 69.8 104.193 69.064C104.193 68.344 103.945 67.752 103.449 67.288C102.953 66.808 102.337 66.568 101.601 66.568C100.865 66.568 100.249 66.808 99.753 67.288C99.257 67.752 99.009 68.344 99.009 69.064ZM90.969 73.24L89.841 72.448L102.177 55.96L103.281 56.776L90.969 73.24Z" fill="#475F7B"/>
<path d="M49.5328 94H48.4528V86.38H45.7768V85.432H52.1968V86.38H49.5328V94ZM58.013 90.772C58.013 91.836 57.741 92.66 57.197 93.244C56.661 93.828 55.933 94.12 55.013 94.12C54.445 94.12 53.937 93.992 53.489 93.736C53.049 93.472 52.701 93.092 52.445 92.596C52.189 92.092 52.061 91.484 52.061 90.772C52.061 89.708 52.329 88.888 52.865 88.312C53.401 87.736 54.129 87.448 55.049 87.448C55.633 87.448 56.145 87.58 56.585 87.844C57.033 88.1 57.381 88.476 57.629 88.972C57.885 89.46 58.013 90.06 58.013 90.772ZM53.153 90.772C53.153 91.532 53.301 92.136 53.597 92.584C53.901 93.024 54.381 93.244 55.037 93.244C55.685 93.244 56.161 93.024 56.465 92.584C56.769 92.136 56.921 91.532 56.921 90.772C56.921 90.012 56.769 89.416 56.465 88.984C56.161 88.552 55.681 88.336 55.025 88.336C54.369 88.336 53.893 88.552 53.597 88.984C53.301 89.416 53.153 90.012 53.153 90.772ZM61.7546 93.256C61.9146 93.256 62.0786 93.244 62.2466 93.22C62.4146 93.188 62.5506 93.156 62.6546 93.124V93.928C62.5426 93.984 62.3826 94.028 62.1746 94.06C61.9666 94.1 61.7666 94.12 61.5746 94.12C61.2386 94.12 60.9266 94.064 60.6386 93.952C60.3586 93.832 60.1306 93.628 59.9546 93.34C59.7786 93.052 59.6906 92.648 59.6906 92.128V88.384H58.7786V87.88L59.7026 87.46L60.1226 86.092H60.7466V87.568H62.6066V88.384H60.7466V92.104C60.7466 92.496 60.8386 92.788 61.0226 92.98C61.2146 93.164 61.4586 93.256 61.7546 93.256ZM66.2986 87.46C67.0826 87.46 67.6626 87.632 68.0386 87.976C68.4146 88.32 68.6026 88.868 68.6026 89.62V94H67.8346L67.6306 93.088H67.5826C67.3026 93.44 67.0066 93.7 66.6946 93.868C66.3906 94.036 65.9666 94.12 65.4226 94.12C64.8386 94.12 64.3546 93.968 63.9706 93.664C63.5866 93.352 63.3946 92.868 63.3946 92.212C63.3946 91.572 63.6466 91.08 64.1506 90.736C64.6546 90.384 65.4306 90.192 66.4786 90.16L67.5706 90.124V89.74C67.5706 89.204 67.4546 88.832 67.2226 88.624C66.9906 88.416 66.6626 88.312 66.2386 88.312C65.9026 88.312 65.5826 88.364 65.2786 88.468C64.9746 88.564 64.6906 88.676 64.4266 88.804L64.1026 88.012C64.3826 87.86 64.7146 87.732 65.0986 87.628C65.4826 87.516 65.8826 87.46 66.2986 87.46ZM67.5586 90.856L66.6106 90.892C65.8106 90.924 65.2546 91.052 64.9426 91.276C64.6386 91.5 64.4866 91.816 64.4866 92.224C64.4866 92.584 64.5946 92.848 64.8106 93.016C65.0346 93.184 65.3186 93.268 65.6626 93.268C66.2066 93.268 66.6586 93.12 67.0186 92.824C67.3786 92.52 67.5586 92.056 67.5586 91.432V90.856ZM71.5651 94H70.5091V84.88H71.5651V94ZM82.7401 85.432L79.6801 94H78.6001L75.5401 85.432H76.6681L78.6001 90.928C78.7281 91.28 78.8361 91.612 78.9241 91.924C79.0121 92.228 79.0841 92.52 79.1401 92.8C79.1961 92.52 79.2681 92.224 79.3561 91.912C79.4441 91.6 79.5521 91.264 79.6801 90.904L81.6001 85.432H82.7401ZM84.2154 85.156C84.3754 85.156 84.5154 85.212 84.6354 85.324C84.7634 85.428 84.8274 85.596 84.8274 85.828C84.8274 86.052 84.7634 86.22 84.6354 86.332C84.5154 86.444 84.3754 86.5 84.2154 86.5C84.0394 86.5 83.8914 86.444 83.7714 86.332C83.6514 86.22 83.5914 86.052 83.5914 85.828C83.5914 85.596 83.6514 85.428 83.7714 85.324C83.8914 85.212 84.0394 85.156 84.2154 85.156ZM84.7314 87.568V94H83.6754V87.568H84.7314ZM90.8771 92.224C90.8771 92.848 90.6451 93.32 90.1811 93.64C89.7171 93.96 89.0931 94.12 88.3091 94.12C87.8611 94.12 87.4731 94.084 87.1451 94.012C86.8251 93.94 86.5411 93.84 86.2931 93.712V92.752C86.5491 92.88 86.8571 93 87.2171 93.112C87.5851 93.216 87.9571 93.268 88.3331 93.268C88.8691 93.268 89.2571 93.184 89.4971 93.016C89.7371 92.84 89.8571 92.608 89.8571 92.32C89.8571 92.16 89.8131 92.016 89.7251 91.888C89.6371 91.76 89.4771 91.632 89.2451 91.504C89.0211 91.376 88.6971 91.232 88.2731 91.072C87.8571 90.912 87.5011 90.752 87.2051 90.592C86.9091 90.432 86.6811 90.24 86.5211 90.016C86.3611 89.792 86.2811 89.504 86.2811 89.152C86.2811 88.608 86.5011 88.188 86.9411 87.892C87.3891 87.596 87.9731 87.448 88.6931 87.448C89.0851 87.448 89.4491 87.488 89.7851 87.568C90.1291 87.64 90.4491 87.744 90.7451 87.88L90.3851 88.72C90.1131 88.608 89.8291 88.512 89.5331 88.432C89.2371 88.352 88.9331 88.312 88.6211 88.312C88.1891 88.312 87.8571 88.384 87.6251 88.528C87.4011 88.664 87.2891 88.852 87.2891 89.092C87.2891 89.268 87.3411 89.42 87.4451 89.548C87.5491 89.668 87.7211 89.788 87.9611 89.908C88.2091 90.02 88.5371 90.156 88.9451 90.316C89.3531 90.468 89.7011 90.624 89.9891 90.784C90.2771 90.944 90.4971 91.14 90.6491 91.372C90.8011 91.596 90.8771 91.88 90.8771 92.224ZM92.8913 85.156C93.0513 85.156 93.1913 85.212 93.3113 85.324C93.4393 85.428 93.5033 85.596 93.5033 85.828C93.5033 86.052 93.4393 86.22 93.3113 86.332C93.1913 86.444 93.0513 86.5 92.8913 86.5C92.7153 86.5 92.5673 86.444 92.4473 86.332C92.3273 86.22 92.2673 86.052 92.2673 85.828C92.2673 85.596 92.3273 85.428 92.4473 85.324C92.5673 85.212 92.7153 85.156 92.8913 85.156ZM93.4073 87.568V94H92.3513V87.568H93.4073ZM97.5131 93.256C97.6731 93.256 97.8371 93.244 98.0051 93.22C98.1731 93.188 98.3091 93.156 98.4131 93.124V93.928C98.3011 93.984 98.1411 94.028 97.9331 94.06C97.7251 94.1 97.5251 94.12 97.3331 94.12C96.9971 94.12 96.6851 94.064 96.3971 93.952C96.1171 93.832 95.8891 93.628 95.7131 93.34C95.5371 93.052 95.4491 92.648 95.4491 92.128V88.384H94.5371V87.88L95.4611 87.46L95.8811 86.092H96.5051V87.568H98.3651V88.384H96.5051V92.104C96.5051 92.496 96.5971 92.788 96.7811 92.98C96.9731 93.164 97.2171 93.256 97.5131 93.256ZM103.809 92.224C103.809 92.848 103.577 93.32 103.113 93.64C102.649 93.96 102.025 94.12 101.241 94.12C100.793 94.12 100.405 94.084 100.077 94.012C99.757 93.94 99.473 93.84 99.225 93.712V92.752C99.481 92.88 99.789 93 100.149 93.112C100.517 93.216 100.889 93.268 101.265 93.268C101.801 93.268 102.189 93.184 102.429 93.016C102.669 92.84 102.789 92.608 102.789 92.32C102.789 92.16 102.745 92.016 102.657 91.888C102.569 91.76 102.409 91.632 102.177 91.504C101.953 91.376 101.629 91.232 101.205 91.072C100.789 90.912 100.433 90.752 100.137 90.592C99.841 90.432 99.613 90.24 99.453 90.016C99.293 89.792 99.213 89.504 99.213 89.152C99.213 88.608 99.433 88.188 99.873 87.892C100.321 87.596 100.905 87.448 101.625 87.448C102.017 87.448 102.381 87.488 102.717 87.568C103.061 87.64 103.381 87.744 103.677 87.88L103.317 88.72C103.045 88.608 102.761 88.512 102.465 88.432C102.169 88.352 101.865 88.312 101.553 88.312C101.121 88.312 100.789 88.384 100.557 88.528C100.333 88.664 100.221 88.852 100.221 89.092C100.221 89.268 100.273 89.42 100.377 89.548C100.481 89.668 100.653 89.788 100.893 89.908C101.141 90.02 101.469 90.156 101.877 90.316C102.285 90.468 102.633 90.624 102.921 90.784C103.209 90.944 103.429 91.14 103.581 91.372C103.733 91.596 103.809 91.88 103.809 92.224Z" fill="#828D99"/>
<path d="M4.75 72C3.78351 72 2.99771 72.7838 3.02187 73.75C3.35269 86.9827 7.42984 99.864 14.7971 110.89C22.4888 122.401 33.4213 131.373 46.2122 136.672C59.003 141.97 73.0777 143.356 86.6563 140.655C100.235 137.954 112.708 131.287 122.497 121.497C132.287 111.708 138.954 99.235 141.655 85.6563C144.356 72.0777 142.97 58.003 137.672 45.2122C132.373 32.4213 123.401 21.4888 111.89 13.7971C100.864 6.42985 87.9827 2.3527 74.75 2.02187C73.7838 1.99772 73 2.7835 73 3.75C73 4.7165 73.7838 5.4976 74.75 5.52302C87.2904 5.85305 99.4951 9.72459 109.945 16.7073C120.881 24.0144 129.405 34.4003 134.438 46.5516C139.471 58.7028 140.788 72.0738 138.222 84.9735C135.656 97.8732 129.323 109.722 120.023 119.023C110.722 128.323 98.8732 134.656 85.9735 137.222C73.0738 139.788 59.7028 138.471 47.5516 133.438C35.4003 128.405 25.0144 119.881 17.7073 108.945C10.7246 98.4951 6.85304 86.2904 6.52303 73.75C6.49759 72.7838 5.71649 72 4.75 72Z" fill="#481AF9"/>
<path d="M18.3325 57.5305C17.5583 57.3256 16.7628 57.7868 16.5773 58.5658C13.8898 69.8526 14.647 81.6985 18.7692 92.5676C23.063 103.889 30.7924 113.583 40.8736 120.29C50.9548 126.997 62.8822 130.38 74.9835 129.966C87.0847 129.552 98.753 125.361 108.352 117.981C117.951 110.6 125 100.401 128.51 88.8125C132.02 77.224 131.815 64.8276 127.924 53.3615C124.033 41.8954 116.651 31.9346 106.813 24.8757C97.3679 18.0989 86.1143 14.323 74.516 14.0198C73.7155 13.9989 73.0653 14.6492 73.0644 15.45C73.0634 16.2509 73.7122 16.8988 74.5127 16.9208C85.5055 17.2226 96.1692 20.808 105.122 27.2319C114.468 33.9378 121.481 43.4006 125.177 54.2934C128.874 65.1862 129.069 76.9628 125.734 87.9719C122.4 98.9809 115.704 108.67 106.585 115.682C97.4653 122.693 86.3805 126.674 74.8843 127.068C63.3881 127.461 52.057 124.247 42.4799 117.875C32.9028 111.504 25.5599 102.295 21.4808 91.5392C17.5733 81.2363 16.8485 70.0093 19.3817 59.3081C19.5661 58.5288 19.1067 57.7354 18.3325 57.5305Z" fill="#475F7B"/>
<path d="M28.15 72C27.5149 72 26.9985 72.5151 27.0144 73.15C27.2318 81.8458 29.911 90.3106 34.7524 97.5562C39.8069 105.121 46.9912 111.017 55.3966 114.498C63.802 117.98 73.051 118.891 81.9742 117.116C90.8973 115.341 99.0937 110.96 105.527 104.527C111.96 98.0937 116.341 89.8973 118.116 80.9742C119.891 72.051 118.98 62.802 115.498 54.3966C112.017 45.9912 106.121 38.8069 98.5562 33.7524C91.3106 28.911 82.8458 26.2318 74.15 26.0144C73.5151 25.9985 73 26.5149 73 27.15C73 27.7851 73.5151 28.2984 74.15 28.3151C82.3908 28.532 90.4111 31.0762 97.2784 35.6648C104.465 40.4666 110.066 47.2916 113.374 55.2767C116.681 63.2619 117.546 72.0485 115.86 80.5254C114.174 89.0024 110.012 96.789 103.901 102.901C97.789 109.012 90.0024 113.174 81.5254 114.86C73.0485 116.546 64.2619 115.681 56.2767 112.374C48.2916 109.066 41.4666 103.465 36.6648 96.2784C32.0762 89.4111 29.532 81.3908 29.3151 73.15C29.2984 72.5151 28.7851 72 28.15 72Z" fill="#C3BDF3"/>
</svg>
