<svg width="20" height="20" viewBox="0 0 20 20" fill="none" xmlns="http://www.w3.org/2000/svg">
<path d="M1.64645 9.64645C1.45118 9.84171 1.45118 10.1583 1.64645 10.3536L4.82843 13.5355C5.02369 13.7308 5.34027 13.7308 5.53553 13.5355C5.7308 13.3403 5.7308 13.0237 5.53553 12.8284L2.70711 10L5.53553 7.17157C5.7308 6.97631 5.7308 6.65973 5.53553 6.46447C5.34027 6.2692 5.02369 6.2692 4.82843 6.46447L1.64645 9.64645ZM18.3536 10.3536C18.5488 10.1583 18.5488 9.84171 18.3536 9.64645L15.1716 6.46447C14.9763 6.2692 14.6597 6.2692 14.4645 6.46447C14.2692 6.65973 14.2692 6.97631 14.4645 7.17157L17.2929 10L14.4645 12.8284C14.2692 13.0237 14.2692 13.3403 14.4645 13.5355C14.6597 13.7308 14.9763 13.7308 15.1716 13.5355L18.3536 10.3536ZM2 10.5L18 10.5L18 9.5L2 9.5L2 10.5Z" fill="#481AF9"/>
</svg>
