<svg width="14" height="14" viewBox="0 0 14 14" fill="none" xmlns="http://www.w3.org/2000/svg">
<path d="M13.0912 11.4227C12.7596 10.6372 12.2784 9.92377 11.6744 9.32207C11.0723 8.71863 10.3589 8.23751 9.57385 7.90527C9.56682 7.90176 9.55979 7.9 9.55276 7.89648C10.6479 7.10547 11.3598 5.81699 11.3598 4.36328C11.3598 1.95508 9.40861 0.00390625 7.00041 0.00390625C4.59221 0.00390625 2.64104 1.95508 2.64104 4.36328C2.64104 5.81699 3.35295 7.10547 4.44807 7.89824C4.44104 7.90176 4.434 7.90352 4.42697 7.90703C3.63947 8.23926 2.93283 8.71562 2.32639 9.32383C1.72295 9.926 1.24182 10.6393 0.90959 11.4244C0.583203 12.193 0.407175 13.0171 0.391035 13.852C0.390566 13.8707 0.393857 13.8894 0.400713 13.9068C0.40757 13.9243 0.417854 13.9402 0.430959 13.9537C0.444065 13.9671 0.459726 13.9778 0.477021 13.9851C0.494315 13.9923 0.512893 13.9961 0.53166 13.9961H1.58635C1.66369 13.9961 1.72522 13.9346 1.72697 13.859C1.76213 12.502 2.30705 11.2311 3.27033 10.2678C4.26701 9.27109 5.59065 8.72266 7.00041 8.72266C8.41018 8.72266 9.73381 9.27109 10.7305 10.2678C11.6938 11.2311 12.2387 12.502 12.2738 13.859C12.2756 13.9363 12.3371 13.9961 12.4145 13.9961H13.4692C13.4879 13.9961 13.5065 13.9923 13.5238 13.9851C13.5411 13.9778 13.5568 13.9671 13.5699 13.9537C13.583 13.9402 13.5933 13.9243 13.6001 13.9068C13.607 13.8894 13.6103 13.8707 13.6098 13.852C13.5922 13.0117 13.4182 12.1943 13.0912 11.4227ZM7.00041 7.38672C6.19357 7.38672 5.4342 7.07207 4.86291 6.50078C4.29162 5.92949 3.97697 5.17012 3.97697 4.36328C3.97697 3.55645 4.29162 2.79707 4.86291 2.22578C5.4342 1.65449 6.19357 1.33984 7.00041 1.33984C7.80725 1.33984 8.56662 1.65449 9.13791 2.22578C9.7092 2.79707 10.0238 3.55645 10.0238 4.36328C10.0238 5.17012 9.7092 5.92949 9.13791 6.50078C8.56662 7.07207 7.80725 7.38672 7.00041 7.38672Z" fill="#1F92A9"/>
</svg>
