<svg width="18" height="18" viewBox="0 0 18 18" fill="none" xmlns="http://www.w3.org/2000/svg">
<path d="M3.79682 2.53925L4.82573 1.51035C4.85051 1.48544 4.86781 1.45408 4.87565 1.41983C4.88349 1.38558 4.88157 1.34982 4.87009 1.31661C4.85861 1.2834 4.83805 1.25408 4.81073 1.23198C4.78341 1.20988 4.75045 1.19589 4.71557 1.1916L0.960884 0.748628C0.841353 0.734566 0.738228 0.835347 0.75229 0.957222L1.19526 4.71191C1.21401 4.8666 1.40385 4.93222 1.51401 4.82207L2.53823 3.79785L5.67182 6.9291C5.74448 7.00175 5.86401 7.00175 5.93667 6.9291L6.93042 5.93769C7.00307 5.86503 7.00307 5.7455 6.93042 5.67285L3.79682 2.53925ZM12.0632 6.9291C12.1359 7.00175 12.2554 7.00175 12.3281 6.9291L15.4617 3.79785L16.4859 4.82207C16.5108 4.84685 16.5422 4.86415 16.5764 4.87199C16.6107 4.87983 16.6464 4.8779 16.6796 4.86643C16.7128 4.85495 16.7422 4.83438 16.7643 4.80707C16.7864 4.77975 16.8003 4.74678 16.8046 4.71191L17.2476 0.959566C17.2617 0.840035 17.1609 0.73691 17.039 0.750972L13.2843 1.19394C13.1296 1.21269 13.064 1.40253 13.1742 1.51269L14.2031 2.5416L11.0695 5.6705C11.0346 5.70574 11.015 5.75333 11.015 5.80293C11.015 5.85252 11.0346 5.90011 11.0695 5.93535L12.0632 6.9291ZM16.8046 13.2853C16.7859 13.1307 16.596 13.065 16.4859 13.1752L15.4617 14.1994L12.3281 11.0682C12.2928 11.0333 12.2452 11.0137 12.1956 11.0137C12.1461 11.0137 12.0985 11.0333 12.0632 11.0682L11.0695 12.0596C11.0346 12.0948 11.015 12.1424 11.015 12.192C11.015 12.2416 11.0346 12.2892 11.0695 12.3244L14.2031 15.458L13.1742 16.4869C13.1494 16.5118 13.1321 16.5432 13.1242 16.5774C13.1164 16.6117 13.1183 16.6474 13.1298 16.6806C13.1413 16.7139 13.1618 16.7432 13.1892 16.7653C13.2165 16.7874 13.2494 16.8014 13.2843 16.8057L17.039 17.2486C17.1585 17.2627 17.2617 17.1619 17.2476 17.04L16.8046 13.2853ZM5.93667 11.0682C5.90142 11.0333 5.85384 11.0137 5.80424 11.0137C5.75465 11.0137 5.70706 11.0333 5.67182 11.0682L2.53823 14.1994L1.51401 13.1752C1.4891 13.1504 1.45774 13.1331 1.42349 13.1253C1.38924 13.1174 1.35348 13.1194 1.32027 13.1308C1.28706 13.1423 1.25774 13.1629 1.23564 13.1902C1.21354 13.2175 1.19955 13.2505 1.19526 13.2853L0.75229 17.0377C0.738228 17.1572 0.839009 17.2603 0.960884 17.2463L4.71557 16.8033C4.87026 16.7846 4.93588 16.5947 4.82573 16.4846L3.79682 15.458L6.93042 12.3268C7.00307 12.2541 7.00307 12.1346 6.93042 12.0619L5.93667 11.0682Z" fill="#2D415C"/>
</svg>
