<svg width="20" height="20" viewBox="0 0 20 20" fill="none" xmlns="http://www.w3.org/2000/svg">
<path d="M12.93 8.38311H5.61748C5.51436 8.38311 5.42998 8.46748 5.42998 8.57061V9.97686C5.42998 10.08 5.51436 10.1644 5.61748 10.1644H12.93C13.0331 10.1644 13.1175 10.08 13.1175 9.97686V8.57061C13.1175 8.46748 13.0331 8.38311 12.93 8.38311ZM19.5862 18.3206L16.1644 14.8987C19.0261 11.4089 18.8269 6.23857 15.555 2.96904C12.0862 -0.502051 6.45186 -0.502051 2.96904 2.96904C-0.502051 6.45186 -0.502051 12.0862 2.96904 15.555C6.23857 18.8269 11.4089 19.0261 14.8987 16.1644L18.3206 19.5862C18.3956 19.6519 18.5151 19.6519 18.5784 19.5862L19.5862 18.5784C19.6519 18.5151 19.6519 18.3956 19.5862 18.3206ZM14.3128 14.3128C11.5284 17.0948 7.01904 17.0948 4.23467 14.3128C1.45264 11.5284 1.45264 7.01904 4.23467 4.23467C7.01904 1.45264 11.5284 1.45264 14.3128 4.23467C17.0948 7.01904 17.0948 11.5284 14.3128 14.3128Z" fill="#2D415C"/>
</svg>
