<svg width="20" height="20" viewBox="0 0 20 20" fill="none" xmlns="http://www.w3.org/2000/svg">
<path d="M12.9297 8.38311H10.1641V5.24248C10.1641 5.13936 10.0797 5.05498 9.97661 5.05498H8.57036C8.46724 5.05498 8.38286 5.13936 8.38286 5.24248V8.38311H5.61724C5.51411 8.38311 5.42974 8.46748 5.42974 8.57061V9.97686C5.42974 10.08 5.51411 10.1644 5.61724 10.1644H8.38286V13.305C8.38286 13.4081 8.46724 13.4925 8.57036 13.4925H9.97661C10.0797 13.4925 10.1641 13.4081 10.1641 13.305V10.1644H12.9297C13.0329 10.1644 13.1172 10.08 13.1172 9.97686V8.57061C13.1172 8.46748 13.0329 8.38311 12.9297 8.38311ZM19.586 18.3206L16.1641 14.8987C19.0258 11.4089 18.8266 6.23857 15.5547 2.96904C12.086 -0.502051 6.45161 -0.502051 2.9688 2.96904C-0.502295 6.45186 -0.502295 12.0862 2.9688 15.555C6.23833 18.8269 11.4086 19.0261 14.8985 16.1644L18.3204 19.5862C18.3954 19.6519 18.5149 19.6519 18.5782 19.5862L19.586 18.5784C19.6516 18.5151 19.6516 18.3956 19.586 18.3206ZM14.3125 14.3128C11.5282 17.0948 7.0188 17.0948 4.23442 14.3128C1.45239 11.5284 1.45239 7.01904 4.23442 4.23467C7.0188 1.45264 11.5282 1.45264 14.3125 4.23467C17.0946 7.01904 17.0946 11.5284 14.3125 14.3128Z" fill="#2D415C"/>
</svg>
