<svg width="48" height="48" viewBox="0 0 48 48" fill="none" xmlns="http://www.w3.org/2000/svg">
<path d="M20.4277 1.73666L21.2776 3.06179C24.3859 1.11462 28.3336 1.11462 31.4419 3.06179L32.2918 1.73666C28.6761 -0.578886 24.0434 -0.578886 20.4277 1.73666Z" fill="#E8E038"/>
<path d="M16.918 11.0159H15.3443C15.342 12.4717 15.6304 13.9134 16.1925 15.2565L17.6451 14.649C17.1632 13.4985 16.916 12.2633 16.918 11.0159Z" fill="#E8E038"/>
<path d="M29.99 19.7322C28.8408 20.214 27.6069 20.4608 26.3608 20.4585V22.0323C27.8159 22.035 29.2569 21.7469 30.5991 21.1848L29.99 19.7322Z" fill="#E8E038"/>
<path d="M35.8035 11.0159C35.8056 12.2624 35.5586 13.4969 35.0771 14.6466L36.5298 15.2541C37.0918 13.9119 37.3799 12.4709 37.3773 11.0159H35.8035Z" fill="#E8E038"/>
<path d="M26.3607 3.14685C22.0147 3.14685 18.4917 6.66989 18.4917 11.0158C18.4917 15.3618 22.0147 18.8848 26.3607 18.8848C30.7046 18.88 34.2249 15.3598 34.2296 11.0158C34.2296 6.66999 30.7066 3.14685 26.3607 3.14685ZM26.3607 17.311C22.884 17.311 20.0655 14.4925 20.0655 11.0158C20.0655 7.53912 22.884 4.72065 26.3607 4.72065C29.8374 4.72065 32.6559 7.53912 32.6559 11.0158C32.6519 14.491 29.8358 17.3072 26.3607 17.311Z" fill="#E8E038"/>
<path d="M28.0921 10.7648L27.1479 10.45V8.43086C27.5862 8.58381 27.8941 8.97953 27.9348 9.44203H29.5086C29.4382 8.11404 28.4584 7.0114 27.1479 6.78546V6.29443H25.5741V6.78546C24.2635 7.0114 23.2837 8.11404 23.2134 9.44203C23.2443 10.2915 23.8146 11.0262 24.6298 11.2668L25.5741 11.5816V13.5992C25.1363 13.4465 24.8284 13.0515 24.7872 12.5896H23.2134C23.2837 13.9176 24.2635 15.0202 25.5741 15.2462V15.7372H27.1479V15.2462C28.4584 15.0202 29.4382 13.9176 29.5086 12.5896C29.4777 11.7402 28.9074 11.0055 28.0921 10.7648ZM25.5741 9.92597L25.1255 9.77488C24.9265 9.708 24.7872 9.57108 24.7872 9.44203C24.8278 8.97953 25.1358 8.58381 25.5741 8.43086V9.92597ZM27.1479 13.6008V12.1057L27.5964 12.2568C27.7955 12.3236 27.9348 12.4606 27.9348 12.5896C27.8941 13.0521 27.5862 13.4478 27.1479 13.6008Z" fill="#E8E038"/>
<path d="M47.3764 32.4926L44.7851 29.9013L47.3764 27.3101C47.6836 27.0028 47.6836 26.5047 47.3764 26.1974L37.1467 15.9677C36.8394 15.6605 36.3413 15.6605 36.034 15.9677L25.9673 26.0345L15.1136 15.1808C14.8063 14.8736 14.3082 14.8736 14.0009 15.1808L3.77122 25.4105C3.46403 25.7178 3.46403 26.2159 3.77122 26.5232L9.51007 32.262H0.393066V33.8358H10.6227C10.7294 33.8361 10.8349 33.8144 10.9328 33.7721L16.2923 31.4751H27.9345V34.6227H19.2786C18.8441 34.6227 18.4917 34.9749 18.4917 35.4096C18.4917 35.7166 18.6703 35.9955 18.9489 36.1241L29.1786 40.8455C29.436 40.9625 29.7364 40.9325 29.9655 40.7668L43.5938 30.9322L45.6657 33.0041L30.004 46.4262H25.7147L10.895 40.9667C10.8079 40.9345 10.7157 40.918 10.6227 40.9179H0.393066V42.4917H10.4819L25.3015 47.9512C25.3887 47.9834 25.4809 47.9999 25.5738 48H30.2952C30.483 48.0002 30.6644 47.9329 30.8067 47.8103L47.3315 33.6462C47.6615 33.3634 47.6999 32.8666 47.4171 32.5366C47.4041 32.5215 47.3906 32.5067 47.3764 32.4926ZM16.131 29.9013C16.0244 29.901 15.9189 29.9227 15.821 29.9651L15.6298 30.0437C16.4067 28.0275 18.6711 27.0229 20.6874 27.7998C21.6688 28.178 22.4566 28.9355 22.8732 29.9013H16.131ZM24.5548 29.9013C23.8658 27.5631 21.7162 25.9601 19.2786 25.9668C16.494 25.9836 14.1539 28.0633 13.8105 30.8267L11.353 31.8796L5.44023 25.9668L14.5572 16.8498L27.6087 29.9013H24.5548ZM29.421 39.2237L22.8614 36.1965H28.7214C29.156 36.1965 29.5083 35.8442 29.5083 35.4096V31.8009L33.7812 36.0737L29.421 39.2237ZM29.5823 29.6495C29.8803 27.9698 31.3433 26.7477 33.0493 26.7537C35.0006 26.7502 36.5854 28.3291 36.589 30.2804C36.5922 31.9878 35.3738 33.4531 33.6946 33.7618L29.5823 29.6495ZM34.9717 35.0374C35.2875 34.9093 35.5892 34.7496 35.8732 34.5614L35.0732 35.1389L34.9717 35.0374ZM43.1618 29.2993L36.2276 34.3079C38.4367 32.5475 38.8005 29.3293 37.0399 27.1202C35.2794 24.9111 32.0613 24.5474 29.8522 26.308C29.1685 26.8528 28.6358 27.5638 28.305 28.3732L27.0798 27.1472L36.5903 17.6367L45.7073 26.7537L43.1618 29.2993Z" fill="#E8E038"/>
</svg>
