<svg width="48" height="48" viewBox="0 0 48 48" fill="none" xmlns="http://www.w3.org/2000/svg">
<path d="M39.5892 18.3321C39.2231 17.9661 38.6294 17.9661 38.2633 18.3321C37.8972 18.6983 37.8972 19.2919 38.2633 19.658C38.2778 19.6724 38.2928 19.6872 38.3073 19.7007C38.4882 19.8701 38.7184 19.9539 38.9481 19.9539C39.1982 19.9539 39.448 19.8542 39.6325 19.6573C39.9865 19.2795 39.9671 18.6861 39.5892 18.3321Z" fill="#E8E038"/>
<path d="M37.6842 16.7923C37.1476 16.4279 36.5966 16.1029 36.0467 15.8261C32.9355 14.2605 29.6386 13.9463 26.5123 14.9172C26.0178 15.0708 25.7413 15.5961 25.895 16.0905C26.0486 16.5851 26.5737 16.8613 27.0684 16.7078C29.7219 15.8836 32.535 16.1579 35.2037 17.5008C35.6744 17.7379 36.168 18.0295 36.6311 18.3436C36.7925 18.4531 36.9756 18.5057 37.1568 18.5057C37.457 18.5057 37.752 18.3618 37.9333 18.0946C38.2241 17.6663 38.1126 17.0832 37.6842 16.7923Z" fill="#E8E038"/>
<path d="M46.2134 28.9244C45.829 28.1182 45.1926 26.783 45.1811 26.3413C46.2774 23.6391 45.8775 20.6488 44.0514 17.9134C41.2434 13.7066 35.4881 10.6532 30.3668 10.6532C27.6597 10.6532 25.0162 11.2987 22.638 12.5311C21.9557 8.79262 18.6771 5.9491 14.7447 5.9491C10.3191 5.9491 6.71875 9.54946 6.71875 13.9749C6.71875 16.7905 8.15368 19.3505 10.5569 20.8228C11.2497 21.2473 11.4064 21.6143 11.4621 22.2155V25.4164V27.7014C11.4621 28.7482 12.3135 29.5998 13.3601 29.5998H13.6788C14.1938 33.7038 16.18 37.4298 19.3328 40.1717C19.3625 40.2644 19.4492 40.6985 19.0766 41.9939C18.7865 43.003 18.3412 44.1239 17.9485 45.113C17.6856 45.7748 17.4585 46.3464 17.3213 46.7786C17.2308 47.0635 17.2816 47.3745 17.4581 47.6159C17.6348 47.8572 17.9158 47.9999 18.2148 47.9999H31.5971C32.0368 47.9999 32.6407 47.8031 33.0209 46.8651C33.1863 46.4569 33.2943 45.9658 33.4088 45.4458C33.5202 44.9392 33.7814 43.7526 34.041 43.6093C34.0412 43.6093 34.0564 43.6067 34.0931 43.6124C34.1412 43.62 34.1898 43.6237 34.2386 43.6237C35.64 43.6237 36.7852 43.6873 37.7955 43.7432C40.7589 43.9077 42.5476 44.0069 44.1167 41.7468C44.9147 40.5973 44.8242 38.9207 44.7285 37.1458C44.6792 36.231 44.6283 35.2867 44.7187 34.5018C44.8823 34.3406 45.2919 34.0594 45.5488 33.883C46.4326 33.276 47.2672 32.7029 47.2672 31.8315C47.2675 31.1692 46.8669 30.2953 46.2134 28.9244ZM11.5365 19.2239C9.69389 18.0951 8.59384 16.1329 8.59384 13.9748C8.59384 10.5831 11.3532 7.824 14.7448 7.824C18.1364 7.824 20.8957 10.5832 20.8957 13.9748C20.8957 16.1329 19.7957 18.0952 17.953 19.224C17.0772 19.7608 16.5567 20.3867 16.3097 21.2325L14.7445 21.232L13.18 21.2325C12.9328 20.3868 12.4124 19.7608 11.5365 19.2239ZM16.1524 23.1077V24.4788H13.3373V23.1077H16.1524ZM13.3603 27.7247C13.3498 27.7247 13.3373 27.7118 13.3373 27.7013V26.3538H16.1524V27.7013C16.1524 27.7119 16.1397 27.7247 16.1292 27.7247H13.3603ZM44.4877 32.3372C43.6808 32.8914 42.9838 33.3699 42.8811 34.094C42.7399 35.0874 42.7991 36.1851 42.8563 37.2466C42.9274 38.5635 43.0078 40.0561 42.5766 40.6774C41.6438 42.0212 40.837 42.0343 37.8995 41.871C36.9303 41.8172 35.7277 41.7506 34.3019 41.7485C33.7543 41.684 32.8277 41.7868 32.2095 42.9887C31.8954 43.599 31.7267 44.366 31.5778 45.0426C31.503 45.3826 31.3979 45.8604 31.2994 46.1247H19.5644C19.6055 46.0212 19.6479 45.9144 19.6914 45.8049C21.0419 42.4043 21.8973 39.9102 20.5953 38.7846C17.8357 36.3978 16.0758 33.1659 15.5712 29.5997H16.1292C17.176 29.5997 18.0275 28.7481 18.0275 27.7013V25.4163V22.2173C18.0831 21.6149 18.2394 21.2477 18.9327 20.8228C21.1519 19.4632 22.5442 17.176 22.7447 14.6167C25.0457 13.2494 27.6703 12.5281 30.3669 12.5281C34.8339 12.5281 40.0466 15.2908 42.4921 18.9543C43.5402 20.5244 44.5526 22.9671 43.4231 25.6868C43.0553 26.5724 43.6007 27.8007 44.5209 29.7312C44.8189 30.3562 45.2501 31.2608 45.3643 31.6835C45.1706 31.8682 44.7542 32.1542 44.4877 32.3372Z" fill="#E8E038"/>
<path d="M19.3432 12.6503C19.0664 11.6242 18.3782 10.8024 17.3528 10.2733C16.8927 10.0362 16.3273 10.2166 16.0898 10.6769C15.8525 11.1371 16.0331 11.7025 16.4933 11.9398C17.0531 12.2286 17.3932 12.6208 17.5329 13.1386C17.7541 13.9583 17.4196 14.8453 17.2728 15.0757C16.9944 15.5123 17.1228 16.0919 17.5593 16.3702C17.7155 16.4699 17.89 16.5172 18.0624 16.5172C18.3721 16.5172 18.6751 16.3642 18.8537 16.0837C19.2537 15.4566 19.714 14.0244 19.3432 12.6503Z" fill="#E8E038"/>
<path d="M14.7446 0C14.2268 0 13.8071 0.419905 13.8071 0.937496V3.61011C13.8071 4.1277 14.2268 4.54761 14.7446 4.54761C15.2623 4.54761 15.6821 4.1277 15.6821 3.61011V0.937496C15.6821 0.419905 15.2623 0 14.7446 0Z" fill="#E8E038"/>
<path d="M4.34302 13.0748H1.67041C1.15263 13.0748 0.73291 13.4947 0.73291 14.0123C0.73291 14.5301 1.15263 14.9498 1.67041 14.9498H4.34312C4.8608 14.9498 5.28052 14.5301 5.28052 14.0123C5.28052 13.4947 4.86071 13.0748 4.34302 13.0748Z" fill="#E8E038"/>
<path d="M10.3555 4.53409L9.01955 2.22054C8.76062 1.77213 8.18715 1.61867 7.73884 1.87741C7.29053 2.13635 7.13688 2.70963 7.39581 3.15803L8.73174 5.47159C8.90546 5.77243 9.22046 5.94052 9.54446 5.94052C9.70355 5.94052 9.8648 5.90002 10.0124 5.81471C10.4608 5.55578 10.6144 4.9825 10.3555 4.53409Z" fill="#E8E038"/>
<path d="M6.20413 7.99919L3.8903 6.66326C3.44198 6.40451 2.86852 6.55817 2.60968 7.00639C2.35074 7.45479 2.50439 8.02807 2.9528 8.287L5.26663 9.62293C5.4142 9.70825 5.57545 9.74875 5.73444 9.74875C6.05844 9.74875 6.37354 9.58065 6.54725 9.27981C6.80619 8.8316 6.65253 8.25813 6.20413 7.99919Z" fill="#E8E038"/>
<path d="M26.8803 7.00627C26.6212 6.55786 26.048 6.40421 25.5996 6.66314L23.2858 7.99907C22.8374 8.25801 22.6837 8.83148 22.9427 9.27969C23.1163 9.58054 23.4314 9.74863 23.7554 9.74863C23.9144 9.74863 24.0756 9.70813 24.2233 9.62282L26.5371 8.28689C26.9855 8.02795 27.1392 7.45467 26.8803 7.00627Z" fill="#E8E038"/>
<path d="M6.54773 18.7449C6.28898 18.2965 5.71579 18.143 5.26729 18.4016L2.9529 19.7375C2.50449 19.9963 2.35074 20.5697 2.60959 21.0181C2.78321 21.319 3.0984 21.4871 3.4224 21.4871C3.58139 21.4871 3.74255 21.4466 3.89021 21.3614L6.20451 20.0255C6.65291 19.7668 6.80666 19.1933 6.54773 18.7449Z" fill="#E8E038"/>
<path d="M9.81955 22.5436C9.37133 22.2849 8.79786 22.4385 8.53893 22.8868L7.39574 24.867C7.1369 25.3154 7.29056 25.8889 7.73896 26.1477C7.88662 26.233 8.04777 26.2735 8.20677 26.2735C8.53077 26.2735 8.84596 26.1054 9.01958 25.8045L10.1628 23.8243C10.4217 23.3759 10.268 22.8026 9.81955 22.5436Z" fill="#E8E038"/>
<path d="M21.7512 1.87738C21.3027 1.61844 20.7295 1.77209 20.4705 2.2205L19.1346 4.53405C18.8757 4.98246 19.0292 5.55583 19.4776 5.81467C19.6253 5.89998 19.7865 5.94049 19.9455 5.94049C20.2695 5.94049 20.5846 5.77239 20.7583 5.47155L22.0943 3.158C22.3532 2.70959 22.1996 2.13631 21.7512 1.87738Z" fill="#E8E038"/>
</svg>
