<svg width="44" height="48" viewBox="0 0 44 48" fill="none" xmlns="http://www.w3.org/2000/svg">
<path d="M43.6505 10.5729V1.35948C43.6505 0.926975 43.4393 0.514584 43.0973 0.263125C42.7453 0.0116667 42.2926 -0.0688 41.8802 0.0619584L14.431 8.78254C13.8678 8.96359 13.4856 9.48662 13.4856 10.0801V19.3036V19.3136V36.9459C12.0472 35.9501 10.2065 35.407 8.27534 35.407C6.23349 35.407 4.29223 36.0205 2.81366 37.1269C1.22444 38.3239 0.349365 39.9433 0.349365 41.7035C0.349365 43.4637 1.22444 45.0831 2.81366 46.28C4.29223 47.3864 6.22343 48 8.27534 48C10.3272 48 12.2584 47.3864 13.737 46.28C15.3262 45.0831 16.2013 43.4637 16.2013 41.7035V20.2993L40.9348 12.4337V28.1851C39.4964 27.1893 37.6557 26.6461 35.7245 26.6461C33.6827 26.6461 31.7414 27.2597 30.2629 28.3661C28.6736 29.5631 27.7986 31.1825 27.7986 32.9427C27.7986 34.7029 28.6736 36.3223 30.2629 37.5192C31.7414 38.6256 33.6726 39.2392 35.7245 39.2392C37.7764 39.2392 39.7076 38.6256 41.1862 37.5192C42.7754 36.3223 43.6505 34.7029 43.6505 32.9427V10.583C43.6505 10.5729 43.6505 10.5729 43.6505 10.5729ZM8.27534 45.2842C5.44894 45.2842 3.06512 43.6447 3.06512 41.7035C3.06512 39.7622 5.44894 38.1227 8.27534 38.1227C11.1017 38.1227 13.4856 39.7622 13.4856 41.7035C13.4856 43.6548 11.1017 45.2842 8.27534 45.2842ZM16.2013 17.4428V11.0658L40.9348 3.21022V9.5872L16.2013 17.4428ZM35.7346 36.5234C32.9082 36.5234 30.5244 34.8839 30.5244 32.9427C30.5244 31.0014 32.9082 29.3619 35.7346 29.3619C38.561 29.3619 40.9448 31.0014 40.9448 32.9427C40.9348 34.8839 38.5509 36.5234 35.7346 36.5234Z" fill="#E8E038"/>
</svg>
