<svg width="48" height="48" viewBox="0 0 48 48" fill="none" xmlns="http://www.w3.org/2000/svg">
<path d="M25.5365 23.3639L25.5356 10.9697C25.5356 10.1211 24.8476 9.43384 23.9997 9.43384C23.1519 9.43384 22.4639 10.1211 22.4639 10.9697L22.4647 23.9995C22.4647 24.4072 22.627 24.7974 22.9148 25.0861L30.9551 33.1264C31.2555 33.4259 31.6482 33.5756 32.0417 33.5756C32.4344 33.5756 32.8271 33.4267 33.1266 33.1264C33.7265 32.5265 33.7265 31.5548 33.1266 30.9541L25.5365 23.3639Z" fill="#E8E038"/>
<path d="M48 24.0007C48 23.9933 47.999 23.9862 47.9989 23.9788C47.987 10.7543 37.2259 0.00109863 23.9996 0.00109863C10.766 0.00109863 0 10.7671 0 24.0007C0 37.2343 10.766 47.9994 23.9996 47.9994C37.2259 47.9994 47.987 37.247 47.9989 24.0226C47.999 24.0152 48 24.0081 48 24.0007ZM25.5355 44.872V42.4841C25.5355 41.6355 24.8474 40.9482 23.9996 40.9482C23.1517 40.9482 22.4637 41.6355 22.4637 42.4841V44.872C12.1457 44.1199 3.88024 35.8538 3.12829 25.5357H5.51615C6.36476 25.5357 7.05203 24.8493 7.05203 24.0007C7.05203 23.1521 6.36476 22.4648 5.51615 22.4648H3.1282C3.87987 12.1464 12.1454 3.8806 22.4637 3.12855V5.51641C22.4637 6.36418 23.1517 7.05229 23.9996 7.05229C24.8482 7.05229 25.5355 6.36427 25.5355 5.51641V3.12855C35.8542 3.8806 44.1189 12.1467 44.871 22.4648H42.4839C41.6353 22.4648 40.9472 23.1512 40.9472 23.9998C40.9472 24.8485 41.6352 25.5357 42.4839 25.5357H44.871C44.1194 35.8541 35.8544 44.12 25.5355 44.872Z" fill="#E8E038"/>
</svg>
