<svg width="48" height="48" viewBox="0 0 48 48" fill="none" xmlns="http://www.w3.org/2000/svg">
<g clip-path="url(#clip0)">
<path d="M45.1017 17.6284C44.7779 17.4351 44.3763 17.426 44.0444 17.6047L37.1162 21.3338V18.1382C37.1162 17.5464 36.6363 17.0667 36.0448 17.0667H34.3024C36.4754 15.3043 37.8671 12.6142 37.8671 9.60476C37.8672 4.30874 33.5584 0 28.2622 0C23.7418 0 19.9413 3.1394 18.9249 7.35224C17.5954 5.74799 15.5887 4.72424 13.3471 4.72424C9.35336 4.72424 6.10437 7.97333 6.10437 11.967C6.10437 13.9544 6.90931 15.7569 8.2099 17.067H7.23162C6.63987 17.067 6.16015 17.5467 6.16015 18.1384V23.0021H3.44769C2.85594 23.0021 2.37622 23.4818 2.37622 24.0735V28.287C2.37622 28.8788 2.85594 29.3585 3.44769 29.3585H6.16006V34.2222C6.16006 34.8139 6.63978 35.2936 7.23152 35.2936H19.8713L14.0639 46.4334C13.7904 46.9581 13.994 47.6052 14.5187 47.8788C14.6769 47.9613 14.8463 48.0004 15.013 48.0004C15.3996 48.0004 15.7729 47.7905 15.9639 47.4241L21.638 36.5399L27.3121 47.4241C27.5031 47.7907 27.8766 48.0004 28.2631 48.0004C28.4299 48.0004 28.5993 47.9613 28.7574 47.8788C29.2821 47.6052 29.4858 46.9581 29.2121 46.4334L23.4047 35.2936H36.0447C36.6363 35.2936 37.1162 34.8139 37.1162 34.2222V31.0264L44.0444 34.7555C44.2032 34.8409 44.3776 34.8835 44.5521 34.8835C44.7424 34.8835 44.9326 34.8327 45.1017 34.7319C45.4255 34.5385 45.6236 34.1892 45.6236 33.8121V18.5482C45.6236 18.1711 45.4255 17.8218 45.1017 17.6284ZM6.16015 27.2153H4.51915V25.1446H6.16015V27.2153ZM28.2622 2.14284C32.3767 2.14284 35.7243 5.49027 35.7243 9.60486C35.7243 13.7194 32.3768 17.0668 28.2622 17.0668C24.1477 17.0668 20.8003 13.7193 20.8003 9.60486C20.8004 5.49037 24.1478 2.14284 28.2622 2.14284ZM20.0804 14.63C20.6527 15.5585 21.3786 16.3825 22.2223 17.0668H18.4843C19.1695 16.3766 19.7155 15.5489 20.0804 14.63ZM13.3471 6.86699C16.1591 6.86699 18.447 9.15476 18.447 11.9669C18.447 14.779 16.1592 17.0669 13.3471 17.0669C10.5351 17.0669 8.24721 14.7791 8.24721 11.9669C8.2473 9.15476 10.5351 6.86699 13.3471 6.86699ZM34.9733 23.1272V29.2325V33.1503H21.6574C21.6554 33.1503 21.6535 33.1503 21.6516 33.1503H21.6232C21.622 33.1503 21.6208 33.1503 21.6196 33.1503H8.30299V28.2867V24.0732V19.2095H34.9733V23.1272ZM43.4807 32.0183L37.1162 28.5925V23.7674L43.4807 20.3416V32.0183Z" fill="#E8E038"/>
<path d="M13.3472 8.71228C11.5525 8.71228 10.0925 10.1723 10.0925 11.9669C10.0925 13.7616 11.5526 15.2215 13.3472 15.2215C15.1418 15.2215 16.6018 13.7615 16.6018 11.9669C16.6019 10.1723 15.1418 8.71228 13.3472 8.71228ZM13.3472 13.2929C12.6159 13.2929 12.0211 12.6981 12.0211 11.9668C12.0211 11.2356 12.6159 10.6407 13.3472 10.6407C14.0784 10.6407 14.6732 11.2356 14.6732 11.9668C14.6732 12.6981 14.0783 13.2929 13.3472 13.2929Z" fill="#E8E038"/>
<path d="M28.2624 4.93079C25.6851 4.93079 23.5884 7.02759 23.5884 9.60487C23.5884 12.1821 25.6851 14.2789 28.2624 14.2789C30.8396 14.2789 32.9363 12.1821 32.9363 9.60487C32.9363 7.02759 30.8397 4.93079 28.2624 4.93079ZM28.2624 12.136C26.8667 12.136 25.7312 11.0005 25.7312 9.60487C25.7312 8.20922 26.8667 7.07363 28.2624 7.07363C29.658 7.07363 30.7935 8.20912 30.7935 9.60487C30.7935 11.0006 29.658 12.136 28.2624 12.136Z" fill="#E8E038"/>
<path d="M24.8056 22.3253H13.1563C12.5941 22.3253 12.1384 22.781 12.1384 23.3432V29.0168C12.1384 29.579 12.5941 30.0346 13.1563 30.0346H24.8056C25.3679 30.0346 25.8235 29.5789 25.8235 29.0168V23.3432C25.8235 22.7811 25.3678 22.3253 24.8056 22.3253ZM23.7877 27.999H14.1741V24.3611H23.7878V27.999H23.7877Z" fill="#E8E038"/>
<path d="M30.4252 25.4859C31.017 25.4859 31.4967 25.0062 31.4967 24.4145C31.4967 23.8227 31.017 23.343 30.4252 23.343C29.8335 23.343 29.3538 23.8227 29.3538 24.4145C29.3538 25.0062 29.8335 25.4859 30.4252 25.4859Z" fill="#E8E038"/>
<path d="M30.4252 29.0163C31.017 29.0163 31.4967 28.5366 31.4967 27.9449C31.4967 27.3531 31.017 26.8734 30.4252 26.8734C29.8335 26.8734 29.3538 27.3531 29.3538 27.9449C29.3538 28.5366 29.8335 29.0163 30.4252 29.0163Z" fill="#E8E038"/>
</g>
<defs>
<clipPath id="clip0">
<rect width="48" height="48" fill="white"/>
</clipPath>
</defs>
</svg>
