<svg width="48" height="48" viewBox="0 0 48 48" fill="none" xmlns="http://www.w3.org/2000/svg">
<path d="M38.0625 16.875C42.7148 16.875 46.5 13.0898 46.5 8.4375C46.5 3.78516 42.7148 0 38.0625 0C33.4102 0 29.625 3.78516 29.625 8.4375C29.625 9.47754 29.8147 10.4744 30.1604 11.395L19.0627 17.8982C17.2581 15.6204 14.469 14.1562 11.3438 14.1562C5.91577 14.1562 1.5 18.572 1.5 24C1.5 29.428 5.91577 33.8438 11.3438 33.8438C14.469 33.8438 17.2581 32.3796 19.0627 30.1018L30.1604 36.605C29.8147 37.5256 29.625 38.5225 29.625 39.5625C29.625 44.2148 33.4102 48 38.0625 48C42.7148 48 46.5 44.2148 46.5 39.5625C46.5 34.9102 42.7148 31.125 38.0625 31.125C35.4573 31.125 33.1241 32.3123 31.5751 34.1737L20.4771 27.6705C20.9348 26.5356 21.1875 25.2968 21.1875 24C21.1875 22.7032 20.9348 21.4644 20.4771 20.3295L31.5751 13.8263C33.1241 15.6877 35.4573 16.875 38.0625 16.875ZM38.0625 33.9375C41.1643 33.9375 43.6875 36.4607 43.6875 39.5625C43.6875 42.6643 41.1643 45.1875 38.0625 45.1875C34.9607 45.1875 32.4375 42.6643 32.4375 39.5625C32.4375 36.4607 34.9607 33.9375 38.0625 33.9375ZM11.3438 31.0312C7.46667 31.0312 4.3125 27.8771 4.3125 24C4.3125 20.1229 7.46667 16.9688 11.3438 16.9688C15.2208 16.9688 18.375 20.1229 18.375 24C18.375 27.8771 15.2208 31.0312 11.3438 31.0312ZM38.0625 2.8125C41.1643 2.8125 43.6875 5.33569 43.6875 8.4375C43.6875 11.5393 41.1643 14.0625 38.0625 14.0625C34.9607 14.0625 32.4375 11.5393 32.4375 8.4375C32.4375 5.33569 34.9607 2.8125 38.0625 2.8125Z" fill="#E8E038"/>
</svg>
