<svg width="16" height="14" viewBox="0 0 16 14" fill="none" xmlns="http://www.w3.org/2000/svg">
<path d="M14.5717 13.2857C14.9314 13.2857 15.243 13.1669 15.5079 12.9325L10.9749 8.39923C10.8661 8.47711 10.7607 8.55284 10.6611 8.62485C10.3219 8.87479 10.0466 9.06983 9.83516 9.20958C9.62377 9.34965 9.34252 9.49243 8.99143 9.6382C8.64011 9.78414 8.31282 9.85688 8.0092 9.85688H8.00031H7.99142C7.68778 9.85688 7.36048 9.78417 7.00919 9.6382C6.6579 9.49243 6.37665 9.34965 6.16547 9.20958C5.95408 9.06983 5.6789 8.87482 5.33949 8.62485C5.2449 8.55551 5.14001 8.47943 5.0266 8.39801L0.492676 12.9325C0.757573 13.1669 1.06941 13.2857 1.42904 13.2857H14.5717Z" fill="#ADADAD"/>
<path d="M0.901882 5.54471C0.562678 5.31856 0.261876 5.05956 0 4.76782V11.6648L3.99542 7.66934C3.19611 7.11132 2.16624 6.40392 0.901882 5.54471Z" fill="#ADADAD"/>
<path d="M15.1069 5.54471C13.8907 6.36784 12.8571 7.07646 12.0059 7.67094L15.9997 11.6649V4.76782C15.7436 5.05369 15.4461 5.31252 15.1069 5.54471Z" fill="#ADADAD"/>
<path d="M14.5716 0.714264H1.42897C0.970461 0.714264 0.617952 0.869095 0.371007 1.17844C0.123859 1.48792 0.000488281 1.87497 0.000488281 2.33914C0.000488281 2.71408 0.164208 3.12033 0.491502 3.55801C0.818796 3.99551 1.16706 4.33916 1.53613 4.58913C1.73846 4.73208 2.3486 5.15625 3.36656 5.8615C3.91608 6.2423 4.39396 6.57422 4.80463 6.86064C5.15467 7.10453 5.45654 7.31575 5.70578 7.49103C5.7344 7.5111 5.77939 7.54329 5.83912 7.58599C5.90346 7.63221 5.98489 7.69086 6.08534 7.76339C6.27877 7.90329 6.43947 8.01638 6.56746 8.10277C6.69528 8.18919 6.85014 8.28572 7.03181 8.39291C7.21334 8.49996 7.38455 8.58045 7.54525 8.63399C7.70598 8.6875 7.85476 8.71434 7.99164 8.71434H8.00053H8.00942C8.14627 8.71434 8.29509 8.6875 8.45584 8.63399C8.61651 8.58045 8.78758 8.50013 8.96926 8.39291C9.15075 8.28572 9.30541 8.18899 9.43363 8.10277C9.56162 8.01638 9.72232 7.90332 9.91579 7.76339C10.016 7.69086 10.0975 7.63218 10.1618 7.58613C10.2216 7.54326 10.2665 7.51128 10.2953 7.49103C10.4895 7.35592 10.792 7.14558 11.1988 6.86311C11.9391 6.3488 13.0292 5.59181 14.4739 4.58913C14.9084 4.28565 15.2714 3.91943 15.5631 3.49099C15.8543 3.06255 16.0003 2.61313 16.0003 2.14289C16.0003 1.75 15.8588 1.41382 15.5763 1.13382C15.2934 0.854164 14.9585 0.714264 14.5716 0.714264Z" fill="#ADADAD"/>
</svg>
