<svg width="48" height="48" viewBox="0 0 48 48" fill="none" xmlns="http://www.w3.org/2000/svg">
<g clip-path="url(#clip0)">
<path d="M41.8886 46.3093L35.5606 32.9236C35.4343 32.6565 35.2155 32.4518 34.9531 32.3401L31.805 30.9387L37.2598 21.7964C37.2728 21.7744 37.2851 21.7522 37.2968 21.7295C38.3813 19.6127 38.9313 17.3253 38.9313 14.9312C38.9313 10.9038 37.352 7.12815 34.4842 4.2998C31.617 1.47212 27.8184 -0.0551661 23.7886 0.00145885C19.8747 0.0557401 16.1896 1.62783 13.4119 4.42833C10.6344 7.22865 9.09205 10.9264 9.0688 14.8408C9.05455 17.2328 9.61977 19.6148 10.703 21.7294C10.7146 21.752 10.7269 21.7743 10.7399 21.7963L16.1946 30.9385L13.0283 32.3476C12.7693 32.4629 12.5602 32.6671 12.4391 32.9235L6.11127 46.3093C5.89949 46.7569 5.98883 47.2892 6.33514 47.6433C6.68136 47.9974 7.21124 48.0989 7.66377 47.8975L15.5911 44.3682L23.5184 47.8975C23.825 48.0339 24.1752 48.0339 24.4819 47.8975L32.4092 44.3682L40.3365 47.8975C40.4914 47.9664 40.6553 48 40.8179 48C41.1302 48 41.4374 47.8764 41.6651 47.6434C42.0111 47.2892 42.1004 46.7571 41.8886 46.3093ZM12.7943 20.6161C11.8821 18.8225 11.4257 16.8844 11.4378 14.8549C11.4779 8.06471 17.0333 2.46399 23.8216 2.36996C27.2121 2.3244 30.4087 3.60737 32.8209 5.98646C35.2339 8.36612 36.5626 11.5427 36.5626 14.9313C36.5626 16.9337 36.1061 18.8461 35.2057 20.6161L25.0172 37.6925C24.7061 38.2138 24.2023 38.27 24.0001 38.27C23.7978 38.27 23.294 38.2138 22.983 37.6925L12.7943 20.6161ZM32.8907 41.9897C32.584 41.8533 32.2339 41.8533 31.9272 41.9897L23.9999 45.5191L16.0726 41.9897C15.7659 41.8533 15.4158 41.8533 15.1091 41.9897L9.61742 44.4347L14.3929 34.3333L17.417 32.9874L20.9484 38.9061C21.5957 39.991 22.7364 40.6387 23.9997 40.6387C25.263 40.6387 26.4037 39.991 27.051 38.9062L30.5824 32.9875L33.6068 34.3338L38.382 44.4348L32.8907 41.9897Z" fill="#E8E038"/>
<path d="M24.0003 9.52567C21.0196 9.52567 18.5947 11.9505 18.5947 14.9311C18.5947 17.9117 21.0196 20.3365 24.0003 20.3365C26.9809 20.3366 29.4057 17.9117 29.4057 14.9311C29.4057 11.9505 26.9809 9.52567 24.0003 9.52567ZM24.0003 17.9678C22.3258 17.9679 20.9634 16.6058 20.9634 14.9311C20.9634 13.2566 22.3257 11.8944 24.0003 11.8944C25.6747 11.8944 27.037 13.2566 27.037 14.9311C27.037 16.6056 25.6747 17.9678 24.0003 17.9678Z" fill="#E8E038"/>
</g>
<defs>
<clipPath id="clip0">
<rect width="48" height="48" fill="white"/>
</clipPath>
</defs>
</svg>
