<svg width="48" height="48" viewBox="0 0 48 48" fill="none" xmlns="http://www.w3.org/2000/svg">
<path d="M25.536 23.364L25.5351 10.9698C25.5351 10.1212 24.8471 9.4339 23.9993 9.4339C23.1514 9.4339 22.4634 10.1212 22.4634 10.9698L22.4642 23.9996C22.4642 24.4073 22.6265 24.7975 22.9143 25.0861L30.9546 33.1264C31.255 33.426 31.6477 33.5757 32.0412 33.5757C32.4339 33.5757 32.8266 33.4267 33.1261 33.1264C33.726 32.5266 33.726 31.5549 33.1261 30.9541L25.536 23.364Z" fill="#E8E038"/>
<path d="M48 24.0004C48 23.993 47.999 23.9859 47.9989 23.9785C47.987 10.7541 37.2259 0.000854492 23.9996 0.000854492C10.766 0.000854492 0 10.7668 0 24.0004C0 37.234 10.766 47.9992 23.9996 47.9992C37.2259 47.9992 47.987 37.2467 47.9989 24.0224C47.999 24.015 48 24.0078 48 24.0004ZM25.5355 44.8717V42.4839C25.5355 41.6353 24.8474 40.948 23.9996 40.948C23.1517 40.948 22.4637 41.6353 22.4637 42.4839V44.8717C12.1457 44.1196 3.88024 35.8535 3.12829 25.5355H5.51615C6.36476 25.5355 7.05203 24.849 7.05203 24.0004C7.05203 23.1518 6.36476 22.4646 5.51615 22.4646H3.1282C3.87987 12.1461 12.1454 3.88035 22.4637 3.1283V5.51616C22.4637 6.36393 23.1517 7.05204 23.9996 7.05204C24.8482 7.05204 25.5355 6.36402 25.5355 5.51616V3.1283C35.8542 3.88035 44.1189 12.1464 44.871 22.4646H42.4839C41.6353 22.4646 40.9472 23.151 40.9472 23.9996C40.9472 24.8482 41.6352 25.5355 42.4839 25.5355H44.871C44.1194 35.8539 35.8544 44.1198 25.5355 44.8717Z" fill="#E8E038"/>
</svg>
