<svg width="44" height="48" viewBox="0 0 44 48" fill="none" xmlns="http://www.w3.org/2000/svg">
<path fill-rule="evenodd" clip-rule="evenodd" d="M42.2115 19.3759H10.2267L40.9485 10.4762C41.1872 10.407 41.3887 10.2455 41.5088 10.028C41.6289 9.81006 41.6575 9.55371 41.5882 9.31494L39.9806 3.76501C39.3382 1.54834 37.2743 0 34.9613 0C34.4739 0 33.9883 0.0692138 33.5173 0.205444L4.67271 8.56128C3.33861 8.94763 2.23302 9.83459 1.55882 11.0581C0.884993 12.2816 0.72679 13.6904 1.11314 15.0242L2.68382 20.4463V42.7826C2.68382 45.6595 5.02428 48 7.90086 48H19.1662C19.6841 48 20.1037 47.5803 20.1037 47.0625C20.1037 46.5447 19.6841 46.125 19.1662 46.125H7.90123C6.05809 46.125 4.55882 44.6257 4.55882 42.7826V30.0245H9.36168H9.36388H9.36571H16.7075H16.7097H16.7119H24.0537H24.0559H24.0581H31.3999H31.4021H31.4039H41.274V42.7826C41.274 44.6257 39.7748 46.125 37.9316 46.125H26.6662C26.1488 46.125 25.7287 46.5447 25.7287 47.0625C25.7287 47.5803 26.1488 48 26.6662 48H37.9316C40.8086 48 43.149 45.6595 43.149 42.7826V20.3134C43.149 19.7955 42.7294 19.3759 42.2115 19.3759ZM25.6804 28.1495L29.6637 21.2509H34.8445L30.8616 28.1495H25.6804ZM18.3342 28.1495L22.3175 21.2509H27.4983L23.5154 28.1495H18.3342ZM10.9884 28.1495L14.9713 21.2509H20.1525L16.1692 28.1495H10.9884ZM14.474 16.0129L7.80382 9.60645L12.8015 8.15881C12.8367 8.21008 12.8777 8.25842 12.9245 8.30347L19.5947 14.71L14.597 16.1576C14.5619 16.1063 14.5205 16.0576 14.474 16.0129ZM27.0365 4.21545L33.7066 10.6219L28.709 12.0696C28.6738 12.0183 28.6328 11.9696 28.5859 11.9249L21.9158 5.51843L26.9134 4.0708C26.9486 4.12207 26.9896 4.17041 27.0365 4.21545ZM19.9803 6.25964L26.6505 12.6658L21.6528 14.1138C21.6177 14.0625 21.5766 14.0138 21.5298 13.9691L14.8596 7.56262L19.8573 6.11499C19.8928 6.16589 19.9338 6.2146 19.9803 6.25964ZM34.0392 2.00647C34.3402 1.91931 34.6504 1.875 34.9613 1.875C36.4448 1.875 37.7679 2.8667 38.1796 4.28687L39.5265 8.93591L35.7651 10.0254C35.7296 9.97412 35.6886 9.92578 35.6417 9.88074L28.9719 3.47461L34.0392 2.00647ZM3.20128 11.9626C3.63341 11.1779 4.34129 10.6095 5.19456 10.3623L5.74535 10.2026C5.78087 10.2539 5.82188 10.3026 5.86839 10.3473L12.5386 16.7538L4.26109 19.1517L2.91417 14.5027C2.66698 13.6498 2.76915 12.7478 3.20128 11.9626ZM4.55882 21.2509H12.8063L8.82335 28.1495H4.55882V21.2509ZM33.0266 28.1495L37.0095 21.2509H41.274V28.1495H33.0266Z" fill="#E8E038"/>
<path fill-rule="evenodd" clip-rule="evenodd" d="M29.3986 37.9794C29.3986 37.6443 29.2198 37.3349 28.9298 37.1675L20.6934 32.4123C20.4033 32.2449 20.0459 32.2449 19.7559 32.4123C19.4658 32.5796 19.2871 32.8891 19.2871 33.2242V42.7346C19.2871 43.0694 19.4658 43.3788 19.7559 43.5462C19.9009 43.63 20.0627 43.6721 20.2246 43.6721C20.3865 43.6721 20.5483 43.63 20.6934 43.5462L28.9298 38.7913C29.2198 38.6239 29.3986 38.3145 29.3986 37.9794ZM21.1621 41.1109V34.8479L26.5861 37.9794L21.1621 41.1109Z" fill="#E8E038"/>
<path fill-rule="evenodd" clip-rule="evenodd" d="M22.916 46.125C22.3997 46.125 21.9785 46.5461 21.9785 47.0625C21.9785 47.5789 22.3997 48 22.916 48C23.4327 48 23.8535 47.5789 23.8535 47.0625C23.8535 46.5461 23.4327 46.125 22.916 46.125Z" fill="#E8E038"/>
</svg>
