<svg width="48" height="48" viewBox="0 0 48 48" fill="none" xmlns="http://www.w3.org/2000/svg">
<path d="M0.831687 41.6376H47.1682C47.6275 41.6376 47.9999 41.2652 47.9999 40.8059V7.35122C47.9999 6.89192 47.6275 6.51953 47.1682 6.51953H0.831687C0.372391 6.51953 0 6.89192 0 7.35122V40.8059C0 41.2652 0.372391 41.6376 0.831687 41.6376ZM8.41352 14.903H46.3381V33.2541H1.66337V14.903H8.41352ZM14.8481 13.2396V8.18291H20.367V13.2396H14.8481ZM27.6333 13.2396V8.18291H33.1522V13.2396H27.6333ZM33.1522 34.9175V39.9742H27.6329V34.9175H33.1522ZM20.367 34.9175V39.9742H14.8477V34.9175H20.367ZM1.66337 34.9175H7.58184V39.9742H1.66337V34.9175ZM9.24481 39.9742V34.9175H13.1844V39.9742H9.24481ZM22.03 39.9742V34.9175H25.9695V39.9742H22.03ZM34.8151 39.9742V34.9175H38.7551V39.9742H34.8151ZM46.3361 39.9742H40.4185V34.9175H46.3361V39.9742ZM46.3361 13.2392H40.4185V8.18291H46.3361V13.2392ZM38.7551 8.18291V13.2396H34.8155V8.18291H38.7551ZM25.9695 8.18291V13.2396H22.0304V8.18291H25.9695ZM13.1844 8.18291V13.2396H9.24521V8.18291H13.1844ZM1.66337 8.18291H7.58184V13.2396H1.66337V8.18291Z" fill="#E8E038"/>
<path d="M18.3982 26.4431V27.9009H20.6155V26.4431H21.7436V24.8629H20.6155V20.2679H17.9182L13.0527 24.9969L13.2473 26.4431H18.3982ZM18.3982 22.2367V24.8629H15.348L18.3982 22.2367Z" fill="#E8E038"/>
<path d="M27.4999 25.8201L28.7844 24.8394L32.2756 27.901H34.9473L30.4108 23.5862L34.8747 20.2562H31.6389L27.4999 23.0806V20.2562H25.2822V27.901H27.4999V25.8201Z" fill="#E8E038"/>
</svg>
