<svg width="282" height="575" viewBox="0 0 282 575" fill="none" xmlns="http://www.w3.org/2000/svg">
<path class="region" d="M38.7817 372.643L37.2867 374.352L36.6458 374.139L37.5002 372.216L38.3547 370.721L39.209 369.653L40.4906 368.585V369.226L40.0634 370.935L38.7817 372.643ZM43.2673 369.653L41.9856 370.08L41.3449 369.226L41.7721 367.731L42.4128 367.304L43.0536 367.731L43.4808 368.585L43.2673 369.653ZM41.7721 366.022L41.1313 366.663L41.3449 364.954L41.9856 363.245L42.4128 363.886L41.7721 366.022ZM50.1023 378.838L49.2478 378.624L48.3934 379.051V378.41L47.5391 376.915L46.4712 374.779L46.044 372.43L46.6847 370.721L44.7624 370.935L43.6945 369.226L43.2673 366.449L42.6265 363.886L46.044 356.197L48.3934 352.779L51.3838 350.43L53.0925 350.003L56.7236 349.789L58.2188 349.148L61.4227 346.799V347.439L60.7819 348.08L59.0731 350.216L55.8692 351.071L56.0828 351.925L57.1508 352.779L55.4421 355.129L55.0149 356.41L54.1605 357.478L53.3062 359.187L50.3158 367.304L49.0343 369.653L48.6071 370.507L47.3255 371.789V373.284L48.8206 374.993L49.4614 376.274L50.1023 378.838ZM43.908 321.595L44.976 324.371L44.7624 325.867L50.743 327.575L54.1605 326.507L54.8012 328.216L59.0731 332.488L58.0051 333.556L56.5101 333.983L53.9469 333.769L53.0925 334.197L51.811 335.051V335.692L52.2382 336.333L53.5197 336.973L54.1605 338.469L54.5877 339.109L56.9371 341.459L57.578 341.886L59.2867 342.527L59.7139 342.954L60.5682 344.022L61.209 345.517L57.3643 348.294L50.1023 349.148L49.0343 350.003L47.3255 353.206L43.2673 359.187L38.5682 368.585L35.7915 371.575L34.9371 373.071L34.5099 374.779L34.7236 376.915V380.546L35.1508 383.109L33.8691 385.673L29.5973 386.954L24.8982 387.808L19.3448 387.381L17.6361 388.663L16.141 390.372L12.9371 388.449L9.09241 386.741L6.95649 386.527L3.32538 386.954L1.61666 386.313L1.83021 384.177L2.25742 382.255L1.18945 377.556V375.207L1.61666 374.139L2.68463 373.071L4.82056 370.721L7.59724 361.964L7.3837 355.342L6.31573 351.284L7.17003 348.721L7.59724 345.944L10.8011 339.75L11.8691 336.76L13.7915 332.915L14.005 328.643L14.6458 325.226L14.005 322.449L14.8594 322.235H18.0633L21.6943 320.1L22.3352 319.672L23.4032 319.886L23.8302 319.672L24.4711 320.1L25.1119 320.954L25.7526 322.235L27.675 328.857L29.1701 330.138L30.8789 328.857L32.5876 326.721L34.5099 323.303L36.4323 321.168L37.7138 320.313L38.7817 320.1L40.0634 320.313L41.5586 321.168L43.908 321.595Z" fill="#009649" stroke="white" stroke-width="2" stroke-linejoin="round" data-country-region="Central Region"></path>
<path class="region" d="M104.788 266.915L105.215 268.623L106.07 269.264L107.351 269.478L108.206 269.905L108.846 270.546L109.06 271.827V272.895L109.274 274.818L108.633 275.886V278.022L109.06 281.866L109.701 283.361L114.613 285.284L116.749 286.779H118.458L121.448 286.565L123.371 285.924L123.157 284.643L122.516 282.721V281.653L122.944 280.157L123.584 279.09L124.439 273.536L124.866 272.682L126.788 272.255L129.351 273.322H131.487L131.914 273.75L132.342 275.245L132.555 276.954V278.662V280.371L132.769 281.225L133.41 281.439L134.264 281.866H135.332L137.041 282.507L138.322 283.575L139.817 284.643L141.526 286.565L143.448 289.342L143.662 290.196L144.303 292.119L145.157 293.187L143.235 294.255L142.808 294.682L141.099 296.818L140.245 297.245L138.963 295.963L135.546 294.041L133.837 293.614L132.769 294.041L131.274 295.536L129.351 298.099L127.643 303.012L131.06 306.429L132.342 307.497L132.769 308.352V308.993L131.06 311.556L127.002 314.332L126.575 314.973L126.147 316.468L125.72 317.323L124.652 319.245L122.516 321.594L121.876 322.662L121.235 323.09L119.953 323.517L118.458 323.09L117.604 323.517L116.536 324.585L115.468 326.721L113.545 328.429L108.419 333.128L103.72 336.546L102.652 337.614L100.089 341.672V343.381L102.011 344.449L103.079 344.876L103.72 345.73L104.361 347.653L104.788 348.507L105.856 349.362L106.283 350.43L106.924 352.138L107.992 353.206L111.837 354.274L110.982 355.769L110.555 356.197L108.846 356.41L108.633 357.051L108.206 357.905V359.828L107.992 360.896L107.779 361.964L106.711 363.245L106.497 363.886V364.74L107.779 365.808L112.264 367.731L113.332 367.944L113.545 368.158L113.973 369.012L113.545 370.934V371.789L114.186 372.643L115.468 374.138L116.963 374.566L117.39 375.206L117.604 376.274L117.177 377.769L115.681 379.051L114.186 378.41L113.973 377.769L113.332 376.488L112.905 376.274H112.05L111.409 374.566L110.769 373.925L109.914 373.498L107.351 373.07L106.497 372.43L104.147 370.08L103.72 369.653H103.079L102.652 370.721L102.011 370.934L100.73 370.721L99.8755 371.148H98.5939L97.0989 370.507H96.6717L96.2444 371.789L95.39 372.643L94.3221 373.07H93.4678L92.6133 373.284L90.6911 374.993L89.8367 375.633L86.2056 376.488L82.1474 379.905L79.7978 379.478H79.157L78.089 379.265L77.0211 378.197V377.129V376.274L77.2346 373.284L76.8075 373.07L75.3124 373.711L73.8172 374.566L71.4677 373.711L69.3318 372.43L68.6909 372.643L66.3414 377.556L65.2735 380.546L65.0599 381.4L63.7783 383.109L62.2831 383.536H61.6424L59.2929 382.682L58.4385 381.614L57.7977 381.187H56.9433L55.4483 381.4L54.5938 382.041L52.8851 382.682L51.8172 382.896L51.1764 382.468L50.322 381.828L49.8948 380.119L50.1084 378.837L49.4676 376.274L48.8268 374.993L47.3316 373.284V371.789L48.6133 370.507L49.0405 369.653L50.322 367.303L53.3123 359.187L54.1666 357.478L55.021 356.41L55.4483 355.129L57.157 352.779L56.089 351.925L55.8753 351.07L59.0792 350.216L60.7881 348.08L61.4288 347.439V346.798L62.7103 345.303L63.5648 343.808L61.2152 345.517L60.5744 344.022L59.7201 342.954L59.2929 342.527L57.5842 341.886L56.9433 341.459L54.5938 339.109L54.1666 338.468L53.5259 336.973L52.2444 336.332L51.8172 335.692V335.051L53.0987 334.196L53.9531 333.769L56.5162 333.983L58.0113 333.556L59.0792 332.488L54.8074 328.216L54.1666 326.507L50.7492 327.575L44.7686 325.866L44.9822 324.371L43.9142 321.594L43.7006 318.177L43.2734 316.041L43.7006 314.76L45.4094 311.556L47.1181 311.128L47.7588 310.701L48.6133 309.633L51.3899 304.08L52.4579 302.798L55.021 301.73L60.5744 301.303L64.6327 301.73L65.9142 300.876L66.1279 299.594L65.487 298.099L65.2735 297.245L65.487 296.391L65.7007 295.963H66.3414L67.1959 296.391L68.0502 296.177H68.6909L70.8268 293.187L71.4677 292.332L70.3998 289.342L70.1861 287.42L69.5453 284.002L71.254 282.507L72.7492 281.439L73.39 280.798L73.8172 279.73L73.39 278.022L72.7492 277.167L71.4677 276.099L71.254 275.245V273.963L71.0405 271.827V270.973L71.8948 269.264L75.7396 267.555L77.4483 267.983L78.3026 267.769L80.0114 267.128L84.0696 263.924L85.3513 263.711L85.992 263.497L87.2735 262.643L88.5551 262.216L89.6231 266.915L89.8367 268.196L90.4774 270.759V271.614L90.9046 272.895L92.3998 272.255L96.0309 270.973L97.0989 270.759L98.8076 269.905L100.516 270.119L100.944 269.905L100.73 267.769L100.516 266.915V266.488L101.157 266.701L104.788 266.915Z" fill="#009649" stroke="white" stroke-width="2" stroke-linejoin="round" data-country-region="Central Region"></path>
<path class="region" d="M130.627 90.4872L130.199 92.196L129.345 93.0503L128.277 93.9047L127.636 94.7591L126.996 95.3999L126.355 95.6135H125.5L124.432 94.9727L122.724 93.9047L121.656 94.1183L119.093 92.8368L115.889 90.4872L116.102 89.6329L115.889 88.7785L114.18 87.0697L109.908 85.5746L108.626 87.4969L106.918 88.7785L104.355 90.06H103.714L101.578 90.9144H101.151L99.8692 90.06L99.2285 89.8464L95.8109 90.2736L93.2478 90.9144L91.1118 90.7008L89.8303 89.8464H88.7624L87.2672 90.2736L85.772 91.128L84.4905 92.4096L82.9953 92.6232H78.2963L77.2283 92.8368L76.5876 92.6232L76.1603 91.7688L75.5196 89.4193L76.1603 88.5649L77.442 87.9241L77.8692 87.2833L77.442 86.6426L76.5876 86.0018L75.7333 85.5746L74.4516 84.9338L71.8885 82.1571L71.0342 81.9435L68.8983 81.7299L66.5487 80.662L64.6264 79.594H62.704V79.3804L61.6361 76.8173L61.4225 74.4678L61.2088 72.9726L60.9953 71.0503L59.7138 67.4192L59.5001 65.0697L58.8594 63.1473V62.5066L60.9953 62.7202H61.6361L67.8303 60.3706L72.3157 60.157L72.9565 59.9434L74.4516 58.6619L75.0924 59.0891L77.6555 60.157L79.3642 60.3706L80.2187 60.7978L81.5002 61.225L82.9953 58.4483L82.7818 57.1667L83.209 55.8852L84.0633 55.0308L84.4905 53.3221L84.7041 51.6133L85.1313 49.9046L85.772 49.2638L86.84 48.8366L88.3352 49.0502L89.6168 48.4094L91.1118 47.1279L91.7527 46.7007L93.0342 46.2735L94.3157 45.8463L101.791 45.6327L103.714 44.7784L111.83 40.2929H112.898H113.326V40.5065L120.588 40.9337L124.219 39.8657L124.432 40.0793L124.219 41.3609L123.364 42.856L122.937 46.0599L122.083 47.5551L121.229 49.9046L120.374 51.6133L118.452 53.9629H119.733L120.801 53.7493L121.869 53.5357H123.364H124.005L125.5 52.8949L126.568 53.1085L128.918 54.6036L129.345 54.8172L129.559 55.6716L128.918 58.0211L128.704 63.1473L130.413 64.0017L131.267 64.2153L132.976 64.8561L136.18 65.4969L137.248 65.7105L139.811 64.8561L141.52 62.9337L142.374 63.3609L143.015 63.7881L144.297 66.3512L144.083 67.8464L140.665 72.9726L139.811 74.0406L138.102 74.6814L137.889 75.1085L137.462 76.3901L136.607 77.2445L135.753 77.0309L134.898 77.4581L134.258 78.526L133.403 81.3027L133.83 82.1571L133.403 83.4387L132.122 85.5746L131.908 86.429L131.267 86.8561L131.054 87.0697L131.267 88.5649L130.627 90.4872Z" fill="#009649" stroke="white" stroke-width="2" stroke-linejoin="round" data-country-region="North Region"></path>
<path class="region" d="M219.7 127.012L218.205 126.584L214.574 126.371L207.098 122.526L206.243 121.458L205.603 119.963L205.175 118.468V117.4L205.603 116.332V115.477L204.107 115.05L203.68 114.837L202.826 113.769L203.253 113.128L203.894 110.778L203.039 111.206L199.836 113.342L198.981 114.623H197.272L194.496 113.769L187.874 114.41L185.739 114.623L182.962 113.555L181.894 112.701L179.331 108.856L178.049 108.002H176.768L177.408 105.866L177.836 105.225L178.69 105.011L179.758 104.798L180.185 104.584L179.971 103.303V102.235L180.399 100.74L181.039 99.6716L181.894 98.8173L182.107 98.3901L181.894 97.7493L182.107 96.4677L183.603 94.9726L186.593 93.9046L184.457 92.6231L183.816 91.7687L183.175 90.2736L182.748 87.924V82.3706L185.525 80.2347L186.166 80.0211L187.02 79.5939L187.661 78.5259L188.302 76.8172L189.369 74.8949L190.224 73.8269L191.078 73.6133L191.719 73.3997L193.214 72.9725L193.428 72.3317L193.214 71.691L193.001 70.8366L192.146 69.3414L191.719 68.4871V66.9919L192.146 64.0016L194.709 54.3899L196.845 49.9045L197.7 49.2637L198.127 49.0501L198.554 48.4093L198.768 47.7686V45.2055L197.272 43.0695L196.418 40.9336L196.204 39.8656L195.991 37.7297L196.204 35.5938L196.418 34.3122L195.777 31.5355L196.632 30.0404L196.845 28.3316L196.418 24.4869V22.9918L197.059 22.351L198.34 21.2831L199.836 20.4287L201.117 20.2151L203.894 21.9238L206.457 24.2734L209.234 25.3413L212.224 24.0598L214.146 22.5646L216.069 23.6326L218.205 25.3413L220.554 25.7685L225.894 25.3413L227.816 24.0598L228.457 20.6423L231.02 21.0695L234.01 25.9821L236.574 26.6229L242.768 26.4093L245.545 25.5549L246.612 23.2054L248.748 24.0598L249.816 25.3413L250.243 27.2637L249.603 32.1763L250.243 33.0307L251.739 33.2443L253.875 33.885L253.02 36.021L250.884 45.419L250.457 46.487L250.03 47.555L249.389 48.6229L249.603 49.4773L250.243 50.5453L250.671 51.6132L250.884 53.7492L251.311 55.8851L252.379 57.8074L254.943 58.6618L255.797 58.4482L257.078 57.8074L258.146 56.9531L259.428 55.6715H260.496L267.331 57.1667L271.603 58.6618L275.448 61.2249L278.865 65.0696L280.146 66.7783L281.001 67.8463L276.943 73.8269L274.807 76.1764L274.166 77.2444V78.0988L274.593 78.9531L274.38 79.8075L271.176 84.9337V86.0017L268.613 86.2153L267.331 86.6425L266.477 87.4968V88.992L266.263 89.6328L265.836 89.8464L264.981 89.6328H264.554L261.778 94.1182L259.214 96.8949L256.438 99.0309L251.311 101.167L250.671 101.808H245.117L243.622 102.235L242.554 103.303L239.564 107.788L238.923 109.497L238.496 110.351L235.506 113.128L234.224 114.41L234.01 115.264L234.224 118.041L233.583 120.177L230.166 125.089L228.884 126.371L226.748 126.584L221.408 126.157L219.7 127.012Z" fill="#009649" stroke="white" stroke-width="2" stroke-linejoin="round" data-country-region="North Region"></path>
<path class="region" d="M194.283 380.119L190.438 383.109L189.584 385.032L189.37 385.886L188.729 389.517L188.516 392.08L188.729 394.003L189.157 394.643L190.225 395.284L190.438 396.138L190.011 397.634L186.594 402.973L184.885 408.313L184.03 409.595L185.098 411.09V412.372L184.244 413.439L182.962 414.721L184.244 415.362L186.594 417.284L195.564 428.818L195.992 429.459L196.419 430.954L196.846 431.595L197.487 432.236L198.768 433.304L199.196 433.731L202.827 442.488L203.467 443.342L202.613 443.983L201.759 444.197L200.477 443.983L199.623 443.342L198.768 442.488L198.128 440.993L197.914 440.352L196.846 438.003L196.419 436.508L195.992 436.08L193.856 435.012L192.147 433.304L191.72 432.449L191.293 430.954L191.079 430.1L190.011 428.605L189.584 427.323H188.302L186.166 428.177L184.885 428.391L182.108 429.886L179.545 430.741L179.331 432.236L178.904 433.304L178.263 434.158L177.409 434.799L177.196 435.44L175.7 436.08V436.508L173.137 437.575L171.856 439.071L170.574 440.993V441.634L169.506 441.847H165.661L163.739 441.207L162.244 440.779H156.691L155.409 440.352L150.069 437.362L147.72 436.508L143.448 436.08L136.186 432.663L134.263 430.527L131.914 429.459L130.205 429.032L128.283 430.1H127.642L126.788 429.886L125.933 429.245L124.865 428.177L124.438 427.964L123.156 427.75L121.448 427.964L115.04 427.75L114.826 428.818L111.622 426.255L109.914 425.614L109.273 425.828L107.564 425.401L105.855 424.333L104.574 423.265L102.865 422.624L102.224 422.41V421.556L103.72 418.993L103.933 417.071L103.506 416.216L102.865 415.789L101.797 415.362L101.37 414.721V414.08L101.584 413.653V413.012L100.516 410.022L100.302 408.954L99.8749 408.313L98.8069 407.245L97.0982 405.109L96.4573 404.682L94.9623 405.109L92.8263 406.391L91.7584 406.818H89.1952L88.1273 406.605L86.8456 405.537L86.6321 404.896L85.9914 404.469H85.3506L84.9234 404.682L85.3506 405.964L85.1369 406.605L84.7097 406.818L82.5738 406.177L80.0108 405.75L76.8069 403.828L74.2437 403.614L73.8165 400.838L73.603 399.983L73.1758 399.342V397.42L76.166 393.575L83.2147 388.449L84.7097 386.954L85.3506 385.886L85.5641 384.391L85.3506 383.75L86.4186 382.041L86.2049 380.973L85.5641 380.546L82.1467 379.905L86.2049 376.488L89.836 375.634L90.6904 374.993L92.6127 373.284L93.4671 373.07H94.3214L95.3894 372.643L96.2438 371.789L96.671 370.507H97.0982L98.5933 371.148H99.8749L100.729 370.721L102.011 370.935L102.652 370.721L103.079 369.653H103.72L104.147 370.08L106.496 372.43L107.351 373.07L109.914 373.498L110.768 373.925L111.409 374.566L112.05 376.274H112.904L113.331 376.488L113.972 377.769L114.186 378.41L115.681 379.051L117.176 377.769L117.603 376.274L117.39 375.206L116.962 374.566L115.467 374.138L114.186 372.643L113.545 371.789V370.935L113.972 369.012L113.545 368.158L113.331 367.944L112.263 367.731L107.778 365.808L106.496 364.74V363.886L106.71 363.245L107.778 361.964L107.991 360.896L108.205 359.828V357.905L108.632 357.051L108.846 356.41L110.555 356.197L110.982 355.769L111.836 354.274L113.545 352.779L114.826 352.352L115.467 351.925L116.108 351.711L118.457 351.498L119.739 352.138V352.566L119.525 353.42L119.312 354.701L119.525 356.197L120.166 356.837L120.593 356.624L120.807 355.983V355.342L121.234 354.488L122.302 354.061L123.584 353.847L124.224 354.061L124.865 354.488L126.788 356.41L127.001 357.265V358.973V360.255L127.215 360.468L129.351 360.682L129.991 360.468L131.273 359.614L131.914 358.973L133.195 358.119L135.118 357.692L135.972 358.546L139.817 363.672L142.166 365.381L143.234 365.595L144.729 365.381L146.652 365.595L149.428 364.527L150.069 363.672L151.564 361.964H152.205L153.487 362.818L154.127 363.032L154.982 362.604H155.836H156.691L158.613 363.459L159.681 363.032L160.108 362.604L161.176 361.109L162.244 360.041L163.526 359.614L165.234 359.187L166.516 358.76L167.37 358.119L167.797 357.478V356.624L166.729 355.342L168.011 354.488H168.652L169.079 355.556L172.496 356.837L173.992 358.333L174.419 359.4L174.632 361.109L174.846 361.75V363.032L176.768 364.74L177.409 366.876L177.623 368.371L178.904 370.08L178.477 371.789L178.904 372.643L180.186 374.779L180.827 375.42L182.108 376.061H183.603L184.03 376.274L185.312 375.847L187.021 374.138L188.943 372.43L191.293 371.575H193.001L193.856 372.002L194.924 372.857L195.137 373.498L195.351 374.993L195.137 375.634L193.856 377.769L193.642 378.197V379.265L194.283 380.119Z" fill="#009649" stroke="white" stroke-width="2" stroke-linejoin="round" data-country-region="South Region"></path>
<path class="region" d="M140.459 572.353L138.75 573.421L136.614 574.061L134.264 573.848L132.342 573.207V572.353L136.614 572.993L138.323 572.353L140.459 570.217L140.886 571.712L140.459 572.353ZM138.75 571.071L137.468 571.498L136.614 570.43H137.255L138.109 570.217L138.75 571.071ZM59.9342 522.372L60.7886 523.013L62.4973 524.081L63.7788 524.508L65.274 525.576L66.7692 527.285L67.4099 527.712H70.8274L73.177 528.78L73.6042 529.207L74.4585 529.42L74.8857 528.993L75.7401 527.925L76.3809 527.498L79.7983 527.071H80.6527L84.0701 529.207L85.1381 529.634L88.9828 530.275L91.7596 528.993L92.1866 527.925L92.4003 527.285L93.2546 526.217L96.6722 524.935L98.3809 524.508H99.4489L100.303 524.721L100.944 524.294L102.439 524.081L104.575 524.721L105.216 525.789L105.429 527.498L105.643 528.139L106.711 529.207L107.993 529.848L113.973 534.333L116.75 535.187H118.459L121.663 535.401H122.517L123.798 534.974L125.721 533.479L128.711 531.77L129.352 531.556V531.129L128.497 529.634V528.993L128.925 528.353L129.993 527.498L132.769 527.071H133.837L136.187 526.644L137.468 526.003L137.896 525.362L138.109 524.721L139.391 523.653L140.672 523.44L140.886 522.799L142.167 522.372L143.663 521.518H144.09L146.653 519.809L153.488 516.818L157.76 517.032L158.4 517.246L159.468 517.459L160.109 517.673L160.75 517.459L161.818 516.818L163.527 515.323L165.235 514.255H167.585L169.721 513.828L170.575 514.896L171.216 515.751L172.498 516.818L173.138 517.459L173.566 519.595L174.206 522.158L174.42 524.508L174.206 525.789L175.702 528.993L176.342 537.537L177.197 541.168L176.556 542.663L176.983 545.013L178.265 549.712L178.905 551.207L179.546 551.421V552.061L178.905 552.702L177.41 551.634L175.702 551.207H173.779L171.857 551.421L169.935 552.061L166.517 554.411L165.235 555.052L160.109 558.255L159.468 559.11L146.653 567.867L143.876 570.43H142.595L141.313 569.79L139.604 569.576L134.264 569.362L132.769 568.935L132.129 570.003H131.061L129.352 568.935L129.993 570.217L130.42 570.858V571.712L128.497 568.935L125.507 566.372L119.527 562.955L115.896 562.314L113.332 561.032H110.342L103.507 562.1L97.5265 559.964L94.9635 561.032L91.1187 561.459L87.4877 560.178L87.274 560.391L82.7886 557.828L79.1575 557.188L75.3129 557.401L74.0313 557.828L72.9633 558.683L70.1866 561.459H65.0605L63.9925 561.887L61.6429 563.168L60.5749 563.809H59.2934L57.371 564.236L55.4488 565.945L53.7399 565.304L52.2449 566.799L51.604 567.44L50.7497 567.654L49.041 569.149L48.1866 569.576L46.9051 569.149L45.8371 568.081L44.9827 567.44L43.7012 568.081L44.3419 565.09L44.7691 563.595L48.4001 557.615L50.9633 552.275L50.109 549.071L51.604 547.576L53.5264 545.654L54.8079 540.741L53.5264 537.323L54.8079 534.547L57.1575 531.984L57.5847 529.207L59.0798 525.789L59.9342 522.372Z" fill="#009649" stroke="white" stroke-width="2" stroke-linejoin="round" data-country-region="South Region"></path>
<path class="region" d="M57.5795 410.876L57.1523 411.944L56.2979 411.304L56.5116 410.449H57.1523L57.5795 410.876ZM82.1427 379.905L85.5602 380.546L86.2009 380.973L86.4146 382.041L85.3466 383.75L85.5602 384.391L85.3466 385.886L84.7057 386.954L83.2107 388.449L76.162 393.575L73.1718 397.42V399.342L73.599 399.983L73.8125 400.837L74.2398 403.614L76.8029 403.828L80.0068 405.75L82.5698 406.177L84.7057 406.818L85.1329 406.604L85.3466 405.964L84.9194 404.682L85.3466 404.469H85.9874L86.6281 404.896L86.8417 405.537L88.1233 406.604L89.1913 406.818H91.7544L92.8224 406.391L94.9583 405.109L96.4533 404.682L97.0942 405.109L98.8029 407.245L99.8709 408.313L100.298 408.954L100.512 410.022L101.58 413.012V413.653L101.366 414.08V414.721L101.793 415.362L102.861 415.789L103.502 416.216L103.929 417.071L103.716 418.993L102.22 421.556V422.41L102.861 422.624L104.57 423.265L105.851 424.333L107.56 425.401L109.269 425.828L109.91 425.614L111.619 426.255L114.822 428.818L116.745 433.304L117.386 436.08V437.789L116.958 439.071L113.968 439.925L112.473 440.566L109.483 441.42L108.842 441.634L108.628 442.915L107.987 443.77L104.997 443.556L104.356 444.197L103.929 444.838V445.692L103.288 447.614L102.861 447.828L102.007 447.614L101.58 447.187L100.725 446.76L100.084 446.974L99.4437 447.401L99.0165 447.614L98.8029 448.255L98.5893 449.75L98.1622 450.818L97.735 451.459L97.3078 451.673L96.2398 451.245H95.8126L95.1718 452.1L94.3174 454.876L94.5311 456.158L94.9583 457.226L96.667 458.508L97.9485 460.003L99.0165 460.643L100.084 460.857H101.152L102.22 461.711L102.861 462.779L103.502 465.129L103.716 468.333L103.075 473.032L102.007 476.022L101.793 476.663L100.512 479.653L98.1622 478.372L97.735 478.158H95.3854L91.7544 477.517L84.065 479.012L82.7835 479.653L81.929 480.508L81.2883 482.003L79.7931 483.498L79.3659 484.352L78.5116 486.702L78.2979 488.411L77.8709 489.051L76.3757 489.692L75.5213 489.479L74.0261 488.838L72.7446 487.983H72.1038L71.4631 488.197L70.8222 489.265H70.3951L69.9679 488.838L69.1135 487.343L66.9775 484.566L66.1233 483.284L64.6281 482.644L63.3464 483.284L62.7057 483.711H62.0649L61.6377 483.284L61.2105 482.644L60.3562 481.789L60.7834 479.867L60.5698 476.236L60.1426 473.673L58.6475 470.896L55.8707 470.469L52.4533 468.333L52.8805 467.265L54.162 466.624L54.8027 465.983L59.0746 456.372L60.7834 448.682L62.7057 442.915L62.2785 437.148L61.6377 430.313L60.997 424.333L58.6475 420.061L56.5116 417.711L53.9484 414.507L50.7445 411.944L48.3949 411.09L49.6766 409.595L51.5988 410.449L54.8027 413.226L58.6475 414.507L60.5698 415.575V417.071L64.2009 416.857L72.7446 419.206L77.0164 417.925L74.4533 417.711L72.1038 417.284L65.9096 414.294L65.2688 413.226L64.6281 411.731V410.236V408.954L65.0553 407.886L65.9096 407.459V406.604L64.6281 406.177L63.7737 404.896L63.5601 403.401L64.2009 402.119L62.7057 401.905L61.2105 405.323L59.5018 405.964V406.604L61.2105 406.818L62.2785 408.313V410.236L61.4242 411.09L59.5018 410.876L57.7931 410.449L54.8027 408.74L51.5988 407.672L47.327 408.527L43.4823 412.799L44.1231 413.439L39.4241 415.362L31.094 416.43L29.3853 417.071L28.1036 418.138L26.3949 418.566L24.259 417.925H23.8318L23.6182 417.284V416.43L23.8318 415.789L24.8997 414.507L27.4629 411.944L27.8901 408.527V403.401L25.7542 398.488L23.191 394.216L22.123 391.012L23.6182 390.158L27.4629 389.731L31.094 389.303L33.0164 390.371L33.8707 391.653H34.2979L33.8707 389.517L35.1523 388.876L37.7153 388.022H38.9969V387.168L40.2784 385.672L41.7736 384.391L44.1231 382.468L47.1134 379.905L47.9679 379.051H48.3949L49.2494 378.624L50.1038 378.837L49.8901 380.119L50.3173 381.828L51.1718 382.468L51.8125 382.896L52.8805 382.682L54.5892 382.041L55.4436 381.401L56.9387 381.187H57.7931L58.4338 381.614L59.2883 382.682L61.6377 383.536H62.2785L63.7737 383.109L65.0553 381.401L65.2688 380.546L66.3368 377.556L68.6863 372.643L69.3271 372.43L71.4631 373.711L73.8125 374.566L75.3077 373.711L76.8029 373.07L77.23 373.284L77.0164 376.274V377.129V378.197L78.0844 379.265L79.1524 379.478H79.7931L82.1427 379.905Z" fill="#009649" stroke="white" stroke-width="2" stroke-linejoin="round" data-country-region="South Region"></path>
<path class="region" d="M166.298 279.944L166.939 281.439L169.715 289.128L171.21 290.624L173.774 294.041L175.055 295.323L178.045 296.818L178.686 297.886L179.541 300.235L180.822 301.303L182.744 302.158L186.162 303.226L186.803 304.293V306.643L186.376 309.206L185.735 310.701L185.308 312.196V314.76L185.735 317.109L186.376 318.391L187.871 319.672L192.143 324.798L191.075 326.721L190.861 329.07L191.502 331.206L192.783 333.129L194.919 334.196L197.269 334.837L199.191 335.692L200.259 337.828L200.045 338.896L199.191 341.031V342.099L200.045 342.954L201.327 343.595L202.609 343.808L203.677 343.381L205.812 342.099L207.948 341.886L210.298 342.527L212.22 343.808L213.502 345.09L214.783 347.226L215.211 349.362L214.57 351.07L215.638 351.925L215.851 352.993L215.211 354.061L214.57 355.129L211.579 360.682L209.657 363.459L207.948 364.954L209.016 367.09L208.589 368.799L208.803 370.294L207.948 370.721L207.094 371.575L206.026 372.643L204.531 373.284L200.686 374.138L199.832 374.993L199.405 375.847L198.123 377.342L196.842 378.41L195.56 379.051L194.279 380.119L193.638 379.265V378.197L193.851 377.769L195.133 375.634L195.346 374.993L195.133 373.498L194.919 372.857L193.851 372.002L192.997 371.575H191.288L188.939 372.43L187.016 374.138L185.308 375.847L184.026 376.274L183.599 376.061H182.104L180.822 375.42L180.181 374.779L178.9 372.643L178.473 371.789L178.9 370.08L177.618 368.371L177.405 366.876L176.764 364.74L174.841 363.032V361.75L174.628 361.109L174.414 359.4L173.987 358.332L172.492 356.837L169.074 355.556L168.647 354.488H168.006L166.725 355.342L167.793 356.624V357.478L167.366 358.119L166.511 358.76L165.23 359.187L163.521 359.614L162.24 360.041L161.172 361.109L160.104 362.604L159.676 363.032L158.608 363.459L156.686 362.604H155.832H154.977L154.123 363.032L153.482 362.818L152.201 361.964H151.56L150.065 363.672L149.424 364.527L146.647 365.595L144.725 365.381L143.23 365.595L142.162 365.381L139.812 363.672L135.968 358.546L135.113 357.692L133.191 358.119L131.909 358.973L131.269 359.614L129.987 360.468L129.346 360.682L127.21 360.468L126.997 360.255V358.973V357.265L126.783 356.41L124.861 354.488L124.22 354.061L123.579 353.847L122.298 354.061L121.23 354.488L120.803 355.342V355.983L120.589 356.624L120.162 356.837L119.521 356.197L119.307 354.701L119.521 353.42L119.735 352.565V352.138L118.453 351.498L116.103 351.711L115.463 351.925L114.822 352.352L113.54 352.779L111.832 354.274L107.987 353.206L106.919 352.138L106.278 350.43L105.851 349.362L104.783 348.507L104.356 347.653L103.715 345.731L103.074 344.876L102.006 344.449L100.084 343.381V341.672L102.647 337.614L103.715 336.546L108.414 333.129L113.54 328.429L115.463 326.721L116.531 324.585L117.599 323.517L118.453 323.09L119.948 323.517L121.23 323.09L121.87 322.662L122.511 321.595L124.647 319.245L125.715 317.323L126.142 316.468L126.57 314.973L126.997 314.332L131.055 311.556L132.764 308.993V308.352L132.337 307.497L131.055 306.429L127.638 303.012L129.346 298.099L131.269 295.536L132.764 294.041L133.832 293.614L135.54 294.041L138.958 295.963L140.239 297.245L141.094 296.818L142.803 294.682L143.23 294.255L145.152 293.187L146.434 291.905L147.502 290.196L148.997 288.701L150.492 288.06L151.133 287.206L151.987 285.497L153.055 283.789L154.337 282.721L156.259 282.934L157.754 283.575L159.249 283.789L161.172 282.293L162.24 281.225L163.735 280.158L165.443 279.73L166.298 279.944Z" fill="#009649" stroke="white" stroke-width="2" stroke-linejoin="round" data-country-region="Central Region"></path>
<path class="region" d="M117.814 253.031L116.105 256.235L115.251 257.09L114.396 257.517L112.901 258.158L112.261 259.012L111.62 259.866L110.979 260.507L110.125 260.293L106.493 261.361L105.426 262.643V263.711L104.998 264.138L104.358 265.206V265.847L104.785 266.915L101.154 266.701L100.513 266.488V266.915L100.726 267.769L100.94 269.905L100.513 270.119L98.8042 269.905L97.0955 270.76L96.0275 270.973L92.3964 272.255L90.9012 272.895L90.474 271.614V270.76L89.8333 268.196L89.6197 266.915L88.5518 262.216L87.2701 262.643L85.9886 263.497L85.3479 263.711L84.0662 263.925L80.008 267.128L78.2992 267.769L77.4449 267.983L75.7362 267.556L71.8914 269.264L71.0371 270.973V271.827L71.2507 273.963V275.245L71.4643 276.099L72.7458 277.167L73.3866 278.022L73.8138 279.73L73.3866 280.798L72.7458 281.439L71.2507 282.507L69.5419 284.002L70.1827 287.42L70.3964 289.342L71.4643 292.332L70.8234 293.187L68.6875 296.177H68.0468L67.1925 296.391L66.338 295.963H65.6973L65.4836 296.391L65.2701 297.245L65.4836 298.099L66.1245 299.595L65.9108 300.876L64.6293 301.73L60.571 301.303L55.0176 301.73L52.4545 302.798L51.3865 304.08L48.6099 309.633L47.7554 310.701L47.1147 311.129L45.406 311.556L43.6972 314.76L43.27 316.041L43.6972 318.177L43.9108 321.595L41.5613 321.167L40.0661 320.313L38.7845 320.099L37.7165 320.313L36.435 321.167L34.5127 323.303L32.5904 326.721L30.8817 328.857L29.1728 330.138L27.6778 328.857L25.7554 322.235L25.1146 320.954L24.4739 320.099L23.833 319.672L23.4059 319.886L22.338 319.672L21.6971 320.099L18.0661 322.235H14.8622L14.0078 322.449L13.367 319.886L12.5126 317.536L9.30872 314.332L8.66797 313.265L9.73593 313.051L13.5806 314.119L19.7748 309.847L21.27 308.565L22.9787 308.352L24.0467 309.633L25.1146 309.847L25.9689 308.779L25.3282 307.498L24.0467 306.002L25.3282 303.866L27.2506 301.517L27.8913 300.449L31.9496 297.672L33.2311 295.75L34.0856 294.041L35.7943 290.837L36.0078 288.915L35.7943 286.779L36.8623 283.789L37.503 279.73L44.1243 261.575L51.8138 238.934L54.5904 240.216L55.2312 240.643L56.5128 241.284L59.2895 241.924L60.1438 241.711L60.9982 241.07L63.1341 240.002L67.406 240.429L69.1147 240.643L71.0371 241.07L71.8914 241.711L73.3866 242.992L74.241 244.274L75.0953 244.701L75.9497 244.488L76.5905 244.06L77.8721 241.924L79.1536 241.07H80.2216L80.8623 241.284L81.5031 241.924L81.9303 244.488L82.144 245.556V247.264L82.3575 248.119L82.9983 249.187L83.639 248.546L85.1342 246.624L87.4838 245.342L90.2605 242.992H91.9692V242.565H92.8236L93.4644 242.992L94.5323 245.556L95.3866 247.692L95.8138 248.973L95.6003 250.041L95.1731 250.682L94.1051 251.536L95.3866 251.75L98.8042 250.468L101.794 247.051L102.649 246.837L104.144 247.478H104.785L105.212 246.837L105.426 245.983L105.212 245.342L103.717 243.847L103.503 242.565L104.998 240.429L108.629 237.225L110.979 238.08L113.756 234.662L115.251 235.73L116.105 237.225L115.464 240.429L115.892 242.352L119.309 248.119L118.455 248.759L118.028 249.4L117.6 250.468L118.028 251.536L117.814 253.031Z" fill="#009649" stroke="white" stroke-width="2" stroke-linejoin="round" data-country-region="Central Region"></path>
<path class="region" d="M113.329 40.2929H112.902H111.834L103.717 44.7783L101.795 45.6327L94.319 45.8463L93.0375 46.2735L91.756 46.7007L91.1151 47.1278L89.62 48.4094L88.3384 49.0502L86.8432 48.8366L85.7753 49.2638L85.1345 49.9046L84.7073 51.6133L84.4938 53.322L84.0665 55.0308L83.2122 55.8852L82.785 57.1667L82.9986 58.4483L81.5034 61.225L80.2219 60.7978L79.3675 60.3706L77.6588 60.157L75.0956 59.089L74.4549 58.6619L72.9597 59.9434L72.3189 60.157L67.8335 60.3706L61.6393 62.7201H60.9985L58.8626 62.5065V61.0114L58.0082 58.8755V56.3123L58.2219 55.0308L60.1441 54.39L65.2704 53.322L66.7656 52.6813L68.2607 51.6133L69.3287 50.5453L59.9306 53.322L58.0082 53.7492L56.9402 53.5356L55.2315 52.4677L53.7363 48.8366V45.6327L54.3772 40.5065L53.7363 37.3026L54.1635 36.021L54.8043 34.9531L60.785 29.8268L63.7752 26.6229L64.6296 22.3511L65.6976 21.7103L67.6199 20.6423L69.7558 20.0016L71.4646 18.9336L72.1054 17.652L72.9597 15.3025L73.8141 14.021L75.3093 12.953L76.8045 12.7394L79.7947 12.5258L81.2899 11.885L84.2802 9.96269L85.9889 9.32191L99.018 7.18598L100.513 6.33161L102.649 4.40928L103.504 3.98209L104.144 3.7685H105.426L107.135 3.12772L109.698 1.20538L110.338 2.27335L111.193 3.98209L110.979 8.89473L111.193 10.8171L112.261 11.6714L113.542 11.2442L115.038 10.6035L116.746 10.3899L118.455 11.2442L119.737 12.5258L120.377 14.021L120.164 16.1569L119.309 17.652L118.028 18.72L115.465 20.2151L113.115 22.7783L109.698 27.6909L108.843 29.6132V31.7492L109.698 33.8851L112.902 35.1666L113.542 36.021V37.5162L113.329 40.2929Z" fill="#009649" stroke="white" stroke-width="2" stroke-linejoin="round" data-country-region="North Region"></path>
<path class="region" d="M218.412 215.866L217.344 216.08L213.713 218.429L212.218 219.07L211.364 220.138L210.509 222.701L209.868 223.983L210.509 225.692L211.15 229.536L212.218 231.031L213.286 231.245L215.422 231.672L216.276 231.886L217.344 232.74L218.412 234.662L220.334 237.012L223.752 243.206L222.257 245.769L221.83 246.837L222.043 248.119L221.616 248.973L221.189 251.75L220.975 252.177L220.121 252.818L219.907 253.245V253.886L220.121 255.167L219.907 256.662V258.585L219.694 259.653L217.558 262.857L216.703 263.284L214.781 264.138L214.14 264.565L213.5 266.061V267.342L213.927 268.41L214.14 269.264L213.713 270.332L212.859 272.041L212.432 273.109V274.177L212.645 275.031V275.672L211.791 278.235L210.509 278.663L197.907 280.158H195.344L193.422 278.876L191.927 279.517L188.723 279.303L187.014 279.731L185.732 280.158L184.451 280.585L166.082 279.731L166.295 279.944L165.441 279.731L163.732 280.158L162.237 281.226L161.169 282.294L159.247 283.789L157.752 283.575L156.257 282.934L154.334 282.721L153.053 283.789L151.985 285.498L151.13 287.206L150.49 288.061L148.994 288.701L147.499 290.197L146.431 291.905L145.15 293.187L144.295 292.119L143.655 290.197L143.441 289.342L141.519 286.565L139.81 284.643L138.315 283.575L137.033 282.507L135.324 281.866H134.257L133.402 281.439L132.761 281.226L132.548 280.371V278.663V276.954L132.334 275.245L131.907 273.75L131.48 273.323H129.344L126.781 272.255L124.859 272.682L124.431 273.536L123.577 279.09L122.936 280.158L122.509 281.653V282.721L123.15 284.643L123.363 285.925L121.441 286.565L118.451 286.779H116.742L114.606 285.284L109.693 283.362L109.053 281.866L108.625 278.022V275.886L109.266 274.818L109.053 272.896V271.828L108.839 270.546L108.198 269.905L107.344 269.478L106.062 269.264L105.208 268.624L104.781 266.915L104.354 265.847V265.206L104.994 264.138L105.421 263.711V262.643L106.489 261.362L110.121 260.294L110.975 260.507L111.616 259.866L112.256 259.012L112.897 258.158L114.392 257.517L115.247 257.09L116.101 256.235L117.81 253.031L119.091 251.536L119.305 250.895L120.373 250.255L121.441 250.041L122.509 248.973L124.431 248.546H125.713L126.14 248.119L126.354 247.051L128.062 246.624L128.489 246.196L129.557 245.769H130.198L131.053 246.196L131.48 245.983L132.548 244.274L133.189 243.847H133.829L135.538 243.633L136.392 243.206V242.565L136.179 241.07L136.392 240.216L137.46 238.934L139.383 238.08L140.664 237.866H141.732L143.227 238.293L144.936 239.789L145.15 237.439L144.936 235.73L145.363 235.09L145.791 234.662L146.218 234.876L146.645 235.517L147.286 235.73H148.14L149.849 234.449L150.49 233.808L150.917 233.167V232.526V231.031L150.49 229.963L148.14 228.255L146.645 226.546L145.791 225.905L145.363 225.051L144.936 223.769L145.15 222.701L147.072 218.429L148.567 217.789L150.062 217.575L151.13 217.148L154.334 214.585L156.684 213.73L158.82 212.235L160.742 210.313L162.451 207.963L164.373 208.604L167.363 208.177L168.218 207.323L168.645 206.682L169.286 205.187L169.499 204.332L170.567 202.41L175.053 198.138L178.257 200.915L180.179 201.556H181.247L184.024 200.701L185.732 198.565L187.441 198.352L188.723 198.138H189.363L190.431 198.565L189.791 205.187L188.723 208.177L187.228 209.886L186.373 210.954L186.16 211.808L186.373 212.449L187.228 213.09L188.509 213.73L192.567 214.585L196.412 213.09H200.47L201.538 212.662L202.179 212.022L202.393 211.167L202.606 210.313L203.247 209.458L204.101 208.604L204.742 208.818L205.169 209.458L206.237 211.594L207.092 212.449L209.014 212.662H210.936L212.432 212.235L213.713 212.449L215.849 213.517L217.131 214.371L218.412 215.866Z" fill="#009649" stroke="white" stroke-width="2" stroke-linejoin="round" data-country-region="Central Region"></path>
<path class="region" d="M203.468 443.343L204.749 444.411H206.031L208.167 443.983L210.303 443.129L211.371 441.634L212.011 441.847L214.147 440.993L216.497 440.779L217.992 441.847L217.138 445.051L216.497 446.546L215.215 450.178L213.72 453.381L212.866 456.799L212.225 458.08L211.371 460.644L209.235 461.071L204.536 458.935H203.041L202.186 459.576L201.545 461.925L200.477 462.993L199.837 463.42L198.769 463.847L197.701 464.275H196.633L195.565 463.847H194.497L193.642 464.488L190.866 464.915L190.225 465.556L190.439 466.411L190.652 467.479V468.547L190.225 470.469L188.303 475.595L187.448 479.226L185.099 483.498L177.196 490.119L175.701 492.255L174.633 495.459L173.778 500.585L173.351 502.294L172.924 503.149L170.574 505.498L169.72 506.139L169.934 506.78L169.72 508.275L168.438 509.77V510.838L169.079 511.051L169.506 512.333L169.72 513.828L167.584 514.255H165.235L163.526 515.323L161.817 516.818L160.749 517.459L160.108 517.673L159.468 517.459L158.4 517.246L157.759 517.032L153.487 516.818L146.652 519.809L144.089 521.518H143.662L142.167 522.372L140.885 522.799L140.671 523.44L139.39 523.653L138.108 524.721L137.895 525.362L137.468 526.003L136.186 526.644L133.836 527.071H132.768L129.992 527.498L128.924 528.353L128.497 528.993V529.634L129.351 531.129V531.556L128.71 531.77L125.72 533.479L123.798 534.974L122.516 535.401H121.662L118.458 535.187H116.749L113.972 534.333L107.992 529.848L106.71 529.207L105.642 528.139L105.429 527.498L105.215 525.789L104.574 524.721L102.438 524.081L100.943 524.294L100.302 524.721L99.448 524.508H98.38L96.6713 524.935L93.2538 526.217L92.3995 527.285L92.1858 527.925L91.7587 528.993L88.9819 530.275L85.1373 529.634L84.0693 529.207L80.6519 527.071H79.7974L76.38 527.498L75.7392 527.925L74.8848 528.993L74.4576 529.42L73.6033 529.207L73.1761 528.78L70.8265 527.712H67.4091L66.7683 527.285L65.2731 525.576L63.778 524.508L62.4965 524.081L60.7877 523.013L59.9333 522.372L60.7877 518.1L61.0013 513.187L60.3605 510.624L59.5061 508.916L58.4382 507.634L58.2246 506.139L59.5061 501.44L59.7198 498.45L60.5741 495.673L61.642 495.246L64.2052 494.818L64.6324 492.255L63.778 492.469L61.8557 492.896L59.7198 493.11L59.0789 491.187L59.7198 485.634L60.3605 481.789L61.2148 482.644L61.642 483.284L62.0693 483.712H62.71L63.3508 483.284L64.6324 482.644L66.1276 483.284L66.9819 484.566L69.1178 487.343L69.9722 488.838L70.3994 489.265H70.8265L71.4674 488.197L72.1081 487.983H72.7489L74.0304 488.838L75.5256 489.479L76.38 489.692L77.8752 489.051L78.3023 488.411L78.5159 486.702L79.3702 484.352L79.7974 483.498L81.2926 482.003L81.9334 480.508L82.7878 479.653L84.0693 479.013L91.7587 477.517L95.3897 478.158H97.7393L98.1665 478.372L100.516 479.653L101.797 476.663L102.011 476.022L103.079 473.032L103.72 468.333L103.506 465.129L102.865 462.78L102.225 461.712L101.157 460.857H100.089L99.0208 460.644L97.9528 460.003L96.6713 458.508L94.9626 457.226L94.5354 456.158L94.3217 454.877L95.1761 452.1L95.8169 451.245H96.2441L97.3121 451.673L97.7393 451.459L98.1665 450.818L98.5936 449.75L98.8073 448.255L99.0208 447.614L99.448 447.401L100.089 446.974L100.73 446.76L101.584 447.187L102.011 447.614L102.865 447.828L103.293 447.614L103.933 445.692V444.838L104.361 444.197L105.001 443.556L107.992 443.77L108.632 442.915L108.846 441.634L109.487 441.42L112.477 440.566L113.972 439.925L116.963 439.071L117.39 437.789V436.08L116.749 433.304L114.827 428.818L115.04 427.75L121.448 427.964L123.157 427.75L124.438 427.964L124.866 428.177L125.934 429.245L126.788 429.886L127.642 430.1H128.283L130.205 429.032L131.914 429.459L134.264 430.527L136.186 432.663L143.448 436.08L147.72 436.508L150.07 437.362L155.409 440.352L156.691 440.779H162.244L163.739 441.207L165.662 441.847H169.506L170.574 441.634V440.993L171.856 439.071L173.138 437.576L175.701 436.508V436.08L177.196 435.44L177.409 434.799L178.264 434.158L178.905 433.304L179.332 432.236L179.545 430.741L182.108 429.886L184.885 428.391L186.167 428.177L188.303 427.323H189.584L190.011 428.605L191.079 430.1L191.293 430.954L191.72 432.449L192.147 433.304L193.856 435.012L195.992 436.08L196.419 436.508L196.846 438.003L197.914 440.352L198.128 440.993L198.769 442.488L199.623 443.343L200.477 443.983L201.759 444.197L202.613 443.983L203.468 443.343Z" fill="#009649" stroke="white" stroke-width="2" stroke-linejoin="round" data-country-region="South Region"></path>
<path class="region" d="M98.8078 202.837L97.9534 203.691V204.546L97.0991 205.827H95.1767L94.5359 206.041L93.8952 206.895L93.468 207.75L91.5456 210.099L91.1184 211.167L89.6233 212.449L84.7106 212.022L84.0698 211.167V210.526V209.458L84.2835 208.391L84.9243 206.682L85.3515 206.041L86.4194 204.973L86.633 204.759L87.0602 203.051V202.41V201.556L85.9922 199.633L85.565 197.497H84.7106L83.2155 198.138L81.9339 198.992L81.0796 199.42L80.4387 199.206L79.798 198.352L79.5844 196.429V195.361L80.0116 192.585L76.8077 190.235L74.8854 193.225L74.6718 194.934L74.0309 196.216L71.0407 195.789L61.6426 186.177V185.963L61.8562 184.468L63.3513 179.342L64.4193 172.721L65.2737 172.08V174.429V175.284L66.9824 172.293L68.0504 171.225L69.332 172.08H69.7591V171.439L69.332 170.371L69.1183 169.73L69.332 169.089L70.1863 168.662L70.6135 168.876L71.0407 169.517L71.4679 169.73L72.3222 169.517L72.963 168.662L74.0309 166.74L72.5359 165.886L71.895 164.604L72.1087 163.322L73.6039 162.895L75.7398 162.682L77.2348 162.041L78.5165 161.186L79.798 159.905H78.3028L76.1669 160.973L73.6039 161.614L71.6815 160.759L71.0407 159.905L70.4 156.701L73.6039 152.216L72.7494 149.866V151.575L72.1087 153.284L71.4679 153.711L71.0407 152.216L69.9728 154.352L68.9048 157.342L68.4776 160.546L68.264 163.322L67.8368 165.031L66.9824 167.594L65.7009 170.157L64.6329 171.439L72.7494 132.992V130.429L73.6039 130.216L77.4485 129.788L78.73 130.643L81.5067 129.788L82.7883 128.72H83.8563L84.497 129.148L85.3515 129.788L86.4194 130.429H87.2737L87.9145 130.002L88.5554 128.507L88.9824 127.866L90.4776 126.157L92.1863 127.866L93.2543 129.788L94.7495 131.07H95.3902L95.6039 130.643V129.788L95.1767 129.148V127.866L97.3126 126.798L99.0213 127.439L103.293 124.449L103.507 124.235L103.934 122.953L109.06 126.371L109.487 128.08V128.934V131.283L115.895 134.487H116.75L118.031 134.274L118.672 132.779L119.099 132.138L120.167 131.283H120.808L121.021 131.711V132.565V133.206L118.245 137.05L117.817 138.332L117.604 139.614V140.254L118.031 141.75L118.458 144.74L119.099 146.876V148.157L118.672 148.798L118.031 149.012H117.177L115.895 148.157L115.041 147.944H114.186L112.691 148.585L111.623 148.798H110.555L109.915 148.371L107.352 148.585L108.206 152.216V152.856L107.352 154.138L105.643 157.769L103.72 159.905L101.584 161.614L100.944 163.109V163.963V164.818L101.371 165.458L102.652 166.74L103.08 167.594L103.293 168.449L103.507 171.653L103.934 173.148L104.361 173.361L105.856 174.002L107.352 175.284L103.934 176.565L103.293 177.206L102.866 178.06V178.701L103.934 181.264L104.361 183.187L104.788 184.041L106.07 185.109L106.924 186.818L102.225 188.74L100.303 190.235V190.876V191.73L101.157 193.225V194.721L100.73 195.575L98.3806 199.42L98.8078 202.837Z" fill="#009649" stroke="white" stroke-width="2" stroke-linejoin="round" data-country-region="North Region"></path>
<path class="region" d="M195.774 31.5354L196.415 34.3121L196.201 35.5936L195.987 37.7296L196.201 39.8655L196.415 40.9335L197.269 43.0694L198.764 45.2053V47.7684L198.55 48.4092L198.123 49.05L197.696 49.2636L196.842 49.9044L194.706 54.3898L192.143 64.0015L191.715 66.9918V68.4869L192.143 69.3413L192.997 70.8365L193.211 71.6908L193.424 72.3316L193.211 72.9724L191.715 73.3996L191.075 73.6132L190.22 73.8268L189.366 74.8947L188.298 76.8171L187.657 78.5258L187.016 79.5938L186.162 80.021L185.521 80.2345L182.745 82.3705V87.9239L183.172 90.2734L183.812 91.7686L184.453 92.6229L186.589 93.9045L183.599 94.9725L182.104 96.4676L181.89 97.7492L182.104 98.3899L181.89 98.8171L181.036 99.6715L180.395 100.739L179.968 102.235V103.303L180.181 104.584L179.754 104.798L178.686 105.011L177.832 105.225L177.405 105.866L176.764 108.002L166.725 111.846L162.88 112.273L159.249 111.846L157.541 112.06L156.259 112.701L153.909 114.409L152.414 114.837L150.706 115.264L149.21 115.05L147.715 114.623L146.647 113.769L144.725 111.846L143.443 111.419L141.735 111.633L137.249 114.409L137.676 111.846L137.89 109.07L139.172 104.584L137.676 103.516L136.181 100.953L135.754 99.2443L136.181 97.7492L133.832 96.0404L132.55 95.186L132.123 94.3317L131.909 93.2637V92.4093L130.628 90.487L131.269 88.5647L131.055 87.0695L131.269 86.8559L131.909 86.4287L132.123 85.5744L133.405 83.4384L133.832 82.1569L133.405 81.3025L134.259 78.5258L134.9 77.4578L135.754 77.0307L136.609 77.2442L137.463 76.3899L137.89 75.1083L138.104 74.6811L139.812 74.0404L140.667 72.9724L144.084 67.8462L144.298 66.351L143.016 63.7879L142.375 63.3607L141.521 62.9335L139.812 64.8559L137.249 65.7102L136.181 65.4966L132.977 64.8559L131.269 64.2151L130.414 64.0015L128.706 63.1471L128.919 58.0209L129.56 55.6714L129.346 54.817L128.919 54.6034L126.57 53.1083L125.502 52.8947L124.006 53.5354H123.366H121.871L120.803 53.749L119.735 53.9626H118.453L120.375 51.6131L121.23 49.9044L122.084 47.5548L122.939 46.0597L123.366 42.8558L124.22 41.3606L124.434 40.0791L124.22 39.8655H124.434L127.21 36.8752L128.065 35.5936L129.133 34.3121L130.201 33.8849L131.696 34.0985H133.191L134.045 32.6033L134.473 30.681L134.9 29.3994L136.395 28.7587L136.822 31.749L137.249 34.9529H140.026L140.667 34.3121L141.307 33.0305L142.162 32.8169H144.511L149.638 31.5354L152.201 30.2538L153.482 30.681L155.832 32.3897L157.327 33.0305L161.812 33.2441L160.531 36.8752V37.9432L162.026 38.7975H163.521L165.23 38.5839L166.939 37.9432L168.22 37.0888L168.861 36.2344L169.075 34.7393L169.715 34.3121H170.356L171.638 35.1665H172.492L173.56 35.5936L174.628 37.0888L175.482 39.2247L175.91 40.9335L176.977 40.0791L179.113 37.7296L180.181 36.8752L181.463 36.6616H184.667L186.162 36.448L192.143 34.3121L194.919 32.6033L195.774 31.5354Z" fill="#009649" stroke="white" stroke-width="2" stroke-linejoin="round" data-country-region="North Region"></path>
<path class="region" d="M219.7 127.012L219.272 129.147L218.418 130.643L218.632 131.924L219.486 133.206L222.049 136.196L223.331 138.118L225.039 142.604L225.894 145.167L226.535 146.021L227.816 146.449L228.67 147.089L229.098 148.584L228.884 149.866L227.389 150.293L227.175 153.283L227.603 155.206L227.389 156.274L227.175 157.555V159.691L227.389 161.186L228.457 164.817L229.098 168.662L229.311 170.585V172.08L228.67 174.002L226.748 177.633L226.321 179.342V181.264L227.175 182.332L228.03 183.4L228.884 184.895L229.525 186.818L229.311 188.313L227.175 191.089L225.68 194.934L226.107 198.565L228.03 201.769L231.02 204.546L229.525 207.322L228.67 207.963L225.039 210.74L224.612 211.381L224.185 212.235V214.157L223.971 214.798L222.263 215.866H220.768H219.059H218.418L217.136 214.371L215.855 213.517L213.719 212.449L212.437 212.235L210.942 212.662H209.02L207.098 212.449L206.243 211.594L205.175 209.458L204.748 208.818L204.107 208.604L203.253 209.458L202.612 210.313L202.399 211.167L202.185 212.022L201.544 212.662L200.476 213.089H196.418L192.573 214.585L188.515 213.73L187.233 213.089L186.379 212.449L186.165 211.808L186.379 210.954L187.233 209.886L188.729 208.177L189.797 205.187L190.437 198.565L189.369 198.138H188.729L187.447 198.352L185.738 198.565L184.03 200.701L181.253 201.555H180.185L178.263 200.915L175.059 198.138L170.573 202.41L169.505 204.332L169.292 205.187L168.651 206.682L168.224 207.322L167.369 208.177L164.379 208.604L162.457 207.963L160.748 210.313L158.826 212.235L156.69 213.73L154.34 214.585L151.136 217.148L150.068 217.575L148.573 217.789L147.078 218.429L145.796 216.507L143.447 215.225L144.301 212.876L144.729 211.167L145.369 210.099L146.224 209.245L148.146 207.75L148.36 207.109L147.932 206.468L146.864 205.4L146.224 204.546L145.583 200.488V199.42L145.156 198.992L143.661 198.565L142.806 198.138L142.379 197.07L142.593 196.216L143.233 195.788L144.515 195.148L145.156 194.293L145.369 193.225V192.585L144.942 191.73L144.301 191.303L143.447 188.74L144.301 187.886L146.864 187.458L147.719 187.245L149.855 185.536L152.418 184.682L155.194 182.759L158.826 181.478L164.379 180.41L164.165 178.06L166.088 171.866L167.156 170.585L167.583 167.808L166.088 165.672L164.379 164.604L163.311 162.895L164.379 161.614L164.593 160.973V160.332L163.952 158.837L161.816 157.128L160.962 156.274V155.419L161.175 154.565L162.243 153.283L163.097 151.575L164.165 148.584L165.02 147.303L166.088 146.876L168.224 147.089L169.078 147.303L170.36 148.371L174.204 152.643H175.699L176.554 151.361L178.476 146.876V145.808L178.263 144.526L177.835 143.885L177.622 141.749L178.476 141.109L181.894 141.963L184.457 139.4L185.311 137.478V136.196L185.097 135.342L184.67 134.701L183.175 133.847L182.534 133.206L181.894 131.924L181.68 131.283L182.107 130.856H184.03L185.097 130.215L184.67 127.225L185.097 125.089L185.738 121.672L187.874 114.41L194.496 113.769L197.272 114.623H198.981L199.835 113.342L203.039 111.206L203.894 110.779L203.253 113.128L202.826 113.769L203.68 114.837L204.107 115.05L205.602 115.478V116.332L205.175 117.4V118.468L205.602 119.963L206.243 121.458L207.098 122.526L214.573 126.371L218.204 126.584L219.7 127.012Z" fill="#009649" stroke="white" stroke-width="2" stroke-linejoin="round" data-country-region="North Region"></path>
<path class="region" d="M187.876 114.409L185.74 121.672L185.099 125.089L184.672 127.225L185.099 130.215L184.032 130.856H182.109L181.682 131.283L181.896 131.924L182.536 133.206L183.177 133.846L184.672 134.701L185.099 135.342L185.313 136.196V137.477L184.459 139.4L181.896 141.963L178.478 141.109L177.624 141.749L177.837 143.885L178.265 144.526L178.478 145.808V146.876L176.556 151.361L175.701 152.643H174.206L170.362 148.371L169.08 147.303L168.226 147.089L166.09 146.876L165.022 147.303L164.167 148.584L163.099 151.575L162.245 153.283L161.177 154.565L160.964 155.419V156.274L161.818 157.128L163.954 158.837L164.595 160.332V160.973L164.381 161.613L163.313 162.895L164.381 164.604L166.09 165.672L167.585 167.808L167.158 170.584L166.09 171.866L164.167 178.06L164.381 180.41L158.828 181.478L155.196 182.759L152.42 184.681L149.857 185.536L147.721 187.245L146.866 187.458L144.303 187.885L143.449 188.74L141.74 189.167L140.886 189.808L139.818 190.876L137.041 193.225L134.905 196.429L133.41 197.07L129.779 199.847L125.08 201.769L118.672 206.468L113.76 205.827L110.128 206.468L109.701 206.682L109.488 207.75L109.061 208.604H108.42L107.779 207.963L106.497 207.322L105.216 206.041L103.08 204.546L100.517 203.905L99.6624 203.264L98.8081 202.837L98.3809 199.419L100.73 195.575L101.158 194.72V193.225L100.303 191.73V190.876V190.235L102.226 188.74L106.925 186.817L106.07 185.109L104.789 184.041L104.361 183.186L103.934 181.264L102.866 178.701V178.06L103.293 177.206L103.934 176.565L107.352 175.283L105.857 174.002L104.361 173.361L103.934 173.147L103.507 171.652L103.293 168.448L103.08 167.594L102.653 166.74L101.371 165.458L100.944 164.817V163.963V163.109L101.585 161.613L103.721 159.905L105.643 157.769L107.352 154.138L108.206 152.856V152.215L107.352 148.584L109.915 148.371L110.556 148.798H111.624L112.692 148.584L114.187 147.944H115.041L115.895 148.157L117.177 149.011H118.031L118.672 148.798L119.099 148.157V146.876L118.459 144.74L118.031 141.749L117.604 140.254V139.613L117.818 138.332L118.245 137.05L121.022 133.206V132.565V131.71L120.808 131.283H120.167L119.099 132.138L118.672 132.778L118.031 134.274L116.75 134.487H115.895L109.488 131.283V128.934V128.079L109.061 126.371L103.934 122.953L109.488 120.604L112.264 119.963L120.808 120.604L123.158 120.39L133.624 116.759L137.255 114.409L141.74 111.633L143.449 111.419L144.731 111.846L146.653 113.769L147.721 114.623L149.216 115.05L150.711 115.264L152.42 114.837L153.915 114.409L156.264 112.701L157.546 112.06L159.255 111.846L162.886 112.274L166.731 111.846L176.769 108.002H178.051L179.333 108.856L181.896 112.701L182.964 113.555L185.74 114.623L187.876 114.409Z" fill="#009649" stroke="white" stroke-width="2" stroke-linejoin="round" data-country-region="North Region"></path>
<path class="region" d="M57.1557 227.827L58.2237 228.255L60.7868 229.75L59.078 230.604L58.2237 230.39L56.942 229.322L56.7285 228.041L57.1557 227.827ZM98.8063 202.837L99.6606 203.264L100.515 203.905L103.078 204.546L105.214 206.041L106.496 207.322L107.777 207.963L108.418 208.604H109.059L109.486 207.75L109.699 206.682L110.127 206.468L113.758 205.827L118.67 206.468L125.078 201.769L129.777 199.847L133.408 197.07L134.903 196.429L137.039 193.225L139.816 190.876L140.884 189.808L141.738 189.167L143.447 188.74L144.302 191.303L144.942 191.73L145.37 192.585V193.225L145.156 194.293L144.515 195.148L143.234 195.788L142.593 196.216L142.379 197.07L142.806 198.138L143.661 198.565L145.156 198.992L145.583 199.419V200.487L146.224 204.546L146.865 205.4L147.933 206.468L148.36 207.109L148.146 207.75L146.224 209.245L145.37 210.099L144.729 211.167L144.302 212.876L143.447 215.225L145.797 216.507L147.078 218.429L145.156 222.701L144.942 223.769L145.37 225.051L145.797 225.905L146.651 226.546L148.146 228.255L150.496 229.963L150.923 231.031V232.526V233.167L150.496 233.808L149.855 234.449L148.146 235.73H147.292L146.651 235.517L146.224 234.876L145.797 234.662L145.37 235.089L144.942 235.73L145.156 237.439L144.942 239.789L143.234 238.293L141.738 237.866H140.67L139.389 238.08L137.467 238.934L136.399 240.216L136.185 241.07L136.399 242.565V243.206L135.544 243.633L133.835 243.847H133.195L132.554 244.274L131.486 245.983L131.059 246.196L130.204 245.769H129.564L128.496 246.196L128.069 246.624L126.36 247.051L126.146 248.119L125.719 248.546H124.437L122.515 248.973L121.447 250.041L120.379 250.255L119.311 250.895L119.098 251.536L117.816 253.031L118.03 251.536L117.602 250.468L118.03 249.4L118.457 248.759L119.311 248.119L115.894 242.352L115.467 240.429L116.107 237.225L115.253 235.73L113.758 234.662L110.981 238.08L108.632 237.225L105 240.429L103.505 242.565L103.719 243.847L105.214 245.342L105.428 245.983L105.214 246.837L104.787 247.478H104.146L102.651 246.837L101.797 247.051L98.8063 250.468L95.3887 251.75L94.1072 251.536L95.1752 250.682L95.6024 250.041L95.816 248.973L95.3887 247.691L94.5345 245.556L93.4665 242.992L92.8257 242.565H91.9713V242.992H90.2626L87.4859 245.342L85.1363 246.624L83.6411 248.546L83.0004 249.187L82.3596 248.119L82.1461 247.264V245.556L81.9324 244.488L81.5052 241.924L80.8645 241.284L80.2237 241.07H79.1557L77.8742 241.924L76.5926 244.06L75.9519 244.488L75.0974 244.701L74.2431 244.274L73.3887 242.992L71.8935 241.711L71.0392 241.07L69.1169 240.643L67.4081 240.429L63.1363 240.002L61.0004 241.07L60.1459 241.711L59.2916 241.924L56.515 241.284L55.2333 240.643L54.5926 240.216L51.8159 238.934L54.8061 230.39L56.0877 228.682L56.942 230.177L58.4372 230.818L61.8548 231.031V230.177L60.3596 228.895L59.078 228.041L57.5829 227.4L53.7381 226.973L52.2431 225.905L51.3887 224.196V221.847L52.4566 218.856L55.0198 213.517L60.5731 191.303L61.6411 185.963V186.177L71.0392 195.788L74.0295 196.216L74.6703 194.934L74.8839 193.225L76.8063 190.235L80.0102 192.585L79.583 195.361V196.429L79.7965 198.352L80.4372 199.206L81.0781 199.419L81.9324 198.992L83.2141 198.138L84.7091 197.497H85.5635L85.9907 199.633L87.0587 201.555V202.41V203.051L86.6315 204.759L86.418 204.973L85.35 206.041L84.9228 206.682L84.282 208.39L84.0684 209.458V210.526V211.167L84.7091 212.021L89.6218 212.449L91.1169 211.167L91.5441 210.099L93.4665 207.75L93.8937 206.895L94.5345 206.041L95.1752 205.827H97.0976L97.9519 204.546V203.691L98.8063 202.837Z" fill="#009649" stroke="white" stroke-width="2" stroke-linejoin="round" data-country-region="Central Region"></path>
<path class="region" d="M130.633 90.487L131.915 92.4094V93.2637L132.128 94.3317L132.555 95.1861L133.837 96.0405L136.187 97.7492L135.759 99.2444L136.187 100.953L137.682 103.516L139.177 104.584L137.895 109.07L137.682 111.846L137.255 114.409L133.623 116.759L123.157 120.39L120.808 120.604L112.264 119.963L109.487 120.604L103.934 122.953L103.507 124.235L103.293 124.448L99.0213 127.439L97.3126 126.798L95.1767 127.866V129.147L95.6039 129.788V130.642L95.3902 131.07H94.7495L93.2543 129.788L92.1863 127.866L90.4776 126.157L88.9824 127.866L88.5554 128.507L87.9145 130.002L87.2737 130.429H86.4194L85.3515 129.788L84.497 129.147L83.8563 128.72H82.7883L81.5067 129.788L78.73 130.642L77.4485 129.788L73.6039 130.215L72.7494 130.429V128.934L71.895 121.458V117.4L73.3902 115.905V115.05L70.1863 114.409L68.4776 111.206L67.4096 107.361L65.9144 104.157L66.3416 102.662L66.1281 101.38L65.7009 100.099L65.2737 98.8172V95.3997L64.8465 94.1181L64.2057 93.9045L63.565 91.555L62.2833 89.4191L61.8562 87.9239V86.4288L61.6426 83.2249L62.7105 79.5938H64.6329L66.5552 80.6618L68.9048 81.7297L71.0407 81.9433L71.895 82.1569L74.4581 84.9336L75.7398 85.5744L76.5941 86.0016L77.4485 86.6424L77.8757 87.2832L77.4485 87.9239L76.1669 88.5647L75.5261 89.4191L76.1669 91.7686L76.5941 92.623L77.2348 92.8366L78.3028 92.623H83.0019L84.497 92.4094L85.7785 91.1278L87.2737 90.2735L88.7689 89.8463H89.8369L91.1184 90.7006L93.2543 90.9142L95.8174 90.2735L99.235 89.8463L99.8758 90.0599L101.157 90.9142H101.584L103.72 90.0599H104.361L106.924 88.7783L108.633 87.4967L109.915 85.5744L114.186 87.0696L115.895 88.7783L116.109 89.6327L115.895 90.487L119.099 92.8366L121.662 94.1181L122.73 93.9045L124.439 94.9725L125.507 95.6133H126.361L127.002 95.3997L127.643 94.7589L128.284 93.9045L129.352 93.0502L130.206 92.1958L130.633 90.487Z" fill="#009649" stroke="white" stroke-width="2" stroke-linejoin="round" data-country-region="North Region"></path>
</svg>