<svg width="599" height="575" viewBox="0 0 599 575" fill="none" xmlns="http://www.w3.org/2000/svg">
<path class="region" d="M245.344 559.89L245.643 559.95L244.925 560.309L244.746 560.848L244.506 561.386L243.489 561.626L242.831 561.386L242.233 560.788L241.814 560.07L241.575 559.411L242.173 559.95H243.011L244.626 559.411L245.344 559.89ZM345.248 402.252L342.077 405.603L341.659 406.381L338.907 414.401L338.069 415.598L334.899 418.71L332.685 422.301L328.378 426.49L325.985 428.106L322.635 431.517L321.139 434.15L320.122 437.262L318.567 447.257L318.866 448.993L320.003 450.249L325.746 452.643L327.241 453.661L329.874 456.055L331.489 456.653L340.343 456.294L341.718 456.653L343.094 457.371L344.111 458.748L344.291 460.244L344.052 463.655L344.231 465.271L344.052 465.989L343.752 466.827L343.513 467.665L343.573 468.443L343.872 470.119L343.693 471.615L343.154 473.111L341.18 476.463L341.001 477.121V478.617L340.642 480.712L340.701 481.37L341.36 483.405L342.556 485.38L343.992 487.115L345.487 488.432L346.205 489.27L346.923 491.544L347.461 492.502L348.06 492.921L349.495 493.459L351.589 493.938L355.896 493.818L357.332 493.519L358.708 492.861L360.084 492.502L361.58 492.801L362.357 493.878L362.537 495.554L362.357 499.145L362.118 503.813L362.417 505.249L363.015 506.087L364.451 507.703L364.75 508.72L364.93 509.678L365.348 510.516L366.605 511.892L368.938 513.927L369.536 514.765L369.955 515.723L371.211 521.348L371.989 523.563L373.066 525.717L375.279 529.188L376.476 532.779L377.493 534.275L376.715 534.874L374.322 536.071L373.784 537.028L373.484 538.285L373.604 539.422L374.322 540.081L374.442 540.32V540.559V540.799L374.322 541.098L374.202 541.936L374.142 542.235V542.534L374.202 542.834L374.322 543.133L375.159 543.612L376.595 543.851L377.911 544.27L378.21 545.287L377.851 545.646L376.057 546.305L375.638 546.783L375.399 547.202L375.04 547.502H374.322L373.484 547.143L372.767 547.083L372.108 547.322L369.835 548.818L369.297 549.596L369.416 550.255L369.895 550.973L369.656 551.212L368.998 551.392L368.28 551.631L366.904 552.349L366.126 552.589L361.161 552.17L359.845 551.511L359.187 550.913L358.947 550.315L358.768 548.699L358.409 547.262V546.843L358.648 546.604L359.247 546.185L359.486 545.766L359.007 544.809L357.512 544.749L353.623 545.706L351.948 546.903L351.29 547.143L349.316 547.262L348.598 547.562L347.222 548.579L346.504 548.699L345.727 548.758L343.633 549.477L342.317 549.596L341.898 549.836L341.479 550.494L340.642 553.008L340.223 553.786L338.907 554.923L337.232 555.282L329.754 555.342L327.78 555.102L326.165 554.324L323.293 551.212L322.216 550.733L311.807 550.494L309.055 551.511L307.619 551.691L306.902 551.571L304.808 550.554L303.97 550.255L303.252 550.434L301.757 551.272L300.74 551.631L300.082 551.511L299.543 551.033L298.825 549.716L298.586 549.357L298.227 549.118L297.928 548.998H297.39L297.21 549.237L297.15 549.596L297.031 549.896L295.894 552.05L295.535 552.409L294.817 551.811L294.578 549.477L294.04 548.639L292.125 548.519L291.348 550.255L291.288 563.361L284.767 563.301L280.52 563.242L278.785 563.541L277.648 564.379V564.079L277.588 563.66L277.469 563.361L277.229 563.182L276.751 563.301V563.601L276.871 564.02L276.93 564.319L276.631 564.857L276.153 565.336L275.674 565.576L275.136 565.336L274.896 564.917L274.837 564.618L274.717 564.439L274.358 564.498L273.999 564.798L273.939 565.157V565.516L273.879 565.755L274.119 565.995L274.178 566.174L274.059 566.294H273.939L273.58 566.234H273.461L273.161 566.414L272.503 566.713L272.264 566.892L271.367 568.269L270.41 565.755L270.35 567.012L270.41 567.431L270.529 567.67L270.828 568.209L270.888 568.388L270.769 569.166L270.111 570.782L269.871 571.56L269.931 572.279L270.29 573.476L270.41 574.194L270.111 574.254L269.393 573.715L268.376 572.698L268.256 573.655H267.598L266.94 573.116L266.581 572.279L266.701 571.979L267.239 571.56L267.359 571.441L267.299 570.663L267.359 570.483L267.598 569.765L267.837 569.645H268.376V569.346L267.837 568.927L267.299 568.329L266.82 567.491L266.581 566.593L266.88 565.516L266.94 565.037L266.342 565.097L265.504 564.558L265.085 564.379L266.162 567.91L266.581 568.807L265.923 570.304L265.504 571.022L265.085 571.261L264.906 571.022L264.726 570.603L264.607 570.124V569.765L264.368 569.526L264.009 569.585L263.65 569.765L263.59 569.945L263.231 569.825L262.812 569.645L262.453 569.346L262.334 568.927L262.154 568.688L261.855 568.628H261.556L261.257 568.568L261.077 568.149L261.137 567.61L260.898 567.251L260.599 567.192L260.3 567.371L259.761 567.97L259.642 567.371L259.582 565.875L259.283 565.516L259.043 566.414L258.684 569.047L258.385 569.645L257.308 569.466L256.232 569.166L254.257 568.269L254.676 568.568L255.035 569.047L255.155 569.645L254.736 570.184L254.138 570.363L253.3 570.244L251.924 569.945L251.565 569.885L251.266 569.945L251.027 569.885L250.967 569.466L251.027 568.987L251.147 568.688L251.326 568.388L251.446 567.97L251.745 565.695L251.924 565.217V564.917L251.805 564.977L251.745 564.857V564.618L251.266 565.336V567.012L250.967 567.73L250.429 567.97L249.831 567.79L249.472 567.311L249.412 566.593L248.933 567.132L248.634 566.892L248.335 566.414L247.916 566.054L247.378 565.995L247.318 566.294L247.497 566.773L247.916 567.132L245.882 566.653L245.404 566.294L245.763 566.234L246.002 566.294L246.301 566.234L246.66 566.054L246.959 565.695L247.378 564.798L247.677 564.379L247.318 564.558L246.899 564.857L246.54 565.037L246.122 564.917L246.062 564.558L246.181 563.9L246.421 563.002L244.865 562.643L244.387 562.404L244.985 561.027L245.404 560.608L245.882 560.788L246.899 560.13L247.258 559.711L247.378 559.112L246.54 559.83L245.763 559.77L244.985 559.351L243.968 559.112L241.874 559.232L240.797 559.052L240.319 558.454L240.199 557.137L239.78 556.12L238.823 554.384L238.644 553.905L238.584 553.367L238.524 551.332L238.404 551.033L238.045 550.554L238.225 550.315L238.404 549.836L238.524 549.716L238.285 548.639L239.003 548.1L240.139 547.921L241.096 548.04L240.379 547.621L239.721 547.502H238.165L237.746 547.023L237.866 545.946L238.345 544.15L238.105 544.449L237.866 544.689L237.268 544.988L237.208 543.911L236.849 543.013L236.251 542.175L235.533 541.337L236.251 540.679L236.131 540.38L235.294 540.26L234.935 539.781L234.695 539.243L234.576 538.644L234.516 538.046L235.114 538.285L235.772 538.345L236.49 538.285L237.088 538.046L236.011 537.387L235.473 537.088L234.755 536.909L234.097 537.028L233.678 537.148L233.379 537.028L233.26 536.25L233.559 535.113L234.217 534.036L235.114 533.138L236.011 532.48L237.088 531.941L237.148 531.642L236.789 531.103L236.311 530.744H236.011L235.593 530.984L234.277 531.223L233.918 531.163L233.738 530.266L233.499 529.906L233.2 529.547L232.901 529.428L232.243 529.488L231.884 529.607L231.465 529.667L230.747 529.428L230.508 529.727L230.807 530.565L230.089 530.266L228.593 529.128L227.935 529.009L227.277 528.65L226.739 528.171L226.5 527.752H226.201V528.53L226.32 528.829L226.5 529.128L225.602 529.009L224.884 528.53L224.226 527.931L223.389 527.453L222.372 527.393L221.415 527.752L220.458 527.931L219.62 527.453L219.261 527.632L217.287 527.872L216.39 528.231L215.971 528.291L215.014 527.931L215.133 527.153L215.851 526.316L216.868 525.777L222.671 521.049L223.15 520.75L223.389 520.69L223.568 520.63L225.064 520.451L225.542 520.271L226.021 520.032L226.5 519.673L227.397 518.655L228.175 517.638L228.534 516.979L228.713 516.321L228.773 516.022L228.713 515.304V515.064L228.773 514.825L228.952 514.406L229.311 513.927L230.568 512.371L232.362 510.875L232.602 510.576L232.841 510.157L233.738 507.703L233.918 507.224L233.978 506.805L233.918 506.386L233.738 505.549V505.309L233.798 504.89L234.037 504.411L235.892 501L236.191 500.581L237.208 500.043L237.507 499.803L237.746 499.444L237.986 498.786L238.524 497.708L239.84 496.093L241.037 494.776L241.515 493.938L243.37 488.911L243.788 487.475L243.968 486.218V485.14L243.729 482.986V482.208L244.327 478.557L244.207 477.42L243.848 475.984L234.456 458.329L234.097 457.491L233.738 455.636L233.499 453.661L233.379 450.249L233.14 432.894L232.721 428.824L232.781 427.388L233.02 425.472L234.396 419.428L234.576 418.051L234.875 417.273L235.353 416.196L237.806 411.767L240.379 408.416L242.113 404.227L242.592 403.449L244.028 402.671L248.156 402.072L252.941 400.815L261.855 396.805L263.47 394.292L264.607 392.975L272.683 386.691L273.341 385.973L275.016 384.776L278.187 383.4L278.486 383.22L278.665 383.1L278.904 382.801L280.759 379.749L280.998 379.45L281.537 378.971L281.776 378.791L282.015 378.731L283.092 378.372L286.861 377.834L293.202 378.253L310.73 377.475L315.636 377.355L319.584 375.679L320.063 375.619H321.02L321.977 375.799L322.934 376.038L323.173 376.158L323.293 376.278L323.413 376.457L323.532 376.816V377.116L323.592 377.295L323.712 377.415L323.891 377.475L327.421 377.953L328.438 378.253L329.275 380.048L329.814 380.587L330.113 380.706L330.412 380.826L330.891 381.185L331.19 381.604L331.309 381.963L331.369 382.262V383.639L331.429 383.998L331.608 384.297L331.908 384.776L332.087 385.135L332.207 385.434L332.326 386.212L334.6 393.095L335.138 394.232L337.471 397.643L338.129 398.361L338.727 398.84L341.001 400.277L345.248 402.252Z" fill="#009649" stroke="white" stroke-width="2" stroke-linejoin="round" data-country-region="West Region"></path>
<path class="region" d="M530.759 110.854L530.879 110.375L531.776 108.22L531.896 106.784L531.656 105.288L531.058 103.852L530.161 102.655L528.426 100.799L527.708 100.44L527.05 100.62L525.734 101.877L525.016 102.236L523.521 102.535L522.683 102.834L521.546 103.014H519.812L517.598 102.355L515.086 101.278L510.001 98.2858L509.043 97.2684L508.266 95.8919L506.83 92.5404L505.873 90.9844L504.856 89.8473L503.659 89.189L502.762 89.0693L500.788 89.6079L498.574 90.3859L495.583 90.6851L492.173 90.2064L490.259 90.1465V89.9071L490.08 89.6079L489.541 89.1291L489.422 88.8897V88.7102L489.481 88.4109L489.422 88.2912L489.302 88.2314H488.584L487.029 88.0519L486.849 87.992L486.61 87.8723L485.892 87.1541L485.772 86.9147L485.593 86.7951L485.354 86.7352H484.815L484.516 86.8549L484.217 86.9746L483.978 86.9147L483.798 86.8549L482.901 85.6579L481.944 85.2989L481.525 85.239L480.867 85.4784H480.687L480.448 85.4186L479.73 84.6405L479.072 84.2216L478.653 84.1019L478.354 84.0421H477.397H477.278L477.038 84.2216L476.32 84.9996L476.021 85.1792H475.782L475.662 85.0595L475.423 84.8799L475.184 84.461V84.2216V84.0421L475.244 83.8027L475.363 83.1443V82.9648L475.303 82.7254L474.227 80.8103L474.167 80.6308V80.2717L474.286 79.0149L474.227 78.5959L474.286 78.2967L474.406 78.0573L475.244 76.6808L475.483 76.202V76.0225L475.602 75.7831L476.201 75.3043L477.098 74.7657L477.457 74.646L477.636 74.5263L477.696 74.4066L477.756 74.2869L477.636 73.8081L477.517 71.9529L477.457 71.7733L477.278 71.0551L476.739 70.8158L472.013 70.0976L469.68 70.1574L467.407 70.5165L465.971 69.4393L465.133 69.2597L463.937 69.8582L463.458 68.9006L463.279 68.4219L463.099 68.2423L462.92 68.0628L462.621 67.8234L462.322 67.7037L461.903 67.6438H461.664L460.946 67.7037H460.826L460.288 67.5241L460.049 67.4044L459.869 66.9257L459.749 66.7461L459.51 66.4469L458.074 65.4295L457.775 65.1901L457.656 65.0105L457.237 64.5916L453.827 62.2576L453.588 62.0182L453.468 61.8386L453.408 61.5992L453.348 61.3V60.9409L453.528 58.6068L453.588 58.4273L453.707 58.3076L454.425 57.6493L454.485 57.4697L454.545 57.2902L454.485 57.1705L454.306 56.991L453.229 56.2129L452.81 55.8539L452.272 55.3152L452.152 55.0758L452.092 54.9561H451.972L451.793 55.0758L451.494 55.4948L451.195 55.7342L451.015 55.794L450.776 55.8539H450.357H449.998L449.4 55.6145L449.161 55.4948L448.862 55.3152L448.323 55.016L448.024 54.8963L447.785 54.8364L444.136 55.016L443.837 55.1357L443.537 55.2554L442.102 56.0932L441.982 56.2129L441.803 56.5122L441.683 56.6319L441.384 56.6917H441.144L439.589 56.3925L436.119 55.9736L430.975 53.6993L433.667 48.732V48.5525V48.4328L433.368 47.7146L433.308 47.3555L433.068 47.0563L431.932 45.979L431.812 45.7995L431.692 45.5002L431.573 45.1411L431.453 44.8419V44.6624L431.573 44.1836L431.692 44.004L432.65 42.7472L432.709 42.448L432.65 42.2086L432.351 41.7298L432.291 41.5503V41.3707L432.41 40.6526L432.769 38.7973L432.889 38.4981L433.068 38.2587L433.248 37.8996L433.547 37.5405L433.846 37.2413L434.385 36.8822L434.863 36.7026L435.342 36.5829H435.641L436.119 36.6428L437.077 37.0019H437.316L437.495 36.942L438.273 35.8049L438.452 35.6254L439.17 35.0867L439.709 34.8474L440.247 34.6678L440.486 34.5481L440.905 34.3087L442.221 32.633L442.58 32.3936L442.879 32.2141L444.016 31.9747L444.315 31.7353L444.554 31.3762L444.614 31.1967L444.674 30.8974L444.614 30.4186V29.2217L444.734 28.6232L444.794 28.4437L444.973 28.2043L445.392 28.0247L446.11 27.905H447.187L448.144 27.7853L448.263 27.7255L448.383 27.546L448.443 27.1869L448.383 26.9475L448.144 26.4687L448.084 26.2293V26.1096L448.204 25.9301L448.443 25.8104L450.357 25.0324L450.596 24.8528L450.836 24.6134L451.135 24.1945L451.255 23.8953L451.374 23.2968L451.494 23.0574L451.972 22.3392L452.331 21.6809V21.4415L452.272 21.0226L451.673 19.5264L451.554 18.9279L451.494 17.9105L451.434 17.4916L451.554 17.312L451.673 17.1923L452.391 17.1325L453.647 16.8332L454.066 16.5939L455.143 15.756L455.323 15.6363L455.562 15.6961L455.921 15.9355L456.519 16.534L456.698 16.6537L456.878 16.7135L457.775 16.4742L458.792 16.4143L459.39 16.4742H459.749L460.407 16.2946L464.176 14.8583L464.655 14.9181L465.552 15.0977L467.766 15.8158H468.005L468.783 15.756H469.201L469.381 15.8158L469.68 15.9954H469.859L470.099 15.9355L470.577 15.6363H470.757L470.876 15.756L471.235 16.2348L471.415 16.534L471.594 16.7135L471.774 16.7734L471.953 16.8332L472.97 16.7734L473.21 16.8332L473.628 17.0726H473.808L474.047 17.0128L474.466 16.7734L475.184 16.1151L475.423 15.9954L475.662 16.0552L475.961 16.1151L476.679 16.4742L476.859 16.534L477.098 16.4742L477.816 15.9355H477.936H478.354L479.551 16.2946L480.269 16.5939L481.046 16.7734L481.226 16.7135L481.465 16.5939L481.525 16.3545V16.0552L481.465 15.8757V15.6961L481.525 15.5166L481.645 15.0977L481.704 14.9181L481.645 14.6787L481.525 14.0204L481.286 13.7212L480.867 13.3621L478.773 11.9257L478.235 11.3871L477.756 11.0879L477.337 10.9083L476.021 10.6689L475.722 10.5492L475.543 10.4296L475.363 10.3099L475.124 10.0705L475.064 9.83108L474.944 9.2326L475.064 8.33489L477.278 8.39473L479.551 8.81367L480.687 9.29245L483.738 11.2076L484.815 11.5068L485.892 11.9257H486.969L489.122 11.2076L489.481 10.7288L489.661 9.17275L489.9 8.51443L490.439 8.0955L491.037 7.9758L493.489 8.27504L494.327 7.9758L496.122 6.47961L499.233 4.50464L500.19 3.72662L501.685 3.30769L502.523 3.24784L503.241 3.48723L503.48 3.72662L504.138 4.68418L504.856 5.34251L505.454 5.16297L505.693 3.72662L505.873 3.36754L505.933 3.00845L505.813 2.70921L505.634 2.40998L506.351 2.05089L508.744 1.45242L510.06 0.913788L510.659 1.03348L511.197 1.75165L512.154 2.64937L514.846 2.70921L516.043 3.72662L517.12 5.34251L517.359 5.88114L517.598 7.25763L517.778 7.73641L518.316 7.49702L518.555 7.07809L518.854 5.76144L519.213 5.16297L519.752 4.80388L520.41 4.50464L521.666 4.14556H523.042L526.213 3.72662L526.871 3.84632L527.409 4.14556L528.426 5.10312L529.682 5.76144L534.049 6.719L535.425 7.31748L536.442 8.33489L537.041 9.71138L537.28 11.447L537.399 13.3621L537.639 15.0977L538.416 16.1749L540.63 16.2946L540.869 15.9954L540.989 15.5166L541.228 15.0378L543.501 14.1999L546.433 14.7984L549.364 16.1749L551.637 17.7908L553.791 19.8256L554.748 20.9627L558.517 28.1444L558.876 30.0596L558.218 33.7103V35.5057L558.517 36.2239L559.414 37.361L559.773 37.9594L559.893 38.7973L559.414 39.1564L558.756 39.4556L558.278 40.0541L558.218 40.5927L558.517 41.3707V41.9094L558.278 42.2685L558.038 42.448L556.184 43.645L555.705 44.1237L555.466 44.8419L555.645 46.3979L556.483 47.8941L557.62 48.9714L558.756 49.51L561.628 49.6896L562.645 50.288L563.602 51.9638L563.901 53.6993L564.08 55.6145L564.439 57.2304L565.456 58.1281L566.354 58.1879L568.089 57.7091L568.926 57.5894L569.704 57.769L570.302 58.0084H570.84L572.216 56.991H572.874L573.532 57.1107L574.191 56.991L574.49 56.7516L574.908 55.9736L575.267 55.6743L575.686 55.5546L576.105 55.4948L576.883 55.4349L577.78 55.1955L579.156 53.7592L579.814 53.9387L580.173 55.4349L579.634 59.1455L580.352 60.6417L581.609 61.3598L584.301 62.3174L585.497 63.2151L586.335 64.4719L586.813 65.0105L587.471 65.3696L588.01 65.4295L592.975 77.5187L598 89.6677L597.761 89.7874L597.043 90.745L597.222 91.8222L597.521 93.079L597.222 94.4555L596.684 95.2336L594.47 97.029L593.753 97.807L593.274 98.1661L592.736 98.1062L591.778 97.4479L590.761 97.1487L589.445 97.2684L588.189 97.7472L587.292 98.4653L586.993 99.4827L587.112 101.877L586.753 102.774L583.403 106.006L582.925 106.246L579.754 106.964L579.096 106.904L578.498 106.724L576.883 105.527L575.507 105.288L574.071 105.827L568.986 108.819L565.038 109.836H563.841L561.508 108.819L560.192 109.118L559.654 109.657L558.876 110.973L558.397 111.572L558.098 111.751L557.141 112.051L554.688 113.846L552.594 116.12L551.817 116.719L551.159 116.898L549.603 116.659H548.826L546.672 117.198L545.057 117.138L535.306 114.504L533.81 113.726L532.374 112.649L531.776 111.991L531.238 111.153L530.759 110.854Z" fill="#009649" stroke="white" stroke-width="2" stroke-linejoin="round" data-country-region="East Region"></path>
<path class="region" d="M446.17 151.49L447.904 151.131L448.682 150.712L449.101 150.293L449.4 149.934L449.998 149.515L450.417 149.336L450.716 149.276L452.092 149.096L452.87 148.737L453.169 148.438L453.468 148.079L453.767 148.258L456.758 149.635L457.237 149.994L457.775 150.473L458.912 151.73L460.348 152.807L460.647 153.286V153.764L460.348 154.303L459.39 155.38L458.972 155.979L457.596 159.27L457.356 159.63L456.22 160.826L455.801 161.425L455.681 161.604L455.562 161.724L454.844 161.904L454.066 161.724L453.109 161.186L452.69 160.886L452.391 160.467L452.511 159.929L452.75 159.39L452.81 158.672L452.571 157.834L452.152 157.116L451.733 156.517L451.255 156.098L450.537 155.859L449.938 155.919L449.221 156.098L447.845 156.577L446.588 157.295L445.99 157.834L445.212 158.253L444.375 158.373L443.478 158.253L442.7 157.595L442.102 156.697L441.623 155.56L441.803 154.363L442.64 153.286L446.17 151.49Z" fill="#009649" stroke="white" stroke-width="2" stroke-linejoin="round" data-country-region="East Region"></path>
<path class="region" d="M446.169 151.49L442.639 153.286L441.802 154.363L441.622 155.56L442.101 156.697L442.699 157.595L443.477 158.253L444.374 158.373L445.212 158.253L445.989 157.834L446.588 157.295L447.844 156.577L449.22 156.099L449.938 155.919L450.536 155.859L451.254 156.099L451.732 156.517L452.151 157.116L452.57 157.834L452.809 158.672L452.749 159.39L452.51 159.929L452.39 160.467L452.689 160.886L453.108 161.186L454.065 161.724L454.843 161.904L455.561 161.724L455.681 161.605L455.8 161.425L456.219 160.827L457.356 159.63L457.595 159.27L458.971 155.979L459.39 155.38L460.347 154.303L460.646 153.764V153.286L460.347 152.807L458.911 151.73L457.774 150.473L457.236 149.994L456.757 149.635L453.766 148.259L453.467 148.079L454.185 147.78L455.92 147.899L456.817 147.301L457.715 146.523L458.851 146.044L459.449 145.625L460.287 145.266L460.466 145.087L460.586 144.907L460.706 144.548L460.825 144.189L461.005 143.83L462.141 142.274V142.094V141.975L462.022 141.795L461.962 141.556L462.022 141.137L462.261 140.897L462.441 140.778L462.68 140.718H462.919L463.099 140.778L463.517 141.017L463.697 141.077H463.876L464.175 141.017L464.475 140.897L464.594 140.658L465.312 139.521L465.492 139.341L465.731 139.162H465.97L466.628 138.803L466.927 138.563H467.167L467.406 138.683L467.585 138.862L467.944 139.042L470.158 143.351L470.277 144.847L469.739 148.079L470.038 149.276L470.517 149.934L470.756 150.652L470.876 151.49L470.935 152.328L470.756 152.927L470.098 154.303L470.038 154.722L470.158 155.021L469.918 155.62L470.038 155.979L471.055 156.877L471.474 157.415L471.833 158.193L472.132 159.031L472.192 159.749L472.072 160.168L471.833 160.288L471.593 160.408L471.474 160.707V161.126L471.773 162.562L471.893 162.921L471.952 163.22V163.699L471.773 163.819L471.414 163.879L471.055 164.118L470.696 165.435L470.277 165.973L469.978 166.512L470.038 167.29L470.457 167.948L470.876 168.487L471.055 168.906L470.935 169.445L470.696 170.223L470.756 171.001L470.876 171.898L470.935 172.736L470.816 172.856L470.576 172.976L470.277 173.095H470.158L470.218 173.514L470.337 173.574L470.457 173.514L470.756 173.574L470.995 173.454L471.294 173.335L471.474 173.395L471.534 173.754L471.593 174.053L471.713 174.292L472.431 174.771L472.73 175.01L472.969 175.489L472.91 175.968L472.79 176.507L472.551 176.806L472.61 177.285L471.773 178.122L472.431 179.08L473.627 179.858L475.781 180.875L476.978 181.594L477.336 182.252L478.533 182.91L479.131 183.03L479.37 182.91L480.148 182.551L480.507 182.431L480.986 182.312H482.242L482.96 182.431L483.558 182.791L483.857 183.09L484.037 183.329L484.814 184.646L485.054 184.945L497.317 191.349L496.958 191.947L497.317 192.785L497.796 193.443L498.394 193.862L499.232 193.982L499.89 193.803L501.086 193.084L501.804 193.025L502.462 193.324L503.539 194.401L504.137 194.76H504.855L506.829 194.461L507.547 194.221L508.265 193.683L508.564 193.025L508.743 192.246L509.102 191.409L509.76 190.75L510.418 190.631L510.897 190.99L511.077 192.007L510.777 192.965L509.88 194.76L509.581 195.778L509.641 196.735L509.88 198.53L509.82 199.368L509.521 200.146L509.102 200.865L508.863 201.702L508.983 202.54L510.06 205.593L511.077 206.789L512.393 207.268L513.769 207.149L515.145 206.73L516.52 206.61L519.093 207.927L520.588 207.747L522.144 207.149L523.4 207.029L524.537 207.448L525.913 208.645L527.169 209.363L529.741 210.021L530.998 210.739L534.527 213.732L535.484 214.929L535.724 215.946L535.365 216.784L534.168 218.16L533.869 218.879L533.39 220.854L532.194 220.794L531.715 220.854L530.878 221.153L529.741 221.751L528.904 222.589V223.547L528.425 223.487L527.588 223.248L527.289 223.427L526.87 223.786L526.571 223.966H526.272L523.998 223.068L523.34 223.188L523.639 224.444H523.28L522.323 224.385L522.024 224.564L521.725 224.983L521.546 225.402L521.306 225.701L520.887 225.941L519.99 226.06L519.153 225.941L518.435 226.06L517.837 226.838L516.221 226.24L515.563 227.197L515.204 228.694L514.546 229.831L513.769 230.01L511.376 229.472L510.359 231.507L509.88 231.866L509.282 232.105L506.53 234.259L505.932 234.858L505.573 235.576L505.453 236.534V237.072L505.393 237.252L505.214 237.431L504.915 237.85L504.855 238.03L504.735 238.569L504.676 238.748L504.556 238.868L504.317 238.987L504.197 239.047L503.838 239.706L503.718 239.885L504.077 240.364L506.111 244.134L507.188 248.264L508.325 249.999L508.385 250.777L508.205 251.615L507.786 252.274L507.188 253.052L506.71 253.83L505.274 257.54L505.034 258.498V260.473L504.436 262.148L504.317 263.046L504.436 263.884L504.616 264.483L504.975 265.021L505.453 265.62L506.051 265.919L507.667 265.62H508.385L508.923 265.979L509.641 266.577L509.94 266.996L507.786 268.133L507.009 268.732L506.47 269.51V270.407L505.872 270.946L505.393 271.604L504.795 272.203L504.077 272.442L503.24 272.502L502.582 272.622L501.924 272.921L501.325 273.52L500.907 274.238L500.727 274.836L500.428 275.195L499.65 275.135L498.693 274.836H498.274L497.796 274.896L497.437 275.195L497.138 275.554L496.839 276.033L497.138 276.811L496.719 277.529L496.001 278.128L495.224 278.367L495.104 278.547L495.463 279.385V279.684L495.224 279.983L494.685 280.402L494.326 280.701L493.608 281.898L493.01 282.437L492.711 282.736L492.472 283.634L491.933 284.053L491.814 284.352L491.694 285.01L491.395 285.19L490.557 285.369L489.78 285.788L489.181 286.147L488.703 286.686L488.164 287.344L487.746 288.122L487.805 288.84L487.925 289.678L487.805 290.696L487.267 291.234L485.831 291.653L485.532 292.012L485.293 292.551L483.438 295.244L483.079 295.484L482.601 295.603L482.003 295.364L482.062 295.663L482.122 296.262L482.182 296.561L481.524 296.501L480.806 296.86L480.208 297.518L479.969 298.177L479.849 298.356L481.644 299.314L482.421 300.451L483.259 302.246L483.797 304.161L483.618 305.358L477.516 310.505L476.08 311.343L469.38 312.839L463.039 315.832L462.441 316.49L460.885 321.697L459.33 326.844L457.415 333.068L455.381 337.018L453.587 340.549L450.715 346.115L448.382 349.227L447.485 350.843L446.229 353.775L445.81 354.374L445.212 354.793L440.426 357.306L431.333 362.094L426.068 364.847L425.051 365.565L422.299 368.976L421.402 370.712L419.248 379.15L418.531 381.125L417.514 382.921L416.078 384.477L411.531 388.187L408.6 392.078L408.181 392.915L408.002 393.693L407.583 398.78L407.344 399.439L406.865 399.798L401.003 401.653L395.798 403.209L392.687 403.508L389.816 403.269L386.585 403.508L383.474 404.227L380.663 405.184L376.176 407.399L371.929 409.493L368.937 410.211L366.365 409.852L364.451 408.536L363.015 406.441L361.878 403.808L361.759 402.97L361.938 401.474L361.639 400.576L361.16 400.097L360.144 399.199L358.887 397.823L357.99 397.105L356.973 396.506L355.896 396.207L355.118 396.087L354.4 396.267L352.965 396.865L351.529 397.045L350.871 397.284L350.213 397.703L348.179 400.037L345.607 401.893L345.248 402.252L341 400.277L338.727 398.84L338.129 398.362L337.471 397.643L335.138 394.232L334.599 393.095L332.326 386.212L332.206 385.434L332.087 385.135L331.907 384.776L331.608 384.297L331.429 383.998L331.369 383.639V382.263L331.309 381.963L331.189 381.604L330.89 381.185L330.412 380.826L330.112 380.707L329.813 380.587L329.275 380.048L328.437 378.253L327.42 377.954L323.891 377.475L323.711 377.415L323.592 377.295L323.532 377.116V376.816L323.412 376.457L323.293 376.278L323.173 376.158L322.934 376.038L321.976 375.799L321.019 375.619H320.062L319.584 375.679L315.635 377.355L313.721 374.363L313.661 374.123V373.884L313.721 373.585L313.841 373.285L314.02 372.986L314.2 372.807L314.439 372.687L315.815 372.148L316.473 371.849L316.712 371.61L317.011 371.37L317.968 370.114L318.806 368.677L320.84 363.889L321.019 363.111L320.96 362.872L320.84 362.633L320.72 362.513L320.361 362.154L320.122 361.855L319.943 361.495V361.196L320.002 360.658L320.182 359.58L320.421 358.862L320.601 358.383L320.78 358.144L320.96 358.024L321.976 357.246L322.455 356.767L323.293 355.81L325.087 352.818L325.566 352.339L325.805 352.099L326.104 351.86L326.583 351.621L326.822 351.441L327.061 351.142L327.54 350.304L328.796 343.96L328.856 343.242V342.763L328.677 342.643L328.557 342.584L328.198 342.643L327.899 342.823L327.6 343.062L327.42 343.302L327.301 343.421L327.121 343.481H327.002L326.882 343.421L326.762 343.302L325.985 342.105L325.925 341.806V341.327L326.044 340.25V339.651V339.232L325.925 338.993L325.745 338.694L325.506 338.454L325.207 338.275L325.027 338.155L324.609 338.035L323.053 337.856L322.694 337.736L322.575 337.556L322.455 337.317V336.838L323.532 331.631L323.412 330.195L323.472 328.998L323.592 328.4L323.711 327.921L324.19 327.203L324.369 326.963L324.669 326.724L325.327 326.425L325.985 326.185L328.258 325.766L329.036 325.108L330.172 323.193L330.412 322.954L331.309 322.355L331.967 321.816L332.326 321.398L332.685 320.739L334.42 316.251L336.394 312.181L336.872 310.625V309.608L336.932 309.129L337.112 308.351L337.291 307.872L337.471 307.513L338.009 306.974L338.428 306.615L338.667 306.256L339.624 304.401L339.804 303.563L339.864 303.024L339.744 302.845L339.564 302.725L339.325 302.665L338.906 302.546H338.547L338.248 302.605L338.009 302.785L337.71 303.024L337.59 303.144L337.231 303.802L337.112 303.922H336.992H336.872L336.753 303.802L336.693 303.503V303.204V302.306L336.633 302.127L336.573 301.947L336.394 301.827L336.035 301.708L335.855 301.588L335.676 301.349V301.049L335.855 300.69L336.095 300.092L336.753 297.459L337.112 295.184L337.53 293.987L340.701 288.541L340.881 288.062L341 287.644L340.94 287.404L340.881 287.165L340.462 286.506L340.402 286.327V285.968L340.462 285.369L340.701 284.232L341 283.574L341.239 283.215L341.479 283.155L342.376 283.095L342.556 283.035L342.675 282.916L345.726 278.786L345.965 278.666L346.624 278.607L346.863 278.487L347.042 278.247L347.102 277.829L347.042 277.23L346.624 275.973L347.102 267.475L347.222 267.654L347.341 267.714L347.581 267.774L347.76 267.595L348.059 266.936L348.119 266.757V266.457L348.059 266.098L347.82 265.261L347.76 264.542V264.363L347.82 264.123L347.999 263.944L349.316 263.226L349.974 263.046L350.811 262.627L351.17 262.508H351.409L352.965 262.388L353.144 262.328L353.324 261.849L353.025 259.934L353.683 260.054L354.042 259.814L354.161 259.515L354.281 259.276L354.4 258.977L354.58 258.617L354.999 258.079L355.298 257.839L355.597 257.72L356.195 257.839H356.494L357.033 257.78L357.332 257.66L357.631 257.48L358.528 256.762L358.887 256.583H359.306L359.964 256.762L361.22 257.361L361.579 257.48L362.118 257.54L362.477 257.48L364.092 256.762L364.63 256.642H364.929H365.169L365.348 256.762L365.528 256.882L365.946 257.361L366.245 257.54L366.963 257.899L367.502 256.822L368.339 255.924L368.459 255.625L368.519 255.386V255.206L368.339 254.847L368.698 253.53L368.937 253.171L369.536 252.992L370.014 252.752L370.254 252.513L370.373 252.274L370.493 251.735L370.553 250.718V250.418L370.194 249.461L370.254 249.162L370.433 248.922L370.732 248.802L370.912 248.683V248.503L370.792 248.264L370.313 247.725L370.134 247.426L369.775 246.768L371.57 241.92L371.629 241.501V241.262L371.45 240.543V239.945L371.689 239.406L372.347 238.449L373.903 235.217L374.202 234.319L374.501 232.584L374.86 231.746L375.398 231.088L375.997 230.549L376.475 229.95L377.133 228.095L377.731 227.377L379.107 226.001L379.287 225.641L379.347 225.282V224.444L379.466 223.786L379.706 223.248L380.005 222.709L381.321 221.213L381.68 220.913L382.757 220.375L383.115 220.135L383.594 219.417L383.833 218.52L384.252 216.724L384.432 216.245L385.149 214.989L385.329 214.57L385.389 214.151V213.313L385.568 212.535L385.987 211.817L387.363 209.902L387.662 209.243L387.901 208.465L388.021 205.473L387.782 204.934L387.662 204.874L387.602 204.695V204.396L387.542 204.156L387.423 204.036L387.124 203.917L386.824 203.857L386.645 203.917L386.525 204.036L386.286 204.575L385.987 204.755L385.807 204.814L385.688 204.934L385.568 205.054L385.449 205.353L385.329 205.533L385.209 205.772L385.03 205.832H384.85L384.731 205.712L384.491 205.473L384.312 205.054L384.192 204.455L384.731 202.6L384.79 201.822L384.671 201.583L384.551 201.463H384.312H384.192L382.577 201.762H382.278L381.979 201.702L381.56 201.523L381.321 201.224L381.201 200.865L381.022 199.608L380.603 198.052V197.693V196.795L380.423 195.957L379.167 193.204L379.048 192.785L379.167 192.546L379.287 192.486L379.646 192.306L380.065 191.887L380.184 191.229L380.483 187.997L380.603 187.279L380.842 186.681L381.74 185.244L382.039 184.945L382.338 184.706L382.757 184.526L383.355 184.227L383.714 183.988L386.107 183.03H386.346L386.585 183.269L386.765 183.329L387.183 183.449L387.303 183.509L387.423 183.628L387.602 183.688L387.901 183.748L388.32 183.569L388.619 183.449L388.858 183.389L389.158 183.449L389.457 183.389L389.935 183.15L390.294 183.03H390.713L391.192 182.91L391.431 182.731L391.67 182.551L392.149 181.773L392.268 181.474L392.328 181.175V180.935L392.268 180.756L392.209 180.516L392.029 180.337L391.85 180.277H391.551H391.311L391.251 180.097V179.679L391.61 177.763L391.551 177.584L391.251 177.105L390.952 176.507L390.892 176.387V175.848V175.609L390.773 175.489L390.534 175.19L390.354 174.831L390.294 174.292L390.474 173.335L390.593 172.976L390.892 172.736L391.192 172.916L391.311 173.215L391.551 173.454L391.85 173.634L392.867 174.113L393.166 174.232H393.465L394.96 173.694L395.2 173.754L396.157 174.352L396.635 174.771L396.875 175.13L396.994 175.369L397.054 175.669L397.114 177.045L397.174 177.344L397.234 177.584L397.473 178.122L397.772 178.601L398.43 179.439L398.789 179.858L399.148 180.097L400.943 180.875L401.361 180.397V179.439L401.421 178.721L401.72 177.943L402.02 177.464L402.438 176.985L402.737 176.387L402.917 175.489L402.797 174.532L402.438 173.933L401.9 173.395L401.421 172.796H401.72L401.062 172.317L400.883 171.599L401.122 170.821L401.541 170.223L401.84 169.564L401.78 168.786V167.948L402.438 167.051L404.472 165.973L405.07 165.794L406.147 165.854L406.506 165.794L406.805 165.554L406.925 165.315L407.104 165.016L407.463 164.956L407.284 164.417L407.344 164.058L407.523 163.699L407.882 163.28L408.002 162.981L408.181 162.383L408.361 162.023L409.976 160.827L410.275 160.408L410.335 159.45L410.275 158.911V158.433L410.933 157.176L411.053 154.902L411.232 154.243L411.95 152.508L412.189 152.208L412.369 151.969L412.788 150.652L413.147 150.293L413.924 149.994L414.283 149.755L415.061 148.797L415.181 148.677L416.197 149.156L417.633 149.276L418.291 149.455L418.83 149.755L419.308 149.455L419.727 149.276L420.206 149.396L420.624 149.755L420.864 148.019L420.325 143.77L420.864 142.154L421.402 141.855L424.812 141.077L425.53 140.718L426.666 139.64L427.863 138.862L429.239 138.444L430.734 138.384L431.333 138.444L431.931 139.88L432.29 140.897L432.529 141.256L432.828 141.556L433.008 141.615L434.623 141.795L435.281 141.975L435.76 142.214L435.999 142.393L436.119 142.573L436.059 142.753L435.939 142.872L435.819 142.992L435.52 143.171L435.281 143.351L434.862 143.83L434.743 144.009L434.683 144.189V144.488L434.743 144.668L434.922 144.847L435.76 145.565L436.059 145.745L436.298 145.805L436.777 145.685L437.255 145.565L437.435 145.506L437.554 145.326L437.674 145.146L437.913 144.847L438.212 144.189L438.332 143.949L438.511 143.83L438.93 143.71L439.11 143.65L439.169 143.531V143.411L439.11 142.992L439.229 142.693L440.007 141.915L440.246 141.735L440.486 141.615L440.665 141.675L440.904 141.855L441.263 142.274L441.323 142.453L441.383 142.633L441.144 143.112L441.024 143.471L441.084 143.65L441.203 143.83L441.862 144.548L442.699 144.488L442.819 144.608L442.998 144.847L443.058 145.266L442.998 145.865V146.044L442.938 146.164L442.819 146.284L442.52 146.523L442.34 146.762V146.942L442.52 147.062L442.819 147.181H442.998L443.357 147.002H443.596L443.896 147.121L444.195 147.301L444.254 147.48V147.66L444.195 147.78L444.015 148.079L443.896 148.199L443.596 148.318L443.417 148.438L443.178 148.618L443.058 148.917L442.938 149.635L442.998 149.934L443.118 150.174L443.297 150.233H443.537L444.374 150.114L444.554 150.174L444.972 150.473L445.152 150.533H445.391L445.87 150.473L446.109 150.533L446.229 150.652L446.169 150.772L446.109 150.952L446.169 151.49Z" fill="#009649" stroke="white" stroke-width="2" stroke-linejoin="round" data-country-region="East Region"></path>
<path class="region" d="M353.026 259.934L353.325 261.849L353.146 262.328L352.966 262.388L351.411 262.507H351.172L350.813 262.627L349.975 263.046L349.317 263.226L348.001 263.944L347.821 264.123L347.762 264.363V264.542L347.821 265.26L348.061 266.098L348.121 266.457V266.757L348.061 266.936L347.762 267.594L347.582 267.774L347.343 267.714L347.223 267.654L347.104 267.475L346.804 266.038L346.745 265.021L346.804 263.285L347.343 259.635L347.283 256.702L347.343 256.283L347.762 254.428L347.821 253.949L347.762 253.65L347.702 253.411L347.582 253.231L347.163 252.573L347.044 252.214L346.924 251.615L346.984 251.017V250.538L346.864 250.119L346.745 249.88L346.565 249.7L346.386 249.64L346.146 249.939L345.967 250.179L345.548 250.897L345.369 251.017L345.07 251.077L344.771 251.196L344.591 251.555L344.352 251.974L344.112 252.333L343.933 252.513L343.754 252.633L343.454 252.692L342.856 252.573H342.557L342.437 252.692L342.079 253.051H341.899L341.72 252.992L341.42 252.692L341.241 252.573L341.062 252.633L341.002 252.752L340.882 253.111L340.703 253.59L340.643 254.009L340.583 254.129L340.224 254.488L340.045 254.667L339.985 254.967L339.865 255.386L339.805 255.745L339.865 256.523V256.702L339.805 256.762H339.626L339.327 256.583L339.207 256.343L339.147 256.104L339.087 255.625L338.429 251.017L337.891 249.939L337.532 249.76H337.293L336.934 249.7L335.677 249.161L335.438 248.982L335.259 248.802L335.139 248.383V248.084V247.785L335.199 247.366L335.498 246.349L335.558 245.81L335.737 243.057L335.857 242.099L335.737 239.167V238.509L335.677 236.115L335.797 235.157L336.036 234.379L336.276 232.105L336.216 231.925L336.096 231.746L335.917 231.686L335.797 231.746L335.618 231.806L335.498 231.925L335.019 232.883L334.66 233.362L334.361 233.661L333.943 233.84L333.763 233.9H333.643L333.464 233.84L333.225 233.721L333.045 233.541L332.806 233.302L332.567 232.943L332.447 232.643L332.387 232.404V232.165V231.985L332.507 231.806L333.225 230.489L333.344 230.13L333.404 229.711V229.531L333.285 229.352L333.165 229.232L332.447 228.813L331.968 228.454L331.55 228.095L331.191 227.616L331.131 227.317L331.191 227.018L331.43 226.479L331.789 225.581L331.849 224.983L331.729 224.803L330.652 224.684L327.9 225.282H327.542L325.866 225.941L325.268 226.479L324.311 227.856L323.713 228.514L323.055 229.112L322.457 229.591L321.2 229.89L320.542 229.771L315.039 230.19L314.321 230.369H313.782L313.543 229.95L312.526 229.89L312.705 229.651L312.586 229.053L311.449 225.761L310.672 221.632L310.731 220.734L311.03 218.879V217.023L311.27 215.168L311.33 214.21L311.21 213.313L310.253 210.859L309.834 208.944L310.013 207.148L310.731 205.533L311.808 204.096L312.586 203.617L314.081 203.079L314.739 202.54L316.714 199.608L317.132 198.77L317.252 198.231L316.893 196.735L316.833 195.957L316.714 195.658L316.474 195.478L316.175 195.358L315.816 195.119L315.577 194.82L315.398 194.461L315.338 193.623L315.697 193.024L316.953 192.067L317.85 190.81L318.807 190.092L319.047 189.912L319.406 188.596L318.688 183.868L319.406 182.372L320.423 181.115L321.619 180.277L323.115 180.097H323.892L325.029 179.918L325.388 179.978L325.747 180.157L326.046 180.217L326.704 180.037L328.439 178.781L329.875 178.541L332.327 179.798L333.883 179.678L336.694 178.003L337.053 177.883L338.07 178.003L338.549 177.823L338.848 177.404L340.045 175.07L340.523 174.891L341.361 175.19L342.198 175.25L342.916 174.831L349.138 169.564L349.377 168.128L348.838 166.751L346.864 164.537L346.685 164.178L346.386 163.52L346.146 163.28L345.129 162.921L344.83 162.742L344.352 162.083L343.993 161.245L343.873 160.407L343.933 159.57L344.711 156.757V155.68L344.591 155.44L344.292 155.201L343.694 154.901L343.335 154.662L343.155 154.423L342.976 153.705L342.617 151.969L342.258 151.49L340.703 151.789L338.728 150.892L337.293 150.712L336.754 150.353L336.335 149.515L336.096 148.617L335.737 147.959L334.9 146.702L334.541 145.984L334.062 144.308L333.763 143.71L332.686 142.633L332.447 141.974L332.926 141.316L333.584 140.658L333.643 139.999L333.524 139.341L333.584 138.623L334.242 137.965L335.199 137.665L337.173 137.366L338.369 137.426L346.326 140.239L348.42 140.418L349.736 141.077L350.394 141.256L353.385 141.376L356.376 142.034L357.513 142.094L362.478 141.376L367.443 141.436L370.076 140.957L370.734 139.64L370.853 139.042L371.212 138.982L372.229 139.281L372.887 139.341L373.426 139.162L373.844 138.743L374.323 138.144L375.041 137.905L376.836 137.486L377.434 136.947L377.613 136.109L377.494 135.391L377.434 134.673L377.853 133.775L378.87 132.638L379.109 132.04L379.169 130.962L379.049 130.065L378.69 128.509V127.671L379.767 124.559L379.647 123.482L377.015 121.985L375.878 120.908L374.802 119.591L374.084 118.454L373.725 117.616L373.486 116.599L373.545 115.641L373.964 114.863L374.622 114.564H375.4L376.895 114.804L377.553 114.445L377.972 113.547L378.092 112.47L377.972 111.512L377.673 110.554L377.733 109.836L378.092 109.298L380.724 107.203L382.1 106.425L382.638 105.946L384.553 103.133L385.091 101.637L385.809 100.261L387.125 99.2432L391.552 97.4478L391.612 97.5675L392.15 98.4652L393.407 100.081L393.526 100.141L394.244 100.56L395.022 100.68L395.44 100.859L395.74 100.919L395.859 101.099L395.919 101.517L396.039 101.817L396.158 102.056V102.355L396.278 102.655L396.398 102.894L396.517 103.253V103.492L396.457 103.852L396.577 103.971L397.235 104.57L397.714 104.809L397.953 104.869H398.252L399.808 103.971L400.406 103.732H400.585L400.825 103.672L402.141 103.911L402.38 103.971L402.619 104.091L403.098 104.27H403.337L403.696 104.211L403.816 104.33L403.995 104.45L404.175 104.929L404.354 105.168L404.534 105.467V105.587L404.354 105.707L404.115 105.767L403.995 105.886L403.636 106.425L403.517 106.545L403.397 106.604H403.158L403.038 106.724L402.978 106.784L403.038 107.083L403.158 107.323L403.217 107.622L403.277 107.981V108.52L403.038 109.896L402.26 110.495L402.021 110.435L401.842 110.315H401.722L401.363 110.614L400.765 111.273L400.585 111.452H400.466L400.286 111.632H400.166L400.047 111.871L399.927 112.23L399.628 113.607L399.568 113.906L399.628 114.385L399.449 114.564L398.731 115.402L399.269 117.138L399.209 117.377L399.389 117.796V118.095V118.335V118.634L399.568 118.694L399.808 118.754H400.047L400.166 118.694L400.346 118.873L400.645 119.831L400.346 119.95L399.987 120.25L399.688 120.31L399.329 120.729L399.269 121.207L399.149 121.387L399.209 121.566L399.329 121.806L399.149 121.925L398.91 122.105L398.671 122.225L398.432 122.165L398.133 122.285L398.073 122.404L398.013 122.823V123.003L398.073 123.362V123.482L397.953 123.601L397.714 123.541L397.594 123.482L397.415 123.242L397.235 123.122H397.056L396.876 123.003L396.757 123.063L396.278 123.601L395.979 123.841L395.74 124.02L395.68 124.2L395.74 124.499L395.56 124.738L394.842 125.337L394.782 125.397V125.576L394.902 125.935L394.723 126.713V126.833L394.902 126.953L394.962 127.132L394.842 127.611L394.663 127.731L393.646 128.628L393.287 129.287L392.09 130.244L391.911 130.364L391.791 130.484L391.133 130.903L390.954 131.082V131.142L390.774 131.381L387.963 132.159L387.783 132.339L387.723 132.518L387.783 132.818V132.997L387.664 133.237L387.723 133.356L387.903 133.476L388.142 133.596L388.441 133.656L388.501 133.715L388.8 133.955L388.98 134.075L389.099 134.374V134.793V135.032V135.152L388.92 135.271L388.68 135.511L388.621 135.81L388.68 135.87L389.099 136.468L389.159 136.648L389.339 137.546L389.398 138.024L389.279 138.264L389.099 138.683L389.039 138.862V139.341L388.98 139.76L389.039 139.94L389.099 140.299L389.398 140.897L389.638 141.137L389.937 141.376L390.236 141.675L390.475 142.094L390.774 142.633L390.954 143.65V143.89L390.894 144.787V145.086L390.954 145.206L391.073 145.386L391.552 145.864L392.928 146.882L393.287 147.241L393.526 147.54L393.586 147.78V148.019L393.526 148.737V149.096L393.586 149.336L393.885 150.533L394.124 151.011L394.184 151.191L394.304 151.251L394.723 151.37H395.141H395.44L397.175 151.071L399.269 149.994L400.406 149.156L400.884 148.677L401.662 147.301L401.842 146.822L402.021 146.463L402.141 146.403L402.26 146.343L402.44 146.463L402.619 146.702L402.918 147.66L403.098 148.019L403.277 148.258L403.696 148.617L403.995 148.737L404.234 148.857L405.491 149.096H406.448L406.568 149.156L406.687 149.276L406.807 149.695L406.687 150.054L406.568 150.353L405.431 151.969L405.251 152.328L405.012 152.687L404.234 153.585L404.115 153.944L404.175 154.183L404.294 154.243L405.551 155.141L405.969 155.44L406.089 155.68L406.029 155.979L405.909 156.098L405.61 156.338L405.251 156.458L403.995 156.936L403.576 157.116L403.098 157.535L400.944 158.792L399.987 159.27L399.209 159.39L397.654 159.151L396.816 158.851L396.457 158.672L396.218 158.492L395.979 158.193L395.919 158.073L395.979 157.894L396.099 157.714L396.278 157.595L396.697 157.355L397.953 156.936L398.312 156.757L398.671 156.517L398.85 156.398L398.91 156.218L398.97 156.098V155.68L398.791 155.38L398.551 155.141L398.372 155.081H398.133L397.714 155.201L397.355 155.32L392.629 155.021L392.09 154.901H391.911H391.612L390.834 155.141L389.279 155.201L388.86 155.32L388.561 155.5L388.322 155.799L388.082 155.859H387.843L387.424 155.62L387.185 155.44L386.886 155.141L386.288 154.722L384.493 153.824L383.655 153.226L383.057 152.567L382.938 152.448L382.758 151.969L382.698 151.789L382.519 151.67L382.339 151.61H382.16H381.921L381.801 151.55L381.203 151.131L380.963 151.011L380.305 150.772H380.126L379.946 150.832L379.887 151.071V152.867L379.946 153.106L380.425 154.363L380.485 154.901L379.109 155.38L378.69 155.68L378.511 155.799L378.331 156.039L378.211 156.278L378.271 156.577L378.391 156.637L378.87 156.876L378.989 156.996L379.049 157.176L378.989 157.295L378.81 157.355L377.374 157.714L376.955 157.894L376.656 158.073L376.297 158.373L375.938 158.672L375.161 159.031L374.861 159.091L368.939 158.492L368.341 158.253L367.144 157.475L366.486 157.535L366.247 157.714L366.067 157.954L365.529 159.211L365.409 159.869L365.35 160.048V160.348L365.469 160.767V161.126V161.365L365.35 161.604L365.23 161.724L364.931 161.784L364.572 161.844L363.495 162.263L362.837 162.323L362.059 162.382L361.76 162.442L361.461 162.682L360.444 163.938L360.085 164.178L359.846 164.298L359.487 164.357L358.949 164.298L358.53 164.357L358.111 164.417L357.573 164.477L356.974 164.657L356.795 164.716L356.316 165.076L356.137 165.375L356.017 165.854V166.033L356.077 166.213L356.257 166.452L356.735 166.871L357.932 167.589L358.35 167.769L358.59 168.188L358.949 169.804L359.846 171.12L360.384 171.36L360.683 171.479L360.983 171.539H361.401H361.641L362.777 172.018L363.017 172.078H363.435L363.675 172.138L363.854 172.197L363.914 172.317L363.734 173.035V173.275L363.914 173.454L364.273 173.574L365.469 173.694H366.307H366.426L366.905 173.873H367.025H367.384H367.623L367.802 173.933L368.281 174.113L369.059 174.292L369.956 174.651L370.135 174.711L370.255 174.891L370.375 175.13L370.435 175.309L370.375 175.549L369.836 176.447L367.443 179.14L366.606 179.319L366.307 179.439L366.008 179.678L365.469 180.397L365.17 180.696L364.692 180.935L364.333 181.055L363.495 181.175L362.777 181.474L362.179 181.593L362 181.653L361.581 181.713H361.102L360.324 181.593L360.025 181.653L359.607 181.593L358.709 181.294L358.53 181.354L358.29 181.414L357.752 181.833L357.273 182.312L356.974 182.491L356.675 182.671L356.556 182.79L355.718 185.663L355.479 186.142L354.462 187.578L353.385 189.733L353.026 190.212L352.787 190.511H352.488L352.368 190.571L352.248 190.87L352.189 191.109V193.204L352.308 194.461L352.248 194.76V195.059L352.069 195.718L352.129 195.837L352.189 195.897L352.548 195.957L352.727 196.017L353.325 196.974L359.607 204.934L359.906 205.772L360.025 206.251L359.966 206.43L359.786 206.61L359.427 206.849H359.128H358.949L356.496 205.413L356.197 205.293H355.778L355.539 205.353L355.359 205.413L355.18 205.712L354.94 206.251L354.581 207.208L354.402 207.867L354.223 208.345L353.983 208.764L353.206 209.722L352.009 210.799L351.83 210.979L351.052 212.235L350.872 212.475L349.915 213.313L349.138 213.851L348.719 214.031L348.42 214.091H348.061L347.642 213.911H347.463L346.326 214.031L346.087 214.091L345.847 214.21L345.668 214.39L345.429 214.629L345.07 215.527L344.591 216.185L344.352 216.544L344.172 216.724L342.737 217.622L341.839 218.4L341.48 218.819L341.002 219.417L340.942 219.776L340.822 220.435V220.674L340.942 220.913L341.959 222.469L342.497 223.966L342.856 225.581L343.215 226.359L344.651 227.616L346.087 232.284L346.146 232.763L346.206 233.9V234.259L346.087 234.918L345.967 235.456V235.636L346.326 238.09L346.386 238.389L346.984 239.346L353.026 259.934Z" fill="#009649" stroke="white" stroke-width="2" stroke-linejoin="round" data-country-region="East Region"></path>
<path class="region" d="M347.103 267.475L346.624 275.973L347.043 277.23L347.103 277.828L347.043 278.247L346.863 278.487L346.624 278.606L345.966 278.666L345.727 278.786L342.676 282.915L342.556 283.035L342.377 283.095L341.479 283.155L341.24 283.215L341.001 283.574L340.702 284.232L340.462 285.369L340.403 285.968V286.327L340.462 286.506L340.881 287.165L340.941 287.404L341.001 287.643L340.881 288.062L340.702 288.541L337.531 293.987L337.112 295.184L336.753 297.458L336.095 300.092L335.856 300.69L335.677 301.049V301.349L335.856 301.588L336.035 301.708L336.394 301.827L336.574 301.947L336.634 302.127L336.694 302.306V303.204V303.503L336.753 303.802L336.873 303.922H336.993H337.112L337.232 303.802L337.591 303.144L337.711 303.024L338.01 302.785L338.249 302.605L338.548 302.545H338.907L339.326 302.665L339.565 302.725L339.744 302.845L339.864 303.024L339.804 303.563L339.625 304.401L338.668 306.256L338.428 306.615L338.01 306.974L337.471 307.513L337.292 307.872L337.112 308.351L336.933 309.129L336.873 309.607V310.625L336.394 312.181L334.42 316.251L332.685 320.739L332.326 321.397L331.968 321.816L331.309 322.355L330.412 322.953L330.173 323.193L329.036 325.108L328.258 325.766L325.985 326.185L325.327 326.425L324.669 326.724L324.37 326.963L324.191 327.203L323.712 327.921L323.592 328.4L323.473 328.998L323.413 330.195L323.533 331.631L322.456 336.838V337.317L322.575 337.556L322.695 337.736L323.054 337.856L324.609 338.035L325.028 338.155L325.208 338.274L325.507 338.454L325.746 338.693L325.925 338.993L326.045 339.232V339.651V340.249L325.925 341.327V341.805L325.985 342.105L326.763 343.302L326.883 343.421L327.002 343.481H327.122L327.301 343.421L327.421 343.302L327.6 343.062L327.9 342.823L328.199 342.643L328.558 342.584L328.677 342.643L328.857 342.763V343.242L328.797 343.96L327.541 350.304L327.062 351.142L326.823 351.441L326.583 351.62L326.105 351.86L325.806 352.099L325.566 352.339L325.088 352.817L323.293 355.81L322.456 356.767L321.977 357.246L320.96 358.024L320.781 358.144L320.601 358.383L320.422 358.862L320.182 359.58L320.003 360.657L319.943 361.196V361.495L320.123 361.854L320.362 362.154L320.721 362.513L320.84 362.632L320.96 362.872L321.02 363.111L320.84 363.889L318.807 368.677L317.969 370.113L317.012 371.37L316.713 371.61L316.473 371.849L315.815 372.148L314.439 372.687L314.2 372.807L314.021 372.986L313.841 373.285L313.722 373.585L313.662 373.884V374.123L313.722 374.363L315.636 377.355L310.73 377.475L293.202 378.253L286.861 377.834L283.092 378.372L282.015 378.731L281.776 378.791L281.537 378.971L280.998 379.45L280.759 379.749L278.905 382.801L278.665 383.1L278.486 383.22L278.187 383.4L275.016 384.776L273.341 385.973L272.683 386.691L264.607 392.975L263.47 394.292L261.855 396.805L252.942 400.815L248.156 402.072L244.028 402.67L242.592 403.448L242.114 404.227L240.379 408.416L237.806 411.767L235.354 416.196L234.875 417.273L234.576 418.051L234.396 419.428L233.021 425.472L232.781 427.387L232.721 428.824L233.14 432.893L233.379 450.249L233.499 453.661L233.738 455.636L234.097 457.491L234.456 458.329L243.848 475.984L244.207 477.42L244.327 478.557L243.729 482.208V482.986L243.968 485.14V486.218L243.789 487.474L243.37 488.911L241.515 493.938L241.037 494.776L239.84 496.093L238.524 497.708L237.986 498.786L237.747 499.444L237.507 499.803L237.208 500.042L236.191 500.581L235.892 501L234.038 504.411L233.798 504.89L233.738 505.309V505.548L233.918 506.386L233.978 506.805L233.918 507.224L233.738 507.703L232.841 510.157L232.602 510.576L232.362 510.875L230.568 512.371L229.312 513.927L228.953 514.406L228.773 514.825L228.713 515.064V515.304L228.773 516.022L228.713 516.321L228.534 516.979L228.175 517.638L227.397 518.655L226.5 519.672L226.021 520.032L225.543 520.271L225.064 520.45L223.569 520.63L223.389 520.69L223.15 520.75L222.671 521.049L216.868 525.777V525.538L216.031 525.059V523.503L216.629 520.391L216.689 517.937L216.868 517.159L217.227 516.501L217.885 515.543L218.125 514.885L218.065 514.047L217.526 512.73L217.347 512.012L217.108 511.653L215.732 510.456L215.193 510.157L214.775 509.857L212.86 507.942L211.604 507.164L211.125 506.506L211.305 505.668L212.262 505.967L212.681 505.13L212.561 504.052L211.724 503.514L211.185 502.795L210.886 501.359L210.467 500.282L209.809 500.701L209.749 500.461L209.63 500.282L209.57 500.102L209.091 500.282L208.852 499.983L208.732 499.444L208.553 499.025L207.297 497.649L206.998 496.99L206.1 497.289L205.203 497.23L204.665 496.751L204.724 495.853L204.126 496.332L203.408 496.571L202.092 496.751L201.673 496.691L200.896 496.452H200.417L200.297 496.511L200.058 496.751L199.759 496.93L198.443 497.23L197.665 497.649L197.067 498.307L196.648 499.025L195.99 500.461L195.751 500.701L195.392 500.82L194.973 501.18L194.614 501.658L194.375 502.017H195.392L198.323 501.539L198.742 501.359L199.161 501.06L199.699 500.342L199.939 500.162L200.118 500.102H200.297L200.477 499.983L200.417 499.743L200.357 499.444L200.417 499.264L201.195 498.965L202.331 498.786L203.289 498.845L203.767 499.145L203.887 499.564L204.306 499.803L204.784 499.923L205.203 500.102L205.562 500.461L206.1 501.359L206.519 501.778L207.057 501.359L207.716 501.18L208.433 501.299L209.032 501.778L207.775 502.915L209.271 503.873L209.749 504.531L209.271 505.13L208.732 505.07L208.074 504.651L206.998 503.753L204.186 502.436L202.391 502.017L201.195 502.377L200.178 502.137L198.981 502.436L197.785 502.915L196.768 503.155L193.478 503.214L191.085 503.873L188.153 504.351L186.538 504.292L185.701 504.351L184.444 505.01L183.547 505.249L182.291 505.967L180.735 506.267L178.821 507.224L178.103 507.344L177.266 507.284L172.061 505.788L171.283 505.668L170.506 505.848L169.668 506.207L168.831 506.446L168.173 506.267L168.352 506.087L168.651 505.429L167.455 505.489L166.438 505.668L165.6 506.027L164.823 506.506L163.626 505.908L162.609 506.267L161.831 507.224L160.994 508.72L160.695 509.02L160.336 509.199L159.797 509.319H159.379L158.421 509.079L157.404 508.96L156.268 508.601L155.61 508.481H153.337L151.123 508.062L149.986 508.002L148.969 508.481L148.132 508.122L146.995 508.002L144.662 508.182L143.705 508.601L142.868 509.259L142.209 510.097L141.851 510.995L141.671 512.072V512.551L141.851 512.97L142.269 513.209L142.868 513.388L143.346 513.628L143.406 514.107H143.107L141.372 514.645H140.834L139.876 514.346H139.338L140.355 512.79V512.072L139.757 511.174L139.099 510.755L138.082 510.396L137.005 510.157H136.347L135.868 510.516L135.33 511.413L134.911 511.593H134.433L133.715 511.773L133.416 511.832L132.638 511.593L131.322 510.336L130.544 509.857L128.929 509.498L127.373 509.319L127.014 509.259L126.536 508.72L126.237 508.481L124.023 508.421L120.733 507.703V507.164L121.032 506.386L121.152 505.668L120.972 505.489L120.613 505.249L120.314 504.95L120.135 504.411L120.314 503.992L120.673 503.813L121.152 503.753H121.571L122.408 503.933L122.767 503.813L122.947 503.155L122.767 502.975L122.408 502.915H121.93L120.255 503.334L119.297 503.394L118.879 503.035L116.845 504.052L116.366 504.591L116.904 504.411L117.144 504.292L117.383 505.01L117.682 505.189L118.041 505.01L118.52 504.411H119.058L119.477 505.13L120.135 506.506L119.716 507.284L119.417 507.344H118.759L117.383 507.583L116.785 507.643L116.127 507.344L115.17 507.763L113.794 507.523L110.025 506.147L107.572 505.668L105.06 505.788L102.667 506.147L101.47 506.506L100.812 506.865L100.214 507.344L99.1969 508.481L98.6585 509.558L98.2397 509.798L97.7013 509.618L97.8808 510.276L98.1201 510.815L99.2567 512.192L99.4362 512.311L99.496 512.431V512.67L99.3763 512.97L99.2567 513.269L99.0772 513.448L98.8379 513.508L97.6415 513.269L95.5477 512.311L94.2914 512.132L91.719 512.431L91.1208 512.311L89.3859 511.593L86.993 510.875L85.6769 510.755L84.5403 510.995L82.267 512.251L81.4295 512.431L78.2589 512.132L71.9177 510.755L65.8157 510.576L63.0041 510.635L61.1495 510.875L60.671 511.713L60.7906 512.311L61.5683 512.67L60.8504 512.97L59.8933 512.67L58.8165 512.97L57.7396 513.568L57.0218 514.107L56.603 514.526L56.1843 515.064L55.945 515.723L56.0646 516.321L56.5432 516.8L57.3209 516.979L57.7995 517.279L57.5602 517.817H56.0646L54.2101 517.757L52.9538 517.398L53.8512 516.68L54.0306 516.501L54.2699 516.321L54.569 516.141L54.928 516.201L55.1673 516.082L55.2869 515.603L54.7485 514.585L54.5092 513.867L53.6717 513.269L52.894 512.79L51.877 512.67L50.6207 512.431L48.8859 512.491L47.3305 513.029L46.493 513.388L46.0742 514.166L45.7153 514.825L46.2537 515.244L46.4331 516.201L46.7921 516.56L47.151 517.039L46.3135 517.279L44.8777 517.219L43.1429 516.979L40.9294 516.919L39.1347 517.219L38.7758 517.997L38.5963 518.356L38.2972 518.655L37.9383 519.852H37.4597L36.7418 520.331L35.8445 520.69L34.5284 520.869L33.5712 520.51L33.2123 519.852L33.4516 519.014L33.8105 518.595L33.5712 517.997L33.6909 517.697L34.2891 517.159L34.7079 516.68L34.8275 516.441V515.902L34.9471 515.483L35.4257 514.765L35.6052 514.346L35.5454 513.748L35.4257 513.628L35.1864 513.748L34.9471 513.807L34.8275 513.927L34.5284 514.226L34.2891 514.346L34.1096 514.286L33.631 513.927L33.4516 513.807L32.973 513.748L32.7935 513.568L32.5542 513.388L32.2551 513.209H31.8364H30.6399L30.0417 513.089H29.6827L29.264 513.209L28.3666 513.149L29.5631 509.798L29.7426 506.326L30.0417 502.257L30.4006 496.392L30.5203 495.793L30.7595 495.374L31.298 494.836L31.5372 494.536L31.5971 493.1L31.2381 491.484L31.0587 489.988L31.8364 488.911L32.6141 488.731H33.2721L33.9302 488.612L34.5284 487.893L34.7079 487.175L35.5454 480.951L35.9043 478.378L36.2034 476.163L36.5624 473.65L36.8615 472.393L37.3999 471.256L38.2972 470.597L42.7241 469.341L44.0402 468.443L44.7581 468.084L45.476 467.844L47.0314 467.605L47.3305 467.186L47.5099 466.169L48.1082 465.151L49.4841 465.331L51.1591 465.929L52.5351 466.109L53.3128 465.69L53.2529 465.091L52.894 464.373L52.7145 463.416L52.9538 462.877L54.1503 461.74L54.5092 461.022V460.782L54.3297 460.543L54.2101 460.304L54.3297 459.945L54.5092 459.645L54.8681 459.406L55.586 459.107L55.8851 458.927L56.3637 458.628L56.6628 458.448H57.0218H57.7995L58.1584 458.389L58.3977 458.149L58.6968 457.611L58.9361 457.431L59.295 457.311L65.4568 456.653L66.2345 456.414L66.5336 456.174L66.8327 455.815L67.1318 455.636L67.5506 455.695L67.9694 455.935H68.2685L69.4051 455.695L69.7042 455.576L70.0033 455.396L70.2426 455.217L70.6016 454.498L70.9007 454.139L71.3194 454.02L73.832 454.08L80.0536 454.259L81.4893 454.498H82.9251L84.0019 454.259L84.3608 454.319L84.6599 454.439L84.959 454.618L85.1983 454.798H85.6171L86.3948 454.02L86.8135 452.344L87.1127 446.359L87.3519 445.701L87.9502 445.402L89.5056 445.162L90.044 444.624L90.1636 443.846L89.8645 443.187L89.3859 442.529L89.027 441.751L88.8475 437.083L88.9073 436.604L89.0868 436.185L89.4457 435.646L89.6252 435.228L89.9842 434.509L90.702 434.21H91.5395L92.1378 434.45L90.8815 431.697L90.4029 430.919L89.9842 430.44L89.6252 430.26L88.7279 429.901L88.3091 429.662L87.3519 428.764L86.9332 428.644L86.5144 428.584L84.5403 429.243H84.0617L83.4635 429.183L82.4465 429.243L80.5321 429.841L79.575 430.021L77.4214 430.44L76.4044 430.5L75.2677 430.2L74.3704 429.722L74.0713 429.662L73.832 429.722L73.3534 429.961L73.0543 430.021L72.5159 429.722L70.9007 428.285L71.4989 428.225L71.8578 427.926L72.0373 427.507L72.2168 426.909L72.2766 426.25L72.0971 425.772L71.3792 424.874L73.3534 420.505L73.5329 418.769L73.3534 416.615L72.9945 412.785L72.815 410.69L72.2766 404.825L71.3194 400.815L70.6614 397.943L71.2596 393.215L71.798 388.906L71.6185 387.409L70.781 386.931L64.7389 388.187L64.021 387.709L61.688 385.195L61.1495 384.237L60.9103 383.519L60.671 383.1L60.2522 382.861L59.654 382.681L59.0557 382.322L58.6968 381.844L58.3379 381.245L57.9191 380.766L56.9021 380.228L52.0565 379.21L49.0055 377.834L47.8091 377.594L45.3563 377.355L44.2197 377.056L42.4848 376.038L40.2714 375.38L39.6133 375.021L38.4169 373.644L36.0838 371.49L34.5882 369.515L30.7595 366.044L29.6827 364.727L28.6059 362.393L27.5889 361.196L27.4095 360.598L27.2898 359.879L27.1104 359.042L25.4951 355.451L25.196 355.032L24.7773 354.673L24.2987 354.493L23.9996 354.254L23.9397 354.014L24.0594 353.775L24.6576 353.117L24.7773 352.758L24.6576 352.398L24.2987 352.099L23.7005 351.8L23.4013 351.202L23.2219 350.483L22.8031 349.885L22.4442 349.646H22.0852L21.7263 349.526L21.3674 349.047L21.1879 348.568L21.0682 347.551L20.9486 347.072L20.47 346.354L19.3334 345.037L18.9744 344.14V343.362L19.3932 341.865L19.453 341.027L19.1539 339.95L18.4959 339.471L17.7182 339.172L17.0003 338.574L13.9493 334.983L11.0778 331.512L8.32598 328.16L5.87325 325.288L3.95892 322.953L0.967773 319.422L2.10441 319.961L4.73661 320.799L13.9493 323.791L20.1111 325.766L23.162 326.784L26.213 327.801L29.3238 328.759L32.3748 329.776L38.4767 331.751L41.5875 332.709L44.6384 333.726L47.6894 334.743L50.8002 335.701L53.8512 336.718L57.3209 337.796L61.1495 338.574L66.8327 338.035L72.2168 337.496L74.0115 337.317L75.866 337.137L81.25 336.659L84.8394 336.3L86.6939 336.12L90.2833 335.761L101.35 334.743L109.427 336.3L116.187 337.616L120.374 339.471L121.391 339.052L122.767 336.419L123.605 335.282L124.861 334.624L134.851 331.631L142.449 331.751H147.474L153.576 332.888L155.43 332.948L160.755 331.392L162.908 330.734L167.156 329.477L171.463 328.22L175.71 326.963L182.171 325.108L184.265 324.45L186.419 323.851L188.572 323.193L190.726 322.594L192.82 321.936L198.144 320.38L201.075 318.285L202.032 316.969L202.81 315.652L202.989 315.532L203.348 315.413L203.468 315.233L203.169 314.814L202.032 313.976L200.537 312.42L199.221 311.523L198.981 310.924L199.101 310.266L199.639 308.65L202.032 303.802L202.152 302.964L202.092 300.391L202.75 294.705L202.69 293.868L202.451 292.97L202.212 292.431L201.314 291.294L200.656 289.559L200.776 287.703L204.425 273.938L204.724 273.34L205.382 272.981L210.348 271.963L211.185 271.604L214.655 268.013L215.373 266.996L216.569 262.148L217.467 261.55L218.902 261.31L219.86 260.592L220.697 259.635L221.834 258.677L224.286 257.42L225.662 257.001H227.816L228.354 257.241L228.654 257.839L228.713 258.857L228.654 259.156L228.414 259.455L228.295 259.695V260.054L228.594 260.293L229.072 260.413L229.91 260.592H230.628L232.063 260.233H232.781L233.559 260.413L234.875 261.191L235.653 261.43L236.251 261.55L238.165 261.43L240.498 261.67L241.216 261.49L243.729 260.413L245.942 260.114L247.318 259.515L249.292 259.156L249.95 258.917L252.284 257.42L252.762 256.942L253.3 256.583L253.899 256.403L255.394 256.463L255.933 256.164L256.292 255.386L256.172 253.59L254.796 253.111L251.745 253.53L251.027 253.351L250.309 252.872L249.771 252.214L249.532 250.538L249.053 249.82L248.515 249.161L248.275 248.503L248.754 247.725H249.891L252.284 248.264L253.42 248.144L254.557 247.665L256.531 246.229L258.804 243.655L259.821 243.177H260.36L261.436 243.356L262.932 243.237L263.351 243.057L263.769 242.459L264.368 241.92L266.342 240.843L266.521 240.543L266.641 239.646L266.82 239.227L268.077 238.149L268.436 237.371L269.213 235.516L269.692 234.978L270.47 234.918L271.427 235.217L272.205 235.696L273.162 236.474L273.521 237.012L273.999 237.491L274.837 237.611L276.272 237.551L277.708 237.671L281.597 239.047L282.973 239.287L283.571 239.047L284.408 238.568L284.887 238.03L284.528 237.671L283.81 237.551L281.597 237.611L280.819 237.491L280.161 237.192L280.041 236.773L280.759 236.175L282.374 235.337L283.212 235.037H284.049L285.306 235.516L287.4 236.713L289.493 237.132L289.972 237.371L290.211 237.91L290.331 239.646L290.57 240.304L291.527 241.441L293.262 243.895L294.219 244.553L295.655 244.433L298.048 243.237L299.244 242.818L300.62 242.877L301.578 242.459L302.953 241.501L304.09 240.484L304.569 239.706L305.107 239.346L305.645 238.748L309.713 232.464L310.671 231.387L312.465 230.07L312.525 229.891L313.542 229.95L313.781 230.369H314.32L315.038 230.19L320.541 229.771L321.199 229.891L322.456 229.591L323.054 229.112L323.712 228.514L324.31 227.856L325.267 226.479L325.866 225.941L327.541 225.282H327.9L330.651 224.684L331.728 224.803L331.848 224.983L331.788 225.581L331.429 226.479L331.19 227.018L331.13 227.317L331.19 227.616L331.549 228.095L331.968 228.454L332.446 228.813L333.164 229.232L333.284 229.352L333.403 229.531V229.711L333.343 230.13L333.224 230.489L332.506 231.806L332.386 231.985V232.165V232.404L332.446 232.644L332.566 232.943L332.805 233.302L333.044 233.541L333.224 233.721L333.463 233.84L333.643 233.9H333.762L333.942 233.84L334.36 233.661L334.66 233.362L335.019 232.883L335.497 231.925L335.617 231.806L335.796 231.746L335.916 231.686L336.095 231.746L336.215 231.925L336.275 232.105L336.035 234.379L335.796 235.157L335.677 236.115L335.736 238.509V239.167L335.856 242.099L335.736 243.057L335.557 245.81L335.497 246.349L335.198 247.366L335.138 247.785V248.084V248.383L335.258 248.802L335.437 248.982L335.677 249.161L336.933 249.7L337.292 249.76H337.531L337.89 249.939L338.428 251.017L339.086 255.625L339.146 256.104L339.206 256.343L339.326 256.583L339.625 256.762H339.804L339.864 256.702V256.523L339.804 255.745L339.864 255.386L339.984 254.967L340.044 254.667L340.223 254.488L340.582 254.129L340.642 254.009L340.702 253.59L340.881 253.111L341.001 252.752L341.061 252.633L341.24 252.573L341.42 252.692L341.719 252.992L341.898 253.052H342.078L342.437 252.692L342.556 252.573H342.855L343.454 252.692L343.753 252.633L343.932 252.513L344.112 252.333L344.351 251.974L344.59 251.555L344.77 251.196L345.069 251.077L345.368 251.017L345.547 250.897L345.966 250.179L346.146 249.939L346.385 249.64L346.564 249.7L346.744 249.88L346.863 250.119L346.983 250.538V251.017L346.923 251.615L347.043 252.214L347.163 252.573L347.581 253.231L347.701 253.411L347.761 253.65L347.821 253.949L347.761 254.428L347.342 256.283L347.282 256.702L347.342 259.635L346.804 263.285L346.744 265.021L346.804 266.038L347.103 267.475Z" fill="#009649" stroke="white" stroke-width="2" stroke-linejoin="round" data-country-region="West Region"></path>
<path class="region" d="M530.76 110.854L530.341 110.555H529.025L526.573 111.093L523.163 111.273L510.181 108.639L500.849 105.228L498.516 104.809L496.183 104.989L493.849 105.946L491.098 108.041L490.14 108.52L484.278 109.537L483.799 109.777L482.722 110.674L482.603 111.692L482.902 112.889L482.962 114.145L482.363 115.043L480.629 116.3L480.03 117.317L479.971 118.993L479.791 119.532L479.492 119.891L478.535 120.429L478.176 120.729L477.578 121.686L477.398 122.823L477.637 123.901L478.475 124.798L479.372 125.337L480.27 125.696L481.227 125.816L482.244 125.696L483.38 125.816L483.979 126.594L484.816 128.808L485.295 129.646L485.594 130.604L485.474 131.501L484.816 132.16L482.603 133.357L481.765 134.254L481.406 135.631L481.765 136.947L482.603 138.144L483.68 138.922L484.816 139.162L487.329 138.503L488.047 138.563L490.021 139.281L491.337 139.162L492.773 138.863L494.089 138.803L495.225 139.641L495.704 141.077L495.345 142.513L494.507 143.77L493.491 144.787L492.234 145.685L490.918 146.284L486.97 147.002L486.072 147.78L484.816 150.054L484.577 150.593L484.397 151.191L484.278 151.73L484.218 153.046L484.278 153.705L484.517 154.363L484.816 154.962L486.551 156.518L488.884 157.774L490.858 159.39L491.457 161.784L490.679 165.195L489.542 168.367L489.183 169.145L488.824 169.744L488.346 170.282L487.688 170.761L486.312 171.3L485.714 171.719L485.355 172.497L485.235 174.412L485.773 175.788L486.731 176.806L488.106 177.763L489.303 179.02L491.337 181.833L492.713 182.611L496.123 183.21L497.14 183.868L497.558 184.825L497.618 187.04L498.097 189.314L497.977 190.212L497.558 191.05L497.319 191.349L485.056 184.945L484.816 184.646L484.039 183.329L483.859 183.09L483.56 182.791L482.962 182.432L482.244 182.312H480.988L480.509 182.432L480.15 182.551L479.372 182.91L479.133 183.03L478.535 182.91L477.338 182.252L476.979 181.594L475.783 180.876L473.629 179.858L472.433 179.08L471.775 178.123L472.612 177.285L472.553 176.806L472.792 176.507L472.911 175.968L472.971 175.489L472.732 175.01L472.433 174.771L471.715 174.292L471.595 174.053L471.536 173.754L471.476 173.395L471.296 173.335L470.997 173.454L470.758 173.574L470.459 173.514L470.339 173.574L470.219 173.514L470.16 173.095H470.279L470.578 172.976L470.818 172.856L470.937 172.736L470.877 171.898L470.758 171.001L470.698 170.223L470.937 169.445L471.057 168.906L470.877 168.487L470.459 167.948L470.04 167.29L469.98 166.512L470.279 165.973L470.698 165.435L471.057 164.118L471.416 163.879L471.775 163.819L471.954 163.699V163.22L471.894 162.921L471.775 162.562L471.476 161.126V160.707L471.595 160.408L471.835 160.288L472.074 160.168L472.194 159.749L472.134 159.031L471.835 158.193L471.476 157.415L471.057 156.877L470.04 155.979L469.92 155.62L470.16 155.021L470.04 154.722L470.1 154.303L470.758 152.927L470.937 152.328L470.877 151.49L470.758 150.652L470.519 149.934L470.04 149.276L469.741 148.079L470.279 144.847L470.16 143.351L467.946 139.042V138.982L467.587 136.349L466.869 133.596V132.878L466.929 131.322L466.869 130.544L466.271 127.372L465.733 126.773L465.613 126.354L465.314 125.756L463.818 123.542L463.579 122.644L464.118 121.626L464.297 121.088L464.536 120.19V119.951V118.574L464.596 118.395L464.656 118.275L464.835 117.856L464.955 117.617V117.437L464.895 116.3V116.061L464.955 115.881L465.135 115.582L465.194 115.402L465.254 115.283V114.864L465.314 114.445L465.434 114.265L465.553 114.086L465.912 113.906L467.049 113.727H467.408L468.185 113.906L468.485 113.846L469.681 113.248L469.98 113.188L470.339 113.128H470.698H470.937L471.117 113.248L471.296 113.667L471.416 113.966L471.595 114.205H471.775L472.014 113.966L472.373 113.248L473.151 111.093V110.854V110.614L473.091 110.375L472.792 109.956L472.732 109.777L472.672 109.537L472.732 109.358L472.792 109.118L473.928 107.443L474.108 107.083L474.407 106.126L474.646 105.587L474.945 105.288L475.304 104.929L476.082 104.271L476.501 104.091L476.74 103.971H477.458H477.697L477.877 103.852L478.176 103.732L478.894 103.193L479.013 103.134L479.791 102.954L481.406 103.134L481.586 103.014L482.304 102.475L482.603 102.355L482.842 102.116L483.081 101.817L483.38 101.398L483.739 100.979L483.979 100.799L484.278 100.68L484.876 100.62L485.295 100.5L486.132 100.201L486.312 99.9616L486.551 99.6624L486.79 98.8843L486.91 98.4654L487.209 98.1063L487.628 97.8071L487.748 97.6275L487.927 97.2685L488.047 96.8495L487.987 96.1912L488.047 95.7723L488.106 95.4132L488.465 94.9942L488.824 94.6352L489.243 94.3359L489.363 94.1564L489.423 93.9768L489.243 93.6776L489.064 93.4382L488.884 93.2587L488.465 93.0791L488.226 92.8397L488.106 92.5405V92.361L488.166 92.1216L488.465 91.4034L488.645 91.1041L488.944 90.8049L489.303 90.4458L490.26 90.1466L492.174 90.2064L495.584 90.6852L498.575 90.386L500.789 89.608L502.763 89.0693L503.66 89.189L504.857 89.8474L505.874 90.9845L506.831 92.5405L508.267 95.892L509.044 97.2685L510.002 98.2859L515.087 101.278L517.599 102.355L519.813 103.014H521.547L522.684 102.834L523.522 102.535L525.017 102.236L525.735 101.877L527.051 100.62L527.709 100.44L528.427 100.799L530.162 102.655L531.059 103.852L531.657 105.288L531.897 106.784L531.777 108.221L530.88 110.375L530.76 110.854Z" fill="#009649" stroke="white" stroke-width="2" stroke-linejoin="round" east="" data-country-region="East Region"></path>
<path class="region" d="M475.065 8.33478L474.945 9.2325L475.065 9.83097L475.125 10.0704L475.364 10.3098L475.543 10.4294L475.723 10.5491L476.022 10.6688L477.338 10.9082L477.757 11.0878L478.235 11.387L478.774 11.9256L480.868 13.362L481.286 13.7211L481.526 14.0203L481.645 14.6786L481.705 14.918L481.645 15.0976L481.526 15.5165L481.466 15.696V15.8756L481.526 16.0551V16.3544L481.466 16.5937L481.226 16.7134L481.047 16.7733L480.269 16.5937L479.551 16.2945L478.355 15.9354H477.936H477.817L477.099 16.4741L476.859 16.5339L476.68 16.4741L475.962 16.115L475.663 16.0551L475.424 15.9953L475.184 16.115L474.467 16.7733L474.048 17.0127L473.808 17.0725H473.629L473.21 16.8331L472.971 16.7733L471.954 16.8331L471.774 16.7733L471.595 16.7134L471.416 16.5339L471.236 16.2347L470.877 15.7559L470.757 15.6362H470.578L470.099 15.9354L469.86 15.9953H469.681L469.382 15.8157L469.202 15.7559H468.783L468.006 15.8157H467.766L465.553 15.0976L464.656 14.918L464.177 14.8582L460.408 16.2945L459.75 16.4741H459.391L458.793 16.4142L457.776 16.4741L456.879 16.7134L456.699 16.6536L456.52 16.5339L455.921 15.9354L455.563 15.696L455.323 15.6362L455.144 15.7559L454.067 16.5937L453.648 16.8331L452.392 17.1324L451.674 17.1922L451.554 17.3119L451.435 17.4915L451.495 17.9104L451.554 18.9278L451.674 19.5263L452.272 21.0225L452.332 21.4414V21.6808L451.973 22.3391L451.495 23.0573L451.375 23.2967L451.255 23.8952L451.136 24.1944L450.836 24.6133L450.597 24.8527L450.358 25.0323L448.444 25.8103L448.204 25.93L448.085 26.1095V26.2292L448.144 26.4686L448.384 26.9474L448.444 27.1868L448.384 27.5459L448.264 27.7254L448.144 27.7852L447.187 27.9049H446.11L445.393 28.0246L444.974 28.2042L444.794 28.4436L444.735 28.6231L444.615 29.2216V30.4185L444.675 30.8973L444.615 31.1966L444.555 31.3761L444.316 31.7352L444.017 31.9746L442.88 32.214L442.581 32.3935L442.222 32.6329L440.906 34.3086L440.487 34.548L440.248 34.6677L439.709 34.8473L439.171 35.0866L438.453 35.6253L438.274 35.8048L437.496 36.9419L437.317 37.0018H437.077L436.12 36.6427L435.641 36.5828H435.342L434.864 36.7025L434.385 36.8821L433.847 37.2412L433.548 37.5404L433.249 37.8995L433.069 38.2586L432.89 38.498L432.77 38.7972L432.411 40.6525L432.291 41.3706V41.5502L432.351 41.7297L432.65 42.2085L432.71 42.4479L432.65 42.7471L431.693 44.0039L431.574 44.1835L431.454 44.6623V44.8418L431.574 45.141L431.693 45.5001L431.813 45.7994L431.932 45.9789L433.069 47.0562L433.308 47.3554L433.368 47.7145L433.667 48.4327V48.5524V48.7319L430.975 53.6992L436.12 55.9735L439.59 56.3924L441.145 56.6916H441.384L441.684 56.6318L441.803 56.5121L441.983 56.2128L442.102 56.0931L443.538 55.2553L443.837 55.1356L444.136 55.0159L447.786 54.8363L448.025 54.8962L448.324 55.0159L448.862 55.3151L449.161 55.4947L449.401 55.6144L449.999 55.8538H450.358H450.777L451.016 55.7939L451.195 55.7341L451.495 55.4947L451.794 55.0757L451.973 54.956H452.093L452.153 55.0757L452.272 55.3151L452.811 55.8538L453.229 56.2128L454.306 56.9909L454.486 57.1704L454.546 57.2901L454.486 57.4696L454.426 57.6492L453.708 58.3075L453.588 58.4272L453.529 58.6067L453.349 60.9408V61.2999L453.409 61.5991L453.469 61.8385L453.588 62.0181L453.828 62.2575L457.238 64.5915L457.656 65.0104L457.776 65.19L458.075 65.4294L459.511 66.4468L459.75 66.746L459.87 66.9256L460.049 67.4043L460.288 67.524L460.827 67.7036H460.947L461.664 67.6437H461.904L462.322 67.7036L462.622 67.8233L462.921 68.0627L463.1 68.2422L463.28 68.4218L463.459 68.9005L463.938 69.8581L465.134 69.2596L465.972 69.4392L467.407 70.5164L469.681 70.1573L472.014 70.0975L476.74 70.8157L477.278 71.055L477.458 71.7732L477.517 71.9528L477.637 73.808L477.757 74.2868L477.697 74.4065L477.637 74.5262L477.458 74.6459L477.099 74.7656L476.201 75.3042L475.603 75.783L475.484 76.0224V76.2019L475.244 76.6807L474.407 78.0572L474.287 78.2966L474.227 78.5958L474.287 79.0148L474.167 80.2716V80.6307L474.227 80.8102L475.304 82.7253L475.364 82.9647V83.1442L475.244 83.8026L475.184 84.042V84.2215V84.4609L475.424 84.8798L475.663 85.0594L475.783 85.1791H476.022L476.321 84.9995L477.039 84.2215L477.278 84.042H477.398H478.355L478.654 84.1018L479.073 84.2215L479.731 84.6404L480.449 85.4185L480.688 85.4783H480.868L481.526 85.2389L481.944 85.2988L482.902 85.6579L483.799 86.8548L483.978 86.9146L484.218 86.9745L484.517 86.8548L484.816 86.7351H485.354L485.594 86.795L485.773 86.9146L485.893 87.154L486.611 87.8722L486.85 87.9919L487.029 88.0518L488.585 88.2313H489.303L489.422 88.2911L489.482 88.4108L489.422 88.7101V88.8896L489.542 89.129L490.08 89.6078L490.26 89.907V90.1464L489.303 90.4457L488.944 90.8047L488.645 91.104L488.465 91.4032L488.166 92.1214L488.106 92.3608V92.5403L488.226 92.8396L488.465 93.079L488.884 93.2585L489.063 93.438L489.243 93.6774L489.422 93.9767L489.362 94.1562L489.243 94.3358L488.824 94.635L488.465 94.9941L488.106 95.413L488.046 95.7721L487.986 96.191L488.046 96.8493L487.927 97.2683L487.747 97.6274L487.628 97.8069L487.209 98.1061L486.91 98.4652L486.79 98.8842L486.551 99.6622L486.311 99.9614L486.132 100.201L485.294 100.5L484.876 100.62L484.277 100.68L483.978 100.799L483.739 100.979L483.38 101.398L483.081 101.817L482.842 102.116L482.602 102.355L482.303 102.475L481.585 103.014L481.406 103.133L479.791 102.954L479.013 103.133L478.893 103.193L478.176 103.732L477.876 103.852L477.697 103.971H477.458H476.74L476.501 104.091L476.082 104.27L475.304 104.929L474.945 105.288L474.646 105.587L474.407 106.126L474.108 107.083L473.928 107.442L472.791 109.118L472.732 109.357L472.672 109.537L472.732 109.776L472.791 109.956L473.091 110.375L473.15 110.614V110.854V111.093L472.373 113.248L472.014 113.966L471.774 114.205H471.595L471.416 113.966L471.296 113.667L471.116 113.248L470.937 113.128H470.698H470.339L469.98 113.188L469.681 113.248L468.484 113.846L468.185 113.906L467.407 113.726H467.048L465.912 113.906L465.553 114.085L465.433 114.265L465.314 114.445L465.254 114.863V115.282L465.194 115.402L465.134 115.582L464.955 115.881L464.895 116.06V116.3L464.955 117.437V117.616L464.835 117.856L464.656 118.275L464.596 118.394L464.536 118.574V119.951V120.19L464.297 121.088L464.117 121.626L463.579 122.644L463.818 123.541L465.314 125.756L465.613 126.354L465.732 126.773L466.271 127.372L466.869 130.544L466.929 131.322L466.869 132.878V133.596L467.587 136.349L467.946 138.982V139.042L467.587 138.862L467.407 138.683L467.168 138.563H466.929L466.63 138.802L465.972 139.162H465.732L465.493 139.341L465.314 139.521L464.596 140.658L464.476 140.897L464.177 141.017L463.878 141.077H463.698L463.519 141.017L463.1 140.777L462.921 140.718H462.681L462.442 140.777L462.263 140.897L462.023 141.137L461.964 141.555L462.023 141.795L462.143 141.974V142.094V142.274L461.006 143.83L460.827 144.189L460.707 144.548L460.588 144.907L460.468 145.086L460.288 145.266L459.451 145.625L458.853 146.044L457.716 146.523L456.819 147.301L455.921 147.899L454.187 147.78L453.469 148.079L453.17 148.438L452.87 148.737L452.093 149.096L450.717 149.276L450.418 149.336L449.999 149.515L449.401 149.934L449.102 150.293L448.683 150.712L447.905 151.131L446.17 151.49L446.11 150.952L446.17 150.772L446.23 150.652L446.11 150.533L445.871 150.473L445.393 150.533H445.153L444.974 150.473L444.555 150.174L444.376 150.114L443.538 150.233H443.299L443.119 150.174L443 149.934L442.94 149.635L443.06 148.917L443.179 148.618L443.418 148.438L443.598 148.318L443.897 148.199L444.017 148.079L444.196 147.78L444.256 147.66V147.48L444.196 147.301L443.897 147.121L443.598 147.002H443.359L443 147.181H442.82L442.521 147.061L442.342 146.942V146.762L442.521 146.523L442.82 146.283L442.94 146.164L443 146.044V145.865L443.06 145.266L443 144.847L442.82 144.608L442.701 144.488L441.863 144.548L441.205 143.83L441.085 143.65L441.026 143.471L441.145 143.112L441.384 142.633L441.325 142.453L441.265 142.274L440.906 141.855L440.667 141.675L440.487 141.615L440.248 141.735L440.009 141.915L439.231 142.693L439.111 142.992L439.171 143.411V143.53L439.111 143.65L438.932 143.71L438.513 143.83L438.334 143.949L438.214 144.189L437.915 144.847L437.675 145.146L437.556 145.326L437.436 145.505L437.257 145.565L436.778 145.685L436.3 145.805L436.06 145.745L435.761 145.565L434.924 144.847L434.744 144.668L434.684 144.488V144.189L434.744 144.009L434.864 143.83L435.283 143.351L435.522 143.171L435.821 142.992L435.941 142.872L436.06 142.752L436.12 142.573L436 142.393L435.761 142.214L435.283 141.974L434.625 141.795L433.009 141.615L432.83 141.555L432.531 141.256L432.291 140.897L431.932 139.88L431.334 138.443L430.736 138.384L429.24 138.443L427.865 138.862L426.668 139.64L425.531 140.718L424.814 141.077L421.404 141.855L420.865 142.154L420.327 143.77L420.865 148.019L420.626 149.755L420.207 149.396L419.729 149.276L419.31 149.455L418.831 149.755L418.293 149.455L417.635 149.276L416.199 149.156L415.182 148.677L415.062 148.797L414.285 149.755L413.926 149.994L413.148 150.293L412.789 150.652L412.37 151.969L412.191 152.208L411.952 152.508L411.234 154.243L411.054 154.901L410.935 157.176L410.277 158.433V158.911L410.336 159.45L410.277 160.407L409.977 160.826L408.362 162.023L408.183 162.382L408.003 162.981L407.884 163.28L407.525 163.699L407.345 164.058L407.285 164.417L407.465 164.956L407.106 165.016L406.927 165.315L406.807 165.554L406.508 165.794L406.149 165.854L405.072 165.794L404.474 165.973L402.44 167.051L401.782 167.948V168.786L401.842 169.564L401.542 170.222L401.124 170.821L400.884 171.599L401.064 172.317L401.722 172.796H401.423L401.901 173.394L402.44 173.933L402.799 174.531L402.918 175.489L402.739 176.387L402.44 176.985L402.021 177.464L401.722 177.943L401.423 178.721L401.363 179.439V180.397L400.944 180.875L399.15 180.097L398.791 179.858L398.432 179.439L397.774 178.601L397.475 178.122L397.235 177.584L397.175 177.344L397.116 177.045L397.056 175.669L396.996 175.369L396.876 175.13L396.637 174.771L396.158 174.352L395.201 173.753L394.962 173.694L393.466 174.232H393.167L392.868 174.113L391.851 173.634L391.552 173.454L391.313 173.215L391.193 172.916L390.894 172.736L390.595 172.975L390.475 173.335L390.296 174.292L390.356 174.831L390.535 175.19L390.774 175.489L390.894 175.609V175.848V176.387L390.954 176.506L391.253 177.105L391.552 177.584L391.612 177.763L391.253 179.678V180.097L391.313 180.277H391.552H391.851L392.031 180.337L392.21 180.516L392.27 180.756L392.33 180.935V181.175L392.27 181.474L392.15 181.773L391.672 182.551L391.432 182.731L391.193 182.91L390.715 183.03H390.296L389.937 183.15L389.458 183.389L389.159 183.449L388.86 183.389L388.621 183.449L388.322 183.568L387.903 183.748L387.604 183.688L387.424 183.628L387.305 183.509L387.185 183.449L386.766 183.329L386.587 183.269L386.347 183.03H386.108L383.715 183.987L383.356 184.227L382.758 184.526L382.339 184.706L382.04 184.945L381.741 185.244L380.844 186.681L380.604 187.279L380.485 187.997L380.186 191.229L380.066 191.887L379.647 192.306L379.288 192.486L379.169 192.546L379.049 192.785L379.169 193.204L380.425 195.957L380.604 196.795V197.692V198.052L381.023 199.608L381.203 200.864L381.322 201.224L381.562 201.523L381.98 201.702L382.28 201.762H382.579L384.194 201.463H384.313H384.553L384.672 201.583L384.792 201.822L384.732 202.6L384.194 204.455L384.313 205.054L384.493 205.473L384.732 205.712L384.852 205.832H385.031L385.211 205.772L385.33 205.533L385.45 205.353L385.57 205.054L385.689 204.934L385.809 204.814L385.989 204.755L386.288 204.575L386.527 204.036L386.647 203.917L386.826 203.857L387.125 203.917L387.424 204.036L387.544 204.156L387.604 204.395V204.695L387.664 204.874L387.783 204.934L388.023 205.473L387.903 208.465L387.664 209.243L387.364 209.901L385.989 211.817L385.57 212.535L385.39 213.313V214.151L385.33 214.57L385.151 214.988L384.433 216.245L384.254 216.724L383.835 218.519L383.596 219.417L383.117 220.135L382.758 220.375L381.681 220.913L381.322 221.213L380.006 222.709L379.707 223.247L379.468 223.786L379.348 224.444V225.282L379.288 225.641L379.109 226L377.733 227.377L377.135 228.095L376.477 229.95L375.998 230.549L375.4 231.087L374.861 231.746L374.503 232.584L374.203 234.319L373.904 235.217L372.349 238.449L371.691 239.406L371.452 239.945V240.543L371.631 241.262V241.501L371.571 241.92L369.777 246.768L370.135 247.426L370.315 247.725L370.794 248.264L370.913 248.503V248.683L370.734 248.802L370.435 248.922L370.255 249.161L370.195 249.461L370.554 250.418V250.717L370.494 251.735L370.375 252.273L370.255 252.513L370.016 252.752L369.537 252.992L368.939 253.171L368.7 253.53L368.341 254.847L368.52 255.206V255.386L368.46 255.625L368.341 255.924L367.503 256.822L366.965 257.899L366.247 257.54L365.948 257.361L365.529 256.882L365.35 256.762L365.17 256.642H364.931H364.632L364.093 256.762L362.478 257.48L362.119 257.54L361.581 257.48L361.222 257.361L359.966 256.762L359.308 256.583H358.889L358.53 256.762L357.633 257.48L357.333 257.66L357.034 257.779L356.496 257.839H356.197L355.599 257.72L355.299 257.839L355 258.079L354.582 258.617L354.402 258.976L354.282 259.276L354.163 259.515L354.043 259.814L353.684 260.054L353.026 259.934L346.984 239.346L346.386 238.389L346.326 238.09L345.967 235.636V235.456L346.087 234.918L346.206 234.259V233.9L346.147 232.763L346.087 232.284L344.651 227.616L343.215 226.36L342.856 225.581L342.497 223.966L341.959 222.469L340.942 220.913L340.822 220.674V220.435L340.942 219.776L341.002 219.417L341.48 218.819L341.839 218.4L342.737 217.622L344.172 216.724L344.352 216.544L344.591 216.185L345.07 215.527L345.429 214.629L345.668 214.39L345.847 214.21L346.087 214.091L346.326 214.031L347.463 213.911H347.642L348.061 214.091H348.42L348.719 214.031L349.138 213.851L349.915 213.313L350.873 212.475L351.052 212.235L351.83 210.979L352.009 210.799L353.206 209.722L353.983 208.764L354.223 208.345L354.402 207.867L354.582 207.208L354.94 206.251L355.18 205.712L355.359 205.413L355.539 205.353L355.778 205.293H356.197L356.496 205.413L358.949 206.849H359.128H359.427L359.786 206.61L359.966 206.43L360.025 206.251L359.906 205.772L359.607 204.934L353.325 196.974L352.727 196.017L352.548 195.957L352.189 195.897L352.129 195.837L352.069 195.718L352.248 195.059V194.76L352.308 194.461L352.189 193.204V191.109L352.248 190.87L352.368 190.571L352.488 190.511H352.787L353.026 190.212L353.385 189.733L354.462 187.578L355.479 186.142L355.718 185.663L356.556 182.79L356.675 182.671L356.974 182.491L357.274 182.312L357.752 181.833L358.291 181.414L358.53 181.354L358.709 181.294L359.607 181.594L360.025 181.653L360.325 181.594L361.102 181.713H361.581L362 181.653L362.179 181.594L362.777 181.474L363.495 181.175L364.333 181.055L364.692 180.935L365.17 180.696L365.469 180.397L366.008 179.678L366.307 179.439L366.606 179.319L367.443 179.14L369.836 176.447L370.375 175.549L370.435 175.309L370.375 175.13L370.255 174.891L370.135 174.711L369.956 174.651L369.059 174.292L368.281 174.113L367.802 173.933L367.623 173.873H367.384H367.025H366.905L366.426 173.694H366.307H365.469L364.273 173.574L363.914 173.454L363.734 173.275V173.035L363.914 172.317L363.854 172.197L363.675 172.138L363.435 172.078H363.017L362.777 172.018L361.641 171.539H361.401H360.983L360.683 171.479L360.384 171.36L359.846 171.12L358.949 169.804L358.59 168.188L358.35 167.769L357.932 167.589L356.735 166.871L356.257 166.452L356.077 166.213L356.017 166.033V165.854L356.137 165.375L356.316 165.076L356.795 164.716L356.974 164.657L357.573 164.477L358.111 164.417L358.53 164.357L358.949 164.298L359.487 164.357L359.846 164.298L360.085 164.178L360.444 163.938L361.461 162.682L361.76 162.442L362.059 162.382L362.837 162.323L363.495 162.263L364.572 161.844L364.931 161.784L365.23 161.724L365.35 161.604L365.469 161.365V161.126V160.767L365.35 160.348V160.048L365.409 159.869L365.529 159.211L366.068 157.954L366.247 157.714L366.486 157.535L367.144 157.475L368.341 158.253L368.939 158.492L374.861 159.091L375.161 159.031L375.938 158.672L376.297 158.373L376.656 158.073L376.955 157.894L377.374 157.714L378.81 157.355L378.989 157.295L379.049 157.176L378.989 156.996L378.87 156.876L378.391 156.637L378.271 156.577L378.212 156.278L378.331 156.039L378.511 155.799L378.69 155.68L379.109 155.38L380.485 154.901L380.425 154.363L379.946 153.106L379.887 152.867V151.071L379.946 150.832L380.126 150.772H380.305L380.963 151.011L381.203 151.131L381.801 151.55L381.921 151.61H382.16H382.339L382.519 151.67L382.698 151.789L382.758 151.969L382.938 152.448L383.057 152.567L383.655 153.226L384.493 153.824L386.288 154.722L386.886 155.141L387.185 155.44L387.424 155.62L387.843 155.859H388.082L388.322 155.799L388.561 155.5L388.86 155.32L389.279 155.201L390.834 155.141L391.612 154.901H391.911H392.09L392.629 155.021L397.355 155.32L397.714 155.201L398.133 155.081H398.372L398.551 155.141L398.791 155.38L398.97 155.68V156.098L398.91 156.218L398.85 156.398L398.671 156.517L398.312 156.757L397.953 156.936L396.697 157.355L396.278 157.595L396.099 157.714L395.979 157.894L395.919 158.073L395.979 158.193L396.218 158.492L396.458 158.672L396.816 158.851L397.654 159.151L399.209 159.39L399.987 159.27L400.944 158.792L403.098 157.535L403.576 157.116L403.995 156.936L405.251 156.458L405.61 156.338L405.91 156.098L406.029 155.979L406.089 155.68L405.969 155.44L405.551 155.141L404.294 154.243L404.175 154.183L404.115 153.944L404.234 153.585L405.012 152.687L405.251 152.328L405.431 151.969L406.568 150.353L406.687 150.054L406.807 149.695L406.687 149.276L406.568 149.156L406.448 149.096H405.491L404.234 148.857L403.995 148.737L403.696 148.618L403.277 148.258L403.098 148.019L402.918 147.66L402.619 146.702L402.44 146.463L402.26 146.343L402.141 146.403L402.021 146.463L401.842 146.822L401.662 147.301L400.884 148.677L400.406 149.156L399.269 149.994L397.175 151.071L395.441 151.37H395.141H394.723L394.304 151.251L394.184 151.191L394.124 151.011L393.885 150.533L393.586 149.336L393.526 149.096V148.737L393.586 148.019V147.78L393.526 147.54L393.287 147.241L392.928 146.882L391.552 145.865L391.073 145.386L390.954 145.206L390.894 145.086V144.787L390.954 143.89V143.65L390.774 142.633L390.475 142.094L390.236 141.675L389.937 141.376L389.638 141.137L389.398 140.897L389.099 140.299L389.039 139.94L388.98 139.76L389.039 139.341V138.862L389.099 138.683L389.279 138.264L389.398 138.024L389.339 137.546L389.159 136.648L389.099 136.468L388.681 135.87L388.621 135.81L388.681 135.511L388.92 135.271L389.099 135.152V135.032V134.793V134.374L388.98 134.075L388.8 133.955L388.501 133.715L388.441 133.656L388.142 133.596L387.903 133.476L387.723 133.356L387.664 133.237L387.783 132.997V132.818L387.723 132.518L387.783 132.339L387.963 132.159L390.774 131.381L390.954 131.142V131.082L391.133 130.903L391.791 130.484L391.911 130.364L392.09 130.244L393.287 129.287L393.646 128.628L394.663 127.731L394.842 127.611L394.962 127.132L394.902 126.953L394.723 126.833V126.713L394.902 125.935L394.782 125.576V125.397L394.842 125.337L395.56 124.738L395.74 124.499L395.68 124.2L395.74 124.02L395.979 123.841L396.278 123.601L396.757 123.063L396.876 123.003L397.056 123.122H397.235L397.415 123.242L397.594 123.482L397.714 123.541L397.953 123.601L398.073 123.482V123.362L398.013 123.003V122.823L398.073 122.404L398.133 122.285L398.432 122.165L398.671 122.225L398.91 122.105L399.15 121.925L399.329 121.806L399.209 121.566L399.15 121.387L399.269 121.207L399.329 120.729L399.688 120.31L399.987 120.25L400.346 119.951L400.645 119.831L400.346 118.873L400.167 118.694L400.047 118.754H399.808L399.568 118.694L399.389 118.634V118.335V118.095V117.796L399.209 117.377L399.269 117.138L398.731 115.402L399.449 114.564L399.628 114.385L399.568 113.906L399.628 113.607L399.927 112.23L400.047 111.871L400.167 111.632H400.286L400.466 111.452H400.585L400.765 111.273L401.363 110.614L401.722 110.315H401.842L402.021 110.435L402.26 110.495L403.038 109.896L403.277 108.52V107.981L403.218 107.622L403.158 107.323L403.038 107.083L402.978 106.784L403.038 106.724L403.158 106.605H403.397L403.517 106.545L403.636 106.425L403.995 105.886L404.115 105.767L404.354 105.707L404.534 105.587V105.467L404.354 105.168L404.175 104.929L403.995 104.45L403.816 104.33L403.696 104.211L403.337 104.27H403.098L402.619 104.091L402.38 103.971L402.141 103.911L400.825 103.672L400.585 103.732H400.406L399.808 103.971L398.252 104.869H397.953L397.714 104.809L397.235 104.57L396.577 103.971L396.458 103.852L396.517 103.492V103.253L396.398 102.894L396.278 102.655L396.158 102.355V102.056L396.039 101.817L395.919 101.517L395.859 101.099L395.74 100.919L395.441 100.859L395.022 100.68L394.244 100.56L393.526 100.141L393.407 100.081L392.15 98.4652L391.612 97.5675L391.552 97.4478L392.09 97.2084L392.449 96.9092L392.689 96.4304L393.048 95.3532L393.287 94.8744L393.706 94.5751L394.005 94.216L394.065 93.7971L393.825 93.3782L393.885 91.4032L394.842 90.2063L397.415 88.4108L398.312 86.9745L398.611 86.0768L398.491 85.4783L397.355 84.5207L395.321 82.1867L394.663 81.0496L394.723 79.8526L395.859 78.3564L397.654 76.7406L398.013 76.0822L398.073 75.2444L397.774 74.586L397.295 74.0474L396.816 73.3293L396.577 72.3717L396.757 71.474L396.996 70.696V69.7982L396.637 69.1399L396.039 68.6611L394.005 67.6437L393.287 67.0453L392.928 66.3271L393.407 65.3695L394.065 64.5317L394.304 63.6938L394.124 62.9158L393.646 62.0779L393.407 61.8385L392.868 61.4196L392.629 61.1203L392.509 60.5817V60.1628V59.8037V59.3249L392.27 58.6666L391.014 56.4522L390.475 55.7341L388.8 54.5371L388.441 53.8788L388.262 52.3826L387.723 51.7243L386.647 51.2455L385.63 51.0061L384.613 50.5872L383.655 49.5698L383.177 49.2107L381.861 48.4327L381.442 48.0736L381.263 47.2357L381.621 46.5175L382.758 45.3206L382.997 44.9017L383.177 43.9441L383.356 43.585L384.792 42.6274L385.929 42.0888L386.288 41.8494L386.527 41.4305L386.706 40.4729L386.886 40.1737L389.219 39.3358L389.997 38.7373L392.808 35.5654L393.407 35.1465L394.124 34.9071L394.962 34.7276L395.68 34.3086L395.5 33.7102L395.141 33.0518L395.321 32.3337L396.218 31.4359L396.517 30.8973L396.816 30.1791L397.295 28.7428L397.654 28.3837L398.312 28.3239L399.03 28.6231L401.184 30.0595L402.26 31.1966L402.799 31.4359L403.397 31.3761L403.995 31.1966L404.414 30.6579L404.294 30.0595L403.696 28.8027L403.636 27.3663L404.354 26.8875L406.747 26.708L407.345 26.4686L407.824 26.0497L408.302 25.6307L408.781 25.152L410.516 24.1944L411.114 23.5361L411.892 23.1171L413.387 22.758L413.986 22.1596L414.045 21.7406L413.926 21.3816L413.866 21.0225L414.165 20.6035L414.584 20.3641L415.541 20.0649L417.635 19.7657L418.293 19.4066L418.054 18.6286L417.515 17.7309L417.635 17.1324L418.233 16.7134L419.848 16.0551L423.079 15.2771L424.754 15.2173L426.249 14.6786L427.924 14.7983L428.702 14.6188L431.035 12.6438L432.83 11.6862L435.163 11.1476L437.616 10.9681L440.667 11.4469L443.957 11.2673L445.034 10.9681L445.931 10.4893L446.828 10.2499L447.965 10.7287H448.444L448.922 10.5491L449.819 9.89082L450.418 9.71128L455.862 9.1128L457.058 9.2325L458.135 9.53173L458.673 9.59158L459.212 9.53173L461.066 8.87341L462.801 8.99311L465.254 8.69387L466.39 8.81356L467.587 9.05295L472.433 8.21509L475.065 8.33478Z" fill="#009649" stroke="white" stroke-width="2" stroke-linejoin="round" data-country-region="East Region"></path>
</svg>