<svg width="860" height="561" viewBox="0 0 860 561" fill="none" xmlns="http://www.w3.org/2000/svg">
<path class="region" data-country-region="East Region" d="M553.78 105.975L554.382 106.921L552.835 111.046L552.749 112.765L553.694 114.398L554.726 115L556.789 119.297L558.422 122.392L557.476 125.314L557.992 127.291L561.516 130.041L566.329 131.76L565.384 137.777L561.688 143.105L559.969 146.801L555.585 151.872L555.413 156.771L554.124 161.842L554.468 163.304L555.671 163.819L559.281 163.476L561.172 163.819L564.61 165.538L567.533 165.882L569.338 166.999L572.776 174.133L575.526 175.165L579.394 181.009L582.059 183.674L583.778 187.284L585.497 192.269L586.271 197.683L585.755 201.809L584.895 205.333L584.551 208.255L581.027 211.264L579.566 213.24L578.879 216.249L579.738 219.515L579.222 221.835L567.963 222.781L565.126 224.414L564.009 225.703L560.656 226.734L559.195 228.282L558.594 231.204V233.696L557.82 237.994L554.038 241.088L551.373 238.939L548.623 239.541L544.497 243.151L541.661 244.784L540.543 246.245L539.512 249.339L538.48 251.488L534.613 255.785L533.753 259.739L527.736 262.318L517.852 265.842L515.101 267.818L512.78 269.108L504.013 272.116L501.692 275.296L497.567 274.351L492.667 278.132L487.94 279.508L475.906 279.164L473.156 277.703L470.062 277.101L463.701 274.437L466.022 264.552L466.538 261.2L468.343 256.559V255.098L467.053 253.551L464.819 252.262L460.521 251.918L455.793 250.371L458.63 243.323L458.888 241.346L458.458 237.908L456.223 233.61L455.879 231.977L456.395 230.516L458.2 229.313L461.294 228.368L463.014 225.789L464.045 222.265L465.248 220.116L466.28 216.936L463.873 213.584L461.81 212.381L460.951 210.318L463.701 203.356L465.936 201.465L468.515 200.09L469.46 198.371L469.718 195.621V192.956L469.46 190.206L467.655 187.971L467.483 185.822L472.125 180.837L482.439 174.563L483.127 168.289L482.697 162.788L483.041 160.467L484.33 159.092H487.424L489.659 159.866L491.636 160.038L493.183 159.006L494.902 156.256V153.591L492.753 151.013L490.69 144.051L494.386 134.854L496.879 130.213L498.082 126.517L498.598 123.079L497.739 117.75L496.277 114.57L494.902 111.992L494.644 110.445L494.902 109.327L499.458 108.21L508.913 107.093L514.242 110.187L516.305 110.874L518.539 110.359L518.711 107.007L536.675 101.85L543.294 102.451L553.78 105.975Z" fill="#009649" stroke="white" stroke-width="2" stroke-linejoin="round"></path>
<path class="region" data-country-region="East Region" d="M658.729 190.292L662.081 194.074L662.511 197.426L663.284 198.715L663.8 204.302L664.488 208.341L665.347 209.717L666.379 209.889L668.527 209.115L671.45 209.029L675.06 207.396L678.154 206.88L681.506 207.568L684.859 209.545L686.749 212.295L688.726 213.498L693.368 214.014L692.336 218.398L691.649 225.961L692.766 232.149L696.204 236.705L708.925 245.558L712.106 249.941L717.951 261.544L711.074 263.263L709.441 264.209L707.722 265.67L705.573 268.076L702.565 269.967H701.447L700.674 270.827L700.244 272.632L701.276 279.852L700.674 282.43L697.408 282.172L695.689 281.313L690.531 280.367L684.171 275.296L680.217 274.437L677.467 285.266L673.427 293.002L661.135 296.01L656.408 293.861L654.861 292.572L653.486 292.744L652.024 294.463L649.876 300.308L648.242 302.628L647.211 303.23L642.14 302.886L637.068 300.995L632.427 298.331L627.786 300.308L625.981 301.597L625.293 301.511L622.886 299.362L619.448 300.05L616.44 303.574L615.064 304.261L613.947 303.402L613.088 301.511L611.97 300.136L610.079 299.792L607.501 300.737L595.553 309.504L593.232 310.622L590.396 311.395L586.442 311.137L581.543 312.856L572.518 305.379L568.306 300.05L567.704 298.073L566.759 295.838L565.555 294.205L561.258 294.119L559.539 293.518L557.132 290.165L556.1 286.556L554.21 285.009L552.576 283.891L540.629 282.172L538.48 282.516L535.558 281.914L531.432 282L530.143 281.227L529.971 279.594L531.088 277.617L532.463 276.414L534.956 275.038L535.73 273.835L535.987 271.686L535.128 268.248L534.87 261.63L533.753 259.739L534.612 255.786L538.48 251.488L539.511 249.339L540.543 246.245L541.66 244.784L544.497 243.151L548.623 239.541L551.373 238.94L554.038 241.088L557.82 237.994L558.593 233.697V231.204L559.195 228.282L560.656 226.735L564.008 225.703L565.126 224.414L567.962 222.781L579.222 221.836L579.738 219.515L578.878 216.249L579.566 213.241L581.027 211.264L584.551 208.255L595.553 205.419L603.633 200.692L606.297 200.09L608.36 200.778L611.97 206.021L619.19 208.685L624.777 206.193L625.465 203.872V199.661L631.997 194.761L634.92 195.105L636.467 196.309L639.217 196.738L641.366 196.223L646.695 193.386L653.915 190.378L655.205 190.12L658.729 190.292Z" fill="#009649" stroke="white" stroke-width="2" stroke-linejoin="round"></path>
<path class="region" data-country-region="West Region" d="M367.09 33.9495L363.48 34.8949L359.87 30.8553L359.612 25.7843L361.417 21.057L363.48 20.5413L365.457 24.3231L368.121 31.285L367.09 33.9495ZM541.833 26.3L541.919 27.3313L541.833 33.6057L541.231 34.809L538.824 37.9891L538.653 39.5362L538.824 40.9973L540.114 44.0056L542.348 47.5295L543.38 58.3592L543.724 59.8203L544.841 61.7972L548.795 64.8914L549.569 68.3293L549.311 70.2202L549.998 75.721L550.428 78.3854L551.288 80.7061L552.749 83.6284L553.608 86.6366L556.359 99.8729L556.273 103.741L553.78 105.975L543.294 102.451L536.676 101.85L518.711 107.007L518.539 110.359L516.305 110.874L514.242 110.187L508.913 107.093L499.458 108.21L494.902 109.327L494.644 110.445L494.902 111.992L496.278 114.57L497.739 117.75L498.598 123.079L498.083 126.517L496.879 130.213L494.387 134.854L490.691 144.051L492.753 151.013L494.902 153.591V156.256L493.183 159.006L491.636 160.038L489.659 159.866L487.424 159.092H484.33L483.041 160.467L482.697 162.788L483.127 168.289L482.439 174.563L472.125 180.837L466.538 177.915L462.154 174.047L457.942 171.211L456.137 169.148L455.364 167.171L454.59 162.1L453.731 157.545L451.41 155.139L449.949 154.021L447.886 154.279H444.792L436.97 149.982L435.079 145.77L426.14 142.59L422.959 140.269L418.49 132.706L416.083 130.385L415.224 128.15L415.052 125.572L415.825 119.383L410.754 119.126L401.557 121.704L399.666 122.735L398.549 123.767L383.421 121.704L378.951 124.884L377.06 127.463L374.482 129.611L373.364 131.073L371.216 135.112L370.528 140.355L368.723 143.363L368.981 144.825L370.958 148.434L371.13 149.81L370.184 153.334L368.895 153.677L359.01 152.732L344.398 156.084L343.109 157.631L335.889 169.32L332.966 174.735L323.855 173.961L319.558 172.586L316.549 172.758L314.658 173.704L313.713 174.993L312.853 177.485L311.736 179.892L307.954 182.814L306.407 181.009L305.891 179.892L306.321 176.11L308.04 172.5L313.369 164.507L313.799 162.702L313.197 161.671L310.275 158.405L309.759 155.826L309.931 153.935L309.329 150.669L303.742 145.598L296.78 142.762L289.474 143.363L286.036 144.739L284.575 145.082L281.394 144.223L276.925 138.378L274.948 136.745L272.025 135.198L267.728 133.909L266.267 132.534L263.946 126.947L262.313 124.54L258.015 121.79L255.78 117.836L257.413 118.18L259.046 115.774L259.132 112.937L258.187 110.445L256.554 108.984L258.015 105.631L261.023 104.084L272.971 103.827L278.816 105.374L285.09 104.858L292.139 102.194L299.015 101.506L304.688 107.35L307.352 101.248L306.235 96.4349L297.64 84.4879L296.436 81.9094L296.78 79.073L298.499 76.2367L300.304 74.6037L302.367 74.002L304.688 74.4318L308.47 77.2681L316.119 85.4333L319.987 87.1523L323.769 85.1755L322.652 80.6201L319.128 75.721L315.862 72.6268L318.526 70.9078L330.474 70.0483L335.115 68.1574L336.748 65.0633L338.295 56.2964L338.897 54.4914L347.75 52.3427L350.845 52.6865L353.509 54.7493L358.408 60.422L361.073 61.6253L363.566 60.422L365.715 58.1873L367.863 56.5542L370.356 57.3278L378.178 62.9145L380.584 63.6021L382.991 62.4848L382.475 59.9922L380.241 57.5856L377.748 56.4683V54.4914L381.358 54.9212L382.733 54.1476L383.765 48.8188L384.968 47.7874L386.429 48.0452L387.976 49.0766L390.383 53.1162L392.102 57.7575L394.337 60.7658L398.119 59.9922L399.666 58.703L400.44 57.5856L403.62 50.9675L403.964 49.5064L402.76 45.4667L401.901 43.9196L399.58 41.4271L399.15 39.0205L398.978 34.5511L398.119 30.7693L402.331 27.933L407.402 32.2305L416.599 43.6618L419.951 44.5213L430.437 41.7709L433.618 42.6304L439.205 46.4122L442.041 47.2717L444.534 45.8965L443.416 39.0205L445.307 36.1842L448.488 36.2701L455.02 40.6535L483.9 49.0766H484.072L483.127 42.8882L484.932 39.4503L488.198 38.161H500.833L502.208 37.3015V35.4966L501.177 33.6057L499.802 32.7462L495.934 27.847L493.871 17.1033L493.441 6.27368L494.301 1.37455L496.621 3.43734L501.091 12.2902L503.584 14.3529L506.42 15.5562L508.741 18.4785L512.867 25.2686L515.875 27.5892L520.173 29.1363L524.126 28.2768L525.846 23.3777L524.814 18.8223L522.751 15.8141L521.29 12.3761L522.064 6.87533L521.204 6.61748L519.399 5.24228L522.579 1.1167L526.705 2.49189L534.183 10.4852L533.152 12.548L534.871 15.9L535.988 22.4322L537.793 25.2686L540.372 26.6438L541.833 26.3Z" fill="#009649" stroke="white" stroke-width="2" stroke-linejoin="round"></path>
<path class="region" data-country-region="East Region" d="M693.368 214.014L688.727 213.498L686.75 212.295L684.859 209.544L681.507 207.567L678.154 206.88L675.06 207.395L671.45 209.028L668.528 209.114L666.379 209.888L665.347 209.716L664.488 208.341L663.8 204.301L663.285 198.714L662.511 197.425L662.081 194.073L658.729 190.291L663.542 186.51L667.754 184.877L669.215 182.728L669.559 179.032L670.333 176.883L672.224 174.906L673.255 173.445V171.812L671.708 168.116V153.333L672.052 149.379L672.997 148.004L682.022 142.331L689.242 141.3L690.36 140.613L690.876 139.409L690.36 137.003L689.414 135.198L690.532 127.548L689.844 126.087L688.383 124.798L684.343 124.454L682.452 123.68L680.045 120.93L679.1 118.609L677.725 111.647L668.442 114.742L667.496 114.398L665.691 113.023L663.972 110.014L664.746 103.912L670.419 92.3947L671.708 89.0427L671.192 87.6675L669.989 87.1518L664.488 86.2923L661.823 86.4642L660.706 85.9485L659.674 84.4874L659.846 82.9403L662.253 81.2213L664.402 78.8147L663.714 73.3999L665.09 71.2511L666.98 70.6495L668.012 71.3371L669.989 73.5718L671.106 72.0247L670.419 65.9223L670.505 62.8281L669.817 59.9917L667.668 54.7488L667.152 52.0844L667.754 50.0216L669.215 45.9819L675.49 52.8579L682.022 55.2645L687.695 58.8744L690.446 59.9917L714.513 62.1405L736.001 60.7653L754.051 59.476L774.852 64.719L795.653 66.0942L816.711 71.2511L822.298 69.4462L827.541 65.7503L831.581 60.7653L836.394 51.5687L839.059 56.5537L845.076 59.7339L847.998 62.8281L851.178 70.7354L852.468 73.142L854.015 75.1189L857.539 78.0412L859 79.932L858.398 84.9171L857.711 84.3155L855.046 82.7684L849.115 87.6675L838.113 88.613L833.902 90.8477L843.7 94.7154L846.795 94.6294L844.13 98.2393L828.315 97.9815L820.751 102.193L817.828 106.147L819.032 110.788L816.625 116.461L812.499 136.315L812.585 136.401L804.678 158.49L802.357 164.077L796.598 174.992L795.395 179.891L771.328 174.477L737.548 178.344L709.785 189.26L704.8 193.386L700.33 198.972L696.033 206.192L694.056 211.177L693.368 214.014Z" fill="#009649" stroke="white" stroke-width="2" stroke-linejoin="round"></path>
<path class="region" data-country-region="East Region" d="M644.117 405.767L641.453 408.689L640.163 412.299L638.616 417.8L638.788 419.777L638.53 422.527L638.874 427.598L638.444 432.068L637.327 435.248L636.725 448.57L621.254 450.805L616.784 452.438L616.354 453.727L616.268 458.11L615.581 461.376L613.088 465.846V467.995L616.87 468.94L618.159 471.69L616.44 476.59L616.612 477.793L616.87 485.786L620.48 488.88L624.262 490.084L625.379 492.06L625.551 493.951L624.864 497.303L623.918 498.85L621.683 500.741V502.203L622.371 504.093L622.629 506.672L623.66 508.391L626.926 511.227L627.098 513.204L626.497 514.923L623.832 517.416L621.254 521.885L621.511 522.83L623.231 525.065L626.153 528.159V529.534L625.637 531.082L624.52 532.285L622.027 534.09L621.254 535.465L621.34 536.41L622.457 538.989L621.597 544.49L621.941 548.271L609.564 542.857L603.977 538.817L599.336 533.316L586.614 512.345L582.059 507.102L567.189 494.553L565.986 491.459L565.556 486.216L565.986 483.895L567.275 480.887L566.759 478.394L565.814 477.191L564.181 476.418L535.816 473.839L532.464 470.573L530.745 465.502L529.455 460.345L527.393 456.821L525.33 456.735L516.562 459.743L513.21 460.087L510.03 459.572L507.022 457.767L504.185 453.985L503.498 451.922L503.326 450.031L505.904 445.132L506.764 442.553L507.709 440.405L511.061 434.646L511.319 432.411V427.942L512.609 426.653L516.047 426.051L518.11 426.395L520.344 425.965L522.579 424.418L526.447 419.863L531.432 415.737L538.824 412.041L539.77 410.752L540.286 408.947L539.512 406.455L539.942 404.908L540.887 403.704L542.778 402.071L543.208 399.751L543.982 398.633L545.701 398.891L549.225 401.47L551.03 404.22L552.749 407.658L554.382 409.463H558.594L561.344 408.088L573.464 404.65L596.069 406.455L598.648 405.079L601.656 402.931L603.891 402.243L606.212 400.18L611.627 393.648L613.26 392.445H614.893L616.354 394.765L617.729 395.969L620.394 399.063L621.855 398.805L624.434 397.86L626.239 396.828L633.975 394.422L636.553 396.399L637.843 397.946L640.679 400.008L641.882 401.384L644.117 405.767Z" fill="#009649" stroke="white" stroke-width="2" stroke-linejoin="round"></path>
<path class="region" data-country-region="East Region" d="M581.543 312.856L586.184 329.53V331.421L577.073 344.572L572.432 352.909L569.08 360.472L569.853 380.069L573.463 404.65L561.344 408.088L558.593 409.464H554.382L552.748 407.659L551.029 404.221L549.224 401.47L545.7 398.892L543.981 398.634L543.208 399.751L542.778 402.072L540.887 403.705L539.941 404.908L539.512 406.455L540.285 408.948L539.77 410.753L538.824 412.042L531.432 415.738L526.447 419.864L522.579 424.419L520.344 425.966L518.109 426.396L516.046 426.052L512.608 426.654L511.319 427.943V432.412L511.061 434.647L507.709 440.405L506.763 442.554L505.904 445.133L503.325 450.032L503.067 448.571L501.95 446.68L500.661 445.82L495.847 444.703L490.518 441.265L482.353 431.295L476.938 428.373L475.562 428.459L473.843 429.146L472.64 428.373L471.78 426.911L470.147 422.27L469.288 420.465L466.881 418.488L464.389 418.059L462.669 419.778L462.498 424.161L466.279 431.123L467.225 435.163L464.56 438.687L460.177 440.921H458.114L456.137 439.288L454.418 433.787L453.215 427.513L451.324 422.27L447.885 419.864L441.525 420.035L438.345 420.981L435.422 422.872L433.531 424.849L432.07 422.012L431.382 417.887L430.179 415.48L430.351 414.019L431.382 412.472L433.789 410.925L435.164 409.636L436.196 406.198L436.969 405.252L438.774 404.908L440.837 405.424L442.728 405.51L444.018 405.08L444.189 403.275L442.986 401.47L441.095 399.579L441.009 398.376L441.697 396.915L443.588 394.938L445.221 395.11L447.37 396.055L447.971 395.282L448.057 393.133L447.628 391.07L447.37 388.922L448.229 387.031L449.347 385.656L456.653 383.937L458.286 385.054L459.059 386.171L459.833 385.999L460.435 384.882L460.263 375.943L460.091 372.591L462.498 369.755L461.896 367.262L460.349 365.629L452.355 360.386L447.026 355.573L445.135 354.628L434.391 352.565L433.617 351.705L431.726 351.534L427.515 355.745L425.194 355.057L424.334 354.37L422.787 351.104L424.678 343.196L425.624 337.61L425.194 331.851L425.795 328.757L429.749 325.749L429.663 319.56L428.976 316.638L427.171 312.512L428.116 310.45L433.187 304.863L442.299 300.565L447.971 296.268L449.69 294.119L451.496 291.283L453.386 289.306L458.716 287.329L460.177 286.126L460.091 283.547L458.973 279.851L459.231 277.961L460.177 276.242L463.701 274.437L470.061 277.101L473.156 277.703L475.906 279.164L487.94 279.508L492.667 278.132L497.566 274.351L501.692 275.296L504.013 272.116L512.78 269.108L515.101 267.819L517.851 265.842L527.736 262.318L533.753 259.739L534.87 261.63L535.128 268.248L535.988 271.686L535.73 273.835L534.956 275.038L532.463 276.413L531.088 277.617L529.971 279.594L530.143 281.227L531.432 282L535.558 281.914L538.48 282.516L540.629 282.172L552.577 283.891L554.21 285.008L556.101 286.556L557.132 290.165L559.539 293.517L561.258 294.119L565.555 294.205L566.759 295.838L567.704 298.073L568.306 300.05L572.518 305.379L581.543 312.856Z" fill="#009649" stroke="white" stroke-width="2" stroke-linejoin="round"></path>
<path class="region" data-country-region="East Region" d="M773.906 484.755L771.414 485.099L769.609 486.216L770.726 486.732L773.563 489.396L769.867 491.287L767.976 492.749L766.686 494.983L765.999 499.281L767.546 506.415L767.374 509.595L765.053 512.173L753.879 516.127L751.645 518.361L750.785 519.823L750.097 521.799L749.754 524.292L750.183 526.527L750.527 529.879L751.043 531.598L750.785 536.841L749.41 539.161L747.777 539.935L745.886 540.107L744.253 540.708L743.135 542.857V546.037L744.167 550.249L745.37 554.203L746.487 556.867L742.018 559.703L721.217 552.054L710.387 551.366L707.121 549.733L704.37 546.553L699.471 538.903L696.291 536.325L691.649 534.692H689.242L686.922 535.208L684.773 534.778L683.312 533.059L681.593 531.77L679.1 532.887L677.037 536.153L675.662 539.849L674.029 543.373L671.278 545.865L668.872 546.553L658.385 545.951L653.83 547.412L649.446 550.077L645.492 553.601L644.633 555.234L643.515 558.672L642.14 559.274L640.765 558.844L638.272 557.039L636.983 556.695L635.178 557.726L633.373 559.445L631.224 559.789L628.731 556.953L624.262 550.421L621.941 548.272L621.597 544.49L622.457 538.989L621.339 536.411L621.253 535.465L622.027 534.09L624.52 532.285L625.637 531.082L626.153 529.535V528.16L623.23 525.066L621.511 522.831L621.253 521.885L623.832 517.416L626.497 514.924L627.098 513.205L626.926 511.228L623.66 508.391L622.629 506.672L622.371 504.094L621.683 502.203V500.742L623.918 498.851L624.863 497.304L625.551 493.952L625.379 492.061L624.262 490.084L620.48 488.881L616.87 485.787L616.612 477.793L616.44 476.59L618.159 471.691L616.87 468.94L613.088 467.995V465.846L615.581 461.377L616.268 458.111L616.354 453.727L616.784 452.438L621.253 450.805L636.725 448.57L641.968 450.633L643.343 451.751L645.406 452.438L649.446 452.954L652.798 452.524L655.979 451.321L663.199 452.954L667.324 455.017L679.272 454.071L682.108 454.845L685.375 453.813L689.071 452.352L704.112 458.111L705.23 457.165L704.542 451.149L706.519 449.258L708.926 448.313L711.676 448.141L713.825 449.516L722.506 455.704L730.07 459.486L732.133 460.174L733.508 460.088L735.829 458.025L736.775 458.197L738.837 461.033L739.181 464.643L734.626 468.769L733.336 471.261L732.477 474.613L732.993 475.988L733.852 476.246L736.173 475.902L737.032 476.59L739.095 480.028L742.19 480.63L747.347 477.965L752.074 476.762L759.466 478.223L772.531 483.552L773.906 484.755Z" fill="#009649" stroke="white" stroke-width="2" stroke-linejoin="round"></path>
<path class="region" data-country-region="East Region" d="M669.215 45.9825L667.754 50.0221L667.152 52.0849L667.668 54.7494L669.817 59.9923L670.505 62.8286L670.419 65.9228L671.106 72.0252L669.989 73.5723L668.012 71.3376L666.981 70.6501L665.09 71.2517L663.714 73.4004L664.402 78.8153L662.253 81.2219L659.846 82.9409L659.675 84.488L660.706 85.9491L661.823 86.4648L664.488 86.2929L669.989 87.1524L671.192 87.6681L671.708 89.0433L670.419 92.3953L664.746 103.913L663.972 110.015L665.691 113.023L667.496 114.398L668.442 114.742L677.725 111.648L679.1 118.61L680.045 120.931L682.452 123.681L684.343 124.455L688.383 124.798L689.844 126.088L690.532 127.549L689.414 135.198L690.36 137.003L690.876 139.41L690.36 140.613L689.242 141.301L682.022 142.332L672.997 148.005L672.052 149.38L671.708 153.334V168.117L673.255 171.813V173.446L672.224 174.907L670.333 176.884L669.559 179.033L669.215 182.728L667.754 184.877L663.542 186.51L658.729 190.292L655.205 190.12L653.916 190.378L646.696 193.386L641.366 196.223L639.218 196.738L636.467 196.308L634.92 195.105L631.998 194.761L625.465 199.661V203.872L624.778 206.193L619.191 208.685L611.97 206.021L608.36 200.778L606.298 200.09L603.633 200.692L595.553 205.419L584.551 208.255L584.895 205.333L585.755 201.809L586.27 197.684L585.497 192.269L583.778 187.284L582.059 183.674L579.394 181.009L575.526 175.165L572.776 174.133L569.338 167L567.533 165.882L564.61 165.538L561.172 163.819L559.281 163.476L555.671 163.819L554.468 163.304L554.124 161.843L555.413 156.772L555.585 151.872L559.969 146.801L561.688 143.106L565.384 137.777L566.329 131.76L561.516 130.041L557.992 127.291L557.476 125.314L558.422 122.392L556.789 119.298L554.726 115L553.694 114.398L552.749 112.765L552.835 111.046L554.382 106.921L553.78 105.975L556.273 103.741L556.359 99.8729L553.608 86.6367L552.749 83.6285L551.287 80.7062L550.428 78.3855L549.998 75.7211L549.311 70.2203L549.568 68.3294L548.795 64.8914L544.841 61.7972L543.724 59.8204L543.38 58.3593L542.348 47.5296L540.114 44.0057L538.824 40.9974L538.652 39.5363L538.824 37.9892L541.231 34.809L541.833 33.6057L541.919 27.3314L541.833 26.3L542.864 26.1281L545.099 23.7215L547.076 19.8538L546.13 17.9629L548.021 11.6886L550.944 13.6654L553.952 18.6505L556.359 21.4868L559.109 20.7993L559.367 18.9943L558.765 16.6737L559.023 14.353L560.742 11.6886L562.289 10.915L564.095 11.3448L568.736 13.8373L573.893 18.9084L574.409 19.9398L574.839 23.4637L576.128 23.8934L601.656 23.4637L604.235 24.2372L609.736 27.9331L618.073 29.9099L625.637 34.4652L631.052 36.0123L633.975 36.1842L636.209 35.3247L640.851 31.543L642.742 30.7694L648.415 31.1992L653.572 32.8322L658.643 35.6685L663.628 39.7941L669.215 45.9825Z" fill="#009649" stroke="white" stroke-width="2" stroke-linejoin="round"></path>
<path class="region" data-country-region="East Region" d="M770.124 341.478L767.889 342.251L765.827 341.993L761.701 339.501L762.217 337.868L763.764 336.149L765.139 336.407L767.804 338.126L769.007 339.415L770.124 341.478ZM763.764 388.062H763.506L743.651 381.53L741.502 382.218L738.837 382.304L735.915 381.186L734.797 380.155L734.196 375.514L731.703 372.849L719.756 372.935L717.693 371.388L716.747 370.013L715.114 369.927L713.051 372.591L711.332 373.279L708.668 372.935L704.8 370.357L703.425 370.013L701.791 370.958L699.643 375.943L698.439 377.748L695.689 378.006L692.165 374.396L685.976 375.514L685.03 374.826L683.483 374.654L682.108 375.256L680.475 376.545L678.412 380.928L677.209 385.14L673.513 389.008L665.089 391.844L661.05 391.758L660.62 390.813L659.245 388.75L658.127 388.664L656.58 389.523L654.947 391.93L653.658 393.219L652.282 393.391L650.305 392.36L649.704 392.618V394.079L650.219 398.376L650.048 400.525L648.93 402.76L647.985 403.877L644.117 405.768L641.882 401.385L640.679 400.009L637.842 397.947L636.553 396.399L633.974 394.423L626.238 396.829L624.433 397.861L621.855 398.806L620.394 399.064L617.729 395.97L616.354 394.766L614.893 392.446H613.26L611.626 393.649L606.211 400.181L603.891 402.244L601.656 402.932L598.647 405.08L596.069 406.456L573.463 404.651L569.853 380.069L569.08 360.472L572.432 352.909L577.073 344.572L586.184 331.421V329.531L581.543 312.856L586.442 311.137L590.396 311.395L593.232 310.622L595.553 309.504L607.501 300.737L610.079 299.792L611.97 300.136L613.088 301.511L613.947 303.402L615.065 304.261L616.44 303.574L619.448 300.05L622.886 299.362L625.293 301.511L625.981 301.597L627.786 300.308L632.427 298.331L637.069 300.995L642.14 302.886L647.211 303.23L648.243 302.628L649.876 300.308L652.024 294.463L653.486 292.744L654.861 292.572L656.408 293.862L661.135 296.01L673.427 293.002L677.467 285.267L680.217 274.437L684.171 275.296L690.532 280.367L695.689 281.313L697.408 282.172L700.674 282.43L701.276 279.852L700.244 272.632L700.674 270.827L701.448 269.967H702.565L705.573 268.077L707.722 265.67L709.441 264.209L711.074 263.263L717.951 261.544L720.615 266.701L725.429 280.539L729.812 303.488L730.156 310.364L729.812 322.998L730.844 328.499L733.938 332.539L737.032 333.57L742.963 333.656L752.332 338.899L754.309 340.532L755.34 342.251L754.911 343.54L753.879 344.83L753.363 346.549V352.049L753.965 354.972L754.911 357.292L755.254 359.613L754.223 362.535L759.724 370.185L761.271 371.302L761.615 372.935L761.873 380.757L762.131 383.593L763.764 388.062Z" fill="#009649" stroke="white" stroke-width="2" stroke-linejoin="round"></path>
<path class="region" data-country-region="West Region" d="M186.932 167.172L196.386 170.266L202.317 168.547L205.326 168.461L207.99 171.125L211.428 176.798L211.944 179.72L210.741 183.846L209.365 185.135L207.732 184.619L206.099 183.502L204.724 182.986L203.263 183.502L199.223 186.424H196.386L191.831 183.674L188.994 182.986L188.221 183.502L187.275 185.823L182.29 187.026L180.829 186.94L178.852 185.565L174.898 174.563L174.21 173.016L174.898 170.008L176.531 168.117L178.852 167.086L181.774 166.742L186.932 167.172ZM307.954 182.814L305.289 187.971L305.805 191.753L311.048 200.52L316.205 214.186L317.666 217.194L319.042 219.343L318.956 221.406L317.666 222.695L313.97 224.414L313.025 225.875V228.454L313.541 230.259L315.518 232.493L309.845 237.221L308.813 238.94L303.914 241.174L303.312 243.753L304.086 245.128L306.493 246.073L312.853 246.159L314.228 247.019L314.658 248.308L314.314 249.855L311.822 256.731L305.547 260.083L301.937 261.286L296.78 264.638L294.545 264.724L290.075 263.521L289.044 264.123L288.356 268.076L287.583 270.999L284.746 275.124L282.512 276.499H280.191L276.581 274.437L275.12 274.179L274.776 275.21L275.549 278.562L275.12 282.602L275.635 286.642L280.105 291.799L280.535 292.486L280.707 294.549L270.134 293.603L259.734 296.268L246.755 294.377L244.606 294.549L237.988 297.385L237.902 297.471L236.269 295.494L235.237 291.884L235.151 288.876L234.55 287.415L232.573 288.275L230.768 290.767L229.65 293.518L228.533 294.807L226.556 292.744L226.04 290.251L226.9 287.415L228.103 284.665L228.791 282.086L228.017 277.273L226.47 270.827L225.439 263.951L226.04 257.934L227.158 255.7L228.361 255.356L231.197 256.387L232.143 255.786L232.659 254.582L232.573 253.379L230.338 251.144L229.994 247.706L230.768 244.698H232.573L237.73 247.191L242.715 246.331L247.786 244.354L252.944 243.753L255.608 244.87L260.765 248.308L263 249.082H267.126L267.728 246.417L267.47 244.612L266.696 243.753L264.547 242.549L264.032 239.799L264.891 236.791L266.782 234.9L269.017 235.072L274.26 237.994L276.839 238.424L273.229 234.126L268.931 231.032L264.719 230.774L261.109 234.9L258.617 231.548L255.866 231.29L250.193 233.095L240.309 232.407L237.128 233.095L234.464 234.728L233.088 236.017L232.057 237.478L231.283 237.736L226.986 236.447L224.407 236.963L216.757 240.229L221.829 230.86L224.407 228.54L228.877 227.766L229.822 225.875L221.399 214.272L220.281 209.373L215.812 202.669V197.426L218.734 193.386L227.673 194.074L230.596 190.12L232.917 191.667L235.323 191.839L237.73 190.894L242.114 187.198L243.145 185.909L243.575 184.19V181.009L242.715 174.735L240.566 170.18L237.558 167L234.378 164.937L236.097 168.375L240.051 172.329L241.77 175.767L240.652 176.54L238.16 176.798L237.128 177.4L234.378 181.009L234.206 183.502L233.432 186.424L232.143 186.682L230.596 183.846L229.822 182.986L221.055 180.752L217.531 177.743L213.921 172.071H217.703L216.757 167.343L217.531 164.077L223.634 156.772L225.095 155.568L226.47 156.342L228.791 159.522L228.963 145.942L224.493 132.964L222.43 122.993L229.822 118.18L231.283 118.352L234.12 119.469L235.753 119.813L236.87 119.212L238.847 116.719L241.942 115.172L243.575 112.937L245.466 111.046L248.216 110.789L255.436 117.836H255.78L258.015 121.79L262.313 124.541L263.946 126.947L266.266 132.534L267.728 133.909L272.025 135.198L274.948 136.745L276.925 138.378L281.394 144.223L284.574 145.082L286.036 144.739L289.474 143.363L296.78 142.762L303.742 145.598L309.329 150.669L309.931 153.935L309.759 155.826L310.274 158.405L313.197 161.671L313.799 162.702L313.369 164.507L308.04 172.5L306.321 176.11L305.891 179.892L306.407 181.009L307.954 182.814Z" fill="#009649" stroke="white" stroke-width="2" stroke-linejoin="round"></path>
<path class="region" data-country-region="West Region" d="M472.125 180.837L467.483 185.822L467.655 187.971L469.46 190.206L469.718 192.956V195.621L469.46 198.371L468.515 200.09L465.936 201.465L463.701 203.356L460.951 210.318L461.81 212.381L463.873 213.584L466.28 216.936L465.248 220.116L464.045 222.265L463.014 225.789L461.295 228.367L458.2 229.313L456.395 230.516L455.88 231.977L456.223 233.61L458.458 237.908L458.888 241.346L458.63 243.323L455.794 250.371L450.55 251.66L446.339 251.832L437.314 249.769L437.056 251.918L435.079 252.433L431.985 251.746L429.922 252.691L427.171 254.668L425.022 256.817L420.381 263.177L417.544 264.294L416.943 261.802L416.599 258.02L415.396 252.004L414.966 247.792L414.192 246.159L412.645 244.956L409.379 244.096L406.8 244.268L403.448 245.729L400.01 246.331L391.587 244.01L387.031 243.752L382.132 250.8L376.287 252.262L371.903 254.066H370.098L368.637 252.262L368.809 249.253L368.293 248.308L366.23 247.706L364.683 247.62L360.3 249.597L356.088 253.379L354.455 256.387L353.595 259.567L351.79 261.802L349.813 263.005L342.937 264.81L332.279 263.349L315.604 259.997L311.822 256.731L314.315 249.855L314.658 248.308L314.229 247.019L312.853 246.159L306.493 246.073L304.086 245.128L303.312 243.752L303.914 241.174L308.814 238.939L309.845 237.22L315.518 232.493L313.541 230.258L313.025 228.453V225.875L313.971 224.414L317.667 222.695L318.956 221.406L319.042 219.343L317.667 217.194L316.205 214.186L311.048 200.52L305.805 191.753L305.289 187.971L307.954 182.814L311.736 179.892L312.853 177.485L313.713 174.993L314.658 173.704L316.549 172.758L319.558 172.586L323.855 173.961L332.966 174.735L335.889 169.32L343.109 157.631L344.398 156.084L359.01 152.732L368.895 153.677L370.184 153.333L371.13 149.81L370.958 148.434L368.981 144.824L368.723 143.363L370.528 140.355L371.216 135.112L373.364 131.072L374.482 129.611L377.06 127.463L378.951 124.884L383.421 121.704L398.549 123.767L399.666 122.735L401.557 121.704L410.754 119.125L415.825 119.383L415.052 125.572L415.224 128.15L416.083 130.385L418.49 132.706L422.959 140.269L426.14 142.59L435.079 145.77L436.97 149.981L444.792 154.279H447.886L449.949 154.021L451.41 155.138L453.731 157.545L454.59 162.1L455.364 167.171L456.137 169.148L457.942 171.211L462.154 174.047L466.538 177.915L472.125 180.837Z" fill="#009649" stroke="white" stroke-width="2" stroke-linejoin="round"></path>
<path class="region" data-country-region="West Region" d="M121.091 175.68L123.24 177.399L136.82 176.54L149.885 182.986L152.034 186.424L152.464 189.088L151.776 193.128L152.034 195.449L153.238 197.941L156.074 200.348L157.965 203.442L159.942 205.591L160.887 207.052L161.403 209.63L161.317 212.638L161.747 214.357L164.068 215.131L164.325 220.374L163.38 223.124L161.403 223.468L155.816 219.514L152.98 218.655L152.034 219.6L151.69 221.233L151.003 222.093L149.284 220.632L147.049 221.749H144.728L142.579 222.523L140.86 225.789L142.15 225.875L143.009 226.562L143.525 227.938L143.697 230.258L143.525 233.524L141.806 234.212L140.43 235.673L137.938 237.134L134.07 237.306L130.46 236.017L128.913 233.094L130.374 230.344L133.296 228.195L135.445 226.047L134.414 223.296L132.093 223.124L128.827 224.671L125.475 227.078L123.24 229.399L120.403 235.759L115.762 250.8L112.238 256.387L106.307 259.567L98.8291 260.427L91.5231 258.45L86.3659 252.777L88.7726 250.628L90.9214 247.276L89.1164 244.526L86.6237 239.713L84.4749 234.47L83.6154 230.258V223.984L83.1856 220.288L81.8963 217.366L75.3638 209.544L71.6678 207.052L67.714 205.848L63.2444 206.192L54.4772 208.513L50.1795 208.083L32.2153 198.199L29.8086 195.449L31.2698 191.151L36.5129 190.292L46.5695 191.753L86.3659 186.424L83.7013 184.619L83.5294 182.814L85.1625 182.126L88.1709 183.845L89.718 183.673L89.6321 174.477L91.8669 172.07L94.9612 171.812L97.2819 170.867L99.3448 168.718L101.15 164.936L101.666 162.53L101.923 158.146L103.127 155.912L104.502 155.224L110.261 155.912L113.785 156.427L117.825 157.975L120.231 160.467L117.223 167.945L118.512 172.242L121.091 175.68Z" fill="#009649" stroke="white" stroke-width="2" stroke-linejoin="round"></path>
<path class="region" data-country-region="West Region" d="M195.269 491.717L192.604 491.975L189.768 490.17L188.221 487.849L188.565 483.552L189.08 482.005L191.143 482.349L193.98 484.583L195.355 486.044L195.957 488.365L195.269 491.717ZM110.347 285.954L111.293 286.469L112.668 285.954L115.075 283.461L115.934 282.945L118.685 283.805L120.919 285.352L123.24 286.125L126.163 284.836L130.546 279.164L133.383 277.101L138.11 279.593L145.244 277.788L148.253 278.476L151.261 280.367L157.45 282.602L163.724 287.157L171.116 290.595L173.867 294.463L175.844 299.877L176.875 301.425L178.852 303.315L184.267 306.238L189.94 307.699L193.292 308.902L197.762 311.996L201.801 316.036L203.778 320.162L202.661 323.857L194.066 317.755L190.885 320.162L194.152 321.451L195.441 322.826L196.386 325.319L190.542 324.459L187.963 322.912L185.298 320.162L184.267 317.153L183.407 315.434L182.032 314.747H179.969L178.938 316.638L177.906 321.365L177.477 322.826L176.445 324.545L173.523 327.209L171.288 326.608L170.171 327.123L169.655 329.96L169.913 333.14L170.514 336.062L167.42 338.469L164.584 342.079L161.747 344.227L155.816 339.414L152.722 339.586L151.777 341.735L154.699 345.001L145.674 357.378L143.525 358.581L141.376 359.269L139.142 360.816L135.188 365.801L133.297 367.262L130.288 367.778L124.1 367.176L121.177 368.121L119.716 371.302L125.991 375.255L121.435 379.639L114.129 380.584L112.238 374.654L110.175 373.278L107.683 372.591L105.19 372.763L102.955 373.88L100.119 377.06L99.4311 376.545L97.9699 373.88L96.0789 372.247L94.8756 373.966L93.6722 378.349L91.8672 380.068L90.9217 380.24L90.0622 374.654L88.1712 374.568L85.8505 375.599L83.6157 377.404L82.1545 379.295L80.7792 380.584L77.599 379.037L76.2237 379.295L75.1923 380.068L72.6137 381.616L71.5823 381.787L67.4565 384.452L63.6745 387.976L61.8695 390.554L60.924 391.414L60.4943 392.703L60.2364 402.243L59.6347 407.83L58.5174 413.417L54.7354 423.903L53.618 426.309L52.1568 428.372L50.7816 430.607L50.6097 433.099L51.2113 438.772L49.4923 441.351L30.3247 458.798L26.113 458.97L22.5029 453.641L23.0187 450.633L22.5889 447.883L21.2136 445.734L18.9789 444.531L18.8929 441.265L22.417 441.608L23.4484 441.265L24.3939 439.546L25.8551 434.131L26.7146 431.81L31.7859 423.903L34.1066 418.488L35.3959 416.167L36.7712 415.222L38.7481 415.824L40.4672 416.941L42.1003 417.628L43.7334 416.941L44.507 415.222L45.2805 409.893L46.1401 407.4L51.2113 399.493L48.203 396.141L42.9598 393.906L33.5909 392.273L31.0123 389.523L26.113 377.404L23.0187 374.654L14.2514 374.568L9.8678 373.107L5.99991 369.583L3.76512 365.113L2.73368 362.105L2.64773 359.87L4.36679 358.667L11.415 360.816L9.8678 356.862L7.54706 352.822L6.68753 349.728L9.60994 348.525L12.0166 350.244L14.1655 353.596L16.3143 355.659L18.8929 353.596L17.6896 349.127L19.4946 346.462L22.5029 345.603L25.3394 346.548L24.136 343.626L22.5029 338.125L16.4862 326.436L13.6497 322.568L10.4695 317.067L8.66446 314.747L4.79656 311.051L1.18652 306.066L8.32064 309.418H10.4695L12.5324 308.644L12.8762 306.324L14.1655 304.175L19.3227 304.347L23.1906 305.636L26.6287 309.074L32.4735 320.076L33.2471 322.74L33.7628 327.811L34.3645 328.585L35.9116 329.014L37.115 327.983V325.748L36.4274 321.966L37.115 315.176L37.8026 312.254L39.1779 309.418L40.8969 307.699L45.2805 305.378L46.9996 303.315L48.5468 299.706L49.1484 297.815L50.0939 297.041L52.5866 296.955L53.7899 300.393L54.1337 304.691L54.7354 306.152L56.6264 307.699L60.6662 308.386L62.0414 303.229L62.1274 296.096L62.7291 290.939L67.2846 286.985L86.3662 284.836L98.1418 275.382L102.525 274.093L103.987 275.468L106.565 281.57L108.886 283.461L110.347 285.954ZM205.841 276.499L205.497 278.992L205.755 281.14L206.873 283.461L209.279 286.555L210.311 288.274L212.46 292.486L212.889 294.549L210.139 296.611L209.022 298.932L207.732 300.565L205.669 299.706L203.521 298.158L201.2 297.385L196.386 296.955L194.581 297.557L190.542 299.963L188.994 299.706L176.961 288.274L170.085 285.524L166.818 282.172L167.334 276.671L168.967 275.296L173.179 276.757L175.156 275.726L175.5 274.264L176.445 268.936L176.961 266.959L179.711 263.349L182.548 261.974L185.556 262.146L197.762 265.755L203.435 269.279L205.24 271.428L205.927 273.921L205.841 276.499Z" fill="#009649" stroke="white" stroke-width="2" stroke-linejoin="round"></path>
<path class="region" data-country-region="East Region" d="M763.764 388.062L763.936 388.491L770.898 402.759L772.875 409.807L774.164 412.385L778.462 414.448L778.892 417.027L778.376 423.043L778.548 428.63L779.064 434.904L780.095 441.093L781.986 446.507L784.393 438.944L785.424 436.709L786.628 437.225L789.12 439.288L789.98 445.39L789.292 448.656L788.347 451.493L787.831 454.415L788.604 458.025L789.722 459.4L803.388 465.073L805.623 467.565L806.741 472.55L805.022 475.988L801.927 478.223L793.418 481.747L773.907 484.755L772.531 483.552L759.466 478.223L752.074 476.762L747.347 477.965L742.19 480.629L739.095 480.028L737.033 476.59L736.173 475.902L733.852 476.246L732.993 475.988L732.477 474.613L733.337 471.261L734.626 468.768L739.181 464.643L738.838 461.033L736.775 458.197L735.829 458.025L733.508 460.087L732.133 460.173L730.07 459.486L722.506 455.704L713.825 449.516L711.676 448.14L708.926 448.312L706.519 449.258L704.542 451.149L705.23 457.165L704.112 458.111L689.071 452.352L685.375 453.813L682.108 454.845L679.272 454.071L667.324 455.016L663.199 452.954L655.979 451.321L652.798 452.524L649.446 452.954L645.406 452.438L643.343 451.75L641.968 450.633L636.725 448.57L637.327 435.248L638.444 432.068L638.874 427.599L638.53 422.527L638.788 419.777L638.616 417.8L640.163 412.299L641.453 408.69L644.117 405.767L647.985 403.876L648.93 402.759L650.048 400.524L650.22 398.376L649.704 394.078V392.617L650.306 392.359L652.283 393.391L653.658 393.219L654.947 391.929L656.58 389.523L658.127 388.663L659.245 388.749L660.62 390.812L661.05 391.757L665.09 391.843L673.513 389.007L677.209 385.139L678.412 380.928L680.475 376.544L682.108 375.255L683.484 374.654L685.031 374.825L685.976 375.513L692.165 374.396L695.689 378.006L698.44 377.748L699.643 375.943L701.792 370.958L703.425 370.012L704.8 370.356L708.668 372.935L711.333 373.278L713.052 372.591L715.114 369.926L716.748 370.012L717.693 371.387L719.756 372.935L731.703 372.849L734.196 375.513L734.798 380.154L735.915 381.186L738.838 382.303L741.502 382.217L743.651 381.529L763.506 388.062H763.764Z" fill="#009649" stroke="white" stroke-width="2" stroke-linejoin="round"></path>
<path class="region" data-country-region="West Region" d="M294.115 409.549L289.904 411.784L286.208 408.346L285.434 402.157L287.755 398.461L291.709 397.086L295.662 398.032L296.78 404.048L294.115 409.549ZM455.793 250.37L460.521 251.917L464.819 252.261L467.053 253.55L468.343 255.097V256.558L466.538 261.2L466.022 264.552L463.701 274.436L460.177 276.241L459.232 277.96L458.974 279.851L460.091 283.547L460.177 286.125L458.716 287.328L453.387 289.305L451.496 291.282L449.691 294.118L447.972 296.267L442.299 300.565L433.188 304.862L428.116 310.449L427.171 312.512L428.976 316.637L429.664 319.56L429.75 325.748L425.796 328.756L425.194 331.85L425.624 337.609L424.678 343.196L422.787 351.103L424.335 354.369L425.194 355.057L427.515 355.744L431.726 351.533L433.617 351.705L434.391 352.564L445.135 354.627L447.026 355.572L452.355 360.386L460.349 365.629L461.896 367.262L462.498 369.754L460.091 372.591L460.263 375.943L460.435 384.881L459.833 385.999L459.06 386.171L458.286 385.053L456.653 383.936L449.347 385.655L448.23 387.03L447.37 388.921L447.628 391.07L448.058 393.132L447.972 395.281L447.37 396.055L445.221 395.109L443.588 394.937L441.697 396.914L441.009 398.375L441.095 399.579L442.986 401.47L444.19 403.275L444.018 405.079L442.729 405.509L440.838 405.423L438.775 404.908L436.97 405.251L436.196 406.197L435.165 409.635L433.789 410.924L431.383 412.471L430.351 414.018L430.179 415.479L431.383 417.886L432.07 422.012L433.532 424.848L425.452 433.185L422.014 435.592L411.613 437.139L408.347 439.201L404.05 443.155L400.611 442.553L397.087 440.319L392.876 439.201L390.899 441.866L388.406 448.914L386.257 450.547L378.092 451.492L368.637 450.633L365.886 451.234L358.838 457.767L353.423 460.603L351.79 462.58L349.555 468.596L348.008 471.175L344.914 472.98L341.046 473.152L335.115 470.745L336.576 468.424L337.608 466.018L338.897 457.251L345.257 441.35L347.578 431.294L354.111 423.301L356.517 418.831V406.455L357.463 400.868L357.635 397.688L356.947 395.023L355.916 392.617L355.228 389.866V387.03L356.947 381.529V375.943L357.377 373.02L360.127 369.238L364.253 366.574L367.863 363.222L369.496 357.291L368.207 351.791L365.199 347.407L353.767 338.297L348.266 335.89L342.679 335.46L337.951 337.781L336.49 339.93L334.943 342.938L333.74 346.29L333.31 349.384L333.052 353.338L332.536 355.658L328.325 363.136L326.692 365.543L324.715 367.09L322.308 367.777L317.323 366.402H314.916L312.595 368.723L310.103 374.567L308.899 375.599L306.493 374.653L305.117 373.106L300.992 366.058L294.803 360.3L291.193 355.744L282.168 351.877L276.753 351.447L274.174 350.244L271.338 346.548L270.134 346.462L268.587 348.009L267.556 348.525L265.063 346.806L263.688 346.29L262.484 347.493L260.851 350.158L259.906 350.415L258.874 349.384L258.015 347.235L257.241 344.313L256.726 341.219L256.554 338.64L255.866 334.859L254.319 332.796L252.514 331.335L251.053 329.014L250.279 325.662V322.998L251.053 316.637L251.225 308.988L250.451 302.627L248.474 299.533L244.52 301.596L242.887 301.424L240.223 299.619L237.902 297.47L237.988 297.385L244.606 294.548L246.755 294.376L259.734 296.267L270.134 293.603L280.707 294.548L280.535 292.485L280.105 291.798L275.635 286.641L275.12 282.601L275.549 278.562L274.776 275.21L275.12 274.178L276.581 274.436L280.191 276.499H282.512L284.746 275.124L287.583 270.998L288.356 268.076L289.044 264.122L290.076 263.52L294.545 264.724L296.78 264.638L301.937 261.286L305.547 260.082L311.822 256.73L315.604 259.996L332.279 263.348L342.937 264.81L349.813 263.005L351.79 261.801L353.595 259.567L354.455 256.387L356.088 253.378L360.299 249.597L364.683 247.62L366.23 247.706L368.293 248.307L368.809 249.253L368.637 252.261L370.098 254.066H371.903L376.287 252.261L382.131 250.8L387.031 243.752L391.586 244.01L400.01 246.33L403.448 245.729L406.8 244.268L409.379 244.096L412.645 244.955L414.192 246.159L414.966 247.792L415.395 252.003L416.599 258.02L416.943 261.801L417.544 264.294L420.381 263.177L425.022 256.816L427.171 254.668L429.921 252.691L431.984 251.745L435.079 252.433L437.056 251.917L437.313 249.768L446.339 251.831L450.55 251.659L455.793 250.37Z" fill="#009649" stroke="white" stroke-width="2" stroke-linejoin="round"></path>
</svg>