<svg width="232" height="569" viewBox="0 0 232 569" fill="none" xmlns="http://www.w3.org/2000/svg">
<path class="region" data-country-region="1" d="M148.208 196.543L147.446 196.889L146.637 196.658L145.967 196.173L145.551 195.734L146.152 194.878L146.683 192.89L147.446 192.266L149.433 193.26L148.301 193.884L148.255 194.693L148.532 195.618L148.208 196.543Z" fill="#009649" stroke="white" stroke-width="2" stroke-linejoin="round"></path>
<path class="region" data-country-region="South Region" d="M134.645 341.589L134.784 342.028L137.325 345.01L137.741 345.796L137.903 346.766L138.342 347.945L138.92 349.055L139.451 349.818L140.699 350.742L141.739 351.043L142.825 351.135L144.096 351.597L145.274 352.684L145.251 353.632L144.858 354.579L145.02 355.666L146.037 356.405L147.169 356.128L148.347 355.481L148.809 355.319V358.486L143.056 362.022L137.695 366.067L133.651 367.755L132.542 368.009L131.803 367.94L130.971 367.2L129.793 366.645L128.868 365.998L128.383 365.79L127.759 365.605L126.696 365.49L125.01 365.166L124.27 365.282L122.653 366.599L122.052 365.744L120.065 364.681L119.441 364.773L118.886 365.143L118.378 365.559L117.847 365.906L117.269 366.021L116.137 365.906L115.582 365.975L108.558 368.495L103.382 368.656L101.094 369.627L100.563 370.367L99.754 372.239L99.1763 372.609L91.6898 371.592H89.6102L87.6692 372.077L83.5331 374.62L81.5229 375.36L79.5126 375.152L75.6769 372.193L74.1749 372.678L73.0889 374.343L72.4882 376.469V379.012L72.2571 380.329L71.5639 380.838L70.293 380.445L69.4612 379.682L68.8604 378.688L68.4214 377.509L69.6691 376.839L70.293 375.868L71.0093 375.406L71.6332 374.828L73.2276 372.332L73.4586 371.569L73.6666 368.356L73.8746 367.223L74.2443 366.16L74.7526 365.282L75.3996 364.588L76.3008 364.01L81.2225 361.606L82.0543 360.982L82.8862 360.127L84.4112 359.017L85.2661 358.763L86.537 358.879L87.2302 358.694L88.9401 357.977L89.6102 357.885L90.2803 357.862L90.8579 357.584L91.4356 356.96L91.7822 355.735L92.1288 352.337L92.4523 351.32L93.0069 350.58L94.0236 350.026L96.727 349.656L97.4895 349.286L98.3214 348.546L99.2225 347.622L100.031 346.443L101.117 345.611L102.226 344.524L102.943 342.444L103.382 341.542L103.983 340.618L105.045 339.439L105.923 338.168L106.963 337.104L107.61 336.203L109.551 332.528L109.828 331.649L110.152 330.91L110.522 330.424L111.377 329.962L113.202 328.667L114.496 327.419L115.744 325.27L118.886 329.731L123.277 334.03L124.27 335.232L126.65 339.531L128.891 342.906L130.047 344.085L130.902 344.617L131.572 344.178L133.074 342.56L133.513 342.19L134.206 341.75L134.645 341.589Z" fill="#009649" stroke="white" stroke-width="2" stroke-linejoin="round"></path>
<path class="region" data-country-region="South Region" d="M222.843 425.358L204.473 425.034L204.288 425.15L203.156 426.144L202.417 426.606L201.515 426.999L199.99 427.484L199.066 427.623L198.257 427.6L196.94 427.207L193.313 425.682L191.926 425.381L191.071 425.427L190.286 425.682L189.823 426.028L188.483 427.415L187.767 427.854L187.12 427.901L186.196 427.716L185.04 427.323L183.862 427.068L183.146 427.184L182.568 427.577L181.967 428.201L181.112 428.825L180.419 428.802L179.888 428.455L179.01 426.745L179.587 426.19L180.142 424.988L180.373 423.439L181.413 420.689L181.852 418.747L183.099 416.158L183.261 415.418L183.354 414.286L183.538 413.639L184.001 412.737L186.173 409.339L187.235 408.6L187.998 407.906L188.46 406.311L189.153 400.371L188.992 396.903L188.206 393.714L186.496 391.911L186.288 391.772L186.404 391.171L186.034 390.108L185.942 389.322L185.965 388.929L186.242 388.235L186.727 387.334L186.866 386.571L187.212 386.155L187.698 386.224L188.391 386.525L188.83 386.802L190.031 387.889L190.817 388.767L191.58 390.038L191.995 390.385L192.527 390.616L193.289 390.778L196.963 392.049L198.003 392.257L199.112 392.049L200.129 391.494L202.001 389.53L203.087 388.929L203.826 388.674L204.519 388.258L205.305 387.288L205.628 386.294L205.698 385.277L205.351 382.803L205.374 382.318L205.559 381.925L206.645 380.746L207.639 380.099L209.164 379.475L212.676 378.643L214.432 378.411L216.535 378.319L218.129 377.741L220.139 376.123L222.704 379.428L226.17 382.942L227.002 384.028L227.418 385.277L228.157 400.671L228.619 401.341L229.544 401.48L231.069 401.434L226.447 412.46L223.005 420.596L222.519 422.445L222.542 424.156L222.843 425.358Z" fill="#009649" stroke="white" stroke-width="2" stroke-linejoin="round"></path>
<path class="region" data-country-region="North Region" d="M108.788 87.3245L109.019 87.9486L109.874 89.0581L110.452 90.2601L110.429 91.1385L109.99 93.6349L109.944 94.7675L110.937 98.697L112.139 112.635L112.069 115.086L109.435 117.189L99.5918 122.991L98.6213 121.095L97.7201 119.824L96.7034 118.622L92.1514 114.947L91.6431 114.785L91.3658 115.155L91.2272 115.663L90.7419 118.807L90.118 119.223L89.1245 119.362L82.4004 118.391L80.2284 118.645L77.6404 119.339L77.2707 119.593L77.1321 120.032L77.2707 120.471L77.6867 121.211L77.8022 121.535L77.7329 121.951L77.5018 122.505L77.0628 123.014L76.5775 123.338L75.9999 123.546L75.4222 123.638L74.7983 123.569L74.1282 123.153L73.7585 122.644L73.1809 121.465L72.7418 121.119L72.1411 121.026L69.4145 121.442H68.652L67.797 121.28L66.8265 120.749L66.0871 120.171L65.3477 119.454L64.6314 118.946L63.9151 118.715L62.9677 118.923L62.4594 119.292L62.0666 119.778L61.1654 121.35L60.7726 121.881L59.7097 122.991L58.4619 124.054L57.0062 125.094L56.3823 125.302L55.8047 125.141L55.5505 124.401L55.6429 123.8L56.0819 122.667L56.2206 121.951L56.2437 121.257L56.0588 119.986L55.7585 118.715L55.3656 118.299L54.7649 118.021L52.3849 117.929L49.7738 117.49L45.1294 115.594L44.8983 113.398L44.3669 111.133L43.3271 110.231L42.3566 110.37H41.4785L40.9009 109.977L40.9702 108.937L41.5941 107.666L42.2642 107.435L43.0036 107.643L43.8816 107.666L44.9214 107.018L46.2616 104.984L47.1166 104.222L48.087 103.898L49.8894 103.528L50.8598 103.135L51.8534 102.973L54.2103 103.436L55.2963 103.505L56.2437 103.066L57.5377 101.771L58.6006 101.563L60.0563 100.662L60.8419 99.4136L61.9972 96.5011L65.4632 92.5947L66.4106 91.9706L67.3349 91.5545L70.1308 89.5204L71.2168 88.5034L72.3952 86.7466L72.3721 86.4692L74.3824 85.6602L91.8973 77.6855L101.995 86.1919L103.52 87.1396L103.982 87.1165L104.86 86.816L105.553 86.631L106.2 86.6773L107.772 87.1858L108.788 87.3245Z" fill="#009649" stroke="white" stroke-width="2" stroke-linejoin="round"></path>
<path class="region" data-country-region="North Region" d="M97.7435 204.98L98.3905 209.764L99.6614 213.255L99.7769 213.971L99.8 214.78L100.031 215.451L101.325 215.959L101.695 216.514L101.81 217.207L101.649 217.762L103.289 218.155L104.699 217.924H106.085L107.749 218.987L109.944 225.483L110.198 227.124L110.152 227.794L109.69 228.488L109.02 229.25L108.719 229.921L108.511 231.724L108.534 233.527L108.835 235.376L109.944 238.727L111.446 241.432L112.532 242.703L115.212 243.882L115.281 245.454L114.334 248.991L114.773 250.516L116.922 252.458L117.708 253.752L117.754 254.7L117.315 256.387L117.477 257.266L118.031 257.774L118.563 257.335L118.932 256.503L119.14 255.763L119.348 256.803L118.817 258.976L118.701 260.224L119.533 263.9L119.672 275.781L120.342 280.843L119.972 282.877L118.447 285.05L117.546 287.13L117.8 289.557L118.701 291.938L119.048 292.539H118.886L112.74 296.076L109.805 297.347L108.072 297.694L107.24 297.786L105.068 298.803L104.468 289.118L103.012 283.478L103.081 282.392L103.358 281.421L103.659 280.774L103.728 280.173L103.127 276.335L102.919 275.596L102.527 275.018L101.718 274.902L100.447 274.787L100.054 274.44L99.7769 273.747L99.7538 273.03L100.054 271.782L100.147 271.181L100.008 270.811L99.6614 270.788L96.6575 271.689L96.3802 271.897L96.2185 272.175L95.7333 274.047L95.4791 274.625L95.1556 275.041L94.6472 275.457L94.0927 275.573L93.5843 275.388L92.8911 274.925L92.429 274.486L92.0362 274.001L92.1286 272.753L92.0593 272.059L91.2737 270.672L90.5112 269.678L90.0028 268.245L89.9335 264.662L90.8578 263.784L91.0426 263.507L91.551 262.166L92.0824 261.38L94.8783 259.069L95.5946 258.722L95.7102 258.491L95.6408 258.098L95.2942 257.173L92.9142 254.376L92.1748 253.151L91.551 252.342L90.6729 251.787L90.0028 251.602L88.8013 251.487L84.7807 251.972L84.1799 251.949L83.6716 251.741L83.325 251.348L83.0015 250.562L82.8166 249.823L82.886 247.557L83.8333 241.779L85.4508 239.606L87.3686 236.324L88.1774 235.468L88.6626 235.122L89.2403 234.89L91.343 234.567L93.6999 233.712L94.4624 233.226L95.5715 232.302L96.1723 231.955L96.7962 231.724L98.3212 231.354L99.6383 231.192L100.031 231.007L100.378 230.591L100.632 230.036L101.14 228.395L101.741 227.702L102.827 226.661L103.058 226.315L102.781 225.737L102.064 225.367H101.394L99.7538 225.783L98.8758 225.876L97.9977 225.783L97.0965 225.575L96.2647 225.275L93.6768 223.957L92.7525 223.795L90.904 223.865L90.2108 223.518L89.5869 222.801L89.0323 222.038L88.5471 221.183L88.2005 220.12L88.0387 218.502L87.8308 217.392L86.4906 215.89L85.7743 214.803L84.7114 212.584L83.764 211.637L82.7473 211.036L80.4829 210.828L79.6741 210.504L79.1196 209.926L78.7961 209.048L78.5188 206.991L78.5419 206.367L79.7897 204.379L84.3879 200.495L85.705 200.195L86.3288 200.241L87.0221 200.449L88.5471 201.813L89.4945 202.46L92.4059 203.731L97.6049 204.98H97.7435Z" fill="#009649" stroke="white" stroke-width="2" stroke-linejoin="round"></path>
<path class="region" data-country-region="North Region" d="M97.7433 204.98H97.6046L92.4056 203.731L89.4942 202.46L88.5468 201.813L87.0218 200.449L86.3286 200.241L85.7047 200.195L84.3876 200.495L80.1129 200.541L79.5352 200.403L79.05 200.102L78.6803 199.709L78.3568 199.155L78.0102 198.762L77.6174 198.507L76.4158 198.114L75.8613 197.814L75.4223 197.398L75.3298 196.797L75.5147 196.08L76.231 194.925L76.9242 194.116L77.5943 193.607L78.3106 193.376L79.0962 193.283L79.8587 193.122L80.575 192.752L81.1296 192.197L82.5853 190.209L82.8626 189.539L82.6546 188.66L82.3543 187.967L82.077 187.065L81.9845 186.048L82.0308 184.569L81.8921 183.506L81.4531 181.795L81.4993 181.125L81.6611 180.478L82.308 179.484L82.6315 178.004L83.0706 176.687V175.462L82.7933 174.861L81.7997 174.005L81.4993 173.566L81.2451 172.595L81.0834 172.249L79.9974 171.324L79.5815 170.723L79.258 170.007L79.1424 169.244L79.0731 168.481L79.0962 167.626L79.258 166.123L80.0667 162.124L80.4133 161.315L80.9447 160.529L81.9614 159.327L82.7471 158.703L84.2952 157.802L85.8202 156.323L86.3748 155.999L86.9294 155.837L87.8767 155.906L90.6957 156.692L91.181 156.739L91.7587 156.716L92.4287 156.507L93.0295 156.161L93.6072 155.398L94.1617 154.358L94.9936 152.393L95.6637 151.515L96.4031 151.006L97.5122 150.937L98.2747 151.099L99.3376 151.561L100.608 150.96L101.926 150.613L102.549 150.29L102.827 149.689L102.896 148.463L102.041 145.759L101.071 144.649L100.77 144.21L99.1066 137.623L98.7369 137.068L98.2516 136.721L97.1887 136.12L97.0039 135.288L97.1194 133.993L98.8293 128.192L99.5918 122.991L109.435 117.189L112.069 115.085L111.885 121.789L112.347 124.17L113.34 125.533L111.376 129.047L110.868 130.873L111.677 132.768L112.069 133.439L112.092 134.202L111.885 136.004L112.116 137.16L112.601 137.784L113.248 138.224L113.895 138.94L115.304 143.055L115.79 152.162L117.176 157.316L117.153 159.42L117.476 160.183L117.962 160.899L118.331 161.916L118.701 163.881L118.632 166.239L118.031 167.695L115.119 170.469L114.357 170.908L113.895 171.37L113.618 171.81L113.363 172.711L113.109 173.104L112.324 173.728L110.637 174.699L109.944 175.369L109.158 176.987L108.58 179.183V181.31L109.458 182.789L101.371 189.03L100.47 190.209L100.031 191.48L99.6611 194.254L98.8293 197.883L98.552 200.218L97.7202 203.754L97.7433 204.98Z" fill="#009649" stroke="white" stroke-width="2" stroke-linejoin="round"></path>
<path class="region" data-country-region="North Region" d="M99.5921 122.991L98.8296 128.192L97.1197 133.994L97.0042 135.288L97.189 136.12L98.2519 136.721L98.7372 137.068L99.1069 137.623L100.771 144.211L101.071 144.65L102.041 145.759L102.896 148.464L102.827 149.689L102.55 150.29L101.926 150.613L100.609 150.96L99.338 151.561L98.275 151.099L97.5125 150.937L96.4034 151.006L95.664 151.515L94.9939 152.393L94.1621 154.358L93.6075 155.398L93.0298 156.161L92.4291 156.508L91.759 156.716L91.1813 156.739L90.6961 156.693L87.8771 155.907L86.9297 155.837L86.3751 155.999L85.8206 156.323L84.2955 157.802L82.7474 158.704L81.9618 159.328L80.9451 160.53L80.4136 161.316L80.067 162.125L79.2583 166.124L79.0965 167.626L79.0734 168.481L79.1427 169.244L79.2583 170.007L79.5818 170.723L79.9977 171.324L81.0837 172.249L81.2454 172.596L81.4996 173.567L81.8 174.006L82.7936 174.861L83.0709 175.462V176.687L82.6318 178.005L82.3084 179.484L81.6614 180.478L81.4996 181.125L81.4534 181.795L81.8924 183.506L82.0311 184.569L81.9849 186.049L82.0773 187.066L82.3546 187.967L82.655 188.661L82.8629 189.539L82.5856 190.209L81.1299 192.197L80.5754 192.752L79.859 193.122L79.0965 193.284L78.3109 193.376L77.5946 193.607L76.9245 194.116L76.2313 194.925L75.515 196.08L75.3301 196.797L75.4226 197.398L75.8616 197.814L76.4162 198.115L77.6177 198.508L78.0105 198.762L78.3571 199.155L78.6806 199.71L79.0503 200.103L79.5356 200.403L80.1132 200.542L84.388 200.495L79.7897 204.379L78.542 206.367L78.5189 206.991L78.7961 209.048L79.1196 209.926L79.6742 210.504L80.4829 210.828L82.7474 211.036L83.7641 211.637L84.7114 212.585L85.7744 214.804L86.4907 215.89L87.8308 217.392L88.0388 218.502L88.2005 220.12L88.5471 221.183L89.0324 222.039L89.5869 222.801L90.2108 223.518L90.904 223.865L92.7526 223.795L93.6768 223.957L96.2648 225.275L97.0966 225.575L97.9978 225.783L98.8758 225.876L99.7539 225.783L101.394 225.367H102.065L102.781 225.737L103.058 226.315L102.827 226.662L101.741 227.702L101.14 228.395L100.632 230.036L100.378 230.591L100.031 231.007L99.6383 231.192L98.3213 231.354L96.7962 231.724L96.1723 231.955L95.5716 232.302L94.4624 233.226L93.6999 233.712L91.343 234.567L89.2403 234.891L88.6627 235.122L88.1774 235.468L87.3687 236.324L85.4509 239.606L83.8334 241.779L83.2326 241.964L82.1466 242.703H81.8L81.3841 242.403L79.8128 241.039L79.2121 240.715L78.7037 240.554L78.334 240.623L77.5022 240.669L77.1787 240.785L76.0696 241.617L75.0298 242.033L74.1979 242.125L73.2274 242.056L72.2801 241.917L71.4713 241.686L70.755 241.27L70.3853 240.947L69.6228 240.068L68.375 238.196L67.8898 237.687L67.1966 237.318L66.2954 237.225L65.4405 237.318L65.0939 236.971L64.8397 236.185L64.909 234.081L65.117 233.203L65.3943 232.602L65.9026 232.117L66.0644 231.793L66.0182 231.261L65.8564 230.66L65.3481 229.736L64.4469 228.626L64.2852 228.095L64.1696 227.332L64.1234 223.379L64.2852 222.501L64.4469 222.131L64.8397 221.484L65.5329 220.675L65.9257 220.028L66.0875 219.149L65.6947 218.641L65.2325 218.248L62.0438 217.577L60.9809 217.323L61.2813 217.138L61.9283 215.982L61.8127 214.48L61.004 214.18L59.8025 214.226L57.0297 213.232L51.7845 214.827L49.2889 213.948L47.9025 211.799L46.6548 206.713L45.7536 204.333L44.9449 203.339L42.9346 201.397L42.4032 200.218L42.3107 197.768L42.5649 195.364L45.3608 188.707L46.0309 184.985L46.4237 183.83L46.6779 182.697L46.4006 181.657L45.5919 180.062L45.5688 178.906L46.5161 176.155L46.7703 173.497L45.9616 161.685L45.5457 160.507L44.5752 159.397L43.4198 159.212L42.1721 159.351H40.9705L39.7921 158.912L39.561 158.334L40.6008 156.092L41.063 154.728L41.1323 153.826L40.8088 147.655L41.4789 146.614L43.2812 148.117L43.882 147.123L43.9051 146.198L43.7664 145.251L43.882 144.234L44.2055 143.841L45.2915 143.378L45.6843 143.032L45.7767 142.592L45.5457 141.783L45.6381 141.298L50.6291 133.555L51.6227 131.52L52.2466 129.371L49.959 125.349L48.3647 123.754L47.0476 121.928L46.0309 119.917L45.3377 117.744L45.1297 115.594L49.7742 117.49L52.3852 117.929L54.7652 118.021L55.366 118.299L55.7588 118.715L56.0592 119.986L56.244 121.257L56.2209 121.951L56.0823 122.667L55.6433 123.8L55.5508 124.401L55.805 125.141L56.3827 125.302L57.0066 125.094L58.4623 124.054L59.71 122.991L60.7729 121.881L61.1658 121.35L62.0669 119.778L62.4597 119.293L62.9681 118.923L63.9155 118.715L64.6318 118.946L65.3481 119.454L66.0875 120.171L66.8269 120.749L67.7974 121.28L68.6523 121.442H69.4148L72.1414 121.026L72.7422 121.119L73.1812 121.465L73.7589 122.644L74.1286 123.153L74.7987 123.569L75.4226 123.638L76.0002 123.546L76.5779 123.338L77.0631 123.014L77.5022 122.506L77.7332 121.951L77.8026 121.535L77.687 121.211L77.2711 120.471L77.1325 120.032L77.2711 119.593L77.6408 119.339L80.2288 118.645L82.4008 118.391L89.1248 119.362L90.1184 119.223L90.7423 118.807L91.2275 115.664L91.3662 115.155L91.6434 114.785L92.1518 114.947L96.7038 118.622L97.7205 119.824L98.6216 121.096L99.5921 122.991Z" fill="#009649" stroke="white" stroke-width="2" stroke-linejoin="round"></path>
<path class="region" data-country-region="South Region" d="M113.387 320.115L113.248 322.126L112.463 322.935L110.498 323.767L109.528 324.438L109.066 324.946L108.765 325.501L108.719 325.963L108.835 326.472L109.204 326.795L109.805 326.865L110.545 326.587L113.017 325.316L114.126 325.039L115.027 324.992L115.744 325.27L114.496 327.419L113.202 328.668L111.377 329.962L110.522 330.424L110.152 330.91L109.828 331.649L109.551 332.528L107.61 336.203L106.963 337.105L105.923 338.168L105.045 339.439L103.982 340.618L103.382 341.543L102.943 342.444L102.226 344.525L101.117 345.611L100.031 346.443L99.2224 347.622L98.3213 348.547L97.4894 349.286L96.7269 349.656L94.0234 350.026L93.0067 350.581L92.4522 351.32L92.1287 352.337L91.7821 355.735L91.4355 356.96L90.8578 357.584L90.2801 357.862L89.61 357.885L88.9399 357.977L87.2301 358.694L86.5369 358.879L85.266 358.763L84.411 359.018L82.886 360.127L82.0542 360.982L81.2223 361.606L76.3006 364.01L75.3995 364.588L74.7525 365.282L74.2441 366.16L73.8744 367.223L73.6665 368.356L73.4585 371.569L73.2274 372.332L71.6331 374.828L71.0092 375.406L70.2929 375.868L69.669 376.839L68.4212 377.51L67.4046 374.713L66.8038 373.788L65.9951 373.141L64.0772 372.262L63.2685 371.615L62.6677 370.644L62.298 369.743L61.8359 368.865L60.8885 368.032L57.8846 366.669L56.9603 365.929L55.6664 364.172L52.0617 356.822L50.814 355.065L49.8204 353.146L50.0052 351.806L49.1734 348.154L48.0874 345.126L47.9488 344.108L48.0643 343.23L48.6188 341.612L48.7575 340.41L48.2722 338.191L48.2491 337.521L48.3416 337.035L48.5726 336.434L48.7113 335.463L48.5726 334.585L48.2491 333.822L46.8396 331.649L45.7536 328.899L45.4763 328.367L44.9911 327.836L44.4828 327.419L43.8589 326.772L43.2119 325.94L42.5187 324.553L42.4263 323.906L42.5187 323.421L42.9808 322.843L43.3505 321.803L43.443 319.93L43.5354 319.399L43.7202 319.052L44.3903 318.058L44.5983 317.549L44.7369 316.717L44.6676 316.139L44.5059 315.608L44.529 315.192L44.8525 314.521L45.7998 313.435L45.9847 313.088L46.2158 312.233L46.5393 311.516L47.6715 310.014L48.1336 308.974L49.4045 307.541L51.5072 305.784L51.7614 305.368L51.9924 304.744L52.1311 303.542L52.108 302.871L51.9693 302.363L51.6458 301.669L51.7382 301.138L52.3621 299.589L52.8243 299.289L53.8872 298.919L54.4648 298.133L55.8281 299.057L56.1978 299.381L56.5213 299.913V300.467L56.0592 303.079V304.189L57.2607 309.598L57.3763 310.615L57.6536 311.678L58.3467 312.741L61.6741 314.452L65.8564 314.498L77.1093 311.331L77.7563 311.262L78.126 311.447L78.2878 312.071L78.3571 312.788L78.4958 313.504L78.9579 315.099L79.212 316.833L79.5355 317.757L80.3674 318.474L81.6614 318.89L84.18 318.844L87.5998 318.335L88.5471 318.289L89.6563 318.382L91.3893 318.774L93.4689 319.63L94.9015 320.023L95.3636 320.208L96.2417 320.785L96.8193 321.248L97.4201 322.126L98.044 322.704L99.0838 323.259L102.781 322.866L104.26 322.519L105.531 321.941L106.385 321.433L107.217 321.063L108.118 320.924L110.706 321.225H111.423L113.387 320.115Z" fill="#009649" stroke="white" stroke-width="2" stroke-linejoin="round"></path>
<path class="region" data-country-region="South Region" d="M103.867 299.913L104.976 305.322L104.953 306.177L104.768 307.333L104.144 308.396L104.213 308.65L105.092 309.205L105.554 309.552L108.765 312.742L109.343 313.227L109.944 313.574L110.498 313.736H111.099L111.792 313.597L114.311 312.233L114.796 312.048L115.212 312.094L115.697 312.441L115.905 313.181V313.967L115.813 315.122L116.044 315.747L116.437 316.139L117.107 316.486L117.477 317.133L117.407 317.596L117.061 318.266L116.368 318.728L115.328 319.075L114.635 319.237L113.895 319.56L113.387 320.115L111.423 321.225H110.706L108.118 320.924L107.217 321.063L106.385 321.433L105.531 321.941L104.26 322.519L102.781 322.866L99.0838 323.259L98.044 322.704L97.4201 322.126L96.8193 321.248L96.2417 320.786L95.3636 320.208L94.9015 320.023L93.4689 319.63L91.3893 318.775L89.6563 318.382L88.5472 318.289L87.5998 318.335L84.18 318.844L81.6614 318.89L80.3674 318.474L79.5356 317.758L79.2121 316.833L78.9579 315.099L78.4958 313.504L78.3571 312.788L78.2878 312.071L78.1261 311.447L77.7563 311.262L77.1094 311.332L65.8564 314.498L61.6741 314.452L58.3468 312.742L57.6536 311.678L57.3763 310.615L57.2608 309.598L56.0592 304.189V303.08L56.5213 300.468V299.913L56.1978 299.381L55.8281 299.058L54.4648 298.133L55.7819 295.59L56.3134 293.949L57.1914 292.516L57.4225 292.031L57.9771 290.389L58.0233 289.557L57.746 288.887L57.3532 288.263L57.0759 287.593V287.2L57.2839 286.876L57.6073 286.645L58.2543 286.622L58.6703 286.783L59.7563 287.708L60.565 288.055L61.4199 288.147L61.859 287.985L62.3211 287.708L62.8295 286.922L63.4071 286.483L64.1927 285.027L64.5162 284.726L65.5329 284.195L66.1568 283.732L66.4572 283.362L66.7114 282.831L67.3584 281.236L68.4675 280.103L69.022 282.692L69.9232 283.409L70.7319 283.871L71.7486 284.657L73.6203 286.552L74.637 288.009L75.4457 289.511L77.0169 293.556L77.2249 294.527L77.4097 297.832L77.6408 299.081L78.0336 299.659L78.4033 299.936L78.9117 299.982L82.6087 300.051L86.4676 298.711L87.2763 298.549L88.3854 298.572L89.4945 298.803L91.2969 299.474L92.3135 299.705L94.3238 299.52L95.4098 299.566L99.4766 301.069L100.17 301.207H100.771L101.256 301.092L103.243 300.26L103.867 299.913Z" fill="#009649" stroke="white" stroke-width="2" stroke-linejoin="round"></path>
<path class="region" data-country-region="North Region" d="M108.789 87.3246L107.772 87.1859L106.201 86.6774L105.554 86.6312L104.86 86.8161L103.982 87.1166L103.52 87.1397L101.995 86.192L91.8977 77.6857L75.6537 52.2361L74.8681 50.5718L74.3135 49.8553L73.8051 49.6703L71.2403 49.9246L69.6228 49.9477L68.9528 49.6934L68.0516 49.1849L65.6254 47.1277L65.0708 46.781L63.8231 46.6192L63.0606 46.4573L62.2749 46.0413L61.7435 45.5096L61.1889 44.6544L60.8192 44.2383L60.3571 43.8685L59.8256 43.5911L58.9938 42.9901L58.6472 42.4816L58.5085 41.8806L58.5548 40.9791L58.6934 40.7248L58.9938 40.5168L60.7961 39.9389L64.2159 37.7661L64.5856 37.4194L65.2557 36.5641L66.18 36.3792L66.7576 36.1943L67.705 35.3391L68.1902 34.7612L68.6524 34.0215L69.2994 32.5884L69.5535 32.2185L70.2929 31.6407L71.1941 30.7161L71.6793 30.3L72.0953 30.0457L72.6267 29.8839L73.8283 29.6528L74.1055 29.2136L74.1517 28.4508L73.6896 27.2026L73.5279 26.486L73.4354 25.1222L73.1351 24.4288L72.6498 23.6198L72.4419 22.9726L72.3956 22.4409L72.6036 21.1927L72.6498 20.3837L72.3494 19.7596L72.049 19.436L70.6858 16.8702L72.5343 16.6391L74.4059 15.5758L76.6935 14.9517L78.6344 16.1536L80.4599 18.0028L82.3084 19.2279L83.9721 19.8983L85.9824 21.1234L87.6922 22.5796L88.4779 24.0127L89.3097 24.6137L88.7783 25.1454L88.4317 27.5031L88.9862 32.4959L90.6499 36.4717L91.2045 36.726L91.759 36.7953L92.198 37.0033L92.3829 37.7199V40.1932L93.1685 45.1167L95.2481 49.9708L101.117 58.5002L105.068 62.4991L107.31 64.1634L108.465 65.1805L108.95 66.1975L109.274 67.2839L110.059 68.4166L112.578 71.329L113.156 72.3461L113.895 74.8425L114.704 76.6686L114.843 76.8766L114.404 77.6394L113.965 77.7319L113.479 77.6163L112.879 77.8475L111.677 78.8876L111.284 79.5349L111.423 81.8232L111.585 82.4473L111.862 83.0252L111.885 83.5569L111.423 84.0654L109.69 85.0824L109.205 85.5448L108.604 86.8161L108.789 87.3246Z" fill="#009649" stroke="white" stroke-width="2" stroke-linejoin="round"></path>
<path class="region" data-country-region="South Region" d="M223.398 478.707L222.774 478.591L222.196 478.291L221.734 478.36L221.11 478.545L220.532 478.938L220.001 479.123L219.493 479.516L218.753 479.354L218.014 478.776L217.529 478.522L216.281 477.505L215.195 476.442L214.363 475.841L214.063 475.748L212.283 476.372L209.464 478.892L209.118 478.429L207.038 472.697L206.715 472.281L206.114 472.327L205.467 471.495H205.259L204.681 471.079L204.45 470.732L204.057 469.553L203.803 468.143L203.341 461.324L202.902 460.978L202.186 460.908L202.07 460.77L202.278 459.984L203.064 458.574L203.526 457.903L203.896 457.21L204.127 457.094L204.45 456.563L204.82 455.453L204.728 455.176L204.196 454.552L205.12 452.263L205.698 451.709L206.461 451.177L207.316 450.784L211.059 448.288L212.722 446.739L213.762 445.606L215.495 444.82L218.176 443.965L226.309 443.665L224.83 465.3L224.137 475.956L223.398 478.707Z" fill="#009649" stroke="white" stroke-width="2" stroke-linejoin="round"></path>
<path class="region" data-country-region="South Region" d="M176.861 449.42L174.204 454.413L174.134 455.222L174.227 456.262L174.689 456.817L174.989 458.204L175.151 460.354L174.989 467.543L175.105 468.999L175.544 470.293L177.138 473.367L169.513 478.037L168.519 478.222L167.133 478.314L166.301 478.615L165.816 479.1L165.331 479.77L163.99 482.221L163.297 483.099L161.518 484.717L160.963 485.087L159.023 485.642L158.56 485.988L158.352 485.826L158.168 485.457L157.867 484.324L157.844 483.677L157.937 483.238L158.468 482.521L158.514 482.128L158.237 481.735L157.474 481.55L156.758 481.62H156.088L155.741 481.273L155.788 480.464L156.85 478.36L156.943 477.736L156.85 476.326L157.058 475.54L157.844 474.084L158.121 473.414V472.951L157.451 471.172L157.012 470.617L156.111 470.432L148.925 469.762L148.486 464.237L147.978 462.573V461.648L149.064 461.047L149.503 460.539L149.872 459.938L150.034 459.429L149.872 454.852L150.034 453.581L150.866 452.749L154.332 450.507L155.557 450.044L156.643 448.311L159.23 440.66L160.409 438.903L161.079 438.626L163.043 436.892L163.782 436.684L166.024 436.384L167.503 435.667L169.005 438.418L170.622 439.828L173.002 443.341L173.649 444.127L174.319 444.659L174.943 444.774H176.168L176.63 444.89L176.745 445.19L176.56 445.606L175.082 447.363L174.827 447.802L174.712 448.265L174.781 448.843L175.105 449.212L175.544 449.397L175.937 449.467L176.861 449.42Z" fill="#009649" stroke="white" stroke-width="2" stroke-linejoin="round"></path>
<path class="region" data-country-region="South Region" d="M222.843 425.357L224.507 432.246L226.54 440.544L226.309 443.664L218.175 443.965L215.495 444.82L213.762 445.606L212.722 446.739L211.058 448.287L207.315 450.784L206.46 451.177L205.698 451.708L205.12 452.263L204.196 454.551L202.463 455.823L201.931 456.285L199.829 458.758L199.274 458.943L198.396 459.082L195.392 459.198L194.491 459.359L193.544 459.845L192.943 460.099L190.956 460.238L187.744 459.082L186.958 458.597L186.103 457.811L185.087 456.331L184.601 455.337L184.024 453.696L183.538 453.026L182.891 452.517L181.759 452.032L181.043 451.523L180.535 450.738L180.488 450.021L180.604 448.981L180.465 448.518L180.072 448.38L179.264 448.842L178.802 449.166L178.339 449.397L177.854 449.235L176.861 449.42L175.936 449.466L175.544 449.397L175.105 449.212L174.781 448.842L174.712 448.264L174.827 447.802L175.081 447.363L176.56 445.606L176.745 445.19L176.63 444.889L176.167 444.774H174.943L174.319 444.658L173.649 444.127L173.002 443.341L170.622 439.827L169.004 438.417L167.502 435.667L170.622 433.725L173.487 432.962L174.388 432.084L175.775 429.795L179.01 426.744L179.888 428.455L180.419 428.801L181.112 428.825L181.967 428.2L182.568 427.576L183.146 427.183L183.862 427.068L185.04 427.322L186.196 427.715L187.12 427.9L187.767 427.854L188.483 427.415L189.823 426.028L190.286 425.681L191.071 425.427L191.926 425.38L193.313 425.681L196.94 427.207L198.257 427.599L199.066 427.623L199.99 427.484L201.515 426.998L202.417 426.606L203.156 426.143L204.288 425.149L204.473 425.034L222.843 425.357Z" fill="#009649" stroke="white" stroke-width="2" stroke-linejoin="round"></path>
<path class="region" data-country-region="South Region" d="M223.397 478.707L222.912 480.603L222.935 481.758L223.351 484.024L223.259 485.202L222.589 486.797L221.526 488.022L216.35 491.628L215.61 491.998L214.963 492.068L213.6 491.813L212.884 491.86L206.09 493.917L204.357 494.102L204.011 494.518L203.803 495.674L203.341 496.367L202.44 496.321L201.492 495.858L200.891 495.281L200.383 494.055L199.205 493.246L197.726 492.83L196.339 492.761L194.722 493.177L193.382 494.102L188.414 498.632L188.021 499.118L187.235 498.285L186.981 497.916L186.866 497.268L187.004 496.459L187.513 495.165L187.975 494.448L188.391 493.917L188.784 493.593L189.407 492.946L189.685 490.819L188.807 484.047L189.754 481.666L190.101 481.319L190.47 480.487L190.54 479.424L189.546 467.127L189.592 464.422L190.956 460.238L192.943 460.1L193.544 459.845L194.491 459.36L195.392 459.198L198.396 459.083L199.274 458.944L199.829 458.759L201.931 456.286L202.463 455.823L204.196 454.552L204.727 455.176L204.82 455.453L204.45 456.563L204.126 457.095L203.895 457.21L203.526 457.904L203.063 458.574L202.278 459.984L202.07 460.77L202.185 460.909L202.902 460.978L203.341 461.325L203.803 468.144L204.057 469.554L204.45 470.732L204.681 471.079L205.259 471.495H205.467L206.114 472.327L206.714 472.281L207.038 472.697L209.117 478.43L209.464 478.892L212.283 476.373L214.062 475.748L214.363 475.841L215.194 476.442L216.281 477.505L217.528 478.522L218.014 478.776L218.753 479.354L219.492 479.516L220.001 479.123L220.532 478.938L221.11 478.545L221.734 478.36L222.196 478.291L222.773 478.592L223.397 478.707Z" fill="#009649" stroke="white" stroke-width="2" stroke-linejoin="round"></path>
<path class="region" data-country-region="South Region" d="M149.872 454.852L150.034 459.429L149.872 459.938L149.503 460.539L149.064 461.047L147.978 461.648V462.573L148.486 464.237L148.925 469.761L133.79 469.345L130.971 468.467L120.943 464.121L119.926 463.705L124.316 457.534L125.171 455.176L125.402 452.24L149.872 454.852Z" fill="#009649" stroke="white" stroke-width="2" stroke-linejoin="round"></path>
<path class="region" data-country-region="South Region" d="M155.557 432.916L170.622 433.725L167.503 435.667L166.024 436.384L163.782 436.684L163.043 436.892L161.079 438.626L160.409 438.903L159.23 440.66L156.643 448.311L155.557 450.045L154.332 450.507L150.866 452.749L150.034 453.581L149.872 454.852L125.402 452.24L124.755 447.779V445.283L125.633 444.058L126.927 443.387L128.314 441.122L129.746 440.244L130.232 439.319L130.578 437.447L130.902 436.522L131.71 435.436L132.589 434.835L133.513 434.349L134.483 433.61L135.777 431.691L136.055 429.773L135.361 424.526L136.332 424.618L139.682 425.288L143.911 426.606L144.234 426.629L145.413 426.444L145.944 426.467L146.522 426.606L147.539 426.976L150.358 427.507L151.397 427.831L152.252 428.224L152.853 428.733L153.431 429.357L153.777 430.374L153.916 431.206L153.962 432.362L153.8 433.124L153.962 433.748L154.771 433.841L155.557 432.916Z" fill="#009649" stroke="white" stroke-width="2" stroke-linejoin="round"></path>
<path class="region" data-country-region="South Region" d="M157.035 300.768L156.388 303.75L156.227 302.317L156.411 301.138L156.573 300.583L157.035 300.768ZM134.645 341.589L134.206 341.751L133.513 342.19L133.074 342.56L131.572 344.178L130.902 344.617L130.047 344.085L128.891 342.907L126.65 339.532L124.27 335.232L123.277 334.03L118.886 329.731L115.744 325.27L115.027 324.992L114.126 325.039L113.017 325.316L110.545 326.587L109.805 326.865L109.205 326.795L108.835 326.472L108.719 325.963L108.766 325.501L109.066 324.946L109.528 324.438L110.499 323.767L112.463 322.935L113.248 322.126L113.387 320.115L113.895 319.56L114.635 319.237L115.328 319.075L116.368 318.728L117.061 318.266L117.407 317.596L117.477 317.133L117.107 316.486L116.437 316.139L116.044 315.746L115.813 315.122L115.906 313.967V313.181L115.698 312.441L115.212 312.094L114.796 312.048L114.311 312.233L111.793 313.597L111.099 313.735H110.499L109.944 313.574L109.343 313.227L108.766 312.742L105.554 309.552L105.092 309.205L104.214 308.65L104.144 308.396L104.768 307.333L104.953 306.177L104.976 305.322L103.867 299.913L105.068 298.803L107.241 297.786L108.072 297.694L109.805 297.347L112.74 296.076L118.886 292.539H119.048L122.583 298.387L124.085 301.716L125.472 303.357L126.049 304.281L126.743 304.998L127.736 305.299L129.053 305.067L131.271 304.235L132.381 304.328L133.328 304.975L133.859 305.853L134.784 307.887L135.754 308.974L137.857 310.869L138.273 311.886L138.804 312.649L139.913 313.481L140.745 314.475L140.399 315.654L139.613 316.995V318.012L139.867 319.052L139.705 320.416L139.359 320.97L138.134 321.918L137.741 322.45L137.672 323.166L138.18 324.391L138.273 324.969L137.025 328.367L136.54 329.222L134.714 331.21L133.582 332.782L133.212 334.655L134.437 340.988L134.645 341.589Z" fill="#009649" stroke="white" stroke-width="2" stroke-linejoin="round"></path>
<path class="region" data-country-region="South Region" d="M186.288 391.772L186.496 391.91L188.206 393.713L188.992 396.903L189.153 400.37L188.46 406.311L187.998 407.906L187.236 408.599L186.173 409.339L184.001 412.737L183.539 413.638L183.354 414.286L183.261 415.418L183.1 416.158L181.852 418.747L181.413 420.688L180.373 423.439L180.142 424.988L179.587 426.19L179.01 426.745L175.775 429.796L174.388 432.084L173.487 432.963L170.622 433.725L155.556 432.916L160.848 409.223L160.802 408.068L160.594 407.397L160.848 406.542L164.499 401.526L164.822 400.856L166.024 396.649L166.139 395.701L166.116 394.985L165.816 393.736L165.654 392.673L166.047 391.749H166.74L186.288 391.772Z" fill="#009649" stroke="white" stroke-width="2" stroke-linejoin="round"></path>
<path class="region" data-country-region="South Region" d="M148.925 469.761L156.111 470.432L157.012 470.617L157.451 471.171L158.121 472.951V473.414L157.844 474.084L157.058 475.54L156.85 476.326L156.943 477.736L156.85 478.36L155.787 480.464L155.741 481.273L156.088 481.619H156.758L157.474 481.55L158.237 481.735L158.514 482.128L158.468 482.521L157.936 483.237L157.844 483.677L157.867 484.324L158.167 485.456L158.352 485.826L158.56 485.988L159.022 485.641L163.089 492.252L172.586 503.232L172.702 503.787L172.725 504.526L172.632 505.081L173.556 508.225L171.246 519.135L171.038 519.644L170.807 519.944L170.275 520.268L168.912 521.539L165.076 525.908L164.637 526.67L164.244 527.965L164.314 528.751L164.476 529.352L164.429 529.768L164.06 530.161L163.182 530.577L161.888 531.363L160.686 532.519L158.653 535.662L158.006 535.177L156.758 534.645L155.672 533.998L154.979 532.865L154.447 531.247L153.893 530.23L150.565 527.41L149.849 526.416L148.578 523.92L147.654 522.903L143.148 520.499L142.617 520.291L142.178 519.944L141.3 517.748L140.93 517.078L140.445 516.546L138.157 514.789L137.256 513.888L136.493 512.755L134.506 507.601L132.912 505.959L129.746 505.497L127.297 505.405L125.911 503.972L122.976 497.476L123.276 494.957L124.663 490.172L124.362 488.092L123.161 486.404L117.222 480.117L116.183 479.47L113.826 478.337L112.948 477.551L112.162 475.494L112.023 472.859L112.393 470.27L113.156 468.421L115.189 466.225L116.437 465.231L117.661 464.653L119.117 464.191L119.926 463.705L120.943 464.121L130.971 468.467L133.79 469.345L148.925 469.761Z" fill="#009649" stroke="white" stroke-width="2" stroke-linejoin="round"></path>
<path class="region" data-country-region="South Region" d="M190.956 460.238L189.592 464.422L189.546 467.126L190.54 479.423L190.47 480.487L190.101 481.319L189.754 481.665L188.807 484.046L187.374 483.214L186.519 482.336L185.965 481.619L185.664 480.949L185.271 479.354L184.879 478.314L184.44 477.643L181.921 475.263L181.39 474.639L180.927 473.922L180.465 473.598L179.772 473.39L177.138 473.367L175.544 470.293L175.105 468.998L174.989 467.542L175.151 460.353L174.989 458.204L174.689 456.817L174.226 456.262L174.134 455.222L174.203 454.413L176.861 449.42L177.854 449.235L178.339 449.397L178.802 449.166L179.264 448.842L180.072 448.38L180.465 448.519L180.604 448.981L180.488 450.021L180.535 450.738L181.043 451.524L181.759 452.032L182.891 452.517L183.538 453.026L184.024 453.696L184.601 455.337L185.087 456.331L186.103 457.811L186.958 458.597L187.744 459.082L190.956 460.238Z" fill="#009649" stroke="white" stroke-width="2" stroke-linejoin="round"></path>
<path class="region" data-country-region="North Region" d="M70.6856 16.8701L72.0489 19.4358L72.3493 19.7594L72.6497 20.3835L72.6035 21.1926L72.3955 22.4408L72.4417 22.9724L72.6497 23.6196L73.1349 24.4287L73.4353 25.1221L73.5277 26.4859L73.6895 27.2024L74.1516 28.4507L74.1054 29.2134L73.8281 29.6526L72.6266 29.8838L72.0951 30.0456L71.6792 30.2999L71.194 30.7159L70.2928 31.6405L69.5534 32.2184L69.2992 32.5882L68.6522 34.0214L68.1901 34.761L67.7049 35.3389L66.7575 36.1942L66.1798 36.3791L65.2556 36.564L64.5855 37.4193L64.2158 37.766L60.796 39.9388L58.9937 40.5167L58.6933 40.7247L58.5546 40.979L58.5084 41.8804L58.6471 42.4814L58.9937 42.99L59.8255 43.591L60.357 43.8683L60.8191 44.2382L61.1888 44.6542L61.7434 45.5095L62.2748 46.0411L63.0604 46.4572L63.8229 46.619L65.0707 46.7808L65.6253 47.1275L68.0515 49.1848L68.9526 49.6933L69.6227 49.9476L71.2402 49.9245L73.805 49.6702L74.3134 49.8551L74.8679 50.5717L75.6536 52.2359L91.8975 77.6855L74.3827 85.6602L72.3724 86.4692L72.28 85.4753L71.7716 84.1577V82.2623L69.8307 82.008L68.7216 80.7367L67.3352 77.5006L66.8037 76.8765L64.8165 75.0966L64.2158 74.2414L62.3441 69.7802L62.09 68.0466L62.529 64.0015L62.3672 61.7131L61.3505 60.5342L59.941 59.5403L58.6008 57.8067L56.7754 57.1363L55.4814 56.073L54.3261 54.8017L52.8242 53.5304L47.0244 50.9184L46.0539 49.6008L46.1001 47.7285L46.4699 45.9025L47.81 42.5046L49.9359 39.1991L50.4442 37.6735L49.9821 35.6625L48.8498 32.8194L48.3877 32.2415L45.7535 31.2707L44.8986 30.8084L44.0437 30.0456L43.4429 29.1672L42.4031 27.2256L41.6175 26.3703L39.8382 25.2608L39.1682 24.2437L38.9833 23.1804L39.2144 22.487L39.5841 21.9091L39.7689 21.1463L39.6765 20.0368L39.353 19.066L38.3363 17.263L36.9037 16.246L33.068 16.061L31.4274 15.252L31.0115 17.1243L30.7804 19.274L30.1334 20.5916L28.5622 20.0137L28.1925 19.3202L28.0307 18.4419L27.7535 17.6791L26.9678 17.3092L25.9974 17.5635L25.2117 18.0952L24.4261 18.465L23.4787 18.1414L22.6238 16.1766L23.8715 10.9757L23.8484 9.01097L23.2246 8.71048L22.1848 7.73965L21.6995 7.43915L20.8908 7.48538L20.4056 7.83211L19.9665 7.99391L19.2733 7.41604L18.9498 6.44521L18.7881 2.21517L19.8972 1.05942L21.2374 0.365976L22.6238 0.296631L23.8715 1.03631L27.43 4.59601L31.8202 7.99391L32.4672 8.24818L34.3851 8.68736L36.4647 9.5195L36.7188 9.65819L37.3658 9.45015L38.3594 8.61802L38.8216 8.38687H39.8151L41.294 8.84917L42.1489 8.91851L42.7497 8.73359L43.8819 7.9708L44.5058 7.85522L45.7767 8.31752L49.7972 11.1607L51.1143 12.4089L52.3158 15.0902L53.1939 16.4309L54.2799 17.2168L55.6663 17.6329L58.6008 17.864L60.8191 17.3092L62.5059 16.3384L64.2389 15.5987L66.642 15.853L68.814 16.5464L70.6856 16.8701Z" fill="#009649" stroke="white" stroke-width="2" stroke-linejoin="round"></path>
<path class="region" data-country-region="South Region" d="M48.1336 308.974L47.6715 310.014L46.5393 311.516L46.2158 312.233L45.9847 313.088L45.7998 313.435L44.8525 314.521L44.529 315.192L44.5059 315.608L44.6676 316.139L44.7369 316.717L44.5983 317.549L44.3903 318.058L43.7203 319.052L43.5354 319.399L43.443 319.93L43.3505 321.803L42.9808 322.843L42.5187 323.421L42.4263 323.906L42.5187 324.553L43.2119 325.94L43.8589 326.772L44.4828 327.419L44.9911 327.836L45.4764 328.367L45.7536 328.899L46.8396 331.65L48.2492 333.822L48.5726 334.585L48.7113 335.463L48.5726 336.434L48.3416 337.035L48.2492 337.521L48.2723 338.191L48.7575 340.41L48.6189 341.612L48.0643 343.23L47.9488 344.108L48.0874 345.126L49.1734 348.154L50.0053 351.806L49.8204 353.146L49.6356 352.777L49.1272 352.291L48.4802 352.037L47.4635 351.367L46.8859 350.696L45.0835 347.738L44.7832 346.42L45.1529 342.768L44.3672 340.687L42.7729 339.416L38.8447 337.243L37.6201 335.764L35.425 331.58L34.4083 330.725L33.692 331.141L32.9988 332.99L32.3518 333.614L29.9025 334.354L28.9089 334.886L27.9384 335.972L25.7202 339.624L24.4031 339.925L22.7394 337.775L22.3697 336.665L22.6239 332.967L22.7625 332.551L22.7394 332.158L22.3235 331.534L21.7458 331.233L20.475 331.303L19.8742 330.817L19.4352 329.662L19.2965 328.575L18.9961 327.443L15.4608 323.074L14.421 322.149L12.249 321.34L9.61483 320.809L7.55834 319.884L7.16553 317.896L7.92805 317.087L10.5391 315.839L11.1399 315.053L10.7471 314.151L8.04358 310.338L6.17194 309.482L3.56089 309.459L1.29644 308.951L0.4646 306.639L0.764986 305.114L1.45819 304.536L2.47488 304.628L3.79196 305.09L4.69312 304.952L6.61097 303.287L7.58145 302.686L10.1925 302.293L11.1168 301.646L11.4403 299.982L11.394 298.641L11.5558 297.509L12.1335 296.7L13.4505 296.492L15.4839 295.405L16.7548 292.608L17.7022 288.702L18.6726 288.586L34.3621 287.615L34.7549 287.847L35.1708 288.309L35.5174 289.372L35.5405 290.135L35.217 291.637L35.3094 292.539L35.6329 293.464L36.8114 295.937L37.5739 297.994L38.1978 299.196L39.0527 300.282L41.5944 302.663L42.588 303.865L43.3043 304.559L45.2684 305.715L48.1336 308.974Z" fill="#009649" stroke="white" stroke-width="2" stroke-linejoin="round"></path>
<path class="region" data-country-region="South Region" d="M166.047 391.749L165.654 392.673L165.816 393.736L166.116 394.985L166.139 395.701L166.024 396.649L164.822 400.856L164.499 401.526L160.848 406.542L160.594 407.397L160.801 408.068L160.848 409.223L155.556 432.916L154.771 433.841L153.962 433.748L153.8 433.124L153.962 432.361L153.916 431.206L153.777 430.374L153.43 429.357L152.853 428.732L152.252 428.224L151.397 427.831L150.357 427.507L147.538 426.976L146.522 426.606L145.944 426.467L145.412 426.444L144.234 426.629L143.91 426.606L139.682 425.288L136.331 424.618L135.361 424.526L134.575 418.885L134.76 417.637L135.407 416.828L135.222 415.996L134.783 415.072L134.622 414.008L135.038 412.991L136.493 410.957L137.002 409.871L137.14 408.622L136.632 407.513L135.846 406.403L135.199 405.225L134.783 403.745L134.622 402.52L134.598 397.088L134.206 394.753L133.443 392.581L132.242 390.223L131.572 387.703L132.519 383.312L132.45 380.861L131.271 378.527L127.574 374.828L125.91 372.771L123.6 367.986L122.652 366.599L124.27 365.282L125.009 365.166L126.696 365.49L127.759 365.606L128.383 365.79L128.868 365.998L129.792 366.646L130.971 367.2L131.803 367.94L132.542 368.009L133.651 367.755L137.695 366.068L143.056 362.023L148.809 358.486L149.294 365.952L150.311 371.084L152.275 377.001L160.547 388.119L161.472 388.998L163.644 389.946L166.047 391.749Z" fill="#009649" stroke="white" stroke-width="2" stroke-linejoin="round"></path>
<path class="region" data-country-region="North Region" d="M105.068 298.803L103.867 299.912L103.243 300.259L101.256 301.091L100.77 301.207H100.17L99.4764 301.068L95.4096 299.566L94.3236 299.52L92.3134 299.704L91.2967 299.473L89.4943 298.803L88.3852 298.572L87.2761 298.549L86.4674 298.71L82.6086 300.051L78.9115 299.982L78.4031 299.936L78.0334 299.658L77.6406 299.08L77.4096 297.832L77.2247 294.527L77.0167 293.556L75.4455 289.511L74.6368 288.008L73.6201 286.552L71.7484 284.657L70.7317 283.871L69.923 283.408L69.0219 282.692L68.4673 280.103L69.5302 280.01L70.6855 279.502L71.7253 278.878L72.9269 278.485L74.1284 278.231L74.4519 278.069L74.7061 277.768L74.8909 277.237L75.1451 276.867L75.6535 276.659L76.3467 276.266L77.1323 275.596L78.5649 273.931L79.4661 272.29L79.9051 271.735L80.8525 270.996L81.9154 270.556L82.5855 270.163L83.0245 269.747L83.3942 268.962L83.5328 268.407L84.226 267.713L84.7806 267.228L89.9334 264.662L90.0027 268.245L90.511 269.678L91.2736 270.672L92.0592 272.059L92.1285 272.752L92.0361 274.001L92.4289 274.486L92.891 274.925L93.5842 275.387L94.0926 275.572L94.6471 275.457L95.1555 275.041L95.479 274.625L95.7331 274.047L96.2184 272.174L96.3801 271.897L96.6574 271.689L99.6613 270.788L100.008 270.811L100.147 271.181L100.054 271.782L99.7537 273.03L99.7768 273.746L100.054 274.44L100.447 274.786L101.718 274.902L102.526 275.018L102.919 275.596L103.127 276.335L103.728 280.172L103.659 280.773L103.358 281.42L103.081 282.391L103.012 283.478L104.467 289.118L105.068 298.803Z" fill="#009649" stroke="white" stroke-width="2" stroke-linejoin="round"></path>
<path class="region" data-country-region="South Region" d="M188.807 484.047L189.685 490.819L189.408 492.946L188.784 493.593L188.391 493.917L187.975 494.448L187.513 495.165L187.005 496.459L186.866 497.268L186.981 497.916L187.236 498.285L188.021 499.118L186.45 501.013L185.133 503.787L184.648 507.208L184.809 507.994L185.664 510.097L185.387 510.837L183.7 512.871L183.608 513.241L180.257 512.201L179.056 512.478L178.779 512.963L178.062 512.848L177.508 512.617L173.557 508.225L172.632 505.081L172.725 504.526L172.702 503.787L172.586 503.232L163.089 492.252L159.022 485.641L160.963 485.087L161.518 484.717L163.297 483.099L163.99 482.22L165.331 479.77L165.816 479.1L166.301 478.615L167.133 478.314L168.519 478.222L169.513 478.037L177.138 473.367L179.772 473.391L180.465 473.599L180.928 473.922L181.39 474.639L181.921 475.263L184.44 477.644L184.879 478.314L185.272 479.354L185.664 480.949L185.965 481.619L186.519 482.336L187.374 483.214L188.807 484.047Z" fill="#009649" stroke="white" stroke-width="2" stroke-linejoin="round"></path>
<path class="region" data-country-region="South Region" d="M183.608 513.24L183.331 514.257L183.354 517.216L182.961 518.534L181.991 519.574L177.023 522.902L176.121 523.527L177.277 526.832L178.432 528.681L178.709 529.444L179.125 530.068L179.934 530.322L180.581 530.438L182.129 531.039L182.591 531.293L182.915 531.663L183.285 532.426L183.562 532.819L184.579 533.373L186.288 535.269L186.519 535.662L186.727 540.562L187.005 542.042L188.437 544.954L188.807 546.803L187.028 548.329L186.843 549.901L187.005 552.721L186.774 553.067L186.358 553.391L186.011 553.761L186.034 554.246L186.358 554.593L188.668 555.957L189.084 556.604L188.738 557.575L187.975 558.939L187.883 560.141L188.507 562.938L188.599 564.44L188.414 565.688L188.045 566.705L187.49 567.561L183.423 568L176.26 567.745L172.517 567.168L171.431 566.104L171.639 564.186L169.328 560.603L169.883 558.268L171.431 556.974L173.233 556.096L174.804 554.963L175.636 552.929L175.844 550.525L175.798 547.82L175.151 545.532L173.534 544.33L171.2 544.261L169.074 544.469L167.041 544.122L164.961 542.458L163.644 540.678L163.043 540.007L162.05 539.291L161.564 539.106L160.478 538.921L159.993 538.644L159.67 538.066L159.462 536.633L159.138 536.032L158.653 535.662L160.686 532.518L161.888 531.362L163.182 530.577L164.06 530.161L164.429 529.768L164.476 529.351L164.314 528.75L164.245 527.965L164.637 526.67L165.076 525.907L168.912 521.539L170.275 520.267L170.807 519.944L171.038 519.643L171.246 519.135L173.557 508.224L177.508 512.616L178.062 512.847L178.779 512.963L179.056 512.478L180.258 512.2L183.608 513.24Z" fill="#009649" stroke="white" stroke-width="2" stroke-linejoin="round"></path>
<path class="region" data-country-region="North Region" d="M83.8334 241.778L82.886 247.557L82.8167 249.822L83.0016 250.562L83.325 251.348L83.6716 251.741L84.18 251.949L84.7808 251.972L88.8013 251.487L90.0029 251.602L90.673 251.787L91.551 252.342L92.1749 253.151L92.9143 254.376L95.2943 257.173L95.6409 258.098L95.7102 258.49L95.5947 258.722L94.8784 259.068L92.0825 261.38L91.551 262.166L91.0427 263.506L90.8578 263.784L89.9336 264.662L84.7808 267.228L84.2262 267.713L83.533 268.407L83.3944 268.962L83.0247 269.747L82.5856 270.164L81.9155 270.556L80.8526 270.996L79.9053 271.735L79.4662 272.29L78.5651 273.931L77.1325 275.596L76.3468 276.266L75.6536 276.659L75.1453 276.867L74.8911 277.237L74.7063 277.768L74.4521 278.069L74.1286 278.231L72.9271 278.485L71.7255 278.878L70.6857 279.502L69.5304 280.011L68.4675 280.103L67.3584 281.236L66.7114 282.831L66.4572 283.362L66.1568 283.732L65.5329 284.194L64.5162 284.726L64.1927 285.026L63.4071 286.483L62.8294 286.922L62.3211 287.708L61.859 287.985L61.4199 288.147L60.565 288.055L59.7563 287.708L58.6702 286.783L58.2543 286.621L57.6073 286.645L57.2838 286.876L57.0759 287.199V287.592L57.3532 288.263L57.746 288.887L58.0233 289.557L57.977 290.389L57.4225 292.03L57.1914 292.516L56.3134 293.949L55.7819 295.59L54.4648 298.133L53.8872 298.919L52.8243 299.288L52.3621 299.589L51.7383 301.138L51.6458 301.669L51.9693 302.363L52.108 302.871L52.1311 303.542L51.9924 304.744L51.7614 305.368L51.5072 305.784L49.4045 307.54L48.1336 308.974L45.2684 305.714L43.3043 304.559L42.588 303.865L41.5944 302.663L39.0527 300.282L38.1978 299.196L37.5739 297.994L36.8114 295.937L35.6329 293.463L35.3094 292.539L35.217 291.637L35.5405 290.135L35.5174 289.372L35.1708 288.309L34.7549 287.846L34.362 287.615L18.6726 288.586L17.7021 288.702L18.6957 284.564L19.9897 281.698L21.7689 279.456L23.9178 278.809L24.2875 277.791L24.0796 276.959L22.9243 275.272L22.3697 274.024L22.0924 272.799L22 271.527L23.1091 263.437L25.0501 258.976L25.3967 256.942L24.7728 255.185L23.0398 253.544L21.1219 252.342L20.6598 251.556L20.2208 246.193L20.4749 244.922L21.4454 242.934L24.0103 239.074L26.1823 234.705L26.9448 233.734L27.9384 232.833L28.5161 232.579L29.0244 232.694L29.3941 233.087L29.6945 233.665L30.2028 234.15L30.8267 233.85L31.4737 233.295L32.0283 232.972L33.1605 232.671L33.692 232.602L34.3852 232.787L34.8704 233.295L35.7253 234.913L36.0257 235.283L36.742 235.26L37.0886 234.89L37.3197 234.382L37.7587 233.966L38.8678 233.203L39.5842 232.948L40.5777 232.255L41.7562 229.759L42.5649 228.834L43.1426 228.58L45.0373 228.256L45.9154 228.325L46.6086 228.672L47.2093 229.065L47.787 229.25L49.3583 228.88L50.9757 227.84L52.4315 226.361L53.5406 224.696L54.3493 223.934L56.5213 223.078L57.1452 222.2L57.2145 220.42L57.538 219.865L58.6009 219.68L59.1324 218.455L60.9809 217.323L62.0438 217.577L65.2325 218.247L65.6947 218.64L66.0875 219.149L65.9257 220.027L65.5329 220.674L64.8397 221.483L64.4469 222.131L64.2852 222.5L64.1234 223.379L64.1696 227.332L64.2852 228.094L64.4469 228.626L65.3481 229.735L65.8564 230.66L66.0182 231.261L66.0644 231.793L65.9026 232.116L65.3943 232.602L65.117 233.203L64.909 234.081L64.8397 236.185L65.0939 236.97L65.4405 237.317L66.2954 237.225L67.1966 237.317L67.8898 237.687L68.375 238.196L69.6228 240.068L70.3853 240.946L70.755 241.27L71.4713 241.686L72.2801 241.917L73.2274 242.056L74.1979 242.125L75.0298 242.033L76.0696 241.617L77.1787 240.784L77.5022 240.669L78.334 240.623L78.7037 240.553L79.2121 240.715L79.8128 241.039L81.3841 242.402L81.8 242.703H82.1466L83.2326 241.963L83.8334 241.778Z" fill="#009649" stroke="white" stroke-width="2" stroke-linejoin="round"></path>
<path class="region" data-country-region="South Region" d="M220.14 376.123L218.13 377.741L216.535 378.319L214.432 378.411L212.676 378.642L209.164 379.474L207.639 380.099L206.646 380.746L205.559 381.925L205.375 382.318L205.352 382.803L205.698 385.276L205.629 386.293L205.305 387.287L204.52 388.258L203.826 388.674L203.087 388.929L202.001 389.529L200.129 391.494L199.113 392.049L198.004 392.257L196.964 392.049L193.29 390.778L192.527 390.616L191.996 390.385L191.58 390.038L190.817 388.767L190.032 387.888L188.83 386.802L188.391 386.525L187.698 386.224L187.213 386.155L186.866 386.571L186.728 387.334L186.242 388.235L185.965 388.929L185.942 389.321L186.034 390.107L186.404 391.171L186.289 391.772L166.74 391.749H166.047L163.644 389.946L161.472 388.998L160.548 388.119L152.276 377.001L150.312 371.084L149.295 365.952L148.81 358.486V355.319L149.48 355.111L150.496 354.903L151.79 354.418L152.899 353.701L153.362 352.846L153.477 352.222L153.754 351.875L154.563 351.367L154.679 350.766L154.24 350.026L153.685 349.263L153.362 348.593L154.055 346.605L155.695 344.802L156.943 343.092L156.481 341.335L155.349 339.231L155.626 337.359L156.989 336.411L159.138 337.035L160.063 337.798L161.634 339.439L162.604 340.017L161.98 342.537L162.581 345.588L164.175 347.622L166.486 347.044L166.81 347.46L167.641 348.177L167.988 348.593L169.629 348.339L171.362 349.887L172.725 352.268L173.28 354.372L173.695 355.088L175.475 357.169L175.752 357.631L176.953 358.047L177.808 359.041L179.149 361.191L182.568 364.196L182.892 364.935L183.169 365.421L183.516 365.698L184.186 365.629L185.226 364.889L185.757 364.681L186.265 364.149L186.82 362.924L187.213 361.653V360.913L186.057 359.18L183.123 353.147L182.407 350.951L182.129 348.316L179.888 344.802L179.287 343.6L179.357 342.375L179.588 341.15L179.634 340.017L178.825 338.052L176.306 334.1L175.752 331.996L175.613 329.477L175.382 328.067L174.874 326.403L174.805 325.177L174.55 324.715L173.649 323.629L172.84 322.45L172.009 319.907L171.639 317.85L170.622 316.463L167.942 315.931L160.571 316.186L159.531 316.047L158.191 315.4L156.573 313.712L156.204 311.794L156.712 307.102L156.389 303.75L157.036 300.768L159.208 302.109L172.702 314.545L178.894 321.964L186.566 331.164L199.159 346.281L203.919 355.527L220.14 376.123Z" fill="#009649" stroke="white" stroke-width="2" stroke-linejoin="round"></path>
</svg>