<svg width="622" height="577" viewBox="0 0 622 577" fill="none" xmlns="http://www.w3.org/2000/svg">
<path class="region" data-country-region="East Region" d="M556.801 412.616L553.507 413.672L551.953 417.898L552.264 422L551.456 423.616L549.84 423.119L548.97 420.446L547.479 419.763L547.168 415.723L548.038 412.305L552.264 409.198L553.569 409.819L554.563 411.559L556.801 412.616Z" fill="#009649" stroke="white" stroke-width="2" stroke-linejoin="round"></path>
<path class="region" data-country-region="1" d="M575.197 410.068L576.626 408.7L576.44 409.819L575.197 410.068Z" fill="#009649" stroke="white" stroke-width="2" stroke-linejoin="round"></path>
<path class="region" data-country-region="East Region" d="M619.819 271.477L618.514 276.262L617.644 275.454L618.204 270.98L619.819 271.477ZM618.328 269.426L617.334 268.059L617.396 264.889L618.701 264.64L618.079 267.437L618.328 269.426ZM612.797 242.764L611.678 242.391L611.243 239.408L612.548 235.182L612.175 233.318L614.475 231.267L615.283 228.781L614.35 226.108L615.904 225.673L616.153 228.657L616.961 231.142L613.729 238.725L612.797 242.764ZM583.338 204.854L585.638 208.645L583.96 209.018L581.66 205.537L583.338 204.854ZM509.195 119.027L510.19 121.699L508.512 122.507L506.709 119.959L509.195 119.027ZM406.029 92.4894L404.848 93.9188L400.746 95.2239V93.3595L402.735 90.8114L407.272 89.6927L408.95 91.5572L406.029 92.4894ZM619.447 283.72L617.396 285.274L614.537 285.647L613.418 287.262L609.254 286.827L607.825 287.387L603.847 285.709L602.667 287.138L598.876 288.754L595.83 290.432L597.384 293.415L596.762 296.336L595.395 297.206L592.723 297.579L592.226 296.585L589.553 297.766L589.18 299.133L587.129 300.997L584.644 296.771L582.903 295.963L581.909 294.347L578.926 292.607L576.751 292.296L573.022 292.483L571.095 290.991L568.174 290.867L563.637 291.675L560.965 291.799L558.479 291.24L555.745 293.726L551.891 296.398L550.275 298.511H428.775V246.99H383.096V92.2408L386.763 94.851L390.741 95.9697L392.605 95.7833L395.588 97.0884L398.447 97.7099L400.001 99.5122L400.622 101.998L402.052 104.546L405.035 105.416L408.826 107.964L411.933 109.083L414.046 110.512L416.719 110.575L421.318 109.269L426.165 105.913L428.278 99.5743L432.131 93.6702L433.188 90.7492L435.052 84.5344L434.742 81.9242L435.674 77.1387L438.284 68.5001L437.973 65.2684L436.73 59.24L437.849 54.2681L436.109 50.6635L435.985 48.6748L436.917 44.8216L438.595 40.2226L438.098 35.2507L440.708 32.7026L442.945 32.0812L441.764 29.5952L439.092 28.228L439.278 26.0528L441.019 21.8267L443.256 18.9057L446.115 9.21055L446.55 4.17654L448.974 3.18216L450.962 0.447632L453.2 1.06912L452.454 3.05786L455.002 5.17091L456.742 9.76989L457.301 17.787L459.042 19.2786L461.963 19.8379L460.844 23.1939L460.906 25.307L463.081 26.7364L465.381 30.5275L467.059 37.6745L467.307 40.9062L468.177 43.0814L467.618 47.8047L469.048 51.285L470.788 57.3134L473.895 59.1157L477.686 56.5676L481.664 55.5111L483.404 57.4377L484.336 59.6129L494.093 66.6978L493.534 69.1216L494.155 72.7884L493.845 75.15L495.026 78.6925L495.461 81.5513L496.704 84.2858L496.206 89.8792L498.071 93.3595L501.24 97.3991L503.602 97.8963L503.478 100.444L505.715 105.416L506.896 109.456L506.088 114.925L505.28 118.095L505.466 119.648L508.325 123.501L510.003 124.185L509.444 128.846L512.303 132.637L517.585 135.185L520.196 135.496L522.309 137.733L524.422 138.044L526.535 137.485L529.083 141.462L531.507 143.824L534.117 145.44L536.665 145.875L541.015 148.982L544.558 149.915L546.982 152.276L548.908 155.384L546.547 155.135L545.863 156.999L547.417 159.485L551.581 163.214L553.756 165.887L555.682 171.604L557.547 173.282L557.671 176.328L559.722 184.469L561.4 187.452L563.202 186.644L565.999 188.819L565.005 185.277L565.626 183.226L567.056 182.915L569.479 186.333L574.14 189.441L574.575 186.52L576.129 187.079L577.559 189.689L577.807 199.633L578.739 204.294L584.706 210.447L588.745 213.554L591.666 213.989L594.898 216.662L597.197 221.572L598.316 223.312L603.288 226.792L604.034 229.464L606.333 233.504L608.384 234.685L610.311 237.357L610.373 241.708L612.051 244.753L614.102 246.369L612.859 252.149L614.04 263.708L613.356 267.375L614.599 270.98L617.458 277.194L618.514 282.042L619.447 283.72Z" fill="#009649" stroke="white" stroke-width="2" stroke-linejoin="round"></path>
<path class="region" data-country-region="Central Region" d="M369.237 79.8732L366.938 78.8167L367.994 77.0143L369.237 79.8732ZM363.457 48.7368L364.825 49.3583L363.955 52.9629L366.068 54.9517L366.192 56.4432L362.463 56.2568L358.113 55.4489L359.107 53.833L359.045 49.7312L362.587 46.7481L363.457 48.7368ZM268.184 15.5496L269.427 15.9225L268.805 17.9734L266.009 16.979L263.15 17.7869L261.845 17.2276L262.28 15.5496L264.206 15.2389L263.523 12.4422L265.014 10.5777L266.319 10.2048L268.184 15.5496ZM383.096 92.2407V246.99H245.935V65.5791L246.805 65.7655L249.539 68.8729L250.037 65.5791L252.958 66.5113L254.573 68.3136L255.63 65.2683L257.432 64.2739L255.133 62.0366L255.195 60.6693L251.715 57.9969L252.958 55.2003L256.749 51.5335L258.737 45.1322L260.229 44.0136L263.212 43.2056L265.139 40.9061L263.212 38.4202L263.709 35.4992L266.009 34.3184L267.252 31.2731L270.608 30.6517L270.67 27.2956L274.834 28.7251L274.461 26.3013L276.76 25.8662L277.133 23.5046L279.744 23.3181L283.1 24.8719H287.45L289.936 24.1882L292.608 24.934L295.529 23.4424L297.332 24.2504L300.563 22.2616L301.247 21.0808V17.9734L301.931 15.0524L298.885 12.6286L295.902 12.2557L293.665 12.7529L288.755 9.21047L291.055 7.78105L294.659 9.70765L295.654 8.15394L300.128 10.702L302.055 12.8772L304.727 11.0749L307.275 12.0071L309.699 15.9846L312.309 16.2954L314.982 17.6626L320.637 17.9112L325.733 20.6458L330.332 21.5158L333.253 20.335L335.118 22.1373L337.79 23.5667L340.649 24.0018L342.7 22.5724L345.683 21.5158L349.35 19.0921L350.903 20.4593L348.045 22.8831L348.666 24.3125L351.649 22.9453L352.706 23.5046L353.824 27.1092L356.559 27.2956L357.615 25.3069L356.683 22.5724L359.356 19.7757L360.847 19.9L361.904 22.6345L363.52 24.0639L366.254 24.3747L367 25.9905L360.785 32.7647L361.655 36.245L359.604 39.6632L357.056 38.2959L351.463 40.9061L351.525 45.878L352.457 48.8611L350.841 54.268L348.666 56.3189L343.508 63.7767L344.254 66.387L345.434 67.5678L350.033 70.1159L352.146 71.856L355.689 73.9691L357.056 76.5793L361.469 78.7545L363.333 78.4438L363.209 80.8054L364.514 81.7376L367.87 81.489L372.407 84.4722L378.559 87.0824L383.096 92.2407ZM270.608 10.8263L272.659 10.9506L275.082 9.7698L276.76 10.2048L280.489 7.9675L283.037 9.83195L284.591 11.7585L282.229 14.058L280.862 16.0468L275.642 19.4028L270.981 16.544L268.992 14.6174L267.625 11.945L266.817 8.34039L267.687 7.8432L270.608 10.8263ZM300.688 9.70765L299.196 7.53246L299.01 5.54371L300.688 4.98438L301.247 7.59461L300.688 9.70765Z" fill="#009649" stroke="white" stroke-width="2" stroke-linejoin="round"></path>
<path class="region" data-country-region="East Region" d="M576.626 408.7L575.197 410.068L574.513 410.503L571.592 417.401L568.858 422.062L567.863 427.469L566.869 435.611L565.315 441.266L565.129 445.741L565.688 449.159L565.004 453.758L538.716 440.458L537.473 439.961L538.405 437.04L537.659 435.548L535.919 428.65L535.049 426.102L531.817 424.362L528.399 424.921L526.41 424.673L525.105 426.537L522.557 425.916L520.879 427.221L518.58 427.096L513.918 425.294L512.116 425.108L509.879 426.226L508.263 426.288L502.11 424.797L498.692 422.622L496.268 422.124L490.986 422.622L489.121 423.74L488.438 427.221L486.635 427.594L484.647 426.91L480.98 423.43L478.867 420.136L474.019 416.345L470.104 414.169L468.177 412.616L467.494 410.876L465.008 408.887L464.759 404.288L464.2 402.548L462.584 401.553L458.731 400.745L455.313 399.067L454.132 401.678L452.702 402.299L450.465 398.943L449.719 394.158L446.425 391.175L442.883 390.18L440.335 390.056L437.724 391.547L435.922 391.361L433.623 390.056L429.148 388.813L428.775 298.511H550.275L551.891 296.398L555.744 293.726L558.479 291.24L560.965 291.799L563.637 291.675L568.174 290.867L571.095 290.991L573.022 292.483L576.75 292.296L578.926 292.607L581.909 294.347L582.903 295.963L584.643 296.771L587.129 300.997L589.18 299.133L589.553 297.766L592.225 296.585L592.723 297.579L595.395 297.206L596.762 296.336L597.384 293.415L595.83 290.432L598.875 288.754L602.666 287.138L603.847 285.709L607.825 287.387L609.254 286.827L613.418 287.262L614.537 285.647L617.396 285.274L619.446 283.72L620.379 285.336L620.254 290.432L621 292.856L620.814 296.025L618.638 299.444L616.898 303.607V307.212L615.717 314.173L614.475 318.958L612.051 326.043L612.361 332.134L610.746 341.518L608.322 347.795L604.904 352.456L604.655 355.999L603.536 359.541L600.118 362.648L598.875 365.321L595.644 366.44L593.531 367.931L590.361 373.4L588.497 376.073L587.689 379.242L585.576 380.299L586.073 382.474L585.389 386.638L584.643 388.564L580.542 393.474L579.174 397.203L577.807 404.474L578.242 406.401L576.502 407.271L576.626 408.7ZM556.801 412.616L554.563 411.559L553.569 409.819L552.264 409.198L548.038 412.305L547.168 415.723L547.479 419.763L548.97 420.446L549.84 423.119L551.456 423.616L552.264 422L551.953 417.898L553.507 413.672L556.801 412.616Z" fill="#009649" stroke="white" stroke-width="2" stroke-linejoin="round"></path>
<path class="region" data-country-region="Central Region" d="M376.881 420.322L380.548 420.757L381.978 420.073L383.78 420.633L384.961 422.435L383.221 423.492L380.548 422.746L378.062 423.305L376.819 425.729L374.644 426.661L373.65 425.605L371.04 424.921L370.107 425.978L364.079 425.853L360.847 423.181L362.339 420.509L369.237 418.893L372.904 417.588L375.887 417.774L377.503 418.768L376.881 420.322ZM428.775 298.511L429.148 388.813L428.278 388.067V464.82L423.058 463.95L419.453 461.402L416.781 456.492L411.622 450.899L410.255 448.91L409.572 445.306L411.187 439.402L411.374 437.724L409.385 432.255L406.651 427.034L402.052 422L398.882 419.39L399.317 417.65L400.995 416.282L402.735 417.898L403.232 414.48L401.244 412.989L397.018 415.599L396.396 416.531L394.159 416.78L390.989 418.52L385.893 417.96L386.887 415.599L389.125 412.554L390.865 406.96L390.554 402.113L389.684 400.124L387.074 396.146L384.401 391.112L383.221 394.158L381.853 396.395L381.17 401.429L378.373 409.135L374.831 408.949L370.045 410.876L366.068 410.938L368.056 404.909H373.774L375.328 399.005L374.831 394.966L375.328 390.988L377.752 385.395L379.74 382.536L382.04 380.299L380.797 373.4L382.972 371.411L381.729 365.569L379.74 362.089L379.865 366.502L378.187 369.298L374.582 373.214L373.215 377.564L371.412 381.231L369.797 382.536L366.876 383.406L362.277 386.078L359.169 388.564L354.446 395.898L350.903 400.186L351.836 402.175L352.581 405.469L351.338 405.779L349.412 403.977L347.237 405.406L344.689 401.988L340.835 398.694H344.191L342.078 391.61L340.152 386.265L335.677 381.169L334.186 375.7L331.389 373.151L326.728 372.716L324.739 369.36L323.62 365.134L325.547 364.824L325.671 361.53L321.072 359.044L318.897 356.496L315.292 354.942H310.134L303.173 350.84L301.495 350.716L296.586 352.021L294.908 351.772L287.388 346.179L282.416 343.569L278.625 342.574L273.094 344.563L263.15 344.066L248.794 345.558L245.935 346.117V246.99H383.096H428.775V298.511Z" fill="#009649" stroke="white" stroke-width="2" stroke-linejoin="round"></path>
<path class="region" data-country-region="East Region" d="M525.602 572.026L524.919 574.202L522.681 572.71L524.919 569.603L525.602 572.026ZM526.783 568.733L525.478 568.608L525.043 566.744L526.224 566.184L526.783 568.733ZM490.364 518.392L494.031 518.082L496.268 519.822L500.867 521.935L502.235 523.178L506.647 525.104L509.755 525.974L513.67 525.602L515.969 524.296L518.02 523.861L520.009 522.556L523.489 522.37L525.043 521.81L527.094 522.743L529.642 519.573L533.495 520.132L534.925 518.268L538.716 519.76L539.897 521.624L539.772 525.042L540.145 529.765L539.834 532.127L539.772 539.274L540.021 543.873L538.219 544.37L536.416 546.546L535.795 548.41L535.546 552.015L534.241 554.873L534.117 559.907L534.8 562.891L535.111 566.992L532.128 568.297L530.077 564.134L532.004 563.823L532.377 562.207L528.958 560.529L528.523 563.201L527.094 564.444L526.41 561.523L524.173 565.19L523.924 568.235L521.376 569.478L520.258 571.467L519.512 574.264L518.269 576.563L515.597 576.315L513.297 574.388L507.766 574.45L505.591 575.196L504.596 569.54L503.043 569.851L501.924 568.857L499.003 563.698L497.138 562.207L493.782 554.252L492.726 547.788L495.398 550.026L495.212 547.726L493.285 547.105L493.347 543.438L490.551 539.523L488.438 535.794L486.325 531.195L485.082 526.534L484.336 522.308L485.268 518.33L486.946 517.087L490.364 518.392ZM540.394 508.759L542.631 511.307L536.976 511.68L536.292 509.754L538.467 509.816L540.394 508.759ZM535.422 497.821L538.156 501.426L539.959 502.358L540.332 505.528L538.654 507.33L537.038 507.889L533.744 502.917L532.998 499.313L534.428 497.2L535.422 497.821ZM473.398 504.968L472.031 500.742L472.341 497.448L474.516 494.341L475.884 495.46L476.63 501.737L476.194 503.104L473.398 504.968Z" fill="#009649" stroke="white" stroke-width="2" stroke-linejoin="round"></path>
<path class="region" data-country-region="East Region" d="M497.138 470.289L494.839 471.595L494.217 469.606L497.138 470.289ZM565.005 453.758L563.016 454.69L559.287 458.171L555.185 459.6L549.778 459.351L539.399 460.159L533.557 462.148L529.829 464.51L526.224 467.679L518.02 476.318L511.557 477.25L509.382 477.001L508.263 478.617L510.065 480.793L512.054 479.736L512.303 484.149L511.06 485.764L507.331 480.233L506.026 479.612L503.975 480.979L501.737 476.38L498.941 476.194L495.771 473.832L496.766 471.47L497.946 471.035L496.952 468.114L494.155 467.99L492.602 470.849L489.121 473.148L485.392 469.979L488.376 470.103L490.737 467.368L491.545 465.193L489.494 462.459L488.065 461.464L482.658 464.883L484.584 467.493L482.782 468.922L479.488 470.165L476.008 472.403L471.595 477.001L467.432 479.363L462.708 477.872L460.471 475.945L456.804 474.702L453.324 472.154L449.222 470.6L446.86 471.16L442.883 468.922L439.838 468.674L437.787 470.911L435.239 470.476L432.007 466.747L428.278 464.82V388.067L429.148 388.813L433.623 390.056L435.922 391.361L437.725 391.547L440.335 390.056L442.883 390.18L446.425 391.175L449.719 394.158L450.465 398.943L452.702 402.299L454.132 401.678L455.313 399.067L458.731 400.745L462.584 401.553L464.2 402.548L464.759 404.288L465.008 408.887L467.494 410.876L468.177 412.616L470.104 414.169L474.019 416.345L478.867 420.136L480.98 423.43L484.647 426.91L486.635 427.593L488.438 427.221L489.121 423.74L490.986 422.622L496.268 422.124L498.692 422.622L502.11 424.797L508.263 426.288L509.879 426.226L512.116 425.108L513.919 425.294L518.58 427.096L520.879 427.221L522.557 425.915L525.105 426.537L526.41 424.673L528.399 424.921L531.817 424.362L535.049 426.102L535.919 428.65L537.659 435.548L538.405 437.04L537.473 439.961L538.716 440.458L565.005 453.758Z" fill="#009649" stroke="white" stroke-width="2" stroke-linejoin="round"></path>
<path class="region" data-country-region="West Region" d="M4.92322 247.86L4.55033 248.606L1.62935 243.323L0.759277 239.719L1.87795 238.849L4.92322 247.86ZM245.935 65.579V246.99V346.117L245.127 346.303L239.036 349.597L231.703 352.829L225.799 354.383L220.33 356.371L216.725 356.993L212.126 357.241L202.306 356.247L198.95 356.993L192.052 361.654L189.069 362.71L181.3 367.558L175.458 368.987L173.47 369.982L171.667 372.095L169.244 377.875L167.752 380.609L164.458 385.022L162.221 386.451L160.108 386.265L157.684 387.756L155.571 386.203L151.158 386.016L141.588 387.818L140.22 385.705L135.186 385.457L130.214 384.835L121.203 385.643L116.915 386.513L115.174 387.321L112.005 386.824L106.598 387.508L103.242 389.869L100.445 394.779L97.3379 396.395L91.9931 396.83L80.4335 406.277L76.2696 407.519L71.9813 408.327L65.2693 407.147L61.0432 407.022L55.7606 406.277L51.1616 403.977L47.6813 402.672L43.7038 397.7L41.2179 395.836L36.8675 393.598L34.568 394.282L32.7657 392.728L32.2064 388.937L32.5171 379.118L35.3759 381.479L38.1105 381.417L40.4721 379.428L43.0202 373.214L42.8337 369.733L42.0258 363.705L43.3931 361.903L43.7038 358.857L43.8903 349.597L43.2688 346.179L39.5399 339.156L37.1161 333.066L35.3138 330.331L33.8222 325.981L32.5793 319.89L31.7713 311.189L32.0199 306.155L30.4662 301.059L26.9859 296.336L26.4266 292.731L25.5565 290.618L22.7598 286.33L19.901 282.601L19.4038 280.799L18.9066 273.341L17.8501 269.985L12.9404 261.409L7.22271 254.075L5.669 251.092L7.40915 250.533L8.09279 248.793L10.4544 254.386L11.0138 256.499L13.3133 257.12L14.9291 255.505L15.1777 252.646L11.1381 248.668L9.95724 245.25L8.15493 242.143L9.02501 240.216L10.3923 240.651L13.0025 244.131L12.6918 248.544L13.8104 249.663L15.5506 247.425L16.545 251.341L18.7823 253.64L20.7089 251.9L20.6468 244.442L17.2907 239.284L14.2455 232.882L12.381 229.713L10.8273 224.928L8.52783 220.639L8.58997 215.543L9.6465 211.131L10.5787 208.893L13.6861 203.673L14.2455 197.085L13.8726 193.605L12.5675 190.746L16.7314 179.186L19.2795 177.384L19.5902 178.751L18.7823 183.164L19.901 185.525L19.5281 188.136L22.014 187.203L23.1327 185.836L26.5509 179.248L28.2289 177.322L30.4662 175.892L35.0652 174.152L39.602 171.853L41.7151 169.678L44.3874 167.813L48.0542 164.333L58.6194 158.18L65.2072 157.994L67.5688 159.112L69.3089 159.299L73.535 157.994L79.6877 154.327L81.3657 153.643L89.8179 151.779L95.1627 147.491L102.496 148.174L105.293 146.869L111.818 146.061L115.423 145.005L122.197 142.146L126.796 139.101L129.22 136.553L131.582 133.072L133.633 128.411L136.74 122.942L139.35 121.637L143.266 117.846L144.757 115.919L142.893 114.801L141.525 108.089L141.712 104.297L143.266 101.501L145.876 98.8284L147.243 98.3934L150.288 95.9075L153.271 90.2519L154.079 90.3762L156.69 97.1504L158.554 99.8849L160.356 103.987L162.532 107.094L163.774 102.806L163.464 100.631L164.645 99.6985L166.695 101.314L167.814 98.0205L166.385 97.2126L163.774 94.043L161.972 91.1842L163.402 90.8734L164.396 88.8847L163.774 86.9581L165.639 86.4609L167.628 89.5062L169.181 87.9525L171.729 87.8282L174.34 89.5683H180.306L179.933 88.7604H176.701L175.645 86.6473L176.391 85.0315L178.566 85.2179L179.001 82.4212L177.447 82.9806L175.583 79.5624L176.453 75.3985L178.317 75.4606L181.176 72.1046L185.961 74.5906L186.086 72.4154L183.6 72.4775L182.543 70.1159L184.656 69.2458L185.34 68.0028L187.888 68.3136L190.436 69.4944L190.809 67.8164L188.696 66.6977L187.702 63.0931L190.125 60.6072H191.617L195.346 57.9348L197.459 59.2399L197.956 61.2287L200.566 59.6128L200.504 57.6862L201.934 53.6465L203.052 51.8442L204.171 54.3923L206.346 52.155L208.894 54.3923L210.572 53.2737L212.126 51.1606L212.064 48.5504L213.99 47.8046L216.974 49.7312L219.957 50.7877L225.736 54.8895L228.968 59.4885L233.443 63.031L233.754 63.6524L231.951 68.9972L233.07 71.1724L234.189 70.9859L233.381 68.2514L237.98 64.2739L240.403 64.1496L245.935 65.579Z" fill="#009649" stroke="white" stroke-width="2" stroke-linejoin="round"></path>
</svg>