<svg width="533" height="575" viewBox="0 0 533 575" fill="none" xmlns="http://www.w3.org/2000/svg">
<path class="region" data-country-region="East Region" d="M320.095 419.89L317.326 417.758V416.905L315.409 412.001L315.356 411.948L316.741 410.242L317.433 409.602L318.391 409.069L320.201 408.483L320.947 408.057L322.491 409.602L323.449 411.361L323.769 413.973L323.13 416.745L321.586 418.504L320.095 419.89Z" fill="#009649" stroke="white" stroke-width="2" stroke-linejoin="round"></path>
<path class="region" data-country-region="West Region" d="M209.776 190.157L212.012 196.927L212.172 197.886L211.959 198.259L211 199.112L207.114 201.564L205.57 202.257L205.25 202.31L204.824 202.15L203.813 201.511L203.227 200.924L202.748 200.551L202.056 200.231L201.204 200.445L200.299 200.764L193.803 204.709L193.004 205.508L192.472 206.255L191.993 207.427L191.886 208.12V208.653L192.046 209.186L192.898 210.839L192.951 211.265L192.898 211.798L192.419 212.704L191.727 213.131L190.768 213.291L187.148 213.344L186.136 213.504L185.178 213.983L184.805 214.57L184.699 215.316L185.071 218.514L184.965 219.847L184.592 220.7L172.346 238.982L171.761 240.368L171.494 241.487V243.246L171.388 244.153L170.802 246.338L170.643 247.084L170.909 250.549L170.749 253.694L171.228 256.998L171.068 258.118L170.749 259.557L168.992 264.248L169.045 264.674L169.152 265.154L169.684 266.38L169.897 267.179L169.684 268.352L168.992 270.324L166.117 276.187L165.318 278.639L164.733 281.358L164.147 287.487L163.668 287.86L157.332 291.272L155.841 291.858L153.658 292.285L133.16 293.457L132.308 293.617L131.456 293.99L129.486 295.056L127.197 296.016L122.671 296.762L121.819 297.082L120.754 297.615L120.169 298.201L119.849 298.841L119.37 301.293L119.157 302.092L118.305 303.531L118.145 303.958L118.092 304.438L118.412 313.339L116.548 313.392L115.217 313.232L113.407 312.113L111.277 310.354L108.988 309.181L106.538 309.928L104.569 308.595L103.983 308.009L103.078 306.463L102.705 306.09L102.545 305.13L101.8 303.745L100.788 302.412L99.1378 301.453L98.0197 299.64L97.434 299.001L98.0197 297.881L98.2327 296.282L98.0197 294.896L97.2211 294.31L96.1562 293.884L95.1978 293.031L94.346 292.125L93.6006 291.432L93.1214 291.378L91.8436 291.485L91.4176 291.432L90.8319 291.059L89.6074 289.779L89.0217 289.513L87.7439 289.14L87.105 288.18L86.679 287.114L86.1998 286.208L82.1002 284.396L80.6626 284.289L79.7575 284.076L79.1186 283.596L78.3732 282.903L77.4148 282.264L76.4032 281.784L75.2319 281.571L73.9008 281.518L73.3151 281.144L72.7295 279.545L71.7179 278.852L71.7711 278.159L72.0373 277.36L72.3568 276.827L71.2387 276.774L70.4933 276.667L69.9076 276.347L66.7131 272.989L65.8079 272.509H62.8264L61.9745 272.296L61.442 271.923L60.4304 270.857L59.5253 270.217L58.6202 269.791L57.928 269.205L57.6086 268.032V266.753L57.3956 265.9L57.0229 265.26L56.3308 264.461L55.6386 263.821L54.2543 263.022L53.5089 262.329L52.0714 260.25L51.5389 259.717L44.5109 255.399L42.2747 252.894L41.3696 251.615V251.295L41.2099 250.975L41.5293 249.376L41.3696 248.683L40.6774 247.671L39.5061 245.112L38.5477 243.726L37.2167 242.287L36.631 241.541L36.418 240.688H36.0986L35.4597 240.262L34.9273 239.728L34.874 239.515L34.4481 239.302L34.1819 238.769L34.0221 238.129L33.7559 237.65L32.0522 235.731L31.6795 234.985L31.36 234.185L30.9341 233.599L30.1354 233.386L29.8692 233.012L30.6146 231.413L29.4433 230.614V229.708L29.8692 228.215L29.5498 227.522L29.3368 227.362L28.9641 227.416L28.1654 227.256L26.6214 226.509L25.7695 225.817V224.964L26.6747 223.738L26.9941 222.565L26.5149 221.339L25.1306 219.687L24.7579 219.58L24.332 219.634L23.9593 219.527L23.7996 219.047V218.301L23.5866 217.608L23.1606 217.342L22.4152 217.128L19.6999 216.755L18.4753 216.275L14.0562 213.184L12.9913 212.118L12.5654 211.105L11.9797 210.625L9.4773 209.826L8.67867 209.453L7.13463 207.427L6.06978 206.521L4.57899 206.148L3.83359 206.041L2.98171 205.775L2.23632 205.348L1.75713 204.709L1.86362 204.176L2.28956 203.589L2.55577 202.843L2.12983 201.937H2.60901L2.23632 201.404L1.81037 200.978L1.27795 200.658L0.639038 200.551L2.07659 197.087L3.88683 190.637L5.53735 184.561L8.30597 175.286L13.5237 157.696L15.7067 150.447L17.9961 142.558L24.332 120.971L24.545 116.493L24.2787 94.1598L24.2255 87.9768L24.7579 86.1645L27.0474 82.6465L29.7627 78.7021L41.0501 62.285L45.2563 55.8354L46.5341 53.2236L47.3328 53.9699L53.1895 57.7543L171.281 92.8273L175.647 94.6928L177.351 95.9721L176.02 101.249L176.127 101.942L176.393 102.368L177.671 104.074L178.416 105.46L178.789 106.366L179.161 107.912L179.215 109.138L178.948 110.897L179.002 111.483L179.161 111.963L180.492 114.255L183.847 118.999L184.219 119.638L184.805 121.077L187.414 138.561V139.787L187.201 140.586L187.041 140.853L186.509 141.386L180.12 145.277L179.161 146.023L178.203 147.036L177.83 147.675L177.564 148.368L171.867 173.953L170.962 176.672L170.856 177.525V178.218L171.867 184.507L171.92 186.586L172.08 187.279L172.666 187.492L178.522 187.332L181.983 186.799L204.824 187.705L206.635 188.292L209.776 190.157Z" fill="#009649" stroke="white" stroke-width="2" stroke-linejoin="round"></path>
<path class="region" data-country-region="East Region" d="M465.872 467.702L468.002 474.578L469.333 475.804L474.018 475.59L475.243 475.644L476.414 475.91L478.012 476.603L480.035 477.136L480.674 477.509L481.685 478.256L482.165 478.522L482.591 478.575L482.963 478.256L483.283 477.563L483.922 476.816L485.998 476.603L486.903 476.39L487.702 475.964L488.394 475.217L489.352 473.458L490.151 472.339L490.843 471.966L491.322 472.019L491.482 472.552L491.429 472.925L491.163 473.938V474.418L491.269 474.791L491.855 475.271L492.387 475.431H492.866L493.559 475.004L494.41 474.311L494.943 473.991L495.475 473.832H496.434L497.658 474.045L498.563 474.418L499.788 475.057L500.107 475.271L500.48 475.75L500.587 476.39L500.48 477.349L500.64 477.776L501.012 478.202L501.705 478.416L505.485 478.682L505.378 479.002L505.538 480.388V483.586L504.58 485.825L504.314 486.571L503.675 490.888L503.408 492.061L502.823 493.02L500.906 495.259L499.149 496.698L498.191 497.871L497.552 499.15L497.658 500.163L497.978 501.176L498.191 502.455L498.137 504.107L497.871 505.813L497.392 507.412L496.487 508.531L495.848 508.904L495.475 508.691L495.209 508.318L494.73 508.052H491.908L490.417 508.478L489.352 509.491L488.66 510.877L487.862 514.128L487.382 515.407L486.743 516.42L485.838 517.539L484.827 518.019L481.685 518.286L480.461 518.765L476.361 522.923L475.882 524.096L476.787 526.921L476.574 528.466L475.563 529.319L474.072 529.586L471.569 529.426L470.611 529.106L469.44 528.466L468.055 527.933H466.565L463.476 529.639L460.495 530.012L459.217 530.439L458.099 531.185L457.034 532.357L456.289 533.69L455.916 535.129L455.756 538.434L455.064 539.553L453.52 539.713L451.816 539.553L450.539 539.66L449.793 540.779L449.527 542.272L449.154 543.551L448.143 544.084L446.439 544.51V545.576L447.93 548.508L448.196 549.361L448.356 550.107L448.196 550.853L447.344 552.293L447.557 553.359L447.504 554.318L446.918 555.97L445.906 557.196L444.522 557.943L442.978 558.209L441.168 559.595L438.932 562.313L436.589 564.179L432.756 562.1L431.052 561.62L430.306 561.141L429.721 560.448L428.816 557.783L427.857 556.45L426.579 555.917L425.089 555.97L423.545 556.184L422.001 556.237L420.616 555.97L416.41 554.318L414.813 553.998L413.216 553.892L411.565 554.798L410.394 555.704L408.104 558.369L406.667 559.009L404.856 559.542L403.366 560.341L403.046 561.887L403.259 563.806L403.046 565.405L402.301 566.844L401.076 568.23L399.852 570.042L398.946 572.228L397.828 573.987L395.805 574.413L393.782 573.613L391.919 572.068L390.268 570.149L389.043 568.23L386.541 564.978L382.335 564.392L380.738 564.872L380.418 559.808L380.471 559.435L381.11 558.102L381.164 557.729L380.897 557.196L380.578 556.77L378.395 554.638L377.916 554.105L377.543 553.518L377.437 552.346L377.596 550.8L378.448 547.922L379.034 546.802L379.673 546.056L380.258 545.683L380.844 545.203L382.441 543.338L383.027 542.965L383.506 542.805L386.701 542.378L387.286 541.206L387.446 538.754L384.89 512.902L389.629 513.968L390.055 514.181L392.025 515.834L392.983 516.473L393.942 516.687H395.06L402.354 513.808L407.785 510.823L411.671 509.544L413.588 509.278L414.6 508.851L415.079 508.318L415.665 506.133L416.037 505.44L416.57 504.853L417.475 504.054L418.22 503.201L418.859 502.295L419.445 500.536L419.711 499.843L421.149 497.711L422.054 497.018L425.248 495.952L429.614 495.152L430.732 494.619L431.744 493.98L434.672 490.782L435.897 489.822L436.323 489.236L436.855 487.85L437.494 486.997L441.221 485.398L443.883 484.652L445.214 484.492H446.332L447.238 484.705L448.089 484.652L449.42 484.385L453.68 482.786L454.851 482.093L460.175 477.882L462.784 475.324L463.317 474.738L463.689 474.098L463.849 473.458L463.796 470.1L464.062 469.034L464.115 468.181L464.222 467.595L464.541 467.329L465.021 467.542L465.872 467.702Z" fill="#009649" stroke="white" stroke-width="2" stroke-linejoin="round"></path>
<path class="region" data-country-region="East Region" d="M450.539 289.619L449.9 290.099L449.261 291.111L448.143 294.203L447.61 296.868L447.184 297.561L446.492 298.254L443.883 299.8L442.765 300.173H441.008L440.103 300.599L438.719 301.399L432.17 306.249L429.508 307.795L428.869 308.381L427.964 309.98L427.591 310.407L426.952 310.833L425.355 311.473L423.758 311.846L421.521 312.059L420.137 312.699L419.818 312.752L419.019 312.539L418.114 312.112L417.315 311.579L417.848 311.526L418.433 311.26L420.563 309.66L420.829 309.287L421.149 308.115L422.267 306.036L422.533 305.343L422.639 304.543L422.693 302.784L422.48 301.079L422.16 300.013V299.693L422.267 299.373L423.704 297.508L424.343 296.761L424.716 296.175L425.195 295.162L425.302 294.416L425.089 291.858L425.142 290.951L425.248 290.152V289.832L425.089 289.565L424.45 289.512H423.598L419.711 290.312L419.179 290.525L418.913 290.738L418.859 291.111V292.124L418.806 292.71L418.646 293.137L418.433 293.51L418.061 293.723L417.369 294.096L416.943 294.363L415.931 295.162L415.612 295.375H415.292L414.653 294.896L413.854 294.043L412.736 292.017L412.204 290.845L411.885 289.939L411.725 289.352V288.873L411.938 288.553L417.156 284.182L417.688 283.542L418.114 282.956L418.327 282.21L418.22 281.57L418.061 281.09L417.528 280.398L416.463 279.438L416.197 279.012L416.091 278.692L416.197 278.319L416.676 277.146V276.773L416.517 276.293L416.25 275.813L415.718 275.387L415.186 275.067L414.28 274.801L411.618 274.641L410.766 274.534L409.808 274.214L409.489 274.268L408.903 274.534L408.211 274.747L406.88 274.961L405.655 275.28L404.218 276.027L403.472 276.56L402.727 276.933L402.035 276.453L402.354 276.187L402.567 275.76L402.78 274.907L402.993 273.202L403.206 272.509L403.898 271.763L404.484 271.389L404.697 271.176L405.176 270.163L405.655 269.737L406.188 269.311L408.637 268.031L408.903 267.818L409.009 267.445V266.859L408.743 265.899L408.796 264.833L409.009 264.14L409.222 263.82L410.021 263.287L410.074 262.968L409.968 262.275L410.021 261.422L410.447 260.995L410.766 261.049L411.725 261.422H412.097L412.63 261.049L412.843 260.303L412.896 257.851L413.003 257.104L412.949 256.678L403.898 232.905L403.366 232.159L402.461 231.786L402.088 231.679L401.396 231.732L401.076 231.892L399.479 233.172L398.893 233.438L398.148 233.651L397.509 233.971L397.083 234.504L396.338 235.783L395.912 236.37L395.433 236.796L394.474 237.223L391.12 237.809L390.481 238.129L389.949 238.502L389.416 239.195L389.097 240.208L388.884 241.487L388.564 242.233L387.925 243.086L387.393 244.152L386.861 244.525L386.168 244.738L384.944 245.271L384.252 245.431L383.4 245.271L382.601 244.685L382.069 244.045L381.643 243.779L381.27 243.725L380.951 243.885L380.471 244.365L379.833 244.632L378.661 244.738L377.437 244.792L377.17 244.472L377.33 243.619L377.65 243.086L378.076 242.606L379.46 241.7L379.779 241.22L379.833 240.527L379.46 239.248L378.927 236.476L378.448 235.144L377.916 234.238L377.49 233.758L376.798 233.278L376.531 233.012L376.372 232.532L376.585 231.466V230.986L376.478 230.507L375.893 229.707L375.573 229.227L375.467 228.588L375.573 227.788L375.733 227.255L375.839 226.615L375.893 225.816L375.733 224.537L375.786 223.257L375.733 222.884L375.413 221.498V220.965L375.573 220.646L376.212 220.166L376.425 219.793L376.478 219.26L376.159 217.767L376.212 217.288L376.638 216.541L377.011 216.168L379.034 214.782L379.513 214.409L382.175 210.518L382.548 210.252L384.039 209.452L384.252 209.239L381.696 208.226L368.332 204.868L367.8 204.282L369.237 202.629L369.663 201.99L369.716 201.563L369.983 201.457L370.835 201.777L371.314 201.723L373.39 201.084L373.869 201.19L374.082 201.617L374.721 201.19L374.987 200.71L375.52 199.485L375.839 199.218L376.904 199.751L379.034 202.256L380.045 202.523L380.365 201.936L379.673 200.71L380.099 200.337L380.791 200.124L381.27 199.858L383.4 198.259L384.092 197.512L385.157 195.593L385.796 195.167L386.009 194.901L386.381 193.834L386.541 193.408L387.499 191.969L388.085 191.329L388.724 190.743L389.842 190.423L394.421 189.57L395.273 189.677L395.965 190.37L397.616 194.581L399.106 196.819L401.023 198.685L404.537 200.817L406.454 202.629L407.519 203.322L408.637 203.589L419.498 204.122L420.35 203.909L421.149 203.429L422.001 203.855L422.906 204.602L423.917 205.081L427.857 205.454L429.029 206.201L429.135 205.721L429.881 204.282L433.022 208.653L435.577 210.571L436.216 211.318L436.749 212.97L436.962 218.78L437.441 221.232L438.506 223.471L440.156 225.283L442.286 226.456L443.564 226.882L444.362 227.415L444.842 228.215L445.055 229.654L445.001 230.187L444.629 231.306L444.575 231.892L444.735 232.479L445.161 233.598L445.214 234.184L444.522 236.476L443.457 238.449L442.605 240.527L442.765 243.139L444.203 248.416V249.589L443.83 251.934L443.99 253.107L445.64 255.026L446.332 256.092L446.652 257.424L446.332 259.983L446.386 261.102L447.078 262.008L448.835 263.074L449.048 263.714L450.432 268.831V269.95L448.941 273.095L448.728 274.268L449.154 275.813L451.124 277.892L451.816 279.172L451.71 281.304L450.006 285.141L450.166 287.54L450.539 289.619Z" fill="#009649" stroke="white" stroke-width="2" stroke-linejoin="round"></path>
<path class="region" data-country-region="West Region" d="M296.348 190.05L295.816 190.69L296.242 193.515L296.721 194.634L296.082 198.899L296.295 200.498L296.774 202.043L297.413 202.896L298.371 203.269L299.969 203.323L301.14 203.589L301.726 204.335L302.365 206.574L305.293 210.305L305.612 211.105L304.388 212.171L304.015 212.651L304.175 213.45L282.345 203.696L281.44 203.109L280.961 202.416L280.482 199.165L279.63 198.472L277.98 198.046L248.27 195.967L245.022 196.34L231.499 195.221L221.755 195.594L220.744 195.487L219.253 195.114L216.857 194.155L209.776 190.157L206.634 188.291L204.824 187.705L181.983 186.799L178.522 187.332L172.666 187.492L172.08 187.279L171.92 186.586L171.867 184.507L170.855 178.217V177.524L170.962 176.671L171.867 173.953L177.564 148.368L177.83 147.675L178.203 147.035L179.161 146.023L180.12 145.276L186.509 141.385L187.041 140.852L187.201 140.586L187.414 139.786V138.56L184.805 121.077L184.219 119.638L183.847 118.998L180.492 114.254L179.161 111.962L179.002 111.483L178.948 110.896L179.215 109.137L179.161 107.911L178.789 106.366L178.416 105.46L177.67 104.074L176.393 102.368L176.126 101.942L176.02 101.249L177.351 95.9717L175.647 94.6925L171.281 92.8269L53.1894 57.754L47.3327 53.9695L46.5341 53.2233L48.5573 48.9058L53.8815 34.0344L56.8631 25.8259L57.3423 25.0263L58.3539 24.5999L72.6762 22.3612L94.0797 17.7239L115.483 13.0333L136.887 8.396L167.767 1.6266L184.912 1.41339L196.785 1.25349L208.711 1.09358L225.749 0.880371L227.026 1.20019L230.7 3.8653L233.895 5.83749L245.714 13.1932L257.481 20.5489L269.301 27.9046L283.57 36.8061L284.209 37.6057L284.422 38.5651L284.262 40.7505L284.369 42.9359L285.433 46.7737L285.646 48.9058L285.487 50.3982L285.593 53.2233L285.487 54.6624L284.528 58.2337L284.635 61.0587L285.008 61.2719L285.54 61.2186L285.966 61.3252L286.392 61.8049L287.031 62.6045L287.137 63.2974L284.795 64.0969L284.369 65.2163L284.741 66.4955L285.966 67.3484L286.339 67.2418L287.031 66.4422H287.67L288.096 66.6554L288.628 67.1885L288.894 67.8281L288.309 69.6937L288.468 71.3993L288.894 73.105L289.373 74.2244L290.385 75.397L291.769 76.4631L293.154 77.2093L294.378 77.5291L295.283 78.0621L295.124 79.2881L294.112 81.207L294.006 82.5928L294.059 84.2985L294.325 85.9509L295.07 87.55L295.124 88.3495L295.017 89.7887L295.177 90.7481L296.029 92.0806L296.348 92.8269L296.295 93.5198L295.816 94.8524L295.869 95.5986L296.242 96.3981L296.827 96.8779L297.413 96.7712L297.945 94.4259L298.797 93.8929L299.809 94.0528L300.661 94.6925L300.927 95.1189L301.3 96.1316L301.566 96.558L301.939 96.9312L302.897 97.6241L303.483 98.1571L303.642 98.7967L303.163 99.3298L302.418 99.6496L301.034 99.9694L300.554 100.343L299.809 101.142L298.851 101.835L298.371 102.475L298.797 102.848L300.448 103.008L301.726 103.274L302.791 104.02L303.483 105.033L303.642 106.259L303.004 106.952L300.395 108.391L299.809 109.297L300.022 110.044L300.448 110.363L301.087 110.683H301.406L302.844 111.856L304.281 113.455H304.707L304.973 112.282L306.145 113.295L306.251 114.787L305.666 116.333L303.962 118.998L304.015 119.958L304.973 122.037L305.399 125.075L305.133 128.22L304.228 131.098L302.791 133.23L301.034 134.563L300.661 135.096V135.948L300.98 136.481L301.353 136.855L301.566 137.228L302.045 137.921L303.057 138.24L303.749 138.88L303.27 140.692L299.064 147.249L298.105 149.541L297.839 150.98L297.892 152.472L298.425 153.698L299.596 154.178L300.182 154.764L299.756 156.15L298.904 157.696L298.478 158.815L298.744 159.988L299.436 161.214L300.182 162.173L300.874 162.6L301.246 163.239L298.478 167.823L298.531 169.103L298.744 170.382L298.691 171.661L297.839 173.153L297.413 174.326L297.999 175.339L298.904 176.458L299.33 178.004L299.064 178.857L297.573 181.629L296.987 182.268L296.827 182.908L295.443 186.905L295.39 187.865V188.878L295.496 189.571L296.348 190.05Z" fill="#009649" stroke="white" stroke-width="2" stroke-linejoin="round"></path>
<path class="region" data-country-region="East Region" d="M514.856 371.384L514.59 371.278L512.726 370.691L507.881 369.999L507.296 369.732L506.87 369.199L506.497 368.613L505.805 366.907L505.539 366.587L505.272 366.481L504.687 366.534L503.782 366.854L503.356 366.907L502.876 366.8L502.397 366.64L501.652 366.267L501.119 366.161L500.321 366.214L499.575 366.854L499.203 367.493L498.564 368.186L497.925 368.559H497.552L497.179 368.399L496.86 367.866L496.913 366.534L496.7 366.321L496.168 366.107L495.263 365.948L492.973 365.894L492.441 365.788L491.962 365.628L491.536 365.201L491.429 364.828V364.455L491.642 363.709L491.695 363.176L491.589 362.589L490.844 361.843L489.619 361.15L484.774 359.551L484.241 359.605L483.283 359.764L481.792 360.404L481.047 360.564L480.195 360.404L479.29 360.031L478.385 359.072L478.065 358.272L478.012 357.472L478.278 354.914L476.894 354.541L469.919 356.993L453.308 359.818L452.083 360.244L451.231 360.671L444.31 368.186L441.168 370.638L440.263 371.651L438.506 374.476L436.802 376.501L433.448 374.476L432.809 373.943L432.383 373.197L431.957 372.184L431.372 370.585L430.147 369.252L429.082 368.399L427.219 367.174L426.527 366.214L425.834 364.722L424.929 361.79L423.598 359.018L420.244 354.274L418.913 351.236L418.647 350.81L418.274 350.49L417.795 350.223L416.623 349.797L416.038 349.53L415.505 349.157L414.973 348.624L414.547 348.091L414.174 347.398L413.855 346.599L413.589 345.479L413.322 343.241L413.163 342.441L412.896 341.802L412.524 341.428L411.193 340.256L411.033 339.35V338.017L411.406 334.766L411.352 333.22L411.672 332.154L411.832 331.834L413.056 330.128L413.961 329.595L415.505 329.222L416.091 328.902L416.89 327.783L418.327 326.397L419.126 325.278L420.084 324.318L420.617 324.052L421.415 324.159L421.575 323.679L421.202 322.08L417.316 311.579L418.114 312.112L419.019 312.539L419.818 312.752L420.137 312.699L421.522 312.059L423.758 311.846L425.355 311.473L426.953 310.833L427.591 310.407L427.964 309.98L428.869 308.381L429.508 307.795L432.17 306.249L438.719 301.398L440.103 300.599L441.009 300.173H442.766L443.884 299.799L446.493 298.254L447.185 297.561L447.611 296.868L448.143 294.203L449.261 291.111L449.9 290.098L450.539 289.619L450.592 289.832L450.539 292.337L450.752 294.629L451.977 296.441L454.745 299.48L456.129 303.797L457.088 317.123L457.673 318.935L459.111 320.481L461.081 321.387L465.021 321.707L467.044 322.133L469.334 322.986L471.57 323.466L473.806 323.252L477.639 321.28L481.633 321.334L483.549 320.747L484.614 320.214L486.744 320.161L487.862 319.948L488.927 319.308L490.311 317.442L491.11 316.59L495.209 314.244L503.462 311.366L504.527 310.78L506.124 309.021L507.083 308.541L508.786 309.021L519.488 315.15L520.766 316.11L524.28 321.014L530.19 324.638L532 325.598L530.669 326.664L530.137 326.504L529.444 326.557L528.752 326.77L528.06 327.09L527.421 327.463L526.836 327.943L524.599 331.354L524.386 331.994L524.493 332.794L525.185 334.286L525.345 335.032L525.238 335.938L524.812 336.578L524.227 337.164L522.949 338.017L524.866 338.977L525.717 339.669L526.303 340.522L526.463 341.002L526.782 342.388L526.995 342.814L528.806 345.16L529.019 345.533L528.965 346.066L528.699 346.492L527.954 347.238L527.634 347.718L527.421 348.145L527.102 349.85L526.356 351.449L526.143 352.142L525.664 352.302L522.31 350.863L519.861 350.17L522.683 352.675L522.896 353.048L523.215 354.328L523.907 355.767L524.014 356.3V356.726L523.481 357.846V358.219L523.694 359.018V359.391L523.428 359.658L522.896 359.818L518.583 360.351L517.465 360.671L522.576 362.11L523.268 362.536L523.747 363.176L523.907 363.602L524.173 365.095V365.681L524.014 366.214L523.481 367.174L523.322 367.76L523.215 369.412L523.055 369.945L522.789 370.372L521.245 371.544L520.393 371.917L519.595 371.971L514.856 371.384Z" fill="#009649" stroke="white" stroke-width="2" stroke-linejoin="round"></path>
<path class="region" data-country-region="East Region" d="M465.872 467.702L465.02 467.542L464.541 467.329L464.222 467.595L464.115 468.182L464.062 469.034L463.796 470.101L463.849 473.459L463.689 474.098L463.317 474.738L462.784 475.324L460.175 477.883L454.851 482.094L453.68 482.786L449.42 484.386L448.089 484.652L447.237 484.705L446.332 484.492H445.214L443.883 484.652L441.221 485.398L437.494 486.997L436.855 487.85L436.323 489.236L435.897 489.822L434.672 490.782L431.744 493.98L430.732 494.62L429.614 495.153L425.248 495.952L422.054 497.018L421.149 497.711L419.711 499.843L419.445 500.536L418.859 502.295L418.22 503.201L417.475 504.054L416.57 504.854L416.037 505.44L415.665 506.133L415.079 508.318L414.6 508.851L413.588 509.278L411.671 509.544L407.785 510.823L402.354 513.808L395.06 516.687H393.942L392.983 516.474L392.025 515.834L390.055 514.182L389.629 513.968L384.89 512.902L384.784 512.263L384.837 511.783L385.157 511.037L385.263 510.397L385.157 509.811L384.624 509.224L383.559 508.905L381.536 508.851L380.631 508.638L379.673 508.212L377.011 506.399L375.946 505.44L374.828 503.521L374.295 502.508L373.763 501.655L373.39 501.176L371.526 500.003L372.165 498.457L373.071 497.658L373.816 497.178L375.041 496.112L375.573 495.259L375.839 494.406L375.946 493.607L376.159 492.754L376.585 492.221L377.383 491.315L377.703 490.569L377.756 489.929L377.596 489.289L377.543 488.596L377.703 488.17L377.916 487.797L379.247 486.837L379.513 486.304L379.673 485.665L379.886 483.16L380.578 480.494L381.004 479.642L383.187 477.136L383.506 476.497L383.985 474.258H386.008L387.606 474.471L388.511 474.098L389.043 473.512L389.469 470.367L389.895 469.194L390.587 468.022L391.226 467.489L392.131 467.222L395.219 467.062L396.231 466.689L396.763 466.156L397.03 465.357L397.136 464.504L397.349 463.704L397.882 462.798L398.361 462.585H398.787L399.213 462.798L399.639 462.958L400.224 462.905L403.366 461.519L404.271 461.306L405.016 461.252L405.815 461.732L407.572 463.171L410.074 464.824L411.245 464.93L414.813 463.118L416.357 462.105L416.729 461.199L418.061 455.762L418.38 455.123L418.966 454.376L419.764 454.003L421.841 453.417L422.639 452.937L423.811 451.871L424.556 451.551L426.846 451.072L427.538 450.698L429.082 449.526L429.934 448.993L435.577 446.647L436.429 446.168L436.749 445.795L437.388 444.409L437.867 443.769L438.825 442.97L439.464 442.756L440.05 442.81L440.635 443.023L441.221 443.076L441.966 442.863L442.552 442.223L442.925 441.53L443.777 439.292L444.788 437.266L446.386 437.746L449.527 436.52L450.219 436.147L450.805 435.614L451.177 435.134L451.763 434.388L452.083 433.962L452.189 433.429V433.109L452.295 432.256L453.36 430.604L455.65 429.964H456.235L457.087 430.23L457.407 430.55L457.567 430.977V431.51L457.673 432.096L457.939 432.789L458.738 433.855L459.004 434.335L459.111 434.868L459.004 435.294L458.631 435.88L457.034 437.373L456.555 438.066L456.182 439.025L456.076 440.624L455.863 441.584L454.851 444.675L454.585 445.368L454.212 445.848L452.881 446.967L452.668 447.234L451.444 450.059L451.018 451.285V452.031L451.657 453.044L451.87 453.737L451.657 454.536V455.176L452.083 456.615V457.255L451.87 459.227L452.083 459.973L452.455 460.506L452.721 460.773L455.33 461.839L456.182 462.265L456.715 462.478L457.141 462.585L457.992 462.158L458.525 462.052L460.069 462.105L461.879 461.999L462.997 461.785L464.967 461.199L465.34 461.252L465.766 461.519L466.564 462.478L466.937 462.798L467.47 463.011L468.694 463.118L469.173 463.225L469.546 463.491L469.972 463.971V464.557L469.706 465.25L469.173 465.73L465.872 467.702Z" fill="#009649" stroke="white" stroke-width="2" stroke-linejoin="round"></path>
<path class="region" data-country-region="East Region" d="M444.789 437.267L443.777 439.292L442.925 441.531L442.552 442.224L441.967 442.864L441.221 443.077L440.636 443.024L440.05 442.81L439.464 442.757L438.825 442.97L437.867 443.77L437.388 444.409L436.749 445.795L436.43 446.168L435.578 446.648L429.934 448.993L429.082 449.526L427.538 450.699L426.846 451.072L424.556 451.552L423.811 451.872L422.64 452.938L421.841 453.418L419.765 454.004L418.966 454.377L418.38 455.123L418.061 455.763L416.73 461.2L416.357 462.106L414.813 463.119L411.246 464.931L410.074 464.824L407.572 463.172L405.815 461.733L405.016 461.253L404.271 461.306L403.366 461.519L400.225 462.905L399.639 462.959L399.213 462.799L398.787 462.586H398.361L397.882 462.799L397.349 463.705L397.136 464.504L397.03 465.357L396.764 466.157L396.231 466.69L395.22 467.063L392.132 467.223L391.227 467.489L390.588 468.022L389.895 469.195L389.47 470.368L389.044 473.513L388.511 474.099L387.606 474.472L386.009 474.259H383.986L379.779 466.423L379.407 465.464L379.14 464.451L378.715 461.253L378.768 460.827L379.14 460.347L379.566 460.08L382.282 459.387L382.867 459.068L383.187 458.375V457.309L382.601 455.336L382.069 454.27L380.525 452.351L380.099 451.552L379.673 450.433L378.981 448.247L378.608 446.115L378.555 444.889L378.661 443.717L379.14 442.437L380.205 441.478L381.536 440.625L385.05 438.919L385.689 438.546L388.671 435.668L389.523 435.135L390.588 434.708L392.558 434.389L393.41 434.122L394.102 433.856L396.018 432.576L397.136 432.257L398.361 432.15L405.496 432.47L407.306 432.31L408.211 432.363L410.074 432.683L415.186 432.896L415.878 433.269L416.41 433.802L417.156 434.229L418.167 434.389L424.929 434.229L426.1 434.389L427.378 434.922L428.23 435.561L428.976 436.308L430.307 437.907L431.105 438.6L431.904 439.079L433.554 439.239L435.524 438.973L439.358 437.747L443.191 436.148L443.724 436.201L444.043 436.308L444.789 437.267Z" fill="#009649" stroke="white" stroke-width="2" stroke-linejoin="round"></path>
<path class="region" data-country-region="East Region" d="M371.527 500.003L373.39 501.176L373.763 501.656L374.295 502.509L374.828 503.521L375.946 505.44L377.011 506.4L379.673 508.212L380.631 508.638L381.536 508.852L383.559 508.905L384.624 509.225L385.157 509.811L385.263 510.397L385.157 511.037L384.837 511.783L384.784 512.263L384.89 512.903L387.446 538.754L387.286 541.206L386.701 542.379L383.506 542.805L383.027 542.965L382.441 543.338L380.844 545.204L380.258 545.683L379.673 546.057L379.034 546.803L378.448 547.922L377.596 550.8L377.436 552.346L377.543 553.519L377.916 554.105L378.395 554.638L380.578 556.77L380.897 557.197L381.163 557.73L381.11 558.103L380.471 559.435L380.418 559.809L380.738 564.872L377.862 565.672L374.668 568.23L372.325 568.71L370.036 567.271L366.096 563.327L363.913 562.42L361.57 562.634L359.281 563.593L353.051 567.058L350.975 567.537L348.473 567.431L347.94 567.324H346.449L345.757 567.058L345.171 566.685L343.468 565.245L342.882 564.926L339.368 563.966L338.676 563.593L338.25 563.167L339.421 558.316L345.065 542.112L345.438 539.394L344.959 538.274L343.148 537.741L331.648 535.982L331.169 535.769L323.928 527.188L318.657 519.672L318.124 518.286L317.698 517.06L313.226 490.942L315.409 492.061L316.474 493.554L317.592 494.247L317.965 494.78L318.337 495.419L318.763 496.699L318.976 497.178L319.402 497.658L320.999 498.617L321.425 499.097L321.851 499.684L322.33 500.27L323.182 500.75L327.761 501.762L328.613 502.189L329.039 502.775L329.678 503.415L330.583 503.894L332.234 504.374L333.245 505.067L334.629 505.707L336.333 505.867L341.87 504.641L345.171 503.468L345.97 502.935L346.396 502.242L346.503 501.389V500.323L346.609 499.364L346.929 498.724L347.514 498.298L348.419 497.978L349.111 497.285L349.218 496.965L349.75 496.166L350.443 495.846L350.762 495.419L350.975 494.94L351.188 494.3L351.507 493.394L352.093 492.488L352.838 491.742L353.85 490.942L354.702 490.516L355.341 490.356L356.033 490.249L356.619 490.302L357.63 490.569L361.357 492.541L362.742 493.447L364.818 495.206L365.989 495.952L367.161 496.112L367.906 495.899L368.705 496.166L369.29 496.432L371.527 500.003Z" fill="#009649" stroke="white" stroke-width="2" stroke-linejoin="round"></path>
<path class="region" data-country-region="East Region" d="M514.855 371.385L507.774 371.544L514.11 373.836L516.825 374.423L518.156 374.903L519.275 375.809L519.594 376.661L519.275 377.514L518.689 378.367L518.316 379.327L518.21 383.591L516.825 383.644L512.247 382.898L504.793 383.911L504.154 383.804L503.728 383.591L503.195 383.111L502.982 382.471L502.61 381.992L502.024 381.619L501.385 381.459L500.799 381.405L500.32 381.459L494.57 383.431L494.197 383.697L493.878 384.071L499.468 383.964L501.225 384.337L502.61 384.763L504.1 385.083L507.934 384.923L509.371 385.083L514.163 386.363L515.867 386.576L516.506 386.896L516.825 387.375L516.772 388.068L516.559 388.814L514.749 392.386L514.483 393.665L514.536 394.411L515.228 396.597L514.642 396.49L509.691 394.198L508.999 394.091L506.922 394.411L506.337 394.358L505.804 394.145L505.272 393.772L504.526 393.079L504.1 392.812H503.621L503.195 393.025L502.024 394.251L498.829 396.117L498.35 396.597L497.552 397.769L501.811 397.023H502.45L502.929 397.343L503.089 397.716V398.569L503.195 398.942L503.781 399.102L504.633 398.889L506.017 398.196L507.189 397.876H508.36L511.182 398.302L511.608 398.515L511.874 398.835L511.821 399.368L511.395 399.955L510.17 400.648L509.638 401.127L510.756 401.181L514.057 400.861L514.483 400.914L515.122 401.181L516.506 402.087L516.879 402.193L516.559 402.726L515.601 403.686L514.589 404.485L514.323 404.912L514.27 405.391L514.429 406.031L513.631 406.244L513.258 406.511L513.098 406.884V407.257L513.418 408.323L513.258 409.123L512.885 409.869L512.3 410.455L511.714 410.988L511.022 411.415L510.436 411.575L509.797 411.521L506.07 410.562H505.059L505.378 411.041L505.964 411.468L507.189 412.108L508.946 413.547L509.158 413.92L509.105 414.346L508.946 414.826L507.135 417.918L506.922 419.037L506.869 420.21L506.709 421.435L508.999 421.915L508.839 422.768L508.786 424.26L509.052 425.806L509.691 427.085L510.117 428.418L509.957 430.124L509.584 431.776L509.425 433.162L510.436 435.454L510.649 436.84L509.691 437.479L507.455 437.373L506.869 438.012V439.878L507.987 443.556L508.2 444.942L508.466 445.901L509.904 447.66L510.33 448.513L510.223 450.059L509.638 451.338L508.946 452.457L508.626 453.577L509.105 456.775L509.158 458.054L508.626 459.12L508.094 459.333L506.55 459.44L506.017 459.653L505.644 460.399L505.698 461.146L505.911 461.892L506.23 464.024L506.869 466.263V467.862L505.538 472.339L505.804 473.405L506.922 474.791L507.135 475.751L506.763 476.497L506.017 477.563L505.485 478.522V478.682L501.704 478.416L501.012 478.202L500.64 477.776L500.48 477.35L500.586 476.39L500.48 475.751L500.107 475.271L499.788 475.058L498.563 474.418L497.658 474.045L496.434 473.832H495.475L494.943 473.992L494.41 474.311L493.558 475.004L492.866 475.431H492.387L491.855 475.271L491.269 474.791L491.162 474.418V473.938L491.429 472.925L491.482 472.552L491.322 472.019L490.843 471.966L490.151 472.339L489.352 473.459L488.394 475.218L487.702 475.964L486.903 476.39L485.998 476.603L483.921 476.817L483.283 477.563L482.963 478.256L482.59 478.576L482.164 478.522L481.685 478.256L480.674 477.51L480.035 477.136L478.012 476.603L476.414 475.91L475.243 475.644L474.018 475.591L469.333 475.804L468.002 474.578L465.872 467.702L469.173 465.73L469.706 465.25L469.972 464.557V463.971L469.546 463.491L469.173 463.224L468.694 463.118L467.47 463.011L466.937 462.798L466.564 462.478L465.766 461.519L465.34 461.252L464.967 461.199L462.997 461.785L461.879 461.999L460.069 462.105L458.525 462.052L457.992 462.158L457.14 462.585L456.715 462.478L456.182 462.265L455.33 461.839L452.721 460.773L452.455 460.506L452.082 459.973L451.869 459.227L452.082 457.255V456.615L451.656 455.176V454.536L451.869 453.737L451.656 453.044L451.018 452.031V451.285L451.444 450.059L452.668 447.234L452.881 446.967L454.212 445.848L454.585 445.368L454.851 444.675L455.863 441.584L456.076 440.624L456.182 439.025L456.555 438.066L457.034 437.373L458.631 435.88L459.004 435.294L459.11 434.868L459.004 434.335L458.738 433.855L457.939 432.789L457.673 432.096L457.566 431.51V430.977L457.407 430.55L457.087 430.23L456.235 429.964H455.65L453.36 430.603L468.055 409.975L469.972 407.843L470.664 407.897L471.835 408.696L473.486 410.349L474.125 410.722L475.616 411.255L476.414 411.468L477.106 411.415L477.053 410.722L476.734 409.336L476.68 408.59L477.106 409.069L477.692 410.029L478.065 410.508L478.597 410.828L479.076 410.988L480.195 411.201L481.046 411.575L481.579 412.214L481.792 413.014L481.898 413.973L482.75 415.466L484.401 415.679L486.051 415.732L487.489 415.306V414.453L487.382 414.08L487.116 413.387L486.743 412.854L486.424 412.214L486.371 411.361L486.477 410.135L486.424 409.762L485.945 409.283L484.294 408.59L483.709 408.216L483.389 407.63V407.31L483.762 405.924V405.125L483.336 404.592L478.012 400.754L472.953 395.85L472.368 395.051L472.048 394.944L470.984 394.998L470.717 394.891L469.972 394.145L469.333 393.985L468.162 394.145L467.31 394.091L466.564 393.878L466.032 393.452L465.553 392.972L465.18 392.386L464.701 391.053L464.381 390.413L463.583 389.294L463.423 388.868V388.175L463.636 387.375V386.363L463.423 385.616V385.137L463.53 384.017L463.423 383.218L463.21 382.471L463.157 381.992L463.21 381.245L463.636 380.766L464.275 379.753L464.381 379.113V378.474L463.796 376.821L463.53 375.542L463.636 374.743L463.902 374.316L464.381 373.996L464.861 373.623L465.233 372.77L465.393 371.971L465.287 369.093L465.553 368.4L466.245 367.227L466.298 366.641L466.245 365.894L465.872 364.349L465.766 363.336L465.872 362.643L466.032 362.057L466.351 361.577L468.268 359.338L469.919 356.993L476.893 354.541L478.278 354.914L478.012 357.473L478.065 358.272L478.384 359.072L479.289 360.031L480.195 360.404L481.046 360.564L481.792 360.404L483.283 359.765L484.241 359.605L484.773 359.551L489.618 361.151L490.843 361.843L491.588 362.59L491.695 363.176L491.642 363.709L491.429 364.455V364.828L491.535 365.201L491.961 365.628L492.44 365.788L492.973 365.894L495.262 365.948L496.167 366.108L496.7 366.321L496.913 366.534L496.859 367.867L497.179 368.4L497.552 368.56H497.924L498.563 368.186L499.202 367.493L499.575 366.854L500.32 366.214L501.119 366.161L501.651 366.268L502.397 366.641L502.876 366.801L503.355 366.907L503.781 366.854L504.686 366.534L505.272 366.481L505.538 366.587L505.804 366.907L506.496 368.613L506.869 369.199L507.295 369.732L507.881 369.999L512.726 370.692L514.589 371.278L514.855 371.385Z" fill="#009649" stroke="white" stroke-width="2" stroke-linejoin="round"></path>
<path class="region" data-country-region="East Region" d="M453.36 430.604L452.296 432.257L452.189 433.109V433.429L452.083 433.962L451.763 434.389L451.177 435.135L450.805 435.615L450.219 436.148L449.527 436.521L446.386 437.747L444.788 437.267L444.043 436.308L443.724 436.201L443.191 436.148L439.358 437.747L435.524 438.973L433.554 439.239L431.904 439.079L431.105 438.6L430.306 437.907L428.975 436.308L428.23 435.561L427.378 434.922L426.1 434.389L424.929 434.229L418.167 434.389L417.155 434.229L416.41 433.802L415.878 433.269L415.185 432.896L410.074 432.683L408.211 432.363L407.306 432.31L405.495 432.47L398.361 432.15L397.136 432.257L396.018 432.576L394.101 433.856L393.409 434.122L392.557 434.389L390.587 434.708L389.523 435.135L388.671 435.668L385.689 438.546L385.05 438.919L381.536 440.625L380.205 441.478L378.129 441.211L377.224 440.678L375.892 438.919L373.869 437.48L373.603 436.734L369.929 429.165L369.61 428.259L369.557 427.619L369.929 427.14L385.423 416.106L386.701 411.735L389.789 393.186L394.421 388.442L395.06 387.962L396.977 386.896L397.615 386.257L398.095 385.457L398.414 384.711L398.787 384.018L399.426 383.432L402.194 381.779L402.993 380.926L403.579 379.967L403.898 379.167L404.324 378.261L404.856 377.568L405.442 376.929L406.134 376.556L406.72 376.609L407.519 377.355L407.785 378.208L407.838 378.954L407.572 380.02L407.519 380.553L407.572 381.086L407.732 381.619L408.211 382.099L408.796 382.525L411.725 383.645L412.523 384.231L414.706 386.683L417.635 389.455L418.167 389.668L418.7 389.188L419.285 388.389L422.054 382.845L422.959 381.726L424.29 380.66L429.348 378.528L436.802 376.502L438.506 374.477L440.263 371.652L441.168 370.639L444.309 368.187L451.231 360.672L452.083 360.245L453.307 359.819L469.919 356.994L468.268 359.339L466.352 361.578L466.032 362.057L465.872 362.644L465.766 363.337L465.872 364.349L466.245 365.895L466.298 366.641L466.245 367.228L465.553 368.4L465.287 369.093L465.393 371.972L465.233 372.771L464.861 373.624L464.382 373.997L463.902 374.317L463.636 374.743L463.53 375.543L463.796 376.822L464.382 378.475V379.114L464.275 379.754L463.636 380.767L463.21 381.246L463.157 381.992L463.21 382.472L463.423 383.218L463.53 384.018L463.423 385.137V385.617L463.636 386.363V387.376L463.423 388.176V388.868L463.583 389.295L464.382 390.414L464.701 391.054L465.18 392.386L465.553 392.973L466.032 393.452L466.565 393.879L467.31 394.092L468.162 394.145L469.333 393.985L469.972 394.145L470.717 394.892L470.984 394.998L472.049 394.945L472.368 395.052L472.954 395.851L478.012 400.755L483.336 404.593L483.762 405.126V405.925L483.389 407.311V407.631L483.709 408.217L484.294 408.59L485.945 409.283L486.424 409.763L486.477 410.136L486.371 411.362L486.424 412.215L486.743 412.855L487.116 413.388L487.382 414.08L487.489 414.454V415.306L486.051 415.733L484.401 415.68L482.75 415.466L481.898 413.974L481.792 413.014L481.579 412.215L481.047 411.575L480.195 411.202L479.077 410.989L478.597 410.829L478.065 410.509L477.692 410.029L477.107 409.07L476.681 408.59L476.734 409.337L477.053 410.722L477.107 411.415L476.414 411.469L475.616 411.255L474.125 410.722L473.486 410.349L471.836 408.697L470.664 407.897L469.972 407.844L468.055 409.976L453.36 430.604Z" fill="#009649" stroke="white" stroke-width="2" stroke-linejoin="round"></path>
<path class="region" data-country-region="East Region" d="M373.869 437.48L375.892 438.919L377.224 440.678L378.129 441.211L380.205 441.477L379.14 442.437L378.661 443.716L378.555 444.889L378.608 446.115L378.981 448.247L379.673 450.432L380.099 451.551L380.525 452.351L382.069 454.27L382.601 455.336L383.187 457.308V458.374L382.867 459.067L382.282 459.387L379.566 460.08L379.14 460.346L378.768 460.826L378.714 461.252L379.14 464.451L379.406 465.463L379.779 466.423L383.985 474.258L383.506 476.497L383.187 477.136L381.004 479.642L380.578 480.495L379.886 483.16L379.673 485.665L379.513 486.304L379.247 486.838L377.916 487.797L377.703 488.17L377.543 488.596L377.596 489.289L377.756 489.929L377.703 490.569L377.383 491.315L376.585 492.221L376.159 492.754L375.946 493.607L375.839 494.406L375.573 495.259L375.041 496.112L373.816 497.178L373.071 497.658L372.165 498.457L371.527 500.003L369.29 496.432L368.705 496.165L367.906 495.899L367.161 496.112L365.989 495.952L364.818 495.206L362.742 493.447L361.357 492.541L357.63 490.569L356.619 490.302L356.033 490.249L355.341 490.355L354.702 490.515L353.85 490.942L352.838 491.741L352.093 492.488L351.507 493.394L351.188 494.3L350.975 494.939L350.762 495.419L350.443 495.846L349.75 496.165L349.218 496.965L349.111 497.285L348.419 497.978L347.514 498.298L346.929 498.724L346.609 499.364L346.503 500.323V501.389L346.396 502.242L345.97 502.935L345.171 503.468L341.87 504.64L336.333 505.866L334.629 505.707L333.245 505.067L332.234 504.374L330.583 503.894L329.678 503.415L329.039 502.775L328.613 502.189L327.761 501.762L323.182 500.749L322.33 500.27L321.851 499.683L321.425 499.097L320.999 498.617L319.402 497.658L318.976 497.178L318.763 496.698L318.337 495.419L317.965 494.78L317.592 494.247L316.474 493.554L315.409 492.061L313.226 490.942L314.504 489.503L315.835 488.49L316.58 487.371L319.029 482.573L327.442 474.152L327.708 473.619L327.761 472.872L326.004 462.638L328.986 459.76L330.423 457.894L332.127 454.643L332.34 453.097L332.234 451.871L330.796 447.074L330.69 445.475L330.902 443.396L331.701 440.998L332.393 439.558L333.139 438.492L335.428 436.307L337.451 433.908L342.776 425.273L343.202 424.74L345.065 423.088L347.621 421.436L350.709 427.299L351.294 427.832L352.253 428.525L353.957 428.578L354.702 428.738L356.193 429.218L357.311 429.484L357.843 429.538L362.529 429.218L363.167 429.271L364.019 429.431L364.392 429.964L364.605 430.55L364.924 432.309L365.137 432.842L365.51 433.695L365.617 434.281L365.35 434.974L364.605 435.827L363.806 436.52L363.54 437.053L363.7 437.533L364.126 437.799L364.658 437.959L366.628 438.119L367.533 437.959L368.385 437.426L369.397 436.68L370.089 436.307L371.26 436.413L373.869 437.48Z" fill="#009649" stroke="white" stroke-width="2" stroke-linejoin="round"></path>
<path class="region" data-country-region="East Region" d="M367.8 204.282L368.332 204.868L381.696 208.226L384.252 209.239L384.039 209.452L382.548 210.252L382.175 210.518L379.513 214.409L379.034 214.783L377.011 216.168L376.638 216.542L376.212 217.288L376.159 217.768L376.478 219.26L376.425 219.793L376.212 220.166L375.573 220.646L375.413 220.966V221.499L375.733 222.885L375.786 223.258L375.733 224.537L375.892 225.816L375.839 226.616L375.733 227.255L375.573 227.788L375.467 228.588L375.573 229.228L375.892 229.707L376.478 230.507L376.585 230.986V231.466L376.372 232.532L376.531 233.012L376.798 233.278L377.49 233.758L377.916 234.238L378.448 235.144L378.927 236.477L379.46 239.248L379.832 240.528L379.779 241.221L379.46 241.7L378.075 242.606L377.649 243.086L377.33 243.619L377.17 244.472L377.437 244.792L378.661 244.738L379.832 244.632L380.471 244.365L380.951 243.886L381.27 243.726L381.643 243.779L382.069 244.046L382.601 244.685L383.4 245.272L384.252 245.431L384.944 245.272L386.168 244.738L386.86 244.525L387.393 244.152L387.925 243.086L388.564 242.233L388.884 241.487L389.097 240.208L389.416 239.195L389.949 238.502L390.481 238.129L391.12 237.809L394.474 237.223L395.432 236.796L395.912 236.37L396.338 235.784L397.083 234.504L397.509 233.971L398.148 233.652L398.893 233.438L399.479 233.172L401.076 231.893L401.396 231.733L402.088 231.679L402.461 231.786L403.366 232.159L403.898 232.905L412.949 256.678L413.003 257.105L412.896 257.851L412.843 260.303L412.63 261.049L412.097 261.422H411.725L410.766 261.049L410.447 260.996L410.021 261.422L409.968 262.275L410.074 262.968L410.021 263.288L409.222 263.821L409.009 264.141L408.796 264.833L408.743 265.9L409.009 266.859V267.445L408.903 267.818L408.637 268.032L406.188 269.311L405.655 269.737L405.176 270.164L404.697 271.176L404.484 271.39L403.898 271.763L403.206 272.509L402.993 273.202L402.78 274.908L402.567 275.76L402.354 276.187L402.035 276.453L399.958 277.306L399.213 278.266L398.68 279.118L397.828 279.811L396.977 280.611L395.486 281.41L395.007 281.464L393.676 281.304L391.12 281.997L388.298 283.436L387.872 283.596H387.286L386.328 283.702L384.305 284.182L383.4 284.289L382.814 284.235L382.388 283.702L381.856 283.543L381.057 283.489L379.407 283.702H378.608L377.969 283.649L376.478 282.796L375.839 282.69L374.934 282.636L371.26 282.85L368.066 282.103L366.522 281.89L365.989 281.943L365.563 282.103L364.605 282.956L364.179 283.063L363.647 283.116L362.049 283.01L361.41 283.116L360.505 283.329L359.281 283.862L358.802 283.969H358.429L357.417 283.649L356.778 283.596L355.927 283.809L354.968 284.449L352.146 285.355L347.621 286.101L344.692 286.048L344.053 286.154L343.574 286.314L342.456 286.901L341.232 287.38L340.539 287.54H339.901L335.694 287.807H335.268L334.257 287.487L332.66 286.581L331.275 285.941L329.625 285.728L329.891 285.088V284.555L329.625 283.862L329.252 281.784L329.146 281.251L328.986 280.877L328.134 280.185L327.708 279.385L326.59 278.372L326.164 277.679L326.004 276.72L326.164 276.24L326.537 275.814L327.069 274.854L327.495 273.735V272.242L327.229 271.869L326.217 270.803L325.525 270.27L323.981 268.245L323.449 267.712L323.023 267.392L320.627 266.273L319.349 265.42L318.337 264.407L317.965 263.288V261.849L317.911 260.676L317.379 259.823L316.208 259.29H313.705L312.694 258.917L312.321 257.584L311.682 256.838L308.913 255.452L307.955 254.493L309.339 251.774L308.967 250.335L308.168 249.216L306.038 247.244L305.932 246.551L306.571 245.964L307.423 245.325L307.955 244.632L308.008 243.832L307.742 243.193L307.103 242.287L306.73 241.114L306.517 240.741L306.038 240.208L305.453 239.941L304.015 239.995L303.429 239.728L303.057 238.982L302.737 237.383L302.365 236.69L301.832 236.317L300.395 235.944L299.756 235.677L298.425 233.545L299.117 231.52L301.193 230.027L304.122 229.601L306.837 230.08L308.221 230.027L308.86 229.387L308.541 227.895L307.848 226.776L306.251 224.857L305.346 222.778L304.547 214.996L304.175 213.45L304.015 212.65L304.388 212.171L305.612 211.105L305.293 210.305L302.365 206.574L301.726 204.335L301.14 203.589L299.969 203.323L298.371 203.269L297.413 202.896L296.774 202.043L296.295 200.498L296.082 198.898L296.721 194.634L296.242 193.515L295.816 190.69L296.348 190.05L297.093 190.637L297.626 191.756L298.425 192.609L300.554 193.302H301.246L302.311 192.822L302.737 192.769L303.323 193.089L304.175 194.101L304.494 194.314L305.24 194.155L306.251 193.248L306.943 193.302L307.582 193.462L308.061 193.355L308.807 192.982L308.7 192.502L308.913 191.863H309.18L309.765 192.076H310.031L311.309 191.596L312.108 191.649L312.96 191.916L314.238 191.969L314.93 191.756L315.462 191.489L315.888 191.383L316.474 191.649L317.432 194.368L318.178 195.807L319.029 196.606L320.147 196.873L321.638 196.66L322.756 196.127L323.555 196.233L324.034 196.447L325.525 197.406L327.974 196.82H328.507L329.838 197.353L330.53 197.406L331.435 197.726L333.511 199.058H333.937L334.15 198.685L334.683 198.792L335.641 199.325H336.333L336.706 198.952L336.866 198.312L337.877 198.419L340.699 199.112L341.87 198.898L343.468 197.566L344.32 197.353L344.586 197.619L344.799 198.685L345.225 199.058L345.864 199.112L346.609 198.685L347.088 198.579L348.1 198.739L350.017 199.432L350.602 199.751L350.709 200.178L350.975 200.444L352.838 200.817L353.318 200.604L354.063 200.391L356.086 200.551L357.151 200.498L358.695 200.977L359.387 201.031L360.079 200.551L360.026 201.67L360.346 201.937L360.878 201.83L361.464 201.883L362.582 202.416L363.221 202.47L363.913 200.711L364.658 201.723L365.35 203.429L365.457 204.335L366.948 204.549L367.8 204.282Z" fill="#009649" stroke="white" stroke-width="2" stroke-linejoin="round"></path>
<path class="region" data-country-region="East Region" d="M326.004 462.639L327.761 472.873L327.708 473.619L327.442 474.152L319.03 482.574L316.58 487.371L315.835 488.49L314.504 489.503L313.226 490.942L317.699 517.06L318.124 518.286L318.657 519.672L323.928 527.188L331.169 535.769L331.648 535.983L343.148 537.742L344.959 538.275L345.438 539.394L345.065 542.112L339.421 558.316L338.25 563.167L337.239 562.154L336.653 561.728L335.056 561.301H333.405L327.016 562.261L325.419 562.101L323.981 561.568L313.759 556.344L313.013 556.078L306.518 554.692L303.802 553.786L300.128 552.986L298.158 552.133L293.26 551.067L291.237 551.014L287.403 551.707L286.498 551.76L279.577 550.907L262.326 552.4L256.683 554.852L256.416 555.118L256.683 551.547L256.576 550.055L255.831 548.722L254.233 547.549L253.381 546.696L253.009 545.79L253.328 543.712L254.233 542.272L255.671 541.42L258.865 540.833L259.185 540.087L259.078 539.021V537.742L259.451 536.569L259.771 536.036L260.143 535.503L260.729 535.183L261.102 535.503L261.315 536.462L261.794 536.782L262.273 536.889L262.539 536.516L262.592 535.343L262.912 534.277L263.498 533.264L264.616 531.878L265.148 530.866L264.19 530.013L264.03 529.107L264.562 528.201L265.574 527.508L268.343 526.761L269.727 526.175L270.313 525.269L270.952 524.629L273.827 524.363L274.679 523.67L274.253 522.444L273.134 521.538L272.336 520.578L273.134 519.033L274.199 518.659L275.317 519.033L276.382 519.192L277.234 518.286L277.021 517.7L276.542 516.9L276.436 516.154L277.447 515.888H278.246L278.725 515.781L278.938 515.408L279.151 509.918L279.417 508.532L279.737 507.732L279.95 507.679L280.269 507.892L282.239 508.319L282.984 508.266L283.357 507.786L283.144 507.146L282.771 506.613L282.505 505.973L282.452 505.121L282.718 504.907L283.783 504.108L284.209 503.681L283.836 503.308L283.304 502.296L282.931 501.763L281.494 500.697L281.121 500.27L280.908 499.097L281.068 498.031L281.44 496.912L281.6 495.686L281.813 495.153L282.718 494.46L282.931 493.714L281.387 492.275L281.174 491.369L281.6 490.249L283.73 486.465L284.049 485.452L284.209 484.333L283.889 482.041V480.921L284.422 480.388L285.38 480.175L286.818 479.589L287.936 478.736L287.883 477.777L286.978 477.137L285.966 476.604L285.221 475.911L285.061 474.632L285.7 474.845L286.232 475.165L286.552 475.591L286.765 476.071L287.35 475.325L287.936 473.832L288.522 471.487L289.161 470.794L293.26 469.301L295.39 468.076L302.684 462.585L303.483 461.413V460.507L300.608 459.654L301.087 458.588L303.27 456.722L303.642 456.189L304.015 455.39L303.962 454.643L302.524 454.11L302.311 453.631L302.524 453.098L303.855 452.618L305.187 451.872L306.038 451.285L306.251 451.392L307.742 451.712L308.434 451.392L308.541 450.592L308.434 449.366L308.488 448.833L308.913 448.3L309.552 448.247L310.777 448.727L311.629 448.78L312.96 448.46H313.333L313.759 448.673L314.291 449.1L315.143 450.219L315.995 451.179L317.379 452.405L318.87 453.364L320.52 454.803L321.213 455.176L322.49 455.709L322.757 456.029L322.97 456.456L323.023 457.202L323.236 457.841L323.608 458.534L325.206 460.613L326.004 462.639Z" fill="#009649" stroke="white" stroke-width="2" stroke-linejoin="round"></path>
<path class="region" data-country-region="East Region" d="M417.315 311.58L421.202 322.08L421.574 323.679L421.415 324.159L420.616 324.053L420.084 324.319L419.125 325.278L418.327 326.398L416.889 327.784L416.091 328.903L415.505 329.223L413.961 329.596L413.056 330.129L411.831 331.835L411.671 332.154L411.352 333.221L411.405 334.766L411.032 338.018V339.35L411.192 340.256L412.523 341.429L412.896 341.802L413.162 342.442L413.322 343.241L413.588 345.48L413.854 346.599L414.174 347.399L414.546 348.092L414.972 348.625L415.505 349.158L416.037 349.531L416.623 349.798L417.794 350.224L418.273 350.49L418.646 350.81L418.912 351.237L420.243 354.275L423.598 359.019L424.929 361.791L425.834 364.722L426.526 366.215L427.218 367.174L429.082 368.4L430.147 369.253L431.371 370.585L431.957 372.185L432.383 373.197L432.809 373.944L433.448 374.477L436.802 376.502L429.348 378.528L424.29 380.66L422.959 381.726L422.054 382.845L419.285 388.388L418.699 389.188L418.167 389.668L417.635 389.454L414.706 386.683L412.523 384.231L411.725 383.645L408.796 382.525L408.211 382.099L407.731 381.619L407.572 381.086L407.518 380.553L407.572 380.02L407.838 378.954L407.785 378.208L407.518 377.355L406.72 376.609L406.134 376.555L405.442 376.928L404.856 377.568L404.324 378.261L403.898 379.167L403.579 379.967L402.993 380.926L402.194 381.779L399.426 383.431L398.787 384.018L398.414 384.711L398.095 385.457L397.615 386.256L396.976 386.896L395.06 387.962L394.421 388.442L389.789 393.186L387.446 392.12L386.807 391.693L384.464 389.028L383.4 388.282L377.49 385.883L376.531 385.777L372.272 386.256L368.811 387.269L358.802 389.135L357.95 389.454L356.885 390.041L356.565 390.521L356.459 391.32L356.619 392.013L356.565 392.599L356.459 392.919L356.086 393.346L355.394 393.879L354.116 394.305L352.998 394.412L351.827 394.252L349.644 393.612L345.544 391.746L344.373 390.894L345.225 390.574L345.544 390.147L345.278 389.561L344.586 388.762L344 387.962V387.322L344.213 386.683L344.373 385.883L344.213 384.817H343.787L343.255 385.19L342.669 385.137L342.137 384.497V384.124L345.384 379.594L346.343 375.596L346.556 375.116L347.301 374.743L347.834 374.903L348.419 375.116H349.165L350.123 374.37L350.496 373.304L350.762 371.971L352.093 369.2L351.667 368.08L350.709 367.174L349.857 366.641L348.952 364.935L348.685 363.976L348.632 362.59L348.898 359.712L349.484 357.526L349.591 356.833L348.898 355.074L348.579 354.062L347.887 349.158L347.408 347.079L347.035 342.762L346.822 341.856L346.13 340.576L345.597 339.83L344.426 338.497L344.16 338.018L343.947 337.431L343.894 336.525L343.947 335.832L344.213 335.459L345.331 334.127L345.864 332.954L346.982 331.621L347.567 330.236L346.556 328.903L345.97 328.743L343.734 328.903L343.095 328.637L342.829 328.05L342.882 327.357L343.255 326.718L343.681 325.598L343.201 324.426L342.137 323.733L340.912 324.159L340.273 322.453L340.167 320.641L339.847 318.882L338.729 317.496L338.09 317.39H337.238L336.44 317.283L336.12 316.75L336.333 315.951L336.812 315.258L337.717 314.192L339.155 313.232L339.421 312.539L339.634 310.354L340.06 308.328V307.795L339.847 307.369L338.942 306.516L338.729 305.823L338.942 305.29L340.06 304.864L340.433 304.224V303.478L340.113 302.945L339.155 301.825L337.238 300.12L332.713 297.561L330.956 295.642L329.358 292.604L329.145 291.645L329.092 290.898L328.773 289.406V288.553L328.932 287.807L329.518 286.528L329.625 285.728L331.275 285.941L332.659 286.581L334.257 287.487L335.268 287.807H335.694L339.9 287.54H340.539L341.231 287.381L342.456 286.901L343.574 286.314L344.053 286.155L344.692 286.048L347.621 286.101L352.146 285.355L354.968 284.449L355.926 283.809L356.778 283.596L357.417 283.649L358.429 283.969H358.802L359.281 283.863L360.505 283.33L361.41 283.116L362.049 283.01L363.647 283.116L364.179 283.063L364.605 282.956L365.563 282.104L365.989 281.944L366.522 281.89L368.066 282.104L371.26 282.85L374.934 282.637L375.839 282.69L376.478 282.797L377.969 283.649L378.608 283.703H379.406L381.057 283.489L381.856 283.543L382.388 283.703L382.814 284.236L383.4 284.289L384.305 284.182L386.328 283.703L387.286 283.596H387.872L388.298 283.436L391.12 281.997L393.675 281.304L395.006 281.464L395.486 281.411L396.976 280.611L397.828 279.812L398.68 279.119L399.213 278.266L399.958 277.306L402.034 276.454L402.727 276.933L403.472 276.56L404.217 276.027L405.655 275.281L406.88 274.961L408.211 274.748L408.903 274.535L409.488 274.268L409.808 274.215L410.766 274.535L411.618 274.641L414.28 274.801L415.185 275.068L415.718 275.388L416.25 275.814L416.516 276.294L416.676 276.773V277.146L416.197 278.319L416.091 278.692L416.197 279.012L416.463 279.438L417.528 280.398L418.06 281.091L418.22 281.571L418.327 282.21L418.114 282.956L417.688 283.543L417.155 284.182L411.938 288.553L411.725 288.873V289.353L411.884 289.939L412.204 290.845L412.736 292.018L413.854 294.043L414.653 294.896L415.292 295.376H415.611L415.931 295.163L416.942 294.363L417.368 294.097L418.06 293.724L418.433 293.51L418.646 293.137L418.806 292.711L418.859 292.124V291.112L418.912 290.739L419.179 290.525L419.711 290.312L423.598 289.513H424.45L425.089 289.566L425.248 289.832V290.152L425.142 290.952L425.089 291.858L425.301 294.416L425.195 295.163L424.716 296.175L424.343 296.762L423.704 297.508L422.267 299.374L422.16 299.693V300.013L422.48 301.079L422.693 302.785L422.639 304.544L422.533 305.343L422.267 306.036L421.149 308.115L420.829 309.288L420.563 309.661L418.433 311.26L417.848 311.526L417.315 311.58Z" fill="#009649" stroke="white" stroke-width="2" stroke-linejoin="round"></path>
<path class="region" data-country-region="East Region" d="M329.092 399.528L330.53 401.66L330.743 401.874L333.245 403.526L333.884 404.112L335.801 407.47L337.718 409.603L338.516 410.775L338.889 411.681L339.049 412.747L339.421 414.08L341.604 418.131L342.243 418.984L342.669 419.304L343.095 419.517L343.947 419.357L344.639 418.771L345.225 418.504H345.597L346.343 419.304L347.621 421.436L345.065 423.088L343.202 424.74L342.776 425.273L337.451 433.908L335.428 436.307L333.139 438.492L332.393 439.558L331.701 440.998L330.903 443.396L330.69 445.475L330.796 447.074L332.234 451.871L332.34 453.097L332.127 454.643L330.423 457.894L328.986 459.76L326.004 462.638L325.206 460.613L323.608 458.534L323.236 457.841L323.023 457.202L322.969 456.455L322.756 456.029L322.49 455.709L321.212 455.176L320.52 454.803L318.87 453.364L317.379 452.404L315.995 451.178L315.143 450.219L314.291 449.1L313.758 448.673L313.332 448.46H312.96L311.629 448.78L310.777 448.726L309.552 448.247L308.913 448.3L308.487 448.833L308.434 449.366L308.541 450.592L308.434 451.392L307.742 451.711L306.251 451.392L306.038 451.285L306.464 450.965L307.156 449.952L306.198 447.607L305.985 446.221L306.943 445.635L308.061 445.262L309.286 444.302L310.351 443.183L311.043 442.277L310.351 442.117L309.765 441.85L309.286 441.424L308.86 440.838L310.191 438.812L310.99 438.066L312.321 437.48L313.066 437.426L313.705 437.48L314.344 437.426L314.93 437L315.143 436.467L315.515 434.921L315.622 434.548L317.485 434.815L318.444 434.761L318.87 434.335L319.189 432.736L319.881 432.203L320.733 431.99L321.479 431.19L321.798 429.964L322.65 423.888L322.543 422.715L322.117 421.809L321.266 420.849L320.094 419.89L321.585 418.504L323.129 416.745L323.768 413.973L323.449 411.361L322.49 409.603L320.946 408.057L321.851 407.204L322.81 405.765L323.608 403.952L324.194 402.034L324.407 400.275L324.726 399.315L325.472 399.155L327.282 399.528H329.092Z" fill="#009649" stroke="white" stroke-width="2" stroke-linejoin="round"></path>
<path class="region" data-country-region="East Region" d="M389.789 393.185L386.701 411.735L385.423 416.105L369.93 427.139L369.557 427.619L369.61 428.258L369.93 429.164L373.603 436.733L373.87 437.48L371.261 436.414L370.089 436.307L369.397 436.68L368.386 437.426L367.534 437.959L366.629 438.119L364.659 437.959L364.126 437.799L363.7 437.533L363.54 437.053L363.807 436.52L364.605 435.827L365.351 434.974L365.617 434.282L365.51 433.695L365.138 432.842L364.925 432.309L364.605 430.55L364.392 429.964L364.02 429.431L363.168 429.271L362.529 429.218L357.844 429.538L357.311 429.484L356.193 429.218L354.702 428.738L353.957 428.578L352.253 428.525L351.295 427.832L350.709 427.299L347.621 421.436L346.343 419.304L345.598 418.504H345.225L344.639 418.771L343.947 419.357L343.095 419.517L342.669 419.304L342.243 418.984L341.605 418.131L339.422 414.08L339.049 412.747L338.889 411.681L338.516 410.775L337.718 409.603L335.801 407.47L333.884 404.112L333.245 403.526L330.743 401.874L330.53 401.66L329.093 399.528H331.169L331.648 399.262L332.82 397.929L333.352 397.609L333.938 397.503L334.683 397.183L335.482 396.703L336.121 396.224L339.155 392.119L339.794 390.467L341.285 390.307L342.989 390.734L344.373 390.893L345.544 391.746L349.644 393.612L351.827 394.251L352.998 394.411L354.117 394.305L355.394 393.878L356.087 393.345L356.459 392.919L356.566 392.599L356.619 392.013L356.459 391.32L356.566 390.52L356.885 390.041L357.95 389.454L358.802 389.134L368.811 387.269L372.272 386.256L376.532 385.776L377.49 385.883L383.4 388.282L384.465 389.028L386.807 391.693L387.446 392.119L389.789 393.185Z" fill="#009649" stroke="white" stroke-width="2" stroke-linejoin="round"></path>
<path class="region" data-country-region="West Region" d="M304.175 213.45L304.548 214.996L305.346 222.778L306.251 224.857L307.849 226.776L308.541 227.895L308.86 229.388L308.221 230.027L306.837 230.081L304.122 229.601L301.193 230.027L299.117 231.52L298.425 233.545L299.756 235.677L300.395 235.944L301.832 236.317L302.365 236.69L302.737 237.383L303.057 238.982L303.43 239.728L304.015 239.995L305.453 239.942L306.038 240.208L306.518 240.741L306.731 241.114L307.103 242.287L307.742 243.193L308.008 243.833L307.955 244.632L307.423 245.325L306.571 245.965L305.932 246.551L306.038 247.244L308.168 249.216L308.967 250.336L309.339 251.775L307.955 254.493L308.914 255.453L311.682 256.838L312.321 257.585L312.694 258.917L313.705 259.29H316.208L317.379 259.823L317.912 260.676L317.965 261.849V263.288L318.337 264.407L319.349 265.42L320.627 266.273L323.023 267.392L323.449 267.712L323.981 268.245L325.525 270.271L326.217 270.804L327.229 271.87L327.495 272.243V273.735L327.069 274.855L326.537 275.814L326.164 276.24L326.004 276.72L326.164 277.68L326.59 278.373L327.708 279.385L328.134 280.185L328.986 280.878L329.146 281.251L329.252 281.784L329.625 283.863L329.891 284.556V285.089L329.625 285.728L329.518 286.528L328.933 287.807L328.773 288.553V289.406L329.092 290.899L329.146 291.645L329.359 292.604L330.956 295.643L332.713 297.561L337.239 300.12L339.155 301.826L340.114 302.945L340.433 303.478V304.224L340.06 304.864L338.942 305.29L338.729 305.823L338.942 306.516L339.847 307.369L340.06 307.795V308.328L339.634 310.354L339.421 312.539L339.155 313.232L337.718 314.192L336.813 315.258L336.333 315.951L336.12 316.75L336.44 317.283L337.239 317.39H338.09L338.729 317.497L339.847 318.882L340.167 320.641L340.273 322.454L340.912 324.159L342.137 323.733L343.202 324.426L343.681 325.598L343.255 326.718L342.882 327.357L342.829 328.05L343.095 328.637L343.734 328.903L345.97 328.743L346.556 328.903L347.568 330.236L346.982 331.622L345.864 332.954L345.331 334.127L344.213 335.459L343.947 335.833L343.894 336.525L343.947 337.432L344.16 338.018L344.426 338.498L345.598 339.83L346.13 340.576L346.822 341.856L347.035 342.762L347.408 347.079L347.887 349.158L348.579 354.062L348.899 355.075L349.591 356.834L349.484 357.527L348.899 359.712L348.632 362.59L348.686 363.976L348.952 364.936L349.857 366.641L350.709 367.174L351.667 368.08L352.093 369.2L350.762 371.971L350.496 373.304L350.123 374.37L349.165 375.116H348.419L347.834 374.903L347.301 374.743L346.556 375.116L346.343 375.596L345.385 379.594L342.137 384.124V384.498L342.669 385.137L343.255 385.19L343.787 384.817H344.213L344.373 385.883L344.213 386.683L344 387.323V387.962L344.586 388.762L345.278 389.561L345.544 390.148L345.225 390.574L344.373 390.894L342.989 390.734L341.285 390.307L339.794 390.467L339.155 392.12L336.12 396.224L335.482 396.704L334.683 397.183L333.938 397.503L333.352 397.61L332.819 397.93L331.648 399.262L331.169 399.529H329.092H327.282L325.472 399.156L324.727 399.316L324.407 400.275L324.194 402.034L323.608 403.953L322.81 405.765L321.851 407.204L320.946 408.057L320.201 408.484L318.391 409.07L317.432 409.603L316.74 410.243L315.356 411.948L313.439 410.616L312.215 408.91L310.191 404.326L309.446 403.42L307.423 402.46L306.464 401.714L303.696 398.463L302.791 397.663L301.566 397.183H296.561L295.656 396.864L295.283 396.171L295.017 395.371L294.591 394.785L294.006 394.678L292.621 394.838L291.982 394.785L287.563 392.546L286.765 392.6L286.179 391.533L280.482 387.589H279.311L278.246 388.389L276.489 390.254L275.69 390.84L274.891 391.214L274.199 391.374L273.401 391.107L273.028 390.734L272.868 390.148L272.442 389.508L268.396 384.924L266.905 382.792L266.16 382.046L264.722 381.299L250.719 378.581L250.4 378.208L250.24 377.675L249.867 377.355L249.388 377.142L248.909 376.769L248.004 376.502L244.809 376.449L243.478 376.076L231.339 366.854L229.369 366.375L228.73 365.895L227.452 364.616L226.867 364.243L226.441 364.189L225.269 364.136L223.992 363.71L221.649 362.111L220.158 361.578L218.348 360.298L215.739 359.392L215.1 358.912L214.781 358.433L214.301 358.06L213.343 357.953L212.757 357.74L211.959 356.727L209.829 355.981L208.817 354.648L207.54 352.196L206.954 351.503L204.452 349.318L202.961 348.625L202.748 348.092L202.588 347.452L202.322 346.973L201.949 346.653L200.565 346.013L199.127 345.16L198.488 344.627L197.796 343.881L197.264 343.508L196.093 343.295L195.028 342.602L193.43 342.442L192.791 342.175L192.366 341.749L191.247 340.257L188.798 337.751L166.064 322.56L164.946 322.294L163.615 322.454L160.633 323.52L159.142 323.839L154.404 323.999L149.452 323.253L147.429 323.36L146.843 323.253L146.204 322.827L144.98 321.707L144.287 321.281L143.702 321.228L141.466 321.281L137.526 320.535L135.449 319.042L134.331 318.456L132.042 318.349L131.669 318.243L130.657 316.004L130.604 315.631L130.018 315.471L128.9 314.885L128.208 314.618L127.516 314.565L124.588 314.725L124.002 314.565L122.671 313.446L122.085 313.232L118.412 313.339L118.092 304.437L118.145 303.958L118.305 303.531L119.157 302.092L119.37 301.293L119.849 298.841L120.169 298.201L120.754 297.615L121.819 297.082L122.671 296.762L127.197 296.016L129.486 295.056L131.456 293.99L132.308 293.617L133.16 293.457L153.658 292.285L155.841 291.858L157.332 291.272L163.668 287.86L164.147 287.487L164.733 281.358L165.318 278.639L166.117 276.187L168.992 270.324L169.684 268.352L169.897 267.179L169.684 266.38L169.152 265.154L169.045 264.674L168.992 264.247L170.749 259.557L171.069 258.118L171.228 256.998L170.749 253.694L170.909 250.549L170.643 247.084L170.802 246.338L171.388 244.152L171.494 243.246V241.487L171.761 240.368L172.346 238.982L184.592 220.699L184.965 219.847L185.071 218.514L184.699 215.316L184.805 214.57L185.178 213.983L186.136 213.504L187.148 213.344L190.768 213.29L191.727 213.131L192.419 212.704L192.898 211.798L192.951 211.265L192.898 210.839L192.046 209.186L191.886 208.653V208.12L191.993 207.427L192.472 206.255L193.004 205.508L193.803 204.709L200.299 200.764L201.204 200.445L202.056 200.231L202.748 200.551L203.227 200.924L203.813 201.511L204.824 202.15L205.25 202.31L205.57 202.257L207.114 201.564L211 199.112L211.959 198.259L212.172 197.886L212.012 196.927L209.776 190.157L216.857 194.155L219.253 195.114L220.744 195.487L221.755 195.594L231.499 195.221L245.022 196.34L248.27 195.967L277.98 198.046L279.63 198.472L280.482 199.165L280.961 202.417L281.44 203.11L282.345 203.696L304.175 213.45Z" fill="#009649" stroke="white" stroke-width="2" stroke-linejoin="round"></path>
</svg>