<svg width="763" height="582" viewBox="0 0 763 582" fill="none" xmlns="http://www.w3.org/2000/svg">
<path class="region" data-country-region="East Region" d="M754.146 278.349L753.765 277.434L751.02 272.402L749.876 271.487L748.046 270.572H746.216L740.268 272.402L739.124 273.165L738.209 274.156L731.804 278.197L717.316 282.39L699.854 281.551L693.372 280.027L688.721 277.053L686.281 275.986L684.756 276.062L683.535 276.596L682.239 277.511L679.952 277.968L678.274 277.053L677.435 274.842L677.588 272.631L678.503 270.42L679.342 268.819L679.418 267.218L678.579 265.617L676.901 264.016L673.47 262.338L671.716 261.881L663.557 262.186L662.337 262.567L660.659 264.016L660.126 264.854L658.906 267.523L658.143 268.514L656.847 269.581L655.169 270.496L652.882 271.03L651.509 270.649L650.823 269.886L650.289 267.98L649.374 266.837L648.459 266.684L644.722 267.675L643.197 267.294L642.054 266.227L640.757 263.634L639.232 261.652L634.276 264.397L629.548 262.796L623.905 259.212L621.313 268.361L620.55 270.268L616.585 274.842L612.925 277.206L612.238 278.502L611.857 280.027L611.4 283.458L612.391 286.965L614.373 289.481L618.262 293.14L619.864 295.733L621.923 298.325L623.295 299.469L625.659 300.765L627.87 302.442L629.243 302.9L629.929 303.891L629.548 305.263L626.422 307.855L625.964 309.152L626.193 310.219L627.413 311.515L627.032 312.43L626.04 313.574L623.448 315.937L623.219 317.691L623.448 319.368L624.134 320.512L623.448 321.122L621.694 321.274L614.678 319.902L613.535 319.216L612.772 317.462L608.731 317.386L595.31 320.588L577.619 326.077L575.942 326.992L574.035 327.374L571.9 327.069L563.741 324.171L557.565 324.019L556.802 318.834L555.734 316.09L553.523 314.336L551.617 313.345L546.355 312.049L545.44 311.21L545.135 309.99L545.821 307.398L546.584 303.891L546.355 299.316L550.702 297.563L551.922 296.876L553.828 295.199L556.039 293.827L557.488 291.997L558.708 291.311L560.233 290.853L561.225 290.243L561.453 289.252L559.7 287.88L553.447 284.144L551.922 284.068L550.625 284.372L549.329 284.296L548.49 283.381L548.033 280.637L548.567 279.264L550.625 276.672L551.693 273.851L551.617 272.631L550.854 271.564L548.719 271.106L546.965 271.411L545.44 272.097L544.22 272.25L542.924 271.64L541.323 269.2L537.739 266.379L536.595 265.159L535.985 264.168L536.366 259.67L526.453 260.432L525.233 260.127L524.013 259.517L524.165 255.019L524.013 253.113L523.479 251.588L522.793 251.13L521.878 251.207L516.693 253.799L514.176 254.485L513.032 254.18L512.575 253.418L512.804 250.444L512.194 249.148L510.897 248.691L504.568 248.538L502.509 247.776L500.908 246.556L499.459 243.659L499.002 242.134L498.926 240.838L499.078 239.313L499.536 238.017L500.298 237.025L502.128 235.882L502.814 235.119L502.891 233.823L501.976 231.841L498.849 228.181L480.93 214.534L483.446 210.264V208.816L483.065 207.977L482.684 206.299L482.531 202.411L482.912 200.276L483.98 198.37L485.352 196.998L487.64 195.092L488.097 193.948L488.021 192.423L487.182 189.602L485.886 187.544L484.437 186.171L482.684 185.104L481.463 184.189L481.006 183.274L481.997 182.359L485.81 181.292L486.725 181.825L487.564 182.817L489.013 183.503L490.461 183.122L491.605 181.902L492.215 180.301L492.139 179.233L491.529 177.861L488.86 175.726L488.097 174.659L488.708 171.838L488.555 168.94L497.019 170.236L498.468 169.932L500.451 169.093L502.052 168.94L505.788 170.541L506.932 170.694L508 169.932L508.915 168.33L509.601 167.72L510.669 167.415L514.786 167.797L516.616 167.568L519.056 166.196L522.945 165.204L531.105 165.891L533.545 167.492L534.917 169.703L535.68 170.694L537.586 172.371L537.967 173.286L537.586 175.345L537.739 176.031L538.959 176.488L540.865 176.412L544.601 175.726L559.547 169.779L561.987 169.55L564.809 170.465L566.029 170.618L566.715 170.084L566.944 168.483L566.181 165.052L567.096 163.375L568.011 162.307L577.848 156.665L580.364 159.181L580.898 160.859L581.813 163.222L582.652 164.366L583.491 164.823L584.253 164.671L585.702 163.222L586.617 162.536L587.913 162.46L589.057 163.451L589.591 164.518L591.955 168.254L597.293 165.509L599.275 164.061L601.029 163.603L615.06 163.146L616.585 163.527L617.042 164.061L617.805 166.882L622.685 161.24L623.676 159.791L625.506 155.903L626.727 155.14L627.718 155.369L630.234 156.436L632.598 156.818L633.437 156.284L634.199 154.988L636.258 147.745L637.402 144.543L640.91 139.206L641.52 136.613L642.435 134.555L644.112 132.42L646.781 130.438L648.078 129.065L649.679 126.778L650.518 125.253L650.67 122.966V118.772L653.263 114.198L660.583 119.077L668.59 128.15L681.4 139.358L684.679 144.466L687.653 151.481L694.516 163.832L702.675 170.084L720.595 178.776L727.915 180.834L735.312 181.444L736.532 186.857L736.989 193.033L736.684 199.056L735.464 204.088L732.948 208.129L729.745 211.789L727.229 215.982L726.619 221.472L729.059 226.275L728.678 228.944L724.102 233.595L722.959 236.187L721.281 244.65L720.366 246.785L717.24 252.579L716.02 256.849L716.553 259.212L718.612 260.585L726.314 263.482L728.525 263.634L736.379 261.5L757.806 265.312L760.78 267.599L762 271.411L760.552 275.071L757.425 277.511L754.146 278.349Z" fill="#009649" stroke="white" stroke-width="2" stroke-linejoin="round"></path>
<path class="region" data-country-region="West Region" d="M199.478 178.928L199.402 180.91L199.63 182.054L200.317 183.655L201.766 185.256L204.511 186.552L205.044 187.467L204.129 190.135L204.053 191.432L204.282 192.88L205.349 195.472L206.188 197.15L208.018 198.903L213.966 202.639L215.415 204.24L220.295 211.636L222.506 213.39L222.735 214.381L219.99 218.65L220.753 223.987L223.879 225.589L226.777 231.307L228.226 233.213L230.818 235.043L233.563 235.576L234.25 236.339L234.631 237.711L234.097 239.77L234.326 242.057L237.147 244.573L239.435 244.726L241.57 243.887L242.637 243.811L243.476 244.421L244.315 246.098L244.544 247.852L244.468 249.758L243.934 253.112L244.01 254.713L244.696 256.467L245.916 258.144L248.433 260.127L250.873 262.871L251.33 265.54L251.94 266.531L252.703 266.836L254.075 266.15L255.753 264.091L257.126 263.176L258.193 261.347L259.261 260.66L259.566 259.974L259.413 257.763L260.252 257.458L261.015 257.992L262.616 259.822L271.461 266.76L271.919 267.675L271.766 268.666L270.012 270.496L269.25 271.944L269.479 273.317L270.928 274.232H274.206L277.943 273.545L280.23 271.792L281.374 271.487L282.747 271.639L284.501 272.326L286.941 272.021L288.313 271.639L289.915 270.419L290.906 270.343L292.126 270.877L294.337 272.554L295.024 274.155L295.481 276.9L296.32 277.891L298.684 278.73H306.843L312.028 277.739L313.553 278.196L315.688 280.026L316.298 281.475L317.29 282.39L318.434 282.618L325.754 280.941L329.033 281.475L331.625 284.677L329.262 287.65L328.652 289.48L328.423 291.691L328.575 295.885L328.88 298.324L328.804 300.459L328.346 302.213L326.745 304.576L324.61 308.617L323.161 315.632L311.189 317.309L270.012 309.608L265.971 310.676L263.531 311.82L261.93 313.268L260.1 314.488L253.084 312.506L246.45 313.421L240.045 315.632L238.52 316.775L234.631 318.529L223.727 320.511L221.973 320.435L221.286 320.13L218.923 318.376L217.855 317.233L214.271 318.91L213.509 318.071L210.306 316.242L196.733 320.359L175.229 317.69V312.734L175.458 311.286L176.907 307.931L177.441 305.796L178.966 302.975L178.813 300.307L176.526 299.011L175.458 299.163L173.17 298.858L170.959 298.172L168.29 298.706L166.841 298.553L165.469 297.867L163.029 295.503L161.809 294.741L160.512 294.665L157.157 295.199L156.242 295.656L153.878 297.943L152.353 298.934L151.133 298.706L150.599 297.638L151.362 293.979L151.438 292.835L151.209 291.463L149.227 287.041L147.625 281.932L146.863 280.484L145.643 279.264L133.29 273.774L129.248 273.164L127.723 272.402L127.342 270.572L128.638 267.599L138.399 256.467L140.534 254.561L142.288 252.579L143.279 250.673L144.27 244.344L146.253 243.201L146.177 241.295L145.033 239.922L140.763 238.779L135.577 236.339L132.909 234.128L131.612 233.518L130.468 233.747L128.181 235.729L126.884 235.805L125.512 234.28L122.843 223.072L122.233 221.319L120.327 219.184L119.64 217.507L118.802 209.959L118.344 208.739L116.438 207.138L116.209 204.927L122.919 201.953L123.911 201.038L125.054 198.446L124.444 196.387L139.161 194.253L140.839 194.863L142.516 195.015L143.965 194.558L147.092 191.355L147.778 190.288L147.93 189.297L147.854 186.552L148.312 184.875L149.303 182.587L150.828 181.977L152.506 182.511H154.183L155.861 182.13L158.072 180.453L162.571 178.47L173.247 177.174L176.449 176.869L180.338 178.775L181.863 179.156L185.066 178.928L186.515 179.385L188.04 180.224L189.565 180.529L199.478 178.928Z" fill="#009649" stroke="white" stroke-width="2" stroke-linejoin="round"></path>
<path class="region" data-country-region="West Region" d="M417.487 44.6637L417.716 48.3233L418.021 49.3907L417.716 50.8394L416.648 52.4405L415.886 54.1941L415.428 56.4051L416.038 58.9211L417.64 59.6073L419.241 58.9211L419.851 59.9123L420.08 61.5897L420.004 65.0968L419.699 67.0029L418.86 68.299L414.895 69.4427L413.522 70.2814L412.683 71.5775L411.844 73.6361L411.54 75.3134L411.463 77.677L411.082 79.888L408.108 84.3101L406.964 86.8261L406.125 91.477L405.515 93.3068L404.6 94.6029L403.304 94.3742L401.779 93.4593L400.559 94.0692L399.873 95.8991L399.72 98.4913L399.873 104.591L400.178 106.344L400.788 107.945L402.16 109.623L403.533 110.614L404.982 111.376L406.202 111.681L407.346 112.444L408.108 113.892L408.566 117.476L408.337 119.839L406.735 123.27L407.117 126.778L405.897 129.141L403.152 131.276L399.568 132.953L397.89 134.021L396.975 135.85L397.128 138.748L396.136 140.196L391.18 140.73L392.857 147.439L394.916 149.651L396.365 150.032L397.966 150.947L398.653 151.785L399.339 155.521L401.398 158.037L402.008 159.41L402.694 165.128L402.618 167.034L402.847 170.465L402.16 172.142L400.94 173.591L399.491 174.506L398.424 175.726L398.195 178.318L399.949 185.18V187.162L399.11 188.382L396.594 188.306L395.526 188.535L393.772 190.288L392.476 190.822L389.655 190.669L388.358 191.356L387.215 194.329L385.308 198.141L383.249 201.038L382.106 203.859L364.415 212.704L358.467 216.973L356.027 219.489L354.731 221.243L352.748 225.131L351.909 225.512L350.842 225.055L348.783 223.683L345.046 223.53L343.521 219.87L344.436 217.126L345.199 215.753L345.809 214.076L345.656 213.085L344.97 212.627L342.454 211.712L340.852 209.959L339.48 209.273L338.412 209.044L337.573 209.349L335.667 211.103L333.38 211.712L332.846 212.17L332.388 215.067L331.016 215.677H328.881L324.458 214.457L321.636 212.704L311.8 204.317L305.242 208.358L304.098 209.425L302.421 210.111L301.201 209.425L300.362 207.977L299.294 204.317L298.684 203.097L297.769 202.335L295.405 201.801L292.584 201.725L284.577 202.716L281.908 204.698L279.468 208.663L279.087 210.34L278.324 211.712L277.181 212.932L272.453 216.135L252.474 224.14L249.119 223.225L248.204 222.31L247.594 219.26L246.679 218.269L245.002 217.812L235.394 219.26L227.921 222.158L223.879 225.589L220.753 223.988L219.99 218.651L222.736 214.381L222.507 213.39L220.295 211.636L215.415 204.241L213.966 202.639L208.019 198.904L206.189 197.15L205.35 195.473L204.282 192.88L204.053 191.432L204.13 190.136L205.045 187.467L204.511 186.552L201.766 185.256L200.317 183.655L199.631 182.054L199.402 180.91L199.478 178.928L203.52 175.268L204.587 174.582L205.655 173.286L205.807 171.532L205.045 167.796L204.892 165.89L205.807 158.647L205.426 156.589L203.825 152.7L203.977 151.252L205.655 149.651L207.104 149.041L208.857 148.507L210.459 147.821L212.289 146.448L213.585 145.152L214.195 142.941L213.814 138.671L214.043 136.842L215.034 135.469L217.093 134.859L218.847 134.631L220.829 133.639L222.049 131.962L223.956 126.32L227.768 121.669L227.311 119.153L228.912 117.933L230.59 117.018L230.742 116.256L228.683 114.807L227.616 113.664L226.167 111.224L225.099 110.385L224.184 110.69L223.041 112.825L222.049 113.74L220.677 114.197L218.999 113.892L217.779 112.596L215.949 110.08L215.491 108.403V107.259L216.102 106.421L218.008 104.972L218.694 104.057L219.228 102.913L219.075 98.0339L218.008 94.298L218.237 92.3919L219.457 91.0958L225.557 89.7996L226.625 88.9609L227.463 87.5123L229.065 87.1311L231.2 86.0637L229.065 83.4714L228.531 81.9466L228.15 80.0405L228.455 78.1344L228.912 76.4571V75.2372L227.921 74.1698L226.243 73.7123L223.422 74.0173L219.457 75.2372L218.16 76.0758L217.169 77.2957L215.415 78.0582L213.128 78.4394L208.171 77.7532L202.528 80.498H200.775L198.944 79.888L197.419 78.6681L196.809 76.8383L196.581 75.1609L195.971 74.1698L193.988 74.0935L193.302 73.7123L193.454 72.035L194.674 69.7477L194.217 68.7565L193.53 67.9941L188.803 66.393L190.557 52.8217L194.217 47.4847L196.352 45.5023L198.487 42.5289L199.249 40.0128L199.173 38.0305L197.801 36.0482L197.496 35.2858L198.029 33.9134L199.097 32.3885L200.012 30.025L201.537 29.1101H203.138L206.57 30.1775L208.4 30.2537L210.23 29.7963L212.06 28.4239L213.128 26.4416L213.738 24.4592L213.814 22.4007L213.051 20.5708L212.213 19.1985L211.908 17.7498L212.518 16.6062L213.509 15.9962L215.186 14.3951L218.618 16.225L224.337 22.3244L226.548 23.2393L228.531 23.0106L246.832 15.3863L255.372 9.36309L260.024 8.52441L264.218 10.888L267.344 17.5973L271.919 29.1863L277.867 33.7609L284.348 32.1598L290.83 25.1454L289.762 22.7056L292.126 21.1808L307.148 17.6736L309.97 18.2073L332.159 27.7377L336.811 28.0427L344.589 23.3918L348.783 22.1719L357.781 22.6294L361.288 22.0195L362.356 22.4007L363.5 24.0018L363.652 27.9664L367.694 28.6526L376.615 26.594L380.886 26.6703L396.899 31.8548L409.023 41.4615L413.37 43.9012L417.487 44.6637Z" fill="#009649" stroke="white" stroke-width="2" stroke-linejoin="round"></path>
<path class="region" data-country-region="East Region" d="M653.264 114.197L650.672 118.772V122.965L650.519 125.253L649.68 126.777L648.079 129.065L646.783 130.437L644.114 132.419L642.436 134.554L641.521 136.613L640.911 139.205L637.403 144.542L636.26 147.744L634.201 154.987L633.438 156.284L632.6 156.817L630.236 156.436L627.719 155.369L626.728 155.14L625.508 155.902L623.678 159.791L622.687 161.239L617.806 166.881L617.044 164.06L616.586 163.527L615.061 163.145L601.031 163.603L599.277 164.06L597.294 165.509L591.956 168.254L589.592 164.518L589.059 163.45L587.915 162.459L586.619 162.535L585.704 163.222L584.255 164.67L583.492 164.823L582.653 164.365L581.815 163.222L580.9 160.858L580.366 159.181L577.849 156.665L568.013 162.307L567.098 163.374L566.183 165.051L566.945 168.482L566.716 170.084L566.03 170.617L564.81 170.465L561.989 169.55L559.549 169.779L544.603 175.726L540.866 176.412L538.96 176.488L537.74 176.031L537.588 175.344L537.969 173.286L537.588 172.371L535.681 170.693L534.919 169.702L533.546 167.491L531.106 165.89L522.947 165.204L519.058 166.195L516.618 167.568L514.788 167.796L510.67 167.415L509.602 167.72L508.916 168.33L508.001 169.931L506.934 170.693L505.79 170.541L502.053 168.94L500.452 169.092L498.469 169.931L497.021 170.236L488.556 168.94L488.709 171.837L488.099 174.658L488.861 175.726L491.53 177.86L492.14 179.233L492.217 180.3L491.607 181.901L490.463 183.121L489.014 183.502L487.565 182.816L486.726 181.825L485.811 181.291L481.999 182.359L481.007 183.274L481.465 184.189L482.685 185.103L484.439 186.171L485.888 187.543L487.184 189.602L488.023 192.423L488.099 193.948L487.641 195.091L485.354 196.997L483.981 198.37L482.914 200.276L482.532 202.411L482.685 206.299L483.066 207.976L483.447 208.815V210.264L480.931 214.533L478.415 215.296L477.118 216.592L477.195 217.736L477.881 218.955L480.245 220.709L481.16 221.7L481.312 222.844L480.55 223.835L478.415 224.216L476.89 223.835L473.84 222.234L472.391 222.005L471.094 222.615L469.569 225.207L468.807 227.418L467.968 231.383L467.129 233.594L465.604 236.034L460.953 241.066L459.733 241.676L458.741 241.066L456.759 241.218L453.099 244.116L449.667 240.532L447.99 236.415L446.388 234.433L444.558 232.908L438.458 229.629H437.543L437.238 231.84L436.399 232.679H434.645L431.824 231.84L430.375 230.392L429.079 228.562L427.477 226.58L426.41 226.122L425.037 226.503L423.741 227.647L417.412 230.773L414.895 231.459L412.76 230.926L411.083 231.078L409.939 231.688L407.575 233.899L406.279 234.433L405.593 233.823L405.516 232.603L406.355 229.096L406.584 227.266V225.284L405.898 223.53L402.085 219.642L400.712 217.812L398.12 215.448L396.595 214.838L395.451 214.991L394.383 215.829L391.943 216.058L390.113 215.296L388.817 213.847L388.207 211.941L387.673 207.9L387.215 206.299L386.529 204.85L384.547 203.936L382.106 203.859L383.25 201.038L385.309 198.141L387.215 194.329L388.359 191.355L389.656 190.669L392.477 190.822L393.773 190.288L395.527 188.534L396.595 188.306L399.111 188.382L399.95 187.162V185.18L398.196 178.318L398.425 175.726L399.492 174.506L400.941 173.591L402.161 172.142L402.847 170.465L402.619 167.034L402.695 165.128L402.009 159.409L401.399 158.037L399.34 155.521L398.653 151.785L397.967 150.947L396.366 150.032L394.917 149.65L392.858 147.439L391.181 140.73L396.137 140.196L397.128 138.748L396.976 135.85L397.891 134.021L399.569 132.953L403.152 131.276L405.898 129.141L407.118 126.777L406.736 123.27L408.338 119.839L408.566 117.476L408.109 113.892L407.346 112.444L406.203 111.681L404.983 111.376L403.534 110.614L402.161 109.623L400.789 107.945L400.179 106.344L399.874 104.591L399.721 98.4912L399.874 95.8989L400.56 94.0691L401.78 93.4592L403.305 94.3741L404.601 94.6028L405.516 93.3067L406.126 91.4768L406.965 86.826L408.109 84.31L411.083 79.8879L411.464 77.6768L411.54 75.3133L411.845 73.6359L412.684 71.5774L413.523 70.2812L414.895 69.4426L418.861 68.2989L419.699 67.0028L420.004 65.0967L420.081 61.5895L419.852 59.9122L419.242 58.921L417.641 59.6072L416.039 58.921L415.429 56.405L415.887 54.1939L416.649 52.4403L417.717 50.8392L418.022 49.3906L417.717 48.3232L417.488 44.6635L420.92 43.9774L436.552 35.7431L440.517 35.0569L444.711 36.7342L452.946 42.7575L457.216 43.9774L461.639 41.995L469.112 37.6492L471.552 35.0569L482.075 20.7232L487.184 16.6823L503.578 9.36295L504.875 9.28671L507.772 10.4304L508.84 10.2016L509.679 8.14306L509.831 5.5508L510.289 3.03477L512.119 1.35742L514.864 2.27234L517.152 6.16074L520.507 16.0724L523.862 30.2536L525.311 34.5232L526.607 36.963L530.953 41.7663L532.174 44.0536L534.461 51.5254L538.274 58.5398L542.925 61.9707L587.686 69.8238L596.532 68.1464L603.013 71.3486L605.224 71.8061L612.926 71.1199L614.527 71.8823L615.442 73.8647L617.883 81.7177L619.026 84.1575L620.551 85.7586L628.024 90.9431L641.597 106.344L653.264 114.197Z" fill="#009649" stroke="white" stroke-width="2" stroke-linejoin="round"></path>
<path class="region" data-country-region="South Region" d="M323.162 315.632L325.83 316.394L332.465 321.96L335.286 322.341L338.26 321.884L341.157 322.113L343.598 324.324L344.36 326.382L344.284 328.441L343.293 329.356L340.7 329.661L339.175 330.194L337.802 331.948L336.353 334.845L334.828 336.522L332.693 336.98L327.051 336.37L325.678 336.675L324.305 337.285L322.399 339.038L321.637 340.411L321.408 341.631L322.018 342.927L328.347 344.528L329.796 346.053L330.939 347.578L333.837 356.879L336.963 356.193L340.014 354.516L341.92 354.745L344.284 355.888L347.791 358.709L350.613 361.683L351.604 363.055L351.985 364.351L351.604 368.24L352.062 370.756L353.206 373.729L353.663 376.093L352.214 376.855L350.842 379.981L349.469 381.582L349.24 382.726L349.698 383.488L351.909 383.564L352.9 383.946L353.892 385.318L353.663 387.682L354.121 389.13L355.341 390.884L355.951 392.409L356.027 394.086L355.722 396.907L358.086 407.352L357.933 409.563L357.247 411.546L356.027 412.308L352.824 413.452L351.452 414.138L350.537 415.282V416.197L351.147 416.807L352.595 417.798L353.739 419.17L357.399 420.542L358.467 422.067L358.391 423.287L356.332 425.803L355.646 427.404L355.874 428.777L356.713 429.844L359.611 432.131L361.136 434.266L362.508 435.486L364.034 435.791L366.397 435.486L367.312 435.867L368.151 437.392L370.363 443.949L370.668 446.236L370.286 447.914L369.219 449.439L367.694 452.488L360.983 450.582L358.62 448.142L357.552 446.313L355.417 444.102L354.044 443.644L352.824 443.949L341.92 452.717L340.852 453.937L339.937 455.614L339.632 457.597L340.014 461.714L339.785 464.001L330.024 467.737L328.804 468.881L327.813 470.405L328.423 471.32L330.024 472.388L330.329 472.998L330.101 474.218L329.033 474.828L324.915 475.59L321.789 476.81L319.883 478.335L317.595 481.308L316.146 485.12L315.765 487.026L314.774 489.39L314.392 490.915V492.44L314.926 495.337L313.706 502.504L313.325 506.621L310.732 504.41L300.286 500.445L295.329 497.395L287.322 490.61L284.959 489.466L282.29 490.076L279.24 491.372H276.266L273.902 488.094L273.978 485.807L274.664 483.291L275.198 481.156L274.359 479.936L269.937 479.402L268.412 478.411L267.649 476.962L266.353 473.455L264.904 472.083L263.608 471.778L260.634 472.388L259.261 472.235L251.483 468.194L248.738 467.813L245.535 469.338L242.028 475.742L239.664 477.725L231.81 463.849L228.378 456.148L227.616 447.456L228.531 430.073L231.429 419.475L231.962 415.358L231.81 412.994L231.047 407.81V405.523L231.581 403.998L234.402 399.728L234.479 398.889L233.869 396.831L234.174 395.687L235.699 395.077L237.071 393.857L239.359 392.637L240.35 391.418L242.18 388.368L246.145 385.394L248.128 383.26L249.806 379.371L250.111 375.406L249.577 371.213L247.671 362.14L246.603 359.243L245.002 357.413L237.3 353.753L236.233 352L237.681 348.95L235.927 348.264L234.707 346.892L233.792 345.367L232.954 344.376L231.734 343.994L224.413 344.071L222.278 342.927L220.753 340.182L219.075 335.15L216.864 324.934L215.492 320.359L214.271 318.91L217.855 317.233L218.923 318.377L221.287 320.13L221.973 320.435L223.727 320.511L234.631 318.529L238.52 316.776L240.045 315.632L246.45 313.421L253.085 312.506L260.1 314.488L261.93 313.268L263.531 311.82L265.971 310.676L270.013 309.609L311.19 317.309L323.162 315.632Z" fill="#009649" stroke="white" stroke-width="2" stroke-linejoin="round"></path>
<path class="region" data-country-region="East Region" d="M754.148 278.349L749.115 279.722L747.132 280.941L743.396 284.601L741.337 287.498L740.422 289.862L739.583 296.19L738.134 302.747L736.152 306.102L733.254 306.559L719.605 300.46L717.775 300.612L716.631 301.756L715.868 303.128L715.106 303.967L713.81 304.424H712.742L698.406 300.688L692.535 301.68L688.493 308.16L688.112 310.753L688.265 316.318L688.036 319.063L687.426 320.969L682.622 331.414L678.199 338.276L676.293 340.411L671.565 343.156L655.857 346.358L653.417 346.282L648.765 345.214L646.401 345.138L641.521 347.197L639.996 348.569L639.539 350.246L639.31 352.305L638.471 354.592L635.726 357.795L632.752 360.158L630.159 362.827L628.787 367.02L629.016 369.079L630.083 373.577L630.159 375.407L629.626 377.313L628.101 377.77L626.804 378.38L623.983 380.972L622.61 382.955L622.229 386.005L622.61 397.441L622.458 399.728L621.924 402.168L620.704 406.438L620.551 409.259L621.39 413.681L624.593 421.61L625.355 425.956L624.669 430.378L622.915 433.885L620.399 436.401L612.469 441.128L610.486 443.873L609.113 448.371L608.503 454.242L608.58 458.893L608.122 463.163L605.834 467.966L599.887 475.209L597.447 480.012L597.294 485.578L599.048 488.475L601.869 489.543L607.436 489.162L615.214 485.044L617.196 484.587L618.95 485.578L619.713 487.408L620.094 489.619L621.466 493.507L622.458 494.499L623.983 493.965L624.517 494.117L625.813 495.49L626.957 497.167L627.948 499.149L628.787 501.589L629.321 502.352L630.693 503.038L630.998 504.41L630.693 505.401L629.168 507.46L628.787 508.451L628.634 518.591L627.643 522.099L624.593 524.31L623.068 524.538L618.264 523.928L616.815 524.538L614.756 527.436L613.46 528.198L610.562 528.274L599.124 526.368L595.616 524.691L592.719 521.87L591.728 517.905L592.643 516.304L596.379 515.008L597.294 513.407L596.608 511.501L593.481 509.823L593.786 507.612L596.379 506.088L599.429 506.316L600.573 505.478L591.423 492.974L590.812 491.754L589.897 490.915L588.296 490.458L585.017 492.059L579.832 499.759L576.706 501.818L566.03 502.428L557.795 499.454L555.507 499.836L553.829 502.733L551.237 513.178L549.102 517.829L543.764 523.776L538.121 527.436L532.326 528.427L522.108 524.386L516.16 523.547L510.136 524.233L509.526 524.615L507.162 519.964L506.247 516.762L505.637 515.313L504.875 514.169L503.578 513.331L500.452 511.806L499.156 510.662L498.546 508.909L499.003 506.774L512.958 492.897L517.609 486.798L518.524 483.52L519.287 476.734L519.82 473.608L520.812 471.931L522.108 471.168L525.616 470.406L527.98 469.186L528.513 466.746L528.285 456.606L521.803 457.139L511.204 461.028L505.103 465.526L503.731 465.755L501.977 465.145L499.461 464.687L497.859 464.992L495.801 466.365L494.733 466.746L493.36 466.67L492.445 465.526L492.217 464.154L492.75 461.333L492.445 460.113L491.607 459.35L487.794 457.597L484.21 456.834L482.456 456.987L480.169 458.283L477.118 459.655L475.441 460.799L471.171 462.095L469.035 462.248L457.521 460.723L454.929 459.045L454.471 457.521V455.767L455.005 453.861L455.615 450.506L455.005 448.905L452.793 446.465L452.641 445.855L453.632 444.483L453.709 442.424L454.014 441.052L452.717 435.944L454.166 434.19L455.081 431.369L455.462 426.642L455.844 424.584L456.454 423.211L457.75 422.906L458.741 423.516L459.885 423.745L461.105 423.592L462.096 422.677L462.706 421.305L463.469 417.95L463.24 415.739L461.334 413.528L461.639 410.936L461.258 408.115L460.419 404.532L460.648 402.321L461.715 400.643L463.926 399.271L469.264 397.67L470.866 395.001L471.628 394.239H473.077L477.881 395.382L479.253 395.077L480.169 394.01L480.474 391.418L480.779 387.072L481.236 384.937L483.066 380.363L483.905 376.093L484.286 374.721L485.125 373.577L486.65 372.357L495.114 367.554L496.868 365.8L499.156 361.149L502.892 358.176L502.206 356.727L499.384 352.915L497.097 351.085L494.733 350.094L489.166 349.713L486.803 348.722L479.864 342.165L473.229 338.81L471.476 336.675L470.332 336.218L472.848 332.482L474.373 329.203L475.517 327.983L477.118 326.992L479.253 324.858L481.541 323.561L483.371 321.884L483.752 320.74V319.597L483.295 317.233L481.922 314.87L478.033 312.887L476.28 306.94L475.67 305.949L474.45 305.721L471.857 307.017L470.332 307.169L468.807 306.178L467.434 303.509L467.282 300.765L467.434 299.011L467.129 297.715L466.062 296.648L463.926 295.123L462.783 294.055L461.486 292.454L460.571 290.319L460.19 287.117L460.571 285.364L461.486 284.372L462.783 284.067L463.621 283.61L463.469 282.771L461.791 281.628L456.682 279.722L455.081 278.349L454.014 276.367L453.022 268.361L450.506 264.244L449.591 261.576L449.896 258.755L450.201 256.62L450.048 254.409L450.582 252.274L451.116 250.902L453.099 244.116L456.759 241.219L458.741 241.066L459.733 241.676L460.953 241.066L465.604 236.034L467.129 233.594L467.968 231.383L468.807 227.419L469.569 225.208L471.094 222.615L472.391 222.006L473.839 222.234L476.89 223.835L478.415 224.217L480.55 223.835L481.312 222.844L481.16 221.701L480.245 220.709L477.881 218.956L477.195 217.736L477.118 216.592L478.415 215.296L480.931 214.534L498.851 228.181L501.977 231.841L502.892 233.823L502.816 235.119L502.13 235.882L500.299 237.025L499.537 238.017L499.079 239.313L498.927 240.838L499.003 242.134L499.461 243.659L500.909 246.556L502.511 247.776L504.57 248.538L510.899 248.691L512.195 249.148L512.805 250.444L512.576 253.418L513.034 254.18L514.178 254.485L516.694 253.799L521.879 251.207L522.794 251.13L523.481 251.588L524.014 253.113L524.167 255.019L524.014 259.517L525.234 260.127L526.454 260.432L536.367 259.67L535.986 264.168L536.596 265.159L537.74 266.379L541.324 269.2L542.925 271.64L544.222 272.25L545.442 272.097L546.967 271.411L548.72 271.106L550.856 271.564L551.618 272.631L551.694 273.851L550.627 276.672L548.568 279.264L548.034 280.636L548.492 283.381L549.331 284.296L550.627 284.372L551.923 284.067L553.448 284.144L559.701 287.88L561.455 289.252L561.226 290.243L560.235 290.853L558.71 291.311L557.49 291.997L556.041 293.827L553.829 295.199L551.923 296.876L550.703 297.562L546.357 299.316L546.585 303.891L545.823 307.398L545.137 309.99L545.442 311.21L546.357 312.049L551.618 313.345L553.524 314.336L555.736 316.09L556.803 318.834L557.566 324.019L563.742 324.171L571.902 327.069L574.037 327.374L575.943 326.992L577.621 326.077L595.311 320.588L608.732 317.386L612.774 317.462L613.536 319.216L614.68 319.902L621.695 321.274L623.449 321.122L624.135 320.512L623.449 319.368L623.22 317.691L623.449 315.937L626.042 313.574L627.033 312.43L627.414 311.515L626.194 310.219L625.965 309.151L626.423 307.855L629.549 305.263L629.931 303.891L629.244 302.9L627.872 302.442L625.66 300.765L623.297 299.469L621.924 298.325L619.865 295.733L618.264 293.14L614.375 289.481L612.392 286.965L611.401 283.457L611.858 280.027L612.24 278.502L612.926 277.206L616.586 274.842L620.551 270.267L621.314 268.361L623.907 259.212L629.549 262.796L634.277 264.397L639.234 261.652L640.759 263.634L642.055 266.227L643.199 267.294L644.724 267.675L648.46 266.684L649.375 266.837L650.29 267.98L650.824 269.886L651.51 270.649L652.883 271.03L655.171 270.496L656.848 269.581L658.144 268.514L658.907 267.523L660.127 264.854L660.661 264.015L662.338 262.567L663.558 262.186L671.718 261.881L673.471 262.338L676.903 264.015L678.58 265.617L679.419 267.218L679.343 268.819L678.504 270.42L677.589 272.631L677.437 274.842L678.275 277.053L679.953 277.968L682.241 277.511L683.537 276.596L684.757 276.062L686.282 275.986L688.722 277.053L693.374 280.027L699.855 281.551L717.317 282.39L731.805 278.197L738.211 274.156L739.126 273.165L740.27 272.402L746.217 270.572H748.047L749.877 271.487L751.021 272.402L753.766 277.434L754.148 278.349Z" fill="#009649" stroke="white" stroke-width="2" stroke-linejoin="round"></path>
<path class="region" data-country-region="South Region" d="M452.717 435.944L454.013 441.052L453.708 442.424L453.632 444.483L452.64 445.855L452.793 446.465L455.004 448.905L455.614 450.506L455.004 453.861L454.471 455.767V457.52L454.928 459.045L457.521 460.723L469.035 462.247L471.17 462.095L475.44 460.799L477.118 459.655L480.168 458.283L482.456 456.987L484.209 456.834L487.793 457.597L491.606 459.35L492.445 460.113L492.75 461.332L492.216 464.153L492.445 465.526L493.36 466.669L494.732 466.746L495.8 466.365L497.859 464.992L499.46 464.687L501.977 465.145L503.73 465.755L505.103 465.526L511.203 461.028L521.802 457.139L528.284 456.605L528.513 466.746L527.979 469.185L525.615 470.405L522.108 471.168L520.811 471.93L519.82 473.608L519.286 476.734L518.524 483.519L517.609 486.798L512.957 492.897L499.003 506.773L498.545 508.908L499.155 510.662L500.452 511.805L503.578 513.33L504.874 514.169L505.637 515.313L506.247 516.761L507.162 519.963L509.526 524.614L505.713 526.902L505.179 528.35L505.255 532.315L502.815 533.84L501.672 535.288L500.833 535.365L500.604 536.127L501.214 539.482L502.739 544.285L504.493 548.021L505.637 552.291L505.408 558.314L503.73 562.126L501.443 563.346L493.055 564.718L490.691 564.566L488.785 562.66L487.107 558.314L485.658 558.009L482.532 560.372L474.297 562.05L467.739 565.862L452.869 579.204L448.218 581.568L443.566 581.492L439.449 580.272L435.102 580.5L432.586 579.967L431.213 577.908L428.926 571.58L425.342 567.158L421.224 565.709L417.03 566.472L409.023 570.818L405.135 571.885L396.899 571.961L394.764 571.504L390.951 568.988L388.893 568.149L386.91 568.53L377.073 574.249L376.082 574.401L374.938 574.096L372.65 572.724L371.735 572.495L369.753 573.334L367.465 575.011L359.382 576.155L352.977 578.899L350.994 579.052L348.783 578.289L337.116 571.199L332.694 570.055L333.227 568.759L333.304 567.539L332.922 566.396L332.16 565.404L330.787 564.261L329.72 562.736L329.186 560.677L329.262 558.314L330.559 556.484L332.16 555.188L334.066 551.833V546.801L332.16 536.508L331.169 531.781L329.72 526.825L327.966 522.403L325.755 519.201L324.611 518.515L321.789 517.752L320.493 516.837L319.273 515.16L316.909 510.586L315.689 508.679L313.325 506.621L313.706 502.504L314.927 495.337L314.393 492.44V490.915L314.774 489.39L315.765 487.026L316.147 485.12L317.595 481.308L319.883 478.335L321.789 476.81L324.916 475.59L329.033 474.828L330.101 474.218L330.33 472.998L330.025 472.388L328.423 471.32L327.813 470.405L328.805 468.881L330.025 467.737L339.785 464.001L340.014 461.714L339.633 457.597L339.938 455.614L340.853 453.937L341.92 452.717L352.825 443.949L354.045 443.644L355.417 444.102L357.552 446.313L358.62 448.142L360.984 450.582L367.694 452.488L369.067 453.861L381.191 453.327L381.801 454.852L383.555 454.318L387.062 452.183L391.409 448.6L398.958 445.703L399.721 444.788L399.568 443.492L398.272 441.967L397.738 440.976L397.357 439.527L397.662 437.926L398.424 436.706L400.178 435.334L403.152 434.342L405.668 434.419L408.261 435.181L409.405 435.791L411.769 436.477L426.028 433.58L428.621 432.589L431.137 432.131L433.12 432.513L435.865 434.419L437.085 435.944L439.372 437.011L441.202 437.392L452.717 435.944Z" fill="#009649" stroke="white" stroke-width="2" stroke-linejoin="round"></path>
<path class="region" data-country-region="South Region" d="M382.106 203.859L384.546 203.936L386.529 204.851L387.215 206.299L387.673 207.9L388.206 211.941L388.816 213.847L390.113 215.296L391.943 216.058L394.383 215.83L395.45 214.991L396.594 214.838L398.119 215.448L400.712 217.812L402.085 219.642L405.897 223.53L406.584 225.284V227.266L406.355 229.096L405.516 232.603L405.592 233.823L406.279 234.433L407.575 233.899L409.939 231.688L411.082 231.078L412.76 230.926L414.895 231.459L417.412 230.773L423.741 227.647L425.037 226.504L426.409 226.122L427.477 226.58L429.078 228.562L430.375 230.392L431.823 231.841L434.645 232.679H436.399L437.237 231.841L437.542 229.63H438.458L444.558 232.908L446.388 234.433L447.989 236.415L449.667 240.532L453.098 244.116L451.116 250.901L450.582 252.274L450.048 254.409L450.201 256.62L449.896 258.754L449.591 261.575L450.506 264.244L453.022 268.361L454.013 276.367L455.081 278.349L456.682 279.721L461.791 281.627L463.469 282.771L463.621 283.61L462.782 284.067L461.486 284.372L460.571 285.363L460.19 287.117L460.571 290.319L461.486 292.454L462.782 294.055L463.926 295.122L466.061 296.647L467.129 297.715L467.434 299.011L467.281 300.764L467.434 303.509L468.806 306.178L470.332 307.169L471.857 307.016L474.449 305.72L475.669 305.949L476.279 306.94L478.033 312.887L481.922 314.869L483.295 317.233L483.752 319.597V320.74L483.371 321.884L481.541 323.561L479.253 324.857L477.118 326.992L475.517 327.983L474.373 329.203L472.848 332.482L470.332 336.218L471.475 336.675L473.229 338.81L479.863 342.164L486.802 348.721L489.166 349.713L494.733 350.094L497.097 351.085L499.384 352.915L502.206 356.727L502.892 358.176L499.155 361.149L496.868 365.8L495.114 367.553L486.65 372.357L485.125 373.577L484.286 374.72L483.905 376.093L483.066 380.362L481.236 384.937L480.778 387.072L480.473 391.418L480.168 394.01L479.253 395.077L477.881 395.382L473.077 394.239H471.628L470.865 395.001L469.264 397.669L463.926 399.271L461.715 400.643L460.647 402.32L460.419 404.531L461.257 408.115L461.639 410.936L461.334 413.528L463.24 415.739L463.469 417.95L462.706 421.305L462.096 422.677L461.105 423.592L459.885 423.745L458.741 423.516L457.75 422.906L456.453 423.211L455.843 424.583L455.462 426.642L455.081 431.369L454.166 434.19L452.717 435.944L441.203 437.392L439.373 437.011L437.085 435.944L435.865 434.419L433.12 432.513L431.137 432.131L428.621 432.589L426.028 433.58L411.769 436.477L409.405 435.791L408.261 435.181L405.668 434.419L403.152 434.342L400.178 435.334L398.424 436.706L397.662 437.926L397.357 439.527L397.738 440.976L398.272 441.967L399.568 443.492L399.721 444.788L398.958 445.703L391.409 448.6L387.063 452.183L383.555 454.318L381.801 454.852L381.191 453.327L369.067 453.861L367.694 452.488L369.219 449.439L370.287 447.914L370.668 446.236L370.363 443.949L368.152 437.392L367.313 435.867L366.398 435.486L364.034 435.791L362.509 435.486L361.136 434.266L359.611 432.131L356.714 429.844L355.875 428.777L355.646 427.404L356.332 425.803L358.391 423.287L358.467 422.067L357.4 420.542L353.74 419.17L352.596 417.798L351.147 416.807L350.537 416.197V415.282L351.452 414.138L352.825 413.452L356.027 412.308L357.247 411.546L357.934 409.563L358.086 407.352L355.722 396.907L356.027 394.086L355.951 392.409L355.341 390.884L354.121 389.13L353.664 387.682L353.892 385.318L352.901 383.946L351.91 383.564L349.698 383.488L349.241 382.726L349.47 381.582L350.842 379.981L352.215 376.855L353.664 376.093L353.206 373.729L352.062 370.756L351.605 368.24L351.986 364.351L351.605 363.055L350.613 361.683L347.792 358.709L344.284 355.888L341.92 354.745L340.014 354.516L336.964 356.193L333.838 356.879L330.94 347.578L329.796 346.053L328.347 344.528L322.018 342.927L321.408 341.631L321.637 340.411L322.4 339.039L324.306 337.285L325.678 336.675L327.051 336.37L332.694 336.98L334.829 336.522L336.354 334.845L337.803 331.948L339.175 330.194L340.7 329.661L343.293 329.356L344.284 328.441L344.361 326.382L343.598 324.324L341.158 322.113L338.26 321.884L335.286 322.341L332.465 321.96L325.831 316.394L323.162 315.632L324.611 308.617L326.746 304.577L328.347 302.213L328.805 300.459L328.881 298.325L328.576 295.885L328.424 291.692L328.652 289.48L329.262 287.651L331.626 284.677L329.034 281.475L325.755 280.941L318.434 282.619L317.291 282.39L316.299 281.475L315.689 280.026L313.554 278.196L312.029 277.739L306.844 278.73H298.685L296.321 277.892L295.482 276.9L295.025 274.156L294.338 272.555L292.127 270.877L290.907 270.343L289.916 270.42L288.314 271.64L286.942 272.021L284.501 272.326L282.748 271.64L281.375 271.487L280.231 271.792L277.944 273.546L274.207 274.232H270.928L269.48 273.317L269.251 271.945L270.013 270.496L271.767 268.666L271.92 267.675L271.462 266.76L262.617 259.822L261.015 257.992L260.253 257.458L259.414 257.763L259.567 259.974L259.262 260.661L258.194 261.347L257.126 263.177L255.754 264.092L254.076 266.15L252.704 266.836L251.941 266.531L251.331 265.54L250.874 262.872L248.434 260.127L245.917 258.145L244.697 256.467L244.011 254.714L243.935 253.113L244.468 249.758L244.545 247.852L244.316 246.098L243.477 244.421L242.638 243.811L241.571 243.887L239.436 244.726L237.148 244.573L234.327 242.057L234.098 239.77L234.632 237.711L234.25 236.339L233.564 235.577L230.819 235.043L228.226 233.213L226.778 231.307L223.88 225.589L227.921 222.158L235.394 219.261L245.002 217.812L246.68 218.269L247.595 219.261L248.205 222.31L249.12 223.225L252.475 224.14L272.453 216.135L277.181 212.932L278.325 211.712L279.088 210.34L279.469 208.663L281.909 204.698L284.578 202.716L292.584 201.725L295.406 201.801L297.77 202.335L298.685 203.097L299.295 204.317L300.362 207.977L301.201 209.425L302.421 210.111L304.099 209.425L305.242 208.358L311.8 204.317L321.637 212.704L324.458 214.457L328.881 215.677H331.016L332.389 215.067L332.846 212.17L333.38 211.712L335.668 211.103L337.574 209.349L338.413 209.044L339.48 209.273L340.853 209.959L342.454 211.712L344.971 212.627L345.657 213.085L345.809 214.076L345.199 215.753L344.437 217.126L343.522 219.87L345.047 223.53L348.783 223.683L350.842 225.055L351.91 225.512L352.748 225.131L354.731 221.243L356.027 219.489L358.467 216.973L364.415 212.704L382.106 203.859Z" fill="#009649" stroke="white" stroke-width="2" stroke-linejoin="round"></path>
<path class="region" data-country-region="West Region" d="M215.186 14.3954L213.508 15.9965L212.517 16.6064L211.907 17.7501L212.212 19.1987L213.051 20.5711L213.813 22.4009L213.737 24.4595L213.127 26.4418L212.059 28.4241L210.229 29.7965L208.399 30.2539L206.569 30.1777L203.138 29.1103H201.536L200.011 30.0252L199.096 32.3888L198.029 33.9136L197.495 35.286L197.8 36.0484L199.172 38.0308L199.249 40.0131L198.486 42.5291L196.351 45.5026L194.216 47.4849L190.556 52.8219L188.802 66.3932L193.53 67.9943L194.216 68.7567L194.673 69.7479L193.453 72.0352L193.301 73.7126L193.987 74.0938L195.97 74.17L196.58 75.1612L196.808 76.8385L197.419 78.6684L198.944 79.8882L200.774 80.4982H202.527L208.17 77.7534L213.127 78.4396L215.414 78.0584L217.168 77.296L218.159 76.0761L219.456 75.2374L223.421 74.0175L226.242 73.7126L227.92 74.17L228.911 75.2374V76.4573L228.454 78.1347L228.149 80.0407L228.53 81.9468L229.064 83.4717L231.199 86.0639L229.064 87.1313L227.462 87.5126L226.624 88.9612L225.556 89.7999L219.456 91.096L218.236 92.3921L218.007 94.2982L219.075 98.0341L219.227 102.914L218.693 104.057L218.007 104.972L216.101 106.421L215.491 107.26V108.403L215.948 110.081L217.778 112.597L218.998 113.893L220.676 114.198L222.048 113.74L223.04 112.825L224.184 110.69L225.099 110.386L226.166 111.224L227.615 113.664L228.682 114.808L230.741 116.256L230.589 117.019L228.911 117.934L227.31 119.153L227.767 121.669L223.955 126.32L222.048 131.962L220.828 133.64L218.846 134.631L217.092 134.86L215.033 135.47L214.042 136.842L213.813 138.672L214.194 142.941L213.584 145.152L212.288 146.449L210.458 147.821L208.857 148.507L207.103 149.041L205.654 149.651L203.976 151.252L203.824 152.7L205.425 156.589L205.806 158.647L204.891 165.891L205.044 167.797L205.806 171.533L205.654 173.286L204.586 174.582L203.519 175.268L199.477 178.928L189.564 180.529L188.039 180.224L186.514 179.386L185.065 178.928L181.863 179.157L180.338 178.776L176.449 176.87L173.246 177.175L162.571 178.471L158.072 180.453L155.86 182.13L154.183 182.512H152.505L150.828 181.978L149.302 182.588L148.311 184.875L147.854 186.552L147.93 189.297L147.777 190.288L147.091 191.356L143.965 194.558L142.516 195.015L140.838 194.863L139.161 194.253L124.444 196.388L117.581 190.365L113.692 184.723L113.311 183.198L111.786 180.605L111.176 179.233L110.642 175.955L109.879 173.667L107.363 169.245L107.211 167.873L107.973 165.433L108.126 162.841L108.507 161.621L108.126 160.706L107.211 160.096L105.075 160.172L102.025 161.316L95.8487 161.468L94.2474 162.002L92.7986 162.155L91.731 161.85L91.1972 160.401L91.5023 159.334L92.6461 157.351L92.4936 156.36L90.8922 154.149L89.3672 151.709V148.812L89.1384 147.745L88.4521 147.44L86.012 149.651L83.1144 150.718L77.7004 150.184L77.5479 147.516L78.7679 145.152L80.5217 143.094L87.3846 137.452L87.9946 136.613L88.3759 135.47L90.2822 133.792L90.816 132.649L90.4347 130.895L89.9772 129.675L87.6133 126.015L87.0033 124.643L86.5458 122.584L86.3933 120.45L86.927 110.995L86.3933 108.098L86.317 106.802L86.8508 105.353L88.4521 104.134L91.426 103.371L92.6461 102.38L93.9424 100.55L98.4413 91.7059L99.2801 86.9026L105.457 80.9557L106.905 80.1932L111.862 79.8882L113.235 79.507L114.302 78.5921L115.598 76.8385L116.666 75.8474L118.496 75.4661L124.825 75.5424L127.189 73.7126L130.315 66.9269L131.84 63.0385L133.289 60.4462L134.128 57.9302L134.967 56.9391L136.187 56.4054L137.483 56.2529L138.551 55.6429L138.932 54.6518L138.398 52.3645L134.662 43.6727L133.899 42.3766L132.45 40.3943L131.993 38.5645L131.688 36.2009V31.3214L130.773 29.339L129.629 27.8904L128.638 26.9755L127.951 25.6031L127.723 24.2307L128.104 22.5534L128.943 21.4097L133.67 18.97L135.348 17.5213L135.806 15.1578L152.429 7.22852L158.3 7.68597L160.741 8.90586L165.545 12.5655L168.061 13.6329L206.569 12.2606L214.804 14.2429L215.186 14.3954Z" fill="#009649" stroke="white" stroke-width="2" stroke-linejoin="round"></path>
<path class="region" data-country-region="West Region" d="M9.37813 271.487L0.990234 269.276L10.6744 252.35L16.1647 238.855L21.4262 220.252L22.7988 200.962L23.6376 197.074L22.9513 196.006L23.6376 193.795L22.4937 189.221L22.875 174.811L21.8075 168.559L26.0014 173.896L27.7552 184.036L28.0603 204.088L27.7552 206.909L26.5352 210.798L26.3064 213.542V222.158L24.7814 225.894L22.7225 229.63L22.0362 233.213L24.5526 236.263V237.711L22.6463 240.151L20.2824 244.421L18.2235 249.529L17.3848 254.256L15.6309 258.831L9.30188 267.37L9.37813 271.487ZM124.445 196.388L125.055 198.446L123.911 201.039L122.92 201.953L116.209 204.927L116.438 207.138L118.345 208.739L118.802 209.959L119.641 217.507L120.327 219.184L122.233 221.319L122.843 223.073L125.512 234.281L126.885 235.805L128.181 235.729L130.469 233.747L131.613 233.518L132.909 234.128L135.578 236.339L140.763 238.779L145.033 239.923L146.177 241.295L146.253 243.201L144.271 244.345L143.279 250.673L142.288 252.579L140.534 254.561L138.399 256.467L128.639 267.599L127.342 270.572L127.724 272.402L129.249 273.165L133.29 273.774L145.643 279.264L146.863 280.484L147.626 281.933L149.227 287.041L151.21 291.463L151.439 292.835L151.362 293.979L150.6 297.639L151.134 298.706L152.354 298.935L153.879 297.944L156.243 295.656L157.158 295.199L160.513 294.665L161.809 294.741L163.029 295.504L165.469 297.867L166.842 298.554L168.291 298.706L170.959 298.172L173.171 298.859L175.458 299.163L176.526 299.011L178.814 300.307L178.966 302.976L177.441 305.797L176.907 307.931L175.458 311.286L175.23 312.735V317.691L172.79 317.386L158.759 321.045L157.081 322.799L155.633 324.857L153.192 326.687L150.219 326.916L146.711 325.849L143.889 323.409L142.669 319.673V315.937L142.288 313.421L140.687 312.277L137.332 312.582L133.976 315.251L132.833 315.708L131.613 315.251L128.41 313.116L123.835 311.972L121.318 310.295L116.972 306.407L107.974 304.424L105.763 302.518L103.551 299.545L94.4009 292.378L89.1394 289.786L76.0238 289.404L71.296 285.592L63.2894 271.64L59.3242 267.675L56.0453 268.133L45.4461 277.053L45.5986 275.909L44.9886 270.725V268.971L45.8273 268.056L46.7424 268.437L47.7337 268.285L48.4962 265.998L48.1912 264.168L47.3524 261.499L46.2849 259.136L44.3785 257.077L43.9973 254.714L44.0735 249.529L42.7009 249.377L35.2281 256.544L34.5418 254.866L34.8468 254.18L39.8033 242.744L40.8709 240.99L42.9297 238.474V232.908L41.4046 223.683L39.8033 216.897L39.6508 215.067L37.8207 212.932L36.6007 211.103L35.9906 208.892L36.4482 202.563L35.9906 200.2L31.1867 187.239L30.1954 183.198L29.8141 178.852L28.9753 176.564L23.6376 167.11L22.3412 165.738L21.1974 164.976L20.3586 163.451L19.8249 157.732L18.6048 153.234L16.546 133.792V123.575L16.851 121.059L17.9948 117.857L18.2998 115.722V95.823L17.6898 87.665L22.57 86.4451H30.1954L35.3806 84.9202L37.3632 80.5743L38.2782 74.1699L40.4896 66.6218L43.7685 61.5136L48.3437 56.4815L53.2239 52.3644L57.1891 50.3058L63.0607 50.0008L65.0432 49.3147L83.1154 35.3621L87.9193 32.9224L99.4336 32.3887L135.807 15.1577L135.349 17.5213L133.671 18.9699L128.944 21.4097L128.105 22.5533L127.724 24.2307L127.952 25.603L128.639 26.9754L129.63 27.8903L130.774 29.3389L131.689 31.3213V36.2008L131.994 38.5644L132.451 40.3942L133.9 42.3765L134.663 43.6727L138.399 52.3644L138.933 54.6517L138.552 55.6428L137.484 56.2528L136.188 56.4053L134.968 56.939L134.129 57.9301L133.29 60.4462L131.841 63.0384L130.316 66.9268L127.19 73.7125L124.826 75.5423L118.497 75.4661L116.667 75.8473L115.599 76.8384L114.303 78.592L113.236 79.5069L111.863 79.8882L106.906 80.1931L105.458 80.9556L99.2811 86.9025L98.4423 91.7058L93.9434 100.55L92.647 102.38L91.427 103.371L88.4531 104.133L86.8518 105.353L86.318 106.802L86.3943 108.098L86.928 110.995L86.3943 120.45L86.5468 122.584L87.0043 124.643L87.6143 126.015L89.9782 129.675L90.4357 130.895L90.817 132.648L90.2832 133.792L88.3768 135.469L87.9956 136.613L87.3856 137.452L80.5227 143.094L78.7689 145.152L77.5488 147.516L77.7013 150.184L83.1154 150.718L86.013 149.651L88.4531 147.44L89.1394 147.745L89.3681 148.812V151.709L90.8932 154.149L92.4945 156.36L92.647 157.351L91.5032 159.334L91.1982 160.401L91.732 161.85L92.7996 162.155L94.2484 162.002L95.8497 161.468L102.026 161.316L105.076 160.172L107.211 160.096L108.127 160.706L108.508 161.621L108.127 162.841L107.974 165.433L107.211 167.873L107.364 169.245L109.88 173.667L110.643 175.955L111.177 179.233L111.787 180.605L113.312 183.198L113.693 184.722L117.582 190.364L124.445 196.388Z" fill="#009649" stroke="white" stroke-width="2" stroke-linejoin="round"></path>
</svg>