<svg width="713" height="580" viewBox="0 0 713 580" fill="none" xmlns="http://www.w3.org/2000/svg">
<path class="region" data-country-region="North Region" d="M468.579 266.943L469.861 269.794L470.217 273.002L469.79 276.852L470.43 281.343L470.929 283.125L471.926 284.765L473.635 290.467V292.178L473.208 294.103L473.991 297.81L474.063 300.091L471.997 303.94L462.597 308.645L448.923 311.996L446.074 315.417L444.721 317.556L441.587 321.334L439.949 322.831L435.748 325.112L431.831 327.964L428.412 331.457L424.567 334.38L420.293 335.591L415.807 335.948L412.602 335.734L410.394 332.597L407.189 330.53L400.281 327.607L396.578 327.465L392.804 328.605L387.391 329.603L381.836 329.532L378.204 328.534L373.29 325.896L371.937 323.473L372.293 320.55L371.866 318.055L370.441 316.059L369.302 313.136L370.299 310.641L371.794 308.788L373.219 306.649L375.427 305.936L376.78 304.582L379.272 301.232L380.127 299.093L380.483 297.382L379.415 296.028L377.777 294.958L375.925 295.457L374.999 295.885L374.002 296.028L369.943 296.099L366.026 295.315L363.248 292.392L362.323 288.329L359.403 286.19L355.984 284.479L357.195 281.058L357.48 277.351L355.201 274.143L352.423 271.22L350.002 267.656V259.102L351.711 257.818L351.854 256.749V255.751L354.275 252.329L353.776 250.333L354.133 247.981V243.347L356.483 235.435L354.916 230.872L355.984 226.381L358.975 223.031L361.112 222.033L362.536 220.108L362.821 218.112L363.391 216.401L366.809 215.76L370.299 216.686L372.364 219.324L373.575 222.603L373.86 225.597L373.789 235.221L375.996 236.718L382.833 235.506L386.608 236.86L387.89 240.995L388.174 245.914L387.676 247.696L386.679 249.335L385.895 251.046L385.611 252.9L387.035 254.397L389.172 255.038L391.807 258.175L393.872 261.739L397.504 262.951L405.908 264.519L415.237 264.02L417.587 263.521L419.653 262.666L421.433 258.959L422.929 257.676L426.845 256.179L427.415 254.183L426.632 252.044L424.282 248.765L425.065 247.411L425.92 246.84L427.771 246.413L456.828 259.957L466.727 266.159L468.579 266.943Z" fill="#009649" stroke="white" stroke-width="2" stroke-linejoin="round"></path>
<path class="region" data-country-region="North Region" d="M657.519 179.76L654.029 179.974L645.412 181.827L643.489 181.614L641.566 180.901L640.925 180.33L640.07 180.188L638.076 180.473L637.578 183.895V188.029L636.794 192.235L633.518 200.362L631.453 208.417L628.462 210.057L624.403 209.201L620.913 206.92L617.637 203.997L613.649 202.215L608.521 201.502L603.678 202.643L600.474 206.421L596.984 209.558L594.776 209.7L593.281 210.841L592.212 212.979L590.574 214.833L586.301 216.758L581.53 217.257L577.257 218.183L573.838 221.106L567.714 229.09L560.165 234.436L550.621 233.937L546.42 231.229L542.431 224.742L540.224 223.316L537.66 222.318L535.452 220.75L533.601 218.468L532.319 215.831L532.461 213.193L536.876 205.993L536.093 200.789L538.443 200.148L540.224 198.651L541.648 196.869L542.289 194.73L541.862 189.669L542.716 184.821L546.064 181.115L560.022 176.196L563.725 173.416L565.506 169.281L565.221 164.149L565.506 159.016L566.788 157.091L568.426 155.38L570.847 150.961L576.829 143.476L576.545 141.266L575.476 139.127L573.767 137.131L571.346 136.347L569.352 136.632L567.785 136.133L568.141 133.709L571.702 126.652L571.987 123.943L570.562 117.884L573.34 97.4962L572.129 88.3716L578.61 82.1697L581.245 78.5341L582.74 74.8273L582.242 71.0491L579.037 68.6967L576.402 65.774L575.334 61.8532L576.758 50.0911L578.396 50.1623L579.749 50.3762L580.889 50.8039L581.815 51.0178L582.669 50.5901L582.954 49.8772L583.453 46.598L583.738 46.3842L585.518 46.0278L586.301 44.8159L586.657 43.4615L585.732 43.105L586.159 42.2496L586.871 41.109L587.085 40.111L589.221 38.0437H590.147L591.002 37.3309L591.144 35.9765L592.853 37.4022L593.779 37.616L594.278 37.2596L594.705 35.9052L595.417 35.5487L596.77 35.2636L597.696 34.4794L599.263 32.626L599.904 31.3429L600.687 32.2696L601.542 32.1983L600.901 30.7726L601.043 30.5587L602.254 30.0597L603.037 29.9171L602.966 29.2756L604.604 27.4221L605.388 26.7806L604.675 25.9251L603.75 25.5687V25.0697L605.388 25.7113L605.957 25.64L606.171 24.642L607.88 24.9984L609.518 24.7133L614.788 22.0044L616.355 21.4341L617.993 21.3628L617.637 22.2896L618.278 22.5747L619.417 22.5034L620.414 22.147L620.842 22.5747L621.269 21.5767L621.625 21.3628L622.195 21.4341L622.337 21.9331L621.981 23.0024L623.548 22.2896L625.186 22.0044L626.61 21.5054L627.679 20.0797L626.824 19.9371L626.682 19.652L627.251 18.7965L628.32 18.654L628.462 18.155L628.106 17.3708L628.462 16.5154L628.818 16.0164L631.239 13.7352L632.094 13.0937V12.0957L632.593 11.5967L634.373 11.3115L649.044 11.9531L662.575 31.0577L676.178 50.1623L682.801 82.5262L682.872 87.231L683.299 88.5142V89.726L682.943 91.5795V92.2923L683.513 93.219L684.296 93.6468L685.222 93.8606L697.4 94.217L701.175 95.215L702.813 96.0705L702.955 96.6408L702.671 97.5675L702.813 98.1378L703.24 98.5655L704.949 99.8486L705.59 100.134V100.633L704.807 100.989L705.947 101.845L707.157 102.486L708.083 103.27L708.51 104.554L708.795 104.839L710.932 103.912L711.644 104.268L712 105.552L710.861 106.692L710.077 108.118L709.009 112.466L709.151 113.108L708.083 113.821L708.225 115.033L709.365 117.599L709.436 118.739L709.223 120.735L708.582 122.66L707.3 128.862L706.872 129.86L704.665 132.783L704.38 133.282L704.522 133.781L705.021 134.565L706.303 134.636L706.73 134.921L707.513 136.133L708.439 137.131L709.151 138.129L709.436 139.341L709.507 140.909L709.294 142.121L708.795 143.618L708.225 145.115L707.513 146.184L706.445 146.755L703.383 147.895L702.172 148.608L699.964 150.604L698.754 151.317L695.264 152.458L694.124 153.099L688.854 158.018L688.356 158.161L686.789 158.374L686.077 158.66L684.439 160.37L683.371 161.155L682.089 161.867L680.807 162.153L679.596 162.01L675.394 160.228L673.115 159.515H671.264L668.985 161.368L666.777 163.65L664.783 166.145L663.359 168.711L662.362 171.135L661.649 172.061L659.37 173.344L658.445 174.2L657.804 175.269L657.519 176.481L657.946 178.762L657.519 179.76Z" fill="#009649" stroke="white" stroke-width="2" stroke-linejoin="round"></path>
<path class="region" data-country-region="North Region" d="M243.105 44.2459L240.114 46.5983L235.484 49.3072H229.716L223.947 47.8815L222.95 46.9548L222.024 45.8142L219.888 45.1726L218.606 44.9588H215.828L214.974 45.7429L214.689 47.2399L214.618 48.8795L213.906 51.3745L212.481 51.8022L210.131 50.8755L205.858 51.4458L202.083 53.5131L201.442 55.2239L202.44 65.6317L200.73 68.9821L198.594 69.9088L196.386 70.5504L182.997 71.8336L180.006 74.186L177.798 77.8216L174.736 81.7423L171.887 83.667L171.531 87.659L172.742 92.15L172.956 96.8549L170.036 100.063L151.946 100.776L143.187 99.3499L141.05 106.621L140.552 135.064L139.412 135.777L138.13 135.92L137.489 134.993L136.563 134.423L135.21 134.85L134.284 134.351L133.003 134.066L131.792 134.351L120.54 139.484L118.474 142.05L115.839 143.69L113.204 142.763L111.281 140.624L111.78 134.85L114.415 129.147L116.409 119.666L115.982 96.3559L118.118 92.5778L122.391 91.5085L126.451 92.7916L129.086 91.4372L129.299 86.8749L127.519 77.1087L127.804 74.7563L128.373 72.5464L128.872 68.1267L127.519 64.3485L125.525 60.9268L125.881 58.4318L126.522 56.1507L126.878 55.2952L127.163 54.3685V53.2279L127.305 52.0874L128.231 50.3052L128.445 48.3805L127.376 47.0973L125.81 47.5963L124.741 49.0933L123.816 50.6616L121.964 51.8022L119.756 51.5884L117.62 50.5903L115.626 49.1646L113.56 48.4518L111.424 47.8815L107.436 46.3845L103.732 44.1746L101.952 42.4638L100.1 40.9667L97.9636 41.4657L95.8983 42.4638L92.0526 41.8222L87.5659 41.9648L87.0674 42.036L87.281 40.6816L87.3523 26.068L91.198 25.9254L92.9784 25.569L94.6876 24.7848L103.946 15.8028L106.723 13.8068L109.928 12.5237L128.801 7.89008L130.724 7.67623L132.077 8.3178L133.359 9.60095L134.712 10.1712L138.201 10.3851L144.184 9.3158L152.659 9.67223L154.724 9.3158L155.365 9.03066L157.216 7.67623L158 6.67822L158.997 4.46836L159.709 3.54164L161.347 2.68621L170.107 1.18921L172.03 1.61692L205.573 15.0187L206.855 15.8028L207.496 15.6602L210.914 13.7355L212.054 13.4504L216.327 14.4484L220.244 16.7295L228.576 24.6423L238.262 35.3352L243.105 44.2459Z" fill="#009649" stroke="white" stroke-width="2" stroke-linejoin="round"></path>
<path class="region" data-country-region="North Region" d="M374.786 64.42L374.429 65.917L373.432 66.416L372.72 67.0576L372.151 67.913L371.723 69.0536L371.082 70.1229L368.447 72.1902L365.598 73.7585L362.394 74.4714L360.044 74.2575L359.189 73.4733L358.477 72.5466L356.554 73.6159L355.201 73.6872L353.776 73.1169L352.352 72.2615L350.785 69.4813L349.717 66.3448L348.578 65.2755L339.462 65.7032L335.616 65.2042L331.343 65.2755L325.005 66.2735L324.221 67.8418L323.723 71.9051L323.794 75.8258L326.927 77.7505L331.628 77.8931L332.91 79.2475L333.622 81.1009H330.702L327.996 81.9564L326.571 84.5227L324.577 90.3681L322.441 92.4354L312.043 96.3561L307.485 99.564L306.773 102.273L307.343 108.19L306.987 120.878L308.269 124.799L308.553 126.724L308.482 127.864L308.126 129.005L308.34 129.932L308.909 130.716L310.405 134.494L310.619 136.847L307.912 137.488L304.636 139.199L301.859 139.912L300.007 142.122L299.082 145.044L298.654 147.967L299.58 151.032L303.639 154.525L301.574 157.662L296.803 159.658L295.093 158.874L293.954 157.306L291.889 155.809L289.61 154.811L285.265 153.955L281.562 156.165L280.565 158.09L280.28 160.228L278.642 161.155L276.506 160.371L272.019 160.3L271.022 163.579L272.019 165.076L272.09 166.858L270.666 168.426L268.672 169.495L266.749 169.21L263.615 166.002L261.55 164.719L257.206 163.579L257.134 161.868L258.772 160.086L259.698 159.373L259.912 158.232L259.2 156.807L257.918 155.88L254.784 155.809L253.36 155.452L250.654 154.098L251.58 151.389L252.149 148.609L251.936 146.47L252.292 144.403L250.298 140.696L252.505 129.86L255.924 128.221H260.339L261.55 129.076L262.547 128.577L265.04 126.653L266.464 125.227L266.749 123.231L267.817 122.233L269.669 122.732L271.449 122.019L270.808 118.455L267.532 115.746L265.538 114.819L264.327 113.322L265.324 111.469L266.606 107.904L266.962 106.336L266.606 104.483L266.108 102.772L265.752 99.6353L264.897 96.57L263.259 93.3621L263.544 89.7265L262.262 86.6612L260.41 61.5686L261.407 55.2242L262.974 54.5113L265.823 52.0163L269.384 47.7391L270.737 47.5253L276.862 48.6658H278.998L280.85 48.0243L302.429 34.979L304.423 34.0522L306.488 33.8384L321.515 35.977L323.082 36.6185L323.794 37.1888L325.218 38.472L326.785 39.5413L328.85 41.1095L329.705 41.5373L331.414 41.965L332.269 42.3927L333.052 43.1055L334.548 44.8877L340.459 50.3054L341.741 50.8044L343.307 50.0916L345.444 49.949L347.082 50.3054L348.506 50.947L351.07 52.943L352.21 54.2262L353.919 57.0776L354.987 58.2894L357.124 59.5726L372.72 64.2062L374.786 64.42Z" fill="#009649" stroke="white" stroke-width="2" stroke-linejoin="round"></path>
<path class="region" data-country-region="North Region" d="M536.093 200.79L536.876 205.993L532.461 213.193L532.318 215.831L533.6 218.468L535.452 220.75L537.66 222.318L540.223 223.316L542.431 224.742L546.419 231.229L550.621 233.937L549.98 239.141L550.336 247.125L549.41 249.62L547.203 251.403L536.235 258.032L531.179 260.313L525.766 261.169L504.971 262.024L498.633 261.525L499.06 260.099L497.707 258.389L496.069 254.967L495.072 251.189L494.644 247.339L492.935 243.347L480.686 234.223L478.193 230.73L478.549 228.734L485.315 225.312L485.457 223.53L485.244 221.748L485.386 213.336L484.104 209.7L480.33 207.348L476.128 205.352L475.487 200.576L473.635 196.441L467.297 193.661L467.439 192.021L470.573 187.602L471.427 185.392L473.493 178.263L475.273 173.772L477.054 172.204L481.54 170.849L483.463 169.352L486.312 165.432L491.867 162.224L493.291 160.656L494.217 159.301L495.428 158.446L503.689 156.236L511.808 160.228L515.582 163.222L518.858 166.715L521.707 170.636L527.903 176.909L529.185 178.548L529.541 180.616L528.829 194.445L529.185 198.794L529.754 200.576L533.885 201.003L536.093 200.79Z" fill="#009649" stroke="white" stroke-width="2" stroke-linejoin="round"></path>
<path class="region" data-country-region="North Region" d="M495.428 158.446L494.218 159.301L493.292 160.656L491.867 162.224L486.312 165.432L483.464 169.353L481.541 170.85L477.054 172.204L475.274 173.772L473.493 178.263L471.428 185.392L470.573 187.602L467.44 192.022L467.297 193.661L473.636 196.441L475.487 200.576L476.128 205.352L480.33 207.348L484.105 209.701L485.387 213.336L485.244 221.748L485.458 223.53L485.315 225.312L478.55 228.734L478.194 230.73L480.686 234.223L492.936 243.348L494.645 247.34L495.072 251.189L496.069 254.967L497.707 258.389L499.06 260.1L498.633 261.525H494.574L490.443 260.527L486.526 261.169L479.262 264.662L471.713 264.876L468.579 266.943L466.728 266.159L456.828 259.957L427.772 246.413L425.92 246.841L425.065 247.411L424.282 248.765L426.632 252.044L427.416 254.183L426.846 256.179L422.929 257.676L421.433 258.959L419.653 262.666L417.588 263.521L415.237 264.02L405.908 264.519L397.504 262.951L393.872 261.739L391.807 258.175L389.172 255.038L387.035 254.397L385.611 252.9L385.896 251.046L386.679 249.336L387.676 247.696L388.175 245.914L387.89 240.995L386.608 236.861L382.834 235.506L375.997 236.718L373.789 235.221L373.86 225.597L373.575 222.603L372.365 219.324L370.299 216.687L366.81 215.76L363.391 216.401L362.109 214.904L360.756 213.621L358.976 212.623L358.121 211.055L360.186 207.419L360.827 203.499L363.534 200.505L365.172 196.513L364.744 192.378L362.038 189.17L360.4 184.537L360.186 179.475L360.542 174.913L362.394 171.135L365.884 170.921L368.02 169.923L369.658 168.212L371.937 164.719L377.991 158.375L381.979 156.521L383.902 157.591L384.97 157.377L389.457 155.523L393.089 155.595L396.578 156.593L400.282 158.161L404.056 158.375L407.76 157.804L410.11 160.798L413.101 161.868L420.721 161.297L424.14 160.442L426.703 162.866L428.057 166.501V170.422L427.558 174.271L428.911 177.622L432.33 179.048L441.659 178.335L443.724 179.404L446.003 180.259L447.641 179.261L446.929 177.052L448.211 172.988L454.763 170.422L456.757 169.139L458.181 167.499L458.466 165.503L454.193 164.078L449.137 163.864L439.736 162.082L435.392 160.371L429.695 152.743L427.273 148.395L426.205 148.751H424.282L423.143 147.112L423.356 145.116L425.35 141.409L425.279 139.341L424.353 134.993L423.427 132.997L421.433 132.498L419.297 132.783L415.665 133.781L413.172 132.07L414.383 127.579L417.588 124.728L422.573 124.3L424.567 123.373L426.49 122.09L444.579 115.175L445.505 113.108L445.006 110.613L445.362 108.617L449.635 96.5698L450.205 93.8609L451.06 91.2234L452.413 89.9402L454.265 89.2274L458.68 88.4432L460.532 89.6551L463.665 90.4392L471.499 85.1641L475.487 87.9442L478.906 91.2947L479.689 93.5758L480.615 98.352L480.686 100.776L480.971 102.914L482.182 104.839L483.392 107.191L483.749 109.829L483.82 114.035L485.6 123.73L492.722 141.409L493.078 146.541L491.013 155.951L492.58 157.947L495.428 158.446Z" fill="#009649" stroke="white" stroke-width="2" stroke-linejoin="round"></path>
<path class="region" data-country-region="East Region" d="M279.212 475.098L275.224 477.237L272.446 480.73L270.025 481.3L267.604 482.084L262.191 480.944L259.485 481.229L256.85 481.87L254.571 483.225L253.787 485.791L251.509 490.567L249.158 491.209L246.595 490.139L241.965 491.423L238.048 494.63L236.054 494.488L234.274 492.848L234.488 490.353L234.915 488.714L235.485 487.217L236.624 485.149L238.974 482.013L239.33 480.944L239.259 479.375L240.043 476.31L239.829 473.173L240.114 471.819L241.253 470.892L242.678 470.322L243.034 469.823L243.319 469.039L243.461 466.401L243.39 465.546L243.105 464.762L242.321 463.265L242.037 462.409L241.823 460.128L240.755 457.205L240.399 453.926L238.761 448.081L238.476 446.299V444.445L239.045 444.303L240.327 444.374L241.894 444.73L243.39 444.445L245.384 442.52L246.666 436.675L248.09 433.824L252.078 430.045L252.577 431.685L252.506 433.61L253.289 433.966L256.494 433.824L259.912 435.321L261.764 435.677L263.615 436.461L263.331 440.524L260.055 444.089L258.417 448.58L258.986 450.077L259.841 450.504L261.835 450.861L262.69 451.36L263.9 452.999L266.322 458.489L265.538 459.201V460.342L265.182 462.124L265.681 462.837L266.607 462.623L267.461 461.982L268.387 462.623L268.672 464.049L270.096 465.118L269.74 467.185L270.452 468.896L271.449 470.536L272.09 472.389L273.372 473.886L275.01 474.171L276.577 473.672L277.218 473.744L278.286 474.385L278.571 475.027L279.212 475.098Z" fill="#009649" stroke="white" stroke-width="2" stroke-linejoin="round"></path>
<path class="region" data-country-region="West Region" d="M112.848 354.767L113.275 356.763L113.133 358.831L112.35 359.971L111.068 360.185L109.999 360.613L108.86 361.254L107.863 362.11L107.293 362.324L106.581 363.25L104.872 364.462L103.59 365.746L101.24 365.247L99.0319 361.682L97.3939 360.256L95.5423 359.544L94.2604 360.827L93.1921 362.395L92.0526 363.464L92.1239 364.747L89.0615 366.957L85.0733 365.888L84.0763 368.597L83.8626 372.518L83.5778 374.3L83.008 376.011L82.011 377.508L81.9398 379.219L83.1505 380.573L84.7885 381.642L86.1416 383.282L87.0674 385.207L88.2069 386.561L88.563 388.272L84.5036 409.943L82.7232 410.228L80.9427 410.37L79.0199 411.012L77.3819 412.081L73.7498 413.079L66.4144 413.935L62.8535 413.792L64.4915 411.083L66.6993 408.018L65.9871 404.454L65.5598 403.598L65.4173 402.672V401.531L65.0613 400.462L63.352 399.535L61.5716 398.252L61.4292 397.254L61.5004 393.903L59.4351 390.981L53.524 390.838L51.7436 391.622L50.0344 392.549L48.3252 391.622L47.2569 388.7L45.1204 387.06L42.6278 388.7L40.2776 394.616L37.8562 396.684L34.5802 396.826L31.3042 395.686L27.1736 391.907L24.4674 387.06L22.5445 384.494L20.0519 382.426L18.9124 379.361L18.8412 378.078L21.0489 372.019L20.6928 366.743L18.4139 366.815L17.5593 369.452L16.9895 372.518L15.3515 372.233L14.2833 368.953L13.9984 362.324L12.5028 359.472L6.73423 359.33L1.67779 362.965L1.25049 363.179L1.32171 362.466L2.17631 360.755L2.38997 356.977L3.10214 353.199L3.24457 349.635L3.45823 348.494L3.88553 347.496L4.52649 346.498L4.95379 345.358L5.02501 344.075L4.5977 342.791L3.45823 340.296L2.95971 339.013L2.74605 337.516L2.81727 336.376L3.31579 333.952L3.17336 331.742L3.45823 330.958L4.66892 329.604L5.09623 328.891L5.59475 326.895L5.45231 325.113L8.94196 322.119L11.2209 322.19L15.9213 321.121L17.3456 320.194L18.4139 318.839L21.6899 316.202L23.043 315.632L23.4703 315.061L24.3961 314.277L25.6068 313.564L28.0282 311.426L29.3101 310.641L30.6633 310.214L31.5891 310.142L32.5861 310.356L33.0134 310.998L33.7256 311.354L34.3666 312.067L35.15 311.925L42.1293 308.717L44.7643 306.721L47.1857 305.509L49.7495 303.584L61.9277 297.454L63.2808 296.456L64.4203 295.172L64.99 291.252L66.4856 288.329L69.1206 286.404L71.9693 286.119L74.6756 287.331L76.3848 289.541L77.7379 292.178L80.0169 294.174L82.6519 295.529L89.6312 298.024L93.9755 299.022H95.6135L98.5334 297.24L99.5305 299.521L97.5364 302.444L95.5423 303.584L94.1179 305.081L93.1209 306.649L91.839 307.933L91.0556 311.568L91.839 315.204L97.1091 326.895L99.1744 330.103L101.24 338.158L103.376 341.294L104.729 342.506L106.296 343.504L108.433 346.997L110.142 352.7L110.854 353.912L111.851 354.126L112.848 354.767Z" fill="#009649" stroke="white" stroke-width="2" stroke-linejoin="round"></path>
<path class="region" data-country-region="West Region" d="M142.973 354.91L141.62 359.829L139.768 361.468L137.56 362.538L134.783 366.173L134.284 373.373L133.644 376.011L134 379.076L138.7 391.836L138.629 394.189L135.709 395.044L133.145 396.327L132.077 399.179L131.578 402.03L131.649 406.521L131.436 408.089L131.578 409.444L131.436 410.798L130.795 411.226L129.228 411.083L128.516 410.727L125.525 408.802L123.317 407.875L120.967 408.517L118.474 410.584L116.836 413.293L116.409 414.861L115.483 416.145L113.204 417.356L112.278 416.216L109.857 416.43L108.789 416.715L107.792 417.143L106.51 417.071L105.299 416.715L103.162 417.855L101.524 417.784L101.168 416.929L101.026 415.931L100.456 414.434L99.744 412.937L97.8212 411.297L95.0437 411.368L92.836 412.794L90.4146 413.079L89.916 410.442L88.7053 407.875L84.5035 409.943L88.5629 388.272L88.2068 386.561L87.0673 385.207L86.1415 383.282L84.7884 381.642L83.1504 380.573L81.9397 379.219L82.0109 377.508L83.008 376.011L83.5777 374.3L83.8626 372.518L84.0762 368.597L85.0733 365.888L89.0614 366.957L92.1238 364.747L92.0526 363.464L93.192 362.395L94.2603 360.827L95.5422 359.544L97.3939 360.256L99.0319 361.682L101.24 365.246L103.59 365.745L104.872 364.462L106.581 363.25L107.293 362.324L107.863 362.11L108.86 361.254L109.999 360.613L111.068 360.185L112.35 359.971L113.133 358.831L113.275 356.763L112.848 354.767L116.694 354.554L120.54 354.91L123.887 354.197L125.382 353.556L127.02 353.199L130.866 352.843L133.216 351.916L135.709 351.987L136.92 354.055L138.7 355.195L142.118 354.767L142.973 354.91Z" fill="#009649" stroke="white" stroke-width="2" stroke-linejoin="round"></path>
<path class="region" data-country-region="West Region" d="M187.27 371.377L186.202 373.087L184.706 373.658L183.068 372.945L181.573 373.8L181.003 374.87L180.219 375.868L178.724 376.794L176.089 379.574L175.305 381.285L174.308 386.988L171.032 394.616L164.765 399.891L161.489 398.608L160.207 394.402L158.783 391.55L155.721 390.624L151.519 390.838L145.038 390.41L142.83 390.481L138.7 391.836L133.999 379.075L133.643 376.01L134.284 373.373L134.783 366.173L137.56 362.537L139.768 361.468L141.62 359.828L142.973 354.91L143.685 355.337L143.97 356.407L145.181 356.906L148.884 355.765L152.801 358.26L155.151 358.403L156.647 358.759L159.139 358.331H160.136L160.848 356.906L161.204 354.981L162.486 353.484L164.552 352.842L170.961 352.628L169.751 354.268L169.822 356.834L170.961 357.262L172.599 356.264L174.736 355.765L176.872 355.551L178.012 355.694L178.866 356.335L178.795 357.69L177.442 358.474L175.733 360.612L175.305 363.179L176.16 365.745L178.154 367.527L178.938 367.456L179.935 368.311L184.564 370.592L187.27 371.377Z" fill="#009649" stroke="white" stroke-width="2" stroke-linejoin="round"></path>
<path class="region" data-country-region="West Region" d="M200.089 382.355L199.021 384.137L197.668 385.777L196.956 386.133L195.318 386.49L194.534 387.202L193.965 389.27L195.745 390.41L196.03 391.48L195.389 392.763L195.603 394.616L195.959 395.472L196.172 396.826L195.603 398.751L194.819 399.606L193.822 400.248L192.398 401.531L191.116 403.028L191.045 403.812L191.187 404.382L188.481 410.655L188.125 412.081L187.341 413.151L185.775 414.79L184.991 416.929L184.849 419.067L185.704 420.849L185.917 421.562L185.134 422.632L185.205 423.558L183.852 423.915L183.282 425.412L182.57 429.19L182.285 430.045L181.43 431.471L180.79 431.899L179.792 432.255L177.941 431.827L177.157 431.115L175.448 430.972L172.528 433.324L171.246 433.538L169.68 429.618L170.249 427.907L171.246 426.41L168.54 424.271H151.946L150.949 424.699L150.237 425.483V427.051L149.311 428.334L148.528 429.903L146.392 431.97L144.611 434.251L143.899 435.534L143.685 437.459L143.472 438.314V440.168L143.756 440.667L144.255 440.881L145.252 442.52L146.32 445.657L144.967 448.793L143.97 450.29L143.543 452.073L142.688 453.57L141.193 454.354L139.911 454.781L139.056 456.065L138.771 457.775L137.917 459.415L138.273 459.985L139.483 460.698L140.908 461.91L142.118 463.407L142.261 464.191L143.543 464.405L144.896 465.189L146.035 466.9L145.964 468.825L139.341 485.007L132.433 475.953L131.222 474.813L128.872 473.815L127.804 472.603L126.308 470.251L124.243 468.041L122.391 466.615L115.982 462.552L112.35 459.13L110.071 457.633L109.145 457.205L109.216 457.134L112.777 457.419L113.703 456.35L113.632 454.71L110.356 453.284H108.575L107.507 452.073L108.504 451.716L110.427 451.431L113.418 449.221L114.344 448.936L115.056 448.223L115.198 447.368L114.629 444.588V440.382L113.56 438.813L112.065 439.526L111.139 440.881L108.575 442.52L105.513 442.378L104.516 442.235L102.593 441.594L101.809 441.023L100.955 439.526V437.673L102.45 433.752L105.37 430.616L110.712 426.695L111.851 425.198L113.204 417.356L115.483 416.144L116.409 414.861L116.836 413.293L118.474 410.584L120.967 408.517L123.317 407.875L125.525 408.802L128.516 410.727L129.228 411.083L130.795 411.226L131.436 410.798L131.578 409.444L131.436 408.089L131.65 406.521L131.578 402.03L132.077 399.178L133.145 396.327L135.709 395.044L138.629 394.188L138.7 391.836L142.831 390.482L145.038 390.41L151.519 390.838L155.721 390.624L158.783 391.551L160.208 394.402L161.49 398.608L164.766 399.891L171.033 394.616L174.309 386.989L175.306 381.286L176.089 379.575L178.724 376.795L180.22 375.868L181.003 374.87L181.573 373.801L183.068 372.945L184.706 373.658L186.202 373.088L187.27 371.377L192.042 370.521L193.822 371.306L193.395 373.658L196.386 378.292L200.089 382.355Z" fill="#009649" stroke="white" stroke-width="2" stroke-linejoin="round"></path>
<path class="region" data-country-region="West Region" d="M84.5036 409.943L88.7054 407.876L89.9161 410.442L90.4146 413.08L92.836 412.795L95.0438 411.369L97.8212 411.298L99.7441 412.937L100.456 414.434L101.026 415.931L101.168 416.929L101.525 417.785L103.163 417.856L105.299 416.715L106.51 417.072L107.792 417.143L108.789 416.715L109.857 416.43L112.278 416.216L113.204 417.357L111.851 425.198L110.712 426.695L105.37 430.616L102.45 433.753L100.955 437.673V439.527L101.809 441.024L102.593 441.594L104.516 442.236L105.513 442.378L108.575 442.521L111.139 440.881L112.065 439.527L113.56 438.814L114.629 440.382V444.588L115.198 447.368L115.056 448.224L114.344 448.936L113.418 449.222L110.427 451.431L108.504 451.717L107.507 452.073L108.575 453.285H110.355L113.631 454.711L113.703 456.35L112.777 457.42L109.216 457.134L109.145 457.206L103.946 454.925L100.171 454.212L100.456 452.43L100.385 450.861L98.7471 450.291L95.3286 450.148L93.9755 450.505L92.9785 449.863L92.1239 449.079L90.4859 448.651L89.1327 447.796L88.9903 446.299L92.4087 444.445L92.9785 443.162L92.3375 441.95L90.6283 441.309L88.7054 441.737L86.925 442.948L85.1445 443.875L83.4353 442.521L83.3641 441.737L82.7944 440.311L83.2929 438.814L84.7172 437.673L85.3582 436.105L81.8685 435.178L47.2569 435.321L46.6872 435.891L46.5447 436.747L45.8326 437.745L44.6931 437.958L42.5566 437.887L41.2034 436.105L38.4972 434.679L37.0728 434.252L35.2212 435.036L34.8651 435.891L34.0105 438.956L33.0847 439.954L32.23 441.166L31.5891 444.089L30.7345 445.087L27.2448 445.515L14.2833 444.944L13.6423 445.301L13.7135 446.156L12.574 447.439L11.0073 448.509L9.5117 448.58L7.94492 448.081L5.95083 448.295L3.60066 448.081L3.81431 446.869L5.16744 443.02L5.23866 441.808L4.74014 439.242V438.03L5.45231 436.747L6.52057 435.82L7.23275 435.321L7.58883 434.608L7.37518 431.899L7.30396 431.258L6.94788 430.972L5.59475 430.759L4.5977 429.761L4.31284 428.62L4.45527 427.337L5.09623 424.842L4.81136 422.276L4.02797 419.994L3.81431 417.856L5.3811 415.717L7.4464 414.791L7.66005 414.149L7.30396 413.579L5.73718 412.296L5.23866 411.654L5.09623 410.513L5.87962 408.945L6.37814 408.303L6.59179 406.949L5.3811 392.193L5.52353 391.551L5.95083 391.266H6.59179L7.8737 391.551L8.22979 390.553L8.37223 388.058L7.09031 385.848L5.30988 383.781L4.1704 381.571L3.81431 379.219L4.52649 369.168L4.38405 368.312L3.81431 367.457L2.46118 365.817L1.74901 364.106L1.25049 363.18L1.67779 362.966L6.73423 359.33L12.5028 359.473L13.9984 362.324L14.2833 368.954L15.3515 372.233L16.9895 372.518L17.5593 369.453L18.4139 366.815L20.6928 366.744L21.0489 372.019L18.8412 378.078L18.9124 379.361L20.0519 382.427L22.5445 384.494L24.4673 387.06L27.1736 391.908L31.3042 395.686L34.5802 396.826L37.8562 396.684L40.2776 394.617L42.6278 388.7L45.1204 387.06L47.2569 388.7L48.3252 391.623L50.0344 392.549L51.7436 391.623L53.524 390.838L59.4351 390.981L61.5004 393.904L61.4292 397.254L61.5716 398.252L63.352 399.535L65.0612 400.462L65.4173 401.531V402.672L65.5598 403.599L65.9871 404.454L66.6993 408.018L64.4915 411.084L62.8535 413.793L66.4144 413.935L73.7498 413.08L77.3819 412.082L79.0198 411.012L80.9427 410.371L82.7232 410.228L84.5036 409.943Z" fill="#009649" stroke="white" stroke-width="2" stroke-linejoin="round"></path>
<path class="region" data-country-region="North Region" d="M200.018 169.495L202.511 172.846L207.068 180.545L207.994 184.537L206.784 185.107L205.644 186.462L205.146 187.959L204.789 193.02L204.861 194.517L205.858 197.582L205.929 199.008L205.644 200.362L204.789 202.43L204.647 203.142L204.505 205.566L204.149 206.279L203.935 207.491L204.291 209.558L206.214 210.984L207.709 212.766L208.706 214.833L210.772 214.548L212.267 212.837L213.549 210.841L216.612 207.491L223.662 202.002L227.864 201.075L229.431 202.144L230.214 203.998L232.066 204.354L236.41 202.358L238.618 201.931L240.897 202.287L242.25 201.36L241.965 198.937L243.888 198.152L246.024 198.295L247.876 199.008L248.375 200.22L248.731 205.067L249.728 205.352L251.793 204.711L255.069 207.491L255.14 212.338L254.357 214.477L255.639 215.831L259.841 217.4L261.621 218.611L261.479 220.679L260.054 222.532L258.131 223.815L256.208 225.384L254.642 227.308L252.648 228.591L251.223 230.231L253.929 233.724L258.131 235.577L262.547 236.077L271.307 235.934L274.155 237.93L275.295 247.554L275.223 249.763L273.657 251.047L271.805 251.189L270.523 252.187L271.734 253.827L273.87 254.468L275.152 255.538L274.654 257.177L275.508 258.674L277.289 259.601L277.645 261.526L276.292 263.023L275.437 263.807L274.867 264.805L274.654 266.017L274.298 267.157L271.093 269.51L270.594 271.719L271.805 273.573L272.588 274.072L273.585 275.355L273.443 276.21L272.802 278.064L273.158 278.991L274.654 278.563L276.078 278.919L267.746 290.824L267.39 290.895L264.541 289.327L259.057 283.909L255.496 282.84L244.529 283.268L243.104 283.909L242.82 285.62L243.389 328.463L243.745 329.532L245.17 332.099L247.876 332.384L247.093 334.736L245.312 336.447L244.101 336.875L243.176 337.801L243.318 339.156L243.033 340.154L242.179 339.655L241.466 340.225L240.754 341.722L240.398 343.291L239.401 344.36L239.187 344.003L238.333 343.219L238.262 342.863L237.549 342.506L235.342 340.083L232.992 336.376L232.279 335.592L226.44 331.101L226.012 330.887L224.659 328.107L223.876 325.255L223.733 323.473L223.377 322.404L222.879 321.905L221.953 319.98L221.81 318.412L220.386 315.917L219.603 315.133L218.677 314.634L217.466 314.42L215.258 312.923L214.831 312.566L213.834 312.495L211.199 312.994L207.923 313.636L207.496 313.493L205.644 311.782L204.789 311.426L203.864 311.283L197.383 311.354L195.959 311.64L194.036 312.495L193.323 312.638H192.469L189.834 312.21L186.7 312.281L185.988 312.067L185.632 311.64L184.991 310.57L184.136 309.358L183.353 308.147L181.074 307.434L177.656 307.362L176.73 307.077L175.946 306.436L175.234 305.081L174.237 303.869L172.955 302.8L172.172 301.731L171.032 301.018L169.394 300.59L167.614 300.448L166.047 299.949L165.335 299.378L164.267 298.309L162.914 297.382L162.059 297.24L158.071 297.454L152.445 296.527L151.59 296.242L150.878 295.743L150.451 294.959L150.379 293.034L150.095 292.392L149.098 291.323L148.1 289.969L147.175 289.327L144.112 287.83L142.118 286.476L141.05 285.977L140.979 285.62L139.554 284.979L138.771 284.765H137.916L134.071 285.977L131.436 287.545L129.085 288.258L127.234 288.4L125.596 287.83L124.528 286.689L124.385 284.836L124.741 283.054L124.67 281.486L123.958 280.274L122.249 279.632L119.329 279.133L118.332 278.777L117.477 278.064L116.978 277.28L116.765 276.282L116.409 271.791L116.338 271.434L111.139 270.65L106.794 271.22L104.872 267.87L104.943 263.379L105.512 258.532L104.587 254.468H102.521L101.596 253.898L100.67 253.185L80.8 229.518L79.0908 228.092L75.0314 227.522L65.5595 227.807L60.0758 228.877L60.2182 227.736L60.0758 226.809L59.506 226.096L55.5179 221.891L54.6633 220.536L54.592 219.396L55.8027 216.615L57.2983 214.334L57.5832 213.621V212.41L58.1529 211.483L59.2924 210.342L60.5031 209.915L61.7138 210.2L65.5595 212.196L66.4853 212.053L67.34 210.913L67.7673 209.772L67.8385 206.635L68.337 205.067L69.8326 202.073L70.3311 200.434L70.2599 197.083L69.975 195.372L69.4765 194.16L68.6931 193.733L67.1263 193.376L66.5566 192.663L65.9868 190.667L65.702 190.026L64.2776 188.6L63.9215 187.887L63.9927 186.818L65.2746 183.61L65.3459 181.828L64.1352 176.481L63.5654 175.412L63.1381 174.343L62.8533 173.131V171.777L63.4942 169.424L62.9957 168.996L62.4972 168.925L62.9245 168.497L68.337 169.139L73.6071 172.418L80.2303 175.483L83.3639 175.84L99.6014 175.412L105.726 174.557L111.708 176.125L118.901 180.901L122.747 182.042L122.818 183.539L120.824 194.303L120.895 196.584L120.753 197.653L120.326 198.438L118.83 200.006L118.688 201.075L111.851 204.996L109.572 208.845L109.216 213.336L109.429 215.617L110.355 217.685L111.922 218.897L113.133 220.251L112.777 224.671L111.922 229.09L113.346 230.374L117.335 230.587L118.118 229.019V226.595L118.759 224.457L120.824 223.744L127.732 222.318L129.726 221.605L131.436 220.394L132.931 216.402L131.08 212.338L128.302 208.631L127.946 206.635L128.231 204.568L127.946 200.006L128.943 196.014L130.795 195.301L134.925 195.871L138.913 193.947L143.115 192.735L144.682 191.523L143.4 187.531L140.979 184.466L143.827 180.83L143.685 178.406L143.115 175.982L142.403 174.2L140.765 173.701L139.982 173.274L139.483 172.204L138.7 171.705H137.703L133.145 170.992L128.872 169.21L125.168 166.359L126.094 162.509L134.213 158.874L151.733 155.31L156.077 155.381L159.566 157.519L160.35 162.082L162.486 165.931L164.409 167.143L165.335 169.139L164.979 173.773L165.05 176.125L165.834 178.264L167.4 178.834H173.311L177.228 178.121L187.484 173.773L189.549 173.202L191.614 172.988L193.11 171.777L193.751 170.85L195.246 169.139L196.101 168.426L198.166 168.355L200.018 169.495Z" fill="#009649" stroke="white" stroke-width="2" stroke-linejoin="round"></path>
<path class="region" data-country-region="West Region" d="M100.172 454.211L87.4237 451.859L72.2544 450.575L46.9723 451.859L45.6191 451.645L44.907 451.146L44.3372 450.433L43.4826 449.791L44.4797 449.435L45.1206 449.791L46.0464 449.007L46.4025 449.292L46.7586 451.074L48.8239 449.15L49.3937 449.72L50.6044 449.435L51.7438 449.364L52.7409 449.221L53.6667 448.722L54.5213 447.795L54.5925 447.154L54.5213 445.942L55.091 445.728H57.5124L58.7944 445.514L61.3582 444.659L62.2128 444.873L63.4947 444.374L64.7054 443.661L65.56 442.734L65.8449 441.451L66.557 441.166L71.5423 440.382L70.6877 439.883L69.9043 440.025L66.557 439.17L63.2098 440.453L60.005 442.306L57.1564 443.233L55.4471 443.376L53.3818 444.445L52.0287 444.873H51.2453L50.3195 444.516H49.6073L49.0376 444.017L48.7527 442.52L49.18 441.237V440.382L48.183 441.023L47.4708 441.593L46.1889 443.09L44.5509 443.376L44.3372 443.875L44.6933 445.158L44.4797 446.37L43.6963 447.653L43.269 448.793L42.628 449.506L43.7675 451.288L43.4826 452.643L39.993 452.999L33.3697 452.714L25.6071 453.569L16.42 453.142L3.17358 454.354V450.718L3.60089 448.08L5.95106 448.294L7.94515 448.08L9.51193 448.579L11.0075 448.508L12.5743 447.439L13.7138 446.156L13.6425 445.3L14.2835 444.944L27.2451 445.514L30.7347 445.086L31.5893 444.088L32.2303 441.166L33.0849 439.954L34.0107 438.956L34.8653 435.891L35.2214 435.035L37.0731 434.251L38.4974 434.679L41.2037 436.104L42.5568 437.887L44.6933 437.958L45.8328 437.744L46.545 436.746L46.6874 435.891L47.2571 435.32L81.8688 435.178L85.3584 436.104L84.7175 437.673L83.2931 438.813L82.7946 440.31L83.3643 441.736L83.4356 442.52L85.1448 443.875L86.9252 442.948L88.7056 441.736L90.6285 441.308L92.3377 441.95L92.9787 443.162L92.4089 444.445L88.9905 446.298L89.1329 447.795L90.4861 448.651L92.1241 449.078L92.9787 449.863L93.9757 450.504L95.3289 450.148L98.7473 450.29L100.385 450.861L100.457 452.429L100.172 454.211Z" fill="#009649" stroke="white" stroke-width="2" stroke-linejoin="round"></path>
<path class="region" data-country-region="North Region" d="M355.984 284.48L359.402 286.19L362.322 288.329L363.248 292.392L366.026 295.315L369.943 296.099L374.002 296.028L374.999 295.885L375.925 295.458L377.777 294.959L379.415 296.028L380.483 297.382L380.127 299.093L379.272 301.232L376.779 304.582L375.426 305.937L373.219 306.65L371.794 308.788L370.299 310.642L369.302 313.137L370.441 316.059L371.865 318.055L372.293 320.55L371.937 323.473L373.29 325.897L378.204 328.534L381.836 329.532L387.391 329.604L392.803 328.606L396.578 327.465L400.281 327.608L407.189 330.53L410.394 332.598L412.602 335.734L410.964 338.3L408.542 339.869L406.904 339.94L405.195 339.726L403.415 339.156L401.777 338.871L400.352 338.158L397.433 337.16L396.008 337.801L395.011 339.085L394.37 340.653L394.157 342.506L397.29 346.498L397.504 349.564L397.361 350.633L397.789 351.702L398.002 353.342L396.792 354.411L388.174 360.185L386.18 361.896L374.857 353.484V353.77L372.72 353.983L366.239 353.77L361.895 352.772L349.931 348.78L342.168 349.706L338.821 352.486L337.895 356.692L339.248 361.041L342.025 367.171L342.453 369.31L341.669 370.237L340.53 369.951L339.818 369.595L338.322 368.454L335.616 366.886L334.263 365.46L332.554 364.961L330.631 364.748L328.779 364.177L325.574 362.538L323.936 361.896L318.951 361.041L317.954 360.684L315.034 358.902L312.969 358.332L308.767 357.833L306.773 357.405L303.924 356.407L300.078 355.979L297.087 355.267L295.378 354.981L286.974 355.766L276.577 354.91L274.583 355.124L262.618 359.187L259.556 360.969L257.918 362.538L255.924 363.821L254.499 364.462L254.001 364.32L254.072 361.825L254.784 359.401L255.852 357.69L256.565 355.837L257.49 346.997L257.206 343.077L254.357 338.015L255.852 334.166L256.351 332.099L264.897 330.744L273.229 328.534L280.85 324.685L283.485 321.833L285.55 318.412L288.114 311.283L290.891 299.165L290.678 293.248L290.82 289.541L292.173 283.054L293.242 281.129L293.954 280.915L294.666 280.416L294.88 279.276L294.737 278.064L296.375 277.28L297.23 278.919L298.654 279.632L300.577 279.49L302.001 280.701L303.995 280.844L305.989 281.699L308.055 280.773L310.334 276.567L313.966 275.997L315.889 277.779L316.458 279.133L316.387 280.701L318.31 282.198L320.66 283.624L321.301 290.681L322.797 296.456L327.497 293.889L330.915 289.042L332.482 287.545L334.405 288.329L339.746 289.755L342.168 292.891L343.307 294.032L344.091 295.386L345.515 296.812L347.865 296.527L350.358 293.961L352.281 290.61L353.776 287.046L355.984 284.48Z" fill="#009649" stroke="white" stroke-width="2" stroke-linejoin="round"></path>
<path class="region" data-country-region="North Region" d="M576.758 50.0915L575.334 61.8536L576.402 65.7744L579.037 68.6971L582.242 71.0495L582.74 74.8277L581.245 78.5345L578.61 82.1701L572.129 88.372L573.34 97.4966L570.562 117.884L571.987 123.944L571.702 126.653L568.141 133.71L567.785 136.134L569.351 136.633L571.346 136.347L573.767 137.132L575.476 139.128L576.544 141.266L576.829 143.476L570.847 150.961L568.426 155.381L566.788 157.092L565.506 159.016L565.221 164.149L565.506 169.282L563.725 173.416L560.022 176.196L546.063 181.115L542.716 184.822L541.862 189.669L542.289 194.731L541.648 196.869L540.224 198.651L538.443 200.148L536.093 200.79L533.885 201.004L529.755 200.576L529.185 198.794L528.829 194.445L529.541 180.616L529.185 178.549L527.903 176.909L521.707 170.636L518.858 166.715L515.582 163.222L511.808 160.228L503.689 156.236L495.428 158.446L492.579 157.947L491.012 155.951L493.078 146.541L492.722 141.409L485.6 123.73L483.819 114.035L483.748 109.829L483.392 107.191L482.181 104.839L480.971 102.914L480.686 100.776L480.615 98.352L479.689 93.5759L478.905 91.2947L475.487 87.9443L471.499 85.1641L470.217 81.2434L469.149 72.6178L467.297 68.6971L465.659 67.4852L463.665 67.5565L461.457 67.0575L459.321 66.0595L457.398 65.8457L453.481 66.9862L450.917 66.6298L450.347 65.0615L448.78 59.0022L447.285 56.6498L444.792 55.8656L442.157 56.5785L436.531 58.8596L433.682 59.5725L429.552 61.3546L428.484 62.1388L427.843 63.7784L426.917 65.2754L421.718 67.5565L416.092 65.6318L414.525 65.2041L424.638 53.1568L426.632 51.232L427.771 50.4479L428.982 50.234L429.694 49.1648L429.908 47.6677L430.193 47.0262L431.19 46.0282L442.442 39.6837L444.935 38.6144L475.345 32.0561L481.042 31.5571L491.796 32.8403L520.639 32.6977L538.586 37.26L545.138 39.9689L553.328 45.0302L556.105 47.1687L557.245 47.8103L560.734 48.6657L563.512 48.3093L564.794 47.4539L565.791 47.24L568.782 48.3093L569.423 48.6657L569.779 49.6638L570.277 49.735L571.132 49.0222L571.702 48.9509L572.271 49.236L573.126 50.0915L573.696 49.735L574.693 50.0202L576.758 50.0915Z" fill="#009649" stroke="white" stroke-width="2" stroke-linejoin="round"></path>
<path class="region" data-country-region="North Region" d="M261.407 55.2246L260.41 61.5691L262.262 86.6617L263.544 89.727L263.259 93.3626L264.897 96.5704L265.752 99.6357L266.108 102.772L266.606 104.483L266.962 106.337L266.606 107.905L265.324 111.469L264.327 113.323L265.538 114.82L267.532 115.746L270.808 118.455L271.449 122.02L269.669 122.732L267.817 122.233L266.749 123.231L266.464 125.227L265.039 126.653L262.547 128.578L261.55 129.077L260.339 128.221H255.924L252.505 129.861L250.297 140.696L252.292 144.403L251.935 146.471L252.149 148.609L251.579 151.389L250.654 154.098L249.657 155.88L248.517 157.092L244.315 159.73L243.105 161.227L242.464 163.08L241.324 168.498L240.754 169.852L239.971 170.85L239.045 171.635L238.048 172.276L231.995 174.557H230.357L226.511 175.698H225.158L223.876 175.413L219.959 173.987L218.677 173.844L217.538 174.272L216.825 175.199L215.757 177.409L215.045 178.335L214.404 178.763L212.98 179.262L212.41 179.69L211.911 180.474L211.84 182.042L211.555 182.826L210.701 183.611L207.994 184.537L207.069 180.545L202.511 172.846L200.018 169.496L199.519 160.3L194.962 153.029L192.611 152.102L191.472 150.249L192.968 145.686L193.252 141.552L190.475 138.843L188.267 138.059L183.852 137.275L182.855 137.56L181.929 138.059L172.955 138.7L169.395 137.916L164.267 135.706L163.412 133.924L161.988 132.784L158.641 133.283L157.216 133.211L155.934 132.57L154.653 132.641L153.656 133.71L153.157 135.136L152.089 135.778L150.736 135.849L147.602 136.633L146.391 136.348L145.394 135.564L142.973 134.637L140.552 135.065L141.05 106.622L143.187 99.3506L151.946 100.776L170.036 100.063L172.955 96.8556L172.742 92.1507L171.531 87.6597L171.887 83.6677L174.736 81.743L177.798 77.8222L180.006 74.1867L182.997 71.8342L196.386 70.5511L198.594 69.9095L200.73 68.9828L202.439 65.6324L201.442 55.2246L202.083 53.5137L205.858 51.4465L210.131 50.8762L212.481 51.8029L213.905 51.3752L214.618 48.8802L214.689 47.2406L214.974 45.7436L215.828 44.9594H218.606L219.888 45.1733L222.024 45.8149L222.95 46.9554L223.947 47.8822L229.716 49.3079H235.484L240.113 46.599L243.105 44.2466L244.529 46.9554L248.019 51.0187L250.226 53.0147L252.149 54.5118L253.93 55.1533L255.924 55.3672H260.339L261.407 55.2246Z" fill="#009649" stroke="white" stroke-width="2" stroke-linejoin="round"></path>
<path class="region" data-country-region="North Region" d="M548.129 389.483L547.346 386.418L545.85 383.21L545.138 379.29V375.226L542.289 368.383L536.52 362.894L535.096 361.112L532.96 360.185L531.108 361.04L529.897 362.822L528.615 364.462L527.049 365.816L525.126 365.603L523.488 363.963L521.138 359.686L518.574 353.27L519.072 351.417L522.348 347.567L526.194 344.074L541.506 325.611L545.494 322.332L546.064 320.407L545.779 318.198L546.206 314.063L552.117 301.659L551.761 297.453L549.34 294.388L545.565 292.606L543.5 289.113V286.974L543.785 284.907L543.215 283.054L542.075 281.271L540.081 276.923L536.663 273.858L534.669 273.216L532.675 272.86L531.25 271.505L525.767 261.169L531.179 260.313L536.236 258.032L547.203 251.403L549.411 249.62L550.337 247.125L549.981 239.141L550.622 233.938L560.165 234.437L567.714 229.09L573.838 221.106L577.257 218.183L581.53 217.257L586.301 216.758L590.575 214.833L592.212 212.979L593.281 210.841L594.776 209.7L596.984 209.558L600.474 206.421L603.679 202.643L608.521 201.502L613.649 202.215L617.637 203.997L620.913 206.92L624.403 209.201L628.462 210.057L631.453 208.417L633.519 200.362L636.795 192.235L637.578 188.029V183.895L638.077 180.473L640.071 180.188L640.925 180.331L641.566 180.901L643.489 181.614L645.412 181.828L654.029 179.974L657.519 179.76L657.163 180.473L646.623 195.657L644.985 199.15L642.777 206.706L640.783 218.041L639.43 221.819V222.603L639.786 223.815L639.928 224.528L639.786 225.312L638.86 227.379L638.148 228.235L636.866 229.233L635.513 230.088L634.373 230.516L629.744 231.086L627.75 231.799L626.682 233.866L626.753 235.078L627.465 237.074L627.679 238.215L627.394 239.64L626.041 241.85L625.613 243.062L625.685 244.417L626.254 245.415L628.035 247.197L628.676 248.551L628.533 249.478L627.964 250.476L627.394 251.973L626.61 256.036L626.326 259.886L624.688 264.163L620.771 265.731L616.142 266.444L612.011 268.226L611.228 268.868L609.518 271.078L608.379 272.076L604.889 273.786L604.533 274.072L604.106 275.141L604.391 275.355L606.029 275.569L606.67 276.852L607.097 278.634L607.026 280.986L606.812 282.127L606.456 283.125L603.75 288.115L602.539 290.966L602.468 293.39L602.895 295.6L601.542 306.863L600.901 309.501L599.619 311.211L598.836 311.568L596.486 311.425L595.845 311.71L595.417 312.423L594.848 314.134L593.993 316.059L592.925 317.199L586.871 320.479L585.945 320.693L585.091 320.479L583.168 319.623L582.456 319.409L581.316 319.552L579.892 320.407L578.966 320.835L578.183 320.906L577.328 320.764L575.69 320.194L576.189 321.12L577.542 324.471L577.755 325.326V327.037L577.257 327.536L575.476 328.819L574.195 330.815L573.482 331.314L572.2 331.528L569.921 331.1L568.64 331.671L567.286 333.595L566.859 336.233L567.002 338.942L567.927 343.789L567.856 345.001L567.429 346.284L565.007 349.706L564.651 351.203V353.484L565.007 355.836L565.364 357.262L565.577 358.26L565.221 359.116L563.013 361.468L557.102 369.737L554.966 373.587L554.539 374.87L554.396 376.153L554.467 377.436L555.322 380.929L555.108 382.141L554.325 382.854L553.399 383.495L551.832 385.848L548.129 389.483Z" fill="#009649" stroke="white" stroke-width="2" stroke-linejoin="round"></path>
<path class="region" data-country-region="North Region" d="M294.737 278.064L294.879 279.276L294.666 280.416L293.954 280.915L293.241 281.129L292.173 283.054L290.82 289.541L290.678 293.248L290.891 299.164L288.114 311.283L285.55 318.412L283.485 321.833L280.85 324.685L273.229 328.534L264.897 330.744L256.351 332.099L253.716 332.526L251.508 332.241L247.876 332.384L245.17 332.099L243.745 329.532L243.389 328.463L242.82 285.62L243.104 283.909L244.529 283.268L255.496 282.84L259.057 283.909L264.541 289.327L267.39 290.895L267.746 290.824L276.078 278.919L281.704 278.278L283.342 278.349L284.98 278.563L286.476 279.204L287.758 278.278L289.609 275.64L291.746 276.424L292.814 278.492L294.737 278.064Z" fill="#009649" stroke="white" stroke-width="2" stroke-linejoin="round"></path>
<path class="region" data-country-region="North Region" d="M471.498 85.1642L463.665 90.4394L460.531 89.6552L458.679 88.4434L454.264 89.2275L452.412 89.9404L451.059 91.2235L450.205 93.8611L449.635 96.57L445.362 108.617L445.006 110.613L445.504 113.108L444.578 115.176L426.489 122.09L424.566 123.373L422.572 124.3L417.587 124.728L414.382 127.579L413.171 132.07L415.664 133.781L419.296 132.783L421.433 132.498L423.427 132.997L424.353 134.993L425.278 139.342L425.35 141.409L423.356 145.116L423.142 147.112L424.281 148.751H426.204L427.273 148.395L429.694 152.743L435.391 160.371L439.736 162.082L449.136 163.864L454.193 164.078L458.466 165.503L458.181 167.499L456.756 169.139L454.762 170.422L448.21 172.988L446.928 177.052L447.641 179.262L446.003 180.26L443.724 179.404L441.658 178.335L432.329 179.048L428.911 177.622L427.557 174.272L428.056 170.422V166.501L426.703 162.866L424.139 160.442L420.72 161.298L413.1 161.868L410.109 160.799L407.759 157.805L404.056 158.375L400.281 158.161L396.578 156.593L393.088 155.595L389.456 155.523L389.598 154.739L389.527 153.1L389.598 152.316L390.168 150.462L391.094 148.823L396.364 144.046L396.863 142.692L395.581 141.837L394.797 141.623L393.444 140.767L391.806 138.985L390.952 137.702L389.598 134.28L388.958 133.781L387.32 133.567L384.756 133.781L383.83 132.926L384.613 129.219L386.75 126.082L387.32 124.657L387.533 123.16L388.245 121.306L388.388 119.239L387.533 115.603L386.892 113.821L384.115 113.536L382.049 114.962H378.346L378.275 113.393L377.848 111.968L377.42 111.754L374.928 112.11L373.575 112.609L372.364 111.968L371.581 110.613L372.079 109.687L372.649 108.831L373.005 107.833L372.934 102.202L370.441 99.1363L366.738 98.7086L363.391 97.568L362.892 95.7145L362.963 93.6473L362.251 91.9364L360.755 90.9384L359.189 90.083L357.764 89.0137L357.266 86.8751L357.337 84.5227L357.052 82.9544L355.628 82.3128L351.782 81.3148L348.292 80.8158L344.803 81.4574L341.812 83.0257L340.031 85.7345L339.034 88.7285L338.322 89.8691L337.254 89.2275L337.04 88.3721V87.5167L336.613 86.4474L333.622 81.1009L332.909 79.2475L331.628 77.8931L326.927 77.7505L323.794 75.8258L323.722 71.9051L324.221 67.8418L325.004 66.2735L331.343 65.2755L335.616 65.2042L339.461 65.7032L348.577 65.2755L349.717 66.3448L350.785 69.4813L352.352 72.2615L353.776 73.1169L355.201 73.6872L356.554 73.6159L358.477 72.5466L359.189 73.4733L360.043 74.2575L362.393 74.4713L365.598 73.7585L368.447 72.1902L371.082 70.1229L371.723 69.0536L372.15 67.913L372.72 67.0576L373.432 66.416L374.429 65.917L374.785 64.42L392.091 66.4873H394.299L397.432 65.5606L398.501 65.4893L411.106 66.9863L412.317 66.915L413.385 66.2735L414.525 65.2042L416.091 65.6319L421.718 67.5566L426.916 65.2755L427.842 63.7785L428.483 62.1389L429.551 61.3547L433.682 59.5726L436.531 58.8597L442.157 56.5786L444.792 55.8657L447.285 56.6499L448.78 59.0023L450.347 65.0616L450.917 66.6299L453.48 66.9863L457.397 65.8457L459.32 66.0596L461.457 67.0576L463.665 67.5566L465.659 67.4853L467.297 68.6972L469.148 72.6179L470.217 81.2435L471.498 85.1642Z" fill="#009649" stroke="white" stroke-width="2" stroke-linejoin="round"></path>
<path class="region" data-country-region="North Region" d="M389.457 155.524L384.97 157.377L383.902 157.591L381.979 156.522L377.991 158.375L371.937 164.719L369.658 168.212L368.02 169.923L365.884 170.921L362.394 171.135L360.542 174.913L360.186 179.476L360.4 184.537L362.038 189.171L364.744 192.378L365.172 196.513L363.534 200.505L360.827 203.499L359.545 203.784L357.124 203.143L355.985 202.572L353.349 199.436L348.578 198.865L345.373 196.085L346.584 194.446L349.076 193.804L349.931 191.523L349.005 184.323L350.145 179.689L349.005 171.278L342.952 164.791L338.465 163.579L334.334 162.011L332.839 160.015L330.916 158.446L326.785 156.949L324.863 155.666L323.652 153.67L323.937 151.532L325.005 149.536L325.076 147.254L323.011 146.256L314.678 148.965L307.699 154.169L303.64 154.526L299.58 151.033L298.655 147.967L299.082 145.045L300.008 142.122L301.859 139.912L304.637 139.199L307.913 137.488L310.619 136.847L310.405 134.494L308.91 130.716L308.34 129.932L308.126 129.005L308.483 127.865L308.554 126.724L308.269 124.799L306.987 120.879L307.343 108.19L306.773 102.273L307.485 99.5641L312.043 96.3562L322.441 92.4355L324.578 90.3682L326.572 84.5228L327.996 81.9565L330.702 81.1011H333.622L336.613 86.4475L337.041 87.5168V88.3722L337.254 89.2277L338.323 89.8692L339.035 88.7287L340.032 85.7346L341.812 83.0258L344.803 81.4575L348.293 80.8159L351.783 81.3149L355.628 82.3129L357.053 82.9545L357.338 84.5228L357.266 86.8752L357.765 89.0138L359.189 90.0831L360.756 90.9385L362.252 91.9365L362.964 93.6474L362.893 95.7147L363.391 97.5681L366.738 98.7087L370.442 99.1364L372.934 102.202L373.005 107.833L372.649 108.831L372.08 109.687L371.581 110.613L372.364 111.968L373.575 112.609L374.928 112.11L377.421 111.754L377.848 111.968L378.276 113.394L378.347 114.962H382.05L384.115 113.536L386.893 113.821L387.534 115.603L388.388 119.239L388.246 121.306L387.534 123.16L387.32 124.657L386.75 126.082L384.614 129.219L383.831 132.926L384.756 133.781L387.32 133.567L388.958 133.781L389.599 134.28L390.952 137.702L391.807 138.985L393.445 140.767L394.798 141.623L395.581 141.837L396.863 142.692L396.365 144.047L391.095 148.823L390.169 150.462L389.599 152.316L389.528 153.1L389.599 154.739L389.457 155.524Z" fill="#009649" stroke="white" stroke-width="2" stroke-linejoin="round"></path>
<path class="region" data-country-region="North Region" d="M140.552 135.064L142.973 134.636L145.395 135.563L146.392 136.347L147.602 136.632L150.736 135.848L152.089 135.777L153.157 135.135L153.656 133.71L154.653 132.64L155.935 132.569L157.217 133.211L158.641 133.282L161.988 132.783L163.413 133.924L164.267 135.706L169.395 137.916L172.956 138.7L181.929 138.058L182.855 137.559L183.852 137.274L188.268 138.058L190.475 138.842L193.253 141.551L192.968 145.686L191.472 150.248L192.612 152.102L194.962 153.028L199.52 160.299L200.018 169.495L198.167 168.355L196.101 168.426L195.247 169.139L193.751 170.85L193.11 171.776L191.615 172.988L189.549 173.202L187.484 173.772L177.229 178.121L173.312 178.834H167.401L165.834 178.263L165.051 176.125L164.979 173.772L165.336 169.139L164.41 167.143L162.487 165.931L160.35 162.082L159.567 157.519L156.077 155.381L151.733 155.309L134.214 158.874L126.095 162.509L125.169 166.359L128.872 169.21L133.145 170.992L137.703 171.705H138.7L139.484 172.204L139.982 173.273L140.766 173.701L142.404 174.2L143.116 175.982L143.685 178.406L143.828 180.83L140.979 184.465L143.401 187.531L144.683 191.523L143.116 192.735L138.914 193.946L134.926 195.871L130.795 195.301L128.943 196.014L127.946 200.006L128.231 204.568L127.946 206.635L128.303 208.631L131.08 212.338L132.932 216.401L131.436 220.393L129.727 221.605L127.733 222.318L120.825 223.744L118.759 224.457L118.118 226.595V229.019L117.335 230.587L113.347 230.373L111.923 229.09L112.777 224.671L113.133 220.251L111.923 218.896L110.356 217.685L109.43 215.617L109.216 213.336L109.572 208.845L111.851 204.996L118.688 201.075L118.831 200.006L120.326 198.437L120.753 197.653L120.896 196.584L120.825 194.303L122.819 183.539L122.748 182.042L118.902 180.901L111.709 176.125L105.727 174.557L99.6019 175.412L83.3644 175.84L80.2308 175.483L73.6076 172.418L68.3375 169.139L62.925 168.497L62.4977 168.925L61.3582 168.996L59.9339 167.571L49.3225 152.529L48.4679 150.89L48.3254 149.464L49.8922 145.329L50.6044 142.549L54.735 135.492L56.0169 134.137L59.0793 132.284L59.7914 131.571L60.2187 130.288L59.9339 129.076L59.2217 127.936L57.7974 126.439L57.37 126.082L56.8003 124.87L56.4442 121.449L56.7291 120.451L57.37 119.524L58.4383 118.526L59.4353 116.459L59.1505 114.391L57.6549 109.972L57.7261 107.334L59.2929 99.35L58.7232 84.2373L58.9368 83.5958L71.8984 73.7583L75.7441 70.1227L85.216 55.1527L87.0677 42.0361L87.5662 41.9648L92.0529 41.8222L95.8986 42.4638L97.9639 41.4658L100.1 40.9668L101.952 42.4638L103.733 44.1747L107.436 46.3845L111.424 47.8815L113.561 48.4518L115.626 49.1647L117.62 50.5904L119.756 51.5884L121.964 51.8023L123.816 50.6617L124.742 49.0934L125.81 47.5964L127.377 47.0974L128.445 48.3805L128.231 50.3053L127.305 52.0874L127.163 53.228V54.3685L126.878 55.2953L126.522 56.1507L125.881 58.4318L125.525 60.9269L127.519 64.3486L128.872 68.1267L128.374 72.5465L127.804 74.7563L127.519 77.1088L129.3 86.8749L129.086 91.4372L126.451 92.7916L122.391 91.5085L118.118 92.5778L115.982 96.3559L116.409 119.666L114.415 129.147L111.78 134.85L111.282 140.625L113.204 142.763L115.839 143.69L118.475 142.05L120.54 139.484L131.792 134.351L133.003 134.066L134.285 134.351L135.211 134.85L136.564 134.423L137.49 134.993L138.131 135.92L139.412 135.777L140.552 135.064Z" fill="#009649" stroke="white" stroke-width="2" stroke-linejoin="round"></path>
<path class="region" data-country-region="East Region" d="M286.903 412.153L287.473 414.576L289.752 419.353L291.39 421.42L293.384 423.273L295.592 424.913L297.871 425.982L300.221 425.697L302.001 424.343L304.138 423.772L306.559 424.984L308.055 427.408L308.696 430.259V433.182L306.702 438.742L302.714 439.17L300.72 438.956L298.868 440.168L301.218 447.796L301.147 452.002L298.583 459.986L299.651 461.554L299.723 462.338L300.363 464.833L300.506 466.686L300.933 468.54L301.076 470.322L299.865 472.104L298.441 473.744L298.013 476.738L298.725 479.803L297.087 480.658L295.022 478.662L293.74 477.807L292.245 477.023L289.254 477.95L285.408 475.027L282.559 475.17L279.71 475.597L279.212 475.098L278.571 475.027L278.286 474.385L277.218 473.744L276.577 473.672L275.01 474.171L273.372 473.886L272.09 472.389L271.449 470.536L270.452 468.896L269.74 467.185L270.096 465.118L268.672 464.049L268.387 462.623L267.461 461.982L266.606 462.623L265.681 462.837L265.182 462.124L265.538 460.342V459.201L266.322 458.489L263.9 453L262.69 451.36L261.835 450.861L259.841 450.505L258.986 450.077L258.416 448.58L260.054 444.089L263.33 440.525L263.615 436.461L261.764 435.677L259.912 435.321L256.494 433.824L253.289 433.966L252.505 433.61L252.577 431.685L252.078 430.045L253.645 426.838L255.639 425.554L256.066 427.479L256.494 427.836L257.419 429.19L258.915 429.903L261.479 427.836L263.758 425.127L268.672 421.634L271.663 418.925L275.01 414.434L276.15 413.436L278.001 412.794L279.853 411.297L282.061 410.157L284.909 410.371L286.903 412.153Z" fill="#009649" stroke="white" stroke-width="2" stroke-linejoin="round"></path>
<path class="region" data-country-region="East Region" d="M334.192 436.033L335.047 439.313L337.325 441.95L338.892 443.091L339.32 443.661L339.533 444.303L340.53 445.443L340.815 447.297L341.456 448.936L342.667 450.504L342.88 452.429L339.177 454.496L338.75 456.492L339.889 458.275L339.391 462.338L336.044 465.688L334.69 467.47L333.551 469.253L332.483 473.744L331.486 475.312L329.776 474.528H328.21L327.426 475.811L326.5 476.952L323.794 478.235L322.655 479.304L321.159 479.375L320.02 476.666L317.812 476.025L315.391 476.809L314.678 478.306L315.675 480.159L314.892 482.797L312.827 486.076L311.972 486.86L311.901 488.286L312.115 489.64L311.331 490.852L310.405 491.922L309.836 493.347L309.622 494.844L307.485 494.06L305.563 492.563L304.565 490.71L304.138 488.642L300.933 487.145L292.316 487.074L288.826 485.292L289.325 481.443L289.254 477.95L292.245 477.023L293.74 477.807L295.022 478.662L297.088 480.658L298.726 479.803L298.013 476.738L298.441 473.744L299.865 472.104L301.076 470.322L300.933 468.54L300.506 466.686L300.364 464.833L299.723 462.338L299.651 461.554L298.583 459.985L301.147 452.001L301.218 447.796L298.868 440.168L300.72 438.956L302.714 439.17L306.702 438.742L308.625 442.877L312.684 445.372L315.319 441.808L315.889 436.818L316.815 434.822L319.307 434.465H321.658L323.937 433.895L326.144 430.972L327.497 430.687H328.851L329.492 429.76L329.776 429.119L330.987 429.19L331.628 430.188L332.055 432.469L332.839 434.465L334.192 436.033Z" fill="#009649" stroke="white" stroke-width="2" stroke-linejoin="round"></path>
<path class="region" data-country-region="West Region" d="M234.274 492.848L232.778 499.763L231.568 502.472L231.069 505.395L230.357 506.82L229.217 508.032L227.793 508.674L226.582 509.957L227.651 512.595L227.722 513.878L226.796 514.377L219.105 515.589L218.179 515.874L217.039 516.729L216.042 517.799L215.757 518.369L215.615 519.937L215.472 520.294L214.404 520.579L211.912 520.507L210.843 520.935L210.345 522.361L210.487 523.002L211.057 523.929L211.128 524.428L210.843 525.07L210.202 525.426L208.707 525.854L207.496 526.923L206.713 527.066L204.576 526.638L204.078 526.852L202.368 529.204L201.371 529.775L199.805 529.561L198.594 528.99L197.312 528.278L195.318 526.495L194.535 526.852L192.612 529.632L190.974 530.487L189.122 530.844L188.054 530.63L186.914 530.986L185.846 531.485L184.707 531.842L182.712 533.268L180.576 534.408L179.65 534.337L178.582 534.479L177.157 534.266L176.018 533.41L173.027 531.771L170.321 530.844L168.042 529.347L166.404 527.992L166.119 527.066L167.329 527.208L168.54 527.493L168.113 526.781L166.475 524.998L165.905 524.642L165.691 524.927V525.996L165.478 526.21L164.552 526.353L163.626 526.638L162.914 526.282L161.49 526.567L160.849 526.21L160.706 525.783L160.849 523.573L160.564 520.864L159.353 515.517L159.638 514.733L161.062 514.377L164.979 514.306L166.119 514.02L166.404 514.947L166.902 515.66L167.401 515.304L167.828 514.377L168.469 513.735L170.534 512.951L171.531 512.809H172.457L172.956 512.452L171.531 511.24L170.962 510.314L170.677 508.531L170.819 507.605L171.175 506.892L171.959 506.393L172.884 506.179L174.807 506.25L175.519 505.894L176.232 505.11L177.086 503.755L176.16 504.183L175.306 504.896L174.522 505.324L173.383 505.038L172.6 505.894L171.246 505.537L169.822 506.25L168.967 507.605L169.324 509.102L168.683 510.599L167.899 511.454L166.902 511.668L165.691 511.169L164.979 510.1L164.267 509.957L163.982 510.314L164.125 511.098L164.908 512.381L161.418 512.238L154.795 509.957L154.012 508.674L152.089 506.963L150.878 506.108L150.451 504.824L150.309 503.541L150.522 502.971L150.878 502.757L151.875 501.688L152.801 501.26L158.641 501.474L160.777 501.902L162.059 502.543H162.415L163.056 501.759L163.982 499.621L164.481 498.908L165.264 498.551L166.19 498.623L167.045 498.836L167.686 499.335L168.327 501.331L169.252 501.118L169.324 500.12L168.896 499.193L167.899 498.195L166.689 497.339L165.691 496.84L164.552 496.912L163.982 497.482L163.27 499.335L162.629 499.906L161.632 500.333L160.564 500.619L159.638 500.547L158.499 499.906L158 499.05V498.052L159.139 494.773L159.282 493.918L159.139 492.777H158.783L157.217 497.268L156.576 498.409L155.792 499.193L154.724 499.621L153.371 499.692L152.73 499.906L151.306 500.69L149.81 501.26L148.671 500.547L147.745 499.692L146.819 498.551L146.107 497.339L145.537 495.629L144.398 493.704L144.184 492.349L144.326 491.138L144.682 489.783L145.252 488.714L145.964 488.215L146.676 488.5L147.887 489.427L148.314 489.569L148.599 489.142L148.243 488.001L148.314 487.431L150.166 485.791L155.009 484.009L156.362 481.728L155.151 481.942L153.086 483.795L150.807 484.508L146.249 486.86L145.395 487.502L142.403 490.282L141.834 490.211L139.626 485.363L139.341 485.007L145.964 468.825L150.166 470.821L152.944 474.029L152.374 478.021L152.872 481.086L154.083 482.013L155.08 481.585L158.499 478.591L158.214 476.667L158.783 475.17L162.629 475.383L164.41 475.098L166.617 475.241L168.896 476.88L170.605 477.451L171.175 476.952L171.531 476.168L174.807 474.1L178.439 473.958L185.347 477.736L188.623 481.3L190.618 482.369L192.256 483.653L191.971 485.791L190.76 487.93L190.974 488.571L191.686 489.142L191.971 489.854L191.757 490.567L191.828 491.494L192.825 491.85L193.894 491.779L199.662 490.567L202.725 488.357L205.146 485.506L208.422 483.011L210.915 480.16L211.627 477.878L211.555 475.526L210.772 474.884L209.704 474.599L206.143 471.32L204.363 468.326L203.65 465.974L203.437 463.978L201.514 460.627L201.727 458.489L202.582 456.778L203.935 455.495L206.001 455.708L207.496 457.277L208.707 459.202H210.345L212.766 456.136L214.333 455.138L219.959 452.786L227.152 448.437L230.784 446.94L232.849 446.869L234.986 447.225L236.624 446.655L238.476 444.445V446.299L238.761 448.081L240.399 453.926L240.755 457.206L241.823 460.128L242.037 462.409L242.321 463.265L243.105 464.762L243.39 465.546L243.461 466.401L243.318 469.039L243.034 469.823L242.677 470.322L241.253 470.892L240.114 471.819L239.829 473.174L240.042 476.31L239.259 479.375L239.33 480.944L238.974 482.013L236.624 485.15L235.485 487.217L234.915 488.714L234.487 490.353L234.274 492.848Z" fill="#009649" stroke="white" stroke-width="2" stroke-linejoin="round"></path>
<path class="region" data-country-region="West Region" d="M238.476 444.445L236.624 446.655L234.986 447.225L232.85 446.869L230.784 446.94L227.152 448.437L219.959 452.785L214.333 455.138L212.766 456.136L210.345 459.201H208.707L207.496 457.276L206.001 455.708L203.935 455.494L202.582 456.777L201.728 458.488L201.514 460.627L203.437 463.977L203.65 465.973L204.363 468.326L206.143 471.32L209.704 474.599L210.772 474.884L211.556 475.526L211.627 477.878L210.915 480.159L208.422 483.011L205.146 485.506L202.725 488.357L199.662 490.567L193.894 491.779L192.825 491.85L191.828 491.494L191.757 490.567L191.971 489.854L191.686 489.141L190.974 488.571L190.76 487.929L191.971 485.791L192.256 483.652L190.618 482.369L188.624 481.3L185.348 477.736L178.439 473.957L174.807 474.1L171.531 476.167L171.175 476.951L170.606 477.45L168.896 476.88L166.617 475.241L164.41 475.098L162.629 475.383L158.783 475.169L158.214 476.666L158.499 478.591L155.08 481.585L154.083 482.013L152.872 481.086L152.374 478.021L152.944 474.029L150.166 470.821L145.964 468.825L146.036 466.9L144.896 465.189L143.543 464.405L142.261 464.191L142.119 463.407L140.908 461.91L139.484 460.698L138.273 459.985L137.917 459.415L138.771 457.775L139.056 456.065L139.911 454.781L141.193 454.354L142.688 453.57L143.543 452.073L143.97 450.29L144.967 448.793L146.32 445.657L145.252 442.52L144.255 440.881L143.757 440.667L143.472 440.168V438.314L143.685 437.459L143.899 435.534L144.611 434.251L146.392 431.97L148.528 429.903L149.312 428.334L150.237 427.051V425.483L150.95 424.699L151.947 424.271H168.54L171.246 426.41L170.249 427.907L169.68 429.618L171.246 433.538L172.528 433.324L175.448 430.972L177.158 431.115L177.941 431.827L179.793 432.255L180.79 431.899L181.431 431.471L182.285 430.045L182.57 429.19L183.282 425.412L183.852 423.915L185.205 423.558L185.134 422.632L185.917 421.562L185.704 420.849L184.849 419.067L184.991 416.929L185.775 414.79L187.342 413.151L188.125 412.081L188.481 410.655L191.187 404.382L191.045 403.812L191.116 403.028L192.398 401.531L193.822 400.248L194.819 399.606L195.603 398.751L196.173 396.826L195.959 395.472L195.603 394.616L195.389 392.763L196.03 391.48L195.745 390.41L193.965 389.27L194.535 387.202L195.318 386.49L196.956 386.133L197.668 385.777L199.021 384.137L200.09 382.355L201.087 382.854L202.297 382.64L203.294 383.282L203.081 384.422L205.004 385.064L205.431 386.418L204.79 389.056L206.285 391.123L208.992 391.052L211.698 389.911L212.909 389.198L214.048 388.913L214.689 389.983L215.544 390.695L217.538 392.05L219.176 393.975L220.6 394.046L222.808 393.476L224.019 393.618L225.514 394.973L226.867 398.323L227.651 399.392L227.936 400.533L228.719 401.673L231.639 401.103L234.06 400.105L235.627 399.963L236.553 400.675L237.194 401.46L237.336 402.529L238.12 402.957L239.686 403.456L239.829 403.955L240.755 406.022L241.04 407.733L240.755 408.802L240.042 411.012L239.758 414.148L239.259 415.503L239.188 416.144L239.259 418.782L239.117 419.281L237.55 422.632L236.909 424.984L236.838 425.982L237.194 429.119L236.98 436.746L237.194 439.312L238.404 442.663L238.476 444.445Z" fill="#009649" stroke="white" stroke-width="2" stroke-linejoin="round"></path>
<path class="region" data-country-region="North Region" d="M498.633 261.525L504.971 262.024L525.766 261.169L531.25 271.505L532.674 272.86L534.668 273.216L536.663 273.858L540.081 276.923L542.075 281.272L543.215 283.054L543.784 284.907L543.499 286.974V289.113L545.565 292.606L549.339 294.388L551.761 297.453L552.117 301.659L546.206 314.063L545.778 318.198L546.063 320.408L545.494 322.332L541.505 325.611L526.194 344.074L522.348 347.567L519.072 351.417L518.573 353.27L521.137 359.686L523.487 363.963L525.125 365.603L527.048 365.817L528.615 364.462L529.897 362.823L531.108 361.04L532.959 360.185L535.096 361.112L536.52 362.894L542.289 368.383L545.137 375.226V379.29L545.85 383.21L547.345 386.418L548.129 389.484L544.639 392.905L540.936 398.394L539.796 399.535L538.728 400.39L538.229 400.889L538.585 401.246L540.01 401.531L540.793 402.244L543.784 406.521L546.063 409.016L546.775 410.513L546.277 411.867L545.707 412.152L544.639 411.725L543.998 411.653L543.215 411.939L542.502 412.366L540.01 414.647L539.084 415.218L538.87 416.287L538.514 416.786L536.52 417.142L535.879 417.071L535.381 417.428L534.953 418.497L531.535 420.707L527.903 424.057L526.835 425.554L526.478 427.194L526.835 428.049L528.188 429.546L528.473 430.616L528.33 432.255L527.903 433.823L526.194 437.815L524.769 439.811L523.203 440.738L520.852 440.952L519.286 442.235L518.431 444.231L518.004 446.726L517.648 448.081L516.508 449.15L515.013 449.934L513.517 450.29L512.876 450.219L510.953 449.863L510.099 450.576L509.315 450.647L508.318 450.077L502.906 450.647L501.339 450.433L500.342 449.578L499.202 446.726L498.205 442.093L497.992 439.74L498.134 437.388L497.92 434.536L496.781 432.113L494.787 430.544L489.232 429.546L487.309 427.622L486.169 424.984L485.6 422.275L484.674 419.923L482.68 418.568L477.837 416.715L473.706 414.505L472.14 414.006L471.071 413.151L470.715 410.228L469.647 408.802L468.792 410.513L468.08 412.652L467.582 414.933L467.226 419.495L466.229 420.065L465.018 421.847L464.804 422.774L464.733 424.129L449.493 424.342L447.855 423.843L446.644 422.917L446.003 421.705L445.148 417.356L444.65 416.358L443.795 416.144L442.442 417L427.914 429.332L426.561 429.903L425.421 429.546L424.21 428.976L422.857 428.905L421.718 430.188L417.16 444.659L416.448 445.229H414.311L415.735 439.455L416.448 429.404L416.234 425.626L418.157 415.218L419.937 411.725L422.359 408.731L425.35 406.592L427.914 404.168L428.341 397.111L430.691 389.911L428.056 382.997L422.003 377.579L416.661 370.878L409.967 366.244L400.922 365.175L391.806 365.46L389.456 365.888L385.468 367.741L383.616 368.098L382.904 366.815L386.18 361.896L388.174 360.185L396.792 354.411L398.002 353.342L397.789 351.702L397.361 350.633L397.504 349.563L397.29 346.498L394.157 342.506L394.37 340.653L395.011 339.084L396.008 337.801L397.433 337.16L400.353 338.158L401.777 338.871L403.415 339.156L405.195 339.726L406.905 339.94L408.543 339.869L410.964 338.3L412.602 335.734L415.807 335.948L420.293 335.591L424.566 334.38L428.412 331.457L431.831 327.964L435.748 325.112L439.949 322.831L441.587 321.334L444.721 317.556L446.074 315.417L448.923 311.996L462.597 308.645L471.997 303.94L474.063 300.091L473.991 297.81L473.208 294.103L473.635 292.178V290.467L471.926 284.765L470.929 283.125L470.43 281.343L469.789 276.852L470.217 273.002L469.861 269.795L468.579 266.943L471.712 264.876L479.261 264.662L486.526 261.169L490.443 260.527L494.573 261.525H498.633Z" fill="#009649" stroke="white" stroke-width="2" stroke-linejoin="round"></path>
<path class="region" data-country-region="North Region" d="M211.199 312.993L208.706 316.272L206.285 324.542L205.359 330.743L204.789 332.526L203.579 333.951L201.585 334.379L195.033 332.882L186.843 332.454L181.003 331.1L175.092 328.89L172.101 325.896L169.75 324.969L167.115 327.393L160.35 335.876L159.851 337.872L161.632 341.294L162.486 342.363L163.555 343.219L164.124 344.359L166.546 346.569L170.463 348.993L170.961 352.628L164.552 352.842L162.486 353.484L161.204 354.981L160.848 356.905L160.136 358.331H159.139L156.646 358.759L155.151 358.402L152.801 358.26L148.884 355.765L145.18 356.905L143.97 356.406L143.685 355.337L142.973 354.909L142.118 354.767L138.7 355.195L136.919 354.054L135.709 351.987L133.216 351.915L130.866 352.842L127.02 353.199L125.382 353.555L123.886 354.197L120.539 354.909L116.693 354.553L112.848 354.767L111.851 354.125L110.854 353.911L110.141 352.7L108.432 346.997L106.296 343.504L104.729 342.506L103.376 341.294L101.239 338.157L99.174 330.102L97.1087 326.894L91.8386 315.203L91.0552 311.568L91.8386 307.932L93.1205 306.649L94.1176 305.081L95.5419 303.584L97.536 302.443L99.5301 299.52L98.5331 297.239L95.6132 299.021H93.9752L89.6309 298.023L82.6516 295.528L80.0166 294.174L77.7376 292.178L76.3845 289.54L74.6752 287.33L71.969 286.119L69.1203 286.404L66.4852 288.328L64.9897 291.251L64.4199 295.172L63.2805 296.455L61.9273 297.453L49.7492 303.584L47.1854 305.508L44.764 306.72L42.1289 308.716L35.1496 311.924L34.3662 312.067L33.7253 311.354L33.0131 310.997L32.5858 310.356L31.5887 310.142L30.6629 310.213L29.3098 310.641L28.0279 311.425L25.6065 313.564L24.3958 314.276L23.47 315.061L23.0427 315.631L21.6895 316.201L18.4135 318.839L17.3453 320.193L15.9209 321.12L11.2206 322.189L8.94163 322.118L5.45198 325.112L4.3125 310.427V309.785L4.66859 309.358L5.66563 308.93L6.02172 308.075L5.66563 306.578L5.87928 305.651L6.59146 303.94L6.66267 303.013L6.3778 302.586L5.87928 302.372V301.801L6.73389 300.376L7.08998 298.736L7.23241 294.958L7.01876 293.318L11.5767 293.746L12.3601 293.604L13.4283 292.677L14.0693 292.249L14.7102 292.107L16.5619 292.035L17.2028 292.107L18.9833 293.105H19.6954L23.7548 292.107L25.1792 291.037L26.105 289.184L28.0991 282.982L29.3098 280.701L29.6659 279.418V275.497L29.4522 274.499L28.7401 272.645L28.3128 270.935L28.5264 269.295L29.6659 267.442L30.0932 267.085L31.0902 266.8L31.5175 266.372L35.1496 261.596L35.2208 261.311L34.7935 260.17L35.2208 258.673L36.2179 258.388L37.3574 258.602L38.4256 258.673L40.3485 257.533L40.7758 255.965L40.2773 254.182L39.5651 252.329L39.3514 251.117L39.4939 249.763L39.9924 248.551L40.9894 247.838L45.1913 246.056L47.5414 245.486L51.1023 245.842L52.1706 244.844L53.6661 241.993L55.589 239.711L56.23 238.5L56.586 233.367L56.9421 232.369L57.8679 231.514L58.7226 231.086L59.506 230.516L60.0757 228.876L65.5594 227.807L75.0313 227.521L79.0907 228.092L80.7999 229.517L100.67 253.184L101.595 253.897L102.521 254.468H104.587L105.512 258.531L104.943 263.378L104.871 267.869L106.794 271.22L111.139 270.649L116.337 271.434L116.409 271.79L116.765 276.281L116.978 277.279L117.477 278.063L118.331 278.776L119.329 279.132L122.248 279.631L123.958 280.273L124.67 281.485L124.741 283.053L124.385 284.835L124.527 286.689L125.596 287.829L127.234 288.4L129.085 288.257L131.435 287.544L134.071 285.976L137.916 284.764H138.771L139.554 284.978L140.979 285.62L141.05 285.976L142.118 286.475L144.112 287.829L147.175 289.326L148.1 289.968L149.097 291.322L150.094 292.392L150.379 293.033L150.451 294.958L150.878 295.742L151.59 296.241L152.445 296.526L158.071 297.453L162.059 297.239L162.914 297.382L164.267 298.308L165.335 299.378L166.047 299.948L167.614 300.447L169.394 300.59L171.032 301.017L172.172 301.73L172.955 302.799L174.237 303.869L175.234 305.081L175.946 306.435L176.73 307.077L177.656 307.362L181.074 307.433L183.353 308.146L184.136 309.358L184.991 310.57L185.632 311.639L185.988 312.067L186.7 312.28L189.834 312.209L192.469 312.637H193.323L194.036 312.494L195.958 311.639L197.383 311.354L203.864 311.282L204.789 311.425L205.644 311.781L207.496 313.492L207.923 313.635L211.199 312.993Z" fill="#009649" stroke="white" stroke-width="2" stroke-linejoin="round"></path>
<path class="region" data-country-region="North Region" d="M360.827 203.498L360.186 207.419L358.12 211.055L358.975 212.623L360.755 213.621L362.109 214.904L363.391 216.401L362.821 218.112L362.536 220.108L361.112 222.033L358.975 223.031L355.984 226.381L354.916 230.872L356.482 235.435L354.132 243.347V247.981L353.776 250.333L354.275 252.329L351.853 255.751V256.749L351.711 257.818L350.002 259.101V267.656L352.423 271.22L355.201 274.143L357.479 277.351L357.195 281.058L355.984 284.479L353.776 287.046L352.281 290.61L350.358 293.96L347.865 296.527L345.515 296.812L344.091 295.386L343.307 294.032L342.168 292.891L339.746 289.754L334.405 288.329L332.482 287.545L330.915 289.042L327.497 293.889L322.797 296.455L321.301 290.681L320.66 283.624L318.31 282.198L316.387 280.701L316.458 279.133L315.889 277.778L313.966 275.996L310.334 276.567L308.055 280.772L305.989 281.699L303.995 280.844L302.001 280.701L300.577 279.489L298.654 279.632L297.23 278.919L296.375 277.279L294.737 278.064L292.814 278.491L291.746 276.424L289.609 275.64L287.758 278.277L286.476 279.204L284.98 278.563L283.342 278.349L281.704 278.277L276.078 278.919L274.654 278.563L273.158 278.99L272.802 278.064L273.443 276.21L273.585 275.355L272.588 274.072L271.805 273.573L270.594 271.719L271.093 269.509L274.298 267.157L274.654 266.016L274.867 264.804L275.437 263.806L276.292 263.022L277.645 261.525L277.289 259.6L275.508 258.674L274.654 257.177L275.152 255.537L273.87 254.468L271.734 253.826L270.523 252.187L271.805 251.189L273.657 251.046L275.223 249.763L275.295 247.553L274.155 237.93L271.306 235.934L262.547 236.076L258.131 235.577L253.929 233.724L251.223 230.231L252.647 228.591L254.642 227.308L256.208 225.383L258.131 223.815L260.054 222.532L261.478 220.678L261.621 218.611L259.84 217.399L255.639 215.831L254.357 214.477L255.14 212.338L255.069 207.49L251.793 204.71L249.728 205.352L248.731 205.067L248.374 200.219L247.876 199.007L246.024 198.295L243.888 198.152L241.965 198.936L242.25 201.36L240.897 202.287L238.618 201.93L236.41 202.358L232.066 204.354L230.214 203.997L229.431 202.144L227.864 201.075L223.662 202.001L216.611 207.49L213.549 210.841L212.267 212.837L210.772 214.548L208.706 214.833L207.709 212.766L206.214 210.983L204.291 209.558L203.935 207.49L204.148 206.279L204.505 205.566L204.647 203.142L204.789 202.429L205.644 200.362L205.929 199.007L205.858 197.582L204.861 194.516L204.789 193.019L205.145 187.958L205.644 186.461L206.784 185.107L207.994 184.536L210.7 183.61L211.555 182.826L211.84 182.041L211.911 180.473L212.41 179.689L212.979 179.261L214.404 178.762L215.045 178.335L215.757 177.408L216.825 175.198L217.537 174.271L218.677 173.844L219.959 173.986L223.876 175.412L225.158 175.697H226.511L230.356 174.556H231.994L238.048 172.275L239.045 171.634L239.971 170.85L240.754 169.852L241.324 168.497L242.463 163.079L243.104 161.226L244.315 159.729L248.517 157.091L249.656 155.879L250.653 154.097L253.36 155.452L254.784 155.808L257.918 155.879L259.199 156.806L259.912 158.232L259.698 159.372L258.772 160.085L257.134 161.867L257.205 163.578L261.55 164.719L263.615 166.002L266.749 169.21L268.671 169.495L270.665 168.426L272.09 166.857L272.019 165.075L271.022 163.578L272.019 160.299L276.505 160.37L278.642 161.155L280.28 160.228L280.565 158.089L281.562 156.165L285.265 153.955L289.609 154.81L291.888 155.808L293.954 157.305L295.093 158.873L296.802 159.658L301.574 157.662L303.639 154.525L307.699 154.169L314.678 148.965L323.01 146.256L325.076 147.254L325.004 149.535L323.936 151.531L323.651 153.67L324.862 155.666L326.785 156.949L330.915 158.446L332.838 160.014L334.334 162.01L338.464 163.578L342.951 164.79L349.005 171.277L350.144 179.689L349.005 184.323L349.93 191.522L349.076 193.804L346.583 194.445L345.373 196.085L348.577 198.865L353.349 199.435L355.984 202.572L357.123 203.142L359.545 203.784L360.827 203.498Z" fill="#009649" stroke="white" stroke-width="2" stroke-linejoin="round"></path>
<path class="region" data-country-region="North Region" d="M247.876 332.384L251.508 332.241L253.716 332.526L256.351 332.099L255.853 334.166L254.357 338.015L257.206 343.077L257.491 346.997L256.565 355.837L255.853 357.69L254.784 359.401L254.072 361.825L254.001 364.32L254.499 364.463L255.924 363.821L257.918 362.538L259.556 360.97L262.618 359.187L274.583 355.124L276.577 354.91L286.975 355.766L295.378 354.981L297.087 355.267L296.803 358.688L296.945 361.825L297.657 364.89L299.438 367.457L301.147 369.239L302.358 371.377L302.571 373.516L302.429 380.431L303.355 387.63L304.067 389.983L305.99 390.981L308.269 390.696L309.764 391.765L308.553 393.832L307.841 395.543L307.699 397.468L306.631 402.315L304.209 406.379L296.304 410.727L295.378 413.08L295.165 415.788L293.598 416.287L291.675 415.361L289.182 413.293L286.903 412.153L284.909 410.371L282.061 410.157L279.853 411.297L278.001 412.794L276.15 413.436L275.01 414.434L271.663 418.925L268.672 421.634L263.758 425.127L261.479 427.836L258.915 429.903L257.419 429.19L256.494 427.836L256.066 427.479L255.639 425.555L253.645 426.838L252.078 430.046L248.09 433.824L246.666 436.675L245.384 442.521L243.39 444.445L241.894 444.73L240.327 444.374L239.045 444.303L238.476 444.445L238.404 442.663L237.194 439.313L236.98 436.746L237.194 429.119L236.838 425.982L236.909 424.984L237.55 422.632L239.116 419.281L239.259 418.782L239.188 416.145L239.259 415.503L239.757 414.149L240.042 411.012L240.754 408.802L241.039 407.733L240.754 406.022L239.829 403.955L239.686 403.456L238.119 402.957L237.336 402.529L237.194 401.46L236.553 400.676L235.627 399.963L234.06 400.105L231.639 401.103L228.719 401.674L227.935 400.533L227.65 399.393L226.867 398.323L225.514 394.973L224.018 393.618L222.808 393.476L220.6 394.046L219.176 393.975L217.538 392.05L215.544 390.696L214.689 389.983L214.048 388.914L212.909 389.199L211.698 389.912L208.992 391.052L206.285 391.123L204.79 389.056L205.431 386.419L205.003 385.064L203.08 384.423L203.294 383.282L202.297 382.64L201.086 382.854L200.089 382.355L196.386 378.292L193.395 373.658L193.822 371.306L192.042 370.522L187.27 371.377L184.564 370.593L179.935 368.312L178.938 367.457L178.154 367.528L176.16 365.746L175.306 363.179L175.733 360.613L177.442 358.475L178.795 357.69L178.867 356.336L178.012 355.694L176.873 355.552L174.736 355.766L172.599 356.265L170.961 357.263L169.822 356.835L169.751 354.269L170.961 352.629L170.463 348.993L166.546 346.57L164.125 344.36L163.555 343.219L162.487 342.364L161.632 341.295L159.852 337.873L160.35 335.877L167.116 327.394L169.751 324.97L172.101 325.897L175.092 328.891L181.003 331.101L186.843 332.455L195.033 332.883L201.585 334.38L203.579 333.952L204.79 332.526L205.359 330.744L206.285 324.542L208.707 316.273L211.199 312.994L213.834 312.495L214.831 312.566L215.259 312.923L217.466 314.42L218.677 314.634L219.603 315.133L220.386 315.917L221.811 318.412L221.953 319.98L222.879 321.905L223.377 322.404L223.734 323.473L223.876 325.255L224.659 328.107L226.013 330.887L226.44 331.101L232.28 335.592L232.992 336.376L235.342 340.083L237.55 342.506L238.262 342.863L238.333 343.219L239.188 344.003L239.401 344.36L240.398 343.291L240.754 341.722L241.467 340.225L242.179 339.655L243.033 340.154L243.318 339.156L243.176 337.802L244.102 336.875L245.312 336.447L247.093 334.736L247.876 332.384Z" fill="#009649" stroke="white" stroke-width="2" stroke-linejoin="round"></path>
<path class="region" data-country-region="East Region" d="M284.411 567.199L285.479 567.485L286.548 567.342L288.684 566.772L291.675 566.486L292.245 566.7L291.96 567.485L291.39 568.197L290.393 568.411L288.114 568.34L287.188 568.482L284.269 569.552L283.2 569.623L278.856 569.338L277.93 568.91L277.574 568.126L278.144 567.057L278.785 566.772L281.634 565.845L282.346 566.13L284.411 567.199ZM272.945 565.916L273.871 566.273L276.577 565.987L277.36 566.273L276.648 566.914L276.292 567.627L276.15 569.338L275.865 570.265L275.295 570.835L273.657 571.69L268.387 572.76L266.393 572.617L265.823 571.904L266.393 570.764L268.316 568.768L269.598 566.7L270.737 565.346L271.236 563.778L272.09 564.277L272.945 565.916ZM272.518 524.357L273.728 526.566L273.444 529.489L267.319 538.899L268.102 543.532L270.524 544.245L275.366 543.247L277.717 543.176L279.924 544.103L283.058 544.174L287.046 546.883L287.758 548.38L288.826 550.019L289.325 552.229L289.254 553.655L288.47 554.439L288.328 555.081L288.613 556.578V557.148L288.114 557.861V558.289L288.898 559.215L289.111 559.714L287.901 560.997L286.69 561.782L286.049 561.853L285.479 561.354H285.052L284.553 562.566L283.272 562.423L281.206 561.354L279.711 561.283L278.215 560.997L276.862 560.356L276.15 559.358L275.366 559.714H274.298L273.8 560.784L273.301 560.997V561.354L274.084 561.782L273.728 562.209L274.441 562.423L275.509 563.279L277.076 563.635L277.36 563.991L276.933 565.061L274.298 565.488L272.66 563.207L268.957 559.144L268.387 557.861V556.293L268.245 555.722H267.889L267.034 556.079L265.752 556.15L263.972 554.653L263.544 554.011L262.547 551.303L261.835 550.946L261.052 552.015L261.194 552.586L261.906 552.8L262.334 553.227L262.903 555.223L263.473 556.15L264.541 556.506L266.393 557.433L267.675 559.429L267.889 561.425L266.393 562.209L267.176 562.708L268.031 563.564L268.601 564.633L268.173 565.702L266.607 567.485L265.538 567.983L264.328 567.485V568.696L263.259 568.197L262.405 567.485L262.049 566.629L262.334 565.488L261.55 566.201L261.337 567.199L261.693 568.197L262.334 569.124L260.696 569.552H260.268L259.556 568.126L259.2 566.629L259.058 563.635L258.061 561.995L257.776 560.997L258.417 560.57L258.986 558.93L259.2 557.718L259.058 556.863L260.268 557.291L259.841 556.578L258.702 555.295L258.132 553.299L257.847 552.8L256.779 554.297H256.351L256.138 553.37L255.426 552.015L255.141 552.942L255.283 554.368L254.998 554.796L255.71 555.794L256.992 559.358L255.995 559.287L255.426 558.502L254.642 558.93L254.072 557.79L253.503 556.792L251.793 554.796L251.865 555.794L252.15 556.578L253.004 558.075L253.716 559.073L253.574 560.071L253.004 560.712L253.431 561.354L254.001 560.427L255.141 560.142L256.138 560.427L256.636 561.211L256.066 565.275L256.209 566.7L258.274 570.835L259.058 571.833L258.63 572.973L258.061 573.187L257.277 573.116L255.497 572.332L255.853 573.187L254.571 572.831L253.218 572.189L251.936 571.904L250.512 572.403L249.871 571.69L249.372 570.764L249.301 569.694L249.728 568.696L248.731 568.126L247.805 566.629L247.164 564.704L246.879 563.207L247.022 562.138L247.307 561.568L248.161 560.57L248.66 559.001L248.517 558.075L247.52 557.718L246.025 556.863L244.957 554.867L244.031 551.16L243.888 549.734L244.031 548.95L245.099 547.382L244.957 546.883L244.387 546.812L243.675 547.524L243.105 546.812L242.82 545.814L241.823 546.17L240.826 545.814L241.04 546.883L241.182 547.952L241.467 548.808L242.25 549.164L242.749 549.592L243.176 550.661L243.675 552.8L243.888 555.009L244.173 556.079L245.455 556.863L246.239 557.79L247.307 559.714L245.954 560.855L245.669 561.354L245.598 562.209L246.737 568.055L247.378 569.837L248.161 570.764L248.019 572.118L249.23 573.187L250.013 574.043L248.517 574.827L246.666 575.183L244.316 575.326L242.108 575.112L240.826 574.399L240.612 573.544L240.826 570.051L241.182 569.338L240.399 568.34V566.273L240.612 565.275L241.965 561.71L242.108 561.069L242.037 559.358L241.253 560.285L240.541 559.358L238.618 558.502L236.98 557.219L236.054 555.223L235.556 553.085L231.924 550.804L227.01 552.657L225.158 552.8L224.517 551.017L224.802 549.877L224.304 549.164L223.449 549.093L222.594 548.665L221.241 546.883L221.312 544.459L221.953 542.392L223.164 540.61L223.307 539.754L223.876 538.471L224.945 537.331L224.161 536.19L223.734 534.836V533.624L224.019 532.127L224.375 530.915L224.731 530.345L225.799 529.846L226.298 528.562L226.583 525.854L227.437 523.929L228.719 522.717L230.143 521.648L232.137 519.153L232.921 517.513L234.06 517.299L234.986 516.373L235.129 515.66L234.844 515.089L233.135 513.093L227.651 512.594L226.583 509.957L227.793 508.674L229.218 508.032L230.357 506.82L231.069 505.394L231.568 502.472L232.778 499.763L234.274 492.848L236.054 494.488L238.049 494.63L237.336 496.698L235.485 506.036L235.912 507.39L237.977 507.533L240.185 507.034L242.606 509.6L242.108 513.806L241.253 515.731L241.325 517.798L241.894 518.44L243.319 519.509L243.746 520.293L249.942 524.357L258.345 524.927L265.752 524.214L268.886 525.141L270.808 524.855L272.518 524.357Z" fill="#009649" stroke="white" stroke-width="2" stroke-linejoin="round"></path>
<path class="region" data-country-region="East Region" d="M241.253 560.284L240.897 560.712L239.971 563.207L239.615 565.916L239.971 567.912L239.757 568.411L239.615 570.336L239.045 568.981L238.832 568.197L238.689 564.562L238.404 563.777L237.906 564.562L237.122 565.061L237.479 565.916L237.55 568.696L237.763 569.623L238.476 570.906L238.974 572.118L239.544 574.114L239.615 574.827L239.117 575.468L238.547 575.682H236.695L235.057 575.825L234.701 575.468L234.06 573.544L233.918 571.69L233.989 568.981L233.704 566.843L232.849 565.274L230.998 565.488L232.707 566.772L233.277 568.839L233.063 571.263L232.28 573.615L232.137 575.611L229.217 576.253L225.799 575.967L224.161 574.827L222.594 575.254L223.021 576.324L222.024 576.68L220.529 576.823L219.461 577.108L218.321 577.607L215.615 577.678L214.404 578.106L213.051 576.466L214.262 573.9L218.107 569.552L216.469 569.338L216.042 569.552L213.977 571.975L213.692 568.768L212.766 565.845H212.41L212.339 567.057L212.481 568.554L212.695 570.051L212.125 569.908L211.413 569.338L210.345 569.124L210.986 570.478L211.627 571.405L212.054 572.403L211.983 573.971L211.555 575.183L211.128 576.039L209.917 576.823L209.989 577.678L210.772 577.393L211.627 577.678L211.271 578.249L209.561 578.819L207.425 578.89L205.929 578.534L205.075 579.318L204.149 578.961L203.579 578.391L203.437 577.536V576.466L203.721 575.468L204.505 574.043L204.647 573.187L203.437 573.615V572.688L203.65 571.049L202.44 570.835L201.727 570.55L200.944 570.763L200.802 571.334L200.944 572.26L201.443 573.615L201.158 574.399L201.941 575.754L202.226 576.68L202.083 577.963L201.585 577.892L200.944 577.25L200.018 576.894L198.736 576.823L198.238 576.538L198.167 574.399L198.594 574.114L197.739 572.759V570.763H197.383L196.956 572.759L195.745 571.975L196.6 573.971L196.813 574.969L196.101 575.682L195.247 575.54L194.321 574.969L193.11 573.971L191.899 573.544L190.546 572.474L189.834 571.049L190.475 569.552L189.834 569.48L189.193 570.122L188.908 570.763L187.911 569.765L185.49 568.411L185.205 567.698L186.416 568.34L185.988 567.556L185.276 567.199L183.567 566.7L182.356 565.274L181.858 564.704L180.291 563.065L179.935 562.779L174.38 557.647L172.742 555.294L172.172 552.799L173.027 553.227V552.087L170.463 550.518L169.751 549.306L169.466 548.38L167.97 545.813L169.323 546.312L168.825 544.887L166.973 542.748L165.335 538.115L164.766 535.334L164.481 534.408L163.697 532.839L163.412 531.984L163.056 530.487L162.273 529.418L162.059 528.491L162.344 527.778L163.056 527.493L163.982 527.564L164.908 527.849L165.549 528.42L166.617 529.917L167.329 530.344L166.404 527.992L168.042 529.346L170.321 530.843L173.027 531.77L176.018 533.41L177.157 534.265L178.582 534.479L179.65 534.336L180.576 534.408L182.712 533.267L184.706 531.841L185.846 531.485L186.914 530.986L188.054 530.63L189.122 530.843L190.974 530.487L192.612 529.632L194.534 526.851L195.318 526.495L197.312 528.277L198.594 528.99L199.805 529.56L201.371 529.774L202.368 529.204L204.078 526.851L204.576 526.638L206.713 527.065L207.496 526.923L208.707 525.853L210.202 525.426L210.843 525.069L211.128 524.428L211.057 523.929L210.487 523.002L210.345 522.36L210.843 520.935L211.911 520.507L214.404 520.578L215.472 520.293L215.615 519.937L215.757 518.368L216.042 517.798L217.039 516.729L218.179 515.873L219.104 515.588L226.796 514.376L227.722 513.877L227.651 512.594L233.134 513.093L234.843 515.089L235.128 515.66L234.986 516.372L234.06 517.299L232.921 517.513L232.137 519.153L230.143 521.648L228.719 522.717L227.437 523.929L226.582 525.853L226.297 528.562L225.799 529.845L224.731 530.344L224.375 530.915L224.018 532.127L223.734 533.624V534.835L224.161 536.19L224.944 537.33L223.876 538.471L223.306 539.754L223.164 540.61L221.953 542.392L221.312 544.459L221.241 546.883L222.594 548.665L223.449 549.093L224.303 549.164L224.802 549.877L224.517 551.017L225.158 552.799L227.01 552.657L231.924 550.803L235.556 553.085L236.054 555.223L236.98 557.219L238.618 558.502L240.541 559.358L241.253 560.284Z" fill="#009649" stroke="white" stroke-width="2" stroke-linejoin="round"></path>
<path class="region" data-country-region="North Region" d="M386.181 361.896L382.905 366.815L383.617 368.098L385.469 367.741L389.457 365.888L391.807 365.46L400.923 365.175L409.967 366.244L416.662 370.878L422.003 377.579L428.057 382.997L430.692 389.911L428.341 397.111L427.914 404.168L425.35 406.592L422.359 408.731L419.938 411.725L418.157 415.218L416.235 425.626L416.448 429.404L415.736 439.455L414.312 445.229H413.599L411.819 445.586L410.964 446.37L409.611 449.007L408.614 449.934L407.404 450.504L405.053 451.431L403.914 449.506L402.205 446.37L395.154 438.029L389.884 435.32L380.555 437.103L377.207 437.174L375.569 436.817L374.43 435.819L375 432.255L373.575 429.19L366.454 424.984L362.181 423.487L358.121 423.131L354.275 424.556L353.492 426.481L354.062 428.762L353.065 430.473L351.071 431.542L348.578 432.184L345.943 432.255L343.593 431.827H341.243L339.533 433.111L337.895 434.893L336.115 435.819L334.192 436.033L332.839 434.465L332.056 432.469L331.628 430.188L330.987 429.19L329.777 429.119L329.492 429.76L328.851 430.687H327.498L326.145 430.972L323.937 433.895L321.658 434.465H319.308L316.815 434.821L315.889 436.817L315.32 441.807L312.684 445.372L308.625 442.877L306.702 438.742L308.696 433.182V430.259L308.055 427.408L306.56 424.984L304.138 423.772L302.002 424.342L300.221 425.697L297.871 425.982L295.592 424.913L293.385 423.273L291.39 421.42L289.753 419.352L287.474 414.576L286.904 412.152L289.183 413.293L291.675 415.36L293.598 416.287L295.165 415.788L295.379 413.079L296.304 410.727L304.21 406.378L306.631 402.315L307.699 397.468L307.842 395.543L308.554 393.832L309.765 391.765L308.269 390.695L305.99 390.981L304.067 389.983L303.355 387.63L302.429 380.43L302.572 373.516L302.358 371.377L301.147 369.238L299.438 367.456L297.658 364.89L296.945 361.825L296.803 358.688L297.088 355.266L300.079 355.979L303.925 356.407L306.773 357.405L308.768 357.833L312.969 358.332L315.035 358.902L317.955 360.684L318.952 361.04L323.937 361.896L325.575 362.537L328.78 364.177L330.631 364.747L332.554 364.961L334.263 365.46L335.616 366.886L338.323 368.454L339.818 369.595L340.53 369.951L341.67 370.236L342.453 369.31L342.026 367.171L339.249 361.04L337.895 356.692L338.821 352.486L342.168 349.706L349.931 348.779L361.896 352.771L366.24 353.769L372.721 353.983L374.857 353.769V353.484L386.181 361.896Z" fill="#009649" stroke="white" stroke-width="2" stroke-linejoin="round"></path>
<path class="region" data-country-region="East Region" d="M405.053 451.431L404.697 451.503L402.987 452.643L401.207 456.136L399.498 457.134L397.148 457.205L396.293 457.633L395.509 458.56L393.8 462.124L392.305 464.263L384.186 470.821L378.702 476.524L377.491 478.377L376.708 479.233L375.782 479.732L375.426 480.088L375.284 481.799L375.07 482.583L374.073 482.726L372.791 482.227L371.509 482.084L370.512 483.011L369.658 484.08L367.592 485.435L366.951 486.433L367.094 487.645L367.735 488.571L368.233 489.641L367.948 491.138L366.951 492.421L365.883 493.205L365.385 494.06L366.168 495.557L367.379 496.698L368.732 497.767L369.8 498.908L370.441 500.547L370.156 501.973L369.301 503.114L368.162 504.183L367.236 505.323L366.88 506.607L367.165 508.959L367.236 510.242L366.809 511.525L365.527 514.092L365.171 515.517L365.242 516.301L365.741 517.727L365.812 518.369L364.245 526.495L363.818 527.208L361.824 527.921L361.183 528.563L360.043 530.345L359.687 531.129L358.833 533.766L358.263 534.907L357.408 536.19L355.058 539.897L354.702 540.966L353.064 542.107L352.565 543.034L352.779 544.317L353.135 546.028L352.138 546.954L351.568 546.384L351.07 546.313L350.571 546.527L349.432 547.667L348.577 549.806L348.435 550.946L348.791 551.873V552.372L348.292 553.299L347.58 553.584L345.942 553.228L345.088 553.299L344.66 553.156L345.444 551.588L345.586 550.946L344.803 550.875L343.663 551.445L342.88 551.588L341.099 550.946L341.028 549.307L341.598 547.168L341.883 545.101H341.527L341.099 547.097L339.817 548.166L338.108 548.024L336.541 546.669L337.04 545.814L336.541 545.743L335.402 545.101L335.616 544.245L335.188 543.604L333.55 542.392L332.055 541.537L331.699 540.539L331.058 539.255L330.63 538.756L329.277 538.258L328.565 537.616L327.639 536.475L327.283 536.832L330.559 539.968L331.343 540.966L332.838 543.818L333.123 545.172L332.126 545.814L333.123 547.596L333.764 548.38L334.619 548.95L333.906 548.808L331.628 547.097L324.719 539.826L322.583 536.832L320.945 533.838L320.161 530.559L320.589 523.287L319.592 522.147L316.957 520.436L315.461 520.08L311.971 520.65L310.761 519.723L310.12 518.654L309.123 516.088L310.761 514.234L313.61 514.733L314.322 512.666L311.473 507.177L310.12 500.904L310.618 497.553L309.621 494.844L309.835 493.347L310.405 491.922L311.331 490.852L312.114 489.641L311.9 488.286L311.971 486.86L312.826 486.076L314.891 482.797L315.675 480.16L314.678 478.306L315.39 476.809L317.811 476.025L320.019 476.667L321.159 479.375L322.654 479.304L323.794 478.235L326.5 476.952L327.426 475.811L328.209 474.528H329.776L331.485 475.312L332.482 473.744L333.55 469.253L334.69 467.471L336.043 465.688L339.39 462.338L339.889 458.275L338.749 456.493L339.177 454.497L342.88 452.429L342.666 450.505L341.456 448.936L340.815 447.297L340.53 445.443L339.533 444.303L339.319 443.661L338.892 443.091L337.325 441.95L335.046 439.313L334.191 436.034L336.114 435.82L337.895 434.893L339.533 433.111L341.242 431.828H343.592L345.942 432.255L348.577 432.184L351.07 431.543L353.064 430.473L354.061 428.762L353.491 426.481L354.275 424.557L358.12 423.131L362.18 423.487L366.453 424.984L373.575 429.19L374.999 432.255L374.429 435.82L375.569 436.818L377.207 437.174L380.554 437.103L389.883 435.321L395.153 438.03L402.204 446.37L403.913 449.507L405.053 451.431Z" fill="#009649" stroke="white" stroke-width="2" stroke-linejoin="round"></path>
<path class="region" data-country-region="East Region" d="M289.254 477.95L289.325 481.443L288.826 485.292L292.316 487.074L300.933 487.145L304.138 488.642L304.566 490.71L305.563 492.563L307.485 494.06L309.622 494.844L310.619 497.553L310.121 500.904L311.474 507.177L314.322 512.666L313.61 514.733L310.761 514.234L307.699 511.81L304.352 509.957L302.358 506.82L299.438 504.753L297.159 504.397L295.592 505.537L295.948 509.601L294.524 512.88L294.453 513.664L295.877 514.092L296.518 515.232L296.162 516.373L294.453 517.513L291.39 517.086L288.755 517.798L288.684 519.01L289.254 520.08L289.396 521.22L288.542 524.998L288.328 527.565L288.684 530.345L288.328 532.982L286.405 534.907L285.052 537.046L285.835 539.968L285.479 541.038L285.337 542.036L286.619 544.388L287.046 546.883L283.058 544.174L279.924 544.103L277.717 543.176L275.366 543.247L270.524 544.245L268.102 543.533L267.319 538.899L273.444 529.489L273.728 526.567L272.518 524.357L276.862 511.81L279.141 509.315L279.853 507.818L280.352 506.25L281.206 505.038L281.634 503.612V501.973L281.349 500.333V498.694L280.921 497.197L280.28 496.056L280.779 495.201L281.42 492.492L280.636 485.791L278.358 483.724L276.72 483.367L273.728 481.87L272.446 480.73L275.224 477.237L279.212 475.098L279.711 475.597L282.559 475.169L285.408 475.027L289.254 477.95Z" fill="#009649" stroke="white" stroke-width="2" stroke-linejoin="round"></path>
<path class="region" data-country-region="East Region" d="M310.761 514.234L309.123 516.087L310.12 518.654L310.761 519.723L311.972 520.65L315.462 520.079L316.957 520.436L319.592 522.147L320.589 523.287L320.162 530.558L320.945 533.838L322.583 536.832L324.72 539.826L331.628 547.097L333.907 548.808L334.619 548.95L334.975 549.235L335.83 551.802L336.542 552.8L335.901 554.51L335.83 555.081L336.043 555.865L337.325 556.435L337.824 556.863L338.037 558.289L337.112 559.144L335.901 559.786L335.402 560.784L334.548 562.566L333.408 562.993H330.845L327.497 562.566H322.37L319.948 562.209L318.809 562.281L316.815 563.279L315.675 563.421H313.04L302.927 564.633L302.358 564.277L301.645 564.205L300.933 564.419L300.506 565.061H301.645L302.5 565.488L301.218 565.774L299.295 565.916L297.586 565.631L296.803 564.847L295.948 564.633L290.749 564.277L291.176 563.635L290.749 563.207L289.61 563.279L289.467 562.566L289.681 562.209L290.464 561.639L290.749 560.997L289.467 559.358L289.895 558.502L289.04 557.504L289.254 556.007L290.322 553.227H289.895L289.254 553.655L289.325 552.229L288.826 550.019L287.758 548.38L287.046 546.883L286.619 544.388L285.337 542.035L285.479 541.037L285.835 539.968L285.052 537.045L286.405 534.907L288.328 532.982L288.684 530.345L288.328 527.564L288.541 524.998L289.396 521.22L289.254 520.079L288.684 519.01L288.755 517.798L291.39 517.085L294.452 517.513L296.162 516.372L296.518 515.232L295.877 514.091L294.452 513.664L294.524 512.879L295.948 509.6L295.592 505.537L297.159 504.396L299.438 504.753L302.358 506.82L304.352 509.957L307.699 511.81L310.761 514.234Z" fill="#009649" stroke="white" stroke-width="2" stroke-linejoin="round"></path>
<path class="region" data-country-region="East Region" d="M272.518 524.356L270.809 524.855L268.886 525.141L265.752 524.214L258.346 524.927L249.942 524.356L243.746 520.293L243.319 519.509L241.894 518.44L241.325 517.798L241.253 515.731L242.108 513.806L242.607 509.6L240.185 507.034L237.977 507.533L235.912 507.39L235.485 506.036L237.337 496.697L238.049 494.63L241.966 491.422L246.595 490.139L249.159 491.209L251.509 490.567L253.788 485.791L254.571 483.224L256.85 481.87L259.485 481.229L262.191 480.943L267.604 482.084L270.025 481.3L272.447 480.729L273.729 481.87L276.72 483.367L278.358 483.724L280.637 485.791L281.42 492.492L280.779 495.201L280.281 496.056L280.922 497.197L281.349 498.694V500.333L281.634 501.973V503.612L281.206 505.038L280.352 506.25L279.853 507.818L279.141 509.315L276.862 511.81L272.518 524.356Z" fill="#009649" stroke="white" stroke-width="2" stroke-linejoin="round"></path>
</svg>