<svg width="794" height="575" viewBox="0 0 794 575" fill="none" xmlns="http://www.w3.org/2000/svg">
<path class="region" data-country-region="East Region" d="M609.224 133.383L610.119 139.648L609.821 140.543L609.672 143.079L609.373 144.272V145.167L609.821 146.211L610.417 147.106L611.611 148.598L612.655 150.09L612.953 150.686L612.655 151.88L612.357 152.775L613.252 154.416V155.758L612.953 156.504L611.909 157.399L611.76 157.996L611.909 159.487L611.462 160.233L610.716 160.979L609.821 161.427L607.136 162.62L606.837 163.217V163.963V165.305L606.539 165.902L606.241 166.051L605.047 165.753H604.6L604.152 166.051L603.854 166.648L602.81 168.885L600.721 172.316L599.975 173.062L598.931 173.509L597.738 173.659L596.097 173.36L593.86 172.614L591.92 171.719L588.042 169.333L586.849 168.885L586.103 169.034L585.804 169.78V170.526V171.57L585.506 172.316L584.909 172.913L582.075 174.554L581.329 175.299L580.733 175.896L580.583 176.642L580.882 177.388L581.926 177.984L582.821 178.134L583.716 178.581L584.76 179.476L587.147 182.609L588.191 184.548L588.639 185.145L589.832 185.89L590.578 186.487L591.025 187.382L591.771 189.62V190.813L591.473 191.708L590.279 193.349L589.683 194.393L588.937 195.885L588.49 197.526L588.34 198.868L589.086 201.702L588.937 202.896L586.849 207.968L586.103 209.161L585.357 210.205L584.462 210.951V211.697L585.506 212.443L587.594 212.741L589.832 212.592L591.473 212.144L592.965 211.548L593.263 211.398L594.904 210.951L595.948 210.205L609.97 203.492L613.102 202.299L613.848 202.001L615.042 200.509L617.13 196.183L621.158 192.454L622.351 191.857L623.544 191.111H624.738L625.334 191.559L625.633 192.156L625.185 193.051L624.439 194.095L620.113 198.122L619.069 199.614L618.473 201.106L618.323 202.448L618.622 203.94L619.218 204.686L620.113 205.133L620.859 205.432L621.605 205.73L625.633 208.564L627.124 209.161L630.854 209.758L632.047 210.056L632.495 210.503L632.644 211.1L632.047 211.846L630.555 213.338L630.257 213.785L630.704 214.531L631.152 214.979L631.898 216.023L631.152 217.962L616.384 219.006L615.042 219.304L614.147 219.603L613.102 220.349L611.163 221.542L602.661 224.078L600.274 224.525H597.141L596.246 224.824L595.202 225.57L587.296 229.15L582.97 229.597L581.777 229.746L580.733 230.343H579.688H578.793L577.6 230.045H576.407L575.363 230.343L574.02 230.492L573.274 230.94L571.484 231.984L570.291 232.282L568.501 232.879L567.606 233.326L564.175 235.713L562.086 236.757L560.744 237.056L559.7 236.757L558.805 236.31L558.059 236.011L557.462 236.161L557.164 236.459L556.716 237.652L556.12 238.1H555.374L553.584 237.205L552.241 236.906H550.004L543.739 237.951L541.203 238.1L536.728 237.801V235.713L536.429 234.967L535.833 234.371L532.849 233.923L531.507 233.476L530.612 231.685L530.313 231.238L528.672 231.387L528.374 231.238L527.778 229.895L527.479 229.448L526.584 229.597L525.092 230.045L524.347 229.895L522.407 229.448L521.214 229.597L520.17 229.746L517.037 231.685H516.441L516.142 231.238L516.441 230.343L517.336 228.702L517.485 227.807L517.634 226.614V222.437L517.336 221.094L516.441 219.454L514.203 216.918L512.413 213.785L510.921 213.039L508.833 212.592L508.236 212.144L507.938 211.548L508.087 210.951L509.28 210.205L509.579 209.608L509.877 208.863V207.52L510.026 206.625L510.474 205.432L511.369 204.089L512.413 202.15L512.711 200.509L512.562 198.57L512.115 195.437L511.22 192.305L511.071 191.261L511.816 189.023L513.756 188.128L514.8 187.83L517.037 187.382L517.783 186.935L518.38 186.189L518.678 184.995L518.976 182.609L519.424 181.415L520.319 180.222L521.96 178.581L523.004 177.239L523.75 175.449L523.899 174.255V173.36L524.048 172.465L524.496 171.421L525.54 169.631L525.987 168.438L526.137 167.543L524.794 165.007L525.242 163.813L526.286 162.023L528.672 158.742L529.866 156.653L530.463 154.565L530.761 146.51L530.612 145.615L530.761 144.869L531.358 144.272L532.998 143.974L535.087 143.228H535.833L536.578 143.526L537.474 144.421L537.921 144.571H538.667L539.711 144.123L540.457 143.377L541.501 141.587L541.949 139.946L542.396 139.797H543.142L545.081 140.394L545.976 140.245L546.424 139.946L547.319 138.305L547.915 137.858L548.363 137.56L548.81 137.112L549.109 136.217L549.258 133.83L549.556 133.084L550.153 132.488L553.435 131.444L559.7 128.162L560.744 127.416L561.937 125.328L565.816 126.372L566.711 126.819V127.416L566.263 128.162L566.114 129.504L566.711 132.339L567.307 134.129L568.501 134.874L570.142 135.173L578.943 135.471L581.479 136.068L582.523 136.515L583.567 137.112L584.164 136.963L585.059 136.366L586.998 134.278L587.893 133.681L589.534 133.532L590.279 133.234L590.876 132.786L591.473 131.891L592.219 131.593L593.412 130.698L594.605 130.25L595.053 130.549L595.5 131.145L595.65 132.189L596.395 133.234V133.532L595.948 135.024V135.471L596.246 136.217V137.112L595.948 138.156V138.753L596.097 139.35L596.992 139.648L601.02 140.543L602.511 140.692H603.556L604.749 139.946L605.196 139.2L606.241 137.261L606.837 136.068L609.224 133.383Z" fill="#009649" stroke="white" stroke-width="2" stroke-linejoin="round"></path>
<path class="region" data-country-region="West Region" d="M323.862 291.802L324.757 295.68L327.293 299.857L331.917 302.542L338.928 304.332L344.149 307.465L347.282 310.448L350.713 315.818L350.564 323.575L349.072 332.674L345.193 338.641L340.868 341.177L333.26 342.967L327.89 346.994L321.476 353.11L318.79 349.829L311.481 342.967L308.647 341.923L305.962 340.729L303.128 340.878L298.354 339.238L296.713 338.492L292.984 335.21L291.045 334.464H289.702L288.658 334.315L287.912 333.42L287.465 330.437L286.719 329.094L285.376 327.006L284.034 325.812L280.752 323.127L280.006 321.636L279.857 320.741L280.156 320.442L280.901 320.591L281.647 321.636L283.885 322.232H284.929L285.526 322.531L285.973 324.022L287.017 325.216H289.255L292.387 324.022L297.012 320.442L300.443 318.652L303.575 315.072L304.321 309.851L302.978 307.166L302.382 304.332L302.083 303.586L302.382 302.691L303.426 302.542L304.619 301.796L304.918 299.708L304.619 297.47L302.233 287.923L300.293 282.553L299.548 281.211L298.652 280.166L297.608 278.526L297.161 277.183L299.548 276.736L301.188 276.885H301.785L303.128 276.437L309.393 276.736L311.183 276.437L314.315 275.393H315.807L318.492 275.691L319.685 276.437L320.133 277.183L319.984 278.526L320.133 279.122L321.326 280.166L321.625 280.912L321.774 281.658L321.476 284.343L321.326 284.791L320.282 286.432L319.685 288.072V288.818L319.835 289.713L320.58 290.608L322.072 291.354L323.862 291.802Z" fill="#009649" stroke="white" stroke-width="2" stroke-linejoin="round"></path>
<path class="region" data-country-region="East Region" d="M789.57 185.294L788.078 185.444L787.78 184.698L787.929 183.653L787.481 183.206L786.288 183.504H785.244L782.111 182.609L780.769 182.013L779.277 181.714L778.68 181.118L778.233 179.477L777.785 178.731L777.338 178.433H775.995L775.25 178.283L774.355 177.687L773.31 177.239H769.283H767.94L765.106 176.344L763.465 175.002L762.868 173.808L762.719 172.913L762.272 172.167L761.228 172.615H760.929L760.482 171.571L760.034 171.123L758.99 170.527L757.051 169.632L756.007 169.035L755.112 168.587L754.217 168.737L753.471 169.035L752.128 169.482H751.084L750.04 168.886L749.443 168.289L748.697 167.096L748.25 166.499L747.504 165.902L746.758 165.753L744.968 166.35L743.924 166.499H741.836L741.09 166.648L740.195 166.946L739.449 167.096L738.405 166.797L737.361 166.051L736.167 165.306L734.526 165.007L731.692 164.858L730.2 165.306L729.156 165.753L728.858 166.797V168.14L729.604 175.449L730.051 176.493L730.648 177.538L730.499 177.836L730.051 178.134L729.007 177.985L726.919 177.836L724.979 177.388L722.891 176.195L719.311 173.659L717.521 172.764L717.073 172.167L716.775 170.079L716.328 168.886L715.731 167.991L715.283 167.543L706.93 166.946L700.068 167.543L699.322 167.841L697.383 168.737L694.549 169.632L693.803 169.93L690.223 172.615L688.135 173.51L687.09 172.764L686.494 171.422L685.151 170.974L681.571 171.123L679.93 170.377L675.306 166.797L673.367 164.261L671.278 164.858L669.339 166.051L668.295 164.709L667.847 163.963L667.102 163.068L662.179 159.488L661.135 158.593L659.494 156.057L658.748 155.162L657.107 152.775L656.809 151.433L656.362 150.687L653.676 148.3L644.577 137.411L643.682 135.919L643.085 135.173L641.892 134.428L640.549 134.129L638.312 134.428L636.969 135.024L635.627 135.621L634.583 136.367L633.389 137.113L631.45 137.411L629.213 137.262L624.29 135.919L622.649 135.621L621.307 135.919L620.262 136.218L619.218 136.516L618.323 136.218L615.638 134.428L613.251 133.234L611.76 132.787L610.566 132.488L609.224 133.383L606.837 136.068L606.241 137.262L605.196 139.201L604.749 139.947L603.555 140.693H602.511L601.02 140.543L596.992 139.648L596.097 139.35L595.948 138.753V138.157L596.246 137.113V136.218L595.948 135.472V135.024L596.395 133.533V133.234L595.65 132.19L595.5 131.146L595.053 130.549L594.605 130.251L593.412 130.698L592.219 131.593L591.473 131.892L590.876 132.787L590.279 133.234L589.534 133.533L587.893 133.682L586.998 134.278L585.058 136.367L584.163 136.963L583.567 137.113L582.523 136.516L581.478 136.068L578.943 135.472L570.141 135.173L568.501 134.875L567.307 134.129L566.711 132.339L566.114 129.505L566.263 128.162L566.711 127.417V126.82L565.816 126.372L561.937 125.328L560.744 125.03L560.445 124.732L560.147 123.389L559.849 122.494L559.103 121.599L557.91 120.853L556.716 120.555L555.374 120.107L553.136 118.914H552.241L551.197 118.616L550.153 118.317L549.705 118.019V117.571L551.943 113.842L554.926 110.56L556.269 109.815L557.164 109.516L557.91 109.069L558.357 108.472L559.998 106.235L561.639 104.295V103.699L560.296 103.251L560.147 102.207L560.744 101.163L563.578 97.5827L565.517 95.196L565.816 94.1518L565.666 92.9584V92.2126L565.816 90.7209L566.263 89.6767L567.009 88.3342L573.125 80.5774L573.871 79.8315L577.152 77.4448L577.749 76.8481L578.048 76.2515L577.898 75.5056L577.302 74.6106L576.257 73.8647L575.959 72.8205L576.108 71.9255L576.705 71.1797H577.6L578.346 71.3289L579.688 71.7764L580.583 71.9255H582.97L583.418 72.0747L585.208 72.6714L586.699 72.373L589.832 69.9863L590.13 69.5388H590.578L594.307 70.4338L595.5 74.7598L595.948 84.0083L596.843 86.9916L597.141 89.6767L598.185 91.9142L600.572 93.8534L603.555 94.8976L613.102 96.8368L614.743 97.4335L616.086 98.1794L617.428 98.4777H619.367L623.842 96.6877L625.334 96.3893L628.467 97.2843L631.749 101.014L634.434 101.909L638.014 102.058L639.058 102.207L640.549 102.654L641.445 103.4L643.384 105.339L644.875 106.384L646.218 106.831L647.56 106.98L653.676 106.085H654.87L658.002 107.577H659.345L659.047 103.997L660.24 103.549L663.223 104.444L667.549 104.892L668.892 105.19L670.234 106.235L672.621 108.472L674.262 109.069L675.604 108.92L677.842 107.726L686.643 106.682L688.284 105.638L687.389 99.6711L687.538 93.1076V92.5109L688.433 92.6601L690.223 92.5109L691.267 92.3617L692.013 92.0634L694.251 89.3784L696.786 87.4392L697.831 87.1408L698.726 87.5883L701.112 90.2734L702.902 91.3176L704.543 92.0634L706.482 92.5109L708.72 92.6601L710.659 92.5109L711.703 92.6601L712.3 92.9584L712.897 93.8534L713.344 96.2402L713.792 96.986L715.433 96.8368L717.67 96.2402L719.759 95.9418L720.504 97.2843L720.952 98.3285L726.919 105.787L727.366 106.98L727.814 108.621L728.709 110.113L730.946 112.201L736.316 115.483L737.062 116.676L740.642 119.361L743.178 120.704L744.521 121.301L746.311 121.748L748.25 121.897L750.338 121.748L754.068 120.853L755.857 120.704L757.498 121.151L758.99 122.494L760.034 123.687L761.078 124.284L762.57 124.881L766.747 128.61L771.968 131.742L774.056 132.488L775.846 133.682L780.769 134.726L786.437 136.814L788.078 137.709L787.034 139.052L784.946 140.543L783.752 141.14L782.708 141.439L781.216 141.588L778.233 141.14H777.487L775.1 142.781L772.714 142.483L766.598 139.201L765.255 138.903H764.062L762.57 139.052L761.078 138.753L759.438 138.157L757.946 137.709L756.603 138.157L756.156 139.648L756.603 141.588L757.349 143.378L758.244 144.273L758.99 144.422L760.929 144.273L761.824 144.422L762.868 145.168L764.808 146.809L765.852 147.405L767.791 148.002L769.134 148.897L770.178 150.24L773.012 160.234L774.653 163.963L777.189 167.543L778.83 169.035L779.874 169.781L780.769 169.93L781.813 169.781L782.41 170.079L782.708 170.527L786.139 173.212L786.586 173.659L787.034 174.703L787.332 175.151L787.78 175.3L788.675 174.852L788.973 175.002L790.017 176.493L790.316 178.134L790.017 181.714L790.166 182.311L790.465 183.653L790.316 184.548L789.57 185.294Z" fill="#009649" stroke="white" stroke-width="2" stroke-linejoin="round"></path>
<path class="region" data-country-region="West Region" d="M563.578 97.5826L560.744 101.163L560.148 102.207L560.297 103.251L561.639 103.699V104.295L559.998 106.234L558.358 108.472L557.91 109.069L557.164 109.516L556.269 109.815L554.927 110.56L551.943 113.842L541.651 110.71H540.159L539.115 111.306L537.026 112.947L535.535 113.842L531.507 115.781L529.12 116.229L526.883 116.378L524.496 115.632L522.855 114.886L521.513 113.842L519.573 112.201L518.678 111.455L517.783 111.306L516.739 111.754L515.247 113.245L514.651 113.395L514.502 112.947L514.651 112.35L515.098 110.859L515.247 109.964L515.098 108.919L514.8 108.024L514.203 107.279L512.712 106.682L510.325 106.384L505.701 106.682L500.927 107.577H499.734L497.795 108.024L493.17 108.621L492.275 108.919L491.082 109.069H489.143L480.193 107.129L478.104 106.98L470.497 107.875L466.917 108.919L465.127 109.069L463.933 109.367L462.591 109.516L461.099 109.069L459.756 108.472L458.861 107.875L457.37 104.444L459.011 104.594L459.458 104.444L460.353 103.549L463.337 98.9252L465.127 96.8368L466.171 96.3893L466.32 96.0909V95.1959L467.066 93.8534L468.11 92.66L469.154 91.765L470.795 90.7208L471.839 90.4225L472.883 90.2733L475.568 91.1683L478.701 91.4667L479.745 91.9142L481.535 92.3617L483.176 92.5109L484.071 92.8092L484.668 93.2567L485.861 94.4501L486.607 94.8976L487.204 95.1959L487.8 95.0467L488.397 94.7484L489.889 93.7042L491.38 92.0634L494.364 88.185L497.347 85.0524L498.54 83.2624L499.286 82.5165L502.121 80.4281L503.016 80.1298L503.761 79.9806L505.104 80.279H505.999L507.342 80.1298L508.087 79.8315L508.833 79.2348L509.281 78.6381L509.579 77.4447L509.43 76.1022L508.684 74.6105L506.297 71.7763L505.85 70.8813L505.402 69.8371L504.806 67.3012L504.358 66.4062L501.673 61.4836L501.524 60.7378L501.673 60.1411L502.568 59.6936L503.314 59.5444L505.104 59.3952L505.701 59.0969L506.297 58.7986L507.043 58.0527L507.64 57.0085L507.938 55.8152L507.789 54.1743V50.7434L508.982 51.3401L510.772 51.9368L514.054 52.2351L515.098 52.3843L515.844 52.981L517.336 54.3235L521.364 57.0085L524.198 59.3952L526.286 61.9311L528.673 65.9587L532.104 70.2846L533.894 75.5055L534.043 76.2514L533.894 78.7873L534.043 80.4281L534.49 81.9198L535.535 83.2624L538.816 84.0082L539.413 84.6049L540.606 85.2016L542.396 85.6491L543.888 85.7982L547.021 86.5441L551.048 88.9308L554.628 91.4667L558.805 93.7042L559.849 94.4501L561.341 96.3893L563.578 97.5826Z" fill="#009649" stroke="white" stroke-width="2" stroke-linejoin="round"></path>
<path class="region" data-country-region="West Region" d="M511.816 189.024L511.071 191.261L511.22 192.305L512.115 195.438L512.562 198.57L512.711 200.51L512.413 202.151L511.369 204.09L510.474 205.432L510.026 206.626L509.877 207.521V208.863L509.579 209.609L509.281 210.206L508.087 210.952L507.938 211.548L508.236 212.145L508.833 212.592L510.921 213.04L512.413 213.786L509.877 216.023L509.43 216.769L508.982 217.664L508.684 218.559L508.535 219.454V221.095L507.49 222.885L506.745 223.78L505.551 224.228L503.463 224.377L502.27 224.078L501.524 223.482L501.076 223.034L499.883 222.288H498.839L497.944 222.438L497.049 223.333V224.973L496.75 225.719L496.004 226.167L495.259 226.465L492.872 226.614L491.977 226.913L489.888 228.703L488.397 229.449L487.054 229.747L484.817 229.598L480.64 228.703L478.999 228.852L477.358 229.15L475.121 229.896L472.734 231.984L470.198 232.879L467.662 232.134L466.618 232.283L465.126 233.029L462.74 235.117L461.099 235.564L459.16 235.714L457.071 235.117L455.281 234.371L452.745 232.581L451.701 231.388L451.104 230.791L449.911 230.642H448.718L446.182 230.94L444.093 231.537L437.53 234.819L433.502 235.117L432.906 232.283L430.519 229.15L429.773 227.808V225.719L429.922 223.482L431.265 217.217L431.116 215.725V214.084L431.414 212.592L432.607 209.46L433.353 208.117L434.248 207.222L435.292 206.476L436.337 205.581L438.723 201.106L439.469 200.36L440.215 199.615L441.707 198.72L442.303 197.974L443.646 195.587L449.762 181.267L450.657 177.239L451.999 179.328L452.894 179.924L453.491 180.223H454.237L455.132 179.775L455.878 178.433L456.176 177.239L456.624 176.792L457.22 176.344L458.861 175.748L459.16 175.449V175.002L458.712 173.51L458.265 172.913L457.519 172.317L456.027 171.72L455.43 170.825L456.624 168.587L457.817 165.902L458.563 165.007L460.353 164.112L461.099 163.366L461.397 162.024L462.143 160.831L462.889 160.234L463.933 160.085L464.828 159.041L465.276 158.891L466.021 159.488L466.32 160.085V161.129L466.618 161.726L469.9 166.051L471.242 168.438L472.286 170.079L472.585 170.825L473.181 173.062L473.48 174.107L474.673 175.151L480.342 179.029L481.833 181.118L482.728 183.057L482.877 184.549L483.176 185.444L483.773 186.189L484.369 186.488L485.115 186.339L487.502 184.549L488.248 184.25L488.993 183.952L490.187 183.355L491.231 182.609L492.275 182.162L493.021 182.013L494.214 183.206L494.811 183.504L495.706 183.206L498.093 181.863L498.988 181.714H500.33L502.419 182.013L503.612 181.863L506.148 182.908L511.816 189.024Z" fill="#009649" stroke="white" stroke-width="2" stroke-linejoin="round"></path>
<path class="region" data-country-region="West Region" d="M495.705 333.718V334.613L496.899 335.359L502.418 337.746L503.76 338.79L504.357 339.834L504.059 341.624L504.208 346.696L503.76 348.337V350.127L503.611 350.872L503.313 351.618L501.075 354.9L500.18 355.944L499.584 356.392H498.987L498.39 355.944H497.048L493.766 358.182L492.871 359.077L492.424 359.972L492.275 361.016L491.827 362.209L490.484 363.254L489.44 363.552L487.352 363.999L486.457 364.596L484.816 366.088L483.623 366.983L482.728 367.43H481.982L480.341 367.132L479.148 366.983L478.253 367.43L477.507 368.176L476.91 369.071L476.612 369.817L476.91 370.861L477.208 371.756V372.353L477.059 373.099L476.761 373.546L475.12 375.635L474.672 376.38V377.126L474.822 378.469L474.672 379.066L474.374 379.215L472.882 378.916L472.286 379.066L470.496 379.364H469.153L465.871 379.066L464.529 378.618L464.081 377.723L463.634 375.485L463.336 374.59L462.739 373.695L460.8 371.756L459.159 370.563L456.623 367.281L455.43 366.088L454.087 364.894L453.043 364.149L451.999 363.701L451.402 363.85L450.955 364.298L450.358 365.491L449.91 366.088L449.164 366.684L447.374 367.43L446.629 367.878L446.181 368.475L446.032 370.115L445.734 370.712L444.839 371.309L443.794 371.01L442.601 370.265L434.695 362.06L433.949 361.016L433.054 359.077L432.308 358.182L430.817 357.287L428.579 356.988L427.386 356.69L426.491 355.795L424.999 352.215L423.955 351.171L422.612 350.276L419.629 350.127L417.093 350.872L415.005 351.917L413.662 351.768L412.916 351.171L412.767 349.977L417.69 345.353L420.673 343.414L420.822 342.967L420.076 341.624L420.226 340.878L420.673 340.132V338.044L421.419 336.851L422.314 335.956L424.85 334.016L426.043 333.42L427.087 332.972L437.529 331.033L439.319 330.585L441.408 329.69L443.347 328.497L444.689 327.602L446.032 325.961L446.778 324.022L447.225 326.409L447.971 327.751L448.568 328.05L449.463 328.646L449.91 328.945L450.358 330.287L450.805 331.033L452.297 331.928L453.043 332.674L455.877 336.701L457.22 337.895L458.413 338.79L460.352 339.536L462.142 340.729L463.186 341.326L465.275 341.475L467.811 341.326L470.645 340.58L473.628 339.088L475.12 337.746L477.208 335.657L479.446 334.911L482.728 334.166L493.915 332.823L495.705 333.718Z" fill="#009649" stroke="white" stroke-width="2" stroke-linejoin="round"></path>
<path class="region" data-country-region="West Region" d="M467.364 15.2407L466.171 17.6274L464.082 16.5832L463.187 17.6274L462.143 18.3732L460.353 17.0307L459.01 15.539L458.712 13.8982L460.055 11.959L467.066 6.14134L467.215 7.63304L467.662 8.67722V11.6606L467.364 15.2407ZM504.656 22.6992L503.165 24.1908L503.015 24.7875V25.9809L503.165 27.6217L503.314 30.456L502.717 32.3952L500.629 35.8261L500.032 37.4669L499.584 42.5387L499.883 44.1796L500.629 45.6713L501.971 47.1629L503.015 47.0138L504.358 47.9088L505.999 49.5497L507.341 50.5938L507.789 50.743V54.1739L507.938 55.8148L507.64 57.0081L507.043 58.0523L506.297 58.7982L505.7 59.0965L505.104 59.3948L503.314 59.544L502.568 59.6932L501.673 60.1407L501.524 60.7374L501.673 61.4832L504.358 66.4058L504.805 67.3008L505.402 69.8367L505.85 70.8809L506.297 71.7759L508.684 74.6101L509.43 76.1018L509.579 77.4444L509.28 78.6377L508.833 79.2344L508.087 79.8311L507.341 80.1294L505.999 80.2786H505.104L503.761 79.9802L503.015 80.1294L502.12 80.4277L499.286 82.5161L498.54 83.262L497.347 85.052L494.364 88.1846L491.38 92.063L489.888 93.7038L488.397 94.748L487.8 95.0464L487.203 95.1955L486.607 94.8972L485.861 94.4497L484.667 93.2563L484.071 92.8088L483.176 92.5105L481.535 92.3613L479.745 91.9138L478.701 91.4663L475.568 91.1679L472.883 90.2729L471.839 90.4221L470.795 90.7204L469.154 91.7646L468.11 92.6596L467.066 93.853L466.32 95.1955V96.0905L466.171 96.3889L465.126 96.8364L463.336 98.9248L460.353 103.549L459.458 104.444L459.01 104.593L457.369 104.444L456.027 102.803L454.834 102.057L445.436 99.9689L443.198 100.118L441.11 99.9689H439.768L438.723 100.118L436.187 101.908L435.292 102.356L434.099 102.803L433.353 103.251L431.414 104.892L430.221 105.637L428.431 106.383L427.685 106.98L427.088 107.577V108.173L427.386 108.77L429.773 110.411L431.116 111.753L431.414 112.35V112.798L431.116 113.394L430.071 115.035L429.027 117.571L427.834 119.659L426.044 123.985L425.596 125.029L424.403 126.223L423.21 126.67L420.823 127.267L420.077 127.714L418.436 128.311L418.287 128.759L418.436 129.206L419.331 130.549L419.779 130.847L420.525 130.698L421.121 131.145L420.972 131.742L420.525 132.04L419.928 132.637H419.63L418.884 132.04L417.243 131.145L414.707 130.549L409.188 129.803L407.398 129.355L405.608 129.505L404.116 127.118L403.818 126.67V125.626L403.519 124.731V124.134L404.116 123.239L404.713 122.941L405.16 122.494L405.309 121.449L405.608 120.704L407.994 118.168L407.547 117.571H406.95L405.757 117.123L403.967 115.483L403.37 114.886L402.624 114.438L402.177 114.737L401.133 115.333H400.685L400.387 114.588L400.238 113.096L399.939 112.648L399.193 112.798L398.298 113.096L397.403 112.798L396.061 111.604V111.007L397.702 108.621L398.149 108.024L399.044 106.831L399.641 106.532L400.238 105.936L400.536 105.339L400.387 105.041L399.939 104.444L395.763 101.908L395.166 101.311L395.017 100.566V99.9689L395.613 98.7756L396.508 97.8806L396.657 97.4331L396.359 96.6872L395.613 95.9414L394.718 95.3447L393.823 94.8972L392.63 95.0464L391.586 95.4939L390.542 96.0905L388.752 98.1789L387.857 98.7756L386.066 99.5214L384.426 99.8198L382.934 99.9689L379.95 99.8198L379.354 99.9689L379.056 100.416L378.906 101.461L378.011 103.251L377.564 103.847L376.221 105.041L375.625 105.19L374.431 105.041L373.089 104.593L372.045 102.952L369.658 97.5822L370.254 96.5381L370.404 95.7922L370.254 94.5988L369.807 93.853L368.614 92.6596L366.376 89.2287L365.779 87.4387L365.63 85.6487L365.779 83.7095L366.376 82.6653L367.271 81.7703L368.017 80.4277L368.166 78.6377L367.719 76.6985L367.122 75.2068L366.376 72.6709L365.63 71.6267L364.437 70.8809L362.796 70.7317L361.603 70.2842L360.857 69.24L360.409 67.8975L360.111 66.4058V62.6766L361.006 58.9473L362.945 55.6656L365.63 53.5772L367.122 54.3231L368.465 54.6214L371.299 54.3231L372.641 53.8756L374.431 52.2347L375.625 51.9364L376.818 51.638L379.056 50.8922L381.89 50.2955L383.531 49.1022L384.724 48.8038L385.321 48.5055L388.006 46.4171L388.752 45.6713L389.796 44.0304L390.392 43.4337L392.63 42.3895L397.851 40.7487L400.238 39.1078L400.685 40.0028V40.7487L398.895 46.4171L399.343 47.6105L400.088 48.5055L400.983 49.1022L402.028 49.9972L403.221 52.3839L403.818 53.1297L402.326 49.1022L401.282 48.2071L400.834 47.6105V47.1629L401.282 46.2679L401.431 45.8204L401.282 43.5829L401.431 41.942L402.326 40.5995L403.818 39.7045L407.696 40.8978L411.873 38.5111L417.84 32.9918L419.779 32.3952L426.044 32.9918L426.79 32.6935L428.878 31.9477L429.624 31.7985H432.16L433.204 31.6493L434.248 31.0526L436.337 32.246L438.872 31.9477L441.408 31.0526L443.646 30.456L445.287 29.7101L451.999 20.76L453.342 20.0141L455.43 20.76L457.22 22.2516L458.264 24.0417L458.861 26.2792L459.16 28.8151L460.8 27.7709L461.695 26.5776L462.143 24.7875L462.441 20.9091L462.889 19.8649L463.784 19.1191L464.679 17.7766L464.977 18.5224L465.425 18.8207H466.171L467.066 18.3732L467.96 17.6274V17.0307V16.2849L468.259 15.3899L469.751 13.749L471.242 13.4506L474.971 14.7932L474.375 13.4506L472.734 13.0031L470.944 12.854L469.452 12.2573L468.856 11.0639L469.154 9.87058L469.9 8.82639L473.181 5.54466L473.778 4.35131V3.00878L473.331 1.81543L473.629 0.77124L478.701 4.35131L480.64 6.88719L483.325 9.12473L484.22 10.6164L484.966 12.5556L486.308 14.3457L488.098 15.6882L490.187 16.2849L491.529 16.1357L492.872 15.6882L493.618 15.9865L493.767 17.6274L494.214 18.5224L496.004 20.6108L496.452 21.9533L497.794 21.2075L499.137 21.0583L504.06 22.2516L504.656 22.6992Z" fill="#009649" stroke="white" stroke-width="2" stroke-linejoin="round"></path>
<path class="region" data-country-region="West Region" d="M470.198 232.88L468.259 236.46L468.11 237.654L467.961 240.935L467.513 242.427L466.32 244.963L465.723 246.604L464.828 251.079L465.126 252.421L467.215 255.554L468.259 256.598L469.005 257.941L468.856 259.731L469.154 260.626L469.601 261.67L470.944 263.907L471.392 265.101V266.592L471.093 268.681L470.944 270.769L471.093 273.753L470.795 276.139L469.9 278.377L468.11 281.062L464.977 283.896L463.784 284.194L460.502 284.642L459.458 285.239L458.712 285.835L458.265 286.581L457.966 287.476V288.968L457.668 292.995L457.817 295.83L458.414 297.769V298.664L456.176 310.15V311.194L456.475 312.089L456.922 312.835L457.071 313.73L456.922 314.774L456.475 315.818L454.834 318.354L451.552 321.487L446.779 324.023L447.077 320.443L446.629 319.697L446.033 318.951H445.138L444.243 319.398L443.795 319.995L443.198 320.293L442.154 320.443L441.11 320.293L437.53 319.697L438.873 316.863L439.469 313.879L440.215 312.537V311.791L439.618 310.448L436.486 305.526L433.652 301.796V301.051L433.95 300.305L434.994 299.559L435.442 299.111L436.933 293.145L437.828 291.504L437.978 290.161L437.679 289.266L436.933 288.222L436.337 287.029L436.038 285.984L435.889 284.94L436.337 283.299L436.187 282.554L433.502 278.526L432.458 276.587L431.862 275.692L431.265 275.393L430.668 275.543L430.221 275.244L429.922 274.797L428.132 274.2L427.834 273.753L428.132 273.156L429.326 272.41L429.922 271.813L432.458 269.128L432.906 268.979L433.95 269.427H434.397L434.696 269.128L435.591 267.637L436.038 266.294L436.187 265.101L435.74 264.057L434.994 263.311L432.16 261.371L430.967 260.178L430.072 258.686L429.773 256.747L429.922 249.885L430.072 248.99L430.519 248.394H431.265L432.309 247.797L432.607 247.2L432.458 246.753L429.922 244.963L429.027 243.322L428.431 242.874L427.983 243.024L427.387 243.471L426.193 245.112L425.596 245.709L424.851 246.007L424.254 245.858L423.956 245.41L424.105 244.217L425.447 242.725L427.685 239.294L429.326 237.057L433.502 235.118L437.53 234.819L444.093 231.538L446.182 230.941L448.718 230.643H449.911L451.104 230.792L451.701 231.388L452.745 232.582L455.281 234.372L457.071 235.118L459.16 235.714L461.099 235.565L462.74 235.118L465.126 233.029L466.618 232.283L467.662 232.134L470.198 232.88Z" fill="#009649" stroke="white" stroke-width="2" stroke-linejoin="round"></path>
<path class="region" data-country-region="West Region" d="M465.275 158.891L464.828 159.04L463.933 160.084L462.888 160.234L462.143 160.83L461.397 162.024L461.098 163.366L460.353 164.112L458.562 165.007L457.817 165.902L456.623 168.587L455.43 170.825L456.027 171.72L457.518 172.316L458.264 172.913L458.712 173.51L459.159 175.001V175.449L458.861 175.747L457.22 176.344L456.623 176.791L456.176 177.239L455.877 178.432L455.132 179.775L454.237 180.222H453.491L452.894 179.924L451.999 179.327L450.657 177.239L449.016 176.642L448.121 176.791L446.778 177.537L440.215 184.101L439.17 184.847L436.784 186.04L435.74 186.786L434.546 187.979L433.502 189.023L432.607 189.769L431.414 190.067H430.37L429.176 189.918L428.132 189.471L427.237 188.874L426.789 188.128L426.342 186.487L426.64 185.742L427.237 184.548L427.535 183.504L427.386 182.161L426.939 180.67L426.64 179.476L427.088 178.731L427.983 177.537L427.237 177.09L425.149 176.642L420.375 176.941L418.436 176.642L415.751 176.493L417.243 174.703L418.287 172.018L418.436 171.272L418.585 169.333L421.419 165.007L422.016 163.664L422.314 162.322L421.718 146.361L421.867 144.869L421.419 144.123L420.673 143.825L418.585 143.974L417.988 143.825L414.856 142.93L414.259 142.632L412.022 140.394L409.784 137.709L409.038 137.112L407.994 136.366L407.248 135.621L406.055 135.173L405.309 134.576L404.861 133.681L404.563 131.891L404.712 130.847L404.861 130.25L405.607 129.505L407.397 129.355L409.187 129.803L414.707 130.549L417.243 131.145L418.883 132.04L419.629 132.637H419.928L420.524 132.04L420.972 131.742L421.121 131.145L420.524 130.698L419.778 130.847L419.331 130.549L418.436 129.206L418.287 128.759L418.436 128.311L420.077 127.715L420.823 127.267L423.209 126.67L424.403 126.223L425.596 125.03L426.044 123.985L430.966 127.565L448.866 128.162L449.463 135.471L465.275 135.024L467.96 137.709L476.463 142.333L480.938 147.405L479.297 153.521L467.96 154.714L465.275 158.891Z" fill="#009649" stroke="white" stroke-width="2" stroke-linejoin="round"></path>
<path class="region" data-country-region="West Region" d="M515.694 263.907L514.799 265.249L514.65 265.995V267.188L515.545 269.724L515.694 270.619L515.545 271.514L515.247 272.26L514.501 273.155L513.606 273.752L511.518 274.945L510.772 275.691L510.175 276.437L509.429 277.332L507.788 278.973L507.341 279.868L507.192 280.763V282.702L507.341 284.194L507.639 285.685L508.087 286.431L508.982 287.475L509.28 288.221L509.578 290.31L510.175 292.995L510.026 294.188L506.446 298.067L504.059 301.945L503.612 302.84L503.761 303.884L504.059 304.63L504.656 305.227L505.402 305.674L505.998 306.569L506.297 307.613V309.851L506.595 310.895L507.49 312.685L507.341 313.282L506.148 314.177L504.805 314.774L503.612 315.818L502.717 317.309L502.12 319.696L502.418 323.276L502.866 324.171V324.619L502.418 325.365L500.927 326.558L500.032 327.304L499.733 328.497V329.541L499.286 330.585L498.689 331.48L495.706 333.718L493.916 332.823L482.728 334.166L479.446 334.911L477.209 335.657L475.12 337.746L473.629 339.088L470.645 340.58L467.811 341.326L465.275 341.475L463.187 341.326L462.143 340.729L460.352 339.536L458.413 338.79L457.22 337.895L455.877 336.701L453.043 332.674L452.297 331.928L450.806 331.033L450.358 330.287L449.911 328.945L449.463 328.646L448.568 328.05L447.971 327.751L447.226 326.409L446.778 324.022L451.551 321.486L454.833 318.354L456.474 315.818L456.922 314.774L457.071 313.729L456.922 312.834L456.474 312.088L456.176 311.193V310.149L458.413 298.663V297.768L457.817 295.829L457.667 292.995L457.966 288.967V287.475L458.264 286.58L458.712 285.835L459.457 285.238L460.502 284.641L463.783 284.194L464.977 283.895L468.109 281.061L469.899 278.376L470.794 276.139L471.093 273.752L470.943 270.769L471.093 268.68L471.391 266.592V265.1L470.943 263.907L469.601 261.669L469.154 260.625L468.855 259.73L469.004 257.94L470.794 257.343L473.629 255.404L474.971 254.957L476.164 254.807L477.209 255.106L478.551 255.702L481.236 257.642L483.026 258.686L485.115 259.581L489.739 260.625H492.126L494.214 260.327L495.855 259.73L497.496 259.581L498.838 259.73L500.33 260.028L501.374 259.73L502.12 258.835L502.717 257.343L503.462 256.299H504.507L505.7 256.747L507.788 258.238L508.982 258.686L510.623 259.133L511.667 259.581L512.562 260.177L513.755 260.625L514.352 260.923L514.65 261.222L514.948 262.863L515.694 263.907Z" fill="#009649" stroke="white" stroke-width="2" stroke-linejoin="round"></path>
<path class="region" data-country-region="East Region" d="M665.014 356.094L663.671 356.989L644.428 363.702L622.053 371.608L599.827 379.365L588.639 383.243L560.446 393.088L558.805 393.983L552.242 399.801L543.291 411.734L538.966 415.314L537.772 416.657L535.087 422.027L533.894 423.519L530.761 426.055L529.717 427.248L529.568 429.187L530.612 430.828L532.104 431.872L533.148 433.066L533.297 435.602L532.551 437.392L531.209 437.988L529.568 438.287L528.225 439.48L527.032 439.927L526.137 438.436L524.944 432.618L524.198 431.276L523.154 430.381L519.275 429.336L517.485 429.038L515.993 429.486L514.949 431.276L515.098 431.872L515.546 433.513V434.557L514.949 438.436L513.756 442.016L502.568 441.867L496.154 443.06H494.364L490.933 442.762L489.889 442.911L488.994 443.06L488.248 443.806L487.353 445.447L486.905 446.043L486.309 446.491L485.712 446.342L484.22 445.596L483.325 445.298L480.342 444.999L476.613 443.955L474.077 443.508L473.182 443.06L472.585 442.613L472.287 441.419L471.988 440.822L471.243 440.226L470.497 439.182L470.049 437.69L469.9 436.049L469.602 434.856V433.662L469.9 433.066L471.839 431.276L471.988 430.679V430.231L471.69 429.486L471.094 428.889L463.784 423.668L463.337 422.027L463.486 421.43L463.933 420.535L474.823 411.734L476.613 409.944L479.894 408.9L483.027 407.259L485.115 405.469L487.502 402.933L488.397 401.442L488.695 399.801L488.546 398.458V397.116L488.845 395.624L490.933 391.149L491.231 390.254L491.828 388.762L496.005 381.901L496.452 380.558V379.812L496.154 378.917L495.557 378.022L494.811 377.127L494.215 376.381L493.916 375.785L494.066 375.188L496.9 370.116L497.646 369.072L498.541 368.326L508.386 363.254L509.281 362.509L509.728 361.763V361.017L509.132 359.376L508.535 358.779L505.701 356.691L505.253 356.542L504.358 356.393L503.612 356.691L502.717 357.138L501.822 358.033L501.226 358.928L500.927 359.823L500.778 360.868L500.331 361.315L499.734 361.464L498.988 361.017L498.242 360.42L497.944 359.525L497.795 358.63L498.391 355.945L498.988 356.393H499.585L500.182 355.945L501.077 354.901L503.314 351.619L503.612 350.873L503.762 350.127V348.337L504.209 346.697L504.06 341.625L504.358 339.835L503.762 338.791L502.419 337.746L496.9 335.36L495.706 334.614V333.719L498.69 331.481L499.286 330.586L499.734 329.542V328.498L500.032 327.304L500.927 326.559L502.419 325.365L502.867 324.619V324.172L502.419 323.277L502.121 319.697L502.717 317.31L503.612 315.818L504.806 314.774L506.148 314.178L507.342 313.283L507.491 312.686L506.596 310.896L506.297 309.852V307.614L505.999 306.57L505.402 305.675L504.657 305.227L504.06 304.631L503.762 303.885L503.612 302.841L504.06 301.946L506.447 298.067L510.027 294.189L510.176 292.996L509.579 290.31L509.281 288.222L508.982 287.476L508.088 286.432L507.64 285.686L507.342 284.194L507.193 282.703V280.764L507.342 279.869L507.789 278.974L509.43 277.333L510.176 276.438L510.773 275.692L511.518 274.946L513.607 273.753L514.502 273.156L515.248 272.261L515.546 271.515L515.695 270.62L515.546 269.725L514.651 267.189V265.996L514.8 265.25L515.695 263.907L517.187 261.819L518.231 261.073L519.872 260.178L521.214 259.88L524.198 260.327H526.435L527.629 259.88L529.12 259.283L530.015 258.537L531.805 256.747L535.535 257.642L537.772 259.283L538.966 260.626L540.159 262.117L540.905 263.311L543.59 270.322L544.336 273.305L545.231 275.394L546.275 276.438L551.645 275.394L553.286 275.543L554.628 276.438L555.673 278.377L556.866 284.194L558.507 286.88L558.805 287.625V289.565L559.103 290.758L560.446 292.996L560.894 294.189L561.043 296.874L561.341 298.216L562.236 299.261L563.728 300.156L567.308 300.901L568.949 301.647L570.142 302.692L570.59 304.034L571.037 305.526L571.634 306.868L572.678 307.912L574.17 308.509L577.302 309.255L601.617 319.697L622.053 332.824L623.545 333.271L624.887 333.868L625.931 335.21L627.572 338.045L630.705 341.774L631.451 343.116L632.644 344.161L633.092 345.354L634.285 348.337L636.373 350.873L639.357 352.962L643.086 354.006L646.964 353.857L649.649 352.962L650.694 353.111L652.185 354.155L653.379 354.752L656.362 355.348L660.091 357.288L662.03 356.691L663.82 355.796L665.014 356.094Z" fill="#009649" stroke="white" stroke-width="2" stroke-linejoin="round"></path>
<path class="region" data-country-region="East Region" d="M789.569 185.294L788.376 185.89L787.481 186.487L787.033 187.531L787.182 188.426L787.481 190.067L787.63 190.962L787.481 191.857L786.884 193.498V194.542L790.762 207.968V208.863L790.613 210.354L790.762 211.1L791.508 212.144L792.403 212.89L793 213.785V214.382H792.254H788.077L784.199 214.829H782.26L781.365 214.084L780.768 213.188L779.575 211.846L777.039 209.608L776.591 210.354L772.713 225.122L763.465 261.669L762.271 264.801L761.674 265.696L760.63 263.906L760.332 261.967L759.735 261.221L759.139 260.774H758.393L757.498 260.475L756.901 259.879L756.304 259.58H755.857L755.26 259.133L752.724 258.089L751.829 257.939L751.382 257.641L750.934 256.746H750.785L750.039 257.343L749.443 257.641L749.144 257.343L748.995 256.597L748.1 255.403L746.907 253.166L746.459 252.718L745.415 252.868L744.072 252.42H742.73L742.432 252.122L741.686 251.525L740.94 251.078L740.343 250.928L739.299 251.227L738.255 248.84L737.658 248.542L735.57 247.945L735.122 247.497L734.973 247.05L735.271 246.304L734.973 246.155L733.929 246.304L733.631 246.901L733.78 247.647L732.736 248.094L731.99 247.945H730.349L728.857 247.647L727.664 247.05L727.067 246.453L726.62 246.155H725.575L724.084 244.663L723.04 244.365L721.846 244.216L720.354 243.47L719.459 243.768L719.31 243.619V242.575L718.863 241.68L718.564 241.531L718.117 241.978L717.52 242.127H716.625L715.134 241.382H713.791L713.343 241.829L713.194 241.382H712.747L711.554 242.426L710.957 243.022H709.167L708.421 242.575L706.333 242.724L705.587 242.426H704.692L703.797 243.022L703.349 242.873L702.902 242.127H702.753L701.708 243.172H700.813L700.067 243.768L699.62 244.514L699.172 244.663L699.023 243.917L697.979 243.47L696.637 243.321L694.399 242.724L693.206 242.575L692.609 242.277L692.907 241.531L692.311 240.486L690.67 240.337L689.476 239.591H689.029L687.836 240.039L686.791 240.188L685.896 240.039L685.001 240.188L684.703 239.89V238.995L684.106 239.293L683.36 239.442L682.913 239.144L682.316 238.398L682.167 237.354L681.57 236.459L680.675 235.862L679.184 233.774L678.587 232.431L678.438 230.492V227.061L678.736 225.868V224.525L678.438 223.481L677.245 222.139L676.051 221.691L674.559 221.244L673.068 221.094L671.725 221.244L669.488 221.84L667.847 222.139L667.399 222.437L666.653 223.332L666.206 223.78L665.46 223.929L664.565 224.078L662.775 224.525L660.985 224.824L658.897 224.973L658.3 225.122L656.957 225.719L656.212 225.868L654.869 225.57L653.974 224.973L653.079 224.824L652.482 224.973L650.842 226.614L650.394 227.36L650.096 228.255L649.648 230.343L649.051 230.94L647.411 231.089L638.908 227.509L631.748 225.868L630.704 225.42L630.107 224.376L629.659 221.989L629.212 220.647L629.361 220.05L631.151 217.962L631.897 216.023L631.151 214.979L630.704 214.531L630.256 213.785L630.554 213.338L632.046 211.846L632.643 211.1L632.494 210.503L632.046 210.056L630.853 209.758L627.124 209.161L625.632 208.564L621.604 205.73L620.858 205.432L620.113 205.133L619.218 204.686L618.621 203.94L618.323 202.448L618.472 201.106L619.068 199.614L620.113 198.122L624.439 194.095L625.184 193.051L625.632 192.156L625.333 191.559L624.737 191.111H623.544L622.35 191.857L621.157 192.454L617.129 196.183L615.041 200.509L613.848 202.001L613.102 202.299L609.969 203.492L595.947 210.205L594.903 210.951L593.262 211.398L592.964 211.548L591.472 212.144L589.831 212.592L587.594 212.741L585.505 212.443L584.461 211.697V210.951L585.356 210.205L586.102 209.161L586.848 207.968L588.936 202.896L589.085 201.702L588.339 198.868L588.489 197.526L588.936 195.885L589.682 194.393L590.279 193.349L591.472 191.708L591.77 190.813V189.62L591.025 187.382L590.577 186.487L589.831 185.89L588.638 185.145L588.19 184.548L587.146 182.609L584.759 179.476L583.715 178.581L582.82 178.134L581.925 177.984L580.881 177.388L580.583 176.642L580.732 175.896L581.328 175.299L582.074 174.554L584.909 172.913L585.505 172.316L585.804 171.57V170.526V169.78L586.102 169.034L586.848 168.885L588.041 169.333L591.92 171.719L593.859 172.614L596.096 173.36L597.737 173.659L598.931 173.509L599.975 173.062L600.721 172.316L602.809 168.885L603.853 166.648L604.151 166.051L604.599 165.753H605.046L606.24 166.051L606.538 165.902L606.837 165.305V163.963V163.217L607.135 162.62L609.82 161.427L610.715 160.979L611.461 160.233L611.908 159.487L611.759 157.996L611.908 157.399L612.952 156.504L613.251 155.758V154.416L612.356 152.775L612.654 151.88L612.952 150.686L612.654 150.09L611.61 148.598L610.417 147.106L609.82 146.211L609.372 145.167V144.272L609.671 143.079L609.82 140.543L610.118 139.648L609.223 133.383L610.566 132.488L611.759 132.786L613.251 133.234L615.637 134.427L618.323 136.217L619.218 136.515L620.262 136.217L621.306 135.919L622.648 135.62L624.289 135.919L629.212 137.261L631.449 137.41L633.389 137.112L634.582 136.366L635.626 135.62L636.969 135.024L638.311 134.427L640.549 134.129L641.891 134.427L643.085 135.173L643.681 135.919L644.576 137.41L653.676 148.3L656.361 150.686L656.808 151.432L657.107 152.775L658.747 155.162L659.493 156.057L661.134 158.592L662.178 159.487L667.101 163.068L667.847 163.963L668.294 164.708L669.338 166.051L671.278 164.858L673.366 164.261L675.305 166.797L679.93 170.377L681.57 171.123L685.151 170.974L686.493 171.421L687.09 172.764L688.134 173.509L690.222 172.614L693.802 169.929L694.548 169.631L697.382 168.736L699.322 167.841L700.067 167.543L706.929 166.946L715.283 167.543L715.73 167.99L716.327 168.885L716.774 170.079L717.073 172.167L717.52 172.764L719.31 173.659L722.89 176.194L724.979 177.388L726.918 177.835L729.006 177.984L730.05 178.134L730.498 177.835L730.647 177.537L730.05 176.493L729.603 175.449L728.857 168.139V166.797L729.156 165.753L730.2 165.305L731.691 164.858L734.526 165.007L736.167 165.305L737.36 166.051L738.404 166.797L739.448 167.095L740.194 166.946L741.089 166.648L741.835 166.498H743.923L744.967 166.349L746.757 165.753L747.503 165.902L748.249 166.498L748.697 167.095L749.443 168.288L750.039 168.885L751.083 169.482H752.128L753.47 169.034L754.216 168.736L755.111 168.587L756.006 169.034L757.05 169.631L758.989 170.526L760.034 171.123L760.481 171.57L760.929 172.614H761.227L762.271 172.167L762.719 172.913L762.868 173.808L763.465 175.001L765.105 176.344L767.94 177.239H769.282H773.31L774.354 177.686L775.249 178.283L775.995 178.432H777.337L777.785 178.73L778.232 179.476L778.68 181.117L779.276 181.714L780.768 182.012L782.111 182.609L785.243 183.504H786.287L787.481 183.205L787.928 183.653L787.779 184.697L788.077 185.443L789.569 185.294Z" fill="#009649" stroke="white" stroke-width="2" stroke-linejoin="round"></path>
<path class="region" data-country-region="West Region" d="M457.369 104.445L458.861 107.875L459.756 108.472L461.098 109.069L462.59 109.516L463.933 109.367L465.126 109.069L466.916 108.92L470.496 107.875L478.104 106.98L480.192 107.13L489.142 109.069H491.081L492.275 108.92L493.17 108.621L497.794 108.025L499.733 107.577H500.927L505.7 106.682L510.324 106.384L512.711 106.682L514.203 107.279L514.799 108.025L515.098 108.92L515.247 109.964L515.098 110.859L514.65 112.351L514.501 112.947L514.65 113.395L515.247 113.246L516.738 111.754L517.783 111.306L518.678 111.456L519.573 112.201L521.512 113.842L522.854 114.886L524.495 115.632L526.882 116.378L529.12 116.229L531.506 115.781L535.534 113.842L537.026 112.947L539.114 111.306L540.158 110.71H541.65L551.943 113.842L549.705 117.571V118.019L550.152 118.317L551.197 118.616L552.241 118.914H553.136L555.373 120.107L556.716 120.555L557.909 120.853L559.103 121.599L559.849 122.494L560.147 123.389L560.445 124.732L560.743 125.03L561.937 125.328L560.743 127.417L559.699 128.163L553.434 131.444L550.152 132.488L549.556 133.085L549.257 133.831L549.108 136.218L548.81 137.113L548.362 137.56L547.915 137.859L547.318 138.306L546.423 139.947L545.976 140.245L545.081 140.394L543.142 139.798H542.396L541.948 139.947L541.501 141.588L540.456 143.378L539.711 144.124L538.666 144.571H537.921L537.473 144.422L536.578 143.527L535.832 143.229H535.086L532.998 143.974L531.357 144.273L530.76 144.87L530.611 145.615L530.76 146.51L530.462 154.566L529.865 156.654L528.672 158.742L526.285 162.024L525.241 163.814L524.794 165.007L526.136 167.543L525.987 168.438L525.54 169.632L524.495 171.422L524.048 172.466L523.899 173.361V174.256L523.749 175.449L523.004 177.239L521.959 178.582L520.319 180.223L519.424 181.416L518.976 182.609L518.678 184.996L518.379 186.189L517.783 186.935L517.037 187.383L514.799 187.83L513.755 188.129L511.816 189.024L506.147 182.908L503.612 181.864L502.418 182.013L500.33 181.714H498.987L498.092 181.864L495.706 183.206L494.811 183.504L494.214 183.206L493.021 182.013L492.275 182.162L491.231 182.609L490.186 183.355L488.993 183.952L488.247 184.25L487.501 184.549L485.115 186.339L484.369 186.488L483.772 186.189L483.175 185.444L482.877 184.549L482.728 183.057L481.833 181.118L480.341 179.029L474.673 175.151L473.479 174.107L473.181 173.063L472.584 170.825L472.286 170.079L471.242 168.438L469.899 166.052L466.618 161.726L466.319 161.129V160.085L466.021 159.488L465.275 158.891L467.96 154.715L479.297 153.521L480.938 147.405L476.463 142.334L467.96 137.709L465.275 135.024L449.463 135.472L448.866 128.163L430.966 127.566L426.043 123.986L427.834 119.66L429.027 117.571L430.071 115.036L431.115 113.395L431.414 112.798V112.351L431.115 111.754L429.773 110.411L427.386 108.77L427.088 108.174V107.577L427.684 106.98L428.43 106.384L430.22 105.638L431.414 104.892L433.353 103.251L434.099 102.804L435.292 102.356L436.187 101.909L438.723 100.119L439.767 99.9695H441.11L443.198 100.119L445.435 99.9695L454.833 102.058L456.026 102.804L457.369 104.445Z" fill="#009649" stroke="white" stroke-width="2" stroke-linejoin="round"></path>
<path class="region" data-country-region="West Region" d="M359.515 394.728L358.023 396.817L354.89 396.369L353.1 397.414L351.609 397.861L349.371 397.712L347.432 397.264L346.089 396.518L345.493 394.579L346.089 391.447L346.388 380.707L346.686 379.513L349.669 373.994L351.012 370.414L352.205 369.519L357.725 367.878L362.498 365.491L364.437 364.895L368.316 365.044L374.432 368.773L378.31 369.817L377.862 371.011L377.117 372.204L376.072 372.95L371.597 374.889L371.299 375.784L370.106 376.977L369.807 377.425L369.211 378.767L368.614 380.11L367.868 380.856H367.57L366.675 382.497L365.631 384.734L364.437 386.673L363.99 388.165L362.498 388.762L361.305 390.104V392.193L359.962 393.386L359.515 394.728ZM384.426 362.508L382.338 363.85L380.548 363.701L380.1 361.762L381.443 358.331L383.233 353.409L385.619 349.083L386.663 351.469L388.752 352.215L389.796 354.154L388.006 356.989L384.873 358.629L384.426 362.508ZM437.53 319.696L441.11 320.293L442.155 320.442L443.199 320.293L443.795 319.995L444.243 319.398L445.138 318.95H446.033L446.63 319.696L447.077 320.442L446.779 324.022L446.033 325.961L444.69 327.602L443.348 328.497L441.409 329.691L439.32 330.586L437.53 331.033L427.088 332.972L426.044 333.42L424.851 334.016L422.315 335.956L421.42 336.851L420.674 338.044V340.132L420.227 340.878L420.077 341.624L420.823 342.967L420.674 343.414L417.691 345.353L412.768 349.978L412.917 351.171L413.663 351.768L415.006 351.917L417.094 350.873L419.63 350.127L420.674 352.364L421.42 353.409L421.271 354.453L420.674 355.348L418.735 357.436L417.989 358.033L416.497 359.077L397.105 379.364L396.359 381.452L395.912 383.69L396.061 385.48L396.658 387.867L396.807 390.403V390.999L391.884 396.966L391.288 398.159L390.989 398.905V400.695L387.26 399.502L386.365 399.353L379.653 399.054L378.907 398.905L379.951 397.115L380.846 395.325L379.951 393.833L380.249 391.745L381.443 388.314L381.592 386.822L384.277 377.723L386.216 374.292L386.365 373.696L387.26 371.906L387.559 369.817L389.498 364.596L390.542 363.105L393.227 360.27L393.973 358.779L394.122 356.541L393.525 352.663L392.332 349.53L392.034 349.083L390.094 349.232L389.05 349.083L388.304 348.784L387.26 347.143L385.619 342.37L384.426 340.58L383.978 339.536L383.68 338.193L383.829 332.972L383.233 328.945V327.751L383.68 325.812L383.829 324.619L383.382 323.724L382.188 322.232L381.89 321.934L381.741 321.337L381.293 320.293L381.443 319.249L381.89 318.205L382.338 317.459L382.636 316.713L381.89 315.519L383.233 314.177L384.724 313.729L385.768 312.984L386.216 310.895L386.962 310L388.304 309.254L389.796 308.359L390.393 306.42L385.172 309.404L384.575 309.851L384.426 310.597L384.277 312.238L383.68 312.387L380.846 312.685L380.1 313.431L379.951 314.028L379.205 316.265L378.459 319.845L378.31 322.381L378.907 324.917L381.592 329.691L381.89 332.376L380.398 349.679L379.503 353.259L378.907 354.304L376.52 356.989L375.625 357.585L374.133 358.033L371.15 359.823L369.807 359.972L368.912 359.524L368.465 358.331L367.719 358.182L365.78 358.331L365.183 358.182L363.99 357.287L363.542 355.795L364.736 354.453L367.421 352.663L368.166 350.723L368.614 349.381L369.509 348.635L371.896 348.337L372.492 348.784L372.94 349.53L373.686 350.127L374.73 350.276L375.476 349.679L375.923 348.933L375.774 348.038L375.327 347.143L374.879 348.933L373.686 348.635L371.597 346.547L369.658 346.845L367.868 347.74L366.675 348.038L366.078 346.845L366.526 344.906L368.166 341.027L368.614 338.939L368.912 337.895L369.658 337.447L370.702 337.298L371.597 336.851L372.343 336.105L374.133 333.271L373.238 333.42L372.791 333.718L371.896 334.762L371.15 335.061L369.36 334.911H368.614L367.57 335.657L366.824 336.702L362.946 346.696L356.83 355.199L354.145 358.182L351.31 359.375L350.564 360.569L349.968 361.314L349.073 361.911H348.327L347.879 361.464L346.984 360.27L345.791 359.823L344.896 360.419L344.598 361.911L344.896 363.701L345.194 364L347.581 366.386L347.879 367.132L348.029 368.176L347.879 370.115L346.984 370.861L345.045 370.563L341.316 369.071L337.438 365.939L336.244 365.193L335.051 364.149L334.454 363.701L334.007 363.552L332.366 363.254L331.62 363.105L328.189 360.867L321.476 353.11L327.891 346.994L333.261 342.967L340.868 341.177L345.194 338.641L349.073 332.674L350.564 323.575L350.714 315.818L347.283 310.448L344.15 307.464L338.929 304.332L331.918 302.542L327.294 299.857L324.758 295.68L323.863 291.802L327.592 291.951L330.128 291.652L330.874 291.354L331.322 290.906L331.62 289.713L331.769 288.221L331.918 287.326L332.664 286.282L333.41 285.387L334.007 284.492L334.603 283.448L335.2 282.553L336.244 281.807L337.139 281.36L338.333 280.763L338.929 280.315L339.824 278.824L340.421 278.078L341.167 277.78L341.913 278.227L343.106 279.122L343.703 278.973L344.15 278.376L345.344 277.63L348.774 277.929L350.117 277.63L350.415 276.735L349.669 274.05L349.52 273.304L349.669 272.111L349.371 271.813L347.879 271.365L347.134 270.918L345.94 270.023L345.045 268.829L344.448 268.084L344.598 267.487L349.968 266.741L352.951 264.802L353.399 263.907V263.31L352.354 261.818L352.056 260.923L351.758 259.73V258.686L352.205 256.448L352.653 255.404L353.25 254.658L354.145 254.211L355.636 253.316L357.575 252.868L358.023 252.421L358.172 251.824L357.874 249.736L358.023 248.095L358.62 246.752L359.664 246.006L361.603 245.111L365.034 242.277L365.78 241.233L367.57 236.46L368.316 233.625L369.061 231.835L369.658 229.896L370.255 228.554L371.15 227.659L371.746 227.211L372.045 227.509L371.746 228.852L371.896 229.299L372.343 229.449H373.835L375.177 229.747L376.818 229.299L378.161 228.554L382.636 224.974L383.68 223.78L385.172 221.394L386.365 220.051L387.111 219.156L387.559 218.261L387.857 216.918V215.576L388.304 215.128L389.647 214.233L390.094 213.338L390.542 212.294L390.989 211.25L394.271 206.477L395.166 205.731L396.21 205.134L397.702 204.687L403.37 203.792L406.354 203.046L409.486 202.598H410.829L412.022 203.344L412.47 204.687L412.022 207.521L410.68 211.399V212.294L411.127 213.488L410.531 214.233L409.188 215.128L408.591 215.874L407.846 217.664L407.249 220.648L406.801 221.543L406.205 222.139L405.459 222.587H404.713L403.818 222.885L403.221 223.482L402.923 223.929L402.028 224.974L401.133 226.316L400.536 226.913L399.194 227.062L398.597 227.211L398.299 227.808L398 228.852L397.553 230.045L396.956 230.344L396.061 230.642L395.614 230.791L395.464 232.283L394.569 232.88L393.674 233.029L392.929 233.476L392.63 233.924L392.481 234.52V236.161L392.034 237.951L387.111 247.349L386.365 248.393L384.724 250.034L383.68 251.675L383.233 252.57L381.741 256.597L381.592 257.642L381.144 263.161L381.293 264.205L382.487 268.084L382.338 268.68L381.741 270.172V271.216L381.89 272.559L382.188 273.454L382.487 274.05L389.796 277.78L390.989 278.973L392.034 280.763L392.63 282.702L393.525 284.045L395.763 287.028L396.359 288.221L397.553 291.205L399.492 294.934L400.089 296.873L400.835 297.619L402.774 298.067L405.757 297.619L410.381 295.829L411.873 295.68L413.812 295.978L415.602 296.873L419.63 299.558L421.569 300.602L422.613 301.199L425.298 303.288L426.343 304.481L433.055 315.519L437.53 319.696Z" fill="#009649" stroke="white" stroke-width="2" stroke-linejoin="round"></path>
<path class="region" data-country-region="West Region" d="M450.656 177.239L449.761 181.267L443.645 195.587L442.303 197.974L441.706 198.72L440.214 199.615L439.468 200.361L438.723 201.106L436.336 205.581L435.292 206.476L434.247 207.222L433.353 208.117L432.607 209.46L431.413 212.592L431.115 214.084V215.725L431.264 217.217L429.922 223.482L429.772 225.719V227.808L430.518 229.15L432.905 232.283L433.502 235.117L429.325 237.056L427.684 239.294L425.446 242.725L424.104 244.216L423.955 245.41L424.253 245.857L424.85 246.006L425.596 245.708L426.192 245.111L427.386 243.471L427.982 243.023L428.43 242.874L429.027 243.321L429.922 244.962L432.457 246.752L432.607 247.2L432.308 247.796L431.264 248.393H430.518L430.071 248.99L429.922 249.885L429.772 256.747L430.071 258.686L430.966 260.178L432.159 261.371L434.993 263.31L435.739 264.056L436.187 265.1L436.038 266.293L435.59 267.636L434.695 269.128L434.397 269.426H433.949L432.905 268.978L432.457 269.128L429.922 271.813L429.325 272.409L428.132 273.155L427.833 273.752L428.132 274.199L429.922 274.796L430.22 275.244L430.667 275.542L431.264 275.393L431.861 275.691L432.457 276.586L433.502 278.525L436.187 282.553L436.336 283.299L435.888 284.94L436.038 285.984L436.336 287.028L436.933 288.221L437.678 289.266L437.977 290.161L437.828 291.503L436.933 293.144L435.441 299.111L434.993 299.558L433.949 300.304L433.651 301.05V301.796L436.485 305.525L439.618 310.448L440.214 311.79V312.536L439.468 313.879L438.872 316.862L437.529 319.696L433.054 315.519L426.342 304.481L425.297 303.287L422.612 301.199L421.568 300.602L419.629 299.558L415.601 296.873L413.811 295.978L411.872 295.68L410.38 295.829L405.756 297.619L402.773 298.067L400.833 297.619L400.088 296.873L399.491 294.934L397.552 291.205L396.358 288.221L395.762 287.028L393.524 284.045L392.629 282.702L392.033 280.763L390.988 278.973L389.795 277.779L382.486 274.05L382.187 273.454L381.889 272.559L381.74 271.216V270.172L382.337 268.68L382.486 268.083L381.292 264.205L381.143 263.161L381.591 257.642L381.74 256.597L383.232 252.57L383.679 251.675L384.723 250.034L386.364 248.393L387.11 247.349L392.033 237.951L392.48 236.161V234.52L392.629 233.924L392.928 233.476L393.673 233.029L394.568 232.879L395.463 232.283L395.613 230.791L396.06 230.642L396.955 230.344L397.552 230.045L397.999 228.852L398.298 227.808L398.596 227.211L399.193 227.062L400.535 226.913L401.132 226.316L402.027 224.973L402.922 223.929L403.22 223.482L403.817 222.885L404.712 222.587H405.458L406.204 222.139L406.8 221.543L407.248 220.648L407.844 217.664L408.59 215.874L409.187 215.128L410.53 214.233L411.126 213.487L410.679 212.294V211.399L412.021 207.521L412.469 204.686L412.021 203.344L410.828 202.598H409.485L406.353 203.046L403.369 203.791L405.159 200.062L406.353 193.946L407.099 192.455L407.994 191.41L408.74 190.963L409.635 190.665L410.53 190.068L410.828 189.62L411.872 186.488L413.811 182.46L414.557 180.67L415.75 176.493L418.436 176.643L420.375 176.941L425.148 176.643L427.237 177.09L427.982 177.538L427.087 178.731L426.64 179.477L426.938 180.67L427.386 182.162L427.535 183.504L427.237 184.549L426.64 185.742L426.342 186.488L426.789 188.129L427.237 188.874L428.132 189.471L429.176 189.919L430.369 190.068H431.413L432.607 189.769L433.502 189.024L434.546 187.979L435.739 186.786L436.783 186.04L439.17 184.847L440.214 184.101L446.778 177.538L448.12 176.792L449.015 176.643L450.656 177.239Z" fill="#009649" stroke="white" stroke-width="2" stroke-linejoin="round"></path>
<path class="region" data-country-region="West Region" d="M405.607 129.505L404.861 130.251L404.712 130.847L404.563 131.891L404.861 133.682L405.308 134.577L406.054 135.173L407.248 135.621L407.994 136.367L409.038 137.112L409.784 137.709L412.021 140.394L414.259 142.632L414.855 142.93L417.988 143.825L418.585 143.974L420.673 143.825L421.419 144.123L421.866 144.869L421.717 146.361L422.314 162.322L422.015 163.665L421.419 165.007L418.585 169.333L418.435 171.272L418.286 172.018L417.242 174.703L415.75 176.493L414.557 180.67L413.811 182.46L411.872 186.488L410.828 189.62L410.529 190.068L409.634 190.664L408.739 190.963L407.994 191.41L407.099 192.454L406.353 193.946L405.159 200.062L403.369 203.791L397.701 204.686L396.209 205.134L395.165 205.73L394.27 206.476L390.988 211.25L390.541 212.294L390.093 213.338L389.646 214.233L388.303 215.128L387.856 215.576V216.918L387.557 218.261L387.11 219.156L386.364 220.051L385.171 221.393L383.679 223.78L382.635 224.973L378.16 228.553L376.817 229.299L375.176 229.747L373.834 229.448H372.342L371.895 229.299L371.745 228.852L372.044 227.509L371.745 227.211L371.149 227.658L370.254 228.553L369.657 229.896L369.06 231.835L368.314 233.625L367.569 236.459L365.779 241.233L365.033 242.277L361.602 245.111L359.663 246.006L358.618 246.752L358.022 248.095L357.873 249.735L358.171 251.824L358.022 252.42L357.574 252.868L355.635 253.315L354.143 254.21L353.248 254.658L352.652 255.404L352.204 256.448L351.757 258.686V259.73L352.055 260.923L352.353 261.818L353.397 263.31V263.906L352.95 264.801L349.967 266.741L344.597 267.487L344.447 268.083L345.044 268.829L345.939 270.022L347.132 270.917L347.878 271.365L349.37 271.812L349.668 272.111L349.519 273.304L349.668 274.05L350.414 276.735L350.116 277.63L348.773 277.928L345.342 277.63L344.149 278.376L343.701 278.973L343.105 279.122L341.911 278.227L341.166 277.779L340.42 278.078L339.823 278.823L338.928 280.315L338.331 280.763L337.138 281.359L336.243 281.807L335.199 282.553L334.602 283.448L334.005 284.492L333.409 285.387L332.663 286.282L331.917 287.326L331.768 288.221L331.619 289.713L331.32 290.906L330.873 291.354L330.127 291.652L327.591 291.95L323.862 291.801L322.072 291.354L320.58 290.608L319.834 289.713L319.685 288.818V288.072L320.282 286.431L321.326 284.79L321.475 284.343L321.774 281.658L321.624 280.912L321.326 280.166L320.133 279.122L319.984 278.525L320.133 277.183L319.685 276.437L318.492 275.691L315.807 275.393H314.315L311.183 276.437L309.392 276.735L303.127 276.437L301.785 276.884H301.188L299.547 276.735L297.161 277.183L295.52 273.453L294.326 271.812L293.879 270.619L293.73 269.426L294.177 268.382L297.31 266.144L296.862 264.056V261.52L298.801 259.73L299.846 259.581H301.337L301.636 258.387V257.045L301.785 255.404L302.232 253.912L301.934 251.824L302.232 250.481L303.873 249.735L303.724 247.647L301.039 243.918L295.669 237.653L291.492 230.045L289.553 225.57L288.36 222.885L288.956 221.095L290 220.051L291.343 219.006L292.536 217.664L293.879 216.023L294.923 214.681L295.967 213.487L296.266 212.741L297.31 212.294L298.503 212.741H299.696L301.039 211.846L302.232 211.399L303.575 211.697L305.663 210.951L305.365 211.697L307.006 212.443L308.348 212.592L309.392 211.697L310.138 211.399L310.735 210.504L311.779 210.205L312.674 211.548L313.42 211.697L315.061 211.846L317.149 210.951L319.088 209.31L321.177 207.222L322.37 201.703L323.862 194.095L325.503 189.769L327.591 185.742L328.635 183.057L329.083 182.609L329.829 182.012L331.171 181.863L332.215 181.565L332.365 183.802L333.707 185.593L336.094 186.637L338.331 186.935L343.105 187.084V186.04L340.718 185.294L338.033 184.697H336.243L334.901 183.802L334.005 181.267L332.812 179.178L331.619 178.731L330.873 177.836V175.598L329.829 173.211L329.53 170.526L328.337 167.841L326.696 165.902L325.652 162.173L326.547 160.83L328.486 160.681L331.32 158.294L334.005 154.118L334.901 152.626L335.199 151.433L335.945 149.493L336.69 148.002L338.63 147.405L341.016 143.676L342.657 145.018L344.447 144.123L346.685 142.483L349.072 140.692L354.442 134.875L358.618 129.505L360.11 127.566L360.707 125.776L360.856 124.731L361.303 124.433L363.839 123.538L365.182 120.256L365.928 117.273L366.375 112.649L366.226 110.411L365.629 106.682L365.331 99.9692L366.226 97.5825V96.8367L366.375 96.5383L367.419 96.9858L367.867 97.4333L368.165 98.03L368.613 99.3725H369.21L369.359 98.3284L369.657 97.5825L372.044 102.953L373.088 104.593L374.43 105.041L375.624 105.19L376.22 105.041L377.563 103.848L378.01 103.251L378.906 101.461L379.055 100.417L379.353 99.9692L379.95 99.82L382.933 99.9692L384.425 99.82L386.066 99.5217L387.856 98.7759L388.751 98.1792L390.541 96.0908L391.585 95.4941L392.629 95.0466L393.822 94.8975L394.717 95.345L395.612 95.9416L396.358 96.6875L396.657 97.4333L396.508 97.8809L395.612 98.7759L395.016 99.9692V100.566L395.165 101.312L395.762 101.908L399.938 104.444L400.386 105.041L400.535 105.339L400.237 105.936L399.64 106.533L399.043 106.831L398.148 108.024L397.701 108.621L396.06 111.008V111.604L397.402 112.798L398.298 113.096L399.193 112.798L399.938 112.649L400.237 113.096L400.386 114.588L400.684 115.334H401.132L402.176 114.737L402.623 114.439L403.369 114.886L403.966 115.483L405.756 117.124L406.949 117.571H407.546L407.994 118.168L405.607 120.704L405.308 121.45L405.159 122.494L404.712 122.941L404.115 123.24L403.518 124.135V124.731L403.817 125.626V126.671L404.115 127.118L405.607 129.505Z" fill="#009649" stroke="white" stroke-width="2" stroke-linejoin="round"></path>
<path class="region" data-country-region="East Region" d="M761.675 265.696L760.183 267.337L755.409 271.812L738.553 291.503L729.603 301.945L716.327 317.458L705.736 325.513L700.515 329.541L669.04 353.706L665.013 356.093L663.819 355.795L662.029 356.69L660.09 357.286L656.361 355.347L653.378 354.751L652.184 354.154L650.692 353.11L649.648 352.961L646.963 353.856L643.085 354.005L639.356 352.961L636.372 350.872L634.284 348.336L633.09 345.353L632.643 344.16L631.45 343.115L630.704 341.773L627.571 338.044L625.93 335.209L624.886 333.867L623.544 333.27L622.052 332.823L601.616 319.696L577.301 309.254L574.169 308.508L572.677 307.911L571.633 306.867L571.036 305.525L570.589 304.033L570.141 302.69L568.948 301.646L567.307 300.9L563.727 300.155L562.235 299.26L561.34 298.215L561.042 296.873L560.892 294.188L560.445 292.994L559.102 290.757L558.804 289.564V287.624L558.506 286.878L556.865 284.193L555.672 278.376L554.627 276.437L553.285 275.542L551.644 275.392L546.274 276.437L545.23 275.392L544.335 273.304L543.589 270.321L540.904 263.31L540.158 262.116L538.965 260.625L537.771 259.282L535.534 257.641L531.804 256.746L533.893 254.807L536.28 250.183L536.727 248.84L536.876 247.498L536.727 237.802L541.202 238.1L543.738 237.951L550.003 236.907H552.241L553.583 237.205L555.373 238.1H556.119L556.716 237.653L557.163 236.459L557.462 236.161L558.058 236.012L558.804 236.31L559.699 236.757L560.743 237.056L562.086 236.757L564.174 235.713L567.605 233.327L568.5 232.879L570.29 232.282L571.483 231.984L573.274 230.94L574.019 230.492L575.362 230.343L576.406 230.045H577.599L578.793 230.343H579.688H580.732L581.776 229.747L582.97 229.597L587.295 229.15L595.201 225.57L596.246 224.824L597.141 224.526H600.273L602.66 224.078L611.163 221.542L613.102 220.349L614.146 219.603L615.041 219.305L616.383 219.006L631.151 217.962L629.361 220.051L629.212 220.647L629.66 221.99L630.107 224.376L630.704 225.421L631.748 225.868L638.908 227.509L647.411 231.089L649.052 230.94L649.648 230.343L650.096 228.255L650.394 227.36L650.842 226.614L652.483 224.973L653.079 224.824L653.974 224.973L654.869 225.57L656.212 225.868L656.958 225.719L658.3 225.122L658.897 224.973L660.985 224.824L662.775 224.526L664.565 224.078L665.46 223.929L666.206 223.78L666.654 223.332L667.399 222.437L667.847 222.139L669.488 221.841L671.725 221.244L673.068 221.095L674.56 221.244L676.051 221.691L677.245 222.139L678.438 223.481L678.736 224.526V225.868L678.438 227.061V230.492L678.587 232.432L679.184 233.774L680.676 235.862L681.571 236.459L682.167 237.354L682.316 238.398L682.913 239.144L683.361 239.443L684.106 239.293L684.703 238.995V239.89L685.001 240.188L685.897 240.039L686.792 240.188L687.836 240.039L689.029 239.592H689.477L690.67 240.338L692.311 240.487L692.908 241.531L692.609 242.277L693.206 242.575L694.399 242.724L696.637 243.321L697.979 243.47L699.023 243.918L699.173 244.663L699.62 244.514L700.068 243.768L700.813 243.172H701.708L702.753 242.128H702.902L703.349 242.873L703.797 243.023L704.692 242.426H705.587L706.333 242.724L708.421 242.575L709.167 243.023H710.957L711.554 242.426L712.747 241.382H713.195L713.344 241.829L713.791 241.382H715.134L716.625 242.128H717.52L718.117 241.978L718.565 241.531L718.863 241.68L719.31 242.575V243.619L719.46 243.768L720.355 243.47L721.846 244.216L723.04 244.365L724.084 244.663L725.576 246.155H726.62L727.067 246.454L727.664 247.05L728.857 247.647L730.349 247.945H731.99L732.736 248.094L733.78 247.647L733.631 246.901L733.929 246.304L734.973 246.155L735.272 246.304L734.973 247.05L735.122 247.498L735.57 247.945L737.658 248.542L738.255 248.84L739.299 251.227L740.343 250.929L740.94 251.078L741.686 251.525L742.432 252.122L742.73 252.42H744.073L745.415 252.868L746.459 252.719L746.907 253.166L748.1 255.404L748.995 256.597L749.144 257.343L749.443 257.641L750.039 257.343L750.785 256.746H750.934L751.382 257.641L751.829 257.94L752.724 258.089L755.26 259.133L755.857 259.58H756.305L756.901 259.879L757.498 260.475L758.393 260.774H759.139L759.735 261.221L760.332 261.967L760.63 263.906L761.675 265.696Z" fill="#009649" stroke="white" stroke-width="2" stroke-linejoin="round"></path>
<path class="region" data-country-region="West Region" d="M536.727 237.802L536.876 247.498L536.727 248.84L536.279 250.183L533.893 254.807L531.804 256.746L530.014 258.536L529.119 259.282L527.627 259.879L526.434 260.326H524.197L521.213 259.879L519.871 260.177L518.23 261.072L517.186 261.818L515.694 263.906L514.948 262.862L514.65 261.221L514.351 260.923L513.755 260.625L512.561 260.177L511.666 259.58L510.622 259.133L508.981 258.685L507.788 258.238L505.7 256.746L504.506 256.299H503.462L502.716 257.343L502.12 258.835L501.374 259.73L500.329 260.028L498.838 259.73L497.495 259.58L495.854 259.73L494.214 260.326L492.125 260.625H489.738L485.114 259.58L483.026 258.685L481.236 257.641L478.551 255.702L477.208 255.105L476.164 254.807L474.971 254.956L473.628 255.404L470.794 257.343L469.004 257.94L468.258 256.597L467.214 255.553L465.126 252.42L464.827 251.078L465.722 246.603L466.319 244.962L467.512 242.426L467.96 240.934L468.109 237.653L468.258 236.459L470.197 232.879L472.733 231.984L475.12 229.896L477.357 229.15L478.998 228.852L480.639 228.702L484.816 229.597L487.053 229.747L488.396 229.448L489.888 228.702L491.976 226.912L492.871 226.614L495.258 226.465L496.004 226.166L496.749 225.719L497.048 224.973V223.332L497.943 222.437L498.838 222.288H499.882L501.075 223.034L501.523 223.481L502.269 224.078L503.462 224.376L505.55 224.227L506.744 223.78L507.49 222.885L508.534 221.095V219.454L508.683 218.559L508.981 217.664L509.429 216.769L509.876 216.023L512.412 213.785L514.202 216.918L516.44 219.454L517.335 221.095L517.633 222.437V226.614L517.484 227.807L517.335 228.702L516.44 230.343L516.141 231.238L516.44 231.686H517.036L520.169 229.747L521.213 229.597L522.407 229.448L524.346 229.896L525.092 230.045L526.583 229.597L527.478 229.448L527.777 229.896L528.373 231.238L528.672 231.387L530.313 231.238L530.611 231.686L531.506 233.476L532.848 233.923L535.832 234.371L536.429 234.967L536.727 235.713V237.802Z" fill="#009649" stroke="white" stroke-width="2" stroke-linejoin="round"></path>
<path class="region" data-country-region="West Region" d="M498.39 355.944L497.794 358.629L497.943 359.524L498.241 360.419L498.987 361.016L499.733 361.464L500.329 361.314L500.777 360.867L500.926 359.823L501.225 358.928L501.821 358.033L502.716 357.138L503.611 356.69L504.357 356.392L505.252 356.541L505.7 356.69L508.534 358.779L509.131 359.375L509.727 361.016V361.762L509.28 362.508L508.385 363.254L498.539 368.325L497.644 369.071L496.899 370.115L494.064 375.187L493.915 375.784L494.214 376.381L494.81 377.126L495.556 378.021L496.153 378.916L496.451 379.811V380.557L496.004 381.9L491.827 388.762L491.23 390.253L490.932 391.148L488.843 395.623L488.545 397.115V398.458L488.694 399.8L488.396 401.441L487.501 402.933L485.114 405.469L483.026 407.259L479.893 408.899L476.612 409.944L474.822 411.734L463.932 420.535L463.485 421.43L463.335 422.026L463.783 423.667L461.993 425.308L457.07 427.993L455.43 429.187L454.236 430.38L453.49 431.573L453.043 432.468L452.894 433.214L453.043 433.96L453.49 435.302L453.938 435.75L454.236 436.347V437.093L453.639 438.883L453.49 439.778L453.341 440.822L453.938 443.954L452.894 449.175L452.595 450.07L452.148 450.667L450.805 451.264L449.314 451.413L447.673 449.324L447.374 446.49V444.402L446.778 442.761L444.093 438.435L443.198 436.496L442.452 434.706L442.004 434.258L441.258 434.407L438.723 435.601L437.38 435.899H435.59L433.352 434.855L432.308 433.811L431.861 432.617L431.562 430.678L431.712 429.037V427.993L431.115 426.651L430.22 425.756L429.176 425.159H427.982L425.446 425.308H422.463L420.076 425.01L417.839 424.115L414.855 422.921L413.364 422.772L412.17 422.623L408.889 423.071L403.817 424.264L400.684 424.115L399.64 423.816L399.193 423.369L399.342 422.623L399.64 422.176L401.43 421.43L402.325 420.833L402.773 419.938L403.22 418.148L405.309 414.27L405.607 413.076L405.756 411.734L405.607 410.391L405.159 409.198L401.729 406.364L390.988 400.695V398.905L391.287 398.159L391.883 396.966L396.806 390.999V390.402L396.657 387.867L396.06 385.48L395.911 383.69L396.358 381.452L397.104 379.364L416.496 359.077L417.988 358.033L418.734 357.436L420.673 355.348L421.27 354.453L421.419 353.408L420.673 352.364L419.629 350.127L422.612 350.276L423.955 351.171L424.999 352.215L426.491 355.795L427.386 356.69L428.579 356.989L430.817 357.287L432.308 358.182L433.054 359.077L433.949 361.016L434.695 362.06L442.601 370.265L443.794 371.01L444.838 371.309L445.733 370.712L446.032 370.115L446.181 368.475L446.628 367.878L447.374 367.43L449.164 366.685L449.91 366.088L450.358 365.491L450.954 364.298L451.402 363.85L451.999 363.701L453.043 364.149L454.087 364.894L455.43 366.088L456.623 367.281L459.159 370.563L460.8 371.756L462.739 373.696L463.335 374.59L463.634 375.486L464.081 377.723L464.529 378.618L465.871 379.066L469.153 379.364H470.496L472.286 379.066L472.882 378.916L474.374 379.215L474.672 379.066L474.822 378.469L474.672 377.126V376.381L475.12 375.635L476.761 373.546L477.059 373.099L477.208 372.353V371.756L476.91 370.861L476.612 369.817L476.91 369.071L477.507 368.176L478.252 367.43L479.147 366.983L480.341 367.132L481.982 367.43H482.728L483.622 366.983L484.816 366.088L486.457 364.596L487.352 363.999L489.44 363.552L490.484 363.254L491.827 362.209L492.274 361.016L492.424 359.972L492.871 359.077L493.766 358.182L497.048 355.944H498.39Z" fill="#009649" stroke="white" stroke-width="2" stroke-linejoin="round"></path>
<path class="region" data-country-region="West Region" d="M390.988 400.695L401.729 406.363L405.159 409.197L405.607 410.391L405.756 411.733L405.607 413.076L405.309 414.269L403.22 418.148L402.773 419.938L402.325 420.833L401.43 421.429L399.64 422.175L399.342 422.623L399.193 423.369L399.64 423.816L400.684 424.114L403.817 424.264L408.889 423.07L412.17 422.623L413.364 422.772L414.856 422.921L417.839 424.114L417.242 428.739L417.391 430.38L417.839 431.871L418.286 432.617L418.734 433.065L420.076 433.512L420.524 433.81L420.822 434.407V434.855L420.524 435.899L417.391 439.479L416.944 440.374L416.496 441.418V443.506V444.7L415.303 448.727L415.154 449.921L415.303 450.816L415.75 451.412L416.198 451.114L416.944 450.667L417.988 449.473L419.032 448.131L419.629 447.683L420.375 447.385L421.419 447.534L422.016 447.982L423.06 449.026L424.104 449.622L424.701 450.07L425.297 450.816L425.745 451.86L425.894 453.053L425.745 454.396L425.297 455.738L424.85 456.633L424.402 457.23L423.06 458.573L422.612 459.169V459.766L423.209 462.153V463.048L422.911 463.794L422.165 464.838L421.568 465.434L420.375 466.18L418.734 466.479H417.093L416.049 466.18L414.408 465.584L413.215 465.285L410.231 465.882L408.74 465.584L407.695 465.136L406.204 463.794L405.756 463.197L405.01 462.003L404.563 461.854H403.817L402.922 462.451L401.729 462.898L399.044 464.39L397.999 465.285L395.762 467.97L394.419 468.567L392.629 469.014L386.812 469.313L385.32 469.164L383.53 468.567L382.187 468.269H380.547L375.475 468.716L373.685 469.164L368.464 471.699L362.795 472.893L356.381 473.191L355.039 473.34L354.442 472.595L353.696 472.147L352.95 471.252L352.652 470.506V468.865V467.97L351.757 466.18L349.967 463.346L349.668 461.556L349.818 460.959L350.414 459.617V458.722L349.818 457.081L349.668 455.44L349.818 454.694L350.414 452.904L350.563 452.009L350.414 451.114L349.967 449.324V448.429L349.668 447.534L348.028 446.937L347.431 446.341L347.58 445.595L348.177 443.208L348.326 441.567V440.672L348.177 439.777L347.58 439.181L346.088 438.584L345.641 438.136L345.343 436.197L345.939 434.407L346.088 432.766L344.895 431.871L341.464 430.976L339.525 429.932L339.227 428.59L339.376 427.694L340.569 426.949L341.166 425.904L341.613 424.711L342.508 423.369L341.613 425.904L341.315 426.501L341.762 428.291L342.807 427.545L343.403 424.711L344.298 423.369L346.685 425.904L347.878 425.308L354.293 423.965L356.829 424.413L357.724 423.965L359.663 421.579L360.11 421.28L363.392 414.269L364.436 413.076L366.375 413.374L366.823 415.463L366.077 419.789L367.121 419.192L367.718 418.297L368.165 417.402L368.911 416.358L369.657 415.761L372.491 413.971L373.834 412.479L374.729 410.54L375.176 408.601L375.624 405.17L376.966 401.888L378.906 398.905L379.652 399.054L386.364 399.352L387.259 399.501L390.988 400.695Z" fill="#009649" stroke="white" stroke-width="2" stroke-linejoin="round"></path>
<path class="region" data-country-region="West Region" d="M590.13 69.5387L589.831 69.9862L586.699 72.3729L585.207 72.6712L583.417 72.0746L582.97 71.9254H580.583L579.688 71.7762L578.345 71.3287L577.599 71.1795H576.704L576.108 71.9254L575.959 72.8204L576.257 73.8646L577.301 74.6104L577.898 75.5055L578.047 76.2513L577.749 76.848L577.152 77.4447L573.87 79.8314L573.124 80.5772L567.008 88.334L566.263 89.6766L565.815 90.7207L565.666 92.2124V92.9583L565.815 94.1516L565.517 95.1958L563.577 97.5825L561.34 96.3892L559.848 94.45L558.804 93.7041L554.627 91.4666L551.047 88.9307L547.02 86.544L543.887 85.7981L542.395 85.649L540.605 85.2015L539.412 84.6048L538.815 84.0081L535.534 83.2623L534.489 81.9197L534.042 80.428L533.893 78.7872L534.042 76.2513L533.893 75.5055L532.103 70.2845L528.672 65.9586L526.285 61.931L524.197 59.3952L521.363 57.0084L517.335 54.3234L515.843 52.9809L515.097 52.3842L514.053 52.235L510.771 51.9367L508.981 51.34L507.788 50.7433L507.341 50.5942L505.998 49.55L504.357 47.9091L503.015 47.0141L501.971 47.1633L500.628 45.6716L499.882 44.1799L499.584 42.539L500.031 37.4672L500.628 35.8264L502.716 32.3955L503.313 30.4563L503.164 27.6221L503.015 25.9812V24.7878L503.164 24.1912L504.656 22.6995L505.7 23.5945L514.053 32.843L516.142 34.4839L517.782 35.2297L523.003 36.7214L524.943 37.6164L536.429 46.4174L540.158 48.2074L546.423 48.3566L552.539 50.7433H553.434L553.881 50.445L554.329 50.5942L555.224 51.4892L555.522 52.3842V53.2792L555.672 54.3234L556.567 55.0692L558.655 55.9643L560.594 56.2626L562.384 56.4118L564.174 55.9643L571.185 53.2792H573.423L576.108 55.3676L576.555 61.7819L578.494 64.6161L584.312 68.6437L587.594 69.837L590.13 69.5387Z" fill="#009649" stroke="white" stroke-width="2" stroke-linejoin="round"></path>
<path class="region" data-country-region="West Region" d="M449.314 451.413L447.524 453.65L446.928 453.949L445.585 455.142L445.287 455.739V456.932V457.529L444.839 458.125L443.944 458.573H442.005L441.558 458.871L441.259 459.915L441.558 461.407L442.453 463.048L443.646 466.031L444.541 467.374L446.331 469.313L447.375 471.103L447.524 471.998L447.823 473.49L447.674 474.385L447.375 475.28L446.48 477.219L446.033 479.158L445.734 481.992L445.883 484.081L446.331 486.766L446.182 488.108L444.839 493.031L444.69 494.97V496.313L445.138 497.357L446.033 498.103L446.928 498.55L447.674 499.147L447.972 499.595L449.016 500.788L449.314 502.28V503.771L449.165 504.965L449.464 507.202L448.718 512.274L448.867 513.318L449.016 515.556L448.867 517.346L448.27 520.18L447.674 521.522L446.48 522.567L445.287 524.357L444.541 525.699L443.944 526.296L443.198 526.594L441.707 527.042L441.259 527.34L440.812 528.235L440.215 528.683H439.32L438.574 528.086L437.679 527.34L436.933 527.042L435.74 526.893L434.696 526.445L433.801 526.296H433.204L432.458 526.893L432.011 527.937L431.414 528.533L430.072 529.578L429.624 532.263L429.773 533.158L430.072 534.799L429.922 535.843L429.475 537.036L429.027 538.08L426.193 541.959L425.149 543.301L422.166 548.075L418.287 552.102L417.541 552.55V552.4L415.155 548.075L414.11 542.704L411.574 538.975V537.036L413.663 533.456L413.812 532.113L413.365 531.218L411.574 530.174H409.486L408.889 529.876L407.696 528.981L406.95 528.683L402.475 524.207L399.939 523.014L396.807 523.462L393.674 525.252L387.857 527.042L384.426 526.594L382.337 524.207L380.398 521.522L378.161 519.434L375.923 518.837H373.536L371.299 518.539L368.912 517.196L367.122 516.003L364.139 512.721L362.647 511.379L361.155 510.931L359.216 510.484L357.873 510.036L357.277 509.141H356.978L353.398 509.738L352.354 510.036L351.459 510.484L350.713 511.081L349.967 512.274L349.073 515.406L348.476 516.898L346.984 518.39L340.271 523.611L336.542 525.55L335.647 526.296L333.41 526.445L331.918 525.848L328.04 523.611L326.846 522.567L325.951 520.627L326.399 519.136L338.034 503.473L339.078 501.534L334.901 502.13L331.172 503.175L328.04 502.876L326.1 498.998V498.103L326.548 496.462L326.399 495.567L325.951 494.374L324.46 492.434L324.012 491.39L324.31 489.6L325.056 487.363L326.1 485.274L326.995 483.783L328.338 482.888L329.979 482.291H331.769H333.559L335.349 482.888L339.078 484.976L340.868 485.274L342.658 484.379L344.15 482.44L345.492 480.501L346.686 478.86L353.548 475.727L355.039 474.087V473.341L356.382 473.191L362.796 472.893L368.465 471.7L373.685 469.164L375.475 468.716L380.547 468.269H382.188L383.531 468.567L385.321 469.164L386.812 469.313L392.63 469.015L394.42 468.567L395.763 467.971L398 465.286L399.044 464.391L401.729 462.899L402.923 462.451L403.818 461.855H404.563L405.011 462.004L405.757 463.197L406.204 463.794L407.696 465.136L408.74 465.584L410.232 465.882L413.215 465.286L414.409 465.584L416.05 466.181L417.094 466.479H418.735L420.376 466.181L421.569 465.435L422.166 464.838L422.911 463.794L423.21 463.048V462.153L422.613 459.766V459.17L423.061 458.573L424.403 457.23L424.851 456.634L425.298 455.739L425.746 454.396L425.895 453.054L425.746 451.86L425.298 450.816L424.701 450.07L424.105 449.623L423.061 449.026L422.016 447.982L421.42 447.534L420.376 447.385L419.63 447.684L419.033 448.131L417.989 449.474L416.945 450.667L416.199 451.114L415.751 451.413L415.304 450.816L415.155 449.921L415.304 448.728L416.497 444.7V443.507V441.418L416.945 440.374L417.392 439.479L420.525 435.899L420.823 434.855V434.407L420.525 433.811L420.077 433.512L418.735 433.065L418.287 432.617L417.84 431.872L417.392 430.38L417.243 428.739L417.84 424.115L420.077 425.01L422.464 425.308H425.447L427.983 425.159H429.176L430.221 425.756L431.116 426.651L431.712 427.993V429.037L431.563 430.678L431.862 432.617L432.309 433.811L433.353 434.855L435.591 435.899H437.381L438.723 435.601L441.259 434.407L442.005 434.258L442.453 434.706L443.198 436.496L444.093 438.435L446.779 442.761L447.375 444.402V446.49L447.674 449.324L449.314 451.413Z" fill="#009649" stroke="white" stroke-width="2" stroke-linejoin="round"></path>
<path class="region" data-country-region="East Region" d="M513.755 442.015L513.606 442.313L511.965 445.893L511.368 447.832L511.219 449.473V452.755L511.518 454.545V455.44L510.921 455.888L509.28 456.186V457.827L510.324 463.644L509.877 465.285L507.639 467.374L507.042 467.821L505.849 468.418L505.402 468.716L504.507 470.506L503.761 472.147L502.866 478.86V479.456L502.567 479.755L501.374 480.501L500.181 480.799L499.137 480.948L498.092 481.097L497.197 482.141L496.75 483.484L496.899 488.854L495.855 492.732L490.485 504.219L489.739 508.097L488.844 509.738L487.203 511.08L486.606 513.02V516.301L487.352 519.732L488.396 521.373L490.485 522.716L490.335 524.058L488.993 525.848L487.65 527.787L487.501 529.428V531.218L487.352 533.008L486.606 534.351L483.175 536.588L475.12 539.87L471.391 541.958L467.363 545.688L465.723 548.074L464.678 550.461L464.828 552.997L466.767 556.875L467.214 559.113L466.319 560.903L464.231 561.35H461.844L460.054 561.798L459.159 563.29L458.115 567.616L457.518 569.406L455.281 571.941L452.745 574.03L451.104 572.389L450.06 571.643L449.165 571.196H448.27L446.778 571.494H445.883L444.391 571.196L441.408 570.151L439.767 569.853L433.502 570.151L431.414 569.555L430.22 568.063L429.325 566.124L428.132 564.483L427.386 563.886L425.596 563.29L424.85 562.693L424.403 561.947L423.806 560.157L423.358 559.411L421.717 558.218L419.928 557.323L418.436 556.129L417.839 554.19L417.541 552.549L418.287 552.102L422.165 548.074L425.148 543.301L426.193 541.958L429.027 538.08L429.474 537.036L429.922 535.842L430.071 534.798L429.773 533.157L429.624 532.262L430.071 529.577L431.414 528.533L432.01 527.936L432.458 526.892L433.204 526.296H433.8L434.695 526.445L435.739 526.892L436.933 527.041L437.679 527.34L438.574 528.086L439.32 528.682H440.215L440.811 528.235L441.259 527.34L441.706 527.041L443.198 526.594L443.944 526.296L444.541 525.699L445.286 524.356L446.48 522.566L447.673 521.522L448.27 520.18L448.866 517.345L449.016 515.555L448.866 513.318L448.717 512.274L449.463 507.202L449.165 504.964L449.314 503.771V502.279L449.016 500.788L447.971 499.594L447.673 499.147L446.927 498.55L446.032 498.103L445.137 497.357L444.69 496.313V494.97L444.839 493.031L446.181 488.108L446.33 486.766L445.883 484.081L445.734 481.992L446.032 479.158L446.48 477.219L447.375 475.28L447.673 474.385L447.822 473.49L447.524 471.998L447.375 471.103L446.33 469.313L444.541 467.374L443.645 466.031L442.452 463.048L441.557 461.407L441.259 459.915L441.557 458.871L442.005 458.573H443.944L444.839 458.125L445.286 457.528V456.932V455.738L445.585 455.142L446.927 453.948L447.524 453.65L449.314 451.412L450.806 451.263L452.148 450.667L452.596 450.07L452.894 449.175L453.938 443.954L453.341 440.821L453.491 439.777L453.64 438.882L454.237 437.092V436.346L453.938 435.75L453.491 435.302L453.043 433.96L452.894 433.214L453.043 432.468L453.491 431.573L454.237 430.38L455.43 429.186L457.071 427.993L461.993 425.308L463.783 423.667L471.093 428.888L471.689 429.485L471.988 430.23V430.678L471.839 431.275L469.899 433.065L469.601 433.661V434.855L469.899 436.048L470.048 437.689L470.496 439.181L471.242 440.225L471.988 440.821L472.286 441.418L472.584 442.611L473.181 443.059L474.076 443.507L476.612 443.954L480.341 444.998L483.325 445.297L484.22 445.595L485.711 446.341L486.308 446.49L486.905 446.042L487.352 445.446L488.247 443.805L488.993 443.059L489.888 442.91L490.932 442.761L494.363 443.059H496.153L502.567 441.866L513.755 442.015Z" fill="#009649" stroke="white" stroke-width="2" stroke-linejoin="round"></path>
<path class="region" data-country-region="West Region" d="M209.39 471.998L211.776 472.744L213.567 474.683L213.716 476.473L211.031 477.368L208.196 477.07L201.036 473.788L202.826 471.998L204.169 472.296L208.346 472.147L209.39 471.998ZM137.49 460.959L138.385 462.302L140.175 461.854L142.562 462.302L144.799 463.197L145.844 464.539L146.739 465.285L146.888 465.882V466.479L146.142 467.672L144.501 468.269L144.352 468.716L144.501 469.76V470.059L144.054 470.655L141.07 472.445L140.473 472.594L137.341 472.147L135.998 471.252L134.805 470.059L133.015 468.865L133.761 467.97L134.507 466.777L135.103 465.583L135.7 462.898L136.595 461.407L137.49 460.959ZM240.865 413.822L241.909 414.418H243.102L244.146 413.971L245.34 413.374L245.489 416.805L243.848 420.385L241.312 423.667L238.627 425.755L235.494 426.65L235.047 427.098L234.898 427.993L233.854 430.529L232.064 433.363L230.87 434.556L229.528 435.451L228.185 435.899L226.843 436.048H223.859L222.815 436.346L221.025 437.54L219.832 437.838L218.937 437.54L216.997 436.346L216.252 436.048L212.97 435.6L212.224 435.153L212.075 434.258L212.671 433.363L213.716 432.02L214.462 431.275L218.042 429.634L219.235 428.739L220.13 425.755L221.025 425.606L224.754 424.711L225.798 423.667L227.141 420.833L227.887 419.788L230.273 417.551L230.721 416.805L231.467 416.208L234.599 415.164L235.644 414.12H236.986L239.671 413.374L240.865 413.822ZM158.075 397.861L157.926 398.905L158.075 399.8L158.821 400.098L159.716 400.247L161.357 400.546L162.401 400.695L163.446 401.59L163.147 403.678L162.103 407.407V408.452L162.551 409.794L162.7 410.838L162.551 410.987L161.805 412.927V413.374L160.313 413.971L159.269 415.463L158.225 417.103L157.18 418.297L156.435 418.893L155.987 419.043L151.661 418.893L151.214 419.192L150.766 420.982L149.573 421.877L147.932 422.175L146.291 422.026L143.308 420.982L141.368 420.683L140.324 419.788L139.877 419.49L139.28 418.893L137.341 416.208L136.595 415.313L135.253 415.463L133.612 415.015L132.12 414.269L131.076 413.374L130.927 412.33L131.076 408.004L131.672 405.617L132.567 403.529L133.91 401.59L135.253 400.098L136.148 399.501L138.534 398.457L139.578 398.308H140.623L142.562 398.756L143.308 398.905L144.054 398.606L145.098 398.01L145.694 397.711L154.048 396.816L155.987 395.772L156.435 395.921L157.479 396.667L157.926 397.115L158.075 397.861ZM50.3751 375.783L53.3585 378.916L54.2535 379.364L55.2977 380.259L55.596 382.049L55.1485 385.479V393.087L54.2535 393.535L48.1376 396.071L46.6459 396.369L45.7508 396.518L44.8558 396.22L42.9166 394.877L41.2758 394.43L38.7399 393.385L37.3974 393.535L36.5023 393.087V392.49L36.3532 392.192L34.8615 390.551L33.6681 388.761L32.9223 386.673L32.3256 382.645L31.1322 379.364L31.4306 378.17L39.1874 378.319L42.4691 376.678L46.6459 375.783L48.7342 375.038L49.3309 375.187L50.3751 375.783ZM110.49 365.938L112.28 367.281L118.247 369.369L120.485 369.668L123.319 370.712L127.943 375.933L130.479 377.573L129.882 377.723L129.286 378.17L130.479 378.916L129.882 380.557L128.092 383.391L127.347 385.181L125.706 385.778L123.766 385.479L120.037 384.286H113.772L112.131 383.839L110.49 382.794L108.85 382.198L106.91 383.093L105.568 381.601L104.971 379.214L104.076 377.424L101.839 376.977L105.717 371.756L105.866 370.563L105.419 369.071L106.015 367.43L107.507 366.386L109.148 365.938L109.894 366.535L110.49 365.938ZM60.6678 339.237L62.0103 340.43L62.7562 342.519L63.0545 344.458L63.3528 345.204L64.5462 346.099L65.5904 349.977L66.3362 350.723L66.9329 351.17L68.1263 352.811L68.7229 353.259H70.6621L71.5572 353.557L72.1538 353.856L72.7505 355.347L72.8997 357.585L72.7505 361.762L74.3914 371.607L75.2864 373.248L79.0156 376.529L79.314 376.977L79.4631 378.469L79.7615 379.513L80.3582 379.96L80.9548 380.109L81.2532 380.259L90.2033 386.076L90.9492 386.971L91.0984 387.866L91.695 388.612L92.7392 389.805L93.1867 389.955L94.6784 390.402V390.85L94.0818 392.192L94.8276 395.474L95.2751 399.203L94.6784 400.844L92.2917 402.932L91.5459 404.275L93.6342 403.081L94.2309 403.827V405.468L94.6784 406.811L98.4077 407.557L100.198 408.452L100.049 410.391L101.242 410.689L102.286 411.137L103.181 411.882L103.778 412.927L103.181 414.12L104.374 414.717L107.507 417.849L108.253 418.297H108.85L109.148 418.595V419.938L108.7 420.385L106.612 421.28L105.866 421.728L103.032 430.38L103.479 432.617L103.33 434.258L101.391 433.661L100.347 435.153L98.1093 437.689L97.0651 439.031L95.5735 438.435L94.0818 438.285L91.2475 438.435L89.6067 438.882L86.7725 440.971L76.4798 444.401L74.5406 443.954L73.198 444.401L65.292 443.208L55.2977 443.357L53.3585 442.761L52.016 441.567L51.7176 440.523L51.5685 439.628V437.54L51.1209 436.495L50.3751 436.346L49.3309 436.197L48.4359 436.048L46.1984 432.468L46.9442 428.44L49.3309 424.711L52.016 422.026L62.4578 415.313L62.9053 414.568V413.971L63.2037 413.523L64.5462 413.374L66.7837 412.479L69.9163 411.733H70.9605L71.8555 411.882L73.3472 412.927L74.8389 413.523H75.8831L76.7781 413.225L77.2256 412.628L77.9715 411.286L78.5681 410.987V410.092L79.314 408.302L80.5073 406.96L81.8499 407.407L82.894 405.916L83.0432 404.573L82.2974 403.529L81.2532 402.485L80.0598 401.888L77.5239 401.142L76.3306 400.695L74.2422 398.756L72.1538 395.921L70.513 392.789L69.618 389.805L69.7671 387.269L69.618 386.225L68.4246 385.479L67.8279 385.181H66.6346L66.0379 384.883L65.7396 384.435L64.8445 383.093L59.4744 380.109L57.5352 377.872V375.038L55.7452 373.993L54.701 372.054L54.8502 370.264L56.9386 369.668L55.2977 367.281L54.701 366.087L54.5518 364.447V361.463L54.4027 360.717L53.9552 359.226V358.331L53.2093 355.347L51.2701 354.005L48.4359 353.856L45.4525 355.049L42.32 357.137L40.8283 357.436L39.0382 356.541L37.2482 354.154L36.9498 353.557L37.099 352.811L37.5465 352.364L38.2924 352.066L44.2591 348.784L46.0492 346.994L46.6459 343.414L48.8834 344.16L50.5243 343.712L52.3143 342.817L55.1485 341.922L55.7452 341.325L56.3419 340.43L56.9386 339.834L57.9827 339.535H59.6236L60.6678 339.237ZM139.131 329.093L137.192 329.541L136.148 329.093L134.954 327.9L133.91 327.751L133.015 327.303L132.12 326.707L131.523 325.812L131.076 325.215L131.374 323.276L132.717 321.784L134.656 320.74L136.595 320.442L138.534 321.038L140.772 322.082L142.413 323.425L143.308 325.215L142.711 326.558L141.07 328.049L139.131 329.093ZM113.325 300.9L111.982 303.735L107.955 302.094L108.7 300.155L107.955 296.425L108.7 294.784L112.28 296.873L113.325 300.9ZM18.602 230.94L18.1545 231.387L17.707 231.089L17.5578 230.492V230.045L18.0053 229.747L18.4528 229.896L18.7512 230.492L18.602 230.94ZM2.04419 206.178L1.44751 206.327L1 205.432L1.44751 204.984L2.04419 205.432V206.178Z" fill="#009649" stroke="white" stroke-width="2" stroke-linejoin="round"></path>
</svg>