<svg width="982" height="559" viewBox="0 0 982 559" fill="none" xmlns="http://www.w3.org/2000/svg">
<path class="region" data-country-region="East Region" d="M915.689 377.322H914.118L913.234 376.929L912.448 376.34L911.761 375.358L911.27 374.081L910.091 367.697L909.699 366.224L909.011 365.046L908.127 363.965L905.672 362.394L904.69 361.314L901.645 354.832L900.958 353.948L898.404 353.064L887.405 353.162L886.423 352.867L882.101 349.725L880.726 349.135L858.138 351.394L856.861 351.198L855.879 350.609L855.093 349.823L854.504 348.743L853.915 345.894L853.522 345.011L852.442 344.028L846.058 343.93L843.799 341.377L842.031 340.002L837.906 338.921L837.612 336.073L836.924 333.618L836.433 332.44L834.862 330.377L830.933 327.038L826.416 324.877L825.433 323.895L821.014 314.565L820.228 313.681L819.344 313.485L818.559 313.779L815.907 315.547L814.925 315.744L813.943 315.449L813.157 314.565L812.666 313.387L812.568 311.913L813.354 304.449L813.157 303.467L812.47 302.485L809.13 299.637L805.006 297.575L799.702 299.342L795.97 299.048L790.667 295.414H789.881L789.095 295.807L785.756 298.36L778.39 297.967L776.23 296.887L765.132 284.807L764.052 284.414L763.069 284.611L758.945 286.87L757.963 286.771L745.588 280.486L744.999 279.897L744.606 279.209L744.213 276.852L743.918 276.263L743.231 275.87L737.044 274.986L735.079 274.2L734.49 273.415L734.097 272.629L733.999 271.647L734.687 263.397L734.981 262.12L735.374 261.04L739.499 255.54L739.793 254.853L739.401 253.478L735.374 249.549L734.785 248.371L734.49 247.192L734.392 245.916L734.49 244.639L734.883 243.362L735.472 242.282L744.115 230.104L744.606 229.122L744.704 228.139V227.059L743.034 220.381L743.133 219.399L743.526 218.515L744.999 216.158L745.293 214.979L745.588 211.542L746.079 209.97L746.766 208.595L748.731 206.337L760.418 199.756L763.757 194.846L764.543 194.158L765.328 193.864L766.212 193.962L768.275 195.239H769.257L770.239 194.846L771.221 193.962L772.007 192.882L772.596 191.801L772.989 190.623L773.185 189.542L770.926 176.088L774.069 178.739L775.444 182.962L776.132 183.453L776.917 183.552L777.703 183.453L778.39 182.962L782.712 177.757L789.586 177.07L802.55 179.427L805.89 178.543L808.345 176.48L812.666 170.49L813.452 168.624L813.845 167.15L814.827 166.463L817.282 167.445L818.068 168.132L821.112 172.257V173.632L820.719 174.32L819.148 178.543L818.853 180.605L819.246 182.962L820.719 184.436L822.978 188.659L821.603 192.096L818.755 194.649L812.568 198.283L808.639 199.855L801.666 200.149L800.095 200.935L799.015 203.194L799.309 204.863L806.381 213.801L808.639 214.783L810.113 214.586L811.291 213.801L812.862 213.506L814.729 213.997L818.755 215.961L820.719 216.354V217.14L819.443 218.318L818.952 219.595L819.344 220.872L820.719 222.247L822.389 224.113L823.371 226.666L824.157 229.416L825.335 232.166L826.907 234.425L836.335 243.755L841.54 244.835L846.844 243.264L851.165 239.434L853.816 238.746L859.611 238.55L864.325 237.175L865.013 236.193L864.816 233.934L863.736 232.363H862.557L861.379 232.657L860.593 232.363L860.004 227.256L864.423 228.336L872.869 233.934L871.986 238.059L873.852 240.318L883.083 242.085L885.244 243.264L889.86 247.192L891.53 247.978L894.967 248.666L896.735 249.942L897.324 251.219L898.306 254.755L899.092 256.228L902.038 258.585L904.101 258.192L908.127 254.656L907.833 253.969L907.243 253.871L913.038 253.183L918.636 255.147L929.439 261.138H932.778L938.573 257.406L940.635 258.781L941.519 262.808L941.224 266.245L941.814 268.995L945.644 271.156L941.715 275.772V281.763L944.269 288.637L947.706 295.61L949.179 302.191L950.063 303.86L952.028 305.235L956.447 305.628L958.509 306.217L960.375 307.789L963.224 311.128L965.09 312.306L967.152 312.11L969.509 311.128L971.768 310.735L973.929 312.306L974.518 314.074L975.5 321.833L976.187 323.895L977.857 327.824L978.545 329.886L980.607 339.413L981 344.028L980.411 347.76L974.42 347.957L971.768 348.939L965.777 354.439L961.75 354.635L957.527 353.359L952.813 351.001L951.831 350.805L950.751 351.001L946.626 353.162L940.242 352.278L937.296 354.144L936.51 356.01L936.117 360.135L935.43 362.099L934.251 363.278L929.439 365.831L923.252 373.492L920.011 375.554L915.788 374.67L915.689 377.322Z" fill="#009649" stroke="white" stroke-width="2" stroke-linejoin="round"></path>
<path class="region" data-country-region="West Region" d="M654.35 208.988L639.029 204.078L638.243 204.471L637.654 205.256L637.261 206.337L636.966 207.711L636.77 210.756L636.377 212.131L635.591 213.211L620.565 220.381L619.779 221.068L619.092 222.05L618.503 224.898L617.913 226.175L617.226 227.157L616.342 228.041L614.378 229.023L601.414 230.3L599.155 231.184L596.994 232.755L591.396 227.943L589.727 227.55L589.039 227.059L586.78 224.113L586.191 223.622L584.914 223.327L583.343 222.443L581.575 220.872L580.102 218.711L579.022 216.452L578.236 215.765L569.888 214.095L568.71 213.31L568.022 212.033L567.728 210.658V206.042L567.531 204.863L567.138 203.979L566.353 203.39L562.326 202.113L556.237 202.31L554.862 202.899L545.63 212.033L544.844 212.426L544.255 212.229L543.076 210.854L542.094 208.497L540.719 202.703L540.13 201.917L539.443 201.622L532.175 203.685L531.291 204.863L530.604 206.238L528.738 212.426L527.952 213.31L527.068 213.604L525.988 213.31L520.095 209.283L519.309 209.086L514.89 210.363H512.729L507.033 207.515L504.872 207.711L502.024 209.086L493.284 217.434L492.105 217.533L484.15 214.488L484.543 213.899L484.445 212.917L483.855 211.542L481.989 208.694L480.614 207.024L479.534 205.845L477.177 204.274L476.391 202.997L476.489 201.917L476.686 201.23L479.043 198.774L479.632 197.792L480.123 196.319L479.829 195.042L477.57 188.56L476.98 186.203L476.588 184.337V181.293L476.097 177.364L475.606 176.088L475.016 174.811L473.74 173.73L472.856 173.239H471.775L465.784 173.927L461.856 173.043L460.579 172.945L457.829 173.534H455.767L454.981 173.141L454.196 172.257L453.704 171.079L453.312 168.525L452.722 166.659L451.446 164.695L450.562 163.811L449.678 163.222L442.508 160.079L442.116 159.883L441.821 158.999L441.625 157.526L441.821 154.186L442.705 151.24L443.883 149.472L445.16 147.213L445.651 145.937L445.848 144.071L445.749 141.812L444.473 132.678L443.687 130.616L442.705 128.848L442.312 127.473L442.41 125.607L442.901 124.429L443.883 122.857L443.982 121.973L443.687 121.089L444.473 120.5L445.946 120.304L448.205 121.188L456.258 127.964L457.24 128.455L458.124 128.553L459.008 128.161L465.195 121.089L466.668 120.5H468.24L474.525 123.054L477.275 125.312L481.695 131.009L483.855 132.875L484.936 133.366L485.918 133.464L486.9 133.169L487.784 132.384L488.373 131.205L488.766 129.634L489.257 122.366L489.65 121.089L490.534 120.5L494.266 119.223H495.935L496.721 119.714L499.765 122.955L501.435 124.036L512.533 126L513.613 125.803L514.399 125.116L514.988 123.839L515.185 122.366L515.086 120.991L514.792 119.616L509.881 108.125L509.587 106.358L510.667 101.545V98.6972L510.47 97.4205L509.979 96.1438L509.292 94.9652L507.524 92.6081L506.837 90.9386L506.444 88.8761L506.247 84.3584L506.444 82.296L506.837 80.6264L507.328 79.3497L507.622 78.0729L507.229 76.2069L502.417 66.484L500.355 59.8057L517.738 65.993L519.408 67.0733L521.274 70.0196L522.354 71.0017L523.925 71.4928L536.005 68.6447L539.541 68.9393L539.836 70.5107L540.327 71.8856L547.692 84.4566L548.576 84.7513L552.603 84.6531L561.147 81.4121L563.603 81.7067L565.567 83.5727L567.433 87.2065L568.71 90.3493L569.495 93.492L569.102 96.1438L567.04 97.9115L566.647 99.3847L567.04 100.76L573.227 99.5811L582.165 90.9386L588.352 91.5278L592.87 95.0634L595.128 96.0455L597.584 95.5545L599.351 93.2956L600.334 90.3493L601.414 88.0904L603.28 87.6976L608.583 87.7958L613.297 88.9743L617.717 91.5278L630.092 104.688L631.368 109.009L626.851 110.875L627.44 112.643V113.331L626.36 115.295L625.967 118.241V119.616L625.181 121.188L622.136 124.134L620.761 126.098L618.306 126.589L613.69 125.312L611.333 126.098L610.253 129.044L608.092 130.91L605.539 132.384L603.28 134.25L602.494 134.544L601.217 135.428L600.334 135.526L601.316 138.767L598.369 138.08L597.191 141.714L598.566 145.74L603.28 146.624L605.146 152.419L605.833 153.794L607.699 155.267L608.78 155.07L609.86 154.186L611.53 153.597H618.11L619.485 153.99L620.565 156.151L620.663 158.213L620.467 160.276L620.86 162.338L623.413 165.775L629.895 168.132L633.136 170.391L635.199 173.338L638.93 180.016L640.993 182.962L642.859 186.301L647.278 190.819L648.85 195.14L650.421 202.899L651.796 205.649L654.35 208.988Z" fill="#009649" stroke="white" stroke-width="2" stroke-linejoin="round"></path>
<path class="region" data-country-region="West Region" d="M371.797 211.444L372.288 212.426L373.27 213.604L374.252 214.193L377.297 215.176L378.181 215.863L378.77 216.943L378.966 218.122L378.573 219.595L377.395 221.265L373.27 225.193L372.877 225.881L372.681 226.666L373.466 228.532L373.761 229.809L373.565 231.871L373.663 232.461L374.547 234.621V235.702L373.466 237.862L370.225 238.648L365.02 238.943L362.467 238.648L360.404 238.157L359.717 237.764L358.342 237.862L356.967 238.255L354.61 240.023L352.449 241.987L351.565 242.478L345.083 244.541L334.673 246.407L328.584 248.96L326.522 248.469L325.736 247.585L325.539 246.21L325.834 242.478L325.343 240.809L321.415 236.291L320.432 234.425L319.647 231.675L318.566 229.613L315.031 225.095L314.54 224.407L314.442 223.327L315.325 220.774L315.227 219.791L313.95 218.613L311.299 216.943L310.611 216.059L310.71 215.372L311.201 214.684L313.95 213.015L320.825 210.461H322.495L326.129 212.033L326.816 212.131L327.7 211.935L328.486 211.444L329.271 210.265L328.879 207.81L329.271 206.533L329.861 206.042L349.012 200.444L356.181 199.658L357.753 199.953L359.422 200.935L361.681 203.292L363.449 204.667L364.136 205.453L364.627 206.926L365.217 207.908L366.297 208.399L369.734 209.283L370.815 210.069L371.797 211.444Z" fill="#009649" stroke="white" stroke-width="2" stroke-linejoin="round"></path>
<path class="region" data-country-region="West Region" d="M626.458 328.315L626.164 330.77L625.476 333.323L623.709 337.841V339.02L624.003 340.002L628.03 343.93L628.521 345.01L628.816 346.287L629.012 347.662L628.914 349.037L628.619 350.314L628.226 351.394L627.637 352.082L623.316 352.867L622.628 353.358L622.235 354.046V355.126L623.021 358.072L623.414 368.286L623.709 369.858L626.36 378.402L626.557 379.974L626.458 381.348L625.869 382.429L613.2 390.187L611.334 392.053L609.861 394.509L609.272 395.884L608.977 397.455L608.879 398.83L609.272 400.696L610.254 402.562L610.647 404.133L610.45 404.821L610.057 405.312L606.914 406.589L606.227 407.276L605.736 408.258L605.048 411.008L604.852 413.758L605.048 415.035L605.343 416.115L605.932 416.901L607.798 417.883L608.486 418.472L609.075 419.258L609.37 420.24V421.32L609.075 422.499L608.388 423.677L606.325 426.133L605.736 427.311L605.441 428.392L605.638 430.356L606.816 433.204L607.111 434.186V435.266L606.816 436.248L605.834 438.507L602.691 442.338L592.477 445.677L591.888 446.168L588.844 450.685L587.665 451.668L586.192 452.159L576.174 450.489L575.487 450.685L572.933 452.65L572.05 453.043L567.728 453.239L565.96 452.748L565.175 452.06L564.487 451.177L563.898 449.802L563.112 448.819L562.13 448.721L561.05 449.311L557.318 454.025L556.729 453.828L555.354 453.73L554.666 454.025L553.88 454.712L553.389 455.694L552.604 458.837L551.916 459.819L550.934 460.31L545.925 459.819L541.899 461.685L531.39 471.212L530.506 471.31L529.622 471.015L525.301 467.283L524.319 466.89H523.239L522.355 467.283L520.882 468.462L519.801 469.738L519.408 470.721L518.23 472.39L517.444 473.078L516.659 473.176L515.775 472.783L513.025 468.363L511.944 467.48L510.962 466.89L509.98 466.792L509.096 466.988L508.409 467.578L508.016 468.56L507.918 467.774L507.132 466.694L505.855 465.614L504.088 465.221L501.829 465.024L500.847 464.828L499.963 464.239L498.784 461.685L498.293 461.194L497.115 460.899L496.722 459.426L497.311 456.775L497.998 455.891L502.713 450.293L503.4 448.819L503.695 447.739L503.989 445.186L504.775 443.909L505.561 443.811L508.703 443.614L509.686 443.32L511.06 442.436L511.453 441.945L511.159 440.57L510.275 439.391L503.4 432.516L502.811 432.124L501.73 432.222L496.132 434.481L494.07 434.677L487.195 433.4L484.151 433.891L482.874 433.4L475.999 426.918L475.312 425.936L474.821 424.463L474.526 422.401L474.231 418.865L473.642 416.999L472.758 415.821L471.58 415.329L464.508 414.446L462.839 414.053L462.25 413.66L454.589 409.633L453.705 409.535L452.92 409.83L452.232 410.321L449.679 414.249L448.991 414.642H448.402L442.607 410.91L438.777 405.803L434.554 402.955L431.313 399.812L429.054 398.437L427.778 398.339L426.501 398.732L424.045 401.089L422.671 401.482L421.394 401.285L418.644 399.616L413.242 394.509L412.457 393.428L412.064 392.25L411.867 391.17L412.162 386.554V385.473L411.474 384.197L409.019 381.84L408.43 380.759L408.037 379.384V377.813L411.082 365.733L411.278 361.608L410.885 357.974L408.725 350.117L409.019 349.233L409.903 348.742L415.01 347.171L415.992 346.484L416.581 345.501V344.421L416.189 343.341L415.599 342.359L413.537 340.1L414.715 339.609L416.385 338.136L416.974 337.055L417.662 335.287L418.546 333.913L421.296 332.439L421.885 331.359L421.394 329.591L421.492 329.002L422.179 328.02L422.867 327.922L424.045 328.02L429.742 330.475L431.313 330.573L433.277 330.377L436.715 329.297L440.938 329.395L443.393 330.475L447.518 329.788L458.812 324.288L459.205 321.636L458.812 319.181L458.125 317.217L457.339 315.94L456.553 315.056L449.973 310.145L449.286 309.262L449.089 308.279L449.482 306.61L450.17 305.431L453.509 301.601L454.687 299.833L455.08 298.949L455.473 297.083L456.259 295.316L457.437 294.039L458.616 293.646L459.401 293.744L461.267 294.923L462.053 295.119L463.232 294.923L469.124 291.387L474.231 289.423L479.338 284.807L480.222 284.316L483.954 284.905L485.918 284.512L487.097 283.923L487.981 283.137L488.472 282.352L488.865 281.37L489.454 277.736L489.945 275.968L491.124 273.807L492.695 272.334L494.168 271.843L494.757 271.254L494.954 270.075L494.856 267.718L495.052 265.852L501.338 270.075L504.088 273.316L507.82 279.405L509.391 281.173L510.177 281.566L521.274 280.682L523.828 281.37L530.408 286.575L534.238 287.557L536.301 288.834L537.086 289.619L537.577 290.7L537.872 292.959L538.265 293.744L538.854 294.235L542.586 296.101L544.943 297.967L546.908 300.717L549.166 305.333L552.898 306.315L553.88 305.824L555.157 305.628L557.121 306.512L558.693 307.003H560.068L561.541 306.021L563.702 303.565L564.389 303.172L566.059 302.583L566.746 301.994L567.237 301.11L567.925 299.342L568.907 298.164L569.791 298.262L570.773 298.655L572.737 300.03L574.701 301.012L576.862 301.798L580.201 302.485L581.871 303.369L582.853 304.449L583.737 306.61L584.817 307.297L586.388 307.69L589.531 307.396L593.263 307.592L596.209 308.476L600.531 310.637L605.932 314.27L607.798 315.842L609.173 317.413L610.057 319.083L611.039 320.556L612.611 321.734L617.718 323.6L623.709 327.431L626.458 328.315Z" fill="#009649" stroke="white" stroke-width="2" stroke-linejoin="round"></path>
<path class="region" data-country-region="West Region" d="M500.355 59.8054L502.417 66.4838L507.23 76.2067L507.623 78.0727L507.328 79.3494L506.837 80.6262L506.444 82.2957L506.248 84.3582L506.444 88.8759L506.837 90.9383L507.524 92.6079L509.292 94.965L509.98 96.1435L510.471 97.4203L510.667 98.697V101.545L509.587 106.357L509.881 108.125L514.792 119.616L515.087 120.991L515.185 122.366L514.988 123.839L514.399 125.116L513.613 125.803L512.533 126L501.435 124.035L499.766 122.955L496.721 119.714L495.935 119.223H494.266L490.534 120.5L489.65 121.089L489.257 122.366L488.766 129.633L488.373 131.205L487.784 132.383L486.9 133.169L485.918 133.464L484.936 133.365L483.855 132.874L481.695 131.008L477.275 125.312L474.525 123.053L468.24 120.5H466.669L465.195 121.089L459.008 128.16L458.124 128.553L457.24 128.455L456.258 127.964L448.205 121.187L445.946 120.303L444.473 120.5L443.687 121.089L438.482 116.473L437.009 113.625L435.732 106.947L432 107.929L429.938 107.34L429.054 106.456L426.304 103.215L425.518 102.625L424.732 102.429L421.295 102.724L420.116 102.134L418.742 100.956L417.661 100.858L416.679 101.054L415.01 101.84H413.831L412.358 101.25L411.572 101.152L410.885 101.447L410.295 102.134L408.626 104.884L407.84 105.965L404.796 108.518L403.322 110.384L401.751 113.429L400.769 114.804L399.492 115.884L397.135 117.161L396.055 117.946L394.287 119.616L393.01 120.598L387.707 123.152L381.814 127.08L368.85 130.419L366.297 130.714L365.02 130.517L364.333 129.633L363.842 127.08L363.35 125.901L362.663 125.509L361.681 125.41L359.422 125.509L356.672 125.116L350.19 125.214L348.619 125.705L347.539 120.5L337.226 111.955L329.075 86.2242L328.878 84.9474L329.075 83.9653L329.566 83.0814L330.253 82.2957L332.316 81.019L334.968 74.1442L335.557 73.3585L338.798 70.2158L339.191 69.4301L339.387 68.448V66.0909L339.682 64.9124L340.762 63.0464L342.628 61.2786L344.298 51.8503L344.789 50.6718L345.574 50.4754L346.655 50.9664L354.217 58.8233L355.395 59.1179L356.672 58.8233L357.752 58.0376L358.636 56.8591L359.422 55.3859L359.815 53.7163L360.11 50.1807L360.404 49.0022L360.895 48.2165L361.484 47.7255L365.806 47.3326L366.493 46.9398L367.475 45.5648L367.966 43.6006L368.654 45.3684L373.663 46.7434L375.725 47.9219L381.323 52.145L386.626 53.3235L389.769 53.4217L392.126 52.8324L393.599 51.1629L394.974 48.5112L397.233 42.4221L400.278 42.5203L405.581 41.0471L422.081 42.2257L422.375 40.2614L422.277 32.3063L421.982 30.735L422.081 29.4582L422.474 28.6725L423.947 27.1011L424.34 25.9226L424.241 19.2443L421.982 16.0033L419.625 14.1373L419.036 11.4856L420.509 10.1106L422.081 9.52137L424.241 8.0482L424.929 6.96788L425.322 5.00366L428.072 7.55715L435.339 9.22674L436.616 11.4856L438.286 13.1552L440.348 14.1373L442.018 13.8427L442.509 11.4856L443.785 8.44105L445.651 7.1643L447.321 8.0482L448.008 11.4856L449.383 14.923L457.633 15.0212L461.463 16.9854L463.82 20.7174L463.624 22.9763L462.445 25.3333L461.365 29.5564L461.856 32.8956L463.133 36.9222L464.901 40.7525L466.472 43.2078L469.32 45.5648L471.972 46.6451L474.133 48.5112L475.9 52.8324V55.0913L475.507 57.3501L475.409 59.5108L476.293 61.475L478.356 62.0643L480.025 60.3947L481.4 57.9394L482.677 56.2698L488.766 55.7788L500.355 59.8054Z" fill="#009649" stroke="white" stroke-width="2" stroke-linejoin="round"></path>
<path class="region" data-country-region="West Region" d="M443.687 121.089L443.982 121.973L443.883 122.857L442.901 124.429L442.41 125.607L442.312 127.473L442.705 128.848L443.687 130.616L444.473 132.678L445.749 141.812L445.848 144.071L445.651 145.937L445.16 147.214L443.883 149.472L442.705 151.24L441.821 154.186L441.625 157.526L441.821 158.999L442.116 159.883L442.508 160.079L449.678 163.222L450.562 163.811L451.446 164.695L452.722 166.659L453.312 168.525L453.705 171.079L454.196 172.257L454.981 173.141L455.767 173.534H457.829L460.579 172.945L461.856 173.043L465.784 173.927L471.775 173.239H472.856L473.74 173.731L475.016 174.811L475.606 176.088L476.097 177.364L476.588 181.293V184.337L476.98 186.203L477.57 188.56L479.829 195.042L480.123 196.319L479.632 197.792L479.043 198.774L476.686 201.23L476.489 201.917L476.391 202.997L477.177 204.274L479.534 205.846L480.614 207.024L481.989 208.694L483.855 211.542L484.445 212.917L484.543 213.899L484.15 214.488L481.793 216.845L481.204 218.22V219.399L481.989 223.131V223.916L481.695 227.059L480.32 226.961L477.373 227.747L474.722 229.023L474.034 230.104L475.704 232.755L476.784 233.836L480.123 236.095L485.034 237.666L486.114 238.353L491.418 243.46L492.498 244.344L494.462 244.835L495.444 245.326L496.525 246.21L497.899 247.88L498.096 248.96L497.212 251.612L497.114 252.496L497.016 257.013L496.525 259.567L495.837 261.728L495.248 264.085L495.051 265.852L494.855 267.718L494.953 270.076L494.757 271.254L494.167 271.843L492.694 272.334L491.123 273.808L489.944 275.968L489.453 277.736L488.864 281.37L488.471 282.352L487.98 283.138L487.096 283.923L485.918 284.513L483.954 284.905L480.222 284.316L479.338 284.807L474.231 289.423L469.124 291.387L463.231 294.923L462.052 295.119L461.267 294.923L459.401 293.744L458.615 293.646L457.437 294.039L456.258 295.316L455.472 297.084L455.079 298.95L454.687 299.833L453.508 301.601L450.169 305.431L449.481 306.61L449.089 308.28L449.285 309.262L449.972 310.146L456.553 315.056L457.338 315.94L458.124 317.217L458.811 319.181L459.204 321.636L458.811 324.288L447.517 329.788L443.392 330.475L440.937 329.395L436.714 329.297L433.277 330.377L431.312 330.574L429.741 330.475L424.045 328.02L422.866 327.922L422.179 328.02L421.491 329.002L421.393 329.591L421.884 331.359L421.295 332.44L418.545 333.913L417.661 335.288L416.974 337.055L416.384 338.136L414.715 339.609L413.536 340.1L412.554 340.296L411.277 339.609L409.804 338.136L409.215 337.252L407.938 334.109L407.054 333.52L405.286 332.832L402.438 333.422L400.965 333.225L400.278 332.734L400.081 330.77L399.59 329.886L398.805 329.199L394.581 327.922L393.305 326.94L392.224 325.565L391.439 324.681L390.26 324.779L388.394 326.35L387.412 327.824L386.528 329.591L386.234 330.966L385.939 336.859L384.957 338.234L382.993 339.805L378.278 340.787L377.296 341.279L375.136 343.439L371.698 345.698L370.127 346.091L368.556 346.287L365.118 345.796L364.824 344.912L365.02 343.636L363.154 343.145L347.047 343.832L344.396 343.439L341.94 342.162L340.074 341.671L338.208 341.77L337.03 341.966L330.253 345.796L328.78 345.993L327.7 345.894L326.619 345.403L325.932 344.814L324.95 343.341L323.771 342.261L322.102 341.671L321.512 340.787L321.021 339.314L319.745 338.43L317.977 337.939H315.718L313.95 338.332L312.673 338.921L310.022 341.573L307.174 342.752L298.727 343.832L294.897 343.734L293.031 343.046L290.281 342.85L289.397 342.555L287.63 341.18L286.156 340.395L285.076 340.198L284.094 340.395L282.424 341.279L281.541 342.064L280.755 343.636L279.969 346.189L279.183 346.975L272.21 349.135L270.344 350.314L267.693 351.689L266.22 351.885L264.943 351.689L262.389 350.216L261.505 349.626L259.738 349.037L256.693 348.939L255.907 348.644L254.238 347.466H252.765L244.319 352.376V350.314L245.399 346.975L245.792 344.814V343.537L245.497 341.966L244.515 340.493L243.14 338.725L242.649 337.743L242.256 336.368L242.06 334.109L242.158 328.511L241.863 327.333L241.372 326.154L240.095 324.681L239.113 323.993L237.738 323.404L236.953 322.913L236.462 322.127L236.069 320.36L236.167 319.574L237.444 318.297L237.738 317.708L237.247 316.529L235.381 315.351V315.056L236.265 314.369L237.444 313.681L237.64 312.994L237.444 312.208L235.283 310.244L234.694 309.262L235.087 308.181L235.872 307.199L237.542 305.53L239.212 304.449L240.979 303.664L245.301 302.682L246.381 302.092L247.461 301.012L251.095 296.985L251.586 296.003L251.488 295.316L251.193 294.53L250.113 293.941L248.738 293.352L248.149 292.468L248.247 291.191L248.443 290.012L249.917 285.004L250.015 283.923L249.524 281.664L249.426 280.191L251.193 275.575L251.488 274.102V270.174L252.175 269.093L253.943 268.897L255.711 268.111L255.907 267.129L255.809 266.049L254.336 261.237L254.14 260.058V258.094L254.434 257.308L253.747 256.228L252.47 254.951L244.908 251.023L244.417 249.157L243.828 248.273L242.944 247.683L238.131 246.21L237.247 245.719L236.265 244.934L232.533 240.71L231.257 239.925L229.685 239.139L226.935 238.353L225.462 238.255L224.284 238.353L222.319 238.844L220.355 239.041L217.703 238.746L216.427 237.862L209.454 231.086L206.9 229.907L204.543 229.318L202.579 228.532L201.008 228.729L198.061 230.398L196.49 230.791L195.017 230.693L194.231 230.398L193.74 229.711V228.729L194.329 227.157L195.311 224.8V222.64L193.543 218.122L195.115 215.961L196.883 214.979L199.141 214.39L200.615 213.702L204.347 209.97L206.016 208.792L207.391 207.024L208.766 203.685L210.73 200.64L211.516 199.658L213.186 198.676L221.73 195.141L227.917 191.114L229.292 189.739L230.864 188.659L232.042 188.266H233.614L234.596 188.462L236.069 189.15H236.756L239.31 188.462L253.158 181.195L254.336 181.096L255.515 181.587L256.497 182.373L257.577 182.766L258.559 182.569L260.229 181.293L261.014 180.409L262.782 178.15L271.425 172.748L272.8 172.257L274.764 172.356L275.943 172.257L277.121 171.766L277.907 170.49L278.3 168.82L278.103 167.445L278.3 165.186L278.594 164.204L279.183 163.222L280.362 162.731L282.13 162.24L288.121 162.043L291.755 162.829L295.094 164.008L298.04 164.4L309.432 162.436L314.147 164.204L316.013 163.517L319.155 160.865L320.334 160.079L321.414 159.785L325.539 159.392L328.093 159.588L329.173 159.392L330.351 158.704L331.53 157.035L332.512 154.383L333.298 153.303L333.396 151.928L332.512 148.785L332.61 146.624V145.74L331.726 142.794L331.432 141.91L331.628 141.026L332.119 140.535L333.298 140.732L335.262 141.615L336.735 141.91L338.896 140.83L343.119 137.294L344.297 136.607L345.181 135.919L345.672 134.937L346.163 133.169L346.36 131.303V129.928L346.654 128.062L347.637 126.393L348.619 125.705L350.19 125.214L356.672 125.116L359.422 125.509L361.681 125.411L362.663 125.509L363.35 125.902L363.841 127.08L364.332 129.634L365.02 130.518L366.297 130.714L368.85 130.419L381.814 127.08L387.707 123.152L393.01 120.598L394.287 119.616L396.055 117.947L397.135 117.161L399.492 115.884L400.769 114.804L401.751 113.429L403.322 110.384L404.795 108.518L407.84 105.965L408.626 104.885L410.295 102.135L410.884 101.447L411.572 101.153L412.358 101.251L413.831 101.84H415.009L416.679 101.054L417.661 100.858L418.741 100.956L420.116 102.135L421.295 102.724L424.732 102.429L425.518 102.626L426.304 103.215L429.054 106.456L429.937 107.34L432 107.929L435.732 106.947L437.009 113.625L438.482 116.473L443.687 121.089ZM371.797 211.444L370.814 210.069L369.734 209.283L366.297 208.399L365.216 207.908L364.627 206.926L364.136 205.453L363.449 204.667L361.681 203.292L359.422 200.935L357.752 199.953L356.181 199.658L349.012 200.444L329.86 206.042L329.271 206.533L328.878 207.81L329.271 210.265L328.485 211.444L327.7 211.935L326.816 212.131L326.128 212.033L322.495 210.461H320.825L313.95 213.015L311.2 214.684L310.709 215.372L310.611 216.059L311.299 216.943L313.95 218.613L315.227 219.791L315.325 220.774L314.441 223.327L314.539 224.407L315.031 225.095L318.566 229.613L319.646 231.675L320.432 234.425L321.414 236.291L325.343 240.809L325.834 242.478L325.539 246.21L325.736 247.585L326.521 248.469L328.584 248.96L334.673 246.407L345.083 244.541L351.565 242.478L352.449 241.987L354.61 240.023L356.967 238.255L358.342 237.862L359.717 237.764L360.404 238.157L362.466 238.648L365.02 238.943L370.225 238.648L373.466 237.862L374.546 235.702V234.621L373.663 232.461L373.564 231.871L373.761 229.809L373.466 228.532L372.68 226.666L372.877 225.881L373.27 225.193L377.395 221.265L378.573 219.595L378.966 218.122L378.769 216.943L378.18 215.863L377.296 215.176L374.252 214.193L373.27 213.604L372.288 212.426L371.797 211.444Z" fill="#009649" stroke="white" stroke-width="2" stroke-linejoin="round"></path>
<path class="region" data-country-region="West Region" d="M129.118 145.053L133.93 149.178L136.385 150.553L145.912 151.633L146.796 152.32L147.483 153.303L148.465 155.267L149.546 156.642L151.313 158.017L154.947 158.802L159.367 158.999L163.491 160.079L165.652 161.258L166.634 162.338L167.322 163.811L168.107 166.856L168.304 168.82L168.402 170.784L168.107 175.695V177.168L168.402 179.82L168.893 182.766L169.09 185.123L168.991 186.301L168.304 188.462L168.795 190.328L169.875 192.587L172.92 197.301L173.902 199.756L174.295 201.622L173.214 203.587L171.054 206.336L170.563 207.81L170.956 208.497L172.036 209.577L175.08 211.738L176.848 213.309L175.277 213.997L174.393 214.979L173.804 216.158L173.705 217.533L173.804 218.907L174.196 220.282L175.179 222.64L175.277 223.523L174.688 224.113L166.241 225.979L165.652 226.568L165.357 227.452V228.63L165.456 229.907L167.125 236.585L166.929 237.469L166.34 238.059L165.554 238.353L163.688 238.451L161.724 237.666L156.617 231.871L146.599 229.907L145.912 230.005L144.439 230.987L141.296 234.425L127.841 241.692L127.055 242.38L126.466 243.558L124.6 253.085L123.912 253.871L123.029 254.165L120.671 253.576L116.743 251.612L115.172 251.906L111.538 254.558L111.047 254.755L109.966 254.263L106.726 250.924L95.5294 250.728L94.5473 251.219L90.1278 256.424L89.4404 256.817L87.3779 257.21L84.9226 256.915L80.6014 255.344H79.8157L79.03 255.737L75.1015 259.665L74.0212 260.254L72.6463 260.549L65.7715 259.272L64.8876 257.603L62.8252 256.817L56.9325 253.281L57.0307 250.826L58.0128 247.782L57.7182 244.541L55.2629 242.184L49.8613 241.594L47.7007 239.434H47.5042L25.6032 227.648L25.1121 226.273V224.211L24.8175 221.854L23.5408 219.595L21.3801 217.827L19.1213 216.452L17.0588 214.586L15.7821 211.149L15.6839 207.81L16.7642 202.604L16.2731 199.265L15.1928 196.515L13.5232 193.962L9.98763 190.132L2.81822 185.614L1.34506 182.962L3.11286 180.212L4.68423 179.23L5.66634 178.15L5.86277 175.204L5.37171 171.963L4.19318 169.998L0.854004 166.463L11.4608 167.248L14.2107 169.213L15.0946 171.373V175.204L15.5857 176.971L17.2552 178.445L19.3177 179.132L23.5408 179.23L24.5229 179.82L25.0139 180.605L24.9157 181.686L24.3264 182.962L23.1479 183.748L22.9515 184.239L23.5408 185.221L26.0942 187.775L26.6835 188.658L27.2728 190.132L27.6656 192.587L29.4334 198.872L30.9066 201.131L33.3619 201.426L35.4243 199.953V197.989L34.5404 195.533L34.1475 192.783L34.5404 188.757L35.3261 186.596L38.1742 182.962L38.567 179.328L39.7456 177.561L41.4152 176.382L43.0847 174.713L47.5042 166.463L49.0756 164.891L53.3969 162.534L55.0665 160.963L55.5576 160.668L56.9325 160.767L57.5218 160.374L57.8164 159.588L57.5218 157.427L58.2092 155.267L58.7003 154.186L63.8073 149.767L69.6017 147.999L80.5032 147.213L88.2618 148.588L90.1278 148.392L91.6992 146.821L94.9402 141.812L96.8062 140.044L99.1632 139.16L101.52 138.964L104.074 139.357L104.958 139.062L107.02 137.687L108.297 137.392L109.475 137.785L122.93 145.937L127.939 146.231L129.118 145.053Z" fill="#009649" stroke="white" stroke-width="2" stroke-linejoin="round"></path>
<path class="region" data-country-region="West Region" d="M413.536 340.1L415.598 342.359L416.188 343.341L416.581 344.421V345.502L415.991 346.484L415.009 347.171L409.902 348.743L409.018 349.234L408.724 350.118L410.884 357.974L411.277 361.608L411.081 365.733L408.036 377.813V379.384L408.429 380.759L409.018 381.84L411.474 384.197L412.161 385.474V386.554L411.866 391.17L412.063 392.25L412.456 393.429L413.241 394.509L418.643 399.616L421.393 401.286L422.67 401.482L424.045 401.089L426.5 398.732L427.777 398.339L429.053 398.437L431.312 399.812L434.553 402.955L438.776 405.803L442.606 410.91L448.401 414.642H448.99L449.678 414.249L452.231 410.321L452.919 409.83L453.704 409.535L454.588 409.633L462.249 413.66L462.838 414.053L464.508 414.446L471.579 415.33L472.757 415.821L473.641 416.999L474.23 418.865L474.525 422.401L474.82 424.463L475.311 425.936L475.998 426.919L482.873 433.401L484.15 433.892L487.194 433.401L494.069 434.677L496.132 434.481L501.73 432.222L502.81 432.124L503.399 432.517L510.274 439.391L511.158 440.57L511.452 441.945L511.06 442.436L509.685 443.32L508.703 443.614L505.56 443.811L504.774 443.909L503.988 445.186L503.694 447.739L503.399 448.82L502.712 450.293L497.998 455.891L497.31 456.775L496.721 459.426L497.114 460.9L498.292 461.194L498.783 461.685L499.962 464.239L500.846 464.828L501.828 465.024L504.087 465.221L505.854 465.614L507.131 466.694L507.917 467.774L508.015 468.56V469.542L507.328 471.801L505.069 477.399L504.578 479.167L503.988 480.542L503.596 482.604L500.256 481.328L493.087 475.14L490.042 473.274L483.561 471.114L476.587 467.578L473.347 466.694L466.57 466.596L465.883 466.105L465.195 465.024L464.508 464.042H463.427L462.838 465.024L462.445 467.971L461.954 469.149L459.99 471.506L459.204 471.997L448.205 475.042L445.258 474.944L446.24 471.801L446.339 468.757L445.651 465.81L444.669 462.667L433.375 461.784L425.321 458.935L422.08 459.426L421.688 459.721L421.393 460.507L421.589 462.667L419.625 467.382L419.527 473.667L420.116 480.444V486.533L417.072 500.282L415.991 503.13L415.697 504.604L415.991 505.978L416.679 507.746L417.661 509.612L415.991 513.443L413.045 513.737L405.483 510.594L397.92 509.612L395.76 510.398L394.876 512.559L394.287 515.21L392.912 517.764L392.126 521.987L384.564 528.665L381.814 533.183L381.225 539.076L381.323 545.754L380.635 551.45L377.689 554.397L375.332 554.298L374.153 552.825L373.27 550.763L371.796 548.7L370.814 548.504L368.555 549.29L367.475 549.093L366.984 548.209V546.736L366.788 545.361L365.904 544.477L363.645 544.674L359.324 546.834L357.163 547.325L355.395 546.834L349.601 543.79L346.163 539.763L344.003 541.138L340.762 549.879L338.503 552.236L330.941 555.477L328.092 557.834L326.914 558.227L325.539 558.423L311.102 553.316L290.576 551.057L285.665 548.897L284.487 547.816L281.933 544.772L281.344 543.495L280.656 540.549L280.951 539.861L281.737 539.567L282.719 537.504L283.112 537.21L283.897 537.308L284.487 537.111L284.781 535.736L284.389 534.46L283.505 533.87L282.522 533.379L281.835 532.692L280.853 530.924L278.496 527.192L277.219 525.817L267.398 520.415L264.255 517.764L261.604 515.701L258.854 514.228L253.059 512.657L250.211 509.711L243.238 495.666L239.801 490.461L237.836 489.283L232.435 488.399L229.685 487.122L227.131 484.667L224.873 481.229L223.399 477.203L223.007 472.98L220.355 473.274L217.9 471.997L215.444 469.935L212.891 468.462L210.534 467.873L210.337 465.81L213.48 459.034L216.819 453.828L219.962 450.686L220.65 449.507L221.042 448.23L221.141 446.266L220.748 443.909L220.65 441.552L221.239 438.311L223.105 433.499L224.578 431.731L225.953 431.142L227.721 431.436L228.899 430.945L230.274 428.981L234.104 421.713L235.381 420.437L236.953 419.455L238.131 419.062L238.917 418.374L239.015 417.49L238.328 415.919L236.363 413.857L235.774 413.071L235.578 412.285L235.676 411.401L237.051 409.339L237.542 408.455L237.738 407.669V406.393L236.854 404.232L237.051 402.66L238.328 401.286L240.783 399.714L241.569 399.125L242.649 396.67L243.435 393.821L244.711 390.973L247.461 386.259L248.149 384.884L248.345 383.411L248.149 381.545L247.363 377.617L246.97 374.867L247.265 371.429L248.247 367.206L248.443 366.126L248.247 364.162L246.381 356.992L244.318 352.376L252.765 347.466H254.238L255.907 348.644L256.693 348.939L259.738 349.037L261.505 349.627L262.389 350.216L264.943 351.689L266.219 351.885L267.693 351.689L270.344 350.314L272.21 349.135L279.183 346.975L279.969 346.189L280.755 343.636L281.54 342.064L282.424 341.279L284.094 340.395L285.076 340.198L286.156 340.395L287.629 341.18L289.397 342.555L290.281 342.85L293.031 343.046L294.897 343.734L298.727 343.832L307.173 342.752L310.022 341.573L312.673 338.922L313.95 338.332L315.718 337.939H317.977L319.745 338.43L321.021 339.314L321.512 340.788L322.102 341.671L323.771 342.261L324.95 343.341L325.932 344.814L326.619 345.403L327.7 345.894L328.78 345.993L330.253 345.796L337.03 341.966L338.208 341.77L340.074 341.671L341.94 342.162L344.395 343.439L347.047 343.832L363.154 343.145L365.02 343.636L364.823 344.912L365.118 345.796L368.555 346.287L370.127 346.091L371.698 345.698L375.136 343.439L377.296 341.279L378.278 340.788L382.992 339.805L384.957 338.234L385.939 336.859L386.233 330.966L386.528 329.591L387.412 327.824L388.394 326.351L390.26 324.779L391.439 324.681L392.224 325.565L393.305 326.94L394.581 327.922L398.804 329.199L399.59 329.886L400.081 330.77L400.278 332.734L400.965 333.225L402.438 333.422L405.286 332.832L407.054 333.52L407.938 334.109L409.215 337.252L409.804 338.136L411.277 339.609L412.554 340.296L413.536 340.1Z" fill="#009649" stroke="white" stroke-width="2" stroke-linejoin="round"></path>
<path class="region" data-country-region="East Region" d="M684.108 325.957L683.519 328.609L682.831 330.279L682.046 331.163L681.162 331.457L676.546 330.279L675.466 330.672L675.073 331.555L675.269 332.832L675.76 334.404L677.724 337.743L683.912 343.93L684.304 345.207L683.912 345.698L682.242 346.483L681.947 347.466L682.046 348.644L682.438 350.215L685.974 359.447L686.17 360.724V361.903L685.974 362.983L685.483 364.161L684.796 365.144L683.912 366.126L683.224 367.108L683.322 368.188L684.108 369.367L691.965 375.456H693.143L694.518 374.866L695.795 373.884L698.054 371.233L699.822 368.581L700.215 367.402L700.313 366.027L700.215 364.554L699.822 363.179L698.84 360.528L696.188 356.108L695.893 354.34L696.09 351.689L696.679 350.314L697.563 349.528L698.84 349.233L700.215 349.332L705.911 351.689L706.893 352.573L708.661 355.421L710.036 358.76L710.92 363.965L711.411 365.144L712.196 366.322L718.875 372.902L719.759 374.67L719.955 375.849L719.759 380.17L720.152 381.348L721.035 382.429L723.392 383.804L728.794 385.473L731.74 388.321L734.49 392.446L736.258 396.473L736.455 398.044V399.321L736.16 400.794L735.963 401.285L733.606 405.508L733.312 406.981L733.41 408.847L734.687 413.169L736.651 417.294L738.517 419.945L742.347 422.204L742.936 422.793L743.427 423.677L743.82 424.954L743.919 426.231L743.624 427.311L743.035 428.195L741.169 429.472L737.24 430.945L736.553 431.632L732.821 437.034L730.562 438.998L730.365 439.98L730.66 441.061L731.446 442.043L732.526 442.927L735.178 444.105H737.731L744.802 441.65L745.883 441.748L746.669 442.337L747.061 443.418L747.16 444.891L746.767 451.766L747.061 452.944L747.651 453.828L748.436 454.516L754.427 457.266L763.364 459.132L764.052 459.623L764.641 460.506L765.329 462.864L765.82 466.006L770.927 468.167L773.578 470.328L775.15 472.685L776.034 473.274L777.114 473.372L778.292 473.176L782.908 470.622L787.131 471.212L790.471 472.586L791.06 473.078L791.944 474.649L792.729 476.711L793.122 479.068L793.613 480.051L794.497 480.738L802.354 482.997L803.729 483.979L804.908 485.354L805.791 487.122L807.166 491.05L808.247 496.059L792.238 502.344L786.935 501.559L782.516 496.845L780.355 495.862L776.917 496.845L771.418 500.478L768.864 500.969L752.365 492.523L745.392 490.657L738.91 492.13L731.151 497.827L729.776 499.791L728.991 504.014L726.83 506.666L721.919 510.987L718.285 517.076L711.018 538.29L709.348 541.334L706.991 544.084L706.697 548.307L701.688 542.415L699.625 527.879L696.188 523.067L693.831 522.871L688.233 524.835L685.483 525.228L682.831 524.245L677.528 520.71L675.367 519.924L669.867 520.219L667.51 519.826L665.644 518.451L664.564 515.799L664.073 512.657L662.894 510.005L660.145 508.925L657.493 508.63L648.752 506.076L646.297 504.505L645.02 504.014L643.645 504.21L640.993 505.291L639.52 505.389L635.395 504.8L632.842 506.469L625.476 519.138L623.905 520.612L621.646 521.299L620.762 521.005L618.896 519.433L615.851 519.924L615.753 520.022L595.424 516.978L582.067 517.862L574.406 514.523L559.773 503.818L559.576 502.737V501.264L558.791 500.282L556.335 500.871L556.237 498.612L555.157 497.63L553.487 497.532L551.621 497.925L553.193 495.961L551.916 496.059L550.836 495.568L549.264 494.389L546.514 494.193L545.532 493.8L544.747 492.622L544.157 489.97L543.372 489.282H538.952L537.675 489.675L532.47 492.327L530.113 493.113H526.774L523.435 492.327L512.239 486.041L503.596 482.604L503.989 480.542L504.578 479.167L505.069 477.399L507.328 471.801L508.016 469.542V468.56L508.408 467.578L509.096 466.988L509.98 466.792L510.962 466.89L511.944 467.479L513.024 468.363L515.774 472.783L516.658 473.176L517.444 473.078L518.23 472.39L519.408 470.72L519.801 469.738L520.881 468.462L522.354 467.283L523.238 466.89H524.319L525.301 467.283L529.622 471.015L530.506 471.31L531.39 471.212L541.898 461.685L545.925 459.819L550.934 460.31L551.916 459.819L552.603 458.837L553.389 455.694L553.88 454.712L554.666 454.025L555.353 453.73L556.728 453.828L557.318 454.025L561.05 449.31L562.13 448.721L563.112 448.819L563.898 449.801L564.487 451.176L565.174 452.06L565.96 452.748L567.728 453.239L572.049 453.042L572.933 452.65L575.487 450.685L576.174 450.489L586.192 452.159L587.665 451.667L588.843 450.685L591.888 446.168L592.477 445.677L602.691 442.337L605.834 438.507L606.816 436.248L607.111 435.266V434.186L606.816 433.204L605.637 430.356L605.441 428.391L605.736 427.311L606.325 426.133L608.387 423.677L609.075 422.499L609.369 421.32V420.24L609.075 419.258L608.486 418.472L607.798 417.883L605.932 416.901L605.343 416.115L605.048 415.035L604.852 413.758L605.048 411.008L605.736 408.258L606.227 407.276L606.914 406.589L610.057 405.312L610.45 404.821L610.646 404.133L610.253 402.562L609.271 400.696L608.878 398.83L608.977 397.455L609.271 395.884L609.86 394.509L611.334 392.053L613.2 390.187L625.869 382.429L626.458 381.348L626.556 379.973L626.36 378.402L623.708 369.858L623.414 368.286L623.021 358.072L622.235 355.126V354.046L622.628 353.358L623.315 352.867L627.637 352.082L628.226 351.394L628.619 350.314L628.913 349.037L629.012 347.662L628.815 346.287L628.521 345.01L628.03 343.93L624.003 340.002L623.708 339.019V337.841L625.476 333.323L626.164 330.77L626.458 328.314L629.994 328.609L647.181 326.939L648.457 325.859L648.949 324.975L649.145 323.502L649.341 321.636L650.127 320.654L651.404 320.065H659.064L660.243 320.359L662.011 321.243L663.385 321.44L668.198 321.047L671.832 321.341L675.269 322.618L682.537 326.252L684.108 325.957Z" fill="#009649" stroke="white" stroke-width="2" stroke-linejoin="round"></path>
<path class="region" data-country-region="East Region" d="M915.69 377.322L915.395 385.179L906.655 392.152L887.111 399.714L882.887 403.839L879.352 409.535L876.7 416.214L874.834 423.579L874.343 429.472L874.54 440.766L873.557 445.579L870.513 450.686L866.29 454.712L861.477 456.873L853.719 456.284L850.183 456.873L847.139 458.837L845.273 462.667L844.291 465.908L843.21 472.783L842.032 475.828L839.38 478.381L836.63 478.578L833.487 478.086L829.952 478.676L827.595 480.64L822.586 489.283L820.032 491.345L808.247 496.059L807.167 491.05L805.792 487.122L804.908 485.354L803.729 483.979L802.354 482.997L794.498 480.738L793.614 480.051L793.123 479.069L792.73 476.711L791.944 474.649L791.06 473.078L790.471 472.587L787.132 471.212L782.909 470.622L778.293 473.176L777.114 473.372L776.034 473.274L775.15 472.685L773.579 470.328L770.927 468.167L765.82 466.006L765.329 462.864L764.641 460.507L764.052 459.623L763.365 459.132L754.427 457.266L748.437 454.516L747.651 453.828L747.062 452.944L746.767 451.766L747.16 444.891L747.062 443.418L746.669 442.338L745.883 441.748L744.803 441.65L737.732 444.105H735.178L732.526 442.927L731.446 442.043L730.66 441.061L730.366 439.981L730.562 438.998L732.821 437.034L736.553 431.633L737.24 430.945L741.169 429.472L743.035 428.195L743.624 427.311L743.919 426.231L743.821 424.954L743.428 423.678L742.937 422.794L742.347 422.204L738.517 419.946L736.651 417.294L734.687 413.169L733.41 408.848L733.312 406.982L733.607 405.508L735.964 401.285L736.16 400.794L736.946 402.268L737.928 403.151L738.615 403.348L739.303 403.053L739.892 402.366L740.285 401.285L740.973 397.161L741.365 395.982L741.955 395.196L743.035 394.902L752.463 394.705L753.544 394.803L754.133 394.411L756.097 391.857L761.106 387.045L761.597 386.456L762.874 383.706L761.597 382.134L760.418 378.402L760.615 374.572L761.302 370.938L764.838 371.429L767.097 372.313L770.73 375.358L773.775 377.027L775.052 377.224L781.239 380.072L782.712 380.366L783.596 380.072L784.48 379.286L785.266 378.009L786.542 375.358L787.917 373.983L789.783 372.902L792.337 371.822L793.417 371.527L803.729 371.724L804.81 371.626L805.694 371.233L806.774 369.956L807.069 368.974V367.992L806.774 366.617L805.792 364.358L805.595 363.474L805.792 362.787L806.381 362.296L808.149 361.608L809.818 361.412L811.979 361.51L824.747 364.063L828.577 362.394L828.184 359.939V357.778L828.577 355.617L829.559 354.439L831.425 353.358L832.505 351.983L833.487 349.234L834.077 348.251L834.764 347.564L835.452 347.269H836.237L837.023 347.564L837.71 348.153L839.085 349.725L839.969 350.117L841.737 350.314L843.799 349.823L846.058 343.93L852.442 344.028L853.522 345.011L853.915 345.894L854.505 348.743L855.094 349.823L855.879 350.609L856.862 351.198L858.138 351.394L880.727 349.135L882.102 349.725L886.423 352.867L887.405 353.162L898.405 353.064L900.958 353.948L901.646 354.832L904.69 361.314L905.672 362.394L908.128 363.965L909.012 365.046L909.699 366.224L910.092 367.697L911.27 374.081L911.762 375.358L912.449 376.34L913.235 376.929L914.119 377.322H915.69Z" fill="#009649" stroke="white" stroke-width="2" stroke-linejoin="round"></path>
<path class="region" data-country-region="East Region" d="M770.927 176.087L773.186 189.542L772.99 190.623L772.597 191.801L772.007 192.882L771.222 193.962L770.24 194.846L769.257 195.239H768.275L766.213 193.962L765.329 193.864L764.543 194.158L763.758 194.846L760.419 199.756L748.731 206.336L746.767 208.595L746.08 209.97L745.589 211.542L745.294 214.979L744.999 216.158L743.526 218.515L743.133 219.398L743.035 220.381L744.705 227.059V228.139L744.606 229.121L744.115 230.103L735.473 242.282L734.884 243.362L734.491 244.639L734.393 245.915L734.491 247.192L734.785 248.371L735.375 249.549L739.401 253.478L739.794 254.853L739.5 255.54L735.375 261.04L734.982 262.12L734.687 263.397L734 271.647L734.098 272.629L734.491 273.415L735.08 274.2L737.044 274.986L743.232 275.87L743.919 276.263L744.214 276.852L744.606 279.209L744.999 279.896L745.589 280.486L757.963 286.771L758.945 286.869L763.07 284.611L764.052 284.414L765.133 284.807L776.23 296.887L778.391 297.967L785.757 298.36L789.096 295.807L789.882 295.414H790.667L795.971 299.048L799.703 299.342L805.006 297.574L809.131 299.637L812.47 302.485L813.158 303.467L813.354 304.449L812.569 311.913L812.667 313.386L813.158 314.565L813.944 315.449L814.926 315.744L815.908 315.547L818.559 313.779L819.345 313.485L820.229 313.681L821.015 314.565L825.434 323.895L826.416 324.877L830.934 327.038L834.862 330.377L836.434 332.439L836.925 333.618L837.612 336.073L837.907 338.921L842.032 340.002L843.8 341.377L846.058 343.93L843.8 349.823L841.737 350.314L839.969 350.117L839.086 349.725L837.711 348.153L837.023 347.564L836.237 347.269H835.452L834.764 347.564L834.077 348.251L833.487 349.233L832.505 351.983L831.425 353.358L829.559 354.439L828.577 355.617L828.184 357.778V359.938L828.577 362.394L824.747 364.063L811.979 361.51L809.819 361.412L808.149 361.608L806.381 362.296L805.792 362.787L805.596 363.474L805.792 364.358L806.774 366.617L807.069 367.992V368.974L806.774 369.956L805.694 371.233L804.81 371.626L803.73 371.724L793.417 371.527L792.337 371.822L789.784 372.902L787.918 373.983L786.543 375.358L785.266 378.009L784.48 379.286L783.596 380.072L782.712 380.366L781.239 380.072L775.052 377.224L773.775 377.027L770.731 375.358L767.097 372.313L764.838 371.429L761.302 370.938L760.615 374.572L760.419 378.402L761.597 382.134L762.874 383.706L761.597 386.455L761.106 387.045L756.097 391.857L754.133 394.411L753.544 394.803L752.463 394.705L743.035 394.902L741.955 395.196L741.366 395.982L740.973 397.16L740.285 401.285L739.892 402.366L739.303 403.053L738.616 403.348L737.928 403.151L736.946 402.267L736.16 400.794L736.455 399.321V398.044L736.259 396.473L734.491 392.446L731.741 388.321L728.795 385.473L723.393 383.804L721.036 382.429L720.152 381.348L719.759 380.17L719.956 375.849L719.759 374.67L718.875 372.902L712.197 366.322L711.411 365.144L710.92 363.965L710.036 358.76L708.661 355.421L706.893 352.573L705.911 351.689L700.215 349.332L698.84 349.233L697.563 349.528L696.68 350.314L696.09 351.689L695.894 354.34L696.188 356.108L698.84 360.528L699.822 363.179L700.215 364.554L700.313 366.028L700.215 367.403L699.822 368.581L698.054 371.233L695.796 373.884L694.519 374.867L693.144 375.456H691.965L684.109 369.367L683.323 368.188L683.225 367.108L683.912 366.126L684.796 365.144L685.483 364.162L685.974 362.983L686.171 361.903V360.724L685.974 359.447L682.439 350.216L682.046 348.644L681.948 347.466L682.242 346.484L683.912 345.698L684.305 345.207L683.912 343.93L677.725 337.743L675.761 334.404L675.27 332.832L675.073 331.555L675.466 330.672L676.546 330.279L681.162 331.457L682.046 331.163L682.832 330.279L683.519 328.609L684.109 325.957L685.483 324.386L686.367 321.047L686.76 316.529L687.153 314.958L691.573 310.244L690.492 302.681L689.117 300.521L686.76 299.637L685.974 298.851L685.483 297.574L685.091 293.744L679.1 281.566L676.743 278.03L675.957 276.361L675.662 274.495L675.859 272.727L678.216 267.718L678.019 262.317L678.118 256.228L678.019 254.853L676.939 250.531L676.35 245.523L675.662 243.362L674.68 241.594L674.582 240.514L675.073 239.335L678.903 237.076L681.948 233.934L686.367 230.693L687.055 230.103L687.644 228.336L687.349 226.077L686.466 223.622L686.662 221.264L690.296 208.988L695.796 194.944L697.367 194.551L698.742 193.274L701.197 189.935L702.867 188.757L704.144 188.658L706.893 189.641L708.17 189.542L708.563 188.757L708.465 186.007L708.858 185.319L711.018 185.417L711.902 186.007L712.59 187.382L714.063 189.641L715.831 190.328L716.813 188.364L716.518 185.417L714.652 182.962L714.358 177.364L712.884 173.337L710.233 170.391L706.697 168.329L703.947 165.579L702.572 161.159L701.492 156.347L699.822 152.124L695.206 145.249V142.106L699.135 139.651L702.474 140.142L708.661 143.874L712 143.481L726.929 147.704L728.5 148.588L731.839 151.436L733.705 152.419L735.767 152.517L740.187 151.535L741.857 152.124L741.562 152.713L742.053 155.168L742.937 158.115L743.821 160.079L745.196 161.65L750.303 164.891L753.74 165.873L760.517 165.677L763.561 166.954L760.91 168.034L761.793 169.704L763.07 170.882L762.874 173.829L763.168 176.775L764.151 179.034L766.115 180.507L767.686 176.382L770.927 176.087Z" fill="#009649" stroke="white" stroke-width="2" stroke-linejoin="round"></path>
<path class="region" data-country-region="West Region" d="M684.108 325.957L682.537 326.252L675.269 322.618L671.832 321.341L668.198 321.047L663.386 321.44L662.011 321.243L660.243 320.359L659.064 320.065H651.404L650.127 320.654L649.341 321.636L649.145 323.502L648.949 324.975L648.458 325.859L647.181 326.939L629.994 328.609L626.458 328.314L623.708 327.431L617.717 323.6L612.61 321.734L611.039 320.556L610.057 319.083L609.173 317.413L607.798 315.842L605.932 314.27L600.53 310.636L596.209 308.476L593.263 307.592L589.531 307.395L586.388 307.69L584.817 307.297L583.736 306.61L582.852 304.449L581.87 303.369L580.201 302.485L576.862 301.797L574.701 301.012L572.737 300.03L570.773 298.655L569.79 298.262L568.907 298.164L567.924 299.342L567.237 301.11L566.746 301.994L566.058 302.583L564.389 303.172L563.701 303.565L561.541 306.021L560.068 307.003H558.693L557.121 306.512L555.157 305.628L553.88 305.824L552.898 306.315L549.166 305.333L546.907 300.717L544.943 297.967L542.586 296.101L538.854 294.235L538.265 293.744L537.872 292.958L537.577 290.7L537.086 289.619L536.3 288.834L534.238 287.557L530.408 286.575L523.828 281.37L521.274 280.682L510.176 281.566L509.391 281.173L507.819 279.405L504.087 273.316L501.337 270.075L495.052 265.852L495.248 264.084L495.838 261.727L496.525 259.567L497.016 257.013L497.114 252.496L497.212 251.612L498.096 248.96L497.9 247.88L496.525 246.21L495.445 245.326L494.463 244.835L492.498 244.344L491.418 243.46L486.115 238.353L485.034 237.666L480.124 236.094L476.785 233.835L475.704 232.755L474.035 230.103L474.722 229.023L477.374 227.746L480.32 226.961L481.695 227.059L481.99 223.916V223.13L481.204 219.398V218.22L481.793 216.845L484.15 214.488L492.106 217.532L493.284 217.434L502.025 209.086L504.873 207.711L507.034 207.515L512.73 210.363H514.89L519.31 209.086L520.096 209.283L525.988 213.309L527.069 213.604L527.953 213.309L528.738 212.425L530.604 206.238L531.292 204.863L532.176 203.685L539.443 201.622L540.131 201.917L540.72 202.703L542.095 208.497L543.077 210.854L544.256 212.229L544.845 212.425L545.631 212.033L554.862 202.899L556.237 202.31L562.326 202.113L566.353 203.39L567.139 203.979L567.532 204.863L567.728 206.042V210.658L568.023 212.033L568.71 213.309L569.889 214.095L578.237 215.765L579.022 216.452L580.103 218.711L581.576 220.872L583.344 222.443L584.915 223.327L586.192 223.621L586.781 224.113L589.04 227.059L589.727 227.55L591.397 227.943L596.995 232.755L599.156 231.184L601.414 230.3L614.378 229.023L616.342 228.041L617.226 227.157L617.914 226.175L618.503 224.898L619.092 222.05L619.78 221.068L620.566 220.381L635.592 213.211L636.378 212.131L636.77 210.756L636.967 207.711L637.261 206.336L637.654 205.256L638.244 204.47L639.029 204.077L654.35 208.988L659.359 213.604L665.448 216.845L671.341 216.354L675.76 210.265L679.001 207.908L680.769 205.452L682.34 202.31L684.992 198.381L688.233 195.631L691.081 195.14L694.027 195.337L695.795 194.944L690.295 208.988L686.662 221.264L686.465 223.621L687.349 226.077L687.644 228.336L687.054 230.103L686.367 230.693L681.947 233.934L678.903 237.076L675.073 239.335L674.582 240.514L674.68 241.594L675.662 243.362L676.349 245.523L676.939 250.531L678.019 254.853L678.117 256.228L678.019 262.317L678.215 267.718L675.858 272.727L675.662 274.495L675.957 276.361L676.742 278.03L679.099 281.566L685.09 293.744L685.483 297.574L685.974 298.851L686.76 299.637L689.117 300.521L690.492 302.681L691.572 310.244L687.153 314.958L686.76 316.529L686.367 321.047L685.483 324.386L684.108 325.957Z" fill="#009649" stroke="white" stroke-width="2" stroke-linejoin="round"></path>
<path class="region" data-country-region="West Region" d="M193.544 218.122L195.312 222.64V224.8L194.33 227.157L193.741 228.729V229.711L194.232 230.398L195.017 230.693L196.49 230.791L198.062 230.398L201.008 228.729L202.58 228.532L204.544 229.318L206.901 229.907L209.454 231.086L216.427 237.862L217.704 238.746L220.356 239.041L222.32 238.844L224.284 238.353L225.463 238.255L226.936 238.353L229.686 239.139L231.257 239.925L232.534 240.71L236.266 244.934L237.248 245.719L238.132 246.21L242.944 247.683L243.828 248.273L244.417 249.157L244.909 251.023L252.471 254.951L253.748 256.228L254.435 257.308L254.14 258.094V260.058L254.337 261.237L255.81 266.049L255.908 267.129L255.712 268.111L253.944 268.897L252.176 269.093L251.489 270.174V274.102L251.194 275.575L249.426 280.191L249.524 281.664L250.015 283.923L249.917 285.004L248.444 290.012L248.248 291.191L248.149 292.468L248.739 293.352L250.114 293.941L251.194 294.53L251.489 295.316L251.587 296.003L251.096 296.985L247.462 301.012L246.382 302.092L245.301 302.682L240.98 303.664L239.212 304.449L237.543 305.53L235.873 307.199L235.087 308.181L234.695 309.262L235.284 310.244L237.444 312.208L237.641 312.994L237.444 313.681L236.266 314.369L235.382 315.056V315.351L237.248 316.529L237.739 317.708L237.444 318.297L236.168 319.574L236.07 320.36L236.462 322.127L236.953 322.913L237.739 323.404L239.114 323.993L240.096 324.681L241.373 326.154L241.864 327.333L242.159 328.511L242.06 334.109L242.257 336.368L242.65 337.743L243.141 338.725L244.516 340.493L245.498 341.966L245.792 343.537V344.814L245.4 346.975L244.319 350.314V352.376L246.382 356.992L248.248 364.162L248.444 366.126L248.248 367.206L247.266 371.429L246.971 374.867L247.364 377.617L248.149 381.545L248.346 383.411L248.149 384.884L247.462 386.259L244.712 390.973L243.435 393.821L242.65 396.67L241.569 399.125L240.784 399.714L238.328 401.285L237.052 402.66L236.855 404.232L237.739 406.392V407.669L237.543 408.455L237.052 409.339L235.677 411.401L235.578 412.285L235.775 413.071L236.364 413.856L238.328 415.919L239.016 417.49L238.918 418.374L238.132 419.062L236.953 419.455L235.382 420.437L234.105 421.713L230.275 428.981L228.9 430.945L227.722 431.436L225.954 431.142L224.579 431.731L223.106 433.499L221.24 438.311L220.65 441.552L220.749 443.909L221.141 446.266L221.043 448.23L220.65 449.507L219.963 450.686L216.82 453.828L213.481 459.034L210.338 465.81L210.535 467.873L209.553 467.676L207.588 468.658L206.213 471.015L204.642 474.944L201.303 473.274L196.687 469.935L192.562 466.105L190.5 462.667L190.401 456.48L188.732 452.65L182.643 446.364L178.223 440.373L176.455 438.9L173.509 437.722L164.768 437.329L160.643 434.972L158.385 431.24L156.42 426.82L142.867 408.357L141.099 407.375L136.385 401.777L135.796 399.714L135.6 397.553L134.716 395.786L132.26 394.705L128.136 390.384L126.073 388.616L123.618 387.34L118.02 385.768L116.056 386.456L116.743 389.304L113.993 389.697L105.449 388.42L102.601 387.34L100.342 384.982L95.5295 374.277L92.5832 371.331L85.9048 368.09L83.1549 365.733L81.4853 362.59L80.6997 358.957L80.1104 347.859L79.0301 346.975L77.5569 347.171L75.8873 346.68L74.3159 345.011L73.1374 343.341L72.2535 341.377L71.3696 338.725L70.7803 336.073L70.0929 331.065L69.0125 328.708L67.5394 327.038L64.102 325.074L62.6288 323.306L63.4145 320.949L61.8431 320.065L63.1199 317.413L62.9235 314.369L61.7449 312.012L59.7807 310.931L54.9684 308.672L52.7095 307.101L50.6471 305.235L47.6025 300.914L46.1294 298.066L45.4419 295.709L47.1115 292.271L53.1024 289.718L55.4594 287.361L55.8523 283.727L55.9505 279.013L56.8344 275.87L59.7807 276.754L60.861 273.218L64.2002 267.031L65.3787 263.594L65.7716 259.272L72.6463 260.549L74.0213 260.254L75.1016 259.665L79.0301 255.737L79.8158 255.344H80.6014L84.9227 256.915L87.378 257.21L89.4404 256.817L90.1279 256.424L94.5474 251.219L95.5295 250.728L106.726 250.924L109.967 254.264L111.047 254.755L111.538 254.558L115.172 251.906L116.743 251.612L120.672 253.576L123.029 254.165L123.913 253.871L124.6 253.085L126.466 243.559L127.055 242.38L127.841 241.693L141.296 234.425L144.439 230.988L145.912 230.005L146.599 229.907L156.617 231.871L161.724 237.666L163.688 238.452L165.554 238.353L166.34 238.059L166.929 237.469L167.125 236.586L165.456 229.907L165.358 228.63V227.452L165.652 226.568L166.241 225.979L174.688 224.113L175.277 223.524L175.179 222.64L174.197 220.283L173.804 218.908L173.706 217.533L173.804 216.158L174.393 214.979L175.277 213.997L176.848 213.31L178.125 214.783L179.696 217.042L180.678 218.024L181.955 218.711L188.535 220.283L190.5 220.381L193.544 218.122Z" fill="#009649" stroke="white" stroke-width="2" stroke-linejoin="round"></path>
<path class="region" data-country-region="West Region" d="M367.966 43.6007L367.475 45.5649L366.493 46.9398L365.806 47.3327L361.485 47.7255L360.895 48.2166L360.404 49.0023L360.11 50.1808L359.815 53.7164L359.422 55.386L358.636 56.8591L357.752 58.0377L356.672 58.8234L355.395 59.118L354.217 58.8234L346.655 50.9665L345.574 50.4754L344.789 50.6719L344.298 51.8504L342.628 61.2786L340.762 63.0464L339.682 64.9125L339.387 66.091V68.4481L339.191 69.4302L338.798 70.2159L335.557 73.3586L334.968 74.1443L332.316 81.0191L330.253 82.2958L329.566 83.0815L329.075 83.9654L328.878 84.9475L329.075 86.2242L337.226 111.956L347.539 120.5L348.619 125.705L347.637 126.393L346.655 128.062L346.36 129.928V131.303L346.164 133.169L345.673 134.937L345.181 135.919L344.298 136.607L343.119 137.294L338.896 140.83L336.735 141.91L335.262 141.615L333.298 140.731L332.119 140.535L331.628 141.026L331.432 141.91L331.727 142.794L332.61 145.74V146.624L332.512 148.785L333.396 151.927L333.298 153.302L332.512 154.383L331.53 157.034L330.352 158.704L329.173 159.391L328.093 159.588L325.539 159.391L321.414 159.784L320.334 160.079L319.156 160.865L316.013 163.516L314.147 164.204L309.433 162.436L298.04 164.4L295.094 164.007L291.755 162.829L288.121 162.043L282.13 162.24L280.362 162.731L279.184 163.222L278.594 164.204L278.3 165.186L278.103 167.445L278.3 168.82L277.907 170.489L277.121 171.766L275.943 172.257L274.764 172.355L272.8 172.257L271.425 172.748L262.782 178.15L261.015 180.409L260.229 181.293L258.559 182.569L257.577 182.766L256.497 182.373L255.515 181.587L254.336 181.096L253.158 181.194L239.31 188.462L236.756 189.149H236.069L234.596 188.462L233.614 188.266H232.042L230.864 188.658L229.292 189.739L227.917 191.114L221.73 195.14L213.186 198.676L211.516 199.658L210.731 200.64L208.766 203.685L207.391 207.024L206.016 208.792L204.347 209.97L200.615 213.702L199.142 214.39L196.883 214.979L195.115 215.961L193.544 218.122L190.499 220.381L188.535 220.282L181.955 218.711L180.678 218.023L179.696 217.041L178.124 214.782L176.848 213.309L175.08 211.738L172.035 209.577L170.955 208.497L170.562 207.81L171.053 206.336L173.214 203.586L174.294 201.622L173.901 199.756L172.919 197.301L169.875 192.587L168.794 190.328L168.303 188.462L168.991 186.301L169.089 185.123L168.893 182.766L168.402 179.819L168.107 177.168V175.695L168.402 170.784L168.303 168.82L168.107 166.856L167.321 163.811L166.634 162.338L165.652 161.257L163.491 160.079L159.366 158.999L154.947 158.802L151.313 158.017L149.545 156.642L148.465 155.267L147.483 153.302L146.795 152.32L145.911 151.633L136.385 150.552L133.93 149.178L129.117 145.053L132.26 142.008L134.322 139.553L135.206 135.33L136.188 126.098L137.367 125.214L138.545 124.919L139.822 125.214L140.903 126.098L142.179 126.393L143.554 126.589L144.929 126.491L146.304 126.098L150.331 124.625L157.991 125.116L161.527 122.464L163.589 118.634L168.5 105.67L171.25 105.965L173.607 107.634L176.062 108.715L179.107 107.143L180.58 102.527L181.464 101.054L186.865 97.1257L187.749 96.2418L187.847 95.3579L188.24 95.1615L190.008 95.7507L190.794 96.6346L192.856 100.072L193.74 101.251L196.981 102.92L199.731 102.233L202.186 99.9738L204.641 96.831L206.115 96.0454L206.999 94.965L207.097 93.5901L206.311 91.7241L208.668 89.8581L210.632 87.4028L211.222 84.26L209.552 80.8226L215.445 77.1888L222.025 75.9121L235.087 76.0103L237.837 75.421L243.337 73.3586L246.479 73.064L253.158 73.8497L255.711 73.2604L259.934 70.7069L260.818 70.6087L261.702 70.3141L262.684 68.9391L262.782 67.7606L262.39 66.091L262.193 64.1268L262.782 61.9661L264.157 60.2965L265.434 60.1983L266.809 60.6894L268.675 60.3947L270.148 59.3144L272.309 56.4663L273.88 55.2878L276.728 54.6985L282.032 55.386L284.782 55.1896L307.37 44.7792L309.138 43.1096L311.79 39.083L313.361 37.6098L318.566 36.4313L329.959 37.4134L334.28 33.7796L335.066 27.9851L331.235 25.8245L325.932 24.1549L322.2 20.5211L322.298 18.0658L323.575 17.2801L323.771 16.789L320.923 15.6105L316.013 14.923L314.343 13.8427L315.915 11.4857L317.977 4.90551L321.414 1.27171L326.03 0.584229L331.432 2.35203L332.512 3.33414L333.298 4.61088L334.28 5.88762L335.851 6.77152H337.423L341.449 5.00373L346.753 5.29836L348.422 4.41446L349.601 1.27171L350.485 3.23593L350.779 4.61088L351.271 5.98584L352.646 7.85184L354.413 9.12859L358.342 10.1107L360.11 11.4857L361.877 13.6463L362.958 15.4141L363.449 17.6729L363.154 21.2085L362.074 23.9585L360.306 27.1994L359.52 30.0475L361.19 31.3243L369.243 27.9851L370.913 28.0833L371.698 30.6368L370.913 33.6813L368.457 39.4758L367.966 43.6007Z" fill="#009649" stroke="white" stroke-width="2" stroke-linejoin="round"></path>
</svg>