<svg width="331" height="578" viewBox="0 0 331 578" fill="none" xmlns="http://www.w3.org/2000/svg">
<path class="region" d="M12.4764 52.0977L8.7737 52.296L5.36855 51.1725L3.88086 49.289V43.2089L4.31064 41.6558L5.26937 41.8541L6.26116 43.1098L6.85624 44.6959L9.36878 45.4889L12.3772 45.7202L13.1376 46.2489L14.8236 49.8507L12.4764 52.0977ZM28.841 35.1792L29.8989 36.0714L31.089 35.9723L31.7172 35.4436L30.8576 33.9566L30.9237 33.1305H32.18L33.6346 34.254L34.1967 36.2697L33.7999 39.3758L33.3702 40.1028L32.0478 40.268L27.2541 39.3428L26.2954 37.988L26.4937 32.4696L27.0558 31.6766L27.8161 32.4696L28.841 35.1792ZM39.9491 23.3826L40.5772 23.5148L43.3873 23.3826L43.8832 23.8121L44.0815 26.0261L44.4452 26.9513L46.0982 28.0087L48.3793 28.967L50.2637 30.0574L50.9249 31.4453L49.9001 32.5027H47.9826L45.8998 31.8749L44.4452 30.9496L43.4203 30.6853L40.7756 32.2383L38.9242 32.4696L36.6761 30.8174L34.4281 27.4139L30.8576 20.3425L32.4776 17.7982L32.8412 14.5599L33.7669 11.9164L36.9406 11.2224L38.6597 11.7511L38.825 13.0068L38.23 14.7251L37.8332 16.7408L37.8994 18.7895L38.1308 20.5078L38.7589 21.9947L39.9491 23.3826ZM96.5804 23.0852L94.5968 27.3478L91.5223 32.767L84.0177 29.4626L81.3068 27.8765L79.4885 27.8435L79.8522 31.4453L80.844 32.5027L82.4309 33.7253L83.3565 35.1792L82.4309 37.0627L81.3068 37.4262L80.2489 36.8314L79.2571 36.0053L76.447 34.5514L70.9922 29.76L67.8846 28.4052L69.4714 30.1896L72.3476 32.7009L73.9345 34.4853L70.3971 33.7914L66.8928 32.3375L59.8841 28.4052L54.297 23.9774L50.958 22.8208L49.3711 21.7965L48.1809 21.3008L48.0156 22.3582L46.3957 21.2678L45.8006 19.8138L45.5031 18.1286L44.9411 16.179L43.9824 14.5599L41.8996 11.8172L40.9409 10.132L44.1146 8.54588L49.867 3.19277L52.4457 2.03624L63.8843 3.02755L69.8351 2.36668L72.017 2.63103L72.8766 4.61366L72.7113 7.71978L73.1411 8.77719L74.3973 9.20676L75.6205 9.37198L79.0918 10.2642L79.8522 10.6607L80.4803 11.9824L82.0672 11.9164L83.7863 11.3877L84.9765 11.2224L86.5964 12.1807L96.5804 23.0852ZM145.575 56.5586L144.682 57.3186L143.922 57.8473L133.971 51.0072L130.566 49.3881L127.524 48.7272L126.632 48.3307L123.987 46.315L122.995 45.7202L122.003 45.555L120.78 45.6211L120.516 44.1341L118.664 38.4836L118.995 38.6488V37.5254L113.672 34.8488L100.845 24.2748L90.3321 12.0816L84.9765 9.20676L76.6123 7.22413L74.3973 5.60498L74.0998 3.35799L77.1744 2.03624L81.2076 1.34232L87.2576 1.04492L90.1668 1.60667L92.1835 3.02755L93.5389 7.885L94.8944 9.90068L114.003 32.4696L116.813 34.5514L122.532 37.8227L145.575 56.5586Z" fill="#009649" stroke="white" stroke-width="2" stroke-linejoin="round" data-country-region="North Region"></path>
<path class="region" d="M188.916 125.489L186.602 126.513L183.792 127.306L181.279 128.826L178.469 129.619L171.725 130.511L165.973 133.188L168.65 123.176L166.898 120.796L162.237 117.955L157.641 117.261L155.493 118.715L153.211 119.276L153.476 117.261L154.864 115.179L153.178 112.172L149.244 111.742L148.715 107.017L144.186 105.266L139.426 105.398L139.095 106.125L138.83 106.885L137.442 107.678L135.987 108.372L133.508 110.619L129.904 112.238L127.656 108.868L123.987 106.521L118.962 106.687L116.151 106.521L113.507 106.753L113.143 108.901L114.267 110.454L116.416 110.817L116.581 112.007L116.548 113.328L117.077 115.873L117.275 118.351L114.664 122.316L110.564 125.621L103.787 129.916L79.6865 131.205L81.5379 125.885L80.8767 124.894L80.1824 123.572L80.6783 121.854L81.4718 120.169L81.9346 118.549L82.5958 117.062L85.8026 115.972L86.034 112.965L85.7034 109.462L86.2324 107.348L86.3646 105.067L86.1993 103.977L85.9018 102.953L83.1909 98.6239L82.2982 93.7995L82.1329 88.7769L86.0009 89.2395L85.6042 85.142L89.4061 80.1854L100.646 78.8637L104.647 78.7976L108.581 79.5246L112.449 79.1611L114.928 72.7506L116.912 72.6845L123.557 73.0149L127.26 72.7836L129.706 71.4619L131.756 64.754L132.45 64.5227L133.541 65.9105L136.417 68.3557L139.756 70.2062L139.359 66.8357L139.789 63.4652L142.897 61.02L143.227 58.5417L143.922 57.8478L144.682 57.3191L145.575 56.5591L162.865 70.6358L164.022 72.6184L165.675 74.6671L168.816 77.6411L170.799 80.2185L169.014 81.1768L167.89 80.6481L166.336 78.6654L165.51 78.2359L162.865 77.8063L161.708 78.1367L162.468 79.6898L170.039 86.7942L173.014 88.4134L171.857 86.596L171.13 84.9107L171.494 83.6881L173.51 83.1924L174.469 83.8533L176.023 88.4134L177.411 91.2551L182.965 102.391L178.767 100.805L176.849 100.772L176.023 102.887L177.147 103.415L179.527 103.812L181.643 105.167L181.973 108.537H182.965L183.461 107.678L183.891 107.314L184.42 107.083L185.081 106.621L185.908 109.925L187.957 114.65L190.734 118.913L193.544 120.763L194.106 121.193V122.25L193.412 123.275L192.057 123.77L191.66 123.341L190.073 120.763L188.321 119.838L184.321 118.781L181.973 117.723L183.66 120.036L188.916 124.993V125.489Z" fill="#009649" stroke="white" stroke-width="2" stroke-linejoin="round" data-country-region="North Region"></path>
<path class="region" d="M189.114 221.811L187.229 223.794L186.138 226.405L185.51 228.982L183.659 230.072H177.179L171.394 231.163L169.245 236.813L168.055 243.026L165.939 248.577L164.947 254.36L164.716 259.481L167.625 261.795L164.782 265.793L164.583 269.692L161.509 270.948L158.732 272.336L156.847 274.021L154.004 277.028L153.145 277.623L152.054 277.325H150.599L149.773 279.671L149.806 282.414L148.417 284.562L146.533 286.511L146.863 287.172L146.963 288.23L146.004 288.791L144.979 289.485L143.921 291.27L141.739 292.79L139.987 291.633L137.64 291.534L135.061 294.673L130.135 296.491L127.028 298.804L123.325 295.202L123.887 290.113L123.16 286.611L121.771 283.207L121.407 280.729L120.184 278.68L117.837 278.515L115.787 277.656L115.523 275.111L115.721 272.435L115.291 269.262L115.556 267.412L115.523 265.562L113.308 263.744L110.564 263.843L107.919 262.224L105.539 259.812L101.142 256.21L96.315 254.36L93.6041 253.963L91.4222 252.377L88.6121 251.254L85.7359 250.527L72.2806 244.347L69.1069 242.563L67.4869 240.448L65.3381 238.73L62.3627 238.829L59.7509 236.88L57.3045 238.003H54.263L53.3704 235.393L49.7338 220.523L47.585 216.359L49.1718 212.724L51.6183 211.568L52.3125 210.246L52.5109 209.222L57.04 205.488L59.7179 199.837L58.8914 193.724L60.0815 194.319L61.5031 194.484L61.8007 180.804L60.6436 172.147L67.1233 174.823H74.2972L88.5129 171.089L88.5791 175.881L90.0667 180.044L92.2817 180.804L94.4306 181.795L95.3894 183.613L95.9183 185.628L97.4721 188.768L100.547 190.42L102.067 190.816L103.489 190.915L105.737 186.884L108.316 185.728L111.06 179.383L116.812 171.882L121.242 169.833L123.953 171.287L126.432 173.039L131.061 173.006L134.962 170.032L138.665 166.694L141.838 162.96L143.624 160.251L145.673 157.739L149.145 154.964L147.921 151.131L145.243 147.661L141.442 146.339L141.144 143.101L152.021 142.704L156.252 139.731L160.087 138.64L164.121 137.88L168.253 136.195L172.518 136.294L176.254 138.409L182.601 142.87L184.849 145.315L186.039 146.934L187.428 147.991L185.709 151.825L183.229 155.459L183.328 161.837L186.039 167.752L187.163 170.858L184.882 176.145L185.014 179.152L186.238 180.573L187.791 182.093L188.42 185.628L192.254 191.378L194.337 196.302L195.627 197.954L197.313 199.276L198.304 201.523L197.114 203.703L195.031 205.058L193.213 206.843L192.618 208.627L192.288 210.477L189.114 221.811Z" fill="#009649" stroke="white" stroke-width="2" stroke-linejoin="round" data-country-region="North Region"></path>
<path class="region" d="M261.052 234.071L247.928 232.683L245.514 233.542H241.415L240.092 234.996L239.134 236.747L238.01 237.573L237.018 238.465L236.092 242.299L235.332 243.719L233.282 248.577L229.613 249.403L228.918 249.172L228.323 248.742L230.009 247.685L230.803 245.834L230.307 243.059L230.34 241.142L230.141 239.259L229.084 237.805L227.232 237.937L224.654 236.615L222.306 234.798L219.893 233.41H217.281L206.206 230.7L200.057 231.295L198.206 229.445L197.611 226.371L195.363 224.62L193.015 223.695L191.296 221.184L189.114 221.811L192.288 210.477L192.619 208.627L193.214 206.843L195.032 205.058L197.115 203.703L198.305 201.522L197.313 199.275L195.627 197.954L194.338 196.302L192.255 191.378L188.42 185.628L187.792 182.093L186.238 180.573L185.015 179.152L184.883 176.145L187.164 170.858L186.04 167.752L183.329 161.837L183.23 155.459L185.709 151.824L187.428 147.991L186.04 146.934L184.85 145.315L182.602 142.87L176.254 138.409L172.518 136.294L168.254 136.195L164.121 137.88L164.782 135.303L165.972 133.188L171.725 130.511L178.469 129.619L181.279 128.826L183.792 127.306L186.602 126.513L188.916 125.489L188.982 127.802L190.701 129.024L189.147 130.511L187.759 132.13L190.073 133.948L192.519 133.783L194.569 131.866L196.057 129.222L197.049 126.81L202.338 133.221L207 141.283L208.917 143.266L211.595 144.059L213.744 145.777L216.884 153.411L218.504 155.162L222.108 156.781L223.926 160.647L225.976 168.346L226.34 166.926L226.802 166.397L227.596 166.562L229.017 167.355L228.621 168.776L232.687 173.204L234.009 175.418V178.094L232.952 179.152L231.431 179.846L230.042 181.465L232.191 180.903L233.051 180.474L236.191 187.38L236.654 190.981L233.018 191.543L233.778 189.164L232.786 187.281L231.199 186.983L230.042 189.528L230.439 191.51L231.464 192.898L232.026 194.418L230.935 196.665L228.488 194.781L225.976 193.228L223.397 192.634L220.984 193.658L219.1 196.202L219.761 197.557L222.009 197.194L225.05 194.682L227.133 196.896L229.017 199.573L231.332 201.82L234.538 202.745L241.25 202.613L243.498 201.159L242.01 197.689L245.845 195.938L247.366 195.475L248.986 195.575L250.771 196.599L252.391 198.35L253.614 200.366L254.639 206.281L256.92 213.881L257.052 217.846L255.201 216.557L253.283 212.625L251.564 211.799L251.498 212.857L252.258 218.044L253.052 219.862L254.936 220.754H256.92L258.507 221.448L259.432 227.098L260.722 231.658L261.052 234.071Z" fill="#009649" stroke="white" stroke-width="2" stroke-linejoin="round" data-country-region="North Region"></path>
<path class="region" d="M1.73197 113.857L0.277344 113.923L2.09563 112.766L4.70735 112.931L5.17019 113.46H2.19481L1.73197 113.857ZM36.9406 115.905L41.9326 120.73L39.5523 120.234L35.3538 118.152L32.8743 117.723L39.6515 125.455L40.9409 127.801L37.4696 127.372L35.1885 125.587L33.6016 123.671L32.4114 122.745L30.9237 121.985L24.9069 116.599L18.9231 113.923L15.584 113.031L12.3772 112.667L10.7573 112.039L10.03 110.618L10.4928 109.197L12.3772 108.537H18.9231L24.7746 110.057L31.0229 112.436L36.9406 115.905ZM82.1333 88.7764L82.2986 93.799L83.1912 98.6234L85.9021 102.952L86.1997 103.977L86.365 105.067L86.2327 107.347L85.7038 109.462L86.0344 112.964L85.803 115.971L82.5962 117.062L81.935 118.549L81.4721 120.168L80.6787 121.853L80.1828 123.572L80.877 124.893L81.5382 125.885L79.6869 131.205L103.787 129.916L107.755 131.766L110.036 135.401L112.251 141.085L111.49 146.24L103.655 149.148L95.4233 150.172L90.1338 149.577L86.0344 151.857L83.8855 156.814L80.1167 157.177L79.5547 159.358L79.5216 161.308L82.9929 163.951L88.5138 171.089L74.2982 174.823H67.1242L60.6445 172.146L61.8016 180.804L61.504 194.484L60.0825 194.318L58.8923 193.724L54.9913 191.543L51.2555 189.957L46.9247 189.527L43.0897 188.073L41.4037 187.082L41.9326 186.52L43.6187 181.266L43.9493 180.969L44.2799 179.647L45.6353 176.673L46.9247 162.299L43.3873 153.146L43.6848 151.527L43.9493 140.92L43.5856 137.45L43.1559 135.732L42.3955 134.41L41.8004 132.923L43.1559 132.196L45.1064 131.833L46.4288 131.436L54.8921 123.77L59.3221 121.589L61.1404 119.97L62.1322 116.368L63.8843 112.667L64.8761 107.512L69.5706 95.319L70.1657 92.8738H71.2567L76.2817 92.4442L79.3563 90.8581L82.1333 88.7764Z" fill="#009649" stroke="white" stroke-width="2" stroke-linejoin="round" data-country-region="North Region"></path>
<path class="region" d="M165.973 133.188L164.783 135.303L164.121 137.88L160.088 138.64L156.253 139.731L152.022 142.705L141.145 143.101L141.442 146.339L145.244 147.661L147.922 151.131L149.145 154.964L145.674 157.74L143.624 160.251L141.839 162.96L138.665 166.694L134.963 170.032L131.062 173.006L126.433 173.039L123.954 171.288L121.243 169.834L116.813 171.882L111.061 179.383L108.317 185.728L105.738 186.884L103.49 190.916L102.068 190.816L100.547 190.42L97.4729 188.768L95.9191 185.629L95.3902 183.613L94.4314 181.795L92.2826 180.804L90.0676 180.044L88.5799 175.881L88.5137 171.089L82.9928 163.952L79.5215 161.308L79.5545 159.359L80.1166 157.178L83.8854 156.814L86.0343 151.858L90.1337 149.578L95.4232 150.172L103.655 149.148L111.49 146.24L112.251 141.085L110.036 135.402L107.755 131.767L103.787 129.917L110.565 125.621L114.664 122.317L117.276 118.351L117.077 115.873L116.548 113.329L116.581 112.007L116.416 110.817L114.267 110.454L113.143 108.901L113.507 106.753L116.152 106.522L118.962 106.687L123.987 106.522L127.656 108.868L129.905 112.238L133.508 110.619L135.988 108.372L137.442 107.678L138.831 106.885L139.095 106.125L139.426 105.398L144.186 105.266L148.716 107.017L149.245 111.742L153.179 112.172L154.865 115.179L153.476 117.261L153.212 119.276L155.493 118.715L157.642 117.261L162.237 117.955L166.898 120.796L168.651 123.176L165.973 133.188Z" fill="#009649" stroke="white" stroke-width="2" stroke-linejoin="round" data-country-region="North Region"></path>
<path class="region" d="M312.625 350.947L312.79 351.542L313.98 351.806L315.138 350.286H316.063L317.187 356.234L317.154 358.415H318.146L318.278 356.3L318.642 354.251L319.27 352.533L320.163 351.277V350.286L319.766 349.129L320.03 348.667L320.824 348.997L322.146 350.286L322.576 351.442L322.907 354.549L325.155 358.15L328.824 370.674L328.13 405.271L328.494 407.617L329.981 412.805L330.213 415.878L329.386 421.727L322.642 445.089L322.278 447.501L322.146 450.673L321.617 453.317L319.534 457.414L319.072 459.265L318.245 461.776L314.08 468.286L315.071 471.887L313.451 476.117L304.195 490.821L302.872 490.392L299.335 489.301L296.889 486.526L295.037 486.261L293.351 486.129L288.987 480.776L292.789 426.816L292.062 423.908L290.31 421.363V418.522L289.285 415.713L289.979 412.805L290.277 410.029L285.946 407.419L280.722 406.097L279.995 405.403L279.069 404.874H277.978L276.821 404.346L275.664 402.33L275.102 400.05L273.218 396.613L274.904 392.053L277.945 388.452L280.326 386.568L277.152 382.173L276.722 379.001L274.705 375.432L271.466 372.624L270.87 369.782L271.102 366.279L269.35 358.514L269.647 356.531L268.689 356.366L267.763 355.804L269.912 352.467L267.036 351.674L263.399 353.623L261.614 354.251L260.027 354.978L259.465 356.333L258.473 357.919L256.456 358.448L254.969 358.58L255.002 360.496L255.795 362.215L255.961 363.966L255.299 365.42L254.274 366.643L253.58 367.667L250.638 369.319L247.001 369.154L247.034 374.804L247.795 380.29L245.084 382.272L242.108 383.297L240.852 380.918L239.695 378.076L239.166 375.432L237.877 372.789L236.852 371.071L236.257 369.749L234.472 369.418L233.182 369.716L231 367.568L229.38 364.098L228.422 357.622L227.86 355.804L227.397 353.987L227.827 352.665L228.62 351.145L230.174 343.975L229.612 336.606L223.132 335.218L215.958 339.216L212.851 342.124L211.065 342.785L209.611 343.115L206.966 344.074L203.362 338.06L202.205 334.524L202.007 332.112L201.048 330.03L198.833 328.675L198.437 328.279L199.858 321.306L199.527 318.465L198.47 315.127L198.569 312.682H201.313L206.768 312.153L209.445 311.691L214.768 313.739L219.066 318.068L226.141 320.249L229.579 322.232L232.422 322.595L232.786 321.075L233.447 319.324L234.406 318.366L235.199 316.779L234.736 313.277L235.397 309.972L239.365 310.765L244.059 310.534L247.96 311.79L252.952 319.026L256.192 322.133L260.622 323.388L265.25 324.28L265.052 328.708L263.63 332.971L263.895 335.449L265.25 337.663L269.846 340.406L272.325 342.818L281.912 344.47L291.632 343.413L295.07 341.496L295.136 345.197L296.26 348.799L296.69 357.159L297.781 359.538L302.872 354.449L305.848 352.07L312.625 350.947Z" fill="#009649" stroke="white" stroke-width="2" stroke-linejoin="round" data-country-region="South Region"></path>
<path class="region" d="M193.049 390.6L192.95 393.243L194.041 396.911L193.711 398.266L194.008 399.489L194.669 400.282L195.198 401.042L194.206 402.264L193.512 403.619L194.306 406.229L194.504 407.254L194.041 408.344L193.082 409.567L191.892 410.657L190.57 413.235L189.909 416.11L186.669 420.934L181.115 422.157L178.503 423.412L176.189 425.527L175.462 428.435L173.511 430.715L170.767 430.55L168.122 430.682L168.288 433.028L172.949 435.374L173.941 437.423L174.767 439.67L175.495 440.595L176.09 441.586L173.941 445.089L175.263 445.948L176.619 446.609L175.131 448.724L172.354 449.418L164.089 453.747L159.527 454.374L154.7 454.209L151.063 454.507L147.989 455.002L139.955 453.912L132.385 452.227L128.814 451.929L125.839 449.616L126.368 448.129L127.459 447.072L126.467 445.981L126.566 443.569L128.252 442.115L128.021 440.133L126.897 436.266L123.525 433.755L119.26 432.367L118.004 428.138L119.029 422.652L118.103 421.694L117.276 420.571L118.07 419.48L119.194 419.117L121.21 417.332L122.5 415.25L122.037 415.118L121.839 414.656L126.004 415.019L132.55 424.767L136.815 427.312L139.955 423.941L141.708 419.017L139.988 416.638L137.806 414.59L135.228 409.831L134.104 409.336L132.914 409.699L136.22 407.056L141.476 407.716L144.451 407.056L148.683 404.115L151.559 404.049L154.039 404.709L163.461 393.574L166.403 388.551L165.081 383.033L164.618 378.77L167.164 381.05L169.246 383.859L170.767 384.421L172.023 384.553L175.395 389.873L180.751 390.302L186.999 389.344L193.049 390.6Z" fill="#009649" stroke="white" stroke-width="2" stroke-linejoin="round" data-country-region="South Region"></path>
<path class="region" d="M245.514 233.542L246.275 241.241L245.085 264.504L246.175 269.923L248.622 275.243L249.812 280.761L248.49 280.861L243.167 280.134L239.002 280.728L235.729 282.942L234.638 287.238L233.348 298.572L235.398 309.972L234.737 313.277L235.2 316.779L234.406 318.365L233.447 319.324L232.786 321.075L232.423 322.595L229.579 322.232L226.141 320.249L219.066 318.068L214.769 313.739L209.446 311.69L206.768 312.153L201.313 312.682H198.569L191.032 314.07L183.197 313.508L182.866 316.151L182.205 318.729L179.99 317.341L178.734 315.59L175.824 318.233L172.155 319.786L168.287 318.927L166.865 316.878L167.13 314.004L165.146 305.049L166.138 300.984L170.369 300.059L170.634 298.969L171.13 297.911L172.551 291.963L172.948 288.593L174.37 281.621L178.767 277.027L176.618 275.739L174.304 275.243L172.618 274.781L170.865 275.607L170.799 276.565L169.84 277.16L168.617 276.697L167.824 275.838L167.89 273.227L165.84 270.947L164.584 269.692L164.782 265.793L167.625 261.794L164.716 259.481L164.948 254.359L165.939 248.577L168.055 243.025L169.245 236.813L171.394 231.163L177.18 230.072H183.659L185.511 228.982L186.139 226.404L187.23 223.794L189.114 221.811L191.296 221.183L193.015 223.695L195.363 224.62L197.611 226.371L198.206 229.444L200.057 231.295L206.206 230.7L217.281 233.41H219.893L222.306 234.797L224.654 236.615L227.232 237.937L229.084 237.804L230.141 239.258L230.34 241.142L230.307 243.058L230.803 245.834L230.009 247.685L228.323 248.742L228.918 249.172L229.613 249.403L233.282 248.577L235.332 243.719L236.092 242.298L237.018 238.465L238.01 237.573L239.134 236.747L240.093 234.996L241.415 233.542H245.514Z" fill="#009649" stroke="white" stroke-width="2" stroke-linejoin="round" data-country-region="North Region"></path>
<path class="region" d="M320.328 346.486L318.146 348.27L316.096 346.651L315.171 345.693L314.972 344.206L315.6 334.656L315.171 331.451L313.584 330.063L312.956 328.774L308.096 321.571L307.831 320.018L306.575 317.341L306.079 315.887L306.145 314.367L306.608 313.012L306.806 311.592L306.079 309.873L307.964 311.691L309.749 315.953L311.071 317.903L312.757 322.43L317.948 330.691L320.427 343.545L320.328 346.486ZM312.625 350.947L305.848 352.07L302.872 354.449L297.781 359.538L296.69 357.159L296.26 348.799L295.136 345.197L295.07 341.496L291.632 343.413L281.912 344.47L272.325 342.818L269.846 340.406L265.25 337.663L263.895 335.449L263.63 332.971L265.052 328.708L265.25 324.28L260.622 323.388L256.192 322.133L252.952 319.026L247.96 311.79L244.059 310.534L239.365 310.766L235.397 309.972L233.348 298.572L234.637 287.238L235.728 282.943L239.001 280.729L243.166 280.134L248.489 280.861L249.811 280.762L248.621 275.243L246.175 269.923L245.084 264.504L246.274 241.241L245.514 233.542L247.927 232.683L261.052 234.071L264.523 245.933L265.68 252.641L263.035 256.309L261.349 249.37L259.134 243.224H258.043L257.878 247.883L258.043 249.37L257.845 249.733V250.494L258.043 251.386L258.539 251.947L259.795 252.344L260.027 252.807L261.217 255.88L263.796 257.763L266.242 257.565L267.102 254.393H267.994L269.184 256.541L270.375 261.861L271.598 263.909L273.251 265.694L274.276 267.445L276.094 271.609L276.788 270.882L277.747 270.188L278.177 269.494L278.805 270.882L278.177 271.609L279.003 272.864L279.069 273.525L279.83 272.93L281.317 272.203L282.078 271.609L282.838 273.459L282.541 274.649L282.012 275.838L282.078 277.656L283.103 279.638L286.078 281.918L287.136 283.703L286.475 283.736L285.152 284.595L284.293 287.833L286.012 292.856L289.02 296.325L292.128 295.764H293.12L294.145 298.837L295.665 301.348L301.947 307.924L303.996 311.162L304.327 314.004L301.087 314.995L299.599 313.971L295.996 309.378L294.145 307.759L291.698 306.866L289.715 307.032L288.194 308.618L287.136 311.856L288.888 312.682L290.574 312.913L292.029 312.352L293.12 310.865L294.839 311.526L296.426 312.286L297.351 313.409L297.12 314.995L300.988 318.63L302.509 320.381L304.129 323.025L303.368 323.917L303.17 324.743L303.401 325.767L304.129 327.155L305.021 326.032L304.459 324.016L306.178 324.644L309.583 327.155L310.377 328.345L313.088 335.185L312.923 335.482L312.063 339.216L312.228 339.679L312.923 341.1L313.088 341.695L312.493 342.686L311.468 343.512L310.84 344.404L311.567 345.726L312.294 346.651L312.559 347.477L312.989 348.336L314.08 349.295L312.493 350.418L312.625 350.947Z" fill="#009649" stroke="white" stroke-width="2" stroke-linejoin="round" data-country-region="North Region"></path>
<path class="region" d="M109.904 503.246L111.689 505.097L113.673 506.782L116.152 507.773L118.334 507.839L122.863 510.086L125.211 509.987L126.467 511.805L123.459 512.73L121.508 514.712L123.227 517.323L125.475 519.603L124.616 523.766L120.086 522.709L117.309 520.099L114.202 517.752L111.788 517.059L109.474 517.686L110.896 520.396L113.805 522.246L116.88 526.674L117.971 530.871L115.425 534.01L110.301 533.118L111.822 534.935L112.516 537.314L111.458 540.355L110.135 543.196L111.061 546.071L113.342 548.186L115.954 549.97L118.235 552.052L116.252 554.431L113.937 556.777L111.921 557.603L111.061 558.991L111.491 560.511L112.648 561.106L115.227 562.196L114.334 563.981L111.689 564.972L110.069 567.814L110.102 569.433L110.367 571.118L109.441 570.986L108.747 570.656L108.251 569.962L107.623 569.301L106.499 568.97L105.805 569.202L105.276 569.697L104.714 570.094L103.953 570.061L103.457 569.631L102.532 568.31L101.937 567.979L100.912 567.616L94.6635 565.369L90.2996 564.443L87.1259 561.899L84.977 560.875L83.9191 561.965L81.2082 559.751L69.3067 547.128L68.3149 546.369L67.8851 545.807L67.6867 545.212L67.7529 543.956L67.3561 543.295L65.5378 540.916L58.8267 526.674L58.5292 525.32L58.5953 522.841L58.3639 522.114L57.1407 519.57L55.9175 512.73L53.2066 507.905L51.5205 500.999L52.5454 501.231L53.3388 502.354L54.1653 503.114L55.124 502.486L56.6117 501.891L57.6696 502.916L58.3969 504.171L63.7857 506.65L66.4305 507.212L69.3397 508.467L71.687 510.549L74.1334 512.168L80.4478 513.391L84.448 511.144L88.878 510.747L93.1758 514.085L95.4239 516.266L97.705 518.083L98.0025 515.142L96.9116 511.937V508.798L99.5894 507.608L104.714 504.436L109.904 503.246Z" fill="#009649" stroke="white" stroke-width="2" stroke-linejoin="round" data-country-region="South Region"></path>
<path class="region" d="M304.196 490.822L299.7 497.894L295.137 502.52L286.641 508.534L283.897 509.36L280.161 511.342L253.052 532.689L247.63 535.63L230.043 541.908L229.778 539.661L228.753 538.835L227.596 539.132L227.034 540.322L226.737 542.8L225.943 543.725L224.687 544.056L222.968 544.816L219.794 546.732L216.62 548.12L201.413 551.392L194.041 553.936L185.974 555.423L182.304 556.844L180.089 559.95L176.122 559.157L172.32 560.644L161.047 568.971L160.716 569.367L159.89 568.905L156.187 567.253L154.468 564.543L155.493 563.981L155.559 562.759L154.336 562.065L152.914 561.933L150.865 560.611L150.534 558.265L155.261 556.249L153.642 550.599L154.997 549.376L155.526 548.087L153.906 547.724L152.187 548.021L149.807 546.732L149.311 544.221L150.17 542.899L150.865 541.379L150.071 540.586L148.782 540.818L146.005 539.76L143.492 537.976L145.277 531.664L150.865 527.402L149.873 525.089L150.865 522.511L150.633 521.388L151.989 520.859L160.353 522.445L171.064 526.344L173.874 526.807L176.651 526.113L179.428 525.849L181.643 527.6L183.362 529.583L188.718 530.673L191.792 531.697L192.52 529.087L191.164 525.353L188.487 522.346L192.057 520L195.76 518.017L199.892 516.662L203.033 514.25L201.644 510.979L202.339 507.641H204.19L206.173 507.509L207.364 505.791V503.841L209.149 505.13L210.537 503.544L214.207 503.511L217.811 503.974L220.323 504.866L221.447 507.575L222.869 507.774L224.456 507.708L225.778 506.749L227.629 506.551L230.34 510.12L232.588 513.92L236.225 515.44L240.225 513.259L241.68 511.805L243.895 510.88L248.159 509.756L256.854 506.386L258.441 505.229L258.805 505.659L260.094 505.824L263.995 504.403L268.061 505.328L269.946 502.222V500.934L269.88 499.744L270.541 498.819L271.169 497.794L270.409 495.812L270.342 493.334L273.252 491.02L276.723 489.467L279.368 486.89L282.442 484.544L286.376 483.817L288.988 480.777L293.352 486.13L295.038 486.262L296.889 486.526L299.336 489.302L302.873 490.393L304.196 490.822Z" fill="#009649" stroke="white" stroke-width="2" stroke-linejoin="round" data-country-region="South Region"></path>
<path class="region" d="M151.987 520.859L150.632 521.387L150.863 522.511L149.872 525.088L150.863 527.401L145.276 531.664L143.491 537.975L146.004 539.76L148.781 540.817L150.07 540.586L150.863 541.379L150.169 542.899L149.31 544.221L149.806 546.732L152.186 548.021L153.905 547.723L155.525 548.087L154.996 549.375L153.64 550.598L155.26 556.249L150.533 558.264L150.863 560.61L152.913 561.932L154.335 562.064L155.558 562.758L155.492 563.981L154.467 564.543L156.186 567.252L159.889 568.904L160.715 569.367L158.467 571.977L152.483 571.614L149.971 571.977L148.02 572.737L146.037 573.861L142.466 576.537L140.417 577L138.003 576.075L135.425 574.72L132.945 573.993L124.482 574.984L122.068 574.522L120.845 573.299L120.085 571.713L118.994 570.061L116.514 571.515L114.299 571.68L110.365 571.118L110.101 569.433L110.068 567.814L111.688 564.972L114.332 563.981L115.225 562.196L112.646 561.106L111.489 560.511L111.06 558.991L111.919 557.603L113.936 556.777L116.25 554.431L118.233 552.052L115.952 549.97L113.341 548.186L111.06 546.071L110.134 543.196L111.456 540.354L112.514 537.314L111.82 534.935L110.299 533.118L115.423 534.01L117.969 530.871L116.878 526.674L113.803 522.246L110.894 520.396L109.473 517.686L111.787 517.058L114.2 517.752L117.308 520.099L120.085 522.709L124.614 523.766L125.474 519.603L123.226 517.323L121.506 514.712L123.457 512.73L126.465 511.804L129.309 511.408L132.185 510.747L133.21 508.368L135.689 508.335L142.103 507.509L144.218 511.375L143.26 514.018L145.871 514.481L149.376 513.886L151.029 515.902L150.897 517.29L152.781 518.678L151.987 519.471V520.859Z" fill="#009649" stroke="white" stroke-width="2" stroke-linejoin="round" data-country-region="South Region"></path>
<path class="region" d="M239.696 378.076L234.01 379.431V382.471L232.886 385.247L228.886 390.302L227.564 392.582L225.117 393.607L223.1 391.393L220.687 391.095L218.968 393.706L218.538 396.68L220.356 399.026L222.605 401.24L224.059 404.28L225.778 406.064L231.167 404.643L232.721 406.659L233.514 407.353L234.605 408.675L235.366 410.657L235.762 412.706V415.449L235.068 418.092L234.539 422.157L233.746 423.776L232.754 425.296L232.39 427.576L231.63 429.691L229.745 430.12L228.291 429.492L227.398 430.385L226.737 431.541L225.282 433.425L223.431 434.912L219.695 435.936L216.555 437.687L220.125 442.644L215.893 443.966L214.637 446.411L209.678 446.84L209.315 449.947L209.612 453.086L208.389 455.762L208.951 457.679L211.496 458.373L211.695 460.95L209.513 464.321L209.215 466.502L209.248 468.716L210.604 472.813L212.786 476.25L209.744 477.34L209.281 480.81L207.695 480.05L206.141 479.025L204.058 482.264L203.496 486.163L202.24 484.114L200.554 482.032L199.892 477.34L198.901 476.745L197.876 476.25L196.884 473.044L195.529 470.004L194.372 469.773L193.247 469.178L192.553 466.634L191.396 464.882L189.677 464.783L186.999 464.916L184.024 467.129L180.519 468.55L177.18 467.922L174.932 466.105L173.412 463.66L174.106 461.743L178.04 459.926L178.602 459.364L179.065 458.241L179.429 456.853L176.916 456.06L174.899 453.879L173.841 454.308L172.75 454.837L172.354 449.418L175.131 448.724L176.618 446.609L175.263 445.948L173.941 445.089L176.089 441.586L175.494 440.595L174.767 439.67L173.941 437.423L172.949 435.374L168.287 433.028L168.122 430.682L170.767 430.55L173.511 430.715L175.461 428.435L176.189 425.527L178.503 423.412L181.115 422.157L186.669 420.934L189.908 416.11L190.57 413.235L191.892 410.657L193.082 409.567L194.041 408.344L194.504 407.254L194.305 406.23L193.512 403.619L194.206 402.264L195.198 401.042L194.669 400.282L194.008 399.489L193.71 398.266L194.041 396.911L192.95 393.243L193.049 390.6L194.9 389.476L198.041 388.584L201.975 384.916L202.24 380.125L199.033 369.485L197.744 347.246L197.049 335.185L198.438 328.279L198.835 328.676L201.05 330.03L202.008 332.112L202.207 334.524L203.364 338.06L206.967 344.074L209.612 343.116L211.067 342.785L212.852 342.124L215.96 339.217L223.134 335.218L229.613 336.606L230.175 343.975L228.621 351.145L227.828 352.665L227.398 353.987L227.861 355.805L228.423 357.622L229.382 364.099L231.002 367.568L233.184 369.716L234.473 369.419L236.258 369.749L236.853 371.071L237.878 372.789L239.167 375.433L239.696 378.076Z" fill="#009649" stroke="white" stroke-width="2" stroke-linejoin="round" data-country-region="South Region"></path>
<path class="region" d="M51.9816 82.267L51.2213 82.7957L49.998 80.5157L50.8576 80.02L51.7172 78.7644L52.6759 79.5244L53.0726 80.2183L52.8742 81.2096L51.9816 82.267ZM143.921 57.8476L143.227 58.5415L142.896 61.0198L139.788 63.4651L139.359 66.8355L139.755 70.206L136.416 68.3555L133.54 65.9103L132.449 64.5225L131.755 64.7538L129.705 71.4617L127.259 72.7834L123.556 73.0147L116.911 72.6843L114.927 72.7504L112.448 79.1609L108.58 79.5244L104.646 78.7974L100.646 78.8635L89.4053 80.1852L85.6034 85.1418L86.0001 89.2393L82.1321 88.7767L79.3551 90.8584L76.2806 92.4445L71.2555 92.8741H70.1645L71.0902 89.2723V80.6809L71.3877 79.4252L71.1232 78.5661L69.4041 78.2357L65.3708 76.1209L63.817 74.6669L62.6599 71.3625L61.9326 67.8929L61.8665 65.9103L63.6187 64.0598L66.8585 62.4407L70.462 61.3172L73.4044 60.8546L74.7267 60.1937L77.9335 55.898L78.8592 55.2041L79.9171 54.5432L81.2395 54.0806L82.9256 53.7832L81.5371 51.2058L79.851 48.9588L77.7021 46.8109L74.859 44.6961L64.0484 38.3187L61.8665 35.6091L66.594 35.7412L71.0571 37.5587L79.851 42.6805L88.2151 44.7953L90.4301 46.2162L93.9014 49.2562L94.761 50.8753L92.9757 51.7675L93.3725 52.7919L93.9014 53.7832L92.9757 54.8076L96.0503 56.8563L103.257 55.105L116.448 49.851L119.986 50.1814L127.788 52.3293L136.978 56.4928L143.921 57.8476ZM118.663 38.4839L120.515 44.1344L120.779 45.6214L118.994 45.7205L117.837 46.1501L117.374 46.9431L116.779 47.2405L114.861 45.7866L114.068 45.6544L109.34 45.7866L107.985 45.3901L97.6041 36.3691L93.141 33.4612L91.5211 32.7673L94.5957 27.3481L96.5792 23.0854L103.588 30.7186L108.117 33.5934L118.663 38.4839Z" fill="#009649" stroke="white" stroke-width="2" stroke-linejoin="round" data-country-region="North Region"></path>
<path class="region" d="M127.027 298.804L126.366 301.183L126.729 303.793L128.019 304.52L129.143 304.818L130.168 307.098L131.622 309.543L132.614 312.087L132.647 314.632L133.176 314.995L133.936 316.053L134.366 320.976L135.16 325.536L137.837 328.147L137.771 329.865L137.342 331.616L137.375 332.971L136.846 334.227L134.796 336.11L134.432 339.216L135.887 342.19L136.78 343.644L137.507 345.197L137.937 347.048L137.639 348.832L136.813 349.923L136.746 351.443L134.994 352.269L133.275 352.731L134.432 354.582L135.325 356.597L133.738 357.324L131.655 356.961L129.506 358.184L129.738 359.803L129.506 361.356L127.027 361.157L124.746 359.538H122.663L122.2 362.479L121.572 363.272L121.076 364.131L121.175 365.123L121.44 365.784L118.795 366.577L115.787 366.246L114.431 363.404L112.315 361.191L108.811 360.728L105.604 361.984L105.108 364.792L105.274 367.799L104.778 369.551L103.72 370.971L102.166 371.038L95.0251 372.624L91.6199 374.243L88.4131 376.523L85.3716 379.232L82.3962 380.951L79.8506 379.1L76.2141 374.937L75.3876 373.714L74.9578 372.458L73.6354 371.005L69.5691 371.732L65.9986 374.276L61.7669 375.532L57.7337 372.69L54.2293 372.822L48.6753 377.217L45.5677 378.439L45.204 369.65L39.8153 340.637L39.5508 335.548L39.8483 330.493L41.4021 326.461L43.6171 322.694L44.1461 321.042L45.204 319.588L47.3198 319.027L49.0389 318.068L48.2455 316.746L46.4272 316.284L47.1876 314.367L48.1794 312.649L50.0638 312.054L52.1465 311.889L53.7334 311.228L54.7583 309.873L54.2293 308.32L53.4359 306.701L53.8987 302.802L55.2872 299.233L55.5517 297.482L56.0807 295.896L57.9651 294.871L59.7503 293.649L60.1801 292.063L60.8743 290.576L63.9819 288.957L64.544 287.602L64.7754 286.115L65.668 284.066L67.8169 283.075L67.5524 283.57L68.4781 283.306L69.6021 282.116L69.6352 280.332L70.4617 278.911L73.5032 280.63L75.3545 279.209L73.6023 275.937L74.4288 274.186L75.5529 272.534L75.6851 269.163L75.5859 265.198L76.1479 263.281L76.5116 261.53L74.7594 260.407L72.7758 259.713L71.3873 257.069L70.8584 254.194L69.3046 248.346L69.3707 245.372L69.1062 242.563L72.28 244.347L85.7353 250.527L88.6115 251.254L91.4216 252.377L93.6035 253.963L96.3144 254.36L101.141 256.21L105.538 259.812L107.918 262.224L110.563 263.843L113.307 263.744L115.522 265.562L115.555 267.412L115.291 269.262L115.72 272.435L115.522 275.111L115.787 277.656L117.836 278.515L120.184 278.68L121.407 280.729L121.77 283.207L123.159 286.61L123.886 290.113L123.324 295.202L127.027 298.804Z" fill="#009649" stroke="white" stroke-width="2" stroke-linejoin="round" data-country-region="North Region"></path>
<path class="region" d="M58.8919 193.724L59.7184 199.837L57.0405 205.488L52.5114 209.222L52.313 210.246L51.6187 211.568L49.1723 212.724L47.5855 216.359L49.7343 220.523L53.3709 235.392L54.2635 238.003H57.305L59.7514 236.879L62.3632 238.829L65.3385 238.73L67.4874 240.448L69.1074 242.563L69.3718 245.372L69.3057 248.346L70.8595 254.194L71.3885 257.069L72.777 259.713L74.7606 260.407L76.5128 261.53L76.1491 263.281L75.5871 265.198L75.6863 269.163L75.554 272.534L74.43 274.186L73.6035 275.937L75.3557 279.209L73.5043 280.629L70.4628 278.911L69.6363 280.332L69.6033 282.116L68.4792 283.306L67.5536 283.57L67.818 283.075L65.6691 284.066L64.7765 286.115L64.5451 287.602L63.9831 288.957L60.8755 290.576L60.1812 292.063L59.7514 293.649L57.9662 294.871L56.0818 295.896L55.5529 297.482L55.2884 299.233L53.8999 302.802L53.437 306.701L54.2305 308.32L54.7594 309.873L53.7346 311.228L52.1477 311.889L50.0649 312.054L48.1805 312.649L47.1887 314.367L46.4284 316.284L48.2466 316.746L49.0401 318.068L47.321 319.026L45.2051 319.588L44.1472 321.042L43.6183 322.694L41.4033 326.461L39.8495 330.493L39.5519 335.548L39.8164 340.637L45.2051 369.65L45.5688 378.439L43.0232 377.448L40.8743 378.77L39.1552 378.571L38.0312 377.283L35.188 377.646L32.4771 378.373L29.0059 378.208L22.6914 331.98L21.7988 330.063L22.3939 329.435L22.8567 329.369L23.9147 330.063L24.1461 327.519L24.8734 324.578L25.237 321.736L24.4106 319.522L23.2865 317.473L22.8567 314.797L22.8898 309.345L19.5177 292.823L19.121 290.906L17.4019 287.304L15.9142 279.671L13.5339 273.657L9.86426 257.003V252.278L10.4593 252.575L10.8561 253.302L11.385 250.56L10.5916 241.836L9.86426 239.192L12.2446 237.606L14.5257 234.665L16.1787 231.328L16.8068 228.519L17.5011 226.702L21.7988 219.862L19.5838 225.116L16.8068 230.039L17.5672 231.526L18.6582 232.617L20.0797 233.178L21.7988 233.145L20.3773 237.177L18.9226 240.118L18.2614 240.613L17.6002 240.679L17.0713 241.109L16.8068 242.662L16.939 246.165L16.8068 247.255L14.3604 255.153L14.6249 259.547L17.9308 263.447L14.9885 269.593L19.6499 272.963L26.4272 273.492L29.8654 271.047L29.2042 268.436L27.6835 265.594L25.8652 263.314L24.4106 262.356L23.9808 260.77L28.9067 251.386L28.7083 249.667L28.0802 248.412L27.3529 247.354L26.89 246.264L26.7909 244.479L26.9562 241.406L26.89 240.118L26.4272 238.829L25.8982 238.333L25.6007 237.739L25.8982 236.086L26.5925 234.698L28.51 232.187L28.9067 230.535L29.2042 227.462L30.5597 221.283L31.9482 206.843L32.8408 205.223L33.8326 204.397L34.5599 203.439L34.8574 201.258V195.112L35.717 192.105L37.7006 190.155L40.0478 188.569L41.4033 187.082L43.0893 188.074L46.9243 189.528L51.2551 189.957L54.9908 191.543L58.8919 193.724Z" fill="#009649" stroke="white" stroke-width="2" stroke-linejoin="round" data-country-region="North Region"></path>
<path class="region" d="M126.565 443.569L126.465 445.981L127.457 447.072L126.366 448.129L125.837 449.616L128.813 451.929L132.383 452.226L139.954 453.912L147.987 455.002L151.062 454.507L154.698 454.209L159.525 454.374L164.087 453.746L172.352 449.418L172.749 454.837L173.84 454.308L174.898 453.879L176.915 456.06L179.427 456.853L179.063 458.24L178.601 459.364L178.039 459.926L174.105 461.743L173.41 463.66L174.931 466.105L177.179 467.922L180.518 468.55L184.022 467.129L186.998 464.915L189.676 464.783L187.262 468.418L185.775 472.218L183.097 475.423L181.708 478.695L180.254 485.039L177.51 488.971L175.295 493.168L175.724 495.58L176.65 497.893L176.782 506.98L178.402 510.119L180.485 512.862L183.262 514.382L185.94 516.265L187.328 518.942L188.486 522.346L191.163 525.353L192.519 529.087L191.792 531.697L188.717 530.673L183.361 529.582L181.642 527.6L179.427 525.848L176.65 526.113L173.873 526.806L171.063 526.344L160.352 522.445L151.988 520.859V519.471L152.781 518.678L150.897 517.29L151.029 515.902L149.376 513.886L145.871 514.481L143.26 514.019L144.219 511.375L142.103 507.509L135.689 508.335L133.21 508.368L132.185 510.747L129.309 511.408L126.465 511.805L125.209 509.987L122.862 510.086L118.333 507.839L116.151 507.773L113.671 506.782L111.688 505.097L109.902 503.246L104.646 494.06L98.4638 485.369L97.7034 482.858L99.8854 482.032L97.7695 477.968L94.5297 474.994L92.48 474.201L90.8601 472.681L90.0005 468.418L85.5374 464.089L84.1489 461.148L83.1902 458.373L83.4216 456.027L80.8429 449.286L80.3801 446.246L83.5869 443.371L79.9834 439.538L80.7438 437.786L81.3719 435.738L82.9588 433.226L84.8432 430.946L87.0912 429.922L93.1412 436.068L94.9595 438.381L97.1745 440.132L98.2324 439.571L99.7201 439.24L100.778 440.496L101.472 441.95L105.142 442.743L109.572 440.232L111.39 440.033L113.605 440.132L116.746 441.917L120.779 443.272L123.655 443.668L126.565 443.569Z" fill="#009649" stroke="white" stroke-width="2" stroke-linejoin="round" data-country-region="South Region"></path>
<path class="region" d="M288.987 480.776L286.376 483.816L282.442 484.543L279.367 486.889L276.722 489.467L273.251 491.02L270.342 493.333L270.408 495.811L271.168 497.794L270.54 498.818L269.879 499.743L269.945 500.933V502.221L268.061 505.328L263.994 504.402L260.093 505.823L258.804 505.658L258.44 505.228L256.853 506.385L248.159 509.755L243.894 510.879L241.679 511.804L240.224 513.258L236.224 515.439L232.587 513.919L230.339 510.119L227.629 506.55L225.777 506.748L224.455 507.707L222.868 507.773L221.446 507.575L220.322 504.865L217.81 503.973L214.206 503.51L210.537 503.543L209.148 505.129L207.363 503.841V505.79L206.173 507.508L204.189 507.641H202.338L201.644 510.978L203.032 514.249L199.891 516.662L195.759 518.016L192.056 519.999L188.486 522.345L187.329 518.942L185.94 516.265L183.262 514.382L180.485 512.862L178.403 510.119L176.783 506.98L176.65 497.893L175.725 495.58L175.295 493.167L177.51 488.971L180.254 485.039L181.709 478.694L183.097 475.423L185.775 472.218L187.263 468.418L189.676 464.783L191.395 464.882L192.552 466.633L193.246 469.178L194.37 469.772L195.527 470.004L196.883 473.044L197.875 476.249L198.9 476.745L199.891 477.339L200.553 482.032L202.239 484.113L203.495 486.162L204.057 482.263L206.14 479.025L207.693 480.049L209.28 480.809L209.743 477.339L212.785 476.249L210.603 472.812L209.247 468.715L209.214 466.501L209.512 464.32L211.694 460.95L211.495 458.372L208.95 457.678L208.388 455.762L209.611 453.085L209.313 449.946L209.677 446.84L214.636 446.41L215.892 443.965L220.124 442.643L216.553 437.687L219.694 435.935L223.43 434.911L225.281 433.424L226.736 431.541L227.397 430.384L228.29 429.492L229.744 430.12L231.629 429.69L232.389 427.575L232.753 425.295L233.745 423.775L234.538 422.156L235.067 418.092L235.761 415.448V412.706L235.364 410.657L234.604 408.674L233.513 407.353L232.72 406.659L231.166 404.643L225.777 406.064L224.058 404.279L222.603 401.239L220.355 399.025L218.537 396.679L218.967 393.705L220.686 391.095L223.099 391.392L225.116 393.606L227.562 392.582L228.885 390.302L232.885 385.246L234.009 382.47V379.43L239.695 378.076L240.852 380.917L242.109 383.297L245.084 382.272L247.795 380.29L247.035 374.804L247.002 369.154L250.638 369.319L253.58 367.667L254.275 366.642L255.3 365.42L255.961 363.966L255.795 362.215L255.002 360.496L254.969 358.58L256.457 358.448L258.473 357.919L259.465 356.333L260.027 354.978L261.614 354.251L263.399 353.623L267.036 351.674L269.912 352.467L267.763 355.804L268.689 356.366L269.647 356.531L269.35 358.514L271.102 366.279L270.871 369.782L271.466 372.623L274.706 375.432L276.722 379.001L277.152 382.173L280.326 386.568L277.945 388.451L274.904 392.053L273.218 396.613L275.102 400.05L275.664 402.33L276.821 404.346L277.979 404.874H279.069L279.995 405.403L280.722 406.097L285.946 407.419L290.277 410.029L289.979 412.805L289.285 415.713L290.31 418.521V421.363L292.062 423.907L292.789 426.815L288.987 480.776Z" fill="#009649" stroke="white" stroke-width="2" stroke-linejoin="round" data-country-region="South Region"></path>
<path class="region" d="M115.788 366.246L117.574 370.74L123.888 376.291L123.657 379.133L124.88 379.992L128.616 382.074L130.368 384.222L130.004 386.832L130.037 389.013L132.153 391.095L133.872 393.243L133.046 395.192L131.888 396.977L130.302 397.373L128.715 397.472L126.401 399.951L121.342 400.777L119.689 402.33L121.904 407.617L122.962 409.467L121.904 411.714L121.838 414.655L122.037 415.118L122.499 415.25L121.21 417.332L119.193 419.116L118.069 419.48L117.276 420.57L118.103 421.693L119.028 422.652L118.003 428.137L119.26 432.367L123.524 433.754L126.896 436.266L128.02 440.132L128.252 442.115L126.566 443.569L123.657 443.668L120.78 443.271L116.747 441.916L113.606 440.132L111.391 440.033L109.573 440.231L105.143 442.742L101.473 441.949L100.779 440.495L99.7213 439.24L98.2336 439.57L97.1757 440.132L94.9607 438.381L93.1424 436.068L87.0925 429.921L84.8444 430.946L84.7452 429.492L84.5469 428.071L86.4974 426.254L86.0345 423.577L83.522 422.288L80.3483 422.09L80.8111 420.867L80.778 419.546L78.5961 412.54L79.3565 408.278L81.2078 403.982L83.3236 402.528L84.4146 400.017L81.3401 399.125L77.7696 399.951L75.9844 396.283L76.6125 392.119L78.9267 390.897L80.8442 389.112L81.2078 384.057L82.6624 382.933L82.398 380.95L85.3733 379.232L88.4148 376.523L91.6216 374.242L95.0268 372.623L102.168 371.037L103.722 370.971L104.779 369.55L105.275 367.799L105.11 364.792L105.606 361.983L108.813 360.728L112.317 361.19L114.433 363.404L115.788 366.246Z" fill="#009649" stroke="white" stroke-width="2" stroke-linejoin="round" data-country-region="South Region"></path>
<path class="region" d="M197.742 347.246L199.032 369.485L202.238 380.125L201.974 384.916L198.04 388.584L194.899 389.477L193.048 390.6L186.998 389.344L180.75 390.303L175.394 389.873L172.022 384.553L170.766 384.421L169.245 383.859L167.162 381.05L164.616 378.77L165.079 383.033L166.402 388.551L163.459 393.574L154.037 404.71L151.558 404.049L148.682 404.115L144.45 407.056L141.475 407.717L136.218 407.056L132.912 409.699L134.102 409.336L135.226 409.832L137.805 414.59L139.987 416.639L141.706 419.018L139.954 423.941L136.813 427.312L132.548 424.767L126.003 415.019L121.837 414.656L121.903 411.715L122.961 409.468L121.903 407.618L119.688 402.331L121.341 400.778L126.399 399.951L128.713 397.473L130.3 397.374L131.887 396.977L133.044 395.193L133.871 393.244L132.152 391.096L130.036 389.014L130.003 386.833L130.366 384.223L128.614 382.075L124.879 379.993L123.655 379.134L123.887 376.292L117.572 370.741L115.787 366.247L118.796 366.577L121.44 365.784L121.176 365.123L121.077 364.132L121.573 363.273L122.201 362.48L122.664 359.539H124.746L127.027 361.158L129.507 361.356L129.738 359.803L129.507 358.184L131.656 356.961L133.739 357.325L135.325 356.598L134.433 354.582L133.276 352.732L134.995 352.269L136.747 351.443L139.755 355.607L149.012 361.422L154.401 361.753L157.509 358.283L157.013 352.897L157.905 350.584L159.922 349.361L162.104 350.187L167.526 354.681L171.724 354.054L176.353 350.253L182.369 350.287L184.783 349.097L186.535 351.311L187.593 350.716L188.552 349.89L190.172 347.18L193.114 346.718L197.742 347.246Z" fill="#009649" stroke="white" stroke-width="2" stroke-linejoin="round" data-country-region="South Region"></path>
<path class="region" d="M198.57 312.682L198.471 315.127L199.528 318.465L199.859 321.307L198.437 328.279L197.049 335.185L197.743 347.246L193.115 346.717L190.173 347.18L188.553 349.89L187.594 350.716L186.536 351.311L184.784 349.097L182.37 350.286L176.354 350.253L171.725 354.053L167.527 354.681L162.105 350.187L159.923 349.361L157.906 350.584L157.014 352.897L157.509 358.283L154.402 361.752L149.013 361.422L139.756 355.606L136.748 351.443L136.814 349.923L137.641 348.832L137.938 347.048L137.508 345.197L136.781 343.644L135.888 342.19L134.434 339.216L134.797 336.11L136.847 334.227L137.376 332.971L137.343 331.616L137.773 329.865L137.839 328.147L135.161 325.536L134.368 320.976L133.938 316.053L133.177 314.995L132.649 314.632L132.615 312.087L131.624 309.543L130.169 307.098L129.144 304.818L128.02 304.52L126.731 303.793L126.367 301.183L127.028 298.804L130.136 296.491L135.062 294.673L137.641 291.534L139.988 291.633L141.74 292.79L143.922 291.27L144.98 289.485L146.005 288.791L146.963 288.23L146.864 287.172L146.534 286.511L148.418 284.562L149.807 282.414L149.773 279.671L150.6 277.325H152.055L153.146 277.623L154.005 277.028L156.848 274.021L158.733 272.336L161.51 270.948L164.584 269.692L165.841 270.948L167.89 273.228L167.824 275.838L168.618 276.697L169.841 277.16L170.799 276.565L170.866 275.607L172.618 274.781L174.304 275.244L176.618 275.739L178.767 277.028L174.37 281.621L172.948 288.593L172.552 291.964L171.13 297.912L170.634 298.969L170.37 300.059L166.138 300.985L165.146 305.049L167.13 314.004L166.865 316.879L168.287 318.928L172.155 319.787L175.825 318.234L178.734 315.59L179.99 317.341L182.205 318.729L182.866 316.152L183.197 313.508L191.032 314.07L198.57 312.682Z" fill="#009649" stroke="white" stroke-width="2" stroke-linejoin="round" data-country-region="North Region"></path>
<path class="region" d="M80.3799 446.245L80.8427 449.285L83.4214 456.026L83.19 458.372L84.1487 461.148L85.5372 464.089L90.0003 468.418L90.8598 472.68L92.4798 474.2L94.5295 474.993L97.7693 477.967L99.8851 482.032L97.7032 482.858L98.4636 485.369L104.646 494.06L109.902 503.246L104.712 504.435L99.5876 507.608L96.9098 508.797V511.936L98.0007 515.142L97.7032 518.083L95.4221 516.265L93.174 514.084L88.8762 510.747L84.4462 511.143L80.446 513.39L74.1316 512.168L71.6852 510.549L69.3379 508.467L66.4287 507.211L63.7839 506.649L58.3951 504.171L57.6678 502.915L56.6099 501.891L55.1222 502.486L54.1635 503.114L53.337 502.354L52.5436 501.23L51.5187 500.999L50.9236 498.488L49.9649 497.86L49.3037 497.298L48.907 496.472L49.0723 495.613L49.7996 495.414L50.5269 495.481H50.9236L49.7996 487.781L49.7004 487.154L46.6589 479.322L39.5841 461.181L39.8817 460.685L39.8486 458.868L39.3858 456.984L38.4932 454.242L38.6585 451.797L45.4027 455.993L49.6343 454.407L51.3204 454.011L52.9403 453.284L58.5604 448.459L60.1804 448.261L61.8003 449.021L64.0814 447.864L65.8667 445.783L66.7923 445.948L67.5527 446.377L69.4371 450.805L72.3133 451.532L71.3546 447.27L76.1152 445.254L80.3799 446.245Z" fill="#009649" stroke="white" stroke-width="2" stroke-linejoin="round" data-country-region="South Region"></path>
<path class="region" d="M82.3991 380.951L82.6636 382.934L81.2089 384.057L80.8453 389.113L78.9278 390.897L76.6136 392.12L75.9855 396.283L77.7707 399.951L81.3412 399.125L84.4157 400.017L83.3248 402.529L81.2089 403.983L79.3576 408.278L78.5972 412.541L80.7792 419.546L80.8122 420.868L80.3494 422.091L77.7046 423.016L73.7374 422.619L70.8612 423.941L68.5471 426.254L67.952 429.03L67.7867 431.905L64.646 432.07L62.0673 431.773L60.3813 431.112L58.7283 430.186L57.0092 428.567L55.0256 427.345L52.5131 427.543L50.0005 428.039L42.7604 425.924L41.405 426.452L40.281 427.08L37.7023 426.452L35.2889 425.197L32.1152 423.974L33.5698 420.472L33.9665 418.819L33.9335 417.068L26.9248 392.219L27.9166 388.584L27.8505 390.831L28.4125 392.219L29.1729 393.309L29.8671 394.598L31.2887 399.522L31.9499 400.711H32.8756L33.0739 399.323L33.5037 398.729L33.9665 398.696L33.9335 394.169L33.6029 392.219L32.8756 390.6L32.1813 390.104L30.2638 389.675L29.4043 389.113L28.7762 387.857L29.0076 386.668L29.5696 385.61L29.8671 384.553L29.0076 378.208L32.4788 378.374L35.1897 377.647L38.0329 377.283L39.1569 378.572L40.876 378.77L43.0249 377.448L45.5705 378.44L48.6781 377.217L54.2322 372.822L57.7365 372.69L61.7698 375.532L66.0014 374.276L69.5719 371.732L73.6383 371.005L74.9606 372.459L75.3904 373.715L76.2169 374.937L79.8535 379.101L82.3991 380.951Z" fill="#009649" stroke="white" stroke-width="2" stroke-linejoin="round" data-country-region="South Region"></path>
<path class="region" d="M84.8439 430.946L82.9595 433.226L81.3726 435.737L80.7444 437.786L79.9841 439.538L83.5876 443.371L80.3808 446.245L76.1161 445.254L71.3555 447.27L72.3142 451.532L69.438 450.805L67.5536 446.378L66.7932 445.948L65.8676 445.783L64.0823 447.865L61.8012 449.021L60.1813 448.261L58.5614 448.459L52.9412 453.284L51.3213 454.011L49.6352 454.407L45.4036 455.993L38.6594 451.797L38.4941 454.242L39.3867 456.985L39.8495 458.868L39.8826 460.686L39.585 461.181L34.1302 447.171L32.1466 436.068L31.9482 434.977V424.37L32.1135 423.974L35.2873 425.196L37.7006 426.452L40.2793 427.08L41.4033 426.452L42.7588 425.923L49.9989 428.038L52.5114 427.543L55.024 427.344L57.0075 428.567L58.7266 430.186L60.3796 431.111L62.0657 431.772L64.6443 432.07L67.785 431.904L67.9503 429.03L68.5454 426.254L70.8596 423.941L73.7358 422.619L77.7029 423.016L80.3477 422.09L83.5215 422.289L86.034 423.577L86.4968 426.254L84.5463 428.071L84.7447 429.492L84.8439 430.946Z" fill="#009649" stroke="white" stroke-width="2" stroke-linejoin="round" data-country-region="South Region"></path>
</svg>