<svg width="457" height="577" viewBox="0 0 457 577" fill="none" xmlns="http://www.w3.org/2000/svg">
<path class="region" data-country-region="East Region" d="M363.663 177.825L353.176 171.395L352.902 171.304L351.945 170.848L351.078 170.119L348.525 167.428L347.339 167.793L346.929 168.249L346.427 169.161L345.926 169.663L345.15 169.936L344.512 169.982L343.372 169.891L342.551 170.119L341.183 170.803L340.819 170.62L340.591 169.298L340.271 168.204L340.18 167.976L339.907 167.702L339.451 167.428L337.946 166.927L337.171 166.38L336.076 164.829L334.161 165.057H333.66L331.471 164.601L331.197 164.51L330.924 164.282L330.559 163.872L330.057 163.097L329.647 162.276L329.373 161.546L328.689 160.133L327.96 158.856L327.504 158.491L327.094 158.309L326.273 158.218L325.862 158.309L325.133 158.674L324.631 158.537L322.579 157.534L321.348 157.078L321.075 157.032L320.527 156.53L318.339 153.658L317.427 152.153L317.336 151.697L316.788 151.241L314.873 150.603L314.189 149.371L313.824 148.368L313.596 147.411L312.776 147.274L309.082 148.095L308.489 147.958L307.897 147.867L307.623 147.912L306.802 148.14L305.617 148.596H305.024L304.796 148.505L304.568 148.049L304.477 147.456L304.568 147L304.887 146.362L305.526 145.268L307.304 143.672L308.535 142.805L309.265 142.03L312.137 137.334L310.177 136.467L309.629 136.102L309.766 135.282L312.411 130.904L317.016 129.263L317.108 129.217L319.752 129.171L320.664 129.308L321.166 129.536L321.895 129.354L323.126 127.94L324.358 127.803L324.905 127.621L325.27 127.302L325.589 126.892L325.817 126.071L325.361 123.836L325.178 121.192L324.905 120.28L324.54 119.733L322.534 117.453L321.85 117.042L321.029 116.45L320.163 115.674L319.752 115.218L319.524 114.808L318.156 110.02L330.65 115.674L335.028 117.726L341.047 120.599L350.85 125.204L353.449 126.162L367.858 126.253L378.437 126.481L380.444 126.892L380.216 127.302L378.984 129.126L378.209 130.767L377.89 132.546L378.027 134.78L379.167 138.382L379.44 140.252L378.756 141.985L374.516 147.32L371.506 151.013L370.685 152.244L368.451 157.99L362.66 164.92L361.292 167.793L360.927 170.894L361.155 171.851L361.383 173.083L361.976 174.451L362.706 175.408L363.344 176.73L363.663 177.825Z" fill="#009649" stroke="white" stroke-width="2" stroke-linejoin="round"></path>
<path class="region" data-country-region="West Region" d="M336.031 45.2249L336.305 45.4529L337.445 45.7721L337.764 45.9089L338.22 46.2281L338.721 46.6841L339.132 47.1401L339.405 47.6416L339.451 48.3256L339.177 50.3775L339.269 51.2439L339.953 51.9735L340.317 52.2927L341.184 52.8398L341.549 53.159L342.005 53.7518L341.913 54.0254L341.457 53.8886L340.728 53.843L339.679 54.1166L336.761 54.3902L336.168 54.4814L335.119 54.8462L333.432 55.9405L332.429 57.0349L332.064 57.3085L331.107 57.8101L330.24 58.4028L329.693 58.9044L329.511 59.4972L329.419 60.4092L329.283 63.5098L329.328 64.4674L328.781 68.8448V69.4376L328.872 69.6656L329.328 70.2584L329.602 70.7144L329.647 71.3527L329.511 72.1735L329.602 72.8119L330.012 73.8151L330.058 74.5902L329.511 76.7333L328.599 78.1013L328.188 78.5117L327.778 78.8309L327.231 78.9221L327.003 79.0133L326.82 79.2412L326 80.7916L325.726 81.2476L325.361 81.9771L325.224 82.9803L325.452 84.485L325.589 84.8498L326.912 87.3577L327.231 88.4521L327.413 88.9537L328.097 90.0024L328.143 90.504L328.051 91.2336L327.732 92.6471L327.641 93.8783L327.687 94.1975L327.55 94.7447L327.276 95.4742L326.045 98.0733L325.772 98.5749L321.029 103.636L317.336 104.001L315.421 106.509L314.828 107.147L314.326 107.33L312.138 107.512L310.177 107.923L305.799 108.242L305.298 108.424L305.344 108.971L305.708 109.746L307.988 113.166L309.311 114.626L309.584 115.401L309.767 117.863L310.587 118.729L311.043 119.185L311.362 119.55L311.454 120.28L310.861 122.286L309.63 125.66L307.669 126.8L305.024 127.667L304.021 127.849L301.422 127.667H300.966L297.318 129.354L296.133 128.852L294.172 127.849L292.439 128.168L292.257 127.256V126.709L292.348 126.162L292.85 125.341L294.674 123.38V123.152L295.859 107.74L295.996 93.7871L296.178 82.2051L296.361 65.8354L296.634 44.1306V43.7202L297.546 43.857L298.732 43.629L300.601 45.4529L301.741 45.9089L302.881 45.0425H303.565L304.796 46.2281L307.259 44.6322L308.946 45.0425L310.131 43.857L311.499 43.629L312.594 44.3586L313.05 46.0913L319.069 50.8791L319.753 51.1983L320.665 51.3351L321.668 51.1527L323.036 50.1951L323.72 49.9672L326.456 50.5143L326.82 50.2863L328.872 47.8696L335.484 45.3617L336.031 45.2249Z" fill="#009649" stroke="white" stroke-width="2" stroke-linejoin="round"></path>
<path class="region" data-country-region="East Region" d="M418.381 217.997L417.378 217.176L417.059 216.948L415.417 216.447L413.73 214.759L413.229 213.984L412.59 212.252L412.089 211.385L411.678 211.157L411.04 210.838L407.575 209.88L407.027 209.47L406.708 208.923L406.571 208.558L405.477 203.132L405.112 202.129L404.747 201.49L404.383 201.171L400.78 199.119L400.416 198.846L399.686 198.162L395.765 193.055L395.354 192.963L394.67 192.872L392.527 193.055L391.159 193.283H390.794L390.293 193.191L389.563 192.963L388.013 192.188L387.055 191.55L386.599 191.276L384.73 190.684L383.772 190.182L381.903 188.586L381.492 188.267L380.991 188.039H380.672L380.261 188.084L379.486 188.495L379.121 188.723L378.893 188.996L377.708 190.638L377.571 190.82L377.115 190.957L375.245 191.139L374.698 191.231L374.333 191.413L373.969 191.778L373.558 192.097L373.102 192.006L372.874 191.231L372.737 190.638L372.054 190.091L369.409 189.361L368.178 188.449L367.858 188.13L366.992 186.944L363.663 177.825L363.344 176.73L362.706 175.408L361.976 174.451L361.384 173.083L361.156 171.851L360.928 170.894L361.292 167.793L362.66 164.92L368.451 157.99L370.686 152.244L371.506 151.013L374.516 147.32L378.756 141.985L379.44 140.252L379.167 138.382L378.027 134.78L377.89 132.546L378.209 130.767L378.984 129.126L380.216 127.302L380.444 126.892L378.437 126.481L367.858 126.253L353.449 126.162L350.85 125.204L341.047 120.599L335.028 117.726L330.65 115.674L318.156 110.02L319.479 105.415L320.163 104.548L321.029 103.636L325.771 98.575L326.045 98.0734L327.276 95.4743L327.55 94.7448L327.686 94.1976L327.641 93.8784L327.732 92.6472L328.051 91.2337L328.142 90.5041L328.097 90.0026L327.413 88.9538L327.23 88.4522L326.911 87.3578L325.589 84.8499L325.452 84.4852L325.224 82.9804L325.361 81.9773L325.726 81.2477L325.999 80.7917L326.82 79.2414L327.002 79.0134L327.23 78.9222L327.778 78.831L328.188 78.5118L328.598 78.1014L329.51 76.7334L330.058 74.5903L330.012 73.8152L329.602 72.812L329.51 72.1736L329.647 71.3529L329.602 70.7145L329.328 70.2585L328.872 69.6657L328.781 69.4377V68.8449L329.328 64.4675L329.282 63.51L329.419 60.4093L329.51 59.4973L329.693 58.9045L330.24 58.4029L331.106 57.8102L332.064 57.3086L332.429 57.035L333.432 55.9406L335.119 54.8463L336.168 54.4815L336.76 54.3903L339.679 54.1167L340.728 53.8431L341.457 53.8887L341.913 54.0255L342.004 53.7519L341.548 53.1591L341.183 52.84L340.317 52.2928L339.952 51.9736L339.268 51.244L339.177 50.3777L339.451 48.3257L339.405 47.6418L339.132 47.1402L338.721 46.6842L338.22 46.2282L337.764 45.909L337.444 45.7722L336.304 45.453L336.031 45.2251L342.551 43.6291L346.063 41.8508L346.382 39.0693L345.47 35.467L345.379 31.0896L345.424 30.588L345.287 30.0864L346.017 29.5392L346.61 29.676H347.248L347.932 29.7216L349.938 32.0927L352.492 36.7894L354.316 41.8052L354.088 44.9971L352.629 43.1731L349.984 36.6982L351.671 44.8147L351.534 48.0977L348.616 50.56L350.166 50.2865L351.169 49.5569L352.173 48.6905L353.449 47.8697L352.993 48.3713L352.902 49.0097L353.085 49.7393L353.449 50.56L353.86 49.3745L354.27 47.049L354.817 45.7722L359.696 59.2237L365.761 73.5872L372.92 85.6251L391.98 110.704L393.485 111.89L399.868 119.687L403.79 123.608L406.161 122.286L407.073 122.833L409.718 123.335L410.265 124.11L410.356 125.98L410.675 127.576L411.405 128.989L412.682 130.311L417.333 137.242L418.837 138.337L424.583 146.134L428.915 150.238L431.468 149.463L432.061 151.059L432.608 155.162L433.52 157.032L435.07 158.218L441.773 160.543L444.144 160.771L446.515 160.725L448.704 160.908L450.665 161.911L453.127 165.696L454.906 166.79L456 170.62L455.225 170.666L453.72 169.845L452.17 169.572L451.486 170.666L451.03 174.587L450.391 175.864L449.069 176.092L447.199 175.773L445.467 175.226L444.509 174.77L443.415 173.584L442.138 171.122L441.135 169.982L440.314 170.347L439.357 169.982L435.207 166.425L429.416 164.1L427.547 164.328L425.723 165.924L424.583 167.52L424.4 168.432L425.586 170.62L426.27 173.402L426.726 173.949L427.364 174.177L427.82 174.451L427.683 175.271L426.179 176.138L420.844 176.867L418.974 177.551L418.153 178.965L417.88 180.88L418.381 217.997Z" fill="#009649" stroke="white" stroke-width="2" stroke-linejoin="round"></path>
<path class="region" data-country-region="East Region" d="M318.156 110.02L319.524 114.808L319.752 115.218L320.163 115.674L321.029 116.449L321.85 117.042L322.534 117.453L324.54 119.733L324.905 120.28L325.179 121.192L325.361 123.836L325.817 126.071L325.589 126.891L325.27 127.302L324.905 127.621L324.358 127.803L323.127 127.94L321.895 129.354L321.166 129.536L320.664 129.308L319.752 129.171L317.108 129.217L317.016 129.263L312.411 130.904L309.766 135.282L309.63 136.102L310.177 136.467L312.137 137.333L309.265 142.03L308.535 142.805L307.304 143.672L305.526 145.268L304.887 146.362L304.568 147L304.477 147.456L304.568 148.049L304.796 148.505L305.024 148.596H305.617L306.802 148.14L307.623 147.912L307.897 147.867L308.49 147.958L309.082 148.095L312.776 147.274L313.597 147.411L313.825 148.368L314.189 149.371L314.873 150.603L316.788 151.241L317.336 151.697L317.427 152.153L318.339 153.658L320.528 156.53L321.075 157.032L321.348 157.077L322.579 157.533L324.631 158.537L325.133 158.673L325.863 158.309L326.273 158.217L327.094 158.309L327.504 158.491L327.96 158.856L328.69 160.133L329.374 161.546L329.647 162.276L330.058 163.096L330.559 163.872L330.924 164.282L331.198 164.51L331.471 164.601L333.66 165.057H334.161L336.077 164.829L337.171 166.38L337.946 166.927L339.451 167.428L339.907 167.702L340.18 167.975L340.272 168.203L340.591 169.298L340.819 170.62L341.184 170.803L342.551 170.119L343.372 169.891L344.512 169.982L345.151 169.936L345.926 169.663L346.427 169.161L346.929 168.249L347.339 167.793L348.525 167.428L351.078 170.119L351.945 170.848L352.902 171.304L353.176 171.395L363.663 177.825L366.992 186.944L367.859 188.13L368.178 188.449L369.409 189.361L367.22 191.641L366.992 192.006L366.673 192.553L365.989 195.015L365.533 196.018L362.797 199.073L362.478 199.575L362.387 199.849L361.384 204.956L361.429 205.229L361.748 205.548L362.66 205.731L362.843 205.822L363.39 206.324L363.618 206.415L364.393 206.369L364.575 206.506L365.077 207.6L365.168 208.148L365.214 209.379L365.031 209.971L364.256 211.385L364.119 211.932L364.074 212.343L364.347 214.668L364.256 215.215L364.119 215.58L363.937 215.762L363.207 216.218L362.843 216.538L361.748 218.042L361.384 218.362L360.882 218.453L360.335 218.316L359.879 218.042L359.286 217.358L358.876 217.039L358.602 216.948L358.009 216.902L357.143 217.039L356.049 217.13L355.821 216.994L346.747 211.111L346.063 210.291L345.698 209.698L344.968 207.099L344.877 206.552L344.512 205.959L342.232 203.132L340.864 201.809L339.907 201.353L339.314 201.217H339.086L338.448 201.353L337.946 201.581L337.764 201.718L336.897 202.949L336.533 203.269L336.031 203.405L335.256 203.177L330.286 200.943L329.602 200.305L329.237 199.894L328.963 199.484L328.507 198.526L327.869 196.474L327.686 195.334V194.742L327.823 193.738L327.458 193.1L326.774 192.234L323.537 188.951L323.446 188.677L323.035 186.716L322.899 186.306L322.169 185.029L321.85 184.664L321.531 184.436L320.938 184.391L320.391 184.528L319.935 184.756L319.616 185.12L319.479 185.348L317.928 184.847L311.408 180.469L309.128 178.235L307.486 175.089L305.298 174.086L304.933 173.447L305.161 172.946L305.389 172.49L305.48 172.079V171.441L305.298 170.21L305.07 169.617L304.842 169.252L304.112 168.933L303.2 168.796L301.878 168.842L300.966 168.979L300.51 168.887L299.735 168.614L299.005 167.93L298.64 167.474L298.458 167.109V166.836L298.504 166.152L298.686 165.331V164.464L298.504 163.644L298.23 163.188L297.865 162.914L297.637 162.823L296.725 162.732L292.257 163.142L290.797 163.005L289.475 162.458L285.918 162.549L284.87 162.367L284.687 162.184L284.003 161.364L283.639 161.09L283.091 160.589L281.632 160.452L277.346 160.68L274.747 161.181H273.561L273.014 161.273L272.741 161.455V161.683L273.105 163.689L273.014 164.328L272.741 164.875L272.376 165.24L271.236 166.152L270.825 166.608L270.233 167.839L269.959 168.067L269.64 168.203L269.093 168.249L268.591 168.021L267.953 167.291L267.497 167.064L266.858 167.018L265.308 167.428H264.67L263.986 167.109L260.885 167.611L259.836 167.519L259.517 167.291L258.833 166.608L258.195 165.787L257.784 164.829L257.511 164.054L256.827 160.68L256.781 160.452L254.547 156.576L254.319 155.938L254.273 155.664L254.364 153.703L254.091 152.472L253.316 149.919V149.371L253.544 148.915L253.954 148.642L254.82 148.459L256.736 148.596L257.328 148.459L257.784 148.231L257.967 147.958L258.149 147.547L258.286 146.727L258.149 145.769L257.648 144.857L257.1 144.036L256.553 143.489L256.143 143.17L255.413 142.805L254.456 142.349L255.368 141.62H256.097L256.234 141.437L256.371 140.662L256.553 140.252L258.377 137.972L258.423 137.379L258.696 137.014L259.38 136.513L261.067 135.601L262.253 134.461L262.481 134.096L263.256 133.594L266.357 132.226L270.78 131.862L273.242 131.36L275.157 131.907L277.164 132.272L278.03 132.5L279.215 132.637L279.717 132.819L281.495 132.546L288.198 130.676L290.98 129.764L292.439 128.168L294.172 127.849L296.132 128.852L297.318 129.354L300.966 127.667H301.422L304.021 127.849L305.024 127.667L307.669 126.8L309.63 125.66L310.861 122.286L311.453 120.28L311.362 119.55L311.043 119.185L310.587 118.729L309.766 117.863L309.584 115.401L309.31 114.626L307.988 113.166L305.708 109.746L305.343 108.971L305.298 108.424L305.799 108.242L310.177 107.923L312.137 107.512L314.326 107.33L314.828 107.147L315.421 106.509L317.336 104.001L321.029 103.636L320.163 104.548L319.479 105.415L318.156 110.02Z" fill="#009649" stroke="white" stroke-width="2" stroke-linejoin="round"></path>
<path class="region" data-country-region="East Region" d="M2.79873 576.171L0.929199 576.262L2.25155 574.028L3.4371 573.071L4.85065 572.25L6.2186 571.976V572.979L6.1274 574.302L4.85065 575.715L2.79873 576.171ZM325.361 255.296L324.586 255.615L323.355 255.387L322.762 254.84L324.038 254.156L325.498 254.111L325.361 255.296ZM189.615 151.743L189.843 151.469L190.892 150.967L191.53 149.645L192.077 149.235L192.351 148.961L192.533 148.551L192.852 147.639L193.263 146.909L193.81 146.453L193.855 146.043L193.582 145.724L193.445 145.268L193.491 144.675L194.494 140.753L194.904 139.75L195.178 139.112L195.132 138.838L194.95 138.656L193.491 138.337L193.035 138.063L192.898 137.881L192.761 137.288L192.67 136.695L192.442 136.239L191.94 135.327L191.393 134.826L190.983 134.233L190.527 133.959L189.752 133.686L189.113 133.321L188.52 133.184H187.608L187.061 133.047L186.377 132.683L185.511 132.5H184.873L183.915 132.637L183.505 132.546L183.094 132.363L182.729 131.999L182.365 131.543L182.182 130.95L182.638 130.175L183.55 129.308L186.013 128.123L187.061 127.804L187.7 127.758L188.247 128.259L188.429 128.351L188.931 128.214L191.484 126.709L191.986 126.481L194.175 125.98L194.767 125.159L195.771 121.876L198.05 123.882L204.115 126.39L204.89 126.8L205.62 126.527L207.216 127.165L211.046 129.399L212.824 129.992L214.739 130.038L216.563 129.263L217.703 130.22L220.257 131.816L221.397 132.774V133.412L219.39 133.914L219.482 135.373L220.667 137.06L221.99 138.337L221.169 138.61L220.439 139.157L219.208 140.389L220.667 141.073L222.446 141.255L226.048 141.164V141.802L224.634 142.76L222.856 143.489L221.306 144.538L220.622 146.316L220.257 146.727L217.886 148.095L217.475 148.824L216.974 150.694L216.563 151.469L213.417 149.919L211.73 149.782L211.046 151.15L211.456 151.971L213.007 153.931L212.779 154.296L209.541 155.892L208.994 156.029L208.629 156.576L206.258 157.762L205.757 158.582L203.568 165.559L202.656 167.337L201.47 168.888H200.741L197.959 163.097L189.615 151.788V151.743ZM198.005 113.303L198.962 113.85L199.373 113.805L200.376 114.033L200.923 114.534L201.744 114.717H202.793V115.355L201.562 115.766L200.011 116.13L198.324 116.313L196.637 116.085L194.904 115.355L193.992 114.443L192.624 111.89L194.494 111.251L195.315 111.16L198.506 111.707L201.47 112.619V113.303H198.005ZM255.368 141.62L254.456 142.349L255.413 142.805L256.143 143.17L256.553 143.489L257.1 144.036L257.647 144.857L258.149 145.769L258.286 146.727L258.149 147.548L257.967 147.958L257.784 148.232L257.328 148.46L256.735 148.596L254.82 148.46L253.954 148.642L253.544 148.916L253.316 149.371V149.919L254.091 152.472L254.364 153.703L254.273 155.664L254.319 155.938L254.547 156.576L256.781 160.452L256.827 160.68L257.511 164.054L257.784 164.829L258.195 165.787L258.833 166.608L259.517 167.292L259.836 167.52L260.885 167.611L263.986 167.109L264.67 167.428H265.308L266.858 167.018L267.497 167.064L267.953 167.292L268.591 168.021L269.093 168.249L269.64 168.204L269.959 168.067L270.233 167.839L270.825 166.608L271.236 166.152L272.376 165.24L272.74 164.875L273.014 164.328L273.105 163.689L272.74 161.683V161.455L273.014 161.273L273.561 161.181H274.747L277.346 160.68L281.632 160.452L283.091 160.589L283.638 161.09L284.003 161.364L284.687 162.185L284.87 162.367L285.918 162.549L289.475 162.458L290.797 163.005L292.257 163.142L296.725 162.732L297.637 162.823L297.865 162.914L298.23 163.188L298.503 163.644L298.686 164.465V165.331L298.503 166.152L298.458 166.836V167.109L298.64 167.474L299.005 167.93L299.735 168.614L300.51 168.888L300.966 168.979L301.878 168.842L303.2 168.796L304.112 168.933L304.842 169.252L305.07 169.617L305.298 170.21L305.48 171.441V172.079L305.389 172.49L305.161 172.946L304.933 173.447L305.298 174.086L307.486 175.089L309.128 178.235L311.408 180.47L317.928 184.847L319.479 185.349L319.615 185.121L319.935 184.756L320.391 184.528L320.938 184.391L321.531 184.437L321.85 184.665L322.169 185.029L322.899 186.306L323.035 186.716L323.446 188.677L323.537 188.951L326.774 192.234L327.458 193.1L327.823 193.739L327.686 194.742V195.335L327.869 196.475L328.507 198.526L328.963 199.484L329.237 199.894L329.601 200.305L330.285 200.943L335.256 203.177L336.031 203.405L336.532 203.269L336.897 202.949L337.764 201.718L337.946 201.581L338.448 201.354L339.086 201.217H339.314L339.907 201.354L340.864 201.809L342.232 203.132L344.512 205.959L344.877 206.552L344.968 207.099L345.698 209.698L346.062 210.291L346.746 211.112L355.82 216.994L356.048 217.131L357.143 217.039L358.009 216.903L358.602 216.948L358.876 217.039L359.286 217.359L359.879 218.042L360.335 218.316L360.882 218.453L361.383 218.362L361.748 218.042L362.843 216.538L363.207 216.219L363.937 215.763L364.119 215.58L364.256 215.215L364.347 214.668L364.074 212.343L364.119 211.932L364.256 211.385L365.031 209.972L365.214 209.379L365.168 208.148L365.077 207.6L364.575 206.506L364.393 206.369L363.618 206.415L363.39 206.324L362.843 205.822L362.66 205.731L361.748 205.549L361.429 205.229L361.383 204.956L362.387 199.849L362.478 199.575L362.797 199.074L365.533 196.019L365.989 195.015L366.673 192.553L366.992 192.006L367.22 191.641L369.409 189.361L372.053 190.091L372.737 190.638L372.874 191.231L373.102 192.006L373.558 192.097L373.969 191.778L374.333 191.413L374.698 191.231L375.245 191.14L377.115 190.957L377.571 190.82L377.708 190.638L378.893 188.996L379.121 188.723L379.486 188.495L380.261 188.084L380.672 188.039H380.991L381.492 188.267L381.903 188.586L383.772 190.182L384.73 190.684L386.599 191.276L387.055 191.55L388.013 192.188L389.563 192.963L390.293 193.191L390.794 193.283H391.159L392.527 193.055L394.67 192.872L395.354 192.963L395.765 193.055L399.686 198.162L400.416 198.846L400.78 199.119L404.383 201.171L404.747 201.49L405.112 202.129L405.477 203.132L406.571 208.558L406.708 208.923L407.027 209.47L407.575 209.88L411.04 210.838L411.678 211.157L412.089 211.385L412.59 212.252L413.229 213.984L413.73 214.759L415.417 216.447L417.059 216.948L417.378 217.176L418.381 217.997V219.137L421.391 217.86H422.303L422.987 218.362L423.352 219.137L423.625 219.958L424.081 220.55L424.674 220.915L426.908 221.918L431.468 225.293L436.028 226.889L437.396 227.755L439.949 232.132L440.36 233.09L438.901 235.461L435.937 237.285L425.631 241.526L424.446 242.346L423.488 243.669L423.944 244.125L424.765 244.626L424.719 245.994L423.808 247.089L420.844 248.958L420.023 249.824L419.886 251.329L420.388 252.743L421.3 254.065L424.4 257.622L426.087 259.947L427.319 262.592L428.139 265.647L428.732 272.669L428.413 276.226L427.501 279.235L425.267 281.971L422.668 283.248L419.84 284.114L416.968 285.574L412.545 289.814L407.985 292.413L407.119 293.097L406.982 294.374L407.939 295.377L410.721 297.019L411.268 297.566L412.226 299.025L412.773 299.435L413.411 299.481L414.597 299.025L415.509 299.116L417.287 300.074L417.971 301.077L418.427 304.314L423.671 315.851L423.169 320.365L422.531 322.691L421.208 321.596L421.345 320.091L422.12 318.359L422.531 316.808L422.257 315.577L415.463 303.858L413.046 301.305L400.644 292.276L397.269 288.902L400.188 285.3L400.735 285.026L401.282 283.978L402.376 282.655L403.06 281.105L402.422 279.463L399.184 275.359L398.637 274.22L398.546 272.715L399.276 272.213L400.507 271.848L402.103 270.845L400.917 270.48L397.999 270.617L396.585 270.07L395.81 269.249L393.849 265.328L394.169 264.781L394.533 263.869H395.217L396.175 265.51L396.449 266.331L396.585 267.653L396.996 267.881L399.96 266.696V265.966L398.592 265.373L397.178 264.279L395.947 263.002L395.217 261.817H394.533L393.758 263.048L391.934 263.139L389.882 262.866L388.332 263.185L387.602 261.817L386.417 260.403L385.049 259.674L383.59 260.449L380.444 258.579L379.532 257.029L380.124 254.886L379.44 254.84L378.756 254.886L379.167 253.244L377.753 252.469L375.656 252.013L374.014 251.466L373.421 252.652L372.874 252.56L372.236 252.059L371.187 252.104L370.731 252.606L370.594 253.336L370.184 253.974L368.862 254.202L365.533 253.7L364.211 254.202L363.709 256.208L364.439 255.661L365.077 255.615L368.588 260.905L369.044 262.501L371.096 265.738L371.871 266.696L373.193 267.38L376.932 268.52L378.437 268.702L379.805 269.523L381.128 271.164L382.359 272.213L383.59 271.484L383.681 273.946L383.453 274.995L382.86 275.679V276.363L384.365 278.415L384.958 281.971L384.73 285.665L383.59 288.173L381.356 288.218L377.708 287.033L374.288 285.391L372.646 284.023H373.239L373.695 284.388L374.06 284.525L375.428 284.707L373.513 283.841L372.692 283.339L371.871 282.564V284.023L366.126 281.47L364.074 281.196L357.964 281.926H356.276L354.817 281.242L353.495 279.874L351.033 276.727L342.369 268.611L341.822 267.653L341.366 267.562L339.314 266.741L338.721 266.331L338.402 263.185L341.457 258.488L342.141 257.667L343.737 256.71L344.786 256.299L345.287 256.619L345.607 257.211L346.29 256.527L348.707 252.788L349.391 252.104L348.114 250.463L349.619 248.684L352.355 247.18L354.817 246.541V245.949L352.674 245.675L351.58 245.766L350.85 246.359L349.665 247.636L348.525 248.183L348.114 247.225L348.616 245.493L349.984 243.806L352.492 242.574L353.632 241.799L354.088 240.659L353.449 239.656L352.173 238.926L350.987 237.969L350.759 236.191L352.674 237.194L353.586 237.467L354.817 237.513L354.225 236.783L353.495 236.236L352.036 235.461L351.443 234.959L351.078 234.458L350.531 234.139L349.391 234.093L350.577 233.318L350.44 232.816L349.71 232.406L349.391 232.041L349.847 230.947L350.349 230.126L351.033 229.396L352.036 228.53L349.391 221.554L348.89 220.687L347.248 218.863L346.564 219.547L344.33 216.629L342.278 213.209L339.679 210.564L335.666 209.835L335.894 207.236L333.705 205.001L330.696 203.451L328.462 202.858L320.619 195.335L312.913 191.732L311.681 190.775L302.06 186.944H301.422L300.783 187.446H300.236L299.78 186.99L299.37 186.215L298.002 186.808L297.181 186.124L296.269 185.166L294.582 184.893L295.631 183.023L294.217 180.378L291.618 178.053L289.11 177.232V177.916L289.977 178.053L290.569 178.326L291.892 179.284L289.293 178.828L285.189 176.366L282.544 175.818L280.036 175.636L266.676 171.897L264.122 171.669L262.891 171.897L261.614 172.307L260.292 172.581L258.97 172.353L257.784 171.395L257.374 170.164L256.918 169.207L255.55 168.888L255.96 169.617L256.188 170.347L254.501 169.024L250.808 166.608L250.078 165.103L249.759 163.689L248.847 163.051L247.753 162.595L246.658 161.911L246.339 160.908L246.476 159.813L246.202 159.13L244.652 159.221L245.017 158.081L244.926 156.941L244.652 155.938V155.026L245.245 153.886L246.932 152.153L247.616 150.42L248.345 149.554L249.029 148.46L249.349 147L249.029 145.815L248.254 144.766L246.658 143.17L242.646 137.151L241.506 136.239L239.864 135.555L240.092 134.005L241.506 131.679L239.043 129.673L238.587 128.67L239.135 127.165L236.262 126.299L227.416 127.165V126.436L228.647 125.934L230.197 125.752L233.663 125.797V125.113L230.471 124.931L227.644 124.429L225.045 123.563L222.674 122.286L219.664 119.733L219.208 119.231L218.57 119.049L217.293 118.182L216.427 117.225L216.883 116.769L215.195 115.902L211.137 112.072L208.948 110.978L207.9 110.02L207.261 109.792L206.76 110.02L206.349 110.385L205.757 110.476L204.89 109.792L205.483 108.698L205.665 108.014L207.672 107.421H208.493L209.131 107.467L210.59 107.284L211.046 107.467L211.639 107.923L212.14 108.105L212.551 108.059L213.052 107.877L213.463 107.831L214.101 107.923L214.557 108.105L215.515 108.607L216.427 109.382L217.658 110.932L218.023 111.297L218.798 111.935L219.755 112.391L220.257 112.574L220.485 112.528L220.667 112.391L220.622 111.981L220.211 110.887L220.12 110.339L220.211 109.382L220.485 108.926L220.941 108.379L222.765 106.783L223.175 106.464L225.09 105.643L225.501 105.05L225.546 104.275L225.455 103.91L225.318 103.636L224.862 103.044L224.68 102.588L224.817 101.949L225.409 100.673L225.501 100.353L225.729 98.3926L226.185 97.0703L226.23 96.7967L226.139 96.2495L226.002 96.0671L225.273 95.3831L224.999 94.9728L224.953 94.38L224.999 94.1064L225.455 93.3312L225.911 92.8752L226.504 92.4649L227.416 92.0089L227.781 91.6897L228.647 90.7777L229.24 90.3673L230.015 90.1393H230.744H231.246L231.839 90.3217L232.249 90.5497L233.8 91.8265L236.079 95.3831L236.718 96.1583L237.539 96.7511L238.086 96.7967L238.907 96.7511L240.822 96.3863L242.19 96.0215L242.828 95.6111L243.33 95.4287L244.105 95.5199L245.883 96.7055L246.43 98.2558L246.841 98.8486L247.57 99.487L247.616 99.8518L247.525 100.399L246.476 102.314L246.157 103.089L245.564 105.324L245.655 106.144L246.202 107.147L246.339 108.105L245.974 110.659L246.43 112.255L247.525 114.58L248.117 115.492L249.759 117.498L250.58 118.821L252.221 120.781L252.814 121.785L253.133 122.469L253.68 122.56L254.41 122.332L255.231 121.739L255.459 121.602L256.188 121.967L257.465 124.064L257.374 124.794L257.283 125.022L256.963 125.341L256.462 125.615L254.912 126.208L249.987 129.445L248.893 129.764L248.117 130.539L246.248 133.458L245.564 133.777L245.199 134.142L245.153 134.415L245.199 135.008L245.017 135.555L245.381 135.92L246.065 136.422L248.163 137.242L249.805 137.698L251.081 137.79L252.312 138.018L253.179 138.701L255.368 141.62Z" fill="#009649" stroke="white" stroke-width="2" stroke-linejoin="round"></path>
<path class="region" data-country-region="West Region" d="M296.634 43.7203V44.1307L296.361 65.8355L296.178 82.2052L295.996 93.7872L295.859 107.74L294.674 123.152V123.38L292.85 125.341L292.348 126.162L292.257 126.709V127.256L292.439 128.168L290.98 129.764L288.199 130.676L281.496 132.546L279.717 132.819L279.216 132.637L278.03 132.5L277.164 132.272L275.157 131.907L273.242 131.36L270.78 131.862L266.357 132.227L263.256 133.594L262.481 134.096L262.253 134.461L261.068 135.601L259.38 136.513L258.696 137.014L258.423 137.379L258.377 137.972L256.553 140.252L256.371 140.662L256.234 141.437L256.097 141.62H255.368L253.179 138.701L252.313 138.018L251.082 137.79L249.805 137.698L248.163 137.242L246.066 136.422L245.382 135.92L245.017 135.555L245.199 135.008L245.154 134.415L245.199 134.142L245.564 133.777L246.248 133.458L248.118 130.539L248.893 129.764L249.987 129.445L254.912 126.208L256.462 125.615L256.964 125.341L257.283 125.022L257.374 124.794L257.465 124.064L256.189 121.967L255.459 121.602L255.231 121.739L254.41 122.332L253.681 122.56L253.133 122.469L252.814 121.785L252.222 120.781L250.58 118.821L249.759 117.498L248.118 115.492L247.525 114.58L246.431 112.254L245.975 110.659L246.339 108.105L246.203 107.147L245.655 106.144L245.564 105.324L246.157 103.089L246.476 102.314L247.525 100.399L247.616 99.8518L247.571 99.487L246.841 98.8486L246.431 98.2558L245.883 96.7055L244.105 95.5199L243.33 95.4287L242.828 95.6111L242.19 96.0215L240.822 96.3863L238.907 96.7511L238.086 96.7967L237.539 96.7511L236.718 96.1583L236.08 95.3831L233.8 91.8265L235.441 88.7714L235.578 87.7226L235.213 87.0843L234.94 86.4003L234.529 84.5308L236.08 78.9222L233.891 74.5447L233.161 73.4048L227.462 68.9817L225.638 68.0698L220.166 66.6106L218.752 66.0635L217.704 64.8779L215.013 62.4612L214.694 62.0964L214.147 61.23L213.828 60.5005L213.372 57.7646L212.232 55.7126L210.818 53.4783L210.226 52.7944L209.587 52.384L208.219 51.7912L207.125 51.472L201.79 50.1953L200.24 49.6937L199.647 49.2377L198.872 48.5081L195.908 46.5018L195.133 46.0914L194.585 45.8634L193.947 45.8178H193.263L192.032 45.9546L189.843 46.5018L187.244 46.7754L184.28 46.6386L181.818 41.7596L180.906 40.4372L180.267 39.9357L179.766 39.7533L177.486 39.4797L176.893 39.2517L174.476 37.8381L173.337 36.9718L168.777 31.6824L168.458 31.0896V30.588L168.822 30.132L172.242 29.8584L173.154 29.4937L173.428 28.9921L173.656 28.5817L181.499 23.2011L186.241 17.7749L186.651 17.5013L187.29 17.3645L187.882 17.1821L188.658 16.9997L188.886 16.7717L203.249 22.1067L219.345 28.1257L221.671 28.3537L223.996 27.5329L241.688 15.7686L244.835 15.039L246.613 15.8142L250.398 18.5501L252.13 18.8237L254.319 18.6869L256.599 19.4164L261.569 21.6507L262.116 21.7875L262.664 21.9699L263.12 22.2435L263.53 22.5627L265.81 25.3898L266.676 26.1194L267.588 26.621L268.637 27.0769L269.731 27.1681L270.689 26.7578L276.069 23.2467L276.89 22.7451L277.848 23.2011L278.076 23.9763V25.025L278.258 26.2562L278.714 27.0313L280.036 28.6729L280.31 29.4025L281.359 30.4056L286.01 32.1839L287.059 32.9135L287.971 33.9167L289.886 34.8742L291.618 36.3334L291.983 38.7957L290.57 39.5253L290.159 39.7989L289.703 40.574L289.931 41.1668L290.296 41.5772L290.524 41.942L292.758 43.7203L293.26 44.4043L294.4 43.5835L295.95 43.6291L296.634 43.7203Z" fill="#009649" stroke="white" stroke-width="2" stroke-linejoin="round"></path>
<path class="region" data-country-region="West Region" d="M188.886 16.7717L188.658 16.9997L187.882 17.1821L187.29 17.3645L186.651 17.5013L186.241 17.7749L181.499 23.2011L173.656 28.5817L173.428 28.9921L173.154 29.4937L172.242 29.8584L168.822 30.132L168.458 30.588V31.0896L168.777 31.6824L173.337 36.9718L174.477 37.8381L176.893 39.2517L177.486 39.4797L179.766 39.7533L180.268 39.9357L180.906 40.4372L181.818 41.7596L184.28 46.6386L187.244 46.7754L189.843 46.5018L192.032 45.9546L193.263 45.8178H193.947L194.585 45.8634L195.133 46.0914L195.908 46.5018L198.872 48.5081L199.647 49.2377L200.24 49.6937L201.79 50.1953L207.125 51.472L208.219 51.7912L209.587 52.384L210.226 52.7944L210.818 53.4783L212.232 55.7127L213.372 57.7646L213.828 60.5005L214.147 61.23L214.694 62.0964L215.013 62.4612L217.704 64.8779L218.752 66.0635L220.166 66.6106L225.638 68.0698L227.462 68.9818L233.162 73.4048L233.891 74.5447L236.08 78.9222L234.529 84.5308L234.94 86.4003L235.213 87.0843L235.578 87.7226L235.441 88.7714L233.8 91.8265L232.25 90.5497L231.839 90.3217L231.246 90.1393H230.745H230.015L229.24 90.3673L228.647 90.7777L227.781 91.6897L227.416 92.0089L226.504 92.4649L225.911 92.8752L225.455 93.3312L224.999 94.1064L224.954 94.38L224.999 94.9728L225.273 95.3831L226.003 96.0671L226.139 96.2495L226.231 96.7967L226.185 97.0703L225.729 98.3926L225.501 100.353L225.41 100.673L224.817 101.949L224.68 102.588L224.863 103.044L225.319 103.636L225.455 103.91L225.547 104.275L225.501 105.05L225.091 105.643L223.175 106.464L222.765 106.783L220.941 108.379L220.485 108.926L220.212 109.382L220.12 110.339L220.212 110.887L220.622 111.981L220.668 112.391L220.485 112.528L220.257 112.574L219.756 112.391L218.798 111.935L218.023 111.297L217.658 110.932L216.427 109.382L215.515 108.607L214.557 108.105L214.101 107.923L213.463 107.831L213.053 107.877L212.551 108.059L212.141 108.105L211.639 107.923L211.046 107.467L210.59 107.284L209.131 107.467L208.493 107.421H207.672L205.666 108.014L205.21 107.695L204.845 107.512L203.523 106.327L201.744 106.92L194.95 107.011L193.172 106.555L191.576 105.415L189.068 102.816V102.177L189.661 100.308L187.882 98.1646L183.596 95.1552L184.235 97.2071L187.107 99.3502L187.791 101.813L188.019 106.555L188.658 109.291L189.798 111.16L188.521 112.027L188.703 113.44L189.889 114.762L192.944 115.811L194.038 116.997L195.315 119.55H195.953L196.774 119.231L197.093 119.505L197.276 120.189L196.409 120.234L195.497 120.143L194.631 119.869L193.901 119.55V120.189L195.771 121.876L194.768 125.159L194.175 125.98L191.986 126.481L191.485 126.709L188.931 128.214L188.43 128.351L188.247 128.259L187.7 127.758L187.062 127.804L186.013 128.123L183.551 129.308L182.639 130.175L182.183 130.95L182.365 131.543L182.73 131.999L183.095 132.363L183.505 132.546L183.915 132.637L184.873 132.5H185.511L186.378 132.683L187.062 133.047L187.609 133.184H188.521L189.114 133.321L189.752 133.686L190.527 133.959L190.983 134.233L191.394 134.826L191.941 135.327L192.442 136.239L192.67 136.695L192.761 137.288L192.898 137.881L193.035 138.063L193.491 138.337L194.95 138.656L195.133 138.838L195.178 139.112L194.905 139.75L194.494 140.753L193.491 144.675L193.445 145.268L193.582 145.724L193.856 146.043L193.81 146.453L193.263 146.909L192.853 147.639L192.533 148.551L192.351 148.961L192.077 149.235L191.53 149.645L190.892 150.967L189.843 151.469L189.615 151.743L189.068 150.466L188.658 150.01L187.746 149.417L185.238 148.368L185.01 147.548L185.055 146.636L184.964 145.952L182.593 143.307L179.31 141.437L168.549 137.562L167.591 137.79L166.178 138.793L165.494 139.021L164.536 138.793L163.214 137.79L162.074 137.562L161.435 137.516L161.207 137.334L161.116 137.06L160.751 136.604L160.022 136.285L159.475 136.422L159.064 136.741L159.019 136.923L153.365 135.099L150.629 134.689L149.99 134.278L149.489 133.822L148.714 133.412L147.574 133.458L146.844 133.914L146.206 133.959L145.294 132.774L146.023 130.904L144.974 128.351L134.715 115.72L134.122 114.58L133.301 111.89L132.07 109.975L128.194 100.353L127.83 97.4807L127.419 95.7479L126.826 94.4712L128.194 93.1032L128.741 92.1457L128.559 91.3249L126.416 88.589L125.094 87.7682L125.823 86.7651L127.556 85.3971L128.741 83.6644L129.562 81.9773L131.249 82.6612L132.161 81.6125L132.891 80.0165L135.034 78.4206L134.213 76.5967L132.709 74.6815L131.66 73.5872L132.526 73.04L133.028 72.9032V72.2192H131.66V71.5353L132.8 71.3073L133.529 70.5777L134.396 68.6626H135.08L136.448 69.8025L138.408 68.9818L140.415 67.8874L141.919 68.0698H142.558L142.421 66.7018L142.786 66.0635L143.333 65.7443L143.88 65.2883L144.792 63.6924L145.157 63.7836L146.388 63.8748L149.397 60.7285L149.17 59.9077L148.622 59.2237L147.346 58.3574L143.242 62.5068L143.151 62.142V61.8684L143.059 61.686L142.558 61.7316V61.0933L143.698 59.8621L144.427 59.3149L145.294 59.0413L144.61 58.3574L144.199 58.8589L143.88 59.0413L144.108 58.175L144.154 57.9014L145.294 57.5822V56.9438H144.61V56.1686L146.297 54.8463L146.616 51.3808L146.023 44.6779L144.518 42.8995L141.235 41.4404L137.907 40.8932L136.402 41.942H135.809L133.073 39.6165L132.253 38.7501L132.754 38.9325L133.347 38.6589L133.575 38.0661L133.028 37.3822L132.298 37.1998L130.337 37.3822H129.562L126.598 36.2422L124.273 34.9198L121.719 33.7343L117.935 33.2783V32.5031L120.215 31.956L124.455 29.9952L126.826 29.7216L126.416 29.0833L126.142 28.7185L125.686 28.4905L124.774 28.3537V27.6697L129.699 27.3505L130.976 27.6697L131.477 28.4449L131.341 29.3569L131.113 30.0864L131.295 30.4056L131.705 30.6336L133.028 31.8192H133.62L134.396 31.044V30.4056L133.256 29.3113L134.35 28.5817L136.448 28.2625L138.454 28.3537L139.138 28.6729L140.05 29.5393L140.871 29.7216L141.509 29.4937L141.783 28.9009L141.691 28.2169L141.19 27.6697V26.8946L142.695 26.3474L143.105 25.2074L142.74 23.8851L141.919 22.6995L141.235 22.1979L139.548 21.4684L138.819 20.9668L137.952 20.1004V19.8268L138.454 19.7356L139.138 19.234L140.688 17.8205L141.555 18.3221L142.603 19.2796L144.61 19.234L145.795 18.1397L145.567 16.6349L144.473 15.2214L143.242 14.3094L142.375 13.9446L144.792 10.0232L146.616 6.01055L149.443 2.22589L152.772 0.812347L155.644 2.31709L158.472 4.82499L161.709 6.64893L171.786 10.4336L188.886 16.7717Z" fill="#009649" stroke="white" stroke-width="2" stroke-linejoin="round"></path>
</svg>