<svg width="952" height="586" viewBox="0 0 952 586" fill="none" xmlns="http://www.w3.org/2000/svg">
<path class="region" data-country-region="West Region" d="M340.171 213.924L335.503 217.352L332.646 224.304L325.406 219.923L320.453 213.734L321.786 209.639L320.167 204.401L323.977 200.307L329.502 201.069L336.646 202.687L341.314 209.639L340.171 213.924Z" fill="#009649" stroke="white" stroke-width="2" stroke-linejoin="round"></path>
<path class="region" data-country-region="East Region" d="M401.802 245.158L400.85 252.49L399.897 257.728L397.992 263.06L394.372 266.107L389.609 265.346L387.895 263.155L386.752 260.108L382.751 255.156L388.657 248.776L386.18 241.825L385.323 234.969L388.943 233.35L392.753 237.349L397.42 240.206L401.802 245.158Z" fill="#009649" stroke="white" stroke-width="2" stroke-linejoin="round"></path>
<path class="region" data-country-region="East Region" d="M762.73 188.118L764.826 189.737L766.636 183.357L773.78 182.309L776.257 191.832L779.4 201.259L783.306 206.592L789.688 202.878L794.355 197.069L799.309 195.546L804.643 202.307L809.215 210.782L808.834 223.923L805.977 231.826L796.451 242.873L790.736 237.064L785.401 238.111L777.685 248.11H769.112L767.398 239.73L763.778 237.064L759.396 235.159L756.539 225.161H747.013L746.632 214.686L749.775 202.592L755.681 185.452L761.682 179.167L764.54 177.072L762.73 188.118Z" fill="#009649" stroke="white" stroke-width="2" stroke-linejoin="round"></path>
<path class="region" data-country-region="West Region" d="M232.722 440.465L236.533 443.513L245.677 442.37V443.513L249.869 455.13L251.107 466.081L246.535 469.7L243.582 476.365L241.867 481.222L237.295 478.27L231.865 482.46L230.627 470.366L226.816 459.415L230.15 455.13L231.008 449.607L231.103 444.179L232.722 440.465Z" fill="#009649" stroke="white" stroke-width="2" stroke-linejoin="round"></path>
<path class="region" data-country-region="East Region" d="M498.679 326.29L505.061 332.765L515.825 339.431L520.302 339.241L522.779 339.907L522.588 345.526L518.207 348.763H513.253L509.062 355.143V364.475L504.68 372.855L499.155 368.475L495.916 356.762L491.249 348.287L488.486 340.669L486.01 334.194L486.772 329.337L488.772 325.719L495.916 329.337L498.679 326.29Z" fill="#009649" stroke="white" stroke-width="2" stroke-linejoin="round"></path>
<path class="region" data-country-region="West Region" d="M110.224 371.903L101.174 373.617V365.523L96.221 362.095L95.6494 349.335L106.128 347.525L113.177 353.906L115.463 369.808L110.224 371.903Z" fill="#009649" stroke="white" stroke-width="2" stroke-linejoin="round"></path>
<path class="region" data-country-region="West Region" d="M137.372 446.75L134.038 447.607L135.276 453.606L129.846 456.273L122.607 455.225L116.987 451.226L116.51 441.703L116.32 433.799L116.225 427.8L120.225 427.134L121.178 418.944L126.989 418.563L128.417 427.419L132.228 431.133L133.371 438.656L137.372 446.75Z" fill="#009649" stroke="white" stroke-width="2" stroke-linejoin="round"></path>
<path class="region" data-country-region="East Region" d="M400.852 252.49L401.804 245.158L404.471 239.064L404.376 236.397L399.423 222.304L398.185 210.02L406.662 208.782L410.473 206.973L413.711 203.64L420.475 203.164L426.571 207.068L429.714 211.067L434.954 214.686L435.43 217.162L438.478 216.686L449.147 224.875L451.909 226.018L453.814 228.303L450.671 236.302L444.003 241.444L441.336 244.872L428 254.395L423.904 253.824L416.855 249.538L400.852 252.49Z" fill="#009649" stroke="white" stroke-width="2" stroke-linejoin="round"></path>
<path class="region" data-country-region="East Region" d="M617.083 109.462L617.559 104.7L616.797 99.7486L614.416 97.2727L618.988 91.7496L626.418 91.1783L633.182 85.3695L647.851 74.2281L653.852 78.5133H658.806L664.14 81.6557L668.045 87.5597L670.903 95.4634V101.844L674.047 107.747L674.713 112.509L670.141 117.841L663.092 119.936L657.377 120.508L649.947 115.651L642.517 110.414L637.849 104.034L629.371 104.51L622.322 106.129L617.083 109.462Z" fill="#009649" stroke="white" stroke-width="2" stroke-linejoin="round"></path>
<path class="region" data-country-region="East Region" d="M799.975 116.127V122.508L807.405 123.079L810.929 120.413L813.787 123.555L814.168 130.983L813.787 138.982L809.215 140.029L808.834 147.457L805.69 154.313L797.879 155.932L793.212 152.694L783.686 150.123L775.208 147.457L776.256 134.696L777.304 124.126L778.542 119.651L781.019 114.89L788.163 114.413L790.64 117.08L795.974 113.366L799.975 116.127Z" fill="#009649" stroke="white" stroke-width="2" stroke-linejoin="round"></path>
<path class="region" data-country-region="East Region" d="M607.271 127.555L608.224 131.84L610.891 134.792L612.796 138.03L613.368 142.124L610.986 146.029L606.128 147.267L602.985 150.599V156.599L599.937 160.503H593.745L590.601 152.599V143.934L592.411 135.363L590.601 127.46L589.744 120.794L593.269 118.794L595.46 111.462L602.127 112.795L603.461 116.794V122.794L607.271 127.555Z" fill="#009649" stroke="white" stroke-width="2" stroke-linejoin="round"></path>
<path class="region" data-country-region="East Region" d="M534.875 94.9874L529.255 100.987L522.492 105.748L518.586 112.604L507.632 110.509L509.727 102.034L510.775 93.4638L515.443 87.6551L516.777 89.6548L518.11 89.8453L523.159 87.8455L526.588 88.9882L531.922 93.8447L534.875 94.9874Z" fill="#009649" stroke="white" stroke-width="2" stroke-linejoin="round"></path>
<path class="region" data-country-region="West Region" d="M334.934 266.203L337.696 271.821H341.507L346.746 275.916L345.317 283.248V288.486L348.651 292.961V298.675L346.174 304.293L341.221 312.387L336.553 310.006L327.98 315.244L326.361 309.149L324.742 301.436L320.55 294.199L313.978 286.676L320.836 278.773L328.552 271.059L332.172 265.346L334.934 266.203Z" fill="#009649" stroke="white" stroke-width="2" stroke-linejoin="round"></path>
<path class="region" data-country-region="West Region" d="M268.445 303.912L268.826 316.767L263.11 314.768L260.443 323.719L257.395 326.671L251.013 325.147L243.297 308.864L245.964 302.484L246.345 297.056L243.678 293.628L243.964 290.104L252.06 289.628L253.68 283.248L258.347 281.725L262.443 286.2L266.825 295.056L268.445 303.912Z" fill="#009649" stroke="white" stroke-width="2" stroke-linejoin="round"></path>
<path class="region" data-country-region="East Region" d="M850.082 208.306L847.034 204.402L844.176 192.308L841.795 188.689L835.317 195.927L831.602 192.308L832.46 186.88L828.363 179.643L818.647 174.12L813.789 174.406L810.455 180.31L808.741 184.595L806.169 187.261L803.216 185.547L800.644 182.405L797.786 181.167H794.833L788.927 178.976L786.26 176.405L779.402 174.882L777.02 171.739L763.97 161.36L764.542 149.552L766.256 138.41L764.827 134.03L760.446 132.506L755.016 135.744L732.345 137.458L726.058 139.934L714.437 130.697L704.244 129.269L705.101 123.841L706.054 121.27L707.578 119.651L713.675 115.556H718.152L719.485 114.985L720.533 112.223L721.486 111.271L723.772 111.081L725.201 112.319L726.439 114.033L728.154 115.556L730.154 116.032L740.632 115.366L745.3 113.937L748.92 110.414L750.348 103.844L749.872 100.987L748.062 97.4635L748.348 93.7497L749.301 90.8929L750.92 87.8457L752.92 85.2746L755.016 83.8462L757.588 83.3701L766.637 83.8462L771.781 83.0844L774.163 83.1797L779.687 85.846L782.355 86.3221L785.022 85.846L795.69 79.1802L799.596 78.6088L802.263 76.5139L804.835 73.8476L806.836 72.2287L815.694 71.6574L818.457 70.6099L820.457 68.9911L824.458 64.325L829.221 57.2783L829.983 56.3261L831.602 56.2309L834.365 57.6592L835.698 57.9449L839.509 55.4691L842.461 50.7078L847.701 39.5664L850.654 36.3287L852.178 34.8051L856.75 32.9958L861.513 33.5672L866.561 36.1383L864.466 42.5184V45.8513L869.229 45.7561L870.276 47.5653L869.991 52.0409L870.086 54.9929L871.61 59.2781L878.469 69.9433L879.421 70.8956L881.517 70.8003L883.136 69.6576H884.374L887.042 70.8003L889.328 71.2765L891.519 71.086L894.186 69.7529L895.9 70.0385L906.379 83.8462L908.189 88.1314L910.189 94.7972L912.57 99.8441L913.618 100.701L915.523 99.6536H925.621L928.192 98.7966L930.574 97.273L932.955 96.6064L935.241 98.13L935.718 99.0823L940.766 101.939L944.862 105.843L946.767 108.224L948.196 111.081L949.149 115.08L948.673 117.27L947.72 119.175L947.53 122.508L945.148 125.46L946.291 128.031L951.435 132.221L949.149 134.887L945.624 141.458L943.338 143.553L937.718 145.648L935.432 147.266L933.908 150.123L934.003 151.932L934.956 154.789L933.813 157.075L932.955 157.646L929.907 158.027L927.049 159.265L925.335 160.693L921.905 165.264L917.809 168.883L912.666 171.073L907.331 171.835L902.473 171.073L892.09 165.55L887.804 166.502L885.517 174.786L883.898 176.31L882.088 177.072L880.088 177.262L873.61 176.31L871.801 176.501L869.324 177.358L866.752 178.786L865.133 180.5L862.084 185.166L858.56 187.928L857.036 190.784L856.178 196.403L852.654 201.354L851.892 205.925L851.13 207.449L850.082 208.306ZM799.977 116.128L795.976 113.366L790.642 117.08L788.165 114.414L781.021 114.89L778.544 119.651L777.306 124.127L776.258 134.697L775.21 147.457L783.688 150.123L793.214 152.694L797.881 155.932L805.692 154.313L808.836 147.457L809.217 140.029L813.789 138.982L814.17 130.983L813.789 123.555L810.932 120.413L807.407 123.079L799.977 122.508V116.128Z" fill="#009649" stroke="white" stroke-width="2" stroke-linejoin="round"></path>
<path class="region" data-country-region="East Region" d="M850.653 36.3286L847.7 39.5663L842.461 50.7077L839.508 55.4689L835.698 57.9448L834.364 57.6591L831.602 56.2307L829.982 56.326L829.22 57.2782L824.458 64.3249L820.457 68.991L818.456 70.6098L815.694 71.6573L806.835 72.2286L804.835 73.8475L802.263 76.5138L799.596 78.6087L795.69 79.1801L785.021 85.8459L782.354 86.322L779.687 85.8459L774.162 83.1795L771.781 83.0843L766.637 83.8461L757.587 83.37L755.015 83.8461L752.92 85.2745L750.919 87.8456L749.3 90.8928L748.348 93.7496L748.062 97.4634L749.872 100.987L750.348 103.843L748.919 110.414L745.299 113.937L740.632 115.366L730.154 116.032L728.153 115.556L726.439 114.033L725.2 112.319L723.771 111.081L721.485 111.271L720.533 112.223L719.485 114.985L718.151 115.556H713.674L707.578 119.651L706.054 121.27L705.101 123.841L704.244 129.269L703.196 134.03L702.053 135.839L697.481 141.267L696.242 143.933L696.528 151.456L696.052 154.694L695.194 156.313L692.337 159.455L693.099 165.835V167.073L685.383 168.502L685.288 170.12L681.954 176.786L680.239 179.929L673.19 187.07L662.998 188.023L659.092 188.499L656.615 189.546L652.043 188.785L648.9 186.69L633.468 183.547L630.61 178.691L628.705 172.215L622.228 164.597L613.274 148.599L612.131 147.838L610.988 146.028L613.369 142.124L612.797 138.029L610.892 134.792L608.225 131.84L607.273 127.555L608.987 124.412L615.274 117.937L617.084 109.462L622.323 106.129L629.372 104.51L637.85 104.034L642.518 110.414L649.948 115.651L657.378 120.508L663.093 119.937L670.142 117.842L674.714 112.509L674.047 107.748L670.904 101.844V95.4636L668.046 87.5599L664.141 81.6559L658.806 78.5135H653.853L647.852 74.2284L633.182 85.3697L626.419 91.1785L618.989 91.7498L614.417 97.2729L606.796 89.274L597.842 101.082L593.079 97.6538L588.031 97.9395L584.03 101.558H579.077L576.79 99.6535L574.981 96.6063L572.98 95.9398L570.694 96.2254L568.027 92.8925L564.693 89.9406L561.549 91.3689L558.882 88.6074L554.977 85.7506L553.548 83.8461L559.073 80.418L561.74 79.3705L562.883 78.4183L563.931 76.5138L565.264 71.2764L566.979 69.1814L572.123 69.7528L574.504 68.7053L578.696 64.801L580.22 64.0392L583.077 65.4676L584.602 67.2769L586.316 67.9435L589.555 66.3246L593.651 62.1347L597.08 56.8021L600.033 50.7077L605.463 33.948L607.082 30.6151L609.178 27.8536L613.75 22.9971L615.655 20.1403L615.846 18.7119L615.465 13.4745L615.655 10.1416L619.751 8.52281L628.42 7.95146L658.044 1H660.331L662.521 2.14271L666.617 5.95172L668.713 6.52308L673.095 6.9992L680.715 11.6652L685.669 12.1414L689.193 11.8557L693.384 12.6175L697.29 14.3316L700.052 17.1883L703.672 17.9501L714.436 12.808L719.104 11.6652L721.676 12.808L723.39 14.3316L725.01 14.9981L727.105 13.8554L728.725 11.4748L729.487 9.18939L730.63 7.18965L733.392 5.57082L735.774 5.09469L740.536 4.99947L747.776 2.71406L749.872 3.28541L754.539 6.14217L757.111 7.09443L758.254 8.23713L759.207 10.0464L760.445 14.1411L761.398 15.6647L763.684 16.7122L768.828 16.617L771.209 17.1883L772.447 19.569L774.257 28.3297L775.4 30.5199L783.307 42.7087L786.545 46.5178L790.26 49.2793L794.642 50.8029L798.929 50.422L806.168 46.7082L812.265 45.8512L816.456 43.3753L818.552 42.5183L825.886 42.1374L828.458 41.2804L830.935 41.0899L839.318 41.9469L841.985 41.1851L844.366 39.1854L847.033 35.8525L850.653 36.3286Z" fill="#009649" stroke="white" stroke-width="2" stroke-linejoin="round"></path>
<path class="region" data-country-region="West Region" d="M88.0287 184.404L84.0279 189.832L84.5042 194.784L83.4564 196.593L75.6454 194.688L70.4063 194.784L65.7387 198.402L58.9755 195.641L55.1652 196.498L47.2589 193.26L44.7822 191.832L48.1162 186.785L49.164 185.737L51.2597 187.546L53.9269 185.452L59.4517 182.5L60.6901 181.357L61.4521 179.548L61.1664 176.786L62.0237 174.786L67.1675 172.501L73.0734 173.167L84.3137 177.643L86.0283 178.881L87.3619 182.88L88.0287 184.404Z" fill="#009649" stroke="white" stroke-width="2" stroke-linejoin="round"></path>
<path class="region" data-country-region="East Region" d="M515.444 87.655L510.777 93.4637L509.729 102.034L507.633 110.509L518.588 112.604L522.493 105.748L529.256 100.987L534.877 94.9874L538.115 93.7494L544.498 87.7502L547.736 85.7505L553.547 83.846L554.976 85.7505L558.881 88.6073L561.548 91.3688L560.12 92.321L559.072 93.8446L555.071 95.6539L552.023 98.8916L547.927 99.9391L546.022 101.272L545.355 104.034L546.307 105.272L548.022 106.034L551.07 111.747L552.023 118.603L547.831 119.175L544.402 122.222L542.592 127.459L542.116 132.316L538.496 136.03L534.591 138.505L532.781 136.601L530.4 136.696L528.399 139.839L526.875 143.552L523.446 146.123L518.874 143.552L514.968 146.314L507.824 158.503L502.585 160.217L489.439 176.024L480.771 177.643L472.293 182.5L470.959 168.787L466.292 158.217L460.862 155.741L430.952 150.028L419.616 150.313L402.279 137.934L398.945 130.506L403.804 126.126L403.422 116.413L398.755 109.652L405.518 108.128L407.519 107.176L413.424 107.462L421.807 106.224L439.239 108.319L440.763 108.033L449.146 102.605L468.006 102.986L475.532 97.6537L475.818 95.4635L475.436 92.8924L477.151 89.3691L478.485 81.2749L480.009 78.2277L482.485 76.7993L495.345 73.3712L498.298 73.7521L499.822 75.1805L502.87 78.8943L504.299 79.6561L510.777 78.4181L514.015 78.9895L516.492 81.9415L516.587 84.0364L515.444 87.655Z" fill="#009649" stroke="white" stroke-width="2" stroke-linejoin="round"></path>
<path class="region" data-country-region="West Region" d="M377.99 512.456L370.56 510.17L363.607 506.361L359.129 501.124L354.843 494.553L351.223 486.84L348.937 484.269L346.175 486.078H343.412L336.363 479.222L332.934 479.889L330.552 482.65L325.028 486.65L322.932 469.223L320.265 461.986L314.835 455.797L315.311 452.559L314.645 449.893L310.358 449.131L293.879 450.654L291.497 455.035L288.735 458.749L285.21 458.463L281.591 457.415L277.59 438.085L274.542 436.275L273.208 427.991L275.875 418.468L280.066 410.279L280.448 402.375L281.591 394.662L284.353 388.472L284.639 385.044L285.591 382.187L287.496 379.331L289.116 375.998L290.354 374.855L291.974 374.569L298.451 371.713L305.691 369.713H312.835L314.073 369.142L323.694 377.236L329.6 379.997L335.411 381.045L337.22 380.759L338.935 378.664L340.65 375.426L343.507 373.331L346.365 373.046L356.177 388.758L360.368 389.901L362.94 388.377L365.512 387.52L371.513 383.616L385.23 366.19L391.326 361.904L397.708 359.905L397.899 364.285L398.661 365.618L402.185 369.618L405.9 374.855L406.472 381.045L407.901 385.52L408.282 388.568L407.52 391.329L405.424 395.138L401.423 399.233L391.898 403.518L388.183 407.708L390.85 412.564L395.041 424.658L396.851 431.419L397.232 437.513L393.898 448.559L392.946 455.892L393.422 459.034L395.422 463.129L395.899 465.605L395.994 482.841L393.803 485.221L385.801 486.935L383.325 488.649L383.229 490.84L384.849 491.601L386.563 491.03L387.516 493.506L384.658 499.886L382.467 501.124L380.372 499.981L379.324 501.981L381.038 506.076L384.087 507.79L381.229 510.742L377.99 512.456ZM374.085 452.273L371.513 448.179L368.274 448.75L367.036 452.559L363.416 453.13L360.844 452.273L358.748 455.13L355.795 457.796L354.367 460.748L353.986 463.51L354.843 465.7L356.177 467.414L359.225 465.605L360.558 463.891L361.511 469.604L363.321 471.128L366.083 472.08L368.369 468.652L369.703 465.319L371.037 463.319L374.18 464.653L377.609 465.795L380.753 466.176L387.706 468.081L390.945 467.985L392.279 465.605L391.993 463.605L390.945 462.177L389.04 462.558L387.23 463.51L386.563 460.367L384.372 459.415L382.467 461.605H381.801L380.467 459.415H375.704L374.085 452.273Z" fill="#009649" stroke="white" stroke-width="2" stroke-linejoin="round"></path>
<path class="region" data-country-region="East Region" d="M489.439 176.024L491.439 179.262L494.868 180.5L494.011 183.261L492.392 186.023L493.821 189.832L496.488 192.879L500.393 199.354L500.584 202.878L502.584 205.449L501.155 211.638L503.823 217.352L508.3 220.304L513.539 219.733L514.301 223.637L514.206 226.97L520.111 232.112L522.779 235.731L547.926 260.87L549.069 263.727V267.536L548.498 270.678L548.879 273.535L551.26 277.344L554.785 279.82L559.738 288.009L556.023 297.437L555.356 307.435L559.833 316.767L567.644 323.719L576.503 327.147L568.692 333.051L563.453 327.337L558.881 324.576L554.785 326.385L550.784 329.242L544.973 336.384L540.496 334.86L536.4 331.718L531.923 332.765L528.018 336.479L525.541 339.717L522.779 339.907L520.302 339.241L515.825 339.431L505.061 332.765L498.679 326.29L495.44 323.052L487.629 310.102L482.39 304.769L472.769 303.341L470.769 305.912L470.483 310.006L468.768 312.958L464.482 314.672L460.481 317.243L457.433 323.243L453.241 324.766L450.479 320.291L451.527 314.577L454.861 309.054L454.289 303.15L450.288 298.865L445.24 297.532L430.094 304.293L419.711 312.673L413.138 314.672L406.566 315.053L403.517 321.91L396.659 313.53L394.468 311.911L393.611 310.197L392.468 306.007L391.134 298.008L391.039 293.913L391.42 289.628L392.182 285.819L395.04 279.82L396.659 269.536L394.373 266.107L397.992 263.06L399.898 257.728L400.85 252.49L416.853 249.538L423.902 253.823L427.998 254.395L441.334 244.872L444.001 241.444L450.669 236.302L453.813 228.303L451.908 226.018L449.145 224.875L438.477 216.685L435.428 217.162L434.952 214.686L429.713 211.067L426.569 207.068L420.473 203.163L413.71 203.64L410.471 206.972L406.661 208.782L398.183 210.02L399.421 222.304L404.375 236.397L404.47 239.063L401.803 245.158L397.421 240.206L392.753 237.349L388.943 233.35L385.323 234.969L386.181 241.825L388.657 248.776L382.751 255.157L380.942 253.062L377.227 243.92L378.179 238.016L376.56 232.779L369.415 223.827L363.891 212.496L367.415 209.067L369.606 203.544L372.654 199.545L376.464 196.688L375.607 193.641L374.274 191.07L381.608 190.022L388.943 190.879L387.419 180.214L393.134 178.214L396.278 179.262L398.85 176.976L397.04 175.167L396.183 168.882L394.849 165.359L391.706 160.312L386.752 159.36L382.085 156.217L376.941 152.123L372.845 148.123L371.892 144.219L372.273 139.743L373.607 131.173L373.226 128.697L371.987 127.078L373.893 124.888L375.131 124.126L377.893 123.65L379.227 122.508L382.942 114.604L385.419 112.604L398.755 109.652L403.422 116.413L403.803 126.126L398.945 130.506L402.279 137.934L419.616 150.313L430.951 150.028L460.862 155.741L466.291 158.217L470.959 168.787L472.293 182.5L480.77 177.643L489.439 176.024Z" fill="#009649" stroke="white" stroke-width="2" stroke-linejoin="round"></path>
<path class="region" data-country-region="West Region" d="M363.89 212.496L340.171 213.924L341.315 209.639L336.647 202.688L329.503 201.069L323.978 200.307L320.168 204.402L321.787 209.639L320.453 213.734L325.407 219.923L332.646 224.304L330.455 226.589L327.788 227.637L323.787 231.731L316.643 235.35L314.643 238.397L316.453 240.206L317.786 242.778L310.356 244.777L307.879 243.158L305.974 240.111L297.782 232.969L294.829 232.874L292.543 236.683L289.114 237.635L285.875 237.826L284.446 242.682L284.827 248.777L283.208 251.253L282.351 254.586L266.348 258.109L263.204 257.347L261.585 253.633L260.823 249.253L256.25 248.491L250.916 246.396L251.869 240.683L251.392 234.779V230.589L253.583 224.59L251.964 218.781L253.202 217.543L256.346 218.59L257.965 214.972L254.631 210.306L257.679 201.926L253.488 198.307L253.774 191.927L252.726 188.309L253.297 184.595L253.107 180.024L251.964 175.548L251.583 172.787L283.684 170.692L300.926 172.501L306.165 172.025L316.643 167.74L345.315 164.407L351.602 164.883L356.746 167.073L360.842 167.93L364.938 167.454L368.367 165.359L373.035 160.027L375.416 158.217L378.655 157.36L382.084 156.218L386.752 159.36L391.705 160.312L394.849 165.359L396.182 168.883L397.04 175.168L398.85 176.977L396.278 179.262L393.134 178.215L387.419 180.214L388.943 190.88L381.608 190.023L374.273 191.07L375.607 193.641L376.464 196.688L372.654 199.545L369.606 203.545L367.415 209.068L363.89 212.496Z" fill="#009649" stroke="white" stroke-width="2" stroke-linejoin="round"></path>
<path class="region" data-country-region="West Region" d="M382.753 255.157L386.754 260.108L387.897 263.156L389.612 265.346L394.375 266.108L396.661 269.536L395.042 279.82L392.184 285.819L391.422 289.628L391.041 293.913L391.136 298.008L392.47 306.007L393.613 310.197L394.47 311.911L396.661 313.53L403.519 321.91L403.329 323.909L401.614 327.623L401.71 329.813L393.613 325.528L385.897 333.527L383.992 344.859L386.183 351.715L397.709 359.905L391.327 361.904L385.23 366.19L371.513 383.616L365.512 387.52L362.94 388.377L360.368 389.901L356.177 388.758L346.365 373.046L343.508 373.331L340.65 375.426L338.935 378.664L337.221 380.759L335.411 381.045L329.6 379.997L323.694 377.236L314.073 369.142L312.835 369.713H305.691L298.451 371.713L297.499 365.999L297.594 354.286L298.642 351.62L295.784 346.383L292.736 338.384L298.07 330.099L300.071 320.005L298.642 314.768L299.785 301.151L297.785 296.104L293.879 293.723L288.83 282.201L282.829 276.297L281.21 270.774L281.972 265.155L287.021 263.727L282.353 254.585L283.21 251.252L284.83 248.777L284.449 242.682L285.878 237.826L289.116 237.635L292.545 236.683L294.832 232.874L297.785 232.969L305.977 240.111L307.882 243.158L310.358 244.777L317.788 242.777L316.455 240.206L314.645 238.397L316.645 235.35L323.79 231.731L327.79 227.637L330.458 226.589L332.649 224.304L335.506 217.352L340.174 213.924L363.893 212.496L369.418 223.828L376.562 232.779L378.181 238.016L377.229 243.92L380.944 253.062L382.753 255.157ZM334.935 266.203L332.172 265.346L328.552 271.059L320.837 278.773L313.978 286.676L320.551 294.199L324.742 301.436L326.362 309.15L327.981 315.244L336.554 310.007L341.222 312.387L346.175 304.293L348.652 298.675V292.961L345.318 288.486V283.248L346.747 275.916L341.507 271.821H337.697L334.935 266.203Z" fill="#009649" stroke="white" stroke-width="2" stroke-linejoin="round"></path>
<path class="region" data-country-region="East Region" d="M498.679 326.29L495.917 329.337L488.773 325.718L486.772 329.337L486.01 334.194L488.487 340.669L491.249 348.287L495.917 356.762L499.156 368.475L504.681 372.855L509.062 364.475V355.143L513.254 348.763H518.207L522.589 345.525L522.779 339.907L525.542 339.717L528.018 336.479L531.924 332.765L536.401 331.718L540.497 334.86L544.974 336.384L550.785 329.242L554.785 326.385L558.882 324.576L563.454 327.337L568.693 333.051L563.835 336.669L562.978 338.288L563.835 339.907L568.121 340.955L569.741 341.716V342.954L567.264 346.763L565.931 346.573L563.454 344.287L560.31 344.002V347.335L563.073 349.049L561.072 352.953L556.786 352.667L552.023 354.477L548.975 358.952L549.832 359.428L547.832 364.666L548.403 367.522L550.404 369.141L553.071 368.379L556.786 369.713L549.832 375.902L543.736 384.473L546.593 386.663L547.832 390.377L545.26 412.659L540.307 418.087L528.114 416.183L522.875 419.896L523.065 428.276L529.733 432.942L531.257 442.465L528.971 451.702L527.066 455.701L524.113 455.511L519.731 457.034L515.826 459.891L511.73 460.272L507.919 459.034L504.681 459.415L501.918 461.51L502.204 466.366L502.109 470.937L500.013 475.222L499.537 481.031L502.204 487.983L505.633 494.458L507.824 500.457L504.776 498.553L501.823 497.6L498.775 497.41L490.678 499.029L487.725 498.934L485.058 499.41L481.628 500.933L478.39 503.123L476.389 505.409L476.58 507.123L477.628 508.932L478.009 510.646L474.294 512.646L471.626 516.931L469.245 518.836L466.483 519.597L464.768 520.454L462.577 524.168L461.148 525.787L458.767 526.644H453.623L451.051 527.215L448.193 529.31L446.574 534.262L444.955 536.357L441.049 537.119L428.761 535.786L425.618 533.976L423.617 529.977L420.378 528.834L417.235 530.167L414.949 533.976L414.854 539.976L412.377 540.642L408.757 540.166L405.518 542.547L404.852 543.975L406.09 546.451L405.518 548.355L402.756 547.118L394.183 546.451L392.087 546.641L390.754 548.26L389.134 549.117L386.372 549.974L383.99 551.593L383.133 551.688L380.18 548.736L383.324 544.642L384.371 538.547L386.277 534.643L387.324 530.358L386.372 527.406L386.277 522.549L383.99 517.598V514.741L383.038 512.646L380.561 512.17L377.989 512.456L381.228 510.741L384.086 507.789L381.037 506.075L379.323 501.981L380.371 499.981L382.466 501.124L384.657 499.886L387.515 493.506L386.562 491.03L384.848 491.601L383.228 490.839L383.324 488.649L385.8 486.935L393.802 485.221L395.993 482.84L395.897 465.605L395.421 463.129L393.421 459.034L392.945 455.892L393.897 448.559L397.231 437.513L396.85 431.419L395.04 424.658L390.849 412.564L388.182 407.708L391.897 403.518L401.422 399.233L405.423 395.138L407.519 391.329L408.281 388.567L407.9 385.52L406.471 381.044L405.899 374.855L402.184 369.617L398.66 365.618L397.898 364.285L397.707 359.904L397.898 356.476L398.374 354L399.422 351.048L400.851 348.477L403.328 345.716L403.423 341.907L402.47 333.432L401.708 329.813L401.613 327.623L403.328 323.909L403.518 321.909L406.566 315.053L413.139 314.672L419.712 312.673L430.095 304.293L445.24 297.532L450.289 298.865L454.29 303.15L454.861 309.054L451.527 314.577L450.48 320.291L453.242 324.766L457.433 323.243L460.481 317.243L464.482 314.672L468.769 312.958L470.483 310.006L470.769 305.912L472.77 303.341L482.39 304.769L487.63 310.102L495.441 323.052L498.679 326.29Z" fill="#009649" stroke="white" stroke-width="2" stroke-linejoin="round"></path>
<path class="region" data-country-region="West Region" d="M76.4065 268.774L79.931 269.631L82.2171 269.44L85.1701 279.344L84.3128 284.867L83.2649 289.533L82.9792 295.913L79.0736 295.056L75.7397 294.58L71.8341 298.294L67.6429 294.77L64.6899 285.533L63.0705 278.201L61.4512 273.059L62.118 270.678H65.6425L67.3571 272.011L76.4065 268.774Z" fill="#009649" stroke="white" stroke-width="2" stroke-linejoin="round"></path>
<path class="region" data-country-region="West Region" d="M374.085 452.273L375.704 459.415H380.467L381.8 461.605H382.467L384.372 459.415L386.563 460.367L387.23 463.51L389.04 462.558L390.945 462.177L391.993 463.605L392.279 465.605L390.945 467.985L387.706 468.081L380.752 466.176L377.609 465.795L374.18 464.652L371.036 463.319L369.703 465.319L368.369 468.652L366.083 472.08L363.321 471.128L361.511 469.604L360.558 463.891L359.224 465.605L356.176 467.414L354.843 465.7L353.985 463.51L354.366 460.748L355.795 457.796L358.748 455.13L360.844 452.273L363.416 453.13L367.036 452.559L368.274 448.75L371.513 448.178L374.085 452.273Z" fill="#009649" stroke="white" stroke-width="2" stroke-linejoin="round"></path>
<path class="region" data-country-region="East Region" d="M556.024 297.437L559.739 288.009L554.785 279.82L551.261 277.344L556.786 269.821L566.692 258.299L575.17 268.774L584.791 276.582L588.411 283.629L587.363 286.2L582.981 289.438L585.839 295.437L590.792 297.532L590.506 304.293L586.22 307.435L579.076 308.483L573.074 305.055L571.169 304.388L564.216 299.055L556.024 297.437Z" fill="#009649" stroke="white" stroke-width="2" stroke-linejoin="round"></path>
<path class="region" data-country-region="West Region" d="M401.709 329.813L402.471 333.432L403.424 341.907L403.328 345.716L400.852 348.478L399.423 351.049L398.375 354.001L397.899 356.477L397.708 359.905L386.182 351.715L383.991 344.859L385.896 333.527L393.612 325.528L401.709 329.813Z" fill="#009649" stroke="white" stroke-width="2" stroke-linejoin="round"></path>
<path class="region" data-country-region="West Region" d="M156.041 246.491L162.328 254.3L170.139 259.727L160.804 264.013L159.565 265.155L159.66 268.298L158.613 270.678L156.803 272.392L155.183 277.535L156.326 283.439L155.755 293.342L158.613 314.958L141.466 319.148L137.561 324.576L136.037 324.1L134.417 324.386L133.465 323.338L132.989 321.624H129.655L127.75 324.576L128.416 327.052L127.178 329.242L121.367 332.765L114.89 334.194L111.556 333.718L105.078 335.146L103.459 338.955L100.792 339.05L97.7437 338.003L92.7903 341.526L78.7876 342.383L73.5485 344.954L71.1671 348.763L69.5477 353.525L67.0711 357.334L60.5936 363.333L57.7359 368.665L51.9253 372.57L45.2573 372.665L46.4956 379.712L39.7324 390.186L38.8751 391.043L37.732 390.472L37.6368 387.044L35.7316 387.425L34.398 385.806L33.255 383.521L31.6356 381.426L29.3494 374.76L29.921 372.474L31.7309 369.427L33.4455 364.571L33.8265 362.761L33.1597 361.714L31.1593 361.619L29.921 360.952L27.1585 357.524L25.7297 356.667L6.58311 358.381L0.772461 356.953L3.05862 355.905L4.77324 354.191L9.9171 347.144L11.5365 345.526L15.061 342.859L18.0139 341.621L19.919 339.336L20.2048 335.717L21.6337 334.479L24.2056 333.242L24.7771 330.099L26.1107 327.814L28.0158 327.623L33.255 328.671L38.9704 328.004L41.9233 328.29L45.0668 330.766L49.4486 329.718H53.0683L55.7355 329.052L55.164 326.861L53.1636 324.957L51.1632 324.29L47.0672 323.814L48.877 322.195L55.164 319.624L56.6881 318.672L57.2596 317.529L56.7833 316.387L52.3063 314.673L51.2585 311.911L52.211 308.959L55.164 307.055L58.3074 302.865L58.9742 300.389L57.2596 297.913L54.9735 297.722L50.2106 300.008L48.4008 298.675V297.532L49.5438 294.104V292.199L48.5913 290.866H46.3051L45.4478 290.2L44.9715 286.772L47.0672 282.201L46.6861 278.582L50.9727 276.201L52.9731 274.392L53.9256 271.631L53.3541 268.203L49.0676 259.251L47.4482 258.299L47.1624 256.299L48.7818 254.776L48.4008 246.777L49.8296 244.206L51.5442 243.73L53.4494 244.968L55.164 247.729L70.2145 240.778L75.4536 236.683L77.5493 239.254L79.4544 240.778L86.6939 242.396L90.5042 246.205L94.6002 245.444L105.078 238.778L108.508 241.635L119.938 243.634L134.894 234.874L138.418 235.921L136.989 240.111L135.846 245.539L149.087 238.397L152.802 241.159L156.041 246.491ZM76.4062 268.774L67.3568 272.012L65.6422 270.678H62.1177L61.4509 273.059L63.0703 278.201L64.6896 285.534L67.6426 294.77L71.8339 298.294L75.7394 294.58L79.0734 295.056L82.9789 295.913L83.2647 289.533L84.3125 284.867L85.1698 279.344L82.2169 269.44L79.9307 269.631L76.4062 268.774Z" fill="#009649" stroke="white" stroke-width="2" stroke-linejoin="round"></path>
<path class="region" data-country-region="West Region" d="M251.583 172.787L251.964 175.548L253.107 180.024L253.298 184.595L252.726 188.308L253.774 191.927L253.488 198.307L257.679 201.926L254.631 210.305L257.965 214.971L256.346 218.59L253.202 217.542L251.964 218.78L253.583 224.589L251.392 230.588V234.778L247.106 230.017L242.153 226.779L242.057 230.684L239.485 229.541L236.818 229.255L234.437 231.445L229.483 229.065L223.006 231.255L217.1 235.921L211.48 233.35L207.384 235.921L200.24 234.874L197.382 239.159L194.238 240.111L191.095 240.206L189.095 242.015L186.523 241.92L184.237 241.063L179.474 237.635L174.235 238.111L169.091 239.73L166.519 239.254L165.28 241.444L161.47 244.491L156.041 246.491L152.802 241.158L149.087 238.397L135.846 245.539L136.989 240.111L138.418 235.921L134.894 234.874L119.938 243.634L108.508 241.635L105.078 238.778L94.6001 245.444L90.504 246.205L86.6938 242.396L79.4543 240.778L77.5491 239.254L75.4535 236.683L77.4539 235.159L76.8823 226.779L78.4064 225.065L82.5025 223.351L84.0266 220.685L84.2171 217.447L83.074 214.876L81.1689 212.876L78.7875 211.543L79.5495 207.544L78.4064 203.354L75.9298 200.021L72.8815 198.593L68.214 199.45L65.7373 198.402L70.4049 194.784L75.644 194.688L83.455 196.593L84.5029 194.784L84.0266 189.832L88.0273 184.404L89.9325 186.689L91.4566 187.642L99.3629 188.88L100.601 188.594L102.125 187.07L104.888 182.69L106.698 181.071L108.793 186.499L114.128 187.546L125.177 184.69L135.37 183.357L138.323 182.023L136.703 180.976L135.56 179.452L134.798 177.262L134.608 170.501L133.655 166.216L133.465 162.693L135.56 160.312L134.608 158.979L133.274 155.075L129.273 152.884L128.321 151.932V149.647L130.036 148.79L134.894 147.647L137.18 145.838L138.609 143.743L139.371 140.981L140.037 137.267L138.228 136.22L138.513 134.696L140.037 133.458L141.181 130.316V128.983L139.752 127.269L148.515 119.936L153.659 116.794L158.708 117.841L165.947 119.936L175.092 121.27L179.474 124.983L193.857 144.314L195.286 145.647L196.715 146.219L200.24 146.98L201.573 147.837L206.241 154.979L207.955 156.693H209.384L212.432 155.741L214.528 156.789L217.386 158.884L219.958 161.359L221.101 163.55L222.53 165.169L231.674 170.12L243.486 173.358L251.583 172.787ZM222.911 176.024L209.289 180.785L206.622 191.07L198.525 197.355L203.097 204.592L205.098 203.925L210.051 207.353L215.576 203.259H224.625L230.531 200.116L239.295 194.688L240.438 190.879L238.819 184.023L235.866 176.881L229.579 177.548L222.911 176.024Z" fill="#009649" stroke="white" stroke-width="2" stroke-linejoin="round"></path>
<path class="region" data-country-region="West Region" d="M292.734 338.384L295.782 346.383L298.64 351.62L297.592 354.286L297.497 365.999L298.449 371.713L291.972 374.569L290.353 374.855L289.114 375.998L287.495 379.331L285.59 382.187L284.637 385.044L284.351 388.472L281.589 394.662L280.446 402.375L280.065 410.279L275.874 418.468L273.206 427.991L274.54 436.276L277.588 438.085L281.589 457.416L278.922 459.701L277.969 464.177L275.207 467.224L259.204 469.224L246.249 486.269L241.962 489.697L235.104 489.887L228.626 492.268L224.53 496.934L224.911 509.409L222.53 515.694L214.243 519.979L218.243 532.358L216.052 536.453L217.767 542.547L220.72 547.404L224.721 551.022L227.007 555.117L226.531 561.021L223.292 562.735L219.482 562.449L219.101 559.116L218.243 554.45L217.196 552.546L210.528 545.499L205.384 543.118L199.478 541.881L187.571 541.309L184.618 543.976L183.76 540.738L182.236 540.071L178.902 541.309L176.14 541.595L175.854 539.119L175.092 535.691L173.568 538.262L172.139 537.881L170.425 536.453L168.424 535.691V534.358L172.139 533.12L170.901 531.311L168.615 531.025L166.424 530.168L165.09 524.74L163.376 518.265L162.614 516.36L156.993 509.028L155.374 508.075L144.038 507.695L141.943 506.647L135.18 501.6L133.56 499.791L132.798 497.601L131.655 496.077L124.225 489.983L122.892 488.173L119.462 481.698L114.223 475.508L112.223 473.413L110.794 469.414L116.224 467.319L119.653 471.509L129.464 467.795L131.846 467.605L134.322 466.748L136.99 463.51L137.656 458.939L135.275 453.607L134.037 447.607L137.371 446.75L153.183 442.941L154.898 436.276L157.279 431.705L159.47 424.468L158.613 397.519L163.947 388.187L169.663 383.425L178.998 384.092L184.713 381.14L191.953 380.188L220.53 367.999L245.773 352.858L252.059 351.144L257.584 345.24L260.823 343.05L264.538 342.098L278.065 334.48L285.685 335.146L292.734 338.384ZM232.722 440.465L231.103 444.179L231.008 449.607L230.15 455.13L226.816 459.415L230.627 470.366L231.865 482.46L237.295 478.27L241.867 481.222L243.582 476.365L246.535 469.7L251.107 466.081L249.869 455.13L245.677 443.513V442.37L236.533 443.513L232.722 440.465Z" fill="#009649" stroke="white" stroke-width="2" stroke-linejoin="round"></path>
<path class="region" data-country-region="East Region" d="M717.292 389.615L711.767 396.376L703.004 395.995L696.431 397.233L688.715 397.328L687.001 386.472L684.81 375.998L690.906 369.617L696.717 359.143L710.148 365.428L716.53 374.664L714.815 382.759L717.292 389.615Z" fill="#009649" stroke="white" stroke-width="2" stroke-linejoin="round"></path>
<path class="region" data-country-region="West Region" d="M377.99 512.456L380.562 512.17L383.039 512.646L383.991 514.741V517.598L386.278 522.55L386.373 527.406L387.325 530.358L386.278 534.644L384.372 538.548L383.325 544.642L380.181 548.737L383.134 551.689H382.467L380.657 550.07L379.229 552.165L377.99 555.403L376.561 556.26L374.847 555.974L369.322 553.117L362.368 550.737L359.796 551.213L356.558 554.45L355.033 559.116L353.033 561.497L349.89 567.496L348.27 569.591L342.174 574.733L338.554 576.162L335.411 574.638L333.124 576.162L328.266 582.256L325.599 584.351L323.599 584.732L321.694 584.351L319.312 581.304H317.121L312.358 583.494L309.977 582.637L307.596 579.971H304.357L300.07 576.733L297.498 575.876H285.972L284.734 576.257L282.257 578.066L279.114 578.638L264.444 574.543H252.442L251.108 575.21L249.68 578.257L247.965 577.781L245.203 573.019L241.107 570.067L224.056 564.735L220.912 564.544L219.769 563.783L219.483 562.449L223.294 562.735L226.532 561.021L227.009 555.117L224.722 551.022L220.722 547.404L217.769 542.547L216.054 536.453L218.245 532.358L214.244 519.979L222.531 515.694L224.913 509.409L224.532 496.934L228.628 492.268L235.105 489.888L241.964 489.697L246.25 486.269L259.205 469.224L275.208 467.224L277.971 464.177L278.923 459.701L281.591 457.416L285.21 458.463L288.735 458.749L291.497 455.035L293.879 450.655L310.358 449.131L314.645 449.893L315.311 452.559L314.835 455.797L320.265 461.987L322.932 469.224L325.028 486.65L330.552 482.65L332.934 479.889L336.363 479.222L343.412 486.079H346.175L348.937 484.269L351.223 486.84L354.843 494.554L359.129 501.124L363.606 506.362L370.56 510.171L377.99 512.456ZM312.644 498.172L306.834 501.791L301.309 500.553L295.498 499.981L289.783 503.981L286.83 507.6L285.401 515.694L287.973 519.979L285.877 524.835L290.449 527.787L295.879 533.215L300.928 535.691L304.738 533.215L307.215 529.025L308.929 524.169L311.406 519.979H313.883L318.55 521.122L319.788 518.741L317.693 510.837L312.644 498.172Z" fill="#009649" stroke="white" stroke-width="2" stroke-linejoin="round"></path>
<path class="region" data-country-region="East Region" d="M614.415 97.2729L616.797 99.7488L617.559 104.7L617.082 109.462L615.272 117.937L608.986 124.412L607.271 127.555L603.461 122.793V116.794L602.127 112.795L595.459 111.461L593.268 118.794L589.744 120.794L590.601 127.459L592.411 135.363L590.601 143.933V152.599L593.744 160.503H599.936L602.984 156.598V150.599L606.128 147.266L610.986 146.028L612.129 147.838L613.272 148.599L622.226 164.597L628.704 172.215L630.609 178.691L633.467 183.547L648.898 186.69L652.042 188.785L656.614 189.546L655.09 193.07L653.28 195.736L649.089 197.45L647.66 198.783L648.517 201.259L647.564 203.449L645.564 204.211V205.544L644.802 209.163L619.94 226.018L618.702 227.732L617.94 232.112L616.035 233.826L610.986 235.54L608.509 238.778L607.176 239.825L603.746 240.873L600.603 240.016L592.601 234.588L590.125 231.446L588.505 227.732L589.458 223.161L587.077 216.59L581.742 213.734L579.075 210.115L577.551 204.687L575.646 203.164L562.405 206.877L563.739 209.829L565.93 211.353L558.976 213.257L551.546 208.115L549.164 200.212L548.117 191.737L542.687 189.927L535.924 192.117L532.685 191.26L530.304 193.451L522.683 204.021L520.968 203.64L517.825 201.164L510.109 201.926L502.584 205.449L500.584 202.878L500.393 199.355L496.487 192.879L493.82 189.832L492.391 186.023L494.011 183.261L494.868 180.5L491.439 179.262L489.438 176.024L502.584 160.217L507.823 158.503L514.967 146.314L518.873 143.552L523.445 146.124L526.874 143.552L528.398 139.839L530.399 136.696L532.78 136.601L534.59 138.506L538.496 136.03L542.115 132.316L542.592 127.459L544.402 122.222L547.831 119.175L552.022 118.603L551.07 111.747L548.021 106.034L546.307 105.272L545.354 104.034L546.021 101.272L547.926 99.9392L552.022 98.8917L555.07 95.6541L559.071 93.8448L560.119 92.3212L561.548 91.3689L564.691 89.9405L568.025 92.8925L570.692 96.2254L572.979 95.9397L574.979 96.6063L576.789 99.6535L579.075 101.558H584.028L588.029 97.9395L593.078 97.6538L597.84 101.082L606.795 89.274L614.415 97.2729Z" fill="#009649" stroke="white" stroke-width="2" stroke-linejoin="round"></path>
<path class="region" data-country-region="East Region" d="M687.572 280.106L684.81 281.439L682.81 284.296L681.667 287.057L680.142 289.247L676.713 290.581L675.57 293.247L674.046 295.818L672.046 296.58L670.807 299.151L668.902 300.389L666.044 299.532L663.282 300.579L654.804 311.054L652.518 312.673L651.089 315.434L651.565 316.577L651.661 319.339L646.326 325.814L646.517 328.956L647.85 331.527L648.517 338.288L647.088 344.478L644.897 345.907L642.611 346.287L639.944 348.192L637.182 348.858L635.467 346.383L633.276 344.954L630.037 347.811L625.941 346.668L622.036 352.287L617.273 351.049L612.32 351.525L606.89 356.381L605.366 362.38L607.462 369.141L602.794 371.998L597.841 373.522L593.364 377.14L588.22 375.712L583.171 370.951L567.073 376.283L556.785 369.713L553.07 368.38L550.403 369.141L548.403 367.523L547.831 364.666L549.831 359.428L548.974 358.952L552.022 354.477L556.785 352.667L561.072 352.953L563.072 349.049L560.31 347.335V344.002L563.453 344.288L565.93 346.573L567.263 346.764L569.74 342.955V341.717L568.121 340.955L563.834 339.907L562.977 338.288L563.834 336.67L568.692 333.051L576.503 327.147L567.644 323.719L559.833 316.768L555.356 307.435L556.023 297.437L564.215 299.056L571.169 304.388L573.074 305.055L579.075 308.483L586.219 307.435L590.506 304.293L590.792 297.532L585.838 295.437L582.981 289.438L587.362 286.2L588.41 283.629L584.791 276.582L575.17 268.774L566.692 258.299L556.785 269.821L551.26 277.344L548.879 273.535L548.498 270.678L549.069 267.536V263.727L547.926 260.87L522.779 235.731L520.111 232.112L514.205 226.97L514.301 223.637L513.539 219.733L508.3 220.304L503.822 217.352L501.155 211.639L502.584 205.449L510.109 201.926L517.825 201.164L520.969 203.64L522.683 204.021L530.304 193.451L532.685 191.26L535.924 192.117L542.687 189.927L548.117 191.737L549.165 200.212L551.546 208.115L558.976 213.257L565.93 211.353L563.739 209.829L562.405 206.877L575.646 203.164L577.551 204.687L579.075 210.115L581.742 213.734L587.077 216.59L589.458 223.161L588.506 227.732L590.125 231.446L592.602 234.588L600.603 240.016L603.747 240.873L607.176 239.825L608.509 238.778L610.986 235.54L616.035 233.826L617.94 232.112L618.702 227.732L619.94 226.018L644.802 209.163L645.564 205.544V204.211L647.565 203.449L648.517 201.259L647.66 198.783L649.089 197.45L653.28 195.736L655.09 193.07L656.614 189.546L659.091 188.499L662.996 188.023L666.235 198.688L671.665 204.211L676.142 206.306L680.714 206.877L685 211.067L686.906 219.352L688.525 236.969L690.906 246.777L692.24 256.585L691.478 269.726L687.572 280.106Z" fill="#009649" stroke="white" stroke-width="2" stroke-linejoin="round"></path>
<path class="region" data-country-region="West Region" d="M251.394 234.778L251.87 240.682L250.918 246.396L256.252 248.491L260.824 249.253L261.586 253.633L263.206 257.347L266.349 258.109L282.352 254.585L287.02 263.727L281.971 265.155L281.209 270.774L282.829 276.297L288.83 282.201L293.878 293.723L297.784 296.104L299.784 301.151L298.641 314.768L300.07 320.005L298.07 330.099L292.735 338.384L285.686 335.146L278.066 334.479L264.539 342.098L260.824 343.05L257.586 345.24L252.061 351.144L245.774 352.858L220.531 367.999L191.954 380.188L184.714 381.14L178.999 384.092L169.664 383.425L163.948 388.187L158.614 397.519L151.089 400.661L146.802 394.186L148.612 379.997L146.802 333.622L147.278 331.051L148.422 329.052L149.184 326.766L148.326 324.766L144.611 323.148L142.992 321.338L141.468 319.148L158.614 314.958L155.756 293.342L156.328 283.439L155.185 277.535L156.804 272.393L158.614 270.678L159.662 268.298L159.567 265.155L160.805 264.013L170.14 259.728L162.329 254.3L156.042 246.491L161.472 244.491L165.282 241.444L166.52 239.254L169.092 239.73L174.236 238.111L179.475 237.635L184.238 241.063L186.524 241.92L189.096 242.016L191.096 240.206L194.24 240.111L197.383 239.159L200.241 234.874L207.385 235.921L211.481 233.35L217.102 235.921L223.007 231.255L229.485 229.065L234.438 231.446L236.82 229.255L239.487 229.541L242.059 230.684L242.154 226.78L247.107 230.017L251.394 234.778ZM268.445 303.912L266.825 295.056L262.444 286.2L258.348 281.725L253.68 283.248L252.061 289.628L243.964 290.104L243.678 293.628L246.345 297.056L245.964 302.484L243.297 308.864L251.013 325.147L257.395 326.671L260.443 323.719L263.11 314.768L268.826 316.768L268.445 303.912Z" fill="#009649" stroke="white" stroke-width="2" stroke-linejoin="round"></path>
<path class="region" data-country-region="West Region" d="M158.614 397.519L159.471 424.468L157.28 431.705L154.899 436.276L153.184 442.942L137.371 446.751L133.371 438.656L132.227 431.134L128.417 427.42L126.988 418.564L121.178 418.945L120.225 427.134L116.224 427.801L116.32 433.8L116.51 441.704L116.986 451.226L122.607 455.226L129.846 456.273L135.276 453.607L137.657 458.939L136.99 463.51L134.323 466.748L131.846 467.605L129.465 467.795L119.654 471.509L116.224 467.319L110.795 469.414L109.747 466.272L110.223 463.129L108.89 459.796L106.794 457.035L104.984 455.226L103.555 456.749L101.46 454.559L100.221 453.797L96.411 452.94L95.4584 452.274L94.4106 455.226H93.458L91.7434 451.607L87.4568 448.941L84.7897 445.513L82.5035 441.608L80.0268 438.466L76.9786 436.371L73.2636 435.609L70.8822 434.657L70.0249 435.323L69.3581 437.133H68.5008L66.6909 435.228L59.8324 430.753L57.7368 421.992L53.0692 417.992L47.9254 409.803L42.8768 406.851L40.3048 404.756L39.257 401.995L40.4953 399.9L43.1625 398.662L45.1629 396.757L44.4009 392.948L42.21 391.52L38.876 391.044L39.7333 390.187L46.4965 379.712L45.2582 372.665L51.9261 372.57L57.7368 368.666L60.5945 363.333L67.0719 357.334L69.5486 353.525L71.168 348.764L73.5494 344.955L78.7885 342.383L92.7912 341.526L97.7446 338.003L100.793 339.051L103.46 338.955L105.079 335.146L111.557 333.718L114.891 334.194L121.368 332.766L127.179 329.242L128.417 327.052L127.75 324.576L129.656 321.624H132.99L133.466 323.338L134.418 324.386L136.038 324.1L137.562 324.576L141.467 319.148L142.991 321.339L144.611 323.148L148.326 324.767L149.183 326.767L148.421 329.052L147.278 331.052L146.802 333.623L148.612 379.998L146.802 394.186L151.088 400.661L158.614 397.519ZM110.223 371.903L115.462 369.808L113.176 353.906L106.127 347.526L95.6489 349.335L96.2205 362.095L101.174 365.523V373.617L110.223 371.903Z" fill="#009649" stroke="white" stroke-width="2" stroke-linejoin="round"></path>
<path class="region" data-country-region="West Region" d="M312.643 498.172L317.691 510.837L319.787 518.741L318.549 521.121L313.881 519.979H311.404L308.928 524.169L307.213 529.025L304.737 533.215L300.926 535.691L295.878 533.215L290.448 527.787L285.876 524.835L287.971 519.979L285.399 515.693L286.828 507.599L289.781 503.981L295.497 499.981L301.307 500.553L306.832 501.791L312.643 498.172Z" fill="#009649" stroke="white" stroke-width="2" stroke-linejoin="round"></path>
<path class="region" data-country-region="East Region" d="M777.211 324.766L777.497 325.814L780.069 326.671L781.021 327.528L781.879 330.289L779.211 340.479L777.973 342.002L770.829 348.001L770.734 352.953L771.21 357.333L770.067 360L768.638 361.238L763.494 362.666L760.541 365.428L758.827 368.761L755.778 376.95L754.731 379.045L754.254 381.521L755.302 382.949L759.112 385.52L758.636 389.615L756.064 393.424L753.302 394.948L749.396 395.709L747.967 398.09L746.729 401.518L743.776 405.327L740.823 406.946L735.584 406.565L732.631 407.327L730.44 409.898L729.678 413.802L729.106 421.611L727.392 425.324L725.01 428.467L723.01 431.705L722.629 435.894L726.725 443.703L727.678 448.179L724.439 450.654L718.438 450.94L715.675 451.892L713.389 454.654L711.96 459.129L711.389 468.176L710.15 472.08L708.531 475.127L707.197 476.175H703.101L702.244 476.651L695.481 484.84L693.004 485.793L689.289 482.174L687.003 481.698L685.669 482.174L682.907 482.364L677.763 480.079L675.191 479.508L672.238 480.936L669.666 480.555L667.19 478.365L665.856 477.698L662.998 477.603L660.045 478.46L658.521 479.317L656.807 476.746L654.235 474.651L653.187 471.509L654.33 466.557L654.521 461.796L652.901 457.892L650.615 454.844L647.853 455.13L646.519 452.749L639.184 454.749L632.135 454.654L634.612 449.036L630.135 450.273L630.23 441.703L631.659 439.132L630.706 435.037L633.755 429.8L635.66 423.229L631.564 421.42L629.373 417.326L628.801 402.089L630.802 392.376L630.325 379.331L625.848 375.141L618.895 373.236L607.464 369.141L605.368 362.38L606.892 356.381L612.322 351.525L617.275 351.049L622.038 352.287L625.944 346.668L630.04 347.811L633.278 344.954L635.469 346.383L637.184 348.858L639.946 348.192L642.613 346.287L644.9 345.906L647.091 344.478L648.519 338.288L647.853 331.527L646.519 328.956L646.329 325.814L651.663 319.339L651.568 316.577L651.091 315.434L652.52 312.673L654.806 311.054L663.284 300.579L666.047 299.532L668.904 300.389L670.809 299.151L672.048 296.58L674.048 295.818L675.572 293.247L676.715 290.58L680.145 289.247L681.669 287.057L682.812 284.296L684.812 281.439L687.575 280.106L704.816 291.437L710.817 293.628L717.199 294.294L726.249 298.77L729.106 304.769L729.011 319.624L728.725 325.528L730.535 328.766L733.869 329.718L736.537 332.289L735.203 337.336L737.87 339.907L742.538 340.955L752.254 338.193L758.16 338.288L767.781 328.48L773.782 325.623L777.211 324.766ZM717.295 389.615L714.818 382.759L716.533 374.664L710.15 365.428L696.719 359.143L690.909 369.618L684.812 375.998L687.003 386.472L688.718 397.328L696.433 397.233L703.006 395.995L711.77 396.376L717.295 389.615Z" fill="#009649" stroke="white" stroke-width="2" stroke-linejoin="round"></path>
<path class="region" data-country-region="East Region" d="M658.519 479.317L657.281 479.984L651.756 484.555L651.185 485.697L651.28 487.602L652.518 492.077V493.696L651.375 494.839L648.803 494.172L647.66 494.553L646.993 496.077L646.803 498.934L646.136 500.933L643.945 503.314L641.183 504.742L633.276 506.456L630.609 505.695L629.18 504.742L625.084 501.029L619.559 498.648L613.844 497.41L610.415 502.933L587.839 503.504L582.219 510.742L574.598 504.171L572.026 503.219L568.502 504.838L566.406 504.457L564.215 501.79L566.025 494.553L567.93 492.173L571.264 492.554L574.598 496.553L577.075 501.695L580.314 500.933L580.6 496.553L577.837 494.077L575.932 490.554L575.646 487.316L577.361 484.269L582.219 485.221L586.124 484.936L585.839 480.174L593.935 478.841H600.032L606.033 481.984L614.32 482.841L620.893 477.603L624.799 466.462L629.752 460.463L632.133 454.654L639.182 454.749L646.517 452.749L647.851 455.13L650.613 454.844L652.899 457.891L654.519 461.796L654.328 466.557L653.185 471.509L654.233 474.651L656.805 476.746L658.519 479.317ZM630.228 441.703L627.466 438.465L622.512 433.323L617.845 427.705L612.891 424.467L600.794 429.324L594.793 427.324L589.839 426.943L587.648 431.704L584.886 443.703L581.552 448.464L579.075 440.084L575.932 437.799L574.503 444.655L574.598 449.512L575.456 453.797L575.932 458.463L576.694 460.558L578.409 462.081L577.742 465.414L578.504 468.461L574.313 468.652L571.55 463.415L568.788 460.653L563.834 466.271L555.547 464.652L550.117 468.271L549.546 479.032L557.833 481.412L559.167 486.554L557.833 488.935L557.071 503.219L553.07 503.695L547.164 500.362L538.21 499.505L532.59 500.743L518.778 506.456L516.301 505.98L507.823 500.457L505.633 494.458L502.203 487.983L499.536 481.031L500.012 475.222L502.108 470.937L502.203 466.367L501.918 461.51L504.68 459.415L507.919 459.034L511.729 460.272L515.825 459.891L519.731 457.034L524.112 455.511L527.065 455.701L528.97 451.702L531.257 442.465L529.732 432.942L523.065 428.276L522.874 419.897L528.113 416.183L540.306 418.087L545.259 412.659L547.831 390.377L546.593 386.663L543.735 384.473L549.832 375.902L556.785 369.713L567.073 376.283L583.171 370.951L588.22 375.712L593.364 377.14L597.841 373.522L602.794 371.998L607.462 369.141L618.893 373.236L625.846 375.141L630.323 379.33L630.8 392.376L628.799 402.089L629.371 417.325L631.562 421.42L635.658 423.229L633.753 429.8L630.704 435.037L631.657 439.132L630.228 441.703Z" fill="#009649" stroke="white" stroke-width="2" stroke-linejoin="round"></path>
<path class="region" data-country-region="East Region" d="M850.081 208.306L849.224 208.877L842.365 210.686L833.697 217.257L829.506 221.733L826.838 226.875L827.219 233.35L828.458 240.492L828.648 247.443L825.886 253.157L819.599 255.062L817.122 256.585L814.55 259.442L809.121 267.346L808.263 269.821L806.644 277.249L804.263 282.106L803.691 284.391V286.867L804.072 290.581L803.215 293.152L802.072 294.771L798.928 297.818L797.595 299.722L796.261 305.245L795.308 307.055L792.546 309.911L785.592 314.482L782.449 317.434L777.019 324.1L777.21 324.767L773.78 325.624L767.779 328.48L758.158 338.289L752.252 338.193L742.536 340.955L737.869 339.907L735.202 337.336L736.535 332.289L733.868 329.718L730.534 328.766L728.724 325.528L729.01 319.624L729.105 304.769L726.247 298.77L717.198 294.294L710.816 293.628L704.815 291.438L687.573 280.106L691.479 269.726L692.241 256.585L690.907 246.777L688.526 236.969L686.906 219.352L685.001 211.067L680.715 206.877L676.142 206.306L671.665 204.211L666.236 198.688L662.997 188.023L673.19 187.071L680.238 179.929L681.953 176.786L685.287 170.12L685.382 168.502L693.098 167.073V165.835L692.336 159.455L695.194 156.313L696.051 154.694L696.527 151.456L696.242 143.933L697.48 141.267L702.052 135.839L703.195 134.03L704.243 129.269L714.436 130.697L726.057 139.934L732.344 137.458L755.015 135.744L760.445 132.506L764.826 134.03L766.255 138.41L764.541 149.552L763.969 161.36L777.019 171.739L779.401 174.882L786.259 176.405L788.926 178.976L794.832 181.167H797.785L800.643 182.405L803.215 185.547L806.168 187.261L808.74 184.595L810.454 180.31L813.788 174.406L818.646 174.12L828.362 179.643L832.458 186.88L831.601 192.308L835.316 195.927L841.794 188.689L844.175 192.308L847.033 204.402L850.081 208.306ZM762.731 188.118L764.541 177.072L761.683 179.167L755.682 185.452L749.776 202.592L746.632 214.686L747.013 225.161H756.539L759.397 235.159L763.779 237.064L767.398 239.73L769.113 248.11H777.686L785.402 238.111L790.736 237.064L796.451 242.873L805.977 231.827L808.835 223.923L809.216 210.782L804.644 202.307L799.309 195.546L794.356 197.069L789.688 202.878L783.306 206.592L779.401 201.259L776.257 191.832L773.78 182.309L766.636 183.357L764.826 189.737L762.731 188.118Z" fill="#009649" stroke="white" stroke-width="2" stroke-linejoin="round"></path>
<path class="region" data-country-region="East Region" d="M630.228 441.703L630.133 450.273L634.61 449.036L632.133 454.654L629.752 460.463L624.798 466.462L620.893 477.603L614.32 482.841L606.033 481.984L600.032 478.841H593.935L585.838 480.174L582.79 479.412L579.266 476.746L580.314 473.889L579.742 471.223L578.504 468.462L577.742 465.414L578.408 462.081L576.694 460.558L575.932 458.463L575.455 453.797L574.598 449.512L574.503 444.655L575.932 437.799L579.075 440.084L581.552 448.464L584.886 443.703L587.648 431.705L589.839 426.943L594.793 427.324L600.794 429.324L612.891 424.467L617.845 427.705L622.512 433.323L627.466 438.466L630.228 441.703Z" fill="#009649" stroke="white" stroke-width="2" stroke-linejoin="round"></path>
<path class="region" data-country-region="East Region" d="M578.504 468.462L579.742 471.223L580.314 473.89L579.266 476.746L582.79 479.413L585.839 480.174L586.124 484.936L582.219 485.221L577.361 484.269L575.646 487.316L575.932 490.554L577.837 494.077L580.6 496.553L580.314 500.934L577.075 501.695L574.598 496.553L571.264 492.554L567.93 492.173L566.025 494.553L564.215 501.791L561.929 501.219L560.596 501.41L557.071 503.219L557.833 488.935L559.167 486.555L557.833 481.412L549.546 479.032L550.117 468.271L555.547 464.653L563.834 466.271L568.788 460.653L571.55 463.415L574.313 468.652L578.504 468.462Z" fill="#009649" stroke="white" stroke-width="2" stroke-linejoin="round"></path>
<path class="region" data-country-region="West Region" d="M222.913 176.025L229.581 177.548L235.868 176.882L238.821 184.023L240.44 190.88L239.297 194.689L230.534 200.117L224.628 203.259H215.578L210.053 207.354L205.1 203.926L203.1 204.592L198.527 197.355L206.624 191.07L209.291 180.786L222.913 176.025Z" fill="#009649" stroke="white" stroke-width="2" stroke-linejoin="round"></path>
</svg>