<svg width="611" height="579" viewBox="0 0 611 579" fill="none" xmlns="http://www.w3.org/2000/svg">
<path class="region" data-country-region="North Region" d="M453.616 127.193L453.494 127.621L445.308 154.856L421.545 175.19L404.685 189.235L377.99 203.647L401.02 223.493L417.88 237.049L420.812 241.263L418.98 282.909L412.077 286.268L393.262 295.428L390.452 297.321L392.712 307.213L394.056 312.404L393.628 314.236L394.056 315.885L396.622 316.068L412.321 317.656L423.256 318.694L426.982 319.182L428.265 319.854L428.082 327.365L427.288 332.189L427.532 342.876L427.837 353.989L429.609 363.271L430.281 365.653L431.991 373.286L432.847 376.95L434.985 390.995V391.056L426.921 391.117L425.699 391.422L425.027 391.972L408.656 387.27L405.296 384.033L402.303 381.774L398.271 379.759L391.185 377.622L386.359 377.805L382.755 377.5L380.006 377.744L374.142 378.538L367.422 381.163L362.963 382.507L359.969 381.774L357.526 380.003L355.632 376.339L351.722 369.622L351.05 366.63L347.446 363.393L345.43 361.378L344.025 361.134L341.154 361.928L336.878 362.172L336.573 360.462L335.168 359.791L333.641 360.951L330.464 364.554L327.104 364.493L324.844 366.019L324.294 367.729L324.539 371.149L323.317 372.248L320.568 373.469L318.919 375.301L315.681 374.69L311.405 375.179L311.344 370.843L310.55 368.401L307.373 365.958L306.334 362.477L303.708 362.722L300.714 363.088L299.615 363.821L296.866 366.569L291.796 367.118L289.047 369.011L280.25 371.882L274.386 371.576L268.582 371.027L265.345 371.149L263.146 370.782L260.275 368.279L257.892 370.782L255.571 372.92L250.012 374.69H249.951L250.684 370.66L252.761 359.485L253.433 355.821L254.166 352.218L255.51 344.891L255.693 343.792L255.632 343.303L255.265 342.876L250.806 339.761L247.813 337.685L246.347 336.708L245.736 335.487L245.552 333.899L244.819 326.937L244.086 319.976L243.72 316.495L242.987 309.534L242.254 302.511L241.521 295.55L241.154 292.069L240.788 288.527L240.055 281.566L239.688 278.024L238.222 263.613L237.794 260.01L237.428 256.407L237.061 252.804L236.328 245.538L235.962 241.935L234.74 230.088L233.702 220.134L233.152 215.249L232.113 205.418L231.563 200.532L230.525 190.701L229.975 185.755L229.425 180.808L228.937 176.534L227.348 161.756L226.31 152.169L225.76 147.406L224.233 133.055L223.683 128.231L222.156 113.82L221.606 108.996L220.568 99.3473L220.018 94.5231L218.979 84.8138L217.941 75.1655L217.452 70.2802L216.902 65.4561L215.864 55.6857L214.826 45.9763L214.581 43.4726L213.97 37.9767L213.115 29.9161L212.749 26.4354L212.016 19.9625L211.649 16.726L210.977 10.2531L210.244 3.78019L209.877 0.543731L234.435 0.482666H242.62H267.177H275.363L280.983 4.39084L286.603 8.23795L290.757 11.2301L299.554 17.5809L305.479 21.7944L308.411 23.9317L314.276 28.1452L317.269 30.2825L320.201 32.3587L326.066 36.5722L328.998 38.7095L334.923 42.923L337.856 44.9992L344.27 49.5791L353.861 56.4795L360.275 61.0594L369.865 67.8987L373.042 70.1581L379.456 74.738L385.87 79.2568L395.461 86.0961L398.699 88.3556L405.113 92.8744L408.289 95.1338L417.88 101.973L421.118 104.233L427.471 108.751L430.709 111.011L437.123 115.53L443.476 120.048L449.89 124.567L453.616 127.193Z" fill="#009649" stroke="white" stroke-width="2" stroke-linejoin="round"></path>
<path class="region" data-country-region="North Region" d="M609.878 279.429H526.494L519.896 287.917L497.966 292.924L474.569 273.322L466.872 264.834L455.877 250.911L420.813 241.263L417.88 237.049L401.02 223.493L377.99 203.647L404.685 189.235L421.546 175.19L445.309 154.856L453.494 127.621L453.616 127.193L456.304 129.086L462.719 133.605L478.723 144.841L481.9 147.1L488.314 151.558L495.889 156.871L496.317 157.665L497.05 160.229L497.111 161.084L496.622 165.42L495.828 168.962L495.767 169.756L495.889 170.733L496.133 171.221L496.683 171.404L497.538 171.526H498.271L499.737 171.221H500.532L501.387 171.404L501.937 171.832L502.67 173.236L503.281 173.969L503.891 174.397L505.48 174.946L507.007 175.19L507.679 175.374L508.29 175.801L509.695 176.045L511.1 176.778L513.482 178.61L514.215 179.77L514.46 181.175V184.106L514.826 184.656L519.224 188.38L519.957 188.747L520.752 188.808L521.424 188.686L522.034 188.747L522.584 189.174L522.951 189.968L523.134 190.701L523.378 191.189L524.172 191.251L524.6 191.067L525.211 190.457L525.761 190.274L526.188 190.335L526.494 190.579L526.799 190.823L527.166 191.067L529.487 191.861L530.037 191.922L531.014 191.495L532.48 190.09L533.336 189.541L534.13 189.358L534.802 189.541L535.474 189.968L537.734 191.739L539.078 193.266L540.238 194.914L541.766 197.662L542.193 198.09L542.743 198.334L543.659 198.517L544.392 198.823L545.675 199.555L546.408 199.678L546.836 199.739L550.196 200.41L552.212 200.471L562.352 202.609L567.056 204.685L569.194 206.395L569.805 206.7L571.088 207.128L571.698 207.372L572.187 207.86L572.37 208.41L571.698 216.348V217.875L572.187 219.28L572.37 219.524L572.798 219.829L572.92 220.134V220.379L572.676 221.173V221.539L573.042 222.272L573.47 222.821L573.898 223.493L573.959 224.348L573.592 225.264L572.92 225.752L572.187 226.18L571.454 226.791L571.149 227.523L570.965 229.05L570.782 229.661L569.988 230.516L569.499 230.882L569.316 231.187L569.011 231.981L568.461 232.836L568.155 233.508L568.216 234.24L568.827 235.095L569.499 235.767L570.232 236.317L570.965 236.805L572.676 237.538L574.875 239.675L575.73 240.225L576.097 240.408L576.647 240.469L577.624 240.408L580.617 239.675L584.466 238.943L590.758 237.721L597.111 236.439L609.756 233.996L609.878 272.528V279.429Z" fill="#009649" stroke="white" stroke-width="2" stroke-linejoin="round"></path>
<path class="region" data-country-region="South Region" d="M307.007 451.694L306.823 451.45L306.518 451.328L306.274 451.45L305.785 452.06L305.968 452.183L306.457 452.244L306.762 452.427L306.579 452.793L306.09 453.221L305.48 453.587L304.685 453.892L304.075 454.564L303.769 454.747L302.792 454.992L302.486 455.175L301.875 455.785L301.448 456.457L300.837 457.984L300.287 458.9L299.554 459.755L299.188 459.938H298.821L298.454 459.877L298.088 459.938L297.538 460.304L296.866 460.915L296.316 461.587L296.133 462.136L296.439 462.503L297.172 462.93L297.294 463.296L297.049 463.602L296.622 463.724L294.239 463.602L293.629 463.907L293.14 465.128L292.896 465.434L292.712 465.8V466.289L292.957 466.594L293.995 467.571L294.973 469.769L295.461 470.441L296.561 471.357L297.233 472.212L297.538 473.25L297.416 475.448L297.844 477.158V477.586L297.049 480.028L296.683 480.517L296.194 480.883L295.461 481.128L294.728 481.189L294.239 481.066L293.14 480.395L292.101 480.15L290.819 480.273L289.597 480.578L288.558 481.005L287.947 480.883L287.886 480.761L284.649 480.883L284.099 481.494L283.06 481.555L282.45 479.54L280.189 480.15L277.807 483.143L277.013 484.547L275.669 484.975L270.843 485.646L266.323 486.379L265.101 485.463L265.223 483.204L263.879 481.433L263.39 479.967L259.542 478.196L258.809 478.013L257.77 478.807L254.838 482.41L253.738 484.853L252.7 485.158L250.501 483.143L250.134 481.066L249.096 480.273L247.874 477.464L247.385 477.219L241.277 480.578L235.657 483.448L234.007 483.387L232.847 482.654H232.48L231.625 484.059L223.989 485.28L222.156 487.173L220.324 486.257L218.735 485.768L217.941 483.265L217.391 481.677L216.17 481.738L214.459 482.349L213.787 481.921L212.871 479.173L210.305 478.196L208.717 477.525L206.029 477.891L201.936 478.502L200.348 479.235L199.249 479.173L198.76 478.319L199.187 475.937L199.065 473.8L198.271 473.006H196.438L194.178 472.395L191.857 469.708L192.285 468.365L193.628 466.96L194.056 464.762V463.358L195.278 461.037L195.95 458.839L197.599 457.312L199.737 456.64L203.219 456.396L204.319 455.724L205.296 453.16L204.93 452.427L203.586 451.511L203.158 450.351L202.853 446.565L200.715 444.061L198.515 441.863L198.027 439.298L198.515 432.336L204.074 422.2L205.357 420.001L208.289 416.215L209.023 414.383L210.305 414.017L214.826 415.299L215.925 414.566L216.781 413.162L217.697 411.88V409.315L216.964 407.055L215.681 402.475L213.909 400.033L211.649 396.247L212.321 394.171L215.742 389.652L216.842 387.698L219.407 379.698L219.957 375.179H228.57H231.381H238.894H249.707L249.89 375.118L249.951 374.691H250.012L255.571 372.92L256.06 374.996L260.092 375.179L261.313 375.485L261.924 376.095L263.024 380.492L265.04 386.599L263.696 388.675L261.069 393.194L258.687 395.148L255.877 395.026L250.134 396.613L248.607 396.735L247.63 400.094L246.347 403.208L246.53 404.796L246.775 406.139L246.103 407.055L245.797 409.742L244.27 410.964L244.209 412.002L249.829 415.543L256.121 419.391L258.32 420.917L261.863 425.802L260.825 430.932L261.069 432.642L264.123 433.924L266.872 434.352L272.492 433.375L274.142 433.497L274.569 434.962L274.081 436.977L273.103 437.893L273.042 438.931L274.02 440.702L273.286 443.939V446.076L274.081 447.908L276.28 446.504L277.257 446.259L278.601 446.565L280.434 446.198L280.983 446.381L281.839 447.297L283.427 448.458L286.848 446.504L289.597 445.893L291.429 445.71L292.101 444.061L295.217 438.504L299.432 435.206L301.509 434.657L302.547 435.084L304.197 438.443L305.357 443.695L307.251 447.603L307.19 451.389L307.007 451.694Z" fill="#009649" stroke="white" stroke-width="2" stroke-linejoin="round"></path>
<path class="region" data-country-region="South Region" d="M425.027 391.972L424.6 392.277L422.584 394.292L414.948 401.071L413.665 401.926L412.26 402.536L405.174 404.246L403.586 405.04L390.818 413.345L388.192 413.894L385.626 414.016L382.572 413.772L380.8 413.833L379.7 414.322L379.395 415.36L378.723 424.703L378.601 425.13L378.295 425.375L375.73 426.535L375.18 426.596L373.958 426.352L365.345 422.199L362.535 421.589L360.519 422.077L357.526 423.787L356.67 424.52L353.983 427.573L348.546 430.626L347.568 432.275L347.752 432.214L347.996 432.458L346.53 437.343L345.919 438.443L345.308 439.908L345.491 441.923L346.53 445.526L343.964 446.503L343.659 446.564L343.414 446.442L343.17 446.259L342.865 446.198L341.948 446.076L341.643 446.137L341.215 446.381L340.604 447.114L340.177 447.236L339.871 446.686L339.81 446.076L339.627 445.77L338.955 445.099L338.039 444.549L337.245 444.61L336.451 444.732L335.412 444.671L333.763 443.389L332.785 443.022L332.052 443.755L332.785 444.366L333.03 445.282L332.907 447.419L332.724 448.274L332.174 449.679L333.457 459.144L332.969 459.51L326.86 459.876L326.066 460.182L325.943 461.281L326.371 462.563L326.432 463.296L326.066 463.907L325.577 463.968L323.561 463.663L322.767 463.724L322.523 463.663L322.156 463.418L321.606 462.808L321.362 462.747L320.873 462.808L320.568 462.747L317.574 460.365L315.864 459.327L313.115 457.129L312.443 456.823L310.916 456.396L309.694 455.907L309.083 455.785L308.35 455.846H307.617L306.762 455.602L306.273 455.236L306.762 454.808L307.067 454.625L307.801 453.892L308.106 453.77L308.472 453.709L308.717 453.587V453.159L308.534 453.037L307.617 452.915L307.312 452.732L307.19 452.549L307.006 451.755V451.694L307.19 451.388L307.251 447.602L305.357 443.694L304.196 438.443L302.547 435.084L301.509 434.657L299.432 435.206L295.217 438.504L292.101 444.061L291.429 445.709L289.596 445.893L286.848 446.503L283.427 448.457L281.838 447.297L280.983 446.381L280.433 446.198L278.601 446.564L277.257 446.259L276.279 446.503L274.08 447.908L273.286 446.076V443.938L274.019 440.702L273.042 438.931L273.103 437.893L274.08 436.977L274.569 434.962L274.141 433.496L272.492 433.374L266.872 434.351L264.123 433.924L261.069 432.641L260.824 430.932L261.863 425.802L258.32 420.917L256.121 419.39L249.829 415.543L244.208 412.001L244.27 410.963L245.797 409.742L246.102 407.055L246.774 406.139L246.53 404.796L246.347 403.208L247.629 400.094L248.607 396.735L250.134 396.613L255.876 395.025L258.686 395.147L261.069 393.193L263.695 388.674L265.039 386.598L263.023 380.492L261.924 376.095L261.313 375.484L260.091 375.179L256.059 374.996L255.571 372.92L257.892 370.782L260.274 368.279L263.146 370.782L265.345 371.149L268.582 371.027L274.386 371.576L280.25 371.881L289.047 369.011L291.796 367.118L296.866 366.569L299.615 363.821L300.714 363.088L303.708 362.722L306.334 362.477L307.373 365.958L310.549 368.401L311.344 370.843L311.405 375.179L315.681 374.69L318.918 375.301L320.568 373.469L323.317 372.248L324.538 371.149L324.294 367.729L324.844 366.019L327.104 364.493L330.464 364.554L333.64 360.951L335.168 359.791L336.573 360.462L336.878 362.172L341.154 361.928L344.025 361.134L345.43 361.378L347.446 363.393L351.05 366.63L351.722 369.622L355.632 376.339L357.526 380.003L359.969 381.774L362.962 382.507L367.422 381.163L374.141 378.538L380.006 377.744L382.755 377.499L386.359 377.805L391.185 377.622L398.271 379.759L402.303 381.774L405.296 384.033L408.656 387.27L425.027 391.972Z" fill="#009649" stroke="white" stroke-width="2" stroke-linejoin="round"></path>
<path class="region" data-country-region="South Region" d="M288.558 481.005L288.13 481.066L287.886 481.005L287.764 481.127L287.519 483.081L287.886 483.692L289.474 484.913L290.085 485.524L290.879 487.295L291.185 487.784L291.368 487.967L291.429 488.089L291.185 488.577L290.635 489.31L289.963 489.982L289.291 490.776L288.985 491.692L290.329 494.867L290.696 496.516L289.596 496.699L289.291 496.455L288.985 496.027L288.619 495.722L288.069 495.783L287.642 496.027L287.58 496.272V496.577L287.458 497.188L287.519 497.615L287.458 497.798L287.336 497.981L284.037 500.668L285.015 502.5L284.648 502.867L283.549 502.928L282.205 503.66L281.777 504.454L281.716 505.004L281.533 505.492L280.8 505.859L280.433 505.92L279.7 505.798L279.273 505.92L278.906 506.225L278.417 507.202L278.112 507.569L277.562 507.874L276.524 508.057L275.913 508.301L275.18 507.63H274.386L272.797 508.179H272.064L271.27 507.996L270.476 507.935L269.682 508.301L269.315 508.546L268.949 508.79L268.582 508.851H268.155L267.483 508.912L266.017 508.851L265.467 508.912L264.917 509.156L263.695 509.889L262.535 510.256L261.985 510.744L261.007 511.843L259.602 513.003L258.869 514.042L258.564 514.286H258.32L258.136 514.225L257.892 514.042L257.648 513.919H257.403L257.098 514.225L256.976 514.286L255.693 514.469L255.571 514.591L255.265 514.835L255.082 514.896L254.899 514.835L254.41 514.53L254.227 514.469L253.738 514.53L253.494 514.591V514.774L253.738 515.202L253.982 515.324L254.899 515.874L255.082 515.996L255.693 515.874L255.998 515.935L256.426 516.057L257.098 516.362L257.709 516.728L258.136 517.217L258.442 518.011V518.621L258.381 519.476L258.075 520.942L257.831 521.308L257.587 521.736L257.403 522.163V522.591L257.648 522.957L258.014 523.079L258.381 523.018L258.808 523.079L260.091 524.117L260.458 525.461V528.575L260.641 529.43L260.702 529.919L260.397 530.285L259.602 530.651L258.992 531.14L258.869 531.812L259.114 535.781L259.053 536.391L258.564 537.124L257.403 538.346L257.098 539.2L256.853 540.727L256.487 541.277L255.571 541.826L254.96 542.071L254.349 542.254L250.684 542.742L250.134 543.109L250.012 543.719L250.439 545.979L250.195 546.956L251.05 546.773L251.539 547.811L252.211 550.436L252.7 551.23L252.822 551.658L252.272 553.856L252.333 554.161L252.272 554.528L252.028 554.711L251.722 554.894L251.478 555.138L251.294 555.688L250.928 557.703V558.07L251.111 558.68L251.172 558.986L251.722 559.23L251.356 559.535L251.111 560.146L251.05 560.695L251.356 561.001L251.478 561.367L250.928 563.321L250.073 564.665L249.951 564.97L249.645 566.924L249.462 567.413L248.423 567.046L247.629 566.497L247.141 566.374H246.774L245.797 566.619L243.72 566.863L238.955 567.901L236.328 569.306L235.717 569.733L235.29 570.344L235.167 571.015L235.351 573.092L234.862 573.397L233.152 572.786L232.724 573.153L232.602 574.069L232.357 574.863L231.93 575.595L231.197 576.267L227.898 576.328L225.088 575.29L224.599 574.985L223.866 574.13L223.5 573.824L222.95 573.947L222.828 572.542L222.889 572.054L223.378 571.565L223.622 571.748L223.866 571.87L224.172 571.748L224.294 571.565L224.111 570.954L225.027 569.916L224.477 569.489L224.599 568.817L225.149 567.657L224.538 566.924L224.416 566.558L224.477 566.252L224.844 565.581L224.966 565.336L224.783 564.97L224.538 564.848H224.233L223.805 564.909L223.561 564.848L223.378 564.604L223.194 564.359L223.011 564.176L222.644 564.115L222.339 564.176L222.156 564.115V563.565L222.339 563.26L223.011 562.711L223.255 562.405L223.316 561.917L223.194 561.489L223.011 560.94L223.255 560.634L223.683 560.451L224.05 560.207L224.233 559.779L224.111 559.474L223.805 559.169L223.378 558.986L222.706 558.741L222.583 558.436L222.767 556.848L222.706 556.36L222.339 556.116L221.484 556.238L220.568 556.604L219.896 557.093L219.163 557.459L218.246 557.398L217.452 557.276L216.658 557.337L216.047 557.642L215.742 558.314L215.681 559.779L215.864 560.329L216.291 560.573L216.78 560.818L217.024 561.184L216.902 562.039L216.23 562.527L215.314 562.649H214.52L212.565 562.222L211.954 562.039L210.427 561.245L209.694 560.695L209.144 560.207L208.35 558.863L207.861 558.558L207.067 558.863L207.128 558.986L206.578 559.841L206.517 559.902L206.334 560.573L206.273 561.306L206.334 561.611L206.456 561.856L206.578 562.161L206.395 563.871L206.029 565.092L206.09 565.703L206.578 566.436L206.823 566.619L207.25 566.741L207.617 566.924L207.861 567.168V567.596L207.678 567.901L207.434 568.206L207.25 568.451L207.067 569.855L206.762 570.283L205.907 570.588L205.112 570.527L203.707 569.672L202.913 569.428L202.119 569.489L199.92 570.527L199.187 570.588L197.11 570.344L196.255 570.466L195.827 570.954L194.972 573.947L195.033 574.435L195.461 574.74L195.888 575.107L196.255 575.473L196.377 576.45L195.888 577.244L195.155 577.794L194.3 578.099L193.384 578.16L192.712 577.549L192.162 576.694L191.551 576.023L190.94 575.656L187.275 574.618L184.343 574.191L182.021 574.13L181.41 573.947L181.105 573.458V572.603L181.288 571.077L181.105 570.466L180.25 570.405L179.272 570.771L178.906 570.893H178.417L178.356 570.649L178.478 570.283L178.417 569.855L177.806 568.817L177.684 568.451L177.623 568.145L177.684 567.718L177.623 567.29L177.44 566.863L177.134 566.497L176.768 566.313L176.34 566.191L175.79 566.252L174.935 567.352L174.63 567.657L174.324 567.779L173.652 567.718L173.286 567.779L172.37 567.718L171.087 566.863L170.293 566.985L170.109 567.29L169.926 567.779L169.743 568.206L169.437 568.267L169.01 568.206L168.643 568.329L168.154 568.695V569L167.666 569.245L168.093 569.794L167.666 570.405L166.872 570.893L166.139 571.015L166.627 571.687L166.139 572.42L166.078 572.97L165.894 573.275L165.589 573.458L165.406 573.641L165.222 574.069L165.1 574.313L164.245 575.473L163.878 575.779L163.512 575.962L163.206 576.145L162.229 576.267L161.862 576.45L161.191 577.061L160.519 577.366L159.786 577.61H158.991L158.258 577.366L159.114 575.534L159.297 574.679L159.236 573.702L158.991 572.847L158.564 571.87L158.014 571.077L157.342 570.649L155.326 570.588L154.349 570.405L153.616 569.916L153.432 569.428L153.371 568.39L153.249 567.962L152.883 567.352L152.638 567.29L152.333 567.474L151.783 567.718L150.928 567.901L150.134 567.84L149.462 567.535L148.545 565.764L147.385 564.237L146.957 563.26L146.407 555.81L146.224 555.138L145.247 554.772L145.369 553.978L146.102 551.902L146.407 551.597L146.591 551.23L146.713 550.559L146.652 546.65L146.407 545.795L145.858 544.941L145.063 544.208L144.269 543.78H143.842L143.109 544.208L142.742 544.269L142.07 544.025L141.704 543.964L141.337 544.086H140.604L139.81 543.841H139.199L138.283 545.857L137.916 546.467L137.244 546.895L136.633 547.078L135.961 547.139H135.289L134.679 547.078L133.946 547.139L133.335 547.444L132.724 547.627L132.174 547.261L131.991 546.65L132.174 545.979L132.479 545.368L132.785 544.88L134.495 543.17L134.862 542.376L134.923 541.948L134.801 541.643V541.216L135.167 540.788L135.473 540.666H136.206L136.511 540.483L136.878 539.872L137.061 538.529L137.489 537.918L137.794 537.735L138.527 537.43L138.833 537.185H138.955L139.321 537.124L139.443 537.063L139.566 536.758L139.321 536.33V536.208L139.688 535.353L140.054 535.109L141.459 535.414L142.131 535.537L142.864 535.475L143.536 535.231L143.964 534.743L144.208 533.766L143.842 533.582L143.17 533.705L142.437 533.582L142.131 533.033L142.62 532.544L143.353 532.178L144.025 531.995L143.231 531.323L142.07 530.773L139.871 530.102L138.833 530.041L138.405 529.919L138.099 529.308L137.977 528.636L138.466 528.148L139.871 526.377L141.948 521.675L143.231 521.003L145.613 521.064L150.317 519.293L152.15 519.171L155.265 519.965L156.609 519.171L159.297 516.545L160.213 516.179L163.023 514.042L167.238 511.721L171.148 510.011L173.591 508.851L174.752 507.935L176.218 504.454L177.134 502.561L178.051 501.951L181.716 500.119L183.06 499.569L183.671 498.531L184.159 496.577L185.442 496.027L187.031 494.989L188.558 492.547L190.574 491.753L191.001 492.852L191.612 497.004L193.017 501.584L193.078 502.928L191.918 505.615V507.691L193.2 508.912L194.3 509.401L196.01 508.973L196.743 509.828L196.805 513.37L198.637 513.003L199.615 513.37L200.714 514.713L203.402 515.446L208.167 517.644L211.343 517.705L212.015 518.377L211.71 520.576L213.42 521.369L214.459 521.247L215.314 519.354L215.864 517.889L216.719 515.507L217.147 513.981L219.468 511.721L219.04 508.912L218.979 507.141L220.629 505.37L222.461 505.248L224.355 505.92L226.126 507.63L226.615 507.263L226.554 506.347L226.432 504.638L227.47 504.088L228.57 504.149L231.136 503.416L232.48 503.538L233.823 500.119L233.64 496.821L232.541 496.272L229.242 496.516L228.02 495.905L227.287 494.256L225.332 492.73L223.988 492.974V491.936L223.5 490.654L223.439 489.127L222.156 487.173L223.988 485.28L231.624 484.059L232.48 482.654H232.846L234.007 483.387L235.656 483.448L241.276 480.578L247.385 477.219L247.874 477.463L249.095 480.273L250.134 481.066L250.5 483.143L252.7 485.158L253.738 484.852L254.838 482.41L257.77 478.807L258.808 478.013L259.541 478.196L263.39 479.967L263.879 481.433L265.222 483.204L265.1 485.463L266.322 486.379L270.842 485.646L275.668 484.975L277.012 484.547L277.806 483.143L280.189 480.15L282.449 479.54L283.06 481.555L284.098 481.494L284.648 480.883L287.886 480.761L287.947 480.883L288.558 481.005Z" fill="#009649" stroke="white" stroke-width="2" stroke-linejoin="round"></path>
<path class="region" data-country-region="North Region" d="M609.878 279.429V286.94L609.939 291.764V296.527V301.351V306.114L610 310.878V313.32V317.412L609.511 317.778H609.084L608.839 317.9L608.595 318.572L608.534 319.305L608.778 323.091L608.595 323.457L608.106 324.251L608.045 324.617V332.189L608.106 339.761L607.801 340.677L607.251 341.166L605.663 341.96L604.808 342.693L604.075 343.425L603.525 344.28L600.226 352.463L600.043 353.501L600.226 354.6L600.715 355.822V356.188L600.654 356.371L598.516 358.57L597.966 359.424L597.721 360.157L597.416 363.882L597.111 365.348L596.561 366.752L595.583 367.851L594.239 368.645L591.246 369.195L589.902 369.928L587.031 373.164L583.793 375.118L583.427 376.156L583.06 380.553L582.388 380.431L582.205 380.37L578.418 379.698L571.454 378.538L567.056 377.744L565.589 377.805L564.979 377.927L564.734 378.11L564.612 378.538L564.551 379.21V380.614L564.368 381.164L558.931 381.347L555.388 381.469L548.241 381.713L541.093 381.958L537.55 382.08L533.946 382.202L530.403 382.324L519.713 382.69L516.109 382.812L512.566 382.935L505.418 383.179L502.669 383.24L501.448 383.545L500.47 384.156L497.966 386.537L494.972 389.285L489.474 394.476L488.558 394.903L487.581 395.087L481.9 395.331L480.861 395.697L479.762 396.125L478.784 396.369L478.234 396.43L472.492 394.354L471.393 394.415L468.949 395.27L467.788 395.514H466.567L461.68 394.293L461.374 394.659V395.636L461.557 397.529L452.272 394.293L447.324 392.217L444.758 391.606L442.437 392.033L440.116 393.438L438.833 394.048H437.794L437.428 393.56L436.573 391.239L436.206 391.056H434.984V390.995L432.846 376.95L431.991 373.286L430.281 365.653L429.609 363.272L427.837 353.99L427.532 342.876L427.287 332.189L428.082 327.365L428.265 319.854L426.982 319.182L423.256 318.694L412.321 317.656L396.622 316.068L394.056 315.885L393.628 314.236L394.056 312.404L392.712 307.214L390.452 297.321L393.262 295.428L412.077 286.268L418.98 282.91L420.812 241.263L455.876 250.912L466.872 264.834L474.569 273.322L497.966 292.924L519.896 287.917L526.493 279.429H609.878Z" fill="#009649" stroke="white" stroke-width="2" stroke-linejoin="round"></path>
<path class="region" data-country-region="South Region" d="M159.969 487.234L158.686 487.6L157.526 487.295L156.793 487.051L156.487 486.562L155.876 486.196L155.51 485.28L155.327 483.814L155.51 482.776L155.999 481.982L156.854 481.616L157.831 481.494L158.809 481.738L159.603 482.226L160.153 483.081L160.336 484.058L160.458 485.28L160.397 486.379L159.969 487.234Z" fill="#009649" stroke="white" stroke-width="2" stroke-linejoin="round"></path>
<path class="region" data-country-region="South Region" d="M115.741 375.118L116.474 375.973L118.246 377.438L120.262 379.026L121.3 380.003L126.554 382.934L128.203 384.766L128.509 385.682L128.814 388.674L130.525 393.132L132.907 394.781L136.816 395.025L139.199 395.514L139.749 396.369L140.36 398.872L140.176 402.17L139.993 404.307L140.787 405.65L144.575 408.459L146.835 410.108L149.156 412.49L151.844 413.1L152.333 413.711L152.211 414.871L151.966 415.726L152.882 418.657L153.005 419.329L151.905 420.062L149.523 420.367L147.873 420.672L145.857 420.245L143.17 420.611L141.52 420.917L140.482 420.795L139.443 419.879L138.344 417.802L137.611 416.948L136.816 416.52L135.961 416.764L135.106 418.596L133.884 420.306L132.418 420.734L131.196 421.283H128.02L129.669 425.375L129.853 426.168L129.914 427.023L129.669 428.122L129.119 428.184L128.448 427.939L127.653 428.245L127.47 428.733L127.653 430.077L127.47 430.687L127.165 431.054L127.043 431.359L126.859 432.153L126.676 432.397L126.432 432.519L126.309 432.702L126.432 433.191L126.615 433.496L127.776 434.473L128.142 434.656L128.509 434.718L128.814 434.901L129.058 435.206L129.242 435.633L129.486 435.878H129.791L130.158 435.45L131.196 437.404L131.868 437.954L135.045 438.504L136.022 438.381L136.511 437.465L135.961 437.404L136.022 436.855L136.633 435.633L136.755 434.718L137 434.351L137.733 434.107H139.016L139.993 434.473L140.726 435.206L141.154 436.427L141.215 437.038L141.093 437.832V438.381L140.97 438.992L140.665 439.481L140.176 439.908L139.81 440.336L139.199 441.557L138.893 442.045L137.916 443.022L137.55 443.572L137.427 444.305L137.855 448.274L137.916 448.701L138.16 448.946L138.527 449.251L138.832 449.556L139.138 449.984L139.565 450.961L140.604 452.06L141.032 452.732L141.215 453.403L141.337 454.197L141.215 454.93L140.848 455.48L140.421 455.724L140.176 455.785L139.932 455.968L139.627 456.396L139.443 456.884L138.71 459.205L138.588 459.999L138.466 460.426L138.222 460.853L137.611 461.586L137.366 462.014L137.183 462.808L137.061 465.25L136.878 465.739L136.694 466.105L136.511 466.533V467.082L136.816 469.097V470.013L136.511 471.112L134.862 473.738L134.495 474.654V475.631L134.801 476.181L135.35 476.73L135.778 477.585L132.724 479.295L132.113 479.784L131.196 481.127L129.73 482.043L128.02 482.593L126.371 482.837L124.966 483.57L123.744 485.951L122.339 487.173L120.812 488.333L119.284 491.203L120.567 492.119L119.956 492.852L115.497 490.531L113.97 489.982L111.16 489.432H110.671L110.366 489.676L110.06 489.859L109.572 489.615L109.083 489.371L108.838 489.31L108.594 489.371L107.983 489.798L106.273 490.226L105.723 490.898L105.906 491.325L106.456 491.936L107.128 492.607L108.105 493.157L108.228 493.401V493.768L108.411 494.134L108.716 494.256L109.327 494.439L109.51 494.623L109.572 495.111L109.388 495.783L109.083 496.393L108.594 496.516L108.716 497.432L108.533 497.92L107.617 498.836L105.356 498.409L104.746 498.531L103.218 499.202L102.608 499.63L101.874 500.302L97.7205 501.706L96.5599 502.5L96.0101 503.05L95.7657 503.66L95.7047 504.271L95.7657 505.065L95.5825 505.553L95.1549 506.225L94.2386 507.141H92.1616L91.4896 506.897L91.1231 506.652L90.5733 506.225L90.1457 506.042H89.9014L89.1072 506.164H88.8018L88.1298 505.859L86.847 504.82L86.175 504.637L85.442 504.515L84.1591 503.843L83.4261 503.599L82.9985 503.355L82.2043 502.805L81.7767 502.561L81.4102 502.439H80.7993L80.4328 502.317L80.1274 502.134L79.6387 501.706L79.2721 501.523H78.9667H78.1115L77.3784 501.401L76.0956 500.79L74.8738 500.546L74.6295 500.302L74.4462 500.057L74.1408 499.874L72.7358 500.485L72.4914 500.912H72.4303L72.3082 500.668L72.0638 500.485L72.0027 500.607L71.8195 500.912L71.4529 501.095L71.1475 501.157L70.9032 501.279L70.9642 501.828L70.4145 501.645L70.1701 501.523L69.9258 501.34L69.4371 501.645L68.1542 502.683L67.9099 503.05L67.5433 503.599L65.7718 503.416L65.0999 503.66L65.0388 504.027L65.3442 504.82L65.222 504.943L64.9166 505.065L64.8555 505.431L64.9777 505.859V506.103L64.2446 506.652L63.5116 507.019L63.084 507.507L63.3283 508.301L62.7785 508.484L61.9844 508.912L61.3124 509.339L61.0681 509.706L60.8848 510.255L60.5794 510.927L60.1518 511.599L59.7852 511.965L59.2355 512.209L57.7083 512.27L56.6698 511.171L55.1426 508.301L54.1652 507.263L53.9819 506.897L54.043 506.53L54.4096 505.92L54.4706 505.553L54.2874 504.515L53.6154 503.966L52.7602 503.538L51.8439 502.927L50.3778 500.546L49.7058 500.057L48.8506 499.813L48.1175 499.874L46.4682 500.424L45.613 500.363L45.1243 500.485L44.8188 500.851L44.3912 502.5L43.9636 502.988L42.7419 503.843L42.5586 504.088L42.0088 504.943L41.7034 505.065H41.3979L41.1536 505.187L40.9092 506.286L40.5427 507.019L39.9929 507.568L39.382 507.752H38.8323L37.6105 508.301H36.8775L36.1444 507.996L35.4114 507.629L34.6783 507.141L34.0674 506.591L32.6013 504.576L31.9294 504.027L29.6691 503.05L28.9361 502.439L28.2641 500.912L28.875 499.752L29.9135 498.714L30.6465 497.187V496.332L30.4022 494.806L30.5244 493.951L31.1352 493.645L31.9905 493.707L32.7235 493.584V492.852L32.7846 491.875L33.0289 490.836L33.09 489.982L32.6013 489.31L32.5402 489.554L32.2348 489.982L32.1737 489.676L31.9294 489.066L31.8683 488.699L31.6239 488.089L31.3796 488.211L31.1352 488.638L31.1963 488.882L30.8909 488.638L30.4633 487.905L30.1578 487.722L29.7913 487.6L30.0357 487.356L30.8298 486.989L30.8909 486.562L30.8298 486.257L30.7687 486.012L30.7076 485.585L30.952 484.425L30.8909 483.997L30.7076 483.631L30.4633 483.448L30.1578 483.325L30.0357 483.203L29.9746 482.654L30.2189 482.409L30.5244 482.165L30.8909 481.188L31.3796 481.005L31.8683 480.944L32.1737 480.455L32.1126 480.089L31.7461 479.417V479.234L31.9905 478.929L32.0515 478.562V478.074L31.9905 477.707L31.8683 477.402L31.5628 476.914L31.2574 476.853L31.0741 476.73V476.547L31.2574 476.12L31.3185 475.998L31.1963 475.387L31.3796 474.96L31.5628 474.593L31.7461 474.227L31.6239 473.982L31.2574 473.616V473.372L31.5018 473.25L31.7461 473.311L31.9905 473.433H32.1737L32.4792 473.189L32.7235 473.067L32.8457 472.822L32.7846 471.845L32.6624 471.418L32.5402 470.99L32.2348 470.685L32.1126 471.357L31.8683 471.784L31.4407 471.967L30.8298 471.845L30.952 471.479L31.0131 470.746V470.38L31.1352 470.257L31.3796 470.074L31.4407 469.952L31.1352 469.769L30.952 469.647L30.8298 469.403L30.5854 468.975L30.0968 468.181L30.1578 467.998L30.4022 467.693V467.448L30.0357 467.265L29.4248 467.143L28.9361 466.838L28.5085 466.533L28.0198 466.166L27.3478 466.044L27.1646 465.433V464.09L26.798 463.601L26.3704 463.174L26.0039 462.746L25.8817 462.075L26.065 461.647L26.4926 460.976L26.5537 460.548L26.4315 460.182L25.5763 459.449L24.66 458.167L24.4156 457.434V456.579L24.1102 456.701L23.6826 456.823L23.255 456.762L23.1939 456.396V455.846L23.0717 455.724H22.0943L21.4223 455.907L21.0558 455.846L20.6893 455.541L20.4449 455.174L20.2006 454.869L19.6508 454.808L19.101 455.113L18.7345 455.724L18.4901 456.518L18.429 457.251L16.8408 458.411L16.6575 458.655L16.4743 458.594L16.0466 458.289L15.8634 457.983L15.619 457.251L15.4969 457.006L15.1914 456.762L14.214 456.274L13.9086 456.212L13.7864 455.785L14.3362 453.77L14.3973 453.098L14.1529 452.61L13.8475 452.488L13.5421 452.426L13.1144 452.243L12.9312 451.999L12.5647 451.449L12.3814 451.205L10.2433 449.617L9.57137 448.885L8.71615 447.541L8.28853 446.198L7.4944 444.732L7.0057 443.938L6.517 443.511L9.63246 441.74L10.9153 440.458L11.4651 438.748L11.7094 437.221V436.488L11.4651 435.756L10.8542 434.962L10.1212 434.412L9.57137 433.863L9.14376 432.824L9.20485 431.237L9.99898 428.367L10.3044 426.779L10.1822 425.924L8.83832 422.749L8.4718 422.199L7.92201 421.833L6.517 421.283L6.0283 420.917L5.66177 420.428L5.35634 419.94L5.90612 419.695L6.08939 419.268L5.84504 418.779L2.36305 417.497L1.93544 417.375L1.99653 415.726L1.87435 414.932L1.44674 413.284L1.38565 412.49L1.56892 411.818L2.30197 411.391L2.54632 411.146L2.66849 410.719L2.72958 410.291L2.79067 409.864L3.03502 409.498L3.76806 408.765L3.95133 408.459L4.01241 407.788L3.70698 407.605L3.34045 407.482L3.0961 407.238L3.03502 406.872L3.0961 406.566L3.21828 406.322L3.46263 405.834H3.03502L2.42414 405.712L1.87435 405.467L1.56892 405.04L1.38565 404.49L0.652605 403.819L0.347168 402.719L0.958042 403.025L1.81327 403.147L2.6074 403.086L4.19568 402.475L4.98981 402.353L5.5396 402.658L7.06679 404.063L7.4944 404.246L7.79984 403.819L7.9831 403.208L8.28853 403.025L8.9605 403.208H9.69355L10.4266 402.964L11.0986 402.536L11.9538 401.315L12.4425 400.887L13.9697 400.521L14.6416 400.155L15.1914 399.727L15.4969 399.178L15.619 398.872L16.1077 398.2L16.5353 398.078L16.7186 397.956V397.712L16.4743 397.346L16.4132 397.162L16.3521 396.918L16.5353 395.575L16.7186 394.903L17.024 394.292L17.0851 393.56L16.963 393.01L16.7186 392.582L16.291 392.216H16.0466L15.8634 392.399L15.619 392.521L15.2525 392.216L15.3136 392.033L15.3747 390.873L15.8023 389.346L15.8634 388.98L15.7412 388.43V388.064L15.8023 387.27L16.5353 385.194L16.7186 383.423L16.8408 382.812L18.1236 380.125L18.6734 377.377L19.1621 376.156L20.0784 375.118L20.2006 374.69V373.408L21.3002 373.53L22.2776 373.897L23.255 373.958L24.3545 373.408L25.6374 372.004L26.2482 371.637L27.2256 371.332L27.7143 371.149L28.0198 370.721L28.0809 370.538L28.142 370.355L28.0809 370.172L28.0198 369.988L27.7143 369.805L27.5922 369.5L28.0198 369.439L30.0968 369.866L31.0131 370.233L31.9294 371.026L35.3503 376.034L36.0222 376.828L45.3686 383.789L46.5904 384.949L47.6288 386.965L48.9728 388.308L50.1945 390.201L50.5 389.529L51.1108 387.331L51.4163 386.72L52.3937 385.804L52.8213 385.133L53.1878 383.728L53.4322 383.117L54.043 382.507L54.4096 382.385H54.8372L55.1426 382.324L55.5091 381.713L56.12 381.347L56.4254 381.041L56.7309 380.247L56.6698 378.66L56.792 377.927L57.2196 377.56L57.8304 377.499L60.0296 377.866H61.5568L62.2898 377.744L63.6338 377.316L64.2446 377.194L64.9777 377.377L65.5275 377.255L69.2538 377.316L70.2923 377.499L72.0638 377.377L72.6136 377.438L75.7291 378.721H76.0956L76.7676 378.599H77.073L77.806 378.965L79.15 379.881L80.0052 380.125H81.5324L85.8085 379.515L90.0846 379.881L91.4896 379.576L93.5666 378.293L94.2996 377.988L96.1323 377.622L105.295 377.255L104.868 375.118L104.257 372.675V371.576L104.807 370.538L107.067 367.851L107.8 367.363L108.655 367.79L108.777 369.011L108.289 371.637L108.044 375.118H115.741Z" fill="#009649" stroke="white" stroke-width="2" stroke-linejoin="round"></path>
<path class="region" data-country-region="South Region" d="M219.957 375.179L219.407 379.698L216.841 387.698L215.742 389.652L212.321 394.171L211.649 396.247L213.909 400.033L215.681 402.475L216.964 407.055L217.697 409.315V411.879L216.78 413.162L215.925 414.566L214.826 415.299L210.305 414.017L209.022 414.383L208.289 416.215L205.357 420.001L204.074 422.199L198.515 432.336L198.026 439.298L198.515 441.862L200.714 444.061L202.852 446.565L203.158 450.351L203.585 451.511L204.929 452.427L205.296 453.16L204.318 455.724L203.219 456.396L199.737 456.64L197.599 457.312L195.95 458.839L195.278 461.037L194.056 463.357V464.762L193.628 466.96L192.284 468.365L191.857 469.708L194.178 472.395L196.438 473.006H198.271L199.065 473.8L199.187 475.937L198.76 478.318L199.248 479.173L200.348 479.234L201.936 478.502L206.029 477.891L208.717 477.525L210.305 478.196L212.871 479.173L213.787 481.921L214.459 482.349L216.169 481.738L217.391 481.677L217.941 483.265L218.735 485.768L220.323 486.257L222.156 487.173L223.439 489.127L223.5 490.654L223.989 491.936V492.974L225.333 492.73L227.287 494.256L228.02 495.905L229.242 496.516L232.541 496.272L233.64 496.821L233.824 500.119L232.48 503.538L231.136 503.416L228.57 504.149L227.471 504.088L226.432 504.638L226.554 506.347L226.615 507.263L226.127 507.63L224.355 505.92L222.461 505.248L220.629 505.37L218.979 507.141L219.041 508.912L219.468 511.721L217.147 513.981L216.719 515.507L215.864 517.889L215.314 519.354L214.459 521.247L213.421 521.369L211.71 520.576L212.016 518.377L211.344 517.706L208.167 517.644L203.402 515.446L200.714 514.713L199.615 513.37L198.637 513.003L196.805 513.37L196.744 509.828L196.011 508.973L194.3 509.401L193.201 508.912L191.918 507.691V505.615L193.078 502.928L193.017 501.584L191.612 497.004L191.001 492.852L190.574 491.753L188.558 492.547L187.031 494.989L185.442 496.027L184.16 496.577L183.671 498.531L183.06 499.569L181.716 500.119L178.051 501.951L177.135 502.561L176.218 504.454L174.752 507.935L173.592 508.851L171.148 510.011L167.238 511.721L163.023 514.042L160.213 516.179L159.297 516.545L156.609 519.171L155.265 519.965L152.15 519.171L150.317 519.293L145.613 521.064L143.231 521.003L141.948 521.675L139.871 526.377L138.466 528.148L137.978 528.636L137.794 527.842L137.611 527.354L136.634 528.148L135.656 528.026L133.64 527.11L133.213 526.56L132.785 525.888L132.48 525.094L132.357 524.423L131.563 521.736L131.075 521.369L130.525 521.492L129.975 521.736L129.181 521.858L128.509 521.675L127.898 521.247L127.287 521.003L126.615 521.064L128.448 511.416V510.988L128.204 510.561L127.959 510.256L127.776 509.828L127.715 509.034L127.776 508.301L127.593 507.63L126.921 507.08L126.188 506.958L125.332 507.019L124.538 506.958L123.805 506.408L123.683 505.676L123.866 504.882L124.416 503.416V502.561L124.111 501.706L123.622 501.035L123.072 500.729L122.4 501.035H121.912L121.667 500.607L121.545 500.241L121.178 499.63L121.056 499.264L121.117 498.287L121.484 497.493L121.973 496.699L122.339 495.905L122.278 495.05L121.85 494.195L121.178 493.463L119.957 492.852L120.568 492.119L119.285 491.203L120.812 488.333L122.339 487.173L123.744 485.952L124.966 483.57L126.371 482.837L128.02 482.593L129.731 482.043L131.197 481.127L132.113 479.784L132.724 479.295L135.778 477.586L135.351 476.731L134.801 476.181L134.496 475.632V474.655L134.862 473.739L136.511 471.113L136.817 470.014V469.098L136.511 467.082V466.533L136.695 466.105L136.878 465.739L137.061 465.25L137.183 462.808L137.367 462.014L137.611 461.587L138.222 460.854L138.466 460.426L138.588 459.999L138.711 459.205L139.444 456.885L139.627 456.396L139.932 455.969L140.177 455.785L140.421 455.724L140.849 455.48L141.215 454.93L141.337 454.198L141.215 453.404L141.032 452.732L140.604 452.06L139.566 450.961L139.138 449.984L138.833 449.557L138.527 449.251L138.161 448.946L137.916 448.702L137.855 448.274L137.428 444.305L137.55 443.572L137.916 443.023L138.894 442.046L139.199 441.557L139.81 440.336L140.177 439.908L140.665 439.481L140.971 438.992L141.093 438.382V437.832L141.215 437.038L141.154 436.428L140.726 435.206L139.993 434.474L139.016 434.107H137.733L137 434.351L136.756 434.718L136.634 435.634L136.023 436.855L135.962 437.405L136.511 437.466L136.023 438.382L135.045 438.504L131.869 437.954L131.197 437.405L130.158 435.451L129.792 435.878H129.486L129.242 435.634L129.059 435.206L128.814 434.901L128.509 434.718L128.142 434.657L127.776 434.474L126.615 433.497L126.432 433.191L126.31 432.703L126.432 432.519L126.676 432.397L126.86 432.153L127.043 431.359L127.165 431.054L127.47 430.688L127.654 430.077L127.47 428.733L127.654 428.245L128.448 427.94L129.12 428.184L129.67 428.123L129.914 427.024L129.853 426.169L129.67 425.375L128.02 421.283H131.197L132.419 420.734L133.885 420.306L135.106 418.597L135.962 416.765L136.817 416.52L137.611 416.948L138.344 417.803L139.444 419.879L140.482 420.795L141.521 420.917L143.17 420.612L145.858 420.245L147.874 420.673L149.523 420.367L151.905 420.062L153.005 419.329L152.883 418.658L151.967 415.727L152.211 414.872L152.333 413.711L151.844 413.101L149.157 412.49L146.835 410.109L144.575 408.46L140.788 405.651L139.993 404.307L140.177 402.17L140.36 398.873L139.749 396.369L139.199 395.514L136.817 395.025L132.907 394.781L130.525 393.132L128.814 388.675L128.509 385.682L128.204 384.766L126.554 382.935L121.301 380.003L120.262 379.026L118.246 377.439L116.475 375.973L115.742 375.118H120.262H124.233H132.419L140.543 375.179H145.797H157.22H182.083H188.375H194.667H206.884H219.957ZM159.969 487.234L160.397 486.379L160.458 485.28L160.336 484.059L160.152 483.082L159.602 482.227L158.808 481.738L157.831 481.494L156.854 481.616L155.998 481.982L155.51 482.776L155.326 483.814L155.51 485.28L155.876 486.196L156.487 486.562L156.792 487.051L157.526 487.295L158.686 487.6L159.969 487.234Z" fill="#009649" stroke="white" stroke-width="2" stroke-linejoin="round"></path>
</svg>