<svg width="1050" height="540" viewBox="0 0 1050 540" fill="none" xmlns="http://www.w3.org/2000/svg">
<path class="region" data-country-region="East Region" d="M1037.24 187.683L1035.45 189.468L1033.35 190.308L1031.67 189.993L1029.04 188.418L1028.1 188.838L1026.31 190.728L1025.79 193.772V195.242L1026.21 196.817L1026.1 198.497L1025.05 200.386L1023.48 201.436L1021.27 200.281L1017.07 197.027L1014.86 195.977L1012.03 196.397L1008.87 197.867L1003.31 201.961L997.531 204.691L995.955 204.481L994.274 204.796L991.333 206.16L987.972 208.995L986.081 214.139L984.716 216.659L982.72 218.443L977.993 221.803L975.367 224.532L969.905 227.367L960.347 224.112L955.515 224.427L951.524 225.582L944.906 230.831L942.7 233.141L940.599 237.13L940.389 245.109L939.864 247.524L939.024 249.308L937.343 251.303L935.768 252.563L931.041 253.193L930.936 265.686L931.986 268.205L934.087 271.775L938.814 277.234L942.805 283.533L938.289 292.351L937.448 293.716L936.083 296.131L935.347 298.44L934.927 302.954L935.347 305.894L936.083 308.309L935.978 310.723L935.768 312.823L928.625 320.487L926.314 322.271L922.953 324.161L919.382 324.791L911.504 324.686L906.777 320.487L905.306 317.547L904.466 315.342L904.151 313.033L903.731 311.563L902.891 309.988L902.26 309.673L899.004 311.353L897.639 311.773H896.693L895.538 311.353L894.277 310.093L890.916 308.204L879.677 306.314L877.996 301.695L876.316 298.44L872.744 295.711H869.488L867.492 294.976L867.177 293.611L867.913 290.776L868.123 287.942L867.597 286.157L866.757 284.582L866.127 283.743L865.077 283.113L863.291 283.428L858.669 286.052L857.199 286.157L855.833 285.212L854.783 282.483L854.363 280.173L853.522 274.294L852.892 272.824L851.947 271.88L850.161 271.565L847.64 271.775L846.064 271.46L843.438 270.095L841.548 268.73L839.867 266.42L837.031 263.376L827.788 262.641L822.431 258.757L811.086 253.193L805.309 247.839L803.104 246.894L800.372 246.684L791.969 248.783H791.024L785.352 247.944L781.571 252.773L780.73 254.347L779.47 255.817L777.999 256.762L772.642 257.917L765.71 260.646L761.403 261.906H760.143L757.832 261.486L755.731 261.591L753 262.326L747.433 264.741L744.072 266.84L740.605 267.68L737.664 267.26L733.568 263.796L732.307 262.431L731.467 262.011H717.182L712.455 258.232L714.766 253.193L714.976 250.673L715.081 245.949L716.972 238.39L719.388 234.821L719.493 230.936L718.547 229.467L717.077 227.682L714.136 225.372L711.194 223.797L706.888 222.433L699.64 218.863L677.477 202.066L674.956 199.022L675.166 198.077L676.216 197.762L677.477 196.817L679.473 193.143L679.578 191.463L679.893 190.518L681.468 188.628L682.204 187.369V186.634L681.468 184.639L680.838 178.76L681.048 177.605L681.784 175.925L682.099 174.141L682.939 165.847L683.149 164.587L684.094 163.327L685.88 161.963L687.771 160.388L693.968 160.598L696.279 161.438L698.38 162.803L700.165 164.797L703.947 170.256L706.258 172.461L709.094 173.301L728.841 168.577L730.732 167.002L732.727 164.062L734.723 162.068L737.244 160.913L744.072 160.598L745.542 161.018L747.223 162.068L749.324 164.482L749.429 159.863L750.374 142.121L748.798 131.833L748.063 129.943L745.437 127.948L744.702 121.334L741.341 120.075L738.189 115.665L737.559 113.566V111.781L737.769 110.521L737.874 108.632L738.189 107.582L738.715 107.372L741.866 107.687L742.391 106.427L742.181 104.327L740.815 102.018L738.925 100.443L736.614 99.603L731.677 98.8681L727.265 96.5585L722.749 94.6688L714.136 92.6741L711.615 90.2595L711.299 89.6296L711.93 88.9998L712.56 83.6456V77.2417L712.98 71.6776L715.606 67.4783L722.854 61.0744L723.589 57.085L724.955 54.6704L725.48 52.0458L726.32 50.1562L728.316 49.3163L735.563 50.2611L742.601 53.2007L745.437 52.9907L747.013 49.3163L746.067 47.6366L745.227 44.5921L745.437 43.1223L746.488 40.4978L749.324 27.4799V21.7059L748.798 15.3019L748.903 9.3179L750.689 4.90863L750.584 2.80898L751.214 1.75915L754.26 1.33922L761.928 3.96378L772.642 4.80365L773.588 7.84814L774.218 10.6827L774.113 13.5172L773.272 16.4567L776.003 16.5617L786.402 13.7272L787.138 13.2023L789.028 10.9976L789.553 9.84282L789.869 7.00828L790.394 6.16842H791.444L792.705 8.05811L793.44 8.58302H799.847L802.893 9.52787L809.511 12.8873L815.603 14.987L818.544 16.6667L825.372 22.5457L836.716 26.955L847.325 33.044L850.476 33.7789H853.627L855.938 33.044L860.875 30.4194L862.03 30.1045H866.232L867.072 30.7344L867.597 33.254L868.228 34.3038L869.173 34.7237L871.799 34.9337L873.375 36.0885L874.32 36.5084L875.475 36.4034L874.11 38.2931L875.79 37.8732L877.366 37.9782L878.416 38.923L878.521 41.1277L880.832 40.4978L881.568 41.3376L881.778 43.8572L895.643 53.9355L902.891 57.085L915.6 56.3501L934.822 59.1847L937.868 58.6598L939.654 60.1295L940.389 60.3395L942.595 59.7096L944.066 58.3448L951.103 46.3768L953.414 44.802L957.406 45.327L958.876 45.222L961.292 44.1722L962.553 44.0672L963.813 44.4871L966.229 45.9569L974.422 48.3715L976.943 48.6864L979.569 49.7362L980.619 52.2558L981.145 55.3003L982.195 57.7149L983.981 58.9747L986.186 59.3946L991.333 59.1847L993.434 59.9195L998.476 63.174L1001 64.1189L1003.62 63.8039L1008.87 61.9142L1011.19 62.1242L1014.44 66.6384L1016.33 80.4962L1021.06 85.9553L1022.32 95.7186L1021.27 99.393L1019.06 101.808L1016.75 103.592L1015.81 105.587L1015.07 108.317L1011.4 113.566L1010.03 116.295L1009.51 119.235L1008.24 130.363L1007.3 133.197L1007.19 135.507L1007.61 136.767L1008.77 137.397L1011.5 137.712L1013.71 139.286L1015.18 140.861L1015.81 142.541L1014.65 145.69L1015.6 146.53L1016.54 148.735L1017.17 150.94L1019.48 152.199L1020.95 153.564L1021.79 153.879L1022.42 155.454L1022.32 158.813L1024.53 166.267L1025.16 169.941V174.456L1026.1 177.71L1029.57 181.489L1031.46 182.644L1033.66 182.959L1035.13 183.904L1037.24 187.683ZM957.091 150.835L953.309 144.221L952.574 143.276L948.267 142.856L947.742 144.431L946.692 145.375L944.276 146.005L939.444 148.42L930.201 154.404L929.465 155.559L927.89 157.029L926.734 157.763L924.949 158.288L923.163 158.498L919.802 156.924L918.751 157.973L917.491 160.073L917.071 161.648V163.432L918.121 165.322L919.172 166.477L920.222 169.102L918.961 174.981L920.117 176.975L920.957 177.92L921.482 179.285L923.163 180.125L931.566 180.86L935.242 180.23L938.814 180.125L940.705 181.489L943.225 182.644L944.486 182.959L947.532 183.064L949.003 182.014L949.738 181.28L950.578 179.495L951.734 178.55L953.729 177.92L960.137 177.605L969.695 179.39L966.754 173.091L965.809 170.151L966.439 164.587L967.594 159.548L967.069 158.288L966.019 157.238L965.494 154.614L965.074 153.039L963.603 151.464L962.868 149.785L961.502 148.42L958.876 148.945L957.616 151.359L957.091 150.835Z" fill="#009649" stroke="white" stroke-width="2" stroke-linejoin="round"></path>
<path class="region" data-country-region="East Region" d="M957.091 150.835L957.616 151.359L958.876 148.945L961.502 148.42L962.868 149.785L963.603 151.464L965.074 153.039L965.494 154.614L966.019 157.238L967.069 158.288L967.595 159.548L966.439 164.587L965.809 170.151L966.754 173.091L969.695 179.39L960.137 177.605L953.729 177.92L951.734 178.55L950.578 179.495L949.738 181.279L949.003 182.014L947.532 183.064L944.486 182.959L943.225 182.644L940.705 181.489L938.814 180.125L935.243 180.23L931.566 180.86L923.163 180.125L921.482 179.285L920.957 177.92L920.117 176.975L918.961 174.981L920.222 169.101L919.172 166.477L918.121 165.322L917.071 163.432V161.648L917.491 160.073L918.751 157.973L919.802 156.924L923.163 158.498L924.949 158.288L926.734 157.763L927.89 157.028L929.465 155.559L930.201 154.404L939.444 148.42L944.276 146.005L946.692 145.375L947.742 144.431L948.267 142.856L952.574 143.276L953.309 144.221L957.091 150.835Z" fill="#009649" stroke="white" stroke-width="2" stroke-linejoin="round"></path>
<path class="region" data-country-region="West Region" d="M428.536 391.77L428.956 395.654L430.006 397.229L431.897 398.699L443.661 402.583L444.817 404.263L444.712 406.362L443.031 410.562L442.401 413.501L442.506 415.286L442.926 417.281L443.871 418.96L445.237 420.745L446.392 423.055L449.228 425.679L450.594 426.624L452.274 428.514L453.43 430.613L454.06 433.448L454.375 436.072L455.32 439.327L456.791 441.322L463.093 448.041L471.286 459.589L472.127 461.163L471.706 462.738L470.761 463.263L469.606 463.053L464.774 459.379L463.303 458.854L461.728 459.064L456.161 461.478L443.871 463.368L440.93 464.838L440.51 468.302L439.88 470.717L438.829 473.551L434.313 482.58L433.682 484.155L433.472 484.05L426.645 483.315L418.662 484.365L416.666 484.155L414.355 483.105L410.154 480.165L402.696 478.905L397.024 476.596L392.297 472.397L389.671 465.993L388.516 461.583L386.205 460.114L383.369 459.694L380.533 458.539L378.432 456.859L378.117 455.494V452.87L378.432 450.56L379.377 447.726L379.272 445.311L378.012 440.902L375.911 439.327L370.134 439.117L368.243 438.487L366.668 436.282L365.092 434.603L363.516 433.868L360.26 433.238L358.895 432.713L360.89 430.718V428.829L359.945 426.939L359 424.734L358.159 420.01L357.634 417.701L356.689 415.706L358.159 412.241L366.458 407.517L369.399 403.528V400.798L373.18 398.804L385.47 393.135L393.663 385.261L395.973 384.211L398.81 383.686L402.066 383.791L406.792 382.846L410.469 382.951L414.46 384.316L418.137 384.631L420.763 385.261L423.179 386.521L428.536 391.77ZM418.872 284.163L422.338 290.357L425.174 292.981L430.111 296.236L431.372 297.705L431.792 298.65L431.057 301.17L431.162 302.849L431.687 305.264L434.418 311.983L434.733 313.348L433.787 315.657L432.842 317.232L430.111 320.697L428.641 323.111L425.805 329.41L424.859 330.88L423.704 332.14L422.548 333.294L421.078 334.134L419.502 334.869L412.78 335.499L410.364 336.444L409.629 337.494L408.578 339.278L407.318 343.058L405.952 345.262L404.272 346.942L402.486 347.887L399.86 348.832L395.448 349.462L393.348 349.357L391.457 348.832L388.411 347.047L386.73 346.732L384.734 347.047L379.903 349.987L364.567 355.551L360.365 355.341L358.37 355.761L354.588 357.755L354.903 361.85L353.013 369.828L352.697 372.768V376.547L353.013 378.752L353.643 380.852L354.483 382.111L356.794 384.001L357.844 385.051L359 387.885L359.42 389.88L359.84 397.439L359.735 398.384L357.424 398.909L343.454 406.152L333.685 406.677L327.593 408.777L321.711 411.926L316.984 415.706L310.787 416.651L309.211 417.701L306.585 419.905L305.01 420.22L302.384 419.275L297.972 415.916L295.346 415.706H293.245L285.998 414.236L282.636 414.551L278.645 415.706L277.385 416.441L276.019 416.651L274.759 416.441L273.603 415.706L272.133 414.026L271.187 413.501L268.771 412.871L267.406 413.186L266.25 414.131L265.2 415.706L260.473 420.325L256.272 420.01L251.965 418.015L247.133 416.861L237.47 418.54L227.911 421.585L225.495 423.055L216.567 431.978L215.412 434.393L214.046 441.532L211.42 447.726V450.56L211.21 451.61L210.685 452.24L209.109 452.87L208.584 453.5L205.433 458.749L203.542 460.743L201.546 461.058L199.236 460.219L194.509 459.799L192.093 460.114L187.471 461.688L186.106 461.793L184.74 461.163L182.429 459.169L181.169 458.539H179.803L177.177 459.274L175.812 459.169L171.82 456.964L170.245 456.439L167.409 457.384L165.938 457.279L165.098 455.494L165.728 454.549L168.774 452.03L169.405 450.665L168.039 448.67L157.535 442.266L155.434 441.742L153.018 442.056L139.048 445.836L133.376 445.206L128.86 441.637L128.544 437.332L130.225 430.508L129.49 427.149L128.334 425.679L123.608 421.9L120.772 417.281L119.301 415.706L118.566 415.286H117.095L113.104 417.491L109.637 421.48L107.222 426.099L107.116 429.879L103.755 430.088L101.024 429.354L98.8184 429.774L96.7176 433.343L96.0874 435.863L95.9823 437.542L95.6672 439.117L94.1967 441.112L88.2095 444.156L84.6381 445.206H83.6928L83.5877 444.576L81.0668 437.962L78.0207 432.818L77.7056 430.928L78.1257 429.144L79.9114 426.939L81.592 425.469L83.0625 423.37L83.9029 420.85L84.323 417.386L84.218 415.181L83.7978 412.346L83.6928 409.932L83.9029 406.782L85.4784 398.699L86.949 394.919L92.306 386.836L94.3017 381.796L94.6168 376.232L94.5118 374.238L92.8312 365.104L90.5203 359.33L99.4486 358.175L102.39 357.021L108.587 353.241L111.213 350.827L113.734 347.467L116.78 341.273L117.62 340.013L118.986 339.069L121.927 338.019L123.082 337.284L125.393 334.239L127.389 330.145L128.649 325.526V321.221L128.019 318.702L127.284 316.812L126.129 315.552L124.238 314.503L125.603 306.419L125.708 304.529L124.868 302.22L123.608 300.015L123.503 298.23L125.498 297.39L127.809 296.97L128.86 296.551L129.385 296.97L130.015 298.86L129.805 299.595L129.175 300.645L128.649 301.905L128.86 303.689L129.595 304.634L130.75 305.369L132.851 306.419L138.733 307.259L140.309 307.049L142.094 305.579L144.825 301.695L146.716 300.33L150.077 300.435L168.249 307.259L168.774 307.889L169.93 309.988L171.085 310.303L175.182 309.778L180.644 307.259L182.639 306.734L184.53 306.839L186.001 307.679L189.152 310.093L187.996 311.458L183.585 314.503L184.53 316.077L191.568 319.332L198.395 326.786L198.815 327.73L198.92 329.095L198.605 330.46L197.87 331.405L199.236 334.239L201.126 335.289L215.517 335.499L218.143 334.659L227.176 328.465L230.642 327.52L233.583 328.78L233.268 334.239L236.524 334.659L239.571 333.294L241.461 331.195L243.352 328.675L245.978 326.261L248.499 325.421L254.486 325.211L256.692 324.266L257.952 322.271L257.427 320.802L255.852 319.752L254.171 319.332L260.683 311.878L263.835 311.143L267.196 311.563L270.242 312.508L276.754 311.458L279.695 310.303L282.216 307.469L282.952 305.579L284.002 300.855L284.947 298.755L288.729 295.396L289.254 294.766L291.775 294.871L297.762 296.131H309.001L316.669 297.705L318.14 297.285L319.505 293.821L321.081 292.876L332.635 290.567L364.147 291.931L365.302 291.721L369.189 286.577L369.714 285.317L369.819 283.428L369.609 277.969L369.189 276.814L367.403 275.239L366.352 273.874L365.932 272.824L365.722 271.145L367.823 270.2L371.184 267.47L372.34 266.735L374.335 265.791L373.915 268.835L373.39 270.515L372.55 271.67L372.13 273.139L372.865 275.344L374.23 276.604L375.701 276.394L378.747 274.819L381.793 274.294L389.671 276.079L392.087 275.659L397.444 273.559L399.65 273.979L400.385 275.239L401.751 279.543L402.486 281.223L403.641 282.588L407.738 285.842L409.629 286.787L412.465 286.892L415.406 286.367L417.506 285.317L418.872 284.163Z" fill="#009649" stroke="white" stroke-width="2" stroke-linejoin="round"></path>
<path class="region" data-country-region="West Region" d="M90.5197 359.33L92.8306 365.104L94.5112 374.238L94.6162 376.232L94.3011 381.796L92.3054 386.836L86.9484 394.919L85.4778 398.699L83.9023 406.782L83.6922 409.932L83.7972 412.346L84.2174 415.181L84.3224 417.385L83.9023 420.85L83.062 423.37L81.5914 425.469L79.9108 426.939L78.1251 429.144L77.705 430.928L78.0201 432.818L81.0662 437.962L83.5871 444.576L83.6922 445.206L81.8015 445.101L75.9193 443.211L72.7681 441.427L67.5162 436.282L52.8107 431.558L49.3445 428.934L47.6638 426.414L47.3487 424.524L47.8739 422.425L48.189 417.7L48.7142 415.706V414.551L48.189 413.921L47.3487 414.026L46.8235 413.501L47.0336 411.192L21.089 403.003L18.7781 402.688L11.5304 403.528L9.0095 402.898L12.7909 398.069L13.7363 392.82L12.2657 387.675L9.0095 383.056L4.91298 380.642V378.857L6.27849 375.812L6.48857 374.448L5.2281 371.613L3.96763 369.828L3.3374 368.044L4.28275 365.209L1.97189 363.109L0.711426 361.22L5.12306 353.766L9.84981 348.097L10.375 346.627L11.0052 343.058L11.7405 341.273L16.9925 334.554L18.358 331.405L18.463 322.796L14.5766 319.332L9.42966 317.022L5.33314 310.828L8.58935 312.718L10.5851 313.243H12.6859L13.6312 312.718L15.3118 310.933L16.3622 310.618L17.2025 310.933L17.4126 312.718L18.2529 313.243L21.089 313.348L22.0343 313.243L22.7696 312.403L23.5049 309.778L23.925 309.043L25.6057 308.623L31.3828 309.043L29.7022 305.264L27.8115 303.584L29.4921 299.91L32.5382 296.34L34.534 295.291L36.5297 295.081L38.5254 295.816L40.101 297.495L40.6262 299.91L40.3111 302.429L40.8363 304.529L43.6724 305.999L44.7227 305.894L46.4034 304.844L47.1386 304.634L51.2352 306.209L55.3317 306.524L57.4324 306.104L59.1131 304.739L59.4282 308.099L60.8987 310.093L62.5794 311.773L63.8398 314.502L64.1549 316.917L65.6255 317.862L66.886 317.337L68.0414 316.287L69.617 315.552L76.4445 325.421L77.5999 327.835L76.9697 329.935L73.8185 332.455L75.3941 334.134L75.7092 336.339L75.8143 338.439L76.5495 340.433L77.915 341.693H78.8604L79.9108 340.853L81.6964 340.013L82.3267 340.118L83.7972 340.958L85.0577 340.538L86.7383 338.753L92.7255 337.599L95.2465 338.963L95.1414 342.638L92.7255 350.197L93.0406 352.716L92.7255 354.081L92.0953 354.711L90.3096 355.236L89.6794 355.656L87.8937 359.225L88.524 359.54L90.5197 359.33Z" fill="#009649" stroke="white" stroke-width="2" stroke-linejoin="round"></path>
<path class="region" data-country-region="East Region" d="M911.504 324.686L903.521 332.979L901 334.449L900.16 332.14L899.32 331.09L897.744 331.195L896.274 332.665L894.173 335.604L893.753 337.284L893.963 338.964L896.379 344.843L897.849 349.882L899.215 355.446L900.265 363.215L900.475 366.364L904.257 380.957V386.416L902.786 392.715L902.891 394.814L903.521 397.649L904.677 399.853L909.719 406.257L910.034 407.937L909.929 409.302L908.878 411.402L905.307 416.756L898.689 425.574L893.753 429.879L892.702 431.768L892.282 433.658L892.177 435.758L891.547 439.117L891.652 440.377L892.387 441.322L894.068 442.686L894.803 444.051L895.118 447.096L889.446 448.565L888.606 448.985L887.345 450.455L888.08 451.295L888.186 452.765L887.24 458.959L887.03 462.528L887.135 465.993L888.711 470.927L891.652 472.816L893.122 475.861L893.438 480.48L890.917 477.226L889.341 476.176L883.774 475.231L874.531 470.507L870.644 469.772L866.863 470.087L857.514 473.866L853.838 474.076L843.334 472.501L841.128 471.137L840.708 474.181V476.701L839.868 478.485L838.502 479.535L836.716 480.06L834.616 479.43L831.675 479.535L828.733 480.27L826.633 481.845L825.267 484.679L824.847 486.989L824.007 488.984L821.486 490.978L817.284 491.713L814.238 489.824L811.087 487.094L807.095 485.519L781.886 486.884L768.231 485.414L767.076 483.84L758.462 473.971L756.782 469.142L756.467 462.528L754.891 455.389L752.895 450.56L752.16 447.831L751.95 446.046L752.895 442.476L753.736 440.692L754.576 438.277L754.891 432.188L744.072 415.601L738.61 408.882L736.614 407.307L735.249 406.362L733.148 406.047L717.917 409.617L701.006 410.982L697.225 409.407L688.296 410.037L684.515 409.722L670.545 414.656L668.024 414.551L666.869 414.341L666.553 413.816L665.083 412.661L662.772 411.507L653.003 408.462L647.436 404.473L643.865 402.898L639.033 402.793L634.937 403.528L619.916 410.772L617.815 412.346L616.66 413.816L615.504 416.231L613.404 419.8L608.257 422.215L599.749 428.829L597.333 429.564L594.812 429.879L593.551 429.354L591.661 427.989L586.409 423.58L591.661 416.756L597.543 405.837L599.118 401.953L599.854 399.643L599.539 395.654L599.749 393.03L600.904 391.245L605.001 387.361L607.627 383.896L607.942 381.901L606.891 380.117L602.795 377.177L598.278 371.403L597.123 369.513L596.177 365.629L595.442 363.739L592.396 359.015L590.19 354.501L588.299 353.241L586.304 353.871L584.203 355.236L580.316 355.656L578.111 356.706L576.115 358.175L574.224 358.91L572.228 358.28L569.813 356.601L565.506 352.506L561.935 345.052L557.838 331.405L556.578 324.161L556.683 322.586L557.733 318.807L558.783 315.867L571.493 318.282L572.859 317.652L574.539 317.232L574.959 316.497L578.426 313.453L579.371 311.878L579.896 309.778V307.049L579.266 303.689L577.901 300.96L576.85 299.28L575.17 297.285L573.594 295.291L572.544 293.191L572.018 291.091L571.913 289.097L572.228 285.107L572.544 282.588L573.279 279.648L575.064 277.339L577.375 275.449L591.976 268.1L593.551 267.785L594.707 267.995L598.068 269.99L599.959 270.83L604.055 271.565L607.732 272.929L609.832 273.454L615.82 272.614L622.122 279.963L623.592 283.848L623.803 285.422L624.538 287.417L625.378 287.312L628.109 285.317L634.832 283.533L639.979 281.118L641.764 280.698L643.13 280.908L650.798 286.367L653.844 287.732L656.575 288.572L660.671 288.467L664.032 287.522L670.23 282.798L673.591 280.698L678.003 279.438L680.313 278.179L681.889 276.709L682.309 275.344L683.885 273.244L703.632 265.266L712.455 258.232L717.182 262.011H731.467L732.308 262.431L733.568 263.796L737.665 267.26L740.606 267.68L744.072 266.84L747.433 264.741L753 262.326L755.731 261.591L757.832 261.486L760.143 261.906H761.404L765.71 260.646L772.643 257.917L778 256.762L779.47 255.817L780.731 254.347L781.571 252.773L785.352 247.944L791.025 248.783H791.97L800.373 246.684L803.104 246.894L805.31 247.839L811.087 253.193L822.431 258.757L827.788 262.641L837.032 263.376L839.868 266.42L841.548 268.73L843.439 270.095L846.065 271.46L847.64 271.775L850.161 271.565L851.947 271.88L852.892 272.824L853.523 274.294L854.363 280.173L854.783 282.483L855.834 285.212L857.199 286.157L858.67 286.052L863.291 283.428L865.077 283.113L866.127 283.743L866.758 284.582L867.598 286.157L868.123 287.942L867.913 290.776L867.178 293.611L867.493 294.976L869.489 295.711H872.745L876.316 298.44L877.997 301.695L879.677 306.314L890.917 308.204L894.278 310.093L895.538 311.353L896.694 311.773H897.639L899.005 311.353L902.261 309.673L902.891 309.988L903.731 311.563L904.151 313.033L904.467 315.342L905.307 317.547L906.777 320.487L911.504 324.686Z" fill="#009649" stroke="white" stroke-width="2" stroke-linejoin="round"></path>
<path class="region" data-country-region="East Region" d="M895.118 447.096L894.803 444.051L894.068 442.686L892.387 441.322L891.652 440.377L891.547 439.117L892.177 435.758L892.282 433.658L892.702 431.768L893.753 429.879L898.69 425.574L905.307 416.756L908.878 411.402L909.929 409.302L910.034 407.937L909.719 406.257L904.677 399.853L903.521 397.649L902.891 394.814L902.786 392.715L904.257 386.416V380.957L900.475 366.364L900.265 363.215L899.215 355.446L897.849 349.882L896.379 344.843L893.963 338.964L893.753 337.284L894.173 335.604L896.274 332.665L897.744 331.195L899.32 331.09L900.16 332.14L901 334.449L903.521 332.979L911.504 324.686L919.382 324.791L922.954 324.161L926.315 322.271L928.626 320.487L935.768 312.823L935.978 310.723L936.083 308.309L935.348 305.894L934.928 302.954L935.348 298.44L936.083 296.131L937.449 293.716L938.289 292.351L942.806 283.533L938.814 277.234L934.088 271.775L931.987 268.205L930.936 265.686L931.042 253.193L935.768 252.563L937.344 251.303L939.024 249.308L939.865 247.524L940.39 245.109L940.6 237.13L942.701 233.141L944.907 230.831L951.524 225.582L955.516 224.427L960.347 224.112L969.906 227.367L975.368 224.532L977.994 221.803L982.721 218.443L984.716 216.659L986.082 214.139L987.973 208.995L991.334 206.16L994.275 204.796L995.956 204.481L997.531 204.691L1003.31 201.961L1008.88 197.867L1012.03 196.397L1014.86 195.977L1017.07 197.027L1021.27 200.281L1023.48 201.436L1025.05 200.386L1026.1 198.497L1026.21 196.817L1025.79 195.242V193.772L1026.31 190.728L1028.1 188.838L1029.04 188.418L1031.67 189.993L1033.35 190.308L1035.45 189.468L1037.24 187.683L1037.87 188.838L1039.65 190.728L1038.18 192.513L1037.55 194.612L1036.71 198.392L1038.92 200.176L1038.18 203.536L1041.33 205.216L1045.74 206.79L1049 209.73L1040.39 216.974L1041.86 218.653L1041.75 219.913L1041.12 221.173L1040.7 222.958L1039.13 224.217L1038.81 224.742L1038.92 225.687L1040.39 226.317L1040.6 226.737L1040.07 230.411L1039.23 233.036L1037.87 235.136L1035.66 236.92L1030.93 237.97L1029.15 238.915L1029.25 241.12L1030.09 242.065L1032.93 243.429L1034.08 244.164L1035.35 248.049L1036.29 249.308L1034.19 251.618L1034.4 255.187L1035.35 259.282L1035.56 266.001L1036.29 267.995L1037.45 269.57L1039.02 270.62L1036.19 271.88L1026.1 273.244L1015.28 275.974L1010.03 275.029L1008.04 269.675L1006.25 271.25L1003.52 275.554L1001.94 277.024L1000.79 277.339L993.015 276.079L991.544 275.134L990.073 273.559L988.918 271.46L988.498 269.36L987.763 267.47L985.977 266.211L974.948 261.906L969.171 261.276L964.129 263.481L963.394 265.476L963.604 268.205L962.868 269.99L961.713 271.04L956.146 273.979L954.57 275.449L953.625 275.974L952.995 275.869L951.524 274.294L950.474 275.239L948.478 278.703L947.218 280.173L949.738 281.643L957.406 284.792L961.188 283.953L970.221 287.627L974.843 286.892L977.784 288.257L980.2 291.406L981.355 295.606L980.62 299.49L982.931 300.855L984.821 302.744L985.872 305.369L985.767 308.519L984.296 311.038L980.305 312.718L978.729 314.503L979.254 322.691L972.217 328.15L957.406 334.974L955.726 332.245L953.94 330.985L952.259 331.51L950.789 334.029L951.209 341.798L950.894 342.428L949.528 343.373V344.528L949.843 345.262L951.524 346.312L955.621 355.026L956.251 358.385L955.306 361.115L953.31 362.9L949.108 365.209L949.528 368.779L947.428 373.188L947.953 376.547L948.688 377.282H950.999L951.944 378.542V380.327L950.789 383.791V384.946L952.575 386.101L957.301 383.896L959.507 384.106L961.188 386.521L960.557 388.935L957.406 393.135L954.465 394.919L953.625 397.859L954.675 400.483L957.406 401.428L958.982 402.268L959.507 403.318L958.982 404.368L957.406 405.418L951.209 407.937L949.528 409.512L953.52 409.932L955.411 410.667L957.406 412.451L958.037 414.656L955.411 415.286H951.839L949.528 415.706L949.003 416.336L947.533 416.231L944.487 413.921L941.545 413.606L935.978 414.236L930.831 413.186L928.941 413.501L927.68 415.706L927.05 418.75L925.895 419.695L924.529 420.01L923.164 421.165L922.849 422.425V424.734L921.903 426.204L920.958 426.939L918.122 428.199L914.655 430.718L913.08 432.398L908.038 439.222L906.252 440.902L904.047 441.952L895.538 446.991L895.118 447.096Z" fill="#009649" stroke="white" stroke-width="2" stroke-linejoin="round"></path>
<path class="region" data-country-region="West Region" d="M586.409 423.579L591.661 427.989L593.551 429.353L594.812 429.878L597.333 429.563L599.749 428.828L608.257 422.215L613.404 419.8L615.504 416.231L616.66 413.816L617.815 412.346L619.916 410.771L634.937 403.528L639.033 402.793L643.865 402.898L647.436 404.472L653.003 408.462L662.772 411.506L665.083 412.661L666.553 413.816L666.869 414.341L668.024 414.551L670.545 414.656L684.515 409.722L688.296 410.037L697.225 409.407L701.006 410.981L717.917 409.617L733.148 406.047L735.249 406.362L736.614 407.307L738.61 408.882L744.072 415.601L754.891 432.188L754.576 438.277L753.736 440.691L752.895 442.476L751.95 446.046L752.16 447.83L752.895 450.56L754.891 455.389L756.467 462.528L756.782 469.142L758.462 473.971L767.076 483.839L768.231 485.414L762.244 484.784L754.366 487.304L749.219 494.653L746.593 490.768L744.597 490.453L739.66 493.498L736.824 493.918L734.934 493.708L733.148 494.443L730.837 497.802L729.262 501.162L727.266 507.46L724.64 513.34L723.905 513.969L720.858 515.334L717.392 515.964L716.132 515.124L713.821 516.174L712.981 517.119L712.35 518.484L710.775 520.373L709.724 522.893L707.939 522.473L707.308 522.683L704.577 525.622L703.107 526.462L701.741 526.882L698.695 527.197L697.435 527.722L695.334 530.662L694.179 534.546L692.918 537.8L690.502 538.85L688.717 536.961L687.141 533.496L685.355 530.977L680.524 532.026L678.318 531.711L674.011 529.717L673.276 528.772L672.12 526.777L670.65 526.462L666.028 527.407L636.932 526.567L635.147 526.147L627.374 519.429L625.378 518.379L623.172 517.749L620.756 517.644L616.135 518.484L613.824 518.274L601.324 512.29L597.123 511.555L588.194 513.025L586.304 513.13L577.27 510.925L575.17 510.715L573.069 511.135L570.968 510.925L554.372 505.466L548.49 505.256L547.439 504.521L545.549 502.316L544.498 501.896L536.2 502.526L530.108 501.476L516.138 504.521L510.571 504.206L507.735 503.051L499.016 497.697L487.672 495.073L455.53 492.763L447.757 487.619L443.136 486.044L441.98 486.149L439.774 487.094H438.514L437.253 486.569L434.732 484.679L433.682 484.154L434.312 482.58L438.829 473.551L439.879 470.717L440.51 468.302L440.93 464.838L443.871 463.368L456.16 461.478L461.727 459.063L463.303 458.853L464.774 459.378L469.605 463.053L470.761 463.263L471.706 462.738L472.126 461.163L471.286 459.588L463.093 448.04L456.791 441.321L455.32 439.327L454.375 436.072L454.06 433.448L453.429 430.613L452.274 428.513L450.593 426.624L449.228 425.679L446.392 423.054L445.236 420.745L443.871 418.96L442.926 417.28L442.505 415.286L442.4 413.501L443.031 410.561L444.711 406.362L444.816 404.262L443.661 402.583L431.896 398.698L430.006 397.229L428.955 395.654L428.535 391.77L430.321 390.615L431.266 389.46L431.791 387.675L432.842 386.835L434.102 386.94L435.888 387.675L441.245 391.14L447.547 394.289L456.055 396.389L460.467 396.914L467.084 399.013L478.008 406.152L480.319 407.412L482.945 408.042L487.042 408.567L497.336 407.937L502.693 406.782L509.94 403.213L513.091 400.798L516.558 397.439L518.659 396.914L521.179 396.704L526.642 398.383L539.246 401.743L542.292 401.953L556.052 404.892L562.145 405.417L565.716 406.572L570.548 409.092L582.312 418.225L586.409 423.579Z" fill="#009649" stroke="white" stroke-width="2" stroke-linejoin="round"></path>
<path class="region" data-country-region="West Region" d="M558.783 315.867L557.732 318.807L556.682 322.586L556.577 324.161L557.837 331.405L561.934 345.053L565.505 352.506L569.812 356.601L572.228 358.28L574.223 358.91L576.114 358.175L578.11 356.706L580.316 355.656L584.202 355.236L586.303 353.871L588.299 353.241L590.189 354.501L592.395 359.015L595.441 363.739L596.177 365.629L597.122 369.514L598.277 371.403L602.794 377.177L606.89 380.117L607.941 381.901L607.626 383.896L605 387.361L600.903 391.245L599.748 393.03L599.538 395.654L599.853 399.644L599.118 401.953L597.542 405.838L591.66 416.756L586.408 423.58L582.311 418.225L570.547 409.092L565.715 406.572L562.144 405.418L556.052 404.893L542.292 401.953L539.245 401.743L526.641 398.384L521.179 396.704L518.658 396.914L516.557 397.439L513.091 400.798L509.94 403.213L502.692 406.782L497.335 407.937L487.041 408.567L482.945 408.042L480.319 407.412L478.008 406.152L467.084 399.014L460.466 396.914L456.055 396.389L447.546 394.289L441.244 391.14L435.887 387.676L434.101 386.941L432.841 386.836L431.791 387.676L431.265 389.46L430.32 390.615L428.534 391.77L423.177 386.521L420.761 385.261L418.136 384.631L414.459 384.316L410.468 382.951L406.791 382.846L402.065 383.791L398.808 383.686L395.972 384.211L393.661 385.261L385.468 393.135L373.179 398.804L369.397 400.798L369.503 398.279L366.246 397.124L359.734 398.384L359.839 397.439L359.419 389.88L358.999 387.885L357.843 385.051L356.793 384.001L354.482 382.111L353.642 380.852L353.011 378.752L352.696 376.547V372.768L353.011 369.828L354.902 361.85L354.587 357.755L358.368 355.761L360.364 355.341L364.566 355.551L379.901 349.987L384.733 347.047L386.729 346.732L388.41 347.047L391.456 348.832L393.346 349.357L395.447 349.462L399.859 348.832L402.485 347.887L404.27 346.942L405.951 345.263L407.317 343.058L408.577 339.278L409.627 337.494L410.363 336.444L412.779 335.499L419.501 334.869L421.077 334.134L422.547 333.295L423.703 332.14L424.858 330.88L425.803 329.41L428.639 323.111L430.11 320.697L432.841 317.232L433.786 315.657L434.732 313.348L434.417 311.983L431.686 305.264L431.16 302.85L431.055 301.17L431.791 298.65L431.37 297.705L430.11 296.236L425.173 292.981L422.337 290.357L418.871 284.163L423.598 279.858L426.224 278.599L431.16 277.339H436.097L443.765 279.333L446.181 279.018L444.71 282.588L446.916 285.317L450.488 287.627L453.219 290.252L449.437 292.141L447.757 296.866L448.492 301.905L451.853 304.634L453.954 305.054L455.319 305.474L456.475 306.419L462.672 313.348L469.395 318.492L470.97 319.122L473.281 318.072L474.646 317.967L476.012 318.702L477.588 320.067L479.058 319.962L480.108 319.122L483.995 314.503L483.89 312.823L482.84 309.358L482.734 308.099V304.634L483.05 304.109L484.31 300.75L484.205 300.54L484.1 295.921L484.52 296.131L486.726 293.191V292.666L488.407 288.572L488.722 288.152L489.037 285.632L489.142 283.218L488.722 280.593L487.671 277.654L484.94 273.034L483.26 270.935L481.579 269.675L479.478 269.36L476.012 270.83L473.911 271.25L466.243 269.78L464.038 267.47L467.504 262.011L468.029 258.127L468.764 256.447L477.693 242.17L476.957 241.54L474.016 237.13L469.395 226.317L467.084 224.008L465.928 223.378L463.197 220.543L459.836 218.548L458.786 216.869L457.945 214.454L460.781 213.404L467.189 211.515L468.869 210.465L470.235 206.475L471.915 205.111L474.541 204.376L480.319 204.061L483.785 204.481L487.146 206.475L491.243 210.78L492.503 211.62L497.965 213.509L503.217 214.034L511.095 213.089L520.443 208.785L524.645 211.83L527.271 213.404L528.426 214.874L528.321 216.449L527.061 217.919L525.17 218.443L523.174 218.233L519.393 217.184L518.448 217.289L517.712 217.919L517.292 218.863L516.767 220.648L516.452 223.063L516.137 228.837L516.242 231.566L516.662 234.191L518.448 241.75L518.973 243.534L520.233 245.214L522.439 246.684L547.228 252.248L550.485 255.187L548.804 257.392L546.598 257.812L541.136 258.022L540.191 258.757L539.981 259.702L541.031 261.906L543.132 263.376L545.968 264.636L549.434 265.056L550.38 266.945L551.115 268.73L546.073 284.268L548.384 288.257L548.699 290.042L548.384 292.141L547.543 293.716L545.443 297.285L544.707 300.015L544.917 303.059L546.073 305.789L550.905 310.828L558.783 315.867Z" fill="#009649" stroke="white" stroke-width="2" stroke-linejoin="round"></path>
<path class="region" data-country-region="East Region" d="M711.3 89.6296L711.615 90.2595L714.136 92.6741L722.749 94.6688L727.266 96.5584L731.677 98.8681L736.614 99.6029L738.925 100.443L740.816 102.018L742.181 104.327L742.391 106.427L741.866 107.687L738.715 107.372L738.19 107.582L737.875 108.631L737.77 110.521L737.56 111.781V113.566L738.19 115.665L741.341 120.075L744.702 121.334L745.438 127.948L748.064 129.943L748.799 131.833L750.374 142.121L749.429 159.863L749.324 164.482L747.223 162.068L745.543 161.018L744.072 160.598L737.245 160.913L734.724 162.068L732.728 164.062L730.732 167.002L728.841 168.577L709.094 173.301L706.258 172.461L703.947 170.256L700.166 164.797L698.38 162.803L696.279 161.438L693.968 160.598L687.771 160.388L685.88 161.963L684.095 163.327L683.149 164.587L682.939 165.847L682.099 174.141L681.784 175.925L681.049 177.605L680.839 178.76L681.469 184.639L682.204 186.634V187.368L681.469 188.628L679.893 190.518L679.578 191.463L679.473 193.143L677.477 196.817L676.217 197.762L675.166 198.077L674.956 199.022L677.477 202.066L699.641 218.863L706.888 222.433L711.195 223.797L714.136 225.372L717.077 227.682L718.548 229.467L719.493 230.936L719.388 234.821L716.972 238.39L715.081 245.949L714.976 250.673L714.766 253.193L712.455 258.232L703.632 265.266L683.885 273.244L682.309 275.344L681.889 276.709L680.313 278.178L678.003 279.438L673.591 280.698L670.23 282.798L664.032 287.522L660.671 288.467L656.575 288.572L653.844 287.732L650.797 286.367L643.13 280.908L641.764 280.698L639.978 281.118L634.832 283.533L628.109 285.317L625.378 287.312L624.538 287.417L623.802 285.422L623.592 283.848L622.122 279.963L615.819 272.614L609.832 273.454L607.732 272.929L604.055 271.565L599.959 270.83L598.068 269.99L594.707 267.995L593.551 267.785L591.976 268.1L577.375 275.449L575.064 277.339L573.279 279.648L572.543 282.588L572.228 285.107L571.913 289.097L572.018 291.091L572.543 293.191L573.594 295.291L575.169 297.285L576.85 299.28L577.9 300.96L579.266 303.689L579.896 307.049V309.778L579.371 311.878L578.426 313.453L574.959 316.497L574.539 317.232L572.859 317.652L571.493 318.282L558.783 315.867L550.905 310.828L546.074 305.789L544.918 303.059L544.708 300.015L545.443 297.285L547.544 293.716L548.385 292.141L548.7 290.042L548.385 288.257L546.074 284.267L551.116 268.73L550.38 266.945L549.435 265.056L545.969 264.636L543.133 263.376L541.032 261.906L539.981 259.702L540.191 258.757L541.137 258.022L546.599 257.812L548.805 257.392L550.485 255.187L547.229 252.248L522.44 246.684L520.234 245.214L518.974 243.534L518.448 241.749L516.663 234.191L516.243 231.566L516.138 228.837L516.453 223.063L516.768 220.648L517.293 218.863L517.713 217.918L518.448 217.289L519.394 217.184L523.175 218.233L525.171 218.443L527.062 217.918L528.322 216.449L528.427 214.874L527.272 213.404L524.646 211.829L520.444 208.785L511.096 213.089L503.218 214.034L497.966 213.509L492.504 211.619L491.243 210.78L487.147 206.475L483.786 204.481L480.319 204.061L474.542 204.376L471.916 205.111L470.236 206.475L468.87 210.465L467.189 211.514L460.782 213.404L457.946 214.454L457.631 212.249L455.53 207.63L445.866 197.552L444.606 195.452L443.346 193.038L442.715 190.308L442.925 187.473L443.766 186.004L445.551 185.794L446.392 185.374L448.387 182.329L448.913 181.594L454.375 177.815L456.16 175.715L458.681 171.726L459.942 170.361L462.043 169.311L469.605 167.737L469.5 167.317L471.601 165.532L476.013 163.117L481.16 158.183L483.365 156.609L497.651 150.939L516.558 147.58L521.179 144.955L534.624 133.197L536.515 129.943L537.565 124.484L538.826 122.069L539.036 119.865L538.826 113.986L539.036 112.096L539.771 110.206L541.557 106.217L541.977 104.222L541.662 102.437L540.402 100.443L539.876 96.6634L539.351 94.9837L540.086 93.5139L541.347 92.3591L545.864 90.6794L550.38 90.0495L564.666 94.0389L567.081 95.4036L569.287 96.9784L571.388 100.233L577.06 102.857L577.375 103.172L578.531 97.6083L579.686 95.1937L580.211 95.2987L583.047 94.8787L584.098 94.3538L585.253 93.304L585.883 92.2541L588.299 87.11L589.14 84.3804L589.56 81.4409L589.665 77.9765L588.93 71.2576L589.245 68.738L591.135 66.9533L589.35 66.1135L588.719 65.4836L587.249 62.649L586.514 62.859L586.829 60.8643L590.925 52.2558L596.492 53.7255L599.118 55.0903L601.639 57.085L604.58 59.6045L613.824 64.7487L615.084 66.0085L617.395 69.5779L618.235 71.2576L618.971 71.8875L620.756 72.8324L621.071 74.0922L620.756 75.4569L619.076 75.7719L618.13 77.7665L617.185 78.6064L617.815 81.4409L618.34 82.5957L620.756 85.6402L621.912 86.5851L626.533 88.5798L646.071 90.7844L659.726 95.6136L660.986 95.5086L662.037 94.9837L664.873 92.7791L672.015 89.7346L674.221 87.4249L677.267 79.2363L679.263 77.8715L682.519 81.7559L688.086 84.6954L689.662 85.0103L691.763 84.5904L695.859 82.5957L697.96 82.3858L698.8 83.2256L699.01 85.9552L699.431 86.7951L700.481 86.9L702.582 86.1652L703.527 86.3751L704.998 88.3698L705.838 90.2595L706.888 91.6243L709.199 91.8342L711.3 89.6296Z" fill="#009649" stroke="white" stroke-width="2" stroke-linejoin="round"></path>
</svg>