<svg width="484" height="575" viewBox="0 0 484 575" fill="none" xmlns="http://www.w3.org/2000/svg">
<path class="region" data-country-region="East Region" d="M429.038 301.451H428.092L426.2 302.397L424.309 305.233L423.363 306.179L422.417 309.016L421.471 309.961L419.58 310.907H418.634H417.689L416.743 313.744V316.58L418.634 317.526L421.471 318.471L429.983 323.199L432.821 326.982L433.767 327.927V328.873V331.709H432.821L431.875 332.655L430.929 333.601L428.092 338.328L425.255 342.111L421.471 344.002H411.068L398.773 348.73L392.153 353.457L390.261 354.403H387.424L379.858 351.566L380.804 356.294L379.858 358.185L375.129 360.076V356.294L373.238 355.349L368.509 354.403H367.563L366.617 351.566L365.672 350.621H364.726L360.943 351.566L356.214 349.675L352.431 345.893L348.648 344.002L343.919 346.839L345.81 347.784L350.539 352.512L351.485 355.349L346.757 354.403L342.973 353.457L338.244 354.403L336.353 355.349L333.516 357.24L330.678 358.185L325.95 359.131L324.058 361.022L323.113 362.913L325.95 364.804L327.841 368.587V372.369L325.95 375.206H325.004L322.166 373.314L321.221 372.369L318.384 368.587H317.438H316.492L315.547 369.532V372.369L302.306 371.423L293.794 365.75L290.956 364.804L290.011 363.859L288.119 360.076V359.131L282.445 358.185L273.933 359.131L272.041 358.185L270.15 357.24L267.312 358.185L265.421 360.076L262.584 361.022L257.855 360.076L255.018 361.968L254.072 365.75L253.126 368.587L252.18 371.423L249.343 373.314L247.452 374.26L224.753 377.097H222.861L224.753 373.314V370.478L220.024 366.695L219.079 367.641H215.295L211.513 363.859L208.675 361.968V359.131V357.24V355.349L207.729 353.457H211.513L220.97 349.675L222.861 348.73V347.784L221.916 345.893L226.645 337.383L227.59 336.437L230.428 329.818L232.319 330.764L235.157 329.818L237.048 327.927H238.94L246.505 331.709L249.343 330.764L252.18 327.927H255.018L258.801 328.873H259.746L261.638 327.927L263.53 326.036H265.421L270.15 326.982L280.553 332.655L284.336 333.601L285.282 332.655V329.818L284.336 327.927L283.39 325.09L280.553 322.254L278.662 319.417L277.716 313.744V309.016V306.179L276.77 302.397H274.878V304.288V306.179L273.933 307.125L272.987 308.07H272.041L271.096 309.016H270.15L266.367 307.125L267.312 306.179L268.258 304.288V302.397L270.15 300.506H271.096V297.669V296.723L272.041 295.778L270.15 293.887L269.204 292.941L267.312 291.05H266.367L264.475 290.104L261.638 289.159L260.692 288.213V287.268L261.638 286.322V285.376L262.584 283.485L257.855 279.703L256.909 278.757L257.855 273.084V271.193H263.53L273.933 269.302L275.824 267.411L279.607 257.955L285.282 251.336L289.065 247.554L296.631 245.663L300.414 243.771L305.143 239.989L307.98 237.152L312.709 230.533L314.6 225.806L316.492 221.078V217.295H318.384L320.275 220.132L323.113 224.86L324.058 225.806H325.004L328.787 224.86L332.57 221.078L336.353 219.187L338.244 220.132L339.191 222.023L340.136 223.914L342.973 225.806L343.919 226.751V227.697L345.81 231.479L346.757 233.37L348.648 237.152L349.594 239.044V240.935L347.702 245.663L342.973 247.554V249.445V250.39L342.028 252.282L341.082 256.064V257.955V258.901L342.973 261.737L345.81 262.683L347.702 268.356V271.193L349.594 272.138L350.539 273.084V274.03V275.921V276.866L351.485 277.812H352.431L353.377 275.921L355.268 274.975H356.214L364.726 276.866H372.292H374.183L376.075 274.975L379.858 273.084L383.641 274.03L384.587 274.975L390.261 284.431L394.045 287.268H396.882H401.611H405.394H407.285V288.213V290.104H408.231L412.96 289.159H413.905L415.797 290.104V291.05V294.832L414.851 297.669L427.146 300.506L429.038 301.451Z" fill="#009649" stroke="white" stroke-width="0.5" stroke-linejoin="round"></path>
<path class="region" data-country-region="South Region" d="M325.004 375.206V378.043H325.949H329.733L330.678 378.988L333.515 380.879L335.407 381.825L333.515 387.498L336.352 391.281L344.864 395.063L342.973 399.791V402.627V405.464L351.485 416.811L356.214 422.484L357.159 429.103L358.105 432.886L357.159 436.668L356.214 441.396V444.233L358.105 447.069L357.159 448.96V452.743L356.214 455.579L355.268 457.471L352.43 459.362L350.539 461.253L344.864 472.6L342.027 475.436L340.136 478.273L339.19 482.055V486.783L340.136 490.565L342.973 491.511L349.593 487.729L352.43 488.674H350.539L347.702 491.511L350.539 494.348L348.648 496.239L342.027 500.021L330.678 509.477L328.786 511.368L325.949 516.096L325.004 517.987H322.166L320.275 517.041L319.329 515.15L317.437 514.205L313.654 516.096L314.6 519.878L316.492 526.497V531.225L318.383 530.279L321.22 529.334L323.112 528.388H325.004L328.786 530.279L332.57 529.334L333.515 530.279L332.57 532.171L331.624 534.062V536.898L332.57 537.844L333.515 538.79L336.352 540.681L340.136 542.572V543.517L339.19 544.463V545.409L340.136 550.136V551.082L339.19 552.973L338.244 554.864H335.407L333.515 555.81L332.57 557.701V561.483V563.374L330.678 565.265H328.786V567.157L329.733 569.048L331.624 569.993V570.939V573.776H328.786H320.275L317.437 572.83H307.034L305.142 571.884L302.305 569.048H301.36L300.414 569.993L298.522 572.83H297.576H295.685L293.793 571.884L294.739 567.157V564.32H292.848L290.01 562.429L287.173 560.538L285.282 557.701V552.973L293.793 543.517L297.576 542.572V541.626L299.468 538.79L301.36 535.007L303.251 532.171L301.36 531.225H300.414L297.576 532.171L302.305 524.606L304.197 519.878L303.251 517.041V514.205L304.197 512.314H305.142L306.088 513.259L307.034 512.314L307.98 510.422L308.926 507.586L307.98 506.64V504.749H309.871H310.817H311.763L312.708 503.803L309.871 500.967L310.817 498.13L312.708 496.239L311.763 495.293L310.817 493.402L308.926 492.457L305.142 493.402L303.251 492.457L300.414 488.674L298.522 487.729H297.576L291.902 488.674H290.01L288.119 487.729L287.173 485.838L285.282 484.892L278.661 483.001L276.77 481.11L278.661 480.164L281.498 479.219H282.444H283.39L284.336 478.273L285.282 476.382L286.227 469.763L288.119 465.981L289.064 465.035L291.902 461.253L304.197 457.471L312.708 454.634L316.492 453.688L324.058 447.069L321.22 441.396L316.492 434.777L313.654 423.43L311.763 411.138H316.492L321.22 413.029H323.112L325.949 412.083L332.57 410.192H333.515L336.352 413.029L338.244 411.138V409.246V407.355L336.352 401.682L335.407 399.791L333.515 396.008L331.624 395.063L330.678 394.117L329.733 393.172L330.678 391.281L328.786 389.389L327.841 381.825L325.004 379.934H320.275L318.383 378.043L317.437 376.151V373.315L315.546 372.369V369.533L316.492 368.587H317.437H318.383L321.22 372.369L322.166 373.315L325.004 375.206Z" fill="#009649" stroke="white" stroke-width="0.5" stroke-linejoin="round"></path>
<path class="region" data-country-region="East Region" d="M422.417 195.548L419.58 197.439L421.471 199.33L420.526 201.221V203.113V204.058L421.471 205.949L425.254 208.786L418.634 212.568H415.797L417.688 216.351L418.634 220.133V222.97L419.58 226.752L421.471 229.589L425.254 230.534L434.712 232.425L441.332 235.262H445.115H447.953L450.79 234.316L452.682 233.371V231.48H453.627L461.193 243.772L463.085 249.446L462.139 257.01L459.302 262.684L458.356 265.52V269.303L460.248 274.03L461.193 275.922L460.248 276.867L454.573 279.704L453.627 281.595L450.79 286.323L447.953 288.214L443.224 291.051L440.386 293.887L437.549 299.561L435.658 300.506L429.038 301.452L427.146 300.506L414.851 297.67L415.797 294.833V291.051V290.105L413.905 289.159H412.96L408.231 290.105H407.285V288.214V287.268H405.394H401.61H396.882H394.044L390.261 284.432L384.587 274.976L383.641 274.03L379.858 273.085L376.075 274.976L374.183 276.867H372.292H364.725L356.214 274.976H355.268L353.377 275.922L352.431 277.813H351.485L350.539 276.867V275.922V274.03V273.085L349.593 272.139L347.702 271.194V268.357L345.81 262.684L342.973 261.738L341.081 258.901V257.956V256.065L342.028 252.282L342.973 250.391V249.446V247.554L347.702 245.663L349.593 240.935V239.044L348.648 237.153L346.756 233.371L345.81 231.48L343.919 227.697V226.752L342.973 225.806L340.136 223.915L339.19 222.024L338.244 220.133L336.353 219.187L332.57 221.078L328.787 224.861L325.004 225.806H324.058L323.112 224.861L320.275 220.133L318.383 217.296H316.492V213.514L314.6 205.949L313.655 202.167L312.709 200.276L319.329 196.494H321.221V197.439H324.058H325.004L330.678 195.548L334.462 193.657L332.57 189.875L329.733 188.929L325.004 187.038L323.112 186.092L324.058 185.147L325.004 184.201L325.949 182.31L325.004 177.582L323.112 171.909L322.166 170.963L320.275 169.072L314.6 164.344L305.143 158.671L309.871 156.78L311.763 157.725L315.546 158.671H317.437L321.221 155.834L322.166 154.889L323.112 152.997L324.058 152.052H326.895V151.106H327.841L329.733 153.943L330.678 154.889H331.624L336.353 155.834L338.244 152.997V152.052H339.19L341.081 151.106H342.973L348.648 148.27L355.268 155.834L356.214 156.78L357.159 158.671L358.106 160.562V162.453L353.377 166.235L349.593 168.127L348.648 170.018L353.377 181.364V182.31L354.322 183.256L355.268 184.201L357.159 185.147L359.051 183.256H359.997L361.888 184.201L365.672 187.038H366.617H372.292H373.238L374.183 188.929L376.075 189.875L377.966 192.711L378.912 193.657L379.858 196.494L381.75 197.439L384.587 196.494L385.532 195.548H386.478L387.424 196.494L388.369 197.439H389.316L390.261 196.494V195.548L392.153 196.494L397.827 198.385L396.882 192.711L397.827 191.766L398.773 189.875L405.394 187.038L408.231 186.092H410.122L419.58 189.875L420.526 191.766V192.711V194.602L422.417 195.548Z" fill="#009649" stroke="white" stroke-width="0.5" stroke-linejoin="round"></path>
<path class="region" data-country-region="North Region" d="M465.922 151.106V150.16L463.085 147.323L462.14 146.378L459.302 145.432L462.14 137.868V136.922L461.193 135.976L454.573 128.412L448.899 120.847L440.387 111.392L434.712 105.718L429.038 100.045L425.255 95.317L423.363 93.4259H419.58L411.068 96.2626V95.317L409.177 92.4803L405.394 86.8069L403.502 85.8613L402.556 84.9157L400.665 81.1334L398.773 78.2967H396.882L394.99 77.3512L391.207 75.46L386.479 80.1879L383.641 81.1334L382.695 83.0246L380.804 85.8613L379.858 87.7524L378.912 88.698L377.967 92.4803L377.021 93.4259V95.317L374.183 99.0993L373.238 100.045L371.346 99.0993L370.401 98.1537L365.672 95.317L362.835 94.3714H358.106H357.16L355.268 92.4803L354.322 90.5891L353.377 86.8069L354.322 82.079L355.268 79.2423L359.997 73.5689L360.943 71.6777L359.997 69.7866V67.8955L360.943 65.0588L362.835 62.222L363.78 59.3853V58.4398L365.672 56.5486L367.563 54.6575L368.509 53.7119L366.617 52.7663V50.8752L367.563 48.0385L366.617 47.0929V46.1474H364.726H362.835H361.888H360.943L359.997 44.2562H359.051L356.214 43.3106L355.268 42.3651L353.377 37.6372L354.322 35.7461L355.268 32.9094L366.617 31.9638L367.563 32.9094L370.401 34.8005H371.346H372.292L375.129 31.9638L394.045 27.236L423.363 22.5081L435.658 24.3992L438.495 25.3448L440.387 28.1815L445.115 45.2018L448.899 47.0929L449.844 48.9841L450.79 49.9296L454.573 51.8208L459.302 54.6575L462.14 53.7119L463.085 54.6575L464.031 55.6031L465.922 54.6575L466.868 53.7119H467.814V55.6031L466.868 56.5486V57.4942V59.3853V63.1676L470.651 65.0588L480.109 66.9499H481.055L482 73.5689V76.4056V80.1879L481.055 83.0246L479.163 87.7524L478.217 89.6436L479.163 92.4803V93.4259L480.109 94.3714V96.2626L481.055 111.392V118.956L480.109 125.575L477.271 132.194L466.868 148.269L465.922 151.106ZM389.316 1.70557L395.936 4.54228H394.99L394.045 6.43342L390.261 4.54228L387.424 3.59671V1.70557H389.316Z" fill="#009649" stroke="white" stroke-width="0.5" stroke-linejoin="round"></path>
<path class="region" data-country-region="North Region" d="M465.922 151.106L464.977 154.888L464.031 161.507L463.085 184.201L462.14 190.82L459.302 195.548L455.519 194.602L453.628 193.657L447.007 194.602L440.387 192.711H429.038L424.309 193.657L422.418 195.548L420.526 194.602V192.711V191.766L419.58 189.874L410.123 186.092H408.231L405.394 187.038L398.774 189.874L397.828 191.766L396.882 192.711L397.828 198.385L392.153 196.493L390.262 195.548V196.493L389.316 197.439H388.37L387.424 196.493L386.479 195.548H385.533L384.587 196.493L381.75 197.439L379.858 196.493L378.912 193.657L377.967 192.711L376.075 189.874L374.184 188.929L373.238 187.038H372.292H366.618H365.672L361.889 184.201L359.997 183.255H359.052L357.16 185.147L355.268 184.201L354.323 183.255L353.377 182.31V181.364L348.648 170.017L349.594 168.126L353.377 166.235L358.106 162.453V160.562L357.16 158.671L356.214 156.779L355.268 155.834L348.648 148.269L359.052 140.705L362.835 135.977L363.78 135.031L365.672 134.086H368.509H371.346L376.075 136.923L381.75 133.14L382.696 132.195L385.533 126.521L386.479 124.63L384.587 121.793L377.967 112.338V110.447L377.021 107.61V106.664V104.773L373.238 103.828L371.346 101.936H370.401L371.346 99.0997L373.238 100.045L374.184 99.0997L377.021 95.3174V93.4263L377.967 92.4807L378.912 88.6984L379.858 87.7529L380.804 85.8617L382.696 83.025L383.641 81.1339L386.479 80.1883L391.208 75.4604L394.99 77.3516L396.882 78.2972H398.774L400.665 81.1339L402.556 84.9161L403.502 85.8617L405.394 86.8073L409.177 92.4807L411.068 95.3174V96.263L419.58 93.4263H423.363L425.255 95.3174L429.038 100.045L434.712 105.719L440.387 111.392L448.899 120.848L454.573 128.412L461.194 135.977L462.14 136.923V137.868L459.302 145.433L462.14 146.378L463.085 147.324L465.922 150.16V151.106Z" fill="#009649" stroke="white" stroke-width="0.5" stroke-linejoin="round"></path>
<path class="region" data-country-region="West Region" d="M250.288 266.465H249.342H241.776L240.83 267.411L237.993 271.193L236.101 277.812L235.156 279.703L233.264 283.485V285.376L230.427 287.268L223.807 286.322L219.078 287.268L216.241 288.213L213.403 289.159L212.457 285.376L211.512 281.594L212.457 277.812L215.295 274.975L214.349 274.03L213.403 273.084L212.457 272.138L211.512 270.247V269.302V268.356L216.241 266.465H210.566L208.674 267.411L207.729 266.465L206.783 265.519H205.837L203 267.411H200.163H199.217L198.271 268.356L196.379 271.193L191.651 272.138L188.813 273.084L186.922 275.921L184.085 276.866L178.41 278.757L174.627 281.594L173.681 280.649L172.735 279.703V276.866L171.79 275.921L166.115 277.812L163.278 278.757L158.549 279.703L155.712 280.649L153.82 279.703L152.875 278.757H150.983V276.866L152.875 274.03V272.138V270.247L153.82 268.356L158.549 259.846L155.712 258.9L153.82 260.792L150.983 259.846L145.309 257.009L146.254 255.118L153.82 232.425L154.766 226.751V225.806L157.603 220.132L162.332 180.418L165.169 170.017V167.18L166.115 160.561L171.79 146.378L172.735 139.759V135.976L173.681 131.249L174.627 126.521L175.573 124.63L183.139 126.521L185.03 124.63L185.976 126.521L184.085 133.14L186.922 136.922L191.651 137.868H196.379L199.217 135.976L204.891 131.249L207.729 130.303H212.457L217.186 127.466L230.427 116.119L231.373 119.902L223.807 126.521L218.132 130.303L213.403 132.194L215.295 134.085L221.915 147.323L222.861 152.051V164.343L224.752 167.18L225.698 168.126L227.589 170.017L228.536 170.962L230.427 170.017L232.318 168.126L233.264 167.18H235.156H237.047L243.667 170.017L244.614 171.908V173.799L245.559 176.636V178.527L241.776 181.364L239.885 182.309L237.993 187.983L236.101 189.874L228.536 194.602L226.644 195.547H224.752L222.861 193.656L221.915 192.711L218.132 191.765L213.403 192.711L211.512 195.547L212.457 201.221L213.403 206.894L218.132 216.35L219.078 221.078L216.241 223.914L217.186 224.86V226.751H216.241L213.403 228.642L215.295 229.588L216.241 231.479L217.186 233.37L219.078 234.316L218.132 236.207L217.186 238.098L215.295 239.044H214.349L212.457 240.935L211.512 244.717L210.566 246.608L208.674 244.717V246.608L207.729 245.662H206.783L204.891 244.717V246.608H203.945V247.554L211.512 252.281L213.403 253.227L219.078 254.173L221.915 255.118L227.589 258.9L230.427 259.846L233.264 260.792L238.939 259.846H240.83L250.288 266.465ZM194.488 95.3169V96.2624H196.379L195.434 99.0992L194.488 102.881L190.705 107.609L185.03 112.337L182.193 118.011L177.464 119.902L173.681 118.011L170.844 112.337L171.79 106.664L174.627 100.99L177.464 95.3169L183.139 90.589L185.976 83.97L189.759 79.2422H193.542L194.488 82.0789L193.542 83.0245V83.97L195.434 86.8067L196.379 90.589V93.4257L194.488 95.3169Z" fill="#009649" stroke="white" stroke-width="0.5" stroke-linejoin="round"></path>
<path class="region" data-country-region="West Region" d="M178.409 278.758L180.3 281.595L181.246 283.486L184.083 284.431L190.704 289.159L189.758 290.105V292.941L190.704 294.833V295.778L189.758 296.724L186.921 294.833H185.029L181.246 299.56L183.138 300.506L185.029 301.452L186.921 309.016H192.596L191.649 309.962L186.921 312.798L182.192 318.472L183.138 320.363L188.812 319.417L189.758 322.254L187.867 323.2H185.975V324.145L186.921 326.036L190.704 330.764L193.541 335.492L194.487 334.547H197.324L198.27 333.601L202.053 329.819L205.836 327.928L211.511 328.873L212.456 327.928L214.348 326.036L215.293 325.091L218.131 324.145L219.077 323.2H220.968H221.914L223.806 324.145L225.697 326.982L226.643 328.873L229.48 329.819H230.426L227.588 336.438L226.643 337.383L221.914 345.893L222.859 347.784V348.73L220.968 349.676L211.511 353.458H207.728L208.673 355.349V357.24V359.131H205.836L199.215 358.186H196.378L191.649 361.968L187.867 362.914L181.246 363.859L177.463 365.75L175.571 369.533L173.68 372.369L167.06 379.934H163.277L160.439 380.879L154.765 383.716L150.982 384.662H146.253L133.012 382.771L129.229 389.39L124.501 393.172L117.88 395.063H112.206L107.477 396.954L104.639 396.009L101.802 394.117L98.9649 392.226L97.0733 394.117L96.1278 395.063V394.117V392.226L97.0733 390.335L98.0194 388.444L100.857 387.498L104.639 386.553L103.694 385.607L99.9105 383.716L91.399 380.879L89.5073 378.043V371.424L86.6702 367.641L83.833 364.805L80.0497 361.968L78.1581 363.859L75.3209 364.805H71.5376L69.6466 365.75L68.7005 366.696H66.8088L65.8633 361.022L69.6466 358.186L77.2125 356.295L78.1581 354.403H80.9952L84.7785 355.349L88.5618 357.24H89.5073L90.4529 356.295L92.3445 355.349L91.399 353.458L88.5618 348.73L86.6702 347.784V345.893V344.948L88.5618 342.111L87.6157 339.274L85.724 330.764L83.833 327.928L84.7785 326.036L85.724 325.091L91.399 326.036L96.1278 325.091L100.857 322.254L117.88 300.506L133.958 277.812L145.307 257.01L150.982 259.846L153.819 260.792L155.711 258.901L158.548 259.846L153.819 268.357L152.873 270.248V272.139V274.03L150.982 276.867V278.758H152.873L153.819 279.703L155.711 280.649L158.548 279.703L163.277 278.758L166.114 277.812L171.789 275.921L172.734 276.867V279.703L173.68 280.649L174.626 281.595L178.409 278.758Z" fill="#009649" stroke="white" stroke-width="0.5" stroke-linejoin="round"></path>
<path class="region" data-country-region="West Region" d="M250.289 266.465L252.18 268.356L257.855 271.193V273.084L256.909 278.758L257.855 279.703L262.584 283.485L261.638 285.376V286.322L260.692 287.268V288.213L261.638 289.159L264.475 290.104L266.367 291.05H267.312L269.204 292.941L270.15 293.887L272.041 295.778L271.096 296.723V297.669V300.506H270.15L268.259 302.397V304.288L267.312 306.179L266.367 307.125L270.15 309.016H271.096L272.041 308.07H272.987L273.933 307.125L274.878 306.179V304.288V302.397H276.77L277.716 306.179V309.016V313.744L278.662 319.417L280.553 322.254L283.39 325.09L284.336 327.927L285.282 329.818V332.655L284.336 333.601L280.553 332.655L270.15 326.982L265.421 326.036H263.53L261.638 327.927L259.746 328.873H258.801L255.018 327.927H252.18L249.343 330.764L246.506 331.709L238.94 327.927H237.048L235.157 329.818L232.319 330.764L230.428 329.818H229.482L226.645 328.873L225.699 326.982L223.808 324.145L221.916 323.199H220.97H219.079L218.133 324.145L215.295 325.09L214.35 326.036L212.458 327.927L211.513 328.873L205.838 327.927L202.055 329.818L198.272 333.601L197.326 334.546H194.489L193.543 335.492L190.706 330.764L186.923 326.036L185.977 324.145V323.199H187.869L189.76 322.254L188.814 319.417L183.14 320.363L182.194 318.471L186.923 312.798L191.651 309.961L192.598 309.016H186.923L185.031 301.451L183.14 300.506L181.248 299.56L185.031 294.832H186.923L189.76 296.723L190.706 295.778V294.832L189.76 292.941V290.104L190.706 289.159L184.085 284.431L181.248 283.485L180.302 281.594L178.411 278.758L184.085 276.866L186.923 275.921L188.814 273.084L191.651 272.139L196.38 271.193L198.272 268.356L199.217 267.411H200.164H203.001L205.838 265.52H206.784L207.73 266.465L208.675 267.411L210.567 266.465H216.242L211.513 268.356V269.302V270.247L212.458 272.139L213.404 273.084L214.35 274.03L215.295 274.975L212.458 277.812L211.513 281.594L212.458 285.376L213.404 289.159L216.242 288.213L219.079 287.268L223.808 286.322L230.428 287.268L233.265 285.376V283.485L235.157 279.703L236.102 277.812L237.994 271.193L240.831 267.411L241.777 266.465H249.343H250.289Z" fill="#009649" stroke="white" stroke-width="0.5" stroke-linejoin="round"></path>
<path class="region" data-country-region="South Region" d="M315.546 372.369L317.437 373.314V376.151L318.383 378.042L320.275 379.933H325.004L327.841 381.825L328.786 389.389L330.678 391.28L329.733 393.171L330.678 394.117L331.624 395.063L333.515 396.008L335.407 399.79L336.352 401.682L338.244 407.355V409.246V411.137L336.352 413.028L333.515 410.192H332.57L325.949 412.083L323.112 413.028H321.22L316.492 411.137H311.763L313.654 423.43L316.492 434.777L321.22 441.395L324.058 447.069L316.492 453.688L312.708 454.633L304.197 457.47L291.902 461.252L289.064 465.035L288.119 465.98L286.227 469.763L285.282 476.382L284.336 478.273L283.39 479.218H282.444H281.498L278.661 480.164L276.77 481.109L275.824 480.164L274.878 475.436L273.932 471.654L272.041 468.817L269.204 466.926H266.366L263.529 467.871L258.8 471.654L255.963 472.599L241.776 471.654L237.047 473.545L234.21 472.599V465.98L232.319 463.144L229.481 462.198L224.753 463.144L222.861 462.198L221.915 460.307L220.97 455.579L220.024 454.633L216.241 449.906L215.295 448.014V443.287L217.187 440.45V436.668L215.295 431.94L211.512 429.103H210.566H208.675V430.994L207.729 432.885L206.784 434.777L204.892 438.559L202.055 442.341L199.217 445.178L196.38 446.123L191.651 444.232L188.814 443.287H180.302L177.465 441.395L178.411 439.504H180.302L185.031 441.395L184.085 438.559L185.031 434.777L185.977 431.94V429.103L184.085 427.212L182.193 426.266L180.302 425.321H178.411L173.682 427.212L164.224 439.504L163.278 440.45H161.387H159.495L155.712 439.504L151.929 440.45H150.038L148.146 438.559V436.668L149.092 433.831V430.994L148.146 429.103H147.2H143.417L136.797 431.94L130.176 435.722L131.123 437.613V438.559L130.176 440.45V442.341L131.123 444.232L133.96 448.014L134.905 449.906L133.96 452.742L132.068 454.633L125.448 453.688L123.556 452.742L118.827 450.851H117.882V448.96L116.936 448.014L115.99 447.069V443.287L115.045 440.45L115.99 439.504V438.559V435.722L117.882 434.777L119.773 430.049L118.827 426.266L115.99 422.484L112.207 420.593H111.261L113.153 416.811V415.865V413.028L112.207 411.137V410.192L108.424 406.409V402.627L106.532 400.736H105.587L107.479 396.954L112.207 395.063H117.882L124.502 393.171L129.231 389.389L133.014 382.77L146.255 384.661H150.983L154.767 383.716L160.441 380.879L163.278 379.933H167.061L173.682 372.369L175.573 369.532L177.465 365.75L181.248 363.859L187.868 362.913L191.651 361.968L196.38 358.185H199.217L205.837 359.131H208.675V361.968L211.512 363.859L215.295 367.641H219.078L220.024 366.695L224.753 370.478V373.314L222.861 377.097H224.753L247.451 374.26L249.343 373.314L252.18 371.423L253.126 368.587L254.072 365.75L255.017 361.968L257.854 360.076L262.583 361.022L265.42 360.076L267.312 358.185L270.149 357.24L272.041 358.185L273.932 359.131L282.444 358.185L288.119 359.131V360.076L290.01 363.859L290.956 364.804L293.793 365.75L302.305 371.423L315.546 372.369Z" fill="#009649" stroke="white" stroke-width="0.5" stroke-linejoin="round"></path>
<path class="region" data-country-region="West Region" d="M110.316 450.851V451.797L109.37 456.525L108.425 458.416L103.696 465.035L98.0215 469.763L81.9434 477.327L76.2685 482.055L73.4314 483.001H59.2449H57.3533L55.4622 480.164V478.273V476.382L54.5161 473.545L52.6245 471.654L37.4925 466.926L33.7093 465.981L30.8721 466.926L26.1433 467.872H24.2516H22.3606L20.4689 469.763V471.654V474.491V476.382L14.794 477.327L11.0113 476.382L7.22805 475.436L3.44535 471.654L1.55371 466.926L2.49924 462.198V457.47L1.55371 448.96L21.4145 443.287L23.3061 441.396H25.1978L33.7093 446.124L46.0046 449.906L49.7873 453.688L52.6245 454.634H57.3533L62.0821 455.579H64.9199L77.2146 449.906L79.1063 448.015L80.0518 444.232L80.9973 442.341H83.8351L86.6723 443.287L88.5639 445.178V446.124L90.455 448.96L91.4011 449.906L93.2927 450.851H96.1299L97.0754 451.797L98.0215 452.743H102.75L104.641 449.906L105.587 448.96H107.479L110.316 450.851ZM111.262 420.593L107.479 419.648L101.804 417.756L99.9126 416.811L96.1299 417.756H94.2382L91.4011 415.865L80.9973 406.41L87.6178 402.627H91.4011H102.75L105.587 403.573L108.425 406.41L112.208 410.192V411.137L113.153 413.029V415.865V416.811L111.262 420.593ZM115.991 435.722V438.559V439.505L115.045 440.45L115.991 443.287V447.069L116.937 448.015L117.882 448.96V450.851H115.045V449.906L114.099 448.015L113.153 445.178V443.287V441.396L112.208 440.45L110.316 442.341L107.479 443.287H97.0754L94.2382 442.341L91.4011 440.45L84.7806 434.777L82.889 433.831L77.2146 432.886L75.323 434.777L71.5397 441.396L70.5942 443.287L68.7026 444.232L63.9737 445.178L62.0821 446.124H61.1366L60.191 445.178L56.4078 442.341L48.8418 438.559L44.113 433.831L42.2213 432.886L36.547 435.722H33.7093L27.0894 433.831L25.1978 432.886L23.3061 430.049L21.4145 426.267L19.5228 424.375L15.7401 420.593L13.8485 418.702V414.92L14.794 413.029L28.0349 405.464L61.1366 401.682H63.9737L65.8654 403.573L67.757 405.464L69.6487 407.355L70.5942 410.192L69.6487 411.137L67.757 412.083L66.8109 413.029V414.92L79.1063 415.865L84.7806 417.756L89.5094 422.484L91.4011 426.267L94.2382 432.886L96.1299 435.722H98.967L105.587 434.777L107.479 436.668L110.316 435.722H114.099H115.991ZM107.479 396.954L105.587 400.736H100.859L99.9126 399.791H98.0215L97.0754 397.9V396.008L96.1299 395.063L97.0754 394.117L98.967 392.226L101.804 394.117L104.641 396.008L107.479 396.954ZM84.7806 383.716L85.7261 385.607L87.6178 386.553L92.3466 388.444L95.1838 390.335V393.172L94.2382 395.063L91.4011 396.954L89.5094 397.9L80.0518 399.791H78.1602L73.4314 397.9L70.5942 396.008L69.6487 393.172L68.7026 390.335L66.8109 389.389L61.1366 386.553L60.191 384.662H59.2449L57.3533 383.716L54.5161 387.498L53.5706 388.444H47.8957H45.0585L44.113 385.607V378.988L48.8418 376.151L59.2449 374.26H61.1366L63.0282 375.206L75.323 376.151H78.1602L80.0518 378.043L84.7806 383.716Z" fill="#009649" stroke="white" stroke-width="0.5" stroke-linejoin="round"></path>
<path class="region" data-country-region="East Region" d="M312.708 206.894L314.6 216.35V220.132L312.708 225.806L310.817 229.588L307.979 233.37L305.142 237.153L301.359 238.098L297.576 239.044L291.902 241.88H289.064L287.173 242.826L284.335 246.608L282.444 247.554L280.552 248.499H278.661L275.824 250.391L276.769 257.01L275.824 261.737L272.986 265.52L268.258 267.411H260.691L256.908 266.465L249.342 260.792L245.559 257.955L237.047 255.118L235.156 254.173L229.481 255.118L226.644 253.227L225.698 251.336V248.499L223.807 244.717L226.644 243.772L229.481 239.989L237.993 236.207L242.722 230.534L252.179 226.751L257.854 222.023L262.583 220.132L264.474 218.241L267.311 210.677L268.258 209.731H271.095H272.04L277.715 204.058L279.606 203.112L287.173 200.275L289.064 198.384L292.847 202.166L312.708 206.894ZM305.142 158.67L314.6 164.344L320.274 169.072L322.166 170.963L323.112 171.908L325.003 177.582L325.949 182.31L325.003 184.201L324.057 185.146L323.112 186.092L325.003 187.037L329.732 188.928L332.569 189.874L334.461 193.656L330.678 195.547L325.003 197.439H324.057H321.22V196.493H319.328L312.708 200.275L310.817 198.384H308.925L291.902 199.33L290.01 198.384L289.064 197.439L286.227 191.765L284.335 189.874L282.444 187.037V178.527V170.017L284.335 165.289L286.227 159.616L289.064 155.834L292.847 152.997L296.63 152.051H297.576H300.413H301.359L304.196 155.834L305.142 158.67Z" fill="#009649" stroke="white" stroke-width="0.5" stroke-linejoin="round"></path>
<path class="region" data-country-region="North Region" d="M199.217 71.6776L196.379 74.5143L192.597 72.6232L197.325 65.0586L205.837 57.4941L214.349 52.7662L220.97 53.7118V55.6029H217.186L215.295 56.5485L212.457 57.4941L202.054 66.9498L199.217 71.6776ZM371.345 99.0991L370.4 101.936H371.345L373.237 103.827L377.02 104.773V106.664V107.609L377.966 110.446V112.337L384.586 121.793L386.478 124.63L385.532 126.521L382.695 132.194L381.749 133.14L376.074 136.922L371.345 134.085H368.508H365.671L363.779 135.031L362.834 135.976L359.05 140.704L348.647 148.269L342.972 151.105H341.081L339.19 152.051H338.244V152.997L336.352 155.833L331.623 154.888H330.678L329.732 153.942L327.84 151.105H326.894V152.051H324.057L323.112 152.997L322.166 154.888L321.22 155.833L317.437 158.67H315.546L311.762 157.724L309.871 156.779L305.142 158.67L304.196 155.833L301.359 152.051H300.413H297.576L296.63 151.105L287.173 148.269H285.281L283.39 149.214L280.552 151.105L279.606 152.051H276.769H274.877L272.04 149.214H271.095H262.583L258.8 148.269L255.962 145.432L255.017 144.486L254.071 143.541L253.125 142.595V139.759H254.071L255.017 138.813L255.962 136.922L257.854 135.976L258.8 134.085L257.854 130.303L259.746 128.412V124.63V121.793L257.854 118.956L258.8 117.065V114.228V111.392L257.854 110.446L255.962 108.555L255.017 106.664L254.071 101.936L243.667 109.5L231.373 119.902L230.427 116.119L242.722 104.773L244.614 102.881L246.505 100.99L252.18 100.045L255.017 98.1536L257.854 92.4801L260.691 78.2966L263.529 72.6232L268.258 66.9498L270.149 65.0586L274.877 63.1675L276.769 60.3308L279.606 57.4941L281.498 55.6029L284.335 54.6573L290.01 53.7118L294.739 49.9295L314.6 41.4194L318.383 38.5827L321.22 37.6371L329.732 33.8548L342.027 32.9092H355.267L354.322 35.7459L353.376 37.6371L355.267 42.3649L356.213 43.3105L359.05 44.2561H359.996L360.942 46.1472H361.888H362.834H364.725H366.616V47.0928L367.563 48.0384L366.616 50.8751V52.7662L368.508 53.7118L367.563 54.6573L365.671 56.5485L363.779 58.4396V59.3852L362.834 62.2219L360.942 65.0586L359.996 67.8953V69.7865L360.942 71.6776L359.996 73.5687L355.267 79.2422L354.322 82.0789L353.376 86.8067L354.322 90.589L355.267 92.4801L357.159 94.3713H358.105H362.834L365.671 95.3168L370.4 98.1536L371.345 99.0991ZM260.691 33.8548L255.017 35.7459L251.233 36.6915L233.264 45.2016L230.427 44.2561L228.535 41.4194L229.481 37.6371L237.047 35.7459L238.939 33.8548H241.776L258.8 30.0725L262.583 27.2358L280.552 23.4535L277.715 27.2358L273.932 29.127H267.311V31.9637L266.366 32.9092L260.691 33.8548ZM321.22 19.6713L326.894 22.508L314.6 25.3447H301.359H298.522L291.902 28.1814H289.064L287.173 24.3991L288.118 21.5624L290.01 19.6713L291.902 20.6168L321.22 19.6713ZM351.484 20.6168L348.647 23.4535V22.508V21.5624V20.6168L347.701 17.7801L350.538 14.9434L355.267 13.0523L359.05 12.1067L371.345 11.1611L375.129 12.1067V13.0523H373.237L351.484 20.6168Z" fill="#009649" stroke="white" stroke-width="0.5" stroke-linejoin="round"></path>
</svg>