<svg width="696" height="580" viewBox="0 0 696 580" fill="none" xmlns="http://www.w3.org/2000/svg">
<path class="region" data-country-region="South Region" d="M434.101 504.788L433.056 502.488L431.802 501.025L430.688 500.119L430.34 499.283L430.897 498.238L431.245 497.332L431.802 492.942L432.081 491.966L432.708 490.712L434.17 489.109L434.797 488.064L435.215 487.089L435.354 486.461L435.145 485.974L434.588 485.347L434.24 484.301L433.126 478.657L433.056 476.915V475.8L433.683 474.476L434.031 473.431L434.727 469.947L435.145 469.18L436.12 468.344L437.026 466.881L437.861 466.323L439.951 466.602L440.16 465.975L439.811 465.069L439.394 463.745L438.488 456.916V446.255L438.767 444.791L439.463 443.049L440.299 440.192L442.04 431.761L443.781 427.44L444.895 426.047L445.731 425.698L449.213 425.001L450.606 424.165L451.651 423.886H453.879L455.412 423.677L456.317 423.259L457.153 422.702L458.476 424.932L460.078 425.838L463.56 426.465L465.022 427.58L465.649 429.043L465.788 430.855L465.51 434.339L467.53 441.446L467.738 443.467L467.39 445.488L465.928 450.017L463.769 460.121L463.908 462.003L465.58 463.327L467.669 463.884L469.41 464.929L469.758 467.856L471.151 471.549L473.867 473.64L480.901 475.382L482.851 477.124L485.985 482.211L488.005 484.441L492.601 488.343L494.342 490.503L495.666 493.29L497.198 490.433L499.217 489.179L501.446 489.597L503.814 491.409L505.346 493.708L507.505 501.374L508.968 504.022L507.992 504.858L503.884 504.718L501.516 504.997L501.098 505.415L500.332 506.809L500.68 507.088L500.471 510.572L500.262 510.85L500.958 513.011L504.162 519.212L507.575 532.034L504.65 529.665L501.167 528.759L493.785 528.062L490.303 526.808L486.612 524.996L483.339 522.557L479.648 518.306L475.26 514.753L475.121 516.913L473.867 519.839L472.335 522.487L471.081 523.811L468.365 523.881L466.067 522.348L464.256 520.188L463.281 518.306L461.819 513.638L460.844 511.617L456.387 505.415L454.088 501.304L451.86 498.795L448.378 498.377L444.547 499.492L441.483 501.374L439.045 502.976L436.051 504.37L434.101 504.788Z" fill="#009649" stroke="white" stroke-width="2" stroke-linejoin="round"></path>
<path class="region" data-country-region="South Region" d="M196.268 572.659L194.945 573.983L192.786 573.913L190.905 573.565L189.303 572.45L188.189 570.29L189.303 570.011L189.861 569.593L190.905 568.478L190 566.875L190.418 565.9L191.741 565.551L193.552 565.76L195.432 567.015L196.407 569.872L196.268 572.659ZM210.963 552.242L210.893 551.894L207.968 546.598L207.62 546.458L205.739 546.598L205.252 546.319L205.391 545.204L204.904 543.88L204.695 541.859L204.346 541.093L203.371 543.741L203.441 546.598L204.346 551.545L203.859 553.845L202.745 556.144L199.889 560.255L198.357 561.858L196.686 562.694L194.457 562.973H191.323L189.582 562.694L188.816 561.997L188.259 561.092L187.214 560.255L185.96 559.907L183.732 559.837L182.757 559.35V560.255L185.543 561.788L187.98 564.227L188.677 566.527L185.96 567.572L181.643 567.293L176.698 568.408L174.26 568.478L172.519 567.642L171.614 565.76L171.405 563.879L171.544 562.973L171.126 562.625L170.778 560.883L170.221 560.255L169.176 560.186L168.132 561.022L167.505 561.161L166.669 560.952L165.485 560.395L164.371 559.419L163.257 556.284L162.003 554.89L159.357 552.869L157.198 553.775L156.501 552.103L157.128 549.664L158.869 548.409L159.914 547.364L161.307 545.065L162.421 542.486L162.978 540.605L165.137 537.469L170.151 536.006L181.016 535.518V535.239L184.568 533.149L187.632 530.431L188.259 529.595L188.677 528.55L189.582 526.599L191.532 523.463L192.159 522.139L192.298 521.024V519.352L192.925 517.261L193.9 515.101L194.666 514.195L195.571 513.707L198.287 513.916L199.889 513.707L200.795 513.359L202.954 511.965L214.236 502.349L215.42 506.809L215.35 520.676L214.445 527.017L214.514 528.062L215.907 539.211L215.977 541.929L215.838 543.88L215.42 545.065L214.305 547.364L211.868 551.197L210.963 552.242Z" fill="#009649" stroke="white" stroke-width="2" stroke-linejoin="round"></path>
<path class="region" data-country-region="South Region" d="M358.12 511.199L356.866 512.383L355.403 514.265L354.568 516.425L355.055 521.024L357.075 526.041L361.741 534.821L361.811 539.142L358.677 542.208L345.793 548.827L344.052 550.291L342.519 551.963L337.157 560.255L333.953 563.53L329.287 565.412L323.437 565.691L313.826 564.506L313.965 563.6L314.941 551.824L314.801 548.827L314.105 548.27L313.269 547.922L312.155 546.667L310.623 541.58L310.971 539.281L313.339 534.542L314.383 532.87L315.567 531.407L318.841 528.619L314.035 515.728L306.653 513.847L304.494 513.568L301.917 514.544L297.669 515.728L293.63 514.056L293.351 513.847L293.212 512.941L294.605 508.621L294.744 507.018L294.187 505.764L292.655 498.377L292.306 497.402L290.774 496.008L289.312 495.172L286.804 494.336L282.556 493.499L281.442 493.151L280.119 492.245L279.492 491.27L279.074 490.224L279.004 488.97L279.283 484.58L283.601 486.252L285.272 486.601L289.033 486.67L290.496 486.88L291.819 487.228L294.744 488.9L295.51 489.179L302.265 489.109L303.589 488.691L304.355 488.204L305.817 487.855L310.274 487.437L310.205 480.956L311.458 474.894L312.224 470.992L314.035 459.564L314.383 458.17L315.498 456.986L319.537 453.223L322.95 455.522L324.203 455.871L325.526 455.244L327.267 454.895L331.307 454.616L335.276 453.502L336.809 453.641L337.575 454.129L338.341 454.407L343.007 455.453L344.052 456.01L344.539 456.777L344.26 462.909L344.469 464.929L344.887 465.626L345.584 466.184L346.35 466.672L349.066 470.713L350.528 472.246L353.105 474.197L355.682 476.009L356.587 478.1V479.284L354.916 485.765L354.777 488.9L355.264 495.311L354.289 499.562L354.428 502.349L354.637 502.976L355.612 504.161L355.961 505.067L357.145 509.387L357.562 510.223L358.12 511.199Z" fill="#009649" stroke="white" stroke-width="2" stroke-linejoin="round"></path>
<path class="region" data-country-region="South Region" d="M132.335 557.816L133.241 557.886L134.146 557.12L134.494 556.493L135.121 557.05V558.095L134.564 559.071L133.937 560.604L133.101 561.719L131.708 560.813L128.992 556.632L128.087 554.472L128.574 552.66L130.316 551.963L131.848 551.754L132.614 552.033L132.823 553.008L131.569 554.82L131.43 556.144L131.639 557.189L132.335 557.816ZM127.042 535.518L127.808 535.727L128.644 535.657L129.341 535.866L129.619 536.842L130.176 537.33L131.36 537.539L132.335 538.166L132.405 540.117L130.664 540.675L129.132 541.441L127.878 542.626L127.042 544.646L125.928 543.741L125.301 542.138L125.023 540.744L124.744 540.117L124.883 539.769L120.705 538.166L118.685 536.563L117.153 534.612L116.735 532.661L117.989 530.849L120.635 529.943L122.794 530.571L124.605 532.034L126.137 533.706L126.415 534.124L126.694 535.1L127.042 535.518ZM89.8526 445L90.0615 445.558L91.524 444.303L92.7776 444.164L93.8223 444.93L95.4937 448.345L95.5634 449.808L95.4241 451.132L95.4937 452.874L96.1205 454.407L96.817 455.522L97.0259 456.498L96.3294 457.473L97.0259 459.285L96.9562 461.794L96.3294 464.233L95.4937 465.766L93.7526 466.672H91.6633L90.4097 465.975L91.0365 464.79L89.574 463.327L89.1562 460.539L89.2258 455.662L88.2508 449.948V446.603L89.2258 443.746L89.8526 445ZM95.2151 442.979L94.658 443.746L93.3348 443.676L93.1955 442.283L93.7526 439.147L92.5687 436.987L90.8276 434.478L90.1312 431.97L91.8723 429.949L94.1009 431.273L94.658 431.76L94.9366 432.457V433.084L94.658 433.572L95.2848 434.826L96.7473 437.056L97.3045 438.171V439.147L96.7473 440.122L95.2151 442.979ZM203.929 379.011L194.736 380.404L193.9 380.822L193.482 381.659L193.413 382.564V383.54L193.622 384.516L193.9 385.491L194.039 386.745L193.9 388.418L193.064 390.996L192.716 392.599L192.577 394.062L192.786 396.571L195.293 406.117L195.432 407.511L195.363 409.741V410.856L195.572 411.692L195.989 412.458L196.825 413.225L198.148 413.713L199.123 413.922L201.77 416.5L211.033 422.493L212.356 423.608L213.331 425.35L214.306 425.977L216.116 426.395L216.743 426.256L218.067 425.837L219.111 425.628L220.643 425.698L223.011 426.256L225.309 427.58L228.931 428.834L231.438 431.273V432.875L229.976 435.036L229.209 436.638V437.753L229.418 438.868L231.368 442.84L231.856 443.607L233.597 445.418L234.711 447.16L236.522 450.505L237.149 452.317L237.358 453.711L237.079 454.407L236.661 454.965L235.617 455.94L235.06 456.986L234.642 458.449L234.085 461.585L234.015 462.978V463.884L234.711 465.069L235.895 466.253L236.731 467.299L240.84 479.284L236.383 480.329L235.129 481.096L234.293 484.301L234.224 484.58L230.393 491.269L228.513 493.569L227.886 493.917L226.493 494.405L225.449 494.336L224.404 494.057L223.568 493.639L222.593 493.29L221.897 493.43L221.27 493.778L220.017 495.102L214.236 502.349L202.954 511.965L200.795 513.359L199.89 513.707L198.288 513.916L195.572 513.707L194.666 514.195L193.9 515.101L192.925 517.261L192.298 519.352V521.024L192.159 522.139L191.532 523.463L189.582 526.599L188.677 528.55L188.259 529.595L187.632 530.431L184.568 533.149L181.016 535.239V534.612L179.275 534.055L178.857 533.288L179.623 527.435L180.041 526.39L181.155 525.484L182.688 524.648L184.289 523.533L185.473 521.651L185.682 520.118L185.473 514.962L183.454 510.223L179.693 503.534L177.186 496.844L179.136 492.315L176.629 490.364L175.375 489.806L171.545 489.388L169.943 488.691L168.759 487.716L167.227 482.908L164.371 480.469L160.611 479.075L156.641 478.587L156.919 479.214L157.546 479.493L155.805 482.28H154.83L154.203 481.375L153.785 480.956L152.114 480.538V481.375L152.88 482.977L152.114 484.928L149.468 488.761L152.114 487.576L152.323 488.9L151.348 491.339L148.005 497.471L147.169 499.98L146.821 502.976L145.359 506.46L145.08 508.063L145.15 509.317L145.776 511.408L145.916 513.011L145.219 515.031L143.409 516.355L141.319 516.773L139.578 516.286L139.021 516.913L138.394 517.331L136.862 518.028L135.817 514.822L133.032 512.941L129.758 511.547L127.042 509.875L121.68 513.15L119.381 515.24L119.869 517.191L118.058 517.122L116.456 517.401L115.273 518.028L114.437 519.003L111.86 517.749L108.865 517.401L107.263 516.773L109.074 514.404L105.035 511.268L104.06 510.781L103.224 509.666L103.781 507.366L104.896 505.276L105.453 504.718L105.174 500.607L103.921 493.708L103.572 490.085L103.99 488.831L104.896 487.437L105.871 485.625L106.288 483.186L106.08 480.887L105.592 479.284L103.572 475.87L103.294 474.824L102.876 472.595L102.319 471.689L101.413 471.48L98.8366 471.41L98.2098 471.271L98.4884 469.807L99.9509 468.901L101.065 467.995L100.021 466.602V465.766L100.996 464.233L104.547 460.818L108.239 458.519L109.91 460.33H110.746L110.606 458.24L109.353 454.825L109.074 452.874L107.124 453.641L106.288 454.129L105.453 454.825L103.781 453.153L103.294 451.69L103.224 449.878L102.737 447.439L101.901 445.418L99.9509 442.631L99.1152 440.889L100.578 441.307L100.996 442.84H101.831L102.667 441.377L103.99 440.192L105.662 439.426L107.681 439.147L109.492 439.913L111.512 443.119L113.531 443.746L109.353 435.872L108.169 434.617L108.726 433.154L109.074 432.666H108.169L107.821 433.154L107.263 434.617L107.821 435.663L107.542 436.847L106.706 437.823L105.453 438.171L104.13 437.544L102.597 435.105L99.1152 433.363L98.2098 430.436L98.0705 427.092L98.2098 424.444L97.3045 425.35L97.7223 422.632L98.2098 421.587H97.0259L96.3294 421.169L95.4937 419.775L95.5634 424.444L95.3544 426.534L94.658 428.067H93.7526L92.2901 427.649L90.4794 428.067L88.6686 428.973L87.4151 429.949L84.699 426.186L87.4151 424.444L88.0419 425.28L90.0615 427.161H91.0365L90.549 425.837L89.1562 424.095L88.3204 422.632V417.127L89.8526 415.664L91.6633 416.221L93.8919 417.266L96.3294 417.127V416.082L94.7276 416.221L93.4044 415.873L92.4294 415.176L91.8723 414.27V413.364H92.8473V412.458L91.4544 413.016L91.0365 413.364H90.0615L89.9222 412.389L89.2258 410.577H88.3204V413.364L87.4151 412.458V415.246H86.5793L86.7883 411.552L87.4847 408.695L88.8776 406.605L91.0365 405.142L92.3598 404.515L93.4741 404.236L94.658 404.515L95.9116 405.49L97.583 406.257L99.3938 405.908L100.996 404.793L101.831 403.26H100.996L99.8116 405.002L98.0009 404.863L96.0509 403.678L94.658 402.354H93.7526L88.3204 405.142L87.624 404.305L86.7186 402.633L85.8829 400.682L85.6043 399.149L84.9079 398.034L81.8436 396.362L77.456 389.533H76.6203L78.5703 393.923L84.9775 400.752L86.5793 405.142L86.3008 407.372L84.699 411.343V413.364L86.0918 419.078L85.8829 421.447L84.699 424.444L84.4204 422.702L83.1668 420.332L82.8882 418.381L82.4007 417.545L80.1025 415.315L79.3364 414.27L81.2864 411.204L80.7989 403.539L79.3364 398.243L75.5756 392.529L70.0738 384.725L64.0148 373.018L62.7612 366.398L60.6023 361.729L59.8362 360.754H61.9255L90.758 362.844L95.9116 365.004L98.558 366.537L101.831 367.931L105.174 369.046L107.612 369.464H109.84L111.372 369.046L114.785 366.956L116.874 366.259L129.201 362.844L134.425 359.918L136.932 357.548L140.762 352.88L142.434 350.092L143.617 348.768L144.732 348.35H148.214L151.905 347.653L155.109 347.584L158.73 348.699L159.705 349.117L160.611 349.744L162.073 351.138L162.839 351.625L166.043 353.089L166.391 353.367L171.684 358.663L173.843 361.869L174.818 362.914L175.932 363.889L178.788 365.562L180.877 366.677L184.568 368.07L186.797 368.628L189.025 369.603L189.443 369.882L193.413 371.694L194.666 372.46L197.522 374.76L202.536 377.896L203.929 379.011Z" fill="#009649" stroke="white" stroke-width="2" stroke-linejoin="round"></path>
<path class="region" data-country-region="Central Region" d="M143.896 174.283L146.403 177.349L147.378 178.185L148.492 178.812L150.442 179.23L154.76 178.464L159.218 180.275L161.237 180.624L161.934 180.903L162.56 181.46L164.093 183.62L164.928 184.317L166.043 185.014L167.993 185.711L178.509 187.732L180.389 189.404L183.941 196.233L188.955 204.037L196.756 212.469L186.518 222.852L181.155 227.102L180.598 227.66L180.041 228.426L179.832 229.471L180.111 230.795L180.807 231.701L181.295 232.189L182.2 232.747L182.896 233.443L183.245 234.558L182.896 235.952L180.668 239.227L179.971 240.412L179.832 242.014V242.851L180.041 243.966L179.971 245.08L179.623 246.195L178.509 247.45L177.604 248.146L176.768 248.634L174.121 249.749L173.634 250.098L173.007 250.864L172.589 252.049L172.311 253.93L172.659 255.184L173.286 256.021L174.539 256.578L174.957 257.205V258.39L172.311 265.706L172.45 266.752L173.216 270.236L174.052 272.117L174.957 275.601L174.887 276.647L173.982 278.807L171.266 282.918L170.918 283.894L169.664 286.472L168.828 287.517L167.575 288.562L165.416 289.817L161.585 291.071L156.989 291.559L147.935 289.259L135.191 287.657L132.544 288.005L121.54 291.071L115.76 293.51L112.765 295.6L110.467 296.855L109.005 297.133L105.244 297.203L102.737 297.761L101.692 298.248L101.065 298.597L100.299 299.712L98.7669 300.408L97.4437 300.548L96.4687 300.618L94.7972 300.408L93.2651 299.781L91.4543 298.248L90.4097 297.203L89.1561 297.551L86.5793 300.478L85.1168 302.429L84.1418 303.056L77.0381 305.983L74.6006 307.377L72.6506 308.074L71.3273 308.422L70.0737 308.631L69.0987 309.188L66.7308 311.209L65.8255 311.627L64.9898 311.767L63.8755 311.558L62.8308 310.791L59.6272 309.537L59.4183 308.074L57.9558 306.332L53.7075 304.032L51.8968 302.151L51.5485 301.105L51.3396 298.806L50.8521 297.691L49.9467 296.785L46.6735 294.834L36.6448 284.66L32.7448 281.803L25.2929 279.295L24.5268 278.737L27.3125 277.831L46.1163 273.302L56.4236 266.891L58.304 263.407L58.9308 257.832V240.272L58.1647 232.119L56.6325 226.266L54.1254 221.876L50.9914 218.462L47.8574 216.789L44.7235 216.51L41.9377 217.486L39.2913 219.228L37.5502 221.737L36.8537 224.036V226.614L36.3662 229.471L35.1823 231.214L32.9537 232.05L31.2126 232.328H27.2429L23.7607 232.747V232.607L21.5321 231.283L20.2089 229.471L18.1196 225.221L12.1999 218.183L9.55342 213.654L2.51941 194.979L2.38013 185.432L3.21585 177.279L2.6587 167.036V166.687L6.28017 166.757L43.5395 169.823L47.161 174.771L52.3146 175.746H53.4289L56.2843 172.61L57.3986 171.008L59.4879 168.987L61.7165 171.217L65.8951 173.307L77.1774 176.234L85.8829 177L87.7632 176.373L105.174 171.008L111.79 170.172L113.392 170.729L116.247 172.541L119.799 174.213L123.769 175.049L143.896 174.283Z" fill="#009649" stroke="white" stroke-width="2" stroke-linejoin="round"></path>
<path class="region" data-country-region="North Region" d="M147.517 112.196L145.845 114.286L145.497 117.213L145.776 123.136L145.428 127.526L147.308 135.4L147.099 137.909L145.637 140.835L144.313 142.508L143.617 144.528L143.895 174.283L123.768 175.049L119.799 174.213L116.247 172.541L113.392 170.729L111.79 170.172L105.174 171.008L87.7627 176.373L85.8823 177.001L77.1768 176.234L65.8946 173.307L61.716 171.217L59.4874 168.987L57.3981 171.008L56.2838 172.611L53.4284 175.746H52.3141L47.1604 174.771L43.539 169.823L6.27963 166.757L2.65816 166.688L2.7278 165.085L2.65816 163.97L2.17065 162.785L0.777779 160.486L0.568848 159.022L3.00638 155.817L8.16 155.26L18.8155 156.165L26.7549 155.469L29.3317 154.632L35.4603 151.009L37.8978 150.312L33.2317 147.246L30.446 144.459L30.5853 141.602L34.8335 138.327L47.9962 131.846L51.1301 129.198L51.6176 127.874L51.8266 125.087L52.1748 123.763L52.8016 122.578L55.0998 119.652L56.1445 117.283L58.4427 109.896L60.8802 105.576L64.0838 102.37L71.6054 96.3777L73.5554 94.1479L74.0429 92.4058L73.9732 90.385L74.3911 87.2493L75.3661 85.1588L78.0822 81.1869L78.9876 79.0267L79.3358 76.3788L79.4054 73.9399L79.9626 71.7797L81.9823 69.6892L84.2109 68.644L89.0859 67.2503L91.3145 65.9264L92.8467 64.5327L94.6574 65.3689L100.786 69.8983L102.318 70.5951L103.641 71.8494L104.756 73.7308L105.87 76.7272L106.706 78.3299L107.89 79.3055L109.283 79.6539L115.69 80.4901L115.968 80.7688V82.0928L114.784 88.852L114.854 89.6185L115.55 89.6882L116.874 89.5488H118.406L120.077 90.9425L125.301 96.7958L128.992 92.1967L130.872 90.3153L133.936 88.2945L135.608 96.3777L135.747 96.7958L136.513 97.5623L144.383 103.903L145.358 104.879L147.169 107.945L147.517 112.196Z" fill="#009649" stroke="white" stroke-width="2" stroke-linejoin="round"></path>
<path class="region" data-country-region="Central Region" d="M428.878 195.675L433.126 213.375L433.474 213.723L435.285 215.465L436.399 216.998L437.444 218.74L437.862 219.716L438.001 220.552L437.792 221.597L436.887 223.897L436.747 224.594L436.817 225.639L438.21 234.907L438.488 235.743L439.533 236.51L440.508 237.485L441.205 238.461L441.483 239.227V240.272L441.065 241.178L440.16 242.293L439.672 243.617L439.951 244.662L441.483 246.126L442.388 247.589L443.224 249.331L443.503 250.307L443.572 251.143L443.503 251.7L442.946 253.094L442.737 253.442L442.388 254.906L442.667 259.365L442.388 261.944L443.921 267.518L444.199 270.515L448.239 282.5L451.721 298.457L426.788 301.175L426.092 301.314L424.142 302.429L422.401 304.102L421.774 304.52L421.008 304.799L419.754 305.147L418.919 305.008L417.874 304.659L415.854 303.684L413.347 302.081L411.745 301.384L410.074 301.175L405.547 301.663L401.159 316.645L400.184 318.456L399.697 318.875L398.583 319.432L397.329 319.362L396.633 318.805L396.145 318.178L395.449 316.993L394.892 316.366L394.404 316.157L393.429 315.878L391.131 315.669L390.295 315.321L389.25 314.484L387.857 313.997L384.027 314.136L382.913 314.066L381.241 313.788L380.266 313.857L379.222 314.136L378.177 314.206L376.088 313.927L375.113 314.275L373.163 315.808L371.491 316.575L371.073 316.854V317.551L371.422 318.665L374.486 323.404L374.834 324.728L374.973 327.585L379.361 337.619L379.709 338.525L379.918 339.919L379.64 340.476L379.152 340.825L378.038 340.615L374.765 338.037L371.352 338.386L369.472 339.082L368.775 339.152L367.8 338.804L366.268 337.549L365.92 337.41L357.214 336.644L353.105 335.389L350.459 332.463L349.693 332.045L348.996 331.905L344.121 331.626L343.146 331.696L341.405 332.532L338.271 335.111L336.182 332.95L334.58 329.815L334.302 328.979L333.675 326.4L336.043 325.494L339.734 321.522L340.569 320.268L341.127 319.153L341.823 317.411L341.893 316.296L341.545 314.833L341.405 314.415L340.569 313.997L339.246 314.066L335.903 315.948L335.207 316.018L335.694 313.091V312.115L335.346 311.279L332.212 305.774L331.446 303.823L330.541 302.151L329.914 300.618L329.984 299.433L330.819 295.113L323.019 293.44L309.369 287.239L304.494 285.845L303.728 285.915L300.942 286.472L298.644 287.448L296.833 288.632L294.744 289.538L292.028 291.071L291.053 291.977L290.705 292.953L290.147 293.998L287.989 296.855L282.556 296.367L280.328 295.949L278.865 295.461L275.035 292.534L253.445 273.72L247.038 265.916L250.381 263.755L251.565 259.644L252.261 258.32L257.763 252.049L259.435 250.794L262.778 248.983L264.867 247.519L268.488 245.847L270.717 244.453L272.179 243.199L273.294 240.272L275.104 233.304L279.631 225.43L279.84 224.594L280.049 222.434L280.258 221.597L280.606 221.319H281.303L281.999 221.528H283.114L283.531 221.11L283.671 220.343L283.462 216.859L284.506 205.083L285.064 202.992L285.412 202.086L285.83 201.529L286.596 201.111L291.262 199.369L292.376 198.742L294.048 197.348L294.744 196.372L295.789 193.794L308.394 186.826L312.921 185.014L317.309 183.69L325.387 183.899L337.993 186.408L339.246 186.826L340.082 187.453L340.221 188.498L339.873 189.543L338.55 192.261L337.784 194.839L337.157 200.971L337.575 206.267L338.062 208.985L339.246 211.702L340.5 213.375L342.032 214.699L345.027 215.744L352.757 216.511L365.572 210.1L374.695 202.156L375.67 201.041L377.411 198.323L377.968 197.696L403.876 179.37L406.94 178.255L424.699 168.778L424.978 179.091L424.699 182.296L425.395 186.826L428.878 195.675Z" fill="#009649" stroke="white" stroke-width="2" stroke-linejoin="round"></path>
<path class="region" data-country-region="South Region" d="M344.887 437.405L343.773 440.541L343.076 441.028L341.196 440.61L338.55 438.311L337.784 438.102L336.878 438.241L335.764 439.077L334.301 440.959L333.744 441.377L332.978 441.795L330.262 442.631H328.869H327.894L324.342 439.356L326.362 432.318L326.501 431.064L326.014 430.088L325.178 428.834L324.899 427.998L324.76 426.883V423.399L325.387 420.681L328.869 414.27L335.973 414.131L335.346 412.25L334.789 410.995L334.719 409.95L336.251 409.532L342.101 409.95L342.728 410.159L343.146 410.647L343.216 413.364L344.469 417.197L345.375 421.239L345.723 425.141L346.28 425.977L348.857 427.022L348.509 432.876L348.23 434.478L346.559 436.081L344.887 437.405Z" fill="#009649" stroke="white" stroke-width="2" stroke-linejoin="round"></path>
<path class="region" data-country-region="South Region" d="M373.372 400.682L373.72 402.424V403.539L373.511 404.375L373.023 405.351L370.307 409.462L370.168 410.159L370.307 411.274L370.586 412.458L371.143 413.991L370.586 416.012L367.8 421.029L368.148 422.353L368.497 423.19L371.073 427.928L371.7 428.764L372.675 429.6L379.222 433.154L388.763 441.168L390.643 442.283L391.758 443.676V446.742L388.763 448.415L387.649 449.39L388.345 455.104L391.061 465.975L391.2 469.598L390.086 472.664L385.838 477.333L384.097 480.12L382.216 486.88L379.222 494.127L378.525 497.82L378.595 501.583L380.545 515.38L367.73 512.941L365.85 512.314L364.388 510.293L364.039 508.551L363.273 507.993L360.418 509.457L358.677 510.711L358.12 511.199L357.562 510.223L357.145 509.387L355.961 505.067L355.612 504.161L354.637 502.976L354.429 502.349L354.289 499.562L355.264 495.311L354.777 488.9L354.916 485.765L356.587 479.284V478.1L355.682 476.009L353.105 474.197L350.528 472.246L349.066 470.713L346.35 466.672L345.584 466.184L344.887 465.626L344.469 464.929L344.261 462.909L344.539 456.777L344.052 456.01L343.007 455.453L338.341 454.407L337.575 454.129L336.809 453.641L335.277 453.502L331.307 454.616L327.268 454.895L325.526 455.244L324.203 455.871L322.95 455.522L319.537 453.223L325.178 445.767L324.76 445.209L323.298 445.07L312.851 445.349L309.299 444.094L307.28 441.168L309.299 424.374L309.787 418.8L313.757 409.323L314.732 403.818L315.637 402.285L316.891 400.891L318.144 399.776L319.398 399.219L320.164 398.801L320.86 398.313L321.417 397.616L321.766 395.944L321.696 390.578L322.601 386.955L324.482 383.261L325.178 382.634L327.128 382.146L329.287 381.241L332.003 385.77L332.421 388.209L332.351 389.184L332.491 389.951L332.909 390.369L333.605 390.23L334.162 389.672H334.789L335.903 390.857L338.41 391.414L339.246 392.25L339.803 392.32L341.544 391.484L342.241 391.275L343.355 391.414L343.843 391.066L344.4 390.369L346.42 385.212L346.907 384.516L347.464 384.028L348.3 383.889L349.414 384.446L349.971 383.958L350.528 381.101L352.966 381.659L357.005 387.373L361.95 389.881L362.786 390.717L362.995 391.484L362.786 391.972L362.229 392.32L360.627 392.529L360.279 392.808L360 393.296L359.791 394.341L359.93 396.64L360.07 397.337L362.646 398.522L373.372 400.682ZM344.887 437.405L346.559 436.081L348.23 434.478L348.509 432.875L348.857 427.022L346.28 425.977L345.723 425.141L345.375 421.238L344.469 417.197L343.216 413.364L343.146 410.647L342.728 410.159L342.102 409.95L336.252 409.532L334.719 409.95L334.789 410.995L335.346 412.249L335.973 414.131L328.869 414.27L325.387 420.681L324.76 423.399V426.883L324.9 427.998L325.178 428.834L326.014 430.088L326.501 431.064L326.362 432.318L324.342 439.356L327.894 442.631H328.869H330.262L332.978 441.795L333.744 441.377L334.302 440.959L335.764 439.077L336.878 438.241L337.784 438.102L338.55 438.311L341.196 440.61L343.077 441.028L343.773 440.541L344.887 437.405Z" fill="#009649" stroke="white" stroke-width="2" stroke-linejoin="round"></path>
<path class="region" data-country-region="South Region" d="M321.696 390.578L321.766 395.944L321.417 397.616L320.86 398.313L320.164 398.801L319.398 399.219L318.144 399.776L316.891 400.891L315.637 402.285L314.732 403.818L313.757 409.323L309.787 418.8L309.299 424.374L307.28 441.168L309.299 444.094L312.851 445.349L323.298 445.07L324.76 445.209L325.178 445.767L319.537 453.223L315.498 456.986L314.383 458.17L314.035 459.564L312.224 470.992L311.458 474.894L310.205 480.957L310.274 487.437L305.817 487.855L304.355 488.204L303.589 488.691L302.265 489.109L295.51 489.179L294.744 488.9L291.819 487.228L290.496 486.88L289.033 486.671L285.272 486.601L283.601 486.253L279.283 484.58L275.801 483.186L266.26 483.535L256.231 484.859L245.854 482.629L244.183 481.862L242.999 481.166L240.84 479.284L236.731 467.299L235.895 466.254L234.711 465.069L234.015 463.884V462.978L234.084 461.585L234.641 458.449L235.059 456.986L235.616 455.941L236.661 454.965L237.079 454.408L237.358 453.711L237.149 452.317L236.522 450.505L234.711 447.16L233.597 445.418L231.856 443.607L231.368 442.84L229.418 438.868L229.209 437.753V436.638L229.975 435.036L231.438 432.876V431.273L228.931 428.834L225.309 427.58L223.011 426.256L220.643 425.698L219.111 425.629L218.066 425.838L216.743 426.256L216.116 426.395L214.305 425.977L213.33 425.35L212.355 423.608L211.032 422.493L201.77 416.5L199.123 413.922L198.148 413.713L196.825 413.225L195.989 412.459L195.571 411.692L195.362 410.856V409.741L195.432 407.511L195.293 406.117L192.786 396.571L192.577 394.062L192.716 392.599L193.064 390.996L193.9 388.418L194.039 386.746L193.9 385.491L193.621 384.516L193.412 383.54V382.565L193.482 381.659L193.9 380.823L194.736 380.404L203.929 379.011L206.645 375.945L207.759 375.109L208.316 375.039L209.5 374.342L210.754 373.018L212.773 370.44L213.748 369.464L214.654 369.116L216.325 369.673L217.231 370.3L217.997 370.997L219.668 373.227L220.364 373.785L221.2 374.063H222.802L224.195 373.645L231.09 370.022L231.577 369.673L231.299 369.325L229.766 367.583L229.627 366.886L230.045 366.12L232.552 363.541L233.318 362.357L234.711 358.245L235.407 357.061L236.522 355.807L237.636 355.388L240.491 355.04H241.606L243.834 355.597L245.018 355.179L245.784 354.552L247.943 352.253L249.127 356.016L249.406 357.618V360.963L249.615 362.496L250.242 363.193L251.217 364.099L254.559 366.398L255.395 367.165L256.579 369.116L256.927 371.694L257.624 374.551L258.529 376.711L263.335 383.54L263.544 384.446L263.822 387.094L263.961 387.512L264.379 388.139L269.881 393.365L270.856 394.759L272.388 395.247L277.124 395.665L278.726 396.501L282.417 399.149L282.835 399.358L287.431 400.822L288.894 401.449L289.799 402.145L291.122 401.658L294.953 398.592L304.285 394.202L310.483 392.32L311.667 392.181L314.105 392.111L315.08 392.251L316.612 392.111L318.841 391.136L321.696 390.578Z" fill="#009649" stroke="white" stroke-width="2" stroke-linejoin="round"></path>
<path class="region" data-country-region="Central Region" d="M536.198 371.346L537.243 374.412L541.143 381.728L541.839 385.003L541.491 385.352L539.611 388.557L539.402 389.463L539.332 391.972L539.193 393.156L538.288 395.038L537.173 396.849L536.477 398.661L536.616 400.821L540.168 406.953L541.352 410.089L540.168 412.11H538.427L536.825 411.204L533.9 409.183L532.089 408.556L530.766 408.347L529.373 408.486L521.991 410.438L520.25 410.089L519.066 409.183L517.186 406.187L516.211 405.072L513.634 403.678L504.58 400.821L499.148 400.682L492.323 398.592L486.334 397.546L483.269 400.821L483.13 402.633L482.851 404.445L482.085 406.117L478.394 409.95L477.21 412.807L475.678 414.688L471.917 414.479L465.649 412.18L463.421 412.598L460.774 414.897L460.914 414.2L462.237 410.995L462.376 408.835L462.167 407.999L461.471 407.65L456.735 408.486L454.855 408.138L452.835 407.372L451.721 406.814L448.517 404.375L444.896 400.821L435.354 400.752L419.127 397.895L414.322 397.407L413.417 397.198L411.954 396.571L411.118 396.013L410.074 394.48L408.542 390.857L406.522 388L398.791 384.864L396.284 384.376L394.891 384.585L393.777 385.073L392.454 385.84L390.086 387.791L388.902 388.975L383.818 393.644L373.372 400.682L362.646 398.522L360.07 397.337L359.93 396.64L359.791 394.341L360 393.296L360.279 392.808L360.627 392.529L362.229 392.32L362.786 391.972L362.995 391.484L362.786 390.717L361.95 389.881L357.005 387.373L352.966 381.659L350.528 381.101L349.971 383.958L349.414 384.446L348.3 383.888L347.464 384.028L346.907 384.516L346.419 385.212L344.4 390.369L343.843 391.066L343.355 391.414L342.241 391.275L341.544 391.484L339.803 392.32L339.246 392.25L338.41 391.414L335.903 390.857L334.789 389.672H334.162L333.605 390.23L332.909 390.369L332.491 389.951L332.351 389.184L332.421 388.209L332.003 385.77L329.287 381.241L333.535 371.694L334.51 370.091L335.068 369.464L336.251 368.698L337.435 368.419L340.639 369.046L341.266 368.907L341.544 368.558L341.405 368.071L340.778 367.513L339.594 367.234L339.246 366.259L339.107 360.824L338.759 359.5L336.809 357.339L335.834 356.434L335.694 355.11L336.878 352.322L337.784 348.35L339.943 343.124L340.152 342.497L339.943 340.616L338.271 335.111L341.405 332.532L343.146 331.696L344.121 331.626L348.996 331.905L349.693 332.045L350.459 332.463L353.105 335.389L357.214 336.644L365.92 337.41L366.268 337.55L367.8 338.804L368.775 339.152L369.471 339.083L371.352 338.386L374.764 338.037L378.038 340.616L379.152 340.825L379.639 340.476L379.918 339.919L379.709 338.525L379.361 337.619L374.973 327.585L374.834 324.728L374.486 323.404L371.422 318.665L371.073 317.551V316.854L371.491 316.575L373.163 315.809L375.113 314.275L376.088 313.927L378.177 314.206L379.222 314.136L380.266 313.857L381.241 313.788L382.913 314.066L384.027 314.136L387.857 313.997L389.25 314.485L390.295 315.321L391.131 315.669L393.429 315.878L394.404 316.157L394.891 316.366L395.449 316.993L396.145 318.178L396.633 318.805L397.329 319.362L398.583 319.432L399.697 318.875L400.184 318.456L401.159 316.645L405.547 301.663L410.074 301.175L411.745 301.384L413.347 302.081L415.854 303.684L417.874 304.659L418.918 305.008L419.754 305.147L421.008 304.799L421.774 304.52L422.401 304.102L424.142 302.429L426.092 301.315L426.788 301.175L451.721 298.458L453.253 303.475L455.133 313.857L455.551 320.686L455.342 321.592L454.924 322.916L453.671 324.658L452.974 325.425L452.347 325.982L451.79 327.167L451.512 331.208L451.999 331.348L452.696 330.93L459.242 332.463L461.61 332.532L462.167 332.463L462.794 333.02L463.978 338.455L467.599 337.759L468.087 337.619L469.062 336.783L469.549 336.644L470.594 336.574L472.405 336.922L476.444 338.525L480.832 339.361L482.642 340.267L486.194 342.706L486.821 343.612L487.517 346.19L489.259 346.678L490.303 346.608L490.86 346.817L491.487 347.444L492.462 349.047L492.88 350.023L493.089 350.789L492.671 352.253L492.253 353.089L491.626 353.716L491.487 354.064L492.323 354.9L493.716 355.458L496.014 356.712L496.571 356.852L498.73 356.991L499.426 357.339L501.725 359.081L503.257 359.987L504.51 360.545L505.207 361.311L506.043 362.496L508.132 366.607L508.062 367.165L507.575 368.21L506.53 369.185L505.973 369.813L505.625 370.649L505.485 371.624L505.625 372.112L507.157 372.739H513.355L514.121 373.715L514.748 374.342L515.862 374.481L516.837 374.342L520.529 372.948L521.991 372.879L525.055 373.575L526.17 373.506L535.293 371.346H536.198Z" fill="#009649" stroke="white" stroke-width="2" stroke-linejoin="round"></path>
<path class="region" data-country-region="Central Region" d="M338.271 335.111L339.943 340.616L340.152 342.497L339.943 343.124L337.784 348.35L336.878 352.322L335.694 355.11L335.834 356.434L336.809 357.339L338.759 359.5L339.107 360.824L339.246 366.259L339.594 367.234L340.778 367.513L341.405 368.071L341.544 368.558L341.266 368.907L340.639 369.046L337.435 368.419L336.252 368.698L335.068 369.464L334.51 370.091L333.535 371.694L329.287 381.241L327.128 382.147L325.178 382.634L324.482 383.261L322.601 386.955L321.696 390.578L318.841 391.136L316.612 392.111L315.08 392.251L314.105 392.111L311.667 392.181L310.483 392.32L304.285 394.202L294.953 398.592L291.122 401.658L289.799 402.146L288.894 401.449L287.431 400.822L282.835 399.358L282.417 399.149L278.726 396.501L277.124 395.665L272.388 395.247L270.856 394.759L269.881 393.365L264.379 388.139L263.961 387.512L263.822 387.094L263.544 384.446L263.335 383.54L258.529 376.711L257.624 374.551L256.927 371.694L256.579 369.116L255.395 367.165L254.56 366.398L251.217 364.099L250.242 363.193L249.615 362.496L249.406 360.963V357.618L249.127 356.016L247.943 352.253L245.506 342.079L246.411 336.504L246.968 334.553L250.729 329.466L251.147 328.979L252.261 328.561L256.231 327.724L257.485 326.958L259.574 325.007L260.688 324.24L262.777 323.613L265.145 322.08L266.12 321.244L267.026 320.059L267.792 318.317L268.976 314.763L269.742 313.579L273.363 310.095L273.92 309.119L274.199 308.422L273.503 306.053L273.642 304.241L274.687 299.433L274.617 298.039L275.035 292.535L278.865 295.461L280.328 295.949L282.556 296.367L287.988 296.855L290.147 293.998L290.705 292.953L291.053 291.977L292.028 291.071L294.744 289.538L296.833 288.632L298.644 287.448L300.942 286.472L303.728 285.915L304.494 285.845L309.369 287.239L323.019 293.44L330.819 295.113L329.984 299.433L329.914 300.618L330.541 302.151L331.446 303.823L332.212 305.774L335.346 311.279L335.694 312.115V313.091L335.207 316.018L335.903 315.948L339.246 314.066L340.569 313.997L341.405 314.415L341.544 314.833L341.893 316.296L341.823 317.411L341.127 319.153L340.569 320.268L339.734 321.523L336.043 325.494L333.675 326.4L334.302 328.979L334.58 329.815L336.182 332.951L338.271 335.111Z" fill="#009649" stroke="white" stroke-width="2" stroke-linejoin="round"></path>
<path class="region" data-country-region="North Region" d="M227.817 48.5056L228.374 54.9164L228.861 56.0314L229.627 57.2857L231.438 58.4703L232.483 59.5155L232.761 60.3517L232.622 61.1879L232.135 62.0938L231.578 63.7661L211.242 72.8946L202.258 76.7968L197.313 80.0022L180.738 97.5623L178.927 98.8165L171.545 101.464L169.107 102.649L163.466 107.318L161.377 108.502L158.73 109.199L153.577 109.826L151.139 110.454L147.518 112.196L147.169 107.945L145.359 104.879L144.384 103.903L136.514 97.5623L135.748 96.7957L135.609 96.3776L133.937 88.2945L130.873 90.3153L128.992 92.1967L125.301 96.7957L120.078 90.9424L118.407 89.5487H116.874L115.551 89.6881L114.855 89.6184L114.785 88.8519L115.969 82.0927V80.7687L115.691 80.49L109.283 79.6538L107.89 79.3054L106.706 78.3298L105.871 76.7271L104.756 73.7308L103.642 71.8493L102.319 70.595L100.787 69.8982L94.6582 65.3688L92.8474 64.5326L101.831 56.7979L106.149 54.4287L108.796 53.5925L116.735 52.4079L126.555 49.3418H135.469L138.255 48.9934L140.553 47.9482L144.175 45.3002L146.125 44.7428L147.309 45.7183L148.284 46.3455L149.677 46.5545L150.652 46.1364L155.596 42.722L160.68 40.074L162.839 39.7256L165.207 40.5618L166.948 41.6767L168.898 42.0948L171.614 40.7012L172.38 39.6559L172.589 38.541L173.007 37.5654L174.261 36.7989L175.584 36.7292L176.907 37.0777L177.952 37.8442L178.788 38.6804L179.066 40.074L178.788 43.2794L179.206 44.5337L180.181 44.8821L184.707 45.2305L192.368 47.1817L194.875 47.4604L196.616 47.321L197.661 47.0423H198.775L200.656 47.6694L202.118 48.5056L203.372 49.5509L204.834 50.3871L206.784 50.8052L209.083 50.5264L209.779 49.6902L210.127 48.645L211.381 47.5301L218.485 47.112L222.036 50.178L226.563 49.1328L227.817 48.5056Z" fill="#009649" stroke="white" stroke-width="2" stroke-linejoin="round"></path>
<path class="region" data-country-region="Central Region" d="M24.5269 278.737L23.2734 277.762L22.2983 275.602L22.0198 272.745L22.1591 269.888L22.7859 267.797L24.4573 266.334L25.7805 262.083L25.9198 260.759L25.6412 259.087L25.0841 258.181L24.4573 257.345L23.6912 255.951L22.8555 253.164L22.2983 248.007L21.6716 244.871L20.8358 243.408L20.418 241.875L20.6269 240.481L22.0894 238.879L22.2983 238.321L22.0894 237.834L20.9751 236.788L20.7662 236.231L20.9751 235.673L21.6716 235.186L22.5769 234.698L23.2734 234.14L23.6912 233.444L23.7609 232.747L27.243 232.329H31.2127L32.9538 232.05L35.1824 231.214L36.3664 229.472L36.8539 226.615V224.036L37.5503 221.737L39.2914 219.228L41.9379 217.486L44.7236 216.511L47.8576 216.789L50.9915 218.462L54.1255 221.876L56.6327 226.266L58.1648 232.12L58.9309 240.272V257.832L58.3041 263.407L56.4237 266.891L46.1165 273.302L27.3127 277.831L24.5269 278.737Z" fill="#009649" stroke="white" stroke-width="2" stroke-linejoin="round"></path>
<path class="region" data-country-region="Central Region" d="M247.037 265.916L253.445 273.72L275.034 292.534L274.616 298.039L274.686 299.433L273.641 304.241L273.502 306.053L274.198 308.422L273.92 309.119L273.363 310.094L269.741 313.579L268.975 314.763L267.791 318.317L267.025 320.059L266.12 321.244L265.145 322.08L262.777 323.613L260.688 324.24L259.573 325.007L257.484 326.958L256.23 327.724L252.261 328.56L251.146 328.978L250.729 329.466L246.968 334.553L246.411 336.504L245.505 342.079L247.943 352.252L245.784 354.552L245.018 355.179L243.834 355.597L241.605 355.04H240.491L237.636 355.388L236.521 355.806L235.407 357.061L234.711 358.245L233.318 362.356L232.552 363.541L230.044 366.119L229.627 366.886L229.766 367.583L231.298 369.325L231.577 369.673L231.089 370.022L224.194 373.645L222.801 374.063H221.2L220.364 373.784L219.668 373.227L217.996 370.997L217.23 370.3L216.325 369.673L214.653 369.116L213.748 369.464L212.773 370.44L210.753 373.018L209.5 374.342L208.316 375.039L207.758 375.108L206.644 375.945L203.928 379.011L202.535 377.896L197.521 374.76L194.665 372.46L193.412 371.694L189.442 369.882L189.024 369.603L186.796 368.628L184.567 368.07L180.876 366.677L178.787 365.562L175.931 363.889L174.817 362.914L173.842 361.869L171.683 358.663L166.39 353.367L166.042 353.089L162.838 351.625L162.072 351.138L160.61 349.744L159.704 349.117L158.729 348.699L155.108 347.584L151.904 347.653L148.213 348.35H144.731L143.617 348.768L142.433 350.092L140.761 352.88L136.931 357.548L134.424 359.918L129.2 362.844L116.874 366.259L114.784 366.956L111.372 369.046L109.839 369.464H107.611L105.173 369.046L101.83 367.931L98.5572 366.537L95.9108 365.004L90.7571 362.844L61.9247 360.754H59.8354L58.0246 358.524L51.2692 348.072L50.2942 342.706L53.2889 320.686L53.9157 318.178L55.3085 315.599L58.7211 312.603L59.8354 310.722L59.6264 309.537L62.83 310.791L63.8747 311.558L64.989 311.767L65.8247 311.627L66.7301 311.209L69.098 309.189L70.073 308.631L71.3266 308.422L72.6498 308.074L74.5998 307.377L77.0373 305.983L84.141 303.057L85.116 302.429L86.5785 300.478L89.1553 297.552L90.4089 297.203L91.4536 298.248L93.2643 299.781L94.7965 300.409L96.4679 300.618L97.4429 300.548L98.7662 300.409L100.298 299.712L101.064 298.597L101.691 298.248L102.736 297.761L105.243 297.203L109.004 297.133L110.466 296.855L112.765 295.6L115.759 293.51L121.54 291.071L132.543 288.005L135.19 287.657L147.935 289.259L156.988 291.559L161.585 291.071L165.415 289.817L167.574 288.563L168.828 287.517L169.663 286.472L170.917 283.894L171.265 282.918L173.981 278.807L174.887 276.647L174.956 275.602L174.051 272.117L173.215 270.236L172.449 266.752L172.31 265.707L174.956 258.39V257.205L174.538 256.578L173.285 256.021L172.658 255.184L172.31 253.93L172.588 252.049L173.006 250.864L173.633 250.098L174.121 249.749L176.767 248.634L177.603 248.147L178.508 247.45L179.622 246.195L179.971 245.08L180.04 243.966L179.831 242.851V242.014L179.971 240.412L180.667 239.227L182.896 235.952L183.244 234.558L182.896 233.443L182.199 232.747L181.294 232.189L180.806 231.701L180.11 230.796L179.831 229.472L180.04 228.426L180.597 227.66L181.155 227.102L186.517 222.852L196.755 212.469L242.371 259.365L247.037 265.916Z" fill="#009649" stroke="white" stroke-width="2" stroke-linejoin="round"></path>
<path class="region" data-country-region="North Region" d="M281.999 48.5056V50.9445L281.511 53.7318L281.442 58.1218L281.302 59.2367L281.024 59.9336L279.84 60.7698L279.422 61.5363L279.492 62.3028L279.77 62.7906L283.74 67.738L286.456 69.8285L287.152 70.4557L287.292 70.8041L287.083 71.3615L286.526 71.8493L284.158 73.6611L283.461 74.4276L282.069 76.5181L281.024 78.8873L280.327 85.2284L274.408 102.161L274.129 103.764L274.199 104.74L274.129 106.482L273.711 107.527L273.154 108.642L268.279 115.471L268.209 116.168L268.697 116.655L270.299 116.864L270.995 117.073L271.552 117.561L271.97 118.397L272.945 120.836L273.224 121.324L274.199 121.951L274.686 122.509L275.243 125.226L275.522 126.411L276.01 127.247L276.497 128.014L277.054 129.059L277.402 130.174L278.168 136.933L278.029 138.466L277.611 139.86L276.218 142.786L275.661 144.668L275.522 145.992L275.592 147.107L275.87 148.013L276.706 149.824L277.263 150.521L278.308 151.218L280.676 151.775L292.236 153.517L303.519 156.514L305.121 156.653L308.324 155.469L308.812 155.19L310.135 154.145L311.11 154.005L311.388 154.841L311.11 155.608L300.106 170.659L298.574 173.516L297.669 176.164L295.788 193.794L294.744 196.372L294.047 197.348L292.376 198.742L291.261 199.369L286.595 201.111L285.829 201.529L285.411 202.086L285.063 202.992L284.506 205.083L283.461 216.859L283.67 220.343L283.531 221.11L283.113 221.528H281.999L281.302 221.319H280.606L280.258 221.597L280.049 222.434L279.84 224.594L279.631 225.43L275.104 233.304L273.293 240.272L272.179 243.199L270.717 244.453L268.488 245.847L264.867 247.519L262.777 248.983L259.434 250.795L257.763 252.049L252.261 258.32L251.565 259.644L250.381 263.756L247.038 265.916L242.372 259.366L196.755 212.469L188.955 204.037L183.941 196.233L180.389 189.404L178.508 187.732L167.992 185.711L166.042 185.014L164.928 184.317L164.092 183.62L162.56 181.46L161.933 180.903L161.237 180.624L159.217 180.276L154.76 178.464L150.442 179.23L148.492 178.812L147.378 178.185L146.403 177.349L143.896 174.283L143.617 144.528L144.313 142.508L145.637 140.835L147.099 137.909L147.308 135.4L145.428 127.526L145.776 123.136L145.497 117.213L145.846 114.286L147.517 112.196L151.138 110.454L153.576 109.826L158.73 109.199L161.376 108.502L163.465 107.318L169.107 102.649L171.544 101.464L178.926 98.8165L180.737 97.5622L197.312 80.0022L202.257 76.7968L211.241 72.8945L231.577 63.7661L232.134 62.0937L232.622 61.1879L232.761 60.3517L232.482 59.5155L231.438 58.4702L229.627 57.2856L228.861 56.0313L228.373 54.9164L227.816 48.5056L231.577 46.6938L236.313 45.3699L237.079 45.7183L237.775 46.5545L238.681 47.2513L240.352 47.321L241.327 46.8332L244.6 43.2097L244.809 42.5129L245.088 42.0948L246.202 42.1645L245.854 42.6522L245.923 43.8369L246.69 45.0911L248.291 45.6486L250.59 45.0215L252.331 43.6278L254.35 42.5129L257.484 42.7916L264.588 45.7183L279.492 47.9481L281.233 48.5056H281.999Z" fill="#009649" stroke="white" stroke-width="2" stroke-linejoin="round"></path>
<path class="region" data-country-region="North Region" d="M470.594 107.109L469.758 107.527L468.435 108.015L465.858 108.502L450.397 108.572L448.238 108.851L446.846 109.269L446.08 110.314L445.801 111.708L445.94 112.405L446.637 114.216L446.567 114.774L446.219 115.262L445.313 115.819L444.06 116.307L443.085 116.376L442.458 115.889L441.762 115.262L440.926 114.983L439.603 115.331L437.931 115.401L436.817 115.889L435.842 116.864L435.006 117.352L434.101 117.073L433.544 116.446L432.429 114.634L431.385 113.729L430.897 113.52L429.853 113.38L428.39 113.659L427.554 114.077L426.788 114.634L425.047 116.446L423.933 117.213L423.027 117.979L422.54 118.606L422.053 119.652L421.983 120.488L422.47 126.341L422.261 127.874L422.47 129.128L422.888 129.965L423.863 131.358L424.42 131.985L425.674 132.891L426.161 133.518L426.649 134.494L428.042 138.675L429.156 146.061L427.485 165.154L424.699 168.778L406.94 178.255L403.875 179.37L377.968 197.696L377.411 198.323L375.67 201.041L374.695 202.156L365.571 210.1L352.757 216.511L345.027 215.744L342.032 214.699L340.5 213.375L339.246 211.702L338.062 208.985L337.575 206.267L337.157 200.971L337.784 194.839L338.55 192.261L339.873 189.543L340.221 188.498L340.082 187.453L339.246 186.826L337.993 186.408L325.387 183.899L317.308 183.69L312.921 185.014L308.394 186.826L295.789 193.794L297.669 176.164L298.574 173.516L300.107 170.659L311.11 155.608L311.389 154.841L311.11 154.005L310.135 154.145L308.812 155.19L308.324 155.468L305.121 156.653L303.519 156.514L292.237 153.517L280.676 151.775L278.308 151.218L277.263 150.521L276.706 149.824L275.871 148.012L275.592 147.107L275.522 145.992L275.662 144.668L276.219 142.786L277.612 139.86L278.029 138.466L278.169 136.933L277.403 130.174L277.054 129.059L276.497 128.014L276.01 127.247L275.522 126.411L275.244 125.226L274.687 122.509L274.199 121.951L273.224 121.324L272.945 120.836L271.97 118.397L271.553 117.561L270.995 117.073L270.299 116.864L268.697 116.655L268.21 116.167L268.279 115.471L273.154 108.642L273.712 107.527L274.129 106.482L274.199 104.739L274.129 103.764L274.408 102.161L280.328 85.2283L281.024 78.8872L282.069 76.518L283.462 74.4275L284.158 73.661L286.526 71.8492L287.083 71.3615L287.292 70.804L287.153 70.4556L286.456 69.8284L283.74 67.738L279.771 62.7905L279.492 62.3027L279.422 61.5362L279.84 60.7697L281.024 59.9335L281.303 59.2367L281.442 58.1218L281.512 53.7317L281.999 50.9444V48.5055H282.487L283.183 48.0874L284.019 47.3209L285.133 46.6241L286.526 46.206L288.894 46.6938L290.983 47.6693L293.073 48.0874L295.719 46.9725L297.181 45.3001L298.435 43.2793L299.898 41.3282L301.987 40.1436L304.076 40.0739L307.349 41.4676L309.578 41.3979L310.414 40.7011L311.737 38.5409L312.782 38.0531L313.826 38.6106L314.523 41.0495L315.428 41.7463L317.378 41.3282L321.348 38.1925L323.089 37.2866L325.317 37.4957L327.059 38.6106L328.8 40.0042L330.959 41.1192H331.864L334.371 40.7708L335.555 40.8404L336.6 41.2585L338.689 42.6522L339.734 43.2097L347.186 44.5336L349.623 45.3001L350.32 46.9725V48.7843L349.693 54.9163L349.902 56.101L354.08 63.9054L356.379 66.4837L359.304 67.8773L366.407 65.6475L370.447 58.8883L373.441 52.129L377.272 50.0386V54.3589L377.759 57.4946L379.013 60.2819L386.813 72.1977L389.181 74.5669L390.086 75.0547L391.966 75.6818L392.941 76.2393L396.284 80.9777L397.399 82.0229L398.722 82.5804L400.881 82.7894L404.572 82.8591L408.472 82.3016L412.163 81.0474L415.227 78.9569L417.456 78.3994L419.406 77.2845L423.027 74.6366L424.072 75.3334L425.117 76.1696L425.953 77.1451L426.719 78.1904L428.738 77.4239L431.106 78.4691L433.126 80.5596L434.101 82.9985L436.121 81.4655L437.444 81.5351L438.767 82.441L440.926 83.3469L442.806 83.5559L445.592 83.0682L447.055 83.1378L450.676 85.1586L452.626 88.4337L454.158 92.1966L456.387 95.5414L467.669 105.506L470.594 107.109Z" fill="#009649" stroke="white" stroke-width="2" stroke-linejoin="round"></path>
<path class="region" data-country-region="South Region" d="M460.774 414.897L460.426 415.176L458.685 417.057L457.153 419.427L456.805 422.144L457.153 422.702L456.317 423.259L455.412 423.677L453.88 423.886H451.651L450.606 424.165L449.213 425.001L445.731 425.698L444.896 426.046L443.781 427.44L442.04 431.76L440.299 440.192L439.463 443.049L438.767 444.791L438.488 446.254V456.916L439.394 463.745L439.812 465.069L440.16 465.975L439.951 466.602L437.862 466.323L437.026 466.881L436.12 468.344L435.145 469.18L434.728 469.947L434.031 473.431L433.683 474.476L433.056 475.8V476.915L433.126 478.657L434.24 484.301L434.588 485.346L435.145 485.974L435.354 486.461L435.215 487.089L434.797 488.064L434.17 489.109L432.708 490.712L432.081 491.966L431.803 492.942L431.245 497.332L430.897 498.238L430.34 499.283L430.688 500.119L431.803 501.025L433.056 502.488L434.101 504.788L415.227 508.76L414.183 508.62L411.258 507.157L407.567 506.112L406.94 505.833L405.268 506.948L399.975 513.15L396.075 521.163L394.822 522.418L392.872 521.721L388.345 517.749L386.325 516.425L380.545 515.38L378.595 501.583L378.525 497.82L379.222 494.126L382.216 486.879L384.097 480.12L385.838 477.333L390.086 472.664L391.2 469.598L391.061 465.975L388.345 455.104L387.648 449.39L388.763 448.415L391.757 446.742V443.676L390.643 442.283L388.763 441.168L379.222 433.154L372.675 429.6L371.7 428.764L371.073 427.928L368.496 423.19L368.148 422.353L367.8 421.029L370.586 416.012L371.143 413.991L370.586 412.458L370.307 411.274L370.168 410.159L370.307 409.462L373.023 405.351L373.511 404.375L373.72 403.539V402.424L373.372 400.682L383.818 393.644L388.902 388.975L390.086 387.791L392.454 385.84L393.777 385.073L394.891 384.585L396.284 384.376L398.791 384.864L406.522 388L408.542 390.857L410.074 394.48L411.118 396.013L411.954 396.571L413.417 397.198L414.322 397.407L419.127 397.895L435.354 400.752L444.896 400.821L448.517 404.375L451.721 406.814L452.835 407.372L454.855 408.138L456.735 408.486L461.471 407.65L462.167 407.999L462.376 408.835L462.237 410.995L460.914 414.2L460.774 414.897Z" fill="#009649" stroke="white" stroke-width="2" stroke-linejoin="round"></path>
<path class="region" data-country-region="Central Region" d="M588.013 357.688L585.576 357.897L582.581 359.709L580.422 362.844L578.89 367.234L576.383 370.649L573.597 371.415L567.05 369.952L568.095 371.973L556.813 370.37L550.475 370.3L546.436 373.157L544.695 373.018L543.998 372.112L543.511 370.928L542.327 370.091L540.586 369.813L539.054 369.952L535.989 370.788L536.198 371.346H535.293L526.17 373.506L525.055 373.576L521.991 372.879L520.528 372.948L516.837 374.342L515.862 374.481L514.748 374.342L514.121 373.715L513.355 372.739H507.157L505.625 372.112L505.485 371.624L505.625 370.649L505.973 369.813L506.53 369.186L507.575 368.21L508.062 367.165L508.132 366.607L506.043 362.496L505.207 361.311L504.51 360.545L503.257 359.987L501.725 359.082L499.426 357.339L498.73 356.991L496.571 356.852L496.014 356.712L493.716 355.458L492.323 354.901L491.487 354.064L491.626 353.716L492.253 353.089L492.671 352.253L493.089 350.789L492.88 350.023L492.462 349.047L491.487 347.445L490.86 346.817L490.303 346.608L489.258 346.678L487.517 346.19L486.821 343.612L486.194 342.706L482.642 340.267L480.832 339.361L476.444 338.525L472.405 336.922L470.594 336.574L469.549 336.644L469.062 336.783L468.087 337.619L467.599 337.759L463.978 338.455L462.794 333.02L462.167 332.463L461.61 332.532L459.242 332.463L452.696 330.93L451.999 331.348L451.512 331.208L451.79 327.167L452.347 325.982L452.974 325.425L453.671 324.658L454.924 322.916L455.342 321.592L455.551 320.686L455.133 313.857L453.253 303.475L451.721 298.458L448.238 282.5L444.199 270.515L443.92 267.518L442.388 261.944L442.667 259.366L442.388 254.906L442.737 253.443L442.945 253.094L443.503 251.7L443.572 251.143L443.503 250.307L443.224 249.331L442.388 247.589L441.483 246.126L439.951 244.663L439.672 243.617L440.16 242.293L441.065 241.178L441.483 240.272V239.227L441.204 238.461L440.508 237.485L439.533 236.51L438.488 235.743L438.21 234.907L436.817 225.639L436.747 224.594L436.886 223.897L437.792 221.598L438.001 220.552L437.861 219.716L437.444 218.741L436.399 216.998L435.285 215.465L433.474 213.723L433.126 213.375L428.877 195.676L440.299 201.18L445.383 202.435L447.124 203.41L458.894 212.608L463.072 214.908L465.997 216.232L467.112 216.441H468.574L470.455 216.232L475.678 214.49L476.096 214.281L476.792 213.514L477.698 212.33L480.066 207.87L480.483 206.755V204.943L481.041 203.898L481.876 203.55H482.433L485.149 204.525L485.916 204.665L486.821 204.525L487.587 204.107L488.075 203.062L488.98 198.672L489.258 197.905L497.476 185.781L499.009 184.526L499.775 184.039L500.889 183.551L502.003 183.202L507.993 182.715L511.475 183.411L512.519 183.272L513.355 182.993L514.191 182.087L515.584 180.345L517.186 179.37L524.777 176.025L526.936 175.468L531.741 175.119L532.089 189.962L531.462 192.47V193.028L532.159 195.885L533.97 200.971L535.293 202.714L539.332 205.013L540.586 205.989L541.282 206.894L541.7 207.8L541.979 208.846V209.612L541.561 210.448L540.655 210.727L533.134 210.588L532.438 210.866L531.741 211.494L530.696 212.748L530.209 213.584L529.93 214.769L530.07 218.392L530.279 219.298L530.627 219.855L531.254 220.413L535.223 226.057L536.338 227.033L537.939 227.799L538.705 228.566L539.611 229.959L540.447 230.865L541.63 231.562L543.023 232.259L543.929 232.398L546.157 232.468L547.759 232.747L548.595 233.235L550.197 235.116L557.997 239.924L562.802 241.875L563.777 242.502L564.543 243.408L564.822 244.384L564.961 245.986L565.588 251.004L565.379 252.676L564.334 253.512L563.499 253.791L562.802 254.418L561.897 255.394L560.225 257.833L559.32 258.878L558.693 259.505L554.863 261.177L552.147 262.014L549.709 263.407L546.506 264.174L541.282 267.449L539.332 269.4L536.338 274.278L532.995 287.099L532.438 290.514L532.786 292.604L532.716 295.601L532.995 296.506L533.482 297.203L534.109 297.621L537.87 299.433L544.068 303.475L545.809 304.241L548.525 305.844L549.57 306.61L550.893 307.307L552.773 307.934L553.609 308.353L556.813 311.279L557.857 312.882L559.32 316.157L561.061 322.08L561.549 323.334L562.593 324.38L564.613 325.564L566.702 326.331L569.975 326.818L575.477 328.351L577.218 329.118L578.751 330.094L580.004 330.721L580.909 331.487L582.302 332.95L583.208 333.717L584.183 334.832L585.158 336.365L585.785 337.759L587.665 340.755L587.804 341.94L587.177 350.929L587.874 356.782L588.013 357.688Z" fill="#009649" stroke="white" stroke-width="2" stroke-linejoin="round"></path>
<path class="region" data-country-region="North Region" d="M565.936 34.8479L565.379 36.0325L563.777 41.6768L563.638 43.2795V44.6035L564.683 47.5998L565.24 49.8994L565.867 51.7808L566.215 54.0803L566.284 56.5889L565.588 59.6549L564.265 63.4178L563.986 65.0902L563.22 67.1807L562.942 68.0865L561.409 78.3996L561.34 80.072L561.549 81.7444L562.384 83.4864L563.29 84.7407L564.404 85.995L565.309 87.1796L566.842 93.242L568.931 111.917L571.16 118.746L571.508 120.418L570.602 121.742L570.742 125.017L570.533 125.854L557.997 149.337L557.231 152.96L557.022 156.165L557.44 157.141L557.997 157.908L558.415 159.022L560.574 162.437L561.688 167.593L563.011 169.614L563.29 171.078L563.359 172.471L563.081 177.558L563.22 178.882L563.777 179.927L564.822 181.321L565.24 182.993L565.101 184.526L564.195 186.826L555.768 183.063L554.027 182.784L552.425 182.227L550.058 181.112L541.909 175.328L539.193 174.771L531.741 175.119L526.936 175.468L524.777 176.025L517.186 179.37L515.584 180.345L514.191 182.087L513.355 182.993L512.52 183.272L511.475 183.411L507.993 182.715L502.003 183.202L500.889 183.551L499.775 184.039L499.009 184.526L497.477 185.781L489.259 197.905L488.98 198.672L488.075 203.062L487.587 204.107L486.821 204.525L485.916 204.665L485.15 204.525L482.434 203.55H481.876L481.041 203.898L480.484 204.943V206.755L480.066 207.87L477.698 212.33L476.792 213.514L476.096 214.281L475.678 214.49L470.455 216.232L468.574 216.441H467.112L465.998 216.232L463.073 214.908L458.894 212.609L447.124 203.41L445.383 202.435L440.299 201.181L428.878 195.676L425.395 186.826L424.699 182.297L424.978 179.091L424.699 168.778L427.485 165.155L429.156 146.062L428.042 138.675L426.649 134.494L426.162 133.519L425.674 132.891L424.42 131.986L423.863 131.358L422.888 129.965L422.47 129.129L422.262 127.874L422.47 126.341L421.983 120.488L422.053 119.652L422.54 118.607L423.028 117.979L423.933 117.213L425.047 116.446L426.788 114.635L427.554 114.077L428.39 113.659L429.853 113.38L430.897 113.52L431.385 113.729L432.429 114.635L433.544 116.446L434.101 117.073L435.006 117.352L435.842 116.864L436.817 115.889L437.931 115.401L439.603 115.331L440.926 114.983L441.762 115.262L442.458 115.889L443.085 116.377L444.06 116.307L445.314 115.819L446.219 115.262L446.567 114.774L446.637 114.216L445.94 112.405L445.801 111.708L446.08 110.314L446.846 109.269L448.239 108.851L450.398 108.572L465.858 108.503L468.435 108.015L469.758 107.527L470.594 107.109L471.151 107.388L474.425 108.154L477.628 107.806L480.901 106.482L483.966 106.621L490.721 108.363L493.368 108.224L495.318 105.855L495.039 99.5134L496.641 97.423L498.521 95.5415L500.889 93.9388L502.909 92.1968L503.884 89.6882L503.257 87.1099L501.516 85.1588L499.427 83.3471L497.616 81.3263L494.273 73.2431L492.253 70.9435L487.726 68.0169L485.916 66.3445L484.801 63.5572L485.359 60.2124L484.871 57.6341L483.409 55.474L480.901 53.3835L480.275 51.9202L480.066 50.3871L480.275 48.7844L480.901 47.3211L483.548 47.8089L489.328 49.76L491.557 49.6903L491.905 49.0632L492.253 46.903L492.602 46.3455L493.298 46.2759L494.691 46.4152L496.78 46.2759L499.914 46.8333L504.511 47.112L507.018 46.8333L509.107 45.579L511.057 42.722L511.962 39.7954L513.286 32.6877L514.47 30.3882L515.236 31.2244L523.245 36.1719L524.498 36.5203L526.309 36.6596L528.05 36.1719L535.989 35.0569L539.332 33.6633L540.656 31.0153L541.143 30.9457L542.118 30.1095L542.675 29.2036L541.213 28.3674L541.073 27.4615L541.282 26.486L541.561 25.8588L542.815 25.162L544.207 25.3014L545.879 25.7891L547.899 25.8588V25.0226L546.924 24.6742L546.366 24.0471L546.088 23.0715L546.018 21.7475L546.227 20.4236L546.924 20.0055L547.759 19.9358L548.734 19.448L551.52 16.8698L552.286 17.5666L553.958 20.1448L554.515 21.8869L555.211 26.2072L555.629 27.4615L556.813 28.1584L559.808 28.8552L561.131 29.6914L563.708 33.6633L565.936 34.8479Z" fill="#009649" stroke="white" stroke-width="2" stroke-linejoin="round"></path>
<path class="region" data-country-region="North Region" d="M690.946 192.47L689.693 192.819L688.648 192.47L684.957 192.052L682.38 191.146L681.614 190.798L680.5 189.683L679.525 189.056L678.201 187.801L677.505 187.383L676.739 187.592L676.321 188.289L675.416 188.916L673.814 189.404L672.978 189.822L671.376 190.24L670.68 190.658L669.357 192.122L668.521 192.888L667.894 193.306L665.317 194.561L664.133 193.724L664.203 192.958L663.507 192.331L662.253 189.822L661.557 189.265L658.492 189.195L657.099 189.474L655.776 190.171L654.383 188.429L652.573 184.108L651.249 182.715L648.812 182.157L647.697 183.342L646.931 185.362L645.887 187.383L642.056 189.543L634.187 188.429L629.66 190.171L628.545 189.125L626.944 188.986L626.317 189.125L624.576 191.007L624.367 191.355L624.088 192.261V192.819L624.367 193.724L625.272 195.118L625.969 196.372L626.595 199.229L626.526 200.275L626.247 201.25L625.62 202.644L625.272 205.152L624.785 205.989L624.228 206.616L621.442 208.915L620.536 209.403L619.84 209.612L619.353 209.473L618.308 208.637L617.89 208.427L615.87 208.567L612.597 209.194L611.692 209.264L609.672 209.124L605.702 209.891L598.111 209.821L595.952 209.542L587.525 206.337L581.188 202.017L576.591 197.209L571.577 193.933L570.741 193.237L564.195 186.826L565.1 184.526L565.239 182.993L564.822 181.321L563.777 179.927L563.22 178.882L563.08 177.558L563.359 172.471L563.289 171.078L563.011 169.614L561.688 167.593L560.573 162.437L558.414 159.022L557.997 157.907L557.439 157.141L557.021 156.165L557.23 152.96L557.997 149.337L570.532 125.853L570.741 125.017L570.602 121.742L571.507 120.418L571.159 118.746L568.931 111.917L566.841 93.2419L565.309 87.1795L564.404 85.9949L563.289 84.7406L562.384 83.4864L561.548 81.7443L561.339 80.0719L561.409 78.3995L562.941 68.0865L563.22 67.1806L563.986 65.0901L564.264 63.4177L565.588 59.6549L566.284 56.5888L566.214 54.0803L565.866 51.7807L565.239 49.8993L564.682 47.5998L563.638 44.6034V43.2794L563.777 41.6767L565.379 36.0324L565.936 34.8478L567.538 35.7537L577.079 38.6804L577.636 39.1682L578.681 40.2831L579.307 41.1193L580.282 43.1401L584.879 49.6902L588.361 53.1744L590.172 54.4984L591.983 55.1952L593.933 55.3345L599.017 52.4079L599.643 51.8504L600.409 51.4323L601.802 51.3626L602.986 51.711L605.493 53.3137L606.817 53.5228L608.418 53.035L608.906 52.3382L608.976 51.502L610.368 48.0875L612.04 47.7391L612.597 47.3907L615.174 43.3491L619.004 38.6107L619.074 37.9139L619.492 37.7745L621.163 38.541L623.322 40.2134L624.436 41.8858L625.829 42.5826L628.754 41.6767L632.724 38.9591L636.346 35.684L637.39 33.5935L638.156 31.2243L639.201 29.6216H641.151L643.24 30.0397L644.355 29.4126L645.747 26.6253L646.026 23.9076L646.165 23.0018L646.722 22.3746L648.255 21.3991L648.881 20.8416L651.249 17.4968L653.199 15.7548L655.637 15.8941L659.189 18.4724L661.626 20.7719L662.949 21.2597L665.387 21.7475L668.451 23.1411L669.914 23.2108L671.655 21.8172L672.073 20.7719V19.657L671.864 18.4724L672.003 17.4272L672.351 16.3122L673.326 14.9883L673.744 14.2217L674.789 11.1557L675.625 10.2498L677.644 9.27427L682.032 2.86346L683.773 1.33044L685.375 4.95395L684.678 8.3684L681.614 15.267L681.475 17.3575L681.962 21.3991L681.823 23.5592L681.126 25.0922L679.246 27.8099L678.689 29.6913L678.55 30.5972L678.062 32.4786L676.46 36.0324L675.276 38.1229L673.675 39.4469L671.098 40.1437L670.262 39.7256L669.775 38.8197L669.008 38.1926L667.337 38.7501L666.292 39.7256L665.874 40.8405L665.666 42.0948L665.317 43.2794L662.601 48.0875L661.696 50.5961L661.417 53.3137L661.696 54.568L662.88 57.1463L663.228 58.5399V59.7942L662.532 64.6023L658.144 77.424L657.517 80.6991L658.074 82.3018L659.258 83.556L660.721 85.9253L660.999 88.5732L660.582 91.3605L660.512 94.1478L662.044 96.5867L664.273 97.4229L669.148 96.9351L671.237 97.7016L672.003 99.0256L672.073 100.35L671.933 101.674L672.073 102.858L673.883 106.83L674.301 109.199L673.953 110.732L673.187 112.265L672.63 114.565L674.023 118.676L673.883 119.861L673.048 122.787L672.978 124.181L673.675 126.272L676.182 129.268L677.435 131.289L677.644 131.916L680.709 135.261L683.007 138.536L693.802 159.859L694.777 164.806L695.612 178.046L695.125 182.157L690.946 192.47Z" fill="#009649" stroke="white" stroke-width="2" stroke-linejoin="round"></path>
<path class="region" data-country-region="North Region" d="M564.195 186.826L570.741 193.237L571.577 193.933L576.591 197.209L581.188 202.017L587.525 206.337L595.952 209.542L598.111 209.821L605.703 209.891L609.672 209.124L611.692 209.264L612.597 209.194L615.87 208.567L617.89 208.428L618.308 208.637L619.353 209.473L619.84 209.612L620.537 209.403L621.442 208.915L624.228 206.616L624.785 205.989L625.272 205.152L625.621 202.644L626.247 201.25L626.526 200.275L626.596 199.229L625.969 196.372L625.272 195.118L624.367 193.724L624.088 192.819V192.261L624.367 191.355L624.576 191.007L626.317 189.125L626.944 188.986L628.546 189.125L629.66 190.171L634.187 188.429L642.056 189.543L645.887 187.383L646.932 185.363L647.698 183.342L648.812 182.157L651.249 182.715L652.573 184.108L654.383 188.429L655.776 190.171L657.1 189.474L658.492 189.195L661.557 189.265L662.253 189.822L663.507 192.331L664.203 192.958L664.134 193.724L665.317 194.561L667.894 193.306L668.521 192.888L669.357 192.122L670.68 190.658L671.376 190.24L672.978 189.822L673.814 189.404L675.416 188.916L676.321 188.289L676.739 187.592L677.505 187.383L678.202 187.801L679.525 189.056L680.5 189.683L681.614 190.798L682.38 191.146L684.957 192.052L688.648 192.47L689.693 192.819L690.946 192.47L675.903 229.193L676.252 231.074L678.271 232.607L678.619 233.583L678.689 234.489L678.341 235.186L677.644 235.743L676.878 237.067L676.669 238.53L676.948 240.063L678.41 243.408L678.898 247.52L679.455 249.54L680.36 251.143L684.052 255.324L685.862 259.087L686.211 262.641L686.071 266.264L686.35 270.306L689.623 285.148L689.902 289.538L689.414 293.58L688.718 295.322L687.882 296.785L687.603 298.249L688.578 299.991V303.126L684.678 314.136L684.052 317.411L683.007 320.477L681.057 322.916L677.644 324.31L674.51 326.54L670.053 332.532L667.059 332.741L664.551 330.512L660.651 324.38L657.517 322.428L651.737 322.986L643.31 325.634L635.51 329.466L631.61 333.647L630.774 335.529L629.172 336.992L625.69 339.431L621.512 344.657L612.597 353.646L609.394 355.806L604.519 357.758L599.644 358.315L589.684 357.549L588.013 357.688L587.874 356.782L587.177 350.929L587.804 341.94L587.665 340.755L585.784 337.759L585.158 336.365L584.183 334.832L583.208 333.717L582.302 332.951L580.909 331.487L580.004 330.721L578.75 330.094L577.218 329.118L575.477 328.351L569.975 326.818L566.702 326.331L564.613 325.564L562.593 324.38L561.548 323.334L561.061 322.08L559.32 316.157L557.857 312.882L556.813 311.279L553.609 308.353L552.773 307.934L550.893 307.307L549.57 306.61L548.525 305.844L545.809 304.241L544.068 303.475L537.87 299.433L534.109 297.621L533.482 297.203L532.995 296.506L532.716 295.601L532.786 292.604L532.437 290.514L532.995 287.099L536.337 274.278L539.332 269.4L541.282 267.449L546.505 264.174L549.709 263.407L552.147 262.014L554.863 261.177L558.693 259.505L559.32 258.878L560.225 257.833L561.897 255.394L562.802 254.418L563.498 253.791L564.334 253.512L565.379 252.676L565.588 251.004L564.961 245.986L564.822 244.384L564.543 243.408L563.777 242.502L562.802 241.875L557.997 239.924L550.197 235.116L548.595 233.235L547.759 232.747L546.157 232.468L543.929 232.398L543.023 232.259L541.63 231.562L540.446 230.865L539.611 229.959L538.705 228.566L537.939 227.799L536.337 227.033L535.223 226.057L531.253 220.413L530.627 219.855L530.278 219.298L530.069 218.392L529.93 214.769L530.209 213.584L530.696 212.748L531.741 211.494L532.437 210.866L533.134 210.588L540.655 210.727L541.561 210.448L541.979 209.612V208.846L541.7 207.8L541.282 206.894L540.586 205.989L539.332 205.013L535.293 202.714L533.97 200.971L532.159 195.885L531.462 193.028V192.47L532.089 189.962L531.741 175.119L539.193 174.771L541.909 175.328L550.057 181.112L552.425 182.227L554.027 182.784L555.768 183.063L564.195 186.826Z" fill="#009649" stroke="white" stroke-width="2" stroke-linejoin="round"></path>
<path class="region" data-country-region="South Region" d="M279.283 484.58L279.004 488.97L279.074 490.224L279.492 491.269L280.119 492.245L281.442 493.151L282.556 493.499L286.805 494.336L289.312 495.172L290.774 496.008L292.306 497.402L292.655 498.377L294.187 505.763L294.744 507.018L294.605 508.62L293.212 512.941L293.351 513.847L293.63 514.056L297.669 515.728L301.917 514.543L304.494 513.568L306.653 513.847L314.035 515.728L318.841 528.619L315.567 531.407L314.383 532.87L313.339 534.542L310.971 539.281L310.623 541.58L312.155 546.667L313.269 547.922L314.105 548.27L314.801 548.827L314.941 551.824L313.966 563.6L313.826 564.506L303.937 563.252L298.296 563.53L296.276 564.018L294.535 565.273L293.281 567.224L292.167 569.314L286.735 577.397L285.342 578.721L283.462 579L281.094 578.512L280.815 577.676L278.587 574.889L277.542 574.262L277.263 573.147L276.776 572.589L275.871 571.892L275.662 570.847L275.801 566.806L274.826 564.297L272.737 560.464L271.135 558.931L268.279 557.816L262.847 558.165L261.594 557.886H259.992L259.017 557.607L257.136 560.813L255.535 558.931L254.629 558.374L253.724 558.513L252.888 559.071L252.122 559.28L251.077 558.374L249.058 561.092H245.645L238.959 559.349L236.731 559.628L233.527 560.464L231.299 560.255L218.763 556.702L216.534 556.493L214.723 555.935L211.102 552.869L210.963 552.242L211.868 551.197L214.306 547.364L215.42 545.065L215.838 543.88L215.977 541.929L215.907 539.211L214.514 528.062L214.445 527.017L215.35 520.676L215.42 506.809L214.236 502.349L220.016 495.102L221.27 493.778L221.897 493.43L222.593 493.29L223.568 493.639L224.404 494.057L225.449 494.336L226.493 494.405L227.886 493.917L228.513 493.569L230.393 491.269L234.224 484.58L234.293 484.301L235.129 481.096L236.383 480.329L240.84 479.284L242.999 481.165L244.183 481.862L245.854 482.629L256.231 484.859L266.26 483.535L275.801 483.186L279.283 484.58Z" fill="#009649" stroke="white" stroke-width="2" stroke-linejoin="round"></path>
<path class="region" data-country-region="South Region" d="M277.542 574.262L277.264 574.122L275.314 574.958L270.717 570.15L269.533 569.384H265.494L263.265 570.29L262.012 570.638L260.897 570.29L259.922 568.06L259.435 562.346L257.833 561.161L257.137 560.813L259.017 557.608L259.992 557.886H261.594L262.847 558.165L268.28 557.817L271.135 558.932L272.737 560.465L274.826 564.297L275.801 566.806L275.662 570.847L275.871 571.892L276.776 572.589L277.264 573.147L277.542 574.262Z" fill="#009649" stroke="white" stroke-width="2" stroke-linejoin="round"></path>
</svg>