<svg width="402" height="586" viewBox="0 0 402 586" fill="none" xmlns="http://www.w3.org/2000/svg">
<path class="region" data-country-region="South Region" d="M274.849 363.085L269.671 364.008L268.025 364.57L267.343 365.132L266.741 365.735L264.935 367.983L264.373 368.585L263.289 369.469L262.205 370.151L257.71 371.637L256.707 372.079L256.024 372.48L255.422 373.122L255.141 373.564L254.138 374.648L253.295 374.929L241.254 375.13L239.889 375.451L238.886 376.294L222.71 398.98L221.948 399.622L221.386 399.983L220.944 400.144L214.442 401.067L212.475 401.79L210.268 402.834L209.345 403.477L208.783 404.039L208.421 404.962L208.181 405.926L208.14 406.488L208.261 407.492L208.421 407.933L208.903 408.696L209.425 409.419L210.067 410.021L212.194 411.667L212.796 412.27L213.278 413.032L213.679 413.876L213.92 414.839V415.602L213.599 416.204L212.997 416.927L210.468 419.457L209.304 421.183L197.665 433.268L193.811 439.371L192.407 442.985L191.363 446.92L191.162 448.164L190.922 448.887L190.44 449.891L189.677 450.855L188.995 451.376L186.948 452.541L186.787 452.902L187.43 453.906L187.59 454.348L187.67 455.432L187.47 456.556L187.269 457.239L186.225 458.965L186.025 459.487L186.225 460.25L186.185 461.133L186.386 461.414L186.787 461.535L187.149 461.776L187.389 462.177L187.349 462.739L187.028 463.02L185.904 463.341L185.583 463.703L185.342 464.747L184.74 466.754L184.459 467.316L183.697 468.601L183.014 470.488L182.814 471.693L182.292 472.857L182.172 473.299V473.66L182.372 473.941L183.496 473.901L184.098 474.423L184.138 475.668L182.533 478.88L182.412 479.362L182.091 479.723L181.489 480.124L181.128 481.329L180.887 481.289L180.365 480.847L179.884 480.928L179.161 481.449L178.238 481.811L177.395 481.731L176.954 480.807L176.633 479.884L176.271 479.683L175.148 479.884L174.626 479.843L174.144 479.683L173.542 479.201L171.495 478.679H170.773L170.251 478.84L169.97 479.121L169.528 479.321L168.565 479.402L166.879 479.723L166.036 480.687L165.234 480.807L164.471 481.088H163.468L162.585 481.289L162.424 481.57L162.585 482.293L162.665 482.734L162.143 483.939L161.902 484.3L161.501 484.461L161.059 484.421L160.257 484.14L159.454 483.738L158.009 482.895L157.648 482.333V481.891L158.009 481.65L158.772 481.49L158.932 481.209V480.807L158.731 480.325L158.37 479.803L157.648 479.121L157.126 478.8L155.681 478.518L154.798 478.237L153.393 478.438H152.43L151.587 478.679H151.065L150.343 478.398L149.219 478.358L148.256 478.518L146.249 478.679L145.245 478.88L144.643 478.84L144.162 479.04L143.6 479.081L142.757 478.88L141.432 478.157L140.67 477.876L140.068 477.515L139.626 476.792L139.185 476.35L136.736 475.387L135.733 475.347L134.488 475.065L134.167 474.784L133.886 474.262L133.565 473.901L131.639 472.938L131.197 472.576L131.077 471.894V471.131L131.318 470.207L131.358 469.766L131.157 469.364L129.953 468.802L128.99 468.722L128.548 468.762L128.227 468.963L127.705 469.485L126.943 469.846H126.341L125.618 469.725L124.454 469.203H123.892L123.491 469.444L123.009 470.087L122.568 470.127L122.006 469.966L121.203 469.203L119.718 467.357L119.397 467.035L118.634 466.915L118.072 466.433L117.51 465.469L116.266 461.936L115.825 461.133L115.223 460.932H114.781L114.059 461.213H113.778L113.296 460.692L112.895 459.607L111.57 452.581L111.771 452.019L112.012 451.537L112.333 451.216L112.533 450.814L112.614 450.292L112.453 448.967L112.493 448.405L112.654 447.924L113.055 447.04L113.216 446.157L112.975 445.073L111.891 444.43L107.757 444.27L105.67 444.35L104.947 444.23L104.386 443.989L103.864 443.386L103.382 442.302L102.981 440.857L102.78 440.415L102.098 439.291L101.375 438.729L100.974 438.528L94.3512 437.002L93.5484 436.601L93.3076 436.199L93.1872 435.196L93.3076 434.071L95.0335 428.932L94.9934 427.969L94.7927 427.326L94.5519 427.005L94.1104 426.724L93.3879 426.603L92.7055 426.724L90.7388 427.366H90.0565L89.4946 427.246L86.7251 425.56L85.8822 425.158L85.4006 424.997H84.8788L84.3971 425.238L83.9155 425.68L83.4338 426.724L83.193 427.447L82.2698 433.75L82.029 434.754L81.7079 435.678L81.2664 436.601L80.9855 437.043L79.8215 438.167L79.4602 438.408L78.6575 438.809L78.1758 438.93L76.9717 438.97L76.169 438.89L75.4465 438.368L75.7275 436.199L75.888 435.316V434.874L75.7676 434.433L75.4465 434.112L74.5234 433.79L74.1621 433.549L73.9614 433.188L74.0016 432.746L74.1621 432.345L74.6839 431.703V431.341L74.3227 430.659L74.3628 430.297L75.0451 429.213L75.3662 428.29L75.5669 427.808L75.888 427.406L76.3697 427.005L76.8112 426.041L77.0921 425.6L77.935 424.837L78.5371 424.034L79.1793 423.472L79.4602 423.11L79.8215 422.227L80.1024 421.825L79.9419 420.982L79.5004 420.219L79.4201 419.778L79.5004 419.376L80.2228 418.252L80.3031 417.851L79.8616 417.168L78.6976 416.445L78.3765 416.164L78.216 415.723L78.0956 414.117L77.935 413.675L77.5738 413.394L76.771 413.073L76.4901 412.751L76.4098 412.27L76.4499 411.748L76.771 410.222L76.8915 409.258L77.1724 409.017L77.8547 409.098L80.1024 409.62L81.2664 409.7L82.1093 409.579L83.1529 409.339L84.9992 408.616L85.8822 408.174L86.4441 407.773L87.0462 407.13L87.4877 406.247L87.8489 405.243L87.9694 404.721L88.6115 399.421L88.8925 398.498L89.0932 398.056L89.6952 397.374L90.6585 396.771L91.4613 396.41L91.9831 396.129L92.3042 395.808L92.3845 395.406L92.0232 394.643L91.3007 394.041L90.8592 393.84L89.8157 393.559L88.0496 393.358L83.5141 393.238L80.3031 394.161H79.2595L78.7779 393.961L78.818 393.64L79.0589 392.756L79.38 392.435L79.7412 392.194L80.9855 391.592L81.9889 390.749L82.31 390.427L82.8318 389.705L83.474 389.143L83.7549 388.781L84.1964 387.978L84.6781 387.256L84.7985 386.854L84.7584 385.409L84.8386 384.967L85.24 384.204L85.3604 383.762L85.5611 383.401L85.6012 382.397L85.9223 381.554L91.6218 375.291L92.7055 374.568L93.3076 374.367L94.0301 374.327L95.3145 374.528L95.9567 374.849L96.358 375.25L96.7594 376.616L96.9601 377.057L97.2009 377.419L98.1241 377.539L109.082 376.897L110.807 376.294L113.296 374.889L115.704 373.082L116.948 371.757L119.076 368.907L120.039 367.943L120.641 367.662L121.564 367.421L123.451 367.22L124.414 366.979L125.136 366.779L125.498 366.498L125.739 366.136L126.381 364.329L126.461 363.848L126.22 362.402L126.3 361.92L126.461 361.479L127.143 360.274L127.264 359.511L126.983 359.311L122.568 358.226L121.685 357.905L120.922 357.383L118.554 354.774L115.142 351.963L114.781 351.762H114.059L110.687 352.445L110.165 352.485L109.724 352.324L108.961 351.842L106.954 349.474L106.593 349.233L105.63 348.952H104.546L103.462 349.072L102.379 348.911L101.937 348.751L101.335 348.43L101.255 348.108L101.375 347.185L101.897 345.86V344.254L102.098 343.29L102.66 342.648L102.86 342.287L103.141 341.283L103.543 340.44L103.904 338.954L104.626 338.673H105.79L110.045 339.356L111.369 339.195L111.891 338.914L112.654 338.312L113.256 338.191L115.463 338.231L116.908 338.071L117.43 338.151L118.434 338.753L119.036 338.954L119.919 339.034L123.25 338.914L123.772 338.834L124.695 338.472L126.662 337.99L127.264 337.95L127.866 338.071L128.628 338.472L128.95 338.954L129.15 339.516L129.351 343.531L129.592 344.535L129.993 345.338L130.796 345.74L132.241 346.221L134.248 347.346L135.291 348.189L136.134 349.193L136.455 349.514L136.897 349.755L137.459 349.835L138.944 349.514L140.79 348.791L141.834 348.63L142.476 348.711L143.84 349.353L144.563 349.554L145.406 349.634L146.891 349.433L147.613 349.152L148.135 348.831L148.737 348.189L150.142 345.86L151.065 344.896L151.868 344.455L152.309 344.294L152.952 344.214L155.039 344.174L155.922 344.013L156.925 343.652L157.206 343.17L157.327 342.608L157.286 342.046L156.765 340.078L156.082 338.312L155.922 337.87V337.388L156.163 336.826L156.444 336.545L159.093 334.618L162.705 332.409L163.387 331.888L164.511 330.482L167.441 325.744L168.405 324.821L169.167 324.379L170.09 324.058L170.572 323.978L171.214 324.058L172.057 324.339L173.341 325.142L173.943 325.664L174.385 326.146L174.786 326.949L175.429 328.756L175.589 329.719L175.79 334.136L175.99 335.019L176.552 336.264L177.074 336.987L177.556 337.549L178.037 337.95L178.72 338.231L179.763 338.472L181.851 338.753L183.817 338.793L185.784 338.512H187.55L188.032 338.392L189.436 337.91L190.4 337.79L191.483 337.509L192.286 337.468L193.651 337.187L194.654 337.107L196.34 336.706L196.701 336.425L196.942 336.063L197.303 335.14L197.785 334.377L198.427 333.775L199.551 333.012L200.595 331.606L201.157 331.406L201.959 331.446L204.528 331.807L204.97 331.968L205.772 332.811L206.214 333.052H206.936L208.02 332.811L208.502 332.771L208.943 332.931L209.626 333.815L210.027 334.176L210.468 334.377H211.351L212.515 334.216L213.559 334.297L214 334.216L214.643 333.694L215.084 333.494L215.686 333.413H216.449L217.051 333.373L217.653 333.453L218.576 334.015L219.379 334.377L220.623 334.658L221.305 334.738L221.747 334.939L222.148 335.622L222.55 335.742L223.072 335.581L223.754 334.899L224.155 334.056L224.396 333.815L224.757 333.734L225.319 334.176L225.961 334.297L226.483 334.216L227.808 333.012L228.61 332.57L230.457 331.968L231.219 331.486L231.942 331.606L232.985 332.209L235.153 334.056L236.718 335.702L238.805 339.075L240.411 342.969L241.334 344.495L241.896 345.177L242.458 345.539L243.261 345.94L245.99 346.824L255.382 348.47L268.106 353.167L269.069 353.689L270.835 355.938L274.849 363.085Z" fill="#009649" stroke="white" stroke-width="2" stroke-linejoin="round"></path>
<path class="region" data-country-region="South Region" d="M258.513 277.081L263.65 278.447L265.456 279.29L277.979 289.408L279.063 290.693L280.107 292.379L283.96 301.493L284.201 302.457L284.602 305.749L284.883 306.673L285.124 307.114L287.331 310.648L288.054 311.41L288.857 312.053L289.78 312.454L290.703 312.655L292.75 312.976L293.392 313.217L294.476 313.9L294.957 314.582L295.319 315.506L295.439 316.63L297.566 322.613L303.507 332.851L304.59 335.461L304.711 335.983L304.992 341.363L305.152 342.126L305.554 343.21L305.915 343.812L306.316 344.214L309.608 345.9L312.096 346.583L313.421 347.345L314.544 348.309L315.066 348.911L315.387 349.473L315.789 352.204V353.368L315.427 356.138L313.902 360.957L313.782 362.001V362.563L314.223 365.373L309.969 363.888L309.367 363.847L308.724 363.928L307.36 364.49L305.714 365.494L304.43 366.016L303.908 366.136H303.266L302.543 366.016L301.46 365.574L299.493 364.57L298.61 364.209L297.566 363.968L274.849 363.085L270.835 355.938L269.069 353.689L268.106 353.167L255.382 348.47L245.99 346.823L243.261 345.94L242.458 345.539L241.896 345.177L241.334 344.495L240.411 342.969L238.805 339.074L236.718 335.702L235.153 334.056L232.985 332.209L231.942 331.606L231.219 331.486L230.457 331.968L228.61 332.57L227.808 333.012L226.483 334.216L225.961 334.296L225.319 334.176L224.757 333.734L224.396 333.815L224.155 334.056L223.754 334.899L223.071 335.581L222.55 335.742L222.148 335.621L221.747 334.939L221.305 334.738L220.623 334.658L219.379 334.377L218.576 334.015L217.653 333.453L217.051 333.373L216.449 333.413H215.686L215.084 333.493L214.643 333.694L214 334.216L213.559 334.296L212.515 334.216L211.351 334.377H210.468L210.027 334.176L209.625 333.815L208.943 332.931L208.502 332.771L208.02 332.811L206.936 333.052H206.214L205.772 332.811L204.97 331.968L204.528 331.807L201.959 331.446L201.157 331.406L200.595 331.606L199.551 333.012L198.427 333.774L197.785 334.377L197.303 335.14L196.942 336.063L196.701 336.424L196.34 336.705L194.654 337.107L193.651 337.187L192.286 337.468L191.483 337.508L190.4 337.79L189.436 337.91L188.032 338.392L187.55 338.512H185.784L183.817 338.793L181.85 338.753L179.763 338.472L178.72 338.231L178.037 337.95L177.556 337.549L177.074 336.987L176.552 336.264L175.99 335.019L175.79 334.136L175.589 329.719L175.428 328.756L174.786 326.949L174.385 326.146L173.943 325.664L173.341 325.142L172.057 324.339L171.214 324.058L170.572 323.978L170.09 324.058L169.167 324.379L168.404 324.821L167.441 325.744L164.511 330.482L163.387 331.887L162.705 332.409L159.093 334.618L156.444 336.545L156.163 336.826L155.922 337.388V337.87L156.082 338.312L156.765 340.078L157.286 342.046L157.327 342.608L157.206 343.17L156.925 343.652L155.922 344.013L155.039 344.174L152.952 344.214L152.309 344.294L151.868 344.455L151.065 344.896L150.142 345.86L148.737 348.189L148.135 348.831L147.613 349.152L146.891 349.433L145.406 349.634L144.563 349.554L143.84 349.353L142.476 348.711L141.834 348.63L140.79 348.791L138.944 349.514L137.459 349.835L136.897 349.755L136.455 349.514L136.134 349.192L135.291 348.189L134.248 347.345L132.241 346.221L130.796 345.739L129.993 345.338L129.592 344.535L129.351 343.531L129.15 339.516L128.95 338.954L128.628 338.472L127.866 338.071L127.264 337.95L126.662 337.99L124.695 338.472L123.772 338.833L123.25 338.914L119.919 339.034L119.036 338.954L118.434 338.753L117.43 338.151L116.908 338.071L115.463 338.231L113.256 338.191L112.654 338.312L111.891 338.914L111.369 339.195L110.045 339.355L105.79 338.673H104.626L103.904 338.954L103.543 340.439L103.141 341.283L102.86 342.286L102.66 342.648L102.098 343.29L101.897 344.254V345.86L101.375 347.185L101.255 348.108L101.335 348.43L101.937 348.751L102.379 348.911L103.462 349.072L104.546 348.951H105.63L106.593 349.233L106.954 349.473L108.961 351.842L109.724 352.324L110.165 352.485L110.687 352.445L114.059 351.762H114.781L115.142 351.963L118.554 354.773L120.922 357.383L121.685 357.905L122.568 358.226L126.983 359.31L127.264 359.511L127.143 360.274L126.461 361.479L126.3 361.92L126.22 362.402L126.461 363.847L126.381 364.329L125.739 366.136L125.498 366.497L125.136 366.778L124.414 366.979L123.451 367.22L121.564 367.421L120.641 367.662L120.039 367.943L119.076 368.906L116.948 371.757L115.704 373.082L113.296 374.889L110.807 376.294L109.082 376.896L98.124 377.539L97.2009 377.418L96.9601 377.057L96.7594 376.615L96.358 375.25L95.9566 374.849L95.3144 374.528L94.0301 374.327L93.3076 374.367L92.7055 374.568L91.6218 375.29L85.9223 381.554L85.6012 382.397L85.5611 383.401L85.3604 383.762L85.24 384.204L84.8386 384.967L84.7583 385.408L84.7985 386.854L84.6781 387.255L84.1964 387.978L83.7549 388.781L83.4739 389.142L82.8318 389.705L82.31 390.427L81.9889 390.749L80.9854 391.592L79.7412 392.194L79.3799 392.435L79.0588 392.756L78.818 393.639L78.7779 393.961L79.2595 394.161H80.3031L83.5141 393.238L88.0496 393.358L89.8156 393.559L90.8592 393.84L91.3007 394.041L92.0232 394.643L92.3844 395.406L92.3041 395.808L91.9831 396.129L91.4613 396.41L90.6585 396.771L89.6952 397.373L89.0932 398.056L88.8925 398.498L88.6115 399.421L87.9693 404.721L87.8489 405.243L87.4877 406.247L87.0462 407.13L86.4441 407.772L85.8822 408.174L84.9992 408.616L83.1528 409.338L82.1093 409.579L81.2664 409.7L80.1024 409.619L77.8547 409.097L77.1724 409.017L76.8914 409.258L76.771 410.222L76.4499 411.747L76.4098 412.269L76.49 412.751L76.771 413.072L77.5738 413.394L77.935 413.675L78.0955 414.116L78.216 415.722L78.3765 416.164L78.6976 416.445L79.8616 417.168L80.3031 417.85L80.2228 418.252L79.5003 419.376L79.4201 419.778L79.5003 420.219L79.9419 420.982L80.1024 421.825L79.8214 422.227L79.4602 423.11L79.1792 423.471L78.5371 424.034L77.935 424.837L77.0921 425.599L76.8112 426.041L76.3696 427.005L75.888 427.406L75.5669 427.808L75.3662 428.29L75.0451 429.213L74.3628 430.297L74.3226 430.658L74.6839 431.341V431.702L74.1621 432.345L74.0015 432.746L73.9614 433.188L74.1621 433.549L74.5233 433.79L75.4465 434.111L75.7676 434.433L75.888 434.874V435.316L75.7274 436.199L75.0451 436.159L74.2424 435.758L73.0382 434.874L72.0348 434.312L71.0715 434.071L68.583 433.951L68.1014 433.871L67.5796 433.67L67.1381 433.268L63.1645 424.756L62.8032 424.315L62.2413 423.913L61.1977 423.471L59.3916 422.95L58.5085 422.468L58.1072 422.066L57.6255 421.424L57.2643 420.46L56.8629 418.653L56.5017 418.131L55.9398 417.65L54.7356 417.087L53.9329 416.887L53.1703 416.806L49.7586 417.087L48.5946 417.047L47.5912 416.806L47.1898 416.606L43.6577 413.875L42.8149 413.474L40.4066 412.831L39.6039 412.31L39.3229 411.868L39.363 411.225L39.2828 410.463L39.0419 409.579L38.4399 408.134L38.1991 407.21L38.1188 406.448L38.3195 405.404L39.0419 403.677L39.1222 403.195V402.673L38.8413 401.75L38.6406 401.308L38.4399 400.345L38.3997 398.739L38.2392 398.136L36.8745 395.045L36.3929 393.117L34.2656 389.183L33.2622 388.018L31.9376 386.854L29.2083 385.328L27.8436 384.766L26.8803 384.565L25.8769 384.766L22.4652 386.131L21.5019 386.292L20.3781 386.171L19.8162 385.93L19.2944 385.649L18.6121 385.087L17.8896 384.284L16.9263 382.598L16.3242 380.751L15.4011 375.973L15.3208 375.652L15.4814 375.571L19.9366 374.126L20.3781 373.484L21.1407 368.947L21.5822 368.023L25.7164 362.844L26.5191 361.077L26.5592 359.832L26.1579 359.11L25.5558 358.347L24.9939 357.062L24.9136 356.018L29.3287 328.193L30.5328 324.5L37.0351 310.527L37.3562 309.925L38.2793 308.801L38.6406 308.198V307.717L38.3997 306.552L38.4399 306.07L39.2426 305.348L41.2495 304.143L41.9318 303.38L42.2529 302.376L42.6543 295.551L42.8951 294.908L43.457 294.828L44.0591 295.23L44.5408 295.752L44.6612 296.033L46.1061 294.788L50.2403 290.05L51.8859 288.846L57.2643 287.039L59.1106 286.115L59.9936 284.911L60.0739 283.345L59.512 281.177L58.3079 278.567L58.1072 277.403L58.4684 275.957L59.1106 274.753L59.6725 274.191L60.4351 274.271L61.559 274.793L62.6025 274.913L63.8468 274.472L67.8605 272.103L68.5027 270.697L64.3686 245.202L60.1943 219.706L59.7929 218.26L60.3147 217.979L60.5957 218.381L60.8365 218.541L61.559 218.662L63.4454 219.706L67.0578 223.641L67.5394 223.48H67.9809L68.3823 223.641L69.5864 224.885L72.1954 229.864L75.5669 232.474L76.3696 234.562L76.8513 235.525L78.9786 236.85L79.5003 237.613L79.701 238.577L81.3065 241.749L80.7847 243.435L81.5072 244.921L82.5909 246.286L83.1528 247.651L83.5542 248.213L85.24 248.775L85.6414 249.538L85.7618 250.341L86.8455 252.349L87.6884 255.601L88.4108 261.302L89.2537 262.507L90.4578 263.39L91.8225 264.153L93.1069 265.357L95.6355 268.529L98.405 269.975L100.733 273.91L102.258 275.395L105.549 276.198L109.443 276.118L118.032 274.351L118.393 274.11L118.995 273.548L120.44 271.059L121.243 270.336L122.327 268.69L123.812 267.004L125.698 266.08L127.866 266.321L131.438 268.088L133.405 268.529L135.091 268.007L135.974 266.803L136.295 265.157L136.254 263.551L134.729 260.138L131.92 259.495L128.468 259.776L125.056 259.174L124.093 258.371L123.33 257.086L122.849 255.561L122.648 253.874L122.447 253.192L122.046 252.429L121.885 251.626L122.327 250.783L123.571 249.257L124.053 248.374L124.454 247.33L124.695 245.603L124.454 240.143L124.575 238.215L124.976 236.288L125.739 234.522L126.902 232.956L130.595 231.39L137.298 233.518L139.947 232.353L141.071 232.032L141.713 231.51L142.235 230.747L142.516 229.784L142.957 229.021L143.439 228.66L144.081 228.378L145.205 228.057H145.887L151.226 229.101L152.149 229.141L154.356 228.9L155.36 228.7L157.086 227.937L157.888 227.495L158.531 226.893L158.731 226.451L159.253 223.761L159.374 223.279L159.815 222.476L160.457 221.794L161.902 220.87L164.11 220.549L168.926 220.348L170.05 220.429L171.094 220.71L171.896 221.111L173.221 222.276L174.064 223.159L175.388 224.283L179.844 227.294L180.646 227.696L182.172 228.218L184.098 228.579L185.463 228.7H187.389L188.152 228.941L188.634 229.262L189.115 230.667L189.557 232.675L190.881 235.726L191.202 237.171L191.283 238.095L191.202 238.617L190.841 239.54L189.918 241.307L189.396 241.949L184.78 246.125L184.259 246.848L183.817 247.691L183.576 248.695L183.536 251.666L183.456 252.228L183.095 253.111L182.533 253.794L181.529 254.677L180.887 255.28L180.325 256.002L179.884 256.805L179.763 257.287L180.245 257.929L181.168 258.813L183.617 260.419L184.861 262.025L185.824 263.671L195.377 290.612L195.899 291.415L196.541 291.817L197.464 292.058L198.066 292.379L198.748 292.861L199.19 292.981L199.511 292.74L199.952 291.977L200.474 291.255L201.277 289.729L201.437 289.528L202.08 289.087L202.521 288.846L202.882 288.524L203.163 288.083L203.404 286.999L203.364 284.79L203.163 283.867L202.802 283.024L201.839 281.498L201.478 280.695L201.277 279.691V279.089L201.478 278.005L201.638 277.563L202.12 276.76L202.842 276.198L203.685 275.877L206.535 275.194L206.976 274.994L207.699 274.472L209.023 273.267L209.585 272.585L210.027 271.741L211.472 267.967L211.953 267.244L212.234 266.963L212.957 266.321L213.8 265.839L214.643 265.478L215.967 265.036L216.77 264.635L217.412 264.032L218.014 263.39L219.138 261.904L219.74 261.262L220.583 260.78L221.506 260.66L222.63 260.7L224.356 260.981L225.48 261.061L226.403 261.021L228.41 260.62L230.457 260.499L231.019 260.579L231.942 260.941L232.624 261.503L234.109 263.069L235.153 264.474L235.434 264.795L236.277 265.839L245.629 273.428L250.606 276.359L252.291 276.921L255.944 277.483L257.59 277.403L258.513 277.081Z" fill="#009649" stroke="white" stroke-width="2" stroke-linejoin="round"></path>
<path class="region" data-country-region="South Region" d="M354.682 493.013L326.907 491.005L323.053 491.206L320.926 491.688L319.802 492.13L319.361 492.652L318.919 492.933L316.752 493.013L315.989 493.294L314.263 494.498L308.243 496.145L306.878 497.068L304.39 499.397L300.898 500.401L299.613 501.726L298.65 503.372L297.165 504.857L290.02 507.266L289.619 507.507L288.415 508.712L287.893 509.113L287.131 509.394L285.686 509.515L266.38 515.778L262.286 516.3L261.724 516.581L260.359 511.763L258.954 508.551L258.553 508.029L257.951 507.427L256.706 506.544L255.302 505.821L254.82 505.66L253.937 505.259L253.174 504.657L251.81 502.649L248.478 496.024L248.278 495.342L248.157 494.458L248.197 493.655L248.559 491.688L248.799 491.126L249.241 490.805L250.044 490.564L250.927 490.403L254.82 490.122L255.823 490.242L256.385 490.564V492.13L256.586 492.531L256.867 492.852L257.71 493.334L259.115 493.816L259.516 494.017L261.162 494.659L262.045 494.779L264.333 494.86L265.055 494.699L265.938 494.418L267.463 493.655L268.226 493.214L268.748 492.772L270.474 490.724L270.955 490.483L271.517 490.323L272.561 490.483L273.163 490.764L273.644 491.086L274.287 491.688L275.049 492.17L275.972 492.491L276.695 492.451L277.498 492.21L278.782 491.447L279.424 490.925L279.866 490.483L280.387 489.761L281.23 487.994L282.194 484.501L283.197 482.413L283.558 481.971L284.04 481.69L287.813 480.124L288.495 479.562L288.856 479.04L290.342 473.741L290.663 473.419L291.184 473.299L292.188 473.66L292.75 473.981L293.191 474.303L293.793 475.025L294.114 475.186L295.118 474.905L296.202 474.383L299.453 472.175L300.095 472.014L301.138 471.773H302.423L303.547 471.894L304.149 472.255L304.47 472.656L305.674 475.146L306.196 475.868L306.838 476.471L307.962 477.234L310.41 478.278L311.093 479.04L312.297 480.887L312.859 481.53L313.782 482.413L314.143 482.694L314.625 482.855L315.187 482.975L315.909 482.895L316.431 482.734L317.595 482.012L319 480.687L322.893 476.27L323.575 474.905L323.856 474.503L324.498 473.821L326.184 472.576L327.749 471.693L328.633 471.412L329.556 471.251L330.238 471.171L337.543 471.532L344.567 473.098L345.811 473.741L346.534 474.303L347.457 475.266L350.628 483.939L351.631 485.183L352.635 485.946L353.879 486.749L355.846 487.472L357.13 488.114L358.214 488.917L358.776 489.721L358.936 490.323L358.695 490.845L358.414 491.166L356.608 491.728L354.682 493.013Z" fill="#009649" stroke="white" stroke-width="2" stroke-linejoin="round"></path>
<path class="region" data-country-region="North Region" d="M285.846 43.283L284.04 43.7247L278.381 46.6557L274.006 47.0171L264.814 48.9845L263.65 49.386L262.968 49.8276L262.205 49.9079L258.071 51.795L255.864 52.3973H255.262L253.616 52.2768L253.094 52.1564L252.693 51.9155L251.689 50.9518L251.047 50.7511L250.606 50.8715L250.244 51.1526L249.963 51.514L249.602 52.3973L249.04 55.1677L248.84 55.6495L248.518 56.0912L247.916 56.7336L247.395 56.9745L246.873 57.0146L246.03 56.5328L245.468 56.3321H244.465L243.903 56.4927L243.341 56.7737L242.177 57.6972L241.655 57.8979L241.133 57.9381L239.769 57.4964H236.839L236.236 57.6972L235.835 58.0184L235.273 58.9017L234.832 59.3434L233.989 59.9055L233.467 59.9456L233.025 59.7047L232.664 59.4237L232.183 59.3032L231.42 59.9456L231.019 59.9858L230.698 59.785L230.537 59.3835L230.577 58.9419L230.738 58.5002L231.661 57.5366L231.942 57.1752L232.303 56.2518L232.383 55.1677L232.142 54.1639L231.902 53.8026L230.858 52.9594L230.617 52.5579L230.537 52.1162L230.617 51.7147L231.139 51.0723L231.3 50.6708L231.34 50.189L231.219 49.7473L230.978 49.3458L230.457 49.0246L229.694 48.7837L224.276 48.6632L223.352 48.8238L222.79 49.1049L222.63 49.5867L222.429 51.3132L222.229 51.7549L221.827 52.1564L221.265 52.5177L220.262 52.9192L219.66 53.2404L219.258 53.6018L219.138 54.0836L219.058 55.0874L218.937 55.4889L218.054 56.6131L217.733 57.5366L217.292 58.3798L213.719 61.5918L213.037 62.2744L212.034 63.0373L211.111 63.5191L210.508 63.5994L210.147 63.4388V63.0373L210.348 62.716L211.472 61.5918L211.913 61.11L212.114 60.7487L211.994 60.4274L211.432 60.1865L210.067 60.2267L209.264 60.1464L208.702 59.9456L207.9 59.4638L207.378 59.3434L206.214 59.2229L205.01 58.8616L204.046 58.7411L203.364 58.7813L202.32 59.0623L192.888 62.5554L192.126 63.0373L191.524 63.6797L191.243 64.041L190.841 64.9243L190.44 66.4501L190.038 67.0122L189.356 67.6145L186.225 69.1402L185.583 69.7424L185.102 70.5053L184.821 71.4288V72.4727L185.463 75.5643L185.583 76.6885L185.543 77.2507L185.342 78.3347L184.941 78.8567L184.379 79.3787L183.135 80.0612L182.573 80.0211L182.172 79.7802L181.81 78.937L181.369 78.6961L180.767 78.6158L179.362 78.6559L178.8 78.5756L178.358 78.415L176.753 77.5317L175.95 77.0097L174.505 76.6885L174.144 76.4075L173.943 76.006L173.582 75.0825L172.94 74.4802L172.137 74.0386L171.575 73.3159L171.294 72.4727L171.134 71.6295L171.776 71.0674L171.896 70.5455L172.017 69.0599L171.816 67.1728L171.334 65.5668L170.933 64.8039L170.532 64.2819L169.649 63.9206L169.167 63.8403L168.726 63.9607L168.324 64.1615L167.481 65.1652L167.2 65.4463L166.719 65.5668L165.595 64.563L164.832 64.1213L164.15 63.5994L163.829 63.2782L163.628 62.8766L163.307 61.913L163.227 61.3911L163.427 60.5078L163.468 59.9456L163.227 59.3032L162.906 58.982L161.621 58.3396L161.14 58.2191L160.056 58.0987L159.655 57.9381L158.972 57.1351L158.41 56.6131L157.969 56.4525L157.608 56.1715L157.046 54.8465L156.724 54.5253L156.323 54.3245L155.199 54.2442L154.677 54.1639L154.316 53.8829L154.075 53.5215L153.714 52.598L153.313 51.7549L153.192 51.2731L152.671 48.0208L152.109 46.736L152.028 46.0936L151.988 45.2504L152.47 42.6808L152.711 41.7974L153.032 41.0346L153.875 40.071L154.477 39.5892L155.039 39.2679L155.882 38.8664L156.403 38.5051L157.648 36.9793L158.932 35.8551L159.133 34.9316L159.173 33.7673L159.333 32.9643L160.016 32.0809L161.34 31.0772L161.661 30.756L162.544 30.3544L162.986 29.9931L163.307 29.3908L163.347 25.5363L163.146 24.4924L163.267 24.0106L163.628 23.328L163.829 22.5652L163.869 21.3205L163.708 19.9152L164.19 18.1084L165.956 14.1335L169.849 15.6592L172.097 16.1009L194.373 16.3016L195.176 14.9365L197.745 14.535L210.147 15.4986L210.91 15.6592L211.592 16.141L212.234 17.3857L212.676 17.6668L213.599 17.6266L213.037 18.9115L214.602 18.6706L216.609 16.4623L218.536 16.1009L219.058 15.4986L219.579 15.2577L220.061 15.4585L220.543 16.141L231.42 16.3418L231.54 17.3857L231.942 17.466L232.584 17.2251L233.427 17.3054L233.949 17.9478L233.547 18.6706L232.905 19.3933L232.624 20.0357L236.959 24.2515L238.524 23.2477L239.447 21.2001L240.09 18.9516L240.933 17.4259L242.217 16.9039L244.063 16.7032L247.595 16.8236L247.916 16.7433L248.478 16.382L249.522 15.0971L251.89 13.9327L252.974 13.0896L253.455 12.126L253.656 10.0381L254.098 8.67299L255.823 6.50484H257.549L259.235 7.86997L260.881 9.79721L265.376 6.50484L266.54 5.38061L267.222 4.01548L267.022 3.17232L266.661 2.32915L266.942 0.843567L279.143 3.41322L279.785 4.93895L281.271 6.30408L283.117 7.34801L284.762 7.74952L286.408 7.58891L289.459 6.78589L291.184 6.74574L294.195 7.91012L295.519 10.0381L295.84 12.8888L295.559 16.141L295.359 17.3054L294.717 17.9077L293.954 18.4296L293.231 19.1925L292.79 20.0357L290.823 29.2704L290.903 30.1537L291.345 31.9605L291.184 32.9241L290.422 33.687L288.576 34.9316L287.291 36.5377L286.609 38.1437L286.127 41.9982L285.846 43.283Z" fill="#009649" stroke="white" stroke-width="2" stroke-linejoin="round"></path>
<path class="region" data-country-region="North Region" d="M165.956 14.1335L164.19 18.1084L163.709 19.9152L163.869 21.3205L163.829 22.5652L163.628 23.328L163.267 24.0106L163.147 24.4924L163.347 25.5363L163.307 29.3908L162.986 29.9931L162.545 30.3544L161.662 30.7559L161.34 31.0771L160.016 32.0809L159.334 32.9642L159.173 33.7672L159.133 34.9316L158.932 35.8551L157.648 36.9793L156.404 38.505L155.882 38.8664L155.039 39.2679L154.477 39.5891L153.875 40.0709L153.032 41.0346L152.711 41.7974L152.47 42.6807L151.988 45.2504L152.029 46.0936L152.109 46.736L152.671 48.0208L153.193 51.273L153.313 51.7548L153.714 52.598L154.076 53.5215L154.316 53.8828L154.678 54.1639L155.199 54.2442L156.323 54.3245L156.725 54.5252L157.046 54.8465L157.608 56.1714L157.969 56.4525L158.41 56.6131L158.972 57.135L159.655 57.9381L160.056 58.0987L161.14 58.2191L161.621 58.3396L162.906 58.982L163.227 59.3032L163.468 59.9456L163.428 60.5077L163.227 61.391L163.307 61.913L163.628 62.8766L163.829 63.2781L164.15 63.5993L164.832 64.1213L165.595 64.563L166.719 65.5667L167.2 65.4463L167.481 65.1652L168.324 64.1614L168.726 63.9607L169.167 63.8402L169.649 63.9205L170.532 64.2819L170.933 64.8039L171.335 65.5667L171.816 67.1728L172.017 69.0599L171.897 70.5454L171.776 71.0674L171.134 71.6295L168.244 70.706L164.993 69.0197L163.066 68.2167L161.862 68.0962L160.618 68.1765L159.976 68.3773L159.213 68.8993L158.009 70.4651L156.203 73.878L155.681 74.6007L154.397 75.8454L150.784 78.5355L149.66 79.6998L148.818 80.9044L148.296 81.868L148.135 82.3498L147.894 83.4339L147.654 87.0073L147.373 88.1717L145.928 90.8216L145.647 91.464L145.607 92.0663L146.209 92.7087L153.032 98.8518L153.714 99.5745L154.116 100.257L153.875 100.779L153.514 101.1L152.55 101.462L151.427 102.024L151.025 102.144L150.062 102.184L149.5 102.104L148.617 101.743L148.175 101.662L147.292 101.903L146.169 102.104L145.607 102.305L145.526 102.586L145.767 102.787L147.252 103.188L147.694 103.429L147.975 103.79L147.854 104.513L147.573 104.915L147.092 105.115H146.53L146.008 104.995H145.005L143.8 105.677L143.198 105.838L142.476 106.199L142.075 106.561L141.794 106.962L141.232 108.327L141.151 108.89L141.272 110.415V111.379L141.432 111.78L142.155 112.905L142.396 113.908L142.355 114.551L142.235 115.314L141.914 116.317L141.713 117.321L141.432 117.923L141.111 118.285L140.67 118.486L138.583 119.128L137.74 119.73L137.178 120.453L136.415 121.738L135.893 122.26L135.331 122.581L133.164 122.661L128.147 121.979H127.786L126.341 122.26L125.217 122.38L119.357 121.979L107.637 124.629L104.225 124.749L102.058 124.428L101.014 124.187L98.646 124.026H97.4017L96.3581 124.187L93.4281 125.07L92.9063 125.11L84.919 124.508L84.3972 124.589L76.0487 127.158L74.965 127.319L70.5097 127.399L69.145 127.64L67.7804 128.041L67.0178 128.363L66.496 128.684L66.1749 129.005L65.6531 129.728L65.4524 130.169L64.8905 131.856L64.449 132.579L63.9673 132.98L63.3251 133.221L61.7196 133.582L61.1176 133.863L60.6761 134.185L59.9135 135.469L59.472 136.031L58.7093 136.915L57.9869 137.397L57.3447 137.678L47.1498 139.083L46.4675 138.521L46.1865 137.678L46.0661 136.875L45.6246 136.112L44.8218 135.71L44.3402 135.791L43.8184 135.71L43.0959 134.867L42.4939 132.98L42.815 131.053L44.3402 128.001L47.4308 124.508L47.9927 123.585L47.7519 122.701L45.6246 119.208L45.2232 116.92L46.0661 112.744L46.1464 110.415L45.5845 108.769L43.5375 105.677L43.0959 103.831V96.0011L42.1728 91.8655L42.2129 90.0588L43.3769 88.1717L45.1831 86.7262L45.8654 85.9232L46.1464 84.7187L46.1062 83.5142L45.8253 83.0324L45.2232 82.7513L44.3402 82.1892L43.4572 81.868L42.6544 81.9081L42.0925 81.6672L41.8517 80.6233L41.5306 80.021L40.768 79.8203L39.8448 79.74L39.0822 79.3786L38.3597 77.893V75.9658L38.8012 74.1189L39.4033 72.7537L40.0455 71.9106L40.7278 71.3485L41.6109 71.0272L42.7748 70.947L43.7783 70.5454L44.581 69.7023L44.9824 68.8591L44.6212 68.4576L42.4136 68.3773L40.9687 68.1364L39.8448 67.5743L36.7141 64.7637L35.9916 63.5993L35.7107 61.8327L35.4699 61.391L34.2256 60.1865L33.8242 59.6244L33.5834 58.7411L33.4228 56.7737L33.2222 55.8904L30.533 51.0723L30.1316 49.3056L30.3724 48.4223L31.5765 46.214L32.1385 44.7284L32.58 43.9656V43.3633L32.3391 42.9618L31.9378 42.761L31.3758 42.6807L31.0548 41.3558L31.3357 40.7936L32.299 39.8702L32.7807 38.9869L33.1018 36.899L34.627 34.4097L35.6304 30.1537L36.2726 28.2264L37.4767 26.8613L38.9217 25.7371L40.1258 24.4121L40.6476 22.2841L40.0856 20.5576L39.1223 18.9114L38.5604 17.1448L38.8414 16.5024L38.6808 15.9804L46.4675 16.1009L46.5076 17.1046L74.4833 16.8236L96.2377 16.5827L116.507 16.3819L150.182 16.0607L151.226 15.4585L151.868 13.8524L153.433 13.3706L164.832 13.6918L165.956 14.1335Z" fill="#009649" stroke="white" stroke-width="2" stroke-linejoin="round"></path>
<path class="region" data-country-region="South Region" d="M327.188 220.429L327.79 223.761L330.399 229.503L334.011 234.522L337.583 236.971L339.149 238.778L341.316 240.785L343.644 242.472L349.544 245.282L351.109 248.615L352.273 252.068L355.725 254.918L355.926 255.882L355.886 256.926L356.127 258.251L356.046 259.174L356.127 259.616L356.448 259.897L357.531 260.098L357.893 260.379L358.214 262.627L357.531 264.033L356.127 264.916L352.153 266.682L350.628 267.686L347.618 270.376L346.895 270.738L346.173 270.858L345.731 271.179L345.611 272.384L346.012 273.307L346.694 273.99L347.296 274.793L347.457 276.038L346.975 277.202L346.293 277.764L345.811 278.407L346.293 280.655L346.654 284.911L347.457 288.324L347.497 290.05L347.457 293.463L348.38 299.887L348.3 305.348L349.143 310.527L348.942 315.305L349.183 317.072L346.574 316.63L345.41 318.477L345.129 321.288L345.169 323.777L344.647 324.982L343.443 325.624L341.998 326.025L340.834 326.547L339.911 327.431L339.349 328.394L339.028 329.519L338.667 334.778L339.149 339.275L340.593 343.25L343.403 345.78L345.049 346.021L346.855 345.699L350.146 344.455L350.748 345.258L352.193 351.2L352.073 353.167L350.869 356.5L350.026 360.716L347.858 366.136L347.577 369.71L347.979 373.805L347.898 377.74L346.173 380.872L345.009 381.514L341.236 382.518L339.911 382.598L338.587 383L339.63 384.405L342.199 386.372L343.243 388.299L343.042 389.825L341.115 393.037L340.513 394.924L340.794 395.808L341.677 396.33L342.761 397.173L345.37 402.031L345.972 402.834L347.537 403.155L349.103 404.039L350.387 405.283L351.15 406.729L351.27 408.214L350.467 412.791L350.989 414.679L352.153 415.763L353.437 416.686L354.2 418.132L355.083 418.212L357.572 418.132L358.414 418.292L359.538 419.457L359.498 420.3L358.856 421.143L358.294 422.307L358.133 424.716L358.695 426.925L359.779 429.093L361.184 431.261L363.11 433.228L367.526 435.437L369.813 436.842L372.743 440.415L373.907 441.299L375.754 441.78L382.617 441.821L384.945 449.088L386.35 451.055L387.072 451.617L387.755 451.858L388.397 452.26L389.119 453.023L390.283 454.87L391.247 455.994L392.491 456.636L399.957 457.479L401 458.925L400.759 462.097L400.157 462.338L396.063 464.546L392.973 466.955L388.397 471.894L387.353 473.459L385.146 477.876L384.704 479.643L384.584 481.53L383.661 485.746L382.858 487.432L380.008 490.122L376.396 491.407L359.177 493.334L354.682 493.013L356.608 491.728L358.414 491.166L358.695 490.845L358.936 490.323L358.776 489.721L358.214 488.918L357.13 488.114L355.846 487.472L353.879 486.749L352.635 485.946L351.631 485.184L350.628 483.939L347.457 475.266L346.534 474.303L345.811 473.741L344.567 473.098L337.543 471.532L330.238 471.171L329.556 471.251L328.633 471.412L327.75 471.693L326.184 472.576L324.498 473.821L323.856 474.503L323.575 474.905L322.893 476.27L323.134 467.959L322.973 467.236L322.612 466.594L319.481 464.747L317.595 463.141L316.431 462.498L314.865 462.257L308.684 462.418L307.079 461.936L302.824 458.684L302.262 457.76L302.182 456.235L302.503 454.629L303.145 453.424L303.587 452.3L303.386 450.694L302.784 448.967L302.302 448.004L302.704 447.482L306.718 445.916L308.243 445.033L309.688 443.989L310.25 443.346L310.972 442.142L313.581 434.232L313.621 433.509L313.581 432.666L313.22 431.381L312.818 430.779L312.417 430.378L311.293 429.655L310.651 429.012L310.169 428.25L309.888 427.326L309.527 425.238L309.286 424.275L309.046 423.873L308.323 423.311L307.44 423.11L304.791 423.271L304.309 423.15L304.069 422.829L304.109 421.665L304.39 419.978L305.794 414.638L306.236 413.635L307.601 411.908L308.845 410.663L309.206 410.382L312.738 408.335L313.34 407.692L313.461 406.97L313.541 405.926L313.019 402.031L312.658 401.188L312.176 400.425L311.574 399.783L310.892 399.22L310.009 398.819L308.644 398.337L308.243 398.096L307.641 397.454L307.239 396.651L306.958 395.687L306.999 394.804L307.239 393.64L308.082 391.271L308.564 390.187L309.005 389.464L310.611 387.978L310.932 387.697L312.216 386.453L312.979 385.368L313.18 384.927L313.38 383.963L313.461 382.518L313.26 379.948L312.859 377.86L312.698 377.378V376.616L312.859 375.612L313.461 373.805L314.143 372.239L314.384 371.878L314.585 370.232L314.223 365.373L313.782 362.563V362.001L313.902 360.957L315.427 356.139L315.789 353.368V352.204L315.387 349.474L315.066 348.911L314.544 348.309L313.421 347.346L312.096 346.583L309.607 345.9L306.316 344.214L305.915 343.812L305.554 343.21L305.152 342.126L304.992 341.363L304.711 335.983L304.59 335.461L303.507 332.851L297.566 322.613L295.439 316.63L295.319 315.506L294.957 314.582L294.476 313.9L293.392 313.217L292.75 312.976L290.703 312.655L289.78 312.454L288.856 312.053L288.054 311.411L287.331 310.648L285.124 307.114L284.883 306.673L284.602 305.749L284.201 302.457L283.96 301.493L280.107 292.379L279.063 290.693L277.979 289.408L265.456 279.29L263.65 278.447L258.513 277.082L260.439 275.154L262.245 271.22L262.807 270.617L263.369 270.336L264.373 270.577H265.055L265.858 270.457L268.989 269.413H269.591L270.072 269.573L272.2 270.577L272.681 270.738L273.363 270.818H274.247L275.772 270.497L276.494 270.055L277.056 269.453L277.417 268.77L277.939 268.489L278.662 268.289L278.943 267.887L279.103 267.365L280.107 265.759L280.187 265.277L280.066 264.233L280.227 263.631L280.668 262.948L281.993 261.704L282.916 261.061L283.639 260.66L287.612 259.255L289.499 259.214L291.706 259.616L293.593 260.218L295.038 260.861L298.208 262.908L299.493 264.153L300.296 265.157L302.262 267.084L303.346 267.887L304.349 267.967H305.915L309.567 267.526L311.012 267.164L311.855 266.642L311.976 266.12L311.895 265.237L311.695 264.836L311.093 261.142L311.133 260.58L311.414 259.977L311.855 259.696L312.457 259.616L315.227 259.495L315.829 259.214L316.15 258.893L316.27 257.849L316.15 256.765L315.989 256.324L315.026 254.838L314.304 254.276L313.38 253.955L312.818 253.915L310.089 254.236L308.122 254.718L306.035 255.039H305.554L304.55 254.918L303.587 254.637L303.145 254.477L302.583 253.874L302.543 253.433L302.744 252.429V251.867L302.543 250.863L302.222 249.94L302.142 249.418L302.343 248.655L302.704 248.293L303.266 247.972L303.908 247.852L304.831 247.531L305.273 247.169L305.513 246.687L305.433 246.206L305.233 245.804L304.871 245.483L303.186 244.68L302.824 244.399L302.583 244.037L302.463 243.596L302.503 242.552L302.624 242.07L303.627 239.219L304.269 237.854L305.233 236.328L305.754 235.927L306.276 235.766L306.718 235.887L307.52 236.369L308.042 236.529H308.604L309.407 236.208L309.728 235.766L309.848 235.204L309.728 234.722L309.527 234.321L308.203 233.116L307.721 232.353L307.52 231.952L307.28 230.988L307.4 230.306L307.761 229.543L309.567 227.214L310.33 225.769L310.892 224.203L311.333 223.48V222.958L311.173 222.517L310.571 221.714L310.771 220.629L311.414 220.067L313.621 219.144L314.544 218.903H315.026L315.989 219.144L318.076 220.348L319.12 220.589L320.204 220.549L323.094 219.987L323.615 219.947L327.188 220.429Z" fill="#009649" stroke="white" stroke-width="2" stroke-linejoin="round"></path>
<path class="region" data-country-region="North Region" d="M327.188 220.429L323.615 219.947L323.094 219.987L320.204 220.549L319.12 220.589L318.076 220.348L315.989 219.144L315.026 218.903H314.544L313.621 219.144L311.414 220.067L310.771 220.629L310.571 221.713L311.173 222.516L311.333 222.958V223.48L310.892 224.203L310.33 225.769L309.567 227.214L307.761 229.543L307.4 230.306L307.28 230.988L307.52 231.952L307.721 232.353L308.203 233.116L309.527 234.321L309.728 234.722L309.848 235.204L309.728 235.766L309.407 236.208L308.604 236.529H308.042L307.52 236.368L306.718 235.887L306.276 235.766L305.754 235.927L305.233 236.328L304.269 237.854L303.627 239.219L302.624 242.07L302.503 242.552L302.463 243.596L302.583 244.037L302.824 244.399L303.186 244.68L304.871 245.483L305.233 245.804L305.433 246.205L305.513 246.687L305.273 247.169L304.831 247.53L303.908 247.852L303.266 247.972L302.704 248.293L302.343 248.655L302.142 249.417L302.222 249.939L302.543 250.863L302.744 251.867V252.429L302.543 253.433L302.583 253.874L303.145 254.476L303.587 254.637L304.55 254.918L305.554 255.039H306.035L308.122 254.717L310.089 254.236L312.818 253.914L313.38 253.955L314.304 254.276L315.026 254.838L315.989 256.323L316.15 256.765L316.27 257.849L316.15 258.893L315.829 259.214L315.227 259.495L312.457 259.616L311.855 259.696L311.414 259.977L311.133 260.579L311.093 261.142L311.695 264.835L311.895 265.237L311.976 266.12L311.855 266.642L311.012 267.164L309.567 267.526L305.915 267.967H304.35L303.346 267.887L302.262 267.084L300.296 265.157L299.493 264.153L298.209 262.908L295.038 260.86L293.593 260.218L291.706 259.616L289.499 259.214L287.612 259.254L283.639 260.66L282.916 261.061L281.993 261.704L280.669 262.948L280.227 263.631L280.066 264.233L280.187 265.277L280.107 265.759L279.103 267.365L278.943 267.887L278.662 268.288L277.939 268.489L277.417 268.77L277.056 269.453L276.494 270.055L275.772 270.497L274.247 270.818H273.364L272.681 270.738L272.2 270.577L270.072 269.573L269.591 269.413H268.989L265.858 270.457L265.055 270.577H264.373L263.369 270.336L262.807 270.617L262.245 271.219L260.439 275.154L258.513 277.081L257.59 277.403L255.944 277.483L252.291 276.921L250.606 276.359L245.629 273.428L236.277 265.839L235.434 264.795L235.153 264.474L234.109 263.069L232.624 261.503L231.942 260.941L231.019 260.579L230.457 260.499L228.41 260.62L226.403 261.021L225.48 261.061L224.356 260.981L222.63 260.7L221.506 260.66L220.583 260.78L219.74 261.262L219.138 261.904L218.014 263.39L217.412 264.032L216.77 264.635L215.967 265.036L214.643 265.478L213.8 265.839L212.957 266.321L212.234 266.963L211.953 267.244L211.472 267.967L210.027 271.741L209.585 272.585L209.023 273.267L207.699 274.472L206.976 274.994L206.535 275.194L203.685 275.877L202.842 276.198L202.12 276.76L201.638 277.563L201.478 278.005L201.277 279.089V279.691L201.478 280.695L201.839 281.498L202.802 283.024L203.163 283.867L203.364 284.79L203.404 286.999L203.163 288.083L202.882 288.524L202.521 288.846L202.08 289.087L201.437 289.528L201.277 289.729L200.474 291.255L199.952 291.977L199.511 292.74L199.19 292.981L198.748 292.861L198.066 292.379L197.464 292.058L196.541 291.817L195.899 291.415L195.377 290.612L185.824 263.671L184.861 262.025L183.617 260.419L181.168 258.813L180.245 257.929L179.763 257.287L179.884 256.805L180.325 256.002L180.887 255.279L181.529 254.677L182.533 253.794L183.095 253.111L183.456 252.228L183.536 251.666L183.576 248.695L183.817 247.691L184.259 246.848L184.781 246.125L189.396 241.949L189.918 241.307L190.841 239.54L191.202 238.617L191.283 238.095L191.202 237.171L190.881 235.726L189.557 232.675L189.115 230.667L188.634 229.262L188.152 228.941L187.389 228.7H185.463L184.098 228.579L182.172 228.218L180.646 227.696L179.844 227.294L175.388 224.283L174.064 223.159L173.221 222.275L171.896 221.111L171.094 220.71L170.05 220.429L168.926 220.348L164.11 220.549L161.902 220.87L160.457 221.794L159.815 222.476L159.374 223.279L159.253 223.761L158.731 226.451L158.531 226.893L157.889 227.495L157.086 227.937L155.36 228.7L154.356 228.9L152.149 229.141L151.226 229.101L145.887 228.057H145.205L144.081 228.378L143.439 228.659L142.957 229.021L142.516 229.784L142.235 230.747L141.713 231.51L141.071 232.032L139.947 232.353L137.298 233.518L130.595 231.39L126.903 232.956L125.739 234.521L124.976 236.288L124.575 238.215L124.454 240.143L124.695 245.603L124.454 247.33L124.053 248.374L123.571 249.257L122.327 250.783L121.885 251.626L122.046 252.429L122.447 253.192L122.648 253.874L122.849 255.561L123.33 257.086L124.093 258.371L125.056 259.174L128.468 259.776L131.92 259.495L134.729 260.138L136.255 263.551L136.295 265.157L135.974 266.803L135.091 268.007L133.405 268.529L131.438 268.088L127.866 266.321L125.698 266.08L123.812 267.004L122.327 268.69L121.243 270.336L120.44 271.059L118.995 273.548L118.393 274.11L118.032 274.351L109.443 276.118L105.549 276.198L102.258 275.395L100.733 273.909L98.405 269.975L95.6356 268.529L93.1069 265.357L91.8225 264.153L90.4578 263.39L89.2537 262.507L88.4108 261.302L87.6884 255.601L86.8455 252.348L85.7618 250.341L85.6414 249.538L85.24 248.775L83.5542 248.213L83.1529 247.651L82.5909 246.286L81.5072 244.921L80.7848 243.435L81.3065 241.749L79.701 238.577L79.5004 237.613L78.9786 236.85L76.8513 235.525L76.3697 234.562L75.5669 232.474L72.1954 229.864L69.5865 224.885L68.3823 223.641L67.981 223.48H67.5394L67.0578 223.641L63.4454 219.706L61.559 218.662L60.8365 218.541L60.5957 218.381L60.3147 217.979L59.7929 218.26L58.9501 218.662L58.5086 217.899L58.7494 216.735L59.3916 216.132L60.3549 215.61L60.4753 214.366L58.629 208.022L58.5086 206.456L58.3079 205.653L57.8262 205.452L57.184 205.332L56.6622 204.93L55.2574 200.674L55.1772 198.787L54.5751 197.342L52.3274 196.097L50.0396 195.615L47.7518 195.495L46.4674 195.294L45.785 194.772L45.183 194.17L44.3401 193.688L45.183 192.403L45.5442 190.958L45.7048 186.381L46.1061 185.618L47.9926 183.65L49.5579 180.438L50.6416 178.752L53.4914 177.266L54.5751 175.54L54.6955 173.813L53.2506 173.01L51.6852 172.649L50.4008 171.726L49.7185 170.32L49.8389 168.594L50.8022 167.389L52.0063 166.787L53.09 166.104L53.5315 164.579V162.089L53.09 160.564L52.9696 159.881L53.3308 156.95L53.2506 155.665L48.7953 149.964L45.5442 147.033L45.1027 146.069L44.9421 144.584L45.0626 143.138L45.5041 141.612L46.3068 140.287L47.4307 139.284L47.1497 139.083L57.3446 137.678L57.9868 137.397L58.7092 136.915L59.4719 136.031L59.9134 135.469L60.676 134.184L61.1175 133.863L61.7195 133.582L63.325 133.221L63.9672 132.98L64.4489 132.578L64.8904 131.856L65.4523 130.169L65.653 129.728L66.1748 129.005L66.4959 128.684L67.0177 128.363L67.7803 128.041L69.1449 127.64L70.5096 127.399L74.9648 127.319L76.0486 127.158L84.3971 124.588L84.9189 124.508L92.9062 125.11L93.428 125.07L96.358 124.187L97.4016 124.026H98.6458L101.014 124.187L102.058 124.428L104.225 124.749L107.637 124.629L119.357 121.979L125.217 122.38L126.341 122.26L127.786 121.979H128.147L133.164 122.661L135.331 122.581L135.893 122.26L136.415 121.738L137.178 120.453L137.74 119.73L138.582 119.128L140.67 118.486L141.111 118.285L141.432 117.923L141.713 117.321L141.914 116.317L142.235 115.314L142.355 114.551L142.396 113.908L142.155 112.905L141.432 111.78L141.272 111.379V110.415L141.151 108.889L141.232 108.327L141.793 106.962L142.074 106.561L142.476 106.199L143.198 105.838L143.8 105.677L145.004 104.995H146.008L146.53 105.115H147.092L147.573 104.915L147.854 104.513L147.975 103.79L147.694 103.429L147.252 103.188L145.767 102.787L145.526 102.586L145.607 102.305L146.168 102.104L147.292 101.903L148.175 101.662L148.617 101.743L149.5 102.104L150.062 102.184L151.025 102.144L151.426 102.024L152.55 101.462L153.514 101.1L153.875 100.779L154.116 100.257L153.714 99.5744L153.032 98.8517L146.209 92.7086L145.607 92.0662L145.647 91.464L145.928 90.8216L147.373 88.1716L147.653 87.0072L147.894 83.4338L148.135 82.3497L148.296 81.8679L148.817 80.9043L149.66 79.6998L150.784 78.5354L154.397 75.8453L155.681 74.6006L156.203 73.8779L158.009 70.4651L159.213 68.8992L159.976 68.3772L160.618 68.1765L161.862 68.0962L163.066 68.2166L164.993 69.0196L168.244 70.706L171.134 71.6294L171.294 72.4726L171.575 73.3158L172.137 74.0385L172.94 74.4801L173.582 75.0824L173.943 76.0059L174.144 76.4074L174.505 76.6884L175.95 77.0097L176.753 77.5316L178.359 78.4149L178.8 78.5755L179.362 78.6558L180.767 78.6157L181.369 78.696L181.81 78.9369L182.172 79.7801L182.573 80.021L183.135 80.0611L184.379 79.3786L184.941 78.8566L185.342 78.3346L185.543 77.2506L185.583 76.6884L185.463 75.5642L184.821 72.4726V71.4287L185.102 70.5052L185.583 69.7424L186.225 69.1401L189.356 67.6144L190.038 67.0121L190.44 66.45L190.841 64.9242L191.243 64.0409L191.524 63.6796L192.126 63.0372L192.888 62.5553L202.321 59.0622L203.364 58.7812L204.046 58.741L205.01 58.8615L206.214 59.2228L207.378 59.3433L207.9 59.4637L208.702 59.9455L209.264 60.1463L210.067 60.2266L211.432 60.1864L211.994 60.4273L212.114 60.7486L211.913 61.1099L211.472 61.5917L210.348 62.716L210.147 63.0372V63.4387L210.509 63.5993L211.111 63.519L212.034 63.0372L213.037 62.2743L213.72 61.5917L217.292 58.3797L217.733 57.5365L218.054 56.613L218.937 55.4888L219.058 55.0873L219.138 54.0835L219.258 53.6017L219.66 53.2403L220.262 52.9191L221.265 52.5176L221.827 52.1563L222.229 51.7548L222.429 51.3131L222.63 49.5866L222.791 49.1048L223.352 48.8237L224.276 48.6631L229.694 48.7836L230.457 49.0245L230.979 49.3457L231.219 49.7472L231.34 50.1889L231.3 50.6707L231.139 51.0722L230.617 51.7146L230.537 52.1161L230.617 52.5578L230.858 52.9593L231.902 53.8025L232.143 54.1638L232.383 55.1676L232.303 56.2517L231.942 57.1751L231.661 57.5365L230.738 58.5001L230.577 58.9418L230.537 59.3834L230.698 59.7849L231.019 59.9857L231.42 59.9455L232.183 59.3031L232.664 59.4236L233.026 59.7046L233.467 59.9455L233.989 59.9054L234.832 59.3433L235.273 58.9016L235.835 58.0183L236.237 57.6971L236.839 57.4963H239.769L241.133 57.938L241.655 57.8978L242.177 57.6971L243.341 56.7736L243.903 56.4926L244.465 56.332H245.468L246.03 56.5327L246.873 57.0145L247.395 56.9744L247.916 56.7335L248.519 56.0911L248.84 55.6494L249.04 55.1676L249.602 52.3972L249.963 51.5139L250.244 51.1525L250.606 50.8714L251.047 50.751L251.689 50.9517L252.693 51.9154L253.094 52.1563L253.616 52.2767L255.262 52.3972H255.864L258.071 51.7949L262.205 49.9078L262.968 49.8275L263.65 49.3859L264.814 48.9844L274.006 47.017L278.381 46.6556L284.04 43.7246L285.846 43.2829L285.284 45.6117L285.244 47.4988L286.127 49.3859L286.93 50.0684L287.933 50.5502L288.977 50.8313L291.064 51.0722L291.706 51.5139L292.268 52.076L293.111 52.6381L295.921 53.5616L296.723 54.0835L297.446 54.9267L298.489 56.9744L299.212 57.8577L303.988 60.869L305.433 62.3947L310.009 70.987L310.25 71.3082L310.972 71.2279L311.333 70.706L311.574 70.1037L311.815 69.8628L314.183 70.7863L315.066 70.9067L316.07 70.6257L316.912 70.2242L317.755 69.9833L318.679 70.184L319.562 71.0673L319.602 72.0711L319.281 73.0749L319.16 73.8377L320.164 75.4839L321.729 76.8892L322.652 78.3346L321.849 80.2217L323.134 80.1816L327.067 79.5392L327.95 79.9407L329.756 81.4664L327.549 83.1126L327.147 84.5179L326.867 86.0436L326.224 87.2481L326.385 90.3397L325.903 96.804L326.786 99.1729L327.91 99.9358L328.914 100.177L329.636 100.779L329.917 102.626L329.516 104.393L328.512 104.674L327.147 104.433L325.542 104.754L326.104 105.637L326.024 106.239L325.743 106.802L325.542 107.645L325.703 108.247L326.786 110.415L327.388 112.222L327.348 112.985L326.706 113.547L325.542 114.792L324.82 116.197L324.659 117.442L325.06 121.135L325.02 122.139L323.094 129.246L323.214 130.972L323.696 131.936L324.338 132.659L324.94 133.582L325.381 134.907L325.582 136.553L325.301 138.159L324.378 139.284L322.773 139.484L321.247 138.641L318.839 136.112L317.555 138.722L317.635 141.371L319.08 143.299L321.849 143.62L325.502 142.656L327.308 143.018L328.071 144.905L327.469 146.149L325.983 146.591L324.338 146.31L323.094 145.467L321.488 146.551L319.321 146.671L314.785 146.149L314.585 146.752L314.143 149.321L314.183 149.883L315.066 150.727L315.949 151.369L316.912 151.771L319.2 151.329L320.445 151.409L321.247 152.373L320.926 153.336L319.762 154.139L318.357 154.702L314.585 155.464V156.749L315.227 158.195L314.504 159.239L314.906 160.483L316.551 160.644L318.237 160.323L322.371 158.877L323.053 158.275L323.415 157.512L323.656 155.665L324.137 154.942L325.502 154.34L327.509 153.979L331.121 153.778L332.807 154.059L337.583 155.826L338.185 156.629L338.346 157.512L338.145 158.436L337.543 159.48L337.583 159.761L340.272 160.684L341.918 162.089L342.48 164.257L341.637 168.875L341.477 171.525L341.115 172.689L340.192 173.653L339.189 174.215L338.426 175.098L338.346 176.905L339.47 180.157L339.51 181.603L338.426 183.49L336.379 185.297L335.817 186.18V187.625L335.336 190.556L333.81 193.367L332.887 196.177L334.131 199.028L338.466 206.416L339.59 210.873L337.583 213.763L337.142 214.888L337.021 216.293L336.7 217.498L335.697 217.979L334.533 217.779L333.61 217.498L332.807 217.417L331.844 217.698L332.325 218.06L331.723 219.585L330.8 220.669L329.837 218.622L328.753 218.18L327.629 218.381L326.987 219.264L327.188 220.429Z" fill="#009649" stroke="white" stroke-width="2" stroke-linejoin="round"></path>
<path class="region" data-country-region="South Region" d="M75.7278 436.199L75.4468 438.367L76.1693 438.889L76.972 438.97L78.1761 438.93L78.6578 438.809L79.4605 438.408L79.8218 438.167L80.9857 437.043L81.2667 436.601L81.7082 435.677L82.0293 434.754L82.2701 433.75L83.1933 427.446L83.4341 426.724L83.9158 425.68L84.3974 425.238L84.8791 424.997H85.4008L85.8825 425.158L86.7254 425.559L89.4949 427.246L90.0568 427.366H90.7391L92.7058 426.724L93.3882 426.603L94.1106 426.724L94.5521 427.005L94.793 427.326L94.9937 427.968L95.0338 428.932L93.3079 434.071L93.1875 435.196L93.3079 436.199L93.5487 436.601L94.3515 437.002L100.974 438.528L101.375 438.729L102.098 439.291L102.78 440.415L102.981 440.857L103.382 442.302L103.864 443.386L104.386 443.989L104.948 444.23L105.67 444.35L107.757 444.27L107.276 445.595L106.633 446.518L105.189 447.843L104.065 448.646L101.616 449.65L100.091 450.453L99.4088 451.015L98.9673 451.577L98.8067 452.059L98.6462 453.143L98.606 454.267L98.7264 455.432L99.1278 456.716L99.77 457.841L100.131 458.242L102.78 460.009L104.265 460.691L105.47 461.053L107.316 461.655L108.038 462.177L108.961 463.141L109.242 463.703L110.206 466.112L110.567 466.513L111.249 466.995L114.099 468.159L115.464 468.882L116.146 469.404L117.872 471.171L121.966 477.073L122.488 477.675L124.133 478.92L124.976 479.362L127.104 479.883L127.545 480.044L128.107 480.566L128.789 481.329L130.034 483.015L130.475 483.939L130.676 484.742L130.636 485.304L130.274 486.91L130.154 488.315L130.234 489.279L130.435 489.841L130.796 490.202L131.96 490.724L132.602 491.246L132.803 491.808L132.763 492.25L132.522 492.611L131.88 493.254L131.398 493.976L131.157 494.98L131.238 496.787L131.117 497.791L130.636 499.718L130.074 501.204L129.993 502.007V502.97L130.314 504.777L130.676 505.58L131.117 506.022H132.121L135.091 504.817L136.014 504.576L137.058 504.456L138.181 504.536L139.064 504.978L140.068 505.821L140.991 506.182L141.513 506.303L143.68 506.343L144.764 506.504L145.727 506.825L146.57 507.226L148.216 508.11L149.42 509.194L150.544 510.398L151.427 511.723L151.547 512.566L151.427 512.928L150.744 513.972L150.343 514.212L149.54 514.534L149.018 515.297L148.738 516.26L148.577 517.304V518.348L148.818 519.432L149.42 520.998L150.865 522.765L151.186 523.086L151.908 523.608L152.832 523.969L153.393 524.25L153.955 524.652L154.718 525.374L155.079 525.896L155.4 526.579L156.043 528.546L156.323 529.229L156.645 529.751L157.768 531.116L160.739 533.766L164.351 536.095L164.953 536.657L165.876 537.741L166.157 538.423L166.117 538.905L165.836 539.226L163.147 541.314L162.023 542.679L161.702 543.001L160.979 543.482L160.578 543.603L159.615 543.764H158.37L157.889 543.804L157.006 544.085L156.203 544.446L155.521 545.008L154.959 545.651L153.193 548.943L152.791 549.866L152.51 550.87L152.149 553.079L152.109 554.042L152.872 559.944L152.832 559.984L151.507 559.382L149.942 559.262L148.416 559.663L147.293 560.547L147.132 561.269L147.774 562.634L147.574 563.357L146.65 564.321L140.469 567.372L139.386 568.215L136.777 571.106L136.576 571.749L136.736 572.351L136.696 572.793L135.894 572.953L135.051 572.993L128.87 574.76L121.966 577.892L120.521 579.136L118.354 582.268L117.029 583.553L115.745 584.075L109.523 584.838L108.319 585.36L105.911 585.44L105.389 585.32L104.707 584.717L104.466 583.794L104.546 582.79L104.346 581.947L103.182 581.626L102.459 581.546L101.095 581.104L100.091 581.024L100.171 580.582L99.3285 579.699L95.5154 576.647L93.5889 575.844L92.746 575.322L92.3446 574.519L92.2242 573.837L91.8228 573.154L91.301 572.592L81.949 568.938L66.737 565.806L51.9263 560.747L40.1661 559.864L27.2018 557.575L14.7191 553.761L13.2741 553.44L13.6755 551.954L14.3177 551.754L15.1606 551.432L16.164 551.272L22.6261 551.352L24.5527 551.914L25.0745 552.436L26.1983 554.042L26.68 554.363L27.844 554.203L29.6903 553.44L30.6937 553.119L30.4529 550.669L32.9414 549.585L36.1925 549.104L38.1191 548.22L41.7315 548.341L43.7785 548.06L45.0629 547.136L45.9459 545.41L45.4241 544.848L44.2601 543.804L43.9791 543.523L43.8989 542.679L44.2601 540.792L44.3002 540.03L43.8989 538.986L42.6546 537.179L42.4138 535.934L43.0159 530.313L46.0262 530.875L47.2303 530.674L48.1133 529.51L48.3541 527.944L47.9527 526.298L45.5044 520.556L43.8989 514.052L43.6982 509.314L43.337 507.869L42.6546 506.664L41.4906 505.741L35.0687 504.094L33.6237 504.657L30.6937 506.463L28.9277 506.664L26.8004 505.46L26.3187 503.131L27.2419 497.47L21.3818 497.992L22.2649 487.673L22.024 484.38L20.9403 481.088L17.4484 474.744L16.164 471.492L13.4347 456.395L11.5081 451.336L8.85901 448.927L7.53448 447.321L0.430176 415.281L0.550588 413.755L1.19278 412.832L2.87855 411.908L3.3602 411.306L5.12624 406.327L4.92555 405.725L3.6813 403.396L2.55745 401.911L2.19622 400.987L2.31663 397.735L3.80171 394.242L14.1973 376.375L15.3211 375.652L15.4014 375.973L16.3245 380.751L16.9266 382.598L17.8899 384.284L18.6124 385.087L19.2947 385.649L19.8165 385.93L20.3784 386.171L21.5023 386.292L22.4656 386.131L25.8772 384.766L26.8807 384.565L27.844 384.766L29.2086 385.328L31.938 386.854L33.2625 388.018L34.2659 389.183L36.3932 393.117L36.8748 395.045L38.2395 398.136L38.4001 398.739L38.4402 400.345L38.6409 401.308L38.8416 401.75L39.1225 402.673V403.195L39.0423 403.677L38.3198 405.404L38.1191 406.448L38.1994 407.21L38.4402 408.134L39.0423 409.579L39.2831 410.463L39.3634 411.226L39.3232 411.868L39.6042 412.31L40.4069 412.832L42.8152 413.474L43.6581 413.875L47.1901 416.606L47.5915 416.806L48.5949 417.047L49.7589 417.088L53.1706 416.806L53.9332 416.887L54.7359 417.088L55.9401 417.65L56.502 418.131L56.8632 418.653L57.2646 420.46L57.6258 421.424L58.1075 422.066L58.5089 422.468L59.3919 422.95L61.1981 423.472L62.2416 423.913L62.8035 424.315L63.1648 424.756L67.1384 433.268L67.5799 433.67L68.1017 433.871L68.5833 433.951L71.0718 434.071L72.0351 434.312L73.0386 434.874L74.2427 435.758L75.0454 436.159L75.7278 436.199Z" fill="#009649" stroke="white" stroke-width="2" stroke-linejoin="round"></path>
<path class="region" data-country-region="South Region" d="M314.223 365.373L314.585 370.232L314.384 371.878L314.143 372.239L313.461 373.805L312.859 375.612L312.698 376.616V377.378L312.859 377.86L313.26 379.948L313.461 382.518L313.38 383.963L313.18 384.927L312.979 385.368L312.216 386.452L310.932 387.697L310.611 387.978L309.006 389.464L308.564 390.186L308.082 391.271L307.239 393.639L306.999 394.804L306.959 395.687L307.239 396.651L307.641 397.454L308.243 398.096L308.644 398.337L310.009 398.819L310.892 399.22L311.574 399.783L312.176 400.425L312.658 401.188L313.019 402.031L313.541 405.926L313.461 406.97L313.34 407.692L312.738 408.335L309.206 410.382L308.845 410.663L307.601 411.908L306.236 413.635L305.795 414.638L304.39 419.978L304.109 421.665L304.069 422.829L304.309 423.15L304.791 423.271L307.44 423.11L308.323 423.311L309.046 423.873L309.286 424.275L309.527 425.238L309.889 427.326L310.17 428.25L310.651 429.012L311.293 429.655L312.417 430.378L312.819 430.779L313.22 431.381L313.581 432.666L313.621 433.509L313.581 434.232L310.972 442.142L310.25 443.346L309.688 443.989L308.243 445.033L306.718 445.916L302.704 447.482L302.303 448.004L302.784 448.967L303.386 450.694L303.587 452.3L303.145 453.424L302.503 454.629L302.182 456.235L302.262 457.76L302.824 458.684L307.079 461.936L308.684 462.418L314.866 462.257L316.431 462.498L317.595 463.141L319.481 464.747L322.612 466.594L322.973 467.236L323.134 467.959L322.893 476.27L319 480.687L317.595 482.012L316.431 482.734L315.909 482.895L315.187 482.975L314.625 482.855L314.143 482.694L313.782 482.413L312.859 481.53L312.297 480.887L311.093 479.04L310.41 478.277L307.962 477.234L306.838 476.471L306.196 475.868L305.674 475.146L304.47 472.656L304.149 472.255L303.547 471.893L302.423 471.773H301.139L300.095 472.014L299.453 472.175L296.202 474.383L295.118 474.905L294.115 475.186L293.793 475.025L293.191 474.303L292.75 473.981L292.188 473.66L291.185 473.299L290.663 473.419L290.342 473.74L288.857 479.04L288.495 479.562L287.813 480.124L284.04 481.69L283.558 481.971L283.197 482.413L282.194 484.501L281.23 487.994L280.388 489.761L279.866 490.483L279.424 490.925L278.782 491.447L277.498 492.21L276.695 492.451L275.973 492.491L275.049 492.17L274.287 491.688L273.645 491.086L273.163 490.764L272.561 490.483L271.517 490.323L270.955 490.483L270.474 490.724L268.748 492.772L268.226 493.214L267.463 493.655L265.938 494.418L265.055 494.699L264.333 494.86L262.045 494.779L261.162 494.659L259.516 494.017L259.115 493.816L257.71 493.334L256.867 492.852L256.586 492.531L256.386 492.13V490.564L255.824 490.242L254.82 490.122L250.927 490.403L250.044 490.564L249.241 490.805L248.8 491.126L248.559 491.688L248.197 493.655L248.157 494.458L248.278 495.342L248.478 496.024L244.425 494.458L242.016 494.057L226.844 495.261H224.918L223.874 495.02L223.393 494.82L214.643 492.892L212.917 492.732L211.873 492.852L210.79 493.093L208.542 493.374L207.739 493.294L207.137 493.093L206.254 492.451L205.572 492.089L204.247 491.648L203.404 491.447L202.762 491.407L194.975 491.487L194.173 491.407L193.611 491.286L192.888 490.604L191.564 488.315L188.794 482.212L188.553 481.811L188.112 481.449L185.463 480.446L182.533 478.88L184.138 475.668L184.098 474.423L183.496 473.901L182.372 473.941L182.172 473.66V473.299L182.292 472.857L182.814 471.693L183.015 470.488L183.697 468.601L184.459 467.316L184.74 466.754L185.342 464.747L185.583 463.703L185.904 463.341L187.028 463.02L187.349 462.739L187.389 462.177L187.149 461.775L186.787 461.535L186.386 461.414L186.185 461.133L186.226 460.25L186.025 459.487L186.226 458.965L187.269 457.238L187.47 456.556L187.67 455.432L187.59 454.348L187.43 453.906L186.787 452.902L186.948 452.541L188.995 451.376L189.677 450.854L190.44 449.891L190.922 448.887L191.162 448.164L191.363 446.92L192.407 442.985L193.811 439.371L197.665 433.268L209.304 421.183L210.468 419.456L212.997 416.927L213.599 416.204L213.92 415.602V414.839L213.679 413.875L213.278 413.032L212.796 412.269L212.194 411.667L210.067 410.021L209.425 409.419L208.903 408.696L208.421 407.933L208.261 407.492L208.14 406.488L208.181 405.926L208.421 404.962L208.783 404.039L209.345 403.476L210.268 402.834L212.475 401.79L214.442 401.067L220.944 400.144L221.386 399.983L221.948 399.622L222.71 398.98L238.886 376.294L239.889 375.451L241.254 375.13L253.295 374.929L254.138 374.648L255.141 373.564L255.422 373.122L256.024 372.48L256.707 372.078L257.71 371.637L262.205 370.151L263.289 369.469L264.373 368.585L264.935 367.983L266.741 365.735L267.343 365.132L268.025 364.57L269.671 364.008L274.849 363.085L297.566 363.968L298.61 364.209L299.493 364.57L301.46 365.574L302.543 366.016L303.266 366.136H303.908L304.43 366.016L305.714 365.494L307.36 364.49L308.725 363.928L309.367 363.848L309.969 363.888L314.223 365.373Z" fill="#009649" stroke="white" stroke-width="2" stroke-linejoin="round"></path>
<path class="region" data-country-region="South Region" d="M182.533 478.88L185.463 480.446L188.112 481.449L188.554 481.811L188.794 482.212L191.564 488.315L192.888 490.604L193.611 491.286L194.173 491.407L194.976 491.487L202.762 491.407L203.404 491.447L204.247 491.648L205.572 492.089L206.254 492.451L207.137 493.093L207.739 493.294L208.542 493.374L210.79 493.093L211.873 492.852L212.917 492.732L214.643 492.892L223.393 494.82L223.874 495.02L224.918 495.261H226.845L242.017 494.057L244.425 494.458L248.479 496.024L251.81 502.649L253.175 504.657L253.937 505.259L254.82 505.66L255.302 505.821L256.707 506.544L257.951 507.427L258.553 508.029L258.954 508.551L260.359 511.763L261.724 516.581L260.64 517.103L254.018 522.684L253.295 523.688L252.854 525.093L251.65 526.338L248.398 528.346L242.097 529.871L241.013 529.911L240.371 530.554L238.926 531.678L237.401 532.12L236.678 530.875L232.022 534.127L230.858 534.569L225.6 538.865L223.473 541.395L222.108 542.278L215.406 543.242L213.359 543.161L212.034 541.957L211.432 542.76L210.589 543.041L208.341 543.201L206.174 543.763L205.13 543.723L204.649 542.88L204.328 542.077L203.605 542.278L202.521 543.201L201.036 543.322L199.591 543.723L190.199 547.779L189.236 549.104L188.433 549.866L186.587 550.95L183.055 552.557L181.209 552.958L175.348 553.119L174.385 553.4L172.298 554.644L171.295 555.046L170.412 555.126L168.525 555.006L167.642 555.046L165.956 555.568L162.705 557.174L156.444 558.097L154.397 558.86L152.872 559.944L152.109 554.042L152.149 553.078L152.51 550.87L152.791 549.866L153.193 548.943L154.959 545.651L155.521 545.008L156.203 544.446L157.006 544.085L157.889 543.804L158.37 543.763H159.615L160.578 543.603L160.979 543.482L161.702 543.001L162.023 542.679L163.147 541.314L165.836 539.226L166.117 538.905L166.157 538.423L165.876 537.741L164.953 536.657L164.351 536.095L160.739 533.766L157.768 531.116L156.645 529.751L156.323 529.229L156.042 528.546L155.4 526.579L155.079 525.896L154.718 525.374L153.955 524.652L153.393 524.25L152.831 523.969L151.908 523.608L151.186 523.086L150.865 522.765L149.42 520.998L148.818 519.432L148.577 518.348V517.304L148.737 516.26L149.018 515.297L149.54 514.534L150.343 514.212L150.744 513.972L151.427 512.928L151.547 512.566L151.427 511.723L150.544 510.398L149.42 509.194L148.216 508.11L146.57 507.226L145.727 506.825L144.764 506.503L143.68 506.343L141.513 506.303L140.991 506.182L140.068 505.821L139.064 504.978L138.181 504.536L137.057 504.456L136.014 504.576L135.091 504.817L132.121 506.022H131.117L130.676 505.58L130.314 504.777L129.993 502.97V502.007L130.074 501.204L130.636 499.718L131.117 497.791L131.238 496.787L131.157 494.98L131.398 493.976L131.88 493.254L132.522 492.611L132.763 492.25L132.803 491.808L132.602 491.246L131.96 490.724L130.796 490.202L130.435 489.841L130.234 489.279L130.154 488.315L130.274 486.91L130.636 485.304L130.676 484.742L130.475 483.939L130.033 483.015L128.789 481.329L128.107 480.566L127.545 480.044L127.103 479.883L124.976 479.362L124.133 478.92L122.488 477.675L121.966 477.073L117.872 471.171L116.146 469.404L115.464 468.882L114.099 468.159L111.249 466.995L110.567 466.513L110.206 466.112L109.242 463.703L108.961 463.141L108.038 462.177L107.316 461.655L105.469 461.053L104.265 460.691L102.78 460.009L100.131 458.242L99.7699 457.841L99.1277 456.716L98.7264 455.432L98.606 454.267L98.6461 453.143L98.8066 452.059L98.9672 451.577L99.4087 451.015L100.091 450.453L101.616 449.65L104.065 448.646L105.188 447.843L106.633 446.518L107.276 445.595L107.757 444.27L111.891 444.43L112.975 445.073L113.216 446.157L113.055 447.04L112.654 447.923L112.493 448.405L112.453 448.967L112.614 450.292L112.534 450.814L112.333 451.216L112.012 451.537L111.771 452.019L111.57 452.581L112.895 459.607L113.296 460.691L113.778 461.213H114.059L114.781 460.932H115.223L115.825 461.133L116.266 461.936L117.511 465.469L118.073 466.433L118.634 466.915L119.397 467.035L119.718 467.356L121.203 469.203L122.006 469.966L122.568 470.127L123.009 470.087L123.491 469.444L123.892 469.203H124.454L125.618 469.725L126.341 469.846H126.943L127.706 469.484L128.227 468.962L128.548 468.762L128.99 468.722L129.953 468.802L131.157 469.364L131.358 469.765L131.318 470.207L131.077 471.131V471.893L131.197 472.576L131.639 472.937L133.566 473.901L133.887 474.262L134.168 474.784L134.489 475.065L135.733 475.346L136.736 475.387L139.185 476.35L139.626 476.792L140.068 477.515L140.67 477.876L141.432 478.157L142.757 478.88L143.6 479.08L144.162 479.04L144.643 478.84L145.245 478.88L146.249 478.679L148.256 478.518L149.219 478.358L150.343 478.398L151.065 478.679H151.587L152.43 478.438H153.393L154.798 478.237L155.681 478.518L157.126 478.799L157.648 479.121L158.37 479.803L158.732 480.325L158.932 480.807V481.208L158.772 481.489L158.009 481.65L157.648 481.891V482.333L158.009 482.895L159.454 483.738L160.257 484.139L161.06 484.421L161.501 484.461L161.902 484.3L162.143 483.939L162.665 482.734L162.585 482.292L162.424 481.57L162.585 481.289L163.468 481.088H164.471L165.234 480.807L166.037 480.686L166.88 479.723L168.565 479.402L169.529 479.321L169.97 479.121L170.251 478.84L170.773 478.679H171.495L173.542 479.201L174.144 479.683L174.626 479.843L175.148 479.883L176.272 479.683L176.633 479.883L176.954 480.807L177.395 481.73L178.238 481.811L179.162 481.449L179.884 480.927L180.366 480.847L180.887 481.289L181.128 481.329L181.489 480.124L182.092 479.723L182.413 479.362L182.533 478.88Z" fill="#009649" stroke="white" stroke-width="2" stroke-linejoin="round"></path>
</svg>