<svg width="704" height="571" viewBox="0 0 704 571" fill="none" xmlns="http://www.w3.org/2000/svg">
<path class="region" data-country-region="East Region" d="M676.904 454.689L680.632 457.714L683.375 457.081L685.274 457.644L686.892 461.161L688.017 462.497L689.213 463.271L696.318 468.406L701.031 469.954L703 472.134L702.086 474.034L701.664 474.456L702.367 477.059L702.648 478.676L702.367 480.154L701.312 482.264L699.131 485.781L698.569 487.469L698.92 488.947L699.202 492.112L696.599 495.418L695.192 496.684L690.268 495.348L686.259 495.067L680.702 492.886L673.879 488.595L666.141 486.414L658.052 479.802L656.505 477.621L657.841 473.963L658.263 466.648L658.685 456.026L659.037 454.197L659.811 452.297L661.78 448.851L662.624 446.248L663.257 443.223L664.172 441.394L665.508 442.309L669.518 448.218L673.176 452.086L676.904 454.689ZM466.444 388.636L465.811 389.058L465.107 387.722L463.489 386.104L462.575 384.134V383.501L463.489 379.421L464.404 378.225L465.318 377.803L466.303 378.366L467.077 379.632L467.358 382.024L467.288 385.541L467.78 386.526L467.499 387.37L466.444 388.636ZM447.03 398.484L444.849 399.117L442.739 395.811L441.332 390.958L441.262 387.018L442.317 384.767L445.974 380.828L447.03 378.647L448.718 374.286L450.054 372.528L450.758 374.849L456.526 389.41L456.596 390.184L453.149 394.193L451.602 394.686L449.773 395.811L448.085 397.218L447.03 398.484ZM386.818 368.94L382.035 366.056L380.487 365.563L380.135 366.197L378.94 366.83L375.071 367.041L374.93 365.704L373.805 362.75L374.086 360.78L374.86 358.177L376.548 354.238L378.025 352.62L381.542 351.635L383.301 350.58L384.919 345.586L382.879 339.818L380.557 334.612L381.261 331.236L383.019 331.376L386.536 335.105L388.365 336.089L389.35 336.863V338.622L388.717 341.998L389.139 344.249L390.757 346.922L392.656 352.128L394.415 359.444L394.696 366.267L392.164 369.995L388.506 368.729L386.818 368.94ZM425.294 389.551L421.003 387.44L417.486 387.018L414.602 387.511L413.407 386.596L411.437 387.722L409.538 387.862L406.443 386.456L406.373 384.345L405.669 382.657L406.162 379.773L405.247 377.944L408.694 375.13L411.015 374.216L414.884 371.402L414.954 370.206L413.055 369.01L412.281 367.744L412.07 366.759L413.477 365.423L406.232 364.157L400.745 358.81H397.088L394.837 348.259V341.998L394.485 339.466L392.164 329.969L390.616 327.507L388.787 326.593L386.607 326.734L379.01 329.829L376.126 330.321L374.508 328.774L376.126 324.412L381.331 319.981L390.757 314.072L405.95 301.058L413.899 296.626L422.199 296.978L430.781 301.902H437.885L439.784 302.957L443.301 306.123L446.256 307.389L451.391 311.75L450.054 314.564L445.974 320.192L444.497 323.146L441.824 330.251L440.558 332.291V333.627L443.301 337.637L444.708 340.38L445.271 342.702L445.763 346.008L446.819 349.877L448.155 353.394L449.421 355.504L448.999 357.263L448.788 359.655L448.718 363.383L448.014 367.603L448.507 369.362L449.421 371.261L447.311 373.934L443.372 381.743L439.573 384.416L438.94 386.526L437.956 388.636L435.775 389.41L434.157 388.847L431.695 387.089L429.655 387.018L425.294 389.551Z" fill="#009649" stroke="white" stroke-width="2" stroke-linejoin="round"></path>
<path class="region" data-country-region="West Region" d="M82.3118 147.287L82.0304 148.623L83.2262 151.929V153.899L82.0304 159.808L81.1863 162.129L79.9906 163.536L79.9202 161.355L79.4278 160.019L77.9507 158.612L75.5591 160.511L75.137 161.215L74.8557 163.114L75.137 164.31L75.9108 166.068L76.6845 172.118L77.599 173.947L79.2871 174.721L78.6541 175.635L77.3176 176.128L77.9507 177.323L76.6142 179.363L75.137 183.443L73.8006 185.905L72.4641 187.594L68.3843 190.97L67.8216 194.065L59.9434 196.316L57.1298 197.794L56.145 197.301L53.472 191.322L52.4169 189.845L49.955 187.242L47.5634 186.046L46.9303 185.905L43.8353 187.101L42.8506 186.961L43.2023 184.78L43.6243 183.865L45.3125 182.529L46.2269 182.318L46.649 181.474L46.5083 179.715L45.8752 177.323L48.6185 175.213L55.6526 174.228L58.1849 170.993H55.6526L53.4017 169.867L53.9644 168.179L56.0043 165.435L56.4967 163.677L56.145 159.175L56.4967 158.542L58.8179 158.612L61.6316 157.486L67.4699 156.502L70.4242 154.884L72.6048 155.658L74.5743 152.984L77.9507 146.02L80.2016 147.498L81.6787 145.458L82.8042 143.066L84.0703 143.558L82.3118 147.287ZM308.95 79.5455L309.654 81.7965L309.583 83.6958L308.88 85.3137L306.629 84.8213L304.308 83.9771L296.711 85.8061L298.258 87.213L299.454 89.9564L299.102 92.9108L296.711 95.5839L295.374 97.8349L294.53 100.297L292.912 102.267L289.817 103.04L287.848 101.422L285.245 96.428L281.728 95.7949L278.985 94.3177L277.226 92.5591L275.609 90.7302V89.6046L278.985 88.8309L282.221 85.6654L284.753 83.344L288.762 83.133L291.084 82.4296L292.842 80.3896L300.228 80.4599L304.237 78.2793L306.981 78.2089L308.106 78.631L308.95 79.5455ZM209.84 195.05L206.534 198.778L201.891 202.647L198.585 207.431L191.762 211.651L185.783 212.355L183.392 213.129L179.453 215.45L176.147 219.389L171.996 220.022L170.308 219.67L167.635 218.193L163.274 219.319L158.35 213.691L155.115 215.52L153.215 214.887L153.919 210.878L156.521 207.923L154.552 206.024L143.227 205.883L140.484 202.788L141.117 198.427L139.64 196.809L136.756 196.527L135.982 198.356L136.826 200.889L134.434 204.969L130.706 202.929L123.532 199.411L121.492 194.698L120.015 193.151L118.045 193.432L114.036 195.261L113.051 196.738L110.941 198.075L108.83 198.216L107.916 195.894L109.041 193.714L113.614 190.9L114.669 187.875L115.231 185.343L115.02 184.076L112.558 183.162L110.659 181.052L109.463 178.59L108.901 176.761L108.549 174.58L108.619 172.329L109.112 171.766L111.433 168.108L112.136 166.35L112.066 164.24L111.574 162.129L110.941 161.215L109.815 160.933L108.901 160.3L107.283 158.612L109.182 154.04L111.011 150.452L113.051 147.498L116.146 144.262L118.959 142.925L119.522 140.393L119.874 139.76L134.575 134.836L137.881 134.906L149.487 139.76V141.167L148.221 142.011L148.151 143.136L148.925 144.192L150.261 144.895L151.598 144.754L152.582 143.84L156.17 138.001L157.858 134.695L159.616 132.092L163.556 130.685L166.862 128.575L171.574 129.841L182.196 128.575L176.358 123.018L173.333 121.892L171.363 120.204L170.238 119.782L169.464 120.275L165.947 125.058L164.048 127.028L161.938 128.083L160.039 126.606L158.28 124.777L156.381 125.269L152.934 128.575L148.925 130.263L140.273 130.404L117.482 138.634L115.513 138.845L113.614 138.001L102.5 128.575L103.133 130.967L102.359 132.233L99.0529 133.57L96.6613 135.399L95.3952 136.032H93.707L94.2698 134.906L92.5112 133.781L90.823 134.132L89.0645 135.539L87.4467 137.438L85.8288 137.227L83.789 139.267L82.1008 141.448L81.327 141.8L80.4829 139.338L78.5134 138.353L76.2625 138.634L74.5743 139.76L75.9811 141.378L72.3937 144.754L67.4699 147.427L63.8825 146.372L61.5612 146.865L59.24 147.92L58.1849 149.256L57.6221 152.773L56.2857 154.954L54.7382 156.572L53.4017 158.612L52.5576 165.787L48.3371 172.329L46.0862 172.54L44.9608 173.103L43.765 174.861L42.1471 175.495L40.5293 176.761L39.7555 179.152L40.5996 185.272L40.5293 188.156L39.0521 189.845V190.97L42.9912 190.548L43.9057 190.97L44.6794 193.151L44.0463 194.698L42.7802 195.613L41.5141 195.894L40.3183 195.543L37.997 193.854L36.7309 193.432L35.5351 193.784L33.4952 195.402L32.2291 195.894V197.231L37.0123 195.894L38.4191 196.387L40.5293 198.005L41.5141 198.356L48.4778 195.332L49.955 195.894L50.2363 197.231L49.955 202.225L51.4321 204.617L52.1355 206.375L50.6584 208.978L49.6736 210.244L48.3371 210.878L46.9303 211.089L46.0159 211.651L46.0862 212.425L45.3125 213.269L42.4988 210.666L40.1073 207.36L39.0521 205.25L38.1377 202.577L35.8868 200.396L33.0732 198.919L30.5409 198.356L28.7824 197.442L26.6721 195.12L24.7026 192.307L23.4365 189.845L22.311 183.303L21.6779 182.318L20.3415 181.825L17.5278 179.926L15.91 179.786L17.3168 186.539L17.8092 190.407L17.5982 192.869L16.121 193.151L15.3473 189.352L15.1362 180.911L16.332 173.455L18.5126 167.827L36.3792 138.564L41.7251 132.936L49.955 119.782L53.1203 116.757L56.7077 116.828L64.9376 119.782L69.6504 120.064L78.6541 118.024L82.5932 115.913L87.3764 110.637L89.2052 109.793L114.036 113.451L123.11 112.326L132.113 108.949L140.624 103.181L148.151 94.7397L169.535 54.8548L173.333 49.1569L180.156 41.4191L183.603 34.8068L184.939 33.8219L187.331 30.3751L192.114 29.3903L201.329 30.0234L210.262 28.5462L218.421 24.8883L225.456 19.6125L237.554 7.02092L244.237 1.95616L246.91 0.971348L249.864 0.619629L252.748 1.32307L255.139 3.2927L249.723 5.33267L244.518 10.3271L236.358 23.0593L233.404 34.244L236.147 42.5446L241.212 50.2824L244.94 59.2864L242.056 67.376L242.126 77.0131L244.237 95.8653L242.478 98.6087L237.414 102.407L235.022 105.432L231.505 112.818L229.957 117.813L228.762 125.691L226.3 134.484L225.104 137.438L223.486 139.408L222.361 139.689H217.718L214.412 140.604L206.112 134.906L199.922 128.223L195.842 126.535L192.536 123.088L190.074 122.315L188.034 123.44L185.221 128.083L187.26 126.043L189.019 124.777L190.777 123.932L192.817 124.777L202.665 135.258L205.901 136.876L209.699 140.323L211.88 141.167L219.969 141.378L221.798 142.433L218.984 145.88L218.421 147.357L217.929 149.819L217.366 154.743L217.015 156.08L217.788 159.104L218.844 168.39L219.266 175.706L219.969 179.574L222.431 187.242L224.26 189.493L224.471 190.689L223.064 192.307L222.29 192.377L219.969 191.252L218.703 190.97H214.201L212.653 191.674L210.895 193.432L209.207 191.674L207.308 190.196L205.127 189.774L202.665 190.97L200.414 192.729L197.882 193.432L196.405 194.206L193.31 196.738L189.652 198.005L185.15 201.451L171.293 203.421V204.687L175.795 205.531L190.707 200.889L194.084 198.778L195.842 198.005L196.123 196.316L197.671 196.105L199.57 197.231L201.891 196.246L202.876 195.261L204.002 191.603L205.549 191.252L208.855 192.307L208.081 194.698L209.84 195.05Z" fill="#009649" stroke="white" stroke-width="2" stroke-linejoin="round"></path>
<path class="region" data-country-region="West Region" d="M225.386 513.145L226.792 513.778H228.34L229.536 513.356L229.958 511.949L229.254 509.065L230.661 511.105L231.857 516.31L232.982 517.365H235.022L236.429 517.014L236.71 515.607L235.374 512.652L236.992 514.2L238.891 515.396L240.227 517.014V519.687L242.197 520.883L234.389 522.712L232.209 525.033L231.013 525.596L228.762 524.541L211.599 505.759L209.981 501.89L209.418 499.146L210.895 500.764L219.336 505.548L221.798 507.799L224.119 511.527L225.386 513.145ZM170.027 481.209L175.936 488.313L179.101 490.002L183.533 490.705L186.698 492.675L189.23 495.629L191.692 499.498L193.169 502.242L197.038 514.2L196.968 515.888L195.631 516.24L192.747 516.17L191.27 516.943L189.371 518.491L187.401 519.616L185.995 519.054L184.306 517.647L179.734 516.17L178.116 514.974V513.778L180.719 512.441L183.884 513.848L186.979 516.029L189.723 517.365V516.17L185.01 511.949L180.438 510.331L179.453 510.261L178.468 510.612L176.991 512.019L176.077 512.652L172.137 512.371L168.831 509.698L166.862 505.126L167.143 499.498L168.761 499.991L171.082 502.664L173.404 504.704L175.444 504.211L174.318 502.453L173.966 501.327L174.881 500.413L174.177 499.568L170.098 496.614L169.394 495.207L170.59 493.589V492.393L162.782 493.097L161.446 492.956L160.461 492.182L158.21 491.62L157.647 490.002L157.999 489.228L159.898 487.821L160.391 486.485L158.562 486.555L156.944 487.188L155.326 487.469L153.638 486.485V485.148L162.43 480.998L165.947 480.435L170.027 481.209ZM273.921 506.11L264.284 538.117L263.299 540.227L261.963 540.931L259.642 541.001L258.446 539.383L255.914 529.254L254.788 527.354L253.452 525.807L250.357 523.274L252.819 523.063L254.366 522.43L255.562 520.953L257.18 518.421L258.094 515.537L258.657 514.692L260.134 515.818L262.666 514.974L261.963 511.316L261.119 512.09H259.431L258.516 511.316L259.923 507.166L262.033 504.07L267.59 497.599L269.982 495.84L275.609 487.68L276.312 482.756L279.689 474.174L283.487 467.492L285.738 468.547L281.025 490.002L279.126 495.7L273.921 506.11ZM32.6515 418.743L34.2693 419.658L36.3092 419.306L37.716 420.713V422.753L36.4499 426.692L36.7312 428.451L37.4346 430.35L38.138 433.656L39.0525 435.063L36.5905 436.048L33.9176 433.305L31.6667 429.014L28.5717 420.713L27.8683 416.914L28.853 414.382L32.2294 413.538L32.6515 418.743ZM224.26 388.566L231.083 393.349L232.701 395.319L233.897 397.499L234.741 398.625L235.726 399.117L237.555 399.328L239.172 399.962L240.579 401.439H239.032L237.836 402.353L237.414 404.393L237.766 405.167L239.243 406.363L239.454 407.418L238.961 408.895L236.077 409.81L232.349 415.226L233.967 418.11L237.484 417.97L239.454 414.101L240.579 414.382L246.98 411.006L250.779 409.81L251.201 409.247L250.99 408.051L250.005 406.292L249.161 406.081L247.402 404.675L246.98 403.83L247.262 402.283L248.528 402.846L250.357 405.026L251.623 403.057L251.341 400.313L250.357 397.218L250.216 395.037L251.693 396.585L251.763 393.631L251.13 389.269V388.073L253.03 388.003L255.914 391.309L260.626 399.117L261.119 403.197L261.892 404.182L264.003 406.292L264.636 408.755L264.425 410.161L263.51 411.146L260.626 413.045L255.984 415.015L249.09 414.382L247.402 414.804L246.206 415.789L245.714 418.04L246.629 419.165L248.246 419.236L249.724 418.321L249.161 416.844L249.864 415.085L258.516 417.125L259.993 418.462L269.841 432.742L270.474 434.289L273.006 441.886L273.569 444.7H272.866L271.67 442.871L269.841 441.675L268.223 442.168L267.449 445.263L268.012 447.444L270.685 451.664L271.459 454.267L271.67 457.995L271.459 461.442L270.755 464.397L269.278 467.984L268.927 469.25L268.856 472.767L268.505 473.682L266.043 476.988L265.128 479.098L264.495 481.068L263.581 482.756L261.963 484.093L260.767 484.374L256.898 484.093H252.396L250.779 484.374L248.879 485.289L247.191 486.625L245.925 488.313L244.096 490.072L241.986 489.791L238.117 487.68L231.435 487.118L229.254 486.485L226.652 484.374L225.526 484.093L222.994 484.304L221.728 484.233L213.92 479.239L211.036 478.958L210.262 480.294L210.192 484.093L208.715 482.967L206.323 480.224L204.705 479.239L202.665 479.169L198.867 480.154L197.179 479.239L204.776 473.401L206.112 470.938L204.354 468.406L203.158 465.592L201.821 463.271L199.922 462.497L198.445 462.919L196.124 463.974L194.506 463.763L192.255 461.442L190.919 460.95L189.723 462.497L190.074 465.241L193.521 470.516L193.169 473.401L192.677 473.612L189.16 473.049L188.879 472.556L189.582 470.305L189.441 468.899L188.035 465.03L187.824 463.13L188.035 461.301L188.668 459.613L188.527 458.206L187.05 457.292L183.04 456.307L180.649 454.548L179.945 452.719L179.031 451.172L178.82 450.117L179.031 448.991L179.945 447.444L180.156 446.459L179.945 444.56L178.82 440.48L179.101 434.5L178.116 433.656L176.569 433.586L173.685 433.867L172.349 433.375L170.942 432.109L168.55 428.943L170.168 428.31L172.067 428.099L173.685 427.466L174.67 425.496L170.098 423.245L172.63 423.105L171.645 421.065L169.816 419.939L165.877 419.376L164.47 418.814L161.094 414.593V413.538L163.767 414.734L166.581 417.196L169.324 419.025L171.926 418.321L162.079 409.528L158.421 408.755L159.124 406.926L160.109 406.152L162.501 405.026L166.229 400.243L171.575 399.117L173.404 399.469L173.826 401.861L174.67 403.83L179.453 406.433L184.658 404.604L194.506 397.781L207.378 393.49L211.739 390.254L214.201 389.41L216.874 389.199L217.648 389.41L218.422 392.997L219.829 392.505L220.11 391.169L219.829 387.511L221.165 387.159L224.26 388.566ZM158.28 371.191H149.136L146.815 369.995L146.252 371.191L146.111 372.527L148.151 373.512L155.326 373.653L156.592 374.427L161.797 379.773L162.853 381.883L163.556 383.782L164.541 385.119L166.51 385.682H176.077L174.388 387.722L169.254 391.802L166.51 395.389L165.174 396.304L162.853 396.585L162.008 397.359L161.797 400.665L161.446 401.439L155.185 402.986L152.934 404.675L151.528 405.026L150.332 404.745L148.081 403.76L146.815 403.83L147.448 405.026L146.041 407.066L142.313 408.262L140.695 409.81L142.383 410.935L144.282 410.794L149.206 409.528L151.035 408.684L156.803 411.85L157.225 413.819L156.733 416.211L155.678 418.321L154.341 419.236L150.965 419.939L149.488 420.713L149.98 422.683L151.246 425.285L151.598 426.692L151.317 428.662L150.754 430.209L150.895 431.476L152.934 432.742L154.13 433.938L155.326 435.556L155.607 437.244L154.271 438.651V439.917L155.256 441.113L158.913 447.444L160.18 448.006L161.375 449.132L161.797 451.946L161.375 453.986L160.039 456.799L159.757 459.613L159.195 460.879L157.929 461.794L154.974 462.497L149.136 461.372L147.8 461.794L145.408 464.959L143.016 466.507L140.273 467.351L139.499 468.125V469.672L140.343 470.938H142.032V472.134L139.077 471.994L137.741 472.345L136.545 473.401L137.53 474.174L138.796 474.456H141.68L142.946 475.159L144.423 476.707L146.815 480.435L144.212 483.811L142.524 485.429L140.695 486.485L136.123 487.399L134.294 488.736L135.138 491.198L136.404 491.268L142.032 488.947L144.564 489.087L145.408 488.947L147.659 486.766L148.784 486.485L150.965 487.399L154.974 491.831L157.014 493.589L162.501 495.066L163.837 496.051L164.611 498.584L166.792 511.738L166.862 513.004L165.947 513.778L164.4 513.848L163.064 513.004L161.868 512.863L161.094 514.974L163.486 516.17L164.541 517.154L165.174 518.421L165.525 519.898L165.736 521.867L165.314 523.626L163.837 524.4L162.712 523.696L161.305 520.461L160.391 519.687L156.24 520.039L154.974 519.687L153.145 518.561L154.06 517.225L154.271 516.17L152.512 513.567L151.809 512.019L152.512 511.316L155.185 510.261L154.693 508.291L152.301 506.955L149.488 507.799L148.925 508.784L147.589 512.301L145.408 516.17L144.634 516.381L143.087 516.17L140.695 518.772L136.545 522.29L135.138 524.4L134.505 528.058L133.098 528.62L131.41 528.409L129.441 526.51L127.612 526.932L126.557 527.917L125.079 528.269L124.165 529.324L122.688 529.605L115.372 529.535L113.614 528.832L112.91 526.792L112.629 524.4L112.137 522.641L110.519 521.164L89.4166 516.17L81.6087 512.934L73.6602 511.597L71.339 511.949L64.5159 514.481L60.8582 514.341L57.4115 513.215L58.1852 510.261L57.4115 509.065L58.7479 504.281L57.9038 499.85L56.3563 495.629L55.3716 491.198L55.7936 485.57L56.9191 480.927L58.3962 476.636L59.4513 472.134L48.9002 470.235L47.7044 470.305L47.3527 471.783L47.0713 478.536L46.4383 479.38L45.5238 479.591L44.2577 480.998L42.8509 482.967L41.3034 483.882L39.7559 483.53L38.4194 481.631L37.294 477.269L37.4346 473.119L38.0677 468.899L38.4194 464.397L40.2483 460.95L44.3984 460.317L48.6188 461.583L50.7291 463.763L49.3926 464.115L48.2671 465.03L46.579 467.351L46.8603 469.321L52.769 470.165L58.2556 471.431L60.2251 470.657L60.0141 467.351L58.1852 461.372L56.9191 453.915L56.1453 446.459L56.3563 444.489L57.2004 442.027L57.4115 440.48L57.2708 438.229L56.1453 433.867L55.2309 425.989L54.5275 422.19L53.1207 418.884L50.5884 416.844L47.001 416L40.389 415.789L35.6058 414.312L31.526 410.513L22.5224 396.937L22.5927 395.671L24.7029 395.319V394.193L22.8037 393.42L20.4825 393.208L18.3019 393.842L16.5434 395.319L15.4179 397.781L15.6993 399.469L18.6536 402.635L17.1765 403.268L15.9103 405.026L18.1612 405.448L20.9045 407.207L23.1554 409.81L24.0699 412.834L22.8037 413.327L10.9161 403.408L8.45418 402.001L2.61589 400.876L1.13873 399.328L0.998047 396.726L6.62532 381.672L8.45418 374.849L9.72032 367.603L9.861 360.428L9.08725 354.801L28.2903 354.59L31.3853 356.841L33.8473 357.966L37.3643 360.217L38.5601 360.499L40.389 360.077L46.7196 353.042L46.9307 352.198L46.2273 350.017L47.4231 349.033L49.1816 348.822L50.1663 349.455L52.4173 350.088L54.1054 349.806L55.7233 349.033L56.7784 348.892L60.0141 349.736L66.9778 354.73L68.666 355.293L71.9017 354.238L73.5195 353.253V352.057L72.9568 349.103L74.0119 347.485L75.5594 342.28L79.2171 340.451L84.0707 340.873L87.0953 343.757L91.0344 348.892L92.4412 349.947L95.8176 349.595L96.8727 348.611L98.2092 348.751L99.0533 346.5L100.46 344.531L101.375 343.897L103.133 343.335L104.821 341.998L109.464 336.089L112.207 330.532L115.935 329.688L125.22 332.783L128.385 334.753L130.918 337.074L135.912 343.405L136.686 344.742L137.178 346.922L137.741 348.54L139.992 351.213L142.524 355.504L143.86 357.263L145.478 357.826L148.995 357.403L150.895 357.826L151.317 358.81L150.402 361.976L150.613 363.312L151.668 364.016L154.974 364.438L157.155 365.141L158.28 366.196L158.843 367.744L158.702 369.292L158.28 371.191Z" fill="#009649" stroke="white" stroke-width="2" stroke-linejoin="round"></path>
<path class="region" data-country-region="West Region" d="M222.431 364.719L221.727 365.282L214.975 364.156L214.271 363.453L214.693 362.538L219.899 361.554L221.024 357.403L221.727 357.122L222.572 358.951L222.994 361.694L222.431 364.719ZM252.396 340.943L254.084 343.335L255.28 342.631L256.124 340.732L257.179 340.873L255.772 343.475L253.1 346.922L252.607 350.158L252.677 356.067L251.693 359.162L248.527 362.187L245.01 361.202L242.337 357.122L241.493 350.58L242.056 346.992L243.111 345.515L244.518 344.741L246.206 343.335L247.613 341.084L248.387 338.34L248.316 335.315L246.98 332.291L245.151 331.024L243.111 330.11L241.845 328.211L242.197 323.779L243.181 321.458L244.729 319.91L245.995 320.332L246.699 327.789L248.316 330.884L250.567 332.853L253.1 333.627L252.185 335.386L251.833 337.285L251.904 339.114L252.396 340.943ZM347.849 197.23L346.161 197.934L344.121 197.723L342.221 196.597L341.026 194.698L340.744 192.025L341.87 191.04L350.381 190.126L354.672 188.508V189.844L353.265 190.97L351.506 191.814L350.17 193.643L348.974 195.683L347.849 197.23ZM123.532 199.411L130.706 202.928L134.434 204.968L136.826 200.888L135.982 198.356L136.756 196.527L139.64 196.808L141.117 198.426L140.484 202.788L143.227 205.883L154.552 206.023L156.521 207.923L153.919 210.877L153.215 214.887L155.115 215.52L158.35 213.691L163.274 219.318L167.635 218.193L170.308 219.67L171.996 220.022L176.147 219.389L179.453 215.449L183.392 213.128L185.783 212.354L191.762 211.651L198.585 207.43L201.891 202.647L206.534 198.778L209.84 195.05L214.623 195.964L218.773 195.683L221.446 194.065L223.838 193.15L225.667 197.16L226.159 203.139L224.471 208.274L217.718 213.48L212.794 219.107L211.88 219.459L211.176 225.368L210.895 226.986L211.598 229.026L211.176 231.628L210.051 234.02L208.855 235.497L211.88 235.357L213.005 234.372L212.935 227.549L213.216 222.624L214.201 220.233L218.421 216.997L221.657 212.565L223.416 211.369L225.526 212.706L225.878 213.831L226.511 218.896L226.933 219.459L229.887 221.921L237.343 226.212L245.432 227.197L269.067 223.469L272.373 223.82L275.609 225.649L277.086 227.338L280.321 233.035L286.511 239.296V240.421L284.19 242.672L282.924 246.823L282.432 251.606L282.361 255.897L281.236 259.836L272.092 272.991L267.449 276.156L265.761 278.618L265.198 281.01L265.48 286.567L264.073 291.984L260.907 292.687L257.461 290.084L255.139 285.934L257.672 285.512L258.727 284.527L259.29 282.276L259.008 279.884L257.953 279.181L256.687 278.97L255.491 278.055L253.1 277.141L250.638 280.095L248.387 284.035L245.221 287.763L245.925 291.913L247.191 296.486L247.683 299.51L246.699 300.777L245.081 301.55L243.392 301.691L242.197 301.269L241.142 299.792L240.157 296.345L239.453 294.586L240.227 293.742L241.915 292.546L242.83 292.195L242.126 290.155L241.282 289.24L237.132 287.974L236.218 288.185L234.037 289.592L231.224 290.155L229.535 288.748L227.988 286.286L225.878 283.542L228.058 283.261L231.435 280.588L233.263 279.884L234.67 280.94L236.429 282.769L238.117 283.472L239.453 280.94L237.765 278.126L237.906 275.875L240.79 269.966H239.453L238.047 269.403L236.71 268.348L235.725 266.941L234.6 266.238L232.068 267.434L230.661 266.308L230.309 268.7L229.746 270.177L228.902 270.951L227.495 271.162L226.792 272.147L224.119 278.055L221.657 281.151L216.311 285.653L213.92 289.029L212.513 293.179L213.146 295.782L214.834 298.244L216.382 301.902L217.015 306.404L216.593 309.851L215.397 313.016L213.568 316.534L215.96 315.338L217.718 315.127L218.21 316.393L215.678 322.02L215.467 324.271L215.608 328.773L215.537 331.869L214.975 334.753L212.583 337.918L212.231 339.114L210.684 339.817L209.488 340.943L208.855 341.998L209.347 342.42L210.051 344.179L210.403 346.078L208.714 349.103L207.8 349.455L206.534 349.173L205.619 348.329L204.072 345.867L202.876 342.068L201.962 340.943L200.696 340.45L191.059 340.943L189.793 341.365L187.682 344.53L185.08 345.586L179.804 345.234L177.413 345.867L179.875 348.61L194.154 351.776L195.139 352.62L194.787 354.449L193.169 358.036L192.325 361.132L192.536 362.538L193.943 362.82L196.545 362.749V364.016L192.466 366.337L191.27 368.307L192.395 371.261L191.129 372.527L188.738 371.05L177.835 374.286L172.841 376.959L169.957 377.24L163.837 374.849L160.32 371.754L159.405 371.261L158.28 371.191L158.702 369.291L158.843 367.744L158.28 366.196L157.155 365.141L154.974 364.438L151.668 364.016L150.613 363.312L150.402 361.976L151.316 358.81L150.894 357.825L148.995 357.403L145.478 357.825L143.86 357.263L142.524 355.504L139.991 351.213L137.74 348.54L137.178 346.922L136.685 344.741L135.912 343.405L130.917 337.074L128.385 334.753L125.22 332.783L115.935 329.688L112.207 330.532L109.463 336.089L104.821 341.998L103.133 343.335L101.374 343.897L100.46 344.53L99.0529 346.5L98.2088 348.751L96.8723 348.61L95.8172 349.595L92.4409 349.947L91.034 348.892L87.095 343.757L84.0703 340.873L79.2168 340.45L75.559 342.279L74.0115 347.485L72.9564 349.103L73.5192 352.057V353.253L71.9013 354.238L68.6656 355.293L66.9775 354.73L60.0137 349.736L56.778 348.892L55.7229 349.032L54.1051 349.806L52.4169 350.088L50.166 349.455L49.1812 348.821L47.4227 349.032L46.2269 350.017L46.9303 352.198L46.7193 353.042L40.3886 360.076L38.5597 360.498L37.3639 360.217L33.8469 357.966L31.385 356.841L28.29 354.59L9.08688 354.801L5.14779 325.608L4.37404 323.427V321.739L5.21813 321.598L6.62495 323.638L9.08688 337.285L10.9157 341.998L11.1268 343.968L10.9157 345.656L9.93097 348.048L9.71995 350.017L10.0717 352.479L10.9157 352.972L15.3472 350.439L20.1304 346.641L22.3813 345.867L26.2501 342.772L30.1892 338.622L30.7519 335.737L30.1188 332.642L28.712 329.618L27.1645 326.944L23.4364 322.02V316.534L22.311 310.132L19.7084 306.052L16.2617 303.59L8.5945 300.073L6.55461 299.792L5.64018 301.269L5.71052 308.866L5.56984 312.524L4.93677 316.534L5.28847 319.488L5.07745 320.614L3.60029 320.191L3.17825 319.207L2.4045 315.267L1.91211 302.324L2.26381 298.244L4.65541 287.13L4.93677 282.909L3.81131 220.655L4.23336 217.63L4.93677 214.535L9.43859 198.919L11.4081 194.065L12.9556 191.744L13.5184 192.166L13.9404 193.783L14.8548 194.698L14.7845 195.964L12.5336 201.803L11.7598 203.421V204.687L13.026 205.601L14.8548 205.812L15.2065 206.586L16.121 210.103L16.8947 210.877L20.9745 211.58L22.1 212.354L20.6228 213.198L20.9745 214.887L20.7635 217.771L21.3262 219.459L22.2406 220.233L23.0144 219.74L23.2958 218.545L22.6627 216.997V215.801L25.828 214.746L30.6815 214.605L35.0427 215.52L37.0122 217.63L37.9267 217.911L42.8505 221.921L44.187 221.288L45.5235 219.74L46.5786 217.771L47.282 215.801H47.9151L50.9397 224.242L51.0101 225.649L50.6584 226.423L50.799 228.111L51.4321 229.8L53.05 231.136L55.0195 233.668L56.145 234.372H57.8331L63.9528 233.035L65.0783 231.769L65.43 230.433L65.7817 224.313L66.3444 220.585L67.4698 218.545L66.9775 216.997L63.9528 214.535L62.1943 214.043L61.7019 213.128L61.5612 211.51L61.1392 209.892L59.451 209.048V207.149L60.7875 205.953L65.3596 205.601L71.7606 194.698L73.2378 193.783L77.3176 192.517L82.8042 192.236L83.0152 191.884L80.6236 190.97L76.3328 190.829L75.2777 189.774L76.1921 186.538L77.6693 183.724L78.8651 182.177L82.0304 179.785L86.7433 175.142L88.5721 174.72L89.6272 174.931L91.4561 175.846L92.5815 176.127L93.7773 175.775L94.8325 174.158L95.6766 173.524L97.4351 173.454L99.686 174.158L101.656 175.705L102.5 177.886L103.133 182.106L104.469 184.639L106.087 186.468L107.283 188.508L108.619 192.306L105.876 193.01L102.922 197.723L100.389 198.356V199.763L100.811 201.381L99.7563 202.999L97.013 205.812L96.0986 208.345L95.9579 210.666L96.38 216.434L97.1537 218.122L98.7716 217.841L100.389 215.942L101.726 210.033L103.203 209.611L105.032 209.963L106.579 209.611L105.946 207.923L105.173 207.219L104.188 207.501L103.906 206.305L105.384 203.35L105.876 200.888H106.579L105.946 204.898L108.549 205.531L112.136 204.898L114.387 205.25L115.724 206.164L117.201 205.883L118.608 206.023L119.522 208.274L119.241 210.033L116.92 213.409L116.005 215.801L117.131 216.223L117.412 218.122L118.045 219.459L119.03 220.514L121.492 221.921L122.617 224.453L123.532 224.524L125.009 221.499L125.571 220.585L126.978 221.921L128.244 220.514L128.174 218.193L125.993 216.997L122.898 218.896L122.265 219.6L120.366 218.967L120.296 217.982L120.859 216.997L120.999 210.314L122.687 204.546L123.532 199.411Z" fill="#009649" stroke="white" stroke-width="2" stroke-linejoin="round"></path>
<path class="region" data-country-region="East Region" d="M315.492 503.156L320.275 506.954L321.963 507.799L323.792 509.276L326.746 515.888L329.138 517.365L331.53 517.858L349.185 527.917L348.271 524.962L347.145 523.063L347.005 521.586L349.185 519.687H351.928L354.32 518.561L355.305 518.42L354.461 516.521L354.179 514.411L354.672 510.261L362.269 517.225L362.831 519.687L365.223 522.782L366.7 523.978L368.388 524.4L366.911 525.596L368.388 528.691L373.382 532.841L374.508 534.529L374.719 537.343L375.141 539.594L374.156 541.634L373.031 542.9L371.132 543.885L370.358 545.714L374.226 547.472L373.875 551.201L370.709 554.859L366.278 556.336L350.803 552.889L345.738 554.085L341.026 556.336L337.227 559.853L334.976 559.431L325.762 553.874L319.642 548.598L308.739 541.564L303.815 540.438L298.469 537.976L293.123 536.64L291.013 534.74L289.958 532.137L290.662 529.253L293.123 527.776L296.148 528.269L298.962 528.058L300.791 524.4L299.173 523.837L297.836 522.782L292.561 516.169L291.928 514.974V512.019L293.264 509.276L297.414 504.211L298.821 504.914L313.1 501.96L315.492 503.156ZM345.527 501.397L343.699 504.352L343.136 504L339.619 498.795L341.659 497.88H344.613L345.809 498.795L346.16 499.92L345.527 501.397ZM443.02 494.855L444.638 500.764L444.427 502.663L443.512 503.719L441.894 504.141L439.573 504.211L427.756 501.679L424.169 502.171L420.792 503.789L417.416 506.603L412.07 513.848L410.171 514.974L407.287 514.481L400.956 511.316V510.261H402.363L401.941 508.502L402.363 507.095L403.277 506.11L404.332 505.548L402.363 503.156L404.614 500.623L405.88 499.99L407.146 500.764L407.849 499.498L407.146 497.106L408.764 497.247L411.155 498.935L412.633 499.498L413.617 499.287L416.853 497.95L418.049 497.106L417.557 495.418L417.486 494.011L417.979 492.956L418.823 492.393V491.197L415.517 488.876L414.673 487.68L414.18 485.922L414.462 484.726L415.587 484.093H417.416L419.526 487.962L422.902 489.509L430.992 490.002L439.714 491.83L443.02 494.855ZM375.071 367.04L378.939 366.829L380.135 366.196L380.487 365.563L382.034 366.056L386.818 368.94L386.114 371.894L385.34 373.934L381.894 377.311L380.628 379.773L382.597 380.195L385.481 378.929L387.732 376.467L388.084 373.653L389.631 372.949L391.249 373.512L392.726 374.989L393.57 377.24L390.475 376.185L390.053 376.607L390.686 378.225L392.163 379.421L395.54 380.828L396.384 377.17L398.705 371.542L398.987 367.603L397.087 358.81H400.745L406.232 364.156L413.477 365.423L412.07 366.759L412.281 367.744L413.055 369.01L414.954 370.206L414.884 371.402L411.015 374.215L408.694 375.13L405.247 377.944L406.161 379.773L405.669 382.657L406.372 384.345L406.443 386.455L409.538 387.862L411.437 387.722L413.406 386.596L414.602 387.51L417.486 387.018L421.003 387.44L425.294 389.55L422.48 391.168L414.25 399.891L409.256 410.161L411.929 419.376L416.712 423.738L418.401 424.3L424.52 424.722L426.208 425.496L430.499 429.154L432.75 431.897L433.735 434.5L433.946 437.455L434.368 439.987L435.775 444.7L433.735 447.092L428.6 450.82L407.709 455.744L406.161 457.432L403.559 459.05L401.589 462.005L400.393 465.592L400.956 468.547L400.182 470.024L399.409 470.657L398.494 470.516L397.58 469.743L398.283 466.014L397.158 463.623L395.118 462.989L390.968 466.155L390.757 467.914L391.319 468.687L394.203 470.938L402.504 471.642L406.302 472.908L407.146 476.988L406.583 478.676L405.95 479.38L402.293 481.56L401.308 482.475L402.011 482.897L405.81 491.197L405.669 494.504L404.332 496.262L402.293 496.966L399.971 497.106L398.424 497.739L395.118 500.342L392.797 500.764L389.35 499.357L383.934 494.222L380.628 493.589L380.698 495.066L379.291 496.051L379.713 499.357L379.01 501.327L378.095 503.015L377.884 505.548L378.588 507.447L379.924 508.572L381.401 508.783L382.667 507.799L381.964 505.548L382.808 505.407L385.34 504.211L386.114 505.196L387.732 509.065L388.646 509.768L391.882 512.934L393.57 513.778L395.399 513.567L397.298 512.934H399.127L400.675 514.411L403.418 518.632L406.443 522.149V523.274L397.65 530.449L396.243 532.137L392.304 539.594L391.812 541.001L390.827 541.775L388.154 545.01L387.099 545.714L385.622 548.106L385.551 553.592L386.677 563.37L386.466 569.49L384.496 569.701L382.386 567.028L381.964 564.636L380.487 562.667L377.251 556.265L376.548 554.085L376.688 550.497L377.884 547.754L380.628 543.393L378.588 542.97L377.181 541.986L376.829 540.227L377.884 537.413L376.759 536.71L375.141 533.826L370.569 529.042L369.725 526.791L369.514 525.385L369.584 523.556L368.951 522.149L367.263 520.179L365.715 518.913L364.66 517.225L364.238 513.778L364.168 510.612L363.886 508.15L362.831 506.462L360.791 505.548V504.211L364.66 501.186L365.575 500.764L366.981 501.327L368.951 503.719L370.006 504.211L371.132 503.578L373.382 501.116L374.438 502.312L375.844 501.538L377.884 499.498V498.443L376.829 497.036L374.93 491.76L373.804 490.002L367.122 486.836L365.223 486.484L363.394 484.444L362.55 484.093L356.29 483.741L354.39 482.686L352.773 481.138L351.295 479.239L356.641 480.364L367.192 485.288L372.398 486.484L370.147 482.404L364.027 477.762L361.424 473.4L370.006 471.853L370.569 471.149L370.358 469.743L368.177 467.914L362.55 468.336L360.791 466.085L362.269 464.467L363.113 462.427L362.972 460.457L361.424 459.05H359.174L357.556 460.598L356.079 462.497L354.672 463.763L353.335 463.693L349.678 462.005L342.221 460.105L340.393 459.05L339.056 459.754L332.163 456.659L330.897 456.94L328.153 458.558L326.746 459.05H319.923V460.246L321.963 461.372L318.517 461.301L316.055 460.387L314.437 457.925L313.804 453.071L315.211 454.126L316.688 454.196L317.883 453.071L318.517 450.679L316.477 451.875L314.155 451.945L313.804 451.031L314.085 446.74L313.452 445.826L311.623 444.7L306.207 439.635L305.292 438.017L306.137 437.595L307.614 437.455L308.809 436.822L308.95 435.063L308.176 434.219L306.77 433.797L304.237 433.867L303.534 434.852L303.112 436.259L302.338 437.455H300.791L300.228 436.681L298.821 432.742V431.475L301.424 431.757L302.901 431.616L303.886 430.913L304.73 429.717L307.121 428.099L308.317 427.888L310.357 426.973L311.342 424.863L311.271 422.753L310.076 421.768L310.427 420.009L309.583 416.07L307.614 409.81L306.348 407.629L305.081 406.152L303.534 405.307L301.494 405.026L299.736 406.292L298.61 406.644L298.118 405.659L298.258 403.268L298.891 402.001L299.806 401.509L301.142 401.439L303.815 400.454L304.8 397.921L304.519 394.615L303.182 391.239L298.821 385.611L293.968 382.727L283.065 379.773V378.436L298.821 379.773L297.133 376.818L290.943 374.075L288.551 372.527L286.933 369.502L286.089 368.447L284.472 367.603L279.266 367.251L277.648 366.267V365.211L293.334 367.603L296.57 367.04L302.83 364.578L306.277 364.016V365.211L304.097 365.071L303.112 365.493L302.197 366.267L303.745 369.362L306.348 371.824L309.232 372.668L311.764 371.261L307.614 367.603L308.95 366.267L309.935 367.251L311.553 367.674L315.14 367.603L316.758 366.97L320.134 364.508L323.581 363.734L325.129 362.89L326.254 361.202L327.45 353.675L327.098 352.268L325.34 349.736L324.707 348.259L327.239 349.947L329.701 350.369L332.022 349.384L334.132 346.922L337.579 347.696L340.322 342.912L340.815 335.878L337.579 329.969L334.695 328.773L328.294 328.281L320.345 325.256L318.094 323.287L317.18 320.191L329.912 326.311L332.514 325.678L347.849 328.14L349.678 329.829L353.828 329.618L360.791 327.437L364.449 325.186L366.489 324.834L367.614 326.382L367.192 328.14L364.379 331.517L363.535 333.627L364.73 335.526L364.097 336.652L362.48 336.933L360.791 336.089L361.424 333.627L358.259 333.838L356.993 334.542L356.008 336.089L360.932 344.741L362.831 349.595L361.424 353.112L359.947 353.394L356.852 352.55L355.305 353.112L353.546 355.785L352.35 356.7L350.522 356.77V358.036L352.139 358.599L357.063 358.036L358.4 357.474L359.947 356.207L361.706 355.293L363.535 355.504L364.238 356.911L365.223 359.865L365.997 362.679L365.926 364.016L357.907 365.423L356.149 366.196L355.445 367.322L356.712 368.729L358.118 368.94L362.62 368.588L363.535 368.166L364.308 367.251L365.926 368.94L368.388 372.527L369.092 374.849L367.614 379.773L369.373 378.084L370.709 376.467L374.86 367.251L375.071 367.04Z" fill="#009649" stroke="white" stroke-width="2" stroke-linejoin="round"></path>
</svg>