<svg width="756" height="581" viewBox="0 0 756 581" fill="none" xmlns="http://www.w3.org/2000/svg">
<path class="region" data-country-region="West Region" d="M412.916 182.947L411.857 192.775L416.015 203.132L426.675 223.62L429.925 235.111L431.815 247.433L434.461 312.373L437.788 332.709L447.691 348.207L458.577 352.213L466.818 350.853L470.9 353.574L469.615 369.45L464.55 390.467L460.392 399.841L454.495 409.291L441.114 422.142L421.156 411.181L410.874 396.666L406.49 379.731L397.871 363.478L387.136 350.248L373.755 337.245L361.811 322.201L349.035 309.5L331.798 298.765L328.472 284.855L331.118 267.921L323.86 256.656L300.954 254.54L293.772 245.241L285.229 236.472L279.786 223.771L275.099 210.39L294.377 203.435L306.019 191.944L314.561 175.917L334.595 155.505L401.5 102.132L422.29 89.5072L423.197 102.586L421.988 117.857L419.871 132.069L415.032 143.258L413.218 155.505L408.985 173.422L412.916 182.947Z" fill="#009649" stroke="white" stroke-width="2" stroke-linejoin="round"></path>
<path class="region" data-country-region="West Region" d="M441.114 422.142L434.385 430.685L434.688 442.101L452 434.994L453.89 444.747L449.883 454.952L437.258 473.852L433.327 484.663L430.227 507.569L425.994 515.734L375.04 564.495L348.959 579.691L326.203 577.045L323.406 572.66L319.324 558.901L316.602 553.155L312.217 548.922L300.424 540.682L265.649 508.401L257.711 497.817L252.343 486.931L240.776 451.777L233.821 444.444L223.54 443.839L200.86 447.922L176.669 443.159L157.769 441.798L155.199 436.733L154.216 428.417L156.03 425.166L163.741 418.362L165.556 413.071L161.776 388.199L154.216 376.783V361.361L149.907 345.788L146.656 339.664L140.835 333.163L137.206 321.445L133.199 319.933L124.657 319.706L121.255 318.043L117.021 306.627L110.52 302.394L96.8362 297.102L78.7681 283.04L67.1258 276.917L36.7351 272.23L0.523193 254.918L140.608 259.68L182.187 251.743L220.44 230.121L275.098 210.39L279.786 223.771L285.229 236.472L293.771 245.241L300.953 254.54L323.86 256.656L331.117 267.921L328.471 284.855L331.798 298.765L349.034 309.5L361.81 322.201L373.755 337.245L387.136 350.248L397.871 363.478L406.489 379.731L410.874 396.666L421.156 411.181L441.114 422.142Z" fill="#009649" stroke="white" stroke-width="2" stroke-linejoin="round"></path>
<path class="region" data-country-region="East Region" d="M412.915 182.948L408.984 173.422L413.217 155.505L415.032 143.258L419.87 132.069L421.987 117.857L423.196 102.586L422.289 89.5073L515.503 32.8837L587.171 3.09772L601.081 1.35895L611.513 5.44129L612.345 12.6988L604.256 18.3687L586.944 26.1554L582.332 33.6397L573.185 55.7146L571.522 62.3673L567.817 70.0028L550.581 86.0297L544.986 94.8748L532.361 107.5L530.623 116.042L530.169 125.341L526.54 133.884L517.771 139.327L508.018 139.554L487.682 137.286L475.284 140.688L465.229 146.962L447.388 164.123L438.014 170.02L417.678 178.563L412.915 182.948Z" fill="#009649" stroke="white" stroke-width="2" stroke-linejoin="round"></path>
<path class="region" data-country-region="East Region" d="M636.158 84.0641L636.461 96.7647L641.602 101.981L656.117 110.373L670.027 130.179L706.239 235.111L708.658 248.341L707.751 257.942L703.29 279.941L702.988 301.789L706.087 325.225L713.345 347.073L726.121 364.158L745.626 382.453L753.639 394.398L755 405.889L746.986 414.658L734.815 414.205L722.039 408.61L711.984 401.882L707.146 400.068L696.486 400.521L690.741 398.026L682.047 390.769L677.436 389.106L660.879 390.769L649.313 388.274L617.788 376.556L610.455 371.642L605.995 363.704L599.417 308.971L592.916 287.047L574.848 243.805L570.009 222.183L567.741 176.975L571.673 132.901L581.803 143.409L591.933 136.832L602.895 124.585L615.293 118.008L627.313 115.438L627.691 108.936L622.929 100.242L619.678 90.9436L624.516 84.5177L636.158 84.0641Z" fill="#009649" stroke="white" stroke-width="2" stroke-linejoin="round"></path>
</svg>