<svg width="898" height="581" viewBox="0 0 898 581" fill="none" xmlns="http://www.w3.org/2000/svg">
<path class="region" data-country-region="North Region" d="M434.459 119.529L443.293 117.587L446.695 120.39L450.389 118.653L450.9 122.143L448.097 127.735L453.412 141.169L460.946 148.309L458.815 157.435L473.183 165.291L479.724 161.553L490.442 169.189L497.086 168.839L505.467 172.139L512.169 169.423L514.914 175.935L522.186 177.571L531.882 186.857L530.494 191.092L538.248 201.299L538.175 203.81L533.634 206.979L530.83 215.959L531.473 230.75L537.722 237.365L532.29 244.403L548.571 250.112L544.716 255.982L527.997 264.86L528.45 273.037L518.492 280.951L510.3 278.804L501.787 280.907L494.122 279.491L484.441 278.863L470.73 285.229L466.451 281.842L463.21 272.789L468.875 267.59L469.372 264.597L466.407 263.137L466.305 257.836L460.129 257.048L457.208 253.923L457.34 247.017L463.21 241.395L462.275 237.263L452.638 232.488L443.497 230.517L438.693 231.553L435.116 228.472L424.866 228.983L423.756 226.019L425.727 219.843L424.223 217.988L412.951 221.376L403.854 219.025L394.917 210.206L394.158 204.511L399.152 203.635L399.313 198.028L403.43 191.91L403.781 186.857L414.279 176.169L415.813 171.029L414.659 167.948L408.979 166.839L410.541 157.158L400.437 158.253L398.553 155.216L400.159 152.558L409.738 148.163L411.68 135.971L408.132 130.086L410.6 120.77L408.877 114.886L417.258 107.877L429.042 117.923L434.459 119.529Z" fill="#009649" stroke="white" stroke-width="2"></path>
<path class="region" data-country-region="North Region" d="M679.169 17.3464L684.046 16.9667L694.793 21.4933L704.445 19.9163L707.394 30.2397L716.783 33.6565L722.989 42.5635L733.298 40.5631L753.214 42.4905L757.785 35.4379L761.99 38.9423L766.21 49.8644L756.047 54.7705L750.601 62.5825L750.586 66.6417L746.132 66.0869L742.54 62.232L735.269 74.7311L732.363 75.2713L727.661 72.2488L713.483 85.6094L705.16 87.3616L694.997 98.9699L696.56 107.906L693.771 109.483L687.507 109.731L679.461 99.8022L666.48 104.256L660.391 98.5903L658.391 92.6328L653.266 92.0779L649.119 84.2952L642.679 82.2948L637.174 75.5634L630.881 80.6156L629.027 77.374L625.157 78.2501L606.54 72.716L605.387 66.3935L601.736 61.5603L591.909 62.7285L588.478 57.209L575.03 56.3913L577.95 50.2878L571.905 44.4033L570.255 37.891L577.322 35.9489L585.893 37.6281L599.181 33.9631L608.292 34.518L621.594 29.86L630.91 29.5534L652.302 18.5583L664.231 18.2225L674.642 15.1123L679.169 17.3464Z" fill="#009649" stroke="white" stroke-width="2"></path>
<path class="region" data-country-region="North Region" d="M226.063 94.5895L232.955 94.9983L261.662 107.074L286.076 104.037L282.995 117.952L280.571 116.404L280.031 119.354L277.388 115.616L274.847 115.777L266.524 126.363L261.808 124.465L259.808 125.633L262.392 144.513L272.54 148.806L270.175 158.793L255.077 160.691L252.434 168.328L236.43 169.744L232.984 172.285L230.327 194.553L233.349 197.488L239.248 195.648L242.169 199.138L243.571 217.55L235.642 217.536L235.788 227.261L234.357 233.116L227.348 229.553L213.36 229.173L209.636 226.414L195.984 232.678L188.624 229.173L174.344 241.76L170.474 239.234L161.859 226.092L160.618 218.616L165.86 208.965L153.259 206.862L151.667 199.182L153.712 196.67L159.114 196.743L159.465 191.676L154.617 188.42L144.659 186.347L141.096 181.645L148.849 173.804L154.427 162.998L153.566 153.04L159.216 143.885L161.918 142.585L174.066 145.111L177.994 139.008H184.74L183.776 134.175L176.782 127.166L186.069 110.403L185.061 85.3174L198.291 83.1417L215.316 92.078L226.063 94.5895Z" fill="#009649" stroke="white" stroke-width="2"></path>
<path class="region" data-country-region="North Region" d="M341.709 106.738L352.091 101.642L363.48 102.431L374.183 97.8603L379.703 98.3421L387.909 105.176L394.173 106.694L406.03 103.891L417.258 107.877L408.877 114.886L410.6 120.77L408.132 130.086L411.68 135.971L409.738 148.163L400.16 152.558L398.553 155.216L400.437 158.253L410.541 157.158L408.979 166.839L414.659 167.948L415.813 171.029L414.28 176.169L403.781 186.858L392.421 180.156L387.909 168.883L385.704 168.138L382.068 176.184L376.695 181.426L369.321 183.879L358.691 178.768L352.003 178.418L339.621 186.201L336.087 192.64L331.473 187.573L329.852 197.955L304.329 194.684L299.364 189.88L295.246 188.975L293.582 185.836L288.661 191.092L280.075 193.75L271.168 194.655L261.881 192.231L252.39 197.21L242.169 199.138L239.249 195.648L233.35 197.488L230.327 194.553L232.985 172.285L236.431 169.745L252.434 168.328L255.077 160.691L270.175 158.793L272.541 148.806L262.393 144.513L259.808 125.633L261.808 124.465L266.525 126.363L274.848 115.777L277.388 115.616L280.031 119.354L280.572 116.404L282.996 117.952L286.076 104.037L294.765 96.5753L309.804 91.2749L326.698 95.3342L335.43 103.789L341.709 106.738Z" fill="#009649" stroke="white" stroke-width="2"></path>
<path class="region" data-country-region="North Region" d="M394.158 204.511L394.917 210.206L403.854 219.025L412.95 221.376L424.223 217.988L425.727 219.843L423.756 226.019L424.865 228.984L435.116 228.473L438.693 231.553L443.497 230.517L452.638 232.488L462.275 237.263L463.209 241.395L457.34 247.017L457.208 253.923L460.129 257.048L466.305 257.837L466.407 263.137L469.371 264.597L468.875 267.59L463.209 272.789L466.451 281.842L470.729 285.229L470.452 287.653L467.05 289.055L462.333 284.967L455.412 288.456L450.229 287.288L446.023 283.025L441.438 282.674L442.066 287.96L440.372 289.464L422.967 284.645L417.565 285.463L408.453 279.958L393.004 287.215L382.506 285.886L383.265 279.914L379.133 271.767L372.533 262.918L365.32 259.428L362.823 245.221L367.101 235.992L373.628 233.685L372.197 219.492L377.76 213.345L377.351 200.277L394.158 204.511Z" fill="#009649" stroke="white" stroke-width="2"></path>
<path class="region" data-country-region="North Region" d="M570.255 37.8912L571.905 44.4036L577.95 50.2881L575.03 56.3916L570.269 63.2398L566.05 76.1185L560.705 80.3238L560.603 84.6897L567.86 87.1866L574.343 86.1207L575.497 87.9751L580.169 85.7264L585.514 90.4574L591.325 91.5233L596.567 99.9193L596.582 109.878L591.836 117.149L583.221 118.215L575.176 116.39L562.647 120.552L552.426 112.769L547.009 111.557L540.701 119.252L531.035 121.778L530.451 126.626L535.62 136.745L526.391 141.169L523.924 153.668L515.601 164.313L522.828 170.475L522.186 177.571L514.914 175.936L512.169 169.423L505.467 172.139L497.086 168.839L490.442 169.19L479.724 161.553L473.183 165.291L458.815 157.435L460.946 148.309L453.412 141.169L448.097 127.736L450.9 122.143L450.389 118.653L446.695 120.391L443.293 117.587L448.871 114.798L459.53 114.609L474.015 105.818L484.163 105.483L491.625 101.496L495.698 94.3122L505.263 87.9021L515.966 71.5336L530.801 62.4221L538.102 50.5947L543.972 46.9735L551.492 46.9589L570.255 37.8912Z" fill="#009649" stroke="white" stroke-width="2"></path>
<path class="region" data-country-region="North Region" d="M666.48 104.256L679.461 99.8021L687.506 109.731L693.77 109.483L697.406 113.805L704.006 114.725L710.226 123.384L712.417 124.231L722.565 118.317L726.347 125.253L723.485 129.341L709.569 133.78L709.555 138.949L713.424 140.672L710.621 148.017L713.366 148.616L714.037 151.2L706.605 162.473L708.08 178.286L705.276 180.798L701.261 179.513L700.604 181.25L705.773 201.693L692.661 209.432L691.2 214.995L694.807 218.937L697.085 231.714L677.314 235.934L673.401 239.643L680.746 247.79L680.337 253.5L673.007 254.347L662.435 260.027L655.076 254.507L646.972 256.099L641.277 253.704L629.537 254.23L620.309 260.771L609.197 260.859L608.452 255.106L599.326 255.456L597.574 253.339L598.377 249.221L607.752 240.928L612.439 238.591L612.38 231.904L620.119 223.975L616.148 209.855L621.959 209.461L625.113 200.598L633.597 191.647L632.881 187.967L628.121 183.616L627.157 172.139L628.953 169.817L635.159 163.451L628.063 157.318L627.595 152.193L637.116 142.994L636.663 134.16L645.015 127.064L646.388 120.887L654.725 123.252L659.427 117.31L665.691 114.214L667.838 110.987L666.48 104.256Z" fill="#009649" stroke="white" stroke-width="2"></path>
<path class="region" data-country-region="North Region" d="M535.62 136.745L538.204 138.497L548.776 138.365L552.09 133.751L556.88 132.802L566.561 142.322L572.46 143.607L576.081 152.879L583.82 154.734L582.973 163.977L568.634 175.468L569.671 178.973L574.285 180.608L576.168 183.558L574.183 187.398L575.891 190.201L581.936 187.296L582.199 183.485L588.025 175.673L587.543 172.636L591.88 173.409L598.918 170.226L606.803 173.672L615.053 174.461L618.338 168.021L621.244 170.431L628.954 169.817L627.158 172.139L628.121 183.616L632.882 187.967L633.597 191.647L625.113 200.598L621.959 209.461L616.148 209.855L620.12 223.975L612.381 231.904L612.439 238.592L607.752 240.928L593.004 238.665L578.549 241.716L571.511 237.496L567.816 240.986L566.269 233.89L558.719 235.394L555.843 243.907L548.571 250.112L532.29 244.403L537.722 237.365L531.473 230.75L530.83 215.959L533.634 206.979L538.175 203.81L538.248 201.299L530.494 191.092L531.882 186.858L522.186 177.571L522.828 170.475L515.601 164.313L523.924 153.668L526.391 141.169L535.62 136.745Z" fill="#009649" stroke="white" stroke-width="2"></path>
<path class="region" data-country-region="East Region" d="M801.312 52.2152L807.562 75.1107L824.412 83.8717L842.226 91.8443L858.04 93.0416L872.233 96.7358L891.229 95.7137L891.142 102.372L889.083 105.657L891.273 115.368L889.798 122.814L895.625 134.525L887.886 152.617L879.577 160.18L875.153 169.847L872.481 165.685L856.346 158.881L836.838 162.546L830.705 160.969L821.375 167.218L816.337 180.068L802.363 164.035L796.348 163.728L787.966 172.022L770.079 148.908L762.34 149.273L754.791 145.476L754.747 137.986L752.061 135.576L749.023 135.971L740.554 142.863L737.05 142.95L734.641 133.357L726.347 125.253L722.565 118.317L712.417 124.231L710.227 123.384L704.006 114.725L697.406 113.805L693.771 109.483L696.559 107.906L694.997 98.9699L705.16 87.3615L713.483 85.6093L727.661 72.2488L732.363 75.2713L735.269 74.7311L742.54 62.232L746.132 66.0868L750.586 66.6417L750.6 62.5824L756.047 54.7705L766.21 49.8643L770.678 53.2519L786.229 50.7258L796.61 42.4905L800.48 47.2798L801.312 52.2152Z" fill="#009649" stroke="white" stroke-width="2"></path>
<path class="region" data-country-region="East Region" d="M726.347 125.253L734.641 133.357L737.05 142.95L740.555 142.863L749.024 135.971L752.061 135.576L754.748 137.986L754.791 145.476L762.34 149.273L770.079 148.908L787.966 172.022L796.348 163.729L802.364 164.035L816.338 180.068L809.197 197.444L800.276 199.225L797.311 203.839L794.917 202.482L796.581 203.095L796.319 206.628L800.831 207.738L795.997 228.4L792.595 232.984L794.931 254.172L794.435 268.613L791.646 272.146L780.096 274.088L774.109 272.599L766.896 268.364L767.29 264.539L763.976 263.385L742.584 261.487L736.13 265.853L732.714 263.531L724.58 264.539L703.525 250.039L689.069 248.638L680.337 253.5L680.746 247.791L673.401 239.643L677.315 235.934L697.085 231.714L694.807 218.938L691.201 214.995L692.661 209.432L705.773 201.693L700.604 181.251L701.261 179.513L705.277 180.798L708.08 178.286L706.606 162.473L714.038 151.2L713.366 148.616L710.621 148.017L713.425 140.672L709.555 138.949L709.57 133.78L723.485 129.342L726.347 125.253Z" fill="#009649" stroke="white" stroke-width="2"></path>
<path class="region" data-country-region="West Region" d="M48.01 2L57.5157 4.81813L66.3643 13.1995L82.5138 23.4353L97.539 26.122L99.6854 28.0202L100.299 33.6273L95.3633 41.9503L84.0324 43.8485L76.9506 48.5357L71.1683 67.6055L73.3732 74.4245L76.3957 77.228L101.642 84.8209L98.9992 88.0333L87.2886 89.5519L87.8289 93.6987L100.197 98.4443L101.832 103.496L83.1709 111.878L77.2134 127.443L72.0444 132.627L67.6347 142.98L61.3122 147.112L60.6405 156.136L55.3401 163.831L48.0976 163.422L45.3087 157.026L36.6499 155.274L33.4375 150.047L27.4946 148.484L20.807 130.247L21.4933 122.873L19.4782 118.726L21.1428 115.309L9.21325 103.949L7.31502 97.539L8.23493 91.8005L2 81.4041L6.08848 69.9126L6.40972 58.713L9.18404 56.1139L9.49068 43.3228L14.4407 40.7675L26.5747 40.0959L28.6627 37.3799L27.2172 33.9339L39.7308 31.5101L38.2414 22.822L40.7967 12.7615L38.6795 11.2429L41.7897 9.27165L40.6653 7.56325L42.4467 7.22741L43.1038 2.67168L48.01 2Z" fill="#009649" stroke="white" stroke-width="2"></path>
<path class="region" data-country-region="West Region" d="M155.011 73.9427L167.496 77.1989L177.279 84.602L185.061 85.3175L186.069 110.403L176.782 127.166L183.776 134.175L184.74 139.008H177.994L174.066 145.111L161.918 142.585L159.216 143.885L153.566 153.04L154.427 162.999L148.849 173.804L141.096 181.645L144.659 186.347L154.617 188.42L159.465 191.676L159.114 196.743L153.712 196.67L151.667 199.182L153.259 206.862L143.914 206.322L137.504 213.258L109.06 215.214L91.8441 198.714L85.2003 200.656L79.2136 196.378L75.1252 188.42L72.307 186.726L69.1531 175.965L55.3398 163.831L60.6403 156.136L61.3119 147.112L67.6345 142.98L72.0442 132.627L77.2132 127.443L83.1707 111.878L101.832 103.497L100.196 98.4444L87.8286 93.6989L87.2884 89.552L98.999 88.0334L101.642 84.821L114.477 82.514L132.846 74.8335L155.011 73.9427Z" fill="#009649" stroke="white" stroke-width="2"></path>
<path class="region" data-country-region="West Region" d="M163.291 417.273L171.774 416.937L175.571 413.973L181.265 397.035H190.859L193.662 402.627L198.597 404.861L202.292 403.795L201.124 398.349H205.095L204.029 405.62L207.256 407.562L208.789 424.179L212.235 426.866L206.482 430.268L201.284 436.97L204.891 462.085L208.322 465.94L217.112 469.036L232.196 478.76L251.66 496.545L253.208 499.86L248.579 506.358L245.688 524.186L247.207 535.225L243.819 537.912L240.417 537.664L239.219 535.138L232.853 540.715L224.355 532.655L221.245 538.394L208.162 540.978L203.255 548.703L190.143 546.074L185.938 551.988L181.835 552.616L176.564 549.842L172.3 550.44L169.087 547.14L156.369 546.848L151.551 547.71L142.746 554.689L139.84 548.046L134.292 547.943L127.049 552.733L126.845 557.814L123.384 562.428L113.703 564.589L105.979 564.399L97.8895 560.545L85.3028 559.712L88.9386 556.661L89.2015 549.141L87.128 544.643L90.9391 539.212L88.0479 530.027L90.0776 517.28L87.1426 512.374L86.5294 503.7L88.0479 501.116L91.713 500.853L92.9395 496.107L98.7218 488.792L95.3342 478.118L88.851 476.76L84.894 462.786L81.9444 457.252L80.0024 457.092L78.9219 449.659L76.0599 445.804L75.2568 430.794L80.9807 428.034L84.0325 414.002L86.7776 412.001L90.3988 420.748L95.8745 420.5L99.1598 424.792L112.988 421.317L121.822 414.454L144.673 420.85L149.112 424.048L158.866 421.405L163.291 417.273Z" fill="#009649" stroke="white" stroke-width="2"></path>
<path class="region" data-country-region="North Region" d="M575.029 56.3914L588.477 57.2091L591.909 62.7285L601.736 61.5604L605.386 66.3935L606.54 72.7161L625.157 78.2501L629.026 77.374L630.881 80.6156L637.174 75.5634L642.679 82.2948L649.118 84.2952L653.265 92.0779L658.39 92.6328L660.391 98.5903L666.48 104.256L667.838 110.987L665.691 114.214L659.427 117.31L654.725 123.253L646.388 120.887L645.015 127.064L636.663 134.16L637.116 142.994L627.595 152.193L628.063 157.318L635.159 163.451L628.953 169.817L621.244 170.431L618.338 168.021L615.053 174.461L606.803 173.672L598.918 170.226L591.88 173.409L587.543 172.636L588.025 175.673L582.199 183.485L581.936 187.296L575.891 190.201L574.182 187.398L576.168 183.558L574.285 180.608L569.67 178.973L568.634 175.468L582.973 163.977L583.819 154.734L576.081 152.879L572.459 143.607L566.56 142.322L556.879 132.802L552.09 133.751L548.775 138.365L538.204 138.497L535.619 136.745L530.45 126.626L531.034 121.778L540.701 119.252L547.009 111.557L552.426 112.769L562.647 120.551L575.175 116.39L583.221 118.215L591.836 117.149L596.581 109.877L596.567 99.9191L591.325 91.5231L585.513 90.4572L580.169 85.7262L575.496 87.9749L574.343 86.1204L567.86 87.1864L560.603 84.6895L560.705 80.3236L566.049 76.1183L570.269 63.2396L575.029 56.3914Z" fill="#009649" stroke="white" stroke-width="2"></path>
<path class="region" data-country-region="West Region" d="M39.9938 261.253L48.2583 266.349L50.6092 263.078L56.8587 262.845L58.7278 261.005L61.3269 267.532L67.1822 267.123L71.8255 274.731L89.2307 280.805L92.1219 285.39L99.9192 288.748L101.89 291.858L111.119 302.678L116.945 306.241L118.653 315.645L117.266 318.857L123.866 319.996L129.4 328.29L133.182 327.501L133.547 329.896L127.925 343.3L129.59 362.779L125.239 366.079L120.697 365.436L112.374 360.676L110.827 354.295L106.329 360.005L101.774 360.779L91.8736 354.514L88.6759 358.574L83.8135 360.238L81.9737 365.582L75.8994 361.976L71.5335 364.458L70.9056 360.516H66.7441L63.6631 355.902L55.3402 354.412L53.5296 347.739L47.3822 338.044L46.769 328.815L38.592 324.479L33.3208 310.622L24.6474 307.745L18.7921 302.854L16.7478 300.911L22.1651 294.385L22.5885 290.895L16.9669 283.74L14.0903 274.774L23.4354 269.605L27.3049 263.721L33.0288 266.889L34.4451 261.531L39.9938 261.253Z" fill="#009649" stroke="white" stroke-width="2"></path>
<path class="region" data-country-region="West Region" d="M101.891 291.859L119.062 291.464L122.464 289.522L126.582 290.851L127.619 287.463L125.502 284.017L135.679 258.202L139.913 261.151L144.367 269.241L163.627 265.444L175.104 272.891L183.383 269.649L185.223 276.848L181.105 292.443L174.038 296.093L172.358 301.861L169.146 303.117L168.212 306.679L174.899 310.344L175.439 326.231L182.112 334.846L188.712 354.237L180.01 357.391L173.337 354.88L170.621 355.916L169.57 343.432L164.284 333.342L160.312 332.889L157.012 345.929L154.544 347.374L141.228 332.992L133.547 329.896L133.182 327.501L129.4 328.29L123.866 319.996L117.266 318.857L118.653 315.645L116.945 306.241L111.119 302.678L101.891 291.859Z" fill="#009649" stroke="white" stroke-width="2"></path>
<path class="region" data-country-region="West Region" d="M85.2004 200.656L91.8442 198.714L109.06 215.214L137.504 213.257L143.914 206.322L153.259 206.862L165.86 208.965L160.618 218.616L161.859 226.092L170.474 239.234L174.344 241.76L188.624 229.173L195.984 232.678L209.636 226.414L213.36 229.173L227.348 229.553L234.357 233.116L235.788 227.26L244.68 227.713L245.527 232.882L252.667 236.445L253.923 245.615L263.911 250.959L259.34 255.573L263.911 258.8L264.466 265.721L268.277 268.583L262.378 278.571L280.44 279.812L294.881 283.974L289.143 297.115L289.668 301.671L301.072 307.964L308.475 315.323L305.015 324.23L296.604 325.705L292.881 322.23L288.675 324.712L284.061 310.563L275.11 307.03L262.202 310.476L260.596 317.66L253.66 317.528L244.841 327.078L235.51 322.77L227.056 324.639L228.224 337.941L233.7 346.615L238.883 348.133L246.243 344.95L248.375 349.637L242.987 360.939L232.546 365.32L229.626 374.358L231.772 381.177L227.114 383.674L223.931 379.673L216.426 389.617L205.095 398.349H201.123L202.292 403.795L198.597 404.861L193.662 402.627L190.858 397.035H181.265L175.57 413.973L171.774 416.937L163.29 417.273L168.956 411.87L169.262 408.365L158.881 403.912L156.384 395.691L146.776 398.86L144.031 396.553L147.652 387.894L154.807 385.236V383.251L145.243 375.497L141.884 365.159L129.59 362.779L127.925 343.3L133.547 329.896L141.227 332.991L154.544 347.374L157.012 345.929L160.312 332.889L164.283 333.342L169.569 343.432L170.62 355.916L173.336 354.879L180.009 357.391L188.712 354.237L182.112 334.846L175.439 326.231L174.899 310.344L168.211 306.679L169.146 303.116L172.358 301.861L174.037 296.093L181.104 292.443L185.222 276.848L183.382 269.649L175.103 272.891L163.626 265.444L144.367 269.24L139.913 261.151L135.679 258.201L125.501 284.017L127.618 287.463L126.582 290.851L122.464 289.522L119.062 291.464L101.89 291.858L99.919 288.748L92.1217 285.39L89.2305 280.805L71.8253 274.731L67.1819 267.123L61.3266 267.532L58.7275 261.005L62.4072 253.821L61.0346 250.696L63.035 244.023L72.1611 239.833L79.1115 233.714L82.5429 224.676L91.3916 218.879L93.465 209.943L91.888 208.118L94.7646 203.168L90.4133 200.627L85.2004 200.656Z" fill="#009649" stroke="white" stroke-width="2"></path>
<path class="region" data-country-region="West Region" d="M18.7922 302.854L24.6475 307.745L33.3209 310.622L38.5921 324.479L46.769 328.816L47.3823 338.044L53.5296 347.739L55.3402 354.412L63.6632 355.902L66.7442 360.516H70.9057L71.5335 364.458L75.8995 361.976L81.9738 365.583L83.8136 360.238L88.6759 358.574L91.8737 354.515L101.774 360.779L106.329 360.005L110.827 354.296L112.375 360.677L120.698 365.437L125.239 366.079L129.59 362.779L141.885 365.159L145.243 375.497L154.807 383.251V385.237L147.652 387.894L144.031 396.553L146.776 398.86L156.384 395.691L158.881 403.912L169.263 408.366L168.956 411.87L163.291 417.273L158.866 421.405L149.112 424.048L144.674 420.85L121.822 414.455L112.988 421.317L99.16 424.793L95.8746 420.5L90.399 420.748L86.7777 412.002L84.0326 414.002L80.9808 428.034L75.257 430.794L72.8769 428.75L68.9782 429.392L65.4008 424.909L62.1008 426.355L56.0703 424.778L53.2084 420.763L47.5575 421.215L32.1089 411.213L24.3408 404.452L22.8368 396.495L18.2811 394.918L15.2439 386.989L2.67188 373.395L8.95061 369.905L12.9223 371.438L15.6966 369.511L19.3324 357.931L25.2169 356.938L30.7072 341.271L25.4359 332.232L18.0913 325.589L13.594 324.523L18.7922 302.854Z" fill="#009649" stroke="white" stroke-width="2"></path>
<path class="region" data-country-region="South Region" d="M294.881 283.974L308.431 283.726L313.834 277.067L332.48 279.272L338.642 284.12L342.015 290.501L345.884 291.625L359.289 289.406L368.342 292.121L382.505 285.887L381.016 289.318L381.673 306.49L377.03 316.828L379.614 327.779L383.98 335.459L389.003 337.474L404.247 332.262L407.635 337.416L407.051 341.139L400.991 347.258L405.182 356.5L399.181 355.055L398.144 357.391L398.129 375.205L404.846 380.228L390.376 386.478L389.47 398.977L399.808 404.745L413.563 402.481L419.141 398.875L429.377 410.6L423.565 425.698L424.179 440.971L420.441 445.585L406.89 453.616L399.122 467.605L390.682 474.409L382.038 465.896L379.322 468.335L378.884 477.957L373.379 484.338L363.333 484.032L354.339 494.195L349.885 484.587L351.813 477.344L349.827 473.927L347.52 475.884L345.578 472.307L349.097 462.071L346.06 456.04L330.874 453.762L314.228 458.435L307.336 449.47L303.408 449.893L297.173 447.133L300.882 435.569L299.962 421.157L302.196 408.453L309.599 406.949L310.68 405.139L303.014 391.691L300.502 375.819L303.233 373.584L302.955 367.729L296.326 360.531L290.208 341.358L291.011 337.474L295.727 332.51L296.604 325.705L305.014 324.231L308.475 315.324L301.072 307.964L289.668 301.671L289.142 297.115L294.881 283.974Z" fill="#009649" stroke="white" stroke-width="2"></path>
<path class="region" data-country-region="South Region" d="M205.095 398.349L216.426 389.617L223.931 379.673L227.115 383.674L231.773 381.177L229.626 374.358L232.546 365.32L242.987 360.939L248.375 349.638L246.243 344.95L238.884 348.134L233.7 346.615L228.224 337.942L227.056 324.639L235.511 322.77L244.841 327.078L253.661 317.528L260.596 317.66L262.203 310.476L275.11 307.03L284.061 310.563L288.675 324.712L292.881 322.23L296.604 325.705L295.728 332.51L291.012 337.474L290.209 341.358L296.327 360.53L302.956 367.729L303.233 373.584L300.503 375.818L303.014 391.691L310.68 405.139L309.6 406.949L302.197 408.453L299.963 421.157L300.882 435.569L297.174 447.133L295.246 457.238L286.646 462.465L283.156 467.152L283.477 479.578L274.935 485.244L266.364 483.097L253.427 484.864L251.66 496.545L232.196 478.761L217.112 469.036L208.322 465.94L204.891 462.085L201.284 436.97L206.482 430.268L212.235 426.866L208.789 424.179L207.256 407.563L204.029 405.621L205.095 398.349Z" fill="#009649" stroke="white" stroke-width="2"></path>
<path class="region" data-country-region="South Region" d="M297.174 447.133L303.409 449.893L307.336 449.47L314.228 458.435L330.874 453.762L346.06 456.04L349.097 462.071L345.578 472.307L347.52 475.884L349.827 473.927L351.813 477.344L349.886 484.587L354.339 494.195L363.334 484.032L373.38 484.338L378.885 477.957L379.323 468.335L382.039 465.897L390.683 474.409L394.319 489.288L392.829 505.19L389.763 508.767L379.308 512.593L378.096 517.294L380.798 529.18L388.171 531.925L396.261 528.041L401.707 531.823L402.729 535.415L400.817 542.147L405.226 544.045L399.751 551.083L401.474 559.479L404.438 561.027L403.971 564.37L396.305 559.333L390.902 559.143L387.485 554.66L371.438 550.586L367.349 546.513L361.669 549.637L353.784 547.87L353.419 556.529L351.448 558.077L343.388 551.536L340.979 545.023L334.423 543.3L330.904 544.775L330.349 541.358L324.026 543.008L322.055 535.795L318.682 533.59L316.813 528.494L315.908 519.47L312.155 516.156L304.635 519.251L301.233 524.946L294.691 521.544L291.742 522.128L289.113 525.793L285.244 524.055L280.133 526.888L279.958 521.821L274.278 515.133L269.664 519.777L266.817 519.368L263.356 526.129L259.516 522.069L255.953 522.507L251.558 519.412L245.688 524.187L248.579 506.358L253.208 499.86L251.66 496.545L253.427 484.864L266.364 483.097L274.935 485.244L283.477 479.578L283.156 467.152L286.646 462.465L295.246 457.238L297.174 447.133Z" fill="#009649" stroke="white" stroke-width="2"></path>
<path class="region" data-country-region="South Region" d="M420.442 445.585L418.514 452.054L423.055 470.014L431.115 462.494L434.547 470.73L445.323 476.818L457.705 480.63L466.349 478.074L469.576 482.134L473.913 496.823L471.898 503.423L473.387 507.19L476.877 504.956L482.338 507.38L490.369 500.123L498.897 501.262L501.306 509.059L495.188 513.834L492.545 526.581L500.123 532.699L499.174 542.526L511.527 554.295L513.703 563.027L506.139 565.933L504.124 564.341L504.401 561.508L497.568 557.989L491.085 562.823L482.747 563.509L480.878 568.473L473.826 564.21L467.415 566.079L459.954 563.582L455.603 571.146L447.688 569.145L440.826 573.438L432.196 574.373L427.655 577.862L422.384 577.074L420.544 579.074L412.995 576.767L411.418 570.547L403.971 564.37L404.438 561.027L401.474 559.479L399.751 551.083L405.227 544.045L400.817 542.147L402.73 535.415L401.708 531.823L396.261 528.041L388.172 531.925L380.798 529.18L378.097 517.294L379.309 512.593L389.763 508.767L392.83 505.19L394.319 489.288L390.683 474.409L399.123 467.605L406.891 453.616L420.442 445.585Z" fill="#009649" stroke="white" stroke-width="2"></path>
<path class="region" data-country-region="South Region" d="M551.477 389.617L562.18 394.129L566.97 398.495L575.687 400.773L579.279 398.714L582.944 401.634L588.624 400.291L590.902 404.321L596.202 403.737L595.545 423.829L591.982 427.289L591.88 431.334L602.802 447.761L605.898 452.01L603.635 455.485L605.504 458.041L599.663 467.356L574.855 468.525L569.627 481.199L569.554 483.915L573.745 488.602L563.217 488.631L555.42 483.156L551.185 484.28L547.199 481.418L540.234 485.039L538.642 488.339L532.524 489.098L531.356 492.997L533.006 500.853L536.335 504.737L542.22 503.583L544.6 508.811L543.753 518.287L548.017 518.769L549.17 525.398L544.629 532.641L551.361 541.139L546.907 541.796L545.272 543.986L545.374 549.52L541.329 556.398L527.75 557.405L523.734 558.749L522.435 562.063L513.703 563.027L511.527 554.295L499.174 542.526L500.123 532.699L492.545 526.581L495.188 513.834L501.306 509.059L498.897 501.262L490.369 500.123L482.338 507.38L476.877 504.956L473.387 507.19L471.898 503.423L473.913 496.823L469.576 482.133L466.349 478.074L457.705 480.629L445.323 476.818L434.547 470.729L431.115 462.494L423.055 470.014L418.514 452.054L420.442 445.585L424.18 440.971L423.566 425.698L429.378 410.6L441.862 415.199L446.885 408.541L447.484 403.781L455.705 406.438L457.063 403.795L454.391 402.919L464.743 394.041L466.554 397.633L466.758 410.468L476.468 405.343L485.186 423.639L499.189 418.543L501.423 410.132L503.394 408.818L507.424 411.885L512.389 412.031L515.82 415.345L522.04 416.119L528.144 428.589L531.196 429.45L535.941 424.413L544.615 423.756L539.665 401.24L551.477 389.617Z" fill="#009649" stroke="white" stroke-width="2"></path>
<path class="region" data-country-region="South Region" d="M470.729 285.229L484.44 278.863L494.121 279.491L494.676 289.551L500.546 301.262L502.269 311.629L506.708 319.091L502.284 328.625L507.497 340.701L503.992 349.258L509.482 355.945L513.585 370.065L525.807 378.067L525.851 381.002L531.239 377.366L546.22 386.346L551.477 389.617L539.664 401.24L544.614 423.756L535.941 424.413L531.195 429.45L528.143 428.589L522.04 416.119L515.82 415.345L512.388 412.03L507.424 411.884L503.393 408.818L501.422 410.132L499.188 418.543L485.185 423.639L476.468 405.343L466.758 410.468L466.553 397.633L464.743 394.041L454.39 402.919L457.062 403.795L455.704 406.438L447.484 403.78L446.885 408.541L441.862 415.199L429.377 410.599L419.142 398.874L413.564 402.481L399.809 404.744L389.471 398.976L390.376 386.477L404.847 380.228L398.13 375.205L398.144 357.391L399.181 355.055L405.182 356.5L400.992 347.257L407.051 341.139L407.635 337.416L404.248 332.261L389.004 337.474L383.981 335.459L379.615 327.779L377.03 316.827L381.674 306.489L381.017 289.318L382.506 285.886L393.005 287.215L408.453 279.958L417.565 285.463L422.967 284.645L440.372 289.464L442.066 287.96L441.438 282.674L446.023 283.024L450.229 287.288L455.412 288.456L462.333 284.966L467.05 289.055L470.452 287.653L470.729 285.229Z" fill="#009649" stroke="white" stroke-width="2"></path>
<path class="region" data-country-region="East Region" d="M620.018 299.057L632.02 312.71L650.55 348.469L660.829 349.287L658.055 356.252L647.527 358.048L645.658 360.253L647.075 366.444L658.537 379.352L656.215 386.711L659.836 395.764L655.763 400.568L656.259 403.664L670.919 417.696L668.831 418.119L669.532 421.96L666.699 425.99L662.917 426.311L663.326 429.64L660.143 434.108L647.002 435.481L643.118 439.555L635.379 435.642L630.224 441.687L617.754 440.241L611.811 437.554L602.802 447.761L591.88 431.334L591.982 427.289L595.545 423.829L596.202 403.737L590.902 404.321L588.624 400.291L582.944 401.634L579.279 398.714L575.687 400.773L566.97 398.495L562.18 394.129L551.477 389.617L546.221 386.346L554.66 367.51L555.58 355.726L554.354 353.317L548.206 358.471L544.965 351.287L550.995 353.565L550.601 344.906L552.529 343.695L562.399 346.425L564.531 343.49L570.518 342.716L577.132 335.518L576.636 332.334L573.862 330.436L579.658 325.661L587.646 326.976L600.451 318.974L607.519 318.258L611.665 311.6L614.732 314.973L618.952 309.702L618.995 303.876L616.25 297.363L620.018 299.057Z" fill="#009649" stroke="white" stroke-width="2"></path>
<path class="region" data-country-region="East Region" d="M548.571 250.112L555.843 243.907L558.72 235.394L566.269 233.89L567.816 240.986L571.511 237.496L578.549 241.716L593.004 238.665L607.752 240.928L598.378 249.222L597.575 253.339L599.327 255.457L603.868 255.544L606.117 269.606L604.511 278.264L608.497 283.156L616.323 285.697L620.558 293.757L620.018 299.057L616.25 297.363L618.995 303.876L618.952 309.702L614.732 314.973L611.665 311.6L607.518 318.258L600.451 318.974L587.646 326.976L579.658 325.662L573.862 330.436L576.636 332.334L577.132 335.518L570.518 342.716L564.531 343.49L562.399 346.425L552.528 343.695L550.601 344.907L550.995 353.565L544.965 351.288L548.206 358.472L554.354 353.317L555.58 355.726L554.66 367.51L546.22 386.346L531.239 377.366L525.851 381.002L525.807 378.067L513.586 370.065L509.483 355.945L503.992 349.258L507.497 340.701L502.284 328.626L506.708 319.091L502.269 311.629L500.546 301.262L494.676 289.552L494.122 279.491L501.787 280.907L510.3 278.805L518.492 280.951L528.45 273.037L527.998 264.86L544.717 255.982L548.571 250.112Z" fill="#009649" stroke="white" stroke-width="2"></path>
<path class="region" data-country-region="East Region" d="M680.337 253.5L689.069 248.637L703.525 250.039L724.58 264.539L732.713 263.531L736.145 265.867L742.584 261.502L763.976 263.414L767.29 264.568L766.896 268.394L774.109 272.628L780.096 274.117L791.646 272.175L794.216 284.806L792.566 288.982L793.851 298.736L769.51 297.261L767.173 303.7L771.539 306.781L768.473 307.015L767.232 309.454L764.56 308.329L762.384 311.133L758.223 310.695L756.222 313.717L756.134 322.391L758.529 326.932L753.696 324.917L748.921 325.107L745.446 327.677L739.635 326.771L735.663 332.145L734.626 340.511L730.844 339.796L729.574 344.658L732.012 347.111L732.436 351.769L733.998 344.804L739.211 351.098L742.643 345.71L748.366 347.856L749.257 344.512L752.688 348.075L755.025 347.549L755.273 345.286L756.66 347.433L758.69 346.965L757.828 352.251L759.946 354.529L762.136 354.967L765.465 351.55L766.356 354.836L769.845 354.69L766.852 357.216L769.057 360.925L767.392 363.874L771.057 370.387L777.906 369.043L776.051 371.993L779.118 374.606L773.598 378.476L775.088 382.696L773.277 383.221L773.291 385.996L785.601 396.67L788.404 400.481L787.572 401.941L793.675 406.453L796.362 412.527L800.976 413.87L804.145 421.858L807.387 421.989L813.592 436.751L809.883 437.817L805.444 435.671L803.006 438.138L799.326 436.62L796.172 439L794.449 435.203L788.769 432.619L788.2 435.379L787.543 433.232L786.623 435.583L784.652 434.123L782.943 436.372L785.309 443.746L782.359 442.577L782.345 444.841L780.665 442.796H777.146L778.154 440.65L772.123 439.905L771.349 437.686L765.786 438.007L766.472 439.336L763.917 439.248L762.019 442.271L754.937 441.541L756.003 443.147L753.915 445.06L752.572 443.716L750.265 446.812L748.177 445.688L748.439 449.017L746.512 449.878L747.899 451.616L746.249 451.966L738.861 441.482L733.078 441.541L727.588 435.35L721.966 432.692L718.214 422.953L713.673 422.354L712.242 418.324L707.496 415.068L699.991 413.578L697.406 414.849L694.077 418.514L694.515 422.252L691.653 420.251L684.586 420.821L681.301 417.156L675.445 415.827L671.094 417.784L656.434 403.751L655.938 400.656L660.011 395.852L656.39 386.799L658.712 379.425L647.25 366.517L645.833 360.326L647.702 358.106L658.215 356.31L661.004 349.345L650.71 348.528L632.195 312.754L620.193 299.101L620.733 293.815L616.484 285.755L608.672 283.214L604.686 278.323L606.292 269.664L604.043 255.588L599.502 255.515L608.628 255.164L609.373 260.917L620.47 260.815L629.698 254.288L641.438 253.763L647.147 256.157L655.251 254.566L662.611 260.085L673.182 254.405L680.337 253.5Z" fill="#009649" stroke="white" stroke-width="2"></path>
<path class="region" data-country-region="North Region" d="M242.169 199.138L252.39 197.21L261.881 192.231L271.168 194.655L280.075 193.75L288.661 191.092L293.582 185.836L295.246 188.975L299.364 189.88L304.329 194.684L329.852 197.955L331.473 187.573L336.087 192.64L339.621 186.201L352.003 178.418L358.691 178.768L369.321 183.879L376.695 181.426L382.068 176.184L385.704 168.138L387.909 168.883L392.421 180.156L403.781 186.858L403.43 191.91L399.313 198.028L399.152 203.635L394.158 204.511L377.352 200.277L377.761 213.345L372.197 219.493L373.628 233.686L367.101 235.993L362.823 245.221L365.32 259.428L372.533 262.918L379.133 271.767L383.265 279.915L382.506 285.887L368.342 292.122L359.289 289.406L345.885 291.625L342.016 290.501L338.643 284.12L332.481 279.272L313.834 277.067L308.432 283.726L294.881 283.974L280.44 279.812L262.378 278.571L268.277 268.584L264.466 265.722L263.911 258.8L259.341 255.573L263.911 250.959L253.923 245.615L252.668 236.445L245.527 232.882L244.681 227.713L235.788 227.261L235.642 217.536L243.571 217.551L242.169 199.138Z" fill="#009649" stroke="white" stroke-width="2"></path>
</svg>