<svg width="610" height="578" viewBox="0 0 610 578" fill="none" xmlns="http://www.w3.org/2000/svg">
<path class="region" data-country-region="East Region" d="M550.268 261.729L549.78 262.034H548.682L546.791 260.875L545.632 260.631L544.84 260.997L543.925 261.607L542.949 261.912L541.912 261.302L542.4 259.777L542.705 259.289L540.997 257.216L539.899 256.545L538.618 257.216L538.009 254.959L536.667 253.618L534.837 253.008L530.141 253.679L520.687 251.727L517.455 251.91L515.991 251.544L515.259 250.385L514.222 250.812L513.002 249.898L511.966 248.434L511.539 247.336L511.905 244.043L511.722 243.555L510.868 243.433L510.38 242.945L510.075 242.152L509.892 240.872L509.953 239.957L510.38 238.371L510.258 237.395L509.831 236.786L508.489 235.627L507.208 233.858L503.854 230.26L504.037 228.065L503.793 224.344L503.061 220.807L502.695 215.562L501.78 210.867L498.243 211.842L494.827 213.55L492.937 212.208L491.412 210.074L492.327 204.524L489.399 202.268L486.411 205.561L481.775 206.293L477.445 204.036L475.859 201.048L475.005 197.389L474.091 194.888L472.627 193.303L470.309 192.022L468.784 189.278L468.479 186.716L469.516 184.887L466.711 182.691L463.356 182.203L460.124 180.496L457.928 176.166L454.513 167.628L452.988 155.918L452.012 151.893L450.609 148.6L449.816 145.063L454.269 143.111L462.929 143.66L466.772 142.318L468.54 140.855L470.431 140.062L475.005 139.391L485.496 132.134L491.351 125.486L508.306 114.936L511.783 111.216L513.917 105.239L516.357 100.482L516.601 95.6642L510.136 86.6383L507.086 83.589L506.416 80.7227L506.111 77.6124L499.951 69.3793L505.684 61.2682L519.224 59.3776L523.249 56.6332L526.725 52.9741L528.25 47.9122L528.067 47.1194L529.714 46.2656L530.995 46.4486L534.593 48.3391L535.264 48.4001L536.667 48.0952L537.277 48.2782L537.948 48.949L538.558 50.5346L538.923 51.2055L539.594 51.6934L541.668 51.9373L542.095 52.4862L541.485 54.6817V55.7794L542.583 57.3041H543.986L545.449 56.6942L546.669 56.4503L547.767 56.9382L551.548 60.1094L553.866 61.5731L558.745 63.4027L561.063 65.4152L561.673 66.33L562.771 68.4645L563.32 69.2573L563.991 69.6842L565.271 70.0501L565.82 70.3551L566.857 71.8797L567.65 73.9532L568.321 76.2707L568.809 78.4662L569.724 83.2841V85.6625L568.809 87.2482L568.077 87.858L567.467 88.7118L567.406 89.8096L567.65 90.7243L568.138 91.5172L568.809 92.066L569.358 93.0418L569.053 94.2005L569.114 97.1889L569.785 99.7503L570.577 102.129L571.187 104.69L571.736 110.179L572.407 112.313L573.871 114.448L573.993 120.79L575.457 127.926L580.58 143.843L583.446 149.82L584.666 153.052L587.106 162.627L588.204 165.554L589.302 167.018L589.911 168.42L590.338 169.945L591.07 171.47L592.168 172.689L593.205 173.482L593.815 174.702L593.693 177.202L593.144 178.666L592.412 179.886L591.863 181.227L591.741 183.24L592.29 184.948L594.12 187.326L594.791 188.79L594.913 189.583L594.791 191.473L595.279 194.278L595.157 195.681L594.486 197.023L594.303 197.816L594.364 198.913L594.791 200.011L594.974 200.804L595.584 215.989L594.791 220.319L592.351 223.308L584.3 228.796L574.115 231.724L568.748 234.895L563.381 239.347L556.001 250.751L553.561 253.74L552.463 255.508L549.597 261.302L550.268 261.729Z" fill="#009649" stroke="white" stroke-width="2" stroke-linejoin="round"></path>
<path class="region" data-country-region="East Region" d="M528.067 47.1195L528.249 47.9124L526.725 52.9742L523.248 56.6334L519.223 59.3777L505.683 61.2683L499.95 69.3794L506.11 77.6125L506.415 80.7228L507.086 83.5891L510.135 86.6384L516.6 95.6643L516.356 100.482L513.917 105.239L511.782 111.216L508.306 114.936L491.35 125.486L485.495 132.134L475.005 139.391L470.431 140.062L468.54 140.855L466.771 142.319L462.929 143.66L454.268 143.111L449.816 145.063L442.497 145.673L440.972 146.466L439.264 149.881L436.764 151.649L434.019 152.076L428.591 151.588L424.017 157.077L418.528 158.846H412.734L408.281 161.407L404.439 162.2L400.048 162.139L397.852 163.908L395.839 166.347L387.362 171.287L385.105 171.897L382.787 171.653L380.897 173.177L379.921 176.593L378.335 178.422L376.505 179.337L371.931 180.191L352.719 177.202L352.17 176.593L351.804 175.678L350.828 175.007L349.791 174.824L347.413 175.556L345.827 178.666L344.058 180.13L341.985 180.679L341.07 171.409L337.959 163.481L334.544 161.102L327.591 159.273L321.126 155.309L316.491 153.784L315.332 153.723L313.868 153.113L312.953 151.771L311.123 148.234L309.599 143.904L304.354 133.598L313.319 116.826L315.454 114.509L318.015 112.862L322.895 113.228L326.31 111.704L326.432 110.057L327.164 108.898L328.14 105.971L329.238 104.812L329.97 103.471V101.763L330.213 100.055L327.164 99.2625L321.187 99.7504L318.991 98.6526L320.211 94.6276L318.625 92.4321L315.515 92.0662L312.587 90.2976L310.514 86.9433L309.416 82.4914L309.233 80.4788L310.209 79.0152L312.892 76.3318L313.807 74.6242L314.539 72.7336L313.868 70.1112L312.648 67.9157L311.306 63.9517L311.733 60.4145L313.197 58.7069L318.564 59.3777L320.028 59.1948L319.784 60.1705L319.235 60.9634L318.991 61.4512L318.747 62.7319V64.2566L319.601 63.2808L320.638 60.5974L320.882 60.2925L321.37 59.6827L322.895 57.1822L324.48 55.6576L325.7 55.0477L326.066 54.9257L330.762 51.9374L331.799 51.5105L334.178 51.2056L338.081 48.2783L338.935 47.9734L339.789 47.8514L340.155 47.4855L340.399 46.9976L340.887 45.6559L341.497 45.046L341.985 44.6801L341.924 44.1312L341.68 42.8505L342.595 42.7896L378.701 44.6801L413.77 46.5707L435.483 47.7294L461.831 49.1321L495.62 50.9617L521.236 52.3034L525.383 50.9007L526.542 49.9859L528.067 47.1195Z" fill="#009649" stroke="white" stroke-width="2" stroke-linejoin="round"></path>
<path class="region" data-country-region="East Region" d="M579.542 452.126L578.688 453.468L573.87 458.713L572.101 460.115L566.063 464.811L552.157 479.936L550.327 482.741L548.132 484.51L545.692 487.193L539.105 496.89L536.605 499.512L536.239 500.244L535.751 502.196L535.507 502.866L534.958 503.354L533.86 503.781L533.372 504.147L532.762 504.879L529.042 511.648L528.005 512.685L527.334 512.99L526.053 513.234L525.321 513.844L524.894 514.637L523.858 517.625L519.222 523.846L517.759 527.444L518.917 530.798L519.283 532.201L519.71 536.165L520.076 537.75L520.869 538.97L522.211 540.373L522.516 541.105L522.821 542.568L523.614 551.106L523.37 552.509L522.394 555.314L521.479 558.608L520.564 560.62L520.198 561.779L520.869 562.084L521.662 561.047L522.333 561.84L524.284 563.181L526.053 565.56L527.212 566.414L529.896 567.938L530.627 568.853V569.646L530.079 571.476L530.018 572.695L530.262 573.61L531.481 575.806L530.749 577.269L529.53 576.72L528.188 575.501L526.419 574.708L525.321 573.183L524.711 572.573L524.041 572.512L522.638 572.939L520.442 572.756L519.161 572.878L517.88 572.695L516.356 571.719L514.099 569.158L512.879 568.792L511.598 570.012L509.464 568.975L504.707 568.792L502.511 568.06L499.4 565.011L498.12 564.462L494.765 564.584L491.899 563.73L491.472 563.364L491.35 562.755L491.472 561.474L490.801 560.742L490.313 560.681L488.849 560.864L487.568 560.498L485.556 559.217L481.286 558.364L479.578 557.144L479.152 554.156L478.359 550.862L476.651 548.057L474.455 545.983L471.162 544.337L468.966 542.263L467.868 541.653L466.588 541.836L465.551 542.812L464.697 543.849L464.087 544.276L463.111 543.544L461.098 540.373L460.062 539.336L459.452 539.153L458.537 539.336L457.439 538.848L456.341 537.75L455.731 537.323L454.572 537.019L450.242 537.506L449.327 537.872L447.01 531.408L445.912 524.577L446.278 521.284L446.034 517.991L443.96 511.465L440.301 507.501L433.775 504.696L431.945 503.049L432.982 500.671L439.02 496.036L438.227 493.292L435.97 492.072L434.202 491.95L432.921 490.425L432.433 489.084L431.884 488.047L431.945 484.388L432.433 480.18L430.786 465.909L431.213 460.542L433.47 456.639L435.299 452.126L435.97 444.137L436.214 444.015L439.935 440.783L441.094 441.271L442.618 440.966L444.143 440.051L445.302 438.831L444.509 436.88L450.303 434.257L454.206 433.282L455.304 432.306L457.195 430.049L457.927 428.586L458.232 426.695L458.659 425.231L461.586 421.816L463.294 418.889L464.331 418.096L465.917 417.852L467.014 417.303L467.929 415.84L468.661 414.132L469.088 412.607L469.576 408.826L469.515 405.289L469.332 404.008L477.383 409.436L481.896 409.68L485.921 406.875L488.3 406.753L490.679 407.667L492.813 409.009L494.765 410.717L493.911 413.156L491.106 418.34L492.264 420.353L506.414 423.951L515.99 429.073L516.539 429.988L516.478 431.269L516.661 432.611L518.063 435.294L518.795 437.612L517.088 438.587L515.197 438.343L513.306 438.953L511.781 440.966L510.806 442.978L511.233 445.357L512.818 447.796L514.953 448.772L523.431 447.064L525.016 448.223L524.101 448.772L522.028 449.26L522.638 450.663L530.932 453.041L544.594 453.468L549.169 452.492L553.133 449.321L558.134 443.649L559.72 442.917L563.196 442.612L567.649 443.1L571.491 445.54L573.443 448.528L579.542 452.126Z" fill="#009649" stroke="white" stroke-width="2" stroke-linejoin="round"></path>
<path class="region" data-country-region="East Region" d="M550.266 261.729L550.693 262.095L551.364 263.07L551.547 264.351L551.059 266.12L552.461 267.034L556.792 268.193L557.768 267.827L558.561 268.62L562.342 270.084L563.623 270.206V270.816L563.135 271.73L564.172 271.547L564.965 271.913L565.513 272.462L566.062 272.584L566.916 271.547L567.16 271.974L568.136 272.95L569.173 271.974L569.417 272.706L569.234 273.926L568.99 274.231L570.698 277.646L571.856 278.012L574.723 277.951L575.882 278.622L576.98 280.817L578.26 281.61L578.504 282.708L578.565 283.866L579.114 285.086L579.968 288.806L580.639 290.514L579.663 291.246L578.87 292.466L577.773 295.21L577.346 297.039L577.285 300.211L576.919 301.369L577.346 302.04L576.614 302.406L576.37 304.541L575.699 305.395L576.614 307.163L577.773 308.688L577.041 310.944L575.882 312.103L574.601 312.896L573.564 314.116L573.076 315.884L572.771 318.141L573.381 319.299L573.503 319.909L572.71 320.458L572.893 321.129L573.564 322.227L572.832 323.202L571.917 323.446V324.178L572.588 324.971L572.649 325.886L572.344 328.569L572.588 329.972L573.076 331.314L574.418 333.631H573.564L574.357 335.156L575.333 335.522L576.126 336.009L576.492 337.9L576.919 339.303L577.834 339.974L578.931 340.339L579.785 340.949L578.87 342.901L578.931 343.511L581.432 347.17L581.92 348.329L581.249 348.695L580.822 349.365L580.7 350.341L581.066 351.683L579.968 352.11L578.931 353.268L578.077 354.671L577.773 356.013L578.138 358.025L579.114 358.574H580.273L581.31 359.245L584.664 366.624L586.067 368.332L589.117 370.283L592.044 373.211L592.715 374.431L591.678 374.918L591.434 375.833L592.349 377.724L593.935 380.224L594.484 381.505L595.216 385.53L594.911 386.933L595.399 387.299L596.924 388.152L597.594 389.189L597.777 390.836L598.143 392.116L599.058 393.58L603.145 397.422L608.207 400.228L609 401.447L608.268 403.094L606.377 403.46L604.364 403.521L603.145 404.07L601.559 403.155L599.851 403.338L598.448 404.436L597.716 406.082L597.838 407.912L598.753 409.132L600.156 409.802L601.864 410.046V410.595L601.071 412.303L601.925 413.766L603.571 414.803L605.218 415.23L604.852 417.365L605.34 419.438L606.865 423.158L605.462 425.598L606.072 430.172L606.743 431.94L606.011 433.038L604.852 434.258L600.949 436.27L600.766 437.429L600.888 439.259L600.766 440.539L600.522 441.576L599.18 444.686L595.948 446.028L584.969 446.15L582.896 446.821L581.798 447.37L581.005 448.162L580.334 449.565L579.541 452.127L573.442 448.528L571.491 445.54L567.648 443.101L563.196 442.613L559.719 442.918L558.134 443.65L553.132 449.321L549.168 452.493L544.594 453.468L530.932 453.041L522.637 450.663L522.027 449.26L524.101 448.772L525.016 448.224L523.43 447.065L514.952 448.772L512.818 447.797L511.232 445.357L510.805 442.979L511.781 440.966L513.306 438.954L515.196 438.344L517.087 438.588L518.795 437.612L518.063 435.294L516.66 432.611L516.477 431.269L516.538 429.989L515.989 429.074L506.414 423.951L492.264 420.353L491.105 418.34L493.911 413.157L494.765 410.717L492.813 409.01L490.678 407.668L488.3 406.753L485.921 406.875L481.896 409.68L477.382 409.436L469.332 404.009L469.027 401.935L467.502 396.02L467.258 394.8L466.648 394.373L466.587 393.214L467.014 392.421L467.441 388.274L467.258 386.384L466.16 385.53V384.859L467.075 384.554L467.807 383.578L467.563 382.237L466.099 378.517L465.611 375.406L465.062 373.699L464.94 372.906L465.001 371.808L465.733 369.552L466.831 363.514L467.624 361.989L468.173 361.502L468.844 361.38L468.722 359.367L469.454 356.379L469.819 353.634L467.38 350.707L467.502 348.329L468.966 347.17L470.429 345.096L470.49 341.132L468.6 340.949V340.278L469.514 339.181L469.332 337.961L468.234 336.253L468.112 334.912L468.173 333.753L467.929 332.899L467.014 332.289L466.404 332.228L464.94 332.899L463.842 332.96L460.732 332.35L459.024 331.557L458.17 330.46L457.377 329.179L457.316 328.142L457.926 325.642L460.122 325.093L462.318 325.947L466.709 326.679L471.039 325.154L472.564 323.69L472.93 321.434L469.88 316.738L472.198 313.445L475.553 311.371L473.418 308.139L471.954 304.48L471.71 301.857L470.49 299.296L469.514 296.552L469.149 294.051L473.479 290.819L478.114 289.477L486.897 289.538L495.191 287.892L498.302 288.44L500.437 287.77L506.231 283.44L508.548 283.135L515.257 283.806L518.612 281L518.917 279.536L519.283 278.317L520.32 277.219L521.417 276.487L523.857 277.036L530.993 280.756L533.371 279.841L535.384 277.28L537.092 273.194L542.886 264.656L544.838 260.997L545.631 260.631L546.789 260.875L548.68 262.034H549.778L550.266 261.729Z" fill="#009649" stroke="white" stroke-width="2" stroke-linejoin="round"></path>
<path class="region" data-country-region="West Region" d="M244.888 374.431L246.291 376.87L248.06 378.334L261.661 381.81L265.93 381.688L266.723 381.017L267.272 379.981L268.004 379.615L269.65 381.566L271.053 384.372L275.627 388.031L273.554 395.471L272.761 396.386L272.334 397.849L272.7 400.045L273.493 401.814L273.066 405.229L268.309 408.339L266.723 411.754L265.625 417.731L264.161 421.695L265.32 425.293L266.967 427.489L268.918 429.013L270.87 431.087L271.541 434.563L262.758 434.502L260.929 434.929L260.136 437.063L260.807 438.71L260.685 440.479L259.343 441.088L258.062 441.332L257.513 443.284L258.55 455.542L258.489 460.36L257.818 463.165L251.963 465.91L248.304 468.654L240.68 470.301L237.02 477.375L236.959 478.961L235.923 478.717L236.228 480.851L236.532 480.973L237.508 480.851L237.935 481.522L238.057 482.437L237.752 482.864L235.801 483.474L233.361 483.535L232.263 483.84L230.433 485.425L228.238 486.096L226.042 485.608L222.078 481.705L221.407 480.729L220.919 479.632L220.187 477.375L218.967 476.033L218.723 475.484L219.516 474.143L218.662 473.96L217.016 473.167L216.223 472.923L214.454 473.472L213.478 473.045L210.551 469.325L210.429 468.593L210.856 467.678L211.526 467.312L214.454 467.19L216.101 466.581L218.662 464.995L219.882 463.958L220.431 462.495L219.516 460.787L218.845 460.116L218.723 459.14L218.845 458.287L219.638 456.213V455.664L218.418 453.956L218.052 453.652L217.016 453.225L216.65 453.469L216.162 454.932L214.332 457.433L213.295 458.287L211.892 458.652L206.464 457.677L203.537 457.921L201.768 460.116L201.158 460.421L200.487 460.116L199.938 458.347L198.596 457.25L197.255 457.372L196.584 459.14L195.791 458.53L195.364 457.555L195.242 456.335L195.364 455.054L194.449 453.896L195.547 453.408L194.266 452.92L191.461 452.981L189.997 452.554L187.862 451.212L187.252 450.541L186.886 449.748L186.337 447.492L185.727 447.004L183.898 447.37H183.044L182.251 446.943L180.848 445.723L180.177 445.357L173.956 443.589L172.554 443.772L171.639 443.223L171.883 442.064L176.274 431.148L179.445 428.708L183.166 428.098L185.301 424.317L186.703 418.951L191.095 410.596L196.157 403.094L198.352 398.032L201.219 394.251L203.171 392.971L204.147 390.043L204.513 387.543L205.122 385.164L208.66 377.053L210.246 375.346L212.258 374.675L214.332 374.797L216.467 374.309L218.479 373.028L220.553 372.906L222.566 373.943L223.359 376.077L223.725 378.395L226.896 381.017L230.799 381.2L237.996 378.578L244.888 374.431Z" fill="#009649" stroke="white" stroke-width="2" stroke-linejoin="round"></path>
<path class="region" data-country-region="East Region" d="M435.97 444.138L435.299 452.127L433.47 456.64L431.213 460.543L430.786 465.91L432.433 480.181L431.945 484.389L431.884 488.048L432.433 489.084L432.921 490.426L434.201 491.951L435.97 492.073L438.227 493.292L439.02 496.037L432.982 500.672L431.945 503.05L433.775 504.697L440.301 507.502L443.96 511.466L446.034 517.992L446.278 521.285L445.912 524.578L447.009 531.409L449.327 537.873L448.168 538.361L447.314 538.117L445.058 538.605H444.021L438.105 536.897L434.689 535.068L433.897 534.885L432.799 535.678L430.908 538.483L429.81 539.459L428.529 539.642L427.614 539.032L426.761 538.056L425.663 537.324L424.687 537.202L422.247 537.69L421.271 538.178L420.052 539.52L420.784 540.374L422.186 541.227L422.979 542.63L422.43 543.484L421.332 543.728H420.052L419.076 543.972L417.856 545.192L415.843 548.058L414.563 549.217L413.099 549.765L412.001 549.522L411.025 548.79L410.049 547.753L408.89 546.899L407.915 546.777L406.878 546.838L405.536 546.655L404.56 545.923L399.193 539.459L398.217 539.276L395.96 539.642L394.07 539.52L393.46 539.886L392.484 541.044L391.813 541.715L390.349 542.203L389.008 541.898L383.884 539.276L382.908 539.52L382.97 541.105L379.798 541.227L377.297 540.252L376.566 540.313L375.956 540.74L375.773 541.349L375.285 543.545L374.858 544.826L374.553 545.252L369.857 545.679L368.942 546.167L367.661 547.753L367.051 548.302L365.709 548.18L365.221 548.485L364.062 551.107L363.27 553.242L362.538 554.156L362.172 557.389L361.562 559.706L360.342 560.621L358.329 559.645L355.219 556.718L353.511 555.803L351.559 556.047L350.462 556.84L348.449 558.974L347.107 559.462L344.302 559.279L342.777 558.669L341.984 557.633L342.228 556.352L344.546 552.632L345.521 552.083L345.582 551.168L344.972 550.375L344.119 549.765L343.936 549.034L344.485 547.997L344.18 543.484L343.814 541.898L343.265 540.13L342.716 539.703L340.703 540.557L339.483 540.679L338.142 540.557L334.665 539.337L334.787 538.178L334.726 536.775L335.092 535.678L332.652 535.617L331.433 535.312L330.396 534.458L330.03 533.787L329.054 530.86L327.956 526.103L327.224 524.212L325.821 523.298L325.334 522.81L324.358 520.98L323.809 520.736L323.504 519.699L322.04 518.724L321.308 517.016L321.796 515.064L322.833 512.93L323.077 510.491L318.93 509.759L316.673 508.722L314.721 506.892L313.806 503.965L312.526 501.709L309.476 500.489L307.646 497.257L307.524 494.085L306.183 492.439L304.597 492.256L303.377 490.67L304.048 487.499L305.39 484.754L306.731 482.742L321.125 466.52L318.32 462.617L315.087 459.384L316.978 457.921L321.064 458.47L323.687 454.688L325.395 451.273L327.041 448.834L330.396 450.785H331.92L333.506 450.419L338.873 446.272L342.228 445.723L345.582 446.028L347.534 445.723L355.219 440.845L355.036 439.137L354.67 437.063L360.403 437.124L362.782 438.405L364.794 440.54L369.918 442.125L374.614 445.297L377.358 450.785L378.395 455.176L379.432 457.372L382.177 461.275L383.335 463.714L387.788 466.398L395.777 466.581L397.607 464.69L397.851 463.653L398.583 462.495L400.535 461.519L401.389 460.726L401.633 459.201L402.12 458.531L402.852 458.409L404.133 457.128L404.499 455.481L404.926 454.871L407.244 457.128L408.22 456.64L409.073 455.786L409.866 455.237L410.842 455.847L411.635 455.298L413.282 455.176L413.892 454.81L414.989 453.591L415.599 453.347L420.113 453.225L421.028 452.981L422.857 451.273L425.358 450.054L425.968 449.932L426.822 450.236L427.98 451.517L429.078 451.09L430.115 449.627L431.091 449.078L431.152 448.285L431.518 447.797L432.189 447.431L432.921 446.76L433.226 445.419L433.836 445.906H434.201L434.933 445.419L434.872 444.26L435.97 444.138Z" fill="#009649" stroke="white" stroke-width="2" stroke-linejoin="round"></path>
<path class="region" data-country-region="East Region" d="M467.564 382.237L467.808 383.579L467.077 384.554L466.162 384.859V385.53L467.259 386.384L467.442 388.275L467.016 392.422L466.589 393.214L466.65 394.373L467.259 394.8L467.503 396.02L469.028 401.935L469.333 404.009L469.516 405.29L469.577 408.827L469.089 412.608L468.662 414.133L467.93 415.84L467.016 417.304L465.918 417.853L464.332 418.097L463.295 418.889L461.587 421.817L458.66 425.232L458.233 426.696L457.928 428.586L457.196 430.05L455.305 432.306L454.208 433.282L450.304 434.258L444.51 436.88L445.303 438.832L444.144 440.052L442.619 440.966L441.095 441.271L439.936 440.783L436.215 444.016L435.971 444.138L434.874 444.26L434.935 445.418L434.203 445.906H433.837L433.227 445.418L432.922 446.76L432.19 447.431L431.519 447.797L431.153 448.285L431.092 449.078L430.116 449.626L429.079 451.09L427.982 451.517L426.823 450.236L425.969 449.931L425.359 450.053L422.858 451.273L421.029 452.981L420.114 453.225L415.601 453.347L414.991 453.59L413.893 454.81L413.283 455.176L411.636 455.298L410.843 455.847L409.867 455.237L409.075 455.786L408.221 456.64L407.245 457.128L404.927 454.871L404.5 455.481L404.134 457.128L402.854 458.408L402.122 458.53L401.634 459.201L401.39 460.726L400.536 461.519L398.584 462.494L397.852 463.653L397.608 464.69L395.779 466.58L387.789 466.398L383.337 463.714L382.178 461.275L379.433 457.372L378.396 455.176L377.36 450.785L374.615 445.296L369.919 442.125L364.796 440.539L362.783 438.405L360.404 437.124L354.671 437.063L352.963 436.392L348.816 435.783L346.681 434.685L347.901 432.062L352.11 428.525L354.549 428.159L351.622 424.622L349.975 420.841L347.84 419.194L343.266 417.914L341.619 415.901L343.876 411.571L348.023 410.9L348.328 410.108V408.949L348.084 407.851L347.352 407.424L342.168 406.448L343.571 404.07L345.34 402.423L347.413 401.021L348.45 398.093L348.206 395.105L348.267 391.995L349.06 388.884L351.195 388.519L359.184 394.373L360.587 392.727L361.075 389.616L360.465 386.384L358.575 384.859L355.83 380.651L357.355 374.797L358.818 372.845L360.709 372.113L367.418 373.089L369.37 372.54L373.578 368.515L375.53 367.539L377.543 367.234L379.555 366.32L381.812 360.77L383.52 359.489L386.874 360.709L388.704 365.283L398.706 371.442L400.109 373.028L401.39 375.102L402.976 376.26L410.294 377.785L418.772 376.443L420.785 375.285L422.553 372.845L424.444 371.016L426.274 371.625L426.823 374.919L428.653 376.931L428.897 378.578L429.262 380.041L433.41 382.725L438.106 383.152L448.169 386.323L467.564 382.237Z" fill="#009649" stroke="white" stroke-width="2" stroke-linejoin="round"></path>
<path class="region" data-country-region="East Region" d="M544.84 260.997L542.888 264.656L537.094 273.194L535.386 277.28L533.374 279.841L530.995 280.756L523.859 277.036L521.42 276.487L520.322 277.219L519.285 278.317L518.919 279.536L518.614 281L515.26 283.805L508.551 283.135L506.233 283.44L500.439 287.77L498.304 288.44L495.194 287.891L486.899 289.538L478.116 289.477L473.481 290.819L469.151 294.051L469.517 296.552L470.493 299.296L471.712 301.857L471.956 304.48L473.42 308.139L475.555 311.371L472.2 313.445L469.883 316.738L472.932 321.434L472.566 323.69L471.042 325.154L466.711 326.679L462.32 325.947L460.124 325.093L457.929 325.642L457.319 328.142L457.38 329.179L458.173 330.46L459.026 331.557L460.734 332.35L463.845 332.96L464.942 332.899L466.406 332.228L467.016 332.289L467.931 332.899L468.175 333.753L468.114 334.912L468.236 336.253L469.334 337.961L469.517 339.181L468.602 340.278V340.949L470.493 341.132L470.432 345.096L468.968 347.17L467.504 348.329L467.382 350.707L469.822 353.634L469.456 356.379L468.724 359.367L468.846 361.38L468.175 361.501L467.626 361.989L466.833 363.514L465.735 369.552L465.003 371.808L464.942 372.906L465.064 373.699L465.613 375.406L466.101 378.517L467.565 382.237L448.17 386.323L438.107 383.151L433.41 382.725L429.263 380.041L428.897 378.578L428.653 376.931L426.823 374.918L426.275 371.625L424.445 371.015L422.554 372.845L420.785 375.284L418.773 376.443L410.295 377.785L402.976 376.26L401.39 375.101L400.11 373.028L398.707 371.442L388.704 365.283L386.875 360.709L383.52 359.489L383.337 356.623L384.13 354L388.034 350.341L389.009 347.658V344.486L388.216 343.633L386.021 342.535L385.533 340.949L385.289 337.839L384.74 334.851L382.91 330.521L384.496 324.971H389.253L392.852 326.983L397.304 327.593L398.036 325.947L398.219 323.629L397.304 321.129L394.011 317.714L393.462 314.908L393.767 313.689L394.377 312.774L394.925 311.615L394.56 310.029L390.961 305.211L386.57 301.796L382.544 299.967L376.079 300.699L373.884 299.967L373.335 298.381L373.518 296.552L372.054 294.356L370.407 292.465L369.919 290.392L371.932 289.172L372.603 284.232L371.749 283.196L369.37 281.61L365.223 279.902L364.247 280.146L363.393 279.658L362.174 276.914L361.93 273.438L361.198 270.876L359.49 269.718L357.355 269.108L355.465 268.071L354.001 265.571L352.354 263.436L350.097 263.619L348.146 265.632L335.521 268.254L329.91 263.68L326.799 262.216L320.395 260.875L314.54 256.85L314.906 255.142L315.15 253.434L319.663 245.994L319.419 244.165L318.138 242.884L318.504 239.042L320.09 235.749L324.177 223.856L326.799 223.124L326.738 219.831L324.969 215.562L323.994 213.672L323.323 211.598L323.811 209.525L325.03 208.183L325.335 204.463L324.42 200.377L327.348 200.743L329.91 198.608L331.007 196.901L332.349 195.62L333.508 196.108L334.606 196.901L335.765 197.083L336.375 195.376L336.68 193.363L336.863 191.412L336.375 188.423L336.314 186.411L335.948 184.52L339.058 183.057L341.986 180.678L344.059 180.129L345.828 178.666L347.414 175.555L349.793 174.824L350.829 175.007L351.805 175.677L352.171 176.592L352.72 177.202L371.932 180.19L376.506 179.337L378.336 178.422L379.922 176.592L380.898 173.177L382.788 171.652L385.106 171.896L387.363 171.286L395.84 166.347L397.853 163.907L400.049 162.139L404.44 162.2L408.282 161.407L412.735 158.845H418.529L424.018 157.077L428.592 151.588L434.02 152.076L436.765 151.649L439.265 149.88L440.973 146.465L442.498 145.672L449.817 145.062L450.61 148.6L452.012 151.893L452.988 155.918L454.513 167.627L457.929 176.165L460.124 180.495L463.357 182.203L466.711 182.691L469.517 184.886L468.48 186.716L468.785 189.277L470.31 192.022L472.627 193.302L474.091 194.888L475.006 197.388L475.86 201.048L477.446 204.036L481.776 206.292L486.411 205.561L489.4 202.267L492.327 204.524L491.412 210.073L492.937 212.208L494.828 213.55L498.243 211.842L501.781 210.866L502.696 215.562L503.061 220.807L503.793 224.344L504.037 228.064L503.854 230.26L507.209 233.858L508.49 235.627L509.831 236.785L510.258 237.395L510.38 238.371L509.953 239.957L509.892 240.871L510.075 242.152L510.38 242.945L510.868 243.433L511.722 243.555L511.905 244.043L511.539 247.336L511.966 248.434L513.003 249.897L514.223 250.812L515.26 250.385L515.991 251.544L517.455 251.91L520.688 251.727L530.141 253.678L534.838 253.008L536.667 253.617L538.009 254.959L538.619 257.216L539.9 256.545L540.998 257.216L542.705 259.289L542.4 259.777L541.912 261.302L542.949 261.911L543.925 261.607L544.84 260.997Z" fill="#009649" stroke="white" stroke-width="2" stroke-linejoin="round"></path>
<path class="region" data-country-region="West Region" d="M304.354 133.597L309.599 143.904L311.124 148.234L312.954 151.771L313.868 153.113L315.332 153.723L316.491 153.784L321.126 155.308L327.591 159.272L334.544 161.102L337.96 163.48L341.07 171.409L341.985 180.678L339.058 183.057L335.947 184.521L336.313 186.411L336.374 188.424L336.862 191.412L336.679 193.363L336.374 195.376L335.764 197.084L334.605 196.901L333.507 196.108L332.349 195.62L331.007 196.901L329.909 198.608L327.347 200.743L324.42 200.377L325.335 204.463L325.03 208.183L323.81 209.525L323.322 211.598L323.993 213.672L324.969 215.562L326.738 219.831L326.798 223.125L324.176 223.856L320.09 235.749L318.504 239.042L318.138 242.884L319.419 244.165L319.663 245.994L315.149 253.435L314.905 255.142L314.539 256.85L313.32 256.789L312.161 256.972L311.429 258.13L310.88 259.228L308.562 259.96L301.061 260.082L300.024 260.692L299.597 261.607L298.987 262.339L293.193 257.948L291.058 258.252L284.715 260.936L282.519 261.119L280.873 257.338L270.809 249.105L268.98 246.909L266.845 245.933L265.686 246.055L264.588 246.543L263.978 247.641L263.063 248.19L261.6 247.702L260.441 245.994L259.709 244.409L259.221 242.579L258.367 241.969L257.208 241.664L253.671 245.811L251.597 246.726L245.437 245.14L243.486 243.25L241.717 241.054L239.643 240.201L237.386 240.079L235.252 238.92L229.031 233.248L224.457 230.748L220.248 230.504L216.345 229.162L215.674 228.796L215.186 228.186L214.942 226.54L214.393 225.198L212.502 223.551L211.405 224.527L208.965 225.381L206.525 224.893L205.306 222.942L204.391 220.563L202.195 218.49L202.561 215.867L203.598 215.135L204.696 215.196L205.671 214.831L206.403 213.428L207.684 206.353L204.696 199.767L200.121 196.291L195.181 194.522L197.926 188.18L198.78 181.898L196.889 178.3L196.34 173.97L201.89 169.274L198.963 162.688L193.839 158.662L193.107 155.613L197.499 149.82L199.145 146.038L200.853 145.002L202.683 138.598L204.208 135.366L205.854 132.987L208.111 132.743L216.528 135L220.309 133.475L220.37 131.28L220.614 129.816L220.919 128.474L222.871 126.645L227.079 125.12L229.519 120.546L231.165 119.266L238.911 120.79L249.219 119.205L251.353 119.449L253.122 121.705L255.135 123.596L266.052 125.425L271.236 128.535L273.493 127.072L276.969 125.791L281.91 126.462L283.129 127.194L283.922 128.17L284.959 128.779L288.923 132.926L290.814 134.146L294.108 135.488L301.061 135.061L304.354 133.597Z" fill="#009649" stroke="white" stroke-width="2" stroke-linejoin="round"></path>
<path class="region" data-country-region="West Region" d="M171.883 130.304L174.81 133.902L177.311 138.354L180.848 140.55L193.229 141.038L196.462 142.806L199.145 146.038L197.499 149.82L193.107 155.613L193.839 158.663L198.962 162.688L201.89 169.274L196.34 173.97L196.889 178.3L198.779 181.898L197.926 188.18L195.181 194.522L200.121 196.291L204.696 199.767L207.684 206.354L206.403 213.428L205.671 214.831L204.696 215.196L203.598 215.136L202.561 215.867L202.195 218.49L204.391 220.563L205.305 222.942L206.525 224.893L208.965 225.381L211.404 224.527L212.502 223.552L214.393 225.198L214.942 226.54L215.186 228.186L215.674 228.796L216.345 229.162L220.248 230.504L224.456 230.748L229.031 233.248L235.252 238.92L237.386 240.079L239.643 240.201L241.717 241.055L243.485 243.25L245.437 245.141L251.597 246.726L253.671 245.811L257.208 241.664L258.367 241.969L259.221 242.579L259.709 244.409L260.441 245.994L261.6 247.702L263.063 248.19L263.978 247.641L264.588 246.543L265.686 246.055L266.845 245.933L268.979 246.909L270.809 249.105L280.873 257.338L282.519 261.119L284.715 260.936L291.058 258.253L293.193 257.948L298.987 262.339L299.109 265.571L300.268 268.071L301.182 268.315L301.304 269.291L297.584 272.889L291.485 275.512L290.875 278.256L290.326 284.476L287.216 288.075L283.19 289.05L281.056 288.806L279.165 288.989L278.311 292.039L277.884 295.393L278.555 298.869L279.714 302.04L279.47 305.151L276.542 310.274L275.871 311.066L267.028 310.091L263.551 311.737L262.027 313.872L259.16 320.641L257.635 326.618L257.33 333.082L257.94 338.449L258.001 343.633L256.293 348.268L253.427 350.341L250.133 348.695L247.084 349.67L246.047 352.72L244.522 355.098L240.131 356.135L239.155 358.269L239.277 361.441L240.436 364.124L243.912 367.234L244.522 369.857L244.888 374.431L237.996 378.578L230.799 381.2L226.896 381.017L223.725 378.395L223.359 376.077L222.566 373.943L220.553 372.906L218.479 373.028L217.686 368.21L216.955 358.269L218.662 354.183L216.528 352.415L214.21 351.744L210.49 352.537L206.891 351.683L205.488 348.085L205.122 343.877L205.915 341.803L207.44 340.827L208.233 338.388L208.843 335.583L202.805 331.68L196.096 329.85L188.96 329.789L186.398 330.338L184.142 335.583L171.578 337.778L164.564 335.278L161.27 331.619L155.354 328.325L152.732 323.629L152.549 320.458L151.451 318.019L144.62 314.238L142.119 313.628L136.813 314.604L134.922 307.285L130.958 302.955L126.506 305.944L123.761 305.029L121.139 303.26L120.285 300.638L120.529 297.223L121.078 295.332L121.017 293.38L119.98 292.71L118.943 293.197L116.686 293.136L114.552 290.941L113.149 288.38L112.051 285.33L108.697 283.501L107.05 281.793L105.586 279.659L105.159 276.548V273.255L105.891 270.328L106.013 268.803L106.318 267.339L108.27 261.546L108.148 255.386L106.928 252.459L104.366 247.885L105.647 246.97H107.294V243.982L106.806 240.323L106.074 236.846L103.939 230.931L103.695 225.32L103.939 223.186L104 220.929L104.427 220.014L105.403 220.136L111.136 218.307L112.295 217.514L112.905 215.989L111.563 210.988L109.733 209.281L115.649 201.658L115.405 195.254L116.625 189.399L119.98 190.558L123.7 192.754L127.482 192.266L131.202 190.802L137.118 185.252L141.997 177.507L150.78 172.323L155.293 170.921L157.062 169.274L158.465 166.713L160.355 164.395L159.929 161.468L158.038 159.028L155.781 157.87L151.207 156.711L147.425 152.991L146.45 149.332L146.389 145.307L147.791 143.355L158.953 143.599L160.782 143.294L162.307 136.769L163.527 133.414L165.113 130.609L167.247 129.633L169.565 129.572L171.883 130.304Z" fill="#009649" stroke="white" stroke-width="2" stroke-linejoin="round"></path>
<path class="region" data-country-region="East Region" d="M314.539 256.85L320.395 260.875L326.799 262.216L329.909 263.68L335.52 268.254L348.145 265.632L350.097 263.619L352.354 263.436L354 265.571L355.464 268.071L357.355 269.108L359.489 269.718L361.197 270.876L361.929 273.438L362.173 276.914L363.393 279.658L364.247 280.146L365.223 279.902L369.37 281.61L371.749 283.195L372.602 284.232L371.931 289.172L369.919 290.392L370.407 292.465L372.053 294.356L373.517 296.551L373.334 298.381L373.883 299.967L376.079 300.698L382.544 299.967L386.569 301.796L390.961 305.211L394.559 310.029L394.925 311.615L394.376 312.774L393.766 313.688L393.461 314.908L394.01 317.714L397.304 321.129L398.218 323.629L398.035 325.947L397.304 327.593L392.851 326.983L389.253 324.971H384.496L382.91 330.521L384.739 334.851L385.288 337.839L385.532 340.949L386.02 342.535L388.216 343.633L389.009 344.486V347.658L388.033 350.341L384.13 354L383.337 356.623L383.52 359.489L381.812 360.77L379.555 366.319L377.543 367.234L375.53 367.539L373.578 368.515L369.37 372.54L367.418 373.089L360.709 372.113L358.819 372.845L357.355 374.796L355.83 380.651L358.575 384.859L360.465 386.384L361.075 389.616L360.587 392.726L359.184 394.373L351.195 388.518L349.06 388.884L348.267 391.994L348.206 395.105L348.45 398.093L347.413 401.02L345.34 402.423L343.571 404.07L342.168 406.448L335.52 403.094L329.482 403.399L327.408 402.789L321.736 393.702L318.077 390.348L313.991 389.555L311.917 391.384L307.038 391.445L303.134 390.592L295.145 386.323L293.315 384.432L291.18 384.005L289.228 385.347L287.277 386.262L278.677 386.567L275.628 388.03L271.053 384.371L269.651 381.566L268.004 379.614L267.272 379.98L266.723 381.017L265.93 381.688L261.661 381.81L248.06 378.333L246.291 376.87L244.888 374.43L244.522 369.856L243.913 367.234L240.436 364.124L239.277 361.44L239.155 358.269L240.131 356.135L244.522 355.098L246.047 352.719L247.084 349.67L250.134 348.694L253.427 350.341L256.294 348.267L258.001 343.633L257.94 338.449L257.33 333.082L257.635 326.617L259.16 320.641L262.027 313.871L263.551 311.737L267.028 310.09L275.872 311.066L276.542 310.273L279.47 305.15L279.714 302.04L278.555 298.869L277.884 295.393L278.311 292.038L279.165 288.989L281.056 288.806L283.19 289.05L287.216 288.074L290.326 284.476L290.875 278.256L291.485 275.511L297.584 272.889L301.305 269.291L301.183 268.315L300.268 268.071L299.109 265.571L298.987 262.338L299.597 261.606L300.024 260.692L301.061 260.082L308.562 259.96L310.88 259.228L311.429 258.13L312.161 256.972L313.32 256.789L314.539 256.85Z" fill="#009649" stroke="white" stroke-width="2" stroke-linejoin="round"></path>
<path class="region" data-country-region="East Region" d="M342.168 406.449L347.353 407.424L348.085 407.851L348.328 408.949V410.108L348.024 410.901L343.876 411.572L341.62 415.902L343.266 417.914L347.841 419.195L349.975 420.841L351.622 424.623L354.55 428.16L352.11 428.526L347.902 432.063L346.682 434.685L348.816 435.783L352.964 436.393L354.672 437.064L355.037 439.137L355.22 440.845L347.536 445.724L345.584 446.029L342.229 445.724L338.875 446.273L333.508 450.42L331.922 450.785H330.397L327.043 448.834L325.396 451.273L323.688 454.689L321.066 458.47L316.979 457.921L315.089 459.384L318.321 462.617L321.127 466.52L306.733 482.742L305.391 484.755L304.049 487.499L303.379 490.67L304.598 492.256L306.184 492.439L307.526 494.085L307.648 497.257L309.478 500.489L312.527 501.709L313.808 503.965L314.723 506.893L316.674 508.722L318.931 509.759L323.078 510.491L322.834 512.93L321.798 515.065L321.31 517.016L322.042 518.724L323.505 519.7L323.81 520.736L323.139 520.797L322.896 521.224L317.65 527.079L317.162 527.445L315.699 527.933L313.808 527.872L312.649 528.177L311.673 528.664L310.758 529.457L309.966 530.799L308.99 533.848L309.417 534.702L308.99 535.495L308.075 535.556L307.648 537.385L307.465 538.544L307.038 539.276L305.147 540.069L303.623 540.374L303.013 540.313L301.183 539.154L300.634 538.91L299.353 539.276L296.975 540.618L295.45 540.74L294.23 540.496L293.925 539.459L294.169 536.41L293.986 535.007L293.742 533.726L293.681 532.385L294.169 530.86L292.4 529.762L286.423 529.213L286.667 527.628L286.484 525.676L285.63 521.712L284.654 519.212L284.35 518.297L283.923 515.065L283.679 514.333L282.764 513.662L281.849 513.845L280.873 514.272L280.019 514.333L279.226 513.845L278.068 512.442L277.275 511.832L276.36 511.527L274.53 511.405L273.676 510.796L273.31 510.125L272.7 507.38L271.298 504.392L270.2 501.526V499.025L271.847 497.074L270.261 496.22L270.017 495.061L270.139 493.598L269.773 491.89L268.858 491.341L266.479 492.866H265.077L260.563 490.365L258.185 489.573L255.989 489.877L256.172 490.182L254.464 491.646L253.549 491.829L252.33 490.853L252.025 490.182L251.354 488.231L250.622 487.682L249.219 487.377L248.487 487.072L246.535 485.425L245.621 484.877L241.778 484.145L240.985 483.23L241.351 481.522L237.814 479.144L236.96 478.961L237.021 477.375L240.68 470.301L248.304 468.654L251.964 465.91L257.819 463.166L258.49 460.36L258.551 455.542L257.514 443.284L258.063 441.333L259.343 441.089L260.685 440.479L260.807 438.71L260.136 437.064L260.929 434.929L262.759 434.502L271.542 434.563L270.871 431.087L268.919 429.014L266.967 427.489L265.321 425.293L264.162 421.695L265.625 417.731L266.723 411.754L268.309 408.339L273.066 405.229L273.493 401.814L272.7 400.045L272.334 397.85L272.761 396.386L273.554 395.471L275.628 388.031L278.677 386.567L287.277 386.262L289.229 385.348L291.18 384.006L293.315 384.433L295.145 386.323L303.135 390.592L307.038 391.446L311.917 391.385L313.991 389.556L318.077 390.348L321.737 393.703L327.409 402.79L329.482 403.399L335.52 403.094L342.168 406.449Z" fill="#009649" stroke="white" stroke-width="2" stroke-linejoin="round"></path>
<path class="region" data-country-region="West Region" d="M136.812 314.603L142.119 313.628L144.619 314.237L151.45 318.019L152.548 320.458L152.731 323.629L155.353 328.325L161.27 331.618L164.563 335.278L171.577 337.778L184.141 335.583L186.398 330.338L188.959 329.789L196.095 329.85L202.804 331.679L208.842 335.583L208.232 338.388L207.439 340.827L205.915 341.803L205.122 343.877L205.488 348.085L206.89 351.683L210.489 352.537L214.209 351.744L216.527 352.415L218.662 354.183L216.954 358.269L217.686 368.21L218.479 373.028L216.466 374.309L214.331 374.796L212.258 374.674L210.245 375.345L208.659 377.053L205.122 385.164L204.512 387.542L204.146 390.043L203.17 392.97L201.218 394.251L198.352 398.032L196.156 403.094L191.094 410.595L186.703 418.95L185.3 424.317L183.165 428.098L179.445 428.708L176.273 431.147L171.882 442.064L171.638 443.223L169.93 442.186L168.527 442.003L166.881 443.04V444.32L168.832 447.248L169.503 448.955L169.991 450.968L170.601 452.858L171.699 454.017L173.224 454.871L174.321 456.091L174.931 457.798L175.053 460.116L175.846 461.152L175.968 462.433L175.541 463.226L174.809 462.982L173.895 461.396L173.529 461.152H172.614L172.492 461.396V462.555L171.76 462.921L170.662 462.555H170.113L169.381 463.043L168.405 464.446L167.796 464.995L166.393 465.36L165.173 465.239L163.953 465.421L162.611 466.58L161.513 468.288L160.843 469.569L160.111 470.605L158.769 471.581L156.878 474.142L154.439 474.325L151.877 472.984L149.803 471.093L148.705 469.69L148.157 468.471L147.425 465.239L146.815 463.47L144.985 461.518L144.192 460.116L143.277 458.896L141.753 456.091L140.899 454.871L139.557 453.895L136.812 452.919L135.776 451.456L135.593 450.663V448.894L135.166 448.04L134.617 447.858H131.811L130.225 448.528L129.433 447.919L129.189 447.37L128.396 444.93L126.444 444.564L125.834 442.857L126.322 441.332L127.542 441.637L127.115 440.234L128.396 439.746L129.311 438.954L130.408 438.283L131.323 437.551L131.75 436.27L132.726 435.965L134.678 436.514L135.715 436.27L136.263 435.477L137.544 434.258L137.91 433.587L138.032 431.818L138.459 430.964L138.276 429.928L140.167 429.135L139.618 427.305L134.434 421.817L132.543 420.78L130.591 420.231H128.396L127.603 420.353L126.688 422.548L125.956 423.524L124.98 423.707L124.004 423.28L122.114 421.817L119.552 421.573L115.771 425.232L113.209 425.72L113.026 425.11L113.209 424.5L114.063 423.768L114.185 422.609L113.88 421.329L113.331 419.987L112.538 418.523L111.745 417.731L110.708 417.548L107.11 418.95H105.463L105.036 418.828L101.987 413.583L101.682 412.364L100.157 412.242L95.0949 413.462L94.485 413.218L94.0581 412.791L93.2042 411.571L92.5333 411.083L80.3962 406.814L77.8346 407.058L77.2857 407.729L76.6758 408.766L76.0049 409.497L75.151 409.192L74.7851 408.4L75.029 406.509L74.968 405.594L74.2362 403.826L73.3213 403.033L72.2235 402.545L71.0037 401.569L70.3938 400.532L69.6619 398.947L69.113 397.239L68.93 395.837L69.3569 394.068L69.8448 393.092L69.9058 392.116L68.93 390.592L67.3442 389.738L63.8678 389.677L63.3189 388.274L63.0139 386.811L62.343 386.445L61.5501 386.994L61.0012 388.274L60.7573 389.25L60.0864 389.433L59.2325 389.006L58.5006 388.274L58.0127 387.299L54.9632 386.628L53.8044 385.591L53.3164 386.811L52.4626 387.481L51.7307 387.725L51.1818 388.274L51.4257 389.372L52.4016 390.165L53.3164 391.507L53.3774 394.312L52.6455 395.471L52.4016 396.324L52.5236 396.995L52.5845 400.35L52.4626 401.142L45.5097 400.654L43.314 401.264L42.0332 401.203V399.435L42.8871 398.032L45.0217 395.593L48.1322 388.274L50.8158 381.383L50.9988 380.285V378.395L51.1208 377.48L51.4257 376.809L52.3406 375.711L52.4626 374.431L52.5236 371.991L53.0115 369.308L53.8654 366.685L54.9022 364.673L54.4143 364.063L54.7192 361.258L53.8654 359.367L52.4626 357.72L51.3647 355.769L50.8768 353.268L50.5109 349.121L51.6697 348.451L61.4282 343.328H63.1359L66.7343 346.438L68.5031 346.56L71.5526 341.254L73.5653 338.815L78.0176 337.29L86.5562 341.986L90.8866 340.949L97.5955 332.045L103.573 320.336L104.914 319.36L107.049 318.628L108.879 316.799L109.733 314.237L110.952 312.591L120.162 314.298L121.748 316.067L121.992 319.482L125.346 323.812L130.164 322.714L133.885 319.482L136.812 314.603Z" fill="#009649" stroke="white" stroke-width="2" stroke-linejoin="round"></path>
<path class="region" data-country-region="West Region" d="M319.783 60.1704L320.027 59.1947L318.563 59.3776L313.196 58.7068L311.733 60.4144L311.306 63.9516L312.647 67.9157L313.867 70.1111L314.538 72.7335L313.806 74.6241L312.891 76.3317L310.208 79.0151L309.232 80.4787L309.415 82.4913L310.513 86.9433L312.586 90.2975L315.514 92.0661L318.624 92.432L320.21 94.6275L318.99 98.6525L321.186 99.7503L327.163 99.2624L330.213 100.055L329.969 101.763V103.47L329.237 104.812L328.139 105.971L327.163 108.898L326.431 110.057L326.309 111.704L322.894 113.228L318.015 112.862L315.453 114.509L313.318 116.826L304.353 133.597L301.059 135.061L294.106 135.488L290.813 134.146L288.922 132.927L284.958 128.78L283.921 128.17L283.128 127.194L281.908 126.462L276.968 125.791L273.492 127.072L271.235 128.536L266.051 125.425L255.133 123.596L253.121 121.705L251.352 119.449L249.217 119.205L238.91 120.79L231.164 119.266L229.517 120.546L227.078 125.12L222.869 126.645L220.918 128.475L220.613 129.816L220.369 131.28L220.308 133.476L216.526 135L208.11 132.744L205.853 132.988L204.206 135.366L202.682 138.598L200.852 145.002L199.144 146.039L196.461 142.806L193.228 141.038L180.847 140.55L177.31 138.354L174.809 133.902L171.881 130.304L170.784 119.144L173.345 116.582L175.175 113.35L174.443 111.155L173.406 109.447L172.186 108.837L172.125 106.825L175.175 105.361L178.529 105.849L177.371 103.348L175.968 101.336L174.26 99.8113L172.003 95.1764L170.54 93.4078L167.917 91.5172V85.8455L167.429 80.1128L163.587 68.3426L172.064 66.269L173.04 64.7444L172.796 62.183L171.637 60.5364L170.967 59.0727L171.394 57.1821L173.04 55.5355L173.65 52.7302L173.223 47.7293L171.333 43.8872L166.331 36.6299L162.001 27.8479L166.514 26.0793L169.076 25.5914L171.394 24.7986L177.188 18.3951L195.546 9.73509L218.539 5.40509L228.847 1.86791L245.07 0.343262H255.072L256.414 0.831149L258.61 2.7827L259.464 3.2096L260.684 3.51453L281.481 15.9557L285.263 20.8955L285.873 22.0542L286.482 23.7009L286.543 25.1035L285.446 25.5914L284.531 23.7619L283.433 22.969L282.701 20.9565L281.664 19.6758L278.798 14.7969L278.249 14.492L276.114 14.0651L275.565 13.8211L274.955 12.8454L273.248 12.2355L269.649 9.73509L266.051 8.02749L265.502 7.23467L263.489 5.71002L263.001 5.46608L262.269 5.77101L261.842 6.31988L260.988 9.30819L260.866 10.04V11.5647L261.232 11.9306L262.696 12.6014L263.733 14.309L264.587 16.1996L264.343 17.7242V18.3951L265.075 19.1879L264.709 21.2004L265.38 22.1152L266.539 21.8713L267.575 20.5296L267.21 22.2982L267.697 23.7009L268.429 24.8596L270.015 29.6165L270.442 30.6533L270.198 33.0317L270.259 37.1788L270.686 41.0818L271.54 42.8504L272.455 43.1554L274.345 44.558L275.26 44.924L276.114 44.9849L277.09 45.2899L278.005 45.8997L278.371 46.8145L279.347 48.2172L289.593 51.5714L291.85 51.6934L293.801 50.6566L294.289 51.2055L295.021 51.5714L296.668 52.1203L319.478 48.7051L324.48 46.2657L326.858 45.6558L328.81 44.802L332.53 40.8989L333.567 40.411L334.238 40.9599L323.443 49.3149L320.82 50.6566L318.258 51.3885L312.952 51.8764L310.452 52.8521V53.462L311.854 55.3526L312.525 55.7185L311.854 56.3283L311.672 57.792L313.196 58.7068L318.563 59.3776L320.027 59.1947V59.9875L319.783 60.1704Z" fill="#009649" stroke="white" stroke-width="2" stroke-linejoin="round"></path>
<path class="region" data-country-region="West Region" d="M116.625 189.399L115.405 195.253L115.649 201.657L109.733 209.28L111.563 210.988L112.905 215.989L112.295 217.513L111.136 218.306L105.403 220.136L104.427 220.014L104 220.929L103.939 223.185L103.695 225.32L103.939 230.93L106.074 236.846L106.806 240.322L107.294 243.981V246.969H105.647L104.366 247.884L106.928 252.458L108.147 255.386L108.269 261.545L106.318 267.339L106.013 268.802L105.891 270.327L105.159 273.254V276.548L105.586 279.658L107.05 281.792L108.696 283.5L112.051 285.33L113.149 288.379L114.551 290.94L116.686 293.136L118.943 293.197L119.98 292.709L121.016 293.38L121.077 295.331L120.529 297.222L120.285 300.637L121.138 303.259L123.761 305.028L126.506 305.943L130.958 302.955L134.922 307.285L136.813 314.603L133.885 319.482L130.165 322.714L125.347 323.812L121.992 319.482L121.748 316.067L120.163 314.298L110.953 312.59L109.733 314.237L108.879 316.798L107.05 318.628L104.915 319.36L103.573 320.336L97.5961 332.045L90.8872 340.949L86.5569 341.986L78.0182 337.29L73.5659 338.814L71.5532 341.254L68.5037 346.559L66.735 346.438L63.1365 343.327H61.4288L51.6703 348.45L50.5115 349.121L50.3285 346.559L50.8165 345.34L50.2066 343.998L49.0477 342.778L48.1329 342.047L46.7301 341.376L43.9245 340.522L42.5218 339.729L41.241 338.814L37.2766 337.473L35.9348 336.07L35.5688 334.362L36.0568 332.411L37.2766 330.581L38.0085 328.63L37.8865 326.007L37.2766 323.507L36.4837 321.86L33.5562 319.36L32.1534 317.774L31.5435 315.274L31.2995 312.651L30.4456 311.554L29.3478 310.761L28.372 309.236L28.189 307.163L28.9819 305.455L32.4583 301.918L33.6171 300.393L34.532 298.625L35.0199 296.673L35.2639 290.696L35.5688 289.721L36.9106 287.342L37.1546 286.366L37.4595 284.598L37.9475 283.744L39.0453 282.341L35.0809 279.414L34.471 277.95L34.837 275.389L35.5079 273.62L35.7518 272.157L34.837 270.815V270.205L36.0568 268.619V266.607L35.1419 264.838L33.4342 264.107L31.7264 263.68L29.6528 262.643L28.25 261.118L28.6159 259.289L27.3961 256.422L25.9323 252.031L25.5664 248.067L28.7379 245.323L30.2017 242.944L31.1775 240.627L30.9336 239.59L29.7747 238.492L30.2627 236.175L31.9704 232.638L30.0797 231.052L29.7138 230.686L31.2385 225.32L32.5193 223.307L37.7035 222.453L40.753 221.172L45.5103 214.464L49.4137 205.987L55.3297 202.694L65.4542 206.048L68.6257 205.56L72.4071 201.23L74.6637 196.839L73.017 196.534L71.7972 194.888L75.2736 194.705L85.581 191.167L98.0841 191.228L101.134 188.972L106.623 181.959L109.794 179.458L113.088 178.97L116.137 179.641L117.723 184.642L116.625 189.399Z" fill="#009649" stroke="white" stroke-width="2" stroke-linejoin="round"></path>
<path class="region" data-country-region="West Region" d="M171.883 130.304L169.565 129.572L167.247 129.633L165.113 130.609L163.527 133.414L162.307 136.768L160.782 143.294L158.953 143.599L147.791 143.355L146.389 145.306L146.45 149.332L147.425 152.991L151.207 156.711L155.781 157.87L158.038 159.028L159.928 161.468L160.355 164.395L158.465 166.713L157.062 169.274L155.293 170.921L150.78 172.323L141.997 177.507L137.118 185.252L131.202 190.802L127.482 192.266L123.7 192.754L119.98 190.558L116.625 189.399L117.723 184.642L116.137 179.642L113.088 178.971L109.794 179.459L106.623 181.959L101.134 188.972L98.0841 191.229L85.5811 191.168L75.2737 194.705L71.7972 194.888L73.017 196.535L74.6638 196.84L72.4071 201.231L68.6257 205.561L65.4542 206.048L55.3298 202.694L49.4137 205.987L45.5103 214.464L40.7531 221.173L37.7036 222.454L32.5194 223.307L31.2386 225.32L29.7138 230.687L26.1764 226.662L22.5779 225.259L20.8092 222.82L19.6504 222.271L19.0405 221.661L16.9668 217.575L15.991 216.477L9.52597 211.659L7.87922 210.805L5.92753 208.427L4.70772 207.878L3.36593 207.817L2.08513 207.39L0.987301 206.536L0.316406 205.134L1.90216 203.731L2.57305 202.511L2.81701 200.621L2.69503 199.34L1.90216 195.803L1.53622 194.766V194.156L4.52475 191.961L8.18417 190.009L11.7826 187.143L13.6733 185.191L14.4662 183.362L14.6492 182.508L16.4789 176.775L16.3569 175.312L15.991 173.848L15.747 172.201L15.93 170.86L16.3569 169.64L16.9668 168.725L17.5767 168.359L18.0646 167.749L19.5894 164.578L18.7965 163.846L18.6135 163.297L17.6377 162.505L17.2718 161.834L17.0888 160.858L16.9668 158.175L15.2591 150.307L14.6492 145.002L13.3684 142.867L12.7585 140.733L11.2947 138.415L10.8068 136.342V134.085L10.9287 130.304L10.8068 129.328L9.58696 125.303L8.6721 123.291L8.91606 121.705L8.79408 118.839L9.40398 118.778L10.5018 118.29L11.2947 117.558L11.4167 116.704L10.3188 115.972L10.9287 115.606V114.875L10.3188 114.57L10.6848 113.777L11.2337 114.326L12.8804 115.301L13.5513 117.314L14.4052 117.985L16.1129 118.778L17.3327 120.058L18.0036 120.607L20.6262 121.095L23.9197 122.254L25.0175 123.169L25.9934 124.51L27.9451 128.352L28.677 129.267L28.9819 128.962L29.0429 127.316L29.3479 126.34L29.8358 125.73L30.6897 125.059V123.657L30.0188 123.474L28.494 123.352L27.7621 122.986L25.8714 118.412L26.2983 116.155L27.7621 111.703L28.494 112.313L29.7138 111.703H30.6897L30.2627 109.081L30.5067 107.007L30.8726 105.178L31.1166 103.226H30.6897L30.5067 104.446L30.0797 105.3L28.616 106.763L28.0061 106.946L27.3352 106.032L28.616 104.629L27.7621 102.921L26.2983 102.067L19.5894 101.397L18.6135 100.299L19.4064 98.2864L19.0405 97.6155L18.4306 98.6523L17.9426 98.7743L16.7228 98.2864L16.1739 98.5303L14.8321 100.36L16.6618 100.726L17.6377 101.153L18.1866 101.824L18.0646 103.104L17.3937 104.019L16.6618 104.324L16.1129 103.958L14.4052 104.995L12.7585 105.361V106.032L13.5513 106.397L12.7585 106.763L12.1486 106.702L11.1727 106.154L10.5018 106.032L9.46497 105.361L6.53743 101.153L5.01267 100.482L4.52475 98.8962L3.42692 97.5545L4.52475 97.0667L5.56159 94.2613L6.53743 94.7492L7.20833 95.2981L9.09903 95.9689L15.0761 96.5178L17.5157 95.9689L19.8334 94.7492L24.2247 91.5169L40.2652 84.3206L54.171 80.6614L71.0653 73.5261L81.9826 70.5988L93.9977 67.3665L105.769 61.9998L115.527 60.78L122.297 58.5236L121.504 59.2554L118.516 60.6581L119.797 61.5729L125.164 60.6581L124.737 59.9872V59.1944H127.664L127.238 58.5236L127.36 56.816L125.957 56.755L122.663 57.7917L124.737 56.755L127.238 55.1084L131.019 50.6564L130.287 52.242L128.884 53.6447L128.945 54.2546L130.043 54.0106L131.019 53.5837L131.812 52.6079L133.946 51.5712L134.739 50.6564L134.007 49.1317H132.849L131.385 50.6564L133.946 46.2044L141.021 37.1175V37.7884L140.655 38.7641L141.265 39.0691L142.302 38.7031L143.034 37.7884L143.461 36.3857L143.095 35.9588L142.302 36.2637L141.387 37.1175L142.607 34.6171L144.742 32.4826L148.889 29.9212L161.575 28.0306L162.002 27.8477L166.332 36.6296L171.334 43.8869L173.224 47.7291L173.651 52.7299L173.041 55.5353L171.395 57.1819L170.968 59.0724L171.639 60.5361L172.797 62.1827L173.041 64.7441L172.066 66.2688L163.588 68.3423L167.43 80.1126L167.918 85.8452V91.5169L170.541 93.4075L172.005 95.1761L174.261 99.811L175.969 101.336L177.372 103.348L178.531 105.849L175.176 105.361L172.127 106.824L172.188 108.837L173.407 109.447L174.444 111.154L175.176 113.35L173.346 116.582L170.785 119.144L171.883 130.304Z" fill="#009649" stroke="white" stroke-width="2" stroke-linejoin="round"></path>
</svg>