<svg width="416" height="578" viewBox="0 0 416 578" fill="none" xmlns="http://www.w3.org/2000/svg">
<path class="region active" data-country-region="West Region" d="M159.885 122.334L158.389 122.625L157.102 123.456L156.312 124.911L154.277 129.816L155.066 135.219L154.568 137.713L153.238 139.667L152.158 140.914L151.327 142.244L149.333 146.525L142.437 145.819H133.588L125.03 142.992L119.63 141.745L113.648 145.195L110.781 142.369L108.496 137.298L108.206 133.515L104.508 132.601H94.8287L85.9385 132.31L81.5765 132.518L79.4578 132.227L77.4222 130.232L75.5528 130.107L74.6388 129.857L73.9742 129.317L71.8555 126.657L71.4816 125.576L71.3985 124.62L71.1492 123.789L70.1937 123.082L70.1522 122.459L71.6893 118.926L71.5647 116.806L70.7338 115.517L69.6121 114.478L68.532 113.148L67.7427 112.483L65.0009 111.402L65.084 113.148L64.17 113.564L62.5083 113.398L61.8021 113.522L60.8466 114.312L59.2679 116.099L58.2294 116.39L56.3599 115.933L53.4519 114.021L51.7071 113.19L47.8852 113.023L46.0157 112.649L45.1433 111.777L44.4371 110.322L42.0276 108.451L41.1137 106.456L37.7071 104.752L36.4609 103.505L36.087 97.3949L33.719 94.6931L27.1968 90.2456L21.7546 83.8861L18.8466 82.3898L14.8585 83.5536L13.363 84.4265L11.5766 85.2162L9.91489 85.2994L8.75169 84.094L8.12855 82.1819L7.71312 81.3091L6.30065 79.7296L6.42528 77.9423L5.80214 76.4459L5.13745 71.9984L6.3422 70.5021L8.00392 64.8492L9.74872 61.4824L11.992 59.6951L12.6152 57.783L12.4906 56.7023L11.452 55.7879L11.1196 55.2891L10.995 54.3331L11.4104 53.2524L12.4075 50.0103L13.1552 48.8049L16.1048 46.8929L16.8941 46.1863L18.0989 44.8146L19.0543 44.4405L20.9238 44.0249L26.1582 42.2376L27.7368 41.24L28.4431 39.7437L28.3184 36.1275L28.6508 34.6727L29.9801 32.7191L31.3511 31.4721L35.5884 28.8119L36.2531 27.9391L36.6686 27.0246L37.1671 26.609L38.7042 27.4819L39.535 27.5234L41.1137 27.2325L43.1077 27.565L42.9 25.0295L41.1137 19.5844L39.8258 17.423L37.4163 16.2592L32.265 15.2616L30.1879 14.3472L29.5232 14.3887L29.2324 15.0538L28.9831 17.3815L28.5677 17.9634L27.4045 17.6308L26.6983 16.3008L26.6152 14.6381L27.1137 13.308L28.2769 11.3129L30.1048 4.87026L30.7695 3.45704L31.8496 1.58659L33.0128 0.381195L33.8436 0.921546L33.9683 2.79199L33.8852 4.91183L34.1344 6.90697L35.3392 8.23706L38.4965 9.23463L39.9505 9.89968L41.1137 11.2713L42.2353 12.1858L43.9386 14.0147L45.7249 15.2616L47.7605 16.1345L48.5083 16.2176L50.4193 16.1761L51.4994 16.6748L52.5795 18.7947L53.3273 19.7091L55.2383 20.7898L57.3154 21.2886L56.9415 22.1199L56.7338 22.9928L56.9831 23.6578L58.4371 24.2397L58.3124 25.9855L58.8525 26.7337L60.9297 27.8144L62.1344 28.7704L62.3421 30.0173L61.5113 31.8462L60.3481 32.8438L57.0662 34.5064L56.4015 35.2546L57.9801 36.3768L65.5409 33.592L68.7813 34.8389L69.4875 36.3768L70.0691 38.081L70.9415 39.4943L72.4371 40.2009L73.8495 39.619L75.2204 36.3353L77.0068 35.0883L79.4578 35.5455L83.4044 39.5358L85.9385 40.4087L89.9266 39.4111L91.713 38.1226L91.256 36.2522L90.259 35.9612L89.2204 35.9196L88.5557 35.2546L88.8881 33.1348L88.0572 33.6751L87.2264 33.8829L86.5201 33.6335L85.9385 32.8438L85.1077 29.9758L82.9059 28.8119L80.3302 27.9391L78.4608 25.9439L78.4192 24.2397L79.1255 22.3693L80.2471 20.6651L81.4103 19.5844L82.8643 18.8778L83.6952 19.1272L84.5261 19.9585L85.9385 21.0392L86.9771 21.538L88.3065 23.1175L89.1373 23.7825L90.1344 24.1982L92.0869 24.697L92.8762 25.362L93.2916 26.5674L93.0008 27.4403L93.1255 28.1053L94.621 28.7704L96.7397 29.3939L97.4044 30.1005L97.4459 31.4721L96.6566 31.8878L95.3688 31.2643L94.3302 31.389L94.4133 34.0908L94.9949 35.7118L96.7812 38.7461L97.4459 40.3256L98.1937 46.3941L98.8584 48.1814L99.98 49.47L105.921 52.0886L107.25 52.9615L108.164 54.2084L108.746 56.1204L109.493 57.0349L112.651 58.4897L114.811 61.0251L116.431 62.1474L118.259 62.9787L119.713 63.145L121.167 62.3137L122.247 61.3161H123.286L124.657 63.3528L125.944 63.5191L126.443 63.3528L131.303 62.9372L132.591 63.3528L133.879 65.5558L134.668 66.6365L135.582 67.1353L136.787 66.8859L137.41 65.9714L137.66 64.6829L137.576 63.3528L138.324 60.6095L142.271 57.3258L143.019 55.6216L142.354 54.3747L141.191 54.3331L139.944 54.5825L139.03 54.1253V52.9615L140.027 52.1301L141.315 51.4651L142.395 50.7585L140.734 50.5507L139.238 49.8441L138.657 48.5971L139.612 46.7682L140.817 45.9369L141.44 45.8538L143.309 46.4357L143.351 45.9369L142.769 44.7731L142.562 41.7388L143.185 40.9075L145.137 40.2424L146.757 40.575L147.256 42.0713L147.131 46.311L147.214 46.9345L148.295 47.4333L148.959 47.5164L150.746 47.3501L151.576 47.4333L152.615 48.3061L153.155 49.8025L153.57 51.4235L154.277 52.7952L155.44 54.4578L155.565 55.7048L155.357 56.9517L155.481 58.6975L155.98 59.6119L157.808 62.0227L159.013 64.0594L159.553 64.2257L160.134 63.9763L160.757 63.3112L161.214 63.2281L162.502 64.8907L162.253 66.2624L160.965 67.3015L159.22 67.925L160.924 68.9641L162.295 69.0888L163.042 69.6708L162.627 72.04L158.763 78.8983L158.431 81.3506L160.093 90.3288L162.128 95.3582L163.042 99.2653L162.211 106.29L162.045 113.772L160.01 121.337L159.885 122.334Z" fill="#009649" stroke="white" stroke-width="2" stroke-linejoin="round"></path>
<path class="region active" data-country-region="West Region" d="M230.882 462.381L230.009 464.584L229.261 464.085H228.638L227.891 466.039L226.395 468.117L224.65 469.53L223.072 469.405V468.699L224.858 468.158L225.564 468.034L224.359 466.454L223.695 465.997L224.276 465.374L224.11 463.711L224.359 462.713L225.107 461.55L231.131 457.393V459.388L231.796 460.51L232.294 462.048L230.882 462.381ZM207.701 470.694L206.87 471.234L206.454 470.985V466.496L206.828 464.168L207.701 462.048L209.653 458.349L211.19 456.603L213.267 456.105L212.935 458.224L210.692 462.048L208.532 469.613L207.701 470.694ZM208.905 458.806H208.365L208.905 456.728L210.069 453.902L211.44 451.699L212.644 451.449L212.063 453.86L209.529 456.77L208.905 458.806ZM216.632 465.041L215.178 465.748L213.974 465.124L213.267 463.711V462.048L213.766 460.677L214.348 459.638L214.846 458.432L215.054 456.395L214.846 453.32L215.178 452.405L216.342 451.449L220.371 455.772L221.493 458.349L220.621 461.425L218.71 462.589L216.632 465.041ZM232.917 440.226L231.131 446.17L230.965 444.591L230.466 443.469L229.428 446.794L228.888 450.493L228.098 453.818L226.187 456.105L224.484 456.603L223.57 456.146L223.155 455.107L223.072 453.777L223.529 452.904L226.727 450.119L226.187 449.454L222.324 451.74L221.825 452.738H221.285L221.451 450.452L221.991 448.332L223.03 446.794L224.609 446.17L225.73 445.464L228.14 442.762L229.261 442.804L230.009 441.681L231.089 440.642L232.128 440.06L232.917 440.226ZM263.493 435.945L263.701 436.818V442.055L263.036 444.341L261.25 444.799L260.336 443.302L260.46 440.601L261.083 437.691L261.831 435.53L262.371 436.236L262.87 435.613L263.493 435.945ZM266.525 437.192L265.487 438.107L265.528 432.911L266.068 430.999L267.315 431.539L267.398 433.327L267.149 435.405L266.525 437.192ZM266.733 428.838L263.368 434.116L261.956 433.534L262.247 432.204L263.16 430.542L263.701 429.212L264.033 424.806L264.573 422.437L265.487 420.857L266.152 421.605L266.65 423.06L267.024 424.847L267.107 426.842L266.733 428.838ZM234.704 414.248L235.991 416.617L236.988 419.319L237.196 421.605L236.199 419.61L235.991 418.903L235.327 420.608L235.908 424.473L235.327 426.177L234.87 425.305L234.704 422.187H235.327L234.745 420.441L234.08 416.659L233.499 414.913L232.959 414.539L231.837 414.497L231.629 413.209L231.837 412.627L232.419 412.419L233.499 412.918L234.704 414.248ZM236.531 414.29L235.991 414.913L236.531 409.219L237.196 409.551L237.57 410.59L237.736 411.629L237.778 413.541L236.531 414.29ZM252.152 441.349L247.416 448.747L245.837 450.119L245.172 448.747L243.137 450.909L242.264 451.408L239.938 455.439L236.905 456.811L235.991 456.686L235.244 454.567L236.324 451.782L237.985 448.831L239.066 446.17L234.039 453.486L232.626 453.777L232.045 451.865L232.419 449.121L233.416 446.295L234.704 444.175L233.707 442.055L234.579 438.481L238.318 430.292L238.775 428.713L239.066 426.842V421.148L239.606 419.485L238.899 416.617L238.692 414.705L239.066 413.541V412.918L238.069 411.131L236.988 405.228L235.991 402.901L234.537 401.612L229.469 397.996L228.015 397.58L227.6 394.006L227.807 390.597L229.802 382.617L230.425 381.536L231.38 380.83L232.917 380.206L234.496 379.832L236.241 379.624L237.155 382.534L238.152 385.984L239.273 388.685L240.81 391.844L242.098 394.172L243.511 395.876L244.923 398.162L245.588 402.901L246.709 405.893L248.828 408.055L252.775 411.671L254.603 413.957L252.816 423.185L252.899 438.855L252.152 441.349ZM232.294 370.895L234.122 372.849L235.784 373.597L237.445 375.592L238.733 377.587L237.321 377.878L234.247 377.255L230.923 377.047L228.306 379.499L226.935 379.998L225.564 381.411L225.398 383.822L225.855 385.36L224.609 387.023L223.736 385.942L222.573 384.861L222.448 383.947L222.116 382.949L221.202 382.326L218.793 381.578L219.54 380.455L219.665 379.583L219.374 376.881L219.457 375.093L219.707 373.389L220.371 372.059L221.576 371.56L224.65 372.101L226.104 371.893L226.727 370.563L227.475 370.438H231.006L232.294 370.895ZM235.784 361.377L237.778 362.915V363.497L235.451 363.58L235.742 364.203L236.615 365.035L237.321 365.949L237.778 366.905L234.953 366.573L234.164 366.24L233.499 365.492L232.419 363.538L231.629 362.915L230.715 362.624L230.051 363.164L229.261 363.497L228.264 363.621L225.855 363.663L224.899 363.497L223.487 361.294L225.273 358.176L228.264 355.724L230.466 355.516L232.377 357.137L235.784 361.377ZM220.745 357.719L219.997 358.176L219.25 354.186L218.793 352.773H222.241L223.695 352.191L224.276 353.147L224.152 353.854L222.781 355.225L220.745 357.719ZM218.253 354.103L218.668 356.223L219.914 359.299L221.576 362.208L223.362 364.577L223.57 365.076L223.445 366.198L223.695 366.905L224.65 367.154L225.98 368.318L226.353 369.025L225.896 369.939L224.526 370.604L223.196 370.438L221.908 370.106L220.621 370.23L218.917 372.392L218.086 375.634L217.006 378.336L214.472 378.918L215.926 380.206L215.552 381.495L214.348 381.993L213.267 380.871L211.315 382.16L212.644 383.157L215.178 384.03L216.923 384.903L217.754 383.116L219.291 383.407L220.87 384.737L221.825 386.191L222.116 387.189L222.448 390.223L223.529 393.382L223.902 396.749L223.653 397.456L222.781 398.619L221.991 399.077L219.914 399.368L219.083 399.908L218.585 401.363L217.546 406.766L217.796 407.182L218.959 406.184L219.374 405.561L219.457 404.563L219.208 402.61L219.374 401.571L220.288 400.241L221.618 399.451L223.196 399.201L224.899 399.534L228.098 401.529L229.718 404.314L230.799 407.556L232.294 410.923L230.466 410.216L230.508 412.419L231.131 414.165L232.917 417.615L233.374 419.568L233.457 421.605L232.917 425.595L230.051 433.036L227.932 436.402L226.187 436.818L223.778 438.148L222.864 438.98L222.448 439.852L222.241 441.183L221.701 442.679L219.125 447.209L218.253 448.29L217.256 448.747L216.051 448.456L214.514 447.791L213.226 446.919L212.644 446.17L213.184 443.76L215.345 439.146L215.718 436.818L214.68 434.075L214.472 432.786L215.054 429.752L214.763 428.547L213.267 428.173L213.641 430.168L212.769 434.49L212.935 435.862L213.683 436.527L214.721 437.151L215.054 438.107L214.929 438.855L214.514 439.52L213.35 440.892L213.101 442.263L212.312 441.972L211.98 442.18L211.73 443.178L211.44 446.17L210.692 448.249L209.072 450.743L207.701 452.405L207.285 454.109L205.582 457.642L205.208 459.43L204.793 463.129L203.962 466.745L203.256 468.616L202.342 469.904L197.398 474.144L196.152 475.017L194.448 475.349L192.621 475.058L189.256 473.645L187.677 473.313L186.223 472.523L185.849 470.943L186.431 469.696L187.968 470.029L187.303 468.657L187.843 467.701L188.716 466.828L189.214 465.665L188.799 464.293L188.3 463.919L186.721 467.867L185.849 468.699L185.018 468.99L183.897 470.278L183.066 470.694L182.318 470.528L181.155 469.53L180.075 469.405L180.698 466.828L180.947 461.591L181.902 459.388L182.733 458.682L184.81 457.268L185.6 456.105L186.015 454.608L186.514 452.239L187.345 450.867L191.042 447.5L192.621 445.131L193.41 444.757L195.404 445.505L197.273 444.175L198.686 442.014L199.351 439.395L199.06 436.818L197.481 441.016L196.359 443.219L195.072 444.175L192.662 444.508L191.208 445.381L185.849 451.158L185.226 452.156L184.52 454.234L183.356 456.021L183.066 456.728L182.609 457.185L181.321 457.393L180.407 457.268L177.54 456.105L178.081 454.733L178.164 453.278L178.87 452.114L179.701 451.366L180.49 450.992L181.072 450.327L181.321 448.831L180.989 445.921L181.404 444.84L181.736 443.385L182.567 442.429L183.564 441.972L184.395 441.39L184.935 440.226L182.609 441.058L181.487 442.72L180.075 447.5L179.285 448.581L176.876 450.95L176.336 451.782L176.543 456.146L176.336 457.393L175.006 458.557L173.386 457.975L172.015 456.312L171.434 454.442L171.267 453.486L170.478 451.283L170.229 450.119L170.021 442.97L169.19 438.98L168.983 436.527L168.775 435.613L167.612 433.742L167.155 432.786L166.822 431.539L166.698 430.5L167.155 428.173L168.941 423.725L176.336 412.918L176.834 411.713L177.167 410.549L177.707 409.468L176.336 410.216L176.045 410.507L175.297 408.263L174.84 407.556L173.428 406.808L173.054 405.977L173.386 404.439L174.175 402.693L174.383 401.238L174.342 400.033L173.635 397.913L173.095 397.414L171.641 396.333L170.644 393.382L170.021 392.551L169.066 391.678L169.024 391.262L170.021 390.847L170.894 391.179L171.517 390.93L171.6 389.558L171.143 388.852L170.354 388.602L168.11 388.353L167.529 388.062V387.563L168.318 386.607L171.06 384.778L171.517 383.947L171.101 383.49L170.312 383.032L169.938 382.16V381.453L170.27 380.746L171.6 380.04L171.766 379.292L171.184 378.71L171.143 378.128L171.766 376.964L172.306 376.715L173.22 376.756L174.466 375.759L172.805 372.807L171.475 371.56L174.674 371.02L176.211 370.688L177.457 370.022L179.576 367.82L181.819 364.702L183.066 362L183.564 361.377L185.309 359.714L186.057 358.55L187.552 357.013L189.256 356.098L189.92 354.269L190.751 352.773L195.155 351.942L196.152 352.108L196.899 352.44L197.44 353.188L197.73 353.978L197.938 356.431L198.437 358.052L200.181 360.171L201.469 361.086L202.508 361.502L203.837 361.335L204.71 360.712L205.707 359.091L206.371 358.467L207.161 356.888L207.119 355.184L206.371 354.685L205 354.893L204.128 354.726L204.917 353.147L205.914 352.482L207.244 351.942L210.152 352.607L212.187 354.186L213.392 355.35L215.76 356.472L217.297 355.558L218.253 354.103Z" fill="#009649" stroke="white" stroke-width="2" stroke-linejoin="round"></path>
<path class="region" data-country-region="East Region" d="M226.271 324.716L229.719 327.293L230.466 329.455L227.185 327.044L225.398 326.337L224.9 327.459L223.279 328.249L221.576 327.75L219.956 326.545L217.131 323.594L216.176 322.181L216.425 321.308H218.793L222.033 322.472L226.271 324.716ZM261.748 146.816L261.499 151.097L262.828 155.42L262.787 156.75L262.496 157.706L261.541 159.161L260.751 160.824L259.754 164.398L265.612 174.166L268.187 175.33L278.864 174.208L280.027 178.655L280.65 180.692L280.983 185.098L280.318 190.252L280.9 192.039L281.398 192.247L283.018 192.039L285.76 192.164L286.716 192.621L287.214 193.369L287.588 194.575L287.546 195.323L286.591 196.986L286.466 198.856L286.176 199.396L284.098 200.436L284.14 201.184L285.262 202.597L285.719 203.636L286.757 204.675L288.377 205.548L287.131 208.832L286.176 210.661L285.386 211.783L284.514 212.656L284.431 213.362L285.137 214.194L285.802 214.609L286.799 214.692L287.879 215.191L288.377 217.519L288.253 218.724L286.757 219.805L288.71 221.551L289.748 222.922L289.914 223.671L289.457 224.585L288.834 224.793L287.837 225.874L289.084 227.827L287.131 229.199L284.098 230.57L282.769 233.937L282.063 234.602L281.357 235.766L280.193 236.597L278.656 237.138L276.911 237.304L276.122 237.761V238.759L276.288 239.881L276.039 240.671L275.416 240.754L274.751 240.505L273.546 239.549L270.555 243.664L268.52 244.37L267.98 244.703L268.354 246.615L268.229 247.072L269.849 249.4L269.184 250.813L270.929 251.852L270.265 253.93L268.52 255.925L267.066 256.84L266.027 257.837L265.238 260.165L265.612 262.036L265.155 264.446L263.327 268.561L259.92 273.3L258.674 274.339L257.843 274.796L256.805 274.505L254.146 272.759L252.401 273.591L251.695 273.674L248.953 273.549L247.748 273.882L246.585 274.796L245.713 276.085L245.671 276.874L246.17 278.994L246.045 280.449L244.217 285.271L242.805 287.432L242.638 288.305L242.929 288.928L244.217 289.843L245.131 290.923L245.339 291.63L245.256 292.337L244.591 293.667L243.802 294.457L246.17 296.909L246.959 298.031L246.751 298.53L245.38 298.696L244.3 299.237L243.926 300.068L244.591 301.19L243.677 302.188L241.683 303.476L240.894 304.682L238.733 304.64L238.484 305.056L239.274 305.97L240.894 307.259L240.271 309.295L238.692 308.381L237.695 308.256L235.992 309.295L233.707 310.044L232.419 310.916L232.003 310.584L230.633 306.718L231.006 303.933L232.46 301.647L234.704 300.608L233.998 300.442L233.499 300.608L232.793 299.652L231.297 299.818L228.015 301.19L228.514 302.562L228.057 303.393L226.977 303.809L225.564 303.933L224.069 303.809L222.906 303.393L220.621 301.938L221.327 303.435L222.615 304.432L224.069 305.014L225.564 305.264L228.888 305.388L229.636 306.178L229.843 314.948L229.552 316.029L228.846 316.611L228.14 318.024L227.558 319.77L227.392 321.308L224.401 320.019L206.828 316.569L203.422 315.322L200.348 313.286L200.265 314.408L201.096 315.489L212.728 322.555L214.14 323.719L214.971 324.924L215.552 326.129L216.342 327.085L219.167 327.709L221.659 328.956L223.072 329.455L228.929 330.12L229.677 330.743L232.294 334.775L232.71 336.396L233.001 339.846L231.962 338.308L231.131 337.435L231.588 339.347L231.962 345.125L231.63 347.452L229.22 350.944L228.639 351.526L227.558 351.235L227.351 350.445L227.766 349.489L228.639 348.783V348.117H228.015L227.018 349.489L226.021 350.445L224.775 351.11L223.072 351.526L219.707 351.401L218.585 351.858L218.17 353.479L218.253 354.103L217.297 355.558L215.76 356.472L213.392 355.35L212.187 354.186L210.152 352.607L207.244 351.942L205.915 352.482L204.917 353.147L204.128 354.726L205.001 354.893L206.371 354.685L207.119 355.184L207.161 356.888L206.371 358.467L205.707 359.091L204.71 360.712L203.837 361.335L202.508 361.502L201.469 361.086L200.182 360.171L198.437 358.052L197.938 356.431L197.731 353.978L197.44 353.188L196.9 352.44L196.152 352.108L195.155 351.942L190.751 352.773L189.92 354.269L189.256 356.098L187.553 357.012L186.057 358.55L185.309 359.714L183.564 361.377L183.066 362L181.82 364.702L179.576 367.82L177.458 370.023L176.211 370.688L174.674 371.02L171.475 371.56L167.778 369.607L167.113 368.983L165.285 366.905L163.375 365.949L162.876 365.533L162.502 364.868L162.004 363.081L161.588 362.167L160.425 360.546L157.517 357.885L156.104 356.181L153.903 351.484L153.03 350.154L152.324 349.739L150.787 349.448L150.039 348.783L149.375 347.452L149.208 346.538L149.291 345.457L151.078 346.954L151.992 347.286L152.656 345.915L154.027 343.919L154.609 343.504L155.731 343.13L156.021 342.257L155.523 341.342L154.235 340.844L153.196 341.093L151.659 342.298L150.538 342.174L149.208 340.428L149.499 338.433L149.291 336.729L144.514 335.44L145.262 333.985L147.048 332.24L148.087 330.702L145.386 330.785L143.143 328.125L141.814 324.425L141.897 321.308H142.561L143.226 322.181L144.389 322.721L142.686 314.657L141.897 312.662L140.11 311L137.369 309.503L134.751 309.212L133.297 311.332L132.716 310.085L132.757 308.672L134.544 307.342L135.375 306.386L134.835 305.929L133.921 305.471L133.38 304.432L133.007 303.185L132.425 302.229L131.303 300.941L125.986 292.96L125.03 292.503L123.867 292.586L122.372 293.043L119.796 293.21L116.099 288.471L115.849 287.598L120.502 275.461L120.585 273.466L120.419 272.676L119.131 268.811L122.081 270.806L130.099 274.256L132.134 275.461L135.748 278.745L138.033 279.202L139.612 278.703L142.312 276.916L143.766 276.334L148.751 275.877L150.787 275.336V274.173L149.873 269.6L149.624 268.146L149.998 265.984L151.161 262.95L158.846 256.549L159.968 255.51L160.799 254.138L161.464 252.808L161.713 249.316L162.585 247.654L162.336 247.488L162.502 246.074L162.876 244.661L162.461 243.622L162.627 242.708L162.294 241.793L160.674 241.377L160.55 238.717L159.303 237.637L155.98 233.979L155.897 233.148L155.938 229.282L155.398 225.499V224.502L156.229 217.436L156.312 213.736L157.06 210.661L157.185 208.707L157.102 206.878L156.852 205.673L157.309 204.592L158.306 203.387L158.971 200.893V199.646L158.514 197.734L158.639 196.653L159.636 192.164L159.594 190.086L159.137 188.257L158.556 187.218L157.808 186.303L156.188 184.765L153.529 183.352L151.992 182.313L151.078 181.315L149.873 178.905L149.084 176.951L146.924 166.227L146.799 165.396L147.297 157.083L148.128 151.846L149.333 146.525L151.327 142.244L152.158 140.914L153.238 139.667L154.567 137.713L155.066 135.219L154.277 129.816L156.312 124.911L157.102 123.456L158.389 122.625L159.885 122.334L159.511 125.202L159.802 128.569L160.591 132.102L161.63 134.056L163.042 134.305L166.241 133.016L169.647 132.892L189.547 141.33L203.63 144.488L210.609 147.44L213.766 147.564L222.864 145.611L230.217 146.276L233.831 145.32L235.078 145.361L236.116 145.694L238.069 146.567L241.392 147.149L242.14 147.107L242.68 146.816L243.636 145.777L244.092 145.528L245.546 145.694L246.71 146.4L247.831 147.273L249.119 147.897L251.653 148.229L261.748 146.816Z" fill="#009649" stroke="white" stroke-width="2" stroke-linejoin="round"></path>
<path class="region active" data-country-region="West Region" d="M149.333 146.525L148.128 151.846L147.297 157.083L146.799 165.396L146.923 166.227L149.084 176.951L149.873 178.905L151.078 181.316L151.992 182.313L153.529 183.352L156.187 184.765L157.808 186.303L158.555 187.218L159.137 188.257L159.594 190.086L159.636 192.164L158.639 196.653L158.514 197.734L158.971 199.646V200.893L158.306 203.387L157.309 204.592L156.852 205.673L157.101 206.878L157.185 208.707L157.06 210.661L156.312 213.737L156.229 217.436L155.398 224.502V225.5L155.938 229.282L155.897 233.148L155.98 233.979L159.303 237.637L160.55 238.717L160.674 241.378L162.294 241.793L162.627 242.708L162.461 243.622L162.876 244.661L162.502 246.074L162.336 247.488L162.585 247.654L161.713 249.317L161.463 252.808L160.799 254.138L159.968 255.51L158.846 256.549L151.161 262.95L149.998 265.984L149.624 268.146L149.873 269.6L150.787 274.173V275.336L148.751 275.877L143.766 276.334L142.312 276.916L139.612 278.703L138.033 279.202L135.748 278.745L132.134 275.461L130.099 274.256L122.081 270.806L119.131 268.811L117.012 267.896L114.769 267.397L112.36 267.19L104.923 267.979L102.472 267.522L100.52 266.608L98.6089 265.361L95.1609 262.368L94.2885 261.329L94.0392 260.456L94.4546 258.295V257.256L94.0808 256.383L92.2529 254.055L91.4636 251.603L88.1817 248.444L86.1045 245.659L85.3983 245.077L83.7781 244.246L81.9918 244.121L81.0778 245.326L79.8731 246.158L74.0986 248.901L72.4369 249.275L70.6921 248.984L69.9858 248.61L68.6565 247.654L66.4962 246.49L65.9146 245.991L64.5022 243.83L64.0867 242.334L64.3775 241.502L65.4161 239.964L65.7069 239.05L65.4992 238.676L65.2915 237.055L65.1253 236.639L64.6268 232.773L62.5496 229.947L59.6001 228.16L57.6891 227.703L56.7336 229.989L55.3627 232.067L53.4102 232.192L48.9651 230.654L43.1491 230.404L41.1135 229.947L34.4666 224.627L10.9117 212.24L8.29453 211.658L8.12836 210.993L7.2975 209.538L6.17584 208.125L6.05121 207.626V202.514L5.80195 201.89L4.47258 200.56L3.60018 198.524L2.10463 197.9L0.401367 197.401L0.899883 194.409L1.60611 192.621L2.81086 190.917L3.22629 186.594L4.22332 186.179L5.34498 185.971L5.96813 185.056L6.09275 183.685L6.38355 182.521L6.96516 181.814L8.12836 182.022L8.95922 180.235L10.2055 178.988L11.0779 177.699L10.8287 175.829L9.66545 172.421L9.25002 171.548L8.7515 171.049V170.592L13.1966 168.139L14.8583 167.557L16.6031 167.724L18.0571 168.763L19.345 170.425L20.1343 172.337L20.2174 174.166L21.2975 174.208L25.0779 175.247L26.5734 175.372L27.4043 174.748L29.0245 171.839L32.1402 167.724L33.2619 165.438L33.5111 162.819L35.5883 160.2L36.6684 157.249L37.4162 150.765L37.1669 145.154L38.0393 143.533L41.1135 142.992L42.5675 143.366L45.3924 144.489L48.6328 145.403L49.6298 145.154L50.2945 144.738L51.3746 143.491L52.2054 143.158L55.3627 143.283L58.063 143.782L63.4636 145.819L68.8226 146.359L69.5289 145.819L70.4428 143.657L71.0244 142.951L71.7722 142.826L72.9354 143.366L79.0837 145.528L81.3686 145.694L80.0392 143.574L81.701 143.2L81.9502 142.244L81.701 140.914L81.784 139.584L82.5734 138.503L85.9383 136.009L86.603 135.053L86.8107 134.056L86.603 133.1L85.9383 132.31L94.8285 132.601H104.508L108.205 133.515L108.496 137.298L110.781 142.369L113.648 145.195L119.63 141.745L125.03 142.992L133.588 145.819H142.437L149.333 146.525Z" fill="#009649" stroke="white" stroke-width="2" stroke-linejoin="round"></path>
<path class="region" data-country-region="East Region" d="M295.273 261.745L295.647 259.458L295.689 258.586L294.401 256.923L293.487 253.598L293.196 251.145L293.279 249.898L292.864 248.236L292.199 246.739L292.241 245.077L292.905 244.37L293.529 244.079L295.481 243.664L296.063 243.331L295.481 242.791L293.321 242.167L292.781 241.461L293.362 240.796L295.813 239.299L297.392 237.928V237.263L296.27 236.805L295.232 236.972L293.986 237.554L290.994 240.047L288.751 239.632L281.356 235.766L282.063 234.602L282.769 233.937L284.098 230.571L287.131 229.199L289.084 227.827L287.837 225.874L288.834 224.793L289.457 224.585L289.914 223.671L289.748 222.923L288.71 221.551L286.757 219.805L288.253 218.724L288.377 217.519L287.879 215.191L286.799 214.693L285.802 214.609L285.137 214.194L284.431 213.362L284.514 212.656L285.386 211.783L286.175 210.661L287.131 208.832L288.377 205.548L286.757 204.675L285.719 203.636L285.262 202.597L284.14 201.184L284.098 200.436L286.175 199.396L286.466 198.856L286.591 196.986L287.546 195.323L287.588 194.575L287.214 193.369L286.716 192.621L285.76 192.164L283.018 192.039L281.398 192.247L280.9 192.039L280.318 190.252L280.983 185.098L280.65 180.692L280.027 178.655L278.864 174.208L268.187 175.33L265.612 174.166L259.754 164.398L260.751 160.824L261.54 159.161L262.496 157.706L262.787 156.75L262.828 155.42L261.499 151.097L261.748 146.816L262.538 146.733L265.362 145.694L279.736 143.366L284.721 143.533L285.843 143.366L287.796 142.327L288.751 142.286L293.072 144.572L306.365 148.645L309.855 149.061L310.727 148.936L312.555 148.313L314.549 147.938L316.086 146.692L316.834 146.359L318.413 146.484L319.036 147.232L319.659 148.354L321.113 149.56L322.609 149.934L324.894 150.017L327.012 149.726L327.926 148.811L328.383 147.19L329.422 147.149L331.374 147.98L331.997 147.481L332.537 146.276L333.119 145.736L334.49 145.528L338.81 145.943L348.407 144.738L353.392 145.486L357.463 144.198L360.371 144.322L363.238 145.029L365.647 145.985L366.353 146.567L367.226 147.98L367.766 148.52L368.472 148.728L369.76 148.811L370.882 149.476L372.086 149.102L372.834 149.227L373.416 149.767L374.745 151.513L375.991 152.594L377.071 153.384L378.276 153.924L379.896 154.298L384.549 154.963L385.339 155.545L386.751 157.582L389.285 158.662L391.528 159.992L392.027 162.819L394.312 163.567V163.9L397.22 166.061L398.051 166.477L398.425 166.934L397.677 167.64L399.879 168.596L400.709 169.428L401.416 171.007L401.706 172.753L401.416 173.834L400.169 175.787L396.971 176.66L391.487 178.489L390.614 178.364L389.95 178.073L389.576 177.575L389.493 176.826L383.386 173.086L379.938 171.922L377.321 173.086L376.864 174.748L377.238 176.494L378.401 179.694L378.567 181.274L378.525 182.812L378.318 184.35L373.748 197.235L372.876 201.059L372.46 204.426L372.003 205.922L371.048 207.377L369.76 208.416L368.389 209.247L367.267 210.37L366.81 212.24L367.309 218.226L366.977 221.052L365.232 223.421L362.947 224.502L360.33 224.71L352.852 224.045L352.727 225.209L354.763 228.575L354.846 229.905L353.101 229.199L351.149 227.827L350.318 227.079L348.324 227.744L348.033 229.49L348.988 233.439L348.905 235.351L346.953 243.747L346.288 245.451L345.166 246.199L343.339 245.742L340.597 242.999L340.389 242.126L340.264 239.881L340.015 239.258L339.06 239.216L333.368 237.969L332.454 239.258L332.704 241.128L333.285 243.123L333.327 244.827L332.288 246.365L330.751 246.947L329.006 246.698L327.386 245.659L326.555 244.162L324.977 240.172L324.063 239.84L323.647 241.003L322.692 247.238L321.986 249.317L321.113 250.688L319.825 251.561L317.748 252.185L314.051 252.642L310.727 252.351L303.914 250.854L300.175 251.187L299.095 253.722L298.929 257.463L298.015 261.454L296.935 262.202L295.273 261.745Z" fill="#009649" stroke="white" stroke-width="2" stroke-linejoin="round"></path>
<path class="region" data-country-region="East Region" d="M351.813 483.704L355.054 490.063L355.884 493.888L355.677 495.924L354.846 499.998L354.638 502.159L353.849 503.863L351.855 503.946L349.611 503.531L347.867 503.78V504.32L348.282 505.027L348.324 505.775L347.243 506.357L346.288 506.274L345.499 505.734L345 504.944L344.626 503.24L344.335 502.575L344.377 501.868L345.748 499.831L345.997 498.834L346.039 496.548L345.582 492.641L343.671 486.198L344.169 482.623L345.042 480.711L345.873 479.838L346.87 479.922L348.157 480.961L348.614 482.208L348.199 483.704L347.534 485.242L347.243 486.572L348.656 484.868L349.196 482.54L349.113 480.088L348.448 477.926L350.068 477.719L351.522 477.303V479.34L351.813 483.704ZM343.048 481.709L342.3 482.623L341.552 481.002L342.965 472.98L342.3 468.034L342.632 466.371L343.297 465.124L345.416 462.713L345.914 463.295L346.039 464.085L347.119 467.701L347.243 469.073L346.953 470.611L345.706 473.063L345 476.43L343.048 481.709ZM275 446.295L273.297 447.417L271.054 447.293L269.641 446.919L268.603 446.212L268.063 444.799L270.638 441.681L272.3 439.104L272.923 437.483L273.712 432.786L273.795 425.97L274.336 418.405L275.873 418.155L278.988 419.776L280.941 421.481L281.647 423.891L282.977 425.138L283.89 428.63L283.932 430.874L284.347 434.033L282.893 436.984L282.021 438.481L280.276 441.931L278.448 443.469L277.16 444.342L275.997 444.591L275 446.295ZM281.938 412.378L279.653 412.502L277.825 411.339L278.698 408.637L281.855 407.265L285.552 406.184L286.508 408.055L285.635 410.299L283.766 411.546L281.938 412.378ZM317.416 417.116L313.137 417.615L310.312 416.035L307.653 412.128L306.157 408.263L305.617 405.145L307.695 400.199L309.564 399.201L317.54 409.718L318.163 413.874L317.416 417.116ZM295.273 261.745L293.778 261.495L292.199 262.16L290.994 263.241L290.08 264.53L287.006 270.016L286.632 271.388L286.674 272.718L287.712 275.004L288.086 276.251L287.795 278.08L286.009 283.442L285.095 285.063L283.433 285.894L281.73 286.06L280.318 286.559L279.487 288.43L279.861 290.549L281.273 291.339L282.769 291.88L283.309 293.376L282.52 294.955L281.273 294.872L280.152 294.997L279.819 297.366L280.235 299.07L282.852 303.975L283.517 305.721L284.264 308.921L285.095 310.542L285.843 311.249L287.422 312.205L288.003 313.12L288.211 313.868L288.626 316.278L289.831 320.435L290.745 322.43L291.908 323.303L293.071 323.594L293.362 324.176L292.988 324.966L292.074 325.839L291.451 326.753L291.617 327.501L292.49 329.288L294.567 345.042L295.73 349.074L297.89 351.983L300.882 352.773L301.214 349.572L299.552 341.384L299.511 337.02L300.009 334.734L301.006 333.362L303 333.279L304.703 334.65L306.033 336.521L306.739 337.851L307.071 337.103L307.653 337.892V339.597L308.982 340.927H309.19L309.813 343.961L310.229 344.959L312.306 352.108L312.763 354.602L313.012 354.893L313.843 355.142L314.092 355.475L314.217 358.384L314.591 359.382L315.754 360.67L316.917 361.128L318.122 361.377L319.368 361.959L319.908 363.04V363.996L320.199 364.328L321.653 363.497L322.193 362.79L322.941 361.044L323.73 360.712L325.641 361.211L327.511 360.629L329.92 360.088L331.042 359.382L331.706 358.634L333.202 357.22L333.825 356.514L335.362 354.228L335.445 352.898L335.861 352.524L337.232 352.565L338.603 351.069L338.976 350.196L338.644 349.032L337.481 346.039L336.151 339.347L334.822 336.23L334.324 332.323L336.027 327.501L338.644 322.929L340.97 319.77L342.424 318.481L347.368 316.32L348.822 315.281L349.985 313.992L352.021 310.542L352.146 306.677L349.778 295.329L349.653 291.589L349.819 289.469L350.401 288.222L351.647 288.139L352.769 289.51L353.89 291.339L357.629 295.62L359.042 296.327L361.119 295.787L362.656 294.415L365.605 290.342L367.059 288.679L370.84 287.349L372.626 290.092L373.54 293.833L374.745 295.537L376.116 294.207L377.237 289.677L378.733 288.804L380.602 289.801L380.81 291.921L379.772 296.078L380.021 299.361L383.427 310.501L383.967 315.281L384.383 316.736L384.84 317.525L386.003 318.648L386.502 319.479L386.668 320.227L386.502 321.599L386.626 322.264L387.083 322.887L388.246 323.843L388.62 324.342L388.703 325.215L388.454 327.127V328.125L388.911 329.746L389.326 330.702L389.41 331.699L388.786 333.445L387.166 336.812L386.792 338.308L386.709 342.174L388.994 356.015L388.911 362.79L389.617 366.074L391.279 368.609L394.27 369.856L395.558 371.477L396.347 379.084L396.97 382.035L398.05 383.49L400.46 385.61L401.415 387.064L401.831 388.561L402.454 396.084L402.246 401.695L402.579 403.358L403.742 406.392L403.867 408.055L409.101 439.769L408.976 442.222L407.938 442.72L406.608 442.679L405.528 443.635L407.564 450.161L408.727 456.562L408.976 458.266L410.264 464.127L410.513 467.036L408.976 481.834L410.264 504.861L410.513 507.313L411.469 512.135L414.668 521.944L415 523.898L414.169 525.436L412.424 527.265L410.347 528.678L408.519 528.803L407.439 527.597L406.816 525.602L406.11 521.736L404.365 517.829L402.08 517.33L399.089 517.954L395.267 517.58L393.232 516.873L392.276 516.374L391.528 515.543L390.905 513.881L390.697 512.259L390.323 510.68L389.16 509.1L386.252 508.103L382.846 512.259L380.021 512.218L378.525 512.426L377.528 514.338L376.324 518.453L373.789 522.069L373.332 523.773L373.291 525.643L373.956 529.468L373.831 531.338L373.042 535.702L373.54 537.407L374.205 538.737L376.324 540.732L377.445 543.641L381.101 546.759L380.519 550.458L380.395 554.448L380.769 558.356L381.724 561.889L384.3 565.837L384.715 566.835L384.923 568.664L386.585 573.693L387.208 574.94L387.499 575.938L387.291 576.977L386.543 577.725L385.961 577.392L385.505 576.727L384.341 575.48L382.264 570.493L376.157 559.27L374.62 553.035L374.039 552.038L369.344 548.047L368.472 546.8L367.018 543.974L366.021 542.436L362.033 537.739L361.41 536.16L361.285 534.123L362.033 527.93L361.867 525.602L361.368 523.773L356.424 514.629L355.552 513.714L354.597 513.174L353.724 511.761L353.101 510.056L352.81 508.477H353.35L354.056 509.059L354.721 507.355L355.801 505.526L357.255 504.487L358.917 505.11L357.795 504.029L356.923 502.284L356.424 500.247V498.46L357.214 497.379L358.46 496.215L359.291 494.844L358.917 493.222L360.288 491.601L360.537 490.895L360.163 489.939L360.703 489.024L360.537 488.193L359.873 487.57L359.374 487.362L359.956 485.491L359.623 485.283L358.419 488.609L357.38 489.98L355.884 489.939L355.178 488.817L355.427 487.279L355.926 485.741L355.884 484.618H355.261L354.804 486.281L353.973 486.156L353.143 484.993L352.81 483.579L353.101 481.418L353.89 480.878L355.054 480.628L356.424 479.34L355.884 478.675L354.389 479.755L353.766 478.966L354.306 477.511L356.424 476.638V475.973L352.27 476.305L349.113 477.303L348.282 476.472L348.448 474.186L349.362 472.107L350.982 471.276L350.276 470.278L350.65 469.364L351.605 468.616L352.81 468.034V467.327L351.855 467.41L351.024 467.868L350.318 468.533L349.778 469.405L349.279 468.2L348.864 466.205L348.448 462.381L348.199 461.425L346.911 459.97L346.62 459.097V455.44L344.335 445.547L344.169 442.18L345.125 442.596L344.959 441.515L344.169 441.681L343.505 442.928V444.799H342.965L342.009 443.136L341.095 441.016L340.555 438.647L340.472 436.236L340.887 434.74L342.508 433.077L342.965 432.204L342.84 430.625L342.051 429.794L341.095 429.378L340.472 428.838L340.181 426.427L341.76 425.263L344.086 424.556L346.039 423.517L346.994 421.813L349.071 414.913H347.243L347.036 416.368L346.163 420.109L346.33 420.857L345.706 421.397L344.668 422.52L343.338 423.642L341.76 424.182L341.469 424.681L339.267 425.886L338.603 426.842L338.852 428.38L339.807 429.129L340.929 429.544L341.76 430.168L341.718 432.038L340.181 433.202L338.229 433.036L336.858 430.874L335.279 419.776L334.324 416.243L328.258 404.231L316.792 388.104L313.926 386.94L312.347 385.485L311.101 383.739L310.395 382.201L309.689 382.575L309.107 382.118L308.692 381.121L308.525 379.874L308.733 378.71L309.564 377.504L310.146 374.678L311.558 370.563L311.6 368.235H310.935L310.644 370.064L309.107 375.135L308.193 376.216L306.241 376.839L304.994 378.419L304.537 380.58L304.828 382.908L303.457 381.869L302.128 381.245L300.632 380.954L298.68 380.871V381.578L300.591 382.16L300.798 383.074L299.926 383.905L298.347 384.321L293.695 384.404L295.315 384.945L296.769 385.61L297.475 386.192L297.226 387.605L296.063 388.436L294.567 388.81H293.03L290.288 388.228L289.582 388.311L289.457 387.937V386.192L288.336 385.776L287.006 385.61L283.932 385.568V386.192L285.054 387.189L285.469 388.27L284.846 388.976L282.769 388.893V389.6L287.962 390.972L290.33 391.969L291.327 393.923L291.036 395.17L290.33 396.541L289.291 400.282L287.463 402.028L285.801 403.4L283.433 404.065L279.03 404.979L275.623 403.275L273.837 400.656L272.882 396.5L271.968 395.336L271.012 393.632L270.015 390.639L269.267 389.808L267.938 390.223L269.267 391.595L270.514 394.297L271.22 397.123L271.012 398.994L269.184 399.908L266.276 400.365L263.576 400.241L262.371 399.243L261.831 397.913L259.38 396.126L258.798 395.253L258.508 394.38L257.22 392.593L256.514 389.808L255.517 389.392L252.899 389.6L252.484 389.06L251.404 385.568L250.698 384.986L249.202 384.113L248.62 382.368L247.333 380.539L247.042 379.874L246.917 378.876L245.837 376.216L245.172 372.891L244.466 371.186L243.635 369.732L242.971 368.111L242.721 365.908L242.264 364.702L235.327 355.225L234.371 352.648L234.164 351.526V350.445L235.202 344.501L235.327 340.47L235.825 338.308L236.822 336.438L237.57 334.609L237.196 332.78H237.778L236.282 329.579L236.199 328.291L237.196 327.46L236.49 327.21L236.531 326.711L234.247 327.501L232.751 325.464L231.879 322.555L231.629 320.684L231.754 314.948L232.502 312.704L234.704 311.332L239.938 311.374L242.057 310.21L242.098 306.594L241.683 305.264L240.893 304.682L241.683 303.476L243.677 302.188L244.591 301.19L243.926 300.068L244.3 299.237L245.38 298.696L246.751 298.53L246.959 298.031L246.169 296.909L243.802 294.457L244.591 293.667L245.256 292.337L245.339 291.63L245.131 290.924L244.217 289.843L242.929 288.928L242.638 288.305L242.804 287.432L244.217 285.271L246.045 280.449L246.169 278.994L245.671 276.874L245.712 276.085L246.585 274.796L247.748 273.882L248.953 273.549L251.695 273.674L252.401 273.591L254.146 272.759L256.804 274.505L257.843 274.796L258.674 274.339L259.92 273.3L263.327 268.561L265.155 264.446L265.612 262.036L265.238 260.165L266.027 257.838L267.066 256.84L268.52 255.925L270.264 253.93L270.929 251.852L269.184 250.813L269.849 249.4L268.229 247.072L268.353 246.615L267.979 244.703L268.52 244.37L270.555 243.664L273.546 239.549L274.751 240.505L275.416 240.754L276.039 240.671L276.288 239.881L276.122 238.759V237.761L276.911 237.304L278.656 237.138L280.193 236.598L281.356 235.766L288.751 239.632L290.994 240.047L293.985 237.554L295.232 236.972L296.27 236.805L297.392 237.263V237.928L295.813 239.299L293.362 240.796L292.781 241.461L293.321 242.167L295.481 242.791L296.063 243.331L295.481 243.664L293.528 244.079L292.905 244.37L292.241 245.077L292.199 246.74L292.864 248.236L293.279 249.898L293.196 251.145L293.487 253.598L294.401 256.923L295.689 258.586L295.647 259.459L295.273 261.745Z" fill="#009649" stroke="white" stroke-width="2" stroke-linejoin="round"></path>
<path class="region active" data-country-region="West Region" d="M101.143 481.335L100.063 483.039L97.3629 481.584L92.7932 476.139V475.723L93.3332 475.141L93.9148 473.313L93.8733 471.442L93.0009 468.242L92.7516 466.745L92.17 465.041L92.2531 464.127L93.3332 464.085L93.7071 464.334L94.2472 465.374L94.5795 466.745L95.4519 473.23L96.4905 476.098L98.5676 477.303L100.645 478.675L101.143 481.335ZM119.131 268.811L120.419 272.676L120.585 273.466L120.502 275.461L115.85 287.598L116.099 288.471L119.796 293.21L122.372 293.043L123.867 292.586L125.031 292.503L125.986 292.96L131.303 300.941L132.425 302.229L133.007 303.185L133.381 304.432L133.921 305.471L134.835 305.929L135.375 306.386L134.544 307.342L132.758 308.672L132.716 310.085L133.298 311.332L134.752 309.212L137.369 309.503L140.111 311L141.897 312.662L142.686 314.657L144.39 322.721L143.226 322.181L142.562 321.308H141.897L141.814 324.425L143.143 328.125L145.387 330.785L148.087 330.702L147.048 332.24L145.262 333.985L144.514 335.44L149.292 336.729L149.499 338.433L149.209 340.428L150.538 342.174L151.66 342.298L153.197 341.093L154.235 340.844L155.523 341.342L156.022 342.257L155.731 343.13L154.609 343.504L154.027 343.919L152.657 345.915L151.992 347.286L151.078 346.954L149.292 345.457L149.209 346.538L149.375 347.453L150.039 348.783L150.787 349.448L152.324 349.739L153.03 350.154L153.903 351.484L156.105 356.181L157.517 357.885L160.425 360.546L161.588 362.167L162.004 363.081L162.502 364.868L162.876 365.534L163.375 365.949L165.286 366.905L167.114 368.983L167.778 369.607L171.476 371.56L172.805 372.807L174.467 375.759L173.22 376.756L172.306 376.715L171.766 376.964L171.143 378.128L171.185 378.71L171.766 379.292L171.6 380.04L170.271 380.746L169.938 381.453V382.16L170.312 383.033L171.102 383.49L171.517 383.947L171.06 384.778L168.318 386.607L167.529 387.563V388.062L168.111 388.353L170.354 388.602L171.143 388.852L171.6 389.558L171.517 390.93L170.894 391.179L170.022 390.847L169.025 391.263L169.066 391.678L170.022 392.551L170.645 393.382L171.642 396.333L173.096 397.414L173.636 397.913L174.342 400.033L174.384 401.238L174.176 402.693L173.387 404.439L173.054 405.977L173.428 406.808L174.841 407.556L175.298 408.263L176.045 410.507L173.179 413.458L171.933 415.038L171.434 416.576L170.728 418.114L169.191 417.657L166.49 415.495L166.657 417.532L167.155 419.194L167.487 420.857L167.155 422.935L163.416 430.168L164.496 432.204L165.452 435.654L166.49 442.18L166.615 445.547L166.324 447.21L165.576 448.457L164.081 449.288L162.793 449.122L161.381 448.747H159.677V449.454L161.588 450.285L163.167 451.325L164.247 452.821L164.621 455.107L164.538 456.021L164.081 457.767V458.806L164.455 459.679L165.66 461.591L166.407 463.462L167.28 464.542L167.778 465.789L167.155 467.327L166.49 467.577L164.496 467.951L162.211 470.029L161.214 471.525L160.384 472.024L158.722 472.648L157.766 472.814L157.351 472.315L156.894 470.943L155.772 471.234L154.401 472.149L153.28 472.648L151.784 472.564L150.122 472.19L148.585 471.567L147.505 470.694L146.757 468.907L146.716 467.826L147.671 466.163L147.505 465.207L146.217 463.379L143.683 468.699L144.722 470.486L146.467 472.897L148.461 475.058L150.247 475.973L151.036 476.929L150.081 478.841L148.128 480.213L145.927 479.631L144.805 478.924H143.808L141.606 479.34L141.357 479.88L142.354 482.457L142.52 483.288L140.817 485.034L138.906 483.829L136.372 479.922L136.496 478.217L135.499 474.227L135.749 472.024L136.455 470.777L138.117 468.824L138.823 467.327L139.114 465.706L138.74 458.723L139.404 453.07L139.903 451.117L142.063 447.251L142.52 445.131L142.229 443.095L141.44 441.058L140.318 439.229L139.114 437.816L139.072 436.444L141.814 432.828L142.52 431.207L142.645 429.129L142.936 427.133L143.517 425.221L144.39 423.517L143.393 424.265L142.562 425.512L141.315 428.173L140.277 429.212L139.944 430.085L140.775 432.329L140.235 433.16L138.49 434.491L137.452 436.195L137.535 437.483L139.404 440.808L140.111 442.928L140.152 445.131L139.944 446.295L139.03 448.166L138.823 449.122L138.075 455.273L137.66 456.687L135.956 457.601L135.25 456.105L135.125 451.782L135.375 450.784L136.289 448.747L136.372 447.5L132.301 437.857L132.093 435.862L132.508 431.539L132.384 429.586L131.511 427.508H130.847L130.099 433.909L130.847 446.17H131.511L131.594 444.799L132.01 443.552L132.758 443.136L133.173 445.131L133.63 446.337L134.17 447.168L134.668 448.249L134.585 449.662L133.838 452.114L133.381 452.572L132.301 452.779L132.176 453.777L132.758 454.774L133.09 455.855L134.17 458.224L134.835 459.097L135.001 459.762L134.17 464.916L133.214 466.039L132.051 466.912L130.847 468.034L129.849 469.738L129.766 471.11L130.057 472.689L130.306 475.058L129.974 477.261L129.102 479.09L127.897 480.628L124.615 483.455L123.618 483.538L121.333 480.961L120.835 479.506L120.71 477.012L121.001 472.648L121.458 470.902L122.663 467.951L122.87 465.665L122.496 463.711L120.835 460.469L120.419 458.806H119.755L119.214 460.261L119.464 461.508L120.045 462.713L120.419 464.085V465.623L120.087 466.496L118.591 468.034L117.677 469.198L117.096 470.195L115.642 473.77L115.185 474.56L114.728 474.601L114.229 473.313H113.648L113.689 475.765L114.603 479.547L114.229 481.917L112.734 485.242L112.983 486.323L114.852 487.237L113.814 488.442L112.277 489.565L110.49 490.354L108.746 490.562L107.042 489.565L106.502 487.777L106.835 486.032L107.79 485.283L107.956 484.203L105.173 476.305L105.007 474.352L104.633 473.936L103.802 474.476L102.93 475.432L102.556 476.305L102.016 476.721L100.852 476.388L98.8584 475.349L97.9445 474.56L97.5706 473.936L95.3273 466.039L95.1611 464.418L95.3688 462.422L96.3243 458.349L96.3659 456.105L95.7427 454.068L93.7487 451.325L93.3332 449.787L93.8733 445.339L93.5825 443.552L95.1611 441.474L94.9949 439.146L94.4964 437.234L93.7487 435.613L89.8436 430.459L88.9712 428.422L90.259 427.508L88.805 424.931L88.3065 423.767L87.2264 418.571V417.657L87.4757 416.659L88.2234 415.37L88.3896 414.581L88.0157 412.336L86.354 408.471L85.5647 404.896L84.4846 404.023L81.7012 402.942L83.6953 401.571L84.2353 399.326L83.8614 396.708L82.989 394.214L81.8674 392.177L81.535 390.016L81.2027 388.769L80.1226 385.942L79.9148 384.196L80.538 382.866L81.535 381.619L82.4905 380.123L82.9059 378.834L83.2383 376.922L83.4045 375.052L83.1967 373.722L82.1582 372.766L79.6656 371.935L78.627 370.646L76.716 366.074L75.7605 364.536L74.0573 362.375L73.6834 361.294L73.7665 359.382L74.5973 356.597L74.8051 351.568L76.0513 349.115L80.9119 343.919L83.3214 341.883L84.1107 340.968L84.5677 339.929V339.139L84.0691 338.682L81.6181 338.765L80.0395 338.183L73.7665 335.981L72.2709 335.69L71.0662 335.856L69.6953 336.937L68.989 337.311L68.0336 337.269L62.1345 335.357L60.9297 334.276L60.0573 332.406L59.9742 330.286L60.8051 328.374L62.9653 324.883L67.3273 313.244L67.535 311.166L66.3303 310.168L65.1671 311.083L64.1285 312.745L63.0069 313.161L61.6775 310.542L60.6805 310.085L58.0632 308.256L56.5677 306.635L54.449 302.811L53.1196 301.356L52.4134 301.19L50.6271 301.398L49.7131 301.024L48.8407 300.068L48.7992 299.403L49.09 298.655L49.2561 297.449L48.7992 297.075L47.8852 296.867L47.0544 296.452L46.8882 295.371L48.7992 286.435L48.6745 285.52L48.0098 284.024L48.0514 283.109L48.4668 282.07L49.7962 279.95L50.2532 278.828V277.955L49.9624 276.168L50.2532 275.212L51.7072 274.09L53.452 274.006L55.3214 274.173L57.0247 273.799L58.2294 272.843L61.6359 269.476L62.5083 268.354L62.7991 266.608L62.5499 264.488L62.0098 262.618L61.3867 261.454L62.5083 259.542L63.5469 258.17L63.5054 257.214L61.3451 256.715L61.0543 255.468L59.3511 254.014L58.9356 252.891L59.0603 251.977L59.6003 249.94L59.725 248.776L59.3095 246.781L59.268 245.825L59.808 244.62L60.6805 243.747L62.6745 242.999L64.087 242.334L64.5024 243.83L65.9149 245.991L66.4965 246.49L68.6567 247.654L69.9861 248.61L70.6923 248.984L72.4371 249.275L74.0988 248.901L79.8733 246.158L81.078 245.326L81.992 244.121L83.7783 244.246L85.3985 245.077L86.1047 245.659L88.1819 248.444L91.4638 251.603L92.2531 254.055L94.081 256.383L94.4549 257.256V258.295L94.0394 260.456L94.2887 261.329L95.1611 262.368L98.6092 265.361L100.52 266.608L102.473 267.522L104.924 267.979L112.36 267.19L114.769 267.398L117.013 267.896L119.131 268.811Z" fill="#009649" stroke="white" stroke-width="2" stroke-linejoin="round"></path>
</svg>