<svg width="461" height="581" viewBox="0 0 461 581" fill="none" xmlns="http://www.w3.org/2000/svg">
<path class="region" data-country-region="Central Region" d="M315.689 187.845L310.585 184.812L306.308 178.101L303.043 175.252L299.778 174.378L298.858 176.677L297.248 178.423L294.029 178.975L288.833 185.639L285.154 187.156L281.934 186.375L279.267 183.755L276.784 183.111L274.208 182.973L274.438 177.642L275.404 173.321L271.679 170.288L270.483 167.346L268.736 165.416L261.424 161.279L264.781 151.489L272.093 146.111L281.658 147.904L284.97 138.022L288.097 136.275L291.316 134.988L291.27 133.288L289.2 132.46L291.5 129.151L300.651 130.668L301.295 127.772L302.813 125.796L305.112 126.393L307.366 127.267L306.354 122.762L304.652 119.177L309.619 120.694L314.54 124.969L314.494 130.162L309.619 142.067L309.021 146.387L309.619 157.234L310.631 162.428L311.596 164.313L311.367 166.657L310.447 169.874L311.275 173.275L314.218 177.688L314.908 179.802L314.954 183.847L315.413 187.156L315.689 187.845Z" fill="#009649" stroke="white" stroke-width="2" stroke-linejoin="round"></path>
<path class="region" data-country-region="Central Region" d="M284.741 250.907L283.315 257.387L284.097 263.179L288.558 266.534L291.639 271.498L285.89 274.302L279.912 273.152L274.255 266.718L268.001 263.041L268.139 268.648L277.658 277.611L282.395 279.587L279.498 286.62L274.117 286.895L270.99 284.735L267.725 283.402L265.426 285.103L263.586 287.401L258.665 284.184L255.446 277.841L251.675 277.979L247.49 277.565L244.593 274.072L240.684 275.68L238.339 274.991L236.269 273.382L233.648 273.704L231.165 275.129L227.164 274.577L225.186 269.521L226.566 267.131L227.532 264.374L225.922 261.524L224.267 259.639L226.29 257.066L232.59 256.468L235.902 254.905L242.478 248.792L244.961 245.667L244.363 240.887L242.248 238.497L241.098 235.693L248.916 228.523L254.802 227.833L257.286 225.995L259.585 227.787L262.023 228.201L264.368 225.903L267.127 226.133L268.691 230.223L269.795 234.866L271.496 239.646L273.979 243.415L278.026 242.082L281.107 242.495L282.717 246.954L284.741 250.907Z" fill="#009649" stroke="white" stroke-width="2" stroke-linejoin="round"></path>
<path class="region" data-country-region="Central Region" d="M304.651 119.177L306.353 122.762L307.364 127.266L305.111 126.393L302.812 125.795L301.294 127.772L300.65 130.667L291.499 129.15L289.199 132.46L291.269 133.287L291.315 134.988L288.096 136.275L284.968 138.021L281.657 147.903L272.092 146.111L264.78 151.488L257.698 148.776L251.351 143.996L249.42 136.596L244.821 134.068L242.89 132.414L240.958 131.954L239.992 133.287L238.935 134.252L237.417 126.393L243.993 118.165L247.396 119.177L250.891 117.292L255.904 118.441L260.043 123.129L264.78 127.174L268.965 124.095L267.355 120.372L267.493 116.189L270.804 109.295L275.679 105.663L278.024 105.572L280.278 104.79L282.163 102.124L282.945 101.481L284.095 99.7803L287.728 103.182L290.027 107.916L289.843 112.604L294.028 115.959L304.651 119.177Z" fill="#009649" stroke="white" stroke-width="2" stroke-linejoin="round"></path>
<path class="region" data-country-region="Central Region" d="M331.924 242.771L333.533 245.483L335.557 251.963L333.487 252.929L331.05 258.536L326.819 261.018L324.474 263.914L322.45 267.361L321.208 270.302L323.232 270.808L325.071 272.095L328.428 275.542L329.164 274.071L331.51 271.268L332.567 267.958L333.993 268.142L335.603 268.786L336.89 268.326L337.488 266.028L336.706 263.914L335.649 261.891L335.557 259.823L336.706 258.536L338.362 258.49L339.971 259.455L340.983 261.156H341.811L343.099 258.582L344.8 259.363L346.64 261.34L348.479 262.443L350.181 262.811L350.365 263.73L347.421 265.063L345.306 269.613L344.708 277.381L344.754 285.286L345.444 290.756L343.604 294.295L339.604 292.411L335.925 289.699L331.556 291.445L327.233 292.273L323.508 282.575L319.599 281.609L315.828 283.907L313.253 288.32L311.091 288.274L308.838 287.768L309.849 281.471L307.918 278.392L306.952 282.023L305.573 284.597L299.64 276.232L294.903 275.91L291.638 271.498L288.557 266.534L284.096 263.178L283.314 257.387L284.74 250.906L286.856 249.389L286.304 243.92L289.615 238.91L294.627 239.737L299.962 236.796L304.929 232.383L310.447 230.315L315.046 225.765L321.484 232.935L322.22 237.945L321.806 242.495L326.589 244.931L331.924 242.771Z" fill="#009649" stroke="white" stroke-width="2" stroke-linejoin="round"></path>
<path class="region" data-country-region="North Region" d="M242.523 96.9771L246.432 98.8156L247.581 104.469L246.386 112.926L243.994 118.166L237.418 126.393L238.936 134.253L239.993 133.288L240.959 131.955L242.891 132.414L244.822 134.069L249.421 136.597L251.352 143.997L247.535 150.891L243.673 156.499L241.465 155.258L239.212 153.603L236.59 154.844L234.521 157.142L231.118 153.465L227.439 150.294L217.505 148.455L217.735 144.319L219.529 139.079L215.114 138.114L210.331 137.792L207.894 133.839L205.503 128.829L202.146 129.932L199.708 130.116L198.788 125.658L195.753 124.83L195.017 122.762L194.558 120.188L192.672 117.844L190.511 115.73L192.442 111.731L192.12 109.893L191.246 108.514L190.051 103.963L190.557 99.3211L199.524 97.7584H208.676L213.045 98.218L217.23 97.2528L219.069 93.4839L221.368 94.4491L223.668 96.0118L229.876 98.5857L232.406 97.8044L234.935 96.4255L238.706 98.9994L242.523 96.9771Z" fill="#009649" stroke="white" stroke-width="2" stroke-linejoin="round"></path>
<path class="region" data-country-region="Central Region" d="M385.407 297.191L374.692 297.513L372.484 299.121L372.208 298.708L369.081 297.88L366.506 298.846L364.023 300.73L361.263 302.155L357.86 301.833L355.561 300.225L353.445 297.651L351.79 294.571L350.732 291.262L352.526 291.997H354.595L356.711 291.308L360.068 289.193L360.85 288.964L360.941 287.539L360.39 286.298L359.7 283.402H360.528L361.907 284.23L362.091 281.748L361.493 276.186L360.712 274.669L355.193 269.016L351.974 267.453L350.732 266.396L350.18 265.063L350.364 263.73L351.238 263.317L348.341 252.102L351.744 247.184L356.067 243.139L357.538 241.392L358.642 239.186L358.182 234.636L360.62 231.281L361.953 233.487L363.701 235.095L365.678 236.061L367.794 236.244L369.909 235.601L372.162 233.395L373.082 230.729L373.68 227.787L375.014 224.754L377.635 224.478L380.256 224.662L382.694 225.535L384.901 227.512L386.649 230.821L387.844 235.325L387.982 239.784L386.465 243.093L383.246 244.794L382.786 248.976L384.119 259.042L383.338 263.776L381.452 266.028L378.647 266.856L375.014 267.223L374.6 268.372L375.014 269.567L379.015 277.105L380.118 278.3L381.544 277.105L382.694 274.623L384.211 272.463L386.649 272.233L388.396 273.428L389.914 275.451L390.834 278.071L390.972 281.012L389.96 283.586L388.396 285.379L386.971 287.493L386.005 294.663L385.407 297.191Z" fill="#009649" stroke="white" stroke-width="2" stroke-linejoin="round"></path>
<path class="region" data-country-region="South Region" d="M319.506 385.302L314.861 387.048L305.112 393.667L302.445 397.804L301.663 403.135L302.675 410.076L304.974 419.038L305.112 422.026L304.33 425.427L303.41 428.139L303.502 430.713L305.756 433.701L310.125 437.837L307.319 442.25L301.249 448.133L300.513 443.537L301.065 438.389L297.018 435.079L292.051 436.458L289.292 435.309L287.269 432.597L287.453 430.253L287.867 428.093L286.579 423.681L282.854 422.669L280.968 418.992L277.979 418.579L276.416 423.083L273.61 422.991L275.082 417.66L278.715 414.442L280.646 407.869L281.29 400.745L285.705 399.964L287.315 396.976L287.223 391.737L291.086 389.117L293.845 388.749L295.776 386.313L297.018 383.325L301.433 379.465L303.226 376.385L305.986 374.638L308.883 374.087L318.172 374.547L320.61 376.339L319.506 385.302Z" fill="#009649" stroke="white" stroke-width="2" stroke-linejoin="round"></path>
<path class="region" data-country-region="South Region" d="M243.259 399.044L243.903 402.997L241.512 405.984L242.385 409.431L248.272 413.89L248.548 417.98L247.076 423.45L246.018 429.241L247.122 434.941L246.662 440.318L243.259 444.409L239.488 447.764L237.649 451.028L239.442 454.015L239.856 457.554L239.12 461.277L232.958 463.529L226.658 463.392L221.553 459.485L216.356 459.623L214.931 462.748L212.907 465.184L207.941 462.794L201.778 462.472L196.03 460.404L198.191 454.061L198.973 449.373L200.491 445.006L200.077 443.352L198.467 440.962L196.076 437.009L195.8 435.4L198.835 434.297L199.157 433.286L198.697 430.069L199.249 428.736L203.204 426.943L204.813 425.426L206.745 420.83L206.653 418.532L206.101 414.671L206.423 413.292L207.987 412.741L208.63 411.959L209.366 406.168L211.206 404.881L211.528 405.295L214.103 406.168L216.494 404.605L218.242 401.756L221.001 400.836L223.438 399.549L225.692 400.147L225.784 404.1L230.751 406.168L235.165 402.445L235.763 398.998L237.649 397.389L240.454 397.849L243.259 399.044Z" fill="#009649" stroke="white" stroke-width="2" stroke-linejoin="round"></path>
<path class="region" data-country-region="Central Region" d="M249.605 209.494L251.169 216.664L258.389 221.352L257.285 225.995L254.802 227.833L248.915 228.523L241.098 235.693L242.247 238.496L244.363 240.887L244.961 245.667L242.477 248.792L235.901 254.905L232.59 256.468L226.289 257.065L224.266 259.639L220.633 259.501L217 258.674L213.413 256.514L209.734 255.227L201.042 249.987L193.454 241.576L197.593 236.06L202.192 233.349L196.719 231.878L192.902 226.776L197.777 224.294L205.227 218.043L208.63 216.986L210.93 214.182L211.068 209.126L216.218 206.323L221.645 210.092L223.714 210.505L225.83 210.459L229.417 208.988L230.612 209.034L231.992 209.908L236.591 208.713L241.189 205.633L245.88 205.036L249.605 209.494Z" fill="#009649" stroke="white" stroke-width="2" stroke-linejoin="round"></path>
<path class="region" data-country-region="South Region" d="M308.422 327.296L310.768 338.971L314.769 348.163L321.667 359.056L328.565 361.584L334.083 366.456L336.061 372.845L336.107 377.855H333.44L321.989 384.382L319.505 385.301L320.609 376.338L318.172 374.546L308.882 374.086L305.985 374.638L303.226 376.384L301.432 379.464L297.017 383.325L295.776 386.312L293.844 388.748L291.085 389.116L287.222 391.736L287.314 396.976L285.704 399.963L281.289 400.745L275.771 396.47L263.906 389.116L258.066 384.566L258.434 378.958L257.192 374.362L256.456 372.248L258.296 369.582V366.686L258.617 363.974L259.583 361.952L260.273 359.792L258.158 357.172L257.836 353.035L260.871 347.152L262.71 338.695L266.435 337.04L269.747 334.283L273.38 331.893L277.243 330.652L276.599 326.975L277.656 323.527L283.451 328.813L289.383 328.997L292.51 328.721L295.638 329.227L297.845 327.112L300.052 325.688L304.329 329.502L306.031 330.054L308.422 327.296Z" fill="#009649" stroke="white" stroke-width="2" stroke-linejoin="round"></path>
<path class="region" data-country-region="Central Region" d="M333.532 245.483L331.923 242.771L328.565 237.118L329.623 236.152L335.004 234.038L336.935 239.37L333.532 245.483Z" fill="#009649" stroke="white" stroke-width="2" stroke-linejoin="round"></path>
<path class="region" data-country-region="Central Region" d="M277.657 323.528L276.599 326.975L277.243 330.652L273.38 331.893L269.747 334.283L266.436 337.041L262.711 338.696L260.872 347.153L257.836 353.036L256.871 345.544L252.456 343.706L247.397 346.969L242.798 347.98L238.476 343.844L233.647 342.603L232.129 347.475L230.106 347.613L228.542 348.854L231.164 352.485L230.704 356.162L230.98 358.184L231.991 360.528L230.75 362.091L224.081 363.699L221.184 362.229L220.08 358.092L215.896 359.149L213.596 360.114L212.171 354.231L204.859 339.477V335.892L199.57 326.791L197.454 321.46L197.822 317.645V316.22L196.351 314.336L196.489 312.083L196.397 309.877L194.235 308.406L195.339 305.511L195.293 305.051L196.443 305.373L210.745 307.855L215.022 301.006L220.908 294.985L224.127 294.204L226.427 290.941L225.507 288.091L224.219 285.517L226.289 281.656L233.141 291.032L234.889 294.801L233.555 300.133L236.958 301.926L242.109 294.342L245.742 286.482L241.833 283.587L243.212 281.564L245.144 280.369L249.329 284.782L253.698 287.677L253.33 291.078L252.41 294.158L258.388 300.914L264.919 306.522L266.39 308.314L266.988 311.072L267.08 313.876L267.908 316.22L270.253 314.611L272.277 311.578L276.14 315.577L277.657 323.528Z" fill="#009649" stroke="white" stroke-width="2" stroke-linejoin="round"></path>
<path class="region" data-country-region="South Region" d="M429.602 375.006L428.544 374.041L425.876 370.501L425.463 369.766L423.531 369.72L421.876 369.398L420.634 368.249L419.714 365.859L414.931 369.306L413.46 369.766L409.183 367.376L407.251 367.146L408.217 364.618L409.827 362.734L411.712 361.401L413.46 360.527L411.252 354.874L410.011 353.587L407.251 352.76L405.09 353.725H404.032L403.572 352.162L403.021 351.657L401.687 351.427L399.204 351.565L397.318 348.485L392.673 347.336L389.914 344.578L386.649 342.51L384.487 334.283L381.682 331.019L381.498 331.295L379.015 330.422L377.865 328.721L376.854 329.87L375.198 329.365L373.496 325.688L371.013 323.39L369.817 316.679L373.818 313.232L374.37 310.842L374.094 309.049V304.453L373.68 300.914L372.485 299.121L374.692 297.513L385.407 297.191L385.177 300.133L386.327 302.247L387.063 302.431L390.374 302.109L391.57 302.752L393.593 305.142L394.743 306.154L396.858 306.889L401.135 307.257L403.113 307.992L405.274 310.152L408.309 315.162L410.701 316.909L414.839 317.552L418.656 317.185L422.381 317.644L426.106 320.816L426.75 322.103L427.762 325.596L428.406 326.607L429.556 326.745L432.039 325.32L433.418 326.147L433.74 327.388V331.479L433.924 333.272L434.43 334.651L436.408 338.833L436.638 342.372L435.534 354.185L435.028 356.437L433.924 359.93L433.832 362.458L434.338 364.388L435.948 368.295L436.224 370.088L434.706 374.178L431.855 374.776L429.602 375.006Z" fill="#009649" stroke="white" stroke-width="2" stroke-linejoin="round"></path>
<path class="region" data-country-region="South Region" d="M429.602 375.005L430.016 379.234L431.855 381.486L437.604 383.968L438.523 386.22L439.811 386.358L441.421 385.347H442.156L444.042 387.323L445.652 390.633L444.64 392.287L450.664 397.067L452.872 399.687L454.159 398.584L456.137 398.217L458.252 398.584L460 399.687L456.827 405.571L453.423 408.926L447.675 409.937L432.177 409.018L430.062 409.477L427.762 410.81L422.934 415.131L420.358 415.498L417.737 412.603L417.507 411.316L417.553 407.639L417.369 405.938L416.725 404.33L414.012 400.055L407.16 393.482L405.458 390.541L405.412 395.872L403.987 398.676L401.365 399.687L397.686 399.733L396.812 400.928L397.502 405.571L396.491 408.65L394.743 410.443L392.628 411.27L390.374 411.04L388.351 409.799L386.557 407.409L384.764 403.226L382.924 401.572L381.085 400.882L376.992 400.101L375.014 399.274L374.233 397.941L374.003 396.47L374.278 395.045L375.704 392.195L375.98 390.908L375.75 389.667L375.014 388.472L371.841 388.059L371.473 385.715L370.14 381.026L367.196 377.349L366.645 373.81L368.162 370.363L368.116 367.605L368.346 364.986L371.703 361.722L375.382 359.332L377.636 360.022L379.843 360.435L381.591 357.31L383.016 354.184L385.178 354.138L387.063 353.495L387.707 348.071L386.649 342.51L389.914 344.578L392.674 347.336L397.318 348.485L399.204 351.564L401.687 351.427L403.021 351.656L403.573 352.162L404.033 353.725H405.09L407.252 352.759L410.011 353.587L411.253 354.874L413.46 360.527L411.713 361.4L409.827 362.733L408.217 364.618L407.252 367.146L409.183 367.376L413.46 369.766L414.932 369.306L419.714 365.859L420.634 368.249L421.876 369.398L423.531 369.72L425.463 369.766L425.877 370.501L428.544 374.04L429.602 375.005Z" fill="#009649" stroke="white" stroke-width="2" stroke-linejoin="round"></path>
<path class="region" data-country-region="North Region" d="M176.944 147.766L169.08 147.306L163.285 144.962L163.101 141.331L161.768 138.389L168.712 135.678L175.426 132.23L178.553 137.562L183.336 136.689L187.383 138.849L188.119 146.295L188.716 148.639L187.521 150.983L185.451 152.96L183.014 153.006L180.577 147.444L176.944 147.766Z" fill="#009649" stroke="white" stroke-width="2" stroke-linejoin="round"></path>
<path class="region" data-country-region="North Region" d="M175.288 58.1849L189.544 67.6532L194.511 73.7662L196.074 82.0855L193.361 84.3376L189.958 85.9463L186.555 92.2892L185.129 95.5525L190.556 99.3215L190.05 103.964L191.246 108.514L192.119 109.893L192.441 111.731L190.51 115.73L182.094 124.923L178.553 124.969L175.15 126.026L171.333 125.015L170.183 119.683L169.769 116.098L167.01 113.984L158.778 103.55L154.869 103.78L151.742 107.962L147.511 110.261L142.774 107.641L140.383 105.664L138.728 102.493L139.739 99.4134L139.601 97.3451L138.911 95.4606L139.141 93.8059L140.245 92.4271L140.843 85.7625L143.51 86.8656L145.396 85.9923L144.66 84.1078L144.614 81.9476L146.867 79.8793L149.351 78.3165L150.087 74.6855L152.248 71.8358L157.399 70.8706L162.549 71.6979L167.194 70.7327L167.47 67.6072L166.136 66.1824L165.63 63.8383L165.308 60.8047L162.181 59.288L162.365 55.519L166.366 56.6221L170.643 59.288L175.288 58.1849Z" fill="#009649" stroke="white" stroke-width="2" stroke-linejoin="round"></path>
<path class="region" data-country-region="North Region" d="M83.865 22.2878L84.0949 22.9313L86.1644 31.5723L91.6369 37.1338L89.3375 41.2704L90.3033 47.6592L86.9462 50.7387L82.6693 51.0605L78.8983 52.6692L75.1273 50.5549L73.6557 46.8779L70.5745 46.4182L67.4014 49.6816L66.8955 55.4729L66.1137 61.0344L63.3085 64.5275L61.377 69.8132L58.3878 72.525L57.2381 72.7089L56.5483 71.5598L54.2489 70.0431L52.5933 71.376L50.156 70.5486L46.5689 68.3884V67.1934L49.1442 67.0095L50.6618 65.5387V63.8381L46.109 62.1375L45.1433 60.0691L44.4995 57.771L42.8899 56.3462L41.6942 57.4952L40.2226 59.6555L38.9349 60.3449L38.4291 57.0356L37.6013 55.5648L32.0828 49.9114L30.6571 50.7847L27.6679 47.0158L25.4605 45.8667L20.08 46.9698L17.5046 46.4182L16.079 43.4307L14.6994 45.5909L13.2738 45.2692L10.2846 42.6493L7.29535 42.7412L1.04102 45.7288L1.13299 44.1201L2.00676 41.0406L3.43238 38.6965L7.70924 35.9847L8.35307 33.4108L9.13486 31.7561L11.7102 32.7673L13.4577 34.7437L14.8373 37.1797L16.4469 39.294L18.8843 40.3971L21.4596 40.2133L22.9772 38.8344L23.529 36.3064L23.4371 32.5835L22.7472 28.8145L21.9655 26.4704L21.8735 24.6779L23.2531 22.7475L23.9889 22.7015L26.1503 23.5748L27.0241 23.6207L28.1738 22.4257L29.0016 19.7599L30.4272 19.2543L34.7501 21.1847L39.0269 24.8617L43.5337 27.6195L48.5004 26.7462L49.7421 25.4593L51.5356 26.1487L53.0072 26.0108L54.5708 26.3325L55.2606 25.8729L54.6628 23.8046L54.6168 21.6903L54.2489 20.0357L54.3868 18.6108L55.8584 18.1052L57.2381 18.5189L59.9514 20.2195L73.9316 25.5512L78.2085 25.781L83.1292 23.2071L83.865 22.2878Z" fill="#009649" stroke="white" stroke-width="2" stroke-linejoin="round"></path>
<path class="region" data-country-region="North Region" d="M166.596 22.2882L163.469 24.4024L156.571 27.8037L142.775 26.6087L136.336 28.1714L128.242 26.5627L126.081 29.918L124.563 34.9739L122.126 38.513L119.321 46.6024L117.573 50.0037L103.639 47.9813L91.6362 37.1341L86.1636 31.5726L84.0942 22.9316L83.8643 22.2882L90.9004 13.3714L95.6371 10.9354L98.1665 11.5789L101.891 15.072L103.639 15.7615L105.846 14.6584L113.756 7.90184L116.746 3.81116H122.172L123.736 3.3975L127.093 1.09937L129.944 1.46707L130.22 6.66085L132.841 7.9478L149.167 7.80992L153.536 9.87824L161.951 16.1292L163.929 18.2434L166.596 22.2882Z" fill="#009649" stroke="white" stroke-width="2" stroke-linejoin="round"></path>
<path class="region" data-country-region="North Region" d="M140.844 85.7626L140.246 92.4272L139.142 93.8061L138.912 95.4607L139.602 97.3452L139.74 99.4135L138.728 102.493L140.384 105.664L142.775 107.641L147.512 110.261L151.743 107.963L154.87 103.78L158.779 103.55L167.011 113.984L169.77 116.098L170.184 119.683L171.334 125.015L175.151 126.026L175.427 132.231L168.712 135.678L161.768 138.39L157.491 136.413L150.593 128.324L146.086 128.002L142.223 130.254L137.809 130.714L125.852 123.774L119.873 122.303L114.125 122.854L110.446 127.037L106.031 126.715L100.742 128.002L96.3736 133.334L95.6838 137.149L94.5341 140.688L92.3727 142.664L90.0273 144.319L88.6017 144.963L87.8659 143.997L85.5205 142.297L82.9452 136.827L81.1517 134.023L79.5881 132.691L84.0489 129.933L83.0372 128.278L80.048 127.083L78.7143 126.072L78.8063 124.877L78.5763 118.856L78.7143 117.982L76.3229 115.133L73.3797 113.478L71.9541 111.686L74.2535 108.514V107.733L78.9442 107.227L82.5773 105.756L85.2446 101.482L87.268 95.8284L90.6711 91.7378L94.5801 90.5887L96.9255 94.1738L100.237 95.7365L102.49 93.898L105.249 94.1738H108.146L113.297 92.3353L123.736 84.5676L123.598 82.6831L122.449 77.6732L122.311 72.8931L126.588 75.7887L129.899 81.0744L135.417 82.4073L140.844 85.7626Z" fill="#009649" stroke="white" stroke-width="2" stroke-linejoin="round"></path>
<path class="region" data-country-region="North Region" d="M182.004 32.6297L183.706 40.9949L183.66 49.3601L178.141 51.7961L175.29 58.1849L170.645 59.288L166.368 56.6222L162.367 55.5191L162.183 59.288L165.311 60.8048L165.632 63.8383L166.138 66.1824L167.472 67.6073L167.196 70.7327L162.551 71.698L157.401 70.8706L152.25 71.8358L150.089 74.6855L149.353 78.3166L146.869 79.8793L144.616 81.9476L144.662 84.1079L145.398 85.9924L143.512 86.8656L140.845 85.7625L135.418 82.4073L129.9 81.0743L126.589 75.7886L122.312 72.893L120.197 67.5154L123.416 62.0458L124.335 60.0234L123.186 57.3116L117.575 50.0036L119.323 46.6023L122.128 38.5129L124.565 34.9738L126.083 29.9179L128.244 26.5626L136.338 28.1713L142.777 26.6086L156.573 27.8036L163.471 24.4024L166.598 22.2881L168.07 24.4943L169.082 25.4135L171.979 29.9639L177.267 32.0322L182.004 32.6297Z" fill="#009649" stroke="white" stroke-width="2" stroke-linejoin="round"></path>
<path class="region" data-country-region="North Region" d="M117.574 50.0033L123.184 57.3114L124.334 60.0232L123.414 62.0456L120.195 67.5151L122.311 72.8928L122.449 77.6729L123.598 82.6828L123.736 84.5673L113.297 92.335L108.146 94.1735H105.249L102.49 93.8977L100.236 95.7362L96.9253 94.1735L94.5799 90.5884L90.671 91.7375L87.2679 95.8281L85.2444 101.482L82.5771 105.756L78.9441 107.227L74.2533 107.732L70.6663 104.653L72.2299 103.274L73.1496 101.528L73.0117 99.735L71.4941 97.9884L69.7465 98.9996L68.5509 96.3337L66.8033 93.8517L63.4462 95.3225L62.5724 92.5648L65.2397 91.3238V89.8989L61.8366 87.8766L58.6635 85.0729L56.4101 81.3499L55.4443 76.5238L55.7662 75.4667L57.1459 73.6741L57.2379 72.7089L58.3876 72.525L61.3768 69.8133L63.3082 64.5275L66.1135 61.0344L66.8953 55.4729L67.4012 49.6816L70.5743 46.4182L73.6555 46.8779L75.1271 50.5549L78.8981 52.6692L82.6691 51.0605L86.946 50.7387L90.3031 47.6592L89.3373 41.2704L91.6367 37.1338L103.64 47.981L117.574 50.0033Z" fill="#009649" stroke="white" stroke-width="2" stroke-linejoin="round"></path>
<path class="region" data-country-region="North Region" d="M246.846 75.1451L252.549 79.2358L249.375 86.2221L244.455 89.9451L242.523 96.9774L238.706 98.9997L234.935 96.4258L232.406 97.8047L229.877 98.5861L223.668 96.0122L221.369 94.4494L219.069 93.4842L217.23 97.2532L213.045 98.2184L208.676 97.7588H199.525L190.557 99.3215L185.13 95.5525L186.556 92.2892L189.959 85.9463L193.362 84.3376L196.076 82.0855L194.512 73.7662L189.545 67.6532L175.289 58.1849L178.14 51.7961L183.659 49.3601L183.705 40.9948L182.003 32.6296L188.901 33.457L191.569 34.7439L193.684 37.2719L194.42 40.811L191.845 48.4868L193.776 49.9576L196.673 50.0955L198.697 49.5439L202.744 46.0967L204.905 45.775L205.825 48.9923L206.331 52.8073L207.664 55.0135L209.918 55.7029L212.953 55.0135L215.758 53.4048L217.828 51.6122L220.035 50.1414L226.06 49.452L228.313 49.7278L229.647 51.2905L229.923 55.0135L229.049 59.0582L227.577 60.8507L225.692 62.0917L223.668 64.5277L222.794 67.2395L223.024 69.9513L224.496 71.606L227.255 71.0544L229.233 68.7563L230.612 65.8147L232.314 63.4706L235.349 63.0569L237.373 64.4818L238.66 67.1476L238.476 70.0892L236.315 72.5252L240.04 80.247L241.557 81.9016L244.225 83.7401L245.558 83.6482L246.064 81.8097L246.11 78.5004L246.846 75.1451Z" fill="#009649" stroke="white" stroke-width="2" stroke-linejoin="round"></path>
<path class="region" data-country-region="Central Region" d="M291.639 271.497L294.904 275.91L299.641 276.231L305.573 284.597L306.953 282.023L307.918 278.392L309.85 281.471L308.838 287.768L303.549 290.434L300.192 297.19L287.454 292.87H285.2L283.131 292.042L283.499 289.928L284.741 287.998L284.419 282.942L282.395 279.587L277.658 277.61L268.139 268.647L268.001 263.04L274.255 266.717L279.912 273.152L285.89 274.301L291.639 271.497Z" fill="#009649" stroke="white" stroke-width="2" stroke-linejoin="round"></path>
<path class="region" data-country-region="South Region" d="M216.909 569.106L217.047 567.129L218.197 557.201L227.532 556.512L237.19 560.557L247.031 560.648L247.353 560.786L246.663 562.165L246.893 562.947L247.721 569.289L247.169 571.496L244.41 572.737L236.04 572.415L226.245 569.841L216.909 569.106ZM232.729 504.758L236.362 507.791L239.351 512.158L244.594 513.031L248.825 516.57L246.755 520.155L246.939 525.671L245.284 531.646L241.651 536.38L233.925 542.815L225.647 541.298L220.312 533.898L221.002 524.43L224.129 518.593L231.211 510.227L232.729 504.758ZM301.251 448.132L297.48 465.092L289.754 477.686L268.186 485.591L262.851 485.775L259.54 479.708L258.666 477.226L258.298 474.56L260.046 471.435L256.183 467.39L251.4 464.173L246.479 462.794L241.467 462.978L239.995 462.84L239.121 461.277L239.857 457.554L239.443 454.015L237.65 451.027L239.489 447.764L243.26 444.409L246.663 440.318L247.123 434.941L246.019 429.241L247.077 423.45L248.549 417.98L248.273 413.89L242.386 409.431L241.513 405.984L243.904 402.996L243.26 399.044L251.998 391.919L252.872 389.851L254.711 389.621L256.735 387.737L258.068 384.565L263.909 389.116L275.774 396.47L281.292 400.744L280.648 407.869L278.717 414.441L275.084 417.659L273.612 422.99L276.417 423.082L277.981 418.578L280.97 418.991L282.856 422.669L286.581 423.68L287.868 428.092L287.454 430.252L287.27 432.596L289.294 435.308L292.053 436.457L297.02 435.078L301.067 438.388L300.515 443.536L301.251 448.132Z" fill="#009649" stroke="white" stroke-width="2" stroke-linejoin="round"></path>
<path class="region" data-country-region="South Region" d="M255.17 529.118L253.422 528.75L252.18 521.35L248.823 516.57L244.592 513.031L239.35 512.158L236.361 507.791L232.728 504.758L234.751 499.84L238.752 498.415L241.235 496.852L242.707 493.818L241.557 491.153L239.764 489.084L238.752 483.431L238.89 477.41L240.637 470.102L241.465 462.978L246.478 462.794L251.399 464.173L256.181 467.39L260.044 471.435L258.297 474.56L258.665 477.226L259.538 479.708L262.85 485.775L268.184 485.591L289.752 477.686L297.478 465.092L301.249 448.132L307.32 442.248L310.125 437.836L313.482 441.007L314.218 445.144L312.654 449.602L309.711 454.658L305.204 459.714L304.193 462.702L304.514 467.344L306.814 475.571L306.538 479.248L303.319 480.811L280.509 486.832L278.255 488.303L276.83 491.061L276.738 494.186L278.531 500.667L279.083 503.838L278.899 507.607L278.026 509.997L276.324 511.652L273.841 513.077L270.024 513.95L269.058 514.777L269.012 515.881L269.518 519.512L269.058 521.304L265.655 523.327L256.917 524.2L254.802 527.693L255.17 529.118Z" fill="#009649" stroke="white" stroke-width="2" stroke-linejoin="round"></path>
<path class="region" data-country-region="South Region" d="M239.118 461.277L239.992 462.84L241.464 462.978L240.636 470.102L238.889 477.41L238.751 483.431L239.762 489.085L241.556 491.153L242.706 493.819L241.234 496.853L238.751 498.415L234.75 499.84L232.726 504.758L231.209 510.228L224.126 518.593L220.999 524.43L220.309 533.898L225.644 541.298L233.922 542.815L241.648 536.38L245.281 531.646L246.936 525.671L246.752 520.156L248.822 516.57L252.179 521.351L253.421 528.751L255.168 529.118L255.72 531.187L254.892 532.657L251.121 533.898L248.868 535.415L247.442 536.932L244.407 541.482L243.487 543.643L244.637 544.975L246.706 546.17L248.362 547.917L249.098 550.537L249.328 553.157L249.88 555.731L251.719 558.213L248.224 559.867L247.35 560.787L247.028 560.649L237.187 560.557L227.53 556.512L218.194 557.202L217.044 567.129L216.906 569.106L209.962 574.346L208.813 576.552L207.893 578.896L207.617 580.229L204.168 576L203.248 574.116L203.156 567.819L199.983 561.89L196.994 559.546L189.682 555.639L191.337 553.57L193.499 551.456L195.66 549.893L197.362 549.296L201.638 549.342L203.524 548.377L202.696 545.987L202.972 542.953L201.822 524.2L200.719 522.454L198.419 517.995L196.35 512.296L196.028 506.872L196.58 505.861L198.327 504.62L198.695 503.655L197.27 500.575L196.902 499.197L197.086 497.726L197.913 494.83L196.58 492.072L196.028 488.855L192.809 479.433L192.395 476.767L192.625 474.882L194.234 468.31L194.188 467.299L193.407 466.747L193.683 464.771L194.74 464.081L196.028 460.404L201.776 462.472L207.939 462.794L212.905 465.184L214.929 462.748L216.355 459.623L221.551 459.485L226.656 463.392L232.956 463.53L239.118 461.277Z" fill="#009649" stroke="white" stroke-width="2" stroke-linejoin="round"></path>
<path class="region" data-country-region="Central Region" d="M178.416 200.715L185.314 202.002L187.843 204.898L190.189 204.3L195.247 201.267L201.318 201.68L206.054 205.771L211.067 209.126L210.929 214.182L208.63 216.986L205.227 218.043L197.776 224.294L192.902 226.776L196.719 231.878L202.191 233.349L197.593 236.061L193.454 241.576L188.993 243.323L185.176 243.506L181.635 244.288L178.646 253.021L177.542 263.041L178.508 267.223L180.531 269.613L182.555 270.487L182.922 273.06L183.014 275.68L184.302 279.771L187.705 280.231L190.051 281.701L188.303 285.057L186.555 286.803L185.222 283.448L182.647 284.735L179.841 283.402L176.76 281.472L173.587 280.828L173.541 278.07L171.885 276.6L168.206 274.164L164.205 269.705L161.17 267.821L161.952 266.442V265.109L156.296 262.029L154.732 259.869L156.204 259.41L156.433 258.582L155.514 255.824L153.904 250.585L150.639 246.31L149.213 243.92L149.397 241.484L146.73 236.842L145.35 235.371L142.085 234.544L138.682 232.154L135.141 231.372L134.129 230.867L132.474 228.017L129.301 220.433L127.829 219.146L132.29 215.193L140.062 212.16L142.407 209.034L151.007 207.518L159.791 207.702L168.85 206.644L170.552 205.587L170.368 201.129L172.023 199.98L175.242 199.75L178.416 200.715Z" fill="#009649" stroke="white" stroke-width="2" stroke-linejoin="round"></path>
<path class="region" data-country-region="North Region" d="M234.521 157.143L234.797 162.934L235.993 168.496L235.487 172.219L232.406 172.724L230.566 173.873L229.095 176.125L227.991 180.262L223.438 181.227L210.976 179.756L203.893 183.158L202.56 187.019L203.939 191.109L203.618 196.947L201.318 201.681L195.248 201.267L190.189 204.301L187.844 204.898L185.314 202.002L178.416 200.715L181.268 197.544L182.325 192.948L179.98 189.638L176.393 189.684L172.254 187.662L172.576 183.066L176.945 179.848L178.508 177.274L180.256 175.39L183.613 174.241L183.797 170.472L181.865 160.038L173.955 159.487L174.507 153.374L176.945 147.766L180.578 147.445L183.015 153.006L185.452 152.96L187.522 150.984L188.718 148.64L188.12 146.296L187.384 138.85L183.337 136.689L178.554 137.563L175.427 132.231L175.151 126.026L178.554 124.969L182.095 124.923L190.511 115.73L192.672 117.845L194.558 120.189L195.018 122.763L195.754 124.831L198.789 125.658L199.709 130.117L202.146 129.933L205.503 128.83L207.894 133.84L210.332 137.793L215.115 138.114L219.529 139.08L217.736 144.319L217.506 148.456L227.439 150.294L231.118 153.466L234.521 157.143Z" fill="#009649" stroke="white" stroke-width="2" stroke-linejoin="round"></path>
<path class="region" data-country-region="North Region" d="M161.768 138.39L163.102 141.331L163.286 144.962L159.837 143.675L157.078 140.504L154.87 141.193L153.583 145.836L150.501 149.88L146.684 152.087L144.615 151.029L142.591 151.259L139.326 157.188L137.763 158.889L136.015 160.36L134.268 165.508L129.439 167.162L124.334 166.795L115.183 171.069L107.043 178.423L106.905 177.872L102.812 176.309L99.179 172.586L90.6712 161.325L87.682 156.177L86.4863 151.903L89.4755 151.305V150.064L88.7857 148.639L88.9697 146.571L88.6018 144.962L90.0274 144.319L92.3728 142.664L94.5342 140.688L95.6839 137.149L96.3737 133.334L100.743 128.002L106.031 126.715L110.446 127.037L114.125 122.854L119.873 122.303L125.852 123.774L137.809 130.714L142.224 130.254L146.086 128.002L150.593 128.324L157.491 136.413L161.768 138.39Z" fill="#009649" stroke="white" stroke-width="2" stroke-linejoin="round"></path>
<path class="region" data-country-region="North Region" d="M163.286 144.962L169.08 147.306L176.944 147.766L174.507 153.373L173.955 159.487L181.865 160.038L183.797 170.472L183.613 174.241L180.256 175.39L178.508 177.274L176.944 179.848L172.576 183.065L172.254 187.662L176.393 189.684L179.98 189.638L182.325 192.947L181.267 197.544L178.416 200.715L175.243 199.75L172.024 199.98L170.368 201.129L170.552 205.587L168.851 206.644L159.791 207.701L151.007 207.517L142.408 209.034L140.062 212.16L132.29 215.193L127.829 219.146L125.714 217.675L126.772 211.7L124.426 209.678L125.3 205.403L126.036 203.932L127.094 203.105L126.174 201.221L124.518 199.658L122.541 198.509L120.563 197.911L117.206 197.819L115.275 196.532L114.125 196.349L112.745 195.154L111.918 192.304L110.952 187.11L109.204 186.788L108.423 185.639L108.469 183.847L107.043 178.423L115.183 171.069L124.334 166.795L129.439 167.162L134.268 165.508L136.015 160.36L137.763 158.889L139.326 157.188L142.592 151.259L144.615 151.029L146.684 152.087L150.501 149.88L153.583 145.836L154.87 141.193L157.078 140.504L159.837 143.675L163.286 144.962Z" fill="#009649" stroke="white" stroke-width="2" stroke-linejoin="round"></path>
<path class="region" data-country-region="South Region" d="M371.013 323.389L373.497 325.687L375.198 329.364L376.854 329.87L377.865 328.721L379.015 330.422L381.498 331.295L381.682 331.019L384.488 334.282L386.649 342.51L387.707 348.071L387.063 353.495L385.177 354.138L383.016 354.184L381.59 357.31L379.843 360.435L377.635 360.022L375.382 359.332L371.703 361.722L368.346 364.986L368.116 367.605L368.162 370.363L366.644 373.81L367.196 377.349L370.139 381.026L371.473 385.715L371.841 388.059L369.266 389.484L366.828 392.195L361.126 400.974L359.47 401.02L357.171 397.573L354.09 391L352.25 390.403L349.951 394.264L349.537 396.562L350.181 400.377L350.089 402.077L349.169 404.513H347.651L346.042 405.111L341.305 410.397L338.408 412.143L336.2 410.259L336.154 408.282L337.074 406.444L338.224 404.697L339.052 402.859L339.328 400.653L339.19 384.612L338.362 380.521L336.108 377.855L336.062 372.845L334.085 366.456L328.566 361.584L321.668 359.056L314.77 348.163L310.769 338.971L308.424 327.296L311.919 325.596L315.644 324.584L319.783 321.597L323.692 318.058L325.485 319.391L324.658 322.148L324.382 323.987L325.899 325.779L334.085 327.986L334.775 332.904L337.442 334.099L340.523 331.341L343.329 334.834L346.824 334.696L350.181 335.018L350.733 330.789L351.606 328.537L353.262 330.192L355.101 330.376L358.688 324.676L361.494 323.895L364.299 324.355L367.61 324.171L371.013 323.389Z" fill="#009649" stroke="white" stroke-width="2" stroke-linejoin="round"></path>
<path class="region" data-country-region="Central Region" d="M264.78 151.489L261.423 161.279L268.735 165.416L270.483 167.346L271.679 170.288L275.404 173.321L274.438 177.642L274.208 182.973L263.263 190.879L260.32 192.488L257.652 194.694L257.33 196.67V198.647L256.227 200.393L256.043 202.186L257.055 203.978L256.963 206.185L249.605 209.494L245.88 205.036L241.189 205.633L236.59 208.713L231.991 209.908L230.612 209.034L229.416 208.988L225.829 210.459L223.713 210.505L221.644 210.091L216.217 206.322L211.067 209.126L206.054 205.771L201.317 201.68L203.617 196.946L203.939 191.109L202.559 187.018L203.893 183.157L210.975 179.756L223.437 181.227L227.99 180.262L229.094 176.125L230.566 173.873L232.405 172.724L235.486 172.218L235.992 168.495L234.796 162.934L234.521 157.142L236.59 154.844L239.211 153.603L241.465 155.258L243.672 156.499L247.535 150.891L251.352 143.997L257.698 148.777L264.78 151.489Z" fill="#009649" stroke="white" stroke-width="2" stroke-linejoin="round"></path>
<path class="region" data-country-region="Central Region" d="M372.485 299.121L373.681 300.913L374.095 304.452V309.049L374.371 310.841L373.819 313.231L369.818 316.678L371.014 323.389L367.61 324.17L364.299 324.354L361.494 323.895L358.689 324.676L355.102 330.375L353.262 330.191L351.607 328.537L350.733 330.789L350.181 335.018L346.824 334.696L343.329 334.834L340.524 331.341L337.442 334.098L334.775 332.903L334.085 327.985L325.9 325.779L324.382 323.987L324.658 322.148L325.486 319.39L323.692 318.057L318.679 316.541L317.806 312.404L319.783 309.738L320.243 306.107L317.576 303.763L314.265 303.028L311.229 301.787L308.424 301.051L306.907 302.752L305.711 305.096L302.078 303.349L300.192 297.19L303.549 290.434L308.838 287.768L311.091 288.274L313.253 288.32L315.828 283.907L319.599 281.609L323.508 282.574L327.233 292.272L331.556 291.445L335.925 289.698L339.604 292.41L343.605 294.295L345.444 290.756L344.755 285.286L344.709 277.38L345.306 269.613L347.422 265.062L350.365 263.729L350.181 265.062L350.733 266.395L351.975 267.452L355.194 269.015L360.712 274.669L361.494 276.185L362.092 281.747L361.908 284.229L360.528 283.402H359.701L360.39 286.297L360.942 287.538L360.85 288.963L360.068 289.193L356.711 291.307L354.596 291.997H352.526L350.733 291.261L351.791 294.57L353.446 297.65L355.562 300.224L357.861 301.833L361.264 302.154L364.023 300.729L366.507 298.845L369.082 297.88L372.209 298.707L372.485 299.121Z" fill="#009649" stroke="white" stroke-width="2" stroke-linejoin="round"></path>
<path class="region" data-country-region="Central Region" d="M360.619 231.28L358.182 234.635L358.642 239.185L357.538 241.392L356.066 243.138L351.744 247.183L348.34 252.101L351.238 263.316L350.364 263.73L350.18 262.81L348.478 262.443L346.639 261.339L344.799 259.363L343.098 258.582L341.81 261.156H340.982L339.971 259.455L338.361 258.49L336.706 258.536L335.556 259.823L335.648 261.891L336.706 263.913L337.487 266.028L336.889 268.326L335.602 268.785L333.992 268.142L332.567 267.958L331.509 271.267L329.164 274.071L328.428 275.542L325.071 272.095L323.231 270.808L321.208 270.302L322.449 267.361L324.473 263.913L326.818 261.018L331.049 258.536L333.486 252.928L335.556 251.963L333.532 245.482L336.935 239.369L335.004 234.038L329.623 236.152L328.566 237.117L331.923 242.771L326.588 244.931L321.806 242.495L322.219 237.944L321.484 232.935L315.045 225.764L312.608 222.317L309.803 219.927L312.102 217.399L313.298 213.584L315.505 212.711L318.908 214.733L320.748 212.481L322.955 211.608L323.967 205.679L326.174 202.415L326.634 200.531L326.312 199.474L328.75 200.209L329.945 197.543L330.129 196.624L330.497 197.405L332.521 203.197L333.578 205.265L335.97 207.104L337.303 205.954L338.545 203.886L340.706 202.921L342.592 203.932L344.937 207.977L348.938 210.643L349.858 212.711L350.41 215.009L351.468 217.077L353.307 218.135L355.331 218.548L357.354 219.467L359.056 221.995L359.745 225.029L359.791 227.833L360.205 230.544L360.619 231.28Z" fill="#009649" stroke="white" stroke-width="2" stroke-linejoin="round"></path>
<path class="region" data-country-region="South Region" d="M257.837 353.036L258.159 357.172L260.274 359.792L259.584 361.952L258.618 363.975L258.297 366.687V369.582L256.457 372.248L257.193 374.362L258.435 378.959L258.067 384.566L256.733 387.737L254.71 389.622L252.87 389.852L251.996 391.92L243.259 399.044L240.453 397.849L237.648 397.39L235.763 398.998L235.165 402.445L230.75 406.168L225.783 404.1L225.691 400.147L223.438 399.55L221 400.837L218.241 401.756L216.494 404.606L214.102 406.168L211.527 405.295L211.205 404.882L212.033 403.686L211.113 401.113L212.953 400.193L213.734 398.768L213.872 397.16V391.323L213.688 389.714L212.171 389.254L210.469 385.899L210.193 384.382L210.469 377.258L210.929 375.833L212.171 375.006L211.021 371.88L211.665 369.123L212.999 366.778L213.872 364.71V362.136L213.596 360.114L215.896 359.149L220.081 358.091L221.184 362.228L224.082 363.699L230.75 362.09L231.992 360.528L230.98 358.183L230.704 356.161L231.164 352.484L228.542 348.853L230.106 347.612L232.13 347.474L233.647 342.602L238.476 343.843L242.799 347.98L247.397 346.969L252.456 343.705L256.871 345.544L257.837 353.036Z" fill="#009649" stroke="white" stroke-width="2" stroke-linejoin="round"></path>
<path class="region" data-country-region="Central Region" d="M282.395 279.587L284.418 282.942L284.74 287.998L283.498 289.928L283.13 292.043L285.2 292.87H287.453L300.192 297.191L302.077 303.349L305.71 305.096L306.906 302.752L308.424 301.051L311.229 301.787L314.264 303.028L317.575 303.763L320.243 306.107L319.783 309.738L317.805 312.404L318.679 316.541L323.692 318.058L319.783 321.597L315.644 324.584L311.919 325.595L308.424 327.296L306.032 330.054L304.331 329.502L300.054 325.687L297.847 327.112L295.639 329.226L292.512 328.721L289.385 328.997L283.452 328.813L277.658 323.527L276.14 315.576L272.277 311.577L270.254 314.61L267.908 316.219L267.081 313.875L266.989 311.071L266.391 308.313L264.919 306.521L258.389 300.913L252.411 294.157L253.33 291.077L253.698 287.676L249.329 284.781L245.145 280.368L246.432 279.081L247.49 277.564L251.675 277.978L255.446 277.84L258.665 284.183L263.586 287.4L265.425 285.102L267.725 283.402L270.99 284.735L274.117 286.895L279.497 286.619L282.395 279.587Z" fill="#009649" stroke="white" stroke-width="2" stroke-linejoin="round"></path>
<path class="region" data-country-region="Central Region" d="M315.689 187.846L316.517 189.96L318.54 192.35L324.289 195.981L325.76 197.774L326.312 199.475L326.634 200.532L326.174 202.416L323.967 205.679L322.955 211.609L320.748 212.482L318.908 214.734L315.505 212.712L313.298 213.585L312.102 217.4L309.802 219.928L312.608 222.318L315.045 225.765L310.446 230.316L304.928 232.384L299.961 236.796L294.627 239.738L289.614 238.911L286.303 243.92L286.855 249.39L284.739 250.907L282.716 246.954L281.106 242.496L278.025 242.082L273.978 243.415L271.495 239.646L269.793 234.866L268.689 230.224L267.126 226.133L264.367 225.903L262.021 228.201L259.584 227.788L257.284 225.995L258.388 221.353L251.168 216.665L249.604 209.494L256.963 206.185L257.055 203.979L256.043 202.186L256.227 200.394L257.33 198.647V196.671L257.652 194.694L260.32 192.488L263.263 190.88L274.208 182.974L276.783 183.112L279.267 183.755L281.934 186.375L285.153 187.157L288.832 185.64L294.029 178.975L297.248 178.424L298.857 176.677L299.777 174.379L303.042 175.252L306.307 178.102L310.584 184.812L315.689 187.846Z" fill="#009649" stroke="white" stroke-width="2" stroke-linejoin="round"></path>
<path class="region" data-country-region="North Region" d="M303.824 107.687L303.18 110.905L303.042 116.972L303.87 117.569L304.652 119.178L294.029 115.961L289.844 112.605L290.028 107.917L287.728 103.183L284.095 99.7817L282.946 101.482L282.164 102.126L280.278 104.792L278.025 105.573L275.68 105.665L270.805 109.296L267.494 116.19L267.356 120.373L268.965 124.096L264.781 127.175L260.044 123.131L255.905 118.442L250.892 117.293L247.397 119.178L243.994 118.167L246.385 112.927L247.581 104.47L246.431 98.8164L242.522 96.9779L244.454 89.9456L249.375 86.2227L252.548 79.2363L246.845 75.1457L247.029 74.3643L249.421 67.286L252.318 65.9531L256.503 66.137L268.506 71.1469L277.565 71.2848L282.302 72.1121L285.981 74.5941L286.855 76.1568L287.59 80.2475L289.66 85.3034L290.074 90.4053L290.304 91.5543L291.178 92.8413L293.339 94.8636L296.834 100.977L301.065 105.573L303.824 107.687Z" fill="#009649" stroke="white" stroke-width="2" stroke-linejoin="round"></path>
<path class="region" data-country-region="Central Region" d="M224.266 259.64L225.921 261.524L227.531 264.374L226.565 267.131L225.185 269.521L227.163 274.577L231.164 275.129L233.647 273.704L236.268 273.382L238.338 274.991L240.683 275.68L244.592 274.072L247.489 277.565L246.432 279.082L245.144 280.369L243.213 281.564L241.833 283.586L245.742 286.482L242.109 294.341L236.958 301.925L233.555 300.133L234.889 294.801L233.141 291.032L226.289 281.656L224.22 285.516L225.507 288.09L226.427 290.94L224.128 294.203L220.908 294.985L215.022 301.006L210.745 307.854L196.443 305.372L195.293 305.051L194.925 302.201L192.396 295.215L190.603 291.951L186.556 286.803L188.303 285.057L190.051 281.702L187.705 280.231L184.302 279.771L183.015 275.68L182.923 273.061L182.555 270.487L180.531 269.613L178.508 267.223L177.542 263.041L178.646 253.021L181.635 244.288L185.176 243.507L188.993 243.323L193.454 241.576L201.042 249.987L209.733 255.227L213.412 256.514L217 258.674L220.633 259.502L224.266 259.64Z" fill="#009649" stroke="white" stroke-width="2" stroke-linejoin="round"></path>
<path class="region" data-country-region="Central Region" d="M330.13 196.624L329.946 197.543L328.75 200.209L326.313 199.474L325.761 197.773L324.289 195.98L318.541 192.349L316.517 189.959L315.69 187.845L315.414 187.156L314.954 183.846L314.908 179.802L314.218 177.687L311.275 173.275L310.447 169.874L311.367 166.656L311.597 164.312L310.631 162.428L309.619 157.234L309.021 146.387L309.619 142.066L314.494 130.162L314.54 124.968L309.619 120.694L304.653 119.177L303.871 117.568L303.043 116.971L303.181 110.904L303.825 107.686L305.71 109.157L309.711 110.766L314.448 109.846L320.15 102.308L324.289 100.286L326.543 100.378L328.382 101.113L329.992 102.63L331.509 105.112L332.567 108.146L333.671 114.81L334.729 117.66L336.568 119.131L341.719 120.694L343.006 121.613L342.592 124.279L340.615 127.036L338.178 129.656L336.568 131.862L335.418 135.264V137.378L336.66 138.665L341.167 140.274L342.868 141.836L343.374 143.951L341.811 146.433L337.902 151.397L337.212 157.464L337.304 164.312L335.97 171.62L332.613 177.549L329.256 182.008L327.508 187.11L329.21 194.877L330.13 196.624Z" fill="#009649" stroke="white" stroke-width="2" stroke-linejoin="round"></path>
</svg>