<svg width="426" height="579" viewBox="0 0 426 579" fill="none" xmlns="http://www.w3.org/2000/svg">
<path class="region" d="M223.36 307.393L224.082 305.567L224.252 303.953L224.889 303.656L226.46 304.251L227.394 304.208L228.753 302.594L230.367 301.957L231.769 300.471L232.958 299.197L236.1 298.093L237.289 297.498L238.691 296.267L239.923 298.772L240.475 299.367L242.258 299.834L242.641 300.938L244.297 302.127L246.038 301.788L246.972 304.336L243.702 305.78L243.362 307.139L242.343 308.158L243.447 308.625L243.787 309.729L243.193 312.107L242.216 312.617L243.32 313.934L243.405 315.802L244.637 316.609L246.038 316.736L250.242 314.528L251.771 316.482L254.107 317.926L253.173 320.898L252.026 322.852L252.366 323.319L254.617 324.168L255.084 325.018L253.98 326.207L254.787 328.33L257.929 330.242L258.651 331.346L259.84 331.516L260.095 335.38L259.543 335.168L258.481 335.847L256.358 335.805L255.041 336.442L254.234 337.419L254.702 339.287L252.026 340.986L253.725 342.6L253.47 344.681L253.895 345.53L253.512 346.719L252.663 346.847L251.729 346.337L250.455 346.804L249.69 347.526L247.737 347.399L247.482 348.121L245.019 350.542L244.679 351.136L243.49 351.646L243.32 352.835L243.575 353.642L244.637 354.534L246.76 355.468L247.142 357.167L248.416 357.676L250.37 357.294L251.474 357.421L251.814 358.526L251.729 359.587L252.238 360.182L253.682 360.309L254.787 361.329L256.74 360.649L256.952 361.413L258.269 361.541L258.948 363.112L261.794 364.259L262.091 365.66L263.408 367.062L264.809 367.869L264.172 369.1L262.134 369.822L261.072 370.884L261.029 372.795L259.373 374.409L259.713 375.938L260.52 376.702L261.921 377.254L263.323 376.617H264.087L264.724 377.721L265.021 378.996L265.276 380.1L266.508 380.312L266.975 381.459L268.589 382.818L270.288 384.686L269.353 386.428L267.442 386.767L266.848 388.126L266.635 389.485L265.489 390.335L265.361 391.142L266.635 391.906L265.659 393.222L265.149 393.392L265.913 395.261L265.956 399.126L266.168 400.315L266.975 400.952L266.72 402.183L265.489 403.288L264.427 403.372L262.813 404.392H261.412L260.435 403.882L259.798 404.179L260.01 405.241L259.033 405.369L257.037 407.195L255.381 408.681L254.15 409.148L252.748 409.063L251.474 410.295L250.2 410.507L249.86 411.314L250.157 413.268L249.605 413.862L247.694 414.457L246.59 415.603L245.359 415.773L243.915 415.349L243.32 416.113L242.003 415.646L241.197 415.773L240.687 414.542L239.286 414.075L234.869 415.094L233.17 414.287L231.556 414.117L229.73 412.376L228.923 409.743L227.819 407.789L225.356 405.538L225.568 405.071L227.139 404.307L227.224 403.457L225.483 401.716L222.808 400.06L220.09 399.423L219.665 397.894L218.051 395.388L216.013 393.053L215.97 392.203L217.202 391.354L219.877 390.887L221.406 389.952L222.341 390.037L223.317 390.929L225.696 395.898L226.8 396.917L228.668 397.809L229.985 397.767L230.919 397.045L231.853 397.384L233.17 397.215L234.317 396.662L234.232 395.473L233.68 394.751L232.873 395.771L231.726 396.025L228.966 395.516L226.927 394.497L225.568 393.392L224.591 392.203L221.873 387.489L219.877 384.092L219.792 382.605L220.302 381.756L223.147 378.274L226.29 375.258L228.371 373.857L224.761 373.814L223.275 373.305L222.128 372.031L221.831 370.247L222.425 366.212L221.958 364.726L222.638 363.792L223.615 363.325L227.479 362.22L229.008 362.603L230.325 361.456L229.857 360.819L231.344 359.715L230.07 359.46L228.796 359.587L227.861 357.889L228.966 357.039L230.41 355.383L231.769 354.958L233.085 353.005L231.429 350.754L230.707 349.352L232.575 348.376L232.108 347.866L228.583 349.692L227.904 351.051L227.097 351.433L225.228 351.518L224.124 350.414L224.294 349.013L223.615 347.866L222.765 348.588L222.043 351.051L220.769 352.24L219.58 353.897L218.433 354.364L218.391 356.317L216.565 354.491L215.333 354.321L214.441 353.727L214.824 351.221L214.229 350.414L215.588 350.117L215.97 348.545L216.013 345.658L215.376 345.955L214.569 347.824L214.909 348.885L211.808 349.437L210.916 348.758L209.43 346.762L207.689 344.893L207.476 344.001L207.859 342.685L207.392 341.283L206.415 340.901L205.013 338.693L204.079 338.056L200.257 333.936L199.365 333.469L198.516 332.322L199.492 331.431L200.384 329.562L201.616 325.4L204.334 320.983L205.693 320.474L206.924 319.072L207.307 318.095L206.924 317.161L208.368 314.061L209.218 312.617L210.194 311.725L211.001 311.598L211.936 312.235L213.04 312.405L214.781 311.725L212.191 310.621L213.889 309.389L216.522 308.837L217.881 309.559L220.26 309.984L223.742 309.22L221.619 308.837L223.7 307.861L223.36 307.393Z" fill="#009649" stroke="white" stroke-width="2" stroke-linejoin="round" data-country-region="Central Region"></path>
<path class="region" data-country-region="North Region" d="M266.592 263.651L264.256 264.458L263.704 266.241L262.642 267.048L260.731 268.025L259.967 269.172L257.376 271.89L254.743 272.144L253.851 272.527L253.894 273.206L254.956 273.886L255.847 275.117L256.739 277.241L258.353 279.364L258.523 280.383L259.712 281.827L258.523 283.399L257.164 283.993L255.975 284.163L254.998 284.842L253.766 285.267L252.322 287.136L251.133 287.518L249.562 286.966L248.076 287.263L244.338 289.684L242.088 291.722L241.196 292.827L241.493 293.336L240.941 294.525L239.709 295.12L238.69 296.267L237.289 297.498L236.099 298.093L232.957 299.197L231.768 300.471L231.428 299.154L230.196 298.135L230.451 295.672L231.301 294.78L231.131 293.803L229.899 293.761L229.942 292.954L231.003 292.487L230.239 291.637L228.03 291.085L226.884 291.425L225.822 292.147L225.27 291.637L224.293 291.892L223.401 290.066L221.703 288.877L221.49 287.688L220.429 287.433L219.027 287.815L217.243 286.626L215.077 287.56L214.016 288.282L213.209 288.197L213.294 285.947L214.143 285.097L215.884 284.163L215.46 283.611L213.888 283.568L212.827 283.101L211.595 284.503H208.877L207.518 284.927L205.182 284.63L203.781 283.144L204.715 280.978L204.8 280.256L205.947 279.067L205.904 276.646L204.29 274.523L204.758 274.098L206.329 273.886L206.754 273.164L206.329 271.974L209.896 268.832L208.198 268.28L208.24 267.43L207.348 266.029L207.391 265.562L204.715 264.712L202.974 264.627L201.955 263.863L201.105 263.736L197.92 264.203L196.391 265.137L196.009 264.84L196.689 263.311L195.627 260.89L197.071 260.253L196.349 259.531L193.673 260.168L193.079 258.937L192.824 258.342L191.125 257.79L189.596 256.898L190.828 255.709L188.45 255.624L187.898 254.223L186.369 254.138L186.454 253.033L184.882 252.736L184.627 252.014H181.994L180.168 253.076L178.852 252.014L178.172 252.821L177.195 252.354H175.157L173.968 252.057L173.543 252.481L174.308 254.01L173.968 255.539L172.864 255.624L170.273 254.647H168.489L167.555 253.458L166.493 253.203L166.026 251.887L167.725 251.207L167.045 250.528L164.837 250.061L163.988 249.551L160.845 249.254L160.335 248.702L159.486 246.748L157.66 242.883L157.617 241.524V241.312L157.533 240.25L157.745 239.741L157.787 239.783L158 239.061L158.509 238.679L158.722 238.552V238.509L158.339 238.085L158.17 237.532L159.146 236.428L156.853 236.131L156.301 236.046L153.795 236.556L153.625 236.343L153.583 236.301L153.71 236.131L154.008 235.621V235.409L153.965 235.239L151.672 234.22L151.502 233.838L152.649 232.649L152.988 231.799L154.347 230.822L156.174 230.27L156.343 229.548L156.386 229.421L157.235 229.039L158.722 229.081L159.783 228.487L158.807 228.232L158.339 227.85L158.297 227.425L159.486 225.981L159.444 225.556L159.019 225.174L157.915 224.962L157.745 224.452L161.779 223.051L162.586 223.433L163.011 223.603L163.266 223.263L162.289 221.946L161.822 221.309L160.505 221.055V220.46L160.972 220.035L160.845 219.271L160.335 219.101L158.722 219.611L157.235 219.526L157.278 218.379L157.533 217.997L159.911 217.742L162.331 216.85L161.907 216.001L162.077 215.576L162.926 214.982L162.756 213.538L163.86 213.113L164.2 212.349L165.474 210.99L166.281 211.074L167.045 211.924L168.15 212.306H168.617L170.4 210.48L171.547 209.8L172.906 209.928L174.138 208.824L176.219 208.399L178.342 207.55L178.597 207.21L178.342 206.276L179.361 205.511L179.913 205.469L182.547 206.191L185.265 205.808L187.6 206.148L187.982 205.936L188.28 204.407L189.129 203.43L190.828 204.449L191.635 204.619L194.14 204.11L194.99 204.322L197.113 204.195L197.75 204.704L199.407 204.874L200.468 204.364L201.955 204.704L203.484 204.364L204.248 204.789L204.163 206.233L205.012 206.658L206.881 206.403L208.58 207.21L209.769 206.828L211.298 206.913H212.275L213.379 206.233L215.46 205.893L216.267 204.322L219.367 205.426L220.938 205.554L222.509 206.403L223.062 206.063L223.911 203.515L225.1 202.538L226.459 202.156L230.451 202.241L232.744 201.477L234.443 202.071L235.377 202.836H237.374L238.69 204.195L240.304 205.044L240.729 206.063L241.578 206.488L240.771 208.187L240.898 209.843L242.894 211.966L243.871 212.433L246.334 212.688L247.948 214.132L249.944 214.047L250.369 214.302L249.647 216.935L248.161 218.889L248.415 220.333L247.439 221.224L246.377 222.711L242.47 224.707L241.748 225.811L239.327 226.788L238.18 228.572L236.652 228.274L234.401 228.487L224.718 229.506L222.892 230.058L221.448 230.822L216.097 234.73L217.413 234.56L219.154 233.838L220.768 233.54L229.007 230.568L229.814 229.718L231.683 229.209L233.127 230.015L234.571 230.143L235.08 231.799L234.231 233.498L234.953 235.154L236.354 235.834L240.091 236.046L240.983 236.343L244.168 238.382V238.722L241.96 240.25L241.196 241.312L238.223 241.949L235.59 243.223L233.636 243.308L231.173 242.331L228.2 242.501L227.436 243.393L225.227 244.497L222.892 246.366L221.363 246.876L220.938 247.428L220.301 249.211L219.239 250.315L216.352 250.4L212.444 251.929L210.788 252.142L209.217 252.057L202.592 250.655L198.939 250.698L197.368 250.315L195.882 249.551L193.036 247.428L192.187 247.682L194.608 248.999L196.136 250.698L196.858 251.759H198.26L199.491 252.821L202.762 252.481L205.692 253.076L207.985 253.543L209.811 253.925H211.722L212.869 253.67L213.973 254.562L221.448 254.987L222.722 256.134L223.231 256.176L223.911 256.134L225.78 256.006L228.922 254.987L229.899 254.392L231.343 252.949L232.362 252.821L231.853 251.759L233.849 250.231L234.656 249.933L241.578 250.315L242.342 250.57L243.489 251.759L244.253 252.099L244.211 253.373L245.867 253.543L246.759 252.821L249.01 254.138L250.581 254.52L252.79 255.879L254.956 256.813L261.538 257.747L262.26 259.191L263.492 259.616L264.256 260.296L266.592 263.651Z" fill="#009649" stroke="white" stroke-width="2" stroke-linejoin="round"></path>
<path class="region" data-country-region="North Region" d="M250.369 214.302L249.945 214.047L247.949 214.132L246.335 212.688L243.872 212.433L242.895 211.966L240.899 209.843L240.771 208.186L241.578 206.488L240.729 206.063L240.304 205.044L238.69 204.194L237.374 202.835H235.378L234.444 202.071L232.745 201.476L230.452 202.241L226.459 202.156L225.1 202.538L223.911 203.515L223.062 206.063L222.51 206.403L220.939 205.553L219.367 205.426L216.267 204.322L215.46 205.893L213.379 206.233L212.275 206.912H211.298L209.769 206.827L208.58 207.21L206.881 206.403L205.013 206.657L204.163 206.233L204.248 204.789L203.484 204.364L201.955 204.704L200.469 204.364L199.407 204.874L197.751 204.704L197.114 204.194L194.99 204.322L195.627 202.538L196.774 201.646L197.114 201.094L197.029 199.225L197.453 197.484L197.241 197.144L197.581 196.592L199.959 195.658L200.893 196.21L202.38 196.338H210.236L213.591 195.955L214.483 195.446V194.724L213.634 192.898L214.229 191.411L216.309 190.732L220.132 187.207L222.892 186.103L225.143 186.57L226.629 186.655L227.479 186.188L228.456 185.041L229.262 183.47L229.177 181.558L227.776 179.647L227.521 178.713L227.606 177.099L228.413 175.655L230.706 174.169L232.532 173.32H235.845L238.988 174.084L240.007 173.702L240.092 172.895L238.351 170.814L237.119 169.965L235.42 167.416L235.59 163.807H238.138L239.2 164.571H240.771L242.173 164.104L245.613 164.911L246.887 164.868L247.524 165.59L248.671 164.868L251.304 165.633H252.705L254.234 164.868L255.508 165.293L256.145 164.486L257.759 164.274L260.349 165.251L261.411 165.081L263.832 163.807L264.511 163.679L268.971 163.807L269.947 165.251L271.604 164.868L272.326 165.803L275.723 168.478L276.445 171.239L277.04 172.088L276.87 173.065L277.847 174.594L277.592 175.443L278.484 175.825L277.252 176.717L275.596 178.288L274.746 179.945L270.457 182.748L269.395 183.894L266.847 188.523L265.701 191.496L265.573 193.535L266.465 194.426L265.785 195.361L262.006 199.565L260.732 201.476L260.18 203.345L260.689 205.171L259.712 206.148L259.288 207.379L257.249 208.738L254.489 211.669L252.195 212.688L250.369 214.302Z" fill="#009649" stroke="white" stroke-width="2" stroke-linejoin="round"></path>
<path class="region" d="M197.283 498.46L196.052 497.101L193.589 495.445L192.23 495.7L191.253 495.317L190.021 494.128L190.276 493.704L189.894 492.387L188.662 490.009L187.558 489.329L186.539 487.928L185.604 487.461L184.245 487.588L181.018 487.885L179.829 488.395L179.362 489.244L180.423 490.773L177.96 490.731L177.068 490.434L176.516 491.028L174.138 490.603L172.227 491.877L170.91 491.495L170.188 492.047L167.725 491.198L166.663 490.434L167.47 489.924L167.046 487.843L169.424 487.078L169.976 487.461L171.335 487.121L173.501 486.994L175.539 486.611L176.474 485.38V484.658L175.412 485.21L173.246 485.125L170.953 484.106L170.316 484.445L166.961 484.828L164.922 483.851L163.903 482.874L163.393 481.897L165.135 482.067L163.733 480.368L164.37 479.392L163.818 478.712L162.841 479.901L161.44 479.264L160.463 479.774L161.397 480.793L159.911 481.43L158.297 481.473L155.112 481.133L152.309 481.558L152.436 481.005L152.479 479.562L152.436 480.114V481.005L152.054 481.6L150.653 482.407L150.525 483.723L149.081 486.059L148.147 485.55L147.085 486.314L143.263 486.229L141.947 486.739L140.843 488.013L139.271 488.947L138.592 488.607L135.831 487.885L134.812 487.291L135.237 486.739L134.642 485.677L132.561 485.252L132.052 484.148L135.322 484.53L135.661 483.723L137.403 484.106L139.399 483.341L141.48 483.002L142.541 482.449L142.159 479.986L142.796 478.84L140.375 479.009L141.225 479.986L141.565 481.218L140.758 482.364L137.403 482.959L136.468 483.002L130.565 482.364L129.206 483.002L127.125 481.727L128.314 481.133L129.461 480.114L131.627 479.646L132.476 478.585L132.136 475.57L131.797 474.932L130.183 474.338L127.125 474.083L124.747 474.465L124.322 473.319L124.832 472.979L124.959 471.62L127.295 471.28L128.612 470.261L132.221 469.369L133.623 468.435L133.878 466.354L134.43 465.717L136.766 465.759L139.016 466.736L141.097 466.354L141.607 465.717L143.221 466.226L144.537 466.099L144.325 464.995L144.665 464.273L146.109 464.103L146.958 463.636L149.464 461.045L150.568 461.343L151.417 461.895L151.375 460.281L152.989 459.686L158.255 459.814L159.529 458.709L160.803 458.412L162.502 457.35L164.413 455.864L166.791 455.482L171.887 452.084L174.435 449.324L175.709 447.455L176.346 446.224L177.153 442.699L178.13 440.83L177.918 439.046L178.555 438.537L179.914 439.004L180.636 438.792L182.844 437.518L183.693 437.305L186.242 437.178L187.431 437.56L187.813 438.409L187.601 439.981L188.45 441.17L190.403 440.915L191.338 440.108L192.23 440.236L191.635 441.934L190.743 442.401L190.616 443.548L192.315 444.482L193.334 446.521L193.504 447.498L194.353 447.54L195.117 448.39L194.65 448.857L192.909 449.112L191.72 449.961L192.357 451.023L192.739 452.679L191.508 453.231L191.168 454.42L191.083 456.204L190.658 457.52L191.04 460.578L192.527 460.96L192.315 462.489L194.141 463.084L195.075 465.462L193.801 466.439L192.824 467.755L192.697 468.69L193.164 469.921L192.145 470.813L191.847 472.342L192.017 473.531L191.593 474.38L190.234 475.4L189.597 476.971L188.153 478.755L189.681 480.241L190.956 480.071L191.423 479.392L192.569 479.689L194.608 479.052L196.986 479.986L197.326 480.581L198.897 479.349L201.828 478.457L202.167 477.056H203.696L205.013 476.461L205.82 477.311L207.051 477.65L207.985 478.5L209.897 478.287L210.576 477.141L213.421 477.481L215.545 477.353L216.734 478.245H218.772L220.131 478.84L220.726 479.901L220.768 481.175L221.236 481.855L222.552 482.152L223.147 482.832L223.104 485.082L223.699 487.248L220.684 488.437L217.371 489.457L218.433 490.773L217.626 491.835L215.333 491.283L212.912 491.453L212.275 491.708L210.151 493.279L209.514 494.128L208.198 493.406L207.816 494.128L206.074 493.789L205.183 494.383L203.059 493.321L201.658 493.576L199.619 494.511L199.534 495.912L199.789 496.846L199.449 497.653L197.283 498.46ZM181.528 399.933L182.632 399.253L187.261 397.767H188.705L188.28 396.79L187.091 395.813L188.365 395.431L189.639 396.281L190.446 395.941L191.38 396.153L193.546 397.894L198.345 397.767L200.044 397.47L202.125 396.705L208.113 394.454H208.58L207.943 395.474L207.603 397.342L208.962 398.022L209.344 398.659L209.005 400.103L209.26 401.547L211.001 403.84L212.147 404.859L212.954 405.157L215.502 405.326L217.371 408.512L218.305 409.743L217.881 410.125L217.456 412.121V413.438L219.367 415.222L214.865 416.623L210.194 416.92L207.561 419.256L206.754 420.403L204.843 420.997L203.399 420.7L203.102 421.634L202.507 422.186L200.978 422.271L198.812 423.036L198.388 423.418L197.963 424.862L198.642 426.009L198.982 427.792L197.666 429.661L194.863 430.001L193.546 430.723L192.357 430.638L190.786 431.062L189.384 430.765L187.77 432.591L188.025 433.356L187.558 434.842L185.902 436.074L184.373 436.541L183.693 437.305L181.697 437.135L178.342 437.9L177.705 437.475L175.837 435.394L175.37 434.587L175.539 433.271L176.261 431.912L178.088 430.34L178.427 429.364L180.806 428.132L180.253 427.665L178.767 428.259L175.624 425.202L174.86 423.885L174.817 422.951L176.049 422.399L175.454 420.36L175.582 419.256L178.385 417.642L177.833 417.218L176.856 417.897L176.092 417.218L174.987 417.855L173.841 417.94L171.462 417.642L168.405 418.364L166.833 419.086H163.903L162.204 419.978L160.675 421.295L159.826 422.611L160.293 423.885L159.104 424.607L156.344 423.248H155.324L154.475 423.885L153.541 424.055L151.205 423.885L149.336 424.947L149.039 423.545L149.931 422.399L155.961 417.133L159.019 416.283L162.459 414.245L163.351 413.141L166.154 411.782L166.706 410.083L167.003 407.237L167.853 407.832L168.575 406.558L170.316 404.987L171.547 404.477L173.034 402.481L174.011 401.589L175.157 401.037L177.705 400.655L178.725 400.995L180.169 400.358L181.145 400.188L181.528 399.933ZM154.05 396.111L155.282 396.068L156.216 396.748L157.151 397.979L158.042 399.721L157.023 400.315L156.174 399.721L155.367 398.489L154.602 398.022L153.116 397.979L152.436 396.663L153.583 395.898L154.05 396.111ZM173.076 397.257L174.138 397.3L175.879 396.918L176.261 396.408L178.725 396.62L179.829 397.045L178.937 397.767L177.408 399.848L175.37 400.443L173.289 401.462L172.184 402.481L171.802 403.5L169.636 404.987L166.918 406.218L164.88 405.878L163.988 406.218L164.073 404.944L165.007 404.01L164.158 403.5L163.181 404.562H162.544L160.718 403.67L160.463 401.971L159.614 401.334L158.297 399.211L157.533 398.489L157.83 397.555L158.212 393.775L157.703 392.204L158.467 391.779L163.903 390.377L168.107 390.76L170.103 391.779L170.486 393.478L171.845 394.327L171.76 395.049L172.609 395.898L173.076 397.257Z" fill="#009649" stroke="white" stroke-width="2" stroke-linejoin="round" data-country-region="West Region"></path>
<path class="region" d="M278.184 535.322L278.014 534.558H275.551L275.508 533.284L273.3 533.793L272.366 531.967L272.918 530.354L272.535 528.4L271.389 528.527L271.134 527.126L272.323 526.361L272.62 525.045L271.261 524.833L270.157 525.427L269.393 525.3L268.246 524.28L266.42 521.86L267.439 521.265L269.902 520.925L270.37 521.52L271.261 520.756L272.408 521.647L274.277 521.945L275.381 522.412L277.207 522.582L278.354 523.686L279.033 523.941L280.944 523.431L281.411 522.497L280.52 521.52L281.581 520.288L280.52 519.397L280.604 518.292L280.137 516.551L280.562 515.362L279.245 514.385L279.458 513.111L279.161 511.965L277.886 510.096L277.419 508.397L278.099 508.227L280.35 508.567L281.539 507.548L282.431 507.293L284.172 507.973L284.639 507.548L284.172 506.316L285.021 504.83L284.724 503.386L286.423 503.216L285.955 501.39L284.469 500.795L283.195 498.927L283.62 498.46L284.979 498.162L284.724 496.803L283.79 496.251L282.685 494.765L282.516 494L282.346 493.236L281.581 493.066L279.713 490.433L278.523 490.221L278.439 488.777L279.203 488.14L279.415 487.036L278.184 486.016L278.226 484.487L279.67 484.742L279.755 484.063L278.566 483.086L278.396 481.642L277.886 479.986L277.165 479.306L278.481 478.075L278.651 474.974L279.415 473.446L280.307 472.851L279.925 472.002L281.369 470.812L281.114 470.133L279.5 469.369L279.713 468.01L281.751 469.581L282.516 468.901L284.044 468.816L284.257 467.967L285.403 467.755L285.786 467.245L286.38 464.952L286.423 463.848L287.484 462.361L288.758 462.234L288.886 461.342H290.16L291.349 462.191L292.581 461.512L291.604 460.747L293.005 459.898L293.855 458.412L297.422 461.937L295.851 462.404L295.001 463.296L294.874 465.037L295.214 465.504L296.19 468.222L299.63 468.307L300.565 467.797L301.584 467.712L302.858 466.651L301.414 466.183L303.368 464.782L305.916 464.23L306.468 463.635L307.869 463.763L309.993 463.253L311.649 466.141L313.093 465.334L313.603 463.975L314.792 463.253L313.772 462.531L312.668 460.875L314.877 460.28L315.726 458.921L317 459.219L317.595 458.369L319.039 458.412L322.181 456.755L323.583 457.69L323.158 459.219L324.984 460.79L325.579 461.937L323.54 463.296L321.969 465.037L323.2 465.631L322.988 466.905L322.139 467.797L322.691 469.199L322.011 469.963L321.459 470.6L320.695 472.384L321.841 472.724L323.328 473.828L324.305 473.615L326.088 474.974L327.235 476.886L326.471 476.758L325.281 477.862L323.838 477.438L322.139 477.31L321.162 476.376L321.247 475.611L319.633 475.314L318.911 476.461L319.761 477.438L321.077 478.16L321.289 479.604L321.757 480.198L323.073 480.708H324.899L325.918 481.6L326.895 481.217L327.66 481.812L326.598 482.449L327.065 484.7L328.382 484.487L328.721 485.082L327.617 486.526L327.872 488.352L328.934 489.244L329.868 491.452L329.316 494.468L328.764 495.359L329.741 496.379L331.142 496.633L331.524 497.95L332.883 498.205L333.563 498.842L335.049 499.564L336.663 499.988L336.875 500.413L337.258 501.178L336.493 502.409L336.621 503.683L337.427 503.428L338.489 501.645L339.593 501.008L340.655 502.112L340.613 503.471L342.354 502.876L342.991 503.938L343.5 504.83L344.477 505.552L345.624 505.382L346.346 504.405L347.96 504.15L348.852 503.301L349.956 503.386L350.55 503.853L350.932 505.552L352.291 505.509L352.929 505.934L353.99 505.637L354.118 504.405L355.094 503.683L355.562 502.749L356.623 502.027L357.175 500.201L357.09 499.649L356.836 498.629L357.685 497.525L359.002 496.506L359.469 495.699L361.677 496.336L363.036 495.954H363.716L364.013 496.506L364.395 496.931L365.202 497.058L365.712 496.931L366.391 496.676L369.109 496.336L370.001 495.232L371.233 495.274L370.553 496.209L371.827 494.807L372.804 494.595L379.641 495.402L380.788 496.506L380.406 497.355L377.348 497.185L375.989 498.205L373.653 498.927L375.012 500.073H378.537L377.688 503.004L378.665 500.073L380.406 500.413L379.896 499.054L381 498.545L381.552 500.243L382.614 501.475L391.745 502.324L397.011 501.008L410.771 499.988L411.833 500.498L411.45 502.282L410.601 503.386H409.072L408.987 504.745L410.006 507.081L410.389 509.204L410.049 511.285L409.199 513.026L408.053 514.13L405.207 514.937L404.018 515.659L402.107 515.744L401.003 516.764L400.154 517.061L397.351 517.103L395.652 517.74L393.996 518.972L391.363 522.157L391.957 525.682L390.471 526.149L387.243 525.3L384.355 524.535L382.657 525.002L378.452 528.273L376.753 528.91L367.453 530.481L365.839 531.075L364.65 532.35L363.206 533.114L361.592 534.94L359.171 534.855L357.175 534.261L355.222 534.218L354.075 533.454L350.72 532.902L342.524 530.523L340.995 530.438L339.976 530.906L338.404 530.396L332.926 531.967H325.579L318.529 533.878L317.425 533.326L316.788 533.921L317.085 534.94L316.066 535.874L315.089 535.62L311.182 533.624L311.097 532.732L312.923 531.967L311.649 530.693L310.078 529.929L308.336 529.547H307.317H307.02L306.213 529.716L304.642 532.987L303.495 533.114L302.646 532.35L304.132 529.716L303.877 528.952L303.325 529.377L300.65 529.547L301.499 530.736L301.711 532.689L300.565 533.114L299.121 532.477L298.526 531.67L296.148 530.354L294.152 529.716L293.43 528.994L292.581 528.145L287.867 526.022L288.843 526.659L293.218 530.693L293.472 532.052L292.496 532.35L289.735 532.562L289.693 533.454L287.739 533.751L285.955 534.388L284.554 534.218L282.94 536.469L281.199 535.789L278.184 535.322ZM303.495 536.809L304.344 537.913L303.792 538.677L301.499 539.314L299.97 540.716L299.758 542.754L295.001 543.901L293.43 543.519L285.658 539.017L284.044 539.187L283.62 538.253L285.318 537.106L289.098 535.662L289.863 536.299L290.839 535.662L292.326 534.218L293.387 533.581L294.364 533.539L300.862 535.662L302.348 535.747L302.858 536.639L303.495 536.809ZM309.695 532.732V533.114L306.171 532.732L307.147 532.01L308.252 530.481L309.313 531.118L308.804 531.967L309.695 532.732ZM389.961 501.135L388.899 501.475L383.931 501.178L382.317 500.286L381.298 498.927L381.85 497.44L382.699 496.973L388.008 498.417L389.791 499.691L389.961 501.135Z" fill="#009649" stroke="white" stroke-width="2" stroke-linejoin="round" data-country-region="East Region"></path>
<path class="region" data-country-region="North Region" d="M235.589 163.807L235.419 167.417L237.118 169.965L238.349 170.814L240.091 172.895L240.006 173.702L238.986 174.085L235.844 173.32H232.531L230.705 174.17L228.412 175.656L227.605 177.1L227.52 178.714L227.775 179.648L229.176 181.559L229.261 183.47L228.454 185.041L227.477 186.188L226.628 186.655L225.142 186.57L222.891 186.103L220.13 187.207L216.308 190.732L214.227 191.412L213.633 192.898L214.482 194.724V195.446L213.59 195.956L210.235 196.338H202.378L200.892 196.211L199.958 195.659L197.579 196.593L197.24 197.145L197.452 197.485L197.027 199.226L197.112 201.095L196.773 201.647L195.626 202.539L194.989 204.322L194.14 204.11L191.634 204.619L190.827 204.45L189.128 203.43L188.279 204.407L187.982 205.936L187.599 206.148L185.264 205.809L182.546 206.191L179.913 205.469L179.36 205.511L178.341 206.276V207.55L176.218 208.399L174.137 208.824L172.905 209.928L171.546 209.801L170.4 210.48L168.616 212.306H168.149L167.045 211.924L166.28 211.075L165.473 210.99L164.199 212.349L163.859 213.113L162.755 213.538L162.925 214.982L162.076 215.576L161.906 216.001L162.331 216.85L159.91 217.742L157.532 217.997L157.277 218.379L157.234 219.526L158.721 219.611L160.334 219.101L160.844 219.271L160.972 220.036L160.504 220.46V221.055L161.821 221.31L162.288 221.947L163.265 223.263L163.01 223.603L162.585 223.433L161.778 223.051L157.744 224.452L157.914 224.962L159.018 225.174L159.443 225.557L159.485 225.981L158.296 227.425L158.338 227.85L158.806 228.232L159.782 228.487L158.721 229.081L157.234 229.039L156.385 229.421L156.342 229.549L156.173 230.271L154.346 230.823L152.987 231.799L152.648 232.649L151.501 233.838L151.671 234.22L153.964 235.239L154.007 235.409V235.622L153.709 236.131L153.582 236.301L153.624 236.344L153.794 236.556L156.3 236.046L156.852 236.131L159.145 236.429L158.169 237.533L158.211 237.703L158.338 238.085L158.721 238.509V238.552L158.508 238.679L157.999 239.062L157.786 239.784L157.744 239.741L157.532 240.251L157.617 241.525L157.659 242.884L159.485 246.748L160.334 248.702L160.844 249.254H160.802L160.844 250.018L160.759 252.015L160.717 252.736L160.632 253.246L160.589 253.373V253.841L160.632 254.393L160.674 255.497L160.929 256.474L159.315 256.219L157.574 255.412L155.493 253.458L153.879 252.991L152.053 251.08L151.544 249.212L150.949 249.127V250.698L152.818 252.821L152.987 254.223L151.204 254.308L150.269 254.011L149.845 253.246V249.849L151.544 246.791L154.559 243.436L153.54 243.266L151.076 246.791L150.482 247.428L149.293 247.046L149.42 245.432L148.868 244.158L147.721 244.498L148.698 247.3L148.995 249.127L148.188 250.486L148.358 253.331L148.019 254.138L147.084 254.393L147.679 255.412L147.467 256.134L146.192 257.578L145.683 259.192L144.664 260.211L142.88 260.041L142.243 259.489L141.691 258.13L141.181 255.582L139.61 253.968L139.1 252.864L138.421 253.246L139.058 254.095L140.544 256.983L140.799 258.088L139.652 258.385L137.019 256.771L136.255 255.412L135.278 257.748L134.004 259.022L134.938 260.551L135.575 262.292H134.853L131.668 261.188L131.286 260.763L131.074 259.447L130.182 258.852L130.139 257.026L130.691 255.115L130.267 253.543L131.286 252.736L136 247.046L138.378 246.324L140.544 245.05L142.073 242.629L142.795 241.949L145.64 240.845L147.084 240.081L147.212 239.062L145.64 240.293L143.262 240.633L141.946 241.27L139.992 244.158L135.023 246.536L131.498 250.316L130.054 250.655L129.842 251.675L129.035 252.864L128.143 253.076L125.765 252.864L125.383 255.709L126.36 256.134L126.997 258.682L127.506 259.022L127.167 260.466L129.375 262.249L130.352 263.523L130.691 264.84L129.8 265.944L127.761 266.581L125.808 268.153L124.576 269.894L124.236 271.677L123.302 272.187L123.514 274.013L124.364 274.438L124.406 275.669L123.217 276.179L123.472 277.198L122.198 279.237L122.155 280.681L121.646 280.766L120.669 282.549L119.947 283.271L119.904 284.078L120.626 284.8L121.773 286.541L121.306 287.348L119.904 288.75L118.376 289.769L116.464 290.236L114.766 289.854L113.364 290.491L111.708 290.618L110.561 289.727L110.179 287.476L110.391 285.225L111.581 284.503L113.619 282.592L113.492 279.109L114.129 277.538L113.577 276.434L115.742 272.399L115.955 271.338L115.488 270.616L117.781 269.214L118.376 267.898L119.777 266.199L121.518 265.477L123.005 264.5L124.321 263.141L125.17 261.527L121.051 264.84L119.522 265.689L118.8 265.18L117.144 264.628L116.295 263.354L116.125 261.527L117.908 259.616L118.163 258.385L115.912 259.362L115.36 257.833L120.032 252.736L120.244 251.208L118.46 252.099L118.206 253.076L116.337 254.563V255.709L115.445 256.856L114.936 256.431L115.488 254.308L117.059 252.142L120.287 248.914L120.881 248.15L122.155 248.787L121.433 246.451L123.005 244.625L123.557 243.436L122.325 243.691L120.499 245.432L119.819 244.88L120.414 243.818L121.943 241.949L122.113 240.675L124.321 239.996L123.599 239.062L121.9 239.444L120.711 240.251L120.074 239.699L121.263 236.046L122.75 234.39L123.981 232.224L125.298 231.587L125.128 231.12L126.232 230.101L127.591 229.634L131.753 229.336L135.023 230.016L136.425 229.803L137.529 229.124L140.204 226.576L139.907 226.448L138.208 227.51L136.764 228.997L134.981 229.124L130.649 228.402L129.502 229.124L128.823 228.784L128.228 226.788L127.167 227.468L126.36 228.572L125.808 228.275L127.336 225.726L127.591 225.004L129.545 225.981L131.243 225.726L133.24 224.622L132.433 224.24L130.352 225.302L129.375 225.217L128.313 224.24L130.861 221.012L132.857 219.611L132.348 218.464L133.622 217.742L135.236 217.827L136.425 217.02L139.1 217.445L138.845 216.681L135.703 215.576L136.425 214.26L139.228 212.094L140.756 210.225L138.251 211.754L137.274 212.816L136 213.241L135.575 214.515L134.471 215.746L132.772 216.086L131.498 216.808L129.46 218.804L127.549 219.441L126.912 220.418L125.043 221.395L123.344 223.136L120.541 225.429L117.696 227.043L116.634 226.236L114.766 225.769L113.577 225.004L114.214 224.113V223.178L112.6 224.707L110.137 224.325L104.191 220.715L104.064 219.484L105.083 218.931L107.121 218.846L111.241 219.908L109.924 219.016V218.464L114.341 216.383L115.318 216.341L117.866 217.275L118.46 216.935L116.422 216.001L114.766 215.661L110.222 217.445L108.693 217.742L106.314 217.02L103.469 217.19L100.454 216.596L99.4345 216.681L97.8632 217.572L96.8439 217.445L95.4 216.681L94.9753 214.939L95.7822 214.897L97.2261 213.58L103.554 213.071L105.508 212.136L106.824 212.094L108.183 213.071L110.306 213.75L110.052 212.434L111.241 212.349L112.812 211.627L110.859 210.225L111.453 209.249L115.7 208.824L117.399 208.272L116.804 207.465L116.082 208.357L113.661 208.017L115.742 206.233L113.916 205.978L110.009 206.616L110.986 205.511L109.882 204.747L110.604 204.152L112.005 200.797L113.916 199.566L115.19 199.268L116.252 199.396L117.866 201.222L119.055 201.732L120.372 201.902L122.622 201.519L122.113 200.797L121.178 201.264L117.993 200.16L118.291 198.759L117.399 198.292L115.318 198.546L113.789 197.527L114.426 196.678L117.017 194.342L118.715 194.427L119.862 193.875L120.881 194.13L123.387 195.404H127.379L125.638 194.724L124.109 195.064L122.368 193.62L118.97 192.898L118.503 192.389L118.843 191.454L120.881 189.288L120.159 188.396L121.178 187.42L122.92 186.655L124.321 186.443L125.595 187.122L126.827 188.227L128.186 188.949L128.101 187.929L126.02 186.061L127.591 184.574L127.634 183.598L125.892 184.999L123.727 185.891L122.07 186.018L119.735 185.381L117.144 185.721L116.804 184.999L117.993 183.215L119.989 182.069L120.669 182.833L121.646 182.706L126.232 181.177L128.101 179.988L128.483 178.544L127.804 178.416L126.699 179.223L124.788 181.049L123.684 181.602L121.773 181.177L121.9 179.775L121.348 178.799L120.669 179.223L117.823 181.771L116.804 182.154L114.681 182.366L113.746 182.026L113.109 179.945L113.364 177.27L111.878 176.887L111.453 175.444L111.538 174.382L112.302 173.15L112.387 171.749L113.194 171.324L112.94 170.262L113.661 170.05L115.063 170.475L117.186 172.046L118.248 172.216L118.885 172.98L120.456 173.745L120.372 172.768L123.302 172.428L125.935 172.598L124.916 171.536L123.09 171.239L121.263 171.409L120.117 172.089L118.036 170.093L116.167 167.417L114.426 166.95L114.511 165.676L115.36 165.039L115.148 164.147L117.441 163.552L118.63 164.487L119.48 163.34L118.078 162.193L114.723 161.641L114.596 161.089L114.936 158.711L114.638 157.649L114.808 156.418L115.53 155.483L117.144 154.889H118.206L120.202 155.568L120.117 157.309L120.626 159.136L122.155 160.282L123.472 158.499L123.769 157.055L123.217 156.29L121.731 155.271L121.136 153.785L122.835 152.001L123.854 152.723H125.34L125.043 154.124L126.147 155.186L127.804 155.781L129.332 155.101L129.885 153.615L130.819 153.063L132.645 153.615L134.259 154.889L135.618 155.483L138.506 156.29L137.486 155.228L136.34 154.846L134.599 153.572L132.05 152.765L131.541 152.001L132.857 151.236L133.622 151.576L134.683 152.723L135.575 153.063L137.232 152.723L139.525 153.615L140.969 154.634L142.668 155.186L143.602 155.016L139.652 152.553L139.822 151.619L139.44 150.345L135.915 149.283L132.985 146.777L130.522 146.65L131.116 145.546L129.842 143.847L130.649 143.167L132.178 143.465L133.07 144.824L134.004 144.314L135.745 144.611L136.764 143.762L136.255 141.978L136.552 140.959L138.251 140.534L138.293 140.152L136.297 140.11L136.085 139.473L134.726 138.751L135.066 137.646L134.131 137.477L132.348 135.481L133.07 134.461L135.66 135.566H137.019L138.676 134.801L140.417 134.716L141.224 135.183L143.05 134.122L145.513 135.183H148.953L148.656 134.122H147.849L147.042 134.716H146.235L144.366 133.824L141.903 131.234L141.436 129.79L142.583 127.666L142.625 126.775L143.857 126.944L146.15 128.049L147.849 128.006L145.47 126.647L144.324 125.5L146.575 124.609L144.409 122.867L144.536 121.466L147.042 120.362L147.636 119.895L148.698 116.072L149.378 115.52L154.559 116.285L156.173 117.346L156.64 119.682L157.149 120.022L157.447 118.196L158.551 117.049L159.782 118.153L162.458 119.3L162.118 120.532L160.207 121.891L158.211 124.906L158.976 124.821L161.439 122.995L162.118 122.06L164.327 120.914L165.516 118.323L166.492 118.026L168.234 118.281L169.89 118.79L171.843 119.767L171.801 120.914L170.867 121.678L169.678 123.674L170.315 124.141L171.461 123.037L171.801 122.23L173.585 120.914L176.26 119.81L177.449 119.98L178.638 120.744L179.87 119.682L180.592 119.427L181.909 119.767L182.588 118.918L184.584 118.79L185.773 118.96L187.132 117.516L187.939 117.346L188.916 118.536L189.808 118.408L193.248 118.79L196.688 118.408L198.429 117.856L201.232 116.412L202.803 115.903L205.309 115.563L206.583 115.605L207.899 116.879L209.046 116.794L211.339 116.242L213.548 116.964H214.652L215.246 115.903L213.803 115.35L212.783 114.076L213.718 113.269L214.992 113.057L215.374 114.289L216.903 114.501L219.578 113.907L221.192 113.822L223.231 114.841H224.59L227.223 114.501L228.582 114.883L228.327 115.818L227.308 117.686L225.864 119.47L224.802 120.192L223.995 121.551L224.42 122.995L225.269 123.377L226.586 123.08L227.01 123.972L226.033 124.821L225.609 126.647L223.825 128.983L221.659 131.149L220.088 132.338L218.389 133.017L214.822 133.867L213.42 134.461L211.212 135.948L210.532 137.307L209.768 138.156L208.027 139.473L199.023 144.484L196.008 145.546L195.244 146.055L194.437 147.669L193.842 148.306L191.549 148.943L188.534 150.345L188.024 151.619L186.92 150.727L184.627 150.769L185.603 151.576L187.472 151.789L188.534 153.063L187.005 155.144L185.179 154.846L183.735 155.908H182.631L180.295 155.059L179.191 154.846L175.92 155.441L175.029 155.016L173.755 153.742L172.183 153.063L174.264 155.271L175.538 156.035L177.067 156.29L179.573 155.611L181.909 157.14L182.376 156.29L184.924 157.522L186.325 157.777L188.661 156.503L189.935 156.715L191.379 158.329L192.908 157.862L194.394 156.885L196.178 155.228L196.942 155.823L196.475 157.097L190.827 162.151L189.893 162.66L188.236 164.147L186.792 164.062L187.132 162.745L186.07 161.981L184.669 162.363L181.484 164.359L177.237 165.081L175.793 164.996L175.199 166.313L173.967 166.822L171.291 168.691L170.187 170.347L172.183 169.753L174.307 167.799L176.218 167.035L177.789 165.888L179.53 165.251L180.847 165.846L183.777 166.143L186.75 164.614L187.557 165.209L185.476 167.332L184.287 167.969L182.8 169.54L183.352 170.262L181.441 170.39L179.106 171.706V172.428L177.364 174.552L179.573 174.849L180.422 174.552L181.441 173.49L182.8 173.278L184.839 171.791L186.155 171.452L185.349 169.965L189.086 169.54L192.95 169.838L194.224 169.54L197.622 167.799L200.51 166.355L202.931 165.931L202.081 167.035L202.591 167.332L204.29 167.035L203.483 165.633L204.969 165.973L206.54 165.931L207.814 165.081L208.409 163.255L209.641 163.425L211.764 162.745L216.818 162.873L219.791 164.274L225.099 165.548L226.883 165.591L228.539 165.251L231.724 163.807H235.589ZM200.213 177.27L200.51 174.807L200.128 176.463L200.213 177.27ZM199.236 172.726L199.321 171.834L199.108 171.324L199.236 172.726ZM234.145 105.54L232.998 106.05L232.446 107.664L233.041 109.277L231.852 110.212L229.983 108.81L230.535 108.046L229.388 106.177L228.114 105.54L229.686 104.776L231.469 104.521L233.296 104.606L234.145 105.54ZM219.748 101.591L221.829 103.799L222.636 105.54L220.895 105.837L220.767 106.942L223.103 106.177L223.231 107.281L221.235 107.664H217.497L216.393 105.625L215.204 104.861L214.397 103.799L214.609 103.077L212.359 102.695L212.231 102.185L212.953 100.954L213.887 100.359L215.671 99.9343L216.775 100.147L218.134 101.081L219.748 101.591ZM223.655 88.8076L225.014 89.7843L226.501 89.572L227.52 90.4214L227.775 91.5256L230.068 92.4174L230.026 93.0969L227.647 93.7339L225.057 96.282L227.35 96.6643L229.304 95.3053L230.79 96.2396L232.446 95.6025L233.933 96.6643L234.315 97.3862L235.164 97.5136L236.523 96.8341L238.137 96.6218L238.477 97.5561L236.226 98.7877L237.203 99.8919H238.689L237.882 98.4479L240.643 97.726L241.45 98.3205V99.722L240.345 100.359L238.264 100.826L237.33 102.015L236.056 102.313L233.041 101.421L232.191 100.699L230.747 98.6178L229.941 98.363L228.751 99.2973L227.562 99.3822L226.84 99.8919L225.609 99.8494L224.929 100.571L223.952 100.274L221.532 100.571L220.555 99.8919L220.13 98.7452L220.3 97.641L221.447 95.9423L220.682 94.2011L219.918 94.6258L219.069 95.8149L219.408 97.3438L218.092 98.4479L216.733 98.4055L215.586 97.0889L215.077 95.3477L216.053 93.4791L215.841 91.1433L216.945 89.6145L218.729 88.7651L220.682 88.5103L223.655 88.8076ZM245.314 88.2979L246.206 89.0199L246.546 89.9542H247.565L248.542 91.8653L246.801 92.0352L245.951 92.4174L245.909 91.2283L245.314 90.6337L243.785 90.931L243.913 91.7804L242.426 91.568L243.276 90.5912L245.017 90.1666L244.932 89.2747L243.318 88.1705L244.932 87.7883L245.314 88.2979ZM228.794 86.7266L230.747 86.4718L231.852 86.6841L230.832 87.7458L230.875 89.2747L229.686 89.572L227.265 89.2747L225.354 88.0007L225.142 87.0664L225.864 86.3444L227.987 86.0046L228.794 86.7266ZM239.284 83.5415L240.26 83.8387L240.897 84.5607L239.538 86.1745L239.581 87.7034L240.558 88.5103L238.647 88.85L237.882 87.491L236.736 87.1088L237.288 86.3019L238.519 86.0046L238.349 83.9237L239.284 83.5415ZM254.233 80.9084L254.36 81.418L252.449 81.4605L251.685 81.7153L250.113 83.7963L249.391 83.1168L248.712 83.2017L246.928 84.5607L245.866 83.5415L243.488 85.4525L242.469 84.9004L243.658 84.2634L245.059 82.8195L246.206 82.4797L246.546 80.9933L248.202 80.3563L247.99 81.2906L246.971 82.14L249.306 81.9701L250.368 81.2057L252.194 80.9933L253.638 79.6768L254.233 80.9084ZM232.276 78.1055L231.554 78.5726L231.682 79.2946L230.578 79.6343L234.272 80.4837L235.207 82.14L236.481 82.4797L236.82 83.1168L235.546 83.3716L235.207 82.8195L233.253 81.5454L231.087 80.9933L230.45 82.3523L229.261 81.6728L228.497 80.0166L227.18 79.3795L227.053 78.8699L229.134 79.0822L229.813 78.8699L231.554 77.5109L232.276 78.1055ZM94.1684 199.736L95.2726 200.118L94.6356 202.029L93.7862 203.133L92.6395 203.6L91.0682 203.728L90.3462 203.43L89.7517 202.156L88.5625 201.689L86.5665 200.458L89.1146 198.462L90.4312 197.74L92.0025 197.57L94.1259 198.546L94.9753 199.268L94.1684 199.736ZM84.2307 197.994L81.5977 198.122L81.173 197.57L83.3814 196.848L84.8253 197.315L84.2307 197.994ZM108.82 185.339L107.461 185.721L106.399 185.424L105.508 184.702L105.295 183.98L106.272 183.555L107.673 183.767L108.693 184.532L108.82 185.339ZM106.951 174.552L105.338 178.714L105.295 180.327L106.145 181.559L106.314 182.408L103.639 183.513L102.832 181.134L103.299 177.779L103.639 176.887L105.508 176.038L104.701 174.934L105.592 174.594L106.951 174.552ZM107.631 172.641L106.867 172.004L107.673 170.432L108.226 170.645L107.631 172.641ZM94.0835 163.807L94.763 164.699L96.037 165.591L97.0987 167.035L98.8824 168.096L100.199 169.753L100.411 173.363L100.709 174.934L100.624 176.463L99.8592 178.756L101.218 179.775L100.284 181.049L100.411 181.899L101.6 182.833L101.515 183.682L99.5619 184.617L103.044 184.277L103.979 184.489L103.681 186.018L105.423 185.594L106.697 186.485L108.863 186.655L109.712 187.887L110.306 187.929L111.156 187.165L112.855 187.207L114.044 186.4L116.379 186.103L117.059 186.783H120.074L119.352 188.057L119.522 188.991L118.163 190.69L115.997 191.794L114.383 191.921L113.577 194.172L111.793 194.979L108.565 198.037L107.121 198.886L104.955 199.184L104.021 198.292L104.191 197.4L105.338 196.253L105.253 195.446L107.036 193.195L109.584 191.454L106.102 191.497L105.762 190.393H104.616L103.724 192.219L102.45 193.748L101.303 193.578L100.963 190.775L98.3303 191.157L92.5121 192.219L94.2958 190.393L92.8519 190.18L91.4929 190.775L90.1763 188.949L91.6203 187.887H89.0722L87.2035 186.061L86.2268 184.277L88.9447 183.088L89.8366 183.215L92.0874 184.829L92.6395 184.319L89.4119 182.196L87.5858 182.451L87.6707 181.729L86.524 180.625L86.0569 179.733L85.2075 180.412L84.8678 179.266L83.169 179.903L82.6594 180.922L83.0841 181.856L82.2772 182.876L78.5824 181.984L76.8837 180.88L76.3316 178.756L74.6753 177.864L74.2931 176.718H76.7987L75.9069 175.698L75.8644 175.061L76.7563 173.83L77.5632 173.872L80.9182 177.27L81.81 176.038L80.5784 174.764L81.4278 173.787L83.3389 174.254L82.9567 173.278L81.9799 172.471L79.7715 171.706L80.7908 170.39L81.3004 168.818L83.169 170.093L83.4663 171.324L84.1033 171.834L85.9719 172.556L87.3734 173.787L90.0065 173.32L90.5586 173.532L92.9793 175.316L93.0642 174.594L91.1531 172.768L90.5161 171.664L91.2805 170.602L91.323 169.625L90.2188 169.201L90.4312 168.479L89.7092 166.78L92.0025 165.633L92.9793 163.977L94.0835 163.807ZM138.336 283.059L136.425 283.314L134.216 283.144L132.305 282.634L130.649 281.87L128.993 280.766L128.526 277.878L129.12 277.198L127.379 275.075L127.082 273.801L127.336 272.102L127.931 270.956L128.95 269.809L130.267 269.002L131.668 268.79L131.413 268.025H132.815L135.49 269.002L137.019 270.531L137.529 271.635L138.293 274.268L137.784 274.99L139.525 276.307L139.567 277.496L138.166 277.878L138.378 278.6L140.374 279.364L139.44 279.831L139.992 282.21L138.336 283.059ZM143.305 267.685L142.498 268.025L141.648 266.624L139.015 264.798L138.633 263.906L138.123 261.74L136.722 261.018L135.703 258.894L135.788 258.088L137.147 257.578L139.61 259.362L140.629 259.744L140.841 260.933L141.818 261.527L142.922 263.651L143.305 265.307L142.498 266.624L143.305 267.685ZM98.4577 262.292L98.5002 263.906L99.3071 264.925L100.454 265.732L100.072 267.006L101.176 267.728L101.388 270.191L99.6468 270.956L97.9056 272.399L95.6123 273.121L93.8711 272.909L93.319 273.121L92.9793 274.268L91.323 275.415L90.2613 275.712L89.2845 275.457L88.7749 274.268L89.0297 273.036L89.964 272.314L92.2573 271.38L91.4504 269.469L90.9408 269.044L88.9872 268.45L89.1996 267.473L90.3037 266.496L92.2148 265.18L90.1763 264.713L88.9872 264.84L88.1378 265.35L86.4816 268.068L85.1226 268.747L83.2115 270.616L82.0648 270.743L81.5552 270.234L82.1922 268.45L81.6401 268.025L82.1073 267.176L84.0609 265.18L82.7019 264.458L83.5937 263.778L84.0184 261.782L85.887 260.593L88.1378 259.871L89.327 259.701L88.7749 261.188L89.0297 262.504L90.5161 260.381L91.8751 259.447L93.3615 258.809L94.4232 257.79L96.1644 257.153L97.1412 256.474L97.9056 257.111L97.9906 259.362L98.4577 262.292ZM97.7782 247.428L96.3768 249.084L95.8671 250.146L95.9521 251.08L95.1027 251.505L92.8519 251.717L92.6395 251.038L93.6163 249.084L95.7822 247.046L97.6084 246.791L97.7782 247.428ZM112.09 252.269L108.438 257.238L107.461 259.362L107.036 259.234L104.955 260.848L104.149 263.693L103.087 264.245L101.473 264.161L100.029 263.439L99.4345 262.122L99.1797 259.574L99.7318 257.833L101.091 257.196L103.002 255.922L106.272 255.454L106.654 254.605L103.766 254.987L103.172 254.095L103.724 252.906L104.955 251.547L106.229 250.401L108.353 249.679L113.746 245.899L115.02 245.304L115.87 245.602L116.04 247.47L113.874 249.339L112.09 252.269ZM114.638 244.752L114.129 243.988L116.252 242.714L116.804 243.903L115.955 244.455L114.638 244.752ZM119.48 239.444L119.522 240.208L118.758 241.737L118.333 243.393L117.186 241.61L118.121 239.868L119.48 239.444ZM120.754 236.174L119.862 237.703L120.074 238.382L119.14 238.807L118.376 238.425L118.163 237.575L119.267 236.259L120.754 236.174ZM124.321 231.12L122.877 232.649L120.881 232.946L122.028 231.502L123.302 231.545L124.321 231.12ZM97.4385 228.572H94.2958L93.2341 227.85L94.1684 227L95.2726 226.788L97.0563 227.977L97.4385 228.572ZM67.8378 229.931H66.946L64.4404 229.081L63.506 226.788L64.4404 226.448L67.2008 226.109L69.7065 225.132L72.7642 224.41L73.7835 224.452L74.2506 225.387L73.656 226.024L71.1929 226.278L71.0655 227.128L70.2161 227.638L68.3899 228.062L67.6255 228.997L67.8378 229.931ZM102.959 220.715L103.936 221.777L106.102 225.726H110.179L111.113 226.406L112.812 226.278L113.704 227.298L115.445 227.51L116.464 228.275L117.059 229.506L118.376 229.718L117.399 232.564L116.04 232.606L115.53 231.842L114.553 232.182L114.086 233.456L115.615 233.286L116.295 233.541L115.275 234.73L111.538 236.513L109.924 236.811L108.65 236.174L109.754 235.239L109.5 234.432L107.971 234.73L107.249 235.664L105.465 236.046L102.11 237.235L100.921 238.085L99.4345 237.618L97.5659 238.382H93.7862L92.6395 239.444L90.1763 238.722L88.8598 237.32L88.6899 236.344L89.0722 235.622L89.964 235.197L91.8326 235.154L93.5314 236.896L94.2958 236.556L94.2109 235.579L96.0795 235.876L97.4385 235.154L100.284 234.73L102.152 233.795L101.898 233.116L99.477 234.05L97.4809 234.432L96.4192 234.348L95.4849 233.286L96.122 232.351L97.4385 231.884L98.4153 230.016L99.1797 229.591L100.624 229.718L103.129 228.869L103.894 228.062L103.427 226.788L98.7975 228.317L97.4385 226.491L96.1644 225.769L92.3422 225.259L90.3462 224.24L92.3422 223.178L91.1956 222.032L90.9832 221.395L92.5121 221.31L93.8286 220.63L94.5506 221.267L95.1876 221.012L95.3575 219.993L96.5891 219.356L99.5194 218.889L101.983 219.611L101.685 220.63L102.959 220.715ZM81.2155 221.777L79.0071 223.008L78.3276 223.178L76.8412 222.881L76.0768 223.603L75.5247 222.456L76.6713 222.329L77.7755 221.564L80.1962 218.974L82.532 217.997L83.7636 217.233L85.9719 217.063L84.3581 219.611L82.7868 220.333L81.2155 221.777ZM285.872 67.8705L286.296 68.635L284.343 69.5693L284.428 67.9555L285.192 67.4034L285.872 67.8705ZM297.551 39.6714L298.23 40.0111L297.338 41.8797L296.531 40.181L296.616 38.8645L297.805 38.5247L297.551 39.6714ZM268.757 37.8452L268.162 38.3973L267.228 38.1425L266.209 37.3781L267.186 36.4862H268.587L268.757 37.8452ZM307.361 35.0848L307.573 36.0191L308.253 36.826L306.979 39.0768L305.492 38.1425L305.62 36.4862L304.983 35.2971L306.469 35.4245L307.361 35.0848ZM311.353 26.9732L309.782 27.2705L309.06 26.9732L310.164 25.4868L311.693 24.8923L313.944 24.8073L311.353 26.9732ZM318.02 13.2134L318.997 12.8737L320.059 13.2559L319.932 14.2751L318.955 14.8272L316.746 14.2327L315.6 14.2751L315.09 15.1245L312.924 12.5339V12.1517H317.511L318.02 13.2134ZM298.952 13.6381L298.315 14.2751L298.57 15.4218L297.211 17.0781L298.018 17.8L297.168 19.4988L298.782 19.159L297.466 21.155L296.531 22.9387L296.786 23.7881L297.636 23.4059L297.593 22.4716L298.697 21.9619L301.203 21.6647L298.782 20.2632L299.717 19.5837L300.141 20.5605L301.882 18.8617L303.114 19.6686L304.218 21.6647L303.963 22.599L303.072 22.2592L301.713 23.4483L302.519 23.7881L303.878 23.2785L304.855 23.958L305.535 23.7881L306.002 22.6839L306.554 22.6414L307.573 21.6222L308.508 22.1743L305.705 24.3402L306.469 24.5101L307.743 24.0854L307.955 24.6375L307.276 26.2088L304.176 26.4212L304.388 27.1431L306.384 27.4404L307.403 27.95L304.94 29.5214L305.535 30.1159L306.809 30.4557L305.237 31.4749L303.836 31.5599L303.114 30.4981L302.307 31.9421L304.091 32.9189L302.944 34.6601L304.218 34.5751L304.303 36.7835L303.114 37.8452L302.562 38.9069L302.944 39.6289L302.265 40.2235L303.369 41.3701L303.539 42.1345L302.222 42.6017L301.755 43.1538L302.604 44.5977L301.713 45.1498L300.438 44.5977L300.608 45.6594L300.184 47.7404L299.589 48.4624L299.759 49.2693L299.334 50.5858L299.844 51.3927L299.292 51.9873L297.678 49.8638L296.404 50.0762L295.3 49.1843L296.022 48.5473L295.809 47.7404L296.531 47.0609L296.361 45.9992L297.423 45.6594L297.211 44.7251L298.273 43.0264L298.867 40.6057L299.886 38.5672L299.717 37.1657L298.867 36.4437L298.527 35.4245L297.975 35.1697L298.697 33.386L299.759 31.8571L298.995 31.8147L297.296 33.9806L296.192 31.8996L295.47 32.2394L296.489 33.5983L296.234 34.3628L295.087 33.6408L294.578 34.5751L293.261 34.9573L292.964 36.0615L292.285 36.4437L290.756 35.7218L289.439 34.5327L290.161 33.6833L291.35 33.0463L290.416 31.9421L290.034 33.0887L289.099 33.6408L288.632 32.664L285.999 33.386L285.277 32.6216L283.833 32.1544L283.069 29.8186L284.385 28.7145L286.509 28.3322L287.995 29.4364L288.377 28.7145L289.482 28.3322L291.35 28.2048L291.86 28.5871L291.902 30.1584L292.709 29.7337L292.2 28.7145L292.752 27.95L293.644 27.6952L294.705 27.9076L295.555 28.6295L295.979 29.7337L297.083 28.7145L295.979 27.95L296.829 26.591L299.164 25.7841L294.79 24.4251V23.4483L293.091 22.3017L293.134 20.7728L292.285 20.1783L291.478 20.9427L290.841 20.7728L290.671 19.5412L289.439 19.6262L288.802 19.159L287.825 19.9659L286.466 19.881L286.933 18.4371L288.292 18.2247L288.802 16.7383L289.694 15.8465L290.713 16.3561L291.18 17.4178L292.497 18.3096L293.983 18.6494L291.86 16.3986L292.412 15.5067L294.281 14.6573L293.686 14.2751L293.983 13.2134L296.022 13.0011L298.06 13.9354L297.721 12.5339L298.612 11.4297L298.995 12.449L298.952 13.6381ZM307.403 6.67324L310.801 6.88558L310.504 8.28705L311.056 8.6268L310.631 9.73098L311.31 10.7078L310.758 11.8119L308.847 10.4529L308.508 10.7927L309.951 12.8737L308.89 13.2134L309.06 13.8929L310.036 14.7847L309.399 16.9082L309.654 17.9699L309.187 18.7343L306.809 18.3521L306.639 19.159L305.322 18.9891L304.388 18.3521L303.836 17.2055L303.411 12.364L303.751 11.2599L305.068 11.09L305.365 12.6188L306.427 12.8737L305.62 10.5804L306.129 9.47617L305.79 8.66927L306.044 7.73496L306.936 6.67324H307.403ZM319.422 3.82784L318.105 4.46487L318.36 6.20609L316.449 7.56508L317.553 9.26383L316.577 9.73098L315.642 9.3063L313.094 9.4337L311.863 9.00902L312.117 8.03224L312.797 7.18286L312.415 5.82387L313.094 5.61153L313.476 4.16759L312.967 3.36069L314.368 2.68119L315.26 1.06738L316.109 1.4496L318.658 1.27973L319.592 1.66194L320.017 2.68119L319.422 3.82784ZM48.727 201.307L47.8776 201.519L46.2213 202.623L46.0514 203.43L44.7349 203.728L41.5073 203.133L42.0594 202.114L43.206 201.647L43.3759 200.5L44.013 199.608L45.7966 199.014L46.1789 197.57L47.5803 198.292L46.6885 199.396L48.3023 200.118L48.727 201.307ZM51.0203 179.223L54.5876 181.049L54.0355 181.517L56.159 182.833L55.0123 183.258L51.7847 181.729L50.2558 180.327L49.2791 180.667L50.1709 182.026L52.1245 182.451L53.356 183.428L55.2671 183.555L56.4987 184.659L56.9234 185.381L55.5644 186.273L54.5027 188.227L53.6958 188.481L50.5956 187.887V188.227L53.1437 188.779L53.8657 189.288L54.2904 191.199L53.6958 192.898L55.0548 194.3L54.8425 195.361L51.5299 194.894L50.2134 195.446L48.7694 193.875L47.8351 191.114L48.005 189.288L46.3912 188.227L47.283 187.42L48.4297 185.126L49.2791 184.277L48.8968 182.706L47.9201 180.327L51.0203 179.223ZM53.6958 175.189L55.9466 175.656L56.4987 176.463L55.5219 177.057L55.3096 177.822L56.8385 177.992L57.0508 178.671L53.4835 179.436L52.4217 179.223L49.364 177.864L48.8968 177.27L49.7462 175.486L50.5531 174.976L52.4642 175.316L53.6958 175.189ZM58.3249 166.313L59.0044 166.61L60.236 166.143L62.232 166.44L63.3362 167.417L61.8498 168.818L61.2977 168.734L60.3634 167.757L59.0468 167.035L57.9427 167.544L57.6878 168.479L59.2167 168.649L59.5565 169.838L61.5525 169.54L60.7031 170.687L59.6839 171.197L55.8617 171.494L55.3945 170.645L53.0588 171.706V172.089H55.9891L58.4098 171.621L59.8962 171.876L60.2784 172.428L59.2592 173.83L53.9506 173.957L52.719 173.532L51.4874 171.621L49.1092 170.475L47.8776 170.262L46.6885 170.899L43.7581 169.54L44.6924 168.734L46.6885 165.931L49.1941 166.653L49.8736 167.332L51.1052 166.483L52.5491 165.931L55.5644 166.653L55.6494 165.676L57.6029 164.699L58.7071 164.572L59.3441 165.548L58.3249 166.313ZM2.81839 158.329L1.92654 158.456L1.16211 158.074L1.41692 157.352L2.90332 157.479L2.81839 158.329ZM66.7761 152.723L66.224 154.039L64.8226 153.402L64.3554 154.337L63.4211 153.785L65.1623 152.638L66.0542 152.341L66.7761 152.723ZM73.1464 135.056L74.378 136.075L75.4397 136.457L75.8644 137.307H72.5519L72.6368 136.415L72.1272 135.353L73.1464 135.056ZM100.241 129.662L100.454 130.469L97.9481 131.956L97.7358 132.975L96.7165 133.187L96.2918 133.952L95.1027 134.249L95.0178 135.481L94.2109 135.863L93.7862 136.712L95.2726 137.052L96.8864 136.967L97.9906 136.627L100.029 135.183L101.388 134.759L101.643 135.481L101.091 136.245L101.346 136.967L100.284 137.307L99.0523 138.368L97.7358 138.581L95.9096 137.859L94.1259 138.029L91.6203 137.307L92.8943 139.812L92.5546 140.917L91.8326 141.299L89.7941 141.596L88.3927 142.785L87.3734 143.04L86.3966 142.7L84.0184 144.144L89.2845 143.252L90.5586 142.743L91.6203 142.955L92.6395 145.206L92.1299 146.225L93.1491 146.268L91.1531 147.881L90.1763 148.051L86.3966 147.627L86.8638 148.646L88.3077 148.943L88.8598 149.495L87.3734 151.236L86.6514 151.619L84.9102 151.236L85.4199 152.383L83.7211 152.595L82.6594 151.619L82.1073 150.642L81.5127 150.812L82.3621 152.383L80.7908 152.256L78.9646 149.495L78.6673 148.051L79.3044 146.692L80.4935 145.928L83.5088 145.206H79.6441L79.4318 146.14L78.4125 146.947L76.459 148.051L77.733 150.217L78.7098 150.727L79.8989 152.001L80.3236 154.507L77.0111 153.954L75.6521 153.402L74.463 154.507L76.1192 155.186L77.1385 156.672L76.3316 157.352L74.8876 157.394L74.2506 157.946L72.9341 158.074L70.8956 159.518L70.5983 160.452L66.9885 162.108L64.6102 160.282L62.2745 158.116L61.4251 156.8L62.869 156.97L63.2088 158.074L68.0927 155.101L70.0462 155.186L68.1351 154.124V153.785L70.2161 152.935L71.4477 152.765L73.2314 152.001V151.619H70.8956L68.7297 150.514L66.3939 150.599L65.3322 150.302L65.0349 149.495L64.1431 149.793L62.3169 148.773L64.0157 147.627L64.6527 146.268L65.6295 144.781L63.9732 145.036L62.9115 143.337L62.8266 142.403L62.1046 141.808L62.7416 140.152L63.5485 139.473L62.7841 138.751L65.8418 138.623L65.0774 137.137L65.4596 136.16L66.2665 135.481L68.3899 136.415L69.027 136.245L69.9613 137.264L70.2161 137.986L71.4901 139.303L71.4052 140.067L72.3395 142.148L72.8916 141.214L71.8724 139.473L72.6368 138.368L75.5247 137.689L77.5207 138.708L77.9454 139.473L79.092 138.368L77.7755 137.646L77.4358 136.542L76.2042 136.245L75.1424 134.461L74.9301 133.4L78.3276 131.361L79.2194 130.554L80.6209 130.172L83.0841 129.96L85.6747 129.025L87.1186 127.879L94.4232 124.099L96.5042 122.315L97.6933 121.551L98.6701 121.636L100.114 123.165L100.751 124.991L101.515 126.392L100.496 126.944L99.477 129.068L100.241 129.662Z" fill="#009649" stroke="white" stroke-width="2" stroke-linejoin="round"></path>
<path class="region" d="M328.935 489.244L327.873 488.352L327.618 486.526L328.722 485.082L328.383 484.487L327.066 484.7L326.599 482.449L327.661 481.812L326.896 481.217L325.919 481.599L324.9 480.707H323.074L321.758 480.198L321.29 479.603L321.078 478.159L319.761 477.437L318.912 476.461L319.634 475.314L321.248 475.611L321.163 476.376L322.14 477.31L323.838 477.437L325.282 477.862L326.472 476.758L327.236 476.885L326.089 474.974L324.306 473.615L323.329 473.828L321.842 472.723L320.696 472.384L321.46 470.6L322.012 469.963L322.692 469.198L322.14 467.797L322.989 466.905L323.201 465.631L321.97 465.037L323.541 463.295L325.58 461.936L324.985 460.79L323.159 459.218L323.584 457.689L322.182 456.755L323.032 455.481L322.777 453.145L324.9 452.806L326.259 453.782L327.024 453.867L327.703 453.103V451.871L328.637 450.81L330.506 450.47L330.421 449.705L329.402 448.346L329.444 447.412L331.907 446.52L332.332 445.798L333.734 444.906L335.56 442.995L335.772 442.571L335.22 440.745L332.714 439.555L333.097 438.154L332.417 436.965L330.464 436.837L329.911 436.54L330.251 434.289L329.19 432.845L330.209 432.463L331.525 432.845L332.969 432.803L336.664 431.401L338.872 432.251L341.548 431.784L342.227 432.548L344.138 432.718L345.667 431.996L346.474 432.123L347.876 431.699L349.957 432.251L351.316 432.208L352.377 431.019L352.207 429.405L354.076 428.981L356.284 428.046L357.261 428.131L358.408 428.259L361.636 426.39L361.083 425.328L361.763 423.757L363.717 423.884L364.396 424.182L365.585 425.498L366.01 424.521L368.515 421.846L369.237 419.085L370.469 416.877L371.913 415.688L373.994 414.924L376.287 414.584L378.326 414.669L378.878 414.032L381.638 414.669H385.248L386.904 415.009L388.858 415.73L390.854 416.113L392.765 415.433L390.727 414.669L403.764 417.089L408.903 419.128L419.478 425.328L420.709 426.433L421.729 427.749L422.536 430.297L423.895 433.44L423.64 434.587L423.895 435.436L423.979 438.409L424.999 440.957L424.319 441.934L423.258 444.737L423.215 445.756L421.389 449.62L419.138 452.551L419.223 456.373L418.246 459.261L418.076 460.238L417.227 462.743L413.872 463.847L412.216 465.249L410.559 467.033L406.652 470.388L403.722 467.457L402.49 467.118L400.367 465.801L399.178 465.971L401.599 467.585L403.552 467.967L404.189 468.392L404.019 469.496L403.17 469.326L401.259 469.666L399.518 468.901L398.583 468.986L395.865 469.793L396.587 470.048L403.637 470.43L404.359 471.025L401.004 473.743L402.236 474.295L404.784 474.677L404.316 475.526L401.896 477.31L399.687 478.457L398.328 478.924L395.356 479.264L394.167 478.924L393.445 477.82L392.086 476.291L390.939 477.183L389.368 477.82L387.754 478.924L387.202 480.792L385.036 481.514L383.719 481.132L382.657 481.217L379.727 482.279L381.893 482.873L382.403 483.723L383.592 482.788L386.31 482.321L387.626 481.897L388.858 481.09L389.58 481.005L390.344 481.982L389.962 483.001L390.557 484.53L389.962 485.252L390.005 487.417L390.557 487.842L389.41 489.371L387.244 490.942L385.291 491.877L382.87 492.641L379.515 492.174L377.561 492.259L376.584 492.981L374.801 493.278L374.249 493.703L373.314 493.193L372.38 493.236L369.45 493.873L368.813 495.402L368.261 495.954L366.392 496.676L365.713 496.93L365.203 497.058L364.396 496.93L364.014 496.506L363.717 495.954H363.037L361.678 496.336L359.47 495.699L359.215 495.359L359.555 494.765L360.319 494.212L360.531 493.066L361.593 493.278L361.933 492.684L364.311 492.004L363.632 491.027L363.122 489.881L362.103 489.626L360.659 487.842L359.852 487.163L357.856 487.715L356.284 487.8L354.756 487.927L353.566 488.692L351.273 487.63L351.146 487.333L349.872 486.228L349.49 484.572L343.671 483.935L342.907 484.912L340.699 485.804L340.231 485.039L339.509 485.124L339.127 486.356L337.471 486.696L336.282 486.908L334.031 487.97H332.927L330.421 488.182L329.444 487.885L328.935 489.244Z" fill="#009649" stroke="white" stroke-width="2" stroke-linejoin="round" data-country-region="East Region"></path>
<path class="region" d="M260.096 335.38L259.841 331.515L258.652 331.345L257.93 330.241L254.787 328.33L253.98 326.207L255.084 325.018L254.617 324.168L252.366 323.319L252.027 322.852L253.173 320.898L254.108 317.925L251.772 316.481L250.243 314.528L246.038 316.736L244.637 316.609L243.405 315.802L243.32 313.933L242.216 312.617L243.193 312.107L243.788 309.729L243.448 308.625L242.344 308.158L243.363 307.138L243.703 305.779L246.973 304.335L246.038 301.787L244.297 302.127L242.641 300.938L242.259 299.834L240.475 299.367L239.923 298.772L238.691 296.266L239.711 295.12L240.942 294.525L241.494 293.336L241.197 292.826L242.089 291.722L244.34 289.684L248.077 287.263L249.563 286.966L251.135 287.518L252.324 287.136L253.768 285.267L254.999 284.842L255.976 284.163L257.165 283.993L258.524 283.398L259.713 281.827L258.524 280.383L258.354 279.364L256.741 277.24L255.849 275.117L254.957 273.885L253.895 273.206L253.853 272.526L254.745 272.144L257.378 271.889L259.968 269.171L260.733 268.025L262.644 267.048L263.705 266.241L264.258 264.457L266.593 263.65L267.103 264.457L272.496 269.511L273.473 271.422L275.342 272.739L275.979 272.102L276.956 272.314L277.805 273.546L279.801 273.843L282.604 275.329L282.434 276.433L283.156 277.198L282.604 277.877L283.751 278.599L283.368 279.406L284.473 280.723L284.558 284.248L284.218 286.414L284.43 287.56L285.449 288.919L285.577 289.854L284.94 291.17L285.492 292.826L286.978 294.228L286.596 294.907L287.488 296.054L286.893 297.498L287.955 299.239L288.592 301.872L289.569 302.679L290.673 304.633L291.31 306.374L293.094 307.69L293.391 308.285L293.476 310.791L294.24 313.169L296.067 318.095L296.916 319.794L298.147 321.026L298.997 321.578L301.205 322.3L300.356 322.682L300.908 324.253L301.503 324.89L300.738 325.612L300.313 326.631L301.163 326.292L302.224 326.716L302.607 325.187L304.008 326.377L306.599 326.759L308.595 327.778L317.131 329.774L317.513 329.944L316.027 330.878L315.05 332.195L315.008 333.681L313.266 333.256L311.1 333.724L309.274 333.002L307.066 333.426L305.197 332.747L303.541 333.129L300.823 332.832L299.889 332.704L298.487 333.044L297.85 333.724L294.665 335.04L293.179 334.743L292.881 333.596L291.268 333.426L290.291 334.021L289.654 333.129L288.847 333.936L289.654 335.635L288.592 335.805L287.658 334.148L286.384 334.021L286.086 334.87L284.218 333.554L283.283 332.365L282.052 332.577L281.542 331.77L279.886 331.345H278.569L278.102 331.685L276.361 331.473L276.319 332.28L275.469 333.978L273.94 332.874L272.879 333.384L272.794 334.063L269.481 335.422L268.419 335.465L266.296 334.488L264.682 334.106L262.431 334.743L260.775 335.72L260.096 335.38Z" fill="#009649" stroke="white" stroke-width="2" stroke-linejoin="round" data-country-region="Central Region"></path>
<path class="region" d="M279.716 468.01L279.504 469.369L281.117 470.133L281.372 470.813L279.928 472.002L280.311 472.851L279.419 473.446L278.654 474.975L278.484 478.075L277.168 479.307L277.89 479.986L278.399 481.642L278.569 483.086L279.758 484.063L279.674 484.743L278.23 484.488L278.187 486.017L279.419 487.036L279.206 488.14L278.442 488.777L278.527 490.221L279.716 490.433L281.585 493.066L282.349 493.236L282.519 494.001L282.689 494.765L283.793 496.252L284.727 496.804L284.982 498.163L283.623 498.46L283.198 498.927L284.472 500.796L285.959 501.39L286.426 503.216L284.727 503.386L285.025 504.83L284.175 506.317L284.642 507.548L284.175 507.973L282.434 507.293L281.542 507.548L280.353 508.567L278.102 508.228L277.423 508.398L277.89 510.096L279.164 511.965L279.461 513.112L279.249 514.386L280.565 515.362L280.141 516.552L280.608 518.293L280.523 519.397L281.585 520.289L280.523 521.52L281.415 522.497L280.948 523.431L279.036 523.941L278.357 523.686L277.21 522.582L275.384 522.412L274.28 521.945L272.411 521.648L271.265 520.756L270.373 521.52L269.906 520.926L267.443 521.266L266.423 521.86L268.249 524.281L269.396 525.3L270.161 525.427L271.265 524.833L272.624 525.045L272.326 526.362L271.137 527.126L271.392 528.528L272.539 528.4L272.921 530.354L272.369 531.968L273.303 533.794L275.512 533.284L275.554 534.558H278.017L278.187 535.323L276.361 535.577L274.705 536.257H272.836L270.245 536.045L268.547 536.639L266.678 537.998L266.296 536.809L263.026 536.13L262.092 535.62L260.563 537.574L262.601 536.809L264.003 538.508L266.126 538.763V540.122L266.975 540.546L265.489 542.033L265.531 542.84L264.767 543.137L261.242 543.179L260.52 543.052L257.293 541.82L249.351 541.098L247.907 540.376L245.359 540.886L244.297 542.585L244.042 543.731L245.486 544.538L245.614 545.26L244.51 546.874L244.255 544.836L243.278 543.477L234.359 537.913L227.012 535.662H226.036L223.53 536.13L223.403 535.662L221.279 537.064L220.26 537.149L218.136 536.894L216.183 538.168L215.334 538.295L214.017 537.913L209.983 538.89L208.411 540.886L205.311 542.033L203.612 541.778L201.574 539.782L202.466 542.372L201.022 543.731L199.79 545.77L199.28 547.936L195.756 547.893L199.068 547.936L200.002 550.569L198.091 550.824L197.03 552.055L197.284 552.947L198.049 553.244L199.96 553.159L199.45 554.688L198.558 555.113L198.516 555.155L198.176 556.557L197.667 556.812L196.308 556.175L195.968 557.406L194.057 558.043L193.632 558.553L192.613 561.908L192.953 563.267L189.81 563.989L187.389 563.437L186.752 563.989L185.181 562.842L182.718 560.294L179.957 558.213L179.065 558.128L177.282 558.85L176.347 559.53L174.734 558.723L175.031 558.043L173.162 557.236L172.822 556.642L172.695 556.43L173.332 555.41L171.761 555.495L170.741 555.071L169.68 552.862L169.892 552.395L170.657 552.31L170.02 552.098L171.081 550.569L169.807 550.909L168.788 550.272L169.17 550.994L168.448 552.395L168.066 553.966H165.39L166.112 554.773L168.576 554.476L168.024 555.41L168.873 556.175H170.062L168.533 558.001L167.684 556.557L166.962 556.175L163.309 555.41L161.313 555.58L158.171 557.152L156.472 557.704L149.38 558.043L148.785 558.426L148.233 556.939L145.43 557.576L144.921 558.043L145.218 559.148L143.986 560.464L144.284 561.356L143.222 563.055L141.098 562.8L139.442 563.862L136.809 564.711L136.215 565.178L134.346 567.726L133.879 567.047L133.666 565.136L132.265 564.923V566.027L131.713 566.962L131.968 567.811L130.991 568.363L130.736 569.595L129.462 570.317L131.118 570.657L131.925 572.27L130.057 574.776L127.933 574.988L126.617 576.22L125.937 577.791L125.13 577.367L123.474 575.583L123.389 574.054L121.903 571.888L120.416 570.699L117.868 569.68L116.127 569.425L113.961 568.448L111.922 568.83L111.116 569.382L111.328 571.081L110.818 571.803L109.374 572.568L107.591 573.035L105.51 573.247L103.896 572.737L103.514 571.081L104.236 570.911L103.896 568.363L105 566.792L106.614 566.197L109.417 564.923L110.903 564.499L112.559 563.607H113.494L114.81 564.626L115.66 565.008L116.594 564.541L117.911 562.503H119.439L121.096 561.781L126.149 557.576L128.485 556.217L128.23 553.839L129.717 553.542L132.732 552.268L133.284 551.206L133.964 547.044L135.28 545.77H136.172L137.064 545.048L137.616 545.26L137.913 547.256L141.013 547.341L141.268 546.874L139.102 546.11L138.465 545.388L138.763 544.453L139.612 543.689L142.84 543.519L144.071 543.222L146.025 540.546L145.77 539.697L146.365 538.89L146.959 539.017L150.059 536.894L150.951 535.28L151.758 534.558L153.584 533.454L154.773 531.585L154.731 526.786L155.028 525.427L155.24 524.536L156.217 522.709L155.92 521.52L156.09 520.416H159.912L161.696 521.181L164.159 521.435L165.688 520.841L168.661 518.25L169.552 516.594L168.873 514.386L167.896 513.027L169.298 513.112L169.85 511.88L169.085 510.818L172.398 509.757L180.212 509.204L182.633 508.61H185.733L188.026 507.845L188.791 507.803L191.254 508.313L190.872 509.247L191.084 508.737L191.126 508.652L191.254 508.313L194.312 508.95L197.752 508.865L203.103 509.884L205.184 511.158L210.067 510.988L213.168 510.224L214.697 510.054L217.499 510.139L219.198 509.969L220.727 510.818L221.449 509.672L221.704 508.61L221.364 507.463L221.322 504.405L222.086 503.811L222.298 502.452L223.53 500.966L222.893 500.413L223.87 499.649L225.229 499.861L226.8 498.63L229.773 495.572L231.302 494.765L233.468 494.383L234.912 493.491L235.676 492.472L238.776 488.352L239.923 487.758L240.985 485.549L241.919 484.827L243.49 483.511L244.934 481.94L247.525 481.133L248.247 480.623L248.459 479.391L246.888 480.453L244.255 481.048L242.513 483.001L239.923 484.318L236.313 487.8L236.016 486.186L235.591 485.549L236.525 484.658L235.634 481.94L236.228 480.666L235.803 479.816L236.016 478.669L237.205 476.801L237.502 475.399L238.436 475.909L241.409 474.593L242.726 474.762L243.32 473.616L244.849 473.488L246.378 472.724L246.421 471.705L245.529 470.94L245.316 469.963L244.425 469.411L244.849 467.288L245.359 466.099L246.166 466.439L246.675 467.458L248.204 467.415L249.266 466.481L249.988 466.396L250.413 466.354L251.814 468.562L254.192 469.157L254.957 469.072L256.103 467.628L257.505 467.798L257.462 466.736L257.972 464.952L260.095 464.867L258.864 466.821L259.416 467.415L260.435 466.736H261.879L263.62 467.161L266.211 465.717L269.014 465.462L270.118 465.632L271.604 466.736L272.369 466.099L272.284 465.292L270.798 463.763L271.647 463.211L272.879 463.423L274.407 461.809L275.299 461.427L276.191 462.319L277.083 462.574L277.465 463.636L278.782 465.462L281.457 465.717L279.716 468.01Z" fill="#009649" stroke="white" stroke-width="2" stroke-linejoin="round" data-country-region="West Region"></path>
<path class="region" d="M293.857 458.412L293.008 459.898L291.606 460.748L292.583 461.512L291.351 462.192L290.162 461.342H288.888L288.761 462.234L287.487 462.362L286.425 463.848L286.383 464.952L285.788 467.245L285.406 467.755L284.259 467.967L284.047 468.817L282.518 468.902L281.753 469.581L279.715 468.01L281.456 465.717L278.781 465.462L277.464 463.636L277.082 462.574L276.19 462.319L275.298 461.427L274.406 461.809L272.878 463.423L271.646 463.211L270.797 463.763L272.283 465.292L272.368 466.099L271.603 466.736L270.117 465.632L269.013 465.462L266.21 465.717L263.619 467.16L261.878 466.736H260.434L259.415 467.415L258.863 466.821L260.094 464.867L257.971 464.952L257.461 466.736L257.504 467.798L256.102 467.628L254.956 469.072L254.191 469.156L251.813 468.562L250.412 466.354L249.987 466.396L249.265 466.481L248.203 467.415L246.674 467.458L246.165 466.439L245.358 466.099L244.848 467.288L244.424 469.411L245.315 469.963L245.528 470.94L246.42 471.705L246.377 472.724L244.848 473.488L243.319 473.616L242.725 474.762L241.408 474.592L238.435 475.909L237.501 475.399L237.204 476.801L236.779 476.971L235.208 475.994L233.806 475.867L231.853 473.871L227.733 470.983L225.568 471.874L224.336 472.087L223.104 471.322L222.425 470.006L221.193 469.114L220.216 468.052L219.027 466.226L218.73 464.358L217.244 463.041L218.22 461.045L217.371 460.026L218.857 459.559L218.008 457.817L219.792 455.864L220.344 454.717L222.552 453.273L223.996 453.231L224.209 452.466L223.189 452.254L222.722 451.15L223.104 450.428L224.293 449.748L224.548 448.729L219.749 448.432L218.39 447.285L215.8 445.629L214.356 444.907L213.719 443.505L213.846 442.868L214.823 441.849L216.776 441.255L218.348 440.533L221.618 440.363L222.297 439.471L223.954 438.154L223.784 437.517L222.765 436.541L222.128 436.583L220.089 437.73L219.282 438.622L218.263 438.749L218.348 437.772L217.711 436.583L218.051 435.521L219.877 434.46L220.259 432.973L221.363 432.294L221.83 431.359L221.915 430.128L222.722 428.854L224.506 428.344L223.232 426.391L220.726 425.839L219.707 424.947L218.433 424.862L217.286 424.225L216.819 422.441L218.093 421.082L217.881 419.723L219.112 418.789L219.919 417.727L223.189 415.986L225.1 415.943L226.162 416.835L228.498 416.453L229.772 416.665L231.98 418.449L232.617 418.619L235.08 417.685L235.335 416.41L234.868 415.094L239.285 414.075L240.686 414.542L241.196 415.773L242.003 415.646L243.319 416.113L243.914 415.349L245.358 415.773L246.589 415.604L247.694 414.457L249.605 413.862L250.157 413.268L249.86 411.314L250.199 410.507L251.473 410.295L252.747 409.063L254.149 409.148L255.38 408.681L257.037 407.195L259.033 405.369L260.01 405.241L259.797 404.18L260.434 403.882L261.411 404.392H262.812L264.426 403.373L265.488 403.288L266.72 402.183L267.739 401.801L268.588 402.821L271.731 403.84L273.09 404.519L274.152 405.708L274.109 406.94L275.298 408.426L275.086 409.488L275.553 411.569L276.275 412.121L276.318 413.31L275.808 414.245L273.472 415.349L273.26 417.048L272.283 417.345L272.241 418.407L272.962 419.978L274.449 420.445L275.85 420.487L277.294 421.592L281.074 421.846L282.008 422.399L282.773 423.46L281.711 424.14L281.116 425.541L279.29 426.306L278.101 428.004L278.866 428.641L280.394 429.066L280.607 430.213H283.028L283.155 430.68L285.066 432.549L284.939 433.186L284.004 433.653L284.684 434.757L284.556 435.819L285.703 436.201L286.68 437.135L289.95 438.282L290.842 439.513L295.174 441.297L297.382 444.185L298.614 444.737L299.675 446.563L300.482 447.795L299.888 448.899L297.679 449.494L297.297 450.385L298.953 450.895L298.019 451.914L298.698 452.466V453.655L296.235 454.845L297.127 456.034L296.957 456.628L294.664 457.393L293.857 458.412Z" fill="#009649" stroke="white" stroke-width="2" stroke-linejoin="round" data-country-region="West Region"></path>
<path class="region" data-country-region="North Region" d="M231.769 300.471L230.367 301.957L228.754 302.594L227.395 304.208L226.46 304.25L224.889 303.656L224.252 303.953L224.082 305.567L223.36 307.393L219.793 308.072L206.585 307.35L204.631 306.798L204.292 307.35L202.933 307.435L201.744 306.629L201.191 308.072L201.701 309.729L201.659 311.725L200.469 312.871L196.562 312.617L195.501 312.744L194.566 313.848L191.636 313.508L191.211 314.061L189.64 314.655L190.999 315.717L188.408 316.694L185.096 318.52L181.826 318.647L181.571 317.585L181.613 315.802L180.424 315.759L179.745 317.416L180.127 318.265L178.513 318.477L176.432 317.458L174.988 315.632L175.413 313.508L173.757 314.74L172.44 314.952L169.382 313.848L168.576 313.169L167.726 311.47L166.792 311.555L166.027 313.339L166.962 315.717L168.193 315.887L169.213 316.651L169.34 317.331L168.745 318.562L169.298 319.369L168.745 320.134L169.043 322.257L168.023 323.319H166.622L164.329 322.299L162.503 322.13L160.167 319.369L158.808 318.35L153.966 316.099L151.248 315.292L150.526 313.763L149.635 313.508H148.063L146.067 314.4L144.581 315.717L144.029 316.524L144.199 318.222L144.921 319.029L146.237 322.13L147.426 322.894L147.129 325.06L146.789 325.739L144.156 324.89L143.519 323.658L144.114 322.299L143.859 320.856L142.457 320.473L141.905 318.562L140.674 317.968L136.851 314.443L135.705 312.829L134.983 310.918L134.855 308.837L135.025 306.883L135.96 305.524L137.276 305.482L138.126 305.015L139.697 307.69L139.782 310.068L140.971 311.13L141.735 311.215L142.797 309.856L141.396 307.648L141.056 306.713L140.504 305.609L140.461 303.783L141.82 300.98L142.33 298.899L144.921 297.455L147.681 294.78L148.318 294.567L148.445 293.591L149.465 291.764L149.592 289.641L149.932 288.792L152.48 286.796L153.499 284.417L154.901 283.526L157.661 282.591L158.68 281.53L159.105 280.086L158.765 278.812L157.789 277.877L156.302 277.495L157.194 276.561L157.024 275.372L156.175 274.267L154.986 273.545L152.777 272.824L151.036 272.569L151.376 271.677L149.04 270.53L147.723 269.638L146.959 268.789L148.828 267.387L149.465 266.241L149.38 264.457L148.7 262.843L148.53 260.508L148.403 259.021L148.7 257.62L149.337 256.685L151.588 255.709L152.905 255.666L155.495 256.558L156.684 256.473L157.534 256.898L159.402 257.11L164.371 257.662L165.093 257.322L160.931 256.473L160.846 256.261L160.676 255.496L160.634 254.392L160.591 253.84V253.373L160.634 253.245L160.719 252.736L160.761 252.014L160.846 250.018L160.804 249.253H160.846L163.989 249.551L164.838 250.06L167.047 250.527L167.726 251.207L166.027 251.886L166.495 253.203L167.556 253.458L168.491 254.647H170.274L172.865 255.624L173.969 255.539L174.309 254.01L173.544 252.481L173.969 252.056L175.158 252.354H177.197L178.173 252.821L178.853 252.014L180.169 253.076L181.996 252.014H184.629L184.884 252.736L186.455 253.033L186.37 254.137L187.899 254.222L188.451 255.624L190.829 255.709L189.598 256.898L191.126 257.79L192.825 258.342L193.08 258.936L193.675 260.168L196.35 259.531L197.072 260.253L195.628 260.89L196.69 263.311L196.01 264.839L196.393 265.137L197.921 264.202L201.107 263.735L201.956 263.863L202.975 264.627L204.716 264.712L207.392 265.561L207.349 266.029L208.241 267.43L208.199 268.279L209.898 268.831L206.33 271.974L206.755 273.163L206.33 273.885L204.759 274.098L204.292 274.522L205.905 276.646L205.948 279.066L204.801 280.256L204.716 280.977L203.782 283.143L205.184 284.63L207.519 284.927L208.878 284.502H211.596L212.828 283.101L213.89 283.568L215.461 283.611L215.886 284.163L214.144 285.097L213.295 285.946L213.21 288.197L214.017 288.282L215.079 287.56L217.245 286.626L219.028 287.815L220.43 287.433L221.491 287.688L221.704 288.877L223.403 290.066L224.294 291.892L225.271 291.637L225.823 292.147L226.885 291.425L228.032 291.085L230.24 291.637L231.004 292.486L229.943 292.954L229.9 293.761L231.132 293.803L231.302 294.78L230.452 295.672L230.198 298.135L231.429 299.154L231.769 300.471Z" fill="#009649" stroke="white" stroke-width="2" stroke-linejoin="round"></path>
<path class="region" data-country-region="North Region" d="M101.815 303.444L102.325 304.081L102.197 305.015L101.39 307.011L103.769 307.946L105.51 309.559L106.147 311.173L107.761 312.49L108.355 313.679L108.822 315.93L109.884 316.439L111.583 316.737L108.992 314.656L109.714 313.764L110.946 314.019L112.22 314.868L112.942 315.717L113.367 317.416L113.239 318.605L112.56 320.092L111.625 320.856L110.351 321.281L107.888 321.833L106.741 322.3L105.34 323.319L103.769 325.188L103.939 327.396L104.491 327.439L105.51 326.462L106.911 325.018L110.734 323.404L112.942 324.041L117.953 323.404L118.335 323.829L119.482 324.636L120.289 327.778L121.733 329.307L122.073 332.153L123.304 333.682L123.432 334.828L122.073 336.994L122.158 338.778L121.138 339.542L120.884 340.816L120.331 341.581L119.27 341.283L118.548 339.457L117.359 338.183L117.571 336.994L118.59 336.06L118.803 335.253L118.718 333.597L118.335 332.365L117.656 331.473L114.811 329.392L113.706 328.925L112.475 328.883L112.73 329.775L112.22 330.751L113.494 331.771L114.895 333.257L114.853 334.913L115.363 336.145L113.452 340.434L115.405 339.585L117.189 339.203L118.378 340.179L118.718 342.218L118.123 343.747L116.976 344.978L115.575 346.04H114.683L114.386 347.144L113.706 347.441L112.772 346.55L110.351 346.422L108.568 346.55L105.085 347.399L104.83 348.036V349.862L104.661 351.094L103.981 353.26L102.707 354.831L100.966 355.51L99.6068 356.53L97.2285 357.761H94.9352L94.2132 357.039L95.4024 356.657L91.7076 355.723L91.2829 354.746L90.1787 354.449L87.1634 354.067L85.3798 354.491L84.2331 353.812L83.6385 354.491L83.681 355.68L83.1714 356.317L80.8356 356.742L80.1136 356.063L78.967 356.105L75.3572 357.082L74.0831 356.912L73.1488 357.719L70.8555 356.063L71.5775 354.789L71.2377 353.557L72.2145 352.665L72.6392 351.688L72.1296 350.414L70.6856 349.31L69.7513 349.098L68.095 349.862L66.3538 348.843L64.9099 347.314L64.4003 345.785L63.3385 344.596L63.6358 343.28L63.2111 342.303L62.5741 341.241L61.7672 341.071L61.1302 339.797L58.6245 338.183L57.2655 337.631L55.949 337.716L54.6749 338.65L52.5515 341.029L51.15 341.793H49.876L50.0459 342.812L48.9841 344.044L50.3431 344.554L50.0459 345.318L51.4898 346.252L50.8952 346.847L51.15 347.739L50.2157 348.163L47.9224 348.631L47.0731 349.14L46.521 350.032L46.3086 352.155L45.5867 352.962H44.8647L45.0346 350.881L43.7605 351.434L43.4208 352.071L44.3126 353.599L43.5906 353.642L41.5946 353.132L40.9576 353.217L40.0233 351.943L38.9616 351.858L37.2203 352.877L36.286 353.005L31.8693 352.24L31.4021 351.943L30.9775 350.712L28.0471 349.013H24.8195L22.5262 348.8L21.7193 348.418L21.2097 347.569L21.1672 345.233L20.3178 344.044L18.0245 343.619L16.8354 342.26L16.0285 340.604H14.8394L12.8434 339.415L9.82808 336.272L9.6582 335.423L10.1678 334.658L12.4187 334.149L14.2023 333.13L15.6463 331.431L16.5381 330.709L19.6808 331.261L21.2946 331.303L22.9084 330.836L27.2402 327.906L28.9814 327.439L28.4718 326.292L27.1128 326.929L24.6072 325.57L23.6304 326.037L22.5687 325.061L20.8275 324.423L20.9124 323.064L19.9781 322.555L22.1015 321.79L23.5454 320.729L26.6457 322.045L28.0471 321.96L29.4911 321.366L31.7844 319.964L33.1858 320.262L34.4174 319.964L35.1818 320.304L35.8613 319.455L36.3285 317.416L39.4712 314.613L40.6603 312.532L40.5754 310.621L41.1275 309.687L42.0193 309.347L42.4015 308.54L42.2316 307.181L42.6139 306.204L43.8454 304.845L44.7798 304.208L47.4553 303.911L48.517 302.934L48.8992 303.699L51.4473 303.317L53.316 303.826L55.3969 304.208L56.7984 304.081L58.8793 302.595V301.915L59.7712 300.089L60.7904 299.197L61.1302 296.776L62.107 296.012L64.6551 297.159L66.5237 297.074L70.0061 296.946L74.8051 295.332L77.6929 295.163L78.7547 294.441L78.9245 294.653L79.3492 295.163L78.7547 294.441L79.9013 293.591L81.7275 293.167L83.1714 293.846L84.1906 294.058L85.762 293.294L86.8237 293.506L90.7733 295.205H92.3446L94.7653 294.61L97.186 295.12L99.3519 296.904L99.7342 297.456L99.4793 300.429L98.5026 302.467L98.7998 302.934L100.923 303.019L101.815 303.444ZM91.3254 301.66L91.5377 302.764V302.043L91.3254 301.66ZM94.3406 290.236L94.1283 291.51L92.8118 290.703H90.7308V290.066L91.7925 289.854L94.3406 290.236Z" fill="#009649" stroke="white" stroke-width="2" stroke-linejoin="round"></path>
<path class="region" d="M237.204 476.801L236.015 478.669L235.802 479.816L236.227 480.665L235.632 481.939L236.524 484.657L235.59 485.549L236.015 486.186L236.312 487.8L234.274 489.456L232.235 489.839L230.621 490.73L228.031 491.665L224.378 491.877L223.062 490.773L221.278 492.429L218.688 493.746L217.413 494.298L216.309 495.232L215.885 496.081L214.526 496.676L215.035 497.865L214.695 499.012L213.931 499.691L212.487 499.437L209.472 500.413L198.812 499.649L197.283 498.46L199.449 497.653L199.789 496.846L199.534 495.912L199.619 494.51L201.658 493.576L203.059 493.321L205.182 494.383L206.074 493.788L207.816 494.128L208.198 493.406L209.514 494.128L210.151 493.279L212.275 491.707L212.912 491.452L215.332 491.283L217.626 491.835L218.433 490.773L217.371 489.456L220.684 488.437L223.699 487.248L223.104 485.082L223.147 482.831L222.552 482.152L221.236 481.855L220.768 481.175L220.726 479.901L220.131 478.839L218.772 478.245H216.734L215.545 477.353L213.421 477.48L210.576 477.14L209.897 478.287L207.985 478.499L207.051 477.65L205.82 477.31L205.013 476.461L203.696 477.056H202.167L201.827 478.457L198.897 479.349L197.326 480.58L196.986 479.986L194.608 479.052L192.569 479.689L191.423 479.391L190.955 480.071L189.681 480.241L188.153 478.754L189.597 476.971L190.234 475.399L191.593 474.38L192.017 473.531L191.847 472.342L192.145 470.813L193.164 469.921L192.697 468.689L192.824 467.755L193.801 466.438L195.075 465.462L194.141 463.083L192.314 462.489L192.527 460.96L191.04 460.578L190.658 457.52L191.083 456.203L191.168 454.42L191.508 453.231L192.739 452.679L192.357 451.022L191.72 449.961L192.909 449.111L194.65 448.856L195.117 448.389L194.353 447.54L193.504 447.497L193.334 446.521L192.314 444.482L190.616 443.548L190.743 442.401L191.635 441.934L192.23 440.235L191.338 440.108L190.403 440.915L188.45 441.17L187.6 439.98L187.813 438.409L187.431 437.56L186.241 437.178L183.693 437.305L184.373 436.541L185.902 436.073L187.558 434.842L188.025 433.355L187.77 432.591L189.384 430.765L190.786 431.062L192.357 430.637L193.546 430.722L194.863 430L197.666 429.661L198.982 427.792L198.642 426.008L197.963 424.862L198.388 423.418L198.812 423.035L200.978 422.271L202.507 422.186L203.102 421.634L203.399 420.7L204.843 420.997L206.754 420.402L207.561 419.256L210.194 416.92L214.865 416.623L219.367 415.221L217.456 413.438V412.121L217.881 410.125L218.305 409.743L217.371 408.511L215.502 405.326L212.954 405.156L212.147 404.859L211.001 403.84L209.259 401.546L209.005 400.102L209.344 398.658L208.962 398.021L207.603 397.342L207.943 395.473L208.58 394.454L209.854 394.412L212.317 395.558L213.167 396.535L218.518 399.211L219.622 400.442L220.089 399.423L222.807 400.06L225.482 401.716L227.224 403.457L227.139 404.307L225.567 405.071L225.355 405.538L227.818 407.789L228.922 409.743L229.729 412.376L231.556 414.117L233.169 414.287L234.868 415.094L235.335 416.41L235.08 417.684L232.617 418.619L231.98 418.449L229.772 416.665L228.498 416.453L226.162 416.835L225.1 415.943L223.189 415.986L219.919 417.727L219.112 418.789L217.881 419.723L218.093 421.082L216.819 422.441L217.286 424.225L218.433 424.862L219.707 424.947L220.726 425.838L223.232 426.39L224.506 428.344L222.722 428.854L221.915 430.128L221.83 431.359L221.363 432.294L220.259 432.973L219.877 434.46L218.05 435.521L217.711 436.583L218.348 437.772L218.263 438.749L219.282 438.621L220.089 437.73L222.127 436.583L222.764 436.541L223.784 437.517L223.954 438.154L222.297 439.471L221.618 440.363L218.348 440.533L216.776 441.255L214.823 441.849L213.846 442.868L213.719 443.505L214.356 444.907L215.8 445.629L218.39 447.285L219.749 448.432L224.548 448.729L224.293 449.748L223.104 450.428L222.722 451.15L223.189 452.254L224.208 452.466L223.996 453.231L222.552 453.273L220.344 454.717L219.792 455.864L218.008 457.817L218.857 459.558L217.371 460.026L218.22 461.045L217.244 463.041L218.73 464.357L219.027 466.226L220.216 468.052L221.193 469.114L222.425 470.006L223.104 471.322L224.336 472.087L225.567 471.874L227.733 470.983L231.853 473.87L233.806 475.866L235.208 475.994L236.779 476.971L237.204 476.801Z" fill="#009649" stroke="white" stroke-width="2" stroke-linejoin="round" data-country-region="West Region"></path>
<path class="region" d="M359.472 495.699L359.005 496.506L357.689 497.525L356.839 498.629L357.094 499.648L357.179 500.201L356.627 502.027L355.565 502.749L355.098 503.683L354.121 504.405L353.994 505.637L352.932 505.934L352.295 505.509L350.936 505.552L350.554 503.853L349.959 503.386L348.855 503.301L347.963 504.15L346.35 504.405L345.628 505.382L344.481 505.552L343.504 504.83L342.995 503.938L342.358 502.876L340.616 503.471L340.659 502.112L339.597 501.007L338.493 501.644L337.431 503.428L336.624 503.683L336.497 502.409L337.261 501.177L336.879 500.413L336.667 499.988L335.053 499.564L333.567 498.842L332.887 498.205L331.528 497.95L331.146 496.633L329.744 496.378L328.768 495.359L329.32 494.467L329.872 491.452L328.937 489.244L329.447 487.885L330.424 488.182L332.929 487.97H334.034L336.285 486.908L337.474 486.696L339.13 486.356L339.512 485.124L340.234 485.039L340.701 485.804L342.91 484.912L343.674 483.935L349.492 484.572L349.874 486.228L351.149 487.333L351.276 487.63L353.569 488.692L354.758 487.927L356.287 487.8L357.859 487.715L359.855 487.163L360.662 487.842L362.105 489.626L363.125 489.881L363.634 491.027L364.314 492.004L361.936 492.684L361.596 493.278L360.534 493.066L360.322 494.212L359.557 494.765L359.218 495.359L359.472 495.699Z" fill="#009649" stroke="white" stroke-width="2" stroke-linejoin="round" data-country-region="East Region"></path>
<path class="region" d="M350.893 385.154L348.982 385.748L347.538 385.918L346.094 388.509L346.901 389.57L345.203 390.377L344.013 389.103L341.975 387.659L342.23 386.385L341.678 384.559L342.824 383.37L341.21 382.945L340.021 381.671L338.11 380.779L337.771 382.011L336.199 383.37L335.18 383.497L332.462 382.945L329.956 384.432V384.644L333.141 384.771L333.184 385.918L330.678 386.258L330.169 387.192L330.339 387.956L328.64 388.509L326.049 389.103L324.605 389.018L323.841 388.339L324.35 387.107L324.096 386.173L318.914 385.706L318.575 387.192L316.451 389.018L311.95 388.721L312.544 387.999L311.355 387.15L309.189 388.466L308.892 389.995L307.363 391.396L306.684 391.099L305.112 391.142L304.22 391.694L302.946 392.968L303.116 394.199L301.8 395.176L302.224 395.813L300.908 396.832L300.483 397.554L297.68 397.682L296.024 397.215L295.812 396.28L294.792 396.45L293.9 397.257L291.862 396.832L291.31 395.856L289.696 395.941L288.592 396.832L285.492 397.724L283.878 396.917L282.222 396.875V396.408L283.368 395.771L282.986 395.176L280.565 394.412L280.735 393.095L278.867 392.501L278.399 391.651L277.04 391.227L277.21 389.613L274.832 388.169L274.535 386.64L273.685 385.621L271.392 384.729L270.288 384.686L268.589 382.818L266.975 381.459L266.508 380.312L265.277 380.1L265.022 378.996L264.724 377.722L264.087 376.617H263.323L261.922 377.254L260.52 376.702L259.713 375.938L259.373 374.409L261.03 372.795L261.072 370.884L262.134 369.822L264.172 369.1L264.809 367.869L263.408 367.062L262.091 365.66L261.794 364.259L258.949 363.112L258.269 361.541L256.953 361.414L256.74 360.649L254.787 361.329L253.683 360.309L252.239 360.182L251.729 359.587L251.814 358.526L251.474 357.422L250.37 357.294L248.417 357.676L247.142 357.167L246.76 355.468L244.637 354.534L243.575 353.642L243.32 352.835L243.49 351.646L244.679 351.136L245.019 350.542L247.482 348.121L247.737 347.399L249.691 347.526L250.455 346.804L251.729 346.337L252.663 346.847L253.513 346.719L253.895 345.53L253.47 344.681L253.725 342.6L252.026 340.986L254.702 339.287L254.235 337.419L255.042 336.442L256.358 335.805L258.482 335.847L259.543 335.168L260.095 335.38L260.775 335.72L262.431 334.743L264.682 334.106L266.296 334.488L268.419 335.465L269.481 335.423L272.794 334.064L272.878 333.384L273.94 332.875L275.469 333.979L276.318 332.28L276.361 331.473L278.102 331.686L278.569 331.346H279.886L281.542 331.77L282.052 332.577L283.283 332.365L284.218 333.554L286.086 334.871L286.383 334.021L287.658 334.149L288.592 335.805L289.654 335.635L288.847 333.936L289.654 333.129L290.291 334.021L291.267 333.427L292.881 333.597L293.178 334.743L294.665 335.041L297.85 333.724L298.487 333.045L299.889 332.705L300.823 332.832L303.541 333.129L305.197 332.747L307.066 333.427L309.274 333.002L311.1 333.724L313.266 333.257L315.007 333.682L315.05 332.195L316.027 330.879L317.513 329.944L326.516 334.234L327.663 335.083L328.173 335.847L328.258 337.291L330.678 338.948L331.995 341.071L332.504 342.388V343.492L333.651 344.554L333.354 345.318L334.84 346.762L336.539 347.102L338.408 348.078L339.087 350.244L340.191 351.136L341.635 351.561L345.33 352.665L346.816 353.727L343.122 355.256L341.848 356.36L340.786 358.483L341.72 359.97L342.909 363.495L343.631 365.108L348.09 370.332L355.565 378.826L356.244 380.609L354.163 379.93L352.337 378.911L350.596 378.783L348.09 379.76L346.094 379.463L344.523 378.656L340.531 374.706L339.045 373.857L337.558 373.687L337.176 373.645L331.867 375.004H331.103H328.555L327.153 375.258L325.667 374.239L323.246 374.027L322.354 374.239L319.509 375.726L320.656 376.235L322.694 375.173L324.945 375.301L327.748 376.957L329.574 376.065L337.091 375.004L338.238 375.386L341.635 379.505L342.06 380.015L343.928 380.737L345.967 382.351L348.005 382.69L349.959 384.559L350.893 385.154Z" fill="#009649" stroke="white" stroke-width="2" stroke-linejoin="round" data-country-region="Central Region"></path>
<path class="region" d="M266.72 402.183L266.975 400.952L266.168 400.315L265.955 399.126L265.913 395.261L265.148 393.392L265.658 393.223L266.635 391.906L265.361 391.142L265.488 390.335L266.635 389.485L266.847 388.126L267.442 386.767L269.353 386.428L270.287 384.686L271.391 384.729L273.685 385.621L274.534 386.64L274.831 388.169L277.21 389.613L277.04 391.227L278.399 391.651L278.866 392.501L280.734 393.095L280.565 394.412L282.985 395.176L283.367 395.771L282.221 396.408V396.875L283.877 396.917L285.491 397.724L288.591 396.832L289.695 395.941L291.309 395.856L291.861 396.832L293.9 397.257L294.792 396.45L295.811 396.28L296.023 397.215L297.679 397.682L300.482 397.554L300.907 396.832L302.224 395.813L301.799 395.176L303.115 394.199L302.946 392.968L304.22 391.694L305.111 391.142L306.683 391.099L307.362 391.396L308.891 389.995L309.188 388.466L311.354 387.15L312.543 387.999L311.949 388.721L316.451 389.018L318.574 387.192L318.914 385.706L324.095 386.173L324.35 387.107L323.84 388.339L324.605 389.018L326.048 389.103L328.639 388.509L330.338 387.957L330.168 387.192L330.678 386.258L333.183 385.918L333.141 384.771L329.956 384.644V384.432L332.461 382.945L335.179 383.497L336.198 383.37L337.77 382.011L338.11 380.779L340.021 381.671L341.21 382.945L342.824 383.37L341.677 384.559L342.229 386.385L341.974 387.659L344.013 389.103L345.202 390.377L346.901 389.57L346.094 388.509L347.538 385.918L348.982 385.748L350.893 385.154L353.993 387.107L356.371 387.744L357.008 388.381L357.348 389.825L359.216 390.759L360.278 392.331L360.915 393.902L364.398 401.122L364.992 403.16V405.454L363.888 408.639L361.892 409.276L358.112 412.206L356.753 412.801L353.441 416.58L352.549 417.302L350.893 417.982L350.425 419.383L351.7 419.468L353.865 419.086L357.178 420.7L359.386 423.29L360.406 424.267L361.765 423.758L361.085 425.329L361.637 426.391L358.41 428.259L357.263 428.132L356.286 428.047L354.078 428.981L352.209 429.406L352.379 431.02L351.317 432.209L349.958 432.251L347.877 431.699L346.476 432.124L345.669 431.996L344.14 432.718L342.229 432.549L341.55 431.784L338.874 432.251L336.666 431.402L332.971 432.803L331.527 432.846L330.21 432.464L329.191 432.846L330.253 434.29L329.913 436.541L330.465 436.838L332.419 436.965L333.098 438.154L332.716 439.556L335.222 440.745L335.774 442.571L335.561 442.996L333.735 444.907L332.334 445.799L331.909 446.521L329.446 447.413L329.403 448.347L330.423 449.706L330.508 450.47L328.639 450.81L327.705 451.872V453.103L327.025 453.868L326.261 453.783L324.902 452.806L322.778 453.146L323.033 455.482L322.184 456.756L319.041 458.412L317.597 458.37L317.003 459.219L315.729 458.922L314.879 460.281L312.671 460.875L313.775 462.531L314.794 463.253L313.605 463.975L313.096 465.334L311.652 466.141L309.995 463.253L307.872 463.763L306.47 463.636L305.918 464.23L303.37 464.782L301.417 466.184L302.861 466.651L301.587 467.713L300.567 467.798L299.633 468.307L296.193 468.222L295.216 465.504L294.876 465.037L295.004 463.296L295.853 462.404L297.425 461.937L293.857 458.412L294.664 457.393L296.957 456.628L297.127 456.034L296.235 454.845L298.699 453.655V452.466L298.019 451.914L298.953 450.895L297.297 450.385L297.679 449.494L299.888 448.899L300.482 447.795L299.675 446.563L298.614 444.737L297.382 444.185L295.174 441.297L290.842 439.513L289.95 438.282L286.68 437.135L285.703 436.201L284.557 435.819L284.684 434.757L284.005 433.653L284.939 433.186L285.066 432.549L283.155 430.68L283.028 430.213H280.607L280.395 429.066L278.866 428.641L278.101 428.004L279.291 426.306L281.117 425.541L281.711 424.14L282.773 423.46L282.008 422.399L281.074 421.846L277.294 421.592L275.851 420.487L274.449 420.445L272.963 419.978L272.241 418.407L272.283 417.345L273.26 417.048L273.472 415.349L275.808 414.245L276.318 413.31L276.275 412.121L275.553 411.569L275.086 409.488L275.298 408.426L274.109 406.94L274.152 405.708L273.09 404.519L271.731 403.84L268.588 402.821L267.739 401.801L266.72 402.183Z" fill="#009649" stroke="white" stroke-width="2" stroke-linejoin="round" data-country-region="East Region"></path>
</svg>