<svg width="578" height="576" viewBox="0 0 578 576" fill="none" xmlns="http://www.w3.org/2000/svg">
<path class="region" data-country-region="North Region" d="M298.864 80.7007L299.326 85.7766L295.806 100.947L294.363 103.658L291.477 104.927L290.669 105.619L289.745 106.196L287.725 105.561L286.456 103.6L284.493 101.985L282.646 101.697L282.185 139.651L280.742 141.036L279.472 140.69L278.433 141.093L278.318 141.901L278.029 142.651L276.182 144.324L274.797 146.342L274.566 148.477L275.143 150.553L273.239 150.899L271.853 152.053L271.161 153.206L262.157 156.84L260.195 157.244L258.29 157.821L256.732 158.975L254.192 157.187L251.941 155.052L248.998 151.245L246.747 146.054L244.9 139.997L243.226 137.171L238.84 135.902L233.934 135.729L230.009 135.325L227.47 133.768L225.911 130.826L224.353 130.134L222.564 131.114L220.601 131.518L217.889 130.826L213.271 128.576L209.462 125.058L206.923 122.808L204.21 122.462L205.48 118.655L206.807 117.386L207.5 115.771L207.846 113.233L209.404 108.619L209.866 106.484L208.192 100.543L208.943 99.1588L210.212 98.8704L211.02 97.8898L211.944 97.0823L213.214 96.7362L214.657 95.7556L218.293 96.8515L220.313 95.2364L221.236 94.8903L222.333 94.948L223.372 93.9098L223.545 92.3523L222.275 89.9297L219.851 88.4877L217.427 87.334L215.465 85.6613L213.156 83.354L209.116 78.6241L209.866 78.1627L209.693 77.4128L209.058 77.009L208.885 76.836L208.827 76.3169L209 75.9131L209.462 75.3939L209.982 74.9325L210.443 74.7018L211.309 74.5864L213.445 73.7212L214.253 73.2597L215.407 71.76L216.157 71.1832L217.196 71.4716L218.985 70.0295L219.736 69.6258L222.044 69.1066L222.621 68.6452L223.141 68.5298L226.258 66.511L226.142 65.9918L225.507 65.2997L225.565 64.7805L225.854 63.9153V63.973L227.931 65.1266L229.316 64.4344L232.953 64.6652L235.03 64.4921L235.377 62.6463L236.704 61.8388L240.109 65.0112L241.956 65.1843L243.803 65.242L247.959 67.4339L249.402 67.7223L250.614 68.4721L251.884 70.2603L253.615 71.5293L257.54 73.8365L258.983 75.5093L260.195 77.3551L261.695 78.1627L263.427 77.9319L264.754 77.9896L267.755 80.0662L269.718 80.8737L298.864 80.7007ZM218.581 61.0312L219.505 60.339L219.966 60.166L219.562 60.339L218.581 61.0312Z" fill="#009649" stroke="white" stroke-width="2" stroke-linejoin="round"></path>
<path class="region" data-country-region="North Region" d="M78.9082 240.882L78.7927 242.209L77.2921 243.017L77.2344 243.651L77.4075 244.286L77.7538 245.151L78.2156 245.382L81.7362 248.093L82.0248 248.208L82.7751 248.15L83.006 248.266L83.1792 248.612L83.006 249.362L83.4677 250.342L83.6986 251.207L83.3523 252.419L83.6986 253.515L83.41 254.265L83.5255 254.668L84.218 254.784L85.2569 254.611L86.2958 254.207L87.3924 254.034L88.4313 254.38L89.4702 256.226L90.2205 257.033L91.2017 256.803L92.1829 256.399L94.3761 256.63L95.3573 256.283L97.3196 257.495L98.3585 257.956L99.5706 258.129L100.609 257.899L101.648 257.61L102.514 257.552L103.322 258.129L103.899 257.264L104.476 257.149L108.459 258.36L108.978 258.302L109.555 257.956L111.576 257.149L112.268 256.976L112.557 256.457L113.134 255.88L113.538 255.649L114.634 255.188L115.731 254.322L116.77 253.399L117.982 252.592L119.54 252.246L119.829 252.361L120.637 253.169L120.926 253.284L121.56 252.996L122.772 253.63L125.254 254.092L126.178 254.149L126.986 253.688V254.092L130.045 255.014L131.199 255.188L131.488 255.361L132.065 256.976L132.526 257.495L133.508 258.418L133.912 258.821L134.085 259.86V262.513L134.431 263.378L135.066 264.359L136.047 267.935L136.913 269.896L138.183 271.684L139.51 273.184L140.78 274.222L143.55 275.665L144.589 276.357L145.224 276.472L145.57 276.76V277.856L146.09 278.664L146.956 279.356L148.802 280.164L149.841 280.914L150.996 281.087L151.515 281.317L152.323 282.125L154.228 285.182L155.844 286.855L158.037 287.662L165.771 288.354L166.694 288.874L166.925 289.97L167.387 290.719L167.791 291.469L167.503 292.508L166.983 293.43L165.886 294.815L164.444 295.68L161.269 299.66L159.769 304.621L159.48 310.158L159.826 315.696L159.249 321.175L158.037 326.54L155.324 328.039L143.204 332.25V337.903L141.068 343.729L139.164 347.478L133.681 349.612L131.834 352.439L129.756 356.765L128.313 361.322L129.237 363.225L117.405 361.206L108.69 360.053L101.764 358.899L100.609 351.285L99.4551 343.152L98.878 337.326L95.9922 333.808L87.3347 333.231L79.8316 332.654L77.523 329.135V324.521L75.2143 317.541L70.597 315.753L58.9961 316.33L53.2245 318.118L52.4741 318.637L49.8769 316.965L49.5306 316.215L48.2609 315.407L44.7979 311.485L43.8744 309.408L43.4704 308.082L43.5859 307.505L41.5658 304.909L40.4115 302.083L39.9497 301.621L39.0263 301.391L38.1028 300.756L35.621 298.391L36.8331 296.718L38.3914 292.046L43.4127 288.585L43.2396 286.163L42.3161 284.028L42.8933 280.683L41.1618 278.722L38.68 277.28L37.0639 272.665L33.8895 266.724L32.3312 262.34L28.8682 242.036L26.8482 237.422L22 233.326L22.9812 232.115L34.2935 231.999L36.8908 231.365L39.0263 229.577L42.4315 225.712L44.2784 224.443L58.8806 224.328L61.3047 224.501L62.9785 225.539L63.7288 226.75L64.0751 227.039L64.4214 227.097L65.2294 226.981L65.5757 227.039L66.8455 227.962L68.4615 230.211L69.5581 231.077L70.3662 230.327L71.5205 228.25L72.4439 227.789L73.3674 228.192L73.7137 229.115L73.8869 231.423L74.1754 232.057L75.3875 233.211L76.0223 234.537L76.2532 234.884L77.1767 235.864L77.6384 236.556L78.9082 240.882Z" fill="#009649" stroke="white" stroke-width="2" stroke-linejoin="round"></path>
<path class="region" data-country-region="South Region" d="M307.235 428.636L308.273 428.117L309.139 427.367L310.294 427.944L313.93 433.482L323.972 441.442L324.665 443.864L324.838 446.402L323.28 447.96L321.317 449.344L318.893 450.555L316.873 451.824L315.315 453.497L313.295 454.766L308.677 459.092L305.214 460.938L300.078 466.476L296.211 468.091L294.422 469.014L293.902 470.513L294.883 471.955L296.095 473.051L296.903 474.955L296.73 477.608L298.808 480.665L299.327 484.242L294.883 490.471L294.191 492.259L292.286 492.663H290.324L288.535 493.298L287.265 494.682L287.034 498.258L282.474 501.777L278.55 503.738L276.068 507.199L271.508 510.141L270.008 510.833L268.334 510.948L267.757 510.544L267.064 510.371L265.563 510.66L265.679 509.679L266.141 508.468L266.256 507.949L266.025 506.91L265.044 505.238L264.813 504.026L265.852 498.143L265.91 497.566L265.794 496.932L265.333 495.72L264.813 492.894L263.082 488.914L262.678 487.068L262.735 486.549L263.255 485.453L263.37 484.876L263.255 484.299L262.678 482.453L261.062 480.146L260.427 479.05L255.175 472.475L255.117 472.244L254.136 471.321L253.905 471.206L252.693 469.936L252.404 469.533L252.173 468.494L252 467.572L251.654 466.822L250.096 466.245L244.959 460.765L243.4 460.073L242.477 459.092L242.073 458.862L240.284 456.67L239.533 456.208L238.956 455.574L239.187 453.843L237.052 451.709L235.955 451.536L234.974 451.132L233.358 448.883L230.472 443.864L229.26 442.307L229.145 440.634L228.567 439.942L226.778 439.538L227.067 438.385L228.163 437.808L227.298 435.385L226.028 433.078L224.296 431.059L224.008 428.521L227.009 423.503L229.202 421.542L232.088 420.965L236.013 422.349L237.513 421.83L238.033 420.33L240.746 419.177L243.862 419.465L246.863 419.407L252.173 418.138L257.252 418.831L260.023 418.773L262.447 417.792L264.351 415.831L265.737 413.005L267.41 411.793L269.43 411.101L271.162 411.274L272.316 410.467L273.701 406.948L281.205 409.255V411.966L293.902 416.466L293.325 426.041L298.346 429.617L303.368 429.905L307.235 428.636Z" fill="#009649" stroke="white" stroke-width="2" stroke-linejoin="round"></path>
<path class="region" data-country-region="North Region" d="M109.267 73.7209L109.671 74.0093H110.595L111.98 73.3748L113.019 72.4519L114.116 71.8174L115.732 72.1635L115.328 72.9134L116.136 73.3172L116.597 73.7786L116.54 74.1247L115.732 74.0093V75.0476L115.905 75.6821L116.828 76.8934L117.521 77.1242L117.867 77.3549L117.521 78.2201L117.809 78.97L117.867 79.3737L117.636 80.0659L117.174 80.7004L116.54 81.2196L115.732 81.6233L114.924 81.681L114.173 81.6233L113.711 81.7387L113.538 82.4885L113.827 83.4114L114.462 83.6999L115.097 83.8729L115.328 84.392V87.2761L115.674 87.7376L116.424 87.6222L118.04 87.1031H119.656L120.522 86.9877L121.157 86.6993L121.041 87.6222L120.58 87.6799L119.945 87.4492H119.368L118.964 87.7376L118.906 88.7758H118.56L117.982 89.0066L117.29 88.9489L117.001 89.1219L116.655 89.5257L116.828 90.3332L116.136 91.6023L115.962 92.8136L116.078 92.9289L117.059 92.8712L117.348 92.9866L117.521 93.3327L117.578 94.1979L117.117 96.7936L117.174 98.0626L117.867 99.1009L118.617 98.6971L119.425 98.0626L120.118 97.3127L120.464 96.5629L120.291 95.8707L119.599 94.0249L119.714 93.4481L119.368 92.3521L119.483 91.833L119.772 91.5446L120.637 90.9101L121.157 90.7947L121.734 91.3138L122.023 92.1214L121.907 92.9289L122.773 92.6405L123.696 92.5252L123.523 91.9483L123.35 90.2756L123.292 89.2373L123.062 88.8335L123.35 88.5451H123.639L123.754 88.8335L123.696 89.6411L125.082 89.2373L125.428 89.9295L125.37 91.4292L126.582 91.7753L126.871 92.5252V93.5634L127.044 94.7747L127.679 95.4669L128.66 95.64L129.526 95.1785L129.93 94.1979L129.699 93.6788L128.718 92.8712L128.429 92.5252L128.371 92.1214L128.487 91.1408L128.429 90.737L127.852 90.2179L127.506 89.8141L127.217 88.6605L126.871 88.0837L126.467 87.6799L125.659 87.3338L125.255 87.1031L125.082 86.757L125.197 86.3532L125.543 86.0648L127.044 86.0071L127.794 86.1802L128.256 85.8341L128.429 85.0265L128.083 84.6228L128.256 83.3538V82.8923L127.91 81.7964L128.371 80.8735L129.064 80.6427L129.526 81.6233H129.93V80.6427L130.276 79.7775L130.565 80.4697L131.777 81.854L132.412 82.6616L132.642 82.0848L132.412 81.6233L132.816 81.508H133.277L134.258 81.9694L134.085 82.4885L134.432 83.0077L135.009 83.2961L135.701 83.0654L136.048 84.1036V84.5651L137.029 84.0459L137.202 83.2384L137.317 82.4885L140.03 83.4114L141.704 85.6034L150.65 87.1031L147.822 92.5252L157.056 97.8895L155.729 101.927L160.346 105.792L155.787 118.424L154.055 118.77L150.765 120.385L149.149 121.654L147.937 123.096L147.071 124.885L145.398 124.712L144.012 123.558L143.551 121.597L141.992 120.501L139.915 121.078L138.299 122.404L135.99 125.346L134.893 128.922L135.644 134.287L136.567 139.536L135.817 143.689L130.969 144.035L125.543 144.785L119.945 147.38L115.27 151.534L112.269 156.033L111.576 159.378L112.269 163.07L110.191 166.242L109.44 167.857L109.845 168.838L110.883 169.473L111.518 170.857L111.807 172.357L108.171 174.202L103.034 173.626L100.841 174.202L99.5133 175.933L98.9361 178.182L97.7241 180.028L95.9926 177.26L94.8383 174.491L94.6651 173.568L94.0303 172.76L93.8571 171.088L93.3954 169.415L93.5685 166.819L95.3 161.916L95.5886 159.321L94.6651 154.937L91.433 147.9L88.4895 145.073L87.2198 141.728L87.0466 138.094L86.5849 136.248L86.354 134.575L86.5272 132.614L85.546 130.653L84.3917 128.98L83.4105 127.134L82.083 123.443L81.5059 119.636L78.6778 117.559L77.6966 118.193L76.9463 119.116L76.2537 119.059L75.792 118.54L75.9074 115.598L77.9275 112.483L79.4281 108.676L79.3126 104.638L79.0241 104.235L78.62 104.061L78.216 103.427L78.1583 102.619L76.9463 100.255L74.6953 99.3316L74.0605 95.9861L71.4055 93.7365L68.9814 91.1408L70.8861 85.8918L76.6577 83.123L84.5071 69.6832L86.1809 70.0293L89.7016 69.4525L92.5297 68.5296L94.9537 68.9334L105.574 73.6056L109.267 73.7209ZM121.041 68.1835L121.272 69.8563L121.734 71.2983L123.177 71.8751H123.812L123.466 72.6827L123.35 73.6633L123.639 74.4131L124.1 75.163L124.504 75.9705L124.447 76.8934L124.043 77.2972L122.08 78.9123L121.272 79.2584L120.637 78.97L120.233 78.2201L120.118 77.4126L120.233 76.6627L120.811 75.4514V74.7015L120.464 74.1824L119.368 73.2595L118.964 72.5673L119.714 71.9328L119.252 71.6444L118.213 71.5867L117.174 71.8751L116.828 69.9716L117.578 70.1447L118.156 69.7409L118.502 69.0487L118.617 68.1835L117.463 68.5873L117.578 67.2606L118.617 64.5495H118.964L119.021 65.5878L119.599 65.9339L120.233 66.28L120.464 66.6838L121.041 68.1835Z" fill="#009649" stroke="white" stroke-width="2" stroke-linejoin="round"></path>
<path class="region" data-country-region="North Region" d="M386.651 267.705L385.035 270.3L384.977 273.357L386.42 285.932L383.535 290.258L381.341 291.354L380.072 296.603L378.917 299.257L378.629 300.352L377.994 301.333L377.244 301.218L376.493 300.987L376.378 301.852L376.955 302.717L377.013 304.044L376.147 305.198L374.935 309.178L375.166 318.811L374.935 321.176L370.548 323.887L368.298 328.674L367.663 331.097L367.951 333.692L368.644 336.288L368.24 338.768L366.277 340.787L365.989 339.518L365.643 338.768L364.777 338.134L363.507 337.903L361.025 337.961L359.582 338.422L358.89 338.48L358.197 338.134L358.024 337.73L357.909 336.692L357.389 335.884L356.754 334.615L356.35 334.212L355.311 333.519L354.792 332.423L354.446 331.212L353.811 330.232L352.599 329.828L351.56 329.655L346.769 327.694L346.019 327.636L344.865 327.694L344.288 327.636L343.826 327.463L343.076 327.232L340.017 327.982L338.92 327.751L336.784 327.059L335.861 326.886L335.111 326.54L334.13 325.905L328.935 324.636L327.261 324.752L325.357 324.636L321.547 322.502L319.008 321.579L316.468 321.291L315.718 320.829V320.022L315.025 318.926L313.871 318.291L311.389 317.426L308.85 317.196L307.061 317.484H305.271L303.713 317.888L302.674 319.041L297.307 319.849L292.17 316.734L291.939 311.081L291.073 306.121L297.711 305.775L299.211 302.198L298.288 293.085L298.807 288.297L299.673 286.567L299.731 284.663L299.211 282.529L298.172 280.683L297.711 276.011L298.865 271.223L299.038 265.051L300.943 260.61L302.328 258.591L302.847 256.572L303.078 254.38L304.752 252.938L305.849 251.611L305.214 250.054L303.482 248.151L302.155 245.959L302.039 244.92L301.808 244.055L301.289 243.94L300.885 243.594L300.308 242.902L299.558 242.44L298.576 240.883L297.941 239.21L296.499 237.652L295.287 235.864L294.421 232.23L293.497 230.154L292.805 228.02L292.862 226.001L292.689 224.04L291.593 222.251L291.881 220.463L304.81 211.58L305.271 210.196L306.195 208.408L305.964 206.562L306.657 206.62L307.291 206.966L312.197 207.37L314.968 206.908L316.122 205.005L319.758 197.621L322.471 193.353L322.933 191.334L322.009 189.431L321.721 188.565L321.605 187.7L321.894 186.777L322.355 186.489L323.51 186.95L327.665 184.066L329.974 181.874L330.551 180.951L331.417 180.375L332.34 180.721L333.206 181.24L334.476 180.605L335.803 179.74L338.4 179.798L340.074 177.087L340.651 176.625L341.921 175.875L343.537 174.664L356.812 170.915L357.158 186.662L357.678 189.661L358.543 192.603L359.755 195.314L360.044 197.045L359.467 207.889L357.505 220.694L356.35 224.386L354.676 227.039L353.522 229.865L354.099 233.269L353.176 236.268L353.868 238.691L355.889 240.825L358.659 243.017L361.141 245.497L362.641 248.151L364.546 250.631L367.778 252.592L371.183 254.207L373.319 256.803L374.819 259.918L376.782 262.917L379.379 265.224L382.957 266.609L386.651 267.705Z" fill="#009649" stroke="white" stroke-width="2" stroke-linejoin="round"></path>
<path class="region" data-country-region="South Region" d="M514.665 269.435L514.723 270.473L515.011 271.569L514.665 275.722L514.781 277.107L515.3 278.318L516.224 279.299L516.454 280.683L516.05 280.394L515.3 280.741V281.144L515.646 281.202L515.704 281.894L514.954 281.375L514.723 282.24L514.954 283.452L515.473 284.028L515.069 284.259L514.088 283.74L513.799 283.336L511.144 280.221L510.625 279.356L509.932 276.991L509.471 276.011L511.375 273.703L510.971 270.589L510.625 269.377L512.703 269.262L514.665 269.435Z" fill="#009649" stroke="white" stroke-width="2" stroke-linejoin="round"></path>
<path class="region" data-country-region="South Region" d="M532.904 432.27L532.327 433.251L531.404 432.616L530.538 431.52L529.903 430.886L529.845 430.021L532.616 431.347L532.904 432.27ZM527.941 402.853L528.114 403.602L527.075 403.429L526.325 402.737L526.094 401.699L526.729 401.814L527.421 402.276L527.941 402.853ZM515.185 391.605L515.647 392.47L516.051 393.854L516.282 395.354L516.34 396.969L515.994 400.084L516.167 401.641L517.956 403.429L518.591 404.698L519.052 406.083L519.283 407.294L519.226 411.736L518.879 412.832L520.784 413.351L521.073 413.697L521.419 414.447L521.996 414.62L523.093 414.735L523.381 415.023L523.439 415.716L523.67 416.812L524.132 417.734L524.709 418.081L525.344 418.369L526.036 418.888L526.498 419.638L527.075 421.484L527.652 422.349L529.153 423.503L529.499 423.964L528.749 424.195L528.114 424.137L527.71 424.022L526.96 423.445L525.805 422.349L524.766 421.022L523.958 420.561L522.919 420.734L521.996 421.022L521.823 421.195L520.726 422.753L521.534 423.041L524.709 422.753L524.016 423.618L523.843 424.137L524.247 424.483L525.286 424.541L526.209 424.829V425.579L525.921 426.675L525.805 427.886L526.556 428.636V429.732L526.267 430.251L526.325 430.597L526.844 430.886L526.96 431.174L526.786 431.693L526.267 432.443L526.382 433.02L526.786 433.885V434.289L526.556 434.808L527.306 434.693L528.229 434.231L529.095 433.712L529.672 433.193L530.307 433.135L531.057 433.885L533.366 436.769L534.232 438.327L534.52 440L533.655 441.672V442.076L534.347 442.941L534.578 443.345V443.922L534.29 445.018L534.232 445.537L534.405 447.325L534.232 447.96L533.482 448.883L532.789 449.517L532.327 449.632L531.808 449.517L530.942 449.632L530.307 449.921L530.019 450.44V451.19L530.192 452.228L530.653 451.997L531.288 451.882L532.385 451.824L532.5 451.248L532.789 451.017L533.308 451.248L533.828 451.767L534.636 452.055L534.694 452.632L534.578 453.67L534.924 454.132L536.194 455.343L536.656 456.381L537.291 459.323L537.868 460.131L538.561 460.65L538.445 460.996L537.983 461.342L537.868 461.746L538.387 462.726L539.08 463.418L539.426 463.995L539.253 465.091L539.715 466.129L539.253 466.475L538.214 466.937L537.291 467.744L537.06 468.206L537.522 468.437L539.599 468.379L540.003 468.437L540.177 468.783L540.581 470.282L540.927 470.802L541.793 471.436L542.197 471.84L542.601 472.474L542.947 473.974L542.543 475.07L541.562 475.647L540.003 475.416L540.465 476.166L541.966 477.32L542.024 477.839L541.446 478.185L539.599 478.992L537.983 479.396V479.973L538.618 481.357L538.561 482.338L538.157 483.146L537.522 483.722L536.771 484.299L538.099 484.068L540.581 481.011L541.677 481.127L542.37 481.53L543.986 481.415L545.082 482.569L545.775 482.684L546.583 482.626L547.276 482.742L548.603 483.78L551.835 489.144L551.893 491.567L550.219 492.605L548.372 494.047L539.773 498.95L537.579 499.758L536.194 501.546L535.848 503.853L534.924 505.93L534.982 507.372L536.31 508.583L536.598 510.487L535.386 512.39L533.597 514.063L531.461 512.909L529.903 509.102L529.037 508.525L528.287 507.545L526.556 502.642L522.458 499.989L521.188 500.046L519.86 500.277L518.475 501.777L516.859 502.584L515.128 502.469L514.551 503.738L513.973 505.987L511.665 506.449L510.972 505.007L510.626 503.334L508.894 502.93L506.759 503.853L502.372 506.334L499.891 507.141L495.793 509.045L494.35 510.083L493.369 511.179L489.617 511.525L487.597 510.948L486.039 509.852L484.25 509.794L482.576 510.602L477.785 510.948L463.703 516.832L460.413 520.177L457.816 524.099L455.969 525.368L446.676 526.003L444.021 521.1L442.867 519.773L441.944 518.389L441.193 515.851L439.808 513.486L439.462 512.275L438.885 511.006L437.557 508.814L436.114 507.66L434.556 506.795L432.074 504.949L402.581 497.739L389.768 492.778L387.171 490.529L387.286 486.664L387.113 482.742L387.46 479.454L388.845 476.512L393.231 472.532L397.271 468.033L399.58 464.687L400.85 461.573L401.6 458.342L405.698 445.306L406.564 443.807L407.199 442.192L407.66 438.788L410.084 436.769L413.086 435.789L413.432 433.712L411.874 431.405L412.335 428.06L410.892 424.541L410.95 422.81L410.2 417.908L410.546 416.35L412.855 411.62L414.067 407.525L414.24 406.314V405.218L414.009 404.525L413.143 402.853L413.547 401.295L414.586 399.911L415.683 398.815L416.606 397.546L418.107 394.835L419.146 393.508L419.434 393.277L420.185 393.047L420.589 392.758L420.877 392.355L421.108 391.605L421.916 390.509L422.551 389.009L424.398 386.067L424.802 385.606L425.552 385.26L426.476 384.971L427.341 384.568L427.688 383.76L427.861 382.895L428.265 382.203L429.592 380.587L429.766 380.241L429.881 379.376L429.996 378.857L430.92 377.876L432.016 376.031L432.651 375.281L433.459 374.531L434.845 373.781L435.306 373.435L435.653 372.973L436.172 371.935L436.518 371.474L443.906 377.127L446.619 378.799L452.91 380.991L459.432 382.433L462.375 383.933L467.281 388.259L469.878 390.047L473.745 393.797L474.611 398.873L475.477 401.064L478.536 401.122L481.018 399.622L482.114 396.681L483.499 394.431L487.193 393.624L488.232 393.912L488.694 394.719L489.617 395.008L492.907 394.316L499.544 392.066L509.818 389.817L512.473 389.759L514.435 391.316L515.185 391.605Z" fill="#009649" stroke="white" stroke-width="2" stroke-linejoin="round"></path>
<path class="region" data-country-region="South Region" d="M292.17 316.734L297.307 319.849L302.675 319.041L303.714 317.887L305.272 317.484H307.061L308.85 317.195L311.39 317.426L313.872 318.291L315.026 318.926L315.719 320.022V320.829L316.469 321.291L319.008 321.579L321.548 322.502L325.357 324.636L327.262 324.751L328.936 324.636L334.13 325.905L335.111 326.54L335.862 326.886L336.785 327.059L338.92 327.751L340.017 327.982L343.076 327.232L343.826 327.463L344.288 327.636L344.865 327.693L346.02 327.636L346.77 327.693L351.56 329.654L352.599 329.827L353.811 330.231L354.446 331.212L354.792 332.423L355.312 333.519L356.351 334.211L356.755 334.615L357.39 335.884L357.909 336.692L358.025 337.73L358.198 338.134L358.89 338.48L359.583 338.422L361.026 337.961L363.508 337.903L364.777 338.134L365.643 338.768L365.989 339.518L366.278 340.787L367.432 346.209L368.356 347.766L369.914 348.516L370.664 348.459L371.819 348.228L372.511 348.343L374.935 348.862L376.09 349.324L377.013 350.131L377.475 350.708L377.706 350.881L378.918 351.17L380.014 351.573L381.342 351.746L382.15 351.92L382.842 352.323L383.016 352.727L382.842 354.4L382.958 354.977L383.304 355.438L384.285 355.9L385.151 355.727L385.844 355.38L386.594 355.092H386.998L389.653 355.38L390.461 355.669L391.211 355.727L392.308 355.957L389.711 359.418L385.901 362.937L383.477 367.436L381.573 372.166L377.533 373.319L372.858 371.935L367.894 371.474L363.219 373.204L359.352 376.146L357.678 377.761L357.563 379.03L357.621 379.953L357.909 380.818L358.255 382.606L357.332 384.164L354.273 384.625L352.541 385.087L350.579 384.683L345.962 387.509L341.806 391.316L338.17 395.931L336.208 401.468L332.399 404.871L327.493 407.179L325.934 408.678L323.972 415.485L324.03 418.08L323.395 420.503L322.24 419.522L322.01 414.966L321.144 413.697L315.084 412.658L310.236 411.274L305.965 411.389L305.676 413.812L306.599 415.946L306.657 418.311L305.272 420.33L305.387 421.138L306.311 421.599L306.83 422.695L306.599 426.502L307.234 428.636L303.367 429.905L298.346 429.617L293.325 426.04L293.902 416.465L281.204 411.966V409.255L273.701 406.948L274.278 403.487L273.413 401.641L272.316 399.968L271.45 397.776L272.547 395.527L274.047 393.22L276.01 391.431L278.261 390.682L280.108 389.24L281.493 386.875L283.455 382.433L284.725 380.876L287.611 380.01L289.977 378.165L291.247 376.434L289.804 374.935L287.38 374.069L284.84 374.3L283.397 374.069L283.571 372.685L283.051 371.012L268.68 368.763L266.429 368.013L264.467 366.628L256.617 364.783L253.905 364.552L229.202 365.763L227.182 365.532L226.432 363.975L226.893 361.783L227.875 359.764L229.26 357.861L230.472 355.784L231.972 352.381L233.011 351.054L233.762 349.612L232.896 348.632L231.568 347.709L236.186 345.055L240.572 342.114L242.246 339.806L244.035 337.788H246.459L248.826 338.653L251.307 338.768L253.789 338.422L254.828 337.557L254.77 335.884L257.425 332.654L273.066 329.424L275.029 325.617L275.664 320.483L277.568 318.868L279.877 317.599L280.743 316.907L281.839 316.503L282.82 315.869L283.571 315.119L285.648 315.292L287.842 315.811L290.035 316.099L292.17 316.734Z" fill="#009649" stroke="white" stroke-width="2" stroke-linejoin="round"></path>
<path class="region" data-country-region="South Region" d="M535.098 239.671L533.655 239.729L532.732 239.037L531.924 238.056L531.462 237.364L530.827 236.729L530.308 235.922L530.654 235.345L531.866 236.037L533.078 237.825L533.886 238.114L534.694 238.345L535.214 238.979L535.098 239.671ZM545.487 223.982V226.52L545.141 227.385L545.487 227.789L544.852 228.539L543.294 233.211L542.659 234.018L542.601 234.364V235.287L542.313 235.98L541.851 236.095L541.562 235.691L541.851 234.711H541.505L541.158 235.576L540.754 236.153L540.927 236.729L540.639 237.306L540.062 237.883L539.311 238.345L538.792 238.518L538.619 238.287L538.792 237.941L539.311 237.652V237.249L538.561 237.479L537.984 237.825L537.522 237.883L537.118 237.249L535.271 237.306L534.521 237.076L534.232 236.326V234.48L534.463 233.615L534.925 232.922L534.636 232.346L535.271 232.23L537.118 232.519L536.714 231.769L535.618 230.442L535.329 229.577L536.137 229.808L537.176 229.865L538.099 229.75L538.619 229.231L537.522 228.885L537.06 228.596L536.772 228.135H537.58L538.85 227.846L539.658 227.789L540.639 228.25L541.158 228.135L541.505 227.039L540.466 227.443L539.138 227.097L536.772 225.539L536.252 225.885L535.56 225.712L534.983 225.135L534.579 224.443L535.906 225.078L536.368 224.847L536.887 224.962L538.676 225.251H539.658L539.311 224.847L539.715 223.809L539.485 222.944L540.004 222.655L541.505 222.713L541.966 223.347L541.793 224.097L541.966 224.847L543.005 225.02L544.044 224.501L545.487 223.982Z" fill="#009649" stroke="white" stroke-width="2" stroke-linejoin="round"></path>
<path class="region" data-country-region="South Region" d="M545.487 223.982L544.044 224.501L543.005 225.02L541.966 224.847L541.793 224.097L541.966 223.347L541.505 222.713L540.004 222.655L539.485 222.944L538.907 222.655L538.215 223.405L538.503 222.309L538.619 221.963L538.33 221.559L537.926 221.271H537.407L536.772 221.617L536.945 220.809L537.118 220.463L536.945 219.829L537.003 219.079L537.291 218.502L537.695 218.445L538.33 218.791L538.561 218.56V218.098L538.215 217.579L537.753 217.291L536.022 216.656L536.195 216.137L536.945 215.56L537.118 214.984L536.368 215.387L535.964 214.407L536.252 213.599L536.945 213.369L537.868 213.945L538.099 213.08L537.464 212.561L536.656 212.1L536.022 211.35V210.773L536.31 209.273L536.368 208.466L536.772 209.1L537.349 209.388L537.638 209.908L537.868 210.657L538.446 210.542L538.792 209.735L539.081 209.504L539.369 209.735L540.408 210.831L542.832 212.215L543.294 212.619L543.467 213.772L543.698 213.945L544.044 213.542L543.986 213.138L543.813 212.619V212.042L544.448 211.35L544.506 211.753L544.737 212.446L545.198 211.58L545.487 210.542L545.602 209.504L545.487 208.812L546.237 209.273V210.369L546.064 211.638L546.699 213.657L546.122 214.58L545.141 215.33L544.448 215.733L544.679 216.656L544.506 217.695L544.217 218.733L544.044 219.714L544.564 221.329L544.621 221.617L545.083 221.386L545.141 220.867L545.025 220.348L545.141 220.117L545.776 220.406L545.891 221.329L545.487 223.405V223.982Z" fill="#009649" stroke="white" stroke-width="2" stroke-linejoin="round"></path>
<path class="region" data-country-region="South Region" d="M512.703 259.917L512.068 260.091L511.491 260.033L511.375 259.283L511.606 256.803L511.491 255.707L512.068 255.303V255.995L512.299 256.976L512.761 257.61L512.414 258.187L512.703 258.879V259.917ZM520.841 267.647L518.474 269.147L514.665 269.435L512.703 269.262L510.625 269.377L509.99 267.301L510.221 264.301L510.163 263.667L510.221 263.032L510.337 262.455L510.567 262.109L511.318 263.205L512.183 261.763L514.088 260.206L514.954 259.168L515.416 257.495L515.762 253.573L516.743 252.592L517.378 254.207L518.994 257.149L519.282 258.995L518.936 261.244L518.878 262.109L519.052 262.917L519.513 264.417L519.629 265.224L519.86 266.032L520.841 267.647Z" fill="#009649" stroke="white" stroke-width="2" stroke-linejoin="round"></path>
<path class="region" data-country-region="South Region" d="M539.831 378.049L538.272 379.491L537.407 379.434L537.06 378.511L537.407 377.126L538.041 376.031L539.484 374.242L541.158 374.069L542.37 374.127L542.601 374.877L542.082 375.569L539.831 378.049ZM547.507 361.322L546.006 364.84L545.256 365.763L545.14 366.859L544.736 367.955L544.159 368.878L543.755 369.916H543.12L541.677 369.455L540.119 369.974L539.484 371.128L539.138 372.339L538.619 373.089L536.541 373.896L535.444 374.185H534.578L533.482 373.781L532.097 372.224L531.231 371.589L531.75 371.474L532.674 371.416L533.078 371.243L533.251 370.724L533.597 369.974L534.578 369.801L536.887 367.551L537.637 366.34L537.118 365.763L537.464 364.84L538.041 364.437L538.907 364.321H539.831L540.754 364.148L542.37 363.398L543.294 363.168L543.005 362.764L542.486 362.706L541.158 362.821V362.475L541.793 362.36L542.312 362.014L543.294 361.379L544.448 360.86L544.91 360.457L545.314 359.072L545.718 358.322L546.237 357.572L546.987 357.053L547.507 355.669L547.622 355.092L548.43 356.015L548.373 357.745L547.507 361.322ZM489.502 265.628L489.213 267.012L488.694 268.05L488.348 269.262V270.531L488.579 270.877L489.444 271.973L489.964 274.049L490.195 274.569L490.483 274.857L491.695 275.607L492.503 276.357L492.619 276.645L492.792 278.664L492.676 279.933L492.272 281.087L491.695 281.894L492.099 283.221L492.272 286.22L492.907 287.547L493.484 287.951L494.697 288.643L494.927 289.162L494.985 289.739L495.274 290.373L495.562 290.892L496.024 291.354L496.601 291.7H497.294L497.64 291.873L497.986 292.623L498.217 292.854L498.91 292.969L500.353 293.084L501.507 293.603L502.026 293.373V292.969L500.699 292.45L499.66 291.7L501.161 292.219L502.257 292.681L505.201 295.507L506.817 297.468L506.471 297.814L505.547 298.853L504.566 299.66L503.585 302.025L503.354 304.621L502.661 306.928L501.161 308.831L501.045 309.639L502.315 309.697L503.008 310.273V311.312L503.412 313.158L504.912 314.138L505.201 315.176L505.663 316.33L505.085 317.311L504.047 317.945L503.412 319.041L503.123 320.368L502.2 321.464L501.565 322.733L502.2 323.31L503.181 322.963L504.277 324.002L505.489 323.194L506.24 321.983L507.279 321.175L508.144 321.521L509.068 321.867L509.876 321.175L510.338 320.252L511.088 320.368L511.954 320.31L513.166 318.522L514.955 318.291L515.648 318.349L516.398 318.291L517.725 318.464L519.11 318.868L520.553 320.598L521.708 322.502L521.823 330.058L522.516 329.828L523.151 330.693L522.747 331.27L522.458 332.25L522.343 333.115L522.112 333.865L521.477 334.615L520.784 335.134L519.572 335.538L519.63 335.942L520.034 336.807L519.745 337.384L518.995 337.557L518.129 337.499L517.494 337.557L518.014 338.422L518.533 338.999L518.88 339.691V340.845L518.649 341.595L518.187 342.691L517.61 343.671L516.225 344.998L515.59 347.017L514.666 352.9L514.724 353.996L514.955 355.092L515.648 356.823L515.821 357.803L515.474 358.611L515.301 359.361L516.109 361.322L515.878 362.302L513.512 365.071L515.128 364.667L516.282 363.341L517.033 361.61L517.494 359.88L518.302 360.514L518.937 361.264L519.053 362.014L518.187 362.821L520.149 362.648L521.073 362.706L521.996 363.398L523.439 364.783L523.612 365.532L523.266 366.859L522.516 368.59L522.458 369.282L522.977 371.128L523.035 373.204L523.266 374.185L524.074 373.666L524.363 373.435L524.189 375.05L523.555 376.607L521.823 379.318L520.092 384.106L519.284 385.606L518.937 385.433L518.187 385.606L518.533 386.413L518.418 388.317L518.591 389.24L517.841 388.951L517.783 389.355L517.494 390.336L516.629 389.413L516.167 389.067L515.705 388.951L516.109 389.701V390.336L515.763 390.797L514.955 391.085L515.186 391.605L514.435 391.316L512.473 389.759L509.818 389.816L499.545 392.066L492.907 394.316L489.617 395.008L488.694 394.719L488.232 393.912L487.193 393.623L483.5 394.431L482.114 396.681L481.018 399.622L478.536 401.122L475.477 401.064L474.611 398.872L473.746 393.797L469.879 390.047L467.281 388.259L462.375 383.933L459.432 382.433L452.91 380.991L446.619 378.799L443.906 377.126L436.519 371.474L436.923 370.955L437.096 370.378L437.211 369.109L437.788 366.859L437.961 366.571L438.654 365.879L438.827 365.475L439.347 364.725L439.231 362.129L439.808 359.649V356.823L440.212 354.169L441.828 352.727L443.849 352.035L448.581 351.112L450.544 351.343L452.391 351.804L455.045 351.285L457.643 350.362L466.185 348.92L466.473 346.959L465.377 344.709L463.126 338.076L464.396 334.096L465.896 332.135L467.858 330.923L469.994 330.693L471.148 328.385L473.053 326.021L474.38 323.31L474.092 322.617L473.572 321.983L473.399 320.079L472.418 319.329L471.033 319.387L470.225 318.868L469.186 318.637L468.378 318.983L467.512 319.156L466.877 318.868L466.358 318.407L465.434 317.772L464.28 317.83L462.202 314.888L462.722 311.716L464.049 308.543L463.183 304.563L462.202 304.332L461.221 304.448L460.644 304.736L460.124 305.14L458.912 305.371L457.643 305.255L452.333 303.236L450.774 302.486L449.274 302.256L448.293 301.794L447.773 300.583L447.081 299.718L446.792 298.91V297.699L447.773 296.661L449.158 293.488L450.255 285.355L450.082 281.029L449.101 279.875L447.716 279.241L448.062 278.779L448.87 278.606L447.6 278.375L446.215 277.972L445.407 276.818L444.83 275.491L443.444 273.761L442.002 270.646L441.078 269.608L440.732 268.166L440.616 266.608L439 263.897L436.519 261.994L444.541 259.802L448.12 260.667L449.678 260.379L451.063 259.744L454.815 260.033L458.162 261.705L459.663 263.321L461.625 264.07L463.876 264.647L465.261 266.608L466.762 267.243L468.436 267.128L469.244 267.935L470.167 268.454L471.899 268.858L473.053 267.993L473.976 268.397H475.073L475.823 268.166L476.516 268.57L479.575 267.243L480.729 266.897L481.653 265.859L482.403 265.801L483.153 265.974L484.192 265.57L485.058 264.878L489.502 265.628Z" fill="#009649" stroke="white" stroke-width="2" stroke-linejoin="round"></path>
<path class="region" data-country-region="South Region" d="M401.601 458.342L400.85 461.572L399.58 464.687L397.272 468.033L393.232 472.532L388.845 476.512L387.46 479.454L387.114 482.742L387.287 486.664L387.171 490.529L389.769 492.778L402.582 497.739L432.075 504.949L434.556 506.795L436.115 507.66L437.558 508.814L438.885 511.006L439.462 512.275L439.809 513.486L441.194 515.851L441.944 518.389L442.868 519.773L444.022 521.1L446.677 526.003L448.351 537.02L451.987 549.768H450.775L447.773 550.287L447.254 550.806L446.792 550.921L444.657 551.037L443.733 551.267L440.444 553.171L440.04 553.632L439.924 554.44L439.116 556.863L438.597 557.555L438.654 558.535L437.385 560.785L437.154 561.996L437.327 562.746L437.673 563.381L437.789 564.073L437.327 564.765L436.692 565.399L435.538 566.149L431.728 567.88L429.362 569.783L428.323 570.302L427.227 570.533H425.553L424.398 570.764L422.436 571.802L421.339 572.033L420.705 572.321L420.301 573.013L419.723 574.282L418.915 574.859L417.876 575.032H416.664L414.067 574.282L413.606 574.052L412.682 573.071L412.047 572.783H411.585L410.2 573.533L408.296 573.706L405.987 573.475L401.485 572.437L399.638 571.514L397.791 569.956L396.348 568.168L395.713 566.495L394.848 566.957L394.386 567.303L393.924 567.534L389.018 567.995L388.21 567.822L386.883 566.957L385.844 566.899L385.325 566.668L384.459 566.957L382.035 569.783L380.534 571.975L380.072 572.437L379.495 572.783L377.533 573.533L376.725 574.282L376.321 574.513L374.936 574.686L374.128 574.975L370.78 575.494L369.857 575.378L368.529 574.744L367.894 574.34L367.606 573.071L367.202 572.783H360.968L360.103 573.36L358.429 573.648L356.466 574.167L355.716 574.282L355.139 574.109L354.331 573.59L353.696 573.533L351.503 573.879L350.926 573.475L350.406 572.494L350.291 571.341L350.637 570.533L350.233 569.495L350.118 568.226L349.829 567.245L348.963 566.842L348.502 566.726L347.347 565.688L346.828 565.515L345.674 565.169L345.154 564.996L343.192 563.784L342.095 563.265L341.345 563.323L340.306 563.611L339.325 563.092L338.863 562.054L339.325 560.843L338.459 559.747L337.709 559.401H335.746L335.4 559.343L333.899 558.708L331.706 558.305L331.014 558.766L329.34 560.843L328.416 561.592L325.761 562.112L324.78 562.688L325.184 563.842L324.549 564.304L323.972 564.996L323.511 565.746L323.164 566.842L322.587 567.188L319.759 567.937L318.432 568.687L317.566 568.457L316.7 568.111L316.123 568.168L316.065 569.091L315.488 568.86L314.795 567.764L314.334 567.418L313.872 567.534L312.833 567.937H311.275L310.755 567.764L310.409 567.418L310.351 567.13L308.1 567.188L285.995 566.957L285.88 566.495V563.669L285.764 562.861L285.129 561.419L284.898 561.016L284.437 560.612L283.917 560.035L283.455 558.593L282.474 557.728L282.243 557.324L281.839 556.228L280.858 555.305L279.589 554.671L277.28 553.863L276.876 553.805L276.472 553.979L275.779 554.555L275.433 554.613L275.087 554.152L273.932 551.96L275.029 551.267V550.921L274.163 550.46L273.471 549.652L273.009 548.614L272.836 547.345L272.72 546.884L272.374 546.48L271.97 546.191L270.989 545.903L270.758 545.557L270.296 544.576L267.757 542.384L267.353 541.462L267.18 540.135L266.487 537.885L266.256 536.789L266.545 535.405L268.103 533.444L269.084 531.252L269.2 530.675V528.252L269.834 524.907L269.661 523.465L269.95 523.003L270.643 522.542L270.469 521.85L269.834 521.215L269.2 520.177L269.892 519.023L269.834 517.87L269.315 516.774L268.161 515.389L268.045 515.101L268.103 514.063L267.93 513.428L267.122 513.313L266.66 513.14L266.256 512.505L265.91 511.813L265.621 511.063L265.563 510.66L267.064 510.371L267.757 510.544L268.334 510.948L270.008 510.833L271.508 510.14L276.068 507.199L278.55 503.738L282.474 501.777L287.034 498.258L287.265 494.682L288.535 493.297L290.324 492.663H292.286L294.191 492.259L294.883 490.471L299.327 484.241L298.808 480.665L296.73 477.608L296.903 474.955L296.095 473.051L294.883 471.955L293.902 470.513L294.422 469.013L296.211 468.09L300.078 466.475L305.214 460.938L308.677 459.092L313.295 454.766L315.315 453.497L316.873 451.824L318.893 450.555L321.317 449.344L323.28 447.96L324.838 446.402L326.973 445.941L329.051 445.133L332.226 442.191L335.631 438.327L335.804 438.788L335.458 439.307V440.23L335.689 441.326L335.862 445.133L336.497 447.037L337.42 448.825L336.554 451.536L334.419 453.497L333.611 455.112L333.438 456.843L333.899 457.939L333.553 459.092L331.706 461.342L329.398 465.091L328.359 465.956L327.204 466.014L326.339 466.706L325.992 469.994L328.301 471.782L335.689 471.494L337.593 471.782L339.498 471.667L340.364 470.513L340.825 469.071L343.249 466.937L345.558 466.302L345.443 466.995L345.789 467.398L346.308 467.225L346.597 467.687L347.982 468.552L352.657 467.341L355.889 467.917L360.276 467.283L360.564 467.052L361.95 465.61L364.258 462.265L364.778 460.88L364.72 458.458L365.816 458.169L366.451 457.881L367.144 459.381L367.086 461.111L368.702 465.206L370.838 469.129L369.222 473.513L366.336 477.32L367.663 479.858L371.242 479.742L376.148 477.031L380.419 473.34L383.478 469.648L386.998 466.475L391.212 463.822L392.885 463.072L397.618 459.496L401.601 458.342Z" fill="#009649" stroke="white" stroke-width="2" stroke-linejoin="round"></path>
<path class="region" data-country-region="South Region" d="M451.987 549.768L448.351 537.02L446.677 526.003L455.969 525.368L457.816 524.1L460.413 520.177L463.703 516.832L477.786 510.948L482.576 510.602L484.25 509.794L486.039 509.852L487.598 510.948L489.618 511.525L493.369 511.179L494.35 510.083L495.793 509.045L499.891 507.141L502.373 506.334L506.759 503.853L508.895 502.93L510.626 503.334L510.973 505.007L511.665 506.449L513.974 505.987L514.551 503.738L515.128 502.469L516.86 502.584L518.476 501.777L519.861 500.277L521.188 500.046L522.458 499.989L526.556 502.642L528.287 507.545L529.038 508.525L529.904 509.102L531.462 512.909L533.597 514.063L535.387 512.39L536.599 510.487L536.31 508.583L534.983 507.372L534.925 505.93L535.848 503.853L536.195 501.546L537.58 499.758L539.773 498.95L548.373 494.047L550.22 492.605L551.893 491.567L551.951 492.259L552.355 493.874L552.932 493.24L553.163 492.317V491.394L552.932 490.586L552.471 489.49L552.586 489.029L553.163 488.971L554.202 489.144L554.952 489.375L556.626 490.067L557.665 490.298L559.801 491.106H560.205L560.378 491.682L560.262 492.375L559.916 493.124L559.743 493.874L560.205 494.797L560.32 495.316L559.454 495.778L559.281 496.124L559.57 496.585L560.378 496.47L561.243 496.989L561.647 497.047L561.821 496.643L561.878 496.066L562.051 495.778L562.398 495.72L562.917 495.951L563.61 496.412L564.822 497.508L565.457 497.97V497.451L565.861 496.47L566.553 496.816L567.304 496.47L566.438 496.182L563.668 495.028L565.457 492.778L566.149 493.009L566.496 493.586L566.669 494.336L566.9 495.028L567.361 495.374L568.573 495.951L569.151 496.47L569.439 496.931L571.113 500.738L571.69 501.258L571.805 501.142L573.595 501.546L573.826 501.604L575.557 501.142L575.788 500.046L575.153 499.239L574.23 499.412L573.999 498.777L574.172 498.316L574.634 498.027L575.326 497.97L575.788 498.143L576.25 499.123L576.538 499.585L577 500.565L576.538 501.431L575.615 502.238L574.98 503.103H576.307L575.788 504.949L575.672 505.526L575.846 505.93L576.365 506.853L576.307 507.545L575.499 509.102L573.826 510.833L571.921 512.217L568.458 513.371L566.438 514.928L563.321 518.043L562.34 519.312L561.705 519.946L560.205 520.523L553.567 525.715L552.586 526.234L547.103 528.599L541.793 532.29L540.466 532.867L531.577 534.828L527.479 535.117L526.556 535.405L525.69 535.867L515.301 544.23L514.089 544.923L512.762 545.326H511.319L510.222 544.923L508.029 543.711L506.817 543.481L505.143 544.23L503.296 544.577H496.37L494.581 544.98L493.196 546.249L492.215 546.884L491.118 547.172L490.426 547.634L488.348 549.653L487.367 550.172L486.79 550.114L485.635 549.826L485 549.768L484.423 549.883L483.327 550.402L481.768 550.806L480.902 551.556L479.69 553.056L474.496 556.632L473.168 558.305L471.552 557.382L467.339 556.286L465.492 555.305L462.549 552.248L460.644 550.922L458.22 550.518L457.701 550.691L456.489 551.152L455.911 551.268L455.276 551.095L454.238 550.345L453.545 550.056L453.141 549.422L452.564 549.537L452.391 549.768H451.987Z" fill="#009649" stroke="white" stroke-width="2" stroke-linejoin="round"></path>
<path class="region" data-country-region="South Region" d="M436.518 261.994L439 263.897L440.616 266.609L440.731 268.166L441.078 269.608L442.001 270.646L443.444 273.761L444.829 275.492L445.406 276.818L446.214 277.972L447.6 278.376L448.869 278.606L448.061 278.779L447.715 279.241L449.1 279.875L450.081 281.029L450.255 285.355L449.158 293.488L447.773 296.661L446.792 297.699V298.91L447.08 299.718L447.773 300.583L448.292 301.794L449.273 302.256L450.774 302.487L452.332 303.236L457.642 305.255L458.912 305.371L460.124 305.14L460.643 304.736L461.221 304.448L462.202 304.332L463.183 304.563L464.049 308.543L462.721 311.716L462.202 314.888L464.28 317.83L465.434 317.772L466.357 318.407L466.877 318.868L467.512 319.157L468.377 318.983L469.185 318.637L470.224 318.868L471.032 319.387L472.418 319.33L473.399 320.079L473.572 321.983L474.091 322.617L474.38 323.31L473.052 326.021L471.148 328.386L469.993 330.693L467.858 330.924L465.896 332.135L464.395 334.096L463.125 338.076L465.376 344.71L466.473 346.959L466.184 348.92L457.642 350.362L455.045 351.285L452.39 351.804L450.543 351.343L448.581 351.112L443.848 352.035L441.828 352.727L440.212 354.169L439.808 356.823V359.649L439.231 362.129L439.346 364.725L438.827 365.475L438.654 365.879L437.961 366.571L437.788 366.859L437.211 369.109L437.095 370.378L436.922 370.955L436.518 371.474L436.172 371.935L435.652 372.974L435.306 373.435L434.844 373.781L433.459 374.531L432.651 375.281L432.016 376.031L430.92 377.876L429.996 378.857L429.881 379.376L429.765 380.241L429.592 380.587L428.265 382.203L427.861 382.895L427.688 383.76L427.341 384.568L426.475 384.971L425.552 385.26L424.802 385.606L424.398 386.067L422.551 389.009L421.916 390.509L421.108 391.605L420.877 392.355L420.588 392.758L420.184 393.047L419.434 393.277L419.146 393.508L418.107 394.835L416.606 397.546L415.683 398.815L414.586 399.911L413.547 401.295L413.143 402.853L414.009 404.525L414.24 405.218V406.314L414.067 407.525L412.854 411.62L410.546 416.35L410.2 417.908L410.95 422.81L410.892 424.541L412.335 428.06L411.873 431.405L413.432 433.712L413.085 435.789L410.084 436.769L407.66 438.788L407.198 442.192L406.563 443.807L405.698 445.306L401.6 458.342L397.617 459.496L392.885 463.072L391.211 463.822L386.998 466.476L383.477 469.648L380.418 473.34L376.147 477.031L371.241 479.742L367.663 479.858L366.335 477.32L369.221 473.513L370.837 469.129L368.702 465.207L367.086 461.111L367.143 459.381L366.451 457.881L365.816 458.169L364.719 458.458L364.777 460.88L364.257 462.265L361.949 465.61L360.564 467.052L360.275 467.283L355.889 467.918L352.656 467.341L347.981 468.552L346.596 467.687L346.308 467.225L345.788 467.398L345.442 466.995L345.557 466.302L343.249 466.937L340.825 469.071L340.363 470.513L339.497 471.667L337.593 471.782L335.688 471.494L328.3 471.782L325.992 469.994L326.338 466.706L327.204 466.014L328.358 465.956L329.397 465.091L331.705 461.342L333.552 459.092L333.899 457.939L333.437 456.843L333.61 455.112L334.418 453.497L336.554 451.536L337.419 448.825L336.496 447.037L335.861 445.133L335.688 441.326L335.457 440.23V439.307L335.803 438.788L335.63 438.327L332.225 442.192L329.051 445.133L326.973 445.941L324.837 446.402L324.664 443.864L323.972 441.442L313.929 433.482L310.293 427.944L309.138 427.367L308.273 428.117L307.234 428.636L306.599 426.502L306.83 422.695L306.31 421.599L305.387 421.138L305.271 420.33L306.657 418.311L306.599 415.946L305.676 413.812L305.964 411.39L310.235 411.274L315.083 412.659L321.143 413.697L322.009 414.966L322.24 419.523L323.394 420.503L324.029 418.081L323.972 415.485L325.934 408.678L327.492 407.179L332.398 404.871L336.207 401.468L338.17 395.931L341.806 391.316L345.961 387.509L350.579 384.683L352.541 385.087L354.273 384.625L357.331 384.164L358.255 382.606L357.909 380.818L357.62 379.953L357.562 379.03L357.678 377.761L359.352 376.146L363.219 373.204L367.894 371.474L372.857 371.935L377.532 373.32L381.572 372.166L383.477 367.436L385.901 362.937L389.71 359.418L392.307 355.957L391.211 355.727L390.461 355.669L389.653 355.381L386.998 355.092H386.594L385.843 355.381L385.151 355.727L384.285 355.9L383.304 355.438L382.957 354.977L382.842 354.4L383.015 352.727L382.842 352.323L382.149 351.92L381.341 351.747L380.014 351.574L378.917 351.17L377.705 350.881L377.474 350.708L377.013 350.132L376.089 349.324L374.935 348.863L372.511 348.343L371.818 348.228L370.664 348.459L369.914 348.516L368.355 347.767L367.432 346.209L366.278 340.787L368.24 338.768L368.644 336.288L367.951 333.692L367.663 331.097L368.298 328.674L370.548 323.886L374.935 321.175L375.166 318.81L374.935 309.178L376.147 305.198L377.013 304.044L376.955 302.717L376.378 301.852L376.493 300.987L377.244 301.218L377.994 301.333L378.629 300.352L378.917 299.256L380.072 296.603L381.341 291.354L383.535 290.258L386.42 285.932L384.978 273.357L385.035 270.3L386.651 267.704L389.479 266.782L397.213 260.552L398.021 266.205L399.58 267.012L401.023 267.474L399.926 269.031L400.099 270.473L400.33 270.819V271.281L401.484 272.607L402.927 273.53L404.37 272.088L405.409 269.954L407.66 268.281L409.334 266.205L411.238 265.455L412.97 263.897L413.893 257.783L414.701 256.341L416.433 256.918L416.721 257.149L416.837 257.553L417.529 257.783L418.337 257.726L419.261 258.187L420.184 258.302L421.974 259.052L422.551 261.475L426.014 265.455L427.283 266.551L428.726 265.109L431.497 265.224L433.632 264.532L433.575 263.032L434.383 262.398L435.652 262.744L436.518 261.994Z" fill="#009649" stroke="white" stroke-width="2" stroke-linejoin="round"></path>
<path class="region" data-country-region="South Region" d="M523.15 330.693L522.515 329.828L521.823 330.058L521.707 322.502L520.553 320.599L519.11 318.868L517.725 318.464L516.397 318.291L515.647 318.349L514.955 318.291L513.165 318.522L511.953 320.31L511.088 320.368L510.337 320.252L509.875 321.175L509.067 321.868L508.144 321.521L507.278 321.175L506.239 321.983L505.489 323.194L504.277 324.002L503.18 322.963L502.199 323.31L501.564 322.733L502.199 321.464L503.123 320.368L503.411 319.041L504.046 317.945L505.085 317.311L505.662 316.33L505.2 315.176L504.912 314.138L503.411 313.158L503.007 311.312V310.274L502.315 309.697L501.045 309.639L501.16 308.831L502.661 306.928L503.354 304.621L503.584 302.025L504.566 299.66L505.547 298.853L506.47 297.814L506.817 297.468L506.932 297.584L508.375 298.622L508.779 299.083L509.587 300.41L510.049 300.929L510.914 301.448L511.376 301.852L511.722 302.487L511.953 303.179L512.011 303.813L512.357 305.14L513.165 306.64L514.089 307.332L514.955 306.409L515.185 307.966L514.955 310.043V311.946L516.051 312.927L515.993 312.004L515.705 311.139L516.628 311.196L517.436 311.485L518.937 312.408L519.745 312.638L521.361 312.754L521.996 313.158L522.804 313.388H524.766L525.113 313.677L525.343 314.427L526.325 315.753L526.786 317.311L529.326 320.656L529.499 321.06L529.441 321.579L528.864 322.156L528.749 322.502L529.21 325.905L529.153 327.347L528.345 327.232L527.825 327.924L527.421 329.366L527.133 330.001L526.498 330.462H526.036L525.632 330.001L525.459 329.078L523.208 330.635L523.15 330.693Z" fill="#009649" stroke="white" stroke-width="2" stroke-linejoin="round"></path>
<path class="region" data-country-region="South Region" d="M207.5 317.945L209.116 319.329L210.328 321.06L211.021 323.829L211.482 326.77L212.752 328.905L215.003 329.77L216.85 331.558L218.12 333.923L218.928 335.134L219.967 336.23L223.026 337.153L223.718 338.364L223.891 339.806L224.815 342.056L224.988 344.248L225.854 344.767L226.95 345.055L229.144 346.613L231.568 347.709L232.895 348.632L233.761 349.612L233.011 351.054L231.972 352.381L230.471 355.784L229.259 357.861L227.874 359.764L226.893 361.783L226.431 363.975L227.181 365.532L229.201 365.763L253.904 364.552L256.617 364.783L264.466 366.628L266.428 368.013L268.679 368.763L283.051 371.012L283.57 372.685L283.397 374.069L284.84 374.3L287.379 374.069L289.803 374.935L291.246 376.434L289.977 378.165L287.61 380.011L284.724 380.876L283.455 382.433L281.492 386.875L280.107 389.24L278.26 390.682L276.009 391.432L274.047 393.22L272.546 395.527L271.45 397.776L272.315 399.968L273.412 401.641L274.278 403.487L273.701 406.948L272.315 410.466L271.161 411.274L269.43 411.101L267.409 411.793L265.736 413.004L264.351 415.831L262.446 417.792L260.022 418.773L257.251 418.83L252.172 418.138L246.863 419.407L243.861 419.465L240.745 419.176L238.032 420.33L237.512 421.83L236.012 422.349L232.087 420.964L229.201 421.541L227.008 423.503L224.007 428.521L224.295 431.059L226.027 433.078L227.297 435.385L228.162 437.808L227.066 438.384L226.777 439.538L228.566 439.942L229.144 440.634L229.259 442.307L230.471 443.864L233.357 448.882L234.973 451.132L235.954 451.536L237.051 451.709L239.186 453.843L238.955 455.573L237.339 454.478L235.492 453.843L234.627 454.593L233.992 455.343L232.722 456.381L231.914 457.708L232.895 460.13L232.837 461.053L232.433 462.668V463.707L232.203 464.399L231.799 464.918L230.991 465.437V465.841L230.125 466.764L229.49 466.302L228.913 465.264L227.643 464.168L226.142 463.245L224.93 462.726L223.545 461.861L222.16 460.476L220.717 459.554L219.043 460.015L217.6 460.823L216.273 460.996L214.83 460.765L213.214 460.246L211.425 460.073L210.155 460.592L208.885 461.342L207.269 461.745L205.018 461.572L204.037 461.284L203.171 460.707L202.536 459.669L201.671 457.708L200.69 456.727L197.688 454.651L196.707 454.305L196.245 454.362L195.437 454.939L194.976 455.054L194.341 454.997L193.244 454.708H192.494L192.148 454.881L191.397 455.458L190.936 455.631L189.146 454.881L187.761 454.593L187.242 454.362L184.01 451.824L181.355 449.171L180.431 448.652L179.392 448.709L178.353 449.229L177.545 450.094L176.737 449.575L172.755 448.075L170.331 446.402L169.927 446.344L169.003 446.46L168.599 446.287L168.311 445.883L168.138 445.075L167.964 444.672L167.214 443.864L166.522 443.518L162.712 443.23L158.153 442.191L156.19 442.018L155.44 441.557L154.69 440.403L153.651 437.923L153.074 437.173L151.169 435.904L149.034 435.385L142.108 435.5L140.953 435.327L139.914 434.981L138.876 434.174L136.913 432.212L136.394 431.924L136.451 431.578L135.932 428.405L136.451 427.771L137.317 427.656L136.625 425.464L134.547 423.56L133.392 422.695L132.411 421.657L133.508 420.099L131.603 418.138L129.179 416.465L130.276 414.331L136.913 411.966L139.972 410.12L143.955 405.044L144.185 398.988L143.262 396.046L143.435 392.989L145.397 390.682L148.63 390.566L155.325 386.009L156.71 386.644L156.941 387.74L156.71 389.355L157.518 390.682L157.576 392.239L157.806 393.796L162.251 399.449L164.444 399.622L166.522 399.334L168.484 399.738L168.08 396.219L155.844 379.78L153.305 377.299L143.493 370.724L129.237 363.225L128.313 361.322L129.756 356.765L131.834 352.439L133.681 349.612L139.164 347.478L141.069 343.729L143.204 337.903V332.25L155.325 328.039L158.037 326.54L161.731 326.655L165.31 326.02L166.695 324.982L170.1 319.502L170.735 318.176L172.062 317.599L174.371 317.887L176.16 316.734L177.43 315.58L179.104 314.946L183.663 313.907L187.992 315.176L191.686 317.657L195.957 318.637L207.5 317.945Z" fill="#009649" stroke="white" stroke-width="2" stroke-linejoin="round"></path>
<path class="region" data-country-region="South Region" d="M129.239 363.225L143.494 370.724L153.306 377.3L155.846 379.78L168.082 396.219L168.486 399.738L166.523 399.334L164.445 399.622L162.252 399.449L157.808 393.797L157.577 392.239L157.52 390.682L156.711 389.355L156.942 387.74L156.711 386.644L155.326 386.01L148.631 390.566L145.399 390.682L143.437 392.989L143.264 396.046L144.187 398.988L143.956 405.045L139.974 410.12L136.915 411.966L130.277 414.331L129.181 416.465L131.605 418.138L133.51 420.099L132.413 421.657L133.394 422.695L134.548 423.56L136.626 425.464L137.319 427.656L136.453 427.771L135.934 428.406L136.453 431.578L136.395 431.924L135.818 431.636L135.356 431.578L134.318 431.809L133.798 431.866L133.279 431.693L131.72 430.828L130.393 430.655L129.527 431.001L128.777 431.578L127.68 432.04L125.429 431.463L124.333 429.386V426.733L125.314 424.541L117.407 422.349L116.195 422.464L114.406 423.445L113.309 423.849H112.212L111.347 423.503L106.21 419.58L104.998 417.908L104.594 415.6V413.581L104.247 412.255L103.151 411.332L101.131 410.755L100.323 410.236L99.1685 408.909L98.3027 408.505L97.4947 408.448L96.8021 408.505L96.1095 408.448L95.4169 407.986L95.2438 407.583L95.0706 406.602L94.8397 406.256L94.378 406.025L94.0894 406.256L93.1083 406.544L90.3379 407.525L89.4721 407.986L88.7795 407.871L88.2024 407.409L87.2212 406.083L86.5863 405.679H85.3166L84.4508 406.083V405.967L84.5663 404.41L84.4508 403.833L83.8737 403.602L82.8348 402.68L82.7771 400.661L83.3542 397.373L82.373 395.642L79.1987 393.624L78.2752 392.182L77.8712 392.585L77.294 391.893L76.6591 390.336L76.082 389.644L75.3317 389.24L74.6391 389.009L74.1196 388.548L73.8888 387.625L74.0042 386.759L73.8888 386.356L73.3116 385.49L73.0807 384.452L72.7344 383.991L72.619 383.414L72.7922 382.606H73.1962L73.4847 383.356L73.7733 382.433L73.6002 381.453L73.2539 380.472L72.7922 379.722L71.6955 380.414L71.1761 379.549L70.8298 378.453L70.6567 376.204L70.4835 375.511L69.3869 373.839L68.8097 373.089L67.6554 372.166L67.1937 371.589L66.7897 369.686L66.2702 368.993L65.0005 367.782L62.1147 359.534L61.4798 359.188L61.1335 358.438L60.7872 357.573L60.4986 356.938L59.9214 356.534L58.4785 355.842L57.9014 355.438L57.5551 354.688L57.2665 353.708L56.8048 352.9L55.8813 352.497L55.6504 351.862L53.515 348.17L54.3807 346.325L54.6693 345.286L54.0921 344.825V344.363L54.8424 341.825L54.9579 340.845L54.6693 338.768L52.4183 333.865L51.8412 331.962L51.5526 331.673L50.86 331.385L50.7446 330.866L50.9754 330.001L50.8023 329.02L50.2251 328.097L49.5325 327.347L48.7822 326.886L49.1862 326.251L49.4171 326.309L50.1097 326.886H51.5526L52.3029 326.424L52.3606 325.386L52.1298 324.175L52.072 323.194L52.3029 322.848L52.9955 322.214L53.1687 321.925V319.733L52.4761 318.637L53.2264 318.118L58.998 316.33L70.5989 315.753L75.2162 317.541L77.5249 324.521V329.135L79.8335 332.654L87.3366 333.231L95.9941 333.808L98.8799 337.326L99.457 343.152L100.611 351.285L101.766 358.899L108.692 360.053L117.407 361.206L129.239 363.225Z" fill="#009649" stroke="white" stroke-width="2" stroke-linejoin="round"></path>
<path class="region" data-country-region="South Region" d="M516.456 280.683L516.225 279.298L515.302 278.318L514.782 277.107L514.667 275.722L515.013 271.569L514.725 270.473L514.667 269.435L518.476 269.147L520.843 267.647L520.9 267.704L521.477 270.185L521.824 270.358L522.92 270.531L523.036 271.223L522.69 272.55L522.574 273.3V274.107L522.69 274.799L522.92 275.376L523.267 276.011L522.401 277.222L522.17 277.856L522.978 277.51L523.44 277.856L523.844 278.433L524.363 278.895L524.421 278.145L524.767 277.626L525.171 277.568L525.46 278.203L525.806 277.856L526.672 278.087V276.934L526.441 275.376L526.556 274.223L527.48 275.434L527.942 276.934L528.923 284.721L529.154 285.24L530.539 287.778L530.308 290.085L528.981 291.642L527.076 292.277L525.114 291.7L524.363 291.066L523.613 290.085L523.094 289.047L522.055 284.49L522.17 283.682L521.016 284.028V284.605L521.535 285.355L521.824 286.047L521.766 287.259L521.535 287.547L520.035 286.97L520.265 285.99L519.977 285.124L518.592 283.682L516.918 281.087L516.456 280.683Z" fill="#009649" stroke="white" stroke-width="2" stroke-linejoin="round"></path>
<path class="region" data-country-region="North Region" d="M204.211 122.462L206.923 122.808L209.463 125.058L213.272 128.576L217.889 130.826L220.602 131.518L222.564 131.114L224.354 130.134L225.912 130.826L227.47 133.768L230.01 135.325L233.934 135.729L238.84 135.902L243.227 137.171L244.901 139.997L246.747 146.054L248.998 151.245L251.942 155.052L254.193 157.186L256.732 158.975L255.347 160.417L252.173 161.282L250.153 163.012L248.594 162.782L247.382 163.474L246.69 164.743L245.247 164.8L243.4 164.051L241.495 163.878L240.456 163.589L239.648 162.839L238.609 162.378L237.397 162.782L235.724 162.724L233.934 162.262L232.492 161.224L231.453 159.782L230.01 158.859L228.336 158.686L225.162 158.571L221.179 157.186L219.39 157.244L217.601 157.533L216.562 156.725L216.331 155.341L213.33 154.648L210.271 155.456L208.828 155.975H205.192L202.248 155.225L196.13 156.667L191.398 158.917L188.57 159.032L185.395 158.802L183.029 156.783L180.836 156.033L178.296 157.129L174.545 156.321L173.621 156.783L172.871 157.533L169.408 159.032L166.522 160.013L167.099 163.012L166.349 165.954L165.079 166.127L164.444 167.108L163.521 167.915L163.174 168.838L164.098 169.934L165.137 170.857L167.503 171.665L166.522 174.491L161.385 176.048L160.115 176.106L160.058 175.183L160.115 174.203L159.538 172.703L158.499 171.607L156.768 170.799L154.921 171.953L153.478 172.184L152.67 173.568L152.324 175.645L152.67 177.663L152.497 178.817L151.631 179.452L150.304 181.124L148.399 181.528L146.264 180.548L144.244 179.279L139.915 177.952L135.528 178.817L131.142 182.105L127.217 183.951L127.621 181.932L127.737 179.74L126.986 177.087L126.756 174.376L126.929 171.492L126.525 168.723L124.966 167.281L123.177 165.954L118.502 164.973L112.269 163.07L111.576 159.378L112.269 156.033L115.27 151.534L119.945 147.381L125.543 144.785L130.969 144.035L135.817 143.689L136.567 139.536L135.644 134.287L134.894 128.922L135.99 125.346L138.299 122.404L139.915 121.078L141.993 120.501L143.551 121.597L144.013 123.558L145.398 124.712L147.072 124.885L147.937 123.097L149.149 121.655L150.765 120.386L154.055 118.77L155.787 118.424L156.941 119.982L157.403 121.943L156.999 124.942V127.653L158.903 129.038L163.117 131.633L165.137 131.749L165.195 130.249L163.925 130.018L163.694 128.346L164.444 126.384L164.79 124.885L166.349 125L167.907 124.25L168.715 122.577L169.754 121.943L171.139 122.347L172.871 121.77L174.429 121.481L176.103 122.693L177.546 124.135L178.412 126.096L179.854 127.192L181.586 127.711L183.202 128.576L184.299 128.692L185.28 129.153L186.319 130.191L187.588 130.884L191.109 129.269L193.129 125.346L194.918 124.654L196.938 125.173L199.189 124.827L201.267 124.25L204.211 122.462Z" fill="#009649" stroke="white" stroke-width="2" stroke-linejoin="round"></path>
<path class="region" data-country-region="North Region" d="M250.153 163.012L249.922 165.319L249.518 166.3L248.999 167.165L248.595 168.838L246.921 169.011L245.247 168.434L244.035 169.472L241.265 174.202L239.014 179.105L232.665 187.296L231.568 192.141L232.146 196.64L232.261 201.197L230.356 206.331V209.042L231.28 211.58L231.742 213.657L230.241 217.81L230.53 220.059L231.049 222.309L232.607 223.866L235.32 224.904L237.686 226.289L239.418 227.673L241.207 228.885L245.94 233.614L247.094 235.056L245.593 237.364L243.631 239.383L240.168 242.324L237.802 245.901L239.014 247.285L240.572 248.496L240.745 250.861L239.649 253.111L238.206 254.264L237.917 255.187L237.802 256.226L237.744 260.898L234.974 271.281L234.801 275.722L235.435 277.568L235.609 279.298L231.972 282.009L228.856 284.605L227.009 287.604L226.432 288.066L225.104 288.297L223.95 288.758L221.872 290.258L216.447 295.795L212.638 297.237L211.829 297.699L209.29 300.698L209.809 301.91L209.463 307.562L209.809 313.215L207.501 317.945L195.958 318.637L191.687 317.657L187.993 315.176L183.664 313.907L179.104 314.946L177.431 315.58L176.161 316.734L174.372 317.887L172.063 317.599L170.736 318.176L170.101 319.502L166.695 324.982L165.31 326.02L161.732 326.655L158.038 326.54L159.25 321.175L159.827 315.695L159.481 310.158L159.769 304.621L161.27 299.66L164.445 295.68L165.887 294.815L166.984 293.43L167.503 292.507L167.792 291.469L167.388 290.719L166.926 289.969L166.695 288.873L165.772 288.354L158.038 287.662L155.845 286.855L154.229 285.182L152.324 282.125L151.516 281.317L150.997 281.086L149.842 280.913L148.803 280.164L146.956 279.356L146.091 278.664L145.571 277.856V276.76L145.225 276.472L144.59 276.357L143.551 275.664L140.781 274.222L139.511 273.184L138.184 271.684L136.914 269.896L136.048 267.935L135.067 264.359L134.432 263.378L134.086 262.513V259.86L133.913 258.821L133.509 258.418L132.527 257.495L132.066 256.975L131.489 255.36L131.2 255.187L130.046 255.014L126.987 254.091V253.688L126.179 254.149L125.255 254.091L122.773 253.63L121.561 252.995L120.927 253.284L120.638 253.169L119.83 252.361L119.541 252.246L117.983 252.592L116.771 253.399L115.732 254.322L114.635 255.187L113.539 255.649L113.135 255.88L112.558 256.456L112.269 256.975L111.576 257.149L109.556 257.956L108.979 258.302L108.46 258.36L104.477 257.149L103.9 257.264L103.323 258.129L102.515 257.552L101.649 257.61L100.61 257.898L99.5715 258.129L98.3595 257.956L97.3206 257.495L95.3582 256.283L94.3771 256.629L92.1838 256.399L91.2027 256.802L90.2215 257.033L89.4712 256.226L88.4323 254.38L87.3934 254.034L86.2968 254.207L85.2579 254.611L84.219 254.784L83.5264 254.668L83.411 254.264L83.6996 253.515L83.3533 252.419L83.6996 251.207L83.4687 250.342L83.007 249.362L83.1801 248.612L83.007 248.266L82.7761 248.15L82.0258 248.208L81.7372 248.093L78.2165 245.381L77.7548 245.151L77.4085 244.286L77.2354 243.651L77.2931 243.017L78.7937 242.209L78.9091 240.882L83.0647 239.786L86.874 238.921L87.8551 237.075L85.8928 228.596L86.3545 222.424L88.894 215.272L88.6631 213.83L88.0283 213.022L87.7397 212.099L88.0283 211.926L90.6832 209.907L91.8953 209.503L92.2993 209.273L92.5301 208.927L92.7033 208.061L92.9342 207.715L93.8576 207.139L96.2817 205.985L96.7434 205.35L96.1663 199.755L96.4548 198.832L97.436 198.14L100.38 197.044L100.841 196.525L101.707 194.102L100.726 190.065L100.264 186.085L99.6292 184.758L98.1286 184.931L97.7823 182.508L97.7246 180.028L98.9366 178.182L99.5138 175.933L100.841 174.202L103.034 173.625L108.171 174.202L111.807 172.356L111.519 170.857L110.884 169.472L109.845 168.838L109.441 167.857L110.191 166.242L112.269 163.07L118.502 164.973L123.177 165.954L124.967 167.28L126.525 168.723L126.929 171.491L126.756 174.375L126.987 177.086L127.737 179.74L127.622 181.932L127.218 183.951L131.142 182.105L135.529 178.817L139.915 177.952L144.244 179.278L146.264 180.547L148.399 181.528L150.304 181.124L151.632 179.451L152.497 178.817L152.67 177.663L152.324 175.644L152.67 173.568L153.478 172.183L154.921 171.953L156.768 170.799L158.5 171.607L159.539 172.703L160.116 174.202L160.058 175.183L160.116 176.106L161.386 176.048L166.522 174.491L167.503 171.664L165.137 170.857L164.098 169.934L163.175 168.838L163.521 167.915L164.445 167.107L165.079 166.127L166.349 165.954L167.099 163.012L166.522 160.013L169.408 159.032L172.871 157.532L173.621 156.782L174.545 156.321L178.296 157.129L180.836 156.033L183.029 156.782L185.395 158.801L188.57 159.032L191.398 158.917L196.131 156.667L202.249 155.225L205.192 155.975H208.828L210.271 155.456L213.33 154.648L216.331 155.34L216.562 156.725L217.601 157.532L219.39 157.244L221.18 157.186L225.162 158.571L228.336 158.686L230.01 158.859L231.453 159.782L232.492 161.224L233.935 162.262L235.724 162.724L237.398 162.781L238.61 162.378L239.649 162.839L240.457 163.589L241.496 163.877L243.4 164.05L245.247 164.8L246.69 164.743L247.383 163.474L248.595 162.781L250.153 163.012Z" fill="#009649" stroke="white" stroke-width="2" stroke-linejoin="round"></path>
<path class="region" data-country-region="North Region" d="M151.919 69.51L152.38 69.8561H152.842L153.188 69.2216H153.535L153.362 71.4712L153.881 72.048L155.324 71.875L155.151 71.4135L154.978 69.9715L155.901 70.0868L156.478 69.7984L156.94 69.8561L157.171 71.1251L156.882 72.1634L156.305 73.0286L155.843 73.8938L156.247 75.1628L155.555 75.855L154.804 76.2588L154.227 76.1434L153.766 76.6625L153.246 77.0086L152.669 77.124L152.092 76.8933L151.746 76.0281L151.63 74.9321L151.342 74.0669L150.418 73.6631L150.303 72.9709L151.688 68.9332L151.919 69.51ZM209.115 78.6237L213.156 83.3536L215.464 85.6609L217.427 87.3337L219.851 88.4873L222.275 89.9293L223.544 92.352L223.371 93.9094L222.332 94.9476L221.236 94.89L220.312 95.236L218.292 96.8511L214.656 95.7552L213.213 96.7358L211.944 97.0819L211.02 97.8894L210.212 98.87L208.942 99.1584L208.192 100.543L209.866 106.484L209.404 108.618L207.846 113.233L207.499 115.771L206.807 117.386L205.479 118.655L204.21 122.462L201.266 124.25L199.188 124.827L196.937 125.173L194.917 124.654L193.128 125.346L191.108 129.268L187.587 130.883L186.318 130.191L185.279 129.153L184.297 128.691L183.201 128.576L181.585 127.711L179.853 127.192L178.41 126.096L177.545 124.135L176.102 122.693L174.428 121.481L172.87 121.77L171.138 122.346L169.753 121.943L168.714 122.577L167.906 124.25L166.348 125L164.789 124.884L164.443 126.384L163.693 128.345L163.924 130.018L165.193 130.249L165.136 131.749L163.116 131.633L158.902 129.038L156.998 127.653V124.942L157.402 121.943L156.94 119.981L155.786 118.424L160.345 105.792L155.728 101.927L157.055 97.8894L147.821 92.525L150.649 87.1029L141.703 85.6032L140.029 83.4113L137.316 82.4884L137.894 81.9693L137.547 81.1617L137.028 80.758L136.451 80.4119L135.585 79.7774L134.431 79.2582L134.258 78.9121L134.142 78.2776L133.911 77.9315L133.392 77.7585L132.815 77.6431L132.295 77.3547L132.064 76.7202L132.237 75.2782L132.411 74.7014L132.815 74.2976L133.045 74.413L135.008 74.5283L135.239 75.1051L135.758 75.4512L136.451 75.5666L137.143 75.4512L138.125 74.4706L139.452 71.875H140.433L140.606 70.1445L140.549 69.2793L140.029 68.7602V68.4141L140.318 68.1257L140.779 68.1833L140.953 68.4141L141.299 69.337L141.53 69.6254L142.396 69.8561L143.03 69.6831L143.608 69.3947L144.242 69.2216H145.108L146.147 71.5866L146.609 71.9903L147.532 72.1634L147.59 72.5095L147.013 72.7402L146.205 72.5095L145.858 72.5672L145.685 73.6054L146.609 74.9321L147.879 76.2588L147.705 76.8933L148.398 77.7585L149.668 77.9892L152.092 77.9315L151.688 79.0852L152.842 79.0275L153.881 79.3736L154.343 78.9698L154.804 79.0275L155.728 79.7774L156.132 79.2582L157.229 78.5084L157.517 77.9315H157.921L158.037 78.7391V79.6043L157.806 80.4119L157.344 81.104L156.421 81.8539L156.074 82.3154L155.324 83.8151L156.536 84.1612L157.863 83.4113L161.846 79.6043L162.134 78.9121L162.25 77.7585L162.365 77.2394L162.769 76.3165L163.231 75.4512L163.693 74.9898L164.039 76.1434V77.0086L164.212 77.8739L164.963 78.9121L165.54 79.9504L165.309 80.8156L164.789 81.5655L164.443 82.3154L165.136 81.9693L167.329 80.5272L167.675 80.931L167.56 81.2771L167.675 82.373V83.0652L168.31 82.6038L169.118 81.3348L169.868 80.931L170.503 81.104L171.427 80.5849L171.888 80.758L172.639 81.8539L173.158 81.9693V82.3154L172.754 82.9499L172.235 83.469L171.773 83.9881L171.715 84.911L172.292 84.738L172.696 84.911L172.927 85.3725L173.158 86.007L172.004 86.1223V86.8722L172.292 87.9105L172.062 88.9487L171.773 88.7757L170.965 88.545L171.254 89.4679L171.715 90.3331L172.062 90.1024L172.523 90.1601L173.505 90.7369L172.581 91.6021L172.35 92.2943L172.927 92.7557L174.428 92.9288L175.005 93.5056L174.659 94.89L173.505 96.9088V97.601L173.678 98.1778V98.5816L171.427 99.043L170.792 99.1007L170.157 99.2161L168.426 100.197L167.213 100.6L166.925 101.004L167.329 101.696L168.252 101.408L169.291 101.869L170.965 103.138V103.485L169.522 103.6L169.118 104.119L169.176 104.811L168.945 105.446L168.426 106.253L168.252 107.118L168.368 107.926L168.772 108.561H169.176L169.58 107.868L171.311 106.369L171.658 105.849L172.466 103.831L172.292 103.138L172.466 101.985L172.87 100.831L173.331 100.024L174.37 99.3891L175.236 98.9854L175.986 98.4662L176.39 97.3126H176.794L176.852 98.5816L177.372 99.4468L178.237 100.024L181.296 101.466L182.335 101.754L182.97 101.696L183.259 101.35L183.201 100.543L182.97 100.197L182.277 99.7352H181.758L181.296 99.9083L180.834 99.8506L180.084 99.5045V98.4085L179.622 98.2932L177.891 98.4085L178.353 97.428L178.988 96.9665L179.334 96.5627L178.988 95.8129L177.833 95.2937L177.314 94.8323L176.794 93.621L175.351 92.2366L175.409 91.4867L175.813 91.3137L176.39 91.4291L176.967 90.8522L176.39 89.987L175.178 89.1218L174.832 88.4873L174.601 87.6221V86.7568L175.178 86.3531L175.236 85.9493L176.506 84.2189L176.794 83.9881L176.506 83.0652L175.294 81.7385L175.005 81.104L175.121 80.1811L175.467 79.6043L176.044 79.489L176.794 79.7774L176.621 78.1046L177.833 76.5472L179.796 75.4512L181.7 74.9898L186.029 75.4512L188.107 76.0857L188.049 76.8933L188.511 77.5855L189.088 78.8545L189.55 79.3736L190.762 79.7197L190.993 79.9504L190.935 80.758L191.57 81.104L192.782 82.0269L193.474 82.3154H194.167L196.937 81.9693L198.207 81.6232L198.9 82.1423L199.246 82.2577L199.477 81.5078L200.054 81.104L200.4 81.2771L200.516 81.5655L200.4 82.0846L200.054 82.6614L200.689 83.0075L201.555 83.0652L202.593 82.8922L202.651 83.6997L202.94 84.1035L203.517 84.2765L204.44 84.1612L204.094 83.4113L204.152 83.0652L204.44 82.6614L205.075 83.0075L205.652 82.7768L206.114 82.2L206.23 81.4501L205.941 81.0464L204.094 80.1811L203.402 79.662L203.863 79.6043L205.248 78.7968L206.46 78.393L206.98 77.9315L207.961 78.6237H209.115ZM131.141 67.9526L131.429 68.241L131.083 69.1063L131.025 69.6254H131.372L131.891 68.8755L132.295 68.9909L132.468 69.5677L132.411 70.3753L131.372 72.9132L130.679 73.4324L129.813 73.7785L128.89 74.0092H128.082L127.505 74.2976L127.101 73.0286L126.87 72.9132L126.293 73.2593L126.581 72.5672L127.332 71.9327L127.909 71.1828L127.678 70.3753L127.216 70.2022L126.12 70.3176L125.889 69.9715L126.12 69.51L126.581 69.2216L127.332 68.9332L128.313 68.3564L129.179 67.7219L130.044 67.2028L131.025 67.0874L131.141 67.9526ZM199.073 61.723L198.207 61.2615L197.399 60.9731L198.265 61.2615L199.073 61.723ZM192.839 60.3386L193.301 59.5888L193.474 59.0696L193.301 59.6465L192.839 60.3386ZM196.937 57.8006L196.649 57.6276L195.321 57.2238L196.649 57.5699L196.937 57.8006ZM211.135 55.9548L211.309 55.6087L211.713 55.1473L211.135 55.9548ZM197.976 49.9559L198.207 49.7829V49.3791L198.265 49.7829L197.976 49.9559ZM178.353 51.4557L178.122 52.0325L178.641 52.84L181.354 54.3397L182.97 53.7629L183.201 53.4168H183.663L184.24 53.5899L186.895 52.9554L187.356 53.0708L187.587 53.8206L187.991 54.5705L188.107 55.4357L187.068 57.1085L187.53 57.5122L189.55 57.9737V58.3775L188.915 58.7236L189.376 59.4734L190.935 60.9155L191.627 61.0308L191.685 61.4346L191.57 62.1268L191.339 62.7036L190.646 62.6459L190.415 62.992L190.935 63.7995L189.261 63.6842L188.164 62.8766L187.183 61.9537L185.914 61.2615L185.683 61.8384L185.279 62.1845L184.701 62.2998L184.009 62.0114L181.527 60.0502L180.604 59.7618L177.949 59.7041L176.679 59.3581L175.525 58.4928L174.947 58.3198L174.428 58.5505L173.966 58.6082L173.505 57.9737V57.5122L173.793 56.9931L175.755 54.9742L176.275 54.2821L176.39 53.5899L175.986 53.4745L173.851 53.2438L173.62 52.667L172.812 51.8018L172.466 51.0519L173.331 51.1673L173.62 51.3403L173.851 51.8018L174.717 51.3403L175.351 50.9365L176.39 50.0136L177.083 49.3214L177.545 49.2638L178.699 49.7252L178.988 50.0136L178.814 50.8788L178.353 51.4557ZM186.895 44.5915L186.722 45.053L185.914 44.88L186.087 45.3414L186.606 46.149L186.548 46.7834L185.509 47.8794L183.72 49.2638L183.547 49.033L182.97 48.86L181.989 47.8794L181.585 47.3026L181.931 46.7834L181.873 46.2066L181.527 45.226H182.22L182.047 44.4762L182.566 44.2455L184.471 44.1878L185.567 43.957H186.202L186.606 44.1878L186.895 44.5915Z" fill="#009649" stroke="white" stroke-width="2" stroke-linejoin="round"></path>
<path class="region" data-country-region="North Region" d="M448.639 195.026L445.984 197.852L445.58 201.371L445.523 203.966L446.273 206.216L447.312 207.6L447.658 209.331L448.293 210.83L449.159 212.215L449.62 214.234L447.081 214.118L445.638 213.311L444.195 212.272L443.272 212.33L439.636 213.08L437.038 214.003L433.748 214.753L430.574 214.003L428.035 213.138H425.38L422.436 215.791L414.644 225.251L414.183 226.462L414.644 227.904L414.587 229.404L413.375 234.538L412.22 238.056L407.314 244.401L406.333 247.227L405.179 253.515L403.505 256.226L397.214 260.552L389.48 266.782L386.652 267.704L382.958 266.609L379.38 265.224L376.783 262.917L374.82 259.917L373.32 256.803L371.184 254.207L367.779 252.592L364.547 250.631L362.642 248.15L361.142 245.497L358.66 243.017L355.889 240.825L353.869 238.691L353.177 236.268L354.1 233.269L353.523 229.865L354.677 227.039L356.351 224.386L357.505 220.694L359.468 207.889L360.045 197.044L359.756 195.314L358.544 192.603L357.679 189.661L357.159 186.662L356.813 170.915L343.538 174.664L341.922 175.875L340.652 176.625L340.075 177.087L338.401 179.798L335.804 179.74L334.477 180.605L333.207 181.24L332.341 180.721L331.418 180.374L330.552 180.951L329.975 181.874L327.666 184.066L323.511 186.95L322.356 186.489L321.895 186.777L321.606 187.7L321.721 188.565L322.01 189.43L322.933 191.334L322.472 193.353L319.759 197.621L316.123 205.005L314.969 206.908L312.198 207.369L307.292 206.966L306.657 206.62L305.965 206.562L302.79 205.351L300.77 201.601L297.654 201.024L295.576 199.582V197.333L295.056 195.256L291.536 193.526L289.573 189.2L286.918 186.143L283.34 184.008L280.916 181.355L282.878 175.991L285.706 170.857L288.765 166.819L288.65 165.204L284.09 160.301L282.128 156.263L283.975 155.283L285.995 154.418L287.842 153.437L290.959 152.514L291.709 151.707L291.824 150.899L292.344 150.265L297.423 147.15L299.039 147.207L300.54 146.688L302.386 145.419L304.464 144.669L307.985 141.093H310.236L312.314 142.189L314.449 142.593L316.065 143.343L314.738 144.843L313.699 146.631L315.315 148.303L317.681 148.65L318.605 147.207L318.489 145.189L324.78 143.516L325.704 141.612L325.992 137.921L327.378 138.094L328.128 140.632L326.8 144.439L326.396 148.303L327.551 151.995L328.647 151.649L328.82 150.092L330.206 148.303L332.11 146.631L334.708 143.227L337.766 142.189L339.498 144.669L342.037 149.457L353.985 166.877L356.64 167.973L359.121 167.627L359.641 166.589L362.007 166.127L364.489 165.896L365.932 165.435L367.433 165.493L368.356 165.839L369.106 165.435L369.164 162.378L367.952 155.687L367.49 149.572L368.356 147.438L371.53 143.285L372.512 142.939L373.55 142.708L374.647 141.728L375.686 141.382L376.09 140.516V139.94L376.436 139.536L380.303 139.363L381.284 139.593L382.266 140.286L383.247 142.074L384.863 141.67L386.19 139.882L387.576 138.382L391.558 138.324L392.77 137.229L393.751 135.844L395.425 134.691L397.272 133.998L398.599 133.652L399.927 133.537L401.37 133.71L402.813 132.268L403.851 131.98L404.89 131.864L405.583 132.672L406.218 133.652L407.718 134.114L409.277 134.229L410.027 134.864L409.796 135.902L411.47 139.767L414.298 142.881L416.26 146.227L417.819 148.996L418.8 151.361L418.569 157.244L419.089 159.955L419.723 161.051L420.878 165.089L421.224 166.473V167.973L420.474 169.934L420.416 171.549L420.531 173.28L420.243 177.375L420.358 181.47L422.09 184.47L424.802 186.719L426.072 186.892L430.69 189.488L434.383 192.315L435.653 192.776L436.865 192.545L438.827 191.334L439.982 191.161L443.214 191.276L443.907 191.565L444.484 191.968L445.523 192.141L446.042 192.372L447.196 193.41L448.639 195.026Z" fill="#009649" stroke="white" stroke-width="2" stroke-linejoin="round"></path>
<path class="region" data-country-region="North Region" d="M416.491 103.831L428.208 110.349L429.016 111.676L431.151 124.596L430.17 124.712L429.651 125.173L429.42 125.865L429.535 126.846L428.496 126.904L427.284 127.596L426.072 128.519L425.322 129.384L424.802 130.48L424.629 131.057L424.745 131.634L425.091 132.037L425.957 132.153L426.245 132.556L426.015 133.422L425.611 134.46L425.784 135.21L428.323 135.037L429.42 135.152L430.574 135.441L431.555 135.96L432.306 136.594L432.71 137.459L433.633 140.69L434.153 141.786L434.903 142.766L437.789 144.843L446.85 151.361L455.912 157.879L469.129 167.454L451.006 193.411L448.639 195.026L447.196 193.411L446.042 192.372L445.523 192.142L444.484 191.969L443.907 191.565L443.214 191.276L439.982 191.161L438.828 191.334L436.865 192.545L435.653 192.776L434.383 192.315L430.69 189.488L426.072 186.893L424.802 186.72L422.09 184.47L420.358 181.47L420.243 177.375L420.532 173.28L420.416 171.549L420.474 169.934L421.224 167.973V166.473L420.878 165.089L419.723 161.051L419.089 159.955L418.569 157.244L418.8 151.361L417.819 148.996L416.261 146.227L414.298 142.881L411.47 139.767L409.796 135.902L410.027 134.864L409.277 134.229L407.719 134.114L406.218 133.652L405.583 132.672L404.89 131.864L403.852 131.98L402.813 132.268L401.37 133.71L399.927 133.537L398.599 133.652L397.272 133.998L397.156 124.366L395.194 120.732L391.5 118.309L389.827 117.559L388.499 116.29L388.037 113.81L387.922 111.272L389.192 107.753L392.712 106.715L394.501 105.965L395.829 104.581L399.003 101.985L401.427 100.312L404.14 100.255L405.064 100.601L406.102 100.255L408.007 100.428L409.739 101.466L414.125 103.254L416.491 103.831Z" fill="#009649" stroke="white" stroke-width="2" stroke-linejoin="round"></path>
<path class="region" data-country-region="North Region" d="M282.128 156.263L284.09 160.301L288.65 165.204L288.765 166.819L285.706 170.857L282.878 175.991L280.916 181.355L283.34 184.008L286.918 186.143L289.573 189.2L291.536 193.526L295.056 195.256L295.576 197.333V199.582L297.654 201.024L300.77 201.601L302.79 205.351L305.965 206.562L306.196 208.408L305.272 210.196L304.81 211.58L291.882 220.463L291.593 222.251L292.69 224.039L292.863 226.001L292.805 228.019L293.498 230.154L294.422 232.23L295.287 235.864L296.499 237.652L297.942 239.21L298.577 240.882L299.558 242.44L300.309 242.901L300.886 243.594L301.29 243.94L301.809 244.055L302.04 244.92L302.156 245.958L303.483 248.15L305.214 250.054L305.849 251.611L304.753 252.938L303.079 254.38L302.848 256.572L302.329 258.591L300.943 260.61L299.039 265.051L298.866 271.223L297.711 276.011L298.173 280.683L299.212 282.529L299.731 284.663L299.674 286.566L298.808 288.297L298.289 293.084L299.212 302.198L297.711 305.774L291.074 306.12L291.94 311.081L292.171 316.734L290.035 316.099L287.842 315.811L285.649 315.292L283.571 315.119L282.821 315.869L281.839 316.503L280.743 316.907L279.877 317.599L277.568 318.868L275.664 320.483L275.029 325.617L273.067 329.424L257.425 332.654L254.771 335.884L254.828 337.557L253.789 338.422L251.308 338.768L248.826 338.653L246.459 337.788H244.035L242.246 339.807L240.572 342.114L236.186 345.056L231.569 347.709L229.145 346.613L226.951 345.056L225.855 344.767L224.989 344.248L224.816 342.056L223.892 339.807L223.719 338.365L223.027 337.153L219.968 336.23L218.929 335.134L218.121 333.923L216.851 331.558L215.004 329.77L212.753 328.905L211.483 326.771L211.022 323.829L210.329 321.06L209.117 319.33L207.501 317.945L209.81 313.215L209.463 307.563L209.81 301.91L209.29 300.698L211.83 297.699L212.638 297.237L216.447 295.795L221.872 290.258L223.95 288.758L225.104 288.297L226.432 288.066L227.009 287.605L228.856 284.605L231.973 282.01L235.609 279.298L235.436 277.568L234.801 275.722L234.974 271.281L237.744 260.898L237.802 256.226L237.917 255.188L238.206 254.265L239.649 253.111L240.746 250.861L240.572 248.496L239.014 247.285L237.802 245.901L240.168 242.325L243.631 239.383L245.594 237.364L247.094 235.057L245.94 233.615L241.207 228.885L239.418 227.673L237.687 226.289L235.32 224.905L232.608 223.866L231.049 222.309L230.53 220.059L230.241 217.81L231.742 213.657L231.28 211.58L230.357 209.042V206.331L232.261 201.198L232.146 196.641L231.569 192.141L232.665 187.296L239.014 179.105L241.265 174.202L244.035 169.473L245.247 168.434L246.921 169.011L248.595 168.838L248.999 167.165L249.518 166.3L249.922 165.32L250.153 163.012L252.173 161.282L255.348 160.417L256.733 158.975L258.291 157.821L260.196 157.244L262.158 156.84L271.162 153.206L271.855 152.053L273.24 150.899L275.144 150.553L278.492 153.61L282.128 156.263Z" fill="#009649" stroke="white" stroke-width="2" stroke-linejoin="round"></path>
<path class="region" data-country-region="North Region" d="M416.49 103.831L414.124 103.254L409.738 101.466L408.006 100.428L406.102 100.255L405.063 100.601L404.139 100.255L401.427 100.312L399.002 101.985L395.828 104.581L394.501 105.965L392.711 106.715L389.191 107.753L387.921 111.272L388.036 113.81L388.498 116.29L389.826 117.559L391.499 118.309L395.193 120.732L397.156 124.366L397.271 133.998L395.424 134.691L393.75 135.844L392.769 137.229L391.557 138.325L387.575 138.382L386.19 139.882L384.862 141.67L383.246 142.074L382.265 140.286L381.284 139.594L380.302 139.363L376.435 139.536L376.089 139.94V140.517L375.685 141.382L374.646 141.728L373.55 142.708L372.511 142.939L371.53 143.285L368.355 147.438L367.489 149.573L367.951 155.687L369.163 162.378L369.105 165.435L368.355 165.839L367.432 165.493L365.931 165.435L364.488 165.896L362.006 166.127L359.64 166.589L359.121 167.627L356.639 167.973L353.984 166.877L342.037 149.457L339.497 144.67L337.766 142.189L334.707 143.228L332.109 146.631L330.205 148.304L328.82 150.092L328.646 151.649L327.55 151.995L326.396 148.304L326.8 144.439L328.127 140.632L327.377 138.094L325.992 137.921L325.703 141.612L324.779 143.516L318.488 145.189L318.604 147.208L317.68 148.65L315.314 148.304L313.698 146.631L314.737 144.843L316.064 143.343L314.448 142.593L312.313 142.189L310.235 141.093H307.984L304.463 144.67L302.386 145.419L300.539 146.688L299.038 147.208L297.422 147.15L292.343 150.265L291.824 150.899L291.708 151.707L290.958 152.514L287.841 153.437L285.994 154.418L283.974 155.283L282.127 156.264L278.491 153.61L275.144 150.553L274.566 148.477L274.797 146.342L276.182 144.324L278.029 142.651L278.318 141.901L278.433 141.093L279.472 140.69L280.742 141.036L282.185 139.651L282.647 101.697L284.494 101.985L286.456 103.6L287.726 105.561L289.746 106.196L290.669 105.619L291.477 104.927L294.363 103.658L295.806 100.947L299.327 85.7766L298.865 80.7006L301.058 74.471L302.386 73.8365L303.829 73.3751L305.214 70.5487L305.964 67.3762L305.214 64.7805L302.212 63.8576L300.192 62.5309L299.788 60.166L300.943 39.2275L309.946 44.2458L344.057 63.3385L355.484 69.7411L378.225 82.4311L416.49 103.831Z" fill="#009649" stroke="white" stroke-width="2" stroke-linejoin="round"></path>
<path class="region" data-country-region="North Region" d="M300.943 39.2273L299.789 60.1658L300.193 62.5307L302.213 63.8574L305.214 64.7803L305.965 67.376L305.214 70.5485L303.829 73.3749L302.386 73.8363L301.059 74.4708L298.866 80.7004L269.719 80.8735L267.757 80.0659L264.755 77.9894L263.428 77.9317L261.696 78.1625L260.196 77.3549L258.984 75.5091L257.541 73.8363L253.616 71.5291L251.885 70.2601L250.615 68.4719L249.403 67.7221L247.96 67.4337L243.804 65.2418L241.957 65.1841L240.11 65.011L236.705 61.8385L235.378 62.6461L235.031 64.4919L232.954 64.6649L229.318 64.4342L227.932 65.1264L225.855 63.9728V63.9151V63.4536L225.047 61.3771L223.488 59.8774L221.526 59.3582L219.968 60.1658L219.506 60.3388L218.582 61.031L217.139 62.127L215.812 62.5884L215.119 63.2229L213.907 64.5496L211.772 63.4536L209.175 62.9922L208.424 62.9345L205.596 62.8191L203.576 63.0499L202.595 63.2229L201.498 63.6267L200.748 63.6844L200.402 63.2806L200.171 62.5884L199.594 62.0116L199.074 61.7232L198.266 61.2617L197.4 60.9733L196.708 60.6849H195.496L194.457 61.2617L193.476 62.3577L192.899 61.2617L192.783 60.5119L192.841 60.3388L193.303 59.6466L193.476 59.0698V58.493L193.303 57.9162L193.13 57.6278L193.245 57.4547L193.476 57.051L193.534 57.1086L193.88 57.224L195.15 57.2817L195.323 57.3394V57.2817V57.224L196.65 57.6278L196.939 57.8008L197.285 57.224V56.4741L196.881 55.8396L196.073 55.4359L196.708 54.8591L197.516 55.4359L198.093 56.3011L198.266 56.5895L198.613 57.224H198.959V55.6666L199.825 55.8396L201.267 57.1086L201.902 57.6278L202.191 57.1086L202.537 56.9933L202.999 56.8779L201.498 54.686L202.941 53.3593L204.615 53.8208L208.078 56.1857H210.56L210.791 56.3011L211.137 55.955L211.714 55.1475L211.945 54.9167L212.06 54.4553L212.176 54.1092L211.945 53.8785L211.368 53.244L210.791 53.5324L210.213 53.244L210.387 53.1863L210.56 53.0132L210.618 52.8402L208.54 52.3211L206.866 52.2057L206.231 52.148L207.674 51.2251L207.789 50.9367L207.328 50.3599L206.173 49.61L205.885 49.1486L206.231 48.5141H206.058L204.961 48.4564L204.557 48.6871L204.442 49.2639L202.595 49.3216L200.459 50.8213L198.439 51.8596L198.093 51.6289L196.766 50.706L197.978 49.9561L198.266 49.7831L198.209 49.3793L198.266 48.6294L198.382 48.4564L198.67 47.9373L198.786 47.7065L199.305 46.1491L199.709 45.5723L201.152 44.4187L202.364 44.1303L205.538 44.188L205.134 45.5723L205.654 46.1491L206.751 46.3222H207.905L208.54 46.0914L209.117 45.5723L209.694 44.8801H210.444L210.906 44.7071L211.31 44.361L211.714 43.7842L211.945 43.1497L211.83 42.3421L212.407 41.996L212.58 42.1114L214.254 42.5152L214.542 42.9189L215.177 43.0343L215.754 42.8613L216.043 42.1691L215.754 41.8807L214.369 40.9578L213.907 40.4963L213.503 40.9001L213.042 40.0926L212.407 39.4004L211.31 38.7082L210.964 38.3621L210.56 37.5546L210.906 37.3815L212.811 37.6122L218.236 37.5546L218.986 37.2662L219.333 36.747L219.506 36.1702L219.39 35.5357L218.986 35.0742L218.525 35.305L218.063 35.3627L217.197 35.0742L217.774 34.6128L218.236 34.3821L218.178 33.4592L217.543 32.5363L216.909 32.767L216.447 32.7093L216.158 32.4209L216.043 31.7864L215.523 32.0171L215.062 32.1325L214.6 32.0748L214.254 31.7864L215.004 31.2096L215.812 31.1519L216.62 31.2096L217.37 30.8635L217.89 30.1136L218.121 29.3061L217.947 28.7293L217.197 28.9023L216.851 28.3255L216.389 27.864L216.101 27.3449L216.447 26.7104L217.139 26.3643L217.89 26.4797L218.986 27.0565L219.794 27.691L220.256 27.8064L220.718 27.691L221.41 27.1719L221.872 27.0565L222.68 27.1142L223.373 27.3449L223.835 27.2872L224.065 26.7104L224.758 27.3449L225.104 28.1524L225.508 28.9023L226.432 29.2484L227.932 29.1907L228.914 29.4214L229.779 29.8252L230.241 29.9983L230.76 29.5945L230.991 29.2484H231.28L231.857 29.6522L232.319 29.5368L232.492 29.2484L232.319 29.0177L231.857 28.9023L231.395 27.7487L230.991 27.4026H230.472L230.01 27.6333L229.202 28.1524V27.5179L229.029 27.2295L228.394 26.7104H227.759L227.297 25.6145L226.951 25.2107L226.72 24.7492L226.259 24.5185L225.797 24.4031L224.873 24.5185H224.412L223.719 24.1147L223.2 23.4802V22.8457L224.065 22.3266L227.297 23.4225L227.009 22.8457L226.547 22.3266L225.912 22.0959L225.162 22.3266L225.277 21.7498L225.508 21.5767L224.123 20.2501L223.777 19.5002L224.412 18.6927L225.335 19.0387L228.625 18.6927L229.779 18.7503L230.356 18.9234L231.28 19.5002L232.377 19.6156L232.781 19.7886L233.531 20.4808L233.358 20.5961L233.069 21.346L233.185 21.5767L233.704 21.6921L234.05 21.346L234.223 20.8269V20.3077L233.877 19.3848L233.069 18.5196L231.973 17.8274L230.991 17.5967V17.2506L231.28 16.5007H230.991L229.952 16.9045L228.74 16.5007L228.106 15.3471L228.798 13.559L229.548 12.8091L230.356 12.29L232.088 11.4824L232.838 10.9056L234.397 9.05981L234.281 8.54068L233.762 7.90618L233.531 7.32936L234.397 7.09864L235.666 7.15632L236.07 7.09864L236.301 6.81023L236.59 6.11805L236.994 5.945L238.61 4.84905L238.725 4.50296L252.981 12.463L264.351 18.808L275.721 25.2107L300.943 39.2273Z" fill="#009649" stroke="white" stroke-width="2" stroke-linejoin="round"></path>
<path class="region" data-country-region="South Region" d="M489.502 265.628L485.058 264.878L484.192 265.57L483.153 265.974L482.403 265.801L481.653 265.859L480.729 266.897L479.575 267.243L476.516 268.57L475.823 268.166L475.073 268.397H473.976L473.053 267.993L471.899 268.858L470.167 268.454L469.244 267.935L468.436 267.128L466.762 267.243L465.261 266.608L463.876 264.647L461.625 264.07L459.663 263.321L458.162 261.706L454.815 260.033L451.063 259.744L449.678 260.379L448.12 260.667L444.541 259.802L436.519 261.994L435.653 262.744L434.383 262.398L433.575 263.032L433.633 264.532L431.497 265.224L428.727 265.109L427.284 266.551L426.014 265.455L422.551 261.475L421.974 259.052L420.185 258.302L419.261 258.187L418.338 257.725L417.53 257.783L416.837 257.552L416.722 257.149L416.433 256.918L414.702 256.341L413.894 257.783L412.97 263.897L411.239 265.455L409.334 266.205L407.66 268.281L405.41 269.954L404.371 272.088L402.928 273.53L401.485 272.607L400.331 271.281V270.819L400.1 270.473L399.927 269.031L401.023 267.474L399.58 267.012L398.022 266.205L397.214 260.552L403.505 256.226L405.179 253.515L406.333 247.227L407.314 244.401L412.22 238.056L413.374 234.537L414.586 229.404L414.644 227.904L414.182 226.462L414.644 225.251L422.436 215.791L425.379 213.138H428.034L430.574 214.003L433.748 214.753L437.038 214.003L439.635 213.08L443.271 212.33L444.195 212.272L445.638 213.311L447.081 214.118L449.62 214.234L449.158 212.215L448.293 210.83L447.658 209.331L447.311 207.6L446.273 206.216L445.522 203.966L445.58 201.37L445.984 197.852L448.639 195.026L451.005 193.41L469.128 167.454L474.034 170.972L483.038 177.49L492.099 184.066L510.222 197.102L510.568 197.448L511.492 197.737L511.838 199.236L511.55 200.967L510.568 201.832L509.126 202.582L510.28 203.043L511.088 203.101L511.55 203.389L511.665 204.601L511.607 205.754L511.434 206.677L511.088 207.485L509.414 210.369L508.721 211.003L508.375 210.253L508.606 209.215L508.952 208.177L509.126 207.139L508.779 206.216L507.856 208.984L506.99 209.965L505.836 209.85L506.759 211.292L506.932 211.811L507.105 214.868L506.932 215.387L506.586 215.618L505.778 215.329L505.316 215.56L505.085 215.791L504.566 216.829L504.508 217.579L505.259 217.521L506.932 216.829L506.99 217.637L507.567 218.906L507.683 219.425L507.452 219.771L505.432 221.559L505.085 222.021L504.046 224.212L502.43 226.693L502.257 227.039L502.661 227.443L503.238 226.981L504.046 225.943L504.393 226.635L502.084 233.268L501.507 234.48L500.757 235.46L499.602 236.095L499.083 236.556L498.967 237.248L499.198 237.71L499.949 238.229L500.006 239.094L499.314 241.229L497.813 244.343L495.966 247.112L494.177 248.266L494.927 248.554L494.581 249.708L494.523 252.188L494.004 253.169L493.369 253.976L492.388 255.995L491.234 257.783L490.829 258.937L490.656 260.148L490.599 263.609L490.368 264.128L489.733 264.936L489.502 265.628Z" fill="#009649" stroke="white" stroke-width="2" stroke-linejoin="round"></path>
<path class="region" data-country-region="North Region" d="M97.7245 180.028L97.7822 182.509L98.1285 184.931L99.6291 184.758L100.264 186.085L100.726 190.065L101.707 194.103L100.841 196.525L100.379 197.044L97.4359 198.14L96.4548 198.833L96.1662 199.755L96.7433 205.351L96.2816 205.985L93.8575 207.139L92.9341 207.716L92.7032 208.062L92.5301 208.927L92.2992 209.273L91.8952 209.504L90.6831 209.907L88.0282 211.926L87.7396 212.099L88.0282 213.022L88.6631 213.83L88.8939 215.272L86.3544 222.424L85.8927 228.596L87.855 237.075L86.8739 238.921L83.0646 239.787L78.909 240.883L77.6393 236.556L77.1776 235.864L76.2541 234.884L76.0232 234.538L75.3883 233.211L74.1763 232.057L73.8877 231.423L73.7146 229.115L73.3683 228.193L72.4448 227.789L71.5214 228.25L70.367 230.327L69.559 231.077L68.4624 230.211L66.8464 227.962L65.5766 227.039L65.2303 226.981L64.4223 227.097L64.076 227.039L63.7297 226.75L62.9794 225.539L61.3056 224.501L58.8815 224.328L44.2793 224.443L42.4324 225.712L39.0272 229.577L36.8917 231.365L34.2944 232L22.9821 232.115L22.0009 233.326L26.849 237.422L28.8691 242.036L32.3321 262.34L33.8904 266.724L37.0648 272.665L38.6809 277.28L41.1627 278.722L42.8941 280.683L42.317 284.028L43.2404 286.163L43.4136 288.585L38.3923 292.046L36.8339 296.718L35.6219 298.391L32.6784 295.565L32.1012 294.469L31.8126 293.43L31.0046 292.623L29.908 292.046L28.8114 291.7L26.3873 291.815L24.1364 292.45L20.0962 294.699L20.0385 293.43L19.4037 292.681L17.5567 291.7L14.9595 289.566L10.2845 283.682L9.70733 282.529L9.36103 282.067L8.09128 281.721L7.51412 281.317L7.28325 280.741L7.57183 280.221L8.14899 279.241L8.37986 278.029L8.03356 274.453L8.14899 271.05L8.49529 270.012L9.36103 268.685L10.4576 267.474L11.3811 266.839L11.9005 266.897L12.824 267.474L13.4012 267.589L13.8052 267.416L17.2682 264.128L18.4802 263.494L19.6922 263.205V262.167L20.0385 260.206L20.0962 259.168L19.5768 256.745L13.8629 244.113L12.824 242.786L10.3999 240.479L9.30332 238.979L8.84159 237.249L9.01474 236.095L9.47647 234.826L10.1113 233.672L10.8039 232.749L11.1502 231.826L11.208 230.442L11.1502 229.173L10.9771 228.481L11.5542 228.25L12.0737 228.481L12.3046 227.789L11.9583 226.75L12.3046 226.116L12.7086 225.655V225.308L12.4777 224.27L12.3046 224.097H11.7274L11.9005 223.52L12.3623 223.463L13.0549 222.54L13.1703 221.963V220.694L12.824 219.483L12.2468 218.329L10.9771 216.656L10.6885 215.733L10.9771 214.926V214.637L10.7462 214.349L9.9382 214.234L9.07245 213.08L8.55301 212.676L7.51412 212.33L6.12893 211.753L5.72491 211.58L4.74374 210.254L4.10886 209.85L3.58942 209.677L1.97336 209.504L0.992188 209.215V208.811L2.43509 207.543L2.49281 207.196L1.80021 206.331L1.51163 205.87L1.45392 205.351L1.51163 201.544L3.99343 188.161L4.22429 185.047L6.0135 185.45L8.14899 185.623L8.37986 185.739L9.01474 185.277L9.18789 184.643V183.951L9.41875 183.201L9.70733 182.912L10.6308 182.451L10.9194 182.047L11.1502 180.951L11.9583 180.432L12.5354 180.49L13.1126 180.778L14.036 180.951L14.4978 180.778L17.3259 179.452L19.1728 177.663L21.0197 176.625L21.5391 176.221L22.7512 175.529L23.3861 174.722L24.7713 171.434L25.2907 170.684L28.9268 167.627L30.5429 165.723L31.7549 163.531L32.7361 161.224L33.6595 157.359L34.2944 156.264L37.0648 153.437L39.1426 149.919L40.4701 149.053L42.8364 149.803L43.0096 148.88L42.8364 148.073L42.5478 147.265L42.317 146.342L42.3747 145.304L42.721 144.381L44.9142 140.92L45.3182 139.94L45.3759 138.959L45.2028 137.863L45.4914 137.229L46.992 136.19L47.4537 135.21L48.3195 135.037L48.4926 135.152L49.4738 135.094L49.7046 134.344L51.1476 134.056L51.4938 133.941L51.8979 133.537L52.5905 132.729L55.0723 131.576L56.5152 130.191L56.5729 128.807L54.6105 127.711L55.534 126.557L56.5729 125.635L57.7272 124.885L59.1701 124.308L59.8627 124.25L60.3821 123.962L60.6707 123.5L60.8439 122.866L62.2868 123.558L63.7297 123.385L64.9994 122.52L65.8075 121.078L65.5766 119.809L65.5189 119.463L66.2692 118.367L66.7309 117.098L66.8464 116.463L66.7886 115.771L66.5578 115.367L65.8652 114.906L65.692 114.502L65.9806 113.464V113.175L65.4612 112.425L64.1337 111.214L63.8451 110.464L64.2491 109.599L65.8652 107.696L66.0383 107.407L67.4235 106.657L68.4624 105.504L69.4436 104.119L74.6958 99.3317L76.9467 100.255L78.1587 102.62L78.2164 103.427L78.6205 104.062L79.0245 104.235L79.3131 104.638L79.4285 108.676L77.9279 112.483L75.9078 115.598L75.7924 118.54L76.2541 119.059L76.9467 119.117L77.697 118.194L78.6782 117.559L81.5063 119.636L82.0834 123.443L83.4109 127.134L84.3921 128.98L85.5464 130.653L86.5276 132.614L86.3544 134.575L86.5853 136.248L87.047 138.094L87.2202 141.728L88.4899 145.073L91.4335 147.9L94.6656 154.937L95.589 159.321L95.3004 161.916L93.5689 166.819L93.3958 169.415L93.8575 171.088L94.0307 172.76L94.6656 173.568L94.8387 174.491L95.993 177.26L97.7245 180.028Z" fill="#009649" stroke="white" stroke-width="2" stroke-linejoin="round"></path>
<path class="region" data-country-region="North Region" d="M118.213 62.5307L117.983 62.8768L117.348 62.6461L116.424 62.0116L116.193 61.2617V60.5119L116.424 59.762L116.828 59.0698L117.175 59.4736L117.117 60.2235L117.29 60.9157L117.752 61.4348L119.368 61.7232L119.195 62.0693L118.213 62.5307ZM120.234 43.9572L118.617 45.2262L118.906 44.2457L119.483 43.5535L120.003 42.8613L120.118 41.65L120.464 41.7077L120.811 41.9961L120.695 43.1497L120.234 43.9572ZM124.447 35.0743L125.139 35.8818L125.37 36.2856L125.543 36.8624L123.35 35.4204L123.292 36.9201L122.773 38.4198L121.157 41.2462L121.619 38.4198L121.907 38.3621V36.4009L121.676 35.478L121.157 34.7282L122.773 34.1514L124.447 35.0743ZM109.267 73.721L105.574 73.6056L94.9538 68.9334L92.5297 68.5296L89.7016 69.4525L86.1809 70.0294L84.5072 69.6833L76.6578 83.1231L70.8862 85.8918L68.9815 91.1408L71.4056 93.7365L74.0605 95.9861L74.6954 99.3316L69.4433 104.119L68.4621 105.504L67.4232 106.657L66.038 107.407L66.3843 106.773H65.1145L62.6327 107.465L61.4207 107.58L60.7281 107.349L59.5161 106.542L58.8812 106.311L58.1886 106.369L57.092 106.715L56.3994 106.542L56.284 106.311L56.1108 105.446L55.9954 105.157L55.0719 104.696L51.609 102.62L51.1472 102.562L50.4546 102.85L49.8198 103.369L48.7231 104.811L48.4923 104.927L48.2614 104.235L47.5111 103.369L47.742 102.793L46.7608 102.504L45.9528 101.754L44.6253 100.024L44.5099 99.1009L45.1447 97.9473L46.2991 96.3899V95.0055L46.4722 94.198L46.9339 93.5058L49.9352 90.2756L50.2815 89.295L49.0694 89.7565L47.1648 90.6217L46.0682 90.9678H45.0293L44.4521 90.391L44.6253 89.0643L45.087 88.4298L46.3568 87.2185L46.8762 86.584L47.1071 86.0072L47.5111 84.3344L49.5312 79.4315L50.2238 78.2778L52.013 76.0859L53.0519 75.4514L54.1485 75.6245L55.3028 75.9706L56.3994 75.9129L57.0343 75.3938L57.7846 73.9517L58.3617 73.4903L59.0543 73.3749L59.6315 73.5479L62.4019 74.9323L62.8636 75.0477L63.7294 74.7016L64.4219 74.5285L65.2877 74.0671L66.1534 73.6633L66.846 73.1442L67.4232 72.1636L67.5963 71.0676L67.4232 67.4337L67.8849 65.1264L69.6741 59.1852L69.2124 57.6278L68.6929 56.8779L67.8849 56.0704L66.9037 55.6089L65.9226 55.782L66.6152 52.7249L66.442 51.3405L64.8837 51.0521L65.4608 50.3022L66.3266 49.61L65.9226 48.6871L66.2111 47.8219L66.7306 47.0721L67.0192 46.1492L66.6152 44.0149L66.442 43.4381L67.0192 41.9961L66.9037 41.5346L66.3266 40.4963V39.9195L67.0192 35.7665L67.0769 34.3821L66.6729 33.2861L65.4031 33.7476L64.5951 33.1131L64.0757 31.9018L63.5562 29.9983L63.3253 29.5945L62.6327 28.9023L61.767 27.691L61.4784 26.9988L61.767 26.7104L61.9401 26.0759L61.9979 24.6916L61.7093 23.3072L60.6704 22.6727L59.6315 22.5573L56.1108 21.2307L55.6491 20.9423L54.8411 20.1924L54.2639 19.7886L52.7056 19.1541L52.013 18.635L51.7821 17.7698L51.8398 17.366L52.1284 16.6738L52.013 16.27L51.4935 15.5779L51.2049 14.5396L50.2238 12.9245L49.9352 12.1746L49.7043 10.7903L49.4735 10.4442L48.8386 9.98275L48.2614 10.2135L47.8574 10.2712L47.3957 9.98275L47.2802 9.63666L47.742 8.71375L47.5688 8.02157L46.7608 7.44475L46.5876 6.92562L46.7608 6.29112L47.1648 5.7143L48.0883 4.84908L48.7809 4.90676L49.4157 5.48358L49.7043 5.65662L50.3392 5.59894L51.3781 5.36821L54.033 5.0798L55.1874 5.25285L56.4571 5.65662L57.1497 5.0798L59.0543 3.06095L59.8047 2.65717L61.8247 2.02268L63.7871 0.984406L65.6917 1.44586L66.5574 1.84963H117.175L116.309 3.29167L116.424 4.27226L117.117 4.67603L118.791 3.86849L119.195 2.8879L119.368 1.84963H120.118V2.54181L120.234 3.00326L120.522 3.06095L121.388 2.71486L122.023 3.06095L121.619 3.75313L120.926 4.50299L120.464 4.84908L120.811 5.7143L120.753 6.9833L120.811 7.73316L121.042 8.42534L121.792 9.69434L121.734 10.1558L121.215 11.4248L120.811 16.5008L120.291 18.0005L119.195 20.1924L118.848 22.442L118.387 23.5956L118.213 24.3455V25.9606L118.156 26.7104L117.867 27.4026L115.732 26.4797L115.385 27.9217L115.558 30.2867L114.981 31.7864L116.02 33.4015L115.674 34.6128L114.693 35.8818L113.885 37.6123L113.423 41.823L112.673 43.3228L112.442 44.188L111.922 47.7642L111.403 49.264L109.094 52.0327L108.459 53.417L108.113 55.0321L108.055 56.8779L108.575 56.9933L109.037 56.3588L109.325 56.1858L110.479 56.3011L110.999 56.1858L111.403 55.8397L111.749 55.4359L112.211 55.1475L113.134 55.0898L112.557 56.5895L112.384 57.3394L112.038 57.9739L112.153 58.2046L112.673 58.6084L112.846 58.8968L112.673 59.4736L111.922 60.3965L111.749 60.9157L111.807 61.3771L112.326 61.9539L112.442 62.3577L111.461 64.4919L111.172 64.8957L111.287 65.4148L110.249 68.5296V70.1447L110.075 70.5485L109.267 71.5868L109.152 71.9905V73.0288L109.267 73.721Z" fill="#009649" stroke="white" stroke-width="2" stroke-linejoin="round"></path>
</svg>