<svg width="549" height="579" viewBox="0 0 549 579" fill="none" xmlns="http://www.w3.org/2000/svg">
<path class="region" data-country-region="South Region" d="M455.863 308.564L455.041 309.936L455.205 311.911L456.521 311.308L456.576 311.802L457.07 311.911L456.466 313.283L455.808 313.722L453.999 313.832L451.64 314.271L451.531 314.82L451.64 317.454L451.805 318.441L451.86 319.429L451.531 320.527L451.037 321.679L450.708 322.283L450.105 322.612L449.063 323.051L448.788 321.569L447.856 321.24L446.759 321.844L445.991 323.051V324.203L446.814 327.112L447.198 327.99L448.021 328.923L448.953 329.416L451.531 329.855L451.585 329.581L452.244 329.197L452.956 329.032L453.34 329.526L453.231 330.185L453.011 330.624L452.627 330.953L452.134 331.118L452.737 332.599L451.585 332.709L448.405 331.721L448.185 333.642L446.979 334.465L444.182 334.849L442.536 335.508L441.604 336.495L440.836 337.538L439.849 338.526L436.504 339.074L434.365 340.995L433.871 343.3L434.749 344.781L435.571 344.836L436.174 342.806L437.436 343.739L438.259 345.44L438.478 347.031L437.71 347.8L436.833 348.348L435.626 349.665L434.639 351.257L434.365 352.738L435.132 353.232L436.613 354.494L437.491 355.811L436.504 356.415L436.284 357.073L432.5 360.805L434.803 365.689L434.639 367.609L431.897 368.817L433.158 369.804L433.761 370.957L434.145 372.274L434.419 372.768L411.166 384.072L406.285 385.718L405.517 386.322L405.024 386.87L404.64 387.968L404.256 388.681L402.007 391.151L401.514 391.919L400.746 393.62L400.307 395.65V397.406L400.526 398.943L400.417 400.534V401.522L400.362 402.455L400.746 404.376L401.239 405.747L401.294 406.9L401.13 408.217L393.945 412.168L392.026 412.607L391.587 412.332L389.667 411.948L386.706 410.906L383.69 410.192L383.141 409.918L382.099 409.095L379.905 407.613L378.644 406.955L378.041 406.351L377.437 404.979L377.108 404.595L376.45 404.101L375.957 404.156L375.573 404.43L372.776 409.095L351.442 403.882L351.99 403.717L352.1 403.333L351.606 402.126L351.222 401.796L350.784 401.742L349.851 401.906L349.467 401.796L349.358 401.522L350.18 399.711L350.893 398.998L351.167 398.284L351.387 396.967L351.661 396.254L351.771 395.65L351.606 395.157L350.674 394.279L350.619 394.004L351.387 393.51L351.442 393.181L351.113 393.071L350.071 393.016L349.687 392.797L349.522 392.358L349.577 391.535L349.522 390.986L349.083 390.602L348.206 390.218L348.151 389.834L348.425 389.395L348.754 389.285L349.029 388.956L348.974 388.242L348.48 386.761L347.987 386.157L347.493 385.773L346.067 385.389L345.628 385.499L344.312 385.992H343.819L343.435 385.773L343.16 385.224L343.215 384.017L343.38 382.974L343.764 381.602L343.928 380.231L344.038 379.846L344.586 379.627L345.957 379.901L346.341 379.682L346.561 379.353L346.396 378.694L345.957 377.761L345.903 376.938L345.354 376.334L345.628 375.676L347.987 375.127L341.789 372.822L340.528 372.932L339.321 372.713L338.389 372.822L337.566 373.261L336.908 373.81L336.086 374.139L334.495 374.304L334.166 374.524L334.002 375.676L333.673 375.895H332.74L332.192 375.676L331.753 375.237L331.205 374.524L331.259 373.646L331.698 373.152L331.808 372.822L331.588 371.944L331.314 371.615L330.766 371.505L330.217 371.231L329.066 369.914L328.846 369.31L328.901 368.213L329.395 367.17L329.669 366.073L329.943 365.305L329.724 364.756L328.846 364.152L328.133 363.494L327.64 363.164L327.256 361.847L328.353 358.171L328.846 355.208L330.821 354.22L331.588 354.549L332.685 354.659L340.857 350.927L341.625 350.488L342.283 349.72L342.502 349.062V348.403L341.954 347.086L341.844 346.483L341.899 345.879L342.447 344.507L342.667 343.355L341.844 341.16L341.021 339.184L341.076 338.196L341.296 337.757L342.502 336.605L345.244 332.215L345.464 331.337L346.232 329.691L350.838 314.82L350.784 313.777L348.754 302.418L348.864 301.485L349.248 300.552L350.729 299.674L351.88 299.125L354.184 298.522L357.639 298.577L357.42 297.205L357.2 296.601L355.061 292.486L356.981 290.126L359.229 288.535L359.723 288.096L360.655 287.053L361.533 285.846L361.972 285.352L362.52 284.968L363.014 284.748H364.111L366.962 285.516H367.511L367.95 284.968L368.224 283.98L366.853 273.334L366.578 272.346L366.359 271.853L366.195 270.316L367.017 266.859L370.527 266.036H371.185L372.118 266.146L373.927 266.859H375.134L376.176 266.749L377.657 266.42L378.973 265.816L381.276 263.786L388.296 260.329L389.997 259.012L395.097 253.47L397.071 250.397L398.278 249.354L400.197 248.805L413.36 246.171L412.811 250.232L413.36 251.713H414.676L416.212 251.22L417.473 251.494L418.35 251.549L419.283 250.836L420.16 250.726L420.818 252.482L420.599 253.305L419.886 254.183L418.296 255.5L417.089 256.103L416.266 256.323L416.321 256.597L417.747 257.421L419.063 257.859L421.751 258.518L422.628 259.286L423.835 258.298L424.986 259.122L425.919 260.823L426.358 262.359L426.138 262.853L425.316 263.951L425.425 264.499L426.028 265.322L426.248 265.707L426.796 267.463L426.687 268.121L425.699 268.56V269.164H427.729L429.1 269.493L430.032 270.426L430.635 272.237L431.622 271.798H432.5L433.213 272.237L433.761 272.84L435.571 272.676L437.546 272.895L438.697 273.883L437.984 275.968L438.807 278.931L439.794 279.919L442.043 280.303L443.085 280.907L443.414 282.224L443.523 283.486L443.853 284.09L444.895 284.419L445.443 285.187L445.882 286.065L446.65 286.559L450.214 285.626L451.969 286.065L452.737 288.754L452.244 289.852L450.489 291.553L450.598 292.431L451.311 292.925L452.408 293.418L453.56 293.803L454.547 293.967L455.315 294.351L455.699 294.9L455.973 295.613L457.947 298.522L458.221 298.577L458.77 302.253L458.496 303.68L457.07 304.448L457.179 306.534L455.863 308.564Z" fill="#009649" stroke="white" stroke-width="2" stroke-linejoin="round"></path>
<path class="region" data-country-region="South Region" d="M140.022 345.495L141.338 347.47L141.173 348.403L140.46 349.391L140.076 350.379V351.092L140.241 351.805L140.625 352.574L141.338 353.452L141.722 353.671L143.532 354.33L144.738 355.427L145.89 356.854L146.383 357.677L146.767 358.775L148.303 366.457L148.138 367.5L147.755 368.378L147.59 369.585L147.809 372.164L145.012 376.444L144.738 377.981L145.012 378.365L145.835 379.023L145.177 379.078L142.764 379.627L142.325 379.846L140.899 380.67L140.68 380.889L139.528 382.59L138.87 383.194L137.444 383.743L136.731 384.182L135.744 385.06L135.25 387.858L135.689 399.821L136.896 417.491L137.883 421.332L138.321 429.399L137.17 457.165L109.803 462.488L108.213 462.817L107.006 460.458L105.361 453.434L105.47 450.141L106.019 446.3L105.635 443.172L102.783 441.91L102.454 444.599L102.015 446.081L101.357 446.794L100.48 446.245L100.041 444.983L99.4376 443.776L98.0666 443.556L98.3408 442.02L97.6827 442.294L96.5858 443.227L95.5438 443.721L94.8857 443.392L93.7339 441.91L93.021 441.306L93.7339 440.374L93.2952 439.77L91.3757 438.947L91.1015 438.892L89.2917 437.904L89.1271 437.52L87.5367 437.301L86.2204 436.258L85.2332 435.106L84.6848 434.612L83.6976 435.819L82.6556 437.63L81.3942 438.233L79.8038 436.038L78.7069 434.941L75.1969 433.075L73.9904 431.594L73.9356 430.935L73.9904 428.411L74.1549 427.972L74.9776 427.533L75.1969 427.039L74.9776 426.49L74.0452 426.106L73.771 425.777L73.442 423.746L73.1129 422.868L72.2354 422.1L71.4128 422.045L70.3159 422.32L69.4384 422.814V423.198L68.4512 421.99L68.177 420.125L68.3964 418.094L68.8351 416.229L70.0417 412.717L69.8223 411.509L68.3964 409.808L64.4477 406.625L64.1186 406.186L63.8992 405.144L63.7347 404.815L63.1863 404.65L62.3636 404.924L61.9249 404.869L56.1115 403.443L54.6856 402.455L53.0951 402.126L50.682 402.181L46.514 402.729L45.4719 403.168L43.4976 404.266L42.2362 404.595H40.8103L40.0425 404.376L39.4392 403.882L38.452 403.333L37.41 402.949L30.4449 401.357L29.6222 401.083L29.5126 400.699L29.4029 399.327L28.9641 398.614L28.306 398.23L27.6479 398.943L27.2091 398.998L26.2768 398.12L25.3993 397.132L24.467 396.748L23.3153 397.736L22.3281 397.352L21.2312 397.297L20.1344 397.736L19.202 398.669L18.1052 397.571L18.4342 397.022L19.2569 396.583L19.6956 395.76L19.5311 395.047L18.7085 393.401L18.5439 392.577L18.9827 391.096L19.6956 390.492L19.8053 389.998L18.5988 388.626L15.8018 387.145L14.7597 385.773L14.2113 385.389L13.7726 386.157L13.3887 387.803L12.6757 389.505L11.524 390.437L9.8787 389.889L7.24622 386.267L6.25905 385.389L5.21702 385.115L3.0233 385.169L2.20065 385.005L0.665039 384.895L2.85877 382.096L3.29751 381.877L4.39438 381.712L4.77828 381.438L4.99765 381.054L5.38155 379.627L6.86232 378.804H7.08169L8.28824 377.322L14.7597 372.219L16.5147 370.243L17.118 370.463L25.8929 376.115L26.7156 376.444L27.3737 376.499L28.3609 375.786L29.0738 375.402L30.2255 375.018L30.8288 374.908L33.0225 373.207L33.6806 372.877L33.7355 372.329L33.6258 371.396L33.9 370.298L33.8452 369.804L33.6806 369.091L33.9 368.872L34.8324 369.036L36.6422 368.652L36.9164 368.433V367.829L36.3131 366.567L36.2034 366.183L36.5325 365.689L38.2875 364.591L38.8359 364.536L39.0553 364.811L39.2747 365.579L39.6037 365.744L40.0973 365.689L40.6457 365.36L41.3587 364.646L41.7426 363.658L42.0717 361.848V360.915L42.291 360.585L43.333 359.817L43.8266 359.104L45.3622 358.226L46.1849 357.567L47.8302 356.744L47.885 356.195L47.0075 354L46.7882 353.671L46.1849 353.561L46.0204 353.232L46.2397 352.19L46.9527 350.653L47.3366 349.446L47.0624 348.842L47.1721 348.568L48.3238 347.964L48.9819 346.922L49.2561 346.647L49.6949 346.757L50.4627 346.592L51.4498 346.044L54.9598 342.641L56.989 341.983L59.2924 342.971L60.4441 343.794L62.3636 345.55L63.1314 345.989L63.7896 346.318L65.051 346.537L67.1898 347.141L67.9028 347.525L68.3415 347.909L68.7254 348.732L69.7675 351.586L70.1514 352.19L70.974 353.013L72.2903 353.287L73.7162 353.397L88.6884 353.177L89.8949 352.903L90.2788 348.239L90.4434 347.58L91.5402 345.495L97.2988 344.617L106.787 344.562L107.664 344.452L110.242 343.739L118.633 342.312L120.388 342.422L123.404 343.19L130.314 342.422L131.247 342.477L131.631 342.696L133.824 344.178L135.141 344.727L139.363 345.44L140.022 345.495Z" fill="#009649" stroke="white" stroke-width="2" stroke-linejoin="round"></path>
<path class="region" data-country-region="North Region" d="M495.131 334.191L495.022 332.489L491.292 325.356L490.25 324.148L488.824 322.886L485.863 321.021L483.833 319.484L482.737 318.826L476.265 316.795L474.346 316.521L473.194 316.576L472.481 317.783L471.932 318.496L471.603 318.771L471.165 318.826L470.616 318.606L469.135 316.905L467.929 315.698L467.49 314.929L466.119 310.32L465.79 309.881L465.242 309.387L464.145 308.838L463.541 308.454L463.048 308.29L462.28 308.454L461.457 307.96L460.909 308.125L459.483 307.631L458.715 307.686L455.863 308.564L457.18 306.534L457.07 304.448L458.496 303.68L458.77 302.253L458.222 298.577L457.947 298.522L455.973 295.614L455.699 294.9L455.315 294.351L454.547 293.967L453.56 293.803L452.408 293.419L451.311 292.925L450.598 292.431L450.489 291.553L452.244 289.852L452.737 288.754L451.97 286.065L450.215 285.626L446.65 286.559L445.882 286.065L445.443 285.187L444.895 284.419L443.853 284.09L443.524 283.486L443.414 282.224L443.085 280.907L442.043 280.303L439.794 279.919L438.807 278.932L437.985 275.968L438.698 273.883L437.546 272.895L435.571 272.676L433.762 272.84L433.213 272.237L432.5 271.798H431.623L430.636 272.237L430.032 270.426L429.1 269.493L427.729 269.164H425.7V268.56L426.687 268.121L426.797 267.463L426.248 265.707L426.029 265.323L425.425 264.499L425.316 263.951L426.138 262.853L426.358 262.359L425.919 260.823L424.987 259.122L423.835 258.299L422.628 259.286L421.751 258.518L419.064 257.86L417.747 257.421L416.321 256.597L416.267 256.323L417.089 256.104L418.296 255.5L419.886 254.183L420.599 253.305L420.819 252.482L420.161 250.726L419.283 250.836L418.351 251.549L417.473 251.494L416.212 251.22L414.676 251.714H413.36L412.812 250.232L413.36 246.171L413.799 242.824L414.786 240.574L416.321 239.422L418.296 240.08L418.68 239.641L419.393 238.653L419.612 238.214L418.406 237.172L415.005 232.891L414.018 232.452L413.141 232.343L412.482 232.068L412.208 231.026L412.537 229.928L413.854 228.062L414.073 226.965L413.579 226.087L411.44 224.825L411.002 224.166L410.892 223.288L410.508 221.971L410.453 221.148L411.386 220.984L415.828 221.038L417.144 220.764L417.857 219.831L418.076 218.898L417.912 218.02L417.473 217.307L416.541 216.319V215.99L416.925 215.77L417.309 214.618L417.802 213.96L417.747 213.301L417.473 212.917L416.541 212.752L416.047 212.039L415.554 211.49L415.334 210.777L415.938 209.57L416.212 209.899L417.418 209.679L419.283 209.021L420.27 206.167L419.448 204.411L416.157 202.546L415.938 200.954L416.431 200.46L417.967 199.967L418.68 198.759L421.148 196.839L421.312 195.577L420.764 193.601L420.38 193.107L419.886 191.735L419.009 190.967L419.941 187.729L420.819 186.467L422.354 185.973L425.042 185.919L426.248 185.589L426.961 184.766L425.59 184.382L425.864 183.614L427.564 182.242L429.813 178.565L430.361 177.962L431.458 178.291L432.336 178.73L432.939 178.401L433.158 176.425L432.72 175.218L431.732 174.12L430.526 173.462L429.374 173.572L429.21 173.078L428.826 172.968L429.539 172.035L429.868 171.816L430.636 171.706V171.047L428.935 169.621L426.248 166.438L424.822 165.176L423.396 162.981L424.109 161.389L426.029 160.237L428.222 159.304L429.429 159.085L430.69 159.03L431.678 158.646L431.897 157.438L431.184 156.451L429.868 155.628L428.387 155.079L425.206 154.311L424.493 152.829L424.822 150.799L425.7 148.713L426.577 150.085L427.564 151.183L428.277 151.018L428.222 148.713L427.619 147.287H426.577L425.096 147.835L423.287 148.055L423.451 147.726L423.945 147.506L422.683 146.134L423.78 143.061L422.354 142.512L419.667 142.677L419.009 142.512L418.625 141.799L418.406 140.756L418.131 139.824L417.473 139.385L416.486 139.22L414.676 138.287L411.002 137.519L408.589 135.927L406.121 133.842L405.627 134.226L403.653 134.391L402.282 134.83L400.581 135.653L400.033 136.366L399.978 137.025L399.759 137.299L398.717 136.915L398.004 135.873L397.62 135.049L397.455 134.391L397.675 132.909L398.114 131.976L398.388 130.989L398.168 129.397L397.894 129.068L397.126 128.355L396.907 127.586L396.962 126.818L397.455 125.391L397.565 124.513L398.059 123.581L398.168 122.867L397.949 122.209L397.126 120.727L396.688 117.709L395.975 116.502L393.507 114.197L392.958 113.429L392.684 112.77L392.574 112.057V111.069L392.355 110.081L391.861 109.533L391.148 109.149L390.435 108.6L386.487 103.277L385.39 102.783L385.938 102.125L387.145 99.8198L387.364 98.6674L387.09 96.5273V95.7041L387.584 94.881L390.271 92.0275L388.845 91.5885L390.052 90.5459L391.587 89.9423L394.933 89.5582L396.633 88.6253L399.156 85.0035L400.801 83.7414L402.336 83.5768L407.437 85.0584L408.369 85.6072L408.863 85.7718L409.466 85.662L409.74 84.5097L411.111 83.8512L411.879 83.5768L414.731 83.5219L415.279 82.2598L415.663 80.7782L417.034 80.0648L418.954 79.5709L422.299 77.3759L424.109 76.8272L430.032 76.7174L431.787 76.2235L432.555 75.6199L433.981 74.0834L434.858 73.4798L436.175 73.0408L440.507 72.5469L441.22 72.6018L442.372 73.2603L442.92 73.4249L443.414 73.0957L444.237 72.1079L444.566 71.8884L445.772 72.2726L446.43 72.931L447.034 73.6444L447.966 74.3578L449.502 74.687L454.876 73.9737L468.971 75.126L470.068 75.565L471.658 76.9918L472.591 77.5405L473.413 77.2113L474.455 76.5528L475.388 76.2235L475.772 76.8272L475.717 78.638L475.881 80.5038L476.759 81.711L478.898 81.4915L480.159 80.2294L483.175 75.8943L484.546 74.9065L485.643 75.565L485.698 77.321L485.479 79.4612L485.863 81.3269L487.453 82.2049L489.482 82.2598L491.512 82.7537L493.321 84.9487L494.473 89.3386L495.351 91.4239L496.886 92.7409L498.531 92.8506L501.603 91.9178L503.303 92.3019L504.674 93.7286L505.771 95.8688L507.361 100.094L511.858 108.819L520.743 120.782L522.827 122.373L524.966 122.538L526.611 121.056L528.805 116.392L531.602 113.703L532.863 115.294L532.918 116.557L532.589 119.465L532.699 120.178L533.138 121.715V124.129L532.644 125.666L531.602 126.379L530.395 126.928L529.463 128.135L529.299 129.836L530.011 131.263L531.273 132.196L532.863 132.525L534.234 133.348L534.125 135.049L533.083 136.805L530.231 138.287L529.189 139.933L527.598 143.116L525.734 145.092L525.35 145.86L525.185 150.414L524.801 151.841L523.979 153.103L524.856 153.597L525.405 154.201L526.118 154.695L527.324 154.914L529.628 155.024L531.931 155.518L534.18 156.725L534.728 158.207L534.838 160.072L536.264 164.298L536.757 164.737L537.36 164.792L537.854 165.011L538.073 165.834L538.183 167.371L539.993 173.681L539.938 174.944L538.951 175.492L538.293 176.041L538.073 177.248L538.512 177.962L539.335 177.578L539.774 179.004L543.887 204.411L548 229.764L547.397 231.135L543.338 233.55L542.132 233.934L541.09 233.824L539.993 233.276H539.225L538.677 233.769L538.019 234.977L537.635 236.403L537.854 237.556L539.061 240.19L539.609 242.33L539.554 243.921L538.677 245.074L536.812 246.061L531.492 247.817L529.847 249.025L525.734 253.744L524.253 255.006L523.704 254.183L523.101 253.799L522.553 253.854L522.279 254.512L521.895 261.262L521.62 262.25L520.907 263.018L518.878 264.225L518.11 264.993L518.056 265.432L518.33 266.585L518.275 267.079L517.946 267.682L517.014 268.78L516.685 269.383L510.213 283.322L509.007 286.943L504.674 314.655L504.729 315.698L505.277 316.96L505.88 317.728L506.319 318.442L506.209 319.704L505.442 321.46L501.328 326.618L500.89 327.496L500.122 332.05L499.683 332.654L495.241 334.136L495.131 334.191Z" fill="#009649" stroke="white" stroke-width="2" stroke-linejoin="round"></path>
<path class="region" data-country-region="South Region" d="M199.362 401.851L200.459 415.735L201.61 420.015L203.365 424.789L205.12 427.917L205.669 428.63L207.588 430.331L208.301 431.209L208.74 431.868L209.453 433.24L209.727 434.008L209.892 434.721L210.331 439.77L210.605 440.648L210.934 441.197L211.976 442.02L212.415 442.514L212.908 443.337L215.595 449.318L220.751 447.836L222.835 447.782L223.493 448.056L225.632 449.373L226.016 449.922L226.729 451.568L228.703 453.214L228.977 453.543L229.251 454.421L229.087 455.958L229.251 456.507L230.019 457.001L230.293 457.275L230.513 458.318L231.116 459.305L232.268 460.732L233.2 462.214L233.145 463.092L232.707 464.409L232.816 465.89L233.365 467.043L233.803 468.908L234.297 469.622L235.229 470.719L236.107 471.323L236.984 471.707L237.368 472.201L237.862 473.024L239.288 472.805L250.476 469.018L258.099 494.535L257.276 500.297L250.092 502.108L249.214 502.492L248.501 502.986L247.569 503.919L246.966 505.126L246.582 506.553L246.527 507.65L247.734 516.595L247.788 516.869L237.697 519.997L236.217 520.82L235.558 521.643L234.516 521.588L229.8 523.344L222.725 526.966L198.265 535.197L197.497 535.801L196.949 537.173L195.633 537.886L186.145 540.191L184.335 540.41L182.854 540.904L180.496 543.209L179.015 544.142L167.717 547.489L158.723 548.093L156.42 549.19L154.281 549.739L153.294 550.288L150.771 553.361L145.945 557.422L140.405 560.824L136.731 561.921L130.095 562.635L124.775 564.94L123.678 565.653L122.746 567.409L121.814 567.574H120.662L119.784 567.848L118.194 569.22L113.368 571.854L106.348 577.725L104.703 578.329L102.564 578.164L98.6698 577.396L97.189 577.561L94.2275 575.53L93.7339 574.433L93.8436 573.555L94.8308 571.854L95.105 570.976L94.9404 570.153L94.3372 568.342L94.5017 566.037L94.3372 565.104L94.063 564.281L93.9533 563.458L94.3372 544.252L93.9533 539.532L93.7339 538.764L93.1855 538.106L92.4725 537.557L91.8144 536.898L91.3208 535.856L91.3756 535.088L91.8692 533.222L91.9789 532.179L91.3756 529.436V528.557L94.1178 526.417L95.3244 526.527L96.0373 527.076H96.4212V525.704L95.8728 524.003L95.0501 522.796L94.4469 521.588L94.5565 519.613L93.8436 514.4L94.063 512.863L95.1598 511.217L96.6406 510.559H98.1762L99.4376 511.107L101.851 506.717L102.344 505.126L102.454 503.589L101.686 499.364L102.618 496.401L103.002 495.578L103.661 494.755L106.019 493.492L106.238 493.218L107.225 493.438L107.116 493.767L106.622 494.206L106.732 494.7L107.006 495.248L107.061 495.962L107.225 496.291L108.103 495.907L108.542 495.358L108.871 493.877L109.09 493.273L110.187 491.736L110.735 490.804L110.79 489.816L110.571 488.06L110.077 486.359L109.419 486.249L108.487 486.414L107.116 485.645L106.293 484.438L105.69 482.902L105.306 481.31V479.883L106.567 480.542L106.951 479.554L106.896 476.207L107.554 474.89L108.596 474.012L109.09 473.298L107.993 472.256L108.596 472.311L110.351 472.201L109.145 470.61L108.706 468.908L109.364 467.811L111.229 468.14L110.077 466.713L108.213 462.817L109.803 462.488L137.17 457.165L138.321 429.398L137.883 421.332L136.895 417.491L135.689 399.821L135.25 387.858L135.744 385.06L136.731 384.182L137.444 383.743L138.87 383.194L139.528 382.59L140.68 380.889L140.899 380.67L142.325 379.846L142.764 379.627L145.177 379.078L145.835 379.023L148.851 381.602L149.619 383.249L149.784 384.236V385.608L149.455 386.377L149.126 386.596L147.754 386.98L146.877 387.529L146.493 388.242V388.736L148.303 393.455L158.668 405.912L159.984 406.79L160.972 407.064L173.86 407.01L174.682 406.79L175.67 406.296L182.306 401.303L183.073 400.864L184.061 401.248L188.503 403.937L190.093 404.485L191.629 404.43L197.168 402.181L199.362 401.851Z" fill="#009649" stroke="white" stroke-width="2" stroke-linejoin="round"></path>
<path class="region" data-country-region="South Region" d="M286.343 510.449L285.027 498.322L285.685 495.962L286.837 496.127L287.769 496.456L288.592 496.895L293.253 500.901L294.241 501.559L295.666 502.163L296.818 501.724L298.08 501.559V502.218L297.367 502.986L295.283 504.029L294.405 504.632V502.876L293.144 506.608L292.54 507.76L289.524 503.425H288.866V504.632L287.659 504.029L288.976 506.553L292.65 508.254L297.038 508.693L300.602 507.76L299.122 506.663L297.641 506.717L296.05 506.937L294.405 506.553V505.949L295.337 506.004L296.05 505.894L297.421 505.236L297.915 504.852L299.012 503.699L299.341 503.425L300.712 503.699L302.193 504.468L303.619 504.852L304.88 504.029L305.977 504.687L307.074 504.961L307.951 504.577L308.5 503.425L306.909 503.644L306.141 502.931L305.538 501.998L304.277 501.559V500.956L305.483 501.559L308.445 501.12L313.874 504.303L316.178 503.699L317.439 502.712L318.646 502.547L321.717 502.876L322.101 503.535L322.594 505.071L323.362 506.717L324.459 507.76L301.864 508.473L298.354 509.79L286.343 510.449ZM351.442 403.882L372.776 409.095L355.226 442.075L372.886 453.544L375.079 458.153L374.695 459.525L375.573 460.568L376.944 461.555L381.167 463.97L383.799 465.122L386.706 465.232L420.38 463.421L421.367 462.488L421.586 461.226L420.983 451.129L422.848 448.44L424.164 447.837L424.877 447.672L425.919 447.288L427.016 446.3L430.8 442.349L437.381 438.124L438.149 437.795L438.862 437.685L439.465 437.795L461.896 443.94V444.544L462.116 446.684L462.774 447.672L463.761 448.221L464.913 449.099L466.284 450.91L466.668 451.623L466.613 452.062L466.229 452.83L465.242 453.928L464.967 454.641L464.474 461.72L464.584 462.653L464.913 463.037L465.735 463.531L466.174 464.299L466.338 465.067L466.777 469.073L467.38 470.61V471.323L467.216 472.256L466.393 474.67L464.748 478.402L464.474 479.39L464.419 481.53L465.077 487.95L464.364 491.956L464.419 492.999L464.638 493.877L465.187 494.535L466.887 495.962L467.435 496.62L467.71 497.498L467.764 497.992L465.516 500.023L455.534 505.181L447.198 503.425L443.03 503.151L440.233 502.602L439.52 502.382L439.191 501.888L439.356 501.065L439.575 500.462L439.41 499.803L438.533 499.035L439.191 497.883L438.259 498.651L437.546 499.803L437.052 501.12L436.833 502.218H436.12L435.078 501.614L433.323 501.449L429.703 501.559L428.497 501.23L424.493 499.035L418.186 498.267L415.389 497.389L414.073 495.358L415.718 495.907L417.638 495.742L419.283 494.864L420.27 493.547L421.532 495.139L422.19 495.797L422.957 496.072L423.506 495.797L423.78 495.303L423.67 494.645L423.232 494.151V493.547L424.493 493.822L427.564 495.084H428.168L429.1 494.81L431.129 495.578L434.365 497.334L434.146 496.73L433.981 495.852L433.762 495.358L435.133 495.413L437.546 495.742L438.533 495.358L439.685 493.932L439.136 493.163L437.985 492.505L437.381 491.407L436.339 488.389L436.12 487.127L435.846 486.414L435.078 485.92L434.091 485.81L433.158 486.139L432.555 485.755L431.732 485.536L430.965 485.645L430.636 486.469L430.91 486.962L432.829 488.334L435.078 491.407L436.449 492.834L437.985 493.547L437.162 494.7L435.791 494.59L434.255 494.261L433.158 494.81H432.445L431.349 493.438L430.526 493.108L429.594 493.163L428.168 492.944L427.235 492.615L426.193 492.011L425.371 491.133L425.151 489.981L424.164 490.749L423.945 491.133L423.561 490.365L423.287 489.706L423.177 488.938L423.232 488.005H422.628L422.519 489.267L422.08 490.365L421.312 490.913L420.27 490.529L419.557 491.023L418.57 491.188L417.528 491.023L416.541 490.529L414.457 490.859L413.415 491.133L414.292 491.956L415.663 492.285L417.144 492.176L418.296 491.682L419.557 492.944L418.406 493.877L416.87 494.755L415.225 495.139L413.744 494.48L412.647 493.822L410.673 492.944L408.808 492.395L407.985 492.669L407.217 493.438L405.572 492.999L402.995 491.682L401.843 492.066L400.856 492.669L399.923 492.944L398.662 492.34L398.168 492.889H397.565L396.962 492.45L396.304 491.682L393.836 493.328L392.684 493.822L391.368 493.547L391.532 493.108L391.807 492.066L391.971 491.682L389.668 491.243L388.68 491.407L387.638 492.34L386.98 491.737L386.158 491.352H385.445L384.896 492.779L383.47 493.932L382.812 494.81L382.154 494.151L381.057 493.328L379.906 492.615L379.138 492.34L378.151 492.889L377.218 493.712L376.286 493.986L375.408 492.944L375.847 492.669L376.067 492.34L372.721 492.505L371.46 493.108L371.131 494.81L371.953 494.371L372.721 494.48L373.27 495.084L373.599 496.072L371.898 495.633L365.537 495.358L365.208 494.535L364.769 493.767L363.782 492.34L363.288 493.218L363.233 493.932L363.617 494.48L364.33 494.81V495.358L362.74 495.688L361.478 496.236L359.449 497.883L357.804 496.785L355.884 496.95L354.184 497.663L353.307 498.486H352.703L352.1 498.212L351.332 497.773L350.674 497.224L350.29 496.675L351.332 496.181L352.21 496.291L353.142 496.566L354.513 496.675L354.294 495.797L354.02 495.249L353.526 494.919L352.703 494.81V494.151L353.636 493.712L354.239 493.108L354.513 492.23V491.133H353.965L352.868 493.218L351.332 494.316L349.468 494.755L347.164 494.81L349.577 496.675L347.767 498.267L344.477 499.639L342.283 500.956L341.735 502.273L341.844 503.096L342.667 503.644L344.093 504.029L345.683 504.138L347.274 503.864L348.206 503.205L347.767 502.218V501.559L350.016 500.956L351.168 500.352L351.99 501.34L352.703 501.559L353.8 501.285L355.665 500.517L356.981 500.352H359.778L360.601 500.517L361.204 500.901L361.862 501.559L363.233 501.779L364.166 501.614L365.317 501.065L364.22 500.956L363.343 500.571L363.124 499.748L363.672 499.254L366.798 498.486V499.748H367.456L369.431 498.761L374.695 499.09L377.273 497.883L377.712 499.2L378.425 498.706L379.138 497.444L379.741 496.675H381.386L382.757 497.334L384.019 497.663L385.171 496.675L386.871 497.334L388.626 497.059L390.381 496.401L394.055 495.742L396.359 494.425L397.784 494.151L408.863 493.877L411.66 494.81L410.782 495.194L409.905 495.413H408.972L407.985 495.358L414.621 498.486L358.681 503.096L343.983 506.388L335.867 507.102L334.331 507.76L333.344 507.266L332.302 507.102L327.476 506.992L326.324 507.102V506.553H327.476V505.949H324.953L324.349 504.907L324.404 503.26L323.801 501.559L324.953 500.187L323.856 499.913L318.975 500.517L317.33 501.01L315.849 501.834L314.642 502.876L313.161 501.559L310.584 500.242L307.567 499.639L304.88 500.352L303.728 499.254L304.606 498.87L310.2 498.431H311.406L312.229 498.541L313.545 499.529L314.532 499.913H315.191L315.684 499.748L316.397 499.09L316.836 498.541L319.962 491.572L320.127 490.529L319.962 488.389L320.072 487.072L320.401 486.084L326.05 472.475L327.037 469.183L327.201 467.921L327.256 466.823L326.872 464.903L326.708 464.464L325.885 462.872L325.391 462.159L325.117 461.281L325.337 460.568L330.272 447.727L325.83 439.276L324.788 432.307L324.349 421.222L324.02 419.302L323.088 418.479L321.717 418.04L312.558 416.942L308.938 415.46L302.796 409.644L305.483 402.345L305.648 399.931L305.538 399.382L305.429 396.254L306.964 395.157L307.403 394.992H307.951L308.719 395.321L322.485 406.626L324.075 407.558L327.092 407.997L329.505 408.052L330.327 407.943L335.812 406.296L336.579 406.241L337.841 406.351L339.212 406.68L340.418 407.065L340.912 407.119L341.79 407.449L344.587 407.558L347.164 407.394L349.248 406.461L351.442 403.882Z" fill="#009649" stroke="white" stroke-width="2" stroke-linejoin="round"></path>
<path class="region" data-country-region="North Region" d="M270.055 200.79L270.548 202.271L277.842 206.497L276.855 207.594L276.087 207.978L273.839 207.814L272.194 207.21L271.371 207.1L270.603 207.32L269.726 207.759L269.287 208.143L270.384 209.021L272.907 212.039L273.839 212.752L274.278 212.917L274.991 213.795L275.704 213.96H278.83L279.268 214.234L279.543 215.441L279.707 215.77L284.04 216.813L284.588 217.033L286.398 218.295L287.44 218.789L288.263 219.502L289.195 221.477L289.524 222.026L290.566 222.52L291.827 222.904L292.979 223.618L293.747 225.154H291.937L293.582 229.544L293.747 231.904L292.54 233.824H291.224L289.908 233.879L288.647 234.318L289.689 236.403L289.469 237.666L288.756 238.489L287.659 238.214L286.946 239.422L285.74 238.818L284.259 238.434L282.943 238.653L282.23 240.08L280.749 239.696L278.062 239.641L276.581 240.135L276.691 241.507L276.636 242.275L276.362 242.769L275.813 243.373L270.603 246.83L268.3 247.817L264.461 248.421L261.444 248.202L260.622 248.256L259.251 248.421L258.428 248.695L257.605 252.976L257.66 253.854L258.044 255.445L258.483 256.872L258.428 257.969L258.154 258.957L257.77 259.835L256.508 261.591L256.289 262.03L255.905 263.512L255.85 264.06L255.96 265.213L256.179 266.201L256.618 267.572L256.563 268.286L256.289 269.109L255.412 270.426L254.918 270.975L253.437 271.908L250.805 271.962L249.872 272.182L248.611 272.621L246.856 273.773L245.211 274.651L243.565 275.255L236.655 272.511L235.394 272.237L234.461 272.456L231.555 274.542L229.032 276.901L228.758 277.889L228.648 278.602L228.922 280.633L228.319 281.62L225.687 283.212L224.096 280.962L222.615 279.974L220.202 279.261L216.802 277.834L215.979 277.285L215.595 276.737L215.266 273.938L214.992 273.005L213.95 271.304L212.853 268.889L210.111 268.78L196.784 272.017L194.097 272.127L192.013 272.017L178.686 268.121L145.89 270.042L143.312 270.645L141.338 271.853L139.199 274.103L138.212 271.743L137.663 268.56L137.279 262.689L137.115 262.03L136.347 261.042L136.128 260.164L136.237 258.683L136.402 258.079L136.731 257.421L137.663 256.268L138.596 255.39L139.199 254.348V252.482L138.102 249.683L136.566 245.897L136.128 244.031V240.903L136.347 240.135L137.17 238.928L137.279 238.214L136.786 236.733L136.018 235.525L135.579 234.318L136.128 232.562L135.086 231.355L133.934 228.995L133.385 226.745L134.318 225.264L134.263 221.203L134.208 220.709L134.482 220.215L135.524 219.502L133.769 218.404L132.398 216.923L131.521 215.167L130.643 209.57V205.893L130.095 203.808L128.943 201.283L128.45 197.881L127.791 196.015L126.859 194.314L125.707 193.436L126.749 193.052L126.914 192.613L126.256 192.229H124.994L125.872 190.528L126.201 188.772L126.311 185.425L127.353 181.035L127.517 179.498L127.682 178.73L128.504 177.962L128.669 177.303L128.504 176.59L127.737 175.053L127.517 174.505L127.408 172.858L127.024 171.432L126.311 170.389L124.994 169.895L125.707 169.072L126.091 168.249L126.311 167.316V166.109L126.859 165.066V164.517L125.982 164.298L125.323 164.243L124.94 164.023L124.72 163.639L124.94 163.091L126.146 163.036L128.395 162.377L129.656 161.444L131.082 160.127L132.179 159.414L133.002 158.426L133.166 158.042L133.55 157.658L134.044 157.438L134.592 157.384L135.415 157.603L136.073 157.987L136.402 158.316L137.115 158.701L137.663 158.81L139.199 158.701L139.692 158.755L140.405 159.304L141.393 160.786L141.667 161.115L142.435 161.609L142.928 161.774L144.025 161.883L145.451 161.774L148.029 161.225L148.632 161.389L149.454 161.883L149.948 162.103L150.606 162.213L151.648 162.103L152.635 162.542L153.294 163.145L153.897 163.31L154.061 162.761L154.116 162.213L153.677 158.097L153.568 156.725L153.677 156.121L153.842 155.463L154.445 154.585L154.829 153.378L155.323 152.829L156.255 152.335L159.82 151.512L160.917 151.128L162.014 150.36L162.836 149.975L165.03 149.372L168.321 147.396L171.501 147.835L170.789 148.439L170.734 149.262L171.776 150.469L172.434 151.073L173.256 151.457L180.88 152.006L181.702 151.731L182.635 151.183L184.17 149.811L184.719 148.988L184.883 148.384L184.115 146.683L183.951 145.695L184.28 144.817L184.883 144.214L186.09 143.829H187.351L188.064 143.994L188.558 144.214L189.49 145.092L190.038 145.86L190.368 146.518L191.08 148.494L191.519 149.262L192.013 149.975L192.671 150.634L193.439 151.128L193.932 151.238L194.755 150.908L195.742 150.085L197.552 148L199.142 145.75L199.636 145.366L200.678 144.927L201.994 144.762L202.488 144.378L202.981 143.39L203.53 141.415L204.133 140.098L205.011 139.439L207.479 138.946L209.234 139.439L210.44 139.494L211.482 139.714L213.402 140.866L215.541 143.555L215.924 144.378L215.979 145.421L215.87 145.915L215.376 146.738L214.389 147.671L213.84 148.329L212.524 150.853L212.305 151.896L212.36 152.445L212.579 153.378L212.963 154.201L213.895 155.573L214.169 156.067L214.663 157.438L215.047 158.097L220.915 161.883L222.615 162.761L223.054 163.091L223.383 163.53L223.602 164.298L223.712 165.505L223.822 165.999L225.412 169.237L239.068 190.693L239.781 191.132L258.209 197.936L270.055 200.79Z" fill="#009649" stroke="white" stroke-width="2" stroke-linejoin="round"></path>
<path class="region" data-country-region="South Region" d="M461.896 443.94L439.465 437.794L438.862 437.684L438.149 437.794L437.381 438.123L430.8 442.349L427.016 446.3L425.919 447.288L424.877 447.672L424.164 447.836L422.848 448.44L420.983 451.129L421.586 461.226L421.367 462.488L420.38 463.421L386.706 465.232L383.799 465.122L381.167 463.97L376.944 461.555L375.573 460.567L374.695 459.525L375.079 458.153L372.885 453.543L355.226 442.074L372.776 409.095L375.573 404.43L375.957 404.156L376.45 404.101L377.108 404.595L377.437 404.979L378.041 406.351L378.644 406.954L379.905 407.613L382.099 409.095L383.141 409.918L383.689 410.192L386.706 410.905L389.667 411.948L391.587 412.332L392.026 412.607L393.945 412.168L401.13 408.217L401.294 406.9L401.239 405.747L400.746 404.375L400.362 402.455L400.417 401.522V400.534L400.526 398.943L400.307 397.406V395.65L400.746 393.62L401.514 391.919L402.007 391.151L404.256 388.681L404.64 387.968L405.023 386.87L405.517 386.321L406.285 385.718L411.166 384.072L434.419 372.767L434.913 373.755L436.065 373.371L437.381 373.152L439.355 373.206L439.849 373.152L441.11 371.67L441.988 371.176L442.865 371.944L443.085 373.097L442.372 375.731L442.317 376.883L442.646 377.432L443.798 378.31L444.182 378.694L444.401 379.407L444.62 380.889L445.059 381.493L445.443 382.371L445.991 386.486L445.827 387.09L444.894 387.968L444.73 388.297L444.84 389.01L445.388 390.163L445.772 390.711L447.527 392.522L448.13 392.852L449.063 397.242L450.927 396.967L452.627 397.516L454.053 397.461L455.205 395.376L458.934 399.601L461.018 402.564L462.28 406.241L462.883 407.119L462.773 407.613L461.018 407.778L460.47 408.107L460.689 408.875L461.128 409.534L461.567 409.808L462.225 410.741L462.719 411.783L462.554 412.113L463.596 412.222L464.035 410.741L465.022 410.247L466.174 410.796L467.654 413.924L468.367 414.637L468.696 419.192L468.093 420.289L466.887 421.057L465.79 422.045L465.57 423.801L466.064 423.582L467.49 423.197L466.832 425.063L468.258 425.831L469.245 427.368L469.355 429.179L468.367 430.935L467.545 431.374L466.612 431.593L465.845 431.923L465.57 432.801L465.461 433.953L465.241 434.941L462.389 440.538L462.006 442.129L461.896 443.94Z" fill="#009649" stroke="white" stroke-width="2" stroke-linejoin="round"></path>
<path class="region" data-country-region="South Region" d="M138.102 249.683L139.199 252.482V254.347L138.595 255.39L137.663 256.268L136.731 257.42L136.402 258.079L136.237 258.683L136.127 260.164L136.347 261.042L137.115 262.03L137.279 262.688L137.663 268.56L138.212 271.743L139.199 274.102L139.254 275.145V276.133L138.979 277.011L138.541 277.834L139.089 279.316L140.076 283.267L140.679 284.09L142.654 283.486H143.641L144.464 285.077L146.438 285.297L147.151 285.901V287.657L145.835 288.644L144.244 289.358L143.476 290.565L143.97 292.705L144.08 293.638L143.97 293.912L143.586 294.296L143.476 294.845L143.751 295.174L144.957 295.888L145.286 296.437L145.067 298.851L143.531 299.839L141.776 300.442L140.954 301.705L140.679 302.692L140.076 303.57L139.473 304.284L138.979 305.107L138.157 305.491L137.992 306.04L138.047 306.643L138.431 307.576L139.254 312.131L139.418 314.326L138.87 315.917L138.431 316.85L138.595 317.838L138.979 318.825L139.199 319.649L138.595 322.722L138.541 323.709L141.996 331.995L142.105 333.367L141.776 334.63L140.241 339.788L139.802 342.586V343.629L140.021 345.495L139.363 345.44L135.14 344.726L133.824 344.178L131.63 342.696L131.246 342.477L130.314 342.422L123.404 343.19L120.387 342.422L118.633 342.312L110.241 343.739L107.664 344.452L106.786 344.562L97.2985 344.617L91.54 345.495L90.4431 347.58L90.2786 348.238L89.8947 352.903L88.6881 353.177L73.7159 353.397L72.29 353.287L70.9738 353.013L70.1511 352.189L69.7672 351.586L68.7252 348.732L68.3413 347.909L67.9025 347.525L67.1896 347.141L65.0507 346.537L63.7893 346.318L63.1312 345.989L62.3634 345.55L60.4439 343.794L59.2922 342.97L56.9887 341.983L54.9595 342.641L51.4496 346.043L50.4624 346.592L49.6946 346.757L49.2559 346.647L48.9816 346.921L48.3235 347.964L47.1718 348.568L47.0621 348.842L47.3363 349.446L46.9524 350.653L46.2395 352.189L46.0201 353.232L46.1846 353.561L46.7879 353.671L47.0073 354L47.8848 356.195L47.8299 356.744L46.1846 357.567L45.362 358.226L43.8264 359.104L43.3328 359.817L42.2908 360.585L42.0714 360.915V361.847L41.7423 363.658L41.3584 364.646L40.6455 365.359L40.097 365.689L39.6035 365.744L39.2744 365.579L39.055 364.811L38.8357 364.536L38.2872 364.591L36.5322 365.689L36.2032 366.183L36.3129 366.567L36.9161 367.829V368.432L36.6419 368.652L34.8321 369.036L33.8998 368.871L33.6804 369.091L33.8449 369.804L33.8998 370.298L33.6255 371.396L33.7352 372.329L33.6804 372.877L33.0223 373.207L30.8285 374.908L30.2253 375.017L29.0736 375.402L28.3606 375.786L27.3734 376.499L26.7153 376.444L25.8927 376.115L17.1177 370.463L16.5145 370.243L24.5764 361.189L25.8378 359.213L26.9895 356.579L27.7025 353.891L27.867 352.628L27.8122 351.421L27.3734 350.872L26.6056 350.379L26.1669 349.72L27.3186 347.196L27.4283 345.824L27.3186 344.342L27.4283 342.696L27.9219 341.928L29.7317 340.501L30.3898 339.678L30.6092 337.483L29.0736 328.868L28.9639 326.673L28.7445 325.85L28.1961 324.917L26.8798 323.545L26.5508 322.996L26.4411 322.447L26.6605 321.295L26.6056 320.691L26.2766 319.978L25.1797 318.606L24.741 317.893L24.028 315.094L23.4796 313.942L21.9439 311.747L21.3407 310.649L20.8471 308.893L19.8051 300.168L17.9404 293.748L16.3499 290.565L12.6206 288.699L16.679 284.913L18.9276 283.706L21.0665 286.175L22.7118 286.065L25.8927 285.077L28.909 285.846L32.3093 288.535L35.5451 289.961L38.1227 287.053L38.1775 286.394L37.9033 284.913V284.254L38.3421 283.212L40.1519 280.907L40.5358 280.578L41.5778 280.029L41.9069 279.645L41.9617 279.261L41.7423 278.383L41.7972 277.999L44.649 274.706L45.0878 273.389L45.4168 270.371L45.7459 268.889L46.1846 268.395L46.7879 268.066L47.2815 267.572L47.446 266.639L47.0073 265.652L44.9781 263.896L44.32 262.963L44.5393 259.341L48.9816 252.537L49.914 249.025L50.0237 246.83L49.8591 246.061L51.2302 246.116L55.0144 245.513L55.8919 245.787L56.7145 246.555L57.8114 247.214L59.4019 247.323L59.1276 246.281L62.4731 247.708L64.5571 248.092L65.1604 247.927L65.4346 247.433L65.8733 247.104L66.4766 247.049L67.6283 247.488L68.9994 248.75L69.493 250.012L69.9866 250.671L70.0963 251.055L69.8221 251.768L69.8769 252.152L70.206 252.372L70.8092 252.537L72.0706 253.195L72.7836 253.799L73.6062 254.347L74.2095 255.719L75.1418 256.652L76.0742 258.189L76.5129 258.573L77.4453 258.847L79.3099 259.122L80.7907 259.615L81.5037 260.109L81.8327 260.603L82.765 261.262L82.9844 261.646L83.2586 262.469L83.5877 262.688L83.9716 262.579L84.6297 261.92L84.9588 262.03L85.7266 262.963L86.2202 262.908L86.8783 262.688L88.2494 261.975L89.2365 260.987L89.6753 260.658L90.2786 260L90.827 260.329L91.2657 261.152L91.7045 261.262L92.3626 261.207L93.1304 260.878L93.8982 260.932L95.2145 260.768L96.0371 260.274L96.9146 259.451L97.7921 259.067L98.3405 259.012L99.2729 257.859L99.8761 257.42L100.095 257.146L99.6568 256.103L99.7116 255.719L101.138 254.622L101.247 254.128L101.138 253.14L101.028 250.342L100.863 249.683L100.26 248.695L100.095 247.708L100.37 246.83L100.863 246.006L100.644 245.622L99.8761 244.689L99.6019 243.647L99.7664 241.397L100.534 238.324L100.863 237.72L101.302 237.117L101.96 236.568L103.386 235.525L103.989 234.922L104.538 234.208L105.36 233.605H106.128L106.786 233.824L108.103 234.977L109.09 235.69L109.912 236.568L110.625 237.72L111.064 238.05L111.777 238.324L114.903 239.092L116.439 239.806L119.729 241.946L120.333 242.604L123.349 247.543L124.172 249.189L126.804 249.738L138.102 249.683Z" fill="#009649" stroke="white" stroke-width="2" stroke-linejoin="round"></path>
<path class="region" data-country-region="North Region" d="M128.943 201.283L130.095 203.808L130.643 205.893V209.569L131.521 215.167L132.398 216.923L133.769 218.404L135.524 219.502L134.482 220.215L134.208 220.709L134.263 221.203L134.318 225.264L133.385 226.745L133.934 228.995L135.086 231.355L136.128 232.562L135.579 234.318L136.018 235.525L136.786 236.733L137.279 238.214L137.17 238.928L136.347 240.135L136.128 240.903V244.031L136.566 245.897L138.102 249.683L126.804 249.738L124.172 249.189L123.349 247.543L120.333 242.604L119.73 241.946L116.439 239.806L114.903 239.092L111.777 238.324L111.064 238.05L110.626 237.72L109.913 236.568L109.09 235.69L108.103 234.977L106.787 233.824L106.128 233.605H105.361L104.538 234.208L103.99 234.922L103.386 235.525L101.96 236.568L101.302 237.117L100.863 237.72L100.534 238.324L99.7666 241.397L99.6021 243.647L99.8763 244.689L100.644 245.622L100.863 246.006L100.37 246.83L100.096 247.708L100.26 248.695L100.863 249.683L101.028 250.342L101.138 253.14L101.247 254.128L101.138 254.622L99.7118 255.719L99.6569 256.103L100.096 257.146L99.8763 257.42L99.273 257.859L98.3407 259.012L97.7923 259.067L96.9148 259.451L96.0373 260.274L95.2146 260.768L93.8984 260.932L93.1306 260.878L92.3628 261.207L91.7047 261.262L91.2659 261.152L90.8272 260.329L90.2787 260L89.6755 260.658L89.2367 260.987L88.2495 261.975L86.8785 262.688L86.2203 262.908L85.7268 262.963L84.959 262.03L84.6299 261.92L83.9718 262.579L83.5879 262.688L83.2588 262.469L82.9846 261.646L82.7652 261.262L81.8329 260.603L81.5038 260.109L80.7909 259.615L79.3101 259.122L77.4454 258.847L76.5131 258.573L76.0744 258.189L75.142 256.652L74.2097 255.719L73.6064 254.347L72.7838 253.799L72.0708 253.195L70.8094 252.537L70.2061 252.372L69.8771 252.152L69.8222 251.768L70.0964 251.055L69.9868 250.671L69.4932 250.012L68.9996 248.75L67.6285 247.488L66.4768 247.049L65.8735 247.104L65.4348 247.433L65.1606 247.927L64.5573 248.092L62.4732 247.708L59.1278 246.281L58.9084 245.348L57.8116 243.372L56.3308 241.726L54.6855 240.684L54.1371 239.421V238.05L54.6855 235.306L55.3436 234.208L55.8372 232.946L55.7824 232.068H54.6855L49.256 233.934L48.4334 234.044L39.7133 231.355L32.2546 226.471L32.3643 225.483L33.8451 223.947L34.1193 222.904L33.8999 221.203V219.502L34.9968 214.344L34.8323 212.478L34.3935 211.325L33.7902 210.338L33.2967 209.35V208.307L33.7902 207.649L38.1229 204.192L39.3843 204.027L42.5652 204.686L44.4298 204.466L47.3914 203.259L49.2012 203.149L49.969 203.369L50.9562 204.247L51.5046 204.576H52.2724L53.8629 204.466L54.6855 204.576L57.318 203.917L58.6891 203.698L60.0053 203.972L61.1022 204.85L61.7054 206.003L62.199 207.32L62.912 208.527L63.8443 209.405L65.1606 210.118L66.5865 210.557L68.1221 210.612L69.6029 209.899L69.7674 208.637L69.548 207.155L69.8771 205.783L71.8514 205.454L73.7709 208.033L76.5679 213.74L78.5971 215.002L81.0651 215.331L86.2752 214.783L84.4105 210.941L83.8621 209.021L84.1363 206.826L84.7944 204.576V202.984L83.6976 199.198L83.4782 197.277L83.6976 193.82L83.204 192.119L82.6007 191.351L80.0779 189.65L79.2553 188.662L77.1164 184.766L76.4583 183.998L74.813 182.516L74.3742 182.022L73.6613 180.87L73.058 180.486L72.5644 180.431L71.5772 180.925L71.1933 180.98L65.8187 179.333L63.8443 179.114L59.7311 177.852L58.8536 175.053L60.4989 167.206L60.8828 162.761L61.3215 160.621L62.1442 158.426L63.5153 156.999L71.5772 152.829L73.2773 152.664H75.0323L77.1712 152.335L78.5971 151.237L79.694 151.512L81.9426 154.64L85.9461 162.212L86.4946 163.036L87.1527 163.639L87.9205 164.188L89.5658 164.956L92.3628 165.889L97.5729 170.499L98.231 171.212L100.699 175.108L101.302 175.712L104.593 177.632L108.542 182.242L109.309 182.736L110.351 183.23L112.326 184.492L113.368 185.534L114.245 187.126L116.658 190.418L117.865 191.625L118.633 192.119L119.455 192.503L120.442 192.778L121.101 193.107L123.349 194.589L124.172 195.357L124.665 195.906L125.269 197.277L126.037 198.649L128.943 201.283Z" fill="#009649" stroke="white" stroke-width="2" stroke-linejoin="round"></path>
<path class="region" data-country-region="South Region" d="M302.797 409.644L308.939 415.46L312.559 416.942L321.717 418.039L323.089 418.478L324.021 419.302L324.35 421.222L324.789 432.307L325.831 439.276L330.273 447.727L325.337 460.567L325.118 461.281L325.392 462.159L325.886 462.872L326.708 464.464L326.873 464.903L327.257 466.823L327.202 467.921L327.037 469.183L326.05 472.475L320.401 486.084L320.072 487.072L319.962 488.389L320.127 490.529L319.962 491.572L316.836 498.541L316.398 499.09L315.685 499.748L315.191 499.913H314.533L313.546 499.529L312.23 498.541L311.407 498.431H310.2L304.606 498.87L303.729 499.254L303.564 499.035H303.016L302.029 500.077L300.438 499.584L298.738 498.87L297.422 499.035H296.873L295.886 498.651L295.393 498.98L295.338 499.858L295.722 500.955L294.406 500.352V501.559L295.173 501.34L295.667 502.163L294.241 501.559L293.254 500.901L288.592 496.895L287.769 496.456L286.837 496.126L285.685 495.962L285.027 498.321L286.344 510.449L280.311 510.778L277.733 510.394L275.43 509.022L272.907 510.833L274.772 511.382L275.43 511.437L268.245 513.686L248.447 516.65L247.789 516.869L247.734 516.595L246.527 507.65L246.582 506.553L246.966 505.126L247.569 503.919L248.502 502.986L249.215 502.492L250.092 502.108L257.277 500.297L258.099 494.535L250.476 469.018L239.288 472.805L237.862 473.024L237.369 472.201L236.985 471.707L236.107 471.323L235.23 470.719L234.297 469.622L233.804 468.908L233.365 467.043L232.817 465.89L232.707 464.409L233.146 463.092L233.2 462.214L232.268 460.732L231.116 459.305L230.513 458.318L247.076 438.782L251.189 434.996L251.902 434.941L252.725 434.667L253.931 433.788L254.425 433.185L254.754 432.581L254.864 430.935L254.754 429.289L257.222 424.679V423.856L256.783 421.936L256.399 418.643L256.948 416.722L259.416 411.619L279.488 414.308L296.709 408.217L298.683 408.546L302.797 409.644Z" fill="#009649" stroke="white" stroke-width="2" stroke-linejoin="round"></path>
<path class="region" data-country-region="South Region" d="M225.687 283.212L208.247 292.925L206.985 293.912L206.053 295.943L205.395 298.193L204.298 300.333L199.527 307.521L195.249 316.082L195.414 318.002L197.498 317.179L198.485 316.631L199.582 316.301L200.404 316.411L201.282 317.124L201.94 317.893L202.488 318.606L203.092 319.1L203.859 319.429L205.23 319.484L208.247 320.033L210.66 320.088L212.47 319.868L214.28 319.429L214.883 318.167L215.047 316.795V314.216L215.157 313.722L215.431 313.338L216.254 313.009L216.802 312.954L218.009 312.899L219.764 313.064L223.767 314.106L224.48 315.039L224.919 316.246L225.413 316.905L226.016 317.234L228.374 318.057L232.433 320.307L233.53 320.691L235.175 322.008L235.504 322.173L237.698 322.447L241.262 324.203L240.33 325.301L240.056 325.685L239.891 326.343L239.233 326.618L238.027 326.892L235.504 327.112L233.53 327.441L217.406 337.867L216.254 339.074L215.76 340.611L215.596 342.147L215.486 345.275L215.651 347.086L216.144 349.062L219.435 355.811L219.654 357.293V360.366L220.367 363.713L223.822 368.323L226.948 372.658L226.619 374.853L227.223 377.926L231.5 382.426L230.568 387.913L229.8 390.108L227.661 394.279L226.894 395.266L226.345 395.65L225.632 395.157L223.987 394.279L223.109 394.004L222.287 394.224L217.077 398.614L216.309 399.053L215.322 399.272L210.824 398.943L209.563 399.108L207.973 399.492L205.285 400.589L201.995 401.522L199.362 401.851L197.168 402.181L191.629 404.43L190.094 404.485L188.503 403.937L184.061 401.248L183.074 400.864L182.306 401.303L175.67 406.296L174.683 406.79L173.86 407.01L160.972 407.064L159.985 406.79L158.669 405.912L148.303 393.455L146.493 388.736V388.242L146.877 387.529L147.755 386.98L149.126 386.596L149.455 386.377L149.784 385.608V384.236L149.619 383.249L148.852 381.602L145.835 379.023L145.013 378.365L144.738 377.981L145.013 376.444L147.81 372.164L147.59 369.585L147.755 368.378L148.139 367.5L148.303 366.457L146.768 358.774L146.384 357.677L145.89 356.854L144.738 355.427L143.532 354.33L141.722 353.671L141.338 353.452L140.625 352.574L140.241 351.805L140.077 351.092V350.379L140.461 349.391L141.174 348.403L141.338 347.47L140.022 345.495L139.803 343.629V342.586L140.241 339.788L141.777 334.63L142.106 333.367L141.996 331.995L138.541 323.709L138.596 322.722L139.199 319.649L138.98 318.826L138.596 317.838L138.431 316.85L138.87 315.917L139.419 314.326L139.254 312.131L138.431 307.576L138.048 306.643L137.993 306.04L138.157 305.491L138.98 305.107L139.473 304.284L140.077 303.57L140.68 302.692L140.954 301.705L141.777 300.442L143.532 299.839L145.067 298.851L145.287 296.437L144.958 295.888L143.751 295.174L143.477 294.845L143.587 294.296L143.971 293.912L144.08 293.638L143.971 292.705L143.477 290.565L144.245 289.358L145.835 288.644L147.151 287.657V285.901L146.439 285.297L144.464 285.077L143.642 283.486H142.654L140.68 284.09L140.077 283.267L139.09 279.316L138.541 277.834L138.98 277.011L139.254 276.133V275.145L139.199 274.102L141.338 271.853L143.312 270.645L145.89 270.042L178.686 268.121L192.013 272.017L194.097 272.127L196.785 272.017L210.111 268.78L212.854 268.889L213.951 271.304L214.993 273.005L215.267 273.938L215.596 276.736L215.98 277.285L216.802 277.834L220.203 279.261L222.616 279.974L224.097 280.962L225.687 283.212Z" fill="#009649" stroke="white" stroke-width="2" stroke-linejoin="round"></path>
<path class="region" data-country-region="South Region" d="M287.66 371.615V372.219L288.044 373.975L289.031 374.579L293.912 374.469L295.996 375.018L297.093 376.17L296.27 378.145L296.599 379.572L294.515 382.535L295.996 383.084L297.093 383.194L297.312 383.578L296.873 384.895L296.709 386.102L296.489 386.486L295.996 387.035L295.667 387.749L296.051 388.242L296.599 388.681L296.873 389.23L296.764 391.645L296.873 393.401L297.531 394.827L299.067 396.364L300.548 396.803L303.674 395.705L305.429 396.254L305.539 399.382L305.648 399.931L305.484 402.345L302.796 409.644L298.683 408.546L296.709 408.217L279.488 414.308L259.415 411.619L256.947 416.722L256.399 418.643L256.783 421.936L257.222 423.856V424.679L254.754 429.289L254.863 430.935L254.754 432.581L254.425 433.185L253.931 433.789L252.725 434.667L251.902 434.941L251.189 434.996L247.076 438.782L230.513 458.318L230.294 457.275L230.019 457.001L229.252 456.507L229.087 455.958L229.252 454.422L228.977 453.544L228.703 453.214L226.729 451.568L226.016 449.922L225.632 449.373L223.493 448.056L222.835 447.782L220.751 447.837L215.596 449.318L212.908 443.337L212.415 442.514L211.976 442.02L210.934 441.197L210.605 440.648L210.331 439.77L209.892 434.721L209.727 434.008L209.453 433.24L208.74 431.868L208.302 431.209L207.589 430.331L205.669 428.63L205.121 427.917L203.366 424.789L201.611 420.015L200.459 415.735L199.362 401.851L201.995 401.522L205.285 400.589L207.972 399.492L209.563 399.108L210.824 398.943L215.321 399.272L216.309 399.053L217.076 398.614L222.287 394.224L223.109 394.004L223.987 394.279L225.632 395.157L226.345 395.651L226.893 395.266L227.661 394.279L229.8 390.108L230.568 387.913L231.5 382.426L258.428 385.279L261.116 384.676L278.83 372.548L281.572 371.56L287.66 371.615Z" fill="#009649" stroke="white" stroke-width="2" stroke-linejoin="round"></path>
<path class="region" data-country-region="South Region" d="M265.393 315.917L265.173 316.685L265.338 317.179L265.119 317.563L264.241 318.112L264.131 318.496L264.296 318.935L264.844 319.978L265.228 320.362L266.106 320.691H267.203L267.861 320.966L269.396 322.228L270.438 322.886L270.603 324.039L270.877 324.972L271.371 325.465L272.138 326.014L272.687 326.289L273.729 326.398L274.606 326.069L275.265 325.575L275.703 325.411L276.581 325.301L277.732 325.52L280.2 326.453L280.475 326.892L280.584 327.441L279.871 330.02L279.378 331.227L279.268 331.776L279.323 332.435L279.597 333.422L280.036 334.081L280.859 334.794L281.681 335.233L283.436 335.727L283.656 336.111L283.601 336.495L282.943 337.099L281.846 337.648L280.913 337.977L280.31 339.074L280.036 339.733L279.268 342.312L279.104 343.794L278.61 345.33L276.745 346.812L276.581 348.458L277.349 350.159L279.817 352.958L280.31 354.933L281.188 355.976L285.575 360.146L285.74 360.97L287.659 365.085L287.988 366.951L287.659 371.615L281.571 371.56L278.829 372.548L261.115 384.675L258.428 385.279L231.5 382.426L227.222 377.926L226.619 374.853L226.948 372.658L223.822 368.323L220.366 363.713L219.654 360.366V357.293L219.434 355.811L216.144 349.062L215.65 347.086L215.485 345.275L215.595 342.147L215.76 340.611L216.253 339.074L217.405 337.867L233.529 327.441L235.503 327.112L238.026 326.892L239.233 326.618L239.891 326.343L240.055 325.685L240.329 325.301L241.262 324.203L237.697 322.447L235.503 322.173L235.174 322.008L233.529 320.691L232.432 320.307L228.374 318.057L226.015 317.234L225.412 316.905L224.918 316.246L224.48 315.039L223.767 314.106L219.763 313.064L218.008 312.899L216.802 312.954L216.253 313.009L215.431 313.338L215.156 313.722L215.047 314.216V316.795L214.882 318.167L214.279 319.429L212.469 319.868L210.659 320.088L208.246 320.033L205.23 319.484L203.859 319.429L203.091 319.1L202.488 318.606L201.939 317.893L201.281 317.124L200.404 316.411L199.581 316.301L198.484 316.631L197.497 317.179L195.413 318.002L195.248 316.082L199.526 307.521L204.297 300.333L205.394 298.193L206.052 295.943L206.985 293.912L208.246 292.925L225.686 283.212L228.319 281.62L228.922 280.633L228.648 278.602L228.757 277.889L229.032 276.901L231.554 274.541L234.461 272.456L235.394 272.237L236.655 272.511L243.565 275.255L245.21 274.651L246.856 273.773L248.611 272.621L249.872 272.182L250.804 271.962L253.437 271.907L254.534 275.2L254.808 276.736L254.314 282.718L254.424 283.651L254.589 284.254L255.302 284.748L256.344 285.077L257.166 285.791L258.208 287.108L259.908 290.62L260.512 292.211L260.786 293.309L260.567 293.748L259.908 294.242L259.031 294.406H258.263L258.592 296.107L258.812 296.437L260.018 297.973L259.36 303.735L259.525 305.546L260.073 306.259L260.402 306.479L261.28 306.753L261.938 307.521L262.102 308.07L262.047 308.619L261.773 308.948L261.06 309.607L260.786 310.046L261.06 310.814L262.322 312.076L262.651 312.295L263.967 312.789L264.515 313.173L264.954 313.722L265.557 314.82L265.667 315.368L265.393 315.917Z" fill="#009649" stroke="white" stroke-width="2" stroke-linejoin="round"></path>
<path class="region" data-country-region="South Region" d="M355.062 292.485L357.2 296.601L357.42 297.205L357.639 298.577L354.184 298.522L351.881 299.125L350.729 299.674L349.248 300.552L348.864 301.485L348.755 302.418L350.784 313.777L350.839 314.82L346.232 329.691L345.464 331.337L345.245 332.215L342.503 336.605L341.296 337.757L341.077 338.196L341.022 339.184L341.844 341.159L342.667 343.354L342.448 344.507L341.899 345.879L341.844 346.482L341.954 347.086L342.503 348.403V349.061L342.283 349.72L341.625 350.488L340.857 350.927L332.686 354.659L331.589 354.549L330.821 354.22L328.847 355.207L328.353 358.171L327.256 361.847L327.64 363.164L328.134 363.494L328.847 364.152L329.724 364.756L329.943 365.304L329.669 366.073L329.395 367.17L328.901 368.213L328.847 369.31L329.066 369.914L330.218 371.231L330.766 371.505L331.315 371.615L331.589 371.944L331.808 372.822L331.698 373.152L331.26 373.645L331.205 374.523L331.753 375.237L332.192 375.676L332.74 375.895H333.673L334.002 375.676L334.166 374.523L334.495 374.304L336.086 374.139L336.909 373.81L337.567 373.261L338.389 372.822L339.322 372.713L340.528 372.932L341.79 372.822L347.987 375.127L345.629 375.676L345.354 376.334L345.903 376.938L345.958 377.761L346.396 378.694L346.561 379.352L346.342 379.682L345.958 379.901L344.587 379.627L344.038 379.846L343.928 380.23L343.764 381.602L343.38 382.974L343.215 384.017L343.161 385.224L343.435 385.773L343.819 385.992H344.312L345.629 385.498L346.067 385.389L347.493 385.773L347.987 386.157L348.48 386.761L348.974 388.242L349.029 388.956L348.755 389.285L348.426 389.395L348.151 389.834L348.206 390.218L349.084 390.602L349.522 390.986L349.577 391.535L349.522 392.358L349.687 392.797L350.071 393.016L351.113 393.071L351.442 393.181L351.387 393.51L350.619 394.004L350.674 394.278L351.607 395.156L351.771 395.65L351.661 396.254L351.387 396.967L351.168 398.284L350.894 398.998L350.181 399.711L349.358 401.522L349.468 401.796L349.852 401.906L350.784 401.741L351.223 401.796L351.607 402.126L352.1 403.333L351.99 403.717L351.442 403.882L349.248 406.461L347.164 407.394L344.587 407.558L341.79 407.448L340.912 407.119L340.418 407.064L339.212 406.68L337.841 406.351L336.579 406.241L335.812 406.296L330.327 407.942L329.505 408.052L327.092 407.997L324.075 407.558L322.485 406.625L308.719 395.321L307.951 394.992H307.403L306.964 395.156L305.429 396.254L303.674 395.705L300.547 396.803L299.067 396.364L297.531 394.827L296.873 393.4L296.763 391.644L296.873 389.23L296.599 388.681L296.05 388.242L295.666 387.748L295.995 387.035L296.489 386.486L296.708 386.102L296.873 384.895L297.312 383.578L297.092 383.194L295.995 383.084L294.515 382.535L296.599 379.572L296.27 378.145L297.092 376.17L295.995 375.017L293.911 374.469L289.03 374.578L288.043 373.975L287.659 372.219V371.615L287.988 366.951L287.659 365.085L285.74 360.969L285.575 360.146L281.188 355.976L280.31 354.933L279.817 352.958L277.349 350.159L276.581 348.458L276.746 346.812L278.61 345.33L279.104 343.793L279.268 342.312L280.036 339.733L280.31 339.074L280.914 337.977L281.846 337.648L282.943 337.099L283.601 336.495L283.656 336.111L283.436 335.727L281.681 335.233L280.859 334.794L280.036 334.081L279.597 333.422L279.323 332.434L279.268 331.776L279.378 331.227L279.872 330.02L280.585 327.441L280.475 326.892L280.201 326.453L277.733 325.52L276.581 325.301L275.704 325.41L275.265 325.575L274.607 326.069L273.729 326.398L272.687 326.288L272.139 326.014L271.371 325.465L270.877 324.971L270.603 324.038L270.439 322.886L269.397 322.228L267.861 320.966L267.203 320.691H266.106L265.228 320.362L264.845 319.978L264.296 318.935L264.132 318.496L264.241 318.112L265.119 317.563L265.338 317.179L265.174 316.685L265.393 315.917L268.025 316.246L269.506 316.191L279.817 313.612L283.546 312.076L284.149 311.966H284.807L285.63 312.295L286.179 312.789L286.617 313.283L288.427 315.917L289.963 317.618L290.511 318.057L291.608 318.551H292.321L293.144 318.441L295.941 317.673H296.544L298.244 317.947L298.847 317.783L299.56 317.344L301.206 315.204L301.864 314.49L302.961 313.996L304.386 313.942L304.88 313.777L305.374 313.173L306.361 311.088L307.951 309.222L317.988 304.338L318.92 303.57L319.468 302.912L319.688 302.308L320.236 301.156L321.059 300.113L322.101 299.125L323.362 298.412L328.408 296.491L329.505 295.833L330.218 295.119L331.589 292.65L333.124 290.729L334.166 290.181L335.537 289.797L340.857 289.467L341.515 289.522L342.283 289.797L343.435 290.51L345.08 292.156L345.574 292.485L347.877 292.76L355.062 292.485Z" fill="#009649" stroke="white" stroke-width="2" stroke-linejoin="round"></path>
<path class="region" data-country-region="North Region" d="M420.38 193.107L420.764 193.601L421.312 195.576L421.148 196.839L418.68 198.759L417.967 199.966L416.431 200.46L415.938 200.954L416.157 202.546L419.448 204.411L420.27 206.167L419.283 209.021L417.418 209.679L416.212 209.899L415.938 209.57L415.334 210.777L415.554 211.49L416.047 212.039L416.541 212.752L417.473 212.917L417.747 213.301L417.802 213.96L417.309 214.618L416.925 215.77L416.541 215.99V216.319L417.473 217.307L417.912 218.02L418.076 218.898L417.857 219.831L417.144 220.764L415.828 221.038L411.386 220.984L410.453 221.148L410.508 221.971L410.892 223.288L411.002 224.166L411.44 224.825L413.579 226.087L414.073 226.965L413.854 228.062L412.537 229.928L412.208 231.026L412.483 232.068L413.141 232.343L414.018 232.452L415.005 232.891L418.406 237.172L419.612 238.214L419.393 238.653L418.68 239.641L418.296 240.08L416.322 239.422L414.786 240.574L413.799 242.824L413.36 246.171L400.198 248.805L398.278 249.354L397.072 250.397L395.097 253.47L389.997 259.012L388.297 260.329L381.277 263.786L378.973 265.816L377.657 266.42L376.176 266.749L375.134 266.859H373.928L372.118 266.146L371.186 266.036H370.527L367.017 266.859L366.195 270.316L366.359 271.853L366.579 272.347L366.853 273.334L368.224 283.98L367.95 284.968L367.511 285.516H366.963L364.111 284.748H363.014L362.52 284.968L361.972 285.352L361.533 285.846L360.656 287.053L359.723 288.096L359.23 288.535L356.981 290.126L355.062 292.486L347.877 292.76L345.574 292.486L345.08 292.156L343.435 290.51L342.283 289.797L341.515 289.522L340.857 289.467L335.538 289.797L334.166 290.181L333.124 290.73L331.589 292.65L330.218 295.12L329.505 295.833L328.408 296.491L323.362 298.412L322.101 299.125L321.059 300.113L320.236 301.156L319.688 302.308L319.468 302.912L318.92 303.57L317.988 304.339L307.951 309.222L306.361 311.088L305.374 313.173L304.88 313.777L304.387 313.942L302.961 313.997L301.864 314.49L301.206 315.204L299.56 317.344L298.847 317.783L298.244 317.948L296.544 317.673H295.941L293.144 318.441L292.321 318.551H291.608L290.511 318.057L289.963 317.618L288.427 315.917L286.617 313.283L286.179 312.789L285.63 312.295L284.808 311.966H284.149L283.546 312.076L279.817 313.612L269.506 316.192L268.026 316.246L265.393 315.917L265.667 315.368L265.558 314.82L264.954 313.722L264.516 313.173L263.967 312.789L262.651 312.295L262.322 312.076L261.06 310.814L260.786 310.046L261.06 309.607L261.773 308.948L262.048 308.619L262.102 308.07L261.938 307.521L261.28 306.753L260.402 306.479L260.073 306.259L259.525 305.546L259.36 303.735L260.018 297.973L258.812 296.437L258.593 296.107L258.263 294.406H259.031L259.909 294.242L260.567 293.748L260.786 293.309L260.512 292.211L259.909 290.62L258.209 287.108L257.167 285.791L256.344 285.077L255.302 284.748L254.589 284.254L254.424 283.651L254.315 282.718L254.808 276.736L254.534 275.2L253.437 271.907L254.918 270.975L255.412 270.426L256.289 269.109L256.563 268.286L256.618 267.572L256.179 266.2L255.96 265.213L255.85 264.06L255.905 263.512L256.289 262.03L256.508 261.591L257.77 259.835L258.154 258.957L258.428 257.969L258.483 256.872L258.044 255.445L257.66 253.854L257.605 252.976L258.428 248.695L259.251 248.421L260.622 248.256L261.444 248.202L264.461 248.421L268.3 247.817L270.603 246.83L275.813 243.373L276.362 242.769L276.636 242.275L276.691 241.507L276.581 240.135L278.062 239.641L280.749 239.696L282.23 240.08L282.943 238.653L284.259 238.434L285.74 238.818L286.946 239.422L287.659 238.214L288.756 238.489L289.469 237.666L289.689 236.403L288.647 234.318L289.908 233.879L291.224 233.824H292.54L293.747 231.904L293.582 229.544L291.937 225.154H293.747L292.979 223.618L291.828 222.904L290.566 222.52L289.524 222.026L289.195 221.477L288.263 219.502L287.44 218.789L286.398 218.295L284.588 217.033L284.04 216.813L279.707 215.77L279.543 215.441L279.268 214.234L278.83 213.96H275.704L274.991 213.795L274.278 212.917L273.839 212.752L272.907 212.039L270.384 209.021L269.287 208.143L269.726 207.759L270.603 207.32L271.371 207.1L272.194 207.21L273.839 207.814L276.088 207.978L276.855 207.594L277.842 206.497L270.548 202.271L270.055 200.79L270.768 200.076L270.713 199.308L270.548 198.814L270.219 198.54L268.848 198.595L267.861 197.936L267.587 197.113L267.696 196.07L267.751 193.546L267.532 193.107L266.819 192.503L265.887 192.229H264.899L263.803 192.888L263.364 192.942L263.035 192.778L262.102 191.845L261.883 191.516L261.773 191.022V189.54L261.883 189.211L262.651 188.882L262.815 188.113L262.87 187.455L263.145 185.809L263.035 185.205L262.596 184.382L262.486 183.998L262.541 183.559L263.09 183.175H264.077L264.516 183.065L264.79 182.736V182.242L264.461 181.913L263.638 181.474L263.419 181.089L263.09 180.157L262.87 179.772L262.048 179.333L261.609 179.443L261.225 179.772L260.896 180.486L260.512 180.87H260.238L260.073 180.321L260.128 179.553L261.06 176.315L262.322 173.133L262.761 172.529L263.474 172.309H264.022L264.57 172.474L265.283 172.968L265.777 173.133L267.422 173.297L268.409 173.517H268.903L269.835 173.242L270.658 172.858L271.371 172.364L272.632 171.102L272.961 170.828L273.839 170.499L274.826 170.279L276.417 170.169L277.733 170.389L278.555 170.828L280.036 170.883L280.53 170.553L281.407 170.608L282.943 170.06L283.601 169.127L283.436 168.029L282.888 167.865L281.572 166.932L280.639 165.944L281.243 165.505L283.546 164.792L283.053 161.28L285.246 159.908L283.93 158.865L283.436 158.591V158.042L284.369 157.987L285.356 158.097L286.233 158.316L287.056 158.591L285.575 155.847L280.201 152.335L280.31 149.921L282.34 150.25L283.711 149.043L284.643 146.957L285.74 143.006V141.47L285.191 140.098L283.985 138.726L286.727 138.891L288.427 137.244L289.305 134.556L289.524 131.647L290.073 129.233L291.444 126.818L294.405 123.142L296.379 123.635L300.493 122.977H301.59L302.083 123.087L302.632 123.581L303.18 124.404L305.319 129.672L305.977 130.605L306.69 131.098L307.293 131.318L307.897 131.373L308.774 131.044L309.761 130.111L310.31 129.452L310.748 129.178L311.461 129.013L320.62 130.55L321.991 130.989L322.978 131.483L323.253 132.525L323.582 135.324V136.586L323.637 137.244L323.856 137.903L324.679 139.275L325.556 140.098L326.05 140.866L327.092 143.5L327.53 144.104L328.024 144.488L329.34 145.037L330.327 145.915L330.766 146.134L332.082 146.354L333.234 146.902L334.112 147.067L334.77 147.561L335.044 147.945L335.154 148.713L335.208 149.756L334.002 158.042L334.112 158.316L334.002 158.92L333.618 159.853L332.466 161.609L331.753 162.267L331.095 162.542L330.437 163.036V166.383L363.124 167.426L364.221 166.877L365.263 166.493H365.921L366.634 166.712L369.924 167.974L370.473 168.578L370.966 169.346L371.734 169.84L372.941 170.334L375.957 171.102L377.218 171.541L378.041 172.035L378.918 173.626L379.522 174.23L381.112 175.108L381.825 175.712L382.319 176.48L382.593 177.413L383.361 182.9L383.69 183.888L384.129 184.382L384.622 184.601L385.225 184.656L387.309 184.162L387.968 184.108H388.955L389.558 184.272L389.997 184.601L390.216 184.986L390.381 186.028L390.655 186.577L391.203 187.126L393.013 188.168L393.452 188.607L393.836 189.54L394.165 190.034L394.823 190.583L395.371 190.802L396.413 190.747L398.004 190.199L398.881 190.089L399.43 190.254L399.869 190.528L400.636 191.351L401.24 191.9L401.898 192.064H402.446L403.433 191.79L405.243 191.845L407.218 192.284L408.26 192.394H409.082L410.673 191.955L411.386 191.9H412.483L413.908 192.229L414.457 192.613L415.334 193.656L415.828 194.04L416.322 194.205L416.76 194.15L418.186 193.601L419.064 193.327L420.38 193.107Z" fill="#009649" stroke="white" stroke-width="2" stroke-linejoin="round"></path>
<path class="region" data-country-region="South Region" d="M493.486 509.626L493.102 511.107L489.153 510.229L480.324 509.351L479.062 508.748L479.391 507.431L481.091 505.894L482.846 504.632L485.205 505.236L485.863 505.675L486.247 506.717L486.521 507.101L487.234 507.431L489.153 508.034H489.537L489.921 507.87L490.689 508.418L492.005 509.626L493.212 509.735L493.486 509.626ZM455.534 505.181L465.516 500.022L467.764 497.992L467.71 497.498L467.435 496.62L466.887 495.962L465.187 494.535L464.638 493.876L464.419 492.999L464.364 491.956L465.077 487.95L464.419 481.53L464.474 479.39L464.748 478.402L466.393 474.67L467.216 472.256L467.381 471.323V470.61L466.777 469.073L466.339 465.067L466.174 464.299L465.735 463.531L464.913 463.037L464.584 462.653L464.474 461.72L464.967 454.641L465.242 453.928L466.229 452.83L466.613 452.062L466.668 451.623L466.284 450.909L464.913 449.099L468.532 448.166L468.971 448.001L469.629 447.397L476.101 436.642L481.53 423.582L482.353 422.155L483.175 421.442L484.053 420.399L484.437 418.972L484.327 417.93L484.053 416.119V415.57L484.876 413.32L488.44 406.79L488.66 407.119L491.292 409.534L493.212 414.582L495.954 429.618L497.215 432.856L500.67 439.166L501.767 442.404L501.987 445.696L501.109 455.958L506.922 455.464L506.045 461.061L506.539 463.421L508.623 464.573L510.378 464.354L513.284 462.598L514.765 462.049L521.127 463.695L522.279 464.628L522.992 465.781L523.321 467.262L523.54 471.981L525.13 478.402L527.598 484.164L527.982 485.755L527.708 487.346L526.831 488.444L525.679 488.663L522.662 488.115L522.059 493.712L522.279 494.974L523.54 496.73L523.979 497.773L523.924 498.541L523.54 500.461L523.595 501.285L523.869 501.559L525.076 502.602L525.569 503.15L524.692 504.851L523.43 505.784L521.346 506.059L517.781 505.949L517.562 503.425L514.601 503.041L510.926 503.48L508.568 503.425L509.281 505.236L508.842 507.046L507.581 508.473L505.771 509.022L504.4 508.583L499.628 506.388L498.148 505.236L496.393 505.729L492.828 505.839L491.347 506.553L490.634 504.851L489.263 502.766L487.618 501.065L486.137 500.352L485.424 499.693L486.411 498.266L487.782 496.95L488.331 496.675L488.769 495.358L489.044 492.724L489.537 491.681L490.799 490.913L491.731 490.694L492.334 490.09L492.554 488.334L492.334 486.962L491.731 486.359L490.689 486.139H489.208L488.824 486.359L487.618 487.237L486.795 487.456L486.027 487.346L484.821 486.798L484.053 486.743L483.175 487.072L481.475 488.279L480.324 488.663L481.201 490.749L481.695 492.56L481.037 493.822L478.514 494.151L478.898 494.809V495.468L478.514 496.071L477.856 496.675L479.336 497.663L480.269 497.882L481.201 497.937L482.243 497.882V498.486L481.366 498.87L479.994 498.76L479.117 499.035L478.349 499.638L477.636 500.407L477.088 501.285L476.649 502.217L475.717 501.614L475.059 501.943L475.223 502.711L476.649 503.425L476.101 504.632L476.649 505.345L477.801 505.729L479.117 505.949L475.826 508.583L469.958 508.254L455.534 505.181Z" fill="#009649" stroke="white" stroke-width="2" stroke-linejoin="round"></path>
<path class="region" data-country-region="South Region" d="M495.131 334.191L493.979 334.904L483.668 352.683L482.133 356.195L482.023 359.433L482.407 360.366L483.559 361.793L484.765 364.152L484.93 364.756L483.175 369.695L482.681 370.298L481.036 371.231L480.433 372.164L480.268 373.646L487.343 405.528L488.44 406.79L484.875 413.32L484.052 415.57V416.119L484.327 417.93L484.436 418.972L484.052 420.399L483.175 421.442L482.352 422.155L481.53 423.582L476.1 436.642L469.629 447.398L468.97 448.001L468.532 448.166L464.912 449.099L463.76 448.221L462.773 447.672L462.115 446.684L461.896 444.544V443.94L462.005 442.13L462.389 440.538L465.241 434.941L465.461 433.953L465.57 432.801L465.844 431.923L466.612 431.594L467.545 431.374L468.367 430.935L469.354 429.179L469.245 427.368L468.258 425.832L466.832 425.063L467.49 423.198L466.064 423.582L465.57 423.801L465.79 422.045L466.886 421.058L468.093 420.289L468.696 419.192L468.367 414.637L467.654 413.924L466.173 410.796L465.022 410.247L464.035 410.741L463.596 412.223L462.554 412.113L462.718 411.784L462.225 410.741L461.567 409.808L461.128 409.534L460.689 408.875L460.47 408.107L461.018 407.778L462.773 407.613L462.883 407.119L462.28 406.241L461.018 402.565L458.934 399.601L455.205 395.376L454.053 397.461L452.627 397.516L450.927 396.967L449.062 397.242L448.13 392.852L447.527 392.523L445.772 390.712L445.388 390.163L444.839 389.011L444.73 388.297L444.894 387.968L445.827 387.09L445.991 386.486L445.443 382.371L445.059 381.493L444.62 380.889L444.401 379.408L444.181 378.694L443.797 378.31L442.646 377.432L442.317 376.883L442.372 375.731L443.085 373.097L442.865 371.945L441.988 371.176L441.11 371.67L439.849 373.152L439.355 373.207L437.381 373.152L436.065 373.371L434.913 373.755L434.419 372.768L434.145 372.274L433.761 370.957L433.158 369.804L431.896 368.817L434.639 367.609L434.803 365.689L432.5 360.805L436.284 357.073L436.503 356.415L437.49 355.811L436.613 354.494L435.132 353.232L434.364 352.738L434.639 351.257L435.626 349.665L436.832 348.348L437.71 347.8L438.478 347.031L438.258 345.44L437.436 343.739L436.174 342.806L435.571 344.836L434.748 344.781L433.871 343.3L434.364 340.995L436.503 339.074L439.849 338.526L440.836 337.538L441.604 336.495L442.536 335.508L444.181 334.849L446.978 334.465L448.185 333.642L448.404 331.721L451.585 332.709L452.737 332.599L452.134 331.118L452.627 330.953L453.011 330.624L453.23 330.185L453.34 329.526L452.956 329.032L452.243 329.197L451.585 329.581L451.53 329.855L448.953 329.416L448.02 328.923L447.198 327.99L446.814 327.112L445.991 324.203V323.051L446.759 321.844L447.856 321.24L448.788 321.569L449.062 323.051L450.104 322.612L450.708 322.283L451.037 321.679L451.53 320.527L451.859 319.429L451.805 318.441L451.64 317.454L451.53 314.82L451.64 314.271L453.998 313.832L455.808 313.722L456.466 313.283L457.07 311.911L456.576 311.802L456.521 311.308L455.205 311.911L455.04 309.936L455.863 308.564L458.715 307.686L459.483 307.631L460.909 308.125L461.457 307.96L462.28 308.454L463.047 308.29L463.541 308.454L464.144 308.838L465.241 309.387L465.79 309.881L466.119 310.32L467.49 314.929L467.928 315.698L469.135 316.905L470.616 318.606L471.164 318.826L471.603 318.771L471.932 318.496L472.48 317.783L473.193 316.576L474.345 316.521L476.265 316.795L482.736 318.826L483.833 319.484L485.862 321.021L488.824 322.886L490.25 324.148L491.292 325.356L495.021 332.489L495.131 334.191Z" fill="#009649" stroke="white" stroke-width="2" stroke-linejoin="round"></path>
<path class="region" data-country-region="North Region" d="M385.39 102.783L386.487 103.277L390.435 108.6L391.148 109.148L391.861 109.533L392.355 110.081L392.574 111.069V112.057L392.684 112.77L392.958 113.429L393.507 114.197L395.974 116.502L396.687 117.709L397.126 120.727L397.949 122.209L398.168 122.867L398.059 123.581L397.565 124.513L397.455 125.391L396.962 126.818L396.907 127.586L397.126 128.355L397.894 129.068L398.168 129.397L398.388 130.989L398.113 131.976L397.675 132.909L397.455 134.391L397.62 135.049L398.004 135.873L398.717 136.915L399.759 137.299L399.978 137.025L400.033 136.366L400.581 135.653L402.281 134.83L403.653 134.391L405.627 134.226L406.12 133.842L408.588 135.927L411.002 137.519L414.676 138.287L416.486 139.22L417.473 139.385L418.131 139.824L418.405 140.756L418.625 141.799L419.009 142.512L419.667 142.677L422.354 142.512L423.78 143.061L422.683 146.134L423.945 147.506L423.451 147.726L423.286 148.055L425.096 147.835L426.577 147.287H427.619L428.222 148.713L428.277 151.018L427.564 151.183L426.577 150.085L425.7 148.713L424.822 150.799L424.493 152.829L425.206 154.311L428.387 155.079L429.868 155.628L431.184 156.451L431.897 157.438L431.677 158.646L430.69 159.03L429.429 159.085L428.222 159.304L426.029 160.237L424.109 161.389L423.396 162.981L424.822 165.176L426.248 166.438L428.935 169.621L430.635 171.047V171.706L429.868 171.816L429.539 172.035L428.826 172.968L429.209 173.078L429.374 173.572L430.526 173.462L431.732 174.12L432.719 175.218L433.158 176.425L432.939 178.401L432.336 178.73L431.458 178.291L430.361 177.962L429.813 178.565L427.564 182.242L425.864 183.614L425.59 184.382L426.961 184.766L426.248 185.589L425.041 185.918L422.354 185.973L420.818 186.467L419.941 187.729L419.009 190.967L419.886 191.735L420.38 193.107L419.063 193.327L418.186 193.601L416.76 194.15L416.321 194.205L415.828 194.04L415.334 193.656L414.457 192.613L413.908 192.229L412.482 191.9H411.385L410.672 191.955L409.082 192.394H408.259L407.217 192.284L405.243 191.845L403.433 191.79L402.446 192.065H401.898L401.239 191.9L400.636 191.351L399.868 190.528L399.43 190.254L398.881 190.089L398.004 190.199L396.413 190.748L395.371 190.802L394.823 190.583L394.165 190.034L393.836 189.54L393.452 188.607L393.013 188.168L391.203 187.126L390.655 186.577L390.38 186.028L390.216 184.986L389.997 184.602L389.558 184.272L388.955 184.108H387.967L387.309 184.163L385.225 184.656L384.622 184.602L384.128 184.382L383.69 183.888L383.361 182.9L382.593 177.413L382.319 176.48L381.825 175.712L381.112 175.108L379.522 174.23L378.918 173.627L378.041 172.035L377.218 171.541L375.957 171.102L372.94 170.334L371.734 169.84L370.966 169.346L370.472 168.578L369.924 167.974L366.633 166.712L365.92 166.493H365.262L364.22 166.877L363.123 167.426L330.437 166.383V163.036L331.095 162.542L331.753 162.267L332.466 161.609L333.618 159.853L334.002 158.92L334.111 158.316L334.002 158.042L335.208 149.756L335.153 148.713L335.044 147.945L334.769 147.561L334.111 147.067L333.234 146.902L332.082 146.354L330.766 146.134L330.327 145.915L329.34 145.037L328.024 144.488L327.53 144.104L327.091 143.5L326.049 140.866L325.556 140.098L324.678 139.275L323.856 137.903L323.636 137.244L323.581 136.586V135.324L323.252 132.525L322.978 131.483L321.991 130.989L320.62 130.55L311.461 129.013L310.748 129.178L310.309 129.452L309.761 130.111L308.774 131.044L307.896 131.373L307.293 131.318L306.69 131.098L305.977 130.605L305.319 129.672L303.18 124.404L302.631 123.581L302.083 123.087L301.589 122.977H300.492L296.379 123.635L294.405 123.142L291.443 126.818L290.072 129.233L289.524 131.647L289.304 134.556L288.427 137.244L286.727 138.891L283.985 138.726L285.191 140.098L285.74 141.47V143.006L284.643 146.957L283.71 149.043L282.339 150.25L280.31 149.921L280.201 152.335L285.575 155.847L287.056 158.591L286.233 158.316L285.356 158.097L284.369 157.987L283.436 158.042V158.591L283.93 158.865L285.246 159.908L283.052 161.28L283.546 164.792L281.243 165.505L280.639 165.944L281.572 166.932L282.888 167.865L283.436 168.029L283.601 169.127L282.943 170.06L281.407 170.608L280.53 170.554L280.036 170.883L278.555 170.828L277.733 170.389L276.416 170.169L274.826 170.279L273.839 170.499L272.961 170.828L272.632 171.102L271.371 172.364L270.658 172.858L269.835 173.242L268.903 173.517H268.409L267.422 173.297L265.777 173.133L265.283 172.968L264.57 172.474L264.022 172.31H263.473L262.76 172.529L262.322 173.133L261.06 176.315L260.128 179.553L260.073 180.321L260.238 180.87H260.512L260.896 180.486L261.225 179.773L261.609 179.443L262.047 179.334L262.87 179.773L263.089 180.157L263.418 181.09L263.638 181.474L264.46 181.913L264.79 182.242V182.736L264.515 183.065L264.077 183.175H263.089L262.541 183.559L262.486 183.998L262.596 184.382L263.035 185.205L263.144 185.809L262.87 187.455L262.815 188.114L262.651 188.882L261.883 189.211L261.773 189.54V191.022L261.883 191.516L262.102 191.845L263.035 192.778L263.364 192.943L263.802 192.888L264.899 192.229H265.886L266.819 192.503L267.532 193.107L267.751 193.546L267.696 196.07L267.587 197.113L267.861 197.936L268.848 198.595L270.219 198.54L270.548 198.814L270.713 199.308L270.767 200.076L270.055 200.79L258.208 197.936L239.781 191.132L239.068 190.693L225.412 169.237L223.822 165.999L223.712 165.505L223.602 164.298L223.383 163.53L223.054 163.091L222.615 162.761L220.915 161.883L215.047 158.097L214.663 157.438L214.169 156.067L213.895 155.573L212.963 154.201L212.579 153.378L212.359 152.445L212.305 151.896L212.524 150.853L213.84 148.329L214.389 147.671L215.376 146.738L215.869 145.915L215.979 145.421L215.924 144.378L215.54 143.555L213.401 140.866L211.482 139.714L210.44 139.494L209.233 139.439L207.478 138.946L205.01 139.439L204.133 140.098L203.53 141.415L202.981 143.39L202.488 144.378L201.994 144.762L200.678 144.927L199.636 145.366L199.142 145.75L197.552 148L195.742 150.085L194.755 150.908L193.932 151.238L193.439 151.128L192.671 150.634L192.013 149.975L191.519 149.262L191.08 148.494L190.367 146.518L190.038 145.86L189.49 145.092L188.558 144.214L188.064 143.994L187.351 143.829H186.09L184.883 144.214L184.28 144.817L183.951 145.695L184.115 146.683L184.883 148.384L184.718 148.988L184.17 149.811L182.634 151.183L181.702 151.731L180.879 152.006L173.256 151.457L172.434 151.073L171.775 150.469L170.733 149.262L170.788 148.439L171.501 147.835L168.32 147.396L169.033 144.872L168.869 143.61L168.156 142.348L168.211 141.086L169.253 135.927L169.362 134.446L169.198 133.513L168.814 133.239L167.991 132.196L167.662 131.867L166.346 129.507L165.304 125.776L164.975 124.074V122.922L165.743 121.715L165.852 120.947L165.688 120.288L165.304 119.245L165.249 118.313L165.962 117.325L166.127 116.831L166.511 115.24L166.785 114.91L167.607 114.526L168.046 114.142L168.43 113.538L168.759 112.331L168.814 111.563L168.704 110.959L166.675 109.368L165.907 108.27L165.359 107.722L163.714 106.789L164.81 102.344L165.359 100.753L165.578 100.368L166.949 98.6674L167.114 97.954L167.224 96.8565L167.553 96.2529L167.936 95.759L168.54 95.2651L168.649 94.8261L167.991 93.4542L167.936 92.5762L168.704 91.2044L168.869 90.6008V90.052L168.649 89.6679L167.388 88.7899L167.059 88.296L167.114 87.418L167.553 85.9913L167.827 84.2353L168.156 83.3573L168.54 82.7536L168.924 82.2598L169.472 81.3818L169.527 80.833L169.362 80.3391L168.649 79.2416L168.101 76.9918L167.607 75.9491L166.894 75.4553L166.127 74.5224L165.469 72.7664L165.139 72.2725L164.372 71.7786L163.275 71.614L151.922 71.9981L150.771 71.6689L150.332 71.2848L150.441 70.4068L151.977 68.0472L152.69 67.224L154.61 65.468L155.048 64.151V63.4377L155.213 62.2853L155.597 61.4073L156.365 60.2L156.639 59.4318L156.694 58.7733L156.639 58.2794L155.926 57.4563L156.968 56.1393L158.558 55.3162L160.971 54.932L162.178 54.9869L165.523 54.3833L166.456 56.0844L167.498 57.0722L168.485 57.566L169.198 57.8404L169.856 57.9502L171.446 57.7307L175.011 56.5783L182.305 52.6273L182.909 52.0237L182.963 51.5298L182.744 49.9933V48.8409L183.183 46.8654L183.073 46.3167L180.221 45.4936L179.728 45.0546L178.96 44.2863L178.631 43.0791L178.686 42.5303L178.905 41.3779V40.6646L178.521 39.1829L177.918 38.2501L176.382 35.0124L175.34 33.9149L175.724 31.0066L176.108 30.2932L176.657 29.6347L177.15 28.8116V27.8238L176.602 27.1653L175.669 26.7263L174.682 26.452L173.969 26.1227L172.872 24.3118L172.708 22.7753L173.585 19.8121L174.024 15.6965L173.75 14.9282L173.421 14.3246L173.256 13.5563L173.476 11.8552L173.914 10.1541L174.079 10.0992L175.34 7.9591L175.231 7.62985L177.205 6.97135L178.412 7.7396L180.221 10.8675L181.538 12.1296L183.402 13.3917L187.022 15.3672L188.448 15.8611L193.329 16.794L195.248 16.9586L197.442 16.5196L199.087 15.3672L199.416 13.282L198.758 12.404L197.607 11.8552L196.619 11.1967L196.126 9.9346L196.29 6.36773L196.894 4.72148L198.484 3.95323L200.404 3.84348L202.268 4.17273L204.572 4.22761L206.327 3.40448L207.972 2.25211L210.111 1.31924L212.25 1.04486L213.127 1.59361L213.292 2.85573L212.798 6.58723L213.072 7.3006L214.773 7.9591L215.76 8.45298L216.528 9.16635L216.857 9.87973L216.363 10.9772L215.486 11.4711L214.498 11.965L213.785 12.7881L214.279 14.0502L214.553 15.1477L214.443 16.1903L213.84 16.9586L212.195 18.2756L211.811 19.0438L211.756 20.4157L212.25 20.6352L212.963 20.4157L213.785 20.5255L214.224 21.0193L215.266 22.1717L215.869 22.3912L216.857 22.2266L217.57 22.1717L218.118 22.501L218.502 23.379L218.392 23.9277L217.405 25.574L217.24 26.3422L217.515 27.2202L218.995 28.9762L217.624 31.7748L217.35 33.4759L218.666 34.5734L216.528 36.9879L216.911 38.4696L216.692 38.9086L215.979 39.1829L215.376 38.9634L214.718 38.4696L213.621 39.6768L213.347 40.9389L213.676 44.2863L215.047 44.0119L215.979 44.6704L217.734 46.8106L218.941 47.5788L225.741 49.9933L233.748 49.9384L235.394 48.2922L236.49 46.5362L237.094 44.6156L237.423 42.3108L238.465 41.4877L242.633 42.9693L243.675 42.1462L243.291 37.1526L243.675 35.5063L244.717 33.9698L246.088 32.9821L252.505 29.5798L264.022 27.0007L269.012 26.5068L271.535 25.9032L272.358 25.8483L273.51 26.2873L275.484 27.5495L277.897 28.4823L279.488 29.4152L281.078 31.4456L282.12 33.7503L282.23 35.3417L283.491 35.7807L284.972 35.9453L285.52 36.2746L285.904 36.9879L286.453 38.3598L287.44 39.2378L288.646 39.8414L290.182 40.2256L291.992 40.3353L292.376 40.0061L293.089 39.1829L293.911 39.6219L294.405 39.7317L295.392 39.6768L296.434 39.4573L297.037 38.8537L297.476 38.2501L298.134 37.8111L299.67 37.8659L303.783 38.4696L305.209 38.0854L309.596 40.7194L310.419 40.6097L311.077 39.4024L312.558 39.5122L314.039 40.4999L314.697 41.8718V46.8654L314.094 47.9081L314.203 48.2922L315.3 48.4019L315.958 48.1824L316.452 47.7434L316.891 47.1398L317.165 46.5362L317.384 48.4019L316.616 50.0482L316.562 51.0359L318.975 50.9262L318.371 52.5724L318.92 53.5053L321.168 54.9869L321.333 55.7003L319.249 56.4685L318.426 57.1819L319.194 57.2368L320.839 57.8404L319.633 58.3892L320.401 59.4867L321.388 59.5964L322.43 59.1574L323.307 58.3892L323.746 60.0354L324.733 60.9134L325.885 61.4622L326.982 62.1755L327.969 63.5474L328.627 65.2485L328.243 66.4558L326.378 66.5107L326.762 67.4435L327.75 68.7605L328.737 70.9007L328.901 71.4494L327.64 75.1809L327.75 76.2235L330.382 78.6929L331.15 78.9673L331.643 78.3636L332.137 77.5405L332.795 77.1564L333.837 77.321L334.55 78.199L335.318 78.3636L337.402 78.5283L339.157 79.1319L340.418 80.2294L341.022 82.0951L342.777 81.5464L343.49 82.9183L343.928 85.0035L344.751 86.54L343.325 87.0339L342.557 87.1436L341.68 87.0888V87.7473L342.502 88.4606L342.941 89.5581L344.093 89.2289L345.299 91.1495L346.67 90.8751L346.177 90.3813L346.012 89.9971L346.341 89.6679L347.219 89.5581L348.151 89.6679L348.59 89.9971L349.358 91.1495L350.4 92.0824L350.729 92.686L350.893 93.6189L351.058 94.3323L351.551 94.7164L352.758 95.2103L353.197 95.7041L353.252 96.1431L354.019 95.8139L354.732 95.3749L355.281 94.7164L355.61 94.2225L355.5 93.9481H356.816L357.968 93.8384L359.01 93.2347L360.162 92.0275L361.149 92.9055L362.465 94.8261L363.507 95.2103L364.824 94.8261L365.153 93.8932L365.207 92.686L365.975 90.4361L366.249 90.2715H367.895L368.608 90.4361L369.101 90.7105L369.321 91.1495L369.156 92.686L368.279 95.0456L368.059 96.7467L369.321 98.6125L372.227 98.8869L375.463 98.7771L377.602 99.271L378.425 100.588L379.192 103.606L379.796 104.594L381.002 105.143L381.331 104.319L381.277 102.838L381.551 101.411L382.922 101.795L385.39 102.783Z" fill="#009649" stroke="white" stroke-width="2" stroke-linejoin="round"></path>
<path class="region" data-country-region="North Region" d="M175.34 33.915L176.382 35.0125L177.918 38.2501L178.521 39.183L178.905 40.6646V41.378L178.686 42.5303L178.631 43.0791L178.96 44.2863L179.728 45.0546L180.221 45.4936L183.073 46.3167L183.183 46.8655L182.744 48.841V49.9933L182.964 51.5298L182.909 52.0237L182.305 52.6273L175.011 56.5783L171.446 57.7307L169.856 57.9502L169.198 57.8404L168.485 57.5661L167.498 57.0722L166.456 56.0844L165.523 54.3833L162.178 54.9869L160.971 54.9321L158.558 55.3162L156.968 56.1393L155.926 57.4563L156.639 58.2794L156.694 58.7733L156.639 59.4318L156.365 60.2001L155.597 61.4073L155.213 62.2853L155.048 63.4377V64.1511L154.61 65.4681L152.69 67.2241L151.977 68.0472L150.441 70.4068L150.332 71.2848L150.771 71.6689L151.922 71.9982L163.275 71.614L164.372 71.7787L165.139 72.2725L165.469 72.7664L166.127 74.5224L166.894 75.4553L167.607 75.9492L168.101 76.9918L168.649 79.2417L169.362 80.3392L169.527 80.833L169.472 81.3818L168.924 82.2598L168.54 82.7537L168.156 83.3573L167.827 84.2353L167.553 85.9913L167.114 87.418L167.059 88.296L167.388 88.7899L168.649 89.6679L168.869 90.052V90.6008L168.704 91.2044L167.936 92.5763L167.991 93.4543L168.649 94.8261L168.54 95.2651L167.936 95.759L167.553 96.2529L167.224 96.8565L167.114 97.954L166.949 98.6674L165.578 100.369L165.359 100.753L164.81 102.344L163.714 106.789L165.359 107.722L165.907 108.27L166.675 109.368L168.704 110.959L168.814 111.563L168.759 112.331L168.43 113.538L168.046 114.142L167.607 114.526L166.785 114.91L166.511 115.24L166.127 116.831L165.962 117.325L165.249 118.313L165.304 119.245L165.688 120.288L165.852 120.947L165.743 121.715L164.975 122.922V124.074L165.304 125.776L166.346 129.507L167.662 131.867L167.991 132.196L168.814 133.239L169.198 133.513L169.362 134.446L169.253 135.927L168.211 141.086L168.156 142.348L168.869 143.61L169.033 144.872L168.32 147.396L165.03 149.372L162.836 149.975L162.013 150.36L160.917 151.128L159.82 151.512L156.255 152.335L155.323 152.829L154.829 153.378L154.445 154.585L153.842 155.463L153.677 156.121L153.568 156.725L153.677 158.097L154.116 162.213L154.061 162.761L153.897 163.31L153.293 163.145L152.635 162.542L151.648 162.103L150.606 162.213L149.948 162.103L149.454 161.883L148.632 161.389L148.028 161.225L145.451 161.774L144.025 161.883L142.928 161.774L142.434 161.609L141.667 161.115L141.392 160.786L140.405 159.304L139.692 158.755L139.199 158.701L137.663 158.81L137.115 158.701L136.402 158.316L136.073 157.987L135.414 157.603L134.592 157.384L134.043 157.438L133.55 157.658L133.166 158.042L133.001 158.426L132.179 159.414L131.082 160.127L129.656 161.444L128.395 162.377L126.146 163.036L124.939 163.091L124.72 163.639L124.939 164.023L125.323 164.243L125.981 164.298L126.859 164.517V165.066L126.31 166.109V167.316L126.091 168.249L125.707 169.072L124.994 169.895L126.31 170.389L127.023 171.432L127.407 172.858L127.517 174.505L127.736 175.053L128.504 176.59L128.669 177.303L128.504 177.962L127.682 178.73L127.517 179.498L127.352 181.035L126.31 185.425L126.201 188.772L125.872 190.528L124.994 192.229H126.256L126.914 192.613L126.749 193.052L125.707 193.436L126.859 194.314L127.791 196.015L128.449 197.881L128.943 201.283L126.036 198.65L125.268 197.278L124.665 195.906L124.172 195.357L123.349 194.589L121.1 193.107L120.442 192.778L119.455 192.504L118.632 192.119L117.865 191.626L116.658 190.418L114.245 187.126L113.367 185.534L112.325 184.492L110.351 183.23L109.309 182.736L108.541 182.242L104.593 177.632L101.302 175.712L100.699 175.108L98.2308 171.212L97.5726 170.499L92.3625 165.889L89.5655 164.956L87.9202 164.188L87.1524 163.639L86.4943 163.036L85.9459 162.213L81.9423 154.64L79.6938 151.512L78.5969 151.238L78.7614 151.183L77.6097 149.756L73.8804 147.671L71.906 146.134L70.9188 145.146L69.7123 142.787L68.9445 142.677L68.0122 143.006L66.9153 143.226L62.3633 141.415L62.2536 138.122L65.4894 130.22L65.7636 128.135L68.1218 120.892L67.6283 120.069H63.9538L62.0891 120.508L58.634 122.428L56.8241 123.142L55.1788 123.251L53.1496 123.196L51.2301 122.757L49.7494 121.989L48.2686 120.398L43.0585 112.935L42.4004 111.508L41.9616 109.917L41.6326 107.832L41.5777 105.801L45.0329 81.3269L44.5941 79.4063L42.894 79.516L42.5649 79.4063L42.181 78.5832L42.4552 78.2539L43.0037 77.9247L42.894 77.4308L42.6746 75.8394L42.3455 75.3455L41.3584 75.1809L41.0293 75.0163L40.7002 74.248L40.426 73.3152L40.4809 72.5469L42.4004 71.7787L43.4972 70.9007L43.8811 70.0227L42.7294 69.5837L41.8519 68.5959L42.8391 66.3461L44.649 63.8767L46.3491 62.2853L50.9011 60.5842L52.9303 59.4318L54.6853 57.1819L54.9595 55.8649L55.3982 54.6577L56.0563 53.5053L56.9887 52.4627L58.6888 53.1212L60.5535 53.0663L62.4181 52.5724L64.0634 51.8042L65.7087 50.4323L66.5314 49.8836L68.8348 49.5543L69.7123 49.2251L70.5349 48.6763L71.3576 47.963L73.4965 45.2192L73.8804 44.5058L74.1546 43.5181L74.7579 43.0242L75.416 42.5852L75.9096 41.8718L76.0741 40.5548L77.171 38.744L75.9644 37.2075L77.7743 36.8233L79.7486 35.6161L80.7906 34.1345L79.6938 32.7626L80.9551 32.2138V31.6102L82.1617 30.5676L82.9295 30.403L84.0264 30.5127L84.7942 30.2932L85.2878 29.3055L85.6168 28.208L86.1104 27.4397L87.9751 27.1105L91.2108 29.086L93.2949 29.3055L94.1724 29.1957L95.8177 29.2506L96.5855 28.9214L97.2984 28.3177L99.4373 25.5191L100.699 25.4642L101.741 25.6837L102.618 26.2325L103.386 27.0556L103.88 28.0982L103.934 29.1957L103.88 30.1286L103.934 30.9517L104.264 31.8297L105.799 34.354L105.909 35.3417L105.689 36.2197L105.799 36.8233H107.006L107.828 36.6038L110.241 35.7258L112.271 35.8356L112.819 37.2623L112.216 40.939L112.325 43.134L113.093 44.2863L114.519 44.6705L120.168 44.7802L127.298 45.8777L136.073 48.3471L137.608 49.2251L139.089 50.9811L140.405 53.0114L141.996 54.4931L144.189 54.3833L146.273 53.6699L148.138 52.2432L149.235 50.3226L149.07 48.0178L148.193 47.0301L147.041 46.2618L146.054 45.4387L145.889 44.2315L148.028 36.988L149.07 35.8356L151.1 35.5063L156.2 36.1648L157.9 35.9453L163.165 33.476L165.139 33.2565L167.059 33.915L170.459 35.8905L172.434 36.11L174.518 35.4515L175.285 34.354L175.34 33.915Z" fill="#009649" stroke="white" stroke-width="2" stroke-linejoin="round"></path>
</svg>