<svg width="545" height="579" viewBox="0 0 545 579" fill="none" xmlns="http://www.w3.org/2000/svg">
<path class="region" d="M227.662 216.194L225.976 219.837L226.139 221.631L225.051 224.73L224.67 228.047L231.036 226.742L237.565 227.177L237.51 228.318L237.075 229.351L236.912 230.167L237.184 230.82L237.347 231.907L237.184 233.049L236.803 234.082L234.844 233.919L225.323 236.528L219.446 238.16L211.611 236.583L212.373 234.354L213.679 233.103L213.407 216.846L215.42 211.301L227.662 216.194Z" fill="#009649" stroke="white" stroke-width="2" stroke-linejoin="round" data-country-region="West Region"></path>
<path class="region" d="M415.048 219.348L415.483 223.752L416.68 228.156L417.116 232.56L416.626 241.694L416.082 243.651L413.416 246.914L412.382 248.708L411.947 250.828L411.566 263.714L411.838 265.454L412.382 266.432L412.926 266.813L413.416 267.357L413.905 271L414.558 273.772L415.266 274.262L415.701 274.86L415.374 276.545L414.667 277.47L413.797 277.905L412.926 278.176L411.511 279.373L411.402 280.841L413.252 282.526L414.558 283.994L415.919 285.68L417.66 285.951L419.89 284.212L425.331 278.231L426.42 276.437L427.834 277.578L428.161 279.427L428.759 281.33L429.195 283.45L427.834 285.571L424.733 291.715L424.515 294.488L423.59 301.773L421.36 308.08L421.468 312.049L419.183 318.9L417.496 322.216L416.789 323.902L417.496 325.751L418.149 326.566H418.095L411.294 324.935L403.241 326.349L401.826 325.968L400.738 325.207L400.521 323.793L400.466 322.216L399.704 320.912L396.657 319.607L393.774 319.009L390.781 319.444L387.136 320.748L384.252 322.978L384.687 324.446L385.503 325.805L384.959 326.892H383.653L381.423 328.197L379.355 329.883L376.961 330.698L374.404 329.502L371.085 328.686L367.983 329.937L367.004 331.242L365.807 332.275L364.556 332.438L363.358 332.873L360.529 335.102L357.319 334.993L354.653 333.58L351.824 332.71L348.613 333.308L345.458 333.634L342.792 331.949L340.615 329.285L339.908 323.413L337.895 324.989L335.773 328.034L333.433 327.545L328.808 329.883L326.36 329.393L324.183 327.762L321.844 326.62L319.341 326.24L316.784 326.566L311.451 326.349L310.091 321.455L311.125 319.063L311.179 316.562L310.037 315.203L308.731 314.387L308.404 313.463L307.915 312.484L306.01 311.125L304.868 308.95L303.235 307.156L301.005 306.449H298.556L296.108 306.232L294.693 305.307L293.605 304.383L290.993 304.165L289.579 303.622L289.252 302.752L289.143 301.882L287.565 300.631L285.824 299.598L285.117 297.26L285.552 290.464L282.016 284.429L284.083 283.45L286.26 282.689L287.565 280.079L288.327 277.361L288.98 276.165L289.796 275.186L290.014 273.392L289.959 271.978L289.47 269.097L291.592 267.302L293.659 267.683L295.455 267.792L294.475 262.246L292.571 260.778L288.164 261.865L286.477 261.05L284.029 259.038L281.961 258.331L278.479 259.147L277.989 254.09L279.894 252.405L281.145 249.958L280.166 248.273L279.622 246.424L280.166 243.869L280.492 238.051L281.363 235.604L282.886 234.082L278.697 227.938L275.323 227.34L274.344 224.894L275.65 224.295L276.901 224.078L278.152 222.719L280.057 220.109L280.546 219.022L280.492 218.043L280.71 216.738L283.376 214.944L286.423 213.53L288.273 210.703L291.537 212.171L297.686 213.095L296.434 210.703L294.748 208.582L295.346 206.353L296.434 204.015L297.468 202.275L298.828 203.145L300.569 203.037L301.984 201.134L303.453 200.155L304.813 201.079L307.479 202.004L309.982 202.221L310.581 200.427L311.016 198.741L311.887 197.328L313.029 196.24L314.117 197.491L315.587 198.524L317.6 200.264L318.906 202.874L321.953 203.852L329.189 200.862L330.44 196.621L329.298 195.588L328.699 194.5L329.788 192.489L330.712 190.477L332.562 187.759L335.229 185.856L335.99 184.496L337.078 183.626L338.82 183.028L340.289 181.669L342.465 179.82L344.478 177.7L345.294 177.211L346.328 177.591L347.471 176.884L348.505 175.688L350.735 176.884L352.857 177.754L355.415 178.352L357.645 178.516L358.135 176.232L358.407 173.785L357.863 171.121L359.387 169.218L361.726 168.076L364.12 168.294L365.317 170.414L366.95 170.795L368.473 171.556L368.255 173.405L368.473 175.308L371.03 174.275L373.479 172.372L374.513 172.807L375.274 173.785L376.199 173.894L377.342 173.459L380.715 174.003L383.871 175.471L386.156 174.873L388.496 173.677L391.434 174.329L394.1 175.96L394.971 178.461L392.903 179.984L390.4 179.005L388.768 179.603L387.299 180.69L386.7 183.355L387.081 186.889L388.877 189.553L391.706 190.912L392.305 193.196L393.121 195.153L395.134 196.023L396.984 197.056L403.295 197.545L402.915 199.992L403.676 200.699L404.329 201.514L403.404 204.178L402.262 207.06L402.479 210.05L403.241 212.715L403.513 215.107L402.588 217.662L408.519 219.891L411.294 218.641L414.177 219.293L415.048 219.348ZM357.7 299.925L358.19 298.239L358.135 296.445L357.972 294.759L357.047 293.998L356.34 292.911L356.285 290.247L356.72 289.54L356.775 288.67L355.687 286.767L352.204 284.266L347.688 284.538L342.193 285.299L338.167 288.67L338.711 293.509L337.187 295.14L336.262 297.206L337.078 297.369L337.84 297.641L337.677 298.674L337.351 299.707L335.936 299.925H334.63L333.487 301.61L333.977 303.567L335.337 304.057L336.589 305.307L337.568 307.265L339.092 308.515L340.18 309.222L340.942 309.874L341.649 309.331L342.846 307.156L344.097 306.177L346.872 306.449L351.824 307.754L353.782 306.612L354 305.579V304.927L354.816 302.806L354.925 301.882V301.175L355.741 301.121L356.34 301.338L357.7 299.925ZM541.932 128.006L540.3 128.875L538.123 128.44L536.001 127.136L534.587 125.45L534.097 123.221L534.859 121.59L536.382 120.557L539.429 120.013L541.497 119.252L542.531 119.034L544 120.176L543.891 122.895L542.966 125.994L541.932 128.006Z" fill="#009649" stroke="white" stroke-width="2" stroke-linejoin="round" data-country-region="East Region"></path>
<path class="region" d="M418.151 326.566L418.859 327.762L418.532 330.045L418.369 332.764L417.771 336.896L416.9 338.636L415.485 340.539L414.179 341.246L413.635 339.397L413.091 336.95L412.003 335.156L410.806 334.83L410.099 336.896L411.241 337.168L411.949 338.038L412.275 339.343L412.384 340.865L412.003 342.279L411.133 342.605L410.153 342.714L409.446 343.366L409.555 344.127L409.663 346.085L410.044 348.151L408.521 350.76L409.228 351.739L409.772 352.337L409.663 353.751L407.922 354.349L406.236 355.327L403.842 357.72L401.828 357.665L401.774 357.774L401.448 357.448L398.999 356.578L397.095 354.729L396.551 351.793L394.537 350.271L390.13 347.824L386.43 343.583L384.2 341.844L378.867 341.028L377.562 338.418L379.738 334.069L379.357 329.882L381.425 328.197L383.655 326.892H384.961L385.505 325.804L384.689 324.445L384.254 322.977L387.138 320.748L390.783 319.443L393.776 319.008L396.659 319.606L399.706 320.911L400.468 322.216L400.523 323.793L400.74 325.206L401.828 325.967L403.243 326.348L411.296 324.934L418.097 326.566H418.151Z" fill="#009649" stroke="white" stroke-width="2" stroke-linejoin="round" data-country-region="East Region"></path>
<path class="region" d="M146.809 325.968L146.972 326.566L146.646 327.382L145.068 328.741L144.034 329.937L143.055 330.698L142.565 330.807L142.184 330.426L141.912 329.72L142.075 329.067L143 328.578L142.456 328.143L143.109 327.599L143.436 327.164L144.252 326.947L144.143 326.349L145.449 326.566L146.428 325.642L146.809 325.968ZM259.764 282.091L260.471 282.961L261.288 283.722L261.995 283.559L262.539 282.798L264.008 283.668L265.314 285.19L269.177 286.495L269.939 287.474L271.353 287.854L274.128 286.169L277.284 284.755L278.536 285.951L279.787 286.604L280.93 285.625L282.018 284.429L285.554 290.464L285.119 297.261L281.963 300.631L281.147 302.861L276.849 305.144L274.727 305.797L273.584 305.688L272.714 306.232L271.081 309.711L269.231 311.669L267.273 313.409L266.293 316.181L266.076 319.444L264.988 321.836L263.627 324.337L262.648 327.545L261.886 330.807L260.689 333.308L260.635 335.972L262.811 336.897L263.138 338.038L263.301 339.398L264.28 341.899L264.117 344.563L264.988 346.574L266.239 347.39L265.695 350.326L262.104 354.621L261.56 357.448L261.396 360.058L259.601 361.907L254.704 357.938L249.209 355.926L246.053 357.666L243.55 360.385L240.884 360.765H238L234.899 361.2L231.689 361.146L230.22 360.276L228.914 359.243L227.445 359.623H225.649L223.037 360.058L220.589 361.526L217.379 361.037L215.311 358.862L215.42 355.382L213.624 353.371L213.135 351.413L213.897 348.369L212.155 345.705L209.598 345.868L209 346.955L208.129 347.771L207.585 349.184L207.367 350.652L204.756 350.707L200.675 345.215L198.063 343.04L196.54 342.442L195.016 342.334L193.547 344.019L190.663 343.747L188.487 345.65V347.118L188.541 348.532L187.78 349.728L186.692 350.543L186.746 351.631L186.909 352.718L186.202 354.241L185.059 355.219L183.645 355.926L182.176 356.307L180.924 357.068L179.781 357.938L176.898 358.373L174.123 359.351L171.566 360.004L169.444 359.297L169.552 356.415L170.096 353.588L170.586 349.728L168.138 349.075L159.759 351.413L157.963 351.957L156.766 350.598L156.385 349.51L156.984 347.009L158.453 343.91L160.792 338.473L162.751 335.592L165.58 334.613L168.791 333.96L171.511 333.797L172.763 332.764L174.014 331.025L175.701 330.59L177.224 332.329L178.802 334.287L179.945 334.667L178.856 330.698L178.04 328.904L176.735 328.143L164.547 330.155L160.303 327.49L160.629 323.521L162.642 322.488L164.383 320.749L166.016 318.9L168.573 317.378L171.783 315.638L174.177 312.267L174.558 309.113L176.843 307.7L177.387 307.265L180.434 306.938L183.481 307.319L185.386 308.787L186.746 309.113L187.671 310.744L188.052 309.874L188.324 308.678L188.433 307.428L186.528 305.905L184.842 305.09L182.992 303.839L181.468 302.698L180.706 302.263L180.924 301.338L181.631 300.36L182.339 299.762L183.1 299.598L187.943 299.925L188.977 299.816L189.738 299.435L190.283 298.457L190.5 297.695L190.881 297.152L192.078 296.934L192.459 296.608L192.024 295.793L191.099 295.031L190.065 294.651L189.793 294.868L183.481 297.424L181.359 297.532L177.17 297.261L173.089 296.934L173.035 295.086L172.763 292.585L171.946 291.878L169.389 291.008L165.635 291.606L165.254 288.398L173.035 287.528L177.279 286.985L181.577 286.767L182.992 285.897L184.461 286.332L186.256 285.408L189.412 283.015L193.438 281.384L195.179 280.188L195.343 278.666L190.283 280.188L194.146 275.404L198.281 274.969L203.123 273.936L212.047 271.108L215.202 271.761L214.441 276.437L216.291 279.318L218.793 278.829L221.242 277.905L225.976 276.98L227.227 276.545L228.424 276.002L230.22 275.621L231.417 273.827L232.831 272.359L235.606 274.806L239.469 281.765L242.299 283.179L243.441 283.505L243.931 284.538L243.332 285.734L243.659 286.604L248.665 287.256L250.514 286.821L253.072 286.713L255.629 286.006L257.697 284.157L259.764 282.091Z" fill="#009649" stroke="white" stroke-width="2" stroke-linejoin="round" data-country-region="West Region"></path>
<path class="region" d="M134.075 153.07L133.694 153.722L132.606 154.864L131.844 155.19L130.811 155.353L129.94 154.973L129.178 153.396L128.362 153.831L127.981 153.722L128.253 151.548L128.743 150.08L129.341 149.21L130.049 149.699L130.647 150.732L131.3 151.221L133.422 152.363L134.075 153.07ZM161.498 152.037L160.79 152.907L159.811 153.124L159.158 152.635L158.451 152.689L157.852 152.363L157.689 151.004L157.852 149.59L158.56 148.612L160.083 147.796L162.042 147.959L162.912 148.557L163.239 149.862L162.858 150.351L161.933 150.623L161.607 151.33L161.498 152.037ZM169.768 147.959L170.095 148.829L171.128 149.427L172.761 150.08L173.196 150.569L173.631 151.982L173.196 152.961L168.789 156.495L166.776 156.713L166.83 156.169L167.755 154.918L167.864 154.157L167.483 153.559L168.571 152.254L168.625 150.949L168.19 149.373L167.537 148.285L166.884 147.524L167.102 147.307L168.517 148.013L169.714 146.926L169.986 147.035L169.768 147.959ZM93.975 107.29L93.4853 107.508L92.7235 105.605L92.8324 104.626L93.4853 104.517L94.4647 104.68L95.0632 105.278L94.7911 106.475L93.975 107.29ZM152.194 106.801L150.453 106.909L144.631 102.342L145.392 101.69L145.719 100.82L146.209 98.7539L146.916 97.6665L147.406 97.2859L147.895 97.1228L148.222 97.3403L148.548 98.1015L148.82 100.113L149.364 101.201L149.908 101.799L152.139 103.647L152.955 104.626L153.119 105.659L152.194 106.801ZM14.0467 93.7519L14.482 94.1325L14.3187 94.6762L13.7202 94.8393L12.9041 94.6218L12.3056 94.8936L11.7615 95.5461L10.9997 95.9267L11.3806 94.7849L11.9791 94.3499L12.1423 93.7519L13.2849 93.8062L14.0467 93.7519ZM144.141 90.1634L145.773 91.1421L147.46 91.0877L149.038 91.3596L149.854 92.2295L149.256 94.1868L147.732 95.4917L145.882 95.6548L142.291 94.8393L140.496 95.7092H139.679L139.353 94.513L139.516 94.1325L140.496 91.1421L141.584 90.109L142.781 89.7828L144.141 90.1634ZM165.905 110.444L164.926 112.727L164.055 113.488L163.402 113.597L162.912 113.325L161.987 112.347L161.335 111.966L160.899 112.129L160.192 112.673L155.676 112.945L153.989 112.129L152.194 109.791L154.86 109.084L155.513 108.649L156.22 107.508L156.111 107.018L155.622 106.692L155.186 106.094L152.139 100.222L151.922 99.2976L152.248 98.1559L152.194 92.9907L152.52 91.7945L153.391 91.5227L155.404 89.1304L156.982 88.7498L158.342 89.7285L159.648 91.2508L160.954 92.447L163.729 93.8606L164.817 94.948L165.252 96.6879L165.143 97.6122L164.708 99.0802L164.599 99.7326L164.817 100.439L165.579 101.907L165.796 102.723L166.068 106.638L165.796 107.562L166.231 108.16L166.993 109.791L165.905 110.444ZM9.63947 90.3265L8.98655 90.7071L8.33363 90.6528L7.78953 90.8702L7.35425 91.3052L6.81015 90.4353L6.15723 89.511L6.42928 88.6954L7.84394 87.4993L9.20419 86.1944L9.85711 86.3031L10.51 86.6293L10.6733 87.3362L10.238 88.3148L10.0203 89.4022L9.63947 90.3265ZM11.2174 71.7319L12.1967 72.8737L12.0335 74.5048L10.8365 75.3747L9.20419 74.3416L6.97338 74.5591L6.5381 74.7766L6.59251 75.9184L7.40866 76.299L8.38804 76.5165L8.87773 76.8971L7.13661 78.3107L3.59996 77.8213L0.988281 75.5922L1.85884 71.7319L4.08965 72.4931L8.82332 70.8076L11.2174 71.7319ZM258.728 163.944L258.13 165.086L257.423 166.119L256.062 167.152L255.137 168.892L251.002 176.558L248.88 178.08L248.391 177.428L246.704 177.102L245.344 178.515L244.636 180.309L243.602 181.669L241.372 182.593L240.011 184.115L239.195 187.269L236.366 188.248L232.666 190.042L228.803 191.129L224.777 190.585L221.458 187.813L217.703 186.127L210.576 189.172H207.202L203.121 188.356L204.264 187.486L205.57 186.888L206.495 185.855L207.039 183.245L206.876 182.756L205.951 181.669L206.386 181.234H207.311L208.508 180.527L209.27 180.418L209.814 180.038L210.086 178.787L204.917 180.255L204.155 181.342L204.427 184.659L203.774 185.42L201.761 186.073L198.932 185.692L195.558 183.735L192.511 180.69L191.314 177.808L196.483 177.265V176.612L195.341 175.797L196.266 175.688L197.191 175.742L198.061 176.014L198.769 176.612L198.442 174.546L197.245 172.698L196.375 170.632L197.027 167.75L196.048 167.315L195.286 168.294L194.851 170.033L194.688 171.773L194.253 173.676L193.436 174.111L192.62 173.296L190.988 173.622L189.356 174.057L185.384 172.861V171.61L185.003 170.577L185.329 169.109L185.166 167.261L186.145 165.412L187.343 163.781L188.703 163.128L190.172 162.585L192.348 162.53L194.688 161.878L195.178 161.171L195.341 159.159L194.797 158.779L193.6 159.431L191.804 161.008L190.662 160.736L189.845 160.247L189.41 159.431V158.126L187.397 159.159L185.71 160.356L182.663 163.672L181.847 164.325L180.868 164.651H179.943L179.399 164.053V163.074L179.943 162.095L181.194 160.301L178.691 160.899L177.93 160.627L177.603 159.159L178.093 158.072L179.127 157.474L180.324 157.039L181.194 156.55L182.228 155.136L181.956 154.755L179.671 155.082L178.909 154.592L178.31 153.45L177.712 151.982L177.059 150.623L177.44 150.514L178.202 149.862L178.855 150.351L179.78 150.297L181.466 149.862L182.826 150.243L183.969 150.949L185.112 151.276L186.418 150.623L186.309 151.874L186.418 153.016L186.853 153.94L187.669 154.32L188.594 153.994L188.975 152.961L189.41 150.623L190.879 148.448L192.076 148.666L193.436 149.481L195.341 149.155L194.906 148.285L194.361 147.633L193.708 147.198L192.892 146.98H191.695L191.151 146.165L189.9 145.947L188.866 146.274L187.832 146.219L186.2 145.893L183.479 145.023L179.725 142.196L179.562 140.945L181.194 138.499L182.337 137.357L185.057 136.541L186.853 135.236L188.05 132.898L188.866 130.18L188.05 128.875L186.635 127.951L185.71 125.83L185.765 123.275L180.65 118.382L172.325 118.653L171.237 116.098L169.605 113.325L168.625 112.347L168.571 110.879L168.245 108.704L167.32 105.278L166.068 96.3073L166.395 94.8393L167.537 94.6218L172.271 96.3616L173.794 96.0354L175.046 95.4373L176.188 95.2199L177.331 95.981L177.766 97.2859L177.93 99.2433L177.821 101.309L177.331 102.723L177.277 105.278L179.943 107.508L183.316 108.921L185.384 109.03L183.751 107.344L178.8 103.756L180.215 99.8957L180.65 97.6122L180.324 95.981L179.507 94.2956L179.344 92.0664L179.725 89.8916L180.596 88.1517L179.943 87.3362L179.127 87.4449L177.821 88.3692L177.222 78.9631L177.658 76.4077L178.691 75.6465L180.324 75.4291L182.5 74.6135L185.928 71.8406L193.328 60.586L194.797 59.0636L198.116 56.5082L199.53 54.8227L202.468 47.5914L203.502 46.2322L205.243 47.1021L209.542 49.8206L210.249 51.5605L211.174 52.3217L211.99 53.246L212.589 55.0402L213.514 56.4538L214.602 56.2907L215.636 57.3781L218.519 59.9879L221.675 61.5102L222.763 59.716L222.818 56.1276L223.035 55.0402L223.688 54.3334L224.287 54.714L224.45 55.8014L224.777 56.8888L226.463 58.0305L228.422 57.7043L229.728 56.3994L230.871 54.9314L231.469 54.4421L232.176 54.3334L232.884 54.4965L233.482 54.9858L232.612 56.3994L231.959 58.3568L232.013 60.4228L233.373 61.6734L234.679 62.4889L237.998 63.2501L241.589 61.9996L243.058 63.0326L243.602 62.9782L244.092 62.5433L244.745 62.3802L245.344 62.9239L246.16 65.4793L246.595 70.6445L247.683 73.5261L249.86 75.1572L251.927 75.0485L253.832 75.1028L255.029 78.3651L256.606 79.0719L258.293 79.3981L260.306 82.5516L259.871 86.9556L258.892 88.4779L257.151 89.076L252.743 92.2839L252.907 93.9693L252.961 95.7636L252.471 97.2316L253.124 99.1889L253.559 101.146L251.057 104.137L252.09 105.441L254.376 104.68L254.321 106.909L253.995 109.03L253.07 110.879L252.907 112.673L254.811 114.304L257.151 113.543L259.49 113.923L261.667 115.337L263.843 116.261L268.685 118.925L271.569 119.306L273.691 120.121L275.759 120.339L277.01 121.426L277.99 123.112L277.119 125.015L275.378 125.722L273.8 127.679L272.657 129.636L273.147 132.083L272.494 134.53L267.216 145.839L263.353 155.299L258.728 163.944ZM217.214 115.446L217.159 112.781L216.289 110.389L215.69 106.909L214.221 104.354L211.12 104.137L208.454 104.789L206.712 106.583L205.515 109.193L203.502 111.694L199.639 112.075L199.149 113.815L199.041 115.663L197.191 116.805L195.123 117.457L192.403 115.772L189.954 115.663L188.703 118.436L190.716 120.937L192.457 123.329L192.892 126.483L194.579 127.57L197.082 128.331L199.639 131.648L203.339 131.811L204.917 131.539L206.386 130.669L208.562 130.017L210.684 129.528L211.664 131.757L214.221 130.506L216.669 129.908L218.9 128.603L219.716 127.19L221.186 125.178L220.478 124.362V122.405L221.784 121.535L222.981 120.937L223.199 119.306L222.546 117.729L220.805 117.784L218.791 118.49L216.397 118.545L217.214 115.446Z" fill="#009649" stroke="white" stroke-width="2" stroke-linejoin="round" data-country-region="West Region"></path>
<path class="region" d="M200.781 364.19L205.188 365.876L206.93 370.715L203.556 375.227L198.224 374.357L193.545 371.53L191.205 366.365L193.055 364.625L196.156 365.441L198.387 364.897L200.781 364.19Z" fill="#009649" stroke="white" stroke-width="2" stroke-linejoin="round" data-country-region="West Region"></path>
<path class="region" d="M169.987 123.765L170.531 125.069L170.096 125.287L169.334 125.831L169.062 126.211L167.538 126.537L166.885 126.429L163.947 127.734L162.859 128.712L162.261 129.8L158.506 132.627L157.69 132.464H156.548L156.167 131.105L155.514 130.67L155.187 131.05L154.752 130.017L154.208 129.908L153.337 130.833L152.684 130.506L151.76 130.289L152.304 129.745L152.14 129.147L151.215 128.277L150.943 127.679L151.27 126.864L151.814 126.755L152.521 127.081L156.439 124.363L159.214 124.036L161.118 124.091L162.859 123.166L163.458 120.72L164.655 120.285L165.688 121.318L167.158 121.97L168.137 122.079L168.844 122.46L169.497 123.33L169.987 123.765ZM182.338 137.357L182.12 136.596L177.604 136.052L175.482 138.716L173.306 137.085L174.176 135.074L175.319 133.388L174.612 132.138L171.674 130.561L171.837 128.603L171.565 127.027L172.435 125.559L174.884 124.852L175.645 124.471L175.809 123.547L174.666 123.221L174.34 124.199L172.544 124.363L172.109 123.275L171.891 121.318L172.326 118.654L180.651 118.382L185.766 123.275L185.711 125.831L186.636 127.951L188.051 128.875L188.867 130.18L188.051 132.899L186.854 135.237L185.058 136.542L182.338 137.357Z" fill="#009649" stroke="white" stroke-width="2" stroke-linejoin="round" data-country-region="West Region"></path>
<path class="region" d="M348.507 175.688L347.473 176.885L346.331 177.591L345.297 177.211L344.481 177.7L342.468 179.821L340.291 181.669L338.822 183.028L337.081 183.626L335.993 184.496L335.231 185.856L332.565 187.759L330.715 190.477L329.79 192.489L328.702 194.501L329.3 195.588L330.443 196.621L329.192 200.862L321.955 203.852L318.908 202.874L317.602 200.264L315.589 198.524L314.12 197.491L313.032 196.24L311.889 197.328L311.019 198.741L310.583 200.427L309.985 202.221L307.482 202.004L304.816 201.079L303.456 200.155L301.987 201.134L300.572 203.037L298.831 203.145L297.47 202.276L296.437 204.015L295.348 206.353L294.75 208.582L296.437 210.703L297.688 213.095L291.54 212.171L288.275 210.703L286.425 213.53L283.378 214.944L280.712 216.738L280.495 218.043L280.549 219.022L280.059 220.109L278.155 222.719L276.904 224.078L275.652 224.296L274.346 224.894L275.326 227.34L278.699 227.938L282.889 234.082L281.365 235.605L280.495 238.051L280.168 243.869L279.624 246.424L280.168 248.273L281.148 249.958L279.896 252.405L277.992 254.09L278.481 259.147L281.964 258.331L284.031 259.038L286.48 261.05L288.166 261.865L292.574 260.778L294.478 262.246L295.457 267.792L293.662 267.683L291.594 267.302L289.472 269.097L289.962 271.978L290.016 273.392L289.799 275.186L288.983 276.165L288.33 277.361L287.568 280.079L286.262 282.689L284.086 283.45L282.018 284.429L280.93 285.625L279.787 286.604L278.536 285.951L277.284 284.755L274.129 286.169L271.354 287.854L269.939 287.474L269.177 286.495L265.314 285.19L264.008 283.668L262.539 282.798L261.995 283.559L261.288 283.722L260.472 282.961L259.764 282.091L257.806 279.046L256.01 275.947L255.303 272.25L255.412 268.607L254.541 265.4L251.875 263.768L249.318 262.953L246.543 263.551L246.325 260.506L246.488 257.57L247.522 253.438L249.426 249.904L250.243 248.11L251.113 246.533L252.528 245.446L252.854 243.597L251.766 243.216L250.569 242.673L249.1 243.76L247.957 245.282L247.087 242.455L246.924 240.552L245.89 239.954L245.999 238.758L244.802 238.486L243.822 239.9L241.047 240.552L238.436 239.791L238.762 237.942L238.272 236.746L237.511 236.366L236.912 235.713L236.586 234.898L236.803 234.082L237.184 233.049L237.347 231.907L237.184 230.82L236.912 230.168L237.075 229.352L237.511 228.319L237.565 227.177L231.036 226.742L224.67 228.047L225.051 224.73L226.139 221.631L225.976 219.837L227.662 216.194L230.057 212.715L231.852 209.561L232.614 208.8L233.43 208.909L234.192 208.691L234.627 207.876L234.79 206.951L235.008 205.755L235.443 204.668L235.661 203.417L235.498 202.221L234.899 201.134L234.192 200.481L234.3 198.252L233.158 197.491L231.689 194.501L230.546 193.794L229.512 192.761L228.805 191.13L232.668 190.042L236.368 188.248L239.197 187.269L240.014 184.116L241.374 182.593L243.605 181.669L244.638 180.31L245.346 178.516L246.706 177.102L248.393 177.428L248.882 178.081L251.004 176.558L255.14 168.892L256.064 167.152L257.425 166.119L258.132 165.086L258.731 163.944L267.817 161.443L276.958 160.193L276.196 165.412L278.862 164.76L281.474 164.977L282.943 165.793L283.596 165.195L284.194 164.488L285.936 163.292L285.446 158.018L287.078 156.006L291.485 154.538L294.75 158.018V160.356L295.838 161.824L298.667 161.172L301.497 159.54L303.238 158.236L305.306 158.67L306.992 157.746L309.005 156.224L313.793 157.909L318.69 158.725L320.268 159.16L319.289 161.443L316.786 163.238L315.317 165.521L316.242 166.554L317.439 167.261H318.255L319.017 166.88L321.629 166.01L325.709 165.576L326.58 166.5L326.417 168.022L328.158 169.816L328.756 171.23L330.334 171.121L332.184 170.795L334.252 170.143L336.319 170.088L338.332 171.665L340.618 173.133L342.848 173.568L345.079 173.84L346.82 174.601L348.507 175.688Z" fill="#009649" stroke="white" stroke-width="2" stroke-linejoin="round" data-country-region="East Region"></path>
<path class="region" d="M217.215 115.446L216.399 118.545L218.793 118.49L220.806 117.784L222.547 117.729L223.2 119.306L222.982 120.937L221.785 121.535L220.48 122.405V124.362L221.187 125.178L219.718 127.19L218.902 128.603L216.671 129.908L214.222 130.506L211.665 131.757L210.686 129.528L208.564 130.017L206.387 130.669L204.918 131.539L203.34 131.811L199.641 131.648L197.083 128.332L194.58 127.57L192.894 126.483L192.458 123.329L190.717 120.937L188.704 118.436L189.956 115.663L192.404 115.772L195.124 117.457L197.192 116.805L199.042 115.663L199.151 113.815L199.641 112.075L203.504 111.694L205.517 109.193L206.714 106.583L208.455 104.789L211.121 104.137L214.222 104.354L215.691 106.91L216.29 110.389L217.161 112.782L217.215 115.446Z" fill="#009649" stroke="white" stroke-width="2" stroke-linejoin="round" data-country-region="West Region"></path>
<path class="region" d="M415.049 219.348L414.178 219.293L411.295 218.641L408.52 219.891L402.589 217.662L403.514 215.107L403.242 212.715L402.48 210.05L402.263 207.06L403.405 204.178L404.33 201.514L403.677 200.699L402.916 199.992L403.296 197.545L396.985 197.056L395.135 196.023L393.122 195.153L392.306 193.196L391.707 190.912L388.878 189.553L387.082 186.889L386.701 183.355L387.3 180.69L388.769 179.603L390.401 179.005L392.904 179.984L394.972 178.461L394.101 175.96L391.435 174.329L388.497 173.677L386.157 174.873L383.872 175.471L380.716 174.003L377.343 173.459L376.2 173.894L375.275 173.785L374.514 172.807L373.48 172.372L371.031 174.275L368.474 175.308L368.256 173.405L368.474 171.556L366.951 170.795L365.318 170.414L364.121 168.294L361.727 168.076L359.388 169.218L357.864 171.121L358.408 173.785L358.136 176.232L357.646 178.516L355.416 178.352L352.858 177.754L350.736 176.884L348.506 175.688L346.819 174.601L345.078 173.84L342.847 173.568L340.616 173.133L338.331 171.665L336.318 170.088L334.25 170.143L332.183 170.795L330.333 171.121L328.755 171.23L328.156 169.816L326.415 168.022L326.578 166.5L325.708 165.575L321.627 166.01L319.015 166.88L318.254 167.261H317.437L316.24 166.554L315.315 165.521L316.785 163.238L319.287 161.443L320.267 159.16L318.689 158.725L313.792 157.909L309.004 156.224L306.991 157.746L305.304 158.67L303.236 158.235L301.495 159.54L298.666 161.171L295.837 161.824L294.749 160.356V158.018L291.484 154.538L287.077 156.006L285.444 158.018L285.934 163.292L284.193 164.488L283.594 165.195L282.942 165.793L281.472 164.977L278.861 164.76L276.195 165.412L276.956 160.193L267.816 161.443L258.729 163.944L263.354 155.299L267.217 145.839L272.495 134.53L273.148 132.083L272.658 129.637L273.801 127.679L275.379 125.722L277.12 125.015L277.99 123.112L277.011 121.427L275.759 120.339L273.692 120.122L271.57 119.306L268.686 118.926L263.844 116.262L261.667 115.337L259.491 113.924L257.151 113.543L254.812 114.304L252.907 112.673L253.07 110.879L253.995 109.03L254.322 106.91L254.376 104.681L252.091 105.442L251.057 104.137L253.56 101.147L253.125 99.1893L252.472 97.2319L252.962 95.7639L252.907 93.9697L252.744 92.2842L257.151 89.0764L258.892 88.4783L259.872 86.9559L260.307 82.5519L258.294 79.3985L256.607 79.0722L255.029 78.3654L253.832 75.1032L251.928 75.0488L249.86 75.1576L247.684 73.5265L246.596 70.6448L246.16 65.4796L245.344 62.9242L244.746 62.3805L244.093 62.5436L243.603 62.9786L243.059 63.033L241.59 61.9999L237.999 63.2505L234.68 62.4893L233.374 61.6737L232.014 60.4232L231.959 58.3571L232.612 56.3998L233.483 54.9862L232.884 54.4968L232.177 54.3337L231.47 54.4425L230.871 54.9318L229.729 56.3998L228.423 57.7047L226.464 58.0309L224.777 56.8891L224.451 55.8017L224.288 54.7143L223.689 54.3337L223.036 55.0405L222.818 56.1279L222.764 59.7164L221.676 61.5106L218.52 59.9882L215.636 57.3785L214.603 56.2911L213.514 56.4542L212.589 55.0405L211.991 53.2463L211.175 52.322L210.25 51.5608L209.542 49.821L205.244 47.1025L203.503 46.2325L204.047 45.6345L208.726 41.7198L214.222 38.2945L219.989 35.9022L225.539 35.3041L228.314 35.6303L238.924 34.706L247.085 37.1527L249.697 36.9352L254.757 35.4128L271.352 33.9448L272.06 34.4342L273.148 36.0109L274.182 37.0983L275.379 37.3702L281.092 36.174L290.124 36.7177L296 36.2284L301.876 34.1623L307.372 30.5739L311.942 25.7893L313.955 22.9077L315.642 19.8629L316.73 16.4376L317.111 12.5773L316.404 8.77137L316.186 6.86841L316.73 5.45478L319.07 3.60619L323.967 1.05078L330.55 14.0997L331.366 17.5794L333.38 22.8533L340.997 37.9139L346.928 53.7356L347.907 55.4211L350.954 59.2814L352.151 62.4893L366.515 83.0413L372.065 91.1424L378.758 98.5368L379.683 99.298L384.144 104.572L384.416 106.801V109.465L384.96 111.749L388.007 113.434L388.878 115.283L391.381 123.493L392.523 125.341L393.884 126.157L394.972 127.353L398.889 135.074L401.283 138.01L402.099 139.641L402.371 141.381L402.97 143.066L407.16 147.633L408.465 151.385L409.662 159.595L411.24 164.053L415.702 170.251L416.028 171.502L415.484 172.752L414.723 173.948L414.178 175.145V176.178L414.777 179.549L415.539 189.172L416.355 193.631L419.184 202.656L419.456 207.114L418.531 211.192L416.627 214.944L415.049 219.348Z" fill="#009649" stroke="white" stroke-width="2" stroke-linejoin="round" data-country-region="East Region"></path>
<path class="region" d="M386.975 384.85L386.267 385.72L385.723 385.285L385.125 384.524L383.492 383.6L382.676 382.676L382.731 381.371L383.384 380.718L384.254 380.773L385.07 381.914L385.832 382.73L386.431 383.056L385.886 383.491L385.778 384.252L386.975 384.85ZM395.789 373.813L395.354 374.629L393.069 374.574L391.872 374.792L390.947 374.738L390.022 375.173L388.988 375.281L388.933 376.749L389.586 377.782L389.695 379.033L389.26 380.392L387.356 381.316L384.853 379.142L384.145 378.326L381.86 380.718L380.826 382.676L380.5 384.687L379.847 385.177L379.412 384.144L378.378 383.056L378.65 386.155H377.997L377.725 385.449L377.344 385.285L375.657 386.427L375.059 385.72L374.352 383.328L374.678 381.208L375.331 378.489L375.44 376.967L376.147 375.662L377.453 374.031L378.704 372.182L379.575 365.93L380.826 364.407L382.459 363.211L384.472 362.396L386.648 362.504L388.335 363.592L388.825 365.875L390.348 368.05L392.361 369.627L393.885 371.638L395.626 373.433L395.789 373.813Z" fill="#009649" stroke="white" stroke-width="2" stroke-linejoin="round" data-country-region="East Region"></path>
<path class="region" d="M149.855 500.007L149.529 500.388L149.692 500.932L149.311 501.204H148.495L148.331 501.91V502.563L147.733 502.454L146.427 500.279L147.461 500.062L148.277 500.334L149.855 500.007ZM200.892 498.213L198.933 498.539L198.715 496.908L199.422 496.473L200.075 496.582L200.892 498.213ZM233.374 489.405L233.918 489.677L234.463 489.623L234.68 490.928L235.061 491.145L235.279 491.852L234.898 492.069L233.864 491.634L233.374 490.873L232.885 489.895L232.993 489.242L233.374 489.405ZM231.905 489.133L232.123 489.568L231.796 490.547L231.96 491.58L233.048 493.429L233.538 493.864L234.19 494.027L234.408 494.407L234.299 494.897L233.102 494.299L231.905 494.027L231.416 492.994L231.198 492.124L230.599 491.58L230.436 490.873L230.545 489.514L231.144 489.568L231.905 489.133ZM46.0951 490.166L45.8231 490.656L44.8437 490.166L43.157 488.644L42.1776 488.046L41.96 487.23L42.3952 486.143L43.0482 485.545L44.0275 485.871L44.7893 486.795L45.9863 489.351L46.0951 490.166ZM172.381 485.219L170.422 484.947L170.966 484.294L170.694 483.696L170.966 483.425L171.565 483.533L172.109 484.403L172.381 485.219ZM169.225 477.987L169.769 478.042L170.476 477.824H171.456L172.653 478.314L173.36 479.184L173.197 479.673L172.49 479.292L172.381 479.673L171.238 479.129H170.422L169.987 479.619L169.66 480.162L168.735 480.815L167.865 481.576L166.559 482.337L164.927 482.283L164.002 481.087L163.947 479.51L164.709 477.933L166.232 476.9H167.538L169.225 477.987ZM177.658 483.153L176.788 483.37L176.353 483.098L176.189 482.609L175.319 482.174L175.156 480.815L175.7 478.368L175.863 477.063L175.319 476.519L175.156 476.03L175.863 475.378L175.917 474.997H176.625L178.094 475.758L178.311 476.791L177.495 477.498L177.332 478.259L178.203 479.564L178.529 479.782L178.855 480.271L178.203 480.652L178.094 481.25V482.337L177.658 483.153ZM185.929 476.411L185.711 477.118L185.167 476.248L184.677 475.813L184.895 474.997L184.841 474.453L186.092 473.42L186.636 474.834L186.527 475.704L185.929 476.411ZM199.531 478.151L198.987 479.129L198.008 479.673L196.702 479.782L195.777 479.292L195.015 478.586L194.417 478.64L194.145 479.184L193.818 478.966L193.437 477.389L193.981 476.302L194.145 475.323L194.471 474.508L195.07 473.91L196.321 473.312L197.79 473.692L198.661 474.943L199.967 476.302L199.749 477.607L199.531 478.151ZM171.075 476.9L170.64 477.226L169.334 476.9L168.626 476.248L168.463 475.813L167.701 475.595L167.593 475.269L168.3 473.583L168.246 472.768L168.735 472.387L168.246 471.354L168.518 471.137L169.878 471.681L171.673 472.007L173.034 472.822L173.414 473.312L173.469 474.236L172.87 474.725L172.598 475.921L171.347 475.976L170.64 476.139L171.075 476.9ZM116.502 470.376L115.577 471.354L114.924 471.572H114.162V471.082L114.488 470.158L114.924 469.778L116.502 470.376ZM228.913 472.931L228.695 473.475L227.117 473.149L225.594 473.529L226.301 471.3L227.172 470.484L227.444 469.941L228.314 469.451L228.695 469.506L229.076 470.43L228.967 471.572L228.477 472.442L228.913 472.931ZM173.034 469.397L173.795 469.723L174.231 470.593L173.795 470.539L173.197 471.082L172.816 470.974L171.891 471.246L171.347 470.376L172.054 469.723L173.034 469.397ZM124.99 469.071L125.479 469.397L125.806 469.288L125.915 470.376L125.153 471.952L124.554 471.735L124.065 471.191L123.629 472.17L123.303 471.409L122.324 470.919L122.922 470.376L123.684 470.484L124.228 470.376L124.772 469.941L124.718 469.397L124.99 469.071ZM113.89 468.581L113.999 469.886L113.781 470.158L113.455 469.343L112.802 469.56L112.53 470.158L111.605 469.56L112.312 468.636L113.128 468.364L113.89 468.581ZM252.799 468.092L252.418 468.364L251.71 467.603L252.418 467.277L252.799 467.385V468.092ZM169.007 465.863L169.497 466.298L168.354 466.896L167.538 466.733L166.776 466.842V465.863L167.593 466.135L169.007 465.863ZM240.828 466.08L240.012 466.57L239.74 464.884L240.937 464.83L240.828 466.08ZM236.693 464.721L237.02 465.428L238.054 464.993L238.38 465.428L237.999 465.7L237.782 466.243L236.476 467.603L236.693 464.721ZM123.194 462.764L126.187 463.362L127.438 463.144L127.982 463.471L127.928 464.612L128.037 465.374L127.656 465.972L126.785 466.08L126.295 466.461L125.969 466.298L125.588 465.754L125.153 466.243L124.609 466.352L122.813 465.591L122.215 464.721L122.16 464.177L122.541 463.688V463.144L123.194 462.764ZM205.027 463.525L204.374 463.797L203.775 463.742L203.503 463.308L203.068 463.036L202.633 462.546L202.687 461.622L202.959 460.97L204.102 460.317L206.224 460.263L207.584 460.97L207.638 461.676L207.203 462.274L205.516 463.525H205.027ZM120.038 459.937L121.181 460.426L121.888 459.991L123.521 460.208L125.262 461.187L125.425 461.785L124.99 461.948L122.976 461.405L121.235 461.731L120.038 461.459L119.657 460.208L120.038 459.937ZM161.227 460.426L160.846 460.698L160.356 460.045L160.465 459.447L161.335 459.828L161.227 460.426ZM192.948 459.067L193.601 459.23L194.308 459.121L195.287 459.23L196.484 459.556L197.246 459.991L197.083 460.752L196.593 461.35L196.376 462.438L195.831 463.036L195.124 462.873L194.308 463.036L193.492 463.797L192.73 463.96L192.295 463.362L192.132 462.546L191.642 461.894L190.989 461.622L190.118 461.731L189.085 462.111H188.268L187.616 461.731L185.711 460.861L185.602 460.535L186.473 460.426L187.343 460.154L187.996 459.773L188.704 459.882L189.465 460.263L190.445 459.882L191.587 458.903L192.458 458.686L192.948 459.067ZM210.413 458.251L211.066 458.577L212.263 458.197L213.134 458.088L213.515 458.469L214.766 460.371L214.276 460.48L213.515 460.1L212.698 459.882L212.046 460.154L212.807 460.752L212.209 461.35L210.685 462.546L209.815 462.927L209.706 462.003L210.141 461.35L210.685 461.024L210.359 460.589L208.509 460.208L208.727 459.773L208.509 459.284L207.965 458.903L206.496 458.795L205.952 458.577L205.897 458.251L206.55 458.088L207.04 457.762L207.856 456.783L208.89 455.913L209.543 456.511L210.087 457.327L210.413 458.251ZM61.5476 455.315L60.677 455.587L60.3505 455.369L59.8064 455.913L58.6638 454.01L59.2079 453.901L59.9697 454.173L61.5476 455.315ZM184.569 461.785L186.146 463.308L186.31 463.96L186.799 465.156L186.473 465.428L185.657 465.21L184.188 464.449L183.861 464.558L183.752 465.156L183.372 465.374L182.61 465.047L181.304 464.721L179.672 464.177V463.525L180.433 462.873L180.27 462.111L179.508 461.948L178.583 462.166L177.495 461.839L176.461 461.187L175.863 460.426L175.645 459.284L175.536 457.979L175.591 456.674L175.972 455.369L176.625 454.336L177.55 453.901L179.563 453.63L180.542 453.956L181.467 454.608L182.501 455.804L183.317 457.816L183.535 459.447L183.807 460.263L184.296 460.861L184.569 461.785ZM201.817 453.412L201.381 455.098L201.055 455.424L201.381 456.566L200.728 457.218H200.021L199.64 457.816L199.096 458.251L198.443 458.523L197.355 458.197L196.756 457.707L196.321 456.837L196.539 455.804L196.376 455.424L195.831 455.75L195.287 456.402L194.906 456.457L194.961 453.684L194.634 453.249L195.233 453.086L195.831 453.521L197.79 453.63L198.498 453.793L199.042 454.282L199.803 454.499L200.511 454.445L201.109 453.738L201.49 452.76L201.762 452.651L201.817 453.412ZM229.729 455.804L229.402 455.913L228.151 455.533L227.824 455.043L227.933 453.684L227.226 453.303L227.063 452.433L227.335 452.216L227.77 452.325L228.151 452.977L228.695 453.412L228.913 454.01L229.838 455.478L229.729 455.804ZM194.417 453.956L194.471 454.608L193.873 454.717L192.077 454.173L191.37 454.336L190.935 454.989L188.649 456.076L187.833 457.109L187.616 458.251L187.126 458.577L186.582 457.925V456.837L186.418 455.968L185.602 455.587L185.221 455.206L185.929 454.01L186.527 452.651L187.724 451.074L189.411 450.15L191.207 449.715L192.295 449.878L192.676 450.53L192.784 451.183L192.295 451.672L192.404 451.89L193.165 452.379L193.818 453.14L194.417 453.956ZM59.8064 449.443L58.6094 450.259L58.4462 449.824L59.2623 448.464L59.6976 448.628L59.8064 449.443ZM210.087 447.758L210.957 448.193L211.229 447.975L211.882 448.682L212.862 451.237L212.481 451.727V452.488L212.1 452.868L211.665 452.977L211.284 451.292L210.522 452.107L210.087 451.781L208.618 448.41L209.053 447.975L210.087 447.758ZM275.651 452.814L275.542 452.977L274.508 452.162L274.182 451.509L274.617 451.02L274.182 450.585L274.671 449.715L274.889 449.171V448.464L274.998 447.812L275.433 447.649L275.705 448.138L276.413 448.682L275.869 451.129V452.107L275.651 452.814ZM248.337 447.214L248.772 447.377L249.534 446.616L250.35 446.561L252.255 448.573L252.635 449.606V450.204L251.983 450.911L250.405 451.944L249.044 452.379L248.555 452.107L248.5 451.183L247.902 450.585L247.031 450.313L246.65 449.769L246.868 449.334L245.399 448.301L245.671 447.54L245.508 446.507L245.889 446.235L247.14 446.888L248.337 447.214ZM224.56 451.346L220.969 451.998L219.609 451.835L218.629 451.346L216.562 449.932V449.171L216.997 448.573L217.106 448.084L216.779 447.649L215.963 447.105L217.16 446.181L218.52 445.637L221.35 445.093L224.016 444.822L225.43 444.93L226.627 445.474L227.552 447.16L227.28 449.117L226.138 450.694L224.56 451.346ZM125.262 444.985L126.187 445.311L125.969 445.746L124.99 446.453L124.282 447.268L123.684 447.54L123.521 446.29L123.14 445.528L124.282 444.387L124.5 443.734L125.262 443.897L125.751 444.332L125.262 444.985ZM277.283 445.528L276.793 445.909H276.195L275.705 445.692L275.107 446.018V444.985L275.705 444.06L276.521 443.68L277.229 443.571L277.446 443.789L276.957 444.387L277.174 444.876L277.283 445.528ZM217.922 442.049L217.323 442.81L216.181 443.245L215.8 442.647L215.31 442.484L215.256 441.668L215.854 441.722L216.126 441.179L217.16 441.777L217.378 440.907L217.976 441.124L217.922 442.049ZM247.249 441.722L246.759 442.321L249.48 443.19L249.915 444.115L249.752 444.441L249.044 444.93L248.228 444.876L246.378 445.365L245.725 445.637L244.692 444.604L244.637 443.952L245.344 443.517L245.997 443.571L245.453 442.756L245.236 441.94L243.984 441.614L244.365 441.233L244.256 440.798L244.528 440.037L245.236 439.221L246.596 439.113L247.467 439.874L246.378 440.689L246.977 441.124L247.249 441.722ZM273.529 444.604L272.822 444.658L272.386 444.06L271.57 443.625L270.319 443.19L269.503 442.538L269.122 441.614L268.686 441.016L267.979 440.635L267.381 439.874L267.816 439.004L269.285 438.297L270.863 438.08L271.951 438.895L273.257 441.451L273.148 442.538L273.855 442.701L274.399 443.027L274.78 443.625L274.617 444.278L273.529 444.604ZM147.515 439.439L148.114 439.874L148.495 439.765L150.453 438.515L150.508 439.439L153.065 443.571L153.228 445.039L152.956 446.616L152.521 448.193L150.834 451.835L150.127 452.923L149.256 453.521L149.148 453.195L147.679 451.781L146.971 451.346V451.998L146.645 453.684L138.429 458.142L137.449 458.523L133.804 458.795L132.825 458.523L132.607 457.653L133.097 456.892L133.75 456.239L133.967 455.696L133.532 455.043L131.029 453.521V455.696L129.234 453.575L130.322 450.096L132.77 447.268L135.164 447.105L135.926 444.822L136.47 444.006L137.232 443.136L138.157 442.592L138.973 442.484L139.626 441.994L139.844 440.526L140.877 441.777L142.238 441.94L143.435 441.124L143.979 439.548L143.326 438.243L141.095 436.449L141.693 435.579L143.054 435.524L144.523 436.285L145.72 437.264L146.645 437.753L147.515 439.439ZM263.953 435.524L264.225 435.687H265.259L265.531 435.416L266.129 435.633L266.51 436.34L266.184 436.829L265.694 437.047L265.259 436.177L264.714 437.21L264.225 437.59L262.756 437.808L261.831 436.503L261.287 436.34L261.722 435.361L262.157 434.926L263.082 434.491L263.463 434.6L263.844 434.981L263.953 435.524ZM215.419 433.186L214.929 433.404L214.385 432.099L214.929 431.773L215.691 432.48L215.419 433.186ZM254.594 431.229L255.138 431.773L255.193 432.316L254.159 432.588L253.778 433.567L253.18 433.404L252.853 432.697L251.602 432.48L251.384 431.881L251.765 431.12L252.744 431.61L253.071 431.229L253.832 430.957L254.594 431.229ZM125.316 440.037L124.391 440.146L123.357 439.874L123.085 439.33L124.119 439.113L125.044 438.297L124.935 437.971L123.031 437.536L123.521 436.992L124.718 436.775H125.969L126.948 436.014L127.329 434.981L126.948 433.948L126.078 432.534L125.534 430.794L126.187 430.305L127.22 431.12L127.873 431.773L128.907 432.371L128.962 433.295L129.342 434.056L129.234 435.089L128.962 436.285L128.907 437.264L128.417 437.808L127.003 439.004L125.316 440.037ZM108.068 430.74L108.286 431.827L108.123 432.262L107.633 432.643L106.327 433.078L105.62 433.023L104.912 433.349L104.314 433.078V432.48L104.912 432.371V432.099L103.28 430.74L103.77 430.577L104.477 430.957L105.348 431.12L107.252 429.978H107.85L108.068 430.74ZM123.629 436.177L122.813 436.557L122.106 435.959L121.779 432.316L122.106 430.305L122.813 429.38L123.901 431.773L124.826 433.132L125.534 434.6L125.316 435.85L124.554 436.068L123.629 436.177ZM118.352 429.924V431.012L117.59 430.685L117.263 430.087L116.937 430.25L116.121 430.087L115.685 429.163L116.719 428.347L117.59 428.51L117.862 429.326L118.134 429.38L118.352 429.924ZM74.9324 428.456L74.3339 429.054L73.4633 428.402L73.7354 427.804L74.2251 427.641L74.3883 427.151L75.6942 427.097L75.4765 427.641L74.9324 428.456ZM133.858 426.934L133.967 427.369L135.328 426.281L136.307 427.314L136.47 428.728L137.449 428.674L137.613 429.054L135.98 429.87L135.545 430.468H134.947L134.294 430.25L133.804 430.468L133.532 430.848L132.716 430.957L131.736 431.501L131.138 431.283L131.464 428.619L130.811 428.293L130.322 427.804L130.648 427.423L131.247 427.097L131.573 426.662L133.206 425.466L133.586 425.411L134.185 425.683L134.239 426.281L133.858 426.934ZM66.6077 425.303L66.1724 426.009L65.4107 424.976L66.4445 424.433L67.0974 424.868L66.6077 425.303ZM71.6134 422.965L71.8855 423.726H72.6472L73.6266 423.454L73.7898 423.889L72.6472 425.085L72.4296 425.683L71.0693 427.26L70.7973 428.021L70.1987 428.945L69.437 429.978L68.5664 429.598L68.0223 428.13L68.1312 426.716L68.6209 425.466L69.165 424.324L69.8179 423.345L70.5252 422.802L71.2325 422.638L71.6134 422.965ZM129.669 422.367L129.179 422.856L128.472 422.258L128.744 421.605L129.614 421.116L129.669 422.367ZM51.8082 420.844L52.0258 421.116L52.6787 420.899V422.584L52.1346 423.78L50.9376 424.596L51.2097 425.466L50.4479 425.846L50.2847 426.444L49.6862 425.683L49.795 425.194L49.6318 424.433L50.2303 423.943L50.5023 424.106L51.4817 422.149L51.5361 421.116L51.8082 420.844ZM275.161 435.089L274.182 435.144L273.202 434.654L270.155 431.555L269.775 430.305L270.319 428.402L270.7 427.912L272.332 426.662L272.604 426.064L273.257 423.4L271.951 421.986L272.114 421.17L273.039 420.736L274.127 420.572L275.052 421.007L275.27 421.986L274.835 423.128L273.801 424.106L274.671 424.324L275.488 425.574L276.086 427.097L276.793 429.761L276.902 431.283L276.63 432.751L275.977 434.219L275.161 435.089ZM270.373 421.823L269.503 422.53L268.795 422.149L268.142 421.17L268.686 420.518L269.339 421.279L270.373 421.823ZM120.256 424.868L118.95 426.608L118.352 427.042H116.883V426.716L115.631 425.955L114.271 425.411L113.89 425.52L113.128 423.78L113.727 422.965L116.23 421.932L117.807 419.811L118.352 419.539L118.678 419.757L119.385 421.116L120.419 422.04L120.691 422.475L120.8 423.291L120.637 424.106L120.256 424.868ZM130.485 415.135L131.301 415.516L131.791 416.06L132.553 416.44L133.586 416.549L134.457 416.712L135.001 417.256L135.328 417.854V419.05L135.654 419.974V421.116L135.164 422.095L134.076 422.204L133.042 421.225L132.281 420.029H131.356L130.594 420.572L129.941 420.627L129.342 420.192L129.179 419.322L128.417 417.854L126.676 416.06L126.35 415.19L127.166 415.407H127.873L128.472 415.081L129.397 414.972L130.485 415.135ZM147.787 416.168L147.461 416.223L146.699 414.157L147.352 413.776L147.679 413.287L148.059 413.45L148.658 414.048L148.168 414.646L147.679 414.918L147.624 415.353L147.842 415.625L147.787 416.168ZM120.963 413.994L121.018 416.223L119.603 415.788L119.168 415.516L118.46 416.495H117.263L116.175 416.277L115.74 416.549L115.522 417.963L115.087 419.213L114.325 420.137L113.291 420.572L112.312 420.464L111.55 419.757L111.115 418.669L110.952 417.256L111.224 415.951L111.877 415.027L112.856 414.429L113.89 414.048L115.087 414.483L116.61 414.157L119.44 413.069H120.419L120.746 413.341L120.963 413.994ZM246.65 411.928L246.542 413.069L245.617 413.667L245.29 414.374L244.746 414.211L244.42 413.885L244.8 413.504L244.746 412.852L245.236 412.417L245.997 412.58L246.65 411.928ZM133.967 415.733L132.933 416.005L131.954 415.462L130.811 414.483L129.397 413.939L128.309 413.341L129.179 412.58L131.301 412.254L132.553 411.71L133.206 411.166L134.022 411.547L134.892 412.797L134.294 413.776L134.511 415.19L133.967 415.733ZM132.607 403.718L133.042 403.935L133.423 404.533L133.532 405.186L132.389 405.947L132.77 407.578L132.607 408.557L131.954 408.937L131.138 408.883L130.594 409.535V410.677L130.322 411.71L129.397 412.199L128.635 412.145L128.472 411.112L127.166 409.644L126.459 408.665L125.86 407.524L126.132 406.708L127.384 406.056L128.417 405.947L129.234 406.436H130.05L130.267 405.784L130.104 404.533L130.92 403.772L132.607 403.718ZM268.578 401.815L269.285 402.195L270.101 402.086L270.591 402.358L268.686 404.588L267.761 404.751L267.108 404.533L266.292 403.718L266.184 403.283L266.673 402.576L267.598 401.869L268.578 401.815ZM151.324 405.892L151.487 408.067L149.801 409.644L148.876 409.318L149.42 408.665L149.692 408.067L149.474 407.687L146.699 406.164L144.142 406.545L143.054 407.143L141.748 407.306L140.714 406.98L140.224 406.273L140.66 405.729L142.02 405.675L143.815 405.022L144.36 404.316L144.468 403.881L145.557 403.554L145.937 402.902L145.992 402.141L145.285 401.217L145.012 400.184L145.937 399.694L147.461 400.02L148.984 400.836L150.073 401.923L149.964 402.521L149.202 402.63L147.896 403.5L147.733 403.989L147.896 405.077L148.44 405.294H149.692L151.324 405.892ZM128.037 400.347L128.254 401.869L127.982 403.283L127.329 404.588L126.295 405.457L125.044 405.784L124.337 405.512L123.793 405.022L123.031 404.805L120.256 405.403L119.168 405.457V404.805L120.038 404.044L121.562 401.543L122.759 400.455L124.119 400.727H124.826L125.153 400.075L125.534 398.716L126.404 398.498L127.329 399.151L128.037 400.347ZM141.585 399.803L140.823 400.129H139.735L139.299 399.151L139.517 398.172L140.17 397.791H141.639L142.129 398.009L142.183 398.444L141.911 399.531L141.585 399.803ZM144.142 394.257L144.468 394.692L145.176 395.073L146.209 397.519L145.883 398.117L144.523 397.628L144.196 396.541L143.435 395.127L142.89 394.42L144.142 394.257ZM138.755 394.583L138.592 395.943L138.157 395.671L137.504 394.203L137.885 393.279L139.027 392.517L139.136 392.952L138.755 394.583ZM142.782 393.496L142.292 393.931L141.748 393.115L141.857 392.517L141.802 391.212L141.258 390.56L141.639 390.288L142.183 390.451L142.89 391.049L143.598 391.974L143.652 393.442L142.782 393.496ZM135.055 391.049L135.654 391.376L135.817 391.865L135.654 393.333L134.566 394.203L132.933 394.583L132.77 395.236L132.933 395.888L132.825 396.16L131.247 396.541L131.41 395.888L132.008 394.475L132.226 392.245L133.151 391.865L133.097 391.267L132.607 391.43L130.267 391.539L129.397 391.484L128.798 391.212L128.744 390.723L129.669 390.234L130.104 389.581L130.92 389.092L131.301 388.657L131.9 388.44L133.423 388.766L134.185 389.527L134.403 390.669L135.055 391.049ZM132.716 384.96L133.478 385.286L134.566 385.232L135.328 385.449L135.926 386.373L135.98 387.95L135.219 388.548L134.729 388.331L133.967 387.515L133.586 387.243L132.716 387.461L132.607 386.972L131.845 386.863L131.736 386.591L132.335 386.156L131.356 385.939L131.519 385.449L132.172 385.014L132.716 384.96ZM122.541 381.208V383.057L121.671 382.459L121.181 381.698L121.235 380.828L122.16 380.501L122.541 381.208ZM136.633 380.284L137.449 380.773L138.157 380.556L139.027 380.121L139.517 380.393L139.735 380.828L140.66 380.665L140.877 381.371L140.279 381.969L139.517 382.024L139.191 382.404V382.948L140.116 383.927L140.932 384.307L141.802 384.362L142.292 385.069L142.564 385.993L142.999 386.591L143.163 387.406L142.836 388.44L141.258 388.168L140.496 386.972V386.047L140.66 385.558L140.116 385.395L137.885 385.014L137.395 384.579L136.252 384.416L135.382 383.818L134.947 383.274L134.022 381.1L134.566 380.23L135.654 379.903L136.633 380.284ZM130.213 384.797L129.886 385.612L129.397 385.775L127.112 385.123L126.295 385.286L125.534 384.634L125.153 384.579L125.86 381.208L126.295 380.23L126.894 379.903L127.928 379.577L128.853 379.088L129.288 378.435L129.941 376.967L131.519 375.989L133.26 375.554L134.566 375.934L131.954 377.457L131.356 378.327L131.301 379.36L131.682 380.447L132.825 382.35L131.9 382.731L130.92 383.655L130.213 384.797ZM133.206 362.124L132.444 362.722L131.573 361.037V360.711L132.226 359.678L132.77 359.949L133.206 360.439L133.369 361.417L133.641 361.907L133.206 362.124ZM123.521 354.241L123.738 354.893L122.922 355.654L121.507 356.035L121.725 355.491L120.909 354.73L121.834 354.186L121.126 353.643L122.215 352.773L122.759 353.262L122.922 353.643L123.357 353.806L123.521 354.241ZM259.6 361.907L259.165 364.19L260.906 366.256L261.776 368.975L262.157 374.575L263.3 376.696L265.422 378.218L267.326 380.23L268.088 382.459L269.013 384.416L274.399 390.234L275.542 393.115V395.073L275.76 395.508L275.216 395.345L271.679 395.399L270.536 395.181L270.101 394.638L269.883 393.877L269.339 392.844L268.36 392.082L268.142 392.844L268.306 394.148L268.469 394.692L267.87 396.595L267.489 397.302L266.728 398.226L263.463 400.782L261.667 401.597L260.362 400.51L258.729 397.193L257.369 396.649L256.444 398.009L255.954 400.075L256.063 401.869L256.879 403.718L258.185 406.11L259.709 408.176L261.123 409.1L262.048 410.351L262.973 410.786L264.062 410.079L266.728 407.578L268.578 407.306L270.155 407.632L271.625 407.741L273.202 406.871L273.148 408.937L272.876 410.405L272.005 413.396L271.026 418.615L270.319 419.811L267.272 420.844L264.878 419.648L262.973 419.213L261.395 422.693L260.851 422.367L260.198 422.693L260.851 424.052L261.395 425.52L261.994 430.196L261.613 431.066L260.743 430.577L259.328 429.109L257.26 428.837L255.737 428.021L254.703 426.444L254.322 424.106L254.812 421.877L255.954 419.702L256.771 417.636L256.39 415.897L255.682 414.918L254.322 411.928L253.941 411.71L252.962 411.601L252.527 411.166V410.623L252.907 409.59L251.602 406.871L251.384 405.838L251.438 405.186L251.819 404.153L251.928 403.663L251.71 403.065L251.33 402.576L250.949 402.467L250.459 403.12L248.99 406.871L248.391 407.687L244.746 408.937L243.005 409.155L239.305 409.1L237.89 409.481L239.033 410.405L241.264 411.384L243.059 411.928V412.58L239.414 413.776L237.564 414.809L237.237 416.223L237.999 416.821L239.631 416.168L240.502 416.549L241.101 417.582L240.883 417.908L240.23 418.343L241.427 422.475L243.875 424.705L246.596 426.444L248.446 429.109L247.521 428.945H246.052L245.399 429.109L249.099 430.522L249.534 431.664L249.806 433.893L248.119 435.416L246.433 435.307L245.399 435.579L241.481 433.132L240.23 432.751L239.087 432.969L237.727 433.621L236.53 434.437L236.04 435.252L237.237 437.753L238.489 438.025L239.196 438.515L242.461 437.645L244.256 439.167L240.176 442.919L238.706 444.985L237.129 444.278L234.68 446.126L234.952 447.975L236.04 449.171H233.646L230.11 444.495L228.913 442.049L225.703 438.515L224.723 438.732L221.295 440.526L221.622 441.614L221.894 442.049L220.479 441.559L219.119 441.288L217.976 440.689L217.16 439.167L217.051 437.645L217.595 436.72L219.5 435.579L220.153 435.035L221.894 432.751L222.928 430.468L223.58 429.707L224.832 429.109L224.723 430.848L224.288 432.534L223.036 435.579L225.594 435.416L227.661 434.654L228.967 432.914L228.913 429.815L228.423 428.619L227.77 427.912L227.226 427.097L227.172 425.52L227.607 424.705L230.11 421.932L230.98 422.421L231.579 423.073L231.742 423.889L231.252 424.868L231.796 426.227L232.558 427.206L233.538 427.532L234.843 427.042L235.387 426.281L236.584 423.78L237.237 422.693L236.04 420.899L235.605 419.05L235.007 418.18L233.374 419.431L231.47 420.246L229.946 418.941L227.824 415.516L226.573 417.419L224.832 421.932L223.635 423.4L222.383 423.889L221.35 423.835L219.173 423.4L218.194 423.726L217.215 424.596L215.691 426.662L214.984 427.26L211.828 429.109L210.141 430.413L209.053 431.066L207.965 431.338L207.312 431.664L207.203 432.534V433.676L207.04 434.872L206.496 435.742L205.68 436.666L205.299 437.808L205.952 439.167L201.218 443.843L201.327 448.138L200.565 448.899L198.225 447.758L197.518 448.628L197.137 449.661L197.192 450.802L197.681 451.998L196.539 451.672L194.145 449.932L190.826 448.954L190.064 448.519L189.411 446.507L189.737 441.233L189.411 439.167L189.901 437.862L189.792 436.231L189.248 434.817L188.268 434.111L187.343 434.382L186.364 435.252L185.657 436.394L185.385 437.373L185.711 438.841L186.255 440.091L186.31 440.961L183.644 441.886L183.97 443.136L185.929 445.583L182.61 447.486L181.358 448.628L182.664 449.171L182.936 449.389V450.422L182.664 450.639L182.12 450.53L181.304 450.041L180.923 449.932L179.78 450.096L179.563 450.585L179.508 451.346L179.073 452.379L178.42 452.868L175.863 453.521L174.884 454.282L174.557 454.989L172.49 462.003L172.272 463.036V464.232L170.204 463.797L166.232 465.102L165.253 464.884L165.09 463.688L165.906 461.133L165.743 459.991L164.981 459.284L163.893 459.067L161.662 459.175V458.523L162.26 457.544L162.424 455.913L163.077 455.968L163.457 455.696L164.709 453.466L164.927 452.433L164.6 451.346L164.165 451.02L163.512 450.802L162.26 450.639L161.335 450.367L161.172 449.824L161.662 449.171V447.812L161.988 446.507L161.825 445.855L160.465 446.29L160.846 443.789L162.532 442.538L164.872 442.049H166.994L166.613 441.233L166.069 440.581L165.416 440.146L164.6 439.874L165.96 438.95L166.776 437.808L166.831 436.829L165.743 436.231L165.362 436.394L164.6 437.373L164.056 437.753H163.349L162.206 437.047H161.662L161.118 437.482L160.737 438.243L160.465 439.167L159.703 439.33L158.125 439.167L156.275 439.221L155.296 439.385L153.99 439.874L153.827 438.243L153.12 437.264L151.052 436.231L151.106 435.905L150.671 435.089L150.127 434.546L149.637 435.633L149.039 436.014L148.331 436.122L147.787 435.905L145.992 434.219L145.774 434.111L145.502 433.078L145.992 432.588L146.318 432.045L146.645 432.534H147.515L148.114 432.045L147.787 430.957L145.502 429.815L143.707 428.51L143.543 425.52L144.305 422.149L145.176 419.811L145.285 418.996L145.23 418.071L145.339 417.256L146.046 416.875L147.352 417.147L147.842 417.473L148.44 418.724L151.052 422.693L150.236 423.78L149.964 424.813L150.127 425.901L150.399 427.042L152.195 432.045L153.283 432.697L157.527 433.404L159.377 434.654L160.356 434.546L161.063 432.751L160.084 432.914L159.594 432.643L157.799 432.262L156.983 430.957L155.894 429.87L156.167 427.423L155.024 427.641L154.48 429.109L153.609 429.217L153.065 427.26L152.793 424.65L153.446 423.128L152.956 421.334L155.296 421.116L158.887 421.877L159.377 422.693L159.159 424.052V424.922L159.322 425.52L160.247 426.118L160.737 426.825L161.88 427.532L163.403 428.184L164.382 429.054L166.45 430.522L166.831 430.087L165.035 427.695L166.124 427.477L169.769 429.489L172.217 430.305L174.067 429.815L172.217 429.544L170.748 428.565L168.191 426.336L168.79 425.52L166.94 424.161L164.11 420.572L162.532 419.811L160.411 419.376L157.853 419.539L156.112 418.398L153.936 418.996L151.977 418.343L151.705 417.365L152.902 415.788L154.153 415.299L156.711 415.679L159.975 414.265L163.893 417.147L165.253 416.875L166.015 417.528L166.396 417.691L166.015 415.679L166.178 413.83L167.212 412.471L169.334 411.928L173.306 413.124L175.319 413.287L174.666 411.928L176.026 411.275L176.734 411.112L177.604 411.166L176.353 409.698L174.394 409.318L169.932 409.753L170.259 408.72L169.932 407.306V406.219L170.259 405.512L171.075 404.37V403.283L170.422 401.706L169.225 401.38L167.919 401.978L166.994 403.283L166.885 404.153L167.484 405.892L167.593 406.871L167.429 407.034L166.396 409.1L165.416 412.634L164.546 413.885L162.859 414.048V413.776L162.315 413.396L162.641 412.797L163.131 411.71L163.457 411.166L162.315 410.568L161.499 410.894L160.737 411.601L159.594 411.928L157.309 411.438L156.602 411.764L156.439 412.852H155.296L153.392 413.45L152.521 412.961L152.195 411.873L152.848 410.84L154.589 409.1L155.242 408.122L155.568 407.36L155.786 405.838L155.514 404.261L155.84 403.5L156.928 402.521L155.894 401.652L154.915 399.912L154.425 397.846L154.589 396.106L155.786 395.018L157.418 393.877L157.908 392.952L155.786 392.463L154.806 392.626L153.772 393.659L152.249 394.312L152.412 395.345L152.793 396.541L152.848 397.519L151.65 398.661L150.073 398.77L148.549 398.281L147.515 397.519L148.658 396.813L147.896 396.269L147.243 395.616L146.754 394.855L146.318 393.877L147.298 393.387L148.277 393.442L150.399 393.877L150.181 391.647L152.575 389.255L151.923 387.026L149.474 383.655L147.951 382.241L146.318 381.698L146.971 384.036L146.373 385.395L145.176 385.449L143.979 383.818L144.74 382.731L142.564 379.795L142.238 378.055L143.489 376.587L145.23 376.369L146.808 377.131L147.515 378.816L148.604 378.109L149.202 376.913L149.909 374.521L150.508 375.717L150.617 376.696L150.399 378.653L149.964 379.632L149.909 380.23L150.073 380.882L150.78 380.719L151.052 380.882L151.487 382.894L151.814 383.22L152.848 383.818L153.664 384.144L155.133 384.199L155.786 384.579L155.296 385.775L155.405 386.917L156.003 388.005L156.928 388.929L159.105 384.036L159.322 382.35V380.447L158.887 379.795L157.255 379.36L156.602 378.979L156.003 378.435L155.133 376.043L152.303 372.726L151.65 371.259L151.814 370.715L152.63 369.736L152.848 368.757L151.923 368.105L151.487 367.235L151.65 365.821L150.562 366.256L149.42 366.42L146.971 366.474L147.896 365.278L149.474 364.897L151.27 364.788L152.848 364.408L152.303 364.245L151.759 363.755L151.052 363.647L151.487 362.668L153.12 361.091L153.392 360.276L152.848 358.21L153.12 356.579L153.881 354.947L155.786 352.066L156.275 352.555L157.527 354.186L159.05 354.676L159.812 354.621L159.594 353.86L157.962 351.957L159.758 351.413L168.137 349.075L170.585 349.728L170.095 353.588L169.551 356.415L169.443 359.297L171.565 360.004L174.122 359.351L176.897 358.373L179.78 357.938L180.923 357.068L182.175 356.307L183.644 355.926L185.058 355.219L186.201 354.241L186.908 352.718L186.745 351.631L186.691 350.543L187.779 349.728L188.54 348.532L188.486 347.118V345.65L190.662 343.747L193.546 344.019L195.015 342.333L196.539 342.442L198.062 343.04L200.674 345.215L204.755 350.707L207.366 350.652L207.584 349.184L208.128 347.771L208.999 346.955L209.597 345.868L212.154 345.704L213.896 348.369L213.134 351.413L213.623 353.371L215.419 355.382L215.31 358.862L217.378 361.037L220.588 361.526L223.036 360.058L225.648 359.623H227.444L228.913 359.243L230.219 360.276L231.688 361.146L234.898 361.2L237.999 360.765H240.883L243.549 360.384L246.052 357.666L249.208 355.926L254.703 357.938L259.6 361.907ZM200.783 364.19L198.389 364.897L196.158 365.441L193.057 364.625L191.207 366.365L193.546 371.53L198.225 374.358L203.558 375.228L206.931 370.715L205.19 365.876L200.783 364.19Z" fill="#009649" stroke="white" stroke-width="2" stroke-linejoin="round" data-country-region="West Region"></path>
<path class="region" d="M315.915 429.598H316.296L317.928 428.836L318.145 429.054L317.982 429.598L317.166 430.631L316.241 430.957L315.425 430.794L314.772 430.903L313.847 431.338L313.412 431.773L312.868 431.881L312.813 431.501L313.085 430.794L313.031 430.25L312.65 429.87L311.943 429.543L312.215 428.51V427.967L312.596 427.64L313.14 427.477L315.915 428.945V429.598ZM325.164 409.589L325.763 409.916L326.579 409.589L327.885 409.209L329.408 409.154L330.279 409.97L330.497 411.329L330.007 412.145L330.333 412.634L329.952 413.287L329.082 412.96L328.755 413.395L329.463 413.558L330.17 414.156L329.844 414.755L328.973 415.842L327.558 415.896L326.905 415.081L326.579 414.265L325.872 414.211L326.035 413.558L325.817 412.852L324.675 412.688L324.294 412.362L325.11 411.71L325.273 410.949L324.457 410.242L322.879 409.753L321.9 410.024H321.301L321.138 409.318L321.845 408.556L322.825 408.285L324.185 408.828L325.164 409.589ZM313.357 412.036L313.085 412.308L311.78 411.873L310.8 411.221L310.256 410.351L310.365 409.807L310.963 408.828L312.106 407.958L313.194 408.23L314.5 409.644L314.99 410.459L314.609 411.057H313.684L313.249 411.275L313.357 412.036ZM293.715 404.75L294.151 405.077L294.64 403.935L295.674 402.304L296.49 402.195L296.762 402.902L297.633 403.609L297.796 404.859L298.286 406.599L299.156 407.578L299.646 408.285L298.721 408.502L294.804 407.469L292.682 408.176L291.43 408.013L290.179 407.251L289.417 405.729L290.016 404.098L291.158 402.576L291.92 401.162L292.736 400.129L294.096 399.803L294.532 400.945L293.933 402.63L293.607 403.772L293.715 404.75ZM288.22 409.426L289.254 411.275L290.94 411.003L293.062 410.133L295.021 409.753L297.959 410.242L298.558 410.459L298.993 411.655L298.721 412.688L298.231 413.776L298.014 415.135L298.231 417.31L298.177 418.561L297.687 419.104L296.98 419.485L297.742 421.605L297.361 422.693L296.055 422.91L294.749 422.149L293.389 421.551L291.811 422.312L290.396 422.475L289.58 420.463L288.601 416.223L287.186 415.461L286.044 416.277L285.282 418.017L285.01 420.192L284.466 421.116L283.269 421.17L281.963 420.735L281.201 420.192L280.657 419.267L280.494 417.582L280.331 416.223L277.936 408.502L277.61 406.599L277.828 404.805L278.861 402.902L279.514 402.413L280.167 402.304L280.711 401.923L281.092 399.64L281.582 398.933L282.997 397.845L284.139 397.302L285.445 397.737L286.588 398.715L287.241 400.075L287.132 401.434L286.37 402.739L284.411 404.805L284.792 405.512L285.173 407.36L285.663 408.285L286.37 408.828L288.22 409.426ZM354.872 395.779L355.416 396.758L355.797 397.791L355.743 399.205L355.416 400.455L354.056 403.989L355.797 403.391L356.613 402.793L356.885 403.011L356.994 404.805L356.885 406.001L356.505 407.36L355.743 408.067L354.6 407.578L355.035 408.991L356.178 411.384L356.396 412.96L355.743 413.232L354.219 412.743L352.641 411.873L351.662 411.166L351.39 412.634L351.118 413.395L349.594 415.135L349.105 416.549L350.139 417.31L351.553 417.908L352.261 418.724L350.955 419.865L344.698 421.823L342.848 421.931L345.786 419.811L344.534 419.213L344.099 418.289L344.153 417.038L344.589 415.516L341.923 416.875L341.106 416.331L340.726 415.135L340.78 413.939L341.324 413.395L343.501 412.96L344.099 411.764L344.153 410.133L344.589 408.285L343.392 407.578L342.521 408.665L339.42 410.024L338.06 411.166L337.08 409.644L335.883 408.285L334.849 406.762L334.577 404.805L335.176 403.554L336.264 402.467L337.57 401.597L338.712 401.108L341.923 400.455H342.848L344.262 401.053L345.35 401.814L346.547 402.413L348.125 402.521V401.869L346.547 400.781L345.623 399.205L345.187 397.41L345.133 395.779L346.275 395.888L352.261 392.463L351.227 390.505L351.716 388.602L353.077 387.569L354.6 388.167L354.981 389.037V390.016L354.437 393.931L354.491 394.583L354.872 395.779ZM364.176 391.647L363.741 391.81L363.523 391.375L363.088 389.527L362.435 388.82L362.218 388.276L362.326 387.569L362 386.699L361.565 385.83L361.782 385.068L362.707 384.579L363.687 384.47L364.557 384.742L365.156 386.047L365.101 388.711L364.72 390.886L364.176 391.647ZM379.357 329.882L379.738 334.069L377.561 338.419L378.867 341.028L384.199 341.844L386.43 343.584L390.13 347.825L394.537 350.271L396.55 351.794L397.094 354.73L398.999 356.578L401.447 357.448L401.774 357.774L401.393 359.188L401.229 361.091L400.74 362.124L400.141 362.994L400.631 364.408V365.006L399.706 366.963L398.291 369.899L396.768 371.748L395.788 373.814L395.625 373.433L393.884 371.639L392.361 369.627L390.348 368.05L388.824 365.876L388.334 363.592L386.648 362.505L384.471 362.396L382.458 363.211L380.826 364.408L379.574 365.93L378.704 372.183L377.452 374.031L376.147 375.662L375.439 376.967L375.004 376.587L374.242 377.783L371.63 382.404L370.433 382.459L370.325 380.338L370.433 378.326L369.835 378.272L369.128 379.903L368.475 382.459L366.353 382.187L360.694 382.295L360.368 380.338L359.769 379.305L359.007 382.241L358.137 382.676L356.124 381.752L355.199 380.012L354.165 379.903L352.859 380.882V376.315L352.478 375.934L351.771 376.206L351.118 377.185L351.064 378.816L349.703 377.728L348.669 376.206L347.472 375.227L345.731 375.934L346.112 374.466L345.405 372.346L345.731 371.53L344.861 368.812L344.371 368.485L343.392 369.41L342.303 371.095V372.237L343.392 374.521L343.99 377.293L344.371 378.272L345.078 379.523L346.547 381.48L346.765 382.459L346.33 383.818L347.037 383.927L348.669 384.579L347.908 385.068L347.2 385.286H345.405L344.534 385.068L344.262 384.525L344.208 383.818L343.936 383.111L343.12 382.241L342.521 381.752L337.842 380.121L336.536 380.066L333.707 380.61L332.945 380.991L332.999 381.697L333.979 383.111L332.401 383.437L329.408 384.96L326.035 385.884L325.6 387.189L325.436 388.657L324.511 389.581V390.288L333.108 385.721L334.577 385.612L334.849 387.461L335.393 388.82L335.557 390.07L334.849 391.43L333.761 392.082L332.074 392.354L330.388 392.245L329.3 391.81L328.701 392.843L329.082 393.333L329.898 393.768L330.442 394.692L330.551 395.997L330.442 398.226L329.844 402.521L330.605 403.228L331.367 403.011L331.966 402.141L332.238 401.108L333.38 402.521L332.183 404.642L330.007 407.469L328.102 408.067L325.491 407.904L325.545 406.273H327.232L327.939 406.11L328.375 405.457L322.988 404.805L321.9 404.37L320.648 402.684L320.485 401.814L321.356 401.271L323.369 400.455L321.41 396.541L319.995 397.954L318.581 400.673L316.568 400.781L314.772 398.335L313.793 397.737L311.834 397.519L310.963 398.063L310.528 399.313L310.31 400.945L310.365 402.521L308.569 402.195L304.543 402.358L302.965 401.488L302.802 400.945L302.747 399.368L302.693 398.987L302.258 398.878L301.333 399.042L300.081 398.77L298.068 398.607L297.361 398.226L296.926 397.356L296.98 396.541L297.361 395.018L297.198 387.243L297.361 385.993L298.014 384.633L298.395 383.655L298.503 382.35L297.143 383.981L296.055 385.83L294.695 387.243L292.627 387.406L294.205 391.158L293.117 391.865L290.777 391.81L288.546 393.224L287.676 390.723L287.132 389.69L286.152 388.929L285.88 392.3L284.955 395.018L283.16 396.595L280.875 396.812L279.134 396.269L278.481 396.323L277.936 396.812L276.631 395.779L275.76 395.507L275.542 395.073V393.115L274.4 390.234L269.013 384.416L268.088 382.459L267.327 380.229L265.422 378.218L263.3 376.695L262.158 374.575L261.777 368.975L260.906 366.256L259.165 364.19L259.6 361.907L261.396 360.058L261.559 357.448L262.103 354.621L265.694 350.326L266.238 347.39L264.987 346.574L264.116 344.562L264.28 341.898L263.3 339.397L263.137 338.038L262.811 336.896L260.634 335.972L260.689 333.308L261.886 330.807L262.647 327.545L263.627 324.337L264.987 321.836L266.075 319.443L266.293 316.181L267.272 313.408L269.231 311.668L271.081 309.711L272.713 306.231L273.584 305.688L274.726 305.796L276.848 305.144L281.147 302.86L281.963 300.631L285.119 297.26L285.826 299.598L287.567 300.631L289.145 301.882L289.254 302.752L289.58 303.622L290.995 304.165L293.607 304.383L294.695 305.307L296.109 306.231L298.558 306.449H301.006L303.237 307.156L304.869 308.95L306.012 311.125L307.916 312.484L308.406 313.463L308.733 314.387L310.038 315.202L311.181 316.562L311.127 319.063L310.093 321.455L311.453 326.348L316.785 326.566L319.342 326.24L321.845 326.62L324.185 327.762L326.361 329.393L328.81 329.882L333.435 327.545L335.774 328.034L337.896 324.989L339.909 323.412L340.617 329.284L342.793 331.949L345.459 333.634L348.615 333.308L351.825 332.71L354.655 333.58L357.321 334.993L360.531 335.102L363.36 332.873L364.557 332.438L365.809 332.275L367.006 331.242L367.985 329.937L371.086 328.686L374.405 329.502L376.963 330.698L379.357 329.882Z" fill="#009649" stroke="white" stroke-width="2" stroke-linejoin="round" data-country-region="East Region"></path>
<path class="region" d="M357.702 299.924L356.341 301.338L355.743 301.12L354.927 301.175V301.881L354.818 302.806L354.002 304.926V305.579L353.784 306.612L351.825 307.753L346.874 306.449L344.099 306.177L342.848 307.155L341.651 309.33L340.943 309.874L340.182 309.221L339.094 308.515L337.57 307.264L336.591 305.307L335.339 304.056L333.979 303.567L333.489 301.61L334.632 299.924H335.938L337.352 299.707L337.679 298.674L337.842 297.64L337.08 297.369L336.264 297.206L337.189 295.139L338.713 293.508L338.169 288.669L342.195 285.298L347.69 284.537L352.206 284.265L355.689 286.766L356.777 288.669L356.722 289.539L356.287 290.246L356.341 292.91L357.049 293.998L357.974 294.759L358.137 296.444L358.191 298.239L357.702 299.924Z" fill="#009649" stroke="white" stroke-width="2" stroke-linejoin="round" data-country-region="East Region"></path>
<path class="region" d="M236.801 234.082L236.583 234.897L236.91 235.713L237.508 236.365L238.27 236.746L238.76 237.942L238.433 239.791L241.045 240.552L243.82 239.899L244.799 238.486L245.996 238.758L245.887 239.954L246.921 240.552L247.084 242.455L247.955 245.282L247.574 247.783L246.431 249.632L245.18 254.253L242.949 256.047L241.698 256.482L237.943 259.255L233.699 260.397L231.904 254.579L231.469 246.804L229.891 243.76L225.32 236.528L234.842 233.919L236.801 234.082Z" fill="#009649" stroke="white" stroke-width="2" stroke-linejoin="round" data-country-region="West Region"></path>
<path class="region" d="M155.187 234.027L155.024 235.224L155.242 236.257L155.895 238.214L157.092 240.008L157.581 241.694L156.711 241.313L152.902 241.531L151.651 241.313L151.433 239.736L151.868 239.193L152.521 238.54L152.848 237.616L150.835 238.921L149.855 238.432L150.127 236.855L151.651 234.68L151.107 234.027L149.91 235.441L149.529 234.462L148.604 234.952L149.093 232.396L148.767 228.427L148.332 226.089L147.461 223.099L148.223 222.12L149.746 220.707L151.379 220.109L152.521 221.957L152.684 222.61L152.304 223.425L151.651 223.915L151.705 224.676L153.174 227.938L153.392 229.025L153.011 229.895L153.446 230.657L154.426 231.255L155.187 232.559H153.392V233.212L153.99 233.321L155.187 234.027ZM203.123 188.356L207.203 189.172H210.577L217.704 186.127L221.459 187.813L224.778 190.586L228.804 191.129L229.511 192.76L230.545 193.793L231.688 194.5L233.157 197.491L234.299 198.252L234.191 200.481L234.898 201.133L235.496 202.221L235.66 203.417L235.442 204.668L235.007 205.755L234.789 206.951L234.626 207.875L234.191 208.691L233.429 208.908L232.613 208.8L231.851 209.561L230.055 212.714L227.661 216.194L215.419 211.301L213.406 216.846L213.678 233.103L212.372 234.354L211.61 236.583L219.446 238.16L225.322 236.529L229.892 243.76L231.47 246.805L231.905 254.579L233.701 260.397L237.945 259.255L241.699 256.482L242.951 256.047L245.181 254.253L246.433 249.632L247.575 247.783L247.956 245.282L249.099 243.76L250.568 242.672L251.765 243.216L252.853 243.597L252.527 245.445L251.112 246.533L250.242 248.109L249.425 249.904L247.521 253.438L246.487 257.57L246.324 260.506L246.542 263.551L249.317 262.953L251.874 263.768L254.54 265.399L255.411 268.607L255.302 272.25L256.009 275.947L257.805 279.046L259.763 282.091L257.696 284.157L255.628 286.006L253.071 286.712L250.514 286.821L248.664 287.256L243.658 286.604L243.332 285.734L243.93 284.538L243.44 283.505L242.298 283.178L239.468 281.765L235.605 274.805L232.83 272.359L231.416 273.827L230.219 275.621L228.423 276.001L227.226 276.545L225.975 276.98L221.241 277.904L218.793 278.829L216.29 279.318L214.44 276.436L215.202 271.761L212.046 271.108L203.123 273.935L198.28 274.968L194.145 275.403L190.282 280.188L188.486 280.732L186.745 281.928L185.276 283.341L183.698 284.103L181.794 284.429L179.944 285.244L178.638 284.592L178.203 283.885L178.094 282.906L177.604 281.547L176.897 280.405L175.482 278.502L174.666 277.198L175.863 276.219L175.319 275.566L173.088 274.697L171.075 271.326L169.606 270.673L168.463 271.326H167.919L167.865 270.129L165.906 268.879L164.219 269.151L163.73 271.162L163.403 271.869L162.859 271.326L163.186 268.172L166.124 266.704L168.681 265.889L172.272 266.922L171.021 264.801L170.313 263.986L169.334 263.279L168.735 263.17L168.082 263.551L167.593 263.279L166.94 262.572L166.396 261.811L168.191 256.863L169.225 254.634L170.531 253.818L169.552 252.622L165.906 251.535L164.6 250.828L165.906 249.632L169.715 248.707L170.531 247.566L169.932 246.152L168.572 245.826L165.743 245.772L165.199 245.391L164.165 244.14L163.458 243.542V242.781H164.6L163.294 240.389L164.872 239.519L166.613 238.975L168.3 236.583L171.837 235.604L173.523 234.68H168.463L167.266 235.387L165.416 238.16L164.056 238.432L163.186 237.398L162.424 235.387L161.934 233.375L161.989 232.179L163.784 230.058L164.6 228.754L164.328 228.156L162.696 228.754L161.934 228.101L161.227 227.612L160.846 227.557L160.465 226.579L160.846 225.654L160.737 224.676L160.302 222.827L159.812 222.066L159.758 221.577L160.955 221.522L162.641 220.707L164.437 220.761L164.6 219.456L165.09 218.314L164.383 217.39L163.403 217.173L161.989 215.813L162.859 214.563L164.111 213.584L163.294 212.062L161.227 211.681L160.792 209.887L161.444 208.582L163.458 208.256L162.315 206.951L161.934 206.299L161.662 205.32L160.9 205.972L159.703 207.277L158.343 207.875L158.071 208.637L158.125 209.398L158.724 210.322L158.833 212.116L158.18 214.237L158.561 217.064L157.636 219.456L156.874 220.435L155.296 219.184L153.609 219.13L151.977 217.988L152.358 212.225L152.902 210.105L151.923 209.67L152.195 206.951L151.27 205.809L149.91 206.081L149.093 207.44L148.876 209.18L148.277 210.431L146.318 210.485L147.135 212.116L148.713 214.617L149.257 216.412L148.332 217.227L148.44 218.097L149.91 220.054L148.549 220.326L147.461 220.979L146.536 221.849L145.774 222.99V222.175L145.502 220.652L145.176 220.054L146.373 217.445L143.87 213.258L144.632 211.192L143.979 208.256L142.347 209.18L140.116 212.062L138.429 212.66L137.395 212.877L136.525 213.204L135.654 213.258L134.62 212.66L134.022 211.138L133.859 210.159L134.294 209.724L137.831 209.778L138.756 209.126L138.701 207.549L137.776 205.864L136.47 205.211L135.11 204.776L133.967 203.852L133.532 205.157L133.26 207.821L132.77 209.072L131.791 209.996L131.465 209.126L131.573 206.407L131.41 203.798L131.628 203.091L133.859 200.264L134.294 199.285L134.62 197.926L134.892 198.959L135.709 200.807L136.307 201.677L136.742 201.242L137.341 201.297L138.701 201.677L137.831 200.372L136.906 198.741L139.354 199.448L140.388 199.176L141.041 197.926L138.81 197.762L137.45 197.164L137.286 195.805L138.701 193.522L136.797 191.89L136.906 190.422L138.375 189.172L140.497 188.411L139.953 191.075L140.17 191.782L141.313 192.054L143.489 191.999L144.033 191.619L144.632 190.64L144.741 188.193L144.523 184.985L144.958 182.321L146.971 181.669L146.699 183.191L146.754 185.475L147.135 187.867L148.223 190.694L147.679 191.673L146.863 192.597L146.318 193.522V194.5L146.863 196.077L146.971 196.512L146.482 197.056L144.632 198.306L144.686 199.23L144.958 200.209L145.448 200.807L146.046 200.535L147.516 199.176H148.604L151.052 200.862L149.257 197.001L148.658 194.609L149.583 193.522L150.943 195.316L151.814 195.86L152.195 194.663L152.576 194.337L153.446 193.957L155.187 193.522V192.869L154.48 192.76L152.848 192.054V191.401L154.915 190.912L156.112 188.9L156.439 186.508L155.786 184.714L155.024 184.442L152.739 184.387L151.651 183.952L150.835 182.919L150.562 181.941L150.943 181.614L152.195 182.484L152.739 180.799L152.14 179.82L150.835 179.44L149.257 179.548L149.91 178.733L150.726 178.135L151.651 177.972L152.521 178.461L153.337 179.059L154.045 179.222L154.371 178.896L153.99 178.08V177.265L157.2 177.21L158.724 177.754L159.322 179.168L158.887 180.038L158.071 180.962L157.581 182.213L158.125 183.952L158.887 183.191L159.867 182.648L160.683 182.702L161.064 183.572L161.172 184.333L161.553 185.04L161.662 185.747L160.683 186.997L160.465 187.65V192.434L160.737 193.848L161.39 194.826L161.989 195.207L162.315 194.663L162.641 191.999L164.219 186.834L164.6 184.333L165.036 183.735L166.069 184.442L167.593 186.073L168.191 187.269L168.627 188.356L169.28 189.063L170.531 189.118V188.411L169.878 187.595L169.171 185.42L168.463 184.333L163.186 178.733L162.859 178.461L163.131 177.265L163.839 177.428L164.763 178.244L166.124 179.983L166.831 180.581L167.756 181.016H168.79L169.606 180.527L169.66 179.82L169.116 179.113L167.865 178.787L166.233 178.026L164.437 176.341L163.675 173.84L163.458 172.154H165.036L166.396 172.806L167.647 173.894L171.021 176.232L171.674 176.939L172.979 177.863L174.231 178.515L175.101 179.983L174.721 181.451L173.85 182.43L174.068 183.246L174.884 184.877L174.993 185.855L174.666 187.65L175.645 186.997L176.026 186.182L176.244 185.312L175.918 182.648L176.244 181.778L177.604 179.331L179.019 178.678H180.379L181.848 178.842L183.481 179.494L185.603 180.038L187.072 181.016L188.922 182.865L189.03 185.203L187.67 189.824L188.704 189.172L190.336 187.052L191.207 186.888L191.805 187.813L192.186 189.389L192.349 192.434L192.295 193.087L191.86 194.555L191.805 195.425L191.968 196.294L192.73 197.599L193.438 200.916L193.22 201.895L191.805 202.33L192.077 203.254L192.404 203.852L192.893 204.287L193.601 204.613L194.09 202.166L194.961 200.753L195.396 199.23L194.689 196.512L196.43 197.056L198.226 197.273L195.287 193.957L194.417 192.162L196.158 191.401L197.736 191.129L201.49 189.607L203.123 188.356Z" fill="#009649" stroke="white" stroke-width="2" stroke-linejoin="round" data-country-region="West Region"></path>
<path class="region" d="M191.262 541.166L192.241 542.688L193.547 543.667L197.682 545.352L198.934 546.603L199.804 549.702L200.62 550.898L201.6 549.974L201.817 549.539L202.47 550.898L202.035 551.333L201.219 551.605L200.62 552.312L200.675 552.91L201.219 553.888V554.432L200.947 554.976L200.022 556.226L198.498 558.075L195.56 560.413L194.635 562.316L193.384 564.599L193.275 565.523L192.731 566.883L190.609 567.1L189.793 567.535L187.508 567.372L184.243 569.982L175.537 571.559L172.599 574.06L169.063 574.821L165.2 574.44L160.847 575.256L157.256 574.168L149.04 574.277L146.482 575.473L145.013 578.192L143.599 578.464L142.239 577.811L140.28 574.603L137.668 573.733L135.111 571.069L134.24 567.861L135.764 563.621L137.233 561.065L138.103 560.141L141.096 558.347L143.653 553.888L145.993 553.29L147.081 550.952L151.107 549.539L159.922 547.038L162.098 545.135L170.477 544.265L176.19 541.764L177.605 542.144L184.515 541.057L188.596 540.676L191.262 541.166Z" fill="#009649" stroke="white" stroke-width="2" stroke-linejoin="round" data-country-region="West Region"></path>
</svg>