<svg width="663" height="575" viewBox="0 0 663 575" fill="none" xmlns="http://www.w3.org/2000/svg">
<path class="region" data-country-region="West Region" d="M202.479 368.558L202.081 368.691L201.684 368.956L201.087 369.619L200.093 371.143L199.762 371.938L199.232 373.263L198.569 374.323L198.437 374.721L198.37 375.251L198.437 376.178L198.768 377.371L198.636 379.226V380.22L198.569 380.552L198.238 380.75L197.575 380.949L197.31 381.082L196.913 381.546L196.714 382.274L196.648 382.937L196.515 383.467L196.184 383.997L195.72 384.594L195.521 385.057L195.455 385.654L195.389 386.78L195.455 387.377L195.587 387.774L197.244 390.822L197.377 391.485L197.31 394.003L197.111 394.533L196.78 395.195L195.985 396.454L195.124 397.316L194.925 397.581L194.859 398.177L194.991 399.834L194.925 400.231L194.726 400.563L194.262 400.828L193.865 400.894L193.202 400.761L192.539 400.828L192.274 400.894L191.744 401.556L190.022 403.147L189.823 403.346L189.69 403.677V404.207L189.955 406.394L189.889 410.369L190.154 411.231L190.817 412.225L191.015 412.755V413.152L190.883 413.55L190.618 414.014L190.088 414.61L189.69 415.008L189.491 415.273L189.425 415.604L189.359 416.068L189.491 416.929V417.525L189.226 418.321L189.094 418.784L188.299 420.308L187.901 420.64L187.106 420.375L186.775 420.441L185.715 420.839L185.317 421.302L185.251 421.634L185.449 422.23L186.377 423.158L186.708 423.622L186.775 424.019L186.708 424.417L186.443 425.146L186.178 425.543L185.913 425.808L184.389 427.067L184.191 427.332L184.124 427.73L184.257 428.26L184.389 428.591L184.654 428.79L185.913 429.651L186.443 429.916L186.841 430.248L187.172 430.711L187.305 431.308L187.172 432.103L186.974 432.434L186.708 432.699L185.98 433.163L185.781 433.428L185.715 433.826L185.913 434.82L186.046 435.151L186.841 436.344L187.239 436.808L187.702 437.205L188.232 437.47L188.961 437.536L189.624 437.47L190.088 437.205L190.485 436.741L191.015 436.012L191.413 435.615L191.612 435.416L191.877 435.35H192.208L192.805 435.615L193.268 436.012L193.6 436.41L193.865 436.94L193.931 437.271V438L193.07 444.295L192.539 445.885L192.076 446.482L191.744 446.879L191.479 447.012L191.281 447.343L191.214 447.807V448.602L191.347 449L191.744 449.53V449.795L191.479 450.192L191.214 450.457L190.684 450.855L190.485 451.054L190.419 451.451V452.114L190.485 452.975L190.883 453.77L191.281 454.168L192.407 455.096L192.805 455.559L193.268 455.891L193.931 456.09L194.66 456.156L195.322 456.355L195.587 456.553L195.72 456.752V457.084L195.389 457.481L194.859 458.011L194.726 458.276L194.262 458.674L193.533 459.071L193.07 459.403L192.871 459.601L192.407 460.397L192.009 460.86L191.612 461.258L191.413 461.656L190.75 463.246L190.22 464.173L190.022 464.372L188.63 467.685L188.232 468.414L187.901 468.812L187.106 469.209L186.178 469.408L185.648 469.673L185.449 469.872L185.052 470.336L184.257 471.197L183.528 471.661L183.263 471.794L182.335 471.992L182.07 472.125L181.209 472.92L181.01 473.052L179.95 473.649L179.552 474.046L173.854 481.799L173.125 482.329L172.595 482.528L171.733 482.727L171.402 482.793L171.336 483.257L171.468 483.986L171.8 484.317L173.324 485.708L175.312 487.1L175.709 487.497L175.842 487.763L176.04 488.756L176.173 489.353L176.902 490.877L177.167 491.142L177.564 491.274L183.528 492.003L184.191 492.202L185.052 492.666L185.516 492.997L185.715 493.196L185.781 493.726L185.715 494.455L185.184 497.304V498.232L185.317 498.894L185.582 499.424L187.239 505.057L187.172 505.653L186.841 506.448L185.847 508.105L185.383 508.767L184.919 509.231L182.004 510.623L181.474 510.821L180.944 511.087L180.48 511.484L180.347 512.345L180.414 512.743L180.679 513.406L180.745 513.671V514.068L180.612 514.598L180.281 515.327L179.619 516.387L179.221 516.851L178.89 517.183L177.366 517.978L176.902 518.375L176.637 518.839L176.438 519.502L176.239 521.026L176.305 521.688L176.504 522.152L176.836 522.55L177.101 523.014V523.345L177.034 523.742L175.974 525.73L175.378 526.393L174.45 528.049L174.251 528.248L173.324 528.911L172.926 529.375L172.794 529.838L172.661 530.435V533.682L172.727 534.145L172.926 534.742L172.992 535.073L172.926 535.537L172.794 536.001L172.396 536.597L172.131 536.928L171.535 537.459L170.673 538.452L170.342 539.778L169.812 543.82L169.149 543.356L167.957 543.886L167.228 542.826L165.77 542.097L161.86 541.302L160.005 541.368L159.409 541.235L159.077 540.97L158.746 540.705L158.481 540.573L153.644 539.844H151.126L150.53 539.976L150.132 540.374L149.867 540.838L149.271 541.169L148.409 541.964L147.813 542.229H147.217L146.753 542.163L145.825 541.832L145.361 541.5L145.03 541.037L144.566 540.705L143.108 540.44L142.048 539.91L140.326 539.645L137.94 538.784L136.946 538.585L135.952 538.717L133.567 539.38L133.103 539.579L132.507 539.248L129.525 539.115L128.465 538.983L127.405 539.049L125.748 539.38L118.459 540.904L116.074 541.368L111.237 542.428L101.563 544.416L94.2739 545.874L85.3286 547.795H84.2684L79.9614 548.657L79.6301 547.862V547.133L80.0277 546.271L78.7025 545.211L77.6423 543.886L76.5159 543.024L75.6545 542.627L74.8593 542.362L73.004 542.229L72.0763 542.362L71.0824 542.627L70.0885 542.693L69.0946 542.428L68.432 541.699V540.838L68.4982 539.91L68.3657 538.983L67.7694 538.32L65.2514 537.326L63.9262 536.266L62.5347 534.609L61.4745 532.886L61.0107 531.296L60.6794 530.567L58.294 528.049L57.4989 527.586L54.7821 526.79L51.4028 525.333L49.8788 524.339L47.6259 522.285L45.8369 521.291L45.108 520.694L44.5779 519.833L43.9815 517.05L43.1864 515.46L41.9937 513.936L39.4758 511.153L38.6806 510.556L35.3013 509.165H34.6387L34.3074 508.9L34.0423 508.436V507.376L33.9098 506.912L33.1809 506.117L31.3919 505.587L30.5968 505.057L30.1329 504.328L29.5366 502.671L25.4284 496.111L24.9645 495.581L24.4344 495.25L23.5731 495.118L23.2417 494.919L22.9104 494.587L22.5129 493.859L21.6515 492.666L21.2539 491.871L20.7238 491.341L19.1998 491.076L19.001 490.943L18.5372 490.479L18.2721 490.28L17.8746 490.612L17.3445 490.744L16.4831 491.076L16.0855 491.142L15.2904 490.877L10.4533 486.835L10.0557 486.04L9.92322 485.046L9.65817 484.184L9.06182 483.787L7.93538 483.654L7.73659 483.257L7.86912 482.594L7.93538 481.799L7.60407 480.938L6.61015 479.347L6.3451 478.552L6.41137 477.625L6.74267 476.498L7.2065 475.438L7.73659 474.709L7.80285 473.98L6.8752 473.516L5.01988 473.119L4.88736 472.721V471.462L4.82109 470.866L4.62231 470.601L3.89343 470.004L3.69465 469.673L3.42961 468.812L3.29708 468.017L3.0983 467.288L2.50195 466.493H2.96578H4.42353L2.43569 463.246L0.911675 461.39L0.779152 460.065V451.849V451.65V449V442.97V437.006V430.977V425.013V417.062L0.712891 316.609L1.77307 316.742L3.42961 317.603L4.15848 318.067L5.54997 319.459L6.41137 320.188L7.07398 320.453L7.60407 320.519H8.59799L9.52565 320.32L11.1822 319.591L11.5797 319.127L11.8448 318.597L12.1761 318.2L12.9712 317.736L13.3688 317.338L13.9652 316.278L14.3627 315.947L15.0253 315.814L15.4892 315.947L16.0193 316.146L17.4107 316.808L18.0071 317.206L26.2235 324.23L30.0667 326.615L30.398 326.88L30.8618 328.006L31.0606 328.205L32.4521 329.133L32.7834 329.265L33.2472 329.332L34.9037 329.464L35.3676 329.928L36.3615 330.193L36.6265 330.326L36.9578 330.723L37.2229 331.187L37.2892 331.651L37.6205 332.115L38.2831 332.38L39.6746 332.645L40.2709 332.976L40.7347 333.374L41.2648 333.639L41.9937 333.837L42.6563 333.705L43.0539 333.109L43.1864 332.777L43.849 329.398L43.9153 329.067L44.1803 328.868L44.4454 328.802L47.0958 328.669L47.6259 328.404L49.0174 326.946L49.2162 326.814L49.6138 326.747L50.0776 326.814L51.4691 327.41L56.4387 330.657L57.1676 331.452L57.4989 331.916L57.8302 332.777L58.0289 333.44L58.294 333.837L58.6916 334.036H59.0229L60.0168 333.837L61.4745 333.175L62.1372 333.042L62.5347 333.109L63.0648 333.241L63.7274 333.639L64.0587 333.97L64.1913 334.301V335.163L64.2575 335.892L64.39 336.488L64.6551 337.018L64.9864 337.482L65.7815 338.012L66.3116 338.144L70.6849 338.608L71.0162 338.674L71.215 338.873L70.9499 339.403L70.221 340.331L68.9621 342.253L68.697 343.445L71.0162 342.584L71.2812 343.313V343.71L71.0162 344.24H73.3353L74.263 343.71L75.6545 342.451L76.6484 342.186L77.3773 342.253L77.9074 342.385L78.4374 342.451L79.1663 342.186L79.7627 341.789L81.4855 340.198L83.0757 339.403L88.9067 337.879L89.9007 337.283L91.8885 335.759L94.2076 335.163L96.1292 334.102L97.0569 333.837L97.9845 334.169L98.8459 334.831L99.8399 335.096L101.695 333.97L102.358 333.771L102.954 333.705L103.617 333.44L104.942 332.115L105.538 331.85V332.976L105.936 333.639L106.797 333.837H107.857L109.05 334.301L109.514 334.368L110.11 334.434L110.574 334.169L111.171 334.036L111.634 333.705L111.966 333.639L112.43 333.771L113.291 334.169L113.821 334.368L114.484 334.5L115.014 334.434L115.61 334.235L116.339 333.771L116.935 333.175L117.465 332.512L117.664 332.446L117.929 332.512L118.393 333.042L118.592 333.175L118.989 333.042L119.188 332.711L119.519 331.717L119.917 331.253L120.182 331.187L120.513 331.253L120.911 331.651L121.309 331.783L121.772 331.85L122.435 331.717L122.899 331.452L123.098 331.319L123.628 330.524L123.826 330.326L124.091 330.193L124.953 330.259H125.284L125.616 330.127L125.947 329.663L126.212 329.53L126.808 329.332L127.537 328.934L127.802 328.868L128.133 328.934L128.995 329.729L130.055 330.458L130.519 330.723L131.115 330.856H131.579L131.91 330.789L132.043 330.591V330.326L131.844 330.061L131.38 329.53V329.332L131.712 328.868L131.844 328.669L131.977 328.139H132.242L132.573 328.271L133.169 328.868L133.434 329.265L133.567 329.663V330.723L133.898 331.054L134.362 331.319L136.549 331.982H136.814L137.278 331.717L137.609 331.319L137.808 331.253L138.271 332.115L138.47 332.247H138.868L139.464 331.651L139.795 331.585L140.193 331.651L140.988 331.717L141.585 331.651L141.717 331.452L141.651 331.253L141.187 330.657L141.253 330.458L141.783 330.326L142.048 330.127L142.38 329.663L142.578 329.597L143.837 330.988L144.102 331.319L144.765 331.916L145.494 332.313L145.958 332.843L146.289 333.374H146.952L147.283 333.44L147.879 333.705H148.144L148.343 333.639L148.476 333.374V333.109L148.343 332.512V332.247L148.542 332.115L149.801 332.38L149.867 332.777L149.735 333.837L149.801 334.301L150 334.434L150.265 334.368L150.464 334.102L150.53 333.44L150.729 332.843L150.861 332.645L151.722 332.313L152.12 331.982H152.319L152.849 332.313L154.174 333.904L154.837 334.5L155.102 334.898L155.433 335.428L155.566 336.024L155.963 337.084L156.029 337.416L155.963 338.94V339.271L156.162 339.867L156.493 340.662L156.825 341.126L157.09 341.391L157.553 341.656L160.469 342.65L161.595 342.783L162.854 343.18L164.246 343.379L164.577 343.512L170.938 346.758L171.932 347.09L172.529 347.222L174.715 346.825L175.113 346.891L175.51 347.222L176.107 347.951L176.372 348.415L176.504 348.879V350.999L176.239 352.059L176.04 352.656L175.577 353.451L175.046 354.18L174.848 354.842L174.583 356.167L174.45 358.685L174.251 359.282L173.655 359.944L172.992 360.474L171.535 361.203L170.276 361.601L169.812 361.932L169.481 362.462L169.414 363.191L169.547 364.516V364.848L169.282 366.703L169.414 367.366L169.746 368.161L170.408 369.088L171.601 370.48L172.065 370.811L172.926 371.341L173.39 371.474L173.788 371.54L174.715 371.474L175.775 371.076L176.305 371.01L176.836 370.944L179.486 371.143H180.082L182.203 370.612L183.329 370.149L184.124 369.751L184.986 369.486L187.437 368.956L187.967 368.757L189.028 368.227L189.293 368.095H190.088L193.732 368.426L194.792 368.691L195.455 368.956L195.654 369.155L196.184 369.486L196.515 369.619L196.979 369.685L197.774 369.619L198.834 369.552L200.093 368.956L200.358 368.691L201.087 368.492L202.479 368.558Z" fill="#009649" stroke="white" stroke-width="2" stroke-linejoin="round"></path>
<path class="region" data-country-region="West Region" d="M327.381 430.91H329.833L331.158 431.109L332.218 431.772L332.086 432.302L332.218 432.699L332.483 433.031L333.013 433.362L334.868 432.368L337.188 431.838L339.507 431.97L341.561 432.964L342.29 433.892L342.82 434.952L343.416 435.814L344.476 436.145L345.669 436.344L351.235 438.53L352.163 439.06L353.885 440.584L354.482 440.916L355.078 440.849L356.735 439.59L357.596 439.259L363.228 438.928L364.355 439.193L365.017 439.524L366.078 440.386L366.806 440.651L368.927 440.916L369.788 441.247L370.716 441.976L373.168 444.56L374.161 445.156L375.288 445.355L377.541 445.09H378.667L379.396 445.421L383.239 448.47L383.769 448.735L384.101 448.801L385.095 448.668L385.492 448.735L386.354 449L386.884 449.066L387.149 448.867L387.414 448.47L387.811 448.271L388.408 448.668L388.673 448.138L389.137 447.873H389.733L390.395 448.271L391.323 447.277L392.582 447.542L393.841 448.337L394.702 449.066L393.841 449.463L391.986 451.319L390.727 452.909L390.594 453.307L389.799 454.499L389.6 455.162L389.733 455.692L390.263 456.421L390.395 456.752L390.064 458.74L389.335 461.192L389.07 463.511L389.998 465.234L388.673 468.348L388.474 469.673L388.673 470.667L389.6 473.119V474.51L388.275 476.763L388.01 477.227L387.679 479.347L386.884 480.275L384.631 481.998L384.167 482.992H383.968L382.974 483.389L382.312 482.925L381.45 482.992H380.655L379.86 482.13L379.794 481.269L379.86 480.54L379.595 479.944L378.535 479.811L377.673 480.01L376.216 481.136L372.041 481.865L371.379 482.13L371.842 482.462L372.439 482.594L373.035 482.66L373.698 482.594L373.433 483.257L372.969 483.787L372.107 483.588L371.445 483.853L370.782 484.383L370.053 484.648L369.921 484.184L369.987 483.257L369.722 482.263L368.662 481.799L368.264 482.925L367.337 483.323L366.409 483.389L365.945 483.588L365.68 484.449L364.156 486.504L363.626 487.034L363.295 486.504L362.168 485.973L361.704 485.377L362.234 485.046L362.367 484.648L362.168 484.383L361.704 484.184L361.24 484.383L359.982 484.913L359.783 484.847L359.451 483.787L358.723 483.323L357.729 483.19L356.602 483.389L357.464 483.787H357.795V484.184H357V484.648L358.391 484.913L359.385 485.775L359.716 486.636L359.12 487.034L357.729 487.299L356.867 487.829L356.138 488.028L355.078 487.431L355.012 488.491L355.144 489.684L354.946 490.347L353.885 489.883L353.554 490.678L352.362 489.088L351.633 488.756L350.506 489.088V489.485L351.235 490.214L351.036 491.539L351.103 492.335L352.759 491.539L352.494 492.268L351.831 492.798L350.506 493.593L349.976 493.792L349.446 493.859L349.048 494.057L348.916 494.521L348.85 495.581L348.717 495.979L348.518 496.376L347.657 495.714L346.663 495.316L345.802 495.515L345.404 496.575V497.834L345.272 498.166L344.94 498.298L344.741 498.563L345.073 499.226L345.47 498.961L346.199 499.226L345.139 500.617L343.416 501.611L341.495 501.942L339.971 501.611L339.242 500.882L339.308 500.352L339.706 499.756L339.639 498.828L339.043 498.232L338.248 498.166L337.32 498.431L336.459 498.828L336.79 497.702L336.923 496.973V496.774L336.591 496.708L336.26 496.84L335.73 497.172L334.405 496.907L333.676 496.973L333.013 497.172L333.676 497.702L333.875 498.166L333.808 499.424L333.212 499.822L329.568 499.159L329.17 499.623V500.021L329.236 500.551L329.17 501.015L328.507 501.214V501.545L330.098 502.87L330.694 503.268L333.344 503.93L333.808 504.262L333.411 504.659L332.549 504.99L331.092 505.255L328.242 506.581L326.586 506.78L326.056 505.653H325.658L325.261 506.249L324.068 507.111L323.67 507.707H324.996L325.857 508.171L326.255 508.834L326.056 509.761L324.929 510.689L322.61 511.285L321.749 512.147L322.676 512.412L323.405 512.942L324.863 514.134L323.207 515.327L322.279 515.725L321.351 515.791L321.948 514.863L321.881 514.267L320.556 512.942L319.893 513.604L318.701 515.393L318.369 515.592L317.641 515.791L317.309 515.99L316.978 516.52L316.912 517.381L316.779 517.845L315.785 518.309L315.586 518.441L315.785 519.767L315.586 520.297L315.255 520.429L314.725 520.496L314.261 520.761L313.996 521.291V521.821L313.864 522.417L313.665 522.682L313.864 523.941L313.002 524.869L311.876 525.598L311.279 526.194H310.551L309.027 526.459L308.231 526.989L309.358 528.049L309.225 528.248L308.96 528.845L310.02 529.11L309.159 530.103L306.442 532.29L304.057 535.272L302.864 536.001L302.4 536.73L302.268 537.525L302.798 538.187L303.196 538.055L303.726 537.724L304.322 537.392L305.117 537.326L306.045 537.657L306.177 537.922L305.846 538.452L305.515 539.38V540.308L305.581 541.103V541.765L305.117 542.627L304.19 542.296L303.527 542.428L303.461 542.958L304.322 543.422V543.886L304.057 544.018L303.924 544.217L302.334 543.488L302.003 543.422L301.407 543.687L301.34 544.018L301.473 544.416L301.009 545.675V546.139L300.744 546.47L300.081 546.735L299.617 546.669L299.154 546.47L298.491 545.874V546.271L298.425 546.735L298.491 547.133L297.563 547.199L297.497 547.729V548.392L296.106 548.988L295.244 550.048L294.648 550.379L294.913 550.777V550.976L294.648 551.572L293.853 551.373L293.323 552.036L292.925 553.03L292.461 553.825L290.473 556.21L289.612 556.939L289.877 557.072L290.341 557.469L290.738 557.734L289.612 558.132V558.53H289.943L289.678 558.861L289.281 559.391L289.148 560.054L289.612 560.517H290.275L291.004 560.12L291.666 559.656L292.262 559.325L292.13 560.186L291.666 560.849L291.07 561.379L290.341 561.776L290.54 562.24L290.208 562.572L289.678 562.837L289.148 563.035V563.433L289.347 563.897L289.148 564.162L288.684 564.096L288.088 563.764L287.69 565.156L285.901 566.879L285.835 567.475L284.974 567.74L282.257 567.872L281.661 568.137L279.607 569.529L278.281 569.065L272.914 571.517L271.589 571.716L270.661 571.914L269.932 572.378L268.276 573.902L267.613 574.101L266.818 573.968L263.571 572.908L262.71 572.444L261.915 571.782L261.053 570.788L260.258 570.125L259.331 569.794L257.873 569.529L255.487 568.734L251.114 566.348L248.53 565.885L246.476 566.15L246.012 566.083L245.681 565.686L245.217 565.355L244.687 565.156L242.103 564.824L241.573 564.626L241.241 564.294L240.976 563.698L240.512 563.234L240.049 563.035L239.518 563.3L237.531 564.824L237.001 565.089L235.675 565.355L234.748 565.885L233.754 566.15L233.422 566.282L233.356 566.547L233.489 567.276L233.422 567.541L232.627 567.74H231.567L230.706 568.005L230.308 568.668L229.977 568.27L226.796 569.927L226.2 569.993L223.748 569.927L220.303 568.27L219.773 567.607L219.375 566.613L219.441 565.752L220.303 565.421L219.508 564.427L216.99 563.3L216.459 562.373L215.929 561.776L214.803 561.048L213.544 560.451L211.424 559.855L210.761 559.258L210.032 558.795L208.641 558.927L205.659 560.252L201.882 560.981L201.484 561.114L201.021 561.644L200.689 561.776L200.358 561.71L199.828 561.445L199.497 561.379H195.256L194.66 561.246L192.804 560.517L191.015 560.584L190.485 560.517L189.359 559.987L187.636 558.662L186.576 558.132L186.178 557.734L185.847 557.006L185.184 556.343L184.455 555.879L183.66 555.68L182.732 555.614L182.269 555.415L181.54 554.421L181.275 554.223L180.612 553.891L180.347 553.626L180.281 553.295L180.347 552.566L180.148 552.169L179.353 551.307H178.956L178.425 552.036L178.293 551.638L178.028 551.175L177.63 550.91L177.1 550.777L176.968 550.512L176.504 548.723L176.305 548.657L175.311 547.729L175.112 547.464H174.45L174.052 547.398L173.787 547.133L173.39 546.735V546.271L173.787 545.277L173.588 545.079L172.992 545.145L171.932 545.542L171.402 545.476L170.54 544.813L169.878 543.886L169.812 543.82L170.342 539.778L170.673 538.452L171.534 537.459L172.131 536.928L172.396 536.597L172.793 536.001L172.926 535.537L172.992 535.073L172.926 534.742L172.727 534.145L172.661 533.682V530.435L172.793 529.838L172.926 529.375L173.323 528.911L174.251 528.248L174.45 528.049L175.377 526.393L175.974 525.73L177.034 523.742L177.1 523.345V523.014L176.835 522.55L176.504 522.152L176.305 521.688L176.239 521.026L176.438 519.502L176.636 518.839L176.901 518.375L177.365 517.978L178.889 517.183L179.221 516.851L179.618 516.387L180.281 515.327L180.612 514.598L180.745 514.068V513.671L180.678 513.406L180.413 512.743L180.347 512.345L180.48 511.484L180.943 511.086L181.474 510.821L182.004 510.623L184.919 509.231L185.383 508.767L185.847 508.105L186.841 506.448L187.172 505.653L187.238 505.057L185.582 499.424L185.317 498.894L185.184 498.232V497.304L185.714 494.455L185.78 493.726L185.714 493.196L185.515 492.997L185.052 492.666L184.19 492.202L183.528 492.003L177.564 491.274L177.167 491.142L176.901 490.877L176.173 489.353L176.04 488.756L175.841 487.762L175.709 487.497L175.311 487.1L173.323 485.708L171.799 484.317L171.468 483.986L171.336 483.257L171.402 482.793L171.733 482.727L172.594 482.528L173.125 482.329L173.853 481.799L179.552 474.046L179.949 473.649L181.01 473.052L181.208 472.92L182.07 472.125L182.335 471.992L183.263 471.793L183.528 471.661L184.256 471.197L185.052 470.336L185.449 469.872L185.648 469.673L186.178 469.408L187.106 469.209L187.901 468.812L188.232 468.414L188.63 467.685L190.021 464.372L190.22 464.173L190.75 463.246L191.413 461.656L191.611 461.258L192.009 460.86L192.407 460.397L192.87 459.601L193.069 459.403L193.533 459.071L194.262 458.674L194.726 458.276L194.858 458.011L195.388 457.481L195.72 457.084V456.752L195.587 456.553L195.322 456.355L194.66 456.156L193.931 456.09L193.268 455.891L192.804 455.559L192.407 455.096L191.28 454.168L190.883 453.77L190.485 452.975L190.419 452.114V451.451L190.485 451.054L190.684 450.855L191.214 450.457L191.479 450.192L191.744 449.795V449.53L191.346 449L191.214 448.602V447.807L191.28 447.343L191.479 447.012L191.744 446.879L192.075 446.482L192.539 445.885L193.069 444.295L193.931 438V437.271L193.864 436.94L193.599 436.41L193.268 436.012L192.804 435.615L192.208 435.35H191.877L191.611 435.416L191.413 435.615L191.015 436.012L190.485 436.741L190.087 437.205L189.624 437.47L188.961 437.536L188.232 437.47L187.702 437.205L187.238 436.808L186.841 436.344L186.046 435.151L185.913 434.82L185.714 433.826L185.78 433.428L185.979 433.163L186.708 432.699L186.973 432.434L187.172 432.103L187.305 431.308L187.172 430.711L186.841 430.248L186.443 429.916L185.913 429.651L184.654 428.79L184.389 428.591L184.256 428.26L184.124 427.73L184.19 427.332L184.389 427.067L185.913 425.808L186.178 425.543L186.443 425.146L186.708 424.417L186.774 424.019L186.708 423.622L186.377 423.158L185.449 422.23L185.25 421.634L185.317 421.302L185.714 420.839L186.774 420.441L187.106 420.375L187.901 420.64L188.298 420.308L189.094 418.784L189.226 418.321L189.491 417.525V416.929L189.359 416.068L189.425 415.604L189.491 415.273L189.69 415.008L190.087 414.61L190.618 414.014L190.883 413.55L191.015 413.152V412.755L190.816 412.225L190.154 411.231L189.889 410.369L270.264 412.556L273.511 412.953L275.763 413.484L283.251 417.857L283.847 418.387V418.784L282.456 419.911L282.257 420.308L282.787 420.441L296.039 421.17L297.431 422.031L300.413 434.82V435.549L301.075 435.681L301.605 436.542L302.533 436.012L302.732 435.482L307.37 426.935L307.569 426.537L307.768 426.206L308.033 426.139L309.159 426.537L310.02 426.935L310.286 427.001L310.551 426.868L310.816 426.272L310.948 426.073L311.213 425.874L311.81 425.676L312.605 424.947L313.135 424.615L313.4 424.085L313.665 423.091L313.797 422.893L314.526 422.495L314.659 422.23L314.791 421.435L315.056 421.17L315.52 421.037L316.315 420.971L316.713 421.104L316.779 421.435L316.713 421.965L316.779 422.164L317.11 422.363L320.026 423.29L320.291 423.555L320.424 423.82L320.49 424.483L320.622 424.748L320.821 424.947L321.749 425.344L321.881 425.609L321.948 425.941L321.881 427.067V427.398L322.213 427.862V428.061L322.08 428.26L321.484 428.856L321.351 429.055L321.55 429.585L322.213 430.248L322.809 430.778L323.14 431.175L323.339 431.639L323.737 432.169L324.267 431.573L324.598 431.374L325.261 431.308L325.592 431.374L326.188 431.705L326.586 431.772L326.785 431.639L327.182 431.043L327.381 430.91Z" fill="#009649" stroke="white" stroke-width="2" stroke-linejoin="round"></path>
<path class="region" data-country-region="West Region" d="M317.972 232.259L317.773 232.457L315.322 234.114L315.123 234.246L314.262 234.578L313.466 235.638L312.605 235.174L311.015 234.909L310.816 234.578L310.948 234.18V233.849L310.153 233.253L309.292 232.722L308.762 232.325L307.702 232.656L307.238 232.988L306.443 233.716L305.979 234.048L304.852 234.512L304.587 234.777L303.792 235.704L302.931 236.168L302.732 236.301L301.937 236.698L301.672 236.963L300.943 237.825L300.612 238.09L300.214 238.222L293.124 237.493L292.462 237.56L291.335 237.825L290.871 237.891L289.281 237.758L287.956 237.493H287.691L287.492 237.56L287.624 238.288L288.287 240.343L288.353 240.674V242.463L287.89 243.324L287.757 243.722L287.691 244.186V244.981L287.757 245.445L287.89 245.842L288.353 247.167L288.817 247.698L288.95 248.095L288.353 248.426L286.1 248.824L285.57 249.023L285.107 249.354L283.119 251.872L282.522 252.932L281.992 253.595L281.595 253.992L281.131 254.324L280.269 254.655L279.276 254.721L278.679 254.854L278.149 255.119L277.752 255.583L277.288 256.312L276.956 257.04L276.426 259.558L276.228 260.022L275.83 260.685V261.016L275.962 261.546L276.228 261.811L276.691 262.275L277.089 262.871L277.221 263.401L277.487 263.667L278.017 263.998L279.077 265.191L279.342 265.721L279.276 266.118L278.878 266.98L278.348 268.172L277.818 268.967L277.752 269.299L277.818 269.564L277.95 269.961L278.48 270.359L279.077 270.624L279.607 270.955L280.203 271.552L280.667 271.949L282.191 272.546L282.456 272.678L283.185 273.208L283.516 273.274L284.444 273.341L284.908 273.473L285.107 273.606L285.504 274.07L285.703 274.6L285.902 274.798L286.366 274.997L286.564 275.262L286.763 275.792L287.094 275.991L287.426 276.124L288.685 275.925H289.016L289.679 276.057L289.944 276.256L288.353 282.882L288.022 283.744L287.624 284.34L287.161 285.003L286.697 285.334L283.516 287.322L282.92 287.918L282.589 288.448L282.522 288.846L282.39 289.442V290.37L282.589 291.298L283.251 292.623L283.384 293.219L283.516 294.213L283.45 294.544L283.317 295.008L283.119 295.671L282.522 296.665L282.191 297.195L281.86 297.526L280.601 298.122L280.203 298.52L279.541 300.044L279.276 300.442L279.011 300.64L278.48 300.905L277.354 301.303L276.625 301.701L276.426 302.032L276.228 302.496L275.631 305.345L275.432 305.809L275.101 306.273L273.975 307.134L273.842 307.399L273.511 307.863L273.113 308.923L272.914 309.851L272.649 313.628L272.716 314.29L272.981 315.019L273.246 315.483L273.445 315.88L274.306 316.609L276.228 317.868L276.758 318.067L277.155 318.465L277.553 318.862L277.884 319.326L278.215 319.79L278.414 320.386L278.613 321.248L278.944 321.711L279.276 322.175L279.541 322.374L280.004 322.705L281.727 323.501L281.926 323.699L281.992 324.031L281.926 324.693L281.86 325.025L281.263 326.151L280.071 327.874L279.607 329.133L279.408 330.723L279.342 332.181L279.474 334.434L279.342 334.964L279.077 335.229L278.547 335.494L277.42 335.891L276.824 336.156L276.559 336.62L276.625 336.819L276.89 337.084L279.011 338.277L279.673 338.807L282.456 342.451L282.92 343.18L283.384 344.24L283.516 344.903L283.583 345.963L283.384 346.626L283.251 346.891L282.257 348.349L281.926 348.879L281.86 349.144L281.992 349.74L282.125 356.234L281.727 357.161L281.462 357.493L280.468 358.354L273.511 358.619L272.716 358.95L270.728 360.276L269.668 360.607L264.963 360.276L264.367 360.342L263.969 360.938L263.638 361.071L262.909 360.938L261.849 360.408L261.319 360.276L260.325 360.342L259.463 360.739L258.735 361.269L258.204 361.866L255.885 365.444L252.241 368.293L249.922 371.01L249.325 372.203L248.928 375.251L247.006 376.112L246.41 376.245L245.814 376.046L245.416 375.582L245.085 375.052L244.687 374.654L242.169 373.395L240.711 373.197L239.85 372.931L239.254 372.6L238.856 372.07L238.392 371.275L237.862 370.679L206.587 366.835H205.593L204.599 367.034L203.87 367.697L202.479 368.558L201.087 368.492L200.358 368.691L200.093 368.956L198.834 369.552L197.774 369.618L196.979 369.685L196.515 369.618L196.184 369.486L195.654 369.155L195.455 368.956L194.792 368.691L193.732 368.426L190.088 368.094H189.293L189.028 368.227L187.967 368.757L187.437 368.956L184.986 369.486L184.124 369.751L183.329 370.149L182.203 370.612L180.082 371.142H179.486L176.836 370.944L176.305 371.01L175.775 371.076L174.715 371.474L173.788 371.54L173.39 371.474L172.926 371.341L172.065 370.811L171.601 370.48L170.408 369.088L169.746 368.161L169.414 367.366L169.282 366.703L169.547 364.848V364.516L169.414 363.191L169.481 362.462L169.812 361.932L170.276 361.601L171.535 361.203L172.992 360.474L173.655 359.944L174.251 359.282L174.45 358.685L174.583 356.167L174.848 354.842L175.046 354.18L175.577 353.451L176.04 352.656L176.239 352.059L176.504 350.999V348.879L176.372 348.415L176.107 347.951L175.51 347.222L175.113 346.891L174.715 346.825L172.529 347.222L171.932 347.09L170.938 346.758L164.577 343.511L164.246 343.379L162.854 343.18L161.595 342.783L160.469 342.65L157.553 341.656L157.09 341.391L156.825 341.126L156.493 340.662L156.162 339.867L155.963 339.271V338.939L156.029 337.415L155.963 337.084L155.566 336.024L155.433 335.428L155.102 334.897L154.837 334.5L154.174 333.904L152.849 332.313L152.319 331.982H152.12L151.722 332.313L150.861 332.645L150.729 332.843L150.53 333.44L150.464 334.102L150.265 334.367L150 334.434L149.801 334.301L149.735 333.837L149.867 332.777L149.801 332.38L148.542 332.114L148.343 332.247V332.512L148.476 333.108V333.373L148.343 333.639L148.144 333.705H147.879L147.283 333.44L146.952 333.373H146.289L145.958 332.843L145.494 332.313L144.765 331.916L144.102 331.319L143.837 330.988L142.578 329.597L142.38 329.663L142.048 330.127L141.783 330.325L141.253 330.458L141.187 330.657L141.651 331.253L141.717 331.452L141.585 331.651L140.988 331.717L140.193 331.651L139.795 331.584L139.464 331.651L138.868 332.247H138.47L138.271 332.114L137.808 331.253L137.609 331.319L137.278 331.717L136.814 331.982H136.549L134.362 331.319L133.898 331.054L133.567 330.723V329.663L133.434 329.265L133.169 328.868L132.573 328.271L132.242 328.139H131.977L131.844 328.669L131.712 328.868L131.38 329.332V329.53L131.844 330.06L132.043 330.325V330.59L131.91 330.789L131.579 330.856H131.115L130.519 330.723L130.055 330.458L128.995 329.729L128.133 328.934L127.802 328.868L127.537 328.934L126.808 329.332L126.212 329.53L125.947 329.663L125.616 330.127L125.284 330.259H124.953L124.091 330.193L123.826 330.325L123.628 330.524L123.098 331.319L122.899 331.452L122.435 331.717L121.772 331.849L121.309 331.783L120.911 331.651L120.513 331.253L120.182 331.187L119.917 331.253L119.519 331.717L119.188 332.711L118.989 333.042L118.592 333.175L118.393 333.042L117.929 332.512L117.664 332.446L117.465 332.512L116.935 333.175L116.339 333.771L115.61 334.235L115.014 334.434L114.484 334.5L113.821 334.367L113.291 334.169L112.43 333.771L111.966 333.639L111.634 333.705L111.171 334.036L110.574 334.169L110.11 334.434L109.514 334.367L109.05 334.301L107.857 333.837H106.797L105.936 333.639L105.538 332.976V331.849L104.942 332.114L103.617 333.44L102.954 333.705L102.358 333.771L101.695 333.97L99.8399 335.096L98.8459 334.831L97.9845 334.169L97.0569 333.837L96.1292 334.102L94.2076 335.163L91.8885 335.759L89.9007 337.283L88.9067 337.879L83.0757 339.403L81.4855 340.198L79.7627 341.789L79.1663 342.186L78.4374 342.451L77.9074 342.385L77.3773 342.252L76.6484 342.186L75.6545 342.451L74.263 343.71L73.3353 344.24H71.0162L71.2812 343.71V343.313L71.0162 342.584L68.697 343.445L68.9621 342.252L70.221 340.331L70.9499 339.403L71.215 338.873L71.0162 338.674L70.6849 338.608L66.3116 338.144L65.7815 338.012L64.9864 337.482L64.6551 337.018L64.39 336.488L64.2575 335.891L64.1913 335.163V334.301L64.0587 333.97L63.7274 333.639L63.0648 333.241L62.5347 333.108L62.1372 333.042L61.4745 333.175L60.0168 333.837L59.0229 334.036H58.6916L58.294 333.837L58.0289 333.44L57.8302 332.777L57.4989 331.916L57.1676 331.452L56.4387 330.657L51.4691 327.41L50.0776 326.814L49.6138 326.747L49.2162 326.814L49.0174 326.946L47.6259 328.404L47.0958 328.669L44.4454 328.801L44.1803 328.868L43.9153 329.066L43.849 329.398L43.1864 332.777L43.0539 333.108L42.6563 333.705L41.9937 333.837L41.2648 333.639L40.7347 333.373L40.2709 332.976L39.6746 332.645L38.2831 332.38L37.6205 332.114L37.2892 331.651L37.2229 331.187L36.9578 330.723L36.6265 330.325L36.3615 330.193L35.3676 329.928L34.9037 329.464L33.2472 329.332L32.7834 329.265L32.4521 329.133L31.0606 328.205L30.8618 328.006L30.398 326.88L30.0667 326.615L26.2235 324.229L18.0071 317.206L17.4107 316.808L16.0193 316.146L15.4892 315.947L15.0253 315.814L14.3627 315.947L13.9652 316.278L13.3688 317.338L12.9712 317.736L12.1761 318.2L11.8448 318.597L11.5797 319.127L11.1822 319.591L9.52565 320.32L8.59799 320.519H7.60407L7.07398 320.453L6.41137 320.187L5.54997 319.459L4.15848 318.067L3.42961 317.603L1.77307 316.742L0.712891 316.609V276.256H115.014L114.285 274.136L113.357 272.347L112.098 270.624L108.984 267.443L107.857 265.853L107.327 263.998L107.725 261.679L108.851 259.095L110.905 250.746L111.568 249.089L116.074 242.463L116.538 241.469L116.67 240.475L116.14 237.891L115.875 234.379L115.345 232.921L113.887 231.397L112.695 229.608L112.363 227.024L112.761 218.874L113.092 211.453L114.285 208.603L114.417 208.007L114.152 206.616L113.887 202.309L113.423 200.917L112.827 199.791L112.363 198.664V197.206L112.695 196.08L113.688 193.761L115.279 191.309L115.478 190.647V189.719L115.345 188.327V187.599L115.478 186.936L116.14 186.074L117.863 184.683L118.459 183.954L118.393 183.225L115.875 177.659L115.61 176.202L115.809 167.985L114.682 167.786L114.417 166.991L114.616 164.738V161.558L114.815 160.564L115.146 159.437L114.947 158.576L113.821 156.92L113.49 155.926L113.092 153.076L115.014 153.143L117.664 153.673L120.116 154.534L121.375 155.793L121.441 156.323L121.11 157.317L121.043 157.847L121.176 158.51L121.574 159.636L121.706 160.299L121.574 162.22L121.971 162.949L123.098 162.751L124.224 162.419H125.218L127.272 163.082L128.398 163.214H130.519L131.579 163.347L132.838 163.943L134.495 164.937L135.886 166.196L136.549 167.389L136.35 168.051L135.886 168.582L135.422 169.112V169.973L135.754 170.636L136.681 171.497L137.079 171.961L137.344 172.955L137.41 174.214L137.344 175.406L137.145 176.533L136.681 177.461L134.892 180.376L134.163 181.105L131.844 181.834L131.115 182.43L131.579 183.49L132.507 183.888L134.826 183.954L135.886 184.087L137.145 184.882L139.067 186.671L140.193 187.201L141.518 187.333L142.711 187.068L145.096 186.207L145.626 186.141L146.289 186.207L146.885 186.074L147.217 185.611L147.415 184.948L147.681 184.418L148.012 183.954L148.476 183.49L149.006 183.292L150.265 183.026L150.861 182.695L151.391 182.165L152.451 180.707L153.048 180.177L155.234 179.25H159.475L161.728 178.786L165.902 176.665L168.288 175.937L170.408 176.135L178.492 175.406L181.871 174.678L187.239 171.961L189.028 171.696L189.756 172.292L189.823 173.617L189.756 175.075L189.889 176.268V176.798L189.425 177.195L188.232 177.659L187.57 178.189L187.901 178.653L188.564 179.183L188.829 179.647L188.365 180.707L187.702 181.237L187.239 181.9V183.292L187.702 184.484L188.961 186.737L189.425 187.731L189.359 188.261L188.564 189.189L188.299 189.785V190.315L188.498 191.309L190.022 196.014L190.552 197.008L191.015 197.538L191.413 197.736L191.877 197.803H192.606L193.335 197.935L193.732 198.333L193.997 198.863L194.461 199.327L197.708 200.851L198.702 201.712L198.768 202.043V202.64L198.304 204.098L198.636 204.893L199.497 205.29L200.623 205.224L201.153 204.959L201.485 204.561L201.882 204.23L202.611 204.098L203.208 203.965L203.473 203.369L203.605 202.839L204.069 202.441L206.653 202.507L208.575 203.766L210.364 205.423L212.55 206.682L213.544 206.881H216.791L217.454 206.814L218.58 206.284L218.978 206.152L219.574 206.284L219.905 206.483L220.104 206.748L223.218 209.266L224.411 209.73L225.206 210.326L226.001 212.115L226.995 212.579L227.724 212.712L237.465 212.579L238.724 213.043L239.85 213.772L241.043 214.368L243.031 214.236L244.223 214.766L244.886 214.832L245.549 214.567L246.609 213.772L247.205 213.507L249.325 213.175L251.512 213.109L252.837 213.507L253.765 214.302L254.693 215.163L255.687 215.958L257.741 216.621L262.313 216.952L264.433 217.35L265.493 218.012L266.487 218.741L267.481 219.205L268.607 218.94L269.469 218.145L270.132 217.151L270.993 216.422L272.451 216.356L275.101 216.687L277.487 216.157L279.673 214.898L281.661 212.977L282.721 210.724L282.986 205.953L283.516 203.7L284.378 202.441L285.239 201.646L285.835 200.718L285.902 199.194L285.173 196.743V195.616L285.902 194.821L286.432 194.755L287.691 194.954L288.221 194.887L290.341 194.225L292.793 194.026L294.383 193.363L294.781 193.297L295.708 194.688L296.305 197.339L296.57 200.188L296.437 202.11L297.829 207.146L308.364 213.705L311.015 218.278L311.28 220.597L313.996 228.614L314.924 229.807L317.972 232.259Z" fill="#009649" stroke="white" stroke-width="2" stroke-linejoin="round"></path>
<path class="region" data-country-region="West Region" d="M457.121 373.594L457.319 373.992L457.518 374.787L457.717 375.184L458.114 375.582L459.373 376.046L459.904 376.443L462.09 379.491L462.753 380.022L463.548 380.419L464.078 380.75L464.608 381.413L465.072 382.142L465.668 382.738L465.933 382.937L466.198 384.726L466.265 391.684L466.331 391.816V392.214L466.728 393.936V396.521L466.994 399.105L469.114 406.394L470.505 409.243L472.361 410.435L473.156 410.701L473.885 411.496L474.481 412.556L474.879 413.616L475.077 414.809L475.276 418.652L475.409 419.315L476.27 420.507L476.469 421.037L476.27 421.634L475.276 423.688L474.879 424.947L475.011 425.808L476.601 427.531L476.933 427.995L477.595 429.718L477.463 429.85L474.415 431.109L472.758 431.175L470.042 429.983L468.65 429.784L468.12 429.983L467.325 430.711L466.861 430.976L465.933 431.175L465.271 430.976L463.813 429.983L461.56 429.452L459.307 429.784L457.054 430.446L454.868 430.778L452.416 430.513L447.579 429.187L445.061 428.922L443.736 429.254L441.417 430.314L438.965 430.711L435.718 431.772L434.327 431.97L433.2 431.838L432.074 431.507L430.881 431.374L429.556 431.705L427.435 433.494L426.442 434.157L421.538 434.621L420.677 434.753L408.22 440.584L406.232 442.705L405.702 443.036L404.575 443.301L403.449 444.03L402.587 444.825L401.991 445.421L400.798 447.741L400.07 448.403L398.678 448.668L396.16 448.735L394.901 448.933L394.702 449.066L393.841 448.337L392.582 447.542L391.323 447.277L390.395 448.271L389.733 447.873H389.136L388.673 448.138L388.408 448.668L387.811 448.271L387.414 448.469L387.149 448.867L386.884 449.066L386.353 449L385.492 448.735L385.094 448.668L384.101 448.801L383.769 448.735L383.239 448.469L379.396 445.421L378.667 445.09H377.541L375.288 445.355L374.161 445.156L373.167 444.56L370.716 441.976L369.788 441.247L368.927 440.916L366.806 440.651L366.077 440.386L365.017 439.524L364.355 439.193L363.228 438.928L357.596 439.259L356.735 439.59L355.078 440.849L354.482 440.916L353.885 440.584L352.163 439.06L351.235 438.53L345.669 436.344L344.476 436.145L343.416 435.814L342.82 434.952L342.29 433.892L341.561 432.964L339.507 431.97L337.188 431.838L334.868 432.368L333.013 433.362L332.483 433.031L332.218 432.699L332.085 432.302L332.218 431.772L331.158 431.109L329.833 430.91H327.381L329.766 425.808L335.796 424.085L336.79 423.29L337.32 422.561L337.453 422.23V421.369L337.254 420.375L336.459 417.724L335.001 414.809L334.272 414.146L333.477 413.815L330.429 413.351L329.104 413.02L328.309 412.49L327.977 411.628L328.11 411.032L328.574 410.435L331.423 408.448L331.953 408.249L332.616 408.116H333.344L343.019 409.707L352.56 412.821L355.807 413.55L357.596 412.887L359.12 410.17L360.578 405.996L362.367 402.418L364.023 401.424L373.3 403.876L378.203 403.743L383.173 403.147L387.679 401.623L394.702 395.262L397.75 393.936L400.666 393.406L410.605 390.292L415.31 391.551L419.948 391.418L423.659 390.69L425.249 387.774L425.911 385.322L426.11 383.997L426.375 383.268L427.17 382.076L427.701 381.744L428.098 381.678L428.429 381.744L430.285 381.678L430.55 381.479L431.014 381.082L434.393 379.226L434.857 378.829L435.188 378.431L435.519 378.232L439.959 376.443L440.29 376.377L441.549 376.51L441.88 376.443L442.146 376.245L443.272 375.317L443.603 375.118L444.001 375.052L444.928 375.317L445.392 375.383H445.922L446.784 375.317L447.314 375.118L447.645 374.919L447.976 374.456L448.109 374.191L448.507 373.064L448.838 372.6L449.103 372.534L449.5 372.932L449.898 373.13L450.428 372.932L450.958 372.865L451.488 372.534L452.217 372.335H452.946L453.145 372.534L453.741 373.13L454.271 373.395L457.121 373.594Z" fill="#009649" stroke="white" stroke-width="2" stroke-linejoin="round"></path>
<path class="region" data-country-region="East Region" d="M466.33 391.816L466.264 391.683L466.198 384.726L465.933 382.937L465.668 382.738L465.071 382.142L464.607 381.413L464.077 380.75L463.547 380.419L462.752 380.021L462.089 379.491L459.903 376.443L459.373 376.046L458.114 375.582L457.716 375.184L457.517 374.787L457.319 373.992L457.12 373.594L456.855 373.196L455.463 371.54L454.271 370.48L453.873 369.883L454.271 366.902L454.668 364.715L454.933 364.119L455.132 363.721L455.331 363.589L455.662 362.528L455.795 361.269L456.192 360.209L456.789 359.613L457.252 359.348L457.849 359.017L458.18 358.619L458.379 358.155L458.511 357.36L458.71 356.83L458.975 356.432L459.24 356.3L459.572 356.234L460.234 356.366H460.565H460.897L461.162 356.167L461.626 355.703L463.812 352.722L465.469 351.33L465.866 350.866L466.131 350.469L466.396 349.806L466.595 349.475L466.86 349.21L467.324 348.945L468.119 348.083L468.583 347.752L470.107 346.957L470.703 346.493L471.101 345.963L471.697 344.969L471.962 344.373L472.227 343.644L472.36 342.716L472.294 342.054L472.095 341.457L471.764 340.993L471.366 340.198L470.571 339.801L469.975 339.138L469.709 339.006L469.113 338.741L466.463 337.945L464.939 337.349L464.674 337.15L464.409 336.753L462.885 332.114L462.62 331.518L462.354 331.319L462.023 331.253L460.897 331.12L460.234 330.922L459.704 330.59L459.77 330.392L503.635 330.325L504.165 330.127L504.695 329.862L504.961 329.133L505.358 328.669L506.286 327.807L507.213 326.482V326.217L508.472 325.82L508.737 324.826L508.671 323.898L509.135 323.434L509.864 323.235L511.388 322.175L512.05 321.844L513.641 321.645L514.237 321.181L513.972 320.254L514.833 319.26L514.966 319.193L516.357 317.736L516.755 316.874L517.749 312.7L518.412 311.507L519.936 310.845L520.598 309.983L521.128 309.784L522.652 310.182L523.381 310.049L523.911 308.592L524.971 307.266L525.236 306.471L525.435 306.074L525.899 305.941L526.429 306.007L526.827 306.272L527.026 306.074L527.556 305.544L529.875 303.755L531.068 303.026L533.784 302.429L535.043 301.502L535.64 301.104L536.898 300.707L537.826 300.839L538.953 301.17L540.079 301.303L541.007 300.905L545.512 297.526L546.838 295.671L547.5 293.484L547.964 291.165L548.958 287.852L549.289 287.322L550.416 287.057L550.88 286.725L551.211 286.328L551.343 285.731L551.741 284.605L552.602 283.81L553.331 282.948L553.53 281.557H553.861L553.994 281.822L554.259 282.352L555.187 281.756L556.446 281.159L557.174 280.563L557.771 279.834L558.102 279.635L559.295 279.503L559.692 279.238L559.957 278.84L560.09 278.31L560.819 278.642L561.283 278.509L561.746 278.244L562.409 277.979L562.078 276.852L562.012 275.66L562.144 274.467L562.409 273.606L562.475 273.274L562.343 272.678L562.409 272.413L562.74 272.148H563.337L563.602 272.015L564.331 271.286L564.596 270.955L564.795 270.425L565.391 270.359L566.584 270.028L567.71 269.564L568.24 269.034L568.373 267.973L569.3 265.323L569.83 264.395L570.36 264.064L570.824 263.931L571.156 263.666L571.421 262.474L571.951 261.281L572.083 260.685V259.956L572.481 258.034V256.113L572.613 255.516L572.878 255.119L573.143 254.655L573.342 253.263L573.939 252.535L575.131 246.902V244.318L575.264 243.854L575.86 243.125L575.993 242.794L576.059 241.933L576.258 241.535L576.655 241.204L577.185 240.608L577.517 240.011L578.312 238.222L578.974 237.493L581.824 235.24L581.956 234.71L582.95 233.451L583.414 232.259L583.745 231.066L583.812 229.873L588.45 230.867H591.829L594.678 227.952L595.606 224.572L597.991 222.121H601.305L608.461 221.657L621.249 217.747L628.869 215.362L631.255 209.995L635.032 203.7V200.917L636.092 199.327L638.345 198.333L641.128 197.604L641.658 205.025L641.459 207.146L640.664 209.332L640.73 210.26L641.326 211.519L641.525 212.38L641.393 213.242L641.061 214.169L640.531 217.151L638.278 222.386L638.08 224.307L638.146 226.295L638.61 227.223L640.2 228.747L640.863 229.542L641.525 231.463L642.519 235.505L643.645 237.228L645.633 237.891L649.808 236.632L651.994 237.427L652.922 237.361L653.585 237.626L653.651 238.818L653.187 239.746L651.464 240.806L651.067 241.734L650.205 241.866L649.94 242.33L649.874 243.722L649.41 244.451L647.687 245.113L647.025 245.71L646.163 247.035L644.971 248.228L643.712 249.089L642.453 249.354L641.989 249.221L641.525 248.89L640.995 248.625L640.266 248.559L638.742 248.824L638.278 249.023L637.682 249.752L636.688 251.739L635.893 252.336L635.363 252.468L634.435 253.131L634.104 253.462L633.971 253.86L633.64 254.125H633.11L632.845 253.86L632.182 252.601L631.785 252.203L631.255 252.004L630.791 252.071L629.929 252.336L629.466 252.601L628.935 252.998L628.472 253.263L628.074 252.866L627.809 252.402L627.544 252.071L627.146 252.004L626.683 252.203L625.887 252.932L625.291 253.727L623.568 257.173L621.514 260.221L620.719 261.811L620.52 262.805L620.852 267.112L621.249 267.708L622.773 268.702L624.165 269.961L624.628 271.353L624.363 273.009L622.839 276.521L621.978 282.948L622.044 284.009L622.243 284.936L622.707 285.93L623.568 287.255L623.767 287.918L623.436 288.779L621.779 289.243L620.388 291.032L619.328 293.352L617.804 299.713L616.743 301.965L615.153 302.827L614.093 302.959L613.629 303.622L613.497 304.55L613.563 305.61L613.298 306.869L612.569 307.399L610.515 307.73L609.72 308.194L608.196 309.519L607.467 309.652L606.407 309.254L605.612 309.188L605.081 309.652L604.816 310.845L605.479 312.7L607.268 313.097L609.388 313.164L610.846 313.826L613.033 316.874L613.298 317.537L612.834 318.2L610.78 319.193L610.184 319.856L610.449 321.38L612.105 322.109L614.225 322.573L615.948 323.235L616.743 323.964L619.593 327.41L619.791 328.338L619.924 329.199L620.255 330.06L620.719 330.458H621.779L622.243 330.657L622.508 331.187L622.574 331.452L622.442 331.783L622.243 334.765L622.574 335.626L623.833 337.349L624.894 337.084L626.683 334.169L627.411 333.307L628.207 332.91L630.194 332.313L630.725 331.849L631.255 330.325L631.785 329.994L632.646 330.723L634.369 334.036L635.363 335.229L626.285 338.277L619.195 340.728L609.455 344.108L599.913 347.355L580.167 354.179L575.661 355.041L573.475 355.703L569.234 357.691L556.114 362.065L548.03 364.715L538.886 369.618L533.983 371.407L520.863 374.654L514.966 376.046L513.972 376.112L500.388 379.292L492.503 382.208L487.666 383.931L481.703 386.184L476.402 388.834L472.227 390.954L467.258 391.551L466.33 391.816Z" fill="#009649" stroke="white" stroke-width="2" stroke-linejoin="round"></path>
<path class="region" data-country-region="West Region" d="M535.044 301.502L533.785 302.429L531.068 303.026L529.875 303.754L527.556 305.543L527.026 306.074L526.827 306.272L526.43 306.007L525.899 305.941L525.436 306.074L525.237 306.471L524.972 307.266L523.912 308.591L523.382 310.049L522.653 310.182L521.129 309.784L520.599 309.983L519.936 310.844L518.412 311.507L517.749 312.7L516.755 316.874L516.358 317.736L514.966 319.193L514.834 319.26L513.972 320.253L514.237 321.181L513.641 321.645L512.051 321.844L511.388 322.175L509.864 323.235L509.135 323.434L508.672 323.898L508.738 324.825L508.473 325.819L507.214 326.217V326.482L506.286 327.807L505.358 328.669L504.961 329.132L504.696 329.861L504.166 330.126L503.636 330.325L459.771 330.391L459.704 330.59L460.234 330.922L460.897 331.12L462.024 331.253L462.355 331.319L462.62 331.518L462.885 332.114L464.409 336.753L464.674 337.15L464.939 337.349L466.463 337.945L469.114 338.74L469.71 339.005L469.975 339.138L470.571 339.801L471.366 340.198L471.764 340.993L472.095 341.457L472.294 342.053L472.36 342.716L472.228 343.644L471.963 344.373L471.698 344.969L471.101 345.963L470.704 346.493L470.107 346.957L468.583 347.752L468.12 348.083L467.324 348.945L466.861 349.21L466.596 349.475L466.397 349.806L466.132 350.469L465.867 350.866L465.469 351.33L463.813 352.722L461.626 355.703L461.162 356.167L460.897 356.366H460.566H460.234L459.572 356.233L459.241 356.3L458.976 356.432L458.71 356.83L458.512 357.36L458.379 358.155L458.18 358.619L457.849 359.016L457.253 359.348L456.789 359.613L456.193 360.209L455.795 361.269L455.662 362.528L455.331 363.588L455.132 363.721L454.934 364.118L454.669 364.715L454.271 366.901L453.873 369.883L454.271 370.48L455.464 371.54L456.855 373.196L457.12 373.594L454.271 373.395L453.741 373.13L453.145 372.534L452.946 372.335H452.217L451.488 372.534L450.958 372.865L450.428 372.931L449.898 373.13L449.5 372.931L449.103 372.534L448.838 372.6L448.506 373.064L448.109 374.19L447.976 374.455L447.645 374.919L447.314 375.118L446.783 375.317L445.922 375.383H445.392L444.928 375.317L444 375.052L443.603 375.118L443.272 375.317L442.145 376.244L441.88 376.443L441.549 376.509L440.29 376.377L439.959 376.443L435.519 378.232L435.188 378.431L434.856 378.828L434.393 379.226L431.013 381.081L430.549 381.479L430.284 381.678L428.429 381.744L428.098 381.678L427.7 381.744L427.17 382.075L426.375 383.268L426.11 383.997L425.911 385.322L425.249 387.774L423.658 390.689L419.948 391.418L415.309 391.551L410.605 390.292L400.666 393.406L397.75 393.936L394.702 395.261L387.678 401.622L383.173 403.146L378.203 403.743L373.3 403.875L364.023 401.424L362.366 402.418L360.577 405.996L359.12 410.17L357.596 412.887L355.807 413.549L352.56 412.821L343.018 409.706L333.344 408.116H332.615L331.953 408.249L331.422 408.447L328.573 410.435L328.109 411.032L327.977 411.628L328.308 412.489L329.103 413.019L330.429 413.351L333.477 413.814L334.272 414.146L335.001 414.808L336.458 417.724L337.253 420.374L337.452 421.368V422.23L337.32 422.561L336.79 423.29L335.796 424.085L329.766 425.808L327.381 430.91L327.182 431.042L326.784 431.639L326.585 431.771L326.188 431.705L325.591 431.374L325.26 431.307L324.598 431.374L324.266 431.573L323.736 432.169L323.339 431.639L323.14 431.175L322.808 430.777L322.212 430.247L321.55 429.585L321.351 429.055L321.483 428.856L322.08 428.259L322.212 428.061V427.862L321.881 427.398V427.067L321.947 425.94L321.881 425.609L321.748 425.344L320.821 424.946L320.622 424.748L320.489 424.483L320.423 423.82L320.291 423.555L320.025 423.29L317.11 422.362L316.779 422.163L316.712 421.965L316.779 421.435L316.712 421.103L316.315 420.971L315.52 421.037L315.056 421.169L314.791 421.435L314.658 422.23L314.526 422.495L313.797 422.892L313.664 423.091L313.399 424.085L313.134 424.615L312.604 424.946L311.809 425.675L311.213 425.874L310.948 426.073L310.815 426.272L310.55 426.868L310.285 427L310.02 426.934L309.159 426.537L308.032 426.139L307.767 426.205L307.568 426.537L307.37 426.934L302.731 435.482L302.533 436.012L301.605 436.542L301.075 435.681L300.412 435.548V434.819L297.43 422.031L296.039 421.169L282.787 420.441L282.257 420.308L282.455 419.911L283.847 418.784V418.387L283.25 417.856L275.763 413.483L273.51 412.953L270.263 412.556L189.888 410.369L189.954 406.393L189.689 404.207V403.676L189.822 403.345L190.021 403.146L191.744 401.556L192.274 400.894L192.539 400.827L193.201 400.761L193.864 400.894L194.261 400.827L194.725 400.562L194.924 400.231L194.99 399.833L194.858 398.177L194.924 397.58L195.123 397.315L195.984 396.454L196.779 395.195L197.111 394.532L197.31 394.002L197.376 391.484L197.243 390.822L195.587 387.774L195.454 387.376L195.388 386.78L195.454 385.653L195.52 385.057L195.719 384.593L196.183 383.997L196.514 383.467L196.647 382.937L196.713 382.274L196.912 381.545L197.31 381.081L197.575 380.949L198.237 380.75L198.568 380.551L198.635 380.22V379.226L198.767 377.371L198.436 376.178L198.37 375.25L198.436 374.72L198.568 374.323L199.231 373.263L199.761 371.937L200.092 371.142L201.086 369.618L201.683 368.956L202.08 368.691L202.478 368.558L203.869 367.697L204.598 367.034L205.592 366.835H206.586L237.861 370.678L238.392 371.275L238.855 372.07L239.253 372.6L239.849 372.931L240.711 373.196L242.168 373.395L244.686 374.654L245.084 375.052L245.415 375.582L245.813 376.046L246.409 376.244L247.006 376.112L248.927 375.25L249.325 372.202L249.921 371.01L252.24 368.293L255.885 365.444L258.204 361.866L258.734 361.269L259.463 360.739L260.324 360.342L261.318 360.275L261.848 360.408L262.908 360.938L263.637 361.07L263.968 360.938L264.366 360.342L264.962 360.275L269.667 360.607L270.727 360.275L272.715 358.95L273.51 358.619L280.467 358.354L281.461 357.492L281.726 357.161L282.124 356.233L281.991 349.74L281.859 349.143L281.925 348.878L282.257 348.348L283.25 346.891L283.383 346.625L283.582 345.963L283.515 344.903L283.383 344.24L282.919 343.18L282.455 342.451L279.672 338.807L279.01 338.277L276.889 337.084L276.624 336.819L276.558 336.62L276.823 336.156L277.419 335.891L278.546 335.494L279.076 335.229L279.341 334.963L279.474 334.433L279.341 332.181L279.407 330.723L279.606 329.132L280.07 327.874L281.263 326.151L281.859 325.024L281.925 324.693L281.991 324.03L281.925 323.699L281.726 323.5L280.004 322.705L279.54 322.374L279.275 322.175L278.943 321.711L278.612 321.247L278.413 320.386L278.215 319.79L277.883 319.326L277.552 318.862L277.154 318.464L276.757 318.067L276.227 317.868L299.352 318.597L304.189 319.26L304.255 319.591L304.057 320.916L304.52 322.308L304.852 322.838L305.581 323.633L305.779 323.832L305.978 324.362L306.111 325.356L306.376 326.217L306.508 327.211L306.839 328.47L307.038 328.735L307.37 329.066L308.165 329.729L309.159 329.265L310.683 328.139L311.942 326.681L312.472 325.223L312.074 324.03L312.008 323.169L312.273 322.44L312.803 322.109L313.532 321.91L314.195 322.109L314.592 323.036L314.857 323.434L315.188 323.765L315.586 323.832L315.917 323.5L315.984 323.103L315.917 322.639L315.984 322.241L317.773 319.856L318.303 319.061V318.663L318.104 317.934L318.303 317.471L318.634 317.205L319.562 317.139L319.827 317.073L319.959 316.278L319.76 315.549V314.754L320.622 313.892L321.947 314.025L322.212 314.157L323.206 314.886L323.802 315.151L324.465 315.35L329.17 315.748L330.296 316.013L331.157 316.808L334.934 326.283L335.464 327.41L336.193 328.404L337.32 329.398L337.982 329.729L338.446 329.795L339.043 329.596L339.705 329.132L340.103 329L340.567 328.867L342.091 328.801L342.554 328.735L343.283 328.47L343.946 328.337L347.126 328.271L349.048 328.072L349.644 327.874L350.108 327.542L350.771 326.88L351.168 326.681L351.897 326.615H352.361L352.825 326.681L356.337 327.608L356.999 327.675H357.529L358.656 327.343L359.65 327.145L361.505 327.078L362.035 327.145L364.686 327.874L365.746 328.006L369.456 327.741L370.119 327.542L370.649 327.343L371.378 326.88L371.643 326.747L373.83 326.416L378.402 326.217L378.998 326.018L379.263 325.687L378.866 319.26L378.932 318.928L379.329 318.531L387.413 312.236L387.811 311.838L388.805 310.381L389.997 309.122L390.461 308.79L392.383 307.598L394.636 306.736L395.1 306.405L398.744 301.833L400.931 299.646L401.262 299.182L401.394 298.785H401.792L403.25 298.52H404.575L405.834 299.116L406.364 299.845L406.762 300.706L407.225 301.435L408.087 301.568L408.683 301.236L409.81 299.911L410.538 299.514L411.864 298.917L415.111 296.731L423.128 293.616L424.255 292.888L427.568 289.773L428.827 289.243L430.152 289.309L431.212 289.906L432.14 290.701L433.266 291.364L433.929 291.43L434.459 291.297H434.856L435.386 291.96L435.519 292.556L435.453 293.153L435.188 293.749L434.923 294.147L434.525 294.478L433.531 294.743L433.134 295.14L433.001 295.671L433.134 296.797L433.067 297.327L432.67 297.526L432.14 297.658L431.676 297.923V298.785L431.941 299.447L432.206 300.11L432.603 300.706L433.067 301.17L433.929 301.7L435.188 302.164L437.441 302.76L441.085 302.827L441.946 302.694L442.808 300.839V285.731V268.835L442.874 258.697V250.016V240.342V227.421L444 227.223L444.464 226.891L444.663 226.692L445.127 225.964L445.392 225.433L445.591 224.771L445.856 221.789L446.121 221.193L446.253 220.994L446.717 220.596L451.289 218.675L452.482 218.41L453.807 218.211H454.072L454.47 218.476L454.934 218.94L455.928 220.199L456.988 222.12L457.12 222.717L457.186 223.711L457.385 224.307L457.584 224.705L458.379 225.831L458.644 226.295L459.042 226.759L459.439 227.09L460.234 227.62L460.765 227.885L461.228 228.018L461.891 228.15L462.289 228.283L462.554 228.614L463.084 229.608L463.415 229.939L464.674 230.403L465.337 230.536L465.668 230.602L466.463 231.066L467.391 231.397L468.186 231.861L468.782 232.126L470.174 232.325L470.439 232.457L471.234 232.921L471.83 233.12H472.824L473.288 233.252L473.818 233.517L474.679 233.981L475.21 234.114H475.607L476.535 233.981H477.264L477.595 234.047L478.125 234.511L478.456 235.108L478.788 235.505L479.053 235.837L479.583 236.102H479.98H480.312L480.908 235.903L481.571 235.837L482.167 235.903L482.498 236.102L482.83 236.433L483.095 237.029L483.227 237.493V237.957L483.161 240.541L483.028 241.204L482.432 242.396L482.3 242.993V243.655L482.366 244.318L482.565 244.914L482.763 245.179L483.161 245.511L483.89 245.974L485.348 246.637L485.878 246.968L486.143 247.233L486.474 247.697L486.673 248.426V248.89L486.607 249.288L486.143 250.48L486.076 251.143L486.143 251.474L486.54 251.938L487.203 252.601L488.793 253.86L489.588 254.257L490.118 254.456L490.913 254.058L491.377 253.727L491.841 253.396L492.504 252.468L492.769 252.336L493.034 252.269L493.365 252.468L493.63 252.733L494.359 254.456L494.757 255.052L495.154 255.45L495.817 255.914L496.877 256.378L497.142 256.643L497.407 256.908L497.54 257.438V258.299L497.275 258.829L496.943 259.359L496.148 260.221L496.016 260.486L495.419 261.943V262.54L496.214 265.522L496.347 266.118V266.516L496.082 267.907L496.281 268.305L496.678 268.702L500.124 271.154L501.25 271.684L501.714 272.015L502.31 272.347L502.642 272.413H503.304L505.16 271.949L505.889 272.015L507.876 272.612L508.937 272.744L510.461 273.274L510.991 273.34H511.918L512.647 273.871L516.888 278.045L517.617 278.575H518.014H518.677L519.008 278.509L519.605 278.31L520.002 277.979L520.334 277.449L520.93 276.123L520.996 275.593L521.062 274.533L521.195 274.202L521.526 273.804L522.056 273.539L523.183 273.142H523.514H526.032L526.761 273.208L527.092 273.34L529.014 274.334L529.544 274.599L530.008 275.129L530.339 275.858L530.538 276.786L531.399 289.442L531.797 290.568L532.857 292.689L534.182 294.147L534.845 295.074L534.977 295.671L535.044 296.664V298.586V301.502Z" fill="#009649" stroke="white" stroke-width="2" stroke-linejoin="round"></path>
<path class="region" data-country-region="West Region" d="M401.394 298.785L401.262 299.183L400.93 299.647L398.744 301.833L395.099 306.405L394.636 306.737L392.383 307.598L390.461 308.791L389.997 309.122L388.805 310.381L387.811 311.839L387.413 312.236L379.329 318.531L378.932 318.929L378.865 319.26L379.263 325.687L378.998 326.019L378.402 326.217L373.829 326.416L371.643 326.747L371.378 326.88L370.649 327.344L370.119 327.543L369.456 327.741L365.746 328.006L364.685 327.874L362.035 327.145L361.505 327.079L359.65 327.145L358.656 327.344L357.529 327.675H356.999L356.337 327.609L352.825 326.681L352.361 326.615H351.897L351.168 326.681L350.771 326.88L350.108 327.543L349.644 327.874L349.048 328.073L347.126 328.271L343.946 328.338L343.283 328.47L342.554 328.735L342.09 328.802L340.566 328.868L340.102 329L339.705 329.133L339.042 329.597L338.446 329.795L337.982 329.729L337.32 329.398L336.193 328.404L335.464 327.41L334.934 326.284L331.157 316.808L330.296 316.013L329.169 315.748L324.465 315.351L323.802 315.152L323.206 314.887L322.212 314.158L321.947 314.025L320.622 313.893L319.76 314.754V315.549L319.959 316.278L319.827 317.073L319.561 317.14L318.634 317.206L318.302 317.471L318.104 317.935L318.302 318.664V319.061L317.772 319.856L315.983 322.242L315.917 322.639L315.983 323.103L315.917 323.501L315.586 323.832L315.188 323.766L314.857 323.434L314.592 323.037L314.194 322.109L313.532 321.91L312.803 322.109L312.273 322.44L312.008 323.169L312.074 324.031L312.472 325.223L311.941 326.681L310.682 328.139L309.158 329.265L308.165 329.729L307.369 329.067L307.038 328.735L306.839 328.47L306.508 327.211L306.375 326.217L306.11 325.356L305.978 324.362L305.779 323.832L305.58 323.633L304.851 322.838L304.52 322.308L304.056 320.916L304.255 319.591L304.189 319.26L299.352 318.597L276.227 317.868L274.305 316.609L273.444 315.881L273.245 315.483L272.98 315.019L272.715 314.29L272.648 313.628L272.913 309.851L273.112 308.923L273.51 307.863L273.841 307.399L273.974 307.134L275.1 306.273L275.431 305.809L275.63 305.345L276.227 302.496L276.425 302.032L276.624 301.701L277.353 301.303L278.479 300.906L279.01 300.64L279.275 300.442L279.54 300.044L280.202 298.52L280.6 298.123L281.859 297.526L282.19 297.195L282.521 296.665L283.118 295.671L283.317 295.008L283.449 294.544L283.515 294.213L283.383 293.219L283.25 292.623L282.588 291.298L282.389 290.37V289.442L282.521 288.846L282.588 288.448L282.919 287.918L283.515 287.322L286.696 285.334L287.16 285.003L287.624 284.34L288.021 283.744L288.352 282.882L289.943 276.256L289.678 276.058L289.015 275.925H288.684L287.425 276.124L287.093 275.991L286.762 275.792L286.563 275.262L286.365 274.997L285.901 274.799L285.702 274.6L285.503 274.07L285.106 273.606L284.907 273.473L284.443 273.341L283.515 273.275L283.184 273.208L282.455 272.678L282.19 272.546L280.666 271.949L280.202 271.552L279.606 270.955L279.076 270.624L278.479 270.359L277.949 269.961L277.817 269.564L277.751 269.299L277.817 268.968L278.347 268.172L278.877 266.98L279.275 266.118L279.341 265.721L279.076 265.191L278.016 263.998L277.486 263.667L277.22 263.402L277.088 262.872L276.69 262.275L276.227 261.811L275.962 261.546L275.829 261.016V260.685L276.227 260.022L276.425 259.558L276.955 257.041L277.287 256.312L277.751 255.583L278.148 255.119L278.678 254.854L279.275 254.721L280.268 254.655L281.13 254.324L281.594 253.992L281.991 253.595L282.521 252.932L283.118 251.872L285.106 249.354L285.569 249.023L286.1 248.824L288.352 248.427L288.949 248.095L288.816 247.698L288.352 247.168L287.889 245.842L287.756 245.445L287.69 244.981V244.186L287.756 243.722L287.889 243.324L288.352 242.463V240.674L288.286 240.343L287.624 238.289L287.491 237.56L287.69 237.493H287.955L289.28 237.758L290.87 237.891L291.334 237.825L292.461 237.56L293.123 237.493L300.213 238.222L300.611 238.09L300.942 237.825L301.671 236.963L301.936 236.698L302.731 236.301L302.93 236.168L303.791 235.704L304.586 234.777L304.851 234.512L305.978 234.048L306.442 233.717L307.237 232.988L307.701 232.656L308.761 232.325L309.291 232.723L310.152 233.253L310.948 233.849V234.18L310.815 234.578L311.014 234.909L312.604 235.174L313.465 235.638L314.261 234.578L315.122 234.247L315.321 234.114L317.772 232.458L317.971 232.259L318.236 232.524L320.688 235.241L322.278 235.704L324.796 235.969L327.38 235.837L329.169 235.373L330.23 234.512L330.892 233.717L331.621 233.253L333.013 233.385L334.205 233.849L337.386 235.771L338.247 236.831L338.446 238.289L338.777 239.481L340.036 239.879L341.096 239.746L341.958 239.68L346.066 240.078L346.596 240.409L346.795 240.873L346.927 241.469L347.192 241.933L348.584 243.059L349.379 242.728L350.24 241.867L351.632 241.535L352.758 241.999L353.554 242.861L354.547 243.523H356.071L357.198 243.324L358.324 243.457L359.385 243.722L360.378 244.318L365.017 248.427L365.812 249.619L366.938 252.535L367.601 253.794L369.523 255.848L370.119 256.908L370.053 258.432L369.39 259.426L368.529 260.089L367.932 260.884L368.33 262.341L369.523 263.932L370.715 265.191L371.643 266.516L371.842 269.564L372.438 270.094H373.299L374.161 269.696L374.691 269.034L375.552 267.377L376.281 266.847L378.932 267.444L381.185 269.763L385.028 274.799L386.022 275.726L386.419 276.323L386.883 278.443L387.148 278.642L387.877 278.973L388.142 279.172L388.076 279.503L387.811 280.099L387.877 280.63L387.744 281.226L387.811 281.557L388.076 281.822L388.672 282.021L388.871 282.154L389.401 284.141L389.931 284.473L391.057 284.539L391.588 284.738L392.25 285.599L393.973 294.213L394.901 296.599L396.623 298.321L397.352 299.183L398.28 299.382L399.274 299.183L400.334 298.785H401.394Z" fill="#009649" stroke="white" stroke-width="2" stroke-linejoin="round"></path>
<path class="region" data-country-region="East Region" d="M479.981 189.388L479.783 189.719L479.716 190.183V190.779L479.65 191.111L479.186 192.369L479.12 193.032L479.253 193.695L479.584 194.159L479.518 194.49L469.777 207.013L469.048 207.742L468.121 208.14L444.134 212.049L443.803 212.182L442.345 212.38L441.749 212.977L441.417 213.838L441.484 214.898L441.881 216.82L441.682 219.404L441.881 220.398L442.345 221.193L443.471 222.452L443.869 223.181V223.844L443.67 224.639L443.604 225.368L443.869 225.898L443.67 226.295L443.273 226.892L442.875 227.223V227.157L440.423 227.355L439.231 227.753L437.309 229.145L434.394 230.536L433.4 230.735L432.803 230.403L431.809 229.343L431.081 229.078H430.285L429.755 229.277L428.96 230.072L427.834 230.735L425.382 231.596L424.521 232.259L424.123 232.988L423.46 235.241L423.262 236.632L422.997 237.162L422.93 237.626L423.129 238.09L424.852 240.276L425.713 240.608H426.575L427.304 240.939L427.569 241.999L427.37 243.059L426.774 243.921L425.912 244.451L424.852 244.583L424.454 244.385L423.991 243.921L423.659 243.788L423.328 243.722L422.533 243.788H422.135L420.611 243.192L418.292 241.933L417.828 241.8L415.575 241.734L414.913 241.668L414.383 241.403L413.72 240.807L412.66 239.68L412.13 239.415L407.491 239.481L406.1 239.879L404.907 240.409L403.98 241.005L403.383 239.879L402.456 240.011L401.462 240.475L400.667 240.409L400.07 240.144H399.673L399.408 240.011L399.275 239.216L399.143 238.62L394.571 230.138L393.113 228.283L389.733 226.428L389.203 225.765L389.005 224.639L388.342 223.512L387.613 222.585L386.884 221.922L384.896 220.862L384.101 220.265L383.77 219.404L383.637 217.748L383.107 217.284L381.119 217.615L379.927 217.284L377.144 215.76L376.415 215.163L375.421 213.043L374.626 212.447L373.301 213.242L373.168 212.712L372.505 211.585L372.24 211.254L371.71 210.79L371.18 210.459H370.584L369.855 210.856L369.259 209.929L368.795 207.146L368.132 206.549L367.205 206.284L366.741 205.555L366.144 201.514L366.012 200.917L365.15 200.188L364.819 199.658L365.018 199.393V198.797L364.09 195.351L363.759 194.821L362.898 194.026L362.5 193.43L361.837 191.707L361.506 191.243L361.241 190.382L361.175 187.267L361.307 186.207L364.223 181.966L364.422 181.701L365.681 180.707L366.012 180.509L365.548 178.388L365.813 177.129L366.343 176.268L366.873 175.672L367.933 173.485L367.867 171.497L367.933 170.901L368.066 170.569L368.53 169.841L368.662 169.311V168.582L368.066 165.534L368.132 164.937L368.927 163.811L369.656 162.419L369.855 161.823L369.921 161.227L369.789 159.968L369.855 159.438L370.186 158.907L371.18 157.847L371.379 157.251L371.512 156.655L372.108 155.462L372.24 154.866V152.281L372.505 150.956L373.036 149.631L373.764 148.372L374.692 147.378L375.09 146.782L375.554 145.523L376.349 144.131L376.614 143.8L376.945 143.667L377.674 143.734L378.005 143.667L378.8 143.005L379.662 142.143L380.391 141.017L380.722 139.89L380.391 139.493L379.065 138.499L378.8 137.903L378.867 137.24L379.198 136.047L379.132 135.318L377.806 133.794L377.011 132.734V131.939L377.276 131.409L376.812 130.548L377.011 130.018L377.343 129.487L377.608 128.825L377.674 128.096L377.608 127.433L377.21 126.307L376.68 125.379L376.216 124.319L376.084 122.928L376.216 121.735L376.547 120.807L376.746 119.88L376.415 118.753L375.686 118.356L375.554 118.024L375.421 117.428L375.288 117.163L373.367 115.506L373.897 114.446L375.288 112.79L376.15 111.067L376.68 108.814L376.812 104.176L376.415 100.067L376.614 98.8084L378.403 95.0978L378.933 92.6461L379.463 91.586L380.523 91.1884L380.656 90.9233L379.132 89.3993L378.999 88.6042L378.668 88.2066L378.204 88.0741L377.608 87.6765L376.812 86.5501L376.481 85.4236L376.415 82.7069L376.282 82.1106L375.819 80.9179L375.686 80.3878L375.421 79.5926L374.361 78.3337L374.162 77.8036L374.427 77.5385L375.686 77.0747L376.084 76.6772H374.295L373.632 76.4121L373.301 75.6832V74.6893L373.168 73.9604L372.969 73.2978L372.572 72.7015L371.18 71.7076L370.518 71.0449L370.253 70.1173L370.451 68.262L370.319 67.2018L370.783 67.9307L370.915 69.0571L370.584 69.9185L371.777 69.7197L373.963 68.6595L375.487 68.262L375.951 67.9969L376.481 67.9307L377.011 68.1957L377.409 68.527L377.74 68.7921L378.138 68.7258L378.734 68.3945L380.854 70.5811L381.848 71.0449L382.577 69.5209L381.517 69.1896V68.3282L382.246 66.4066L382.047 65.4127L381.451 64.5513V63.6237L381.782 62.8948L382.246 62.2984L383.372 61.3045L383.836 60.7082L384.433 59.3167L384.896 58.5878L386.487 57.3951L387.282 56.6662L388.077 54.2146L389.137 53.0881L391.522 51.1003L392.185 49.9738L392.649 48.6486L393.113 47.5884L394.04 47.1909L395.034 46.8595L397.486 45.3355L398.149 44.8054L399.01 43.2152L400.269 39.4383L402.588 35.5951L405.967 26.9149L406.1 25.8547L405.769 24.927L404.907 23.8006L403.715 22.6742L400.07 20.4213L397.751 18.6985L396.558 17.9696L395.233 17.7046L394.239 17.307L392.516 15.9155L391.655 15.783L392.914 15.3192L399.673 14.259L418.358 11.4097L430.219 9.55441L429.822 10.8134L428.099 14.1264L427.502 15.1204L427.304 15.3192L426.508 16.048L425.78 16.5781L424.057 16.9757L421.87 17.7708L421.141 18.2346L420.611 18.831L419.882 19.7587L418.292 23.0717L417.696 24.0656L417.099 24.662L416.768 25.1258L414.979 29.4991L413.72 35.065L411.865 39.8358L411.533 40.3659L410.805 41.2273L410.606 41.3599L410.076 41.6249L408.353 42.155L407.624 42.5526L407.293 43.0164L406.034 47.5884L405.835 47.8535L405.57 47.9197H404.907L404.576 47.986L404.443 48.1848L404.311 48.5161L404.112 49.1787L404.046 49.51L403.913 50.7027L404.178 51.2991L404.51 51.6304L405.239 52.1605L406.299 52.6243L406.829 52.8231L407.359 53.1544L407.757 53.4857L408.154 53.8833L408.618 54.2146L409.148 54.4796H409.678L410.142 54.3471L410.473 54.2146H410.805L411.467 54.5459L411.732 54.6784L412.395 55.606L412.792 56.3349L413.19 56.7988L413.455 56.9313L414.383 57.1963L414.581 57.3288L415.112 57.9252L415.377 58.0577L415.642 57.9915L416.172 57.7264H416.37L416.569 57.9252L416.702 58.2565L416.768 58.9191L417.099 59.7805L417.232 60.1781L416.967 61.5696L416.901 61.9009L416.967 62.4972L417.961 65.9428L417.828 66.4729L417.563 67.1355L417.431 67.4006L417.166 67.5993L416.569 67.7981L416.37 67.9307L416.172 68.527L416.039 69.9185L416.172 70.9124L416.304 71.3762L416.768 72.3039L417.961 75.5507L418.226 76.0145L418.557 76.2796L419.22 76.8097L419.419 76.9422L420.015 76.8759L420.545 76.6109L421.208 76.5446L421.87 76.6109L422.467 76.8097L423.328 77.5385L423.46 77.8036L424.388 79.5926L424.719 79.9902L425.382 80.3215L425.581 80.5203L425.912 80.9179L426.243 81.1167L426.906 81.1829L427.171 81.3817L427.436 81.713L427.767 82.3756L428.033 82.6407L428.43 82.8395L429.093 82.9057L429.358 83.0382L430.087 83.4358L430.418 83.5021L431.346 83.3033L431.611 83.3696L432.803 83.7009L433.797 83.8996L434.394 84.0984L435.388 84.6948L437.177 85.2911L438.237 85.3574L438.767 85.6224L439.164 86.02L439.363 86.1525L440.357 86.02L441.351 86.1525H441.682L442.345 86.02L442.941 86.1525L443.339 86.4838L443.471 86.7489L444.068 87.7428L444.73 88.7367L445.459 89.5319L446.122 89.9957L446.387 90.3932L446.519 90.8571L446.784 91.7847L446.983 92.2486L447.248 92.5136L447.778 92.7124L448.441 92.9112L449.236 93.2425L449.7 93.5738L449.965 94.1039L450.628 96.0917L450.694 96.6218L450.429 97.947L448.971 101.658L448.905 101.989V102.387L449.104 103.38L450.031 105.567L450.628 106.561L450.694 107.025L450.495 107.29L449.567 108.019L449.17 108.483L448.839 108.946L448.507 109.477L448.308 110.073L447.381 114.38L447.182 114.976L446.851 115.374L445.923 116.103L445.459 116.368L445.128 116.434L444.532 116.5L443.405 116.368L443.074 116.301L442.212 115.904L441.616 115.639L441.285 115.573L438.701 115.44L437.442 115.573L437.11 115.705L436.05 116.169L435.586 116.5L434.725 117.229L432.936 119.018L432.273 119.482L430.882 120.012L428.894 121.072L427.105 121.47L426.376 121.801L425.846 122.199L425.581 122.596L424.852 123.391L424.521 123.656L422.864 124.584L422.467 124.982L422.334 125.445L422.201 127.301L422.003 127.831L421.804 128.162L421.34 128.494L421.009 128.957L420.081 130.548L420.015 130.879L420.081 131.343L420.412 132.005L420.611 132.403L421.009 132.933L421.141 133.198L420.81 133.927L418.557 136.975L418.292 137.505L418.16 137.836L417.894 139.162L417.629 139.493L417.298 139.625L416.967 139.692L415.774 139.559H415.443L415.112 139.758L414.714 140.354L414.118 140.884L407.226 145.258L406.961 145.589L406.829 145.987L406.895 152.745L406.829 153.143L406.63 153.408L404.112 155.661L403.052 156.986L402.522 157.781L402.456 158.046L402.522 158.245L402.986 158.51L407.293 160.034L407.889 160.431L412.925 165.467L413.19 165.666L413.786 165.799H414.449L415.377 165.666L415.973 165.799L418.623 167.256L419.286 167.323L419.551 167.19L419.684 166.925L419.75 166.594L419.882 165.07L420.147 163.612L420.214 163.281L420.147 162.883L419.617 162.154L419.22 161.69L418.557 160.763L418.358 160.365L418.16 159.769L418.093 159.173L418.16 158.709L418.292 158.046L418.16 157.649L417.099 156.058L416.768 155.131L417.431 154.402L418.358 153.739L433.93 145.39L434.394 145.324L434.725 145.39L434.99 145.523L435.918 146.185L437.773 147.245L439.96 147.974L440.49 148.239L441.55 148.836L441.815 149.101L442.146 149.565L443.67 152.546L444.001 153.01L444.2 153.143L445.459 154.004L445.791 154.269L446.122 154.667L447.646 157.251L447.845 157.847L447.977 158.444L448.176 161.558L444.863 183.225L445.26 182.894L445.791 181.9L447.447 181.304L447.712 180.906L447.778 180.376L447.977 179.647L448.308 179.051L448.706 178.587L450.628 177.196L451.29 176.4L451.555 175.141L451.953 174.678L452.35 174.479L453.146 174.346L460.169 174.413L461.097 174.611L462.025 175.141L479.65 187.864L479.849 188.129L480.048 188.725V189.123L479.981 189.388Z" fill="#009649" stroke="white" stroke-width="2" stroke-linejoin="round"></path>
<path class="region" data-country-region="East Region" d="M580.433 53.1541L582.62 59.979L585.469 66.2076L585.933 71.9723L579.77 71.5085L574.072 70.0507L568.44 69.5869L561.747 70.5808L557.043 72.9662L553.266 75.3516L548.959 75.8155L544.718 74.424L543.26 78.2671L539.484 76.4781L535.243 76.8094L531.466 74.424L528.617 76.3456L525.304 79.1948L522.454 80.6525L520.997 84.0319L517.22 88.8027L521.46 93.1759L525.767 100.398L528.153 106.627L530.008 113.386L534.315 116.301L539.947 118.687L541.869 120.608L542.068 134.987L538.423 135.716L538.158 135.517L537.893 135.053L537.496 134.656L536.833 134.523L536.303 134.854L535.839 135.914L535.508 136.113L534.779 136.312L532.857 137.372L531.797 137.704L530.339 137.902L529.743 138.101L529.478 138.697L529.876 139.161L529.942 139.559L529.677 139.691H528.815L528.418 139.89L528.285 140.288L528.484 142.607L528.285 143.203L527.888 143.667L526.761 144.33L526.364 144.794L525.701 144.263L524.641 143.866L523.448 143.667L522.521 143.601L521.46 143.8L520.665 144.197L518.147 146.052L518.28 146.45L519.009 147.179L519.34 147.643L519.473 148.04L519.671 148.239L520.334 148.305L520.798 148.173L521.195 147.974H521.659L522.057 148.305L522.322 149.564L521.394 149.962L519.34 149.896L518.876 150.426L518.81 151.022L519.075 151.552L520.268 152.811L520.467 153.142L520.135 153.871L519.87 154.203L519.473 154.534L519.141 154.931L519.009 155.66L516.491 157.847L515.629 158.245H514.37L514.901 157.648L515.099 157.118L515.033 156.456L514.702 155.859L514.105 155.329L513.84 155.859L513.774 157.251L512.913 157.516L511.919 157.184L511.389 156.522L511.985 155.859H510.859L510.13 157.251L509.6 159.106L509.136 160.431L508.606 160.696L507.015 161.293L506.419 161.359L506.022 161.491L505.425 161.823L504.763 162.088L503.901 162.154L505.028 163.347L504.763 163.877L503.967 163.744L503.305 162.949L502.775 163.148L502.245 163.678L501.98 164.341L501.847 164.937L500.787 166.925L496.215 172.756L494.956 175.207L494.492 176.665L494.161 177.195L492.836 178.388L492.57 178.587L491.974 179.316L491.643 179.514L490.384 179.316L489.721 179.249L489.191 179.514L488.727 180.045L488.396 180.641L488.065 181.767L487.8 182.297L487.468 182.695L487.005 182.96L486.276 183.093L485.282 183.49L484.752 184.55L484.354 185.876L483.758 187.068L481.637 188.791L479.981 189.387L480.047 189.122V188.725L479.848 188.128L479.65 187.863L462.024 175.141L461.096 174.611L460.169 174.412L453.145 174.346L452.35 174.479L451.952 174.677L451.555 175.141L451.29 176.4L450.627 177.195L448.705 178.587L448.308 179.051L447.977 179.647L447.778 180.376L447.712 180.906L447.447 181.304L445.79 181.9L445.26 182.894L444.862 183.225L448.175 161.558L447.977 158.443L447.844 157.847L447.645 157.251L446.121 154.666L445.79 154.269L445.459 154.004L444.2 153.142L444.001 153.01L443.67 152.546L442.146 149.564L441.814 149.101L441.549 148.835L440.489 148.239L439.959 147.974L437.772 147.245L435.917 146.185L434.989 145.522L434.724 145.39L434.393 145.324L433.929 145.39L418.358 153.739L417.43 154.401L416.768 155.13L417.099 156.058L418.159 157.648L418.292 158.046L418.159 158.708L418.093 159.172L418.159 159.769L418.358 160.365L418.557 160.763L419.219 161.69L419.617 162.154L420.147 162.883L420.213 163.28L420.147 163.612L419.882 165.069L419.749 166.594L419.683 166.925L419.55 167.19L419.285 167.322L418.623 167.256L415.972 165.798L415.376 165.666L414.448 165.798H413.786L413.189 165.666L412.924 165.467L407.889 160.431L407.292 160.034L402.985 158.51L402.521 158.245L402.455 158.046L402.521 157.781L403.051 156.986L404.112 155.66L406.63 153.408L406.828 153.142L406.895 152.745L406.828 145.986L406.961 145.589L407.226 145.257L414.117 140.884L414.713 140.354L415.111 139.758L415.442 139.559H415.774L416.966 139.691L417.298 139.625L417.629 139.493L417.894 139.161L418.159 137.836L418.292 137.505L418.557 136.975L420.809 133.927L421.141 133.198L421.008 132.933L420.611 132.403L420.412 132.005L420.081 131.342L420.014 130.879L420.081 130.547L421.008 128.957L421.34 128.493L421.803 128.162L422.002 127.831L422.201 127.301L422.333 125.445L422.466 124.981L422.864 124.584L424.52 123.656L424.851 123.391L425.58 122.596L425.845 122.198L426.375 121.801L427.104 121.47L428.893 121.072L430.881 120.012L432.273 119.482L432.935 119.018L434.724 117.229L435.586 116.5L436.05 116.169L437.11 115.705L437.441 115.572L438.7 115.44L441.284 115.572L441.616 115.639L442.212 115.904L443.073 116.301L443.405 116.367L444.531 116.5L445.127 116.434L445.459 116.367L445.923 116.102L446.85 115.373L447.181 114.976L447.38 114.38L448.308 110.073L448.507 109.476L448.838 108.946L449.169 108.482L449.567 108.018L450.495 107.29L450.693 107.025L450.627 106.561L450.031 105.567L449.103 103.38L448.904 102.386V101.989L448.971 101.657L450.428 97.9467L450.693 96.6215L450.627 96.0914L449.964 94.1036L449.699 93.5735L449.236 93.2422L448.44 92.9109L447.778 92.7121L447.248 92.5133L446.983 92.2483L446.784 91.7845L446.519 90.8568L446.386 90.393L446.121 89.9954L445.459 89.5316L444.73 88.7364L444.067 87.7425L443.471 86.7486L443.338 86.4835L442.941 86.1522L442.344 86.0197L441.682 86.1522H441.35L440.357 86.0197L439.363 86.1522L439.164 86.0197L438.766 85.6221L438.236 85.3571L437.176 85.2908L435.387 84.6945L434.393 84.0981L433.797 83.8993L432.803 83.7006L431.61 83.3693L431.345 83.303L430.417 83.5018L430.086 83.4355L429.357 83.038L429.092 82.9054L428.43 82.8392L428.032 82.6404L427.767 82.3753L427.436 81.7127L427.171 81.3814L426.906 81.1826L426.243 81.1164L425.912 80.9176L425.58 80.52L425.382 80.3212L424.719 79.9899L424.388 79.5924L423.46 77.8033L423.327 77.5383L422.466 76.8094L421.87 76.6106L421.207 76.5443L420.544 76.6106L420.014 76.8756L419.418 76.9419L419.219 76.8094L418.557 76.2793L418.225 76.0143L417.96 75.5504L416.768 72.3036L416.304 71.376L416.171 70.9121L416.039 69.9182L416.171 68.5267L416.37 67.9304L416.569 67.7978L417.165 67.5991L417.43 67.4003L417.563 67.1352L417.828 66.4726L417.96 65.9425L416.966 62.4969L416.9 61.9006L416.966 61.5693L417.231 60.1778L417.099 59.7802L416.768 58.9188L416.701 58.2562L416.569 57.9249L416.37 57.7261H416.171L415.641 57.9912L415.376 58.0574L415.111 57.9249L414.581 57.3286L414.382 57.196L413.454 56.931L413.189 56.7985L412.792 56.3346L412.394 55.6058L411.732 54.6781L411.467 54.5456L410.804 54.2143H410.473L410.141 54.3468L409.678 54.4793H409.147L408.617 54.2143L408.154 53.883L407.756 53.4854L407.358 53.1541L406.828 52.8228L406.298 52.624L405.238 52.1602L404.509 51.6301L404.178 51.2988L403.913 50.7024L404.045 49.5097L404.112 49.1784L404.31 48.5158L404.443 48.1845L404.575 47.9857L404.907 47.9194H405.569L405.834 47.8532L406.033 47.5881L407.292 43.0161L407.623 42.5523L408.352 42.1547L410.075 41.6246L410.605 41.3596L410.804 41.227L411.533 40.3657L411.864 39.8356L413.72 35.0647L414.978 29.4988L416.768 25.1255L417.099 24.6617L417.695 24.0654L418.292 23.0714L419.882 19.7584L420.611 18.8307L421.141 18.2344L421.87 17.7705L424.056 16.9754L425.779 16.5778L426.508 16.0477L427.303 15.3189L427.502 15.1201L428.098 14.1262L429.821 10.8131L430.219 9.55413L446.188 7.10246L472.626 3.06052L486.474 0.940155V2.79547L486.209 3.59061L485.944 4.25322V4.84957L486.474 5.57845L485.017 5.97602L483.36 6.77115L481.77 7.76507L480.643 9.0903L479.782 10.8794L479.252 13.066L479.451 14.9213L481.041 16.114L480.842 17.373L481.77 17.8368L483.228 17.638L485.348 16.7104L486.276 16.9754L486.673 17.7705L486.011 18.897L486.209 19.0958L486.474 19.6259L485.746 20.0234L484.818 20.686L484.155 21.3486L484.288 21.6137L485.216 21.5474L485.944 21.3486L487.203 20.8186L488.33 20.2222L489.522 19.3608L490.649 18.2344L491.444 16.9091L490.98 17.1079L490.649 17.1742L489.986 16.9091L490.318 16.114L490.715 15.9152L491.245 15.7827H492.438L492.902 15.9815L492.968 16.379L492.637 17.5055L492.836 18.3006L493.366 18.4331L494.028 18.3006L494.625 18.4994L494.89 18.8307L495.088 19.2945L495.287 19.6921L495.751 20.0897L496.877 20.2222L498.136 20.1559L499.197 20.2885L499.992 21.68L502.775 23.6015L512.184 34.0046L513.244 34.0708L514.503 33.4745L515.696 32.6131L516.623 32.2155L516.557 31.6854L516.623 31.1553L516.822 30.824L517.617 30.4927L518.015 29.7638L518.214 29.4988L518.876 28.9024L519.208 28.7699L519.539 29.8301L520.4 30.4927L520.599 31.0891L521.328 30.559L521.792 29.6313L521.991 28.6374L522.057 27.7097L521.991 27.2459L521.46 26.3182L521.328 25.9207L521.46 25.5231L521.991 24.6617L522.057 24.1979L521.792 23.2702L520.467 22.4751L520.201 21.945L521.129 21.4812H522.454L523.117 21.945L524.177 23.4027L524.84 23.8666L525.502 23.9328L526.032 23.8003L526.43 23.469L529.346 22.4751L530.008 22.2763L530.406 22.1438L530.605 21.945L530.737 21.8787L531.267 22.1438L531.466 22.4751L531.665 23.5353L531.863 23.9328L532.592 24.4629L533.321 24.5292L534.116 24.4629L534.978 24.5292L535.839 24.9268L537.032 26.3845L537.96 26.9146L540.146 27.5772L541.273 28.5049L541.67 29.9626V32.083L542.068 34.5347L543.393 36.3237L548.826 40.4982L549.754 40.8957H550.947L552.073 40.4982L553.995 39.438L555.32 39.3055L563.735 41.6246L562.675 43.9438V46.793L563.801 49.0459L566.253 49.6422L567.38 49.1121L568.241 48.5158L569.102 48.1182L570.56 48.317L572.217 49.3109L572.813 49.4435L573.343 49.3772L574.403 49.1121L574.933 49.1784L576.06 49.7748L578.18 51.8951L579.307 52.7565L580.433 53.1541Z" fill="#009649" stroke="white" stroke-width="2" stroke-linejoin="round"></path>
<path class="region" data-country-region="East Region" d="M641.128 197.604L638.345 198.333L636.092 199.327L635.032 200.917V203.7L631.255 209.995L628.869 215.362L621.249 217.748L608.461 221.657L601.305 222.121H597.992L595.606 224.572L594.679 227.952L591.829 230.867H588.45L583.812 229.873L583.745 231.066L583.414 232.259L582.95 233.451L581.956 234.71L581.824 235.241L578.975 237.493L578.312 238.222L577.517 240.011L577.186 240.608L576.655 241.204L576.258 241.535L576.059 241.933L575.993 242.794L575.86 243.126L575.264 243.854L575.131 244.318V246.903L573.939 252.535L573.342 253.264L573.144 254.655L572.879 255.119L572.613 255.516L572.481 256.113V258.034L572.083 259.956V260.685L571.951 261.281L571.421 262.474L571.156 263.667L570.824 263.932L570.361 264.064L569.831 264.395L569.3 265.323L568.373 267.974L568.24 269.034L567.71 269.564L566.584 270.028L565.391 270.359L564.795 270.425L564.596 270.955L564.331 271.287L563.602 272.016L563.337 272.148H562.741L562.409 272.413L562.343 272.678L562.475 273.275L562.409 273.606L562.144 274.467L562.012 275.66L562.078 276.853L562.409 277.979L561.747 278.244L561.283 278.509L560.819 278.642L560.09 278.31L559.958 278.84L559.693 279.238L559.295 279.503L558.102 279.636L557.771 279.834L557.175 280.563L556.446 281.16L555.187 281.756L554.259 282.352L553.994 281.822L553.862 281.557H553.53L553.331 282.949L552.603 283.81L551.741 284.605L551.344 285.732L551.211 286.328L550.88 286.726L550.416 287.057L549.29 287.322L548.958 287.852L547.964 291.165L547.5 293.484L546.838 295.671L545.513 297.526L541.007 300.906L540.079 301.303L538.953 301.171L537.826 300.839L536.899 300.707L535.64 301.104L535.043 301.502V298.586V296.665L534.977 295.671L534.845 295.074L534.182 294.147L532.857 292.689L531.797 290.569L531.399 289.442L530.538 276.786L530.339 275.859L530.007 275.13L529.544 274.6L529.014 274.335L527.092 273.341L526.761 273.208L526.032 273.142H523.514H523.183L522.056 273.54L521.526 273.805L521.195 274.202L521.062 274.533L520.996 275.594L520.93 276.124L520.333 277.449L520.002 277.979L519.604 278.31L519.008 278.509L518.677 278.575H518.014H517.617L516.888 278.045L512.647 273.871L511.918 273.341H510.99L510.46 273.275L508.936 272.744L507.876 272.612L505.888 272.016L505.159 271.949L503.304 272.413H502.642L502.31 272.347L501.714 272.016L501.25 271.684L500.124 271.154L496.678 268.702L496.28 268.305L496.082 267.907L496.347 266.516V266.118L496.214 265.522L495.419 262.54V261.944L496.015 260.486L496.148 260.221L496.943 259.36L497.274 258.83L497.539 258.299V257.438L497.407 256.908L497.142 256.643L496.877 256.378L495.817 255.914L495.154 255.45L494.756 255.053L494.359 254.456L493.63 252.734L493.365 252.468L493.034 252.27L492.769 252.336L492.504 252.468L491.841 253.396L491.377 253.727L490.913 254.059L490.118 254.456L489.588 254.258L488.793 253.86L487.203 252.601L486.54 251.938L486.142 251.475L486.076 251.143L486.142 250.481L486.606 249.288L486.673 248.89V248.427L486.474 247.698L486.142 247.234L485.877 246.969L485.347 246.637L483.89 245.975L483.161 245.511L482.763 245.18L482.564 244.915L482.366 244.318L482.299 243.656V242.993L482.432 242.397L483.028 241.204L483.161 240.541L483.227 237.957V237.493L483.094 237.03L482.829 236.433L482.498 236.102L482.167 235.903L481.57 235.837L480.908 235.903L480.311 236.102H479.98H479.583L479.052 235.837L478.787 235.506L478.456 235.108L478.125 234.512L477.595 234.048L477.263 233.982H476.535L475.607 234.114H475.209L474.679 233.982L473.818 233.518L473.288 233.253L472.824 233.12H471.83L471.234 232.921L470.439 232.458L470.173 232.325L468.782 232.126L468.186 231.861L467.39 231.397L466.463 231.066L465.668 230.602L465.336 230.536L464.674 230.403L463.415 229.94L463.083 229.608L462.553 228.614L462.288 228.283L461.891 228.151L461.228 228.018L460.764 227.886L460.234 227.62L459.439 227.09L459.042 226.759L458.644 226.295L458.379 225.831L457.584 224.705L457.385 224.307L457.186 223.711L457.12 222.717L456.987 222.121L455.927 220.199L454.933 218.94L454.47 218.476L454.072 218.211H453.807L452.482 218.41L451.289 218.675L446.717 220.597L446.253 220.994L446.121 221.193L445.856 221.789L445.591 224.771L445.392 225.434L445.127 225.964L444.663 226.693L444.464 226.892L444 227.223L442.874 227.422V227.223L443.271 226.892L443.669 226.295L443.868 225.898L443.603 225.368L443.669 224.639L443.868 223.844V223.181L443.47 222.452L442.344 221.193L441.88 220.398L441.681 219.404L441.88 216.82L441.482 214.898L441.416 213.838L441.747 212.977L442.344 212.38L443.801 212.182L444.133 212.049L468.119 208.14L469.047 207.742L469.776 207.013L479.516 194.49L479.583 194.158L479.251 193.695L479.119 193.032L479.185 192.369L479.649 191.11L479.715 190.779V190.183L479.781 189.719L479.98 189.388L481.637 188.791L483.757 187.069L484.353 185.876L484.751 184.551L485.281 183.49L486.275 183.093L487.004 182.96L487.468 182.695L487.799 182.298L488.064 181.768L488.395 180.641L488.727 180.045L489.19 179.515L489.721 179.25L490.383 179.316L491.642 179.515L491.973 179.316L492.57 178.587L492.835 178.388L494.16 177.196L494.491 176.666L494.955 175.208L496.214 172.756L500.786 166.925L501.846 164.937L501.979 164.341L502.244 163.678L502.774 163.148L503.304 162.949L503.967 163.745L504.762 163.877L505.027 163.347L503.9 162.154L504.762 162.088L505.424 161.823L506.021 161.492L506.418 161.359L507.015 161.293L508.605 160.697L509.135 160.431L509.599 159.106L510.129 157.251L510.858 155.859H511.984L511.388 156.522L511.918 157.185L512.912 157.516L513.773 157.251L513.84 155.859L514.105 155.329L514.701 155.859L515.032 156.456L515.099 157.118L514.9 157.648L514.37 158.245H515.629L516.49 157.847L519.008 155.661L519.141 154.932L519.472 154.534L519.869 154.203L520.135 153.872L520.466 153.143L520.267 152.811L519.074 151.552L518.809 151.022L518.876 150.426L519.339 149.896L521.393 149.962L522.321 149.565L522.056 148.306L521.659 147.974H521.195L520.797 148.173L520.333 148.306L519.671 148.239L519.472 148.041L519.339 147.643L519.008 147.179L518.279 146.45L518.147 146.053L520.665 144.197L521.46 143.8L522.52 143.601L523.448 143.667L524.64 143.866L525.7 144.264L526.363 144.794L526.761 144.33L527.887 143.667L528.285 143.204L528.483 142.607L528.285 140.288L528.417 139.89L528.815 139.692H529.676L529.941 139.559L529.875 139.162L529.477 138.698L529.742 138.101L530.339 137.903L531.797 137.704L532.857 137.373L534.778 136.312L535.507 136.114L535.838 135.915L536.302 134.855L536.832 134.523L537.495 134.656L537.893 135.053L538.158 135.517L538.423 135.716L542.067 134.987L541.868 120.608L539.947 118.687L534.314 116.301L530.007 113.386L528.152 106.627L525.767 100.399L521.46 93.1762L517.219 88.803L520.996 84.0321L522.454 80.6528L525.303 79.1951L528.616 76.3458L531.465 74.4242L535.242 76.8097L539.483 76.4783L543.26 78.2674L544.717 74.4242L548.958 75.8157L553.265 75.3519L557.042 72.9665L561.747 70.5811L568.439 69.5872L574.071 70.051L579.77 71.5087L585.932 71.9726L585.468 66.2078L582.619 59.9793L580.432 53.1544L581.625 53.2869L588.98 53.1544L591.299 53.7507L593.353 55.1422L593.95 55.9373L595.01 58.5215L595.871 59.7805L596.6 60.3106L598.72 60.4431L603.624 61.5033L607.666 61.9009L608.395 62.2322L609.123 63.0936L609.389 63.5574L609.521 64.4188L609.852 64.8164L610.316 65.0151L611.244 64.8826L611.708 64.9489L614.292 66.7379L618.533 68.3282L619.394 68.8583L619.527 72.2376L619.792 73.0328L620.322 73.4966L620.719 73.3641L621.051 73.099L621.713 73.0328L622.111 73.2978L622.906 74.0267L623.436 74.2917V75.8157L622.442 79.9902L623.105 81.5142L623.9 81.7793L624.496 81.5142L625.159 81.0504L625.888 80.8516L626.55 81.1829L626.749 81.7793L626.882 82.5081L627.147 83.0382L628.406 83.502L628.936 82.4419L629.134 80.7191L629.466 79.2613L630.725 79.8577L633.773 80.0565L634.899 80.8516L635.761 82.3093L636.026 83.0382L636.092 83.8996L635.893 84.5622L635.628 85.0261L635.429 85.5561L635.628 86.4175L636.158 87.2127L637.55 88.0741L638.146 88.7367L639.007 90.327L639.471 90.9896L640.134 91.5859L640.863 91.9835L642.917 92.7786L643.314 93.1762L644.176 95.4953L644.573 97.0856L644.176 98.2783L642.453 100.929L641.393 103.645L641.128 105.037L641.061 106.561L641.857 107.621L646.429 109.675L647.621 110.669L648.549 111.663L649.609 112.525L651.067 113.055L652.127 114.446L653.254 115.241L654.049 116.169L654.181 117.958L653.784 121.205L653.982 122.596L655.506 126.108L655.97 126.837L657.561 128.228L657.958 128.692L659.085 131.276L659.946 132.337L661.536 132.535V133.993L661.934 135.053L662 136.047L661.072 137.505L660.211 138.3L657.958 139.89L657.229 140.222L656.5 140.686L653.717 143.8L652.856 146.119L652.193 147.113L651.067 147.842L650.206 148.041L649.145 149.035L648.416 149.366H647.555L645.7 148.968L644.905 149.101L644.109 149.432L642.652 149.697L641.923 149.962L641.26 150.559L640.2 152.215L639.339 152.679H638.676L638.08 152.546L637.55 152.679L637.019 153.739L636.953 154.534L637.417 154.866H638.146L638.941 154.733L639.736 155.462L640.134 157.251L640.531 160.697L641.061 162.419L641.857 164.01L642.917 165.467L644.176 166.726L645.965 169.973L645.501 171.696L644.706 173.286L640.73 179.448L640.664 179.846L640.863 180.442L640.796 180.84L640.465 181.105L639.604 181.436L639.339 181.768L639.272 182.563L639.339 183.358V184.087L638.875 184.882L637.417 183.689L636.887 184.484L637.152 189.388L637.086 190.117L636.754 191.177L635.893 192.966L636.092 193.43L637.019 193.761L637.947 193.827L638.941 193.695L639.869 193.827L640.664 194.689L640.995 195.616L641.128 197.604Z" fill="#009649" stroke="white" stroke-width="2" stroke-linejoin="round"></path>
</svg>