<svg width="1373" height="579" viewBox="0 0 1373 579" fill="none" xmlns="http://www.w3.org/2000/svg">
<path class="region" data-country-region="West Region" d="M612.522 218.375H614.446L618.705 226.893L613.896 239.945L604.966 245.028L591.502 249.7L590.403 254.92L596.997 261.652L593.838 270.995L586.968 279.375L593.151 285.695L604.416 291.19L606.34 298.884L609.774 305.341L611.698 309.188L610.461 319.904L602.905 326.636L600.02 333.918L595.074 339.551L591.09 345.046L590.815 355.35L578.45 358.922L568.283 361.945L542.18 362.907L537.921 352.74L536.684 340.238L534.486 331.857L522.671 307.814L510.993 284.871L505.91 276.353L499.178 273.055L483.79 270.033L480.768 262.614L500.689 258.218L519.923 250.661L530.777 244.754L567.734 237.609L586.556 222.909L601.394 217.826L612.522 218.375Z" fill="#009649" stroke="white" stroke-width="2" stroke-linejoin="round"></path>
<path class="region" data-country-region="West Region" d="M609.775 468.42L564.163 485.456L549.05 494.661L527.618 512.658L516.077 517.742L510.994 523.787L503.163 535.465L498.629 540.548L494.095 544.12L488.05 546.318L468.541 547.692L460.435 550.165L453.428 554.699L446.284 561.706L431.721 572.147L427.187 546.318L425.264 539.998L415.922 525.161L415.51 522.138L416.334 515.544L415.784 512.796L413.449 509.911L404.519 504.415L394.627 495.485L391.742 490.676L389.269 483.258L386.796 468.694L388.444 456.192L395.314 447.674L408.915 445.201L417.57 445.339L423.203 448.224L428.287 453.994L430.897 455.505L436.805 455.917L444.086 449.735L450.681 446.3L455.215 445.888L465.519 446.438L468.816 444.927L470.19 440.805L469.64 438.744L486.127 443.827L492.172 447.125L495.057 451.521L496.98 457.017L512.368 458.528L535.861 455.093L539.295 442.316L527.892 428.028L535.174 426.242L548.775 426.929L553.172 418.548L554.545 402.886L556.606 392.032L566.498 383.514L577.489 380.904L583.397 387.086L586.282 393.406L592.19 396.154L596.586 406.733L597.96 423.219L603.455 429.814L612.798 432.149L619.392 436.134L612.798 456.742L609.775 468.42Z" fill="#009649" stroke="white" stroke-width="2" stroke-linejoin="round"></path>
<path class="region" data-country-region="West Region" d="M742.217 262.064L742.354 263.301L739.469 286.931L744.415 305.891L757.192 316.47L769.969 323.339L784.395 330.483L794.149 342.298L800.606 352.465L819.016 363.319L836.877 376.096L842.509 385.713L843.471 390.659L801.431 419.647L793.737 422.12L769.145 418.411L760.901 419.098L756.23 421.571L747.163 429.127L742.217 430.913H724.906L716.113 433.111L689.323 448.224H685.751L684.652 445.339L681.492 429.814L687.124 415.801L683.552 406.183L677.37 400.413L667.066 395.33L654.564 389.834L648.793 380.08L647.694 366.066L648.519 358.098L651.816 352.053L655.251 344.084L656.762 335.979L666.379 330.895L680.118 331.17L686.575 327.048L687.811 314.958L688.086 307.265L689.872 296.823L693.444 279.65L701.55 278.688L716.8 270.994L724.356 263.438L731.226 261.103L742.217 262.064Z" fill="#009649" stroke="white" stroke-width="2" stroke-linejoin="round"></path>
<path class="region" data-country-region="West Region" d="M724.906 190.074L724.081 190.348L712.678 183.616L696.604 182.517L677.37 191.997L663.219 199.691L653.19 201.751L640 206.285L623.514 208.758L619.667 205.873L613.759 201.339L610.462 183.891L632.032 174.137L642.336 172.9L653.052 176.06L657.998 175.785L669.401 164.107L677.095 167.542L689.46 167.817L712.129 164.107L751.971 151.193L759.252 160.81L752.658 169.603L744.552 175.648L735.485 187.051L724.906 190.074ZM649.48 76.5917L645.496 77.8282L640.962 74.3935L627.498 70.4093L622.14 67.2494L617.744 62.3034L616.232 58.1818L617.469 54.0602L620.629 48.4273L625.849 43.4814L640.687 32.2156L648.244 19.4386L658.685 8.44765L670.088 0.891357L677.644 4.18865L674.072 17.6526L657.998 57.3575L655.113 70.2719L653.327 73.7066L649.48 76.5917Z" fill="#009649" stroke="white" stroke-width="2" stroke-linejoin="round"></path>
<path class="region" data-country-region="East Region" d="M1127.73 265.362V250.661L1130.75 240.083L1132.12 238.022L1146.13 218.513L1157.4 210.132L1162.62 205.873L1159.46 199.004L1147.92 187.188L1133.22 173.725L1126.9 167.542L1130.47 161.909L1131.57 154.765L1124.98 150.781L1120.31 145.972L1117.28 135.393L1110.96 125.914L1113.02 125.364L1120.99 119.869L1124.29 118.22H1128.96L1139.13 120.83L1157.4 117.121L1175.26 109.015L1217.99 78.3778L1227.47 74.3936L1234.47 76.0422L1240.93 80.7134L1270.2 94.8643L1278.3 97.0624L1288.61 98.0242L1298.77 97.0624L1306.19 93.4904L1318.97 84.2854L1321.85 83.1863L1327.21 84.2854L1329.27 87.0332L1330.37 90.7426L1333.26 94.8643L1342.05 100.222L1361.01 105.306L1368.98 110.801L1372 119.182L1367.88 126.463L1337.24 149.407L1318.14 168.641L1279.81 198.592L1252.88 224.97L1250 229.366L1245.05 229.779L1215.79 236.236L1188.86 255.882L1176.91 261.79L1127.73 265.362Z" fill="#009649" stroke="white" stroke-width="2" stroke-linejoin="round"></path>
<path class="region" data-country-region="West Region" d="M0.875 511.285L8.56868 509.087L42.2285 495.623L49.6475 494.661L54.8682 491.913L64.0731 478.861L68.0573 474.465L80.697 468.557L108.449 459.902L149.391 452.071L154.062 449.598L157.634 444.927L165.877 443.278L176.456 442.729L176.868 451.384L170.686 474.74L168.625 489.578L167.113 493.287L164.091 496.447L156.123 506.888L143.62 517.605L136.339 520.627L133.591 525.023L132.629 537.526L126.996 546.593L125.623 552.638L127.546 560.057L127.134 564.041L123.424 569.812L117.792 573.384L110.785 575.307L102.679 575.994L95.5348 577.918L94.1609 569.949L95.8095 559.37L94.4357 552.226L91.4132 544.945L87.4289 538.075L82.6204 532.305L76.3006 526.809L70.8051 524.474L65.0348 524.749L58.1655 527.634L52.5326 532.442L44.152 543.983L38.9313 547.28L26.0169 544.945L14.4763 534.915L0.875 511.285Z" fill="#009649" stroke="white" stroke-width="2" stroke-linejoin="round"></path>
<path class="region" data-country-region="West Region" d="M619.667 205.873L612.523 218.375L601.394 217.826L586.556 222.909L567.734 237.61L530.777 244.754L519.923 250.661L500.689 258.218L480.768 262.614L477.883 263.301H465.381L448.894 256.569L450.406 234.862L453.978 225.245L459.336 216.589L466.205 210.544L474.586 207.797L493.683 204.774L501.651 200.515L505.086 199.691L520.336 201.889L525.007 200.652L537.372 193.233L565.124 185.265L573.504 184.303L600.982 186.227L610.462 183.891L613.759 201.339L619.667 205.873Z" fill="#009649" stroke="white" stroke-width="2" stroke-linejoin="round"></path>
<path class="region" data-country-region="West Region" d="M693.444 279.65L689.871 296.823L688.085 307.265L687.811 314.959L686.574 327.049L680.117 331.17L666.378 330.895L656.761 335.979L655.25 344.085L651.815 352.053L648.518 358.098L647.694 366.067L648.793 380.08L654.563 389.835L667.065 395.33L677.369 400.413L683.552 406.184L687.124 415.801L681.491 429.814L684.651 445.339L685.75 448.224L681.628 448.362L660.471 445.339L653.601 446.713L645.083 453.582L636.565 458.391L609.775 468.42L612.797 456.742L619.392 436.134L612.797 432.15L603.455 429.814L597.959 423.22L596.586 406.733L592.189 396.154L586.282 393.407L583.396 387.087L577.489 380.904L578.176 370.326L578.45 358.922L590.815 355.35L591.09 345.046L595.074 339.551L600.02 333.918L602.905 326.636L610.462 319.904L611.698 309.188L609.775 305.341L631.207 302.456L644.808 297.373L653.189 287.069L656.074 279.238L665.004 277.314L675.308 270.308L687.536 268.384L694.68 269.621L693.444 279.65Z" fill="#009649" stroke="white" stroke-width="2" stroke-linejoin="round"></path>
<path class="region" data-country-region="West Region" d="M724.906 190.073L722.296 204.499L728.203 218.1L734.111 226.893L740.568 241.868L742.217 262.064L731.226 261.103L724.356 263.438L716.8 270.994L701.55 278.688L693.444 279.65L694.681 269.621L687.537 268.384L675.309 270.308L665.005 277.314L656.075 279.238L653.19 287.069L644.809 297.373L631.208 302.456L609.776 305.341L606.341 298.884L604.417 291.19L593.152 285.695L586.969 279.375L593.839 270.994L596.998 261.652L590.404 254.92L591.503 249.699L604.967 245.028L613.897 239.945L618.706 226.893L614.447 218.375H612.523L619.667 205.873L623.514 208.758L640.001 206.285L653.19 201.751L663.219 199.69L677.37 191.997L696.604 182.517L712.679 183.616L724.082 190.348L724.906 190.073Z" fill="#009649" stroke="white" stroke-width="2" stroke-linejoin="round"></path>
<path class="region" data-country-region="West Region" d="M480.768 262.613L483.791 270.032L499.178 273.055L505.91 276.352L510.993 284.87L522.671 307.814L534.486 331.857L536.685 340.237L537.921 352.739L542.18 362.906L568.284 361.944L578.45 358.922L578.176 370.325L577.489 380.904L566.498 383.514L556.606 392.032L554.545 402.886L553.171 418.548L548.775 426.929L535.173 426.242L527.892 428.028L539.295 442.316L535.86 455.093L512.367 458.528L496.98 457.016L495.056 451.521L492.171 447.124L486.126 443.827L469.64 438.744L466.48 427.89L473.624 401.374L473.761 392.17L470.189 383.789L464.144 376.92L456.588 371.424L448.757 367.028L442.162 360.57L437.903 362.494L436.392 364.967L434.606 373.21L433.232 376.233L427.599 381.316L407.815 389.971L397.099 396.978L391.741 399.176L384.185 399.726L378.002 397.94L373.056 394.23L369.622 388.735L367.424 382.278L367.973 375.134L373.606 360.708L372.37 350.404L386.658 342.161L395.451 333.505L415.647 302.593L417.433 296.136L421.279 292.289L440.101 285.42L446.284 280.062L447.795 272.643L448.894 256.568L465.381 263.3H477.883L480.768 262.613Z" fill="#009649" stroke="white" stroke-width="2" stroke-linejoin="round"></path>
<path class="region" data-country-region="East Region" d="M1110.96 125.914L1117.28 135.393L1120.31 145.972L1124.98 150.781L1131.57 154.765L1130.47 161.909L1126.9 167.542L1133.22 173.724L1147.92 187.188L1159.46 199.004L1162.62 205.873L1157.4 210.132L1146.13 218.513L1132.12 238.022L1126.35 230.465L1118.66 224.695L1095.44 217.963L1085.55 222.772L1080.6 232.664L1075.24 235.274L1068.24 231.152L1057.24 229.641L1040.21 232.526L1028.94 226.893L1021.8 208.346L1013.69 200.378L1010.95 211.506L1009.57 224.146L1011.22 236.923L1004.08 242.281L993.222 238.022L979.896 233.213L961.898 229.229L941.153 230.465L921.506 237.884L899.112 237.335L882.076 231.564L890.869 223.459L895.677 216.727L898.425 207.384L897.601 193.508L895.128 170.839L890.869 162.596L882.763 156.276L888.259 155.452L907.081 155.177L923.842 152.842L932.497 148.583L950.907 135.393L964.234 131.547L978.11 123.715L982.781 123.029L991.024 122.891L995.421 120.83L1002.98 126.463L1011.91 130.035L1021.52 131.959L1031.28 132.646L1037.32 134.844L1052.71 149.407L1070.02 143.637L1102.03 128.387L1110.96 125.914Z" fill="#009649" stroke="white" stroke-width="2" stroke-linejoin="round"></path>
<path class="region" data-country-region="East Region" d="M1132.12 238.022L1130.75 240.083L1127.72 250.661V265.362L1113.44 266.461L1104.37 268.659L1099.42 270.995L1087.2 280.062L1080.6 282.26L1071.4 282.673L1067.14 284.321L1050.79 303.143L1035.68 329.247L1020.84 342.299L1003.25 347.245L892.792 361.533L881.252 366.479L870.124 352.053L862.979 341.612L858.308 328.972L856.522 319.905L856.247 310.837L847.455 294.488L837.7 279.375L839.074 271.132L844.57 263.988L852.263 258.767L856.934 247.914L862.018 234.45L870.124 228.954L878.367 230.328L882.076 231.565L899.112 237.335L921.506 237.884L941.153 230.465L961.898 229.229L979.896 233.213L993.222 238.022L1004.08 242.281L1011.22 236.923L1009.57 224.146L1010.95 211.506L1013.69 200.378L1021.8 208.346L1028.94 226.893L1040.21 232.526L1057.24 229.641L1068.24 231.152L1075.24 235.274L1080.6 232.664L1085.55 222.772L1095.44 217.963L1118.66 224.695L1126.35 230.465L1132.12 238.022Z" fill="#009649" stroke="white" stroke-width="2" stroke-linejoin="round"></path>
<path class="region" data-country-region="East Region" d="M882.764 156.276L890.869 162.596L895.128 170.84L897.601 193.508L898.426 207.385L895.678 216.727L890.869 223.459L882.077 231.565L878.367 230.328L870.124 228.954L862.018 234.45L856.935 247.914L852.264 258.767L844.57 263.988L839.074 271.132L837.7 279.375L847.455 294.488L856.248 310.837L856.523 319.905L858.309 328.972L862.98 341.612L870.124 352.053L881.252 366.479L874.52 369.227L843.471 390.659L842.509 385.713L836.876 376.096L819.016 363.319L800.606 352.465L794.149 342.299L784.394 330.483L769.969 323.339L757.192 316.47L744.415 305.891L739.469 286.932L742.354 263.301L742.216 262.065L740.568 241.869L734.111 226.893L728.203 218.101L722.295 204.499L724.906 190.074L735.484 187.051L744.552 175.648L752.658 169.603L759.252 160.81L751.971 151.193L761.176 148.171L780.822 147.072L824.511 154.765L841.273 163.008L852.401 164.108L861.606 162.322L879.329 156.689L882.764 156.276Z" fill="#009649" stroke="white" stroke-width="2" stroke-linejoin="round"></path>
</svg>