<svg width="684" height="575" viewBox="0 0 684 575" fill="none" xmlns="http://www.w3.org/2000/svg">
<path class="region" data-country-region="East Region" d="M495.222 352.338L495.496 352.885L495.974 353.432L496.111 353.774L496.179 354.594L496.247 354.868L496.453 355.278L496.863 355.756L498.64 357.192L498.982 357.67L499.119 357.944L499.187 358.217L499.05 358.285L498.708 358.422L498.572 358.627V358.901L498.982 359.584L499.187 360.063L499.392 360.473L499.597 360.746L499.939 360.883L500.212 361.088L501.648 363.344L501.99 363.754H502.195L502.468 363.344L502.673 363.412L503.152 363.686L503.835 364.233L504.382 364.369H504.861L505.544 363.959H505.749L506.023 364.096L506.364 364.574L506.775 364.711L507.185 364.643L507.663 364.574H508.073L508.347 364.643L508.484 364.916L508.552 365.19V365.6L508.415 366.01L508.21 366.42L507.937 366.693L507.253 367.24L506.706 367.719L506.501 368.129L506.364 368.539V368.949L506.501 369.359L506.638 369.769L507.8 371.478L510.056 376.058L513.2 380.092L514.089 380.638L515.798 381.459L517.37 381.937L517.849 382.142L518.259 382.416L518.737 382.894L519.831 384.261L520.446 384.877L520.993 385.218L524.821 386.859L525.231 386.996L525.983 387.201L526.94 387.816L528.581 389.046L529.333 389.798L530.768 391.781L532.819 393.763L534.049 395.199L534.528 395.609L543.141 400.599L543.756 401.146L544.85 402.376L546.012 403.47L547.584 404.495L551.549 406.067L565.015 409.075L565.084 409.143L564.537 409.349L564.4 409.485V409.759L564.127 410.784L564.058 411.263L563.921 411.673L563.511 412.083L563.17 412.288H562.349L562.007 412.493L561.666 412.903L554.01 425.686L553.6 426.848L553.463 428.01L553.394 428.557L552.984 429.104L552.574 429.446L551.686 429.924L551.275 430.266L551.002 430.744L550.25 432.59L549.84 434.846L549.498 435.803L548.678 436.76L547.174 437.649L546.832 437.99L546.695 438.401V439.289L546.559 439.699L545.397 441.135L542.662 442.16L541.979 440.178L541.158 438.811L540.817 438.401L536.989 435.461L532.409 430.95L527.419 424.866L518.464 410.784L516.55 408.733L515.114 407.435L513.542 406.614L512.175 406.272L510.739 406.409L505.476 408.733L476.014 427.122L475.33 427.395L474.1 427.327L469.52 426.164L468.358 426.028L467.469 426.164L466.58 426.37L465.76 426.78L465.076 427.122L463.846 428.078L458.446 409.212L458.172 406.683L458.514 404.495L459.403 401.077V399.778L458.924 398.411L454.686 392.533L451.747 386.654L451.063 384.33L450.585 380.57L450.516 373.939L450.243 372.435L449.901 371.342L449.354 370.385L448.807 369.701L447.372 368.402L447.714 364.711L448.124 363.549L448.807 362.182L449.833 361.635L450.653 361.84L452.635 363.891H453.866L454.754 362.797L456.805 356.713L457.557 355.141L458.582 353.569L459.881 352.338L461.317 351.45L463.026 351.04L464.735 351.245L466.307 352.133L469.725 356.303L470.682 356.918L471.707 356.782L472.938 355.893L476.219 352.612L478.816 350.561L480.183 349.741L481.277 349.262H481.824H482.371L482.986 349.331L483.533 349.604L486.199 351.245L486.677 351.45L487.771 351.586L490.779 351.45L492.693 351.723L493.582 352.065L495.222 352.338Z" fill="#009649" stroke="white" stroke-width="2" stroke-linejoin="round"></path>
<path class="region" data-country-region="East Region" d="M616.762 224.168L616.693 224.51L616.762 224.852L617.582 226.014L617.719 226.834L617.514 227.655L616.557 229.09L616.693 229.5L617.103 229.91L617.445 230.457L617.582 231.004L617.514 232.713L617.787 233.26L617.855 233.465L617.787 233.67L617.445 234.012L617.377 234.217L617.24 236.746L616.215 239.275L615.805 239.891L614.438 240.848L613.822 241.394L613.481 242.215L613.412 242.967L613.481 244.334L613.344 245.154L612.865 246.863V247.41L613.139 248.435L613.617 249.187L614.301 249.871L614.848 250.623L615.189 251.511L615.121 252.263L614.984 253.015L614.916 253.904L615.121 254.793L615.873 256.501L616.01 257.39L615.6 258.484L613.891 260.261L613.207 261.355L611.84 265.251L608.08 276.052L606.987 277.829L605.004 279.948L604.457 280.905L602.27 288.971L602.202 290.749L602.748 292.594L601.381 293.483L600.629 294.782L598.579 300.934L597.827 302.096L594.819 305.035L594.477 305.787L594.409 306.676L594.887 310.641L595.981 320.074L593.657 319.732L579.575 320.074L576.294 320.689L557.291 327.662L554.966 328.072L553.189 327.867L551.207 326.5L541.91 316.109L536.373 302.438L535.621 301.207L533.434 298.336L531.862 296.696L530.084 295.123L527.897 293.688L521.335 290.202L516.481 288.424L510.671 287.057L505.202 274.616L504.04 270.857L503.972 268.464L505.612 265.456L515.798 251.443L516.96 250.828L519.147 250.554H546.832L550.045 250.076L553.189 249.05L556.675 247.068L559.205 245.222L561.734 242.42L563.374 238.113L563.921 233.055L563.238 219.247L577.73 226.834L578.892 227.176L579.644 227.244L616.762 224.168Z" fill="#009649" stroke="white" stroke-width="2" stroke-linejoin="round"></path>
<path class="region" data-country-region="East Region" d="M563.238 219.247L563.921 233.055L563.375 238.113L561.734 242.42L559.205 245.222L556.676 247.068L553.189 249.05L550.045 250.076L546.832 250.554H519.147L516.96 250.828L515.798 251.443L505.612 265.456L503.972 268.464L497.956 269.353L496.521 270.173L491.189 272.224L488.386 272.77L485.72 272.839L484.08 272.634L480.662 271.608L475.603 268.874L455.506 263.474L442.723 256.365L440.741 255.681L419.345 252.195L417.294 251.238L415.517 249.734L410.117 243.855L409.433 242.762L408.75 240.779L438.144 198.329L442.587 189.921L441.766 186.503L441.835 184.453L437.733 173.173L437.665 172.9L438.622 155.195L438.554 154.99L438.417 154.785L421.806 145.489L421.601 145.284L421.533 144.805L436.024 11.3027H461.864L477.928 23.7438L466.444 33.1088L467.059 33.9291L467.742 34.681L468.289 35.0912L468.563 35.433L468.768 35.7748L469.109 36.6634L469.178 37.1419V39.0559L469.451 40.218L469.588 40.9699L469.656 41.5168L469.588 42.0636L469.315 43.6359L469.178 44.046L468.904 44.5245L468.699 44.8663L467.332 46.5752L467.195 46.917L467.127 47.2588L467.401 50.3349V51.7704L467.127 52.7274L466.444 54.9149L466.375 55.4617L466.307 56.3504V56.6922L466.444 57.1707L466.99 58.0593L467.469 58.4695L469.656 59.8366L470.135 60.3151L472.596 63.733L472.938 64.0064L473.621 64.5533L473.963 64.7584L474.373 64.9634L474.852 65.1002L476.697 65.5103L476.902 65.5787L477.312 65.7837L477.654 66.3306L478.474 68.6547L479.295 70.1586L479.978 70.9789L480.183 71.3207L480.935 72.8929L481.414 73.6448L482.097 75.2171L482.644 76.6526L482.849 77.6096L482.918 78.3615L482.644 80.2755V82.8048V83.2833L482.713 83.4883L483.123 84.1036L483.054 84.4454L482.439 85.6074L481.551 88.0683L480.799 92.5799L480.73 95.9294L481.004 98.3219L482.986 104.884L483.67 111.925V113.907L483.465 115.001L482.986 116.984L481.687 119.991L481.551 120.675L481.619 121.222L500.827 167.705L501.238 168.32L501.784 168.662L507.732 170.371L515.319 173.652L524.684 179.257L529.606 183.906L531.041 185.546L531.793 186.708L537.057 197.099L541.022 203.319L541.705 204.208L543.209 205.712L563.238 219.247Z" fill="#009649" stroke="white" stroke-width="2" stroke-linejoin="round"></path>
<path class="region" data-country-region="East Region" d="M510.67 287.057L516.481 288.425L521.334 290.202L527.896 293.688L530.084 295.124L531.861 296.696L533.433 298.336L535.621 301.208L536.373 302.438L541.91 316.109L551.206 326.5L553.189 327.867L554.966 328.072L557.29 327.662L576.294 320.689L579.575 320.074L593.656 319.732L595.981 320.074L597.074 329.371L597.689 334.634L598.578 342.29L594.955 353.706L594.75 354.595L594.818 355.689L595.024 356.714L595.707 358.833L595.844 360.884L593.383 366.899L593.246 367.788L593.11 370.112L592.768 371.342L586.684 380.092L582.788 393.832L582.856 394.584L583.198 395.268L583.334 395.609V396.019L582.924 396.635L582.377 397.25L581.899 397.933V398.822L582.856 400.531L583.061 401.146V402.172L582.241 406.752L581.899 407.572L581.284 407.845L580.19 407.572L579.301 407.025L578.823 406.957H578.413L566.177 408.734L565.083 409.144L565.015 409.076L551.548 406.068L547.583 404.496L546.011 403.47L544.849 402.377L543.755 401.146L543.14 400.599L534.527 395.609L534.049 395.199L532.818 393.764L530.767 391.781L529.332 389.799L528.58 389.047L526.939 387.817L525.982 387.201L525.23 386.996L524.82 386.86L520.992 385.219L520.445 384.877L519.83 384.262L518.736 382.895L518.258 382.416L517.848 382.143L517.369 381.938L515.797 381.459L514.088 380.639L513.199 380.092L510.055 376.059L507.799 371.479L506.637 369.77L506.5 369.36L506.364 368.95V368.54L506.5 368.13L506.706 367.719L507.252 367.241L507.936 366.694L508.209 366.421L508.414 366.01L508.551 365.6V365.19L508.483 364.917L508.346 364.643L508.073 364.575H507.663L507.184 364.643L506.774 364.712L506.364 364.575L506.022 364.096L505.749 363.96H505.543L504.86 364.37H504.381L503.835 364.233L503.151 363.686L502.672 363.413L502.467 363.345L502.194 363.755H501.989L501.647 363.345L500.212 361.089L499.938 360.884L499.596 360.747L499.391 360.474L499.186 360.063L498.981 359.585L498.571 358.901V358.628L498.708 358.423L499.05 358.286L499.186 358.218L499.118 357.944L498.981 357.671L498.639 357.192L496.862 355.757L496.452 355.278L496.247 354.868L496.178 354.595L496.11 353.774L495.973 353.433L495.495 352.886L495.221 352.339L493.923 350.152L493.718 349.878L493.034 349.195L492.966 348.989L493.102 348.716L493.444 348.648V348.443L492.966 348.032L492.624 347.691L492.419 347.281L492.214 346.529L493.171 344.41L506.159 321.441L506.09 319.801L505.817 318.912L500.006 310.504L497.135 304.489L496.93 304.147L490.231 300.661L482.37 297.995L481.071 297.174L477.448 293.141L479.431 289.108L482.985 284.118L484.899 282.409L486.54 281.589H487.702L496.725 284.802L510.67 287.057Z" fill="#009649" stroke="white" stroke-width="2" stroke-linejoin="round"></path>
<path class="region" data-country-region="East Region" d="M495.222 352.338L493.581 352.065L492.692 351.723L490.778 351.45L487.771 351.586L486.677 351.45L486.199 351.245L483.533 349.604L482.986 349.331L482.371 349.262H481.824H481.277L480.183 349.741L478.816 350.561L476.218 352.612L472.937 355.893L471.707 356.782L470.681 356.918L469.724 356.303L466.306 352.133L464.734 351.245L463.025 351.04L461.316 351.45L459.881 352.338L458.582 353.569L457.557 355.141L456.805 356.713L454.754 362.797L453.865 363.891H452.635L450.653 361.84L449.832 361.635L448.807 362.182L448.123 363.549L447.713 364.711L447.371 368.402L443.612 372.504L442.586 373.187H441.561L441.014 372.504L440.741 371.205L440.877 364.164L440.672 362.66L440.331 360.951L438.348 356.782L434.794 350.903L433.153 347.553L432.128 344.272L431.923 343.11L431.854 342.29L431.991 341.469L432.264 340.444L434.247 335.932L436.844 331.353L439.169 328.687L440.467 327.456L441.356 326.226L441.903 324.859L442.108 323.355L441.903 316.929L441.698 315.357L441.356 314.468L441.083 314.126L440.604 313.853L437.801 312.759L437.049 312.212L436.571 311.392V310.503L436.913 309.82L437.665 309.546L438.622 309.478L439.442 309.546L440.194 309.41L440.672 309.068L441.083 308.043L441.014 307.017L440.672 305.923L439.715 303.258L439.784 302.779L440.194 301.754L440.467 301.412L441.083 301.138L449.832 298.541L457.01 297.516L457.283 297.584L459.197 297.994H459.471L459.813 297.926L460.428 297.447L460.906 297.037L462.684 295.601L463.367 295.123L464.392 294.713L466.17 294.508H467.742L477.449 293.141L481.072 297.174L482.371 297.994L490.232 300.66L496.931 304.146L497.136 304.488L500.007 310.503L505.817 318.911L506.091 319.8L506.159 321.441L493.171 344.409L492.214 346.528L492.419 347.28L492.624 347.69L492.966 348.032L493.444 348.442V348.647L493.103 348.715L492.966 348.989L493.034 349.194L493.718 349.877L493.923 350.151L495.222 352.338Z" fill="#009649" stroke="white" stroke-width="2" stroke-linejoin="round"></path>
<path class="region" data-country-region="East Region" d="M503.971 268.465L504.04 270.857L505.202 274.617L510.67 287.058L496.725 284.802L487.702 281.589H486.54L484.9 282.41L482.986 284.118L479.431 289.109L477.449 293.142L467.742 294.509H466.17L464.392 294.714L463.367 295.124L462.683 295.603L460.906 297.038L460.428 297.448L459.812 297.927L459.471 297.995H459.197L457.283 297.585L457.01 297.517L449.832 298.542L441.082 301.14L440.467 301.413L440.194 301.755L439.784 302.78L439.715 303.259L435.135 302.985L433.631 303.259L432.948 303.532L431.786 303.874H430.897L427.958 302.917L427.274 302.575L424.882 295.329L423.72 292.8L414.97 277.625L408.749 269.353L398.564 246.385L407.177 241.122L408.749 240.78L409.433 242.762L410.116 243.856L415.517 249.735L417.294 251.238L419.345 252.195L440.741 255.682L442.723 256.365L455.506 263.474L475.603 268.875L480.661 271.609L484.079 272.634L485.72 272.839L488.386 272.771L491.188 272.224L496.52 270.174L497.956 269.353L503.971 268.465Z" fill="#009649" stroke="white" stroke-width="2" stroke-linejoin="round"></path>
<path class="region" data-country-region="West Region" d="M402.119 412.151L404.238 426.37L404.374 427.053L404.648 427.6L405.195 427.805L405.81 427.942L409.433 428.284L411.757 429.787L418.114 436.828L428.778 448.859L428.915 449.133L429.051 449.816L429.188 450.295L429.393 454.533L428.778 461.232L428.915 465.539L429.53 468.341L432.401 473.878L432.264 474.903L431.581 476.202L422.011 484.405L412.441 492.54L411.894 493.292L409.228 500.127L406.699 504.092L405.605 505.254L401.162 510.791L392.412 519.473L383.662 528.222L380.791 529.384L372.11 529.863L367.53 530L366.983 530.136L366.162 530.41L365.684 530.888L365.137 531.23L364.59 531.025L363.907 530.547L353.175 520.771L343.604 514.619L334.034 508.467L332.189 509.561L321.32 514.893L319.132 516.26L317.902 517.217L317.834 523.164L315.92 526.172L312.502 529.453L303.137 531.572L298.283 533.349L293.293 536.015L292.473 536.699L289.397 539.091L286.731 541.689L285.911 543.261L285.842 544.97L286.047 546.474L286.526 547.499L254.124 547.226L252.142 544.97L247.972 536.357L239.086 517.148L238.334 513.731L224.047 478.321L221.449 467.384V465.47L220.766 460.753L223.09 462.667L226.713 464.171H231.02L233.549 463.556L235.668 462.873L237.855 461.574L239.359 460.002L241.068 458.088L243.802 455.216L246.195 453.234L247.904 451.525L249.134 448.654L250.912 445.373L252.142 442.365L252.621 440.793L253.441 439.084L254.945 438.195H256.654L258.773 438.811L261.78 439.084L263.694 439.699L265.198 440.588H266.907L269.231 440.383L273.948 439.494L276.546 438.606L277.844 437.717L278.05 436.418L277.571 435.119L278.05 432.932L279.553 428.762L280.374 425.276L281.672 423.293L282.971 422.405L284.68 421.311L286.116 419.124L288.098 416.936L289.123 416.321L290.627 416.048L291.926 416.526L294.729 418.714L297.463 420.696L300.061 422.678L302.795 424.387L306.828 425.276L307.922 424.661L309.152 424.387L310.109 424.456L310.93 424.729L311.681 425.002L312.433 425.208L313.185 425.139L324.123 408.323L325.558 407.093L327.13 406.478L328.703 406.272L330.206 406.204L331.437 406.341L332.052 406.478L332.462 406.683L332.736 406.888L333.146 407.298L333.898 408.255L334.171 408.733L334.308 409.212L334.376 409.895L334.103 413.997L334.239 414.612L334.65 415.159L335.607 415.774L336.837 416.048L347.364 415.637L350.372 416.048L351.466 416.526L352.423 417.278L355.909 422.405L357.071 423.567L358.643 424.661L360.01 425.208L361.036 425.481H362.129L363.223 425.344L364.248 424.866L365.205 424.045L366.846 422.063L367.325 421.653L367.735 421.311L368.487 420.969L370.879 420.081L372.178 419.397L373.545 418.44L374.57 417.346L376.758 413.382L377.715 412.22L378.809 411.331L380.107 410.852H381.133L383.252 411.331H384.209L385.098 411.194L386.396 410.716L390.976 407.845L392.207 407.571H393.164L394.189 407.845L402.119 412.151Z" fill="#009649" stroke="white" stroke-width="2" stroke-linejoin="round"></path>
<path class="region" data-country-region="West Region" d="M398.564 246.385L408.749 269.353L414.97 277.625L423.719 292.8L424.882 295.329L427.274 302.575L414.218 308.112L413.671 308.522L413.261 309.001V309.821L413.397 310.573L413.534 311.12L413.466 311.325L413.329 311.598L408.681 314.743L408.339 315.221L404.032 324.723L403.622 325.201L403.349 325.543L403.007 325.748L402.05 326.227L400.82 326.705L399.316 327.457L398.974 327.731L398.359 328.277L396.855 330.533L395.966 333.063L395.898 333.404L395.146 338.941L395.214 344.683L395.83 348.375L396.445 350.63L397.128 352.271L397.402 353.091L397.744 353.843L398.017 354.185L398.837 354.8L400.273 355.62L402.05 356.988L402.939 357.535L403.212 357.808L403.691 358.492L406.083 364.165L408.749 368.54L409.774 369.771L410.937 370.864L411.278 371.343L412.304 372.3L412.646 372.573L413.603 372.983L415.858 373.599L416.063 373.735L416.747 374.145L417.02 374.487L417.157 374.897L417.089 375.513L415.927 378.999L415.858 379.682V380.161L415.995 380.639L416.542 382.143L416.747 383.032V383.579L416.542 384.194L416.268 384.672L415.79 385.288L415.517 385.629L415.311 385.835L411.757 387.202L405.263 391.577L401.367 395.2L400.409 396.293L400.204 396.635L400.341 398.276L402.118 412.152L394.189 407.846L393.164 407.572H392.207L390.976 407.846L386.396 410.717L385.097 411.195L384.209 411.332H383.252L381.133 410.853H380.107L378.809 411.332L377.715 412.221L376.758 413.383L374.57 417.347L373.545 418.441L372.178 419.398L370.879 420.082L368.487 420.97L367.735 421.312L367.324 421.654L366.846 422.064L365.205 424.046L364.248 424.867L363.223 425.345L362.129 425.482H361.036L360.01 425.209L358.643 424.662L357.071 423.568L355.909 422.406L352.422 417.279L351.465 416.527L350.372 416.049L347.364 415.638L336.837 416.049L335.607 415.775L334.65 415.16L334.239 414.613L334.103 413.998L334.376 409.896L334.308 409.213L334.171 408.734L333.898 408.256L333.146 407.299L332.736 406.889L332.462 406.684L332.052 406.479L331.437 406.342L330.206 406.205L328.702 406.273L327.13 406.479L325.558 407.094L324.122 408.324L313.185 425.14L312.433 425.209L311.681 425.003L310.929 424.73L310.109 424.457L309.152 424.388L307.922 424.662L306.828 425.277L302.795 424.388L300.061 422.679L297.463 420.697L294.729 418.715L291.926 416.527L290.627 416.049L289.123 416.322L288.098 416.937L286.116 419.125L284.68 421.312L282.971 422.406L281.672 423.294L280.374 425.277L279.553 428.763L278.049 432.933L277.571 435.12L278.049 436.419L277.844 437.718L276.546 438.607L273.948 439.495L269.231 440.384L266.907 440.589H265.198L263.694 439.7L261.78 439.085L258.773 438.812L256.654 438.196H254.945L253.441 439.085L252.62 440.794L252.142 442.366L250.911 445.374L249.134 448.655L247.904 451.526L246.195 453.235L243.802 455.217L241.068 458.089L239.359 460.003L237.855 461.575L235.668 462.874L233.549 463.557L231.019 464.172H226.713L223.09 462.668L220.766 460.754V450.774L219.399 444.007L216.801 439.017L216.664 438.06L216.391 436.693L215.912 435.736L213.862 432.523L213.725 432.113L213.657 431.703V429.652L213.862 428.08L213.93 427.533L213.862 427.054L212.358 421.312L212.289 420.355L212.358 419.877L212.495 419.33L214.682 415.638L215.844 412.631L215.912 412.084L216.049 411.605V410.99L215.776 406L216.186 400.258L216.391 399.643L217.485 397.114L223.705 389.321L224.594 387.817L225.141 386.518L226.303 384.741L226.439 384.194L226.645 381.05L226.713 380.366L226.85 379.956L227.465 379.409L231.566 374.487L232.045 373.735L232.182 373.393L232.728 371.343L232.865 369.839L232.387 368.198L229.789 363.96L229.584 363.345V362.866L231.293 353.296L225.209 336.002L220.903 322.057L219.125 318.639L217.553 317.545L217.143 317.135L216.938 316.588L208.256 241.805L208.598 241.053L209.077 240.711L230.746 240.575L231.771 240.438L376.621 245.36L390.703 244.061L392.822 244.403L398.564 246.385Z" fill="#009649" stroke="white" stroke-width="2" stroke-linejoin="round"></path>
<path class="region" data-country-region="East Region" d="M439.715 303.258L440.672 305.924L441.014 307.017L441.083 308.043L440.672 309.068L440.194 309.41L439.442 309.547L438.622 309.478L437.665 309.547L436.913 309.82L436.571 310.504V311.392L437.049 312.213L437.801 312.759L440.604 313.853L441.083 314.127L441.356 314.468L441.698 315.357L441.903 316.929L442.108 323.355L441.903 324.859L441.356 326.226L440.467 327.456L439.168 328.687L436.844 331.353L434.247 335.933L432.264 340.444L431.991 341.47L431.854 342.29L431.923 343.11L432.128 344.272L433.153 347.554L434.794 350.903L438.348 356.782L440.331 360.952L440.672 362.661L440.877 364.164L440.741 371.205L441.014 372.504L441.561 373.188H442.586L443.612 372.504L447.371 368.403L448.807 369.701L449.354 370.385L449.901 371.342L450.242 372.436L450.516 373.94L450.584 380.57L451.063 384.33L451.746 386.654L454.686 392.533L458.924 398.412L459.402 399.779V401.077L458.514 404.495L458.172 406.683L458.445 409.212L463.846 428.079L444.5 427.805L444.364 428.01V428.215L444.432 428.694V429.241L444.227 430.266V430.745V431.292L444.5 433.206L445.047 434.709L445.116 435.188V435.666L445.047 436.692L418.114 436.829L411.757 429.788L409.433 428.284L405.81 427.942L405.195 427.805L404.648 427.6L404.375 427.053L404.238 426.37L402.119 412.151L400.341 398.275L400.205 396.634L400.41 396.292L401.367 395.199L405.263 391.576L411.757 387.201L415.312 385.834L415.517 385.629L415.79 385.287L416.269 384.672L416.542 384.193L416.747 383.578V383.031L416.542 382.142L415.995 380.639L415.859 380.16V379.682L415.927 378.998L417.089 375.512L417.157 374.897L417.021 374.486L416.747 374.145L416.064 373.734L415.859 373.598L413.603 372.983L412.646 372.572L412.304 372.299L411.279 371.342L410.937 370.863L409.775 369.77L408.749 368.539L406.083 364.164L403.691 358.491L403.212 357.807L402.939 357.534L402.05 356.987L400.273 355.62L398.838 354.799L398.017 354.184L397.744 353.842L397.402 353.09L397.129 352.27L396.445 350.63L395.83 348.374L395.215 344.682L395.146 338.94L395.898 333.403L395.966 333.062L396.855 330.532L398.359 328.277L398.974 327.73L399.316 327.456L400.82 326.704L402.05 326.226L403.007 325.747L403.349 325.542L403.623 325.201L404.033 324.722L408.339 315.22L408.681 314.742L413.329 311.597L413.466 311.324L413.534 311.119L413.398 310.572L413.261 309.82V309L413.671 308.521L414.218 308.111L427.274 302.574L427.958 302.916L430.897 303.873H431.786L432.948 303.531L433.632 303.258L435.135 302.984L439.715 303.258Z" fill="#009649" stroke="white" stroke-width="2" stroke-linejoin="round"></path>
<path class="region" data-country-region="East Region" d="M436.024 11.3025L421.532 144.805L421.601 145.283L421.806 145.488L438.417 154.785L438.553 154.99L438.622 155.195L437.665 172.9L437.733 173.173L441.835 184.452L441.766 186.503L442.587 189.921L438.143 198.329L408.75 240.779L407.177 241.121L398.564 246.384L392.822 244.402L390.703 244.06L376.621 245.359L231.772 240.437L231.225 98.185H130.397L129.577 97.7748V84.7185L129.646 76.5156V65.6467V60.2465V49.3776V38.5088V22.1713V16.7711V11.3025H133.61H149.401H153.366H165.191H173.121H185.015H196.841H204.77H220.561H224.526H244.281H252.211H264.037H283.792H291.721H307.512H311.477H323.371H331.232H347.091H351.056H370.811H378.741H384.209L384.756 11.029L388.721 2.82613L389.746 1.66405L390.566 1.2539L391.318 1.11719L392.07 1.2539L392.822 1.59569L393.711 2.48434L394.121 3.5097L394.053 4.60342L391.797 11.3025H395.351H436.024Z" fill="#009649" stroke="white" stroke-width="2" stroke-linejoin="round"></path>
<path class="region" data-country-region="East Region" d="M628.587 65.6465H628.177L627.767 64.6895V63.3224L628.04 61.9552L628.656 61.0666L629.202 61.4767L629.339 62.0236L628.861 64.9629L628.587 65.6465ZM616.761 224.168L579.643 227.244L578.891 227.175L577.729 226.834L563.237 219.246L543.209 205.711L541.705 204.207L541.021 203.319L537.056 197.098L531.793 186.708L531.041 185.546L529.605 183.905L524.684 179.257L515.319 173.651L507.731 170.37L501.784 168.661L501.237 168.32L500.827 167.704L481.618 121.221L481.55 120.674L481.687 119.991L482.986 116.983L483.464 115.001L483.669 113.907V111.925L482.986 104.884L481.003 98.3214L480.73 95.9289L480.798 92.5794L481.55 88.0678L482.439 85.6069L483.054 84.4449L483.122 84.1031L482.712 83.4878L482.644 83.2828V82.8043V80.275L482.917 78.361L482.849 77.6091L482.644 76.6521L482.097 75.2166L481.413 73.6444L480.935 72.8924L480.183 71.3202L479.978 70.9784L479.294 70.1581L478.474 68.6543L477.654 66.3301L477.312 65.7832L476.902 65.5782L476.697 65.5098L474.851 65.0997L474.372 64.9629L473.962 64.7579L473.621 64.5528L472.937 64.0059L472.595 63.7325L470.134 60.3146L469.656 59.8361L467.468 58.469L466.99 58.0588L466.443 57.1702L466.306 56.6917V56.3499L466.375 55.4612L466.443 54.9144L467.127 52.7269L467.4 51.7699V50.3344L467.127 47.2583L467.195 46.9165L467.332 46.5748L468.699 44.8658L468.904 44.524L469.177 44.0455L469.314 43.6354L469.587 42.0632L469.656 41.5163L469.587 40.9694L469.451 40.2175L469.177 39.0554V37.1414L469.109 36.6629L468.767 35.7743L468.562 35.4325L468.289 35.0907L467.742 34.6805L467.058 33.9286L466.443 33.1083L477.927 23.7433L461.863 11.3022H471.296H509.098H528.033H556.333H565.835H584.702L603.637 11.2339H613.138L613.002 11.9175L612.865 12.1225L612.728 12.1909L612.045 12.3276L611.361 12.5327L612.318 13.2846L612.728 13.8998V19.1634L613.685 25.1788L613.275 26.4093L613.89 26.8194L614.027 27.2979V27.8448L614.3 28.3233L614.711 28.8018L615.052 29.2119L617.171 34.4755L622.435 42.6784L625.921 45.9595L630.228 51.4965L630.57 52.2484L630.501 53.1371L630.228 53.889L629.681 54.2308L628.929 53.889L628.109 54.5042L627.357 53.889L626.263 51.975L625.99 51.5649L625.648 51.018L625.511 50.5395L625.853 50.3344L626.331 50.4711L626.673 50.8129L626.81 51.2914L627.083 51.6332L627.972 52.3852L628.587 52.5902L628.929 52.3852L628.792 52.0434L627.835 50.8813L627.152 49.1723L626.742 48.6255L626.126 48.8306L624.964 47.9419L624.622 48.4204L624.349 48.3521L624.076 47.8736L623.871 47.3267L624.007 46.7798L624.281 46.3013L624.349 45.7545L623.871 45.2076L622.777 45.0025L622.093 45.7545L621.82 46.9165L621.957 47.9419L622.162 48.2153H622.64L622.777 48.4888L622.503 49.3774L622.64 50.5395V51.018L622.503 51.4965L622.093 51.9066L621.683 52.0434L621.341 52.2484V53.0004L621.546 53.4105L622.777 54.7777L623.802 57.3753L624.349 60.0412L624.691 65.7832L625.306 68.5175L627.083 73.7127L627.22 76.5154L627.083 77.1989L626.878 77.8825L626.468 78.2927L625.238 78.0876L625.101 78.7028L625.238 79.9333L624.964 83.0777L625.238 84.7866V85.4702L626.195 87.9995L626.536 89.5033L626.742 90.9388L627.015 92.9895L626.331 94.6301L626.4 94.9036L626.263 95.3821L625.716 95.9973L625.579 96.4074L625.511 97.5695L625.785 99.0734L628.382 105.909L628.656 107.413V110.216L628.519 110.968L628.314 111.446L627.63 112.403L627.562 113.087L627.835 115.684L627.767 116.505L627.835 116.846L627.972 117.256L628.656 118.35L629.476 120.811L631.048 129.971L631.39 134.414L631.527 134.961L631.868 135.235L632.278 135.44L632.484 135.781V136.055L632.278 136.602V136.943L633.236 138.311L633.782 140.43L635.15 145.01L635.491 147.265L636.038 148.017L636.927 149.658L637.815 151.299L639.183 152.529L639.388 153.007L639.798 153.486L640.208 153.759L640.755 153.623L641.165 153.349L641.507 153.418L643.899 153.007L645.266 152.392L645.471 153.213L646.36 153.691L647.112 153.828L647.932 153.759L648.206 154.306L648.274 154.99L648.958 155.605L648.616 157.246L649.3 156.904L649.71 156.767L650.188 157.109L650.872 157.793L655.452 159.091L657.161 160.732L658.254 162.646L660.032 164.423L661.125 165.175L662.903 165.859L663.45 166.474L662.903 167.226L661.809 167.773L661.536 169.277L662.698 171.669L664.612 173.515L666.799 173.993L668.44 173.72L668.645 172.148L669.465 171.874L670.901 171.054L671.174 171.532L670.832 171.874L670.217 172.148L669.807 172.489L669.738 172.831L669.807 173.31L669.67 173.788L669.192 174.267L668.576 174.472L668.029 174.403L667.619 174.472L667.278 174.882L667.824 174.814L669.26 174.609L669.807 174.677L670.149 174.882L670.49 175.224L670.901 175.429L671.447 175.566L672.609 175.702L673.156 175.907L673.772 176.044L674.182 175.839L674.25 175.497L673.703 175.155L674.387 174.54L675.139 175.429L676.506 177.48L676.096 178.095L676.779 178.505L677.805 178.573L678.42 178.095L678.898 178.778L679.035 180.487L679.308 181.034L680.06 181.171L680.471 180.487L680.402 179.53L679.855 178.642L680.539 179.12L682.18 180.897L682.453 181.513V182.196L682.59 182.606L683 183.563L682.931 183.973L677.121 188.827L676.027 190.467L673.566 197.03L672.404 198.875L671.584 199.491L669.602 200.516L668.918 201.131L668.713 201.952V202.909L668.645 203.729L667.961 204.412L667.004 204.549L666.252 204.139L665.637 203.455L665.022 203.045L663.586 203.524L663.313 203.592L663.108 203.934L663.313 204.481V204.959L662.834 205.78L662.219 206.326L661.604 206.395L661.33 205.438L661.399 204.618L661.33 203.866L660.989 203.455H660.032L659.075 203.797L656.34 205.711L655.042 207.352L654.221 207.967L653.264 208.172L652.376 207.899L651.145 206.737L650.325 206.463L648.889 207.215L647.112 210.428L645.471 211.317L643.831 211.522L638.431 213.231L638.021 213.504L637.884 213.982L638.362 215.965V216.717L638.226 218.494L637.952 219.383L637.064 220.955L636.858 221.912L636.517 222.732L634.261 225.535L630.433 224.441L629.271 224.51L627.357 225.74L626.126 225.808L625.511 225.74L623.324 226.082L622.913 226.013L621.341 225.056L620.931 224.92L619.837 224.715L619.154 224.441L618.539 223.963L617.855 223.689L617.035 223.826L616.761 224.168Z" fill="#009649" stroke="white" stroke-width="2" stroke-linejoin="round"></path>
<path class="region" data-country-region="East Region" d="M542.661 442.161L541.773 442.502L540.2 443.528L539.585 444.348L539.038 445.305L538.56 446.33L538.286 447.287V448.108L538.56 449.68L538.492 451.389L538.765 452.278L539.654 453.918L539.722 454.738L539.585 455.559L534.458 466.906L534.322 467.795L534.732 468.957L535.415 469.709L535.962 470.597L535.826 471.896L533.091 479.757V480.236L533.501 480.783L534.664 481.671L534.937 482.287L534.595 483.722L533.912 484.679L531.724 486.388L530.972 487.072L530.836 487.55V488.097L530.562 488.849L530.015 489.532H529.605L529.127 489.396L528.443 489.464L527.896 489.943L527.349 491.173L527.076 491.515L526.597 491.378V490.763L526.734 489.532L526.461 488.917L525.914 488.439L524.752 487.618L519.83 483.312L519.351 483.107L518.668 483.38L513.746 486.73L513.063 487.345L512.379 488.234L510.807 491.31L507.32 496.3L507.047 497.735L507.184 499.444L509.166 508.536L509.234 510.382L508.893 512.159L508.756 512.364L508.346 512.774L508.278 513.048L508.209 513.458L508.346 514.483V514.962L507.389 516.329L504.996 518.584L500.006 532.871L498.707 538.955L498.844 542.168L491.94 542.099L491.735 541.963L491.462 541.484L491.188 540.322L491.051 538.476L491.256 535.332L492.145 531.572L494.743 526.309L494.879 525.899V525.352L494.674 524.395L494.333 523.575L494.196 522.344L494.674 519.61V518.79L494.606 517.696L494.401 517.012L492.624 512.432L492.008 511.68L483.19 504.434L474.441 497.189L471.228 493.224L470.886 492.95L470.407 492.745L461.521 489.464L461.042 489.122L461.111 488.575L461.384 487.96L462.478 486.046L462.615 485.568L462.751 484.816L460.769 469.435L458.718 454.055V453.44L459.06 452.824L459.607 452.141L460.085 451.457L460.632 450.295L460.769 449.817L461.316 444.348L461.247 439.495L463.64 431.497L463.845 428.079L465.076 427.122L465.759 426.78L466.579 426.37L467.468 426.165L468.357 426.028L469.519 426.165L474.099 427.327L475.329 427.395L476.013 427.122L505.475 408.734L510.738 406.41L512.174 406.273L513.541 406.615L515.113 407.435L516.549 408.734L518.463 410.785L527.418 424.866L532.408 430.95L536.988 435.462L540.816 438.401L541.157 438.811L541.978 440.178L542.661 442.161Z" fill="#009649" stroke="white" stroke-width="2" stroke-linejoin="round"></path>
<path class="region" data-country-region="West Region" d="M219.399 444.007L220.766 450.774V460.755L221.45 465.471V467.385L224.047 478.322L238.334 513.732L239.086 517.15L247.972 536.358L247.562 536.495L246.879 536.631L242.914 536.837L237.719 536.085H237.445L236.625 536.29L236.42 536.358L233.071 535.948H227.26L225.414 535.606L214.887 535.88L199.233 541.211L198.755 541.28L196.431 541.075L195.405 540.596L193.628 539.434L185.972 530.411L178.316 521.319L175.172 520.157L174.625 519.542L174.146 518.927L171.685 514.894L171.48 514.552L170.933 514.142L169.84 513.868L169.225 513.595L167.721 512.706L167.447 512.433L167.174 512.159L166.969 511.749L166.764 505.324L166.627 504.914L166.422 504.572L164.645 502.384L164.508 502.248L164.645 497.804L160.953 486.389L154.938 470.803L148.239 465.061L138.122 453.987L137.78 425.755L141.881 420.013L142.633 408.529L140.309 392.465L142.155 392.67L143.932 393.012L145.299 393.627L146.393 394.311L154.049 401.352L159.518 404.633L161.5 405.59L170.387 412.836L171.07 413.588L171.48 414.408L171.617 415.228L171.139 415.844L170.318 416.39L166.695 417.416L165.875 417.758L165.465 418.099L165.26 418.441L165.055 419.193L165.533 420.013L166.627 421.449L169.225 423.568L172.642 427.054L176.675 433.412L178.726 435.326L180.23 436.077L181.666 436.146L182.964 435.941L184.332 435.804L186.04 436.009L188.365 436.829L189.732 437.65L190.552 438.333L192.329 440.247L194.38 441.82L196.294 442.64L197.798 443.118L213.725 442.845L219.399 444.007Z" fill="#009649" stroke="white" stroke-width="2" stroke-linejoin="round"></path>
<path class="region" data-country-region="West Region" d="M140.309 392.465L142.633 408.529L141.881 420.013L137.78 425.755L138.122 453.987L148.239 465.061L154.938 470.803L160.953 486.388L164.644 497.804L164.508 502.247L164.029 502.315L162.252 502.794L161.363 503.204L160.68 503.341L159.039 503.272L158.219 503.478L157.262 503.683H155.963H155.69L153.981 504.161L150.973 505.186L150.358 505.392L149.879 505.46L148.239 505.392L147.76 505.46L147.282 505.528L146.666 505.733L146.325 505.87L145.914 506.007L144.684 506.143L144.479 506.212L143.727 506.554L143.249 506.622L142.77 506.554H142.565L141.95 506.759H141.745L141.266 506.622L140.583 506.349L140.104 506.28L139.557 506.417L139.215 506.554H138.942H138.19L137.233 506.895L136.755 506.964L135.729 506.895L135.319 506.964L134.704 507.237L133.815 507.511L133.542 507.784L133.132 508.263L131.081 512.706L131.013 513.116L130.944 513.458L131.081 514.141L131.423 514.893L131.559 515.372V515.85L131.491 516.055L131.081 517.286L129.987 519.542L129.782 520.225L129.44 520.977L129.098 521.456L128.552 522.002L127.458 523.575L126.911 524.121L125.476 525.01L124.108 526.172L123.425 526.514L122.399 526.719L122.126 527.129L121.989 527.95L122.058 538.955L121.989 539.434L121.648 540.391L119.187 543.193L118.025 544.287L117.683 544.765L117.409 545.449L116.589 553.379L116.452 553.994L112.761 560.214L112.488 560.83V561.103V565.546L112.214 565.82L111.804 566.025L109.822 566.708L106.13 567.05L105.242 567.255L100.798 570.058L99.568 570.673L97.1755 572.45L96.9704 572.792L96.9021 573.407L96.697 573.612L94.3728 573.954L90.1347 573.271L89.041 573.407L88.2207 573.339L86.6484 572.655L84.3926 572.86L81.795 572.314H80.3595L79.1291 572.929L78.4455 573.134L77.1467 572.792H75.8479L75.3011 572.587L74.6859 572.177L74.0706 571.903L73.3871 571.767L72.6351 571.972L72.0883 572.245L71.1313 572.997L70.516 573.134L69.6958 572.724L69.0805 571.835L68.7388 570.741V569.784L69.2856 568.691L70.9262 566.777L71.6098 565.683L72.1566 563.359L72.225 561.923L71.8832 561.035L71.1996 560.966L69.6958 562.47L68.602 562.538L67.5083 561.923L66.9615 561.103L66.8247 560.078L67.7134 554.814L68.397 553.857L69.0122 553.584L70.3793 553.652L70.9945 553.515L71.4731 553.242L72.3617 552.353L73.9339 550.371L74.4808 549.892L74.8226 549.414L74.7542 548.799L74.3441 547.568L74.4124 546.816L75.4378 543.603V543.33L75.1644 542.988L74.9593 542.92H74.6175L74.3441 542.441L74.2074 542.031L74.2757 540.732L74.2074 540.186L73.7972 539.16V538.75L74.2757 537.52L75.7796 535.195L76.3264 533.965L76.5315 532.393L75.3694 525.284L74.4808 523.438L67.7134 512.432L61.0143 501.495L53.6317 494.249L49.3936 491.241L61.2194 473.81L71.6781 466.975L80.2912 461.233L88.4941 433.753L90.203 418.372L90.3397 417.074L91.0917 415.501L93.4158 412.357L114.812 391.029L127.184 392.875L133.952 393.08L140.309 392.465Z" fill="#009649" stroke="white" stroke-width="2" stroke-linejoin="round"></path>
<path class="region" data-country-region="West Region" d="M114.812 391.029L93.4156 412.357L91.0914 415.501L90.3395 417.074L90.2028 418.372L88.4938 433.753L80.2909 461.233L71.6779 466.975L61.2192 473.81L49.3933 491.241L43.5829 482.765L43.5145 481.671L45.0868 475.793L45.3602 475.383L45.9754 474.699L46.1121 474.22V473.4L46.2488 472.58L46.5223 471.828L47.2059 470.392L47.4109 469.641L47.2742 467.932L46.2488 464.855L45.702 461.848L45.0868 461.369H44.1298L40.3017 461.779L39.8916 461.574V460.344L39.7549 459.934L38.7295 458.977L35.4484 457.883L34.0128 457.131L32.5773 455.764L31.3469 453.987L30.5266 452.073L30.3215 450.09L32.6457 437.239L33.3293 435.188L33.466 434.436L33.3976 433.753L36.2003 425.345L33.9445 410.443L45.1551 397.797L57.8696 378.998L60.8774 377.426L65.7308 377.084L70.3791 371.889L71.5412 372.026L73.797 372.094L74.959 372.299L76.1211 372.778L77.2832 373.598L78.5136 374.76L79.7441 375.512L80.9061 376.127L85.2127 377.563L88.2888 378.93L89.4508 379.067L91.2281 378.93L93.0054 378.315L99.4994 374.555L106.13 372.026L107.771 371.616L109.275 371.479L110.778 371.547L112.077 371.889L112.966 372.436L113.649 373.53L113.854 374.487L113.786 375.17L113.444 376.059L112.829 377.084L111.257 379.135L105.652 384.604L104.763 385.766L104.216 387.201V388.363L104.763 389.32L105.857 390.072L107.361 390.482L114.812 391.029Z" fill="#009649" stroke="white" stroke-width="2" stroke-linejoin="round"></path>
<path class="region" data-country-region="West Region" d="M89.109 280.905L89.7926 281.931L87.195 295.944L87.4684 298.063L87.3317 304.352L87.5368 306.881L88.2204 309.205L89.1774 310.572L91.2281 312.828L92.732 314.742L93.9624 317.066L95.0561 319.801L95.8764 323.56L96.0131 325.338L95.8764 326.978L95.5346 328.414L94.9194 330.054L86.3064 344.478L73.3184 358.901L70.4474 364.096L69.1486 368.266L69.0119 370.317L69.5587 371.547L70.379 371.889L65.7307 377.084L60.8773 377.426L57.8696 378.998L45.1551 397.797L33.9444 410.443L36.2002 425.345L33.3976 433.753L33.1925 433.548L32.8507 434.163L32.3039 433.821L30.7316 434.163L28.0657 434.983L27.6555 435.325L27.1087 435.53L28.2024 430.95V430.472V429.993L28.0657 429.446L25.1263 420.15L23.7592 418.031L23.6908 417.552L24.5795 416.185L26.6302 411.4L26.0833 410.853L21.9135 409.281L16.855 405.863L15.693 407.64L14.3942 408.871L12.822 409.759L10.9079 410.306L9.33571 410.511H7.62677L5.91783 410.169L4.48233 409.486L3.66203 408.666L2.08981 405.658L0.996088 404.222L0.791016 403.744L0.859373 403.539L1.54295 402.24L2.56831 399.096L5.91783 392.67L7.07991 391.098L8.44706 389.731L9.199 389.32L13.5739 387.543L14.1891 387.065L17.9488 383.1L19.3843 381.186L19.7261 379.477L19.2476 378.52L17.8121 376.743L17.2652 375.786L17.1285 374.965L17.0601 372.573L16.5133 370.932L13.9157 368.471L13.1637 366.899V365.942L13.2321 365.259L13.0954 364.643L12.4802 363.823L11.5232 362.934L11.5915 362.593L12.5485 360.952L16.3082 356.167L17.2652 355.21L18.4273 354.39L24.8529 351.314L25.6732 350.767L27.177 349.331L28.0657 348.784L29.1594 348.579L30.1164 348.237L30.7316 347.486L30.8 346.255L30.5266 344.956L30.1164 344.136L29.4328 343.658L27.1087 343.247L26.4251 342.906L25.9466 342.29L25.6048 341.333L25.4681 340.855L25.5365 340.513L25.8782 339.829L26.0833 339.624L26.6302 339.419L26.8353 339.146V338.872L26.4935 338.394L26.3568 338.121L25.8099 333.609L25.4681 333.062L24.2377 332.105L23.2807 330.533L24.0326 329.097L25.6732 327.799L27.4505 326.978L35.585 324.791L35.9952 324.449L36.2002 323.834L36.1319 323.492L35.5167 322.125L35.3116 321.441L34.9698 319.117V318.023L35.3116 317.34L36.8155 316.383L37.5674 315.631L37.8408 314.879V314.127L38.0459 313.102L38.5244 312.213L42.2157 308.385L43.036 307.701L43.9246 307.155L45.2918 306.608L45.6336 306.266L47.4792 302.916L47.7527 301.959L48.2995 297.038L48.1628 295.602L47.821 294.303L46.9324 293.141L46.0437 292.184L45.3602 291.091L45.0867 289.86L45.3602 288.561L46.1121 287.604L49.3249 285.622L51.9225 282.409L53.0162 281.657L55.9556 281.315L62.1761 282.683L65.2522 282.341L70.5841 280.358L73.2501 279.812H77.8984L82.8201 280.563L87.5368 282.204L88.6305 282.272L89.109 280.905Z" fill="#009649" stroke="white" stroke-width="2" stroke-linejoin="round"></path>
<path class="region" data-country-region="West Region" d="M231.772 240.437L230.746 240.574L209.077 240.711L208.599 241.052L208.257 241.804L216.938 316.588L217.143 317.134L217.553 317.545L219.126 318.638L220.903 322.056L225.21 336.001L231.293 353.296L229.584 362.866V363.344L229.789 363.959L232.387 368.197L232.866 369.838L232.729 371.342L232.182 373.393L232.045 373.734L231.567 374.486L227.465 379.408L226.85 379.955L226.713 380.365L226.645 381.049L226.44 384.193L226.303 384.74L225.141 386.517L224.594 387.816L223.706 389.32L217.485 397.113L216.391 399.642L216.186 400.257L215.776 405.999L216.05 410.989V411.605L215.913 412.083L215.845 412.63L214.682 415.638L212.495 419.329L212.358 419.876L212.29 420.354L212.358 421.311L213.862 427.053L213.931 427.532L213.862 428.079L213.657 429.651V431.702L213.725 432.112L213.862 432.522L215.913 435.735L216.391 436.692L216.665 438.059L216.802 439.016L219.399 444.006L213.725 442.844L197.798 443.117L196.294 442.639L194.38 441.819L192.33 440.246L190.552 438.332L189.732 437.649L188.365 436.829L186.041 436.008L184.332 435.803L182.965 435.94L181.666 436.145L180.23 436.077L178.726 435.325L176.676 433.411L172.643 427.053L169.225 423.567L166.627 421.448L165.533 420.013L165.055 419.192L165.26 418.44L165.465 418.099L165.875 417.757L166.695 417.415L170.318 416.39L171.139 415.843L171.617 415.228L171.48 414.407L171.07 413.587L170.387 412.835L161.5 405.589L159.518 404.632L154.049 401.351L146.393 394.31L145.3 393.627L143.932 393.011L142.155 392.67L140.309 392.464L133.952 393.08L127.185 392.875L114.812 391.029L107.361 390.482L105.857 390.072L104.763 389.32L104.217 388.363V387.201L104.763 385.765L105.652 384.603L111.257 379.135L112.83 377.084L113.445 376.059L113.787 375.17L113.855 374.486L113.65 373.529L112.966 372.436L112.078 371.889L110.779 371.547L109.275 371.479L107.771 371.615L106.131 372.026L99.4999 374.555L93.006 378.314L91.2287 378.93L89.4514 379.066L88.2893 378.93L85.2132 377.562L80.9067 376.127L79.7446 375.512L78.5142 374.76L77.2837 373.598L76.1216 372.777L74.9596 372.299L73.7975 372.094L71.5417 372.026L70.3796 371.889L69.5593 371.547L69.0125 370.317L69.1492 368.266L70.448 364.096L73.319 358.901L86.3069 344.477L94.92 330.054L95.5352 328.413L95.877 326.978L96.0137 325.337L95.877 323.56L95.0567 319.8L93.963 317.066L92.7325 314.742L91.2287 312.828L89.1779 310.572L88.2209 309.205L87.5374 306.881L87.3323 304.352L87.469 298.063L87.1956 295.944L89.7932 281.93L89.1096 280.905V268.669V258.825V248.982V239.138V199.628L89.0412 189.716V179.804V169.824V159.912V119.923V98.3901H95.5352H103.601H114.128H129.099L129.441 98.3218L129.577 98.0483V97.7749L130.398 98.1851H231.225L231.772 240.437Z" fill="#009649" stroke="white" stroke-width="2" stroke-linejoin="round"></path>
</svg>