<svg width="904" height="571" viewBox="0 0 904 571" fill="none" xmlns="http://www.w3.org/2000/svg">
<path class="region" data-country-region="West Region" d="M238.771 496.866L235.709 497.035L231.399 499.61L230.754 501.504L233.65 503.631L237.601 504.687L240.628 498.96L238.768 496.866H238.771ZM222.134 506.242L224.483 503.857L221.454 504.226L222.134 506.242ZM268.87 510.937L266.429 508.665L264.236 511.162L261.931 512.166L264.762 517.602L266.877 515.462L270.531 518.426L272.914 516.654L272.356 514.137L269.917 513.927L268.869 510.942L268.87 510.937ZM281.982 519.121L281.148 521.939L285.658 521.804L289.802 522.761L292.765 521.168L292.977 520.376L287.585 519.353L287.341 519.944L281.983 519.121H281.982ZM295.516 523.249L293.745 524.163L294.949 528.086L297.734 528.308L298.638 531.661L301.534 532.963L305.075 531.96L308.02 529.82L301.836 524.879L295.521 523.255L295.516 523.249ZM288.98 529.769L291.085 528.387L289.347 525.791L287.309 525.513L286.14 526.739L287.332 527.296L287.957 529.802L288.982 529.769H288.98ZM296.778 534.1L295.263 532.842L293.861 534.725L296.778 534.1ZM332.906 555.889L329.397 552.56L329.441 551.59L327.102 551.157L327.023 548.212L319.96 543.346L317.016 542.6L312.738 540.017L309.987 540.821L311.526 544.686L306.906 551.574L308.589 554.246L310.384 559.237L311.422 567.103L315.354 569.675L317.781 565.697L322.045 562.442L327.291 560.947L331.745 558.002L332.902 555.885L332.906 555.889Z" fill="#009649" stroke="white" stroke-width="2" stroke-linejoin="round"></path>
<path class="region" data-country-region="North Region" d="M626.495 123.217L626.95 122.418L626.681 119.793L625.845 120.022L625.125 123.143L626.495 123.218V123.217ZM680.971 171.949L679.829 170.238L678.38 166.587L677.616 162.973L676.74 161.414L675.137 155.555L673.88 153.426L671.786 151.525L669.769 150.727L667.488 152.252L665.093 153.357L663.421 156.288L662.283 159.524L661.332 159.334L659.813 161.999L656.16 160.974L655.246 160.1L655.016 156.79L655.661 155.039L656.269 153.972L658.208 153.666L659.653 152.371L660.181 147.729L662.462 146.204L662.84 144.301L662.266 139.737L662.493 138.1L661.196 134.186L659.102 132.285L659.329 130.649L661.154 129.924L660.544 128.517L659.249 127.072L659.439 126.121L657.459 124.639L654.72 124.489L652.17 123.387L650.572 122.476L648.1 122.478L646.044 119.892L644.56 119.399L642.202 119.819L640.337 118.756L637.369 117.768L634.821 119.139L633.035 121.652L633.037 124.125L634.598 125.722L634.523 127.091L632.316 127.246L630.301 128.922L629.504 130.939L630.039 133.717L629.7 137.408L627.987 136.078L627.648 139.769L626.43 139.427L626.961 137.258L626.503 135.584L626.959 134.785L626.501 133.111L624.335 135.053L623.234 137.604L621.901 136.844L620.99 138.442L620.305 138.405L619.814 142.362L618.141 142.82L617.533 143.887L618.106 145.979L618.414 150.393L616.364 155.227L615.033 156.94L616.405 159.488L616.75 163.217L615.953 165.234L615.726 166.871L616.451 168.696L620.909 177.599L622.128 180.414L622.665 185.665L622.518 190.878L621.152 195.749L619.633 198.414L618.306 202.6L616.787 205.265L614.772 206.941L624.015 206.21L638.814 204.409L647.106 203.488L647.183 204.592L655.208 203.52L668.368 201.492L668.747 199.589L670.607 195.706L671.595 195.211L672.009 190.15L672.199 189.199L673.11 187.6L675.543 185.81L675.312 182.5L675.805 181.016L677.287 179.036L678.619 179.796L678.773 182.003L679.761 181.508L680.673 179.909L680.822 177.17L680.328 176.182L680.97 171.957L680.971 171.949ZM654.445 109.495L652.543 109.116L652.62 110.22L650.72 112.315L652.622 112.693L654.829 112.539L656.006 111.092L654.445 109.495ZM639.676 103.191L638.802 104.105L637.241 102.509L634.846 103.614L631.192 102.59L631.417 98.4798L630.922 97.4916L628.45 97.4936L624.191 100.009L619.246 100.013L615.747 101.196L614.948 100.74L613.2 102.567L610.082 104.32L608.296 106.833L606.431 105.769L604.72 106.912L603.159 105.315L601.638 105.507L599.395 106.347L597.607 106.386L596.882 104.56L595.664 104.219L593.494 101.214L592.732 100.073L590.335 98.7057L586.226 98.4807L584.552 98.9386L583.905 98.2166L581.853 100.577L580.332 100.769L580.633 97.7626L579.147 94.7982L577.664 94.3052L576.787 92.7457L573.899 95.3354L572.95 97.6188L570.592 98.0395L569.262 99.7526L566.981 101.277L561.01 102.462L558.236 105.47L552.456 108.176L552.685 109.013L555.121 109.695L556.988 113.232L572.054 116.529L576.621 118.428L579.474 118.997L580.88 118.386L584.001 119.106L586.322 119.37L587.388 119.978L588.189 122.907L590.776 123.323L592.488 124.653L592.797 129.067L591.848 131.35L595.271 131.537L594.588 133.973L594.513 135.343L596.493 136.825L597.138 135.074L599.759 129.859L600.593 127.157L601.846 124.34L602.986 123.578L603.403 120.99L604.469 121.598L604.661 123.12L606.486 122.395L607.89 119.313L608.955 119.92L610.4 118.625L610.706 120.565L609.718 121.06L608.77 123.343L610.253 123.836L611.355 121.286L613.484 120.029L615.041 116.679L617.551 115.992L623.637 115.226L625.156 112.561L628.198 112.178L633.221 113.276L636.229 116.051L637.865 116.278L637.559 114.338L638.241 111.902L641.513 112.356L647.942 112.845L649.767 112.12L647.407 110.067L647.482 108.698L643.678 107.94L644.552 107.027L643.98 104.934L645.768 104.895L644.777 102.918L645.156 101.016L643.938 100.674L642.227 101.817L640.439 101.856L639.679 103.189L639.676 103.191ZM590.135 87.2914L588.955 86.2651L585.646 86.496L583.402 87.3354L580.132 89.3547L578.043 92.4003L577.931 94.4548L579.3 94.5302L581.053 97.6491L583.217 93.2339L587.891 88.1308L589.679 88.0917L590.135 87.2924V87.2914ZM577.911 72.1965L576.086 72.9215L573.082 75.0924L569.242 77.4933L567.95 78.5215L569.093 80.2327L571.64 78.861L571.83 77.9101L575.366 76.0424L576.811 74.7471L577.912 72.1965H577.911Z" fill="#009649" stroke="white" stroke-width="2" stroke-linejoin="round"></path>
<path class="region" data-country-region="East Region" d="M888.671 96.2051L888.594 95.1015L886.729 94.038L885.741 94.5331L885.439 97.5395L886.087 98.2616L888.672 96.2051H888.671ZM885.03 64.8198L885.105 63.4501L882.397 55.1958L876.981 38.6872L873.555 36.0271L869.255 34.2808L867.886 34.2054L866.974 35.8041L864.882 36.3764L863.819 38.2421L862.145 38.7L860.549 40.2614L858.381 39.7302L857.733 39.0081L856.932 36.079L854.459 36.0809L853.738 36.7286L847.934 54.9591L848.699 61.0463L847.369 62.7594L847.03 66.4507L847.792 67.5914L847.565 69.2282L847.757 70.7495L849.052 72.1945L847.494 75.5444L847.989 76.5325L845.786 79.1594L844.989 81.1767L844.876 83.2312L843.927 85.5147L844.385 87.1887L843.474 88.7873L842.331 87.0761L840.62 88.2188L845.121 101.381L850.193 116.634L852.558 123.633L853.322 127.247L856.481 129.755L856.673 131.277L858.385 132.607L859.792 131.997L860.246 128.724L860.51 126.403L862.106 124.841L861.723 121.798L863.852 120.54L862.366 117.576L863.734 115.178L865.215 113.198L867.727 114.984L868.83 114.907L869.855 111.253L870.881 110.072L872.631 110.718L872.629 108.245L873.351 107.597L875.482 108.813L876.357 107.899L876.888 105.73L876.849 103.942L877.188 100.251L877.681 98.7664L876.653 97.474L878.401 95.6464L880.457 98.2322L882.359 98.6108L884.033 98.153L882.776 96.0231L886.653 92.9374L889.011 92.5167L889.736 94.3423L890.991 93.9989L892.436 92.7036L892.663 91.0668L891.901 89.9261L892.775 89.0123L894.829 89.1248L896.235 88.5143L896.081 86.3072L898.402 86.5713L899.162 85.2388L900.684 85.0471L903 80.3647L901.324 78.3493L897.859 73.9008L896.908 73.711L895.464 75.0063L892.952 73.2199L892.95 70.7466L891.275 68.7312L892.149 67.8174L891.273 66.258L888.193 67.3263L884.958 66.1875L885.033 64.8178L885.03 64.8198Z" fill="#009649" stroke="white" stroke-width="2" stroke-linejoin="round"></path>
<path class="region" data-country-region="East Region" d="M807.235 183.933L805.94 182.488L803.734 182.643L801.869 181.579L800.459 179.717L799.544 176.369L799.049 175.38L797.298 174.735L794.101 172.911L774.78 177.075L766.299 178.947L751.579 181.851L738.952 184.184L725.489 186.745L724.57 180.924L722.859 182.066L715.675 187.856L713.7 188.847L716.606 206.043L718.479 216.999L721.805 236.553L738.579 233.761L755.236 230.55L769.956 227.646L788.44 223.713L797.759 221.612L798.519 220.28L800.115 218.718L803.272 218.753L803.462 217.802L807.15 215.669L807.377 214.032L808.403 212.851L811.025 210.109L812.356 208.396L805.733 203.912L804.894 201.668L803.372 201.859L802.342 198.094L803.634 197.065L803.898 194.744L802.337 193.147L803.667 191.434L805.224 188.084L805.337 186.03L807.237 183.935L807.235 183.933Z" fill="#009649" stroke="white" stroke-width="2" stroke-linejoin="round"></path>
<path class="region" data-country-region="East Region" d="M820.557 196.485L819.035 196.677L818.656 198.58L820.596 198.274L820.557 196.485ZM846.522 178.807L844.849 179.265L841.733 183.491L839.071 184.445L833.784 185.667L832.454 187.38L828.308 187.84L827.852 188.639L824.889 190.125L824.396 191.609L822.42 192.6L821.13 196.102L822.158 197.394L824.476 195.185L826.493 195.982L828.508 194.307L831.322 193.087L833.337 191.411L837.671 189.999L840.827 187.561L842.766 187.255L845.351 185.198L851.965 179.789L851.318 179.067L849.417 181.162L848.237 180.135L846.907 181.848L845.233 182.306L844.436 184.324L842.229 184.478L842.989 183.146L844.396 182.535L844.204 181.014L844.964 179.681L846.523 178.805L846.522 178.807ZM789.402 108.082L786.778 108.351L783.471 111.055L781.723 112.883L776.517 120.155L775.72 122.172L776.215 123.16L772.796 127.919L770.933 129.329L768.882 131.69L770.328 132.868L771.316 132.372L772.534 132.714L773.069 135.491L771.358 136.634L773.873 140.894L773.912 142.682L773.304 143.749L770.795 144.435L767.298 148.092L766.957 149.31L763.268 151.443L757.449 152.362L754.901 153.734L753.531 153.658L751.249 152.709L745.619 152.676L743.794 153.401L741.321 153.403L736.833 155.081L731.473 157.672L732.085 161.553L734.557 161.551L734.712 163.758L736.083 166.306L735.705 168.209L734.26 169.505L732.856 172.587L729.967 175.177L728.485 177.157L724.573 180.928L725.492 186.749L738.955 184.188L751.582 181.855L766.302 178.95L774.783 177.079L794.103 172.915L797.301 174.739L799.052 175.384L799.547 176.373L800.462 179.72L801.871 181.583L803.737 182.647L805.943 182.492L807.238 183.937L821.279 188.415L820.363 185.067L821.048 185.104L821.734 187.615L821.891 192.295L823.602 191.152L824.095 189.668L825.462 187.27L823.635 185.522L826.979 182.133L825.532 180.955L822.704 164.862L821.905 164.406L822.158 149.721L818.263 133.021L817.235 131.729L815.181 131.616L815.445 129.295L813.539 123.969L812.892 123.247L813.078 119.823L813.534 119.024L812.848 116.514L812.846 114.04L811.436 112.178L810.56 110.618L810.595 107.46L809.681 106.585L809.184 103.123L799.714 105.491L789.408 108.087L789.402 108.082Z" fill="#009649" stroke="white" stroke-width="2" stroke-linejoin="round"></path>
<path class="region" data-country-region="East Region" d="M808.399 212.853L807.261 216.088L804.713 217.46L802.965 219.288L802.397 222.141L803.009 226.021L806.473 227.998L808.223 228.643L810.469 230.277L812.294 229.552L814.996 230.387L814.733 235.182L816.14 234.571L817.659 231.906L818.264 228.368L819.176 226.769L820.01 224.067L821.338 219.88L822.934 218.319L823.731 216.302L823.236 215.313L823.5 212.992L823.155 209.263L823.839 209.301L823.529 202.413L822.387 200.702L819.496 200.818L817.898 199.907L818.466 197.053L819.34 196.139L820.025 196.176L820.937 194.577L821.617 189.666L821.274 188.411L807.233 183.933L805.333 186.028L805.221 188.082L803.663 191.432L802.333 193.145L803.894 194.742L803.63 197.063L802.338 198.092L803.368 201.857L804.89 201.666L805.729 203.91L812.352 208.394L811.022 210.107L808.399 212.849V212.853Z" fill="#009649" stroke="white" stroke-width="2" stroke-linejoin="round"></path>
<path class="region" data-country-region="South Region" d="M797.758 221.619L788.439 223.719L769.956 227.652L755.235 230.557L738.579 233.768L740.337 244.306L744.707 239.736L746.075 237.338L747.825 237.984L748.889 236.118L750.142 233.301L750.903 234.442L753.757 235.01L755.43 234.553L755.809 232.65L758.052 231.81L758.964 230.212L760.219 229.868L763.149 231.54L764.556 230.93L765.546 232.906L766.613 233.514L767.907 234.959L768.099 236.48L771.256 236.515L772.855 237.427L772.857 239.9L774.455 240.812L776.927 240.81L777.689 241.951L779.706 242.748L780.884 241.301L783.548 242.821L781.915 245.067L782.069 247.274L781.272 249.291L780.284 249.786L779.45 252.489L780.022 254.581L780.973 254.771L783.443 252.296L784.7 254.426L785.881 255.452L789.001 256.172L791.359 255.751L794.441 257.156L796.306 258.22L796.267 256.431L794.972 254.986L793.981 253.01L794.057 251.64L791.582 249.169L790.438 244.985L789.943 243.997L790.663 240.876L790.052 239.469L791.193 238.707L789.477 234.903L790.123 233.152L789.209 232.277L792.593 230.676L794.531 227.897L795.407 229.456L793.507 231.551L792.483 235.205L795.07 235.622L795.224 237.829L794.047 239.276L795.645 240.188L795.114 242.357L793.478 242.13L793.365 244.184L795.153 244.145L796.751 245.057L795.65 247.608L795.842 249.129L794.854 249.624L797.062 251.943L800.83 253.386L802.541 252.243L803.721 253.269L802.544 254.716L804.597 254.829L804.144 258.101L808.29 257.642L808.327 256.957L812.239 255.659L812.77 253.49L813.189 253.376L813.605 250.788L815.011 250.178L815.39 248.275L814.742 247.553L815.121 245.65L805.118 247.713L802.142 236.834L798.21 223.292L797.752 221.618L797.758 221.619Z" fill="#009649" stroke="white" stroke-width="2" stroke-linejoin="round"></path>
<path class="region" data-country-region="1" d="M781.913 245.07L783.546 242.824L780.882 241.304L779.704 242.751L780.922 243.093L781.835 243.967L781.913 245.071V245.07Z" fill="#009649" stroke="white" stroke-width="2" stroke-linejoin="round"></path>
<path class="region" data-country-region="East Region" d="M803.264 218.753L800.107 218.717L798.511 220.279L797.751 221.611L798.208 223.285L802.14 236.827L805.117 247.707L815.12 245.643L815.538 245.529L815.69 245.263L814.965 243.437L813.899 242.83L814.43 240.661L813.591 238.416L812.07 238.608L809.025 236.518L808.948 235.415L807.235 234.084L806.32 230.736L805.329 228.76L802.17 226.252L802.397 224.615L801.102 223.17L803.266 218.754L803.264 218.753Z" fill="#009649" stroke="white" stroke-width="2" stroke-linejoin="round"></path>
<path class="region" data-country-region="South Region" d="M738.574 233.77L721.799 236.562L718.473 217.008L716.04 218.798L717.982 220.965L717.489 222.45L718.365 224.009L717.72 225.76L717.077 229.985L717.194 232.877L716.206 235.845L716.285 239.422L713.814 241.897L712.751 243.763L711.307 245.058L708.759 246.43L707.275 245.937L706.249 247.118L706.174 248.487L704.5 248.945L703.703 250.962L703.821 256.328L702.833 256.823L699.903 255.151L699.181 255.798L697.55 260.518L698.162 264.398L696.907 264.741L696.453 268.014L693.639 269.234L692.27 269.159L693.034 272.773L692.503 274.942L695.435 279.087L696.616 280.113L697.226 281.52L698.673 282.698L699.435 283.839L701.3 284.902L702.746 286.08L705.485 286.23L705.258 287.867L706.4 289.578L708.646 291.212L709.331 291.249L711.881 292.35L713.403 292.159L716.329 288.884L718.575 290.518L720.134 289.641L723.214 288.573L724.24 287.392L724.467 285.755L726.369 286.134L729.373 283.963L730.857 284.456L733.442 282.4L733.098 281.144L734.124 279.964L732.829 278.519L733.664 275.816L736.398 271.02L737.155 267.214L738.941 264.701L738.902 262.913L739.965 261.047L740.152 257.623L741.636 258.116L742.778 259.827L746.469 260.167L747.685 258.035L748.101 255.447L749.884 250.462L751.901 251.259L753.458 247.909L754.713 247.566L757.904 241.97L757.483 239.611L758.09 238.544L758.24 235.805L767.45 240.706L768.092 236.482L767.901 234.961L766.606 233.516L765.54 232.908L764.549 230.932L763.142 231.542L760.212 229.87L758.957 230.214L758.045 231.812L755.802 232.652L755.423 234.555L753.75 235.013L750.897 234.444L750.135 233.303L748.882 236.12L747.819 237.986L746.068 237.34L744.7 239.738L740.33 244.308L738.572 233.77H738.574Z" fill="#009649" stroke="white" stroke-width="2" stroke-linejoin="round"></path>
<path class="region" data-country-region="North Region" d="M604.439 132.179L603.223 134.311L601.816 134.921L601.285 137.09L600.374 138.689L599.728 140.44L600.605 141.999L601.671 142.607L602.582 141.008L603.113 138.839L604.708 134.805L604.439 132.18V132.179ZM552.453 108.177L550.132 107.913L547.468 106.394L546.861 107.46L545.302 108.337L545.678 103.96L546.894 101.829L545.599 100.384L543.925 100.841L541.607 103.051L540.124 102.557L537.539 104.614L531.796 106.635L529.438 107.056L527.192 105.422L525.977 107.554L524.722 107.897L524.998 120.415L523.972 121.596L519.033 124.073L517.895 127.309L516.45 128.604L516.566 131.496L518.469 131.874L519.993 134.156L518.854 137.391L518.59 139.713L518.896 141.653L518.174 142.301L518.824 145.496L518.218 149.035L521.759 152.113L524.612 152.682L526.554 154.849L529.407 155.417L531.767 157.47L533.52 160.589L536.413 162.946L538.201 162.907L540.066 163.97L542.16 165.871L543.075 169.219L543.308 175.002L544.262 177.665L545.746 178.158L546.089 179.413L544.836 182.23L545.792 187.366L547.24 191.017L548.572 191.778L552.796 192.42L553.901 194.816L553.864 195.501L567.786 194.614L584.443 193.876L598.516 192.723L598.019 189.26L598.208 188.309L598.206 185.836L597.178 184.544L596.987 183.022L595.844 181.311L596.186 180.093L595.422 176.479L595.686 174.158L596.483 172.14L596.481 169.667L597.734 166.85L597.047 164.34L596.893 162.133L597.917 158.479L599.094 157.032L599.854 155.699L598.864 153.723L599.392 149.081L600.834 145.312L601.25 142.724L599.271 141.242L597.295 142.233L596.42 143.147L594.863 146.497L592.848 148.173L591.023 148.898L591.78 145.092L593.337 141.742L593.679 140.524L596.227 139.152L596.491 136.831L594.511 135.349L594.586 133.979L595.269 131.543L591.846 131.356L592.795 129.073L592.487 124.659L590.774 123.329L588.187 122.913L587.386 119.984L586.32 119.376L583.999 119.112L580.879 118.392L579.472 119.002L576.619 118.434L572.052 116.535L556.986 113.238L555.119 109.701L552.683 109.018L552.454 108.182L552.453 108.177Z" fill="#009649" stroke="white" stroke-width="2" stroke-linejoin="round"></path>
<path class="region" data-country-region="South Region" d="M808.282 257.642L807.98 260.648L806.536 261.943L806.879 263.199L805.208 266.13L806.121 267.004L805.133 272.446L805.477 273.701L806.848 276.25L806.995 271.037L807.793 269.02L811.17 260L812.196 258.819L811.738 257.145L812.231 255.661L808.319 256.958L808.282 257.643V257.642ZM768.092 236.483L767.449 240.708L758.24 235.806L758.09 238.545L757.483 239.612L757.903 241.971L754.713 247.567L753.458 247.91L751.901 251.26L749.884 250.463L748.101 255.448L747.684 258.036L746.468 260.168L742.778 259.828L741.636 258.117L740.152 257.624L739.965 261.048L738.902 262.914L738.941 264.702L737.155 267.215L736.398 271.021L733.663 275.817L732.829 278.52L734.124 279.965L733.098 281.145L733.441 282.401L730.856 284.457L729.372 283.964L726.369 286.135L724.466 285.756L724.24 287.393L723.213 288.574L720.133 289.642L718.574 290.519L716.329 288.885L713.402 292.16L711.88 292.351L709.331 291.25L708.646 291.213L706.4 289.579L705.258 287.868L705.485 286.231L699.633 292.781L695.337 295.981L694.311 297.162L694.084 298.799L692.069 300.475L691.842 302.111L688.724 303.865L688.079 305.616L686.254 306.341L683.554 307.979L682.033 308.171L679.601 309.962L693.711 308.123L708.66 306.056L709.381 305.408L713.528 304.949L714.061 305.253L721.097 304.676L730.225 303.526L740.19 302.148L750.308 300.503L764.19 297.827L776.973 295.229L787.394 293.051L802.683 289.766L808.388 288.429L808.654 288.581L809.491 288.352L808.841 285.157L809.26 285.042L810.746 288.007L811.43 288.044L808.269 283.062L807.43 280.818L805.072 281.238L802.485 280.822L802.106 282.724L799.367 282.575L797.273 280.674L795.637 280.447L794.228 278.584L791.03 276.76L795.671 277.289L796.129 278.963L799.096 279.951L799.858 281.092L801.988 279.834L802.063 278.465L801.035 277.172L798.068 276.184L799.245 274.737L798.291 272.074L799.661 272.15L800.838 270.703L798.707 269.486L796.88 267.738L798.135 267.395L798.133 264.922L798.93 262.904L798.472 261.23L793.336 259.713L793.258 258.609L791.546 257.279L787.134 257.587L785.65 257.094L784.089 255.497L783.897 253.975L780.361 255.843L779.677 255.805L778.571 253.409L779.366 248.919L780.736 248.994L780.963 247.357L781.951 246.862L781.567 243.819L780.92 243.097L779.702 242.755L777.685 241.958L776.923 240.817L774.451 240.819L772.852 239.907L772.85 237.434L771.252 236.522L768.095 236.487L768.092 236.483Z" fill="#009649" stroke="white" stroke-width="2" stroke-linejoin="round"></path>
<path class="region" data-country-region="South Region" d="M679.605 309.954L678.464 310.716L663.287 311.947L654.729 312.715L649.747 313.403L638.716 314.174L631.83 314.484L621.332 315.559L608.628 316.787L607.829 316.332L604.671 316.296L605.284 320.176L596.307 321.059L581.547 322.175L580.444 322.252L579.341 322.33L580.028 324.84L578.583 326.136L579.193 327.542L577.254 327.849L578.929 329.864L578.055 330.778L577.106 333.061L578.248 334.772L576.727 334.964L577.604 336.524L576.578 337.704L573.764 338.924L574.489 340.75L573.881 341.816L574.643 342.957L572.818 343.682L572.743 345.052L571.565 346.499L571.301 348.82L572.026 350.646L571.799 352.283L570.581 351.941L569.784 353.959L568.492 354.987L586.826 353.791L605.576 352.481L605.462 352.063L617.177 351.33L630.832 350.291L650.307 348.334L663.163 346.839L672.71 345.575L672.554 340.895L673.161 339.828L675.785 339.559L676.545 338.227L676.962 335.639L678.862 333.545L681.41 332.173L685.289 331.56L689.202 327.79L692.053 325.885L693.574 325.693L694.749 321.77L695.967 322.112L696.46 320.627L698.741 319.103L699.883 320.814L701.29 320.204L702.657 317.806L705.775 316.053L707.792 316.85L708.667 315.936L709.957 312.435L712.731 309.426L712.729 306.953L713.526 304.936L709.38 305.396L708.658 306.043L693.71 308.111L679.599 309.949L679.605 309.954Z" fill="#009649" stroke="white" stroke-width="2" stroke-linejoin="round"></path>
<path class="region" data-country-region="North Region" d="M718.474 217.001L716.601 206.045L713.695 188.849L706.319 193.117L701.605 196.432L697.197 201.686L694.117 202.755L691.378 202.605L688.26 204.358L686.435 205.083L684.305 206.34L682.44 205.277L679.131 205.508L677.839 206.536L677.077 205.395L674.603 202.924L672.282 202.66L670.835 201.482L668.363 201.484L655.202 203.512L647.177 204.584L648.212 213.296L649.744 225.471L651.507 240.955L653.501 259.75L655.212 258.607L656.659 259.785L659.587 258.984L661.984 260.352L664.499 264.611L666.401 264.99L668.341 264.684L670.243 265.062L673.022 267L673.973 267.19L675.721 265.363L678.574 265.931L679.754 266.957L682.683 266.156L683.898 264.024L686.294 262.919L687.894 266.304L689.911 267.101L692.271 269.154L693.64 269.229L696.454 268.009L696.908 264.737L698.163 264.393L697.551 260.513L699.182 255.794L699.904 255.146L702.834 256.818L703.822 256.323L703.704 250.958L704.501 248.94L706.174 248.482L706.25 247.113L707.276 245.932L708.76 246.425L711.307 245.053L712.752 243.758L713.815 241.892L716.286 239.417L716.207 235.84L717.195 232.872L717.078 229.98L717.721 225.755L718.366 224.004L717.49 222.445L717.983 220.961L716.041 218.794L718.474 217.003V217.001Z" fill="#009649" stroke="white" stroke-width="2" stroke-linejoin="round"></path>
<path class="region" data-country-region="South Region" d="M809.906 288.225L809.487 288.339L808.651 288.568L809.564 289.443L810.324 288.11L809.906 288.225ZM808.385 288.417L802.68 289.753L787.39 293.038L776.97 295.216L764.186 297.815L750.304 300.49L740.187 302.135L730.222 303.513L721.093 304.663L714.057 305.24L713.524 304.936L712.727 306.953L712.729 309.427L709.955 312.435L708.665 315.936L707.79 316.85L705.773 316.053L702.655 317.806L701.288 320.204L699.882 320.814L698.739 319.103L696.458 320.628L695.965 322.112L694.748 321.77L693.572 325.693L692.051 325.885L689.2 327.79L685.287 331.561L681.408 332.173L678.86 333.545L676.96 335.639L676.543 338.227L675.783 339.56L673.159 339.829L672.552 340.895L672.708 345.575L681.837 344.426L693.475 342.589L698.684 340.264L699.788 340.187L702.791 338.015L707.279 336.337L716.256 335.454L728.275 334.188L729.418 335.9L730.862 334.604L733.87 337.379L734.671 340.308L753.232 337.477L753.917 337.514L762.788 343.632L776.415 353.171L781.739 351.264L785.732 351.071L786.492 349.738L787.747 349.395L787.668 345.818L788.046 343.915L790.059 339.766L792.111 337.405L794.544 335.615L796.292 333.787L797.052 332.455L801.88 329.559L806.027 329.099L807.357 327.386L808.307 327.576L810.701 323.997L809.673 322.705L806.516 322.669L804.957 323.546L803.209 325.374L800.089 324.653L803.017 323.852L805.829 320.159L803.812 319.362L806.512 317.723L806.054 316.049L802.631 315.862L798.709 314.686L802.017 314.455L803.92 314.834L803.918 312.361L805.593 314.376L806.581 313.881L809.853 314.335L811.792 314.029L815.135 308.166L817.264 306.909L817.491 305.272L816.956 302.495L815.28 300.48L813.948 299.719L812.162 302.232L812.812 305.427L811.328 304.934L810.603 303.108L810.753 300.369L808.128 300.638L805.277 302.543L803.641 302.316L802.349 303.344L799.306 303.728L799.57 301.406L802.309 301.556L804.057 299.728L807.555 298.545L810.026 296.07L812.917 295.954L810.973 291.313L809.108 290.25L808.383 288.424L808.385 288.417Z" fill="#009649" stroke="white" stroke-width="2" stroke-linejoin="round"></path>
<path class="region" data-country-region="South Region" d="M692.271 269.157L689.911 267.104L687.894 266.307L686.294 262.922L683.898 264.027L682.682 266.159L679.754 266.961L678.574 265.934L675.72 265.366L673.973 267.193L673.022 267.004L670.243 265.065L668.341 264.687L666.401 264.993L664.499 264.614L661.984 260.355L659.587 258.987L656.659 259.788L655.212 258.61L653.501 259.753L652.894 260.819L653.656 261.96L653.01 263.711L654.647 263.938L654.382 266.26L651.454 267.061L648.603 268.966L647.271 268.206L644.228 268.589L644.191 269.274L645.144 271.937L643.358 274.45L642.066 275.478L641.65 278.066L639.939 279.208L639.14 278.753L638.077 280.618L638.042 283.776L637.434 284.842L636.028 285.452L633.441 285.035L631.842 284.124L631.651 282.602L629.407 283.442L627.774 285.688L628.08 287.628L624.467 288.392L623.057 286.529L619.483 289.082L618.952 291.251L613.054 288.593L611.079 289.584L610.319 290.916L608.987 290.156L606.894 290.728L605.296 289.817L605.184 291.871L604.576 292.937L602.94 292.71L602.75 293.661L601.231 296.326L602.755 298.607L602.148 299.673L599.219 300.475L596.557 301.429L595.911 303.18L596.103 304.701L597.513 306.564L596.715 308.581L594.128 308.164L589.296 306.114L586.938 306.535L585.114 309.733L586.105 311.709L585.689 314.297L586.109 316.656L585.121 319.624L584.399 320.271L582.534 319.208L581.546 322.176L596.306 321.06L605.282 320.178L604.67 316.297L607.828 316.333L608.627 316.789L621.331 315.56L631.829 314.486L638.715 314.175L649.745 313.405L654.728 312.716L663.286 311.948L678.463 310.717L679.603 309.955L682.036 308.164L683.557 307.973L686.256 306.334L688.082 305.609L688.727 303.858L691.845 302.105L692.072 300.468L694.087 298.792L694.314 297.155L695.34 295.974L699.636 292.774L705.488 286.224L702.749 286.074L701.302 284.897L699.437 283.833L698.675 282.692L697.229 281.514L696.618 280.108L695.438 279.081L692.505 274.936L693.037 272.767L692.273 269.153L692.271 269.157Z" fill="#009649" stroke="white" stroke-width="2" stroke-linejoin="round"></path>
<path class="region" data-country-region="North Region" d="M647.181 204.586L647.104 203.483L638.811 204.403L624.013 206.204L614.77 206.935L612.185 208.992L608.116 210.555L605.948 210.024L604.235 208.693L606.08 230.227L607.194 242.516L608.501 258.799L607.324 260.246L607.63 262.186L606.604 263.367L608.357 266.486L609.004 267.208L609.043 268.996L610.149 271.392L609.503 273.144L608.629 274.057L607.831 276.075L608.212 276.645L606.616 278.207L606.845 279.043L605.477 281.441L603.804 281.899L603.007 283.916L604.187 284.943L602.742 286.238L602.401 287.456L602.938 292.707L604.574 292.934L605.182 291.868L605.294 289.814L606.892 290.726L608.985 290.153L610.317 290.913L611.077 289.581L613.053 288.59L618.95 291.248L619.481 289.079L623.055 286.526L624.465 288.389L628.078 287.625L627.772 285.685L629.405 283.439L631.649 282.599L631.841 284.121L633.439 285.033L636.026 285.449L637.432 284.839L638.04 283.773L638.075 280.615L639.138 278.75L639.937 279.206L641.648 278.063L642.065 275.475L643.357 274.447L645.143 271.934L644.189 269.271L644.226 268.587L647.269 268.203L648.601 268.963L651.452 267.058L654.381 266.257L654.645 263.936L653.008 263.709L653.654 261.957L652.892 260.817L653.499 259.75L651.505 240.955L649.742 225.471L648.21 213.296L647.175 204.584L647.181 204.586Z" fill="#009649" stroke="white" stroke-width="2" stroke-linejoin="round"></path>
<path class="region" data-country-region="North Region" d="M598.511 192.719L584.438 193.872L567.781 194.61L553.859 195.497L553.554 196.03L556.866 198.273L557.82 200.936L561.664 203.482L562.388 205.307L561.593 209.798L559.997 211.359L559.543 214.632L558.099 215.927L555.589 216.614L553.993 218.175L549.429 218.75L548.403 219.93L547.986 222.518L548.178 224.039L549.776 224.951L550.386 226.358L550.503 229.25L548.451 231.611L548.15 234.617L547.275 235.531L544.042 236.866L544.351 241.279L543.514 241.508L542.603 243.106L542.302 246.113L542.951 249.308L543.561 250.715L543.6 252.503L545.353 255.622L549.693 259.157L550.835 260.868L554.679 263.414L556.318 266.114L557.044 270.413L557.655 271.82L558.987 272.58L561.419 270.79L565.604 272.117L566.632 273.41L565.569 275.275L565.724 277.483L564.927 279.5L562.991 284.753L563.982 286.729L568.017 290.797L569.768 291.443L571.252 291.936L572.699 293.113L574.715 293.911L576.239 296.192L577.723 296.685L578.524 299.615L579.895 302.163L579.668 303.8L578.871 305.817L582.565 311.103L583.706 310.341L585.152 311.519L586.103 311.709L585.112 309.733L586.936 306.534L589.294 306.114L594.126 308.164L596.713 308.581L597.511 306.564L596.101 304.701L595.91 303.18L596.555 301.428L599.217 300.475L602.146 299.673L602.753 298.607L601.229 296.325L602.748 293.66L602.938 292.709L602.401 287.459L602.742 286.241L604.187 284.945L603.007 283.919L603.804 281.902L605.477 281.444L606.845 279.046L606.616 278.209L608.212 276.648L607.831 276.078L608.629 274.06L609.503 273.146L610.149 271.395L609.043 268.999L609.004 267.211L608.357 266.489L606.604 263.37L607.63 262.189L607.324 260.249L608.501 258.802L607.194 242.518L606.08 230.229L604.235 208.696L603.207 207.404L601.873 204.17L601.072 201.241L599.74 200.481L598.406 197.248L598.516 192.72L598.511 192.719Z" fill="#009649" stroke="white" stroke-width="2" stroke-linejoin="round"></path>
<path class="region" data-country-region="South Region" d="M776.416 353.167L762.789 343.628L753.918 337.51L753.233 337.473L734.672 340.304L733.871 337.375L730.863 334.6L729.419 335.895L728.276 334.184L716.257 335.45L707.28 336.333L702.792 338.011L699.789 340.183L698.685 340.26L693.476 342.585L692.983 344.07L690.627 346.963L690.363 349.285L691.01 350.007L694.625 351.716L696.871 353.35L699.61 353.5L700.486 355.059L701.628 356.77L702.468 359.015L705.361 361.372L706.086 363.197L710.234 365.211L712.479 366.844L713.851 369.393L716.818 370.381L719.064 372.015L719.218 374.222L721.235 375.019L721.693 376.693L722.988 378.138L727.555 380.037L728.394 382.282L729.689 383.727L730.68 385.703L730.949 388.328L734.298 389.885L735.211 390.76L736.165 393.423L736.927 394.564L737.081 396.771L738.757 398.786L739.86 398.709L742.295 399.392L742.332 398.707L744.651 396.498L745.562 394.899L743.05 393.113L743.506 392.314L745.903 393.681L747.577 393.223L749.21 390.977L748.334 389.418L746.583 388.772L746.925 387.554L749.207 388.503L750.729 388.311L753.618 385.722L756.013 384.616L757.913 382.521L758.14 380.885L759.851 379.742L761.789 376.962L762.053 374.641L763.689 374.868L765.514 374.143L767.945 369.879L768.358 364.818L770.979 359.604L773.372 356.025L776.413 353.168L776.416 353.167Z" fill="#009649" stroke="white" stroke-width="2" stroke-linejoin="round"></path>
<path class="region" data-country-region="South Region" d="M605.573 352.482L586.823 353.792L568.489 354.988L569.365 356.547L567.921 357.843L565.945 358.834L566.137 360.355L564.463 360.813L563.932 362.982L564.275 364.237L564.089 367.661L560.211 370.747L559.566 372.498L558.121 373.793L559.302 374.82L558.96 376.038L555.88 377.106L556.908 378.399L556.301 379.464L556.911 380.871L554.441 383.346L555.317 384.905L554.101 387.037L555.814 388.368L555.701 390.422L554.941 391.755L556.388 392.933L556.543 395.14L555.402 395.902L555.557 398.109L557.232 400.125L556.472 401.457L556.094 403.36L557.16 403.968L555.982 405.415L556.059 406.518L557.354 407.963L557.509 410.17L560.821 412.413L558.315 418.046L557.822 419.53L556.681 420.292L555.048 422.538L553.642 423.149L552.54 425.699L552.201 429.391L550.605 430.952L551.329 432.778L550.495 435.48L548.822 435.938L549.432 437.345L549.091 438.563L550.081 440.539L548.637 441.834L566.134 440.868L584.049 439.787L584.127 440.89L582.42 446.979L583.525 449.375L585.885 451.428L586.801 454.776L587.943 456.487L589.009 457.095L590.53 456.903L591.023 455.419L592.315 454.39L598.213 452.102L599.658 450.807L601.294 451.034L603.274 452.516L606.583 452.285L608.485 452.664L609.663 451.217L607.212 433.221L605.375 419.106L606.045 401.832L606.414 390.033L606.784 378.234L606.812 367.656L607.257 354.491L605.582 352.475L605.573 352.482Z" fill="#009649" stroke="white" stroke-width="2" stroke-linejoin="round"></path>
<path class="region" data-country-region="South Region" d="M737.782 414.118L738.769 411.15L737.666 411.227L736.983 413.663L737.782 414.119L737.782 414.118ZM742.295 399.384L739.86 398.701L738.757 398.779L737.081 396.763L736.927 394.556L736.165 393.415L735.211 390.752L734.298 389.878L730.949 388.32L730.68 385.695L729.689 383.719L728.394 382.274L727.555 380.03L722.988 378.131L721.693 376.686L721.235 375.012L719.218 374.214L719.064 372.007L716.818 370.373L713.851 369.385L712.479 366.837L710.234 365.203L706.086 363.189L705.361 361.364L702.468 359.007L701.628 356.763L700.486 355.052L699.61 353.492L696.871 353.342L694.625 351.709L691.01 349.999L690.363 349.277L690.627 346.956L692.983 344.062L693.476 342.578L681.838 344.414L672.709 345.564L663.162 346.828L650.306 348.322L651.68 353.343L654.579 363.12L657.785 374.837L662.401 390.889L663.355 393.552L664.002 394.274L665.337 397.508L667.012 399.523L667.737 401.349L668.157 403.708L669.604 404.885L667.589 406.561L667.248 407.779L667.364 410.671L666.188 414.595L667.142 417.258L668.284 418.969L668.742 420.643L668.29 426.388L668.596 428.329L670.424 430.077L670.73 432.017L671.987 434.147L672.94 436.81L674.006 437.417L686.255 436.988L697.97 436.255L708.317 435.447L722.656 434.445L723.724 437.526L724.638 438.401L726.73 437.828L726.841 433.3L725.813 432.008L725.773 430.22L726.837 428.354L727.94 428.277L732.011 429.187L735.853 429.259L734.785 426.178L734.783 423.705L736.227 422.41L735.045 418.91L736.377 419.67L738.049 416.739L736.716 415.979L735.726 414.003L736.331 410.464L737.888 407.114L740.055 405.172L739.482 403.079L741.119 403.306L743.361 399.994L742.294 399.386L742.295 399.384Z" fill="#009649" stroke="white" stroke-width="2" stroke-linejoin="round"></path>
<path class="region" data-country-region="South Region" d="M759.739 472.202L758.522 471.861L757.496 473.042L757.993 476.504L759.171 475.057L759.739 472.203V472.202ZM642.408 447.646L637.54 448.753L637.236 449.286L642.408 447.646ZM735.854 429.263L732.012 429.19L727.942 428.28L726.838 428.358L725.775 430.223L725.814 432.012L726.842 433.304L726.732 437.832L724.64 438.404L723.726 437.53L722.658 434.449L708.318 435.451L697.972 436.259L686.257 436.992L674.008 437.421L672.942 436.814L671.988 434.15L670.731 432.021L653.463 433.824L641.707 435.241L623.487 436.856L622.918 439.709L625.507 442.598L627.487 444.081L626.956 446.25L627.566 447.657L628.784 447.998L627.835 450.281L629.586 450.927L632.398 447.234L632.244 445.027L634.071 446.775L634.792 446.127L636.505 447.458L634.643 448.868L641.299 447.72L644.683 446.12L646.319 446.347L648.295 445.355L651.148 445.924L649.589 446.8L647.194 447.906L652.901 449.043L656.934 450.638L659.332 452.005L658.493 449.761L659.747 449.418L660.701 452.081L667.058 456.413L668.2 458.124L668.621 460.483L671.701 459.414L676.264 458.84L678.964 457.201L680.141 455.754L682.727 453.698L685.732 453.999L685.655 452.896L683.601 452.783L684.779 451.336L686.793 449.66L689 449.506L691.244 448.666L694.707 450.642L695.81 450.565L698.208 451.933L700.035 453.681L701.559 455.963L703.994 456.646L704.378 459.689L708.26 461.55L709.516 463.68L711 464.173L712.41 466.036L715.871 465.538L717.318 466.716L718.004 469.226L719.565 470.823L720.516 471.013L721.014 474.475L721.362 480.677L719.808 486.5L720.533 488.325L719.778 494.604L720.728 494.794L723.354 496.998L724.191 496.769L724.759 493.916L724.264 492.927L721.981 491.978L722.36 490.076L724.111 490.721L726.508 492.089L727.496 491.594L728.601 493.99L726.208 497.569L725.943 499.89L724.384 500.767L724.842 502.441L726.44 503.353L726.861 505.712L731.583 512.29L732.993 514.153L735.428 514.836L736.148 511.715L737.86 513.045L738.054 517.04L739.388 520.273L741.786 521.641L743.306 521.449L743.727 523.808L744.222 524.796L745.366 528.98L748.411 531.07L748.07 532.288L750.694 532.019L754.08 532.891L755.793 534.221L758.802 539.469L760.441 542.17L761.773 542.93L764.094 543.194L765.274 544.22L764.933 545.438L762.231 544.604L760.785 543.426L760.521 545.747L762.615 547.648L765.962 546.733L766.988 545.552L769.841 546.12L772.045 543.493L775.202 543.528L775.429 541.892L776.911 539.911L775.957 537.248L776.107 534.509L776.941 531.807L777.663 531.159L777.508 528.952L778.383 528.038L778.189 524.044L778.032 519.363L777.533 513.428L777.837 512.894L776.73 508.025L775.547 504.526L773.528 501.255L772.844 501.218L768.425 494.106L767.091 490.873L757.835 476.764L755.89 472.124L755.129 470.983L754.175 468.32L756.458 469.269L756.46 471.742L759.503 471.359L760.342 473.603L760.192 476.343L760.537 480.071L761.374 479.842L760.495 475.809L761.255 474.477L760.416 472.233L751.887 462.42L745.298 452.305L743.468 448.083L739.084 437.813L738.778 435.873L737.407 433.325L737.061 429.596L735.844 429.255L735.854 429.263Z" fill="#009649" stroke="white" stroke-width="2" stroke-linejoin="round"></path>
<path class="region" data-country-region="South Region" d="M650.311 348.334L630.836 350.291L617.181 351.33L605.466 352.063L605.58 352.481L607.256 354.497L606.811 367.662L606.782 378.24L606.412 390.039L606.043 401.838L605.373 419.113L607.211 433.227L609.661 451.223L610.231 450.842L614.986 451.789L614.984 449.316L615.627 445.091L617.567 444.785L618.406 447.03L617.913 448.514L618.675 449.654L621.301 451.859L621.074 453.495L624.839 452.465L625.028 451.514L626.739 450.372L628.069 448.659L627.574 447.67L626.964 446.264L627.495 444.095L625.516 442.612L622.927 439.723L623.495 436.869L641.715 435.255L653.471 433.838L670.739 432.034L670.433 430.094L668.606 428.346L668.3 426.406L668.752 420.66L668.294 418.986L667.152 417.275L666.198 414.612L667.374 410.689L667.257 407.797L667.599 406.579L669.614 404.903L668.167 403.725L667.747 401.366L667.022 399.541L665.346 397.525L664.012 394.292L663.365 393.57L662.411 390.907L657.794 374.854L654.589 363.138L651.69 353.361L650.316 348.34L650.311 348.334Z" fill="#009649" stroke="white" stroke-width="2" stroke-linejoin="round"></path>
<path class="region" data-country-region="East Region" d="M834.397 146.815L832.341 144.229L832.757 141.641L832.258 135.706L832.447 134.755L831.188 130.152L831.87 127.716L831.564 125.776L832.476 124.177L832.321 121.97L833.191 116.109L832.39 113.18L832.883 111.696L834.858 110.705L836.91 108.344L837.934 104.69L835.879 102.104L836.903 98.4504L836.216 95.9399L824.502 99.146L809.176 103.116L809.674 106.578L810.587 107.453L810.552 110.611L811.428 112.171L812.838 114.033L812.84 116.507L813.526 119.017L813.071 119.816L812.884 123.241L813.531 123.963L815.438 129.288L815.173 131.609L817.227 131.722L818.255 133.014L822.15 149.715L834.397 146.812V146.815Z" fill="#009649" stroke="white" stroke-width="2" stroke-linejoin="round"></path>
<path class="region" data-country-region="East Region" d="M861.764 166.313L860.963 163.384L859.593 163.309L860.623 167.074L861.764 166.312V166.313ZM858.793 162.854L856.662 161.638L855.405 159.508L854.985 157.149L848.558 159.133L851.305 169.176L851.877 171.268L851.613 173.59L855.301 171.456L856.975 170.998L857.239 168.677L856.4 166.432L856.739 162.741L858.793 162.854Z" fill="#009649" stroke="white" stroke-width="2" stroke-linejoin="round"></path>
<path class="region" data-country-region="East Region" d="M858.389 132.6L856.676 131.269L856.485 129.748L853.326 127.239L852.562 123.625L850.197 116.626L845.124 101.373L840.624 88.2111L840.131 89.6952L837.81 89.4311L836.633 90.878L836.219 95.939L836.905 98.4494L835.881 102.104L837.937 104.689L836.913 108.343L834.861 110.704L832.885 111.695L832.393 113.179L833.194 116.109L832.324 121.969L832.479 124.176L831.567 125.775L831.873 127.715L831.19 130.151L832.45 134.754L832.261 135.705L832.76 141.64L832.344 144.228L834.4 146.814L852.201 142.841L857.027 137.472L858.7 137.014L859.001 134.007L858.391 132.6L858.389 132.6Z" fill="#009649" stroke="white" stroke-width="2" stroke-linejoin="round"></path>
<path class="region" data-country-region="East Region" d="M848.559 159.132L848.445 158.713L833.685 162.303L822.695 164.862L825.523 180.955L826.97 182.133L823.626 185.522L825.453 187.27L826.593 186.508L832.067 181.861L837.617 178.317L839.138 178.126L840.013 177.212L841.649 177.439L842.789 176.677L844.882 176.104L846.326 174.809L847.696 174.884L850.814 173.131L851.613 173.587L851.877 171.266L851.305 169.173L848.557 159.13L848.559 159.132Z" fill="#009649" stroke="white" stroke-width="2" stroke-linejoin="round"></path>
<path class="region" data-country-region="1" d="M445.578 515.475L444.893 515.437L441.93 521.87L443.033 521.793L445.576 515.475H445.578ZM448.579 510.83L452.112 506.489L451.046 505.882L449.945 508.432L448.578 510.83H448.579ZM460.667 500.775L458.613 500.662L454.887 503.481L452.948 503.787L453.558 505.194L455.003 503.899L460.668 500.774L460.667 500.775ZM490.851 478.795L488.494 481.688L492.334 479.288L490.851 478.795ZM495.751 386.595L495.066 386.558L491.184 384.697L489.016 384.166L487.074 381.999L485.856 381.658L482.659 379.834L481.899 381.167L480.34 382.043L477.068 381.589L476.04 380.297L472.922 382.05L471.401 382.242L470.069 381.482L468.093 382.473L466.154 382.779L465.394 384.111L463.606 384.15L462.846 385.483L461.437 383.62L460.067 383.545L458.621 382.367L457.326 380.922L456.566 382.254L453.713 381.686L452.57 379.975L449.796 382.983L449.303 384.467L448.2 384.545L447.438 383.404L448.084 381.653L447.436 380.931L444.473 382.417L443.103 382.341L442.76 381.086L441.124 380.859L440.666 379.185L439.03 378.958L436.863 380.9L435.457 381.511L434.124 380.751L434.351 379.114L431.801 378.012L431.8 375.539L429.86 375.845L427.425 375.162L426.247 376.609L424.726 376.801L423.317 374.938L420.692 375.207L417.991 374.373L416.659 373.613L415.555 373.69L412.435 372.97L412.548 370.915L411.405 369.204L409.274 367.988L409.047 369.625L406.346 368.79L403.988 369.211L400.637 365.18L398.583 365.068L399.441 346.841L400.228 332.458L400.562 323.82L387.818 323.26L369.748 322.134L349.357 320.744L348.673 320.707L348.032 327.405L346.64 345.327L345.585 357.087L343.927 374.853L342.233 395.782L340.425 416.292L324.295 414.86L308.165 413.427L288.231 411.238L275.259 409.842L276.288 413.607L277.583 415.052L279.981 416.42L281.049 419.501L282.802 422.62L285.884 424.025L287.939 426.611L289.578 429.311L292.319 431.934L292.93 433.341L296.166 436.953L298.563 438.32L300.772 440.639L302.37 441.551L304.274 444.403L304.695 446.762L306.258 450.831L307.134 452.391L306.529 455.93L306.835 457.87L308.435 461.255L308.97 464.032L310.38 465.895L312.092 467.226L313.729 467.453L317.194 471.901L319.325 473.117L321.912 473.534L321.99 474.638L323.969 476.12L326.405 476.803L327.547 478.514L329.26 479.844L330.629 479.92L333.597 480.908L334.357 479.575L336.827 477.1L338.652 476.375L339.069 473.787L341.423 468.42L343.512 465.375L346.707 464.725L348.609 465.104L349.521 463.505L350.927 462.894L354.391 464.871L356.863 464.869L363.255 466.043L364.776 465.851L367.478 466.686L368.202 468.511L369.116 469.386L370.485 469.461L372.123 472.161L373.836 473.492L374.294 475.166L377.986 477.979L378.825 480.223L380.272 481.401L380.999 485.7L383.055 488.285L383.209 490.493L384.999 492.926L386.831 499.621L388.24 501.483L390.638 502.851L391.857 505.666L394.18 508.403L394.335 510.61L395.401 511.218L397.191 513.651L399.359 514.182L400.92 515.779L400.693 517.416L401.57 518.975L400.773 520.992L401.992 523.807L401.272 526.928L403.138 527.992L403.329 529.513L405.042 530.843L405.804 531.984L405.843 533.773L407.404 535.369L406.57 538.071L407.483 538.946L408.17 541.456L410.491 541.721L411.823 542.481L413.611 542.442L414.753 544.153L416.466 545.483L417.721 545.14L421.755 546.735L423.164 548.597L424.762 549.509L430.24 549.809L432.979 549.958L435.147 550.49L440.286 554.48L443.708 552.194L445.914 552.039L445.875 550.251L444.013 551.661L443.974 549.872L442.527 548.694L442.754 547.057L441.763 545.081L441.839 543.712L439.859 542.229L440.542 539.793L439.32 534.505L438.139 533.479L438.364 529.369L439.619 529.026L439.313 527.086L440.301 526.591L440.602 523.584L439.043 524.461L436.722 524.197L436.798 522.827L438.773 521.836L440.942 522.367L444.092 514.982L442.379 513.652L441.807 511.559L439.753 511.447L439.258 510.459L444.204 510.455L445.802 511.366L448.917 507.14L447.166 506.494L446.825 507.712L445.112 506.382L446.29 504.935L451.654 504.817L453.554 502.722L453.515 500.933L452.524 498.957L453.779 498.614L455.835 501.2L460.774 498.722L458.718 496.137L457.386 495.376L457.879 493.892L460.048 494.424L461.074 493.243L461.836 494.383L463.546 493.241L464.385 495.485L471.838 492.32L474.311 492.318L476.136 491.593L479.558 489.307L480.394 489.078L484.575 485.46L484.421 483.253L486.131 482.11L489.361 478.302L488.447 477.428L486.809 474.728L486.881 470.885L489.697 472.138L490.646 469.854L491.901 469.511L493.043 471.222L491.868 475.145L494.645 474.61L493.847 476.627L504.836 471.596L508.412 471.517L507.155 469.387L507.534 467.484L508.635 464.933L509.738 464.856L511.22 462.876L511.064 458.195L510.492 456.103L511.251 454.77L510.565 452.26L511.287 451.612L513.337 446.778L514.171 444.076L513.143 442.784L514.284 442.021L511.311 436.093L511.653 434.875L508.453 430.578L508.603 427.838L506.887 424.035L504.261 421.83L503.938 400.101L503.623 388.263L502.824 387.808L499.134 387.468L497.575 388.345L495.748 386.596L495.751 386.595Z" fill="#009649" stroke="white" stroke-width="2" stroke-linejoin="round"></path>
<path class="region" data-country-region="South Region" d="M547.406 474.325L548.888 472.345L544.966 471.169L543.141 471.894L543.218 472.998L546.567 474.555L547.404 474.326L547.406 474.325ZM589.007 457.091L587.94 456.483L586.798 454.772L585.883 451.424L583.522 449.372L582.417 446.976L584.124 440.887L584.047 439.783L566.131 440.864L548.634 441.831L550.079 440.535L549.088 438.559L549.429 437.341L548.819 435.934L550.492 435.476L551.327 432.774L550.602 430.949L552.198 429.387L552.537 425.696L553.639 423.145L555.045 422.535L556.679 420.288L557.819 419.526L558.312 418.042L560.818 412.409L557.506 410.167L557.352 407.959L556.057 406.514L555.979 405.411L557.157 403.964L556.091 403.356L556.469 401.453L557.229 400.121L555.554 398.105L542.469 398.764L532.693 399.19L520.027 399.734L503.936 400.091L504.259 421.82L506.885 424.024L508.601 427.828L508.451 430.567L511.65 434.864L511.309 436.082L514.282 442.011L513.141 442.773L514.169 444.065L513.335 446.767L511.285 451.601L510.563 452.249L511.249 454.759L510.489 456.092L511.062 458.185L511.218 462.865L509.736 464.845L510.384 465.567L509.853 467.736L508.142 468.879L509.133 470.855L510.958 470.13L516.359 469.326L521.038 469.169L524.158 469.89L530.742 472.585L533.329 473.001L538.503 473.833L541.051 472.462L541.507 471.662L540.63 470.103L540.972 468.885L543.367 467.779L543.671 467.246L546.295 466.977L545.65 468.728L549.226 468.649L550.443 468.99L550.065 470.893L551.587 470.702L552.273 473.212L556.497 473.855L557.219 473.207L558.324 475.603L556.538 478.115L558.403 479.179L561.371 480.167L563.958 480.584L565.897 480.278L568.447 481.379L570.726 477.382L574.035 477.151L576.736 477.985L576.358 479.888L577.5 481.599L580.085 479.543L579.665 477.184L580.728 475.318L579.545 471.819L581.677 473.035L582.932 472.692L585.443 474.478L585.938 475.466L588.488 476.568L588.869 477.138L591.19 477.402L593.361 480.407L594.693 481.167L597.014 481.431L599.902 478.841L597.961 476.674L596.285 474.659L593.661 474.928L591.796 473.865L590.275 474.056L589.817 472.382L587.382 471.699L586.24 469.988L587.646 469.378L590.799 464.467L591.713 465.341L593.195 463.361L591.178 462.564L591.061 459.672L588.362 461.31L587.679 463.747L586.576 463.824L583.531 461.734L584.214 459.298L582.349 458.235L581.589 459.567L579.726 460.977L577.368 461.398L573.982 460.525L572.269 459.194L572.648 457.291L575.878 453.484L578.883 453.785L580.825 455.952L584.515 456.292L585.543 457.584L589.005 457.086L589.007 457.091Z" fill="#009649" stroke="white" stroke-width="2" stroke-linejoin="round"></path>
<path class="region" data-country-region="North Region" d="M461.745 124.235L447.747 124.018L433.749 123.802L419.902 123.32L405.941 122.419L399.094 122.044L385.401 121.295L374.863 120.581L357.63 119.226L349.983 118.395L348.327 138.639L348.061 138.487L347.345 146.555L345.914 162.688L344.218 181.144L360.347 182.576L373.624 183.44L384.432 184.306L400.179 185.168L413.455 186.032L430.878 186.435L434.57 189.248L438.3 191.375L439.403 191.298L440.733 189.585L443.739 189.886L446.211 189.884L449.254 189.501L452.033 191.439L456.218 192.767L456.98 193.907L458.617 194.134L458.694 195.238L460.103 197.101L462.006 197.479L461.471 194.702L459.529 192.535L460.745 190.403L461.846 187.852L461.655 186.331L462.566 184.733L462.146 182.374L460.776 182.298L461.23 179.026L460.543 176.515L462.597 176.628L462.965 162.359L462.919 153.151L463.058 138.045L461.383 136.03L459.48 135.651L456.966 131.391L457.155 130.44L460.311 128.002L461.753 124.234L461.745 124.235Z" fill="#009649" stroke="white" stroke-width="2" stroke-linejoin="round"></path>
<path class="region" data-country-region="1" d="M492.77 325.568L492.799 314.99L480.703 315.153L469.024 315.201L449.394 314.951L433.759 314.508L418.125 314.065L410.174 313.767L394.427 312.905L378.679 312.043L366.355 311.369L350.225 309.937L349.359 320.748L369.749 322.138L387.82 323.264L400.564 323.824L400.23 332.461L399.443 346.845L398.584 365.072L400.638 365.184L403.989 369.215L406.348 368.794L409.049 369.629L409.276 367.992L411.407 369.208L412.55 370.919L412.437 372.974L415.557 373.694L416.66 373.616L417.993 374.377L420.694 375.211L423.318 374.942L424.728 376.805L426.249 376.613L427.426 375.166L429.862 375.849L431.801 375.543L431.803 378.016L434.353 379.118L434.126 380.754L435.458 381.515L436.865 380.904L439.031 378.962L440.668 379.189L441.125 380.863L442.762 381.09L443.105 382.345L444.474 382.421L447.438 380.934L448.085 381.656L447.44 383.408L448.202 384.548L449.305 384.471L449.798 382.987L452.572 379.979L453.714 381.69L456.567 382.258L457.327 380.926L458.622 382.371L460.069 383.549L461.438 383.624L462.848 385.487L463.608 384.154L465.396 384.115L466.156 382.783L468.095 382.476L470.071 381.485L471.403 382.245L472.924 382.054L476.042 380.3L477.07 381.593L480.342 382.047L481.901 381.17L482.661 379.838L485.858 381.661L487.076 382.003L489.017 384.17L491.186 384.701L495.068 386.562L495.753 386.599L495.858 377.125L496.185 358.594L496.139 349.386L494.838 340.522L492.771 325.57L492.77 325.568Z" fill="#009649" stroke="white" stroke-width="2" stroke-linejoin="round"></path>
<path class="region" data-country-region="North Region" d="M462 197.483L460.097 197.105L458.688 195.242L458.611 194.138L456.974 193.911L456.212 192.77L452.027 191.443L449.248 189.505L446.206 189.888L443.733 189.89L440.727 189.589L439.397 191.302L438.294 191.379L434.564 189.251L430.872 186.439L413.449 186.036L400.173 185.172L384.426 184.31L373.618 183.444L360.341 182.58L344.211 181.148L342.364 199.873L341.234 213.002L340.103 223.657L352.124 224.864L363.613 225.767L372.248 226.102L370.67 247.449L381.478 248.315L391.749 248.877L412.024 249.848L429.294 250.518L439.451 250.662L453.298 251.144L463.454 251.288L480.495 251.121L478.897 250.209L478.972 248.839L475.393 243.972L474.363 240.206L473.22 238.495L473.296 237.126L471.583 235.795L472.076 234.311L471.882 230.316L471.502 229.746L471.423 226.169L470.775 225.447L471.458 223.011L470.24 222.67L470.657 220.082L468.145 218.295L467.99 216.088L468.444 212.816L467.416 211.523L467.147 208.898L465.586 207.302L465.243 206.047L464.101 204.335L464.213 202.281L463.337 200.721L463.486 197.982L462.003 197.489L462 197.483Z" fill="#009649" stroke="white" stroke-width="2" stroke-linejoin="round"></path>
<path class="region" data-country-region="North Region" d="M543.514 241.509L541.687 239.76L539.175 237.974L538.565 236.567L535.103 237.065L516.5 238.109L508.93 238.382L501.627 238.806L494.209 238.813L486.791 238.82L473.211 238.489L474.353 240.201L475.383 243.966L478.963 248.834L478.887 250.203L480.486 251.115L482.58 253.016L484.445 254.079L485.585 253.317L487.831 254.951L487.453 256.854L486.502 256.664L485.172 258.377L484.184 261.346L487.306 264.539L488.64 267.772L492.103 269.749L492.231 285.006L492.317 296.002L492.79 314.989L492.762 325.567L506.913 325.517L520.949 325.048L539.66 324.423L553.848 323.688L569.139 322.876L570.778 325.576L570.817 327.364L569.905 328.963L568.499 329.573L566.561 332.353L565.916 334.104L577.098 333.067L578.047 330.784L578.921 329.87L577.246 327.854L579.185 327.548L578.575 326.141L580.02 324.846L579.333 322.336L580.436 322.258L581.54 322.181L582.528 319.213L584.393 320.276L585.115 319.628L586.102 316.66L585.682 314.301L586.099 311.714L585.148 311.524L583.701 310.346L582.561 311.108L578.867 305.822L579.664 303.805L579.891 302.168L578.519 299.619L577.718 296.69L576.235 296.197L574.711 293.916L572.694 293.118L571.247 291.94L569.764 291.447L568.013 290.802L563.977 286.734L562.986 284.757L564.922 279.505L565.719 277.487L565.565 275.28L566.628 273.414L565.6 272.122L561.415 270.794L558.982 272.585L557.65 271.825L557.04 270.418L556.313 266.119L554.675 263.419L550.831 260.873L549.688 259.162L545.349 255.627L543.596 252.508L543.557 250.72L542.946 249.313L542.297 246.118L542.598 243.111L543.51 241.513L543.514 241.509Z" fill="#009649" stroke="white" stroke-width="2" stroke-linejoin="round"></path>
<path class="region" data-country-region="North Region" d="M492.8 314.982L492.326 295.996L492.24 284.999L492.113 269.742L488.65 267.766L487.316 264.532L484.194 261.339L485.181 258.37L486.512 256.657L487.462 256.847L487.841 254.944L485.595 253.31L484.455 254.073L482.589 253.009L480.495 251.108L463.454 251.276L453.298 251.132L439.451 250.649L429.294 250.506L412.024 249.835L391.749 248.864L381.478 248.302L370.67 247.437L369.769 261.401L369.093 271.253L368.192 285.218L367.179 301.238L366.351 311.36L378.675 312.034L394.423 312.896L410.17 313.757L418.121 314.055L433.756 314.498L449.39 314.941L469.02 315.191L480.699 315.143L492.795 314.98L492.8 314.982Z" fill="#009649" stroke="white" stroke-width="2" stroke-linejoin="round"></path>
<path class="region" data-country-region="North Region" d="M553.862 195.497L553.899 194.812L552.794 192.416L548.57 191.773L547.238 191.013L545.79 187.362L544.834 182.226L546.087 179.409L545.744 178.154L544.26 177.661L543.306 174.998L533.264 175.273L518.125 175.819L502.987 176.365L487.733 176.492L472.898 176.504L462.589 176.628L460.535 176.515L461.221 179.026L460.767 182.298L462.137 182.374L462.557 184.732L461.646 186.331L461.837 187.852L460.736 190.403L459.52 192.535L461.462 194.702L461.997 197.479L463.481 197.972L463.331 200.712L464.207 202.271L464.095 204.326L465.237 206.037L465.581 207.292L467.142 208.889L467.411 211.514L468.438 212.806L467.985 216.078L468.139 218.286L470.651 220.072L470.234 222.66L471.452 223.001L470.769 225.437L471.417 226.159L471.496 229.736L471.876 230.307L472.07 234.301L471.577 235.785L473.29 237.116L473.214 238.485L486.795 238.816L494.213 238.809L501.631 238.802L508.934 238.378L516.504 238.105L535.107 237.061L538.568 236.563L539.179 237.97L541.69 239.756L543.517 241.505L544.354 241.276L544.046 236.862L547.278 235.528L548.153 234.614L548.454 231.608L550.506 229.247L550.39 226.355L549.779 224.948L548.181 224.036L547.989 222.515L548.406 219.927L549.432 218.746L553.996 218.172L555.592 216.611L558.102 215.924L559.546 214.629L560 211.356L561.596 209.795L562.392 205.304L561.667 203.478L557.823 200.933L556.869 198.27L553.558 196.027L553.862 195.494V195.497Z" fill="#009649" stroke="white" stroke-width="2" stroke-linejoin="round"></path>
<path class="region" data-country-region="1" d="M577.111 333.062L565.928 334.099L566.574 332.348L568.512 329.569L569.918 328.958L570.83 327.359L570.791 325.571L569.152 322.871L553.861 323.683L539.673 324.419L520.962 325.044L506.925 325.512L492.774 325.562L494.841 340.514L496.142 349.378L496.188 358.586L495.861 377.117L495.756 386.591L497.583 388.34L499.142 387.463L502.832 387.803L503.631 388.258L503.946 400.096L520.037 399.74L532.703 399.196L542.479 398.77L555.564 398.111L555.409 395.904L556.55 395.142L556.395 392.935L554.948 391.757L555.708 390.424L555.821 388.37L554.108 387.039L555.324 384.908L554.448 383.348L556.918 380.873L556.308 379.466L556.915 378.401L555.887 377.108L558.967 376.04L559.309 374.822L558.128 373.796L559.573 372.5L560.218 370.749L564.096 367.663L564.282 364.239L563.939 362.984L564.47 360.815L566.144 360.357L565.952 358.836L567.928 357.845L569.372 356.549L568.496 354.99L569.788 353.962L570.585 351.944L571.803 352.286L572.03 350.649L571.305 348.823L571.569 346.502L572.747 345.055L572.822 343.685L574.647 342.96L573.885 341.819L574.493 340.753L573.768 338.927L576.582 337.707L577.608 336.527L576.731 334.967L578.252 334.775L577.11 333.064L577.111 333.062Z" fill="#009649" stroke="white" stroke-width="2" stroke-linejoin="round"></path>
<path class="region" data-country-region="West Region" d="M344.209 181.145L345.905 162.689L347.337 146.556L348.052 138.488L336.982 137.471L325.379 136.149L314.042 134.979L300.803 133.43L284.445 131.161L271.358 129.346L255.151 126.812L243.166 124.919L241.35 135.536L238.396 151.862L236.163 165.067L234.082 178.005L232.303 187.938L228.822 208.905L234.529 210.042L250.47 212.425L260.552 213.939L272.954 215.717L283.036 217.23L293.004 218.325L303.086 219.838L313.054 220.933L323.021 222.028L340.103 223.649L341.234 212.994L342.364 199.865L344.212 181.14L344.209 181.145Z" fill="#009649" stroke="white" stroke-width="2" stroke-linejoin="round"></path>
<path class="region" data-country-region="West Region" d="M232.306 187.935L211.766 184.338L197.498 181.497L185.818 179.072L183.773 188.852L179.682 208.413L177.183 221.467L173.811 237.907L169.72 257.468L166.501 273.642L164.456 283.422L174.918 285.506L190.403 288.689L198.164 289.938L211.214 292.438L224.415 294.671L234.764 296.336L248.117 298.303L249.516 287.8L252.315 269.267L254.13 256.177L256.778 240.387L258.593 227.296L260.559 213.939L250.477 212.426L234.536 210.042L228.829 208.906L232.31 187.938L232.306 187.935Z" fill="#009649" stroke="white" stroke-width="2" stroke-linejoin="round"></path>
<path class="region" data-country-region="West Region" d="M72.1242 57.7171L71.1363 58.2121L69.1195 57.4148L68.0143 55.0188L66.1892 55.7438L62.3844 54.9865L61.0894 53.5415L60.9398 56.2809L60.4087 58.4499L59.1538 58.7933L59.1929 60.5817L57.9771 62.7135L58.3977 65.0723L57.2201 66.5192L56.2714 68.8027L56.7663 69.7908L55.3216 71.0862L55.3989 72.1897L54.411 75.158L51.5247 80.221L50.9173 81.2873L49.4375 85.7408L43.2872 100.243L42.0715 102.375L38.4252 108.77L37.6652 110.103L36.2959 110.027L33.2198 116.042L30.712 119.202L30.4479 121.524L31.4387 123.5L30.9076 125.669L30.1476 127.001L29.0091 130.237L29.0111 132.71L28.48 134.879L29.9657 137.843L42.1038 141.943L54.1274 145.623L61.9619 147.975L73.9855 151.656L81.9755 153.742L93.8847 157.003L102.408 159.393L114.051 162.504L125.427 165.458L139.657 168.984L144.282 149.727L148.412 131.951L151.147 127.154L150.804 125.899L152.285 123.919L151.295 121.942L148.479 120.689L149.388 116.617L151.25 115.208L153.492 111.895L155.051 111.018L156.952 108.924L157.634 106.488L159.801 104.546L161.661 100.662L165.461 96.4742L165.954 94.99L165.534 92.6312L163.592 90.4642L162.526 89.8567L161.65 88.2972L161.762 86.2427L146.581 82.5269L130.863 78.5069L129.304 79.3835L125.651 78.3592L121.961 78.0197L120.82 78.7818L116.597 78.139L113.554 78.5225L111.729 79.2475L108.039 78.908L106.173 77.8446L105.337 78.0735L101.61 78.4188L99.5928 77.6215L98.0719 77.8132L96.548 75.5317L92.5144 73.937L89.1282 73.0653L86.1999 73.8666L81.3691 74.2892L77.7912 71.8952L76.0405 71.2495L75.2785 70.1088L76.1862 63.5637L75.5367 60.3684L73.3282 58.0497L72.1105 57.7083L72.1242 57.7171Z" fill="#009649" stroke="white" stroke-width="2" stroke-linejoin="round"></path>
<path class="region" data-country-region="West Region" d="M349.353 320.745L350.219 309.934L337.361 308.956L327.66 308.013L314.954 306.768L295.704 304.616L283.15 303.104L273.601 301.895L257.508 299.778L248.111 298.303L245.918 313.296L244.063 324.598L242.361 335.633L240.169 350.627L238.733 361.814L236.878 373.116L235.176 384.151L233.589 395.606L231.396 410.599L230.147 418.362L231.516 418.438L245.288 420.289L246.763 410.89L265.708 413.574L277.578 415.048L276.283 413.603L275.254 409.837L288.226 411.233L308.16 413.423L324.29 414.855L340.42 416.287L342.228 395.777L343.922 374.848L345.58 357.082L346.635 345.322L348.027 327.4L348.668 320.702L349.352 320.739L349.353 320.745Z" fill="#009649" stroke="white" stroke-width="2" stroke-linejoin="round"></path>
<path class="region" data-country-region="West Region" d="M164.446 283.421L166.491 273.64L169.71 257.466L173.801 237.905L177.173 221.465L179.672 208.412L183.763 188.851L185.808 179.071L168.421 175.51L159.861 173.804L139.657 168.99L125.427 165.464L114.051 162.509L102.408 159.399L93.8847 157.009L90.9308 168.388L86.7974 183.687L84.7493 190.995L80.3499 206.142L77.0518 218.74L85.3939 231.974L91.3739 240.682L100.135 253.802L109.239 268.176L118.761 282.437L125.236 292.134L133.312 305.216L137.883 312.061L145.653 323.202L146.221 320.348L147.513 319.32L147.967 316.048L147.355 312.168L148.303 309.884L147.997 307.944L148.11 305.89L148.984 304.976L148.031 302.313L148.979 300.029L152.174 299.38L154.039 300.443L155.408 300.518L157.047 303.219L158.835 303.18L161.076 299.867L164.448 283.427L164.446 283.421Z" fill="#009649" stroke="white" stroke-width="2" stroke-linejoin="round"></path>
<path class="region" data-country-region="West Region" d="M370.666 247.438L372.245 226.09L363.609 225.756L352.121 224.853L340.099 223.645L323.018 222.024L313.05 220.929L303.082 219.835L293 218.321L283.032 217.226L272.95 215.713L260.548 213.935L258.582 227.293L256.768 240.383L254.119 256.173L252.305 269.263L249.505 287.796L248.107 298.299L257.504 299.774L273.597 301.891L283.146 303.1L295.701 304.612L314.95 306.764L327.657 308.009L337.357 308.952L350.215 309.93L366.345 311.363L367.173 301.241L368.187 285.221L369.087 271.256L369.763 261.404L370.664 247.44L370.666 247.438Z" fill="#009649" stroke="white" stroke-width="2" stroke-linejoin="round"></path>
<path class="region" data-country-region="West Region" d="M67.6545 347.923L68.3812 352.222L69.4092 353.515L70.6641 353.171L69.1402 350.89L67.6545 347.925V347.923ZM71.1463 339.321L71.4896 340.576L71.3771 342.63L74.3827 342.932L73.5064 341.372L71.1463 339.32V339.321ZM48.1162 320.887L45.2631 320.318L45.4177 322.526L46.3312 323.4L48.4233 322.828L48.1172 320.888L48.1162 320.887ZM51.9581 320.959L50.6661 321.987L51.161 322.976L53.4438 323.925L55.0029 323.048L51.9581 320.958V320.959ZM145.649 323.199L137.879 312.057L133.309 305.213L125.233 292.13L118.758 282.433L109.235 268.173L100.131 253.798L91.3702 240.678L85.3901 231.97L77.048 218.736L80.3461 206.139L84.7456 190.991L86.7937 183.684L90.9271 168.384L93.8809 157.005L81.9717 153.744L73.9817 151.658L61.9581 147.977L54.1236 145.625L42.1 141.945L29.9619 137.845L28.8234 141.081L27.7974 142.262L29.0924 143.707L29.2088 146.599L28.6034 150.137L26.1347 155.086L25.1468 155.581L25.2632 158.473L21.5024 164.45L20.7033 163.994L16.7519 168.449L16.8683 171.341L16.2609 172.407L19.0416 176.819L21.4066 183.818L21.3714 186.976L20.6515 190.097L19.3213 191.81L18.5242 193.827L18.6826 200.98L17.6566 202.161L18.3432 204.671L20.4393 209.045L22.3837 213.686L23.7931 215.548L25.2045 219.884L24.7878 222.472L22.8502 225.252L24.5237 224.794L25.8187 226.239L26.924 228.635L27.8747 228.825L29.6646 231.258L31.2236 230.381L30.4617 229.24L31.9044 225.472L33.5779 225.014L35.1018 227.295L37.6516 228.397L39.0963 227.102L39.9726 228.661L36.9298 229.045L35.9018 227.752L32.5548 228.668L33.4703 232.016L32.5959 232.93L33.6239 234.222L34.6147 236.198L34.2362 238.101L33.2101 239.282L32.3338 237.723L30.8872 236.545L31.4154 231.902L29.4758 232.209L29.2117 234.53L27.6928 237.195L28.6063 238.07L28.5711 241.228L27.6996 244.615L30.405 250.396L31.7371 251.156L33.7911 251.269L34.8191 252.561L35.2025 255.605L34.2538 257.888L32.8091 259.184L31.8956 258.309L30.9077 261.277L30.5683 264.969L31.0261 266.643L32.5871 268.239L33.8439 270.369L34.2645 272.728L35.4451 273.754L35.181 276.076L36.5523 278.624L37.0873 281.402L38.5339 282.58L40.3639 286.801L41.696 287.561L42.1909 288.55L40.7864 291.632L42.1958 293.495L44.4415 295.129L44.3662 296.499L42.5431 299.697L43.1534 301.104L42.3562 303.121L42.6995 304.376L41.0661 306.623L43.1602 308.523L43.3519 310.045L49.3251 311.333L51.3419 312.131L53.169 313.879L55.6044 314.562L57.6584 314.674L60.1702 316.461L62.6075 319.617L62.8765 322.242L67.3679 325.51L69.7652 326.878L73.9886 327.521L75.2454 329.651L75.5144 332.276L74.7173 334.293L76.3154 335.205L77.4559 334.443L80.1202 335.962L81.6441 338.244L84.5001 341.285L88.1943 346.571L90.3676 352.048L90.3715 356.995L89.4971 357.908L89.3475 360.648L90.7941 361.826L90.7589 364.984L101.528 366.534L114.614 368.349L133.864 370.502L134.852 370.007L137.287 370.689L137.895 369.623L139.339 368.328L139.604 366.006L138.576 364.714L137.092 364.221L136.064 362.928L137.013 360.645L136.592 358.286L137.123 356.117L138.644 355.925L140.962 353.716L142.556 349.681L142.781 345.572L145.214 343.782L145.974 342.449L148.636 341.496L151.184 340.124L151.374 339.173L147.871 335.409L148.098 333.773L146.991 328.903L146.192 328.447L145.238 325.784L145.655 323.197L145.649 323.199Z" fill="#009649" stroke="white" stroke-width="2" stroke-linejoin="round"></path>
<path class="region" data-country-region="West Region" d="M248.112 298.302L234.758 296.335L224.41 294.67L211.208 292.437L198.159 289.937L190.398 288.688L174.913 285.505L164.45 283.421L161.078 299.861L158.837 303.174L157.049 303.213L155.41 300.513L154.041 300.437L152.176 299.374L148.981 300.024L148.033 302.307L148.986 304.97L148.112 305.884L147.999 307.938L148.306 309.879L147.357 312.162L147.969 316.042L147.515 319.315L146.223 320.343L145.655 323.197L145.238 325.784L146.192 328.447L146.991 328.903L148.098 333.773L147.871 335.409L151.374 339.173L151.184 340.124L148.636 341.496L145.974 342.45L145.214 343.782L142.781 345.572L142.556 349.681L140.962 353.716L138.644 355.925L137.123 356.117L136.592 358.286L137.013 360.645L136.064 362.928L137.092 364.221L138.576 364.714L139.604 366.006L139.339 368.328L137.895 369.623L137.287 370.689L134.852 370.007L133.864 370.502L131.812 372.862L131.434 374.765L145.254 383.352L158.803 391.787L172.506 399.957L186.36 407.862L193.667 412.384L194.618 412.573L213.678 415.677L230.151 418.364L231.4 410.601L233.593 395.608L235.18 384.153L236.882 373.118L238.737 361.816L240.172 350.629L242.365 335.635L244.067 324.6L245.922 313.298L248.115 298.305L248.112 298.302Z" fill="#009649" stroke="white" stroke-width="2" stroke-linejoin="round"></path>
<path class="region" data-country-region="West Region" d="M94.5321 14.7089L93.5814 14.5191L91.5294 16.8799L91.3396 17.8308L92.8635 20.1123L92.2561 21.1787L92.5251 23.8036L93.553 25.096L95.0749 24.9043L95.1503 23.5346L94.1223 22.2422L92.8674 22.5856L93.3584 18.6282L92.4449 17.7535L93.8895 16.4582L94.535 14.707L94.5321 14.7089ZM89.8119 10.6038L88.5922 7.78911L87.7559 8.01805L88.0249 10.6429L89.8128 10.6038H89.8119ZM92.8899 7.0622L91.9392 6.8724L90.2285 8.01511L92.3598 9.23119L94.1849 8.50624L92.8899 7.06123V7.0622ZM96.0804 1.46608L95.1317 3.74953L96.1998 6.83034L97.6835 7.32342L97.7256 11.5851L96.5851 12.3472L95.1806 15.43L96.59 17.2928L96.099 21.2502L97.5847 24.2145L95.341 25.054L93.2518 28.0995L93.1765 29.4692L92.2649 31.0678L91.6223 35.2923L91.814 36.8137L89.3815 38.604L88.3154 37.9965L87.2894 39.1773L84.4382 41.0822L83.9805 39.4082L82.1926 39.4474L81.5822 38.0405L82.9124 36.3274L84.3189 35.7169L84.1693 38.4563L86.4502 36.932L88.1237 36.4742L90.0994 33.0099L89.3747 31.1843L89.6387 28.8626L92.4155 28.3275L92.4507 25.1694L91.6516 24.7135L88.6108 27.5703L87.5848 28.7511L84.6564 29.5524L87.3158 26.1252L88.7995 26.6183L90.2442 25.323L90.4711 23.6862L89.9732 20.2239L90.3146 19.0058L87.0057 19.2367L85.8633 17.5256L83.6568 17.6802L79.3571 15.9338L77.9105 14.7559L73.3438 12.8569L71.2879 10.2712L69.1566 9.05509L67.3667 6.62195L65.6932 7.07981L63.7556 9.85929L63.7947 11.6477L63.3037 15.6051L64.7894 18.5695L65.2472 20.2434L64.8706 24.6196L64.1136 28.4253L64.763 31.6206L63.8534 35.6925L65.8702 36.4898L65.6805 37.4408L67.2415 39.0374L64.6173 39.3065L63.4397 40.7534L63.0983 41.9715L65.4956 43.3392L63.9414 49.1623L60.8615 50.2307L62.2327 52.7793L65.8086 52.7L66.685 54.2595L68.739 54.372L70.3391 57.7571L72.1271 57.7179L73.3448 58.0594L75.5533 60.378L76.2028 63.5733L75.2951 70.1184L76.057 71.2592L77.8078 71.9049L81.3856 74.2989L86.2164 73.8763L89.1448 73.075L92.5309 73.9467L96.5646 75.5414L98.0884 77.8229L99.6094 77.6311L101.626 78.4285L105.354 78.0831L106.19 77.8542L108.055 78.9177L111.745 79.2572L113.571 78.5322L116.613 78.1487L120.837 78.7915L121.977 78.0293L125.668 78.3688L129.321 79.3932L130.88 78.5165L146.598 82.5366L161.779 86.2523L161.092 83.7419L162.27 82.2949L162.078 80.7736L161.124 78.1105L162.223 73.0867L166.316 55.999L169.652 42.717L171.245 36.209L174.428 23.1931L157.497 18.8327L142.467 14.8508L124.47 9.88179L115.263 7.45452L103.506 3.92661L96.0863 1.46021L96.0804 1.46608Z" fill="#009649" stroke="white" stroke-width="2" stroke-linejoin="round"></path>
<path class="region" data-country-region="West Region" d="M187.852 26.2662L174.421 23.1962L171.238 36.2121L169.645 42.72L166.309 56.002L162.216 73.0898L161.117 78.1136L162.071 80.7766L162.263 82.2979L161.085 83.7449L161.772 86.2553L161.659 88.3099L162.536 89.8694L163.602 90.4769L165.543 92.6439L165.964 95.0027L165.471 96.4869L161.671 100.675L159.811 104.558L157.644 106.5L156.962 108.936L155.061 111.031L153.502 111.908L151.26 115.22L149.398 116.63L148.488 120.702L151.304 121.955L152.295 123.931L150.813 125.912L151.157 127.167L148.422 131.964L144.291 149.74L139.667 168.997L159.87 173.811L168.431 175.517L185.818 179.078L197.498 181.503L211.766 184.344L232.306 187.941L234.085 178.008L236.166 165.07L238.399 151.865L241.353 135.539L239.297 132.954L238.229 129.873L236.175 129.76L234.997 131.207L234.619 133.11L231.917 132.276L230.244 132.734L229.33 131.859L225.907 131.672L223.89 130.875L222.369 131.066L221.609 132.399L216.891 130.767L214.343 132.139L212.707 131.912L211.945 130.771L212.172 129.134L211.447 127.309L212.169 126.661L210.72 123.01L208.399 122.746L207.371 121.453L206.646 119.628L207.824 118.181L207.023 115.252L204.775 111.144L204.773 108.671L204.846 104.828L202.79 102.242L199.939 104.147L196.44 105.33L195.031 103.467L193.699 102.707L195.066 100.309L194.494 98.2166L195.634 97.4545L197.459 96.7295L197.572 94.675L196.847 92.8494L197.948 90.2988L197.909 88.5104L199.087 87.0635L200.796 83.4475L201.744 81.164L201.249 80.1759L198.092 80.1407L197.634 78.4667L194.246 75.1218L194.207 73.3334L190.321 66.5261L189.863 64.8521L187.618 63.2183L186.893 61.3927L185.18 60.0621L186.739 59.1855L185.597 57.4744L186.737 56.7123L186.583 54.5051L185.326 52.3753L185.401 51.0056L183.42 47.0531L187.852 26.274L187.852 26.2662Z" fill="#009649" stroke="white" stroke-width="2" stroke-linejoin="round"></path>
<path class="region" data-country-region="North Region" d="M452.708 58.3402L441.182 58.122L431.862 57.7493L416.227 57.3061L403.902 56.632L394.053 55.956L385.151 55.4687L372.711 54.3759L356.163 53.0591L354.128 75.2059L352.997 85.861L351.339 103.628L349.982 118.391L357.629 119.222L374.862 120.577L385.4 121.291L399.093 122.04L405.94 122.415L419.901 123.316L433.748 123.798L447.746 124.014L461.744 124.231L461.665 120.654L461.091 116.089L459.301 113.656L458.803 110.193L458.308 109.205L458.305 104.259L457.77 101.481L457.69 97.9044L457.536 95.6973L457.798 90.9024L456.92 86.8697L455.851 83.7889L453.791 76.2566L454.09 70.7769L453.669 68.4181L454.504 65.7159L452.672 59.0211L452.709 58.3363L452.708 58.3402Z" fill="#009649" stroke="white" stroke-width="2" stroke-linejoin="round"></path>
<path class="region" data-country-region="West Region" d="M356.161 53.0599L344.824 51.8898L335.389 51.0993L319.83 49.2864L310.7 47.9627L298.145 46.4512L286.009 44.8252L272.389 42.7061L261.242 40.585L248.991 38.5413L230.767 35.209L215.549 32.1781L200.064 28.9956L187.851 26.267L183.418 47.046L185.4 50.9985L185.324 52.3682L186.581 54.4981L186.736 56.7052L185.595 57.4673L186.738 59.1785L185.179 60.0551L186.891 61.3856L187.616 63.2112L189.862 64.845L190.319 66.519L194.205 73.3263L194.245 75.1147L197.633 78.4597L198.09 80.1336L201.248 80.1689L201.743 81.157L200.794 83.4404L199.085 87.0564L197.907 88.5034L197.947 90.2918L196.845 92.8423L197.57 94.6679L197.458 96.7224L195.632 97.4474L194.492 98.2095L195.064 100.302L193.697 102.7L195.029 103.46L196.438 105.323L199.937 104.14L202.788 102.235L204.844 104.821L204.772 108.664L204.774 111.137L207.021 115.244L207.822 118.174L206.645 119.621L207.37 121.446L208.397 122.739L210.718 123.003L212.167 126.654L211.445 127.302L212.17 129.127L211.943 130.764L212.705 131.905L214.341 132.132L216.889 130.76L221.608 132.392L222.368 131.059L223.888 130.868L225.905 131.665L229.329 131.852L230.242 132.726L231.916 132.269L234.617 133.103L234.996 131.2L236.173 129.753L238.227 129.866L239.295 132.947L241.351 135.532L243.168 124.915L255.152 126.808L271.359 129.342L284.446 131.157L300.804 133.426L314.044 134.975L325.381 136.145L336.984 137.467L348.054 138.484L348.32 138.636L349.976 118.392L351.332 103.629L352.99 85.8618L354.122 75.2067L356.156 53.0599H356.161Z" fill="#009649" stroke="white" stroke-width="2" stroke-linejoin="round"></path>
<path class="region" data-country-region="North Region" d="M562.655 77.2643L559.231 77.0774L558.091 77.8395L557.025 77.232L555.349 75.2166L553.98 75.1413L548.845 76.0971L545.003 76.0247L544.316 73.5143L542.947 73.439L540.818 74.6961L538.081 77.0197L535.837 77.8591L533.783 77.7466L531.918 76.6831L530.927 74.7069L528.074 74.1385L526.969 71.7425L525.333 71.5155L523.089 72.3549L523.281 73.8772L522.026 74.2206L519.664 69.6948L517.191 69.6968L517.988 67.6794L514.602 66.8077L513.27 66.0476L509.428 65.9752L506.5 66.7764L505.892 67.8428L502.279 68.6069L500.489 66.1738L495.43 65.7599L494.135 64.3149L491.777 64.7356L490.293 64.2425L488.466 62.4942L488.311 60.2871L486.823 54.8475L486.706 51.9555L484.575 50.7394L481.988 50.3226L482.109 58.1592L481.805 58.6924L472.333 58.5867L452.703 58.3372L452.666 59.0221L454.498 65.7169L453.663 68.4191L454.084 70.7779L453.785 76.2576L455.846 83.7898L456.914 86.8706L457.792 90.9034L457.53 95.6982L457.684 97.9054L457.764 101.482L458.299 104.26L458.302 109.206L458.797 110.194L459.295 113.657L461.085 116.09L461.659 120.655L461.739 124.232L460.296 128L457.141 130.438L456.951 131.389L459.465 135.649L461.368 136.028L463.043 138.043L462.904 153.149L462.95 162.357L462.583 176.626L472.892 176.503L487.727 176.49L502.981 176.363L518.119 175.817L533.258 175.271L543.3 174.996L543.067 169.213L542.152 165.865L540.058 163.964L538.193 162.901L536.405 162.94L533.512 160.583L531.759 157.464L529.399 155.411L526.546 154.843L524.604 152.676L521.751 152.108L518.21 149.029L518.816 145.49L518.166 142.295L518.888 141.647L518.582 139.707L518.846 137.385L519.985 134.15L518.461 131.869L516.558 131.49L516.442 128.598L517.887 127.303L519.025 124.067L523.964 121.59L524.99 120.409L524.714 107.891L525.969 107.548L527.184 105.416L527.221 104.731L531.517 101.531L535.584 97.4945L542.499 89.0797L545.806 86.3756L549.227 84.0892L555.54 81.6864L562.65 77.2662L562.655 77.2643Z" fill="#009649" stroke="white" stroke-width="2" stroke-linejoin="round"></path>
<path class="region" data-country-region="East Region" d="M870.204 165.12L869.217 165.615L867.698 168.28L872.033 166.868L870.205 165.12H870.204ZM858.692 137.011L857.019 137.469L852.193 142.838L834.392 146.811L822.145 149.714L821.892 164.399L822.691 164.854L833.682 162.295L848.441 158.706L848.555 159.124L854.982 157.14L855.403 159.499L856.66 161.629L858.791 162.845L859.59 163.301L860.96 163.376L861.761 166.305L862.864 166.228L864.726 164.818L864.383 163.563L866.245 162.153L867.727 160.173L868.871 164.357L870.886 162.682L871.798 161.083L874.612 159.863L878.148 157.995L878.832 158.032L877.802 154.267L876.435 156.665L873.584 158.57L870.845 158.42L869.094 157.774L867.875 154.959L866.354 155.151L865.819 152.374L862.811 149.599L859.768 149.983L858.551 149.641L858.815 147.32L860.448 145.073L859.953 144.085L862.538 142.029L862.08 140.355L860.788 141.383L859.608 140.357L858.692 137.009V137.011Z" fill="#009649" stroke="white" stroke-width="2" stroke-linejoin="round"></path>
<path class="region" data-country-region="West Region" d="M0.710051 565.693L0.711029 565.137L0.49585 565.219L0.701248 565.693H0.710051ZM6.4837 565.405L6.78887 565.069L6.53554 564.894L6.48468 565.405H6.4837ZM10.8675 566.419L11.1257 566.295L11.0406 566.251L10.8665 566.419H10.8675ZM7.26813 564.478L7.23292 564.007L6.97666 564.003L7.26813 564.479V564.478ZM14.8512 565.845L14.7212 565.928L14.7632 565.971L14.8503 565.844L14.8512 565.845ZM8.93381 564.292L9.0727 563.653L8.94359 563.693L8.94262 564.291L8.93381 564.292ZM18.3293 562.013L16.3634 562.323L12.2446 565.844L13.7842 565.741L18.6061 563.599L18.3332 562.013H18.3293ZM27.9087 561.533L27.9557 561.278L27.7865 561.19L27.9087 561.534V561.533ZM25.0615 560.588L22.8745 561.064L23.0867 563.718L21.1071 564.582L26.5961 563.434L27.1898 561.179L25.4694 561.833L25.0635 560.587L25.0615 560.588ZM32.136 561.69L31.3702 561.463L31.8758 561.899L32.136 561.69ZM33.6736 561.716L32.4392 561.439L32.2651 561.607L33.6736 561.717V561.716ZM29.4697 560.15L28.2285 560.257L30.3138 560.762L29.4697 560.15ZM34.6644 561.22L34.5392 561.047L34.0668 561.167L34.6644 561.22ZM31.3115 559.839L30.8449 559.617L30.8655 560.943L31.3115 559.84V559.839ZM45.5779 562.686L45.4938 562.598L45.3226 562.596L45.5779 562.686ZM45.8791 562.562L45.8811 562.434L45.6708 562.26L45.8791 562.562ZM43.9689 561.804L44.2173 562.278L44.1772 562.149L43.9689 561.804ZM44.994 561.822L43.9738 561.506L45.1974 562.423L44.994 561.822ZM46.511 560.564L46.4239 560.649L46.4238 560.734L46.5118 560.564H46.511ZM59.767 562.541L59.6907 561.984L59.5186 562.066L59.767 562.541ZM181.47 569.458L181.304 569.155L181.343 569.37L181.47 569.457V569.458ZM44.6751 557.972L44.633 557.929L44.59 557.971L44.6751 557.973V557.972ZM185.001 568.02L185.334 568.582L185.547 568.585L185.001 568.02ZM61.195 561.327L61.107 561.496L61.0581 561.879L61.196 561.326L61.195 561.327ZM47.3032 559.042L47.6201 557.979L47.4499 557.933L47.3032 559.041V559.042ZM191.943 566.855L190.869 567.222L191.628 567.834L191.944 566.856L191.943 566.855ZM49.4061 558.394L49.2829 558.092L49.3631 558.393L49.4061 558.393V558.394ZM40.9906 555.73L38.116 556.408L35.3999 557.858L35.5358 559.955L38.3762 558.763L41.9237 556.131L40.9906 555.73ZM61.0365 560.47L60.3851 561.1L60.9857 560.981L61.0365 560.47ZM192.12 566.26L192.001 565.746L191.826 565.914L192.12 566.261V566.26ZM50.3656 557.171L49.5558 557.029L50.3118 557.81L50.3656 557.171ZM184.559 566.005L184.215 566.127L184.283 567.155L184.559 566.005ZM52.2044 557.073L51.776 557.151L52.1976 557.5L52.2044 557.073ZM60.3646 559.689L60.0653 559.683L59.855 559.466L60.3636 559.688L60.3646 559.689ZM51.2234 556.971L50.7158 556.663L50.8811 557.007L51.2234 556.97V556.971ZM58.7185 558.465L57.7727 558.791L56.9276 560.743L58.7175 558.465H58.7185ZM182.182 565.025L181.955 565.876L182.561 565.373L182.182 565.025ZM55.3636 557.04L55.9397 558.375L56.1803 556.755L55.3636 557.04ZM45.5339 554.439L46.4357 554.155L46.3506 554.111L45.5329 554.439H45.5339ZM44.4355 553.694L44.2682 553.477L44.2242 553.562L44.4355 553.695V553.694ZM182.317 564.214L182.149 563.997L181.972 564.336L182.317 564.214ZM57.6788 556.348L57.3814 556.215L57.1203 556.509L57.6788 556.348ZM181.123 564.194L181.347 563.599L181.136 563.467L181.124 564.193L181.123 564.194ZM180.326 563.326L179.892 563.746L180.442 564.054L180.326 563.325V563.326ZM62.4959 554.681L62.2014 554.376L62.2014 554.463L62.4967 554.681H62.4959ZM180.404 561.105L181.25 561.632L181.727 561.255L180.404 561.105ZM181.867 560.53L181.52 560.781L181.982 561.258L181.866 560.529L181.867 560.53ZM179.214 560.743L179.096 560.142L178.749 560.392L179.214 560.742V560.743ZM191.208 558.936L188.83 563.17L191.586 564.455L192.8 563.408L192.612 561.866L191.208 558.936ZM55.6258 551.099L55.4986 551.054L55.4125 551.095L55.6258 551.098V551.099ZM181.046 558.162L179.792 559.038L179.812 560.406L181.046 558.162ZM74.4246 553.679L74.4334 553.123L74.3014 553.378L74.4246 553.679ZM185.154 557.503L184.754 558.437L186.73 557.786L185.153 557.503H185.154ZM180.04 556.648L181.44 562.356L182.33 562.798L185.352 566.054L187.436 569.209L188.584 569.528L187.385 567.115L187.678 564.897L187.19 563.435L184.185 559.239L182.047 556.81L180.041 556.648H180.04ZM69.9274 551.509L69.8491 551.122L69.6339 551.205L69.9283 551.509H69.9274ZM184.246 555.565L183.363 557.26L184.353 556.849L184.246 555.565ZM73.7517 549.992L73.112 549.897L72.4665 550.185L73.7517 549.993V549.992ZM85.388 551.684L84.8618 552.487L85.1308 551.765L85.389 551.684H85.388ZM87.0928 551.927L86.0668 551.952L86.5255 552.644L87.0928 551.927ZM18.0105 535.807L19.1118 536.382L18.9455 536.122L18.0105 535.807ZM63.3644 547.297L63.4524 547.17L63.3223 547.253L63.3644 547.296V547.297ZM63.7087 547.175L63.8808 547.092L63.8809 547.049L63.7078 547.174L63.7087 547.175ZM182.869 552.722L182.956 555.16L184.247 554.626L182.869 552.722ZM66.8875 545.815L67.0176 545.732L66.9745 545.732L66.8875 545.816V545.815ZM177.871 552.593L175.986 552.86L177.325 554.55L177.39 558.312L178.773 557.353L178.645 554.828L177.87 552.593H177.871ZM178.713 550.769L178.427 552.56L180.601 555.374L180.732 552.641L182.721 553.742L181.994 551.294L181.174 551.75L178.712 550.771L178.713 550.769ZM170.565 549.992L169.461 552.153L170.721 550.849L170.565 549.992ZM78.2822 544.297L78.2 544.124L78.2411 544.296L78.2841 544.296L78.2822 544.297ZM89.2064 545.163L88.9991 544.775L89.1184 545.29L89.2064 545.162V545.163ZM171.151 548.248L171.663 553.343L174.202 557.36L174.468 551.68L172.729 548.36L171.151 548.248ZM95.9269 541.771L95.5386 542.021L96.1734 542.373L95.9269 541.77V541.771ZM94.4304 541.832L94.6075 541.451L94.18 541.443L94.4294 541.831L94.4304 541.832ZM93.3213 541.728L92.9672 542.449L89.9909 541.544L89.6104 546.411L88.422 543.356L86.2292 544.174L85.1806 545.524L86.0678 548.702L87.4302 548.981L88.9492 547.596L87.1075 550.428L87.6982 550.865L89.6896 549.317L89.0617 548.538L90.8751 547.415L92.841 547.277L95.7655 546.172L96.7729 544.693L95.3273 544.284L96.0726 543.142L93.3193 541.728H93.3213ZM166.785 543.816L166.027 543.163L166.014 543.932L166.784 543.816H166.785ZM92.6659 540.222L92.7422 540.778L93.5032 541.262L92.6659 540.222ZM169.377 541.852L166.885 542.665L167.578 544.685L166.922 545.529L169.398 548.221L169.396 545.785L172.692 547.977L168.959 543.854L171.881 545.399L172.096 542.753L169.376 541.853L169.377 541.852ZM167.886 541.613L167.633 541.353L167.503 541.479L167.886 541.614V541.613ZM175.201 541.094L174.355 540.567L174.045 541.246L175.201 541.094ZM170.077 540.923L169.312 540.696L169.309 540.867L170.077 540.923ZM172.82 540.413L175.285 548.875L175.952 544.783L177.659 544.939L176.129 541.879L173.904 542.055L172.82 540.413V540.413ZM95.6569 537.494L92.6748 539.496L93.8025 541.053L97.4478 540.26L97.7373 538.303L95.6569 537.499V537.494ZM64.231 531.111L64.1478 530.981L64.1449 531.152L64.231 531.111ZM63.0015 530.535L62.9262 529.935L62.8802 530.106L63.0015 530.535ZM98.7105 533.827L98.4523 533.952L98.4504 534.08L98.7105 533.827ZM97.6033 533.595L97.4772 533.465L97.171 533.888L97.6033 533.596V533.595ZM100.439 532.703L100.142 532.527L100.14 532.655L100.439 532.703ZM101.38 532.677L101.083 532.501L101.039 532.586L101.38 532.677ZM99.8921 532.225L99.4666 532.132L99.4216 532.259L99.8921 532.224V532.225ZM123.353 532.063L123.53 531.767L123.269 531.976L123.353 532.063ZM131.011 528.986L132.618 527.432L132.059 527.636L131.011 528.986ZM116.687 526.994L117.206 526.618L117.427 526.151L116.687 526.994ZM116.924 525.587L116.363 525.962L117.22 525.806L116.924 525.587ZM97.5975 523.852L97.5212 523.295L97.308 523.292L97.5975 523.853V523.852ZM116.367 525.492L115.891 525.868L115.54 526.375L116.367 525.492ZM129.527 525.499L129.611 525.586L129.74 525.546L129.527 525.5V525.499ZM130.167 525.552L129.869 525.461L129.911 525.548L130.167 525.551V525.552ZM128.675 525.314L128.801 525.444L128.803 525.316L128.675 525.314ZM118.982 524.895L119.462 524.347L118.897 524.893L118.982 524.895ZM126.342 524.249L126.299 524.249L126.342 524.249ZM120.58 523.896L117.169 528.497L121.341 524.378L120.58 523.895V523.896ZM116.774 524.046L116.568 523.529L116.308 523.782L116.774 524.046ZM125.834 523.984L125.665 523.896L125.749 523.983L125.834 523.985V523.984ZM128.899 524.634L129.04 523.867L128.694 524.117L128.899 524.634ZM42.3189 510.23L36.5941 510.176L38.8418 513.718L40.4967 514.43L43.3977 514.692L42.3189 510.229V510.23ZM123.031 523.124L123.186 524.024L123.799 523.137L123.031 523.123V523.124ZM118.256 522.488L117.613 525.128L118.452 523.475L118.255 522.487L118.256 522.488ZM15.3217 499.433L15.4146 499.007L15.4166 498.922L15.3227 499.434L15.3217 499.433ZM117.346 520.507L117.382 520.893L117.638 520.897L117.346 520.507ZM116.611 521.008L116.455 520.151L116.152 520.402L116.611 521.009V521.008ZM122.395 520.122L122.404 519.652L122.058 519.86L122.396 520.123L122.395 520.122ZM117.076 518.793L117.014 519.946L117.455 519.183L117.077 518.792L117.076 518.793ZM108.185 516.335L108.32 515.953L108.234 515.951L108.185 516.334V516.335ZM46.2332 498.157L46.5022 497.435L46.3721 497.518L46.2332 498.157ZM46.7232 496.968L46.4699 496.793L46.4679 496.921L46.7232 496.968ZM52.0323 493.766L52.0352 493.595L51.9931 493.552L52.0323 493.766ZM52.0841 493.211L52.0029 492.953L51.9599 492.995L52.0841 493.211ZM54.319 489.872L54.3631 489.787L54.1489 489.826L54.319 489.872ZM55.0428 490.055L54.4912 489.832L54.5313 489.961L55.0428 490.055ZM54.2829 489.53L54.2858 489.317L54.1117 489.527L54.2829 489.53ZM34.5939 484.113L34.4756 483.512L34.3103 483.168L34.5939 484.113ZM36.5139 481.709L36.555 481.795L36.7242 481.883L36.5139 481.709ZM33.0603 481.267L32.1399 480.098L32.895 480.965L33.0613 481.268L33.0603 481.267ZM31.0425 479.31L30.9134 479.35L31.2538 479.441L31.0425 479.309V479.31ZM31.3653 477.905L31.3232 477.862L31.3653 477.905ZM31.1119 477.73L31.0699 477.73L31.3242 477.862L31.1129 477.73L31.1119 477.73ZM63.8143 487.084L62.445 487.19L63.249 487.631L63.8133 487.085L63.8143 487.084ZM29.6957 475.57L28.2012 478.067L28.8183 479.487L31.8915 479.709L34.7729 483.69L39.0442 483.805L38.4652 482.683L34.7054 480.099L33.8467 477.819L31.7868 478.34L29.6967 475.57H29.6957ZM51.4777 476.149L51.5237 475.936L51.4376 475.977L51.4787 476.148L51.4777 476.149ZM45.0849 462.452L44.9157 462.321L44.9979 462.493L45.0839 462.452H45.0849ZM48.8251 463.669L49.2134 463.462L49.0853 463.46L48.8251 463.669ZM51.4464 462.816L51.7907 462.694L52.9527 462.201L51.4464 462.816ZM56.0023 461.225L56.2195 461.015L55.9172 461.181L56.0023 461.225ZM56.6459 461.065L57.3364 460.649L56.6919 460.852L56.6459 461.065ZM58.4965 460.284L57.8538 460.402L57.8949 460.488L58.4965 460.284ZM59.3112 460.127L59.2261 460.125L59.3112 460.127ZM144.659 441.47L144.241 440.95L143.353 440.337L144.659 441.47ZM74.3464 432.635L75.614 430.947L74.9195 431.576L74.3464 432.634V432.635ZM76.0463 430.655L76.6576 429.896L76.3554 430.062L76.0463 430.655ZM76.9618 429.559L77.7873 428.718L77.2689 429.052L76.9608 429.559H76.9618ZM119.731 432.286L120.403 432.982L120.702 432.987L119.731 432.287V432.286ZM98.2538 421.154L94.1302 424.975L92.4508 425.758L89.1654 425.447L89.0509 424.633L85.6892 426.33L85.9396 429.24L85.0447 429.097L86.0648 426.849L81.0277 429.073L79.4627 428.106L74.8188 432.388L72.9135 436.416L69.1126 438.832L66.0805 438.738L62.7639 437.742L59.5283 442.133L62.2953 445.3L66.0913 450.834L66.3133 455.411L73.2284 458.092L71.9442 460.806L73.111 462.577L74.2759 461.913L77.3276 463.375L74.499 463.883L71.5764 462.338L72.7687 465.136L70.436 466.636L62.714 463.343L64.7572 461.283L63.3311 459.678L57.5017 460.734L48.7752 463.836L49.4472 467.01L53.5884 469.772L51.1882 470.202L51.4395 473.069L54.3709 476.624L55.7226 477.544L58.5943 477.036L62.2807 478.893L63.8124 479.261L63.7057 480.499L65.2267 478.985L67.8039 478.173L68.3742 477.285L69.8159 477.95L70.7744 476.855L71.7094 479.692L70.5827 480.655L69.4383 480.123L68.5649 481.263L69.8452 481.327L70.3215 486.037L69.5645 487.863L63.9248 487.811L63.9591 488.325L60.971 490.711L57.2083 490.861L56.9462 488.677L55.2375 488.648L55.212 490.144L53.5023 490.158L52.5683 494.886L51.775 493.804L47.4 497.321L47.7189 498.694L46.1412 498.496L46.0327 504.949L48.2392 505.883L47.2905 506.423L49.5264 508.127L53.562 509.52L52.3374 511.209L52.2797 509.584L50.5661 509.854L49.1107 507.436L45.3979 509.682L47.1839 510.182L46.4787 511.453L50.0947 517.497L53.4652 517.81L55.8243 517.294L57.0577 515.092L57.9859 515.791L57.8842 519.295L58.4348 522.125L56.6792 524.874L57.223 528.089L54.9059 528.649L56.7242 529.791L63.4358 527.04L65.3186 529.422L66.6381 529.743L67.8167 533.353L69.229 533.205L68.9737 530.594L71.9755 532.525L76.9559 531.112L78.6128 529.131L76.6322 532.56L74.5097 534.277L74.8608 536.254L73.5189 537.256L72.4234 541.427L69.2769 543.041L67.1917 545.101L63.0905 547.597L61.7633 547.745L57.8744 550.33L58.0309 553.752L53.4163 551.196L49.0814 552.363L44.7083 555.752L42.9419 556.62L42.2758 558.105L46.1686 557.871L46.8474 555.617L47.2866 557.462L51.4034 554.026L52.6397 554.218L51.7163 555.784L56.1774 554.748L56.6312 555.739L59.4432 553.65L62.4724 553.914L67.9252 549.816L73.0406 548.022L77.7374 545.707L79.7131 542.663L82.0439 541.291L82.8459 541.903L86.7378 539.147L87.5466 539.331L92.3647 534.839L92.7403 532.836L90.2403 531.555L90.968 528.96L93.7438 526.485L96.7925 523.031L96.2027 522.551L98.6509 521.823L102.583 516.845L106.419 514.858L109.315 515.42L108.876 516.139L110.601 517.706L108.799 518.188L107.495 516.927L102.926 519.287L103.14 521.812L101.081 524.812L100.225 527.491L101.685 529.567L100.789 529.509L100.103 532.147L102.626 532.061L109.452 527.603L110.8 526.215L114.557 526.407L115.857 525.275L117.146 522.347L115.189 521.973L116.188 521.006L115.831 519.376L116.589 517.508L118.57 519.166L118.843 518.102L121.999 518.498L124.427 521.442L125.628 521.206L126.404 523.313L128.267 524.328L130.332 523.508L129.671 524.737L133.389 527.278L138.611 526.724L143.076 528.038L144.597 526.525L146.762 529.895L151.089 529.199L151.952 531.265L151.093 531.507L153.804 532.92L159.545 537.162L161.049 539.196L163.201 540.814L165.662 541.838L167.786 539.993L163.955 536.595L167.41 536.909L168.459 540.645L169.833 540.241L172.255 541.094L170.147 534.264L170.74 534.573L170.279 531.488L171.611 536.126L173.015 539.057L175.879 541.541L176.572 540.954L177.974 544.012L180.918 544.147L181.008 546.414L179.736 545.794L180.025 548.962L181.368 550.438L187.301 555.88L187.228 560.196L188.123 562.904L188.605 559.706L191.191 558.382L192.815 560.888L193.549 568.081L195.133 567.894L197.252 563.869L196.541 557.874L196.21 557.227L189.344 554.077L187.936 553.967L186.304 551.888L185.903 550.343L181.033 542.611L177.152 537.074L175.079 535.843L171.429 531.764L170.782 529.617L169.685 528.743L165.576 531.751L164.077 534.461L161.404 535.869L160.755 533.85L156.382 529.63L155.889 528.425L153.822 526.809L150.33 526.109L148.593 525.225L146.161 525.013L145.93 441.962L144.52 441.895L139.886 437.928L138.74 437.481L132.016 438.394L130.336 436.698L126.196 436.458L124.117 435.568L118.997 432.623L113.352 432.913L110.925 432.359L111.753 431.348L109.277 431.22L109.63 427.978L105.453 427.31L103.055 427.611L102.885 425.001L101.955 424.43L98.7389 427.624L100.408 424.874L98.2489 421.162L98.2538 421.154Z" fill="#009649" stroke="white" stroke-width="2" stroke-linejoin="round"></path>
</svg>