<svg width="483" height="577" viewBox="0 0 483 577" fill="none" xmlns="http://www.w3.org/2000/svg">
<path class="region" d="M179.376 286.183L182.558 287.243L185.209 289.027L186.125 291.535L186.173 292.837L186.317 293.319L185.835 295.054L185.257 295.922L185.353 296.694L185.787 297.417L186.366 297.803L187.041 297.755L187.715 297.369L188.487 296.163L189.065 294.862L189.836 294.572L191.041 296.549L190.559 296.79L190.029 297.417L189.692 298.285L189.595 299.539L190.126 303.444L189.788 304.071L189.161 304.505L188.631 305.469L187.86 306.433L186.751 306.867L185.739 306.578L183.763 305.276L182.606 304.987L181.593 305.228L176.098 307.687L175.182 308.217L174.797 308.941L171.133 310.966L168.771 313.135L167.807 313.714L165.542 314.244L164.674 314.823L164.336 315.835L164.722 317.041L165.301 318.005V318.487L163.903 318.343L160.625 316.703L159.757 316.462V315.835L160.818 311.496L159.998 308.796L157.974 307.783L152.527 307.735L150.213 307.301L148.092 306.192L146.405 304.746L145.2 303.203L143.271 303.348L141.391 302.383L138.21 299.539L136.716 297.513L134.064 295.633L133.486 294.476L133.245 293.367L132.811 292.403L131.654 291.776L126.882 291.486L126.448 291.872L125.436 292.933L125.147 292.595L124.472 291.342L124.375 287.967L125.629 282.567V280.783L124.665 279.288L125.099 277.841L126.689 278.275L128.425 279.191L129.823 278.468L131.076 277.166L133.052 276.732L135.029 276.781L136.33 278.082L137.391 279.625L138.114 281.843L140.235 283.338L142.934 284.109L145.537 285.122L147.369 285.46L149.249 285.218L150.02 285.556L150.888 286.038L153.009 285.893L154.358 287.292L155.081 287.436L155.804 287.726L156.094 288.497V289.654L156.383 289.847L158.07 290.136L158.986 289.895L159.902 290.667L161.3 290.715L164.192 288.16L166.698 287.87L169.06 287.099L170.796 286.183L176.002 285.17L179.376 286.183Z" fill="#009649" stroke="white" stroke-width="2" stroke-linejoin="round" data-country-region="North Region"></path>
<path class="region" data-country-region="South Region" d="M401.885 371.524L402.367 372.778L402.898 373.26L404.006 373.79L405.211 374.272L406.32 374.465L407.766 374.899L409.55 373.212L410.08 374.321L410.225 393.559L410.562 395.15L411.141 396.596L412.587 398.187L413.792 398.911L415.093 399.441L415.913 399.537L416.877 399.971L417.166 400.743L416.877 404.263L416.973 405.034L417.841 407.638L418.805 409.422L420.251 410.482L422.131 410.193V410.916L422.324 411.206L423.384 410.916L423.963 410.482L424.397 410.772L425.216 410.723L425.987 410.868L426.759 412.459L426.518 414.436L425.698 416.124L422.613 417.522L420.974 417.667L419.528 416.75L418.468 417.667L416.877 420.704L416.684 422.295L417.118 424.513L416.25 426.056L414.322 426.731L413.213 427.454L411.671 427.31L410.128 426.538L408.345 426.972L406.899 428.419L404.681 428.997L402.416 429.142L400.825 429.865L397.354 429.19L396.197 429.431L395.956 431.022L395.522 432.228L394.269 430.733L393.402 428.66L392.1 427.792L390.606 427.31L388.629 427.02L386.605 427.165L386.123 427.985L385.062 428.178L384.339 428.66L383.905 429.383L383.809 431.119L384.243 432.71L384.339 436.133L385.014 437.773L385.11 439.46L383.857 440.569L380.579 442.064L378.699 442.112L376.916 441.582L375.084 441.63L372.336 444.426L369.396 446.789L367.757 446.596L366.166 446.017L362.84 446.451L359.659 444.667H357.731L356.429 443.655L352.428 442.016L348.234 440.81L344.426 438.978L339.51 438.496L339.461 438.206L338.353 437.628L330.978 435.699L328.326 435.603L327.7 435.506L317.673 431.89L316.324 430.829L315.311 429.479L314.685 427.888L314.444 426.153L314.492 423.211L314.299 421.765L313.624 420.511L313.094 420.077L311.31 419.065L310.828 418.679L309.575 417.377L309.045 416.943L307.358 415.979L306.779 415.449L306.056 414.147L305.478 412.074L304.947 410.916L304.273 409.807L303.453 408.747L302.393 407.879L298.825 405.902L297.669 404.986L296.994 403.78L296.705 402.43L296.608 400.936L296.897 398.091L297.62 395.294L298.488 392.835L298.536 391.389L297.138 385.892V385.169L297.283 384.349L297.717 382.855L297.813 382.083L297.765 381.264L297.524 380.54L296.897 379.19L296.705 378.419L296.512 376.249L298.392 378.226L301.959 378.66L302.826 377.021L301.862 373.163L300.802 372.054L299.549 372.922L299.597 371.717L300.898 370.222L302.248 369.306L302.441 367.426L303.935 366.799L305.574 367.377L307.117 367.763L308.129 366.654L309.479 365.979L311.31 366.751L314.588 365.931L315.986 367.281L318.107 367.522L320.083 366.847L321.578 365.786L323.072 365.111L324.566 366.124L325.627 367.715L327.121 368.824L329.049 368.92L330.544 368.39L332.134 368.969L334.545 367.908L336.28 366.076L339.51 366.22L343.414 365.835L350.355 369.017L352.91 369.644L353.826 367.908L354.212 365.16L356.526 364.726L358.936 365.208L363.997 367.474L369.107 369.113L375.759 369.547L382.17 368.583L383.664 367.426L383.857 366.365L384.243 365.352L385.978 365.593L387.713 366.606L390.606 369.595L392.389 370.367L394.317 370.656L397.884 371.862L401.885 371.524Z" fill="#009649" stroke="white" stroke-width="2" stroke-linejoin="round"></path>
<path class="region" d="M109.866 235.363L109.721 236.568L109.384 238.015L109.962 239.124L110.155 239.75L110.251 241.149L110.203 242.692L109.528 245.199L109.384 246.452L109.769 247.465L112.42 250.406L113.095 252.624L112.613 254.649L110.733 258.651L110.444 260.049L110.155 262.894L109.866 264.148L107.889 267.716L106.877 269.017L105.527 272.2L104.708 273.116L103.31 274.273L102.587 274.562L101.767 274.707L100.948 274.659L100.273 274.273L99.309 275.189L98.1521 277.6L97.429 278.661L96.0311 279.625L95.067 280.011L94.826 280.637L94.6332 282.036L94.0065 282.952L93.0907 284.013L92.0302 284.929L90.9215 285.314L89.5236 285.555L88.8969 286.134L88.6077 287.002L88.0293 288.063L85.0888 291.438L83.9801 293.608L83.6909 296.356L84.0283 297.272L85.2334 299.345L85.4745 300.213L85.8601 304.986L85.7155 306.963L85.3298 308.844L85.2334 310.579L86.6314 312.846L86.9206 313.521L87.3544 314.003L88.2703 314.196L89.8128 313.906L90.3913 314.099L90.6805 315.112H91.1143L91.5964 314.726L92.5122 314.244L93.3799 314.147L93.7655 314.871L93.5727 315.353L92.464 317.378V317.812L92.9943 318.246L92.2712 318.535L93.6691 319.692L92.4158 320.56L90.2948 321.476L89.0415 322.826L88.0775 324.514L87.499 323.212L87.3062 322.489L86.6314 322.826L85.8119 323.598L84.8478 323.694L83.8837 323.598L83.0161 323.887L82.5822 324.466L83.0161 324.659L84.0283 324.803L83.8355 325.43L82.7268 326.876L81.8592 326.973L81.0397 327.262L74.0501 333.048L72.845 334.639L71.5917 337.098L71.1579 337.677L70.4348 337.966L69.5672 338.111L68.9405 338.496L68.7477 339.509L67.6872 341.052L66.7231 341.775L64.4094 340.859L62.5294 339.702L61.4689 339.509L60.6013 338.352L59.5408 337.436L58.3839 336.664L57.1306 336.037L52.0692 335.073L51.0569 334.302V332.807L51.9246 331.409L54.0455 328.901L55.3952 325.864L55.8291 324.128L55.6845 322.826L55.5398 322.103L55.6845 321.573L56.0701 321.139L56.6967 320.801V320.271L56.1183 319.355L56.2147 318.921L56.6967 318.583L57.9982 318.005L58.3357 317.137L58.1429 314.871L58.3839 313.521L58.8659 312.797L60.8423 311.688L62.5294 310.242L63.5417 308.603L64.3612 306.867L65.4698 305.035L66.2893 304.408L68.3621 303.106L68.8441 302.238L68.6513 301.322L67.5426 298.815L67.3498 297.513L67.5908 296.308L68.5549 293.8L68.6995 292.74L68.4585 292.161L67.5908 291.534L67.2052 291.197L66.4821 289.365V287.002L66.5785 286.327L66.916 285.845L68.0246 284.639L68.2175 284.205L67.5908 283.289L63.5417 281.409L61.5653 279.529L60.6977 278.323L60.2638 277.166L60.6013 275.816L62.433 273.887L62.915 272.634L63.0114 271.959L63.3007 271.621L67.3498 269.355L68.2175 268.535L68.4585 267.764L68.3621 266.269L68.5549 265.642L68.9887 265.208L70.6759 264.485L72.4112 262.798L73.2307 261.689L73.5681 260.676L73.2307 259.615L71.7363 258.121L71.3989 256.867L71.6399 255.806L72.5558 253.637L72.845 252.479L72.5076 248.478L72.604 247.176L73.1343 245.97L74.6768 244.138L75.3034 243.126L75.9301 240.956L76.3639 239.992L79.0633 237.34L78.5331 235.363L76.846 233.434L74.0501 230.927L73.3271 230.107L72.8932 229.095L72.7486 227.504L72.9414 223.55L71.6399 217.909L71.7363 216.752L71.5435 216.221L71.1579 215.932L70.0974 215.691L69.6636 215.401L69.278 213.376L69.6154 210.628L70.5795 208.217L72.0256 207.301L73.4717 206.915L74.3394 205.421L74.6768 203.492L74.5322 201.853L74.2912 200.985L74.0019 200.31L73.4717 199.78L72.6522 199.297L71.5435 199.008L70.8687 199.201L69.5672 200.021L68.0246 200.455L66.2411 200.647L64.4094 200.503L62.674 199.828L59.8782 198.092L58.4803 197.562L56.6967 197.369L51.0569 197.465L50.3338 197.417L49.5144 198.14L48.7431 199.49L46.1401 202.576L43.2479 205.373L42.6212 206.24L42.1392 206.048L41.1269 204.746L40.211 204.215L35.005 202.19L33.3661 202.287L32.0163 203.299L30.763 205.324L29.6544 205.421L27.8708 204.89L26.0391 204.071L24.8822 203.348L24.1109 202.528L23.9181 201.564V200.455L23.7253 199.346L23.195 198.43L21.8935 196.838L21.3633 195.971L21.0259 194.813L20.833 192.595L20.6402 191.535L20.2064 190.763L19.1459 189.365L18.8567 188.449L19.1459 187.243L20.6884 185.17L22.713 185.508L25.4606 186.231L27.5816 186.134L29.7026 185.701L31.6307 184.495L32.9804 184.592L34.2819 184.061L34.9086 183.724L35.5352 183.675L36.4029 183.868L37.2706 183.772L37.849 183.531L42.332 180.879L43.2479 180.011L44.3083 179.047L45.1278 178.613L45.9955 178.565L53.7563 179.818L56.6967 180.783L58.9141 182.47L59.7336 181.024H60.2156L61.0833 182.036L62.0956 181.699L63.6863 180.156L65.277 178.999L65.8555 178.757L66.6749 178.806L69.0851 180.108L73.2307 182.904L74.725 183.338L93.9101 183.193L96.2721 182.663L97.67 181.024L96.8988 180.541L97.7182 179.77L99.068 179.047L100.032 178.757L100.707 178.372L102.587 176.54L103.31 175.961L105.672 178.902L106.684 179.915L107.407 181.168L107.455 184.399L106.347 187.533L105.768 188.738L105.816 192.836L106.491 194.572L108.323 194.62L110.155 194.476L110.733 194.958L110.155 197.272L110.251 206.289L110.492 207.253L111.023 208.169L111.794 209.037L112.806 209.712L115.313 210.821L115.939 211.592L115.505 212.219L113.385 214.485L112.902 215.498L112.565 216.848L111.119 219.066L110.733 219.934V221.236L111.119 225.237L111.023 226.588L110.492 228.805L109.866 235.363Z" fill="#009649" stroke="white" stroke-width="2" stroke-linejoin="round" data-country-region="North Region"></path>
<path class="region" data-country-region="South Region" d="M399.957 478.515L403.187 479.721L406.127 483.433L408.296 484.349L410.514 484.446L411.912 484.928L418.564 490.232L418.901 495.825L419.672 495.776L419.48 496.259L420.588 497.03L421.986 497.319L424.589 496.693L425.505 497.56L426.18 498.766L427.048 499.489L427.819 500.502L428.446 503.828V507.155L427.289 509.132L428.253 511.784L426.855 511.639L424.204 512.363L423.529 513.182L422.42 514.147L421.215 515.545L421.119 517.377L420.155 518.92L418.226 519.306L416.298 519.209L415.045 520.125L411.767 519.065L409.983 518.92L408.296 517.859L407.043 516.268L406.995 514.581L407.284 512.797L407.091 511.977L407.188 511.061L407.911 509.373L408.104 507.348L406.802 506.046L405.067 506.673L403.669 507.927L402.126 507.107L401.403 505.323L399.812 504.504H397.932L396.39 505.371L395.522 507.059L392.775 509.18L389.834 512.17L387.231 516.268L387.376 521.09L388.292 522.874L389.593 524.368L391.377 525.381L392.919 526.683L394.269 531.938L395.426 533.144L396.727 534.253L397.884 535.892L398.125 537.724V538.592L398.559 539.364L397.788 541.099L396.535 541.389L395.04 541.196L391.184 538.785L390.798 538.399L390.22 539.508L389.593 542.931L389.159 544.33L388.195 545.68L387.183 546.307L385.978 546.451L383.761 546.307L382.218 546.066L380.242 546.114L380.049 546.355L379.904 547.416L379.711 547.705L378.603 547.753L375.807 546.789L374.554 546.548L374.264 547.271L374.168 548.042L374.216 548.766L374.554 549.489L375.759 550.501L376.482 551.562L376.723 552.816L376.434 554.455L376.964 555.757L377.88 556.577L380.049 557.975L381.013 559.132L382.652 562.989L383.52 564.002L384.532 564.87L385.399 565.834L385.689 567.039L385.207 568.245L384.243 569.113L383.086 569.884L382.17 570.8L381.399 571.813L381.543 574.899L380.579 576.056L379.326 576.104L376.048 575.284L374.554 575.188L372.963 575.815L371.42 576.008L369.83 575.622L368.143 574.706L362.647 569.884L361.587 568.293L360.864 566.461L359.9 564.87L358.116 563.905L357.441 563.857L356.092 564.098L355.176 564.002L354.163 563.52L353.489 563.134L352.862 563.086L351.85 563.809L351.368 562.652L350.403 561.639L349.247 561.109L348.331 561.495L347.511 560.53L346.499 559.807L344.764 561.061L343.8 561.591L342.739 561.88L341.245 562.893L339.461 563.471L337.581 563.761H335.749L334.737 563.616L334.111 563.327L333.58 562.845L331.941 560.579L331.459 560.289L330.11 559.759L328.953 558.602L325.193 552.816L324.566 551.466L324.325 549.971V547.898H325.241L328.519 547.126L329.676 546.644L330.158 546.162L330.929 544.764L331.363 544.378L331.99 544.426L333.098 545.198L333.918 545.246L335.46 543.751L335.991 543.365L336.714 543.124L338.401 542.787L339.076 542.449L339.317 542.015L339.895 540.521L340.184 539.846L340.618 539.364L342.112 538.014L344.137 535.313L344.908 533.529L345.053 531.601L344.137 527.261L344.233 525.236L344.715 522.199L344.523 521.572L343.8 520.415L343.703 518.92L343.992 517.425L344.523 516.22L344.812 516.027L345.68 515.834L345.921 515.207L345.487 514.291L345.39 513.327L345.776 512.845L346.788 512.893L347.126 512.748L347.608 511.302L346.595 509.18L347.174 507.927L349.729 506.336L350.307 505.468L348.62 505.13L347.8 504.504L345.969 501.852L345.872 500.839L345.438 500.453L344.619 500.598L344.282 500.502L342.739 498.911L341.341 498.621L340.811 497.512V496.066L341.1 494.619L341.486 493.317L342.064 492.401L344.667 489.653L346.403 488.207L348.475 486.905L348.524 485.121L348.331 483.723L348.09 483.433L346.836 483.674L345.631 483.723L344.33 483.481L343.366 482.806L342.98 481.601L343.51 480.155L344.812 479.335L347.752 478.371L350.018 476.924L350.259 476.683H350.5L351.994 476.008L352.91 474.947L354.645 474.754L356.188 475.381L357.682 475.767L359.128 475.429L359.755 474.803L360.526 474.61L361.635 475.67L363.129 476.394L363.804 476.104L364.431 475.67L365.636 475.767L369.637 475.67L371.758 475.188L373.493 474.658L374.987 475.526L376.434 474.947L377.976 474.899L379.422 474.562H380.82L382.073 476.008L382.652 477.647L381.35 479.046L380.965 480.974L384.725 485.121L386.412 485.844L389.545 483.867L392.293 481.119L393.932 480.106L395.667 479.431L397.932 479.094L399.957 478.515Z" fill="#009649" stroke="white" stroke-width="2" stroke-linejoin="round"></path>
<path class="region" d="M141.584 105.903L141.632 107.783L143.705 110.483L144.235 112.219L144.284 113.666L143.271 116.414L143.561 118.005L143.464 118.921L144.043 119.789L144.477 120.994L144.38 122.296L143.416 125.478L141.199 127.889L136.86 128.516L136.667 130.155L135.029 133.723L133.775 137.388L130.979 143.511L130.787 145.536L131.654 146.742L132.763 147.754L132.956 149.635L132.088 151.467L131.944 154.36L133.872 156.915L134.739 159.085L134.306 161.399L132.618 162.99L131.558 165.064L129.485 165.256L125.918 167.33L124.906 167.619L121.387 167.233L120.278 167.619L118.736 168.921L115.458 172.634L113.337 174.128L111.071 174.755L105.865 175.237L103.31 175.96L102.587 176.539L100.707 178.371L100.033 178.757L99.0685 179.046L97.7188 179.769L96.8993 180.541L97.6706 181.023L96.2726 182.662L93.9106 183.193L74.7255 183.337L73.2312 182.903L69.0857 180.107L66.6755 178.805L65.856 178.757L65.2776 178.998L63.6868 180.155L62.0961 181.698L61.0838 182.036L60.2162 181.023H59.7341L58.9146 182.47L56.6973 180.782L53.7568 179.818L45.996 178.564L45.1283 178.612L44.3089 179.046L43.2484 180.011L41.9951 176.925L41.8987 174.176L47.0565 172.296L52.8892 172.055L54.2871 171.428L55.6368 170.657L57.1793 169.114L58.4326 167.426L59.0593 165.015L61.0838 163.714L63.5904 163.231L67.3021 165.98L69.4713 166.269L71.4477 165.208L72.8938 163.762L73.8578 162.026L74.0025 154.504L73.8578 153.395L73.2312 151.901L72.8456 150.358L72.7974 149.635L75.9306 149.876L82.2935 149.442L87.2585 147.176L89.3795 143.174L90.4882 141.583L91.6933 140.425L92.6574 139.027L94.4409 133.627L93.9589 128.323L93.4286 127.262L91.1148 125.43L90.44 123.694L84.3181 121.621L86.5837 120.416L88.8975 115.884L91.7415 113.232L94.1999 112.653L95.2122 112.171H97.9598L98.2972 111.158L97.5259 110.146L97.7188 107.494L99.8879 105.662L102.298 104.36L104.805 103.444L106.154 101.322L107.167 98.9116L107.938 93.7042L107.167 92.4024L107.311 91.7274L106.636 89.9916L107.504 89.2202L108.95 89.5095L109.529 89.413L110.011 89.0755L110.541 88.2559L111.698 88.8827L114.638 91.1488L115.747 91.4863L116.711 92.1131L117.434 92.8846L122.351 94.2346L124.327 95.2954L127.316 99.2491L129.099 100.985L131.269 102.287L133.438 102.48L135.607 101.901L137.824 102.721L139.994 104.071L141.584 105.903Z" fill="#009649" stroke="white" stroke-width="2" stroke-linejoin="round" data-country-region="North Region"></path>
<path class="region" d="M261.756 191.631L259.105 192.354L257.707 192.402L256.936 193.173L256.502 194.186L255.972 194.572L254.671 194.813L253.465 194.379L250.429 192.788L249.705 192.595L249.127 192.836L248.741 193.897L248.886 194.765L250.139 198.284L250.862 199.249L252.887 200.454L253.61 201.081L253.996 202.142L254.092 203.299L254.285 204.408L255.008 205.372L254.767 206.144L254.237 206.433L253.514 206.577L252.887 206.963L252.501 207.686L252.212 209.278L252.019 209.953L251.489 210.869L251.296 210.676L250.332 210.772L248.838 211.351L247.392 212.074L246.042 212.412L245.319 213.038L244.017 214.967L243.053 215.738L240.788 216.703L239.92 217.378L239.39 218.535L240.065 218.872L241.222 218.824L242.234 218.969L243.053 220.56L243.825 221.38L245.415 222.199L247.295 223.549L248.741 222.971L250.091 222.923L251.393 223.212L258.43 226.442L260.985 228.178L261.66 228.853L261.853 230.203L261.901 231.409L262.431 231.939L264.263 231.409L265.565 231.746L265.42 233L264.842 235.121L265.179 237.484L265.131 239.798L263.829 241.1L262.431 242.209L262.046 243.993L261.178 245.536L259.587 246.789L258.189 248.381L256.791 250.454L254.719 251.274L253.032 251.418L251.393 251.37L250.477 250.936L249.705 250.213L244.066 247.561L241.752 246.982L242.282 242.498L241.8 238.111L240.209 236.616L238.185 235.989L235.823 236.134L233.846 235.314L231.292 233.916L227.194 234.157L224.398 233.096L222.422 232.952L220.88 231.601L219.433 229.914L217.795 228.709L215.818 228.371L214.758 228.564L213.745 228.998L213.263 230.493H211.721L210.419 229.432L209.021 229.335L207.624 229.094L205.888 229.866L203.671 229.962L202.996 230.3L202.225 230.541L195.91 229.287L193.548 229.142L191.331 228.757L189.402 226.876L188.101 226.298L182.654 225.044L181.401 225.189L180.437 225.43L179.424 225.141L177.93 223.983L176.098 223.067L174.122 220.946L173.351 220.753L172.338 220.126L170.169 219.162L169.301 217.571L168 213.713L166.457 211.881L164.722 210.338L163.903 206.819L164.577 203.251L167.47 201.033L168.482 199.586L169.735 198.381L173.543 195.777L176.436 193.077L177.255 191.823L177.014 190.232L179.569 190.377L181.931 189.895L182.365 186.713L182.461 183.53L184.148 182.373L186.076 181.457L187.474 180.444L189.017 179.818L192.198 179.577L193.452 178.516L194.271 177.021L197.067 176.153L200.007 175.96L201.309 177.359L202.996 178.323L206.129 176.973L207.527 177.793L208.877 178.853L212.058 179.143L215.384 180.155L217.023 179.721L218.373 178.564L220.157 177.985L221.94 177.793L224.109 177.214L225.555 175.382L227.387 176.298L229.122 176.009L229.219 174.032L229.653 171.766L232.593 169.548L234.28 169.307L236.016 169.355L239.438 171.428L241.896 174.659L241.848 176.298L242.186 177.841L241.704 179.866L241.077 181.65L242.716 182.47L243.246 183.048L244.499 185.218L245.126 185.604L245.994 185.941L251.441 184.446L252.309 183.723L252.598 182.421L253.321 181.264L254.285 180.444L256.358 181.843L258.768 182.036L260.118 181.457L261.226 180.493L261.467 178.998L262.094 177.889L262.335 181.12L260.889 185.652L261.033 187.291L261.612 189.316L261.756 191.631Z" fill="#009649" stroke="white" stroke-width="2" stroke-linejoin="round" data-country-region="North Region"></path>
<path class="region" d="M261.757 191.631L261.612 189.317L261.034 187.292L260.889 185.653L262.335 181.12L262.094 177.89L261.468 178.999L261.226 180.493L260.118 181.458L258.768 182.036L256.358 181.843L254.285 180.445L253.321 181.265L252.598 182.422L252.309 183.724L251.441 184.447L245.994 185.942L245.126 185.604L244.5 185.219L243.246 183.049L242.716 182.47L241.077 181.651L241.704 179.867L242.186 177.842L241.849 176.299L241.897 174.659L239.438 171.429L236.016 169.356L234.281 169.307L232.593 169.548L229.653 171.766L229.219 174.033L229.123 176.009L227.387 176.299L225.556 175.383L224.109 177.215L221.94 177.793L220.157 177.986L218.373 178.565L217.024 179.722L215.385 180.156L212.059 179.143L208.877 178.854L207.527 177.793L206.129 176.974L202.996 178.324L201.309 177.359L200.008 175.961L197.067 176.154L194.271 177.022L193.982 174.129L194.175 169.307L194.416 167.813L194.368 166.752L194.802 165.884L195.621 165.305L196.199 164.534L195.814 163.618L193.548 160.87L192.729 159.327L194.85 156.144L199.14 151.901L200.441 150.069L200.586 147.466L200.249 145.007L201.068 143.174H199.863L198.754 142.789L197.549 140.908L196.73 139.028L198.224 137.292L199.14 133.387L198.802 129.288L199.092 126.058L199.863 123.309L201.357 122.249L202.996 121.381L206.66 120.224L209.938 118.44L210.275 117.716L210.227 117.331L211.625 116.559L212.589 115.547L213.456 115.884L214.228 116.656L215.385 118.97L216.108 119.838L217.072 120.465L218.277 120.706L222.23 121.525L223.435 122.249L225.893 124.949L227.773 126.588L228.448 126.733L229.846 126.395L230.858 125.672V125.142L230.183 123.84L230.135 123.165L230.424 122.297L230.81 122.008L232.16 121.67L233.461 120.85L233.702 120.368L233.461 119.742L233.365 118.343L233.606 117.234L234.136 115.836L234.763 114.582L235.389 113.859L236.112 113.57L237.414 113.763L238.04 113.715L238.619 113.425L239.535 112.557L240.065 112.22L244.741 110.725L245.994 110.147L246.669 109.954L247.392 110.002L249.706 109.616L252.646 106.145L254.912 106L256.31 106.964L257.418 107.302L258.864 107.35L259.539 107.446L261.371 108.121L261.853 108.411L262.191 108.941L263.106 110.725L263.54 110.677L264.986 110.291L265.565 110.243L266.77 110.725L267.83 111.545L268.553 112.557L269.614 114.679L270.433 115.691L270.964 116.029L271.976 116.415L272.458 116.752L272.795 117.234L273.326 118.44L273.759 118.922L275.061 119.356L276.507 119.308L277.809 119.452L278.676 120.368L279.303 122.538L280.363 123.647L283.641 125.19L287.257 126.443L288.172 127.408L287.642 129.288L283.545 134.929L282.147 136.038L280.556 136.569L278.917 136.28L277.327 135.026L275.977 137.678L272.362 140.185L271.928 141.439L273.952 142.74L276.555 143.415L285.618 143.174L286.534 143.705L287.98 145.73L288.992 146.453L291.402 147.417L292.318 148.141L292.559 148.671L292.848 150.262L292.8 150.841L292.414 151.757L291.354 151.901L290.824 152.335L290.583 153.203L290.486 154.602L290.583 155.952L290.824 156.868L292.945 157.928L295.692 157.398L298.536 156.434L301.139 156.289L306.779 159.375L306.827 159.905L306.49 160.629L306.586 162.123L307.454 163.425L309.864 165.064L310.346 166.125L310.153 166.366L309.286 166.559L309.045 167.138L309.238 167.716L309.334 168.97L309.623 170.609L309.43 171.573L308.514 172.345L307.695 172.441L305.815 172.249L304.61 172.441L304.273 172.779L304.176 173.357L303.598 174.274L302.152 175.383L298.681 177.456L297.476 178.999L297.09 180.252L297.428 180.638L299.308 180.734L300.513 181.168L300.946 181.554L300.85 183.29L300.223 185.411L298.97 186.328L297.428 187.051L295.885 188.449L294.68 188.835L293.041 189.172L292.029 189.895L291.209 190.763L290.679 191.679L288.655 197.08L288.076 197.803L287.498 197.851L286.437 197.224L285.859 197.08L285.28 197.273L284.316 197.948L283.786 198.189L282.292 198.333L281.183 198.092L277.616 195.922L275.977 195.199L275.447 194.862L274.579 193.946L273.952 193.126L273.229 192.547L271.928 192.403L270.771 192.692L267.83 194.572L266.674 192.644L264.456 191.872L263.588 191.149L261.757 191.631Z" fill="#009649" stroke="white" stroke-width="2" stroke-linejoin="round" data-country-region="North Region"></path>
<path class="region" d="M169.302 217.571L170.169 219.162L172.338 220.126L173.351 220.753L174.122 220.946L176.098 223.068L177.93 223.984L179.424 225.141L180.437 225.43L181.401 225.189L182.654 225.044L188.101 226.298L189.403 226.877L191.331 228.757L193.548 229.143L195.91 229.287L202.225 230.541L202.996 230.3L203.671 229.962L205.888 229.866L207.624 229.094L209.022 229.336L210.419 229.432L211.721 230.493H213.263L213.745 228.998L214.758 228.564L215.818 228.371L217.795 228.709L219.434 229.914L220.88 231.602L222.422 232.952L224.399 233.096L227.194 234.157L231.292 233.916L233.847 235.314L235.823 236.134L238.185 235.989L240.209 236.616L241.8 238.111L242.282 242.498L241.752 246.983L239.776 247.802L237.896 248.767L236.498 249.924L234.762 250.358L233.075 249.683L231.533 248.574L229.701 247.561L228.11 246.259L226.278 245.295L224.35 244.716L221.747 242.113L219.626 242.257L216.252 243.415V245.102L216.59 247.079L217.409 248.911L218.132 249.056L218.421 249.586L217.698 250.02L216.734 250.068L216.107 251.659L216.349 253.829L216.879 255.902L217.168 258.169V260.965L216.493 263.424L214.999 264.871L213.312 266.269L208.877 268.873L203.864 270.126L196.199 270.512L190.8 271.428L178.364 270.657L174.122 271.621L176.436 276.635L177.785 278.13L179.232 279.48L180.003 282.855L179.376 286.182L176.002 285.169L170.796 286.182L169.06 287.098L166.698 287.87L164.192 288.159L161.3 290.714L159.902 290.666L158.986 289.895L158.07 290.136L156.383 289.846L156.094 289.654V288.496L155.804 287.725L155.081 287.436L154.358 287.291L153.009 285.893L150.888 286.037L150.02 285.555L149.249 285.218L147.369 285.459L145.537 285.121L142.934 284.109L140.235 283.337L138.114 281.843L137.391 279.625L136.33 278.082L135.029 276.78L133.052 276.732L131.076 277.166L129.823 278.467L128.425 279.191L126.689 278.275L125.099 277.841L124.665 279.287L125.629 280.782V282.566L124.375 287.966L124.472 291.341L125.147 292.595L125.436 292.932L115.795 303.347L114.494 303.733L112.035 302.334L109.577 301.659L108.95 300.888H108.565L107.504 301.9L107.022 303.106L106.444 305.951L104.901 310.338L104.66 311.688L98.7792 312.845L97.7187 313.52L97.1885 314.822L96.5136 315.545L95.0675 314.629V315.642L94.8747 316.51L94.5855 317.233L94.1999 317.812L92.9948 318.246L92.4645 317.812V317.378L93.5732 315.353L93.766 314.87L93.3804 314.147L92.5127 314.244L91.5968 314.726L91.1148 315.112H90.681L90.3918 314.099L89.8133 313.906L88.2708 314.195L87.3549 314.003L86.9211 313.52L86.6318 312.845L85.2339 310.579L85.3303 308.843L85.716 306.963L85.8606 304.986L85.4749 300.213L85.2339 299.345L84.0288 297.272L83.6914 296.356L83.9806 293.607L85.0893 291.438L88.0298 288.062L88.6082 287.002L88.8974 286.134L89.5241 285.555L90.922 285.314L92.0307 284.928L93.0912 284.012L94.007 282.952L94.6337 282.035L94.8265 280.637L95.0675 280.01L96.0316 279.625L97.4295 278.66L98.1526 277.6L99.3095 275.189L100.274 274.273L100.948 274.658L101.768 274.707L102.587 274.562L103.31 274.273L104.708 273.116L105.528 272.199L106.877 269.017L107.89 267.715L109.866 264.147L110.155 262.894L110.445 260.049L110.734 258.651L112.614 254.649L113.096 252.624L112.421 250.406L109.77 247.465L109.384 246.452L109.529 245.199L110.204 242.691L110.252 241.148L110.155 239.75L109.963 239.123L109.384 238.014L109.722 236.568L109.866 235.363L111.65 233.916L112.999 232.952L113.578 232.229L114.156 231.698L116.036 231.312L119.169 228.419L121.049 224.418L121.676 221.621L122.399 220.705L123.652 220.271L124.52 219.596L125.195 218.68L126.207 217.86L127.123 216.992L128.087 212.846L129.967 211.689L132.281 211.255L133.968 211.158L135.559 211.592L136.426 212.556L137.439 213.424L139.608 212.942L141.584 214.34L143.657 213.183L145.489 212.508L146.405 213.28L147.465 213.955L149.297 214.099L151.129 213.955L150.791 215.112L150.261 216.173L151.611 216.751L152.912 217.089L153.683 218.439L154.214 219.982L156.286 221.959L158.504 223.646L163.18 221.38L166.65 220.319L169.302 217.571Z" fill="#009649" stroke="white" stroke-width="2" stroke-linejoin="round" data-country-region="North Region"></path>
<path class="region" d="M107.167 92.4033L107.938 93.7052L107.167 98.9125L106.155 101.323L104.805 103.445L102.298 104.361L99.8882 105.663L97.719 107.495L97.5262 110.147L98.2975 111.159L97.9601 112.172H95.2124L94.2001 112.654L91.7417 113.233L88.8977 115.884L86.5839 120.417L84.3184 121.622L90.4402 123.695L91.1151 125.431L93.4289 127.263L93.9591 128.324L94.4412 133.628L92.6576 139.028L91.6935 140.426L90.4885 141.583L89.3798 143.175L87.2588 147.176L82.2938 149.443L75.9309 149.877L72.7976 149.635L72.8458 150.359L70.8695 149.877L66.4347 150.986L62.5302 149.973L61.1323 149.443L58.7703 147.466L58.5775 145.73V143.512L57.5652 141.101L56.1673 138.98L54.3837 137.63L49.6598 138.208L47.6352 137.389L47.105 133.821L47.1532 130.976L45.5142 127.89L44.8876 126.347L43.9235 124.997L42.5256 123.936L41.4169 122.683L40.3564 119.597L38.0426 117.668L35.1504 116.752L33.4151 114.245L34.5719 113.329L36.2109 111.738V111.352L34.3791 110.918L28.7393 111.931L27.5342 111.063L27.6788 109.713L28.2572 106.965L28.4018 105.518L28.6429 105.132L29.848 104.361L30.1854 103.879L30.089 103.348L29.3177 101.468L30.4746 100.938L33.3186 100.359L34.5237 99.6357L35.295 98.6232L38.5729 92.4998L40.5974 84.2066L40.6456 82.6155L40.8867 82.0851L41.7061 81.8923L42.863 82.0369L43.8753 82.6155L45.0804 83.0495L46.5265 82.8566L48.8885 81.8923L49.5634 81.3137L51.7325 79.0958L52.6002 78.8065L58.5293 75.6242L67.447 68.2954L68.3147 67.8615L68.5557 66.8489L68.4593 65.6436L69.4234 65.6918L70.1946 66.8007L70.2428 68.8258L69.0377 74.3706L69.2305 75.8171L69.7126 76.2028L71.5443 77.1671L72.7012 78.035L73.1351 77.9868L73.2315 78.5172L72.5084 80.494L71.4961 81.8923L71.6407 82.278L72.3156 83.1459L72.2674 84.062L71.5925 86.6174L72.3156 87.3889L73.2315 89.2693L73.8581 90.1854L74.8222 91.1015L75.8345 91.4872L76.9432 91.3426L78.2929 90.764L81.3779 88.6425L82.583 88.1603L89.8136 86.8103H91.2115L92.6094 87.0514L95.4535 88.0639L95.7427 88.7871L95.5981 89.4139L95.0196 90.7158L95.3088 91.3908L96.2729 91.5354L98.7795 90.4265H99.9846L100.949 91.2944L102.106 93.4159L103.118 94.1391L103.986 94.1873L105.191 93.9462L106.396 93.5605L107.071 93.0783L107.167 92.4033Z" fill="#009649" stroke="white" stroke-width="2" stroke-linejoin="round" data-country-region="North Region"></path>
<path class="region" d="M210.227 117.33L210.275 117.716L209.937 118.439L206.659 120.223L202.996 121.381L201.357 122.248L199.863 123.309L199.091 126.058L198.802 129.288L199.14 133.386L198.224 137.292L196.729 139.028L197.549 140.908L198.754 142.788L199.863 143.174H201.068L200.248 145.006L200.586 147.465L200.441 150.069L199.14 151.901L194.849 156.144L192.729 159.326L193.548 160.869L195.814 163.618L196.199 164.534L195.621 165.305L194.801 165.884L194.367 166.752L194.416 167.812L194.175 169.307L193.982 174.129L194.271 177.022L193.452 178.516L192.198 179.577L189.017 179.818L187.474 180.445L186.076 181.457L184.148 182.374L182.461 183.531L182.365 186.713L181.931 189.895L179.569 190.377L177.014 190.233L177.255 191.824L176.436 193.077L173.543 195.778L169.735 198.381L168.482 199.587L167.47 201.033L164.577 203.251L163.903 206.819L164.722 210.339L166.457 211.882L168 213.714L169.301 217.571L166.65 220.319L163.18 221.38L158.504 223.646L156.286 221.959L154.214 219.982L153.683 218.439L152.912 217.089L151.611 216.751L150.261 216.173L150.791 215.112L151.129 213.955L149.297 214.1L147.465 213.955L146.405 213.28L145.489 212.508L143.657 213.183L141.584 214.341L139.608 212.942L137.439 213.425L136.426 212.557L135.559 211.592L133.968 211.158L132.281 211.255L129.967 211.689L128.087 212.846L127.123 216.993L126.207 217.86L125.195 218.68L124.52 219.596L123.652 220.271L122.399 220.705L121.676 221.621L121.049 224.418L119.169 228.42L116.036 231.313L114.156 231.698L113.578 232.229L112.999 232.952L111.65 233.916L109.866 235.363L110.493 228.805L111.023 226.587L111.119 225.237L110.734 221.236V219.934L111.119 219.066L112.565 216.848L112.903 215.498L113.385 214.485L115.506 212.219L115.94 211.592L115.313 210.821L112.806 209.712L111.794 209.037L111.023 208.169L110.493 207.253L110.252 206.289L110.155 197.272L110.734 194.958L110.155 194.476L108.324 194.62L106.492 194.572L105.817 192.836L105.769 188.738L106.347 187.533L107.456 184.399L107.408 181.168L106.685 179.915L105.672 178.902L103.31 175.961L105.865 175.238L111.071 174.755L113.337 174.129L115.458 172.634L118.736 168.921L120.278 167.62L121.387 167.234L124.906 167.62L125.918 167.33L129.485 165.257L131.558 165.064L132.618 162.991L134.305 161.4L134.739 159.085L133.872 156.916L131.943 154.36L132.088 151.467L132.956 149.635L132.763 147.755L131.654 146.742L130.787 145.537L130.979 143.512L133.775 137.388L135.028 133.724L136.667 130.156L136.86 128.517L141.199 127.89L143.416 125.479L144.38 122.297L144.476 120.995L144.043 119.789L143.464 118.922L143.561 118.005L143.271 116.414L144.284 113.666L144.235 112.22L143.705 110.484L141.632 107.784L141.584 105.903L143.898 107.06L145.923 108.362L147.851 108.411L149.682 108.748L150.502 109.568L150.743 110.918L154.262 112.268L157.925 107.832L159.275 106.916L160.866 106.53L163.035 106.868L164.047 104.794L164.963 104.264L169.205 102.48L169.542 101.564L170.121 101.371L171.953 101.178L172.531 100.117V98.2852L173.013 95.0548L173.64 93.8494L174.604 93.8011L175.616 94.1387L180.774 93.7529L181.352 96.3566L181.786 97.562L182.413 98.6227L182.895 98.8638L183.811 98.7192L185.402 99.4424L186.414 100.6L187.812 103.637L189.788 108.025L190.993 110.002L192.825 112.316L193.741 113.232L194.801 113.811L195.958 114.004L197.163 114.438L197.983 115.064L198.609 115.305H199.381L200.634 114.92L201.164 114.871L202.225 115.161L205.792 117.089L207.575 117.716L208.588 117.813L210.227 117.33Z" fill="#009649" stroke="white" stroke-width="2" stroke-linejoin="round" data-country-region="North Region"></path>
<path class="region" d="M72.8455 150.358L73.2311 151.901L73.8578 153.396L74.0024 154.505L73.8578 162.026L72.8937 163.762L71.4476 165.209L69.4712 166.269L67.302 165.98L63.5903 163.232L61.0837 163.714L59.0592 165.016L58.4325 167.427L57.1792 169.114L55.6367 170.657L54.287 171.429L52.8891 172.055L47.0564 172.296L41.8986 174.177L41.995 176.925L43.2483 180.011L42.3324 180.879L37.8495 183.531L37.271 183.772L36.4033 183.868L35.5357 183.675L34.909 183.724L34.2824 184.061L32.9809 184.591L31.6312 184.495L29.703 185.7L27.582 186.134L25.4611 186.231L22.7134 185.508L20.6889 185.17L21.5083 184.061L22.1832 182.181L22.617 181.602L23.1473 181.265L24.3524 180.734L24.8826 180.349L25.5093 179.336L25.7985 178.227L26.0877 175.864L27.7266 171.573L29.3174 166.752L29.7512 164.052L29.6548 160.532L29.5102 159.905L29.221 159.953L28.8835 160.869L28.4015 161.11L27.341 160.725L26.3287 160.098L25.6057 159.134L24.5452 158.7L24.0632 158.362L23.1955 156.482L21.5566 154.312L17.9413 146.26L16.6398 144.813L14.2296 144.187L11.9158 144.717L10.0358 145.971L8.78253 147.61L8.05947 150.069L6.17952 150.744L5.36005 151.419L5.40825 154.071L4.44418 155.035L3.33549 155.083L2.17859 154.457L1.31092 153.396L0.925293 152.046L1.0699 149.731L0.925293 147.658L1.11811 146.694L1.84117 145.874L2.41961 144.91L2.70884 143.704L2.85345 142.258L3.43189 140.137L4.25136 134.11L4.92622 131.747L5.74568 129.963V129.047L6.22772 127.986L7.62563 125.961L7.91486 125.093L8.20408 123.936L8.83073 123.116L10.5661 121.573L12.205 119.548L13.2173 118.68L15.7239 117.909L16.4951 116.993L17.0736 115.932L17.9413 115.064L19.1464 114.823L24.6898 115.739L27.3892 116.511L28.8835 116.463L30.9081 115.739L32.8363 114.679L33.4147 114.245L35.15 116.752L38.0423 117.668L40.3561 119.597L41.4166 122.682L42.5252 123.936L43.9232 124.997L44.8872 126.347L45.5139 127.89L47.1528 130.976L47.1046 133.82L47.6349 137.388L49.6594 138.208L54.3834 137.629L56.1669 138.979L57.5649 141.101L58.5771 143.512V145.73L58.7699 147.465L61.1319 149.442L62.5299 149.973L66.4344 150.985L70.8691 149.876L72.8455 150.358Z" fill="#009649" stroke="white" stroke-width="2" stroke-linejoin="round" data-country-region="North Region"></path>
<path class="region" data-country-region="South Region" d="M448.402 426.635L447.438 428.515L446.136 429.769L444.979 431.264L444.642 432.565L444.16 433.723L441.846 434.446L440.352 435.555L438.761 436.278L437.026 435.796L436.447 436.423L435.628 436.953L433.314 436.905L431.145 436.519L429.747 435.748L428.156 435.603L427.144 437.339L426.614 439.364L427.048 440.328L427.337 441.341L425.891 442.498L422.902 445.68L420.685 448.959L419.046 452.527L417.648 453.684L417.841 455.227L419.383 456.288L420.636 457.638L419.721 458.457L418.998 459.856L420.106 461.639L420.588 463.713L419.769 464.822V465.641L419.962 466.509L420.106 468.004L419.383 468.92L416.105 468.438L413.84 469.884L410.08 469.933L407.718 469.499L405.549 469.884L404.874 471.476L403.572 472.44L401.789 472.054L400.198 471.283L398.511 471.042L397.017 471.62L396.679 473.259L395.956 473.501L395.281 474.031L396.294 477.165L399.957 478.515L397.932 479.094L395.667 479.431L393.932 480.106L392.293 481.119L389.545 483.867L386.412 485.844L384.725 485.121L380.965 480.974L381.35 479.045L382.652 477.647L382.073 476.008L380.82 474.561H379.422L377.976 474.899L376.434 474.947L374.987 475.526L373.493 474.658L371.758 475.188L369.637 475.67L365.636 475.767L364.431 475.67L363.804 476.104L363.129 476.394L361.635 475.67L360.526 474.61L359.755 474.802L359.128 475.429L357.682 475.767L356.188 475.381L354.645 474.754L352.91 474.947L351.994 476.008L350.5 476.683H350.259L351.03 475.911L351.416 474.706L351.512 471.909L351.801 470.511L353.344 466.413L354.019 462.99L353.344 459.856L351.56 457.252L348.764 455.42L346.017 454.504L344.619 454.311L342.016 454.552L341.1 454.407L340.329 453.973L339.509 453.153L338.834 452.093L336.28 446.644L335.557 444.185L335.653 441.823L337.196 440.135L338.497 439.605L339.22 439.219L339.509 438.496L344.426 438.978L348.234 440.81L352.428 442.016L356.429 443.655L357.73 444.668H359.659L362.84 446.451L366.166 446.018L367.757 446.596L369.396 446.789L372.336 444.426L375.084 441.63L376.916 441.582L378.699 442.112L380.579 442.064L383.857 440.569L385.11 439.46L385.014 437.773L384.339 436.133L384.243 432.71L383.809 431.119L383.905 429.383L384.339 428.66L385.062 428.178L386.122 427.985L386.605 427.165L388.629 427.021L390.605 427.31L392.1 427.792L393.401 428.66L394.269 430.733L395.522 432.228L395.956 431.022L396.197 429.431L397.354 429.19L400.825 429.865L402.415 429.142L404.681 428.997L406.898 428.419L408.345 426.972L410.128 426.538L411.671 427.31L413.213 427.454L414.322 426.731L416.25 426.056L417.118 424.513L416.684 422.295L416.877 420.704L418.467 417.667L419.528 416.751L420.974 417.667L422.613 417.522L425.698 416.124L426.517 414.436L426.758 412.459L425.987 410.868L425.216 410.724L424.396 410.772L423.963 410.483L424.155 409.422L424.445 408.891L426.18 407.782L426.903 407.107L427.144 405.998L428.494 403.684L430.036 403.732L431.145 405.468L431.29 408.12L431.049 410.338L430.615 411.013L430.856 411.591L431.916 411.158L432.687 412.941L433.266 413.761L434.375 414.677L435.917 415.545L436.351 415.931L436.64 416.558L436.833 418.052L437.026 418.535L437.701 418.968L438.52 419.113L440.689 419.017L443.148 419.306L444.256 419.644L445.413 420.222L446.667 421.138L447.197 422.006L447.872 425.526L448.402 426.635Z" fill="#009649" stroke="white" stroke-width="2" stroke-linejoin="round"></path>
<path class="region" d="M180.774 93.7528L175.616 94.1385L174.604 93.801L173.64 93.8492L173.013 95.0546L172.531 98.2851V100.117L171.953 101.178L170.121 101.371L169.542 101.564L169.205 102.48L164.963 104.264L164.047 104.794L163.035 106.868L160.866 106.53L159.275 106.916L157.925 107.832L154.262 112.268L150.743 110.918L150.502 109.568L149.682 108.748L147.851 108.41L145.923 108.362L143.898 107.06L141.584 105.903L139.993 104.071L137.824 102.721L135.607 101.901L133.438 102.48L131.269 102.287L129.099 100.985L127.316 99.2494L124.327 95.2957L122.351 94.235L117.434 92.8849L116.711 92.1135L115.747 91.4867L114.638 91.1491L111.698 88.883L110.541 88.2562L110.686 87.3401L110.493 86.4722L109.962 85.749L109.239 85.1222L108.468 84.64L105.142 83.4346L104.274 82.615L103.792 81.4578L103.841 80.3006L104.467 77.7452L104.708 70.9949L105.624 69.5003L105.913 68.2466L105.046 65.4983L105.142 64.3894L106.058 63.7626L107.456 63.5697L108.757 63.184L109.577 61.9786L109.432 60.6285L108.516 60.05L107.311 59.7124L106.395 59.0374L106.154 58.3142L106.347 56.9159L106.299 56.2409L105.962 55.6623L104.901 54.7462L104.66 54.3605L104.612 53.2997L104.853 52.0943L106.106 48.2371L106.058 47.5621L104.515 46.1156L104.178 45.6334L103.359 43.9459L101.912 41.9208L101.575 40.2815L101.141 39.7029L98.8756 39.0279L97.5259 38.16L96.8992 37.1957L96.5136 34.4474L95.9833 33.0491L94.248 30.2044L93.6213 28.7579V27.2632L94.0552 26.0578L94.3926 24.7078L94.007 22.8756L93.2357 21.6702L91.2594 19.3076L91.1147 18.1504L92.127 16.8968L92.7055 16.3182L93.3321 15.9807H94.1516L95.6941 16.3664L96.5618 15.9807L96.851 15.4021L97.7187 12.5574L97.9597 11.1591L99.2612 9.90552L99.3576 8.55547L99.2612 7.20543L99.3576 5.85539L99.9361 4.31248L100.852 3.20352L102.153 2.04634L103.648 1.17846L105.479 0.88916L106.347 0.937376L108.227 2.5285L110.3 7.06078L111.891 8.6519L113.481 8.9412L114.108 8.07332L114.349 6.67506L115.024 5.46966L116.133 5.03572L118.88 4.93929L120.278 4.40891L121.58 4.21605L122.833 4.31248L126.737 5.2768L127.316 5.51788L127.943 5.9036L128.232 6.48219L128.28 7.109L128.714 7.68759H129.437L130.256 9.32693L130.883 11.4966L131.606 12.1234L131.847 12.7985L131.606 13.6181L131.702 14.0521L132.618 15.0646L133.727 15.8843L134.643 16.7522L135.077 18.1504L136.282 19.3076L140.09 21.2362L144.669 25.7203L146.646 26.9257L147.272 27.5043L147.658 28.2275L148.285 29.9151L148.718 30.6865L150.02 31.7473L151.611 32.6634L152.575 33.5313L151.611 35.026L151.562 35.3152L152.285 37.8707L154.696 39.1725L157.491 40.0886L159.468 41.7279L161.637 46.7424L162.264 49.5389L161.926 53.5408L162.071 55.1319L162.36 56.6748L162.794 57.7356L163.276 58.4106L163.71 58.3624L167.036 58.3142L167.759 58.1695L169.735 56.8677L171.133 54.9873L171.904 52.8176L172.049 47.321L173.206 46.212L174.459 47.2246L174.99 50.3586L174.797 53.1069L174.99 54.4087L175.761 55.2284L176.869 55.1319L181.449 53.1551L182.172 53.0104L182.654 53.8783L183.04 55.4212L182.991 60.1464L183.184 61.7857L183.811 63.2804V64.0519L182.558 65.3055L180.147 68.2949L178.798 69.5485L175.905 74.3218L176.869 73.8397L178.123 73.0682L179.376 72.4414L180.244 72.6343L180.196 73.4057L178.075 76.8291L177.834 78.2273L177.785 81.3613L177.544 82.5185L176.773 83.29L174.604 83.8686L173.592 84.6882L172.82 85.9901L173.351 86.2794L174.556 86.1347L175.954 86.1829L176.918 86.5686L177.737 87.1472L178.364 87.8705L178.653 88.6901L178.605 89.3169L178.026 90.667V91.342L178.412 92.017L179.376 92.1617L180.051 92.5474L180.774 93.7528Z" fill="#009649" stroke="white" stroke-width="2" stroke-linejoin="round" data-country-region="North Region"></path>
<path class="region" data-country-region="South Region" d="M401.886 371.524L397.885 371.861L394.318 370.656L392.389 370.367L390.606 369.595L387.714 366.606L385.978 365.593L384.243 365.352L383.857 366.365L383.664 367.425L382.17 368.583L375.759 369.547L369.107 369.113L363.997 367.474L358.936 365.207L356.526 364.725L354.212 365.159L353.826 367.908L352.91 369.643L350.356 369.017L343.414 365.834L339.51 366.22L336.28 366.075L334.545 367.908L332.135 368.968L330.544 368.39L329.049 368.92L327.121 368.824L325.627 367.715L324.567 366.124L323.072 365.111L321.578 365.786L320.084 366.847L318.107 367.522L315.986 367.281L314.588 365.931L311.31 366.75L309.479 365.979L308.129 366.654L307.117 367.763L305.574 367.377L303.935 366.799L302.441 367.425L302.248 369.306L300.898 370.222L299.597 371.717L299.549 372.922L300.802 372.054L301.862 373.163L302.827 377.02L301.959 378.66L298.392 378.226L296.512 376.249L296.126 372.343L296.415 370.849L300.513 361.061L300.802 359.614L301.091 356.529L300.947 352.527L301.188 349.296L301.139 348.477L300.947 347.705L299.452 344.33L298.729 343.51L297.139 342.546L296.705 342.016L295.741 340.087L294.487 338.207L293.716 337.387L290.679 335.458L289.522 335.024L279.641 329.817L277.761 328.13L275.881 325.863L275.591 325.333L275.206 324.031L274.772 323.211L273.856 322.054L272.41 319.161L271.446 317.908L267.349 315.401L266.963 315.063L268.023 311.64L272.121 304.648L272.603 302.72L273.422 300.839L274.579 296.789L276.555 293.462L279.11 293.125L281.569 292.45V291.63L282.629 291.244L283.979 290.473L285.811 292.305L288.221 293.366L293.186 297.175L299.452 300.743L301.429 303.105L301.911 305.565L304.417 305.95L306.538 307.348L308.033 308.699L315.167 309.759L318.589 309.132L321.048 306.384L322.735 302.189L324.856 298.332L327.941 294.041L328.953 289.268L330.64 289.075L331.219 288.882L331.652 289.605L331.749 290.377L331.315 291.968L331.363 292.739L332.038 293.703L333.099 294.427L334.255 294.909L335.268 295.198L336.039 295.777L336.618 295.391L336.859 294.909L337.148 293.414L337.533 292.836L338.69 292.305L340.04 292.402L341.293 292.932L342.306 293.703L342.691 294.282L343.173 296.114L343.221 296.548L342.884 297.271L343.173 297.561L344.137 297.898L345.198 300.261L345.728 300.743L346.837 301.37L347.367 301.852L347.704 302.623L347.945 304.118L348.186 304.793L348.62 305.275L350.115 306.095L351.127 308.216L350.404 313.279L351.079 315.545L353.537 317.86L355.224 320.994L356.622 322.922L357.201 324.031L358.02 326.587L358.598 327.647L359.37 328.274L362.696 329.721L364.72 331.119L366.407 332.662L370.553 338.062L371.903 339.508L377.398 346.259L388.003 355.371L389.353 356.095L390.317 356.191L391.04 355.757L391.956 354.793L392.389 353.636L392.727 353.25L393.546 353.202L394.269 353.539L394.414 354.118L394.366 354.793L394.51 355.613L395.715 357.011L395.956 357.397L395.908 358.023L395.378 359.084L395.33 359.759L395.667 360.772L397.595 363.954L400.632 366.847L401.307 368.004L401.259 368.39L400.825 369.354L401.886 371.524Z" fill="#009649" stroke="white" stroke-width="2" stroke-linejoin="round"></path>
<path class="region" d="M328.953 289.268L327.94 294.041L324.855 298.332L322.734 302.189L321.047 306.384L318.589 309.132L315.166 309.759L308.032 308.699L306.538 307.348L304.417 305.95L301.91 305.564L301.428 303.105L299.452 300.743L293.185 297.175L288.22 293.366L285.81 292.305L283.978 290.473L282.629 291.244L281.568 291.63V292.45L279.11 293.125L276.555 293.462L274.579 296.789L273.422 300.839L272.602 302.72L272.12 304.648L268.023 311.64L266.963 315.063L266.239 314.243L265.854 313.52L265.275 311.495L262.431 305.227L261.66 304.118L257.659 300.502L256.84 299.441L256.117 298.139L253.417 291.389L250.236 285.796L249.031 284.494L247.488 283.675L245.946 283.53L244.548 283.867L243.343 284.687L242.282 285.892L241.8 286.616L241.029 286.857L240.017 286.616L239.438 285.989L239.004 285.121L238.378 284.35L237.414 283.675L236.401 283.144L235.341 282.807L234.232 282.614L230.569 282.421L229.701 282.18L226.086 280.492L224.061 278.998L220.349 277.985L218.71 277.84L217.12 277.455L216.589 277.406L215.336 277.551L214.179 277.31L210.709 276.249H210.034L204.972 277.31L203.43 277.985L202.032 278.998L200.971 280.348L200.345 281.987V282.421L200.73 283.337L201.261 283.53L203.912 285.362L204.346 285.941L204.249 286.567L203.671 287.05L202.851 287.339L200.538 287.725L199.14 288.255L197.26 288.544L196.151 289.075L195.476 289.943L195.042 291.003L194.705 293.221L194.271 294.668L193.548 295.632L192.488 296.307L191.138 296.789L191.041 296.548L189.836 294.571L189.065 294.861L188.487 296.162L187.715 297.368L187.04 297.754L186.366 297.802L185.787 297.416L185.353 296.693L185.257 295.921L185.835 295.053L186.317 293.318L186.173 292.836L186.125 291.534L185.209 289.026L182.558 287.242L179.376 286.182L180.003 282.855L179.231 279.48L177.785 278.13L176.436 276.635L174.122 271.621L178.364 270.656L190.8 271.428L196.199 270.512L203.864 270.126L208.877 268.872L213.312 266.269L214.999 264.87L216.493 263.424L217.168 260.965V258.168L216.879 255.902L216.348 253.829L216.107 251.659L216.734 250.068L217.698 250.02L218.421 249.586L218.132 249.056L217.409 248.911L216.589 247.079L216.252 245.102V243.414L219.626 242.257L221.747 242.112L224.35 244.716L226.278 245.295L228.11 246.259L229.701 247.561L231.533 248.573L233.075 249.682L234.762 250.357L236.498 249.923L237.896 248.766L239.776 247.802L241.752 246.982L244.066 247.561L249.706 250.213L250.477 250.936L251.393 251.37L253.032 251.418L254.719 251.273L256.791 250.454L258.189 248.381L259.587 246.789L261.178 245.536L262.046 243.993L262.431 242.209L263.829 241.1L265.131 239.798L265.179 237.484L264.842 235.121L265.42 233L265.565 231.746L266.48 232.469L267.3 233.337L268.312 234.109L269.517 234.687L270.626 235.025L271.638 235.507L272.699 236.471L274.53 239.268L275.302 239.895L276.459 240.136L278.435 239.943L279.64 240.232L280.701 240.907L281.472 241.679L283.641 245.005L284.412 245.68L286.533 246.886L287.449 247.561L289.184 249.345L290.149 250.02L290.775 250.165L291.98 250.309L292.607 250.502L293.716 251.997L294.198 252.431L294.921 252.72L297.524 253.106L300.03 253.877L300.898 253.974L304.562 253.684L306.2 254.166L306.827 255.854L307.502 256.529L308.611 256.818L309.864 256.77L310.973 256.481L311.985 256.674L315.166 258.554L316.709 259.133L317.528 259.084L318.974 258.747L319.794 258.988L321.578 262.074L322.975 262.99L323.409 263.569V264.629L322.927 265.738L322.301 265.835L321.529 265.594L320.758 265.69L319.842 266.895L319.023 268.872L318.059 272.585L317.721 275.381L318.396 277.262L319.842 278.708L321.867 280.155L322.975 281.312L322.927 282.132L322.542 282.999L322.59 284.398L323.168 285.266L326.253 287.194L326.639 287.676L327.217 288.737L327.603 289.123L328.278 289.316L328.953 289.268Z" fill="#009649" stroke="white" stroke-width="2" stroke-linejoin="round" data-country-region="North Region"></path>
<path class="region" data-country-region="South Region" d="M471.684 501.948L471.781 501.129L472.793 499.296L472.215 497.705L470.817 496.5L469.033 492.884L466.286 492.45L465.129 493.703L463.779 494.427L461.803 493.945L459.874 493.173L458.38 492.257L457.223 490.955L456.115 489.412L454.91 488.159L450.475 486.664L445.944 487.001L444.449 488.11L442.907 488.882L441.123 488.496L439.725 488.544L438.327 488.882L436.255 489.75L434.085 489.846L432.205 489.364L430.567 488.207L428.542 487.821L426.469 488.062L424.782 489.075L423.432 490.28L423.047 492.064L421.842 493.607L421.07 495.15L419.672 495.777L418.901 495.825L418.564 490.232L411.912 484.928L410.514 484.446L408.296 484.35L406.127 483.433L403.187 479.721L399.957 478.515L396.294 477.165L395.281 474.031L395.956 473.501L396.679 473.26L397.017 471.621L398.511 471.042L400.198 471.283L401.789 472.055L403.572 472.44L404.874 471.476L405.549 469.885L407.718 469.499L410.08 469.933L413.84 469.885L416.105 468.438L419.383 468.921L420.106 468.004L419.962 466.51L419.769 465.642V464.822L420.588 463.713L420.106 461.64L418.998 459.856L419.721 458.458L420.637 457.638L419.383 456.288L417.841 455.227L417.648 453.684L419.046 452.527L420.685 448.959L422.902 445.68L425.891 442.498L427.337 441.341L427.048 440.329L426.614 439.364L427.144 437.339L428.156 435.603L429.747 435.748L431.145 436.519L433.314 436.905L435.628 436.953L436.447 436.423L437.026 435.796L438.761 436.278L440.352 435.555L441.846 434.446L444.16 433.723L444.642 432.566L444.98 431.264L446.136 429.769L447.438 428.516L448.402 426.635L448.788 427.117L449.559 427.841L450.571 428.467L452.307 428.853L453.271 429.142L454.958 430.251L457.32 433.289L458.766 434.591L460.549 435.121L462.381 434.928L465.948 434.012L467.153 433.964L467.443 434.302L467.298 435.073L467.25 436.327L467.539 437.05L467.973 437.58L468.021 438.207L467.25 439.123L466.334 439.943L464.599 443.077L463.634 444.186L462.719 444.668L460.308 445.102L459.151 445.536L454.765 448.429L454.186 448.573L453.608 448.477L452.403 447.995L451.583 448.139L450.909 448.863L449.318 452.479L449.221 453.829L449.945 454.793L453.463 456.867L454.09 457.59L454.379 458.506L454.668 461.254L454.958 462.315L455.584 463.231L456.645 464.051L459.055 465.304L459.874 466.028L463.249 472.151L464.02 472.633L464.454 472.392L464.888 471.813L465.514 471.331H465.948L467.25 471.621L467.925 471.283L468.262 471.38L468.792 472.681L469.419 472.922L469.901 472.681L470.769 473.115L470.913 474.417V476.008L471.154 477.165L472.359 477.889L475.107 477.455L476.216 477.744L476.505 478.515L476.649 481.071L477.035 482.228L477.806 483.096L480.65 485.217L481.566 486.23L482 487.146V488.159L481.518 491.293L481.325 491.727L480.94 491.823L480.265 491.341L479.638 491.919L479.397 492.546L479.252 494.668L478.915 495.921L478.24 496.934L476.939 497.995L476.649 498.477L476.698 499.152L477.276 500.309L477.228 501.032L476.505 501.756L475.541 501.852L473.805 501.563L472.745 501.659L471.684 501.948Z" fill="#009649" stroke="white" stroke-width="2" stroke-linejoin="round"></path>
<path class="region" data-country-region="South Region" d="M471.685 501.948L469.901 502.527L468.696 502.623L468.069 503.202L468.021 504.069L468.455 505.13L468.359 506.095L468.6 506.962L469.13 507.686L469.901 508.264L470.865 508.795L474.721 511.736L475.252 512.314L475.059 512.989L474.143 514.291L471.492 516.847L470.962 517.763L471.203 518.775L471.829 519.788L472.118 520.752L471.444 521.572L471.829 522.199L472.504 522.729L472.986 523.356L472.842 524.32L471.974 525.043L469.901 528.129L468.889 528.611L468.503 529.045L467.973 530.54L467.298 531.552L467.105 532.613L467.153 533.722L466.961 534.204L466.141 534.879H465.418L463.924 534.204L462.719 533.963L462.092 533.722L460.935 532.613L459.2 531.36L458.043 531.263L457.079 532.131L455.922 533.722L454.91 534.494L454.62 534.783L454.428 536.567L453.753 537.869L453.174 538.158L452.21 538.013H451.246L450.716 538.785L450.379 539.894L449.848 540.955L448.113 542.497L446.185 543.799L444.739 544.281L444.064 543.896L443.534 543.124L442.473 542.305L441.702 541.967L441.461 542.353L439.581 544.619L438.376 546.596L437.315 546.933L436.351 549.344L435.532 549.537L434.905 549.441L433.7 548.717L433.122 548.476L432.447 548.573L431.772 549.007L429.313 550.405H428.398L427.482 550.019L426.614 549.392L424.927 547.705L422.709 544.523L421.938 543.124L421.167 542.401L416.539 540.955L414.659 539.942L413.406 538.013L412.779 537.628L411.333 537.29L410.755 536.953L410.514 536.326L410.225 534.253L409.935 533.433L409.164 532.179L408.779 531.794L407.429 533.095L406.224 533.529L406.127 534.204L406.272 535.265L406.995 535.795V536.181L406.031 536.133L404.537 535.844L403.958 536.181L403.717 536.953L403.765 537.387L404.488 537.772L404.199 538.254L403.476 538.688L402.849 539.942L401.211 540.617L397.788 541.099L398.559 539.363L398.126 538.592V537.724L397.884 535.892L396.728 534.253L395.426 533.144L394.269 531.938L392.919 526.683L391.377 525.381L389.593 524.368L388.292 522.874L387.376 521.09L387.231 516.268L389.834 512.17L392.775 509.18L395.522 507.059L396.39 505.371L397.933 504.503H399.813L401.403 505.323L402.126 507.107L403.669 507.927L405.067 506.673L406.802 506.046L408.104 507.348L407.911 509.373L407.188 511.061L407.091 511.977L407.284 512.797L406.995 514.581L407.043 516.268L408.297 517.859L409.984 518.92L411.767 519.065L415.045 520.125L416.298 519.209L418.227 519.306L420.155 518.92L421.119 517.377L421.215 515.545L422.42 514.147L423.529 513.182L424.204 512.363L426.855 511.639L428.253 511.784L427.289 509.132L428.446 507.155V503.828L427.819 500.501L427.048 499.489L426.18 498.766L425.505 497.56L424.589 496.692L421.986 497.319L420.589 497.03L419.48 496.259L419.673 495.776L421.071 495.15L421.842 493.607L423.047 492.064L423.433 490.28L424.782 489.074L426.469 488.062L428.542 487.821L430.567 488.206L432.206 489.364L434.086 489.846L436.255 489.749L438.328 488.881L439.725 488.544L441.123 488.496L442.907 488.881L444.449 488.11L445.944 487.001L450.475 486.664L454.91 488.158L456.115 489.412L457.223 490.955L458.38 492.257L459.875 493.173L461.803 493.944L463.779 494.426L465.129 493.703L466.286 492.449L469.033 492.883L470.817 496.5L472.215 497.705L472.793 499.296L471.781 501.128L471.685 501.948Z" fill="#009649" stroke="white" stroke-width="2" stroke-linejoin="round"></path>
</svg>