<svg width="651" height="579" viewBox="0 0 651 579" fill="none" xmlns="http://www.w3.org/2000/svg">
<path class="region" data-country-region="East Region" d="M333.265 248.305L333.07 253.575L333.135 255.331L333.33 256.177L333.785 257.869L334.176 258.649L334.501 259.3L335.021 259.95L335.542 260.406L340.16 263.138L345.56 265.415L348.942 266.456L349.723 266.847L350.503 267.432L351.674 268.473L352.325 269.319L352.845 270.23L353.691 272.637L354.081 273.548L354.472 274.068L354.862 274.394L356.098 275.174L358.245 276.996L361.627 280.444L362.343 281.355L363.579 283.437L369.238 295.408L367.157 295.668L366.506 295.473L365.726 295.148L365.14 294.627L364.62 293.977L364.164 293.261L363.319 291.374L362.928 290.724L362.538 290.203L361.627 289.292L360.912 289.032H360.326L360.001 289.227L359.611 289.618L359.09 290.333L358.7 290.984L358.375 291.439L357.854 291.96L357.269 292.415L352.325 295.148L345.625 281.615L344.974 280.639L342.502 277.907L341.461 277.126L340.616 276.476L335.737 274.459L333.135 272.962L326.044 266.261L325.264 265.22L324.353 263.919L319.409 253.314L318.823 251.428L318.693 249.801L318.889 247.459L320.32 248.11L321.36 248.045L323.052 247.719L323.897 247.654L327.02 248.89L327.54 248.955L333.265 248.305Z" fill="#009649" stroke="white" stroke-width="2" stroke-linejoin="round"></path>
<path class="region" data-country-region="East Region" d="M362.668 578.156H359.481L362.473 569.373L362.538 567.942L362.018 566.706L360.847 565.535L359.871 565.014L358.895 564.884L357.854 565.079L356.879 565.6L355.447 567.096L353.106 572.041L352.585 571.195L352.065 570.609L349.723 568.918L349.202 568.397L348.682 567.812L348.422 567.226L348.292 566.576L348.487 565.795L348.877 564.949L349.723 563.713L350.373 562.997L351.089 562.412L352.455 561.761L353.756 561.371L355.057 561.176L357.789 561.045L359.025 560.85L360.391 560.395L361.627 559.809L362.538 559.289L364.359 557.793L368.132 553.043L368.588 552.132L368.913 551.222L369.303 549.4L369.368 549.009L368.978 545.887L368.132 542.504L367.937 541.202V540.617L368.132 539.771L368.523 538.86L369.498 537.364L370.214 536.518L370.995 535.868L371.71 535.542L372.426 535.282L373.076 535.152L373.727 535.087H374.963L379.516 536.323L380.102 536.388L380.687 536.323L397.601 528.256L399.097 527.8L399.812 527.67L400.463 527.735L401.114 527.995L402.284 528.776L404.691 530.793L405.342 531.053L405.992 531.248H406.773L408.204 530.923H408.855L409.44 531.053L410.026 531.443L410.481 531.899L411.131 533.005L411.587 533.525L412.107 533.655L412.693 533.46L413.213 532.875L414.254 530.663L414.644 530.077L415.1 529.492L415.685 528.386L416.14 526.824L416.791 523.571L417.311 521.945L417.897 520.904L418.352 520.253L418.547 519.928L419.068 518.822L420.629 513.617L423.231 507.827L424.597 506.005L429.216 500.931L429.736 500.15L430.061 499.369L430.257 498.328L430.191 497.352L429.801 496.311L429.281 496.051L428.63 495.921L421.475 497.027L416.14 496.832L413.994 496.376L413.408 496.181L412.823 495.856L412.367 495.205L412.172 494.295L412.498 492.863L412.693 492.083L413.148 491.042L413.603 489.545L414.319 485.121L414.969 482.584L415.295 481.998L416.596 480.112L417.572 478.941L418.742 477.769L419.393 477.379L419.978 477.054L420.629 476.794L421.93 476.468L428.5 475.557L429.151 475.297L429.736 474.907L430.061 474.256L430.126 473.541L429.671 472.435L429.151 471.849L428.565 471.394L427.329 470.808L424.922 469.442L424.337 468.921L423.881 468.336L423.556 467.555L423.491 466.579L423.621 464.888L424.012 463.066L424.337 462.35L424.792 461.765L425.248 461.375L425.833 461.114L426.484 460.854L427.72 460.659L431.102 460.789L432.403 460.594L433.054 460.399L433.704 460.073L434.29 459.683L434.875 459.162L435.331 458.512L435.526 458.122L435.981 457.601L436.111 457.016L436.632 454.934V453.828L435.916 451.42L435.851 450.705L435.916 448.818L436.046 448.167V446.801L436.436 443.874V443.158L435.981 439.124L436.111 435.871L436.306 434.635V433.854L436.176 433.724L436.501 431.382L438.453 426.633L438.973 424.421L438.778 423.575V423.25L438.388 421.103L437.347 417.98L435.07 413.231L434.68 412.19L434.485 411.409L433.899 405.358L433.119 403.146L432.533 401.91L431.623 400.544L430.452 399.243L428.63 397.746L424.272 395.274L425.183 394.493L425.638 394.233L426.158 393.843L426.418 393.322L426.614 392.477V389.354L427.004 387.987L437.802 396.25L439.754 398.852L441.575 401.975L442.291 403.732L442.681 405.423L443.202 408.872L443.332 416.744L443.657 418.826L443.982 419.671L449.707 431.707L449.772 432.163L449.707 433.269L449.317 434.765L449.121 435.286L448.471 436.522L447.625 437.823L443.267 443.548L442.811 444.589L441.706 449.208L441.185 453.177L442.681 463.131L443.202 464.497L444.438 466.839L445.869 470.808L446.324 471.849L447.17 472.955L448.211 473.866L449.317 474.647L449.902 475.102L450.487 475.818L451.138 477.054L451.333 477.9L451.398 478.68L451.333 479.591V480.697L451.658 483.755L451.593 484.731L451.333 485.316L450.227 487.073L450.097 488.049L450.162 489.545L451.333 494.945L451.658 495.856L453.155 498.198L453.74 499.499L453.935 500.41L454 501.256L453.935 501.841L453.48 503.338L451.593 508.217L451.333 508.803L450.943 509.323L449.317 510.624L448.796 511.21L448.471 511.926L447.69 513.877L447.43 514.463L447.04 515.049L445.999 516.22L445.674 517L445.804 517.716L446.129 518.367L446.715 518.822L450.357 521.099L453.48 522.27L454.13 522.595L454.651 523.051L455.106 523.636L455.822 524.938L456.277 525.458L457.318 526.434L457.773 527.019L458.099 527.605L460.31 535.152L460.44 536.648L460.245 537.299L459.79 537.559H459.269L458.684 537.364L458.099 537.104L454.651 534.501L450.422 530.077L449.121 529.297L447.885 528.906L446.584 528.776L442.226 529.492H441.706L441.12 529.427L440.535 529.231L439.949 528.971L438.713 527.995L436.371 525.523L435.786 524.938L435.135 524.547L434.615 524.417L434.095 524.482L433.639 524.872L433.379 525.458L432.794 527.215L432.468 527.735L431.427 528.776L430.972 529.557V530.337L431.297 532.81L431.232 534.501L431.037 535.542L430.712 536.323L429.996 537.494L428.63 539.316L421.735 545.561L420.043 547.448L418.092 549.205L417.181 549.79L416.14 550.376L413.733 551.156L411.196 551.547L408.204 551.482L407.489 551.352L406.188 550.961L404.821 550.311L404.301 549.92L403.781 549.53L401.569 546.993L399.162 545.041L398.576 544.651L397.991 544.39L397.406 544.325L396.82 544.52L396.3 544.911L395.909 545.496L395.324 546.732L391.876 556.491L390.965 557.988L390.055 559.159L389.339 560.005L387.192 561.566L386.607 561.891L385.956 562.152L385.306 562.282H383.485L382.834 562.412L382.118 562.672L381.468 563.258L381.078 563.843L380.362 565.079L379.451 566.25L378.801 566.771L367.807 571.976L366.636 572.626L365.465 573.602L364.229 575.033L362.733 577.896L362.668 578.156Z" fill="#009649" stroke="white" stroke-width="2" stroke-linejoin="round"></path>
<path class="region" data-country-region="East Region" d="M354.992 9.08136L351.089 11.1633L349.723 12.2693L349.528 12.5946L349.463 13.1801L349.398 13.7006L349.528 14.2211L349.788 14.5463L350.504 15.3921L350.764 15.9777L350.894 16.5632L351.349 20.3366L351.414 22.2884L351.219 25.0209L351.284 26.1269L351.479 27.1679L351.545 28.9895L351.349 29.9654L350.829 31.3967L350.894 31.9823L351.219 32.4377L352.13 33.3485L352.26 33.869L351.935 34.0642H351.479L350.894 34.3895L350.439 34.7148L349.593 35.2352L348.487 34.1943L348.162 33.9991L347.641 33.8039L347.056 33.7389L346.471 33.8039L345.885 34.1292L344.714 35.1702H344.129L342.958 34.6497L340.095 34.5196L339.705 35.0401L339.64 35.6256V36.2762L339.705 37.3171L339.64 37.6424L339.51 38.1629L339.25 38.6834L338.99 39.9195L338.469 40.44L337.624 40.8303L333.786 41.0906L333.33 41.2207L332.81 41.546L332.224 41.8713L331.964 42.1315L332.029 42.3267L331.509 42.652L330.663 42.5219L329.882 42.652L328.972 42.9773L328.321 43.1074L325.199 42.0014L324.678 41.7412L324.288 41.8062L323.768 43.0424L323.247 42.1315L322.336 41.2207L321.881 40.8303L321.751 40.3099L321.881 39.399V38.7484L321.621 38.1629L320.905 37.122L320.775 36.8617L320.385 36.3412L317.848 34.9099L315.441 31.2666L314.986 30.8112L314.4 30.616L314.075 30.4859L313.489 29.6401L313.099 29.3799L312.709 29.445L312.319 29.7702L312.058 29.8353H311.148V29.445L310.822 27.7534L310.562 27.2329H310.172V27.6883H309.847L309.716 27.363L309.456 27.2329V26.8426L310.107 26.192L310.562 25.2161L310.822 24.045L310.952 22.7438L310.887 22.1583L310.757 21.6378L310.497 21.2475L310.172 20.9222L309.521 20.4668L309.326 20.2065L308.871 20.0113L308.611 20.2716L308.415 20.6619V20.9222L307.895 20.727L307.57 20.4017L307.31 19.9463L307.245 19.3607L307.049 18.7102L306.529 18.4499L306.074 18.3198L305.813 18.1246L305.878 16.5632L305.748 15.3271L305.293 14.6114L304.382 14.4162L302.886 13.3102L302.105 11.4886L302.431 10.3825L304.382 11.4886L305.813 12.5946L307.44 13.2452L309.391 13.4403L311.668 13.1801L319.149 11.1633L334.956 5.50309V5.95851L334.176 6.02357L329.232 7.91029L325.134 10.2524L322.336 11.6187L320.06 13.1801L319.734 13.3102L319.019 13.4403L318.629 13.5705L316.612 15.0018L315.636 15.3271L313.555 15.5222L313.099 15.7825H312.839L312.058 17.0186V17.474L313.164 17.7343L313.489 17.7993L313.88 17.474H314.205L315.051 17.9294L316.482 17.8644L317.978 17.409L318.629 16.8234L319.084 15.7825L320.125 16.1078L321.231 17.0186L321.881 17.8644H322.206L322.597 16.8234L323.377 15.7174L324.353 14.8716L325.199 14.4813L325.654 14.2861L326.24 14.5463L326.955 15.0018L327.736 15.3271L328.191 15.262L328.907 15.0668L329.622 15.0018L330.273 15.3271L329.882 15.4572L329.947 15.7825L330.663 15.9777L331.574 15.6524L332.419 15.0668L333.135 14.4813L332.81 14.3512V14.0909L333.005 13.8958L333.135 13.5705L334.956 14.4162L335.347 14.8716L335.802 14.4813L336.192 13.9608L336.778 12.7247L336.453 12.2042L336.648 11.7488L337.493 11.0331L337.689 10.6428L337.624 10.0573L337.884 9.73195L338.209 9.66689L340.161 9.86207L340.681 10.0573L341.527 10.6428L341.657 10.838V11.1633L341.787 11.3584L342.242 11.4886L342.698 11.3584L343.023 11.0331L343.218 10.6428L342.242 10.1223L342.633 9.92713L342.958 9.79701L343.283 9.86207L342.242 8.43077L340.095 6.80428L337.624 5.76333L335.217 5.63321L335.672 5.37297L337.038 4.8525L341.527 4.2019L343.218 4.39708L348.097 5.95851L354.992 9.08136Z" fill="#009649" stroke="white" stroke-width="2" stroke-linejoin="round"></path>
<path class="region" data-country-region="West Region" d="M349.918 146.682L349.723 149.284L349.918 151.692L349.853 152.537L349.463 153.708L348.812 154.945L347.902 157.482L347.251 158.783L346.47 159.954L344.129 162.491L342.632 164.508L339.575 169.453L335.997 174.267L334.826 176.349L333.85 179.147L333.46 180.968L333.395 182.204L325.003 179.212L324.093 178.236L269.84 179.537L271.206 174.853L273.353 159.499L296.446 163.793L300.024 166.33L302.561 166.135L324.678 159.889L329.167 157.547L332.745 153.578L334.436 151.041L335.412 149.154L337.558 146.747L339.64 142.648L341.787 140.501L344.194 140.436L345.56 140.631L347.121 141.152L347.902 141.542L348.422 141.868L348.812 142.258L349.203 142.713L349.723 143.624L349.983 144.21L350.113 144.86V145.511L350.048 146.031L349.918 146.682Z" fill="#009649" stroke="white" stroke-width="2" stroke-linejoin="round"></path>
<path class="region" data-country-region="West Region" d="M333.395 182.204L331.704 196.973L331.443 198.209L331.118 198.925L328.516 203.349L327.02 207.382L326.695 208.749L326.565 209.855L326.63 210.505L327.15 213.238L327.41 215.84L327.475 216.491L327.735 217.206L330.598 222.867L331.443 225.274L331.704 226.9L332.159 232.625L332.484 233.992L333.72 237.18L333.98 238.351L334.176 240.172L334.241 241.604L334.176 242.58L333.265 248.305L327.54 248.955L327.02 248.89L323.897 247.654L323.052 247.719L321.36 248.045L320.32 248.11L318.888 247.459L319.149 246.743L319.734 245.442H211.619L215.392 237.115L218.059 233.081L221.832 230.218L246.421 217.206L254.488 211.221L261.253 202.243L269.84 179.537L324.093 178.236L325.003 179.212L333.395 182.204Z" fill="#009649" stroke="white" stroke-width="2" stroke-linejoin="round"></path>
<path class="region" data-country-region="West Region" d="M344.063 93.008L345.234 94.1791L345.885 94.5694L347.966 94.7646L348.487 95.0899L348.812 95.5453L348.942 96.1308L349.007 96.7164L348.096 103.287L348.357 104.393L348.942 105.369L350.308 106.931L351.024 108.492L351.739 110.834L352.13 113.372V115.714L351.804 117.015L351.414 117.731L351.869 118.511L385.761 117.08L385.956 119.943L382.574 166.85L362.993 160.93L362.017 160.41L360.391 159.434L359.35 158.653L357.269 156.441L356.618 155.595L356.423 155.205L355.642 153.448L355.317 152.928L354.927 152.472L353.821 151.496L349.918 146.682L350.048 146.031L350.113 145.511V144.86L349.983 144.21L349.723 143.624L349.202 142.713L348.812 142.258L348.422 141.868L347.901 141.542L347.121 141.152L345.559 140.631L344.193 140.436L341.786 140.501L337.948 123.391L336.517 121.829L333.98 119.943L322.856 121.309L311.733 126.449L302.04 132.174L298.137 135.362L273.352 159.499L271.206 174.853L269.84 179.537L261.253 202.243L254.487 211.221L246.421 217.206L221.832 230.218L218.059 233.081L215.391 237.115L211.619 245.442H140.973L163.936 196.257L165.432 193.98L167.904 191.248L171.872 189.621L214.025 178.561L224.759 170.429L259.301 135.492L300.674 110.054L302.821 105.564L327.475 83.2491L328.451 83.7045L330.142 82.4684L331.573 82.8587L331.964 83.119L332.029 83.6394V84.3551L332.094 84.9406L332.484 85.8515L333.72 86.2418L334.371 86.5021L334.436 86.6972L334.761 86.9575L334.956 87.6081V88.9743L335.216 89.8851L335.867 90.5357L336.842 90.861H337.948L338.339 90.7309L339.054 90.1454L339.51 90.0153L339.965 90.1454L340.681 90.7309L341.331 91.0562L342.632 92.1622L344.063 93.008Z" fill="#009649" stroke="white" stroke-width="2" stroke-linejoin="round"></path>
<path class="region" data-country-region="West Region" d="M288.444 24.3704L288.314 24.6957L285.257 30.7462L283.826 32.8281L283.175 33.2835L279.597 35.4305L276.54 36.7967L276.215 37.122L276.15 37.5774L276.215 38.0979L276.28 38.4883L276.54 38.8136L276.865 39.4642L277.906 40.0497L278.426 41.7412L278.361 42.0665L277.711 43.1726L276.735 44.2786L275.955 45.7749L276.15 47.2062L276.54 48.3122L279.923 53.9074L282.395 56.9001L283.11 58.3965L283.891 60.7386L282.46 63.4711L281.094 65.4879L279.402 67.3747L277.451 68.6758L268.799 72.8396L266.392 75.3119L263.27 83.054L261.838 41.481V41.4159L262.099 41.2858L262.489 40.7003L262.944 40.2449L270.75 34.4546L271.596 32.8281L273.027 33.2185L274.588 32.4377L277.06 30.2257L276.605 29.5751H276.41L275.955 29.8354L276.215 29.1848L276.67 28.7944L277.06 28.7294L277.386 29.38H277.776L278.361 28.7294L280.833 26.5173L281.614 25.9969L282.265 25.6716L283.37 24.1752L283.761 23.8499L284.541 23.7198L284.932 23.3294L285.322 22.9391L285.777 22.5487L285.387 22.4186L285.452 22.0933L286.883 21.3126L286.753 23.0692L288.249 24.3053L288.444 24.3704Z" fill="#009649" stroke="white" stroke-width="2" stroke-linejoin="round"></path>
<path class="region" data-country-region="West Region" d="M341.786 140.501L339.64 142.648L337.558 146.747L335.411 149.154L334.436 151.041L332.744 153.578L329.166 157.547L324.678 159.889L302.56 166.135L300.023 166.33L296.446 163.793L273.352 159.499L298.137 135.362L302.04 132.174L311.733 126.449L322.856 121.309L333.98 119.943L336.517 121.829L337.948 123.391L341.786 140.501Z" fill="#009649" stroke="white" stroke-width="2" stroke-linejoin="round"></path>
<path class="region" data-country-region="West Region" d="M304.382 14.4163L305.293 14.6115L305.748 15.3271L305.878 16.5633L305.813 18.1247L306.074 18.3199L306.529 18.45L307.049 18.7102L307.245 19.3608L307.31 19.9463L307.57 20.4018L307.895 20.7271L308.415 20.9222V20.662L308.611 20.2716L308.871 20.0114L309.326 20.2066L309.521 20.4668L310.172 20.9222L310.497 21.2475L310.757 21.6379L310.887 22.1584L310.952 22.7439L310.822 24.0451L310.562 25.2162L310.107 26.192L309.456 26.8426V27.233L309.716 27.3631L309.847 27.6884H310.172V27.233H310.562L310.822 27.7535L311.148 29.445V29.8354H312.058L312.319 29.7703L312.709 29.445L313.099 29.38L313.489 29.6402L314.075 30.486L314.4 30.6161L314.986 30.8113L315.441 31.2667L317.848 34.91L320.385 36.3413L320.775 36.8618L320.905 37.122L321.621 38.163L321.881 38.7485V39.3991L321.751 40.3099L321.881 40.8304L322.336 41.2208L323.247 42.1316L323.768 43.0424L323.182 43.4978L323.247 43.8231L324.548 45.7749L324.808 46.8159L324.288 47.6616L323.637 48.4424L323.442 49.093L324.613 49.3532L325.199 49.6134L325.394 50.199L325.329 50.9146L325.199 51.5002L324.939 51.8905L323.703 52.7363L325.329 52.411L326.109 52.3459L326.63 52.7363L326.5 53.3218L325.849 53.6471L324.483 54.0375L324.158 54.3628L323.637 55.1435L323.247 55.9242L323.312 56.6399L324.028 56.9001L324.743 56.6399L325.329 56.7049L325.524 57.6808L325.264 57.941L324.743 58.7218L324.353 59.6326L324.613 60.0229L325.134 60.2832L325.394 60.9338L325.524 61.8446L325.654 64.512L325.979 66.0084L326.63 67.0494L327.736 67.6349V68.0903L327.15 68.3505L326.89 68.7409L326.825 69.2614L327.02 69.7819L327.28 70.1072L327.996 69.977L328.451 70.1722L328.386 71.018L328.126 71.8638L327.736 72.5794L327.345 73.1649L328.061 74.5312L328.321 75.2468L328.451 75.8974L328.321 76.483L328.061 77.3287L327.931 78.1745L328.061 79.0854L329.622 80.1263L329.947 80.842L327.476 81.4925L327.15 82.3383L327.476 83.2491L302.821 105.565L300.674 110.054L265.742 88.2587L263.27 83.054L266.392 75.3119L268.799 72.8396L277.451 68.6758L279.403 67.3747L281.094 65.4879L282.46 63.4711L283.891 60.7386L283.11 58.3965L282.395 56.9001L279.923 53.9073L276.54 48.3122L276.15 47.2062L275.955 45.7749L276.735 44.2786L277.711 43.1726L278.362 42.0665L278.427 41.7412L277.906 40.0497L276.866 39.4642L276.54 38.8136L276.28 38.4883L276.215 38.0979L276.15 37.5774L276.215 37.122L276.54 36.7967L279.598 35.4305L283.176 33.2835L283.826 32.8281L285.257 30.7462L288.315 24.6957L288.445 24.3704L290.396 24.9559L292.348 25.1511L291.957 25.4113L291.307 26.127L290.917 26.3872V26.7776L291.307 26.8426L290.656 27.2981L290.852 27.7535L291.437 28.2089L291.957 28.5342L294.169 27.233L293.909 27.9486L294.234 28.339L294.69 28.4041L294.885 28.339L295.145 27.9486L296.706 26.3872L296.901 26.7125L297.097 26.8426L297.422 26.0619L297.487 25.5415H297.812V26.192L297.877 26.7125L298.137 27.0378L298.528 27.233L298.788 26.8426L299.308 25.1511L298.463 24.7607L297.747 24.8909L296.966 25.3463L295.991 25.5415V25.1511H296.706V24.7607L295.861 25.021L292.738 25.1511V24.7607L294.69 24.2403L296.576 23.1993L299.829 20.2066L301 18.3199L301.715 15.8476L301.91 13.1802L301.455 11.0332H301.845L302.105 12.2693L302.561 13.3753L303.341 14.2211L304.382 14.4163Z" fill="#009649" stroke="white" stroke-width="2" stroke-linejoin="round"></path>
<path class="region" data-country-region="West Region" d="M261.839 41.4165V41.4815L263.27 83.0545L265.742 88.2593L300.675 110.054L259.302 135.492L224.76 170.429L214.026 178.562L171.873 189.622L167.905 191.248L165.433 193.981L163.937 196.258L140.973 245.443L17.3757 245.508H16.3349V153.839L16.0096 150.391L15.0339 147.073L10.6754 136.338L10.09 134.256L10.0249 131.849L10.4803 127.425V125.929L9.69964 123.456L6.96748 118.837L6.64223 116.3L7.48789 113.047L7.55295 111.876L7.35779 110.51L2.73914 98.9941L1.24296 96.2616L0.787598 94.8953V92.5532L1.63327 90.4062L3.84501 86.3725L4.75573 84.2906L5.27615 83.3798L6.70728 81.5581L8.33356 79.9317L11.391 75.1823L12.4318 73.1004L12.9522 70.9535L13.1474 69.7824L14.7086 65.4885L15.2941 62.1054L15.9446 59.6331L16.7252 57.4862L17.1155 55.3392L16.3349 52.8669L14.0581 47.8574L13.3425 44.7345L11.456 40.896L11.1308 39.5948L9.8948 32.9588L9.82975 27.8841L9.30933 22.6143V20.3372L9.95985 18.3855L18.6117 11.294L20.5632 5.95911L22.0594 3.81215L25.377 1.14471L25.312 1.60013L25.9625 5.69887L26.548 7.71571L27.5237 8.95184L28.6296 9.27714L31.3618 9.47232L33.4434 10.5133H34.5493L36.9562 10.1229L37.4766 10.3181L38.0621 10.5783L38.7126 10.7084L39.6884 10.188L40.9894 9.79762L42.5506 9.6675L51.2025 7.13018L61.1553 3.74709L63.5622 3.35673L68.7663 3.61697L89.778 9.53738L105.13 11.6193L105.976 12.0747L106.821 12.4L109.489 12.2048L110.594 12.3349L114.367 14.1566L116.579 14.8722H118.986L120.938 14.1566L121.848 14.0265L122.759 14.6771L123.475 15.3927L124.06 15.5879L124.515 15.653L125.101 15.7831L126.597 16.6289L129.915 17.7349L133.558 18.1252L134.859 18.5156L135.704 19.1662L136.03 18.9059L136.55 18.5806L136.745 18.3204L137.396 18.3855L140.713 18.3204L141.104 18.4505L141.494 18.7108L141.884 19.1011L141.754 19.5565L141.884 20.0119L142.274 20.7927L142.535 21.183L142.795 21.3131L142.925 21.5083L143.055 22.4191L143.185 22.8095L143.575 23.4601L144.096 25.3468L144.616 26.1926L145.917 27.2986L147.414 28.1444L149.105 28.7299L152.422 29.2504L153.724 29.7709L154.959 30.0311L156.13 29.3805L158.798 30.8118L161.92 30.2913L168.1 27.2335L169.011 27.1034L169.596 27.4938L169.856 28.4046L169.921 29.6407L170.116 30.1612L171.027 32.3732L171.222 34.3901L171.417 34.9105L172.979 35.8864L175.516 36.2768L185.078 36.2117L185.729 36.4069L186.184 36.7322L186.574 37.1876L187.03 37.4479L187.68 37.643L189.307 37.4479L190.478 37.578L192.754 38.1635L193.795 38.2936L194.836 38.0334L197.178 36.9274L198.414 36.6672L199.39 36.8623L200.365 37.3177L201.211 37.9033L201.862 38.5539L202.317 38.8141H204.203L204.919 38.9442L205.504 39.1394L206.35 39.6599L215.783 43.043L217.734 44.0839L218.71 44.5393L220.011 44.7345L220.336 45.0598L220.726 46.7514L220.922 47.2718L221.312 47.5971L222.288 47.8574L231.525 52.7368L240.112 52.3465L241.673 52.0862L248.959 48.573L256.765 44.7345L259.627 42.5876L261.839 41.4165Z" fill="#009649" stroke="white" stroke-width="2" stroke-linejoin="round"></path>
<path class="region" data-country-region="1" d="M424.532 362.679L424.141 363.59L423.426 363.525L422.775 363.395L424.076 360.858L425.117 361.378L425.052 361.834L424.532 362.679Z" fill="#009649" stroke="white" stroke-width="2" stroke-linejoin="round"></path>
<path class="region" data-country-region="East Region" d="M432.013 88.1285L432.989 93.8537L433.639 106.41L434.094 107.646L434.55 108.492L435.005 109.078L424.207 116.69L424.011 116.364L422.775 115.128L421.67 114.543L421.93 113.957L422.515 113.437L422.775 113.241V111.485L422.06 110.314L419.913 108.167L420.369 107.841L420.564 107.516V107.256L420.238 106.931L420.564 106.801V106.605L420.238 106.475L419.783 105.76L419.458 105.499L419.393 105.239L419.458 105.044L419.848 104.849L420.238 104.784V104.393L420.108 103.938V103.613L420.238 103.092H419.913L419.198 104.589L419.133 105.239L419.328 105.695L419.588 106.02L419.848 106.475L419.913 107.321H419.523L419.393 106.54L419.003 106.085H418.352L417.701 106.475L416.856 106.15L415.815 106.801L414.904 107.972L414.384 109.013L414.319 110.119L414.644 111.029L415.425 111.68L416.596 111.94L415.685 112.721L411.196 119.032L410.936 119.487L410.416 120.073L408.854 122.935L408.594 123.911L408.529 126.448L408.204 127.489L407.488 128.335V128.791L408.074 129.246L408.659 130.092L409.115 130.938L409.57 132.239L410.156 132.824L412.823 134.646L413.538 135.166L415.945 138.094L417.636 139.07L419.133 140.631L420.434 142.388L420.954 143.624L421.149 145.121L421.735 147.137L422.45 149.024L423.166 150.13V150.52L422.971 151.561L424.402 157.547L419.263 157.612L418.287 157.742L416.075 158.458L414.579 159.369L398.381 166.525L397.21 166.85L396.43 167.046L392.136 166.785L384.851 167.891L382.574 166.85L385.956 119.943L385.761 117.08L386.152 111.615L384.981 98.9934L383.615 93.0079L383.55 89.4947L402.675 88.8441L407.293 89.1694L408.854 90.2104L409.57 90.5357L410.546 90.7959L413.278 91.2513H413.928L414.189 91.1863L415.75 90.4706L416.01 90.3405L418.092 88.3237L418.482 88.1285L420.238 87.608L421.865 87.4128L432.013 88.1285Z" fill="#009649" stroke="white" stroke-width="2" stroke-linejoin="round"></path>
<path class="region" data-country-region="East Region" d="M403.195 24.1101L403.13 24.8908L402.675 24.6956L401.569 24.5004L400.918 24.7607L400.528 23.7197L401.894 23.8498L403.195 24.1101ZM393.958 19.686L394.543 19.2957L395.064 19.5559L396.365 21.0523L396.69 21.3125L397.471 21.6378L399.617 23.3294L400.138 23.7197L398.512 23.3294L393.242 20.0113H393.763L394.348 20.4668L394.218 20.0113L393.958 19.686ZM366.766 14.4162L366.571 15.1319L366.441 15.4572L366.181 15.9126L365.791 16.303L363.969 17.6692L363.058 18.7752L362.928 18.9704V19.3607L363.384 19.621L365.791 20.0113L366.116 20.2065L366.246 20.5969L366.181 21.0523V21.4426L366.376 21.7679L366.701 21.9631L367.092 21.833L367.482 21.8981L368.198 22.4836L368.523 22.6788H368.913L369.173 22.939L369.499 23.7197L370.084 23.98L370.604 23.7197L370.93 23.3944L371.06 23.0691V22.8089L370.865 22.2234L370.995 21.7679L372.036 21.3125H372.621L372.816 21.7679L373.076 22.7438L372.881 23.0041V23.4595L373.206 23.9149L373.011 24.2402H372.556L372.166 23.8498H371.775L371.58 24.2402L371.385 24.6956L372.426 25.2161L372.296 25.9317L371.58 26.5823L370.539 26.8426L369.629 26.9076V27.1679L369.889 27.6884L369.954 28.5341L368.978 29.9004L368.067 30.1606L368.198 30.9413L368.393 31.5269L368.783 31.7871L369.434 31.722L372.426 29.1847L373.792 28.4691L376.199 27.8185L377.825 26.7125L378.606 24.7607L378.346 24.3053L379.126 24.6306L379.516 24.6956L379.972 24.7607L380.427 25.0209L380.492 25.5414V26.1269L380.687 26.3872L381.338 26.5823L382.119 26.9727L382.964 27.5582L383.42 28.1438L383.875 27.1028L384.135 26.7125L384.525 26.3872L384.33 26.9727L384.265 27.3631L384.33 27.6884L384.525 28.1438H383.81V28.5341H384.525L384.2 28.7944L384.135 28.9895L384.2 29.3799H384.46L384.916 28.9245L384.981 29.3148L385.241 29.3799V28.9245H385.631L385.371 29.8353L385.631 30.4208L386.087 30.3558L386.347 29.3799L386.997 29.3148L387.778 28.404L388.819 27.7534L389.99 28.1438H389.274V28.5341L389.99 28.9245L390.185 28.6642L390.51 28.404L390.705 28.1438L391.486 28.5341V28.9245L391.161 29.445L391.096 30.2257L391.681 29.9654L391.746 30.3558L391.681 30.6811L391.486 30.9413L391.096 31.1365V31.5269L391.486 32.0473V32.6979L390.38 33.6738V34.0642L390.966 34.1292L391.421 33.9991L391.681 33.6738L391.876 33.2184H392.202L392.332 34.0642L390.705 35.1051L390.185 35.3654L389.079 35.3003L388.624 35.4304L386.997 36.7316L386.737 36.7967L386.152 36.8617L383.615 37.4473L382.899 37.5123L382.184 37.7726L381.728 37.7075L381.273 37.5774H380.818L380.232 37.8376H379.842L379.256 37.9677L378.411 37.9027L378.02 37.9677L377.76 38.293L375.809 42.0014L373.011 45.3195L372.491 46.3604L372.231 47.0761L371.905 47.7267L371.19 48.2471L370.8 48.4423L370.214 48.5724L369.759 48.7676L369.368 49.223L369.303 49.9387L369.499 50.9146L369.434 51.435L369.108 52.0206L367.482 53.3868L366.962 54.1025L366.116 54.6229L365.465 54.688L363.709 54.4928L363.189 54.6229L362.343 54.7531H361.822L361.302 54.6229L358.765 54.688L357.724 54.9482L356.879 55.2735L356.358 55.6639L355.903 56.1844L355.578 56.9L355.382 57.7458V58.9819L355.838 61.1289L356.098 62.8855L356.423 63.9915L356.553 64.577L356.618 65.7481L356.358 67.0493L355.122 68.4155L353.951 68.0903L353.496 68.4155L352.78 68.6107H352.065L351.414 68.0903L349.853 67.5047L350.634 64.7072L350.764 63.0156L350.113 60.2181L349.918 58.5265L349.788 58.0711L349.333 57.8759L349.202 57.6807L348.812 56.1844L348.617 53.582L348.097 52.9965L347.901 52.6061L347.706 52.1507L347.967 51.8905L349.202 51.5001L349.593 51.3049H349.788L349.918 51.1097V50.4591L349.788 50.1989L349.528 49.8736L348.812 49.3531L349.268 49.2881L349.918 48.9628L349.202 48.3122L349.398 47.7917L349.918 47.3363L350.308 46.8158L350.243 46.0351L349.983 45.5797L349.788 45.0592L349.918 44.2785L350.373 43.6279L350.959 43.4978L351.544 43.3677L352.13 43.0424L352.26 42.7171L352.585 40.9605L352.52 40.5051L352.585 40.1798L352.39 40.0496L352.13 39.9846L351.609 40.2448L351.089 40.3099L350.569 40.44L350.113 40.7653L349.528 40.9605L348.227 40.44L347.967 40.1147L348.032 39.5942L348.552 37.9677L348.942 35.0401L349.593 35.2352L350.438 34.7148L350.894 34.3895L351.479 34.0642H351.935L352.26 33.869L352.13 33.3485L351.219 32.4377L350.894 31.9823L350.829 31.3967L351.349 29.9654L351.544 28.9895L351.479 27.1679L351.284 26.1269L351.219 25.0209L351.414 22.2884L351.349 20.3366L350.894 16.5632L350.764 15.9777L350.504 15.3921L349.788 14.5464L349.528 14.2211L349.398 13.7006L349.463 13.1801L349.528 12.5946L349.723 12.2693L351.089 11.1633L354.992 9.08136L356.488 9.73195L358.7 11.4886L364.229 14.0259L365.986 14.4813L366.766 14.4162Z" fill="#009649" stroke="white" stroke-width="2" stroke-linejoin="round"></path>
<path class="region" data-country-region="East Region" d="M355.122 68.4156L353.951 69.5216L352.585 70.4325L352 71.2132L351.674 71.9288L351.609 72.9698L350.959 75.1818L350.829 76.8733L351.219 77.3287L352.13 78.0444L352.65 79.1504L353.041 79.7359L353.561 80.2564L354.081 80.842L354.602 81.6877L354.992 83.1841L355.447 84.16L355.903 85.4612L356.358 86.0467L356.879 86.5021L367.937 92.0972L359.741 92.4225L357.139 92.943L355.968 93.4635L355.643 93.6587L354.992 93.984L354.667 94.049L354.472 93.984L353.886 93.7237H353.561L353.366 93.984L353.301 94.5044L353.106 94.9599L352.65 95.3502L349.007 96.7165L348.942 96.1309L348.812 95.5454L348.487 95.09L347.967 94.7647L345.885 94.5695L345.234 94.1791L344.063 93.0081L343.478 91.9671L342.502 90.5358L342.307 89.8202L342.242 88.0636L342.112 87.0877L341.722 86.6973L341.917 83.9648L341.852 83.3142L341.331 82.5986L339.9 81.5576L339.315 80.7118L340.486 80.9721H341.006L341.526 80.7118L342.047 80.2564V79.8661L341.917 79.4757L341.852 79.0854V78.3697L341.787 78.1745L342.307 78.2396L342.697 78.4998L342.893 78.8902L343.023 78.9552L343.348 78.2396L343.543 77.3938V76.8083L343.608 76.2878L344.063 75.6372L344.584 75.377L345.495 75.1818L345.885 74.8565L345.95 74.5312L345.885 73.6854L346.145 73.4902L346.991 73.1649L348.487 71.8638V71.4734L348.162 71.018L348.097 70.3674L348.162 69.7819L348.487 69.3264L348.812 69.3915L349.137 69.7819L349.593 70.0421L350.308 69.7819L349.723 68.9361L349.853 67.5048L351.414 68.0903L352.065 68.6108H352.78L353.496 68.4156L353.951 68.0903L355.122 68.4156Z" fill="#009649" stroke="white" stroke-width="2" stroke-linejoin="round"></path>
<path class="region" data-country-region="East Region" d="M397.08 37.0569L397.145 37.4472L398.056 38.6183L398.837 39.0737L399.747 39.7894L400.268 41.6761V42.3917L400.203 43.1725L399.877 44.1483L398.316 46.1652L397.536 48.4423L396.82 49.7435L396.495 50.8495L395.779 52.3458V54.753L396.43 58.006L395.909 59.6325L394.738 62.0397L391.226 66.724L389.599 68.4155L388.168 69.3263H386.607L385.241 69.5866L384.395 69.8468L383.029 70.042H380.687L380.492 69.9769L378.085 69.2613H377.825L377.24 69.1312L376.979 69.4565V70.107L377.174 70.7576L377.825 71.5384L378.41 71.9938L378.931 72.7094L379.386 74.2708L379.581 76.4829L381.208 82.9237L367.937 92.0971L356.878 86.502L356.358 86.0466L355.903 85.4611L355.447 84.1599L354.992 83.184L354.602 81.6876L354.081 80.8418L353.561 80.2563L353.04 79.7358L352.65 79.1503L352.13 78.0443L351.219 77.3286L350.829 76.8732L350.959 75.1817L351.609 72.9697L351.674 71.9287L352 71.2131L352.585 70.4323L353.951 69.5215L355.122 68.4155L356.358 67.0493L356.618 65.7481L356.553 64.577L356.423 63.9915L356.098 62.8855L355.838 61.1288L355.382 58.9819V57.7458L355.577 56.9L355.903 56.1843L356.358 55.6639L356.878 55.2735L357.724 54.9482L358.765 54.688L361.302 54.6229L361.822 54.753H362.343L363.188 54.6229L363.709 54.4928L365.465 54.688L366.116 54.6229L366.961 54.1024L367.482 53.3868L369.108 52.0205L369.433 51.435L369.498 50.9145L369.303 49.9386L369.368 49.223L369.759 48.7676L370.214 48.5724L370.799 48.4423L371.19 48.2471L371.905 47.7266L372.231 47.076L372.491 46.3604L373.011 45.3194L375.808 42.0014L377.76 38.293L378.02 37.9677L378.41 37.9026L379.256 37.9677L379.842 37.8376H380.232L380.817 37.5773H381.273L381.728 37.7075L382.183 37.7725L382.899 37.5123L383.615 37.4472L386.152 36.8617L386.737 36.7966L386.997 36.7316L388.624 35.4304L389.079 35.3003L390.185 35.3653L390.705 35.1051L392.331 34.0641L392.396 34.3894L392.722 34.7147L393.242 34.9099V35.3653L392.722 35.5605L392.331 35.7557L392.071 36.146L391.876 36.6665L392.136 36.7966L392.527 37.0569L393.047 36.7316L393.567 36.6665L393.958 36.7966L394.348 37.0569V37.4472H393.958V37.9677L394.478 38.4231L395.194 38.7484H395.909L396.56 38.293V37.9677L395.779 37.9026L395.259 37.5123L394.933 36.9268L394.738 36.2111L395.519 36.4063L396.625 36.9268L397.08 37.0569ZM404.951 34.975L403.585 35.6256L401.699 36.081L397.08 36.6015L396.885 36.2111H397.731H397.991V35.7557L397.796 35.6906L397.666 35.4304L398.381 34.9099V35.3003L398.576 35.3653H399.097L398.902 34.7147L399.292 34.2593L399.877 34.1943L400.463 35.2352L401.113 35.4954H401.959L402.74 35.3653L403.976 34.6497L404.626 33.5437L404.431 32.4377L403.455 31.5268L404.821 31.4618V31.5268L404.951 34.975Z" fill="#009649" stroke="white" stroke-width="2" stroke-linejoin="round"></path>
<path class="region" data-country-region="East Region" d="M349.723 68.9361L350.308 69.7818L349.593 70.0421L349.137 69.7818L348.812 69.3915L348.487 69.3264L348.162 69.7818L348.097 70.3674L348.162 71.018L348.487 71.4734V71.8637L346.991 73.1649L346.145 73.4902L345.885 73.6854L345.95 74.5312L345.885 74.8565L345.494 75.1818L344.584 75.3769L344.063 75.6372L343.608 76.2878L343.543 76.8082V77.3938L343.348 78.2396L343.023 78.9552L342.892 78.8901L342.697 78.4998L342.307 78.2396L341.787 78.1745L341.852 78.3697V79.0853L341.917 79.4757L342.047 79.866V80.2564L341.526 80.7118L341.006 80.972H340.486L339.315 80.7118L339.9 81.5576L341.331 82.5985L341.852 83.3142L341.917 83.9648L341.721 86.6973L342.112 87.0876L342.242 88.0635L342.307 89.8201L342.502 90.5358L343.478 91.9671L344.063 93.008L342.632 92.1623L341.331 91.0563L340.681 90.731L339.965 90.1454L339.51 90.0153L339.054 90.1454L338.339 90.731L337.948 90.8611H336.843L335.867 90.5358L335.216 89.8852L334.956 88.9744V87.6081L334.761 86.9575L334.436 86.6973L334.371 86.5021L333.72 86.2419L332.484 85.8515L332.094 84.9407L332.029 84.3551V83.6395L331.964 83.119L331.573 82.8588L330.142 82.4684L328.451 83.7045L327.475 83.2491L327.15 82.3383L327.475 81.4925L329.947 80.8419L329.622 80.1263L328.061 79.0853L327.931 78.1745L328.061 77.3287L328.321 76.4829L328.451 75.8974L328.321 75.2468L328.061 74.5312L327.345 73.1649L327.735 72.5794L328.126 71.8637L328.386 71.018L328.451 70.1722L327.996 69.977L327.28 70.1071L327.02 69.7818L326.825 69.2614L326.89 68.7409L327.15 68.3505L327.735 68.0903V67.6349L326.63 67.0493L325.979 66.0084L325.654 64.512L325.524 61.8446L326.89 60.9988L327.475 60.8036L330.142 60.4783L330.728 60.153L331.313 59.8928L331.899 59.6976L332.484 59.5675L333.135 59.6326L333.655 59.8928L334.566 60.9338L335.021 61.1289L335.412 61.194L335.932 61.8446L336.192 61.9096L337.103 61.7795L337.883 61.8446L338.534 61.7795L339.445 61.3241L339.77 61.5193L340.876 63.406L341.136 63.9265H341.461L342.242 63.7964L344.128 63.9915L344.779 64.2518L345.494 64.6421L345.885 64.9024L346.275 65.2277L346.34 65.6831L346.6 66.1385L347.056 66.4638L348.162 67.5047L348.552 68.2204L349.723 68.9361Z" fill="#009649" stroke="white" stroke-width="2" stroke-linejoin="round"></path>
<path class="region" data-country-region="East Region" d="M383.549 89.4948L383.615 93.008L384.981 98.9935L386.152 111.615L385.761 117.08L351.869 118.511L351.414 117.731L351.804 117.015L352.13 115.714V113.372L351.739 110.834L351.024 108.492L350.308 106.931L348.942 105.369L348.357 104.393L348.096 103.287L349.007 96.7164L352.65 95.3502L353.105 94.9598L353.301 94.5044L353.366 93.9839L353.561 93.7237H353.886L354.471 93.9839L354.667 94.049L354.992 93.9839L355.642 93.6586L355.968 93.4635L357.139 92.943L359.741 92.4225L367.937 92.0972L381.208 82.9238L383.549 89.4948Z" fill="#009649" stroke="white" stroke-width="2" stroke-linejoin="round"></path>
<path class="region" data-country-region="East Region" d="M349.593 35.2352L348.942 35.04L348.552 37.9677L348.032 39.5942L347.966 40.1147L348.227 40.44L349.528 40.9605L350.113 40.7653L350.569 40.44L351.089 40.3099L351.609 40.2448L352.13 39.9846L352.39 40.0496L352.585 40.1797L352.52 40.505L352.585 40.9605L352.26 42.7171L352.13 43.0424L351.544 43.3677L350.959 43.4978L350.373 43.6279L349.918 44.2785L349.788 45.0592L349.983 45.5797L350.243 46.0351L350.308 46.8158L349.918 47.3363L349.398 47.7917L349.202 48.3122L349.918 48.9628L349.268 49.2881L348.812 49.3531L349.528 49.8736L349.788 50.1989L349.918 50.4591V51.1097L349.788 51.3049H349.593L349.202 51.5001L347.966 51.8904L347.706 52.1507L347.901 52.6061L348.097 52.9964L348.617 53.582L348.812 56.1844L349.202 57.6807L349.333 57.8759L349.788 58.0711L349.918 58.5265L350.113 60.218L350.764 63.0156L350.634 64.7071L349.853 67.5047L349.723 68.936L348.552 68.2203L348.162 67.5047L347.056 66.4637L346.6 66.1385L346.34 65.683L346.275 65.2276L345.885 64.9023L345.495 64.6421L344.779 64.2517L344.128 63.9915L342.242 63.7963L341.461 63.9264H341.136L340.876 63.406L339.77 61.5192L339.445 61.3241L338.534 61.7795L337.884 61.8445L337.103 61.7795L336.192 61.9096L335.932 61.8445L335.412 61.1939L335.021 61.1289L334.566 60.9337L333.655 59.8927L333.135 59.6325L332.484 59.5675L331.899 59.6976L331.313 59.8927L330.728 60.153L330.142 60.4783L327.475 60.8036L326.89 60.9988L325.524 61.8445L325.394 60.9337L325.133 60.2831L324.613 60.0229L324.353 59.6325L324.743 58.7217L325.264 57.941L325.524 57.6807L325.329 56.7048L324.743 56.6398L324.028 56.9L323.312 56.6398L323.247 55.9241L323.637 55.1434L324.158 54.3627L324.483 54.0374L325.849 53.647L326.5 53.3217L326.63 52.7362L326.109 52.3459L325.329 52.4109L323.702 52.7362L324.938 51.8904L325.198 51.5001L325.329 50.9145L325.394 50.1989L325.198 49.6134L324.613 49.3531L323.442 49.0929L323.637 48.4423L324.288 47.6616L324.808 46.8158L324.548 45.7749L323.247 43.8231L323.182 43.4978L323.767 43.0424L324.288 41.8062L324.678 41.7412L325.198 42.0014L328.321 43.1074L328.971 42.9773L329.882 42.652L330.663 42.5219L331.508 42.652L332.029 42.3267L331.964 42.1315L332.224 41.8713L332.809 41.546L333.33 41.2207L333.785 41.0906L337.623 40.8303L338.469 40.44L338.989 39.9195L339.25 38.6834L339.51 38.1629L339.64 37.6424L339.705 37.3171L339.64 36.2762V35.6256L339.705 35.04L340.095 34.5196L342.958 34.6497L344.128 35.1702H344.714L345.885 34.1292L346.47 33.8039L347.056 33.7389L347.641 33.8039L348.162 33.9991L348.487 34.1943L349.593 35.2352Z" fill="#009649" stroke="white" stroke-width="2" stroke-linejoin="round"></path>
<path class="region" data-country-region="East Region" d="M421.54 43.693L423.686 65.1626L423.817 70.6276L424.012 71.9288L424.207 72.7095L424.272 72.9698L429.151 80.842L432.013 88.1286L421.865 87.413L420.239 87.6081L418.482 88.1286L418.092 88.3238L416.01 90.3406L415.75 90.4708L414.189 91.1864L413.929 91.2515H413.278L410.546 90.7961L409.57 90.5358L408.855 90.2105L407.293 89.1696L402.675 88.8443L383.55 89.4949L381.208 82.9239L379.582 76.483L379.386 74.271L378.931 72.7095L378.411 71.9939L377.825 71.5385L377.175 70.7577L376.979 70.1072V69.4566L377.24 69.1313L377.825 69.2614H378.085L380.492 69.977L380.687 70.0421H383.029L384.395 69.8469L385.241 69.5867L386.607 69.3264H388.168L389.599 68.4156L391.226 66.7241L394.739 62.0398L395.909 59.6326L396.43 58.0061L395.779 54.7531V52.3459L396.495 50.8496L396.82 49.7435L397.536 48.4424L398.316 46.1653L399.878 44.1484L400.203 43.1725L400.268 42.3918V41.6762L399.747 39.7895L398.837 39.0738L398.056 38.6184L397.145 37.4473L397.08 37.057H397.276L397.08 36.6015L401.699 36.0811L403.586 35.6257L404.952 34.9751L406.057 34.6498L421.54 43.693Z" fill="#009649" stroke="white" stroke-width="2" stroke-linejoin="round"></path>
<path class="region" data-country-region="East Region" d="M421.409 38.228V38.2931L421.539 43.693L406.057 34.6498L404.951 34.9751L404.821 31.5269V31.4619L404.951 31.5269L405.212 29.6402V28.7944L404.951 27.6884L404.041 26.5824L403.911 25.9969L404.561 25.5415L403.78 25.086L403.13 24.8909L403.195 24.1102L405.472 24.5656L406.187 25.086H406.513L407.163 25.1511L407.293 26.1921L407.814 26.9728L408.594 27.4932L410.286 27.9487L410.871 28.5342L411.847 29.8354L414.124 32.0474L415.099 32.7631L416.596 35.3654L418.027 36.6666L419.588 37.6425L421.409 38.228Z" fill="#009649" stroke="white" stroke-width="2" stroke-linejoin="round"></path>
<path class="region" data-country-region="East Region" d="M394.543 19.2956L393.958 19.686L393.567 19.6209L392.527 19.4908L392.266 19.2306L392.136 18.9703L391.876 18.7101L390.445 17.9294L389.859 17.474H389.274L389.079 16.6282L388.754 15.9125L388.363 15.2619L387.843 14.8716H388.558L389.209 14.8065L386.477 11.4234L385.956 10.4475L385.176 9.40659L384.59 9.08129L384.525 9.34153L383.68 8.88611L383.289 9.14635L383.094 9.73188L382.379 9.34153V9.99212H382.183L381.598 9.73188V10.2524L381.533 10.5777L381.273 11.0331H382.379L382.053 11.7487L382.899 13.18L382.704 14.0909H383.094V14.4812H382.704L383.029 15.0017L383.094 15.327H382.704L382.574 14.5463L382.183 14.0258L381.663 13.6354L380.882 13.5704L381.078 13.115L380.882 13.0499L380.492 13.5053L380.167 14.4812H380.492L380.687 14.4162L380.882 14.0909L381.273 14.3511L381.598 14.4812H381.988V14.8716H381.598V15.327L381.793 15.7173L382.118 15.9776L382.509 16.1077L383.094 16.1728L382.704 16.5631L382.183 16.6932L381.663 16.5631L381.273 16.1728H380.882L380.947 16.4981L380.492 16.6282L380.947 17.0185L381.273 17.474L380.557 18.3848L380.362 19.1004L380.882 19.5559H381.988V20.0113L381.273 19.8812L380.687 19.6209H380.232L379.777 20.0113H379.451L379.126 19.6209L378.736 19.686L378.475 20.0763L378.345 20.6619L378.606 20.9872L378.931 21.1823L379.061 21.4426L378.345 21.7028V22.0932L378.671 22.6787L378.28 22.9389L377.695 23.0691L377.24 23.4594L377.109 24.3703L377.5 24.8907L378.02 25.0208L378.606 24.7606L377.825 26.7124L376.199 27.8184L373.792 28.469L372.426 29.1846L369.433 31.722L368.783 31.787L368.393 31.5268L368.197 30.9413L368.067 30.1605L368.978 29.9003L369.954 28.5341L369.889 27.6883L369.629 27.1678V26.9076L370.539 26.8425L371.58 26.5823L372.296 25.9317L372.426 25.216L371.385 24.6955L371.58 24.2401L371.775 23.8498H372.166L372.556 24.2401H373.011L373.206 23.9148L372.881 23.4594V23.004L373.076 22.7438L372.816 21.7679L372.621 21.3125H372.035L370.995 21.7679L370.865 22.2233L371.06 22.8088V23.0691L370.93 23.3944L370.604 23.7197L370.084 23.9799L369.498 23.7197L369.173 22.9389L368.913 22.6787H368.523L368.197 22.4835L367.482 21.898L367.091 21.8329L366.701 21.9631L366.376 21.7679L366.181 21.4426V21.0522L366.246 20.5968L366.116 20.2064L365.79 20.0113L363.384 19.6209L362.928 19.3607V18.9703L363.058 18.7751L363.969 17.6691L365.79 16.3029L366.181 15.9125L366.441 15.4571L366.571 15.1318L366.766 14.4162L368.132 14.3511L376.134 12.074L380.882 9.34153L382.834 8.69093L384.916 8.75599L386.607 9.60176L387.323 11.2933L387.648 12.009L389.274 14.286L389.99 16.1077L390.835 17.1487L392.527 18.7101L393.112 18.9703L394.413 19.2306L394.543 19.2956Z" fill="#009649" stroke="white" stroke-width="2" stroke-linejoin="round"></path>
<path class="region" data-country-region="East Region" d="M442.031 36.8617L442.096 37.4472L441.575 36.9918L441.38 36.6665L441.445 36.3412L441.771 36.4713L442.031 36.8617ZM465.709 31.3316L467.986 33.2184L466.88 32.4377L458.554 28.7943L457.058 28.5341L458.684 28.5992L461.416 29.9003L462.652 30.2256L464.278 30.5509L465.709 31.3316ZM448.276 27.1028L456.667 28.1437L456.277 28.404H455.627L454 28.0787L450.813 27.6233L448.991 28.1437L448.146 27.9486L446.779 28.469L440.339 31.9172L439.234 32.828L439.819 31.9172L441.055 31.2666L442.096 30.7461L442.746 30.3558L443.462 29.8353L446.259 28.5341L446.845 27.9486L448.276 27.1028ZM542.926 135.036L520.743 131.588L514.108 129.181L507.928 125.863L497.129 121.764L483.534 114.413L449.642 108.362L435.005 109.078L434.55 108.492L434.094 107.646L433.639 106.41L432.989 93.8537L432.013 88.1285L429.151 80.8419L424.272 72.9697L424.207 72.7094L424.011 71.9287L423.816 70.6275L423.686 65.1625L421.54 43.6929L421.409 38.293V38.2279H421.54L423.816 38.293L426.093 38.0328L430.061 36.9918L434.745 34.6497L435.656 33.934L437.867 32.828L438.453 32.3726H438.843V32.828L437.152 33.4786L434.16 35.7557L432.468 36.2111L429.541 37.5773L424.987 38.8135H427.524V39.2038L426.809 39.6593L428.435 39.5942L429.02 39.399L429.346 38.8135H429.671L429.736 39.1388L430.452 39.2038L433.704 37.0569L436.436 36.2111L437.022 35.7557H437.347L437.542 36.081L438.323 36.2762L438.128 36.6015L437.737 36.6665V37.0569L438.323 36.8617L439.559 36.2111V35.7557H438.128V35.3653L438.843 35.1051L439.689 35.3003L440.535 35.9509L441.055 36.6665L441.185 36.9918L441.38 37.9677H440.665L442.421 38.5532H443.202L443.917 37.9677V37.4472L443.462 37.187L443.202 37.0569V36.6665L445.218 36.146L445.739 35.7557L445.478 35.3003L445.609 34.8449L445.869 34.3244L446.129 33.6738H445.739L445.413 34.0641L444.308 34.9099L443.982 35.3653V35.5605L444.308 35.7557L443.592 35.9509H442.356L441.12 35.7557L440.274 35.3653L441.901 35.2352L442.811 34.2593L443.462 33.0232L444.308 31.9822L444.958 31.6569L446.259 31.3967L446.845 31.1365L447.885 30.1606L448.536 29.8353H449.447V30.2256H447.95V30.616L448.601 31.1365L450.487 33.6738L451.073 34.7147L450.878 35.04L450.162 35.2352L449.447 35.7557L449.317 35.3653H448.991V35.7557L449.902 36.4063L450.357 37.187V38.1629L449.772 39.2038L451.658 38.4231L452.699 38.2279L453.35 38.293L453.74 38.2279L454.456 38.293V37.9677L453.74 37.4472H453.35V37.9677H453.024V37.4472L455.887 36.3412L456.667 35.7557H457.058L456.667 36.2111L457.058 36.6665L457.448 36.3412L457.838 36.2762L458.229 36.5364L458.489 37.0569H458.879V36.5364V35.9509L458.814 35.8207L459.595 35.7557L459.074 35.4954L458.554 35.5605L458.033 35.4954L457.448 35.3653L463.238 34.9099L462.782 33.8039L463.433 33.5437L464.278 33.4786V32.3726L464.864 32.6979L465.059 32.828H465.449L466.165 32.6328L468.246 33.7388L469.222 34.0641L473.125 34.4545L474.166 34.9099V34.5196L475.402 34.8449L477.159 34.7798L488.087 31.8521L498.365 27.8184L506.497 22.4836L507.798 24.8908L508.123 25.9317L509.619 30.616L513.392 42.3917L515.409 47.7917L518.141 54.9482L521.393 63.6662L522.564 68.5456L522.695 71.0829L523.02 72.189L523.865 73.295L524.386 74.0757V74.9215L523.865 76.7431L523.735 77.8491L523.865 78.5648L524.256 79.1503L527.118 81.6876L527.703 82.5985L529.525 87.6731L532.647 96.7163L534.924 103.352V104.133L535.249 107.451L537.591 113.892L539.673 119.617L541.039 125.928L540.974 130.157L541.299 131.653L542.535 134.126L542.991 135.036H542.926Z" fill="#009649" stroke="white" stroke-width="2" stroke-linejoin="round"></path>
<path class="region" data-country-region="East Region" d="M496.023 301.458V302.825L495.308 302.109L493.486 297.945H494.267H494.592L495.633 300.222L496.023 301.458ZM496.219 254.941L497.389 255.396L497.715 256.437L497.91 257.478L498.56 258.194V258.584L497.52 258.389L496.219 256.958L495.113 256.567L494.592 256.242L494.072 255.656L493.551 255.266L492.315 255.852L491.86 255.396L491.47 254.746L491.275 254.095L491.535 253.705L491.925 253.444L492.315 253.314H492.771L493.942 253.444L494.852 254.03L495.568 254.681L496.219 254.941ZM382.574 166.85L384.851 167.891L392.136 166.785L396.43 167.046L397.21 166.85L398.381 166.525L414.579 159.369L416.075 158.458L418.287 157.742L419.263 157.612L424.402 157.547L424.532 158.197L424.597 159.499L424.337 160.019L423.751 160.475L423.491 161.19L422.906 161.45L422.71 161.971L423.166 162.622L422.841 164.443L422.776 166.59L423.101 167.241L424.792 168.932L425.312 169.713L425.508 170.299V171.535L425.703 172.185L426.939 173.486L427.134 173.617L429.346 176.739L431.232 177.13L432.403 178.366L433.184 180.253L435.526 189.231L435.721 190.467L436.306 190.662L438.843 192.159L440.079 193.395L440.73 194.175L441.25 195.281L441.771 195.477L442.356 195.607L442.876 195.867L443.006 196.257L443.397 197.493L444.893 200.421L445.413 200.876L445.348 201.202L445.023 201.267L447.365 203.219L448.341 204.52L448.276 205.821L448.731 206.146L449.056 206.797L449.316 207.578L449.447 208.098L449.642 208.293L450.813 209.985L453.35 212.717L454 214.018L454.521 214.344L455.106 214.604L455.561 214.929L455.822 215.71L455.757 216.361L455.952 216.816L456.862 217.011L457.773 217.467L459.53 219.614L460.7 220.329L460.57 220.655L460.7 221.175V221.5L460.57 222.021L460.961 222.411L461.611 222.541L462.132 222.411L462.587 223.257L463.758 223.777L466.165 224.428L469.938 227.941L471.174 230.478L471.824 231.064L472.15 231.715L473.32 234.447L473.451 235.163V235.553L473.711 236.009L473.906 237.18L474.166 237.635V238.025H473.06L472.475 236.659L471.239 235.943L469.808 235.358L468.702 234.707H468.312L467.986 235.618L467.856 236.074L467.986 236.529L468.312 237.18L469.352 238.221L469.873 239.001L470.133 239.912L470.458 240.368L471.239 240.172L472.019 239.782L472.345 239.912L472.28 240.693L472.084 241.604L471.694 242.384L471.239 243.035L471.759 243.621L472.93 244.531L473.255 244.596L473.386 244.857L473.906 245.963L474.166 246.288V246.678L473.581 246.223L472.345 244.596H471.954V245.052L472.15 245.377L472.345 245.898H471.954L471.629 244.727L470.718 244.857L469.678 245.702L469.092 246.678L470.328 247.329L471.239 248.565L472.735 251.232L472.54 251.623L472.345 252.078L472.28 252.664L472.345 253.314L473.255 253.965L475.532 255.006L476.378 255.787L476.508 256.307L476.573 257.608L476.768 258.194L477.093 258.714L478.004 259.69L478.394 260.276L478.72 261.512L479.11 264.179L479.435 264.96L481.257 266.652L483.273 268.083L485.55 269.189L486.591 269.905L487.241 270.945L487.372 271.531L487.241 273.808L487.176 274.003L486.656 274.459L486.526 274.654L486.591 274.979L486.851 275.5L486.916 275.89L486.981 277.191L487.176 278.232L487.762 279.013L488.738 279.728L489.648 280.574L490.624 281.94L491.014 282.916L490.234 282.786V283.762L490.559 284.608L491.665 286.039L492.12 286.95L492.771 288.772L493.291 289.552L493.942 290.073L494.722 290.528L495.373 290.984L495.633 291.634L496.023 293.521V294.432L495.633 295.082L494.787 295.148L494.202 294.627L493.682 294.367L493.096 295.538L492.966 296.319V297.36L493.096 298.401L493.291 299.181V300.743L492.25 304.386L492.771 306.078L493.486 306.728L495.243 307.249L496.023 307.769L496.609 308.55L497.129 310.437L498.886 312.714L499.601 314.34L501.423 319.61L502.203 321.171L503.309 322.798L504.025 324.294L505.326 326.246L509.814 336.59L511.896 339.713L513.847 344.788L518.076 350.643L518.466 351.359L518.987 353.05L522.564 358.385L524.451 360.532L524.906 361.118L529.525 370.291L530.24 373.089L531.541 375.626L532.127 378.619L533.103 380.245L535.38 383.173L535.705 383.889L536.225 385.645L536.55 386.426L538.112 388.898L538.762 391.37L541.234 395.664L545.788 403.602L545.983 405.488L546.568 407.115L548.455 409.392L548.65 410.498L548.715 412.645L548.845 413.751L549.17 414.662L549.561 415.312L550.211 415.833L551.057 416.353L552.423 417.654L553.334 419.346L554.57 423.965L554.83 424.681L555.806 426.242L556.781 428.064L557.562 428.78V429.69L556.716 431.512V433.139L558.928 433.984L561.53 438.929L568.751 444.459L569.857 445.825L571.808 451.485L573.239 453.047L575.256 455.974L576.167 455.844L575.776 454.998L575.256 454.218L575.841 454.088L576.882 455.259L578.379 455.844L580.33 457.861L581.046 459.488L581.176 461.179L582.802 462.155L584.493 461.895L585.794 462.22L587.16 462.676L588.266 463.261L589.112 464.107L590.218 466.709L591.194 468.01L590.803 468.531L590.023 467.425L588.917 466.254L588.136 466.189L586.25 467.1L585.404 467.49L583.387 466.644L582.347 466.449L581.631 466.514L580.85 466.384L579.875 465.994L579.484 465.538L578.899 464.757L578.313 464.627V464.302L577.468 463.912L576.362 463.651L575.841 463.977L575.126 465.343L574.736 467.1L575.126 469.832L574.28 474.061L574.736 475.557L575.711 475.752L576.167 476.468L576.102 477.314L575.907 477.769L576.037 478.68L576.167 480.697L575.907 483.104L575.776 488.114L575.711 489.025L575.191 490.651L575.061 491.562L575.256 492.408L575.776 493.253L576.882 494.88L577.793 496.571L578.118 497.482L578.313 498.458V501.191L578.704 503.988L579.224 506.135L579.549 508.022L582.021 512.251L582.802 513.877L583.843 516.024L584.558 521.294L584.949 522.27L585.99 524.222L588.201 527.019L589.632 527.8L588.982 526.889L587.486 524.222L588.527 524.287L589.177 524.807L589.697 525.653L590.023 526.629L590.608 529.491L590.738 529.947L591.649 530.532L592.039 531.183L592.43 531.899L593.145 532.744L594.056 533.981L596.138 535.542L598.024 536.323L599 536.648L599.195 536.908L599.845 537.364L600.561 537.754L601.342 538.014L604.334 538.209L608.627 539.055L612.726 540.421L614.222 541.332L616.824 543.805L617.67 545.236L617.93 547.903L618.84 549.66L620.467 551.026L622.093 552.327L623.719 553.043L623.524 552.132H623.849L624.955 553.433L624.695 555.06L625.606 557.402L629.184 559.028L630.94 560.069L632.111 560.85L635.364 563.583L640.112 568.202L641.153 568.722L641.934 568.657L642.129 568.332L642.259 567.942L642.454 567.746L642.844 567.877L643.755 568.462L644.211 568.852L644.471 569.243L645.251 570.934L645.707 571.65L646.487 572.366L648.569 573.667L649.805 574.122L650 576.204L649.935 576.92L649.61 577.505L649.154 578.156H636.73H612.01H587.291H574.866H537.786H513.067H463.563H451.203H364.099H362.668L362.733 577.896L364.229 575.033L365.465 573.602L366.636 572.626L367.807 571.975L378.801 566.771L379.451 566.25L380.362 565.079L381.078 563.843L381.468 563.257L382.118 562.672L382.834 562.412L383.484 562.281H385.306L385.956 562.151L386.607 561.891L387.192 561.566L389.339 560.004L390.055 559.159L390.965 557.988L391.876 556.491L395.324 546.732L395.909 545.496L396.3 544.911L396.82 544.52L397.405 544.325L397.991 544.39L398.576 544.65L399.162 545.041L401.569 546.992L403.78 549.53L404.301 549.92L404.821 550.311L406.187 550.961L407.488 551.351L408.204 551.482L411.196 551.547L413.733 551.156L416.14 550.376L417.181 549.79L418.092 549.205L420.043 547.448L421.735 545.561L428.63 539.315L429.996 537.494L430.712 536.323L431.037 535.542L431.232 534.501L431.297 532.81L430.972 530.337V529.557L431.427 528.776L432.468 527.735L432.793 527.214L433.379 525.458L433.639 524.872L434.094 524.482L434.615 524.417L435.135 524.547L435.786 524.937L436.371 525.523L438.713 527.995L439.949 528.971L440.535 529.231L441.12 529.426L441.705 529.491H442.226L446.584 528.776L447.885 528.906L449.121 529.296L450.422 530.077L454.651 534.501L458.098 537.103L458.684 537.364L459.269 537.559H459.79L460.245 537.299L460.44 536.648L460.31 535.152L458.098 527.605L457.773 527.019L457.318 526.434L456.277 525.458L455.822 524.937L455.106 523.636L454.651 523.051L454.13 522.595L453.48 522.27L450.357 521.099L446.714 518.822L446.129 518.366L445.804 517.716L445.674 517L445.999 516.219L447.04 515.048L447.43 514.463L447.69 513.877L448.471 511.925L448.796 511.21L449.316 510.624L450.943 509.323L451.333 508.803L451.593 508.217L453.48 503.338L453.935 501.841L454 501.256L453.935 500.41L453.74 499.499L453.155 498.198L451.658 495.856L451.333 494.945L450.162 489.545L450.097 488.049L450.227 487.073L451.333 485.316L451.593 484.731L451.658 483.755L451.333 480.697V479.591L451.398 478.68L451.333 477.899L451.138 477.054L450.487 475.817L449.902 475.102L449.316 474.646L448.211 473.866L447.17 472.955L446.324 471.849L445.869 470.808L444.438 466.839L443.202 464.497L442.681 463.131L441.185 453.177L441.705 449.208L442.811 444.589L443.267 443.548L447.625 437.823L448.471 436.522L449.121 435.285L449.316 434.765L449.707 433.269L449.772 432.163L449.707 431.707L443.982 419.671L443.657 418.825L443.332 416.744L443.202 408.871L442.681 405.423L442.291 403.732L441.575 401.975L439.754 398.852L437.802 396.25L427.004 387.987L425.312 386.361L424.857 385.775L424.142 384.539L423.556 382.848L422.645 378.424L422.58 375.301L422.645 374.455L423.296 372.503L423.816 371.332L424.662 370.161L428.175 366.257L433.314 361.638L434.485 360.272L435.461 358.906L438.193 353.246L438.648 351.684L438.973 350.058L439.038 348.691L438.973 346.61L438.388 342.251L437.607 339.453L437.087 338.152L436.306 336.786L434.225 333.923L432.403 332.231L431.102 331.321L430.061 330.735L425.898 329.564L422.515 329.304L420.954 329.434L418.222 329.954L407.488 335.159L405.862 335.484L400.268 328.393L398.837 325.725L398.316 325.01L397.796 324.294L396.95 323.774L396.3 323.513L392.787 322.733L391.291 322.147L389.859 321.366L388.884 320.716L388.168 319.935L387.322 318.829L386.021 316.877L385.241 315.251L385.111 314.6L384.851 311.933L384.525 311.022L384.005 309.916L382.574 308.029L381.338 305.882L380.557 303.931L378.215 301.653L369.238 295.408L363.579 283.437L362.343 281.355L361.627 280.444L358.245 276.996L356.098 275.174L354.862 274.394L354.472 274.068L354.081 273.548L353.691 272.637L352.845 270.23L352.325 269.319L351.674 268.473L350.503 267.432L349.723 266.847L348.942 266.456L345.559 265.415L340.16 263.138L335.542 260.406L335.021 259.95L334.501 259.3L334.175 258.649L333.785 257.869L333.33 256.177L333.135 255.331L333.07 253.575L333.265 248.305L334.175 242.58L334.241 241.604L334.175 240.172L333.98 238.351L333.72 237.18L332.484 233.992L332.159 232.625L331.704 226.9L331.443 225.274L330.598 222.867L327.735 217.206L327.475 216.491L327.41 215.84L327.15 213.238L326.63 210.505L326.564 209.855L326.695 208.749L327.02 207.382L328.516 203.349L331.118 198.925L331.443 198.209L331.704 196.973L333.395 182.204L333.46 180.968L333.85 179.147L334.826 176.349L335.997 174.267L339.575 169.453L342.632 164.508L344.128 162.491L346.47 159.954L347.251 158.783L347.901 157.482L348.812 154.945L349.463 153.708L349.853 152.537L349.918 151.692L349.723 149.284L349.918 146.682L353.821 151.496L354.927 152.472L355.317 152.928L355.642 153.448L356.423 155.205L356.618 155.595L357.269 156.441L359.35 158.653L360.391 159.434L362.017 160.41L362.993 160.93L382.574 166.85Z" fill="#009649" stroke="white" stroke-width="2" stroke-linejoin="round"></path>
<path class="region" data-country-region="East Region" d="M534.794 230.348L533.298 230.999L532.062 230.544L531.021 229.633L532.127 227.941L534.794 228.006V230.348ZM524.776 225.664L523.41 225.989L522.824 226.25L522.629 226.9L523.085 227.421L523.995 227.486L525.492 227.226L526.207 227.03L526.402 227.161L526.663 227.551L526.988 228.136L528.874 229.828V230.218L526.793 230.413L524.971 230.283L523.41 229.633L522.239 228.136L522.304 227.356L522.174 226.185L521.914 225.664L522.174 225.339L522.239 225.664L522.434 225.209L522.694 224.883L523.02 224.623L523.345 224.428L524.321 224.949L524.581 225.274L524.776 225.664ZM424.207 116.69L435.005 109.078L449.642 108.362L483.533 114.413L497.129 121.764L507.928 125.863L514.108 129.181L520.743 131.588L542.925 135.036L542.405 135.362L541.95 135.687L541.559 136.142L541.169 136.663L540.909 137.379L540.714 138.029L540.453 138.55L539.738 138.81L540.193 138.94L540.128 139.265L539.673 139.46L539.348 139.786L539.217 140.111L539.413 140.501L538.892 140.566L538.697 140.762V140.957L539.022 141.282L538.437 141.868L537.201 143.819L536.941 144.08L536.355 144.405L536.095 144.6L535.705 145.316L535.444 145.641L534.989 145.966V146.292L535.51 147.137L535.314 148.048L534.859 148.894L534.599 149.675V152.798L534.339 153.513L533.688 154.099L533.103 154.554L532.842 154.88L532.777 155.725L532.582 156.701L532.192 157.677L531.737 158.458L531.867 159.108L531.737 162.817L531.802 163.402L532.387 164.183L532.452 164.899L532.322 165.614L531.932 165.94L531.411 166.135L530.24 166.916L530.045 167.241L529.915 168.022V168.412L530.175 169.648L530.24 173.226L528.874 174.267V174.658L529.004 175.178L529.134 176.024V176.935L528.874 177.65L529.199 178.106L529.525 178.821L529.069 179.147L529.004 179.472L529.199 180.318L529.069 180.968L528.809 181.359L528.549 181.684L528.484 181.944L528.159 183.05L526.923 184.807L526.207 187.604L524.06 190.857L523.345 192.549L523.28 193.004L523.02 192.939L523.67 194.826L523.085 195.997L521.849 196.908L520.808 197.949L521.003 198.079L521.133 198.404L520.418 198.73L520.027 199.575L519.507 202.243L519.312 202.893L518.661 203.934H518.596L518.401 204.65L517.685 206.146L517.49 206.862L517.555 207.903L517.685 208.684L517.946 209.334L518.206 209.985V210.375L517.816 211.416L518.271 212.262L518.921 213.108L519.442 214.084L519.897 214.604L520.092 214.929V215.32L519.702 215.97L519.637 216.751L519.182 218.833L518.531 220.524L519.442 222.216L518.596 226.445L518.986 226.9L517.62 227.161L517.165 227.356L516.97 227.681L516.84 228.201L516.58 228.722L515.929 229.177L515.604 230.023L515.148 230.218L514.758 230.283L513.978 230.544L513.457 230.609L513.587 230.934L513.847 231.064L513.457 231.975L512.937 233.797L512.416 234.382H512.026L511.896 234.057L511.44 233.862L511.115 233.601L510.725 233.992L510.335 235.293L509.879 236.009L510.335 236.724L509.619 237.375L508.578 237.83L507.863 238.025H507.212L507.472 238.936L507.602 239.327H509.554V239.717H509.164V240.107L509.424 240.368L509.619 240.628L509.879 241.343L509.359 241.083L509.294 241.278L509.554 241.343V241.799H509.164L508.903 241.278L507.928 239.977L506.952 238.936L506.497 238.546L505.976 238.286L505.13 238.025L500.056 237.44L498.755 236.594L495.178 232.3L494.917 232.105H494.462L491.405 229.307L490.754 228.982L490.039 228.917L489.453 229.373L488.738 227.811L488.347 228.136L487.892 227.551L486.005 225.989L485.42 225.664L485.225 225.404L485.03 224.883L484.9 224.688L484.509 224.363L484.119 224.168L483.273 223.973L483.338 222.476L480.736 220.915V219.874L479.956 219.223L479.045 217.922L478.459 216.621L478.59 215.775L478.069 215.45L477.939 215.255L477.809 214.929H477.484V215.385H477.093L476.898 215.059L476.443 214.539L476.378 214.344L475.532 211.351L475.272 210.961L474.882 211.221L474.491 210.375L473.255 208.488L472.735 207.513L465.774 203.349L465.449 202.698L465.189 202.633L463.953 200.421L462.912 199.445L462.327 198.73V198.404L458.944 195.867L458.359 195.281L458.098 194.826L457.968 194.371L457.513 193.59L456.927 192.874L456.342 192.549L456.667 192.159V192.549H457.058L456.667 190.597L455.756 190.467L455.301 191.248L456.342 192.159L455.431 191.833L454.846 191.053L454.586 189.947L454.325 187.474L454 186.498L453.024 184.612L453.61 183.441L454.26 180.643L454.846 179.277L454.195 178.431L453.87 177.976L453.61 176.739L453.219 176.479L452.699 176.284L452.309 175.959L451.983 174.788L451.788 172.12L451.593 171.34V170.949L452.049 170.429L452.114 169.843L451.918 168.477L451.788 168.152L451.593 167.306L451.528 166.395L451.788 165.94L452.179 165.549L451.788 164.703L451.138 164.053L450.813 164.118L450.748 163.467L450.422 163.012L449.967 162.817L449.446 163.012L448.861 162.296L447.43 161.516L446.844 160.93L446.194 159.434L446.129 159.043L445.934 158.718L445.153 158.132L445.023 157.807L444.828 157.742L443.917 156.376L443.202 155.92L442.941 155.27L442.876 155.075L440.469 152.602L439.624 152.342L438.453 151.692L437.282 150.846L436.631 150.13L436.306 149.154L436.046 147.853L435.721 146.812L435.005 146.292L434.485 146.097L434.159 145.641L433.054 143.039L432.988 142.974L433.184 140.697L432.988 139.656L431.557 139.005L428.955 137.118H429.346L429.15 136.663L428.955 136.468L428.24 136.273L428.5 136.012L428.63 135.817L428.565 135.427H428.24L427.98 135.947L427.914 136.403L427.98 136.793L428.24 137.118H427.524L427.914 134.841L428.045 131.979L427.394 129.506L425.703 128.335V127.945L426.028 127.164V126.318L425.833 125.408L425.703 124.562L425.833 123.651L426.288 122.415L426.418 121.829L426.353 120.788L426.223 120.138L426.028 119.617L425.703 119.097L424.402 117.47L424.272 116.755L424.207 116.69Z" fill="#009649" stroke="white" stroke-width="2" stroke-linejoin="round"></path>
<path class="region" data-country-region="West Region" d="M318.888 247.459L318.693 249.801L318.823 251.428L319.409 253.314L324.353 263.919L325.263 265.22L326.044 266.261L333.135 272.962L335.737 274.459L340.616 276.476L341.461 277.126L342.502 277.907L344.974 280.639L345.624 281.615L352.325 295.148L359.676 304.321L364.75 308.615L386.997 336.59L395.389 344.593L395.974 344.983L396.885 345.504L398.186 346.154L398.967 346.414L399.942 346.61L401.439 346.675L404.041 346.219L408.724 344.853L420.954 339.128L422.45 338.737L424.857 338.412L425.768 338.477L426.548 338.607L427.134 338.867L427.654 339.258L428.175 339.778L428.63 340.364L429.02 340.949L429.216 341.6L429.411 342.771V344.007L429.281 344.788L429.085 345.439L428.565 346.61L426.353 350.448L426.028 351.164L425.833 351.814L425.443 354.612L425.117 355.913L424.857 356.564L424.532 357.149L424.142 357.735L423.101 358.906L415.815 364.696L414.254 366.323L413.473 367.494L413.213 368.079L413.083 368.665L413.018 369.901L413.083 370.812L414.904 377.968L416.335 386.426L417.116 388.508L417.636 389.419L418.157 390.199L419.263 391.37L424.272 395.274L428.63 397.746L430.452 399.243L431.622 400.544L432.533 401.91L433.119 403.146L433.899 405.358L434.485 411.409L434.68 412.189L435.07 413.23L437.347 417.98L438.388 421.103L438.778 423.25V423.575L438.973 424.421L438.453 426.633L436.501 431.382L436.176 433.724L436.306 433.854V434.635L436.111 435.871L435.981 439.124L436.436 443.158V443.873L436.046 446.801V448.167L435.916 448.818L435.851 450.705L435.916 451.42L436.631 453.827V454.933L436.111 457.015L435.981 457.601L435.526 458.121L435.33 458.512L434.875 459.162L434.29 459.683L433.704 460.073L433.054 460.398L432.403 460.594L431.102 460.789L427.719 460.659L426.483 460.854L425.833 461.114L425.247 461.374L424.792 461.765L424.337 462.35L424.011 463.066L423.621 464.888L423.491 466.579L423.556 467.555L423.881 468.336L424.337 468.921L424.922 469.442L427.329 470.808L428.565 471.393L429.15 471.849L429.671 472.434L430.126 473.54L430.061 474.256L429.736 474.907L429.15 475.297L428.5 475.557L421.93 476.468L420.629 476.793L419.978 477.054L419.393 477.379L418.742 477.769L417.571 478.94L416.596 480.111L415.295 481.998L414.969 482.584L414.319 485.121L413.603 489.545L413.148 491.041L412.693 492.082L412.497 492.863L412.172 494.294L412.367 495.205L412.823 495.856L413.408 496.181L413.994 496.376L416.14 496.832L421.474 497.027L428.63 495.921L429.281 496.051L429.801 496.311L430.191 497.352L430.256 498.328L430.061 499.369L429.736 500.15L429.216 500.93L424.597 506.005L423.231 507.827L420.629 513.617L419.068 518.822L418.547 519.928L418.352 520.253L417.897 520.904L417.311 521.945L416.791 523.571L416.14 526.824L415.685 528.386L415.099 529.492L414.644 530.077L414.254 530.663L413.213 532.875L412.693 533.46L412.107 533.655L411.587 533.525L411.131 533.005L410.481 531.899L410.025 531.443L409.44 531.053L408.854 530.923H408.204L406.773 531.248H405.992L405.342 531.053L404.691 530.793L402.284 528.776L401.113 527.995L400.463 527.735L399.812 527.67L399.097 527.8L397.601 528.255L380.687 536.323L380.102 536.388L379.516 536.323L374.963 535.087H373.727L373.076 535.152L372.426 535.282L371.71 535.542L370.995 535.867L370.214 536.518L369.498 537.364L368.523 538.86L368.132 539.771L367.937 540.617V541.202L368.132 542.503L368.978 545.887L369.368 549.009L369.303 549.4L368.913 551.221L368.588 552.132L368.132 553.043L364.359 557.792L362.538 559.289L361.627 559.809L360.391 560.395L359.025 560.85L357.789 561.045L355.057 561.175L353.756 561.371L352.455 561.761L351.089 562.412L350.373 562.997L349.723 563.713L348.877 564.949L348.487 565.795L348.292 566.575L348.422 567.226L348.682 567.812L349.202 568.397L349.723 568.918L352.065 570.609L352.585 571.195L353.105 572.04L350.243 577.766L349.593 578.221H342.372H332.029H306.138H300.934H280.248H269.905H254.357H249.218H228.532H218.189H192.298H187.094H176.751L166.408 578.156H140.517H135.378H114.692H104.349H88.8015H83.6624H73.2542H62.911H47.4288H42.2247H21.5383H16.3342V245.507H17.3751L140.973 245.442H211.619H319.734L319.149 246.743L318.888 247.459Z" fill="#009649" stroke="white" stroke-width="2" stroke-linejoin="round"></path>
<path class="region" data-country-region="East Region" d="M427.004 387.987L426.614 389.354V392.477L426.418 393.322L426.158 393.843L425.638 394.233L425.182 394.493L424.272 395.274L419.263 391.371L418.157 390.199L417.637 389.419L417.116 388.508L416.335 386.426L414.904 377.968L413.083 370.812L413.018 369.901L413.083 368.665L413.213 368.079L413.473 367.494L414.254 366.323L415.815 364.696L423.101 358.906L424.142 357.735L424.532 357.149L424.857 356.564L425.117 355.913L425.443 354.612L425.833 351.814L426.028 351.164L426.353 350.448L428.565 346.61L429.086 345.439L429.281 344.788L429.411 344.007V342.771L429.216 341.6L429.021 340.949L428.63 340.364L428.175 339.778L427.654 339.258L427.134 338.868L426.549 338.607L425.768 338.477L424.857 338.412L422.45 338.737L420.954 339.128L408.724 344.853L404.041 346.219L401.439 346.675L399.943 346.61L398.967 346.414L398.186 346.154L396.885 345.504L395.974 344.983L395.389 344.593L386.997 336.59L389.079 334.639L389.664 334.248L390.25 333.988L393.242 333.598L394.088 333.338L394.738 332.882L395.974 331.386L396.235 331.126L396.82 330.865L397.471 330.995L398.121 331.646L399.682 334.248L400.723 335.484L401.894 336.395L403.13 337.111H403.911L404.431 337.046L405.862 335.484L407.489 335.159L418.222 329.954L420.954 329.434L422.515 329.304L425.898 329.564L430.061 330.735L431.102 331.321L432.403 332.232L434.225 333.923L436.306 336.786L437.087 338.152L437.607 339.453L438.388 342.251L438.973 346.61L439.038 348.692L438.973 350.058L438.648 351.684L438.193 353.246L435.461 358.906L434.485 360.272L433.314 361.638L428.175 366.258L424.662 370.161L423.816 371.332L423.296 372.503L422.645 374.455L422.58 375.301L422.645 378.424L423.556 382.848L424.142 384.539L424.857 385.775L425.313 386.361L427.004 387.987ZM424.532 362.679L425.052 361.834L425.117 361.378L424.077 360.858L422.776 363.395L423.426 363.525L424.142 363.59L424.532 362.679Z" fill="#009649" stroke="white" stroke-width="2" stroke-linejoin="round"></path>
<path class="region" data-country-region="East Region" d="M369.238 295.408L378.215 301.654L380.557 303.931L381.338 305.882L382.574 308.029L384.005 309.916L384.525 311.022L384.85 311.933L385.111 314.6L385.241 315.251L386.021 316.877L387.322 318.829L388.168 319.935L388.884 320.716L389.859 321.367L391.29 322.147L392.787 322.733L396.299 323.514L396.95 323.774L397.796 324.294L398.316 325.01L398.836 325.726L400.268 328.393L405.862 335.484L404.431 337.046L403.91 337.111H403.13L401.894 336.395L400.723 335.484L399.682 334.248L398.121 331.646L397.47 330.995L396.82 330.865L396.234 331.125L395.974 331.386L394.738 332.882L394.088 333.338L393.242 333.598L390.25 333.988L389.664 334.248L389.079 334.639L386.997 336.59L364.75 308.615L359.676 304.321L352.325 295.148L357.269 292.415L357.854 291.96L358.374 291.439L358.7 290.984L359.09 290.333L359.61 289.618L360.001 289.227L360.326 289.032H360.911L361.627 289.292L362.538 290.203L362.928 290.724L363.318 291.374L364.164 293.261L364.619 293.977L365.14 294.627L365.725 295.148L366.506 295.473L367.156 295.668L369.238 295.408Z" fill="#009649" stroke="white" stroke-width="2" stroke-linejoin="round"></path>
</svg>