<svg width="690" height="561" viewBox="0 0 690 561" fill="none" xmlns="http://www.w3.org/2000/svg">
<path class="region" data-country-region="North Region" d="M336.248 172.094L336.959 172.623L347.453 201.815L328.764 209.473L304.112 194.421L313.493 176.352L327.788 172.121L335.683 170.827L336.248 172.094Z" fill="#009649" stroke="white" stroke-width="2"></path>
<path class="region" data-country-region="North Region" d="M399.646 2.24927L409.739 7.70108L410.924 24.1933L397.814 26.3448L418.117 25.5517L423.806 32.2707L443.097 6.30622L451.913 10.5364L456.562 21.6588L450.782 32.5807L461.941 54.7891L480.685 57.9253L480.12 70.1964L476.026 81.72L484.505 101.357L440.243 122.463L434.691 133.831L405.59 140.441L400.977 132.628L384.221 143.878L381.878 136.539L364 146.066L330.696 144.826L328.071 135.016L303.173 133.075L294.393 132.145L291.613 115.033L316.264 108.013L319.319 99.7529L311.852 71.9195L317.541 63.4682L302.589 43.9402L298.87 37.9596L337.051 40.7949L327.597 17.4651L344.408 8.57629L355.95 7.40935L355.503 24.0383L373.964 24.1477L399.646 2.24927Z" fill="#009649" stroke="white" stroke-width="2"></path>
<path class="region" data-country-region="North Region" d="M302.589 43.9493L317.541 63.4774L311.843 71.9286L319.309 99.762L316.264 108.022L291.613 115.042L294.393 132.154L303.173 133.084L301.878 143.094L286.27 152.448L289.534 162.558L277.5 162.44L267.991 188.851L271.711 202.544L251.672 206.428L252.174 218.699H242.236L220.766 214.396L217.84 205.033L203.381 207.495L194.975 221.863L164.726 208.78L175.721 198.059L163.504 180.673L168.108 172.286L157.04 170.271L164.954 159.468L156.694 155.566L162.437 130.157L142.062 115.634L156.12 98.2942L147.13 89.4692L150.905 66.103L159.247 74.5542L176.751 74.2169L174.69 62.5748L188.119 57.2233L221.186 69.303L223.602 83.0054L240.659 80.5713L240.577 86.9803L271.446 74.6454L302.589 43.9493Z" fill="#009649" stroke="white" stroke-width="2"></path>
<path class="region" data-country-region="North Region" d="M434.691 133.84L448.275 139.493L458.896 129.619L466.043 136.822L458.704 137.834L445.631 159.75L454.228 169.15L470.985 170.663L455.897 225.017L441.601 213.503L434.955 207.969L424.881 215.49L395.617 197.731L374.739 199.828L373.253 215.627L366.352 209.674L353.853 219.793L348.209 212.026L326.822 222.984L320.048 218.043L304.44 230.752L288.039 219.219L278.302 225.865L245.072 230.332L242.236 218.717H252.164L251.672 206.446L271.711 202.563L267.991 188.878L277.5 162.467L289.543 162.576L286.279 152.466L301.887 143.112L303.182 133.102L328.08 135.044L330.705 144.854L364.009 146.093L381.887 136.566L384.23 143.905L400.986 132.655L405.599 140.468L434.691 133.84ZM335.683 170.827L316.547 173.517L304.221 194.75L328.763 209.473L347.453 201.806L336.95 172.623L335.683 170.827Z" fill="#009649" stroke="white" stroke-width="2"></path>
<path class="region" data-country-region="North Region" d="M148.616 39.7008L150.905 66.1029L147.13 89.4691L156.12 98.2942L142.062 115.634L162.437 130.157L156.694 155.566L164.954 159.468L157.04 170.271L168.108 172.286L163.504 180.673L175.721 198.059L164.726 208.78L147.003 224.962L137.43 212.162L114.638 211.989L109.816 202.517L86.6408 207.157L83.3405 196.664L72.0449 201.395L76.2477 206.929L55.1242 213.53L58.8347 225.683L45.9072 220.267L34.1465 196.828L18.6116 196.245L12.2755 185.824L10.6344 166.177L18.0099 158.401L2.38379 118.533L115.669 50.1213L116.133 40.8586L118.276 50.5497L118.331 40.6307L123.618 47.2039L148.616 39.7008Z" fill="#009649" stroke="white" stroke-width="2"></path>
<path class="region" data-country-region="North Region" d="M577.012 208.361L596.285 211.998L594.562 224.935L559.062 211.296L577.012 208.361ZM532.887 65.2825L537.537 80.9633L589.43 102.944L565.717 154.153L572.208 157.608L552.261 179.625L559.919 196.263L522.604 220.896L512.174 222.236L506.713 214.132L492.081 222.902L469.043 220.769L467.411 228.728L455.896 225.017L470.985 170.663L454.228 169.15L445.631 159.75L458.704 137.834L466.043 136.822L458.896 129.619L448.275 139.493L434.691 133.84L440.243 122.472L484.505 101.367L476.026 81.7291L480.12 70.2055L511.974 69.695L524.135 58.919L532.887 65.2825Z" fill="#009649" stroke="white" stroke-width="2"></path>
<path class="region" data-country-region="East Region" d="M164.726 208.78L194.985 221.863L203.39 207.495L217.84 205.033L220.767 214.396L242.246 218.699L245.081 230.314L278.312 225.847L279.415 246.523L292.807 238.327L319.565 271.266L333.732 265.368L343.98 267.182L343.433 275.67L363.152 271.996L361.912 299.875L370.035 304.542L365.887 331.419L332.137 335.685L311.67 351.129L331.69 357.547L324.971 375.17L337.434 437.501L285.933 427.299L289.142 408.364L301.578 402.547L296.217 384.989L283.481 384.797L297.667 346.498L289.471 341.766L285.095 350.4L265.038 322.429L243.294 331.3L215.88 324.59L208.86 337.363L200.026 319.494L200.309 295.435L191.073 284.486L171.919 286.929L175.147 276.837L167.324 274.165L149.82 285.844L134.832 276.609L125.579 239.421L129.371 227.251L114.63 211.998L137.421 212.162L146.994 224.962L164.726 208.78ZM58.835 225.683L55.1245 213.53L76.248 206.929L72.0452 201.386L83.3409 196.655L86.6411 207.148L72.5466 215.226L67.2407 229.584L58.835 225.683Z" fill="#009649" stroke="white" stroke-width="2"></path>
<path class="region" data-country-region="East Region" d="M278.312 225.856L288.048 219.2L304.449 230.742L320.057 218.033L326.831 222.975L348.219 212.026L353.862 219.793L366.361 209.673L373.262 215.627L374.749 199.827L395.626 197.73L424.882 215.49L434.956 207.969L441.611 213.502L435.12 243.77L400.923 258.43L378.404 253.917L379.289 265.112L367.2 264.31L363.152 271.996L343.432 275.66L343.979 267.173L333.732 265.368L319.565 271.266L292.798 238.327L279.415 246.532L278.312 225.856Z" fill="#009649" stroke="white" stroke-width="2"></path>
<path class="region" data-country-region="East Region" d="M560.903 196.299L559.062 211.296L594.562 224.935L596.286 211.989L619.041 212.08L622.514 222.309L636.208 221.325L646.92 248.119L663.166 248.091L647.111 271.549L655.554 284.568L677.616 286.4L682.156 301.069L675.911 316.695L687.617 329.112L679.421 337.755L669.849 333.625L665.026 347.911L646.674 356.681L649.245 371.186L641.313 373.201L640.164 385.818L635.551 375.772L626.243 379.382L619.789 371.049L611.748 330.416L591.053 325.675L587.971 344.063L594.335 344.483L581.298 351.421L566.456 349.461L566.082 322.903L533.243 313.331L528.876 304.314L521.091 309.201L512.667 303.038L507.899 317.105L490.878 321.044L479.792 310.368L473.173 289.29L466.964 292.18L463.081 279.945L444.3 274.247L435.12 243.77L441.611 213.503L455.906 225.017L467.411 228.727L469.043 220.769L492.081 222.92L506.713 214.15L512.174 222.245L522.604 220.905L559.91 196.272L560.903 196.299Z" fill="#009649" stroke="white" stroke-width="2"></path>
<path class="region" data-country-region="East Region" d="M363.152 271.996L367.2 264.31L379.288 265.113L378.404 253.917L400.922 258.43L435.119 243.77L444.3 274.248L463.08 279.946L466.964 292.18L473.173 289.29L479.791 310.368L490.877 321.044L507.898 317.105L507.99 329.085L498.818 334.983L506.978 334.619L507.953 342.295L474.823 362.206L487.878 377.869L481.031 384.961L485.781 390.559L451.484 396.157L449.661 387.943L445.421 407.042L433.187 413.789L459.197 442.88L435.985 461.934L432.311 476.047L411.498 478.353L410.714 458.169L418.007 446.426L400.503 430.153L409.647 411.09L405.909 403.678L419.42 383.913L407.094 375.161L383.491 398.144L383.336 422.705L337.433 437.492L324.971 375.161L331.69 357.538L311.669 351.12L332.137 335.676L365.887 331.41L370.035 304.533L361.912 299.875L363.152 271.996Z" fill="#009649" stroke="white" stroke-width="2"></path>
<path class="region" data-country-region="East Region" d="M507.898 317.105L512.666 303.038L521.09 309.201L528.876 304.315L533.243 313.331L566.081 322.904L566.455 349.461L581.297 351.421L594.334 344.483L587.97 344.064L591.052 325.675L611.747 330.416L619.788 371.049L597.187 390.696L583.357 418.082L586.448 426.825L575.608 432.359L568.442 449.307L577.085 454.905L569.345 466.647L571.797 479.037L577.805 477.861L584.497 497.79L594.936 501.482L591.289 510.362L599.339 513.836L587.031 544.04L553.135 544.422L546.325 556.438L536.607 550.257L521.728 559L514.07 532.261L499.793 522.734L493.585 528.113L496.694 516.425L486.847 505.904L467.374 505.685L454.574 486.677L432.311 476.047L435.985 461.934L459.196 442.88L433.186 413.788L445.421 407.042L449.66 387.943L451.484 396.157L485.781 390.559L481.031 384.961L487.878 377.869L474.822 362.206L507.953 342.295L506.977 334.619L498.818 334.983L507.989 329.085L507.898 317.105Z" fill="#009649" stroke="white" stroke-width="2"></path>
</svg>