<svg width="470" height="575" viewBox="0 0 470 575" fill="none" xmlns="http://www.w3.org/2000/svg">
<path class="region" data-country-region="West Region" d="M124.311 35.8593L124.358 105.402L124.781 106.857L125.157 107.091L125.485 107.326L125.908 107.608L127.927 108.452L129.382 108.218H130.087L130.415 108.64L130.274 109.25L129.711 110.47L129.617 111.033L129.711 111.737L130.228 112.957L130.415 113.661V114.318L128.772 120.747L129.148 121.967L130.04 122.248L132.434 122.201L132.857 122.436L133.655 123.234L134.266 123.421L134.829 123.14L135.815 122.295L136.285 122.389L136.519 122.858L136.895 124.595L137.083 124.876L139.524 126.988L142.764 129.099L144.126 130.272L145.3 132.243L145.91 133.557L146.333 135.153L147.131 136.513L147.413 137.17L147.46 137.546L147.413 141.628L147.835 143.036L149.807 144.162L150.84 145.382L152.249 147.729L152.718 150.122V152.843L153.047 155.33L154.597 156.973L154.972 156.597L155.442 156.363L156.005 156.222L156.709 156.175L156.897 156.222L158.353 156.457L158.728 156.41L159.198 156.128L162.438 152.703L163.142 151.576L163.471 150.262L162.767 148.479L163.471 148.292H164.175L164.926 148.432L165.349 148.902L165.678 149.606L170.467 163.167L170.936 163.918L174.364 166.968L174.881 167.719L175.209 168.376L177.792 175.18L178.261 177.104L178.073 178.746L178.12 178.981L178.402 179.074H178.684L180.421 178.887L183.144 178.84L188.967 179.356L189.624 179.544L190.704 180.013L191.033 180.248L191.69 180.998L192.16 182.125L192.535 182.594L193.38 183.251L194.179 183.72L195.071 184.471L195.446 184.846L196.151 185.785L197.559 188.319L198.545 190.9L198.686 191.181L199.109 191.603L199.766 192.12L202.161 193.34L202.583 193.715L202.724 193.95L202.818 194.278L203.382 198.361L203.616 198.924L203.898 199.44L205.401 201.129L207.889 203.1L208.265 203.475L208.922 204.414L212.913 213.893L213.289 214.315L213.852 214.597L214.51 214.644L215.167 214.503L215.965 214.127L216.623 213.94L218.313 213.752L218.923 213.564L219.205 213.471L219.722 213.142L219.956 212.954L220.426 212.673L220.754 212.579H221.036L222.069 212.72L222.774 212.673L223.055 212.579L224.135 212.063L225.027 211.453L225.309 211.312L225.966 211.218H226.295L227.328 211.359L227.985 211.265L228.455 210.983L229.3 210.186L229.723 209.904L230.051 209.763L230.615 209.716L230.897 209.81L231.46 210.467L234.7 213.424L235.404 214.315L235.733 215.207L236.296 223.184L236.578 224.169L237.282 225.202L240.898 229.378L241.508 230.27L241.79 231.208L243.058 251.433L242.964 251.621L242.682 251.574L241.743 251.292L240.898 250.964L240.569 250.917H240.24L239.724 251.011L239.254 251.339L238.832 251.902L237.846 252.934L236.954 253.638L234.606 254.999H234.183L233.855 254.952L233.15 254.53L232.775 254.483L232.305 254.577L231.225 255.234L230.85 255.515L230.615 255.797L230.145 256.642L229.91 256.97L229.582 257.205L229.065 257.439L227.657 257.909H226.952L226.248 257.815L225.497 257.768L225.168 257.815L224.699 258.002L223.29 258.8L222.82 258.894L222.398 258.847L221.881 258.612L221.553 258.659L221.224 258.894L220.848 259.41L220.473 259.786L219.815 260.161L219.064 260.583L218.689 260.818L217.468 261.944L216.67 262.601L215.496 263.07L215.167 263.258L214.885 263.493L214.557 264.009L214.369 264.196L214.134 264.243L213.43 263.774L213.195 263.68H212.772L211.692 264.009H210.941L210.378 263.774L209.673 263.258L209.157 262.929L208.875 262.836L208.593 262.789L207.936 262.929L207.044 263.258L204.696 263.727H204.368L203.71 263.586L203.194 263.305L202.959 263.164L202.536 262.742L202.208 262.273L201.597 261.663L201.503 261.381L201.316 260.302L200.893 259.457L200.377 258.8L199.86 257.674L198.029 255.046L197.653 254.624L196.667 253.967L195.869 253.169L195.352 252.888L194.742 252.841L194.226 253.075L193.568 253.685L193.333 253.826L193.005 253.92L192.3 253.873L191.643 253.826L191.361 253.732L190.892 253.451L190.563 253.122L190.235 252.794L190.047 252.606L189.014 252.465L188.403 252.278L188.169 252.184L187.417 251.714L186.854 251.527L186.337 251.48L185.68 251.527L185.351 251.621L185.07 251.761L184.506 252.09L184.131 252.278L182.769 252.7L178.355 253.591H177.651L176.994 253.498H176.665L176.336 253.638L176.101 253.92L175.867 254.999V255.891L175.961 257.158V257.627L175.867 258.002L175.303 258.659L175.115 258.894L175.021 259.175L174.881 259.832L174.74 260.067L174.176 260.724L173.988 261.006L173.66 261.428L172.721 262.132L172.58 262.366L172.486 262.695V263.023L172.58 263.352L172.862 263.493L173.519 263.727L200.189 267.153L200.846 267.294L201.081 267.669L201.269 268.044L201.316 268.373L201.41 269.171L201.316 272.127L201.456 272.784L201.926 274.004L202.208 274.52L202.396 274.708L203.1 275.646L203.241 275.928L203.945 277.664L204.039 278.368L203.945 279.823L203.757 280.479L203.522 280.808L202.724 281.84L202.489 282.263L202.302 282.638L202.255 282.966L202.02 285.547L201.973 285.876L201.832 286.204L195.681 292.539L195.259 292.915L193.146 294.275L187.511 296.293L185.774 297.138L183.708 300.704L182.957 301.736L181.407 303.191L181.079 303.707L180.891 304.177L180.938 304.88L181.125 305.49L182.534 307.743L182.581 308.259L182.393 310.605L182.205 311.403L182.065 311.966L181.689 312.388L180.75 313.327L180.233 313.89L180.046 314.265L179.341 315.157L178.872 315.626L178.496 315.767H178.12L177.839 315.673L177.087 315.251H176.806L176.571 315.392L176.008 315.908L175.632 316.096L175.209 316.049L175.021 315.955L174.317 315.486L173.66 314.922L171.312 312.013L171.171 311.732L170.843 310.84V310.605L170.983 310.465L171.453 310.23L171.641 310.042L171.923 309.526L172.063 309.151L172.251 307.931V307.227L172.392 306.851L172.11 306.664L169.34 305.678L168.824 305.584L168.119 305.678L163.846 306.711L161.123 307.133L160.043 306.804L157.367 306.617L156.381 306.476L155.583 305.913L153.798 304.317L153.517 303.754L153.376 303.097V302.722L153.423 302.393L153.704 301.83L154.033 301.502L154.456 301.126L159.668 297.982L159.855 297.842L159.949 297.419L159.808 297.138L159.527 296.903L159.198 296.856L158.916 296.903L158.071 297.419L157.696 297.607L157.038 297.795L156.709 297.748L156.381 297.607L155.066 296.152L154.644 295.918L154.127 295.683L152.953 295.355L152.437 295.026L152.155 294.698L151.92 293.712L151.779 293.431L151.592 293.196L150.183 291.741L149.901 291.507L149.479 291.319L149.197 291.366L149.009 291.554L148.821 292.164L148.68 292.445L148.446 292.633L145.347 294.51L144.83 294.698L143.844 294.839L142.529 294.745L141.872 294.792L141.496 294.979L141.356 295.214L141.215 295.824L141.027 296.059L140.839 296.246L138.444 297.185L137.881 297.513L137.083 298.264L136.801 298.827L136.003 301.22L135.862 301.502L135.017 302.91L134.735 304.036L134.594 304.458L134.359 305.209L134.219 306.617L134.312 309.62L134.219 310.277L133.608 311.966L133.514 312.342L133.467 312.717L133.514 313.468L133.655 314.172L133.843 314.782L136.754 321.21L137.083 321.445L137.599 321.586L137.975 321.633L138.679 321.539L139.947 321.21H140.604L140.839 321.304L140.98 321.539L141.262 322.055L141.449 322.196L141.731 322.243L143.515 321.867H143.703L143.938 321.961L144.22 322.477L144.455 323.416L144.501 323.744L144.361 324.542L144.22 325.105L144.173 325.95L144.595 328.812L144.642 330.361L144.83 331.018L145.065 331.628L145.253 332.566L145.347 332.801L145.628 332.895L146.849 332.66L147.6 332.566H148.305L148.586 332.66L148.821 332.801L149.009 333.082L149.244 333.645L149.713 333.974L150.324 334.209L150.887 334.396L151.122 334.443L151.545 334.584L151.685 334.866L152.061 336.649L152.155 337.775L152.906 341.06V341.529L152.859 342.092L152.343 343.641L152.249 344.157L152.718 346.597L154.784 352.181L154.831 352.791L154.737 353.823V354.246L154.784 354.527L155.207 355.794L155.348 356.076L156.193 357.155V357.53L155.77 359.032L155.676 360.111L155.723 360.44L156.099 362.223L156.146 362.645L156.052 363.302L155.911 363.631L155.63 363.865L155.019 364.006H153.939L153.657 364.1L153.47 364.334L151.216 370.951L151.31 371.749L151.638 372.171L158.541 373.203L158.916 373.297L159.198 373.438L160.09 374.095L161.076 374.658L161.546 374.893L163.518 376.206L164.128 376.817L164.598 377.661L165.161 378.459L165.678 378.928L166.288 379.304L168.119 380.101L168.777 380.195L170.373 380.101L171.03 380.195L171.406 380.336L172.016 380.805L173.002 381.697L172.533 383.714L172.674 384.09L172.956 384.512L173.284 384.606H173.66L173.942 384.512L175.867 383.621L176.43 383.574H177.181L178.731 383.902L179.294 384.09L179.482 384.465L179.106 385.826L178.59 387.093L178.496 387.562L178.684 388.219L179.06 389.205L180.468 391.692L189.155 402.062L190 403.329L189.436 405.394V406.004L189.53 406.708L190.235 408.303L190.281 408.538L190.61 409.523L191.221 410.837L191.784 411.541L192.394 412.01L193.615 412.433L194.554 412.902L195.728 413.747L198.311 416.327L201.175 416.797L202.818 417.36L206.105 419.049L207.701 420.081L208.828 421.02L210.143 421.865L210.425 422.005L211.645 422.334L212.021 422.521L215.683 425.478L217.468 426.088L217.796 426.135L218.548 426.041L219.252 425.947L219.675 425.9L220.473 426.088L221.365 426.463L222.727 427.308L223.102 427.777L223.196 428.012L223.008 428.106L221.928 428.387L221.459 428.575L220.942 428.903L220.567 429.326L220.332 429.889L219.768 432.939L219.675 433.22L219.393 433.784L219.158 433.971L218.642 434.253L217.609 434.487L217.327 434.581L216.81 434.91L216.2 435.473L215.824 435.895L215.73 436.224L215.683 436.646L215.871 437.256L216.106 437.678L233.573 457.856L234.183 459.311L234.841 462.361L230.85 475.969L229.957 484.416L229.723 485.119L229.347 485.636L228.408 485.729L227.798 485.683L227.328 485.636L221.881 486.386L220.801 486.715L219.628 479.535L218.735 478.081L201.175 468.273L188.497 461.188L175.867 454.102L163.189 447.016L150.512 439.978L137.834 432.892L125.157 425.806L99.8484 411.635L87.1708 404.596L74.4933 397.51L61.8158 390.425L46.0393 381.65L45.9454 380.805L43.7386 370.998L43.3629 369.965L42.4708 368.464L41.0622 367.432L40.7805 367.056L40.1231 364.194L39.2779 363.067L38.9493 362.364L38.7614 361.801L38.7145 361.144L38.5736 360.768L37.5406 358.985L37.3998 358.422L37.4467 357.859L37.7754 357.436L38.7614 356.686L39.8414 356.123L41.0152 355.325L41.6256 355.09L41.9543 355.137L42.4708 355.372L42.7995 355.466L44.9594 355.653L45.3819 355.606L61.2054 351.102L61.8627 350.82L62.2853 350.538L62.5201 350.022L62.8488 348.943L63.5531 347.16L64.2104 346.503L65.0086 345.893L65.7599 345.424L66.4642 344.907L66.8868 344.344V343.641L66.699 342.89L65.5251 339.605L65.3843 338.901L65.3373 338.197L65.7129 337.259L65.8538 335.569L65.1495 329.188L64.9617 328.718L64.5391 328.061L64.4452 327.733L64.3043 326.888L64.2574 326.607L64.4921 324.589L64.3513 323.979L63.4122 322.524L63.2713 322.29L63.0835 321.633L62.7079 320.788L62.567 320.178V319.568L62.661 318.958L62.7079 318.817L63.2244 318.113L63.4122 317.926L64.1165 317.363L64.3513 317.081L64.8678 316.33L65.0086 315.955L65.0556 315.579V315.251L65.1965 314.219L65.2904 311.591L65.3843 311.121L65.5251 310.793L65.7129 310.558L66.2294 310.23L66.7929 309.995L67.0746 309.855L67.638 309.198L68.9997 306.617L69.3753 306.054L69.751 305.819L70.1736 306.194L70.5961 306.945L70.9718 307.414L71.6761 307.884L72.3334 308.447L72.6152 308.588L72.8969 308.681H73.2256L73.5073 308.588L74.0238 308.353L74.3055 308.259L74.5872 308.306L74.8689 308.447L75.2915 308.869L75.6202 309.714L75.9958 310.183L76.2306 310.324L76.5593 310.418L77.2636 310.511L77.5453 310.605L77.7801 310.746L77.9209 311.028L78.1088 311.638L78.2496 311.919L78.4374 312.154L78.86 312.529L79.0948 312.717L79.6582 312.905L80.3625 312.998H80.7382L81.2077 312.858L81.4894 312.576L81.5833 312.248L81.8651 310.324L81.912 309.948L81.8651 309.432L81.7242 309.151L81.3955 308.681L78.7192 306.57L78.5313 306.288L78.4844 305.866V305.162L78.2966 304.834L78.0618 304.599L76.888 304.13L76.4184 303.801L76.2306 303.567L75.9489 301.83L75.7611 301.22L75.5733 300.939L75.2446 300.47L75.0098 300.329L74.4464 300.141H74.0238L73.3195 300.563L73.0377 300.704L72.7091 300.751H72.3804L71.8169 300.516L70.8309 299.906L69.9388 299.578L69.2814 299.437H68.9528H68.5771L68.2954 299.578L68.0606 299.719L67.7789 300.188L67.3563 301.033L67.1685 301.267L66.652 301.549L66.0416 301.736L65.7129 301.83L65.4312 301.783L64.8678 301.502L64.2104 300.986L63.9757 300.892L63.4122 300.845L63.1774 300.704L62.614 300.094L62.0975 299.813H61.3932L61.0645 299.906L60.7828 300L59.9846 300.47L59.7029 300.61L59.0455 300.751L58.6699 300.798L55.8996 300.47H54.3501L53.2232 300.61H52.425L51.7677 300.47L51.2512 300.235L50.7816 299.859L49.9834 299.062L49.7486 298.921L49.1382 298.686L48.387 298.733L49.373 297.279L51.8616 294.745L52.9885 293.384L53.411 292.07L53.8336 291.178L54.1154 290.709L54.3501 290.381L55.0075 289.771L56.7448 288.457L57.3552 287.753L57.543 287.143L58.0595 285.125L58.576 283.952L58.7168 283.389V282.966L58.4821 282.403L58.2003 281.84L57.9186 280.902L57.8717 280.198L58.3881 276.35V275.975L58.3412 275.646L57.7308 273.816L57.543 272.784L56.7448 271.094L56.6039 270.86L56.1813 270.484L53.7397 269.311L53.0354 268.889L52.9415 268.467L53.0824 265.933L53.2702 265.135L53.505 264.619L54.2562 264.196L54.8666 264.009L55.2422 263.962L55.8996 264.056L56.6978 264.478L57.3552 264.619L57.6838 264.572L58.1064 264.337L58.529 263.962L60.0315 261.663L60.2663 261.428L60.7358 261.193H61.0645L61.8158 261.381L62.4731 261.428L62.8957 261.287L63.9287 260.771L64.5391 260.583L65.2434 260.63L65.5721 260.724L66.0886 260.959L66.3703 261.099L67.0746 261.146L67.4033 261.099L67.7789 260.959L68.8589 260.255L69.2814 259.879L69.4693 259.457L69.7979 258.425L70.0327 258.096L70.2675 257.862L71.6291 257.111L71.8639 256.923L72.3334 256.501L72.5213 256.172L72.7091 255.75V255.375L72.6621 254.811L72.5682 254.436L72.3804 254.201L72.0048 253.779L71.8639 253.404L71.9109 251.902L71.8169 250.964L71.6761 250.682L70.5961 249.227L70.3144 248.43L70.2205 248.242L69.9388 247.913L69.3753 247.585L68.2015 247.163L67.5911 247.022L67.3094 246.928L66.7459 246.647L66.2764 246.318L65.666 246.177L62.2384 246.036L60.4072 246.271L59.7968 246.459L59.562 246.647L59.1394 247.022L58.1064 248.43L57.8717 248.617L57.6369 248.711H57.3082L56.3691 248.43H56.0405L55.7118 248.477L54.0684 248.852L52.8476 249.274L50.6408 249.509L49.9834 249.368L49.7017 249.274L49.2322 248.993L48.9504 248.711L48.7157 248.289L48.4809 247.585L48.4339 247.022L48.4809 246.459L48.5748 245.755L48.4809 245.333L48.34 245.051L48.1053 244.91L47.401 244.816L46.7906 244.629L46.5088 244.394L40.4518 238.059L39.3718 236.417L39.2779 235.338L37.5876 233.836L37.0711 233.226L37.3528 232.71L37.4467 231.349L37.8693 230.27L40.7335 229.66L42.7525 227.689L43.9733 226.938L48.8096 226.469L50.6877 225.624L51.439 223.231L50.8286 220.885L49.7956 218.445L49.6078 216.38L53.0824 213.517L54.3501 208.731L55.7118 206.713L56.2752 206.385L57.543 206.15L58.1064 205.869L58.7168 205.306L59.1394 204.649L61.0176 200.707L61.3932 199.393L61.4401 187.943L61.6749 187.192L62.8018 185.832L63.0366 185.175L62.7079 184.518L61.3462 183.251L60.8297 182.641L60.4072 181.608L60.1254 180.388L60.0785 179.168L60.1724 178.042L60.7358 175.414V174.241L54.6788 159.741L54.3032 157.442L54.8197 155.987L55.8996 155.143L57.0734 154.486L57.9656 153.453L58.1064 152.093L57.5899 151.107L55.9466 149.418L55.6179 148.292L55.2892 145.382L54.6788 144.585L54.1623 144.631L53.7867 145.148L53.3171 145.57L52.472 145.523L51.9085 144.96L49.42 139.798L48.5278 134.683L47.354 130.929L47.1192 130.413L46.6966 129.897L46.368 129.85L44.7246 129.052L44.4898 128.771L44.255 128.349L44.0203 128.255L43.8794 128.349L43.6446 128.818L43.2221 129.052L42.5647 129.569L42.236 129.709L41.3909 129.475L40.8744 128.912L39.9822 127.504L38.1041 125.439L37.5406 124.407L35.8034 115.491L35.099 114.224L33.8782 113.379L31.108 112.582L29.8872 111.831L29.2298 110.47L28.6194 103.197L27.8682 100.85L27.4456 100.24L26.8821 99.6304L26.4126 98.9734L26.2717 98.2696L26.4595 97.6126L27.023 96.1579L27.1169 95.5948L26.8821 94.9379L26.1778 93.6709L26.1309 93.0609L26.4595 92.5447L26.976 92.3101L27.5864 92.1224L28.1499 91.8408L29.2768 90.1046L29.7933 87.7584L29.9341 83.0189L29.5585 81.752L28.7133 81.1889L27.5864 80.8604L26.4595 80.2973L24.5814 78.2326L23.5015 77.8103L21.905 78.2795L21.2946 78.8426L21.0129 79.4057L20.7312 79.6873L20.0738 79.2649L19.1817 76.8718L17.867 75.1825L17.82 74.9009L17.2096 74.9478L16.0358 75.2763L14.8619 75.3702L13.8759 75.6517H13.3594L12.6082 75.3702L12.9838 74.9478L14.1576 74.1501L13.4533 73.2585L12.5143 72.9301L12.4203 72.6016L15.2376 71.1469L15.848 70.3492L15.7071 69.5515L14.3924 68.8476H13.2655L10.9178 69.6922L9.97875 69.8799L8.61709 69.3637L8.711 68.3314L9.46226 66.9706L10.0727 65.469L9.93179 64.5305L9.22749 63.8266L8.38232 63.2635L7.67801 62.6065L7.20847 61.668L7.25543 61.058L7.4902 60.4949L7.72496 59.6503L7.91278 58.2894L7.86583 57.5856L7.67801 56.9286L7.20847 56.2247L6.55112 55.6616L6.03463 55.0047L5.94072 54.207L6.03463 52.3769L5.28337 51.0161L3.96866 49.9368L2.27832 49.1391L14.2046 37.267L20.1208 31.3545L26.1309 25.4419L34.8643 20.8902L42.9403 16.8546L48.6687 14.743L77.1227 3.99719L78.1557 5.96804L86.9361 1.13477L88.2508 2.68329L85.997 7.28194H91.8662L96.3268 8.59584L93.4627 15.9161L98.6745 25.4419L103.98 27.272L104.309 25.4419L104.638 22.9549L106.281 21.8287L108.582 21.9695L108.723 25.4419L116.987 25.4889L117.08 26.4743L117.879 27.882L117.926 29.0082L117.785 30.2283L117.738 31.2137L118.16 32.0584L119.193 32.7153L121.494 34.7331L122.762 35.5308L124.077 35.8593H124.311Z" fill="#009649" stroke="white" stroke-width="2" stroke-linejoin="round"></path>
<path class="region" data-country-region="West Region" d="M188.45 371.279L186.948 372.781L186.619 373.156L185.915 373.766L184.835 374.939L184.6 375.08L184.365 375.174H183.849L180.797 374.611H180.092L179.153 374.376L178.872 374.517L178.637 374.752L178.543 375.69L178.402 376.112L178.12 376.535L175.397 378.318L175.209 378.693L175.35 379.022L176.242 380.148L176.054 380.617L175.632 381.087L175.162 381.65L174.599 381.884L173.002 381.697L172.016 380.805L171.406 380.336L171.03 380.195L170.373 380.101L168.777 380.195L168.119 380.101L166.288 379.303L165.678 378.928L165.161 378.459L164.598 377.661L164.128 376.816L163.518 376.206L161.546 374.892L163.142 373.203L164.128 371.748L164.457 371.373L164.879 371.185L165.349 371.045L166.053 370.716L166.429 370.388L168.307 368.041L168.917 367.572L169.387 367.338L169.716 367.384L172.11 368.182H172.392L172.768 368.135L173.331 367.901L173.754 367.807L174.787 367.666L175.35 367.291L176.993 365.554L177.275 365.507L177.557 365.554L178.12 365.883L178.731 366.071L178.919 366.164L179.012 366.352V366.634L178.449 367.619L178.355 368.229L178.449 368.511L178.637 368.698L179.67 369.355L180.656 369.778L181.078 369.918L181.971 370.059H182.816L183.332 370.012L183.708 369.918L184.506 369.637L186.196 369.308L186.995 369.778L187.558 370.247L188.45 371.279Z" fill="#009649" stroke="white" stroke-width="2" stroke-linejoin="round"></path>
<path class="region" data-country-region="West Region" d="M185.775 297.138L187.136 298.546L199.344 307.696L199.767 308.306L206.012 323.51L206.199 324.448V328.953L206.246 329.469L206.434 330.032L208.359 332.238L208.829 333.129V334.631L208.782 335.1L208.923 339.323L209.017 340.027L209.345 341.013L209.721 341.717L209.627 341.951L209.017 342.327L201.222 345.283L200.753 345.33L200.377 345.283L200.142 345.142L198.969 344.297L198.17 343.453L197.701 343.124L197.184 342.984L196.715 343.03L196.386 343.124L195.917 343.359L195.776 343.453L195.588 343.781L195.447 344.297L194.884 348.568V349.178L195.024 349.6L197.184 351.43L197.56 351.852L197.701 352.134L198.311 354.386L198.875 355.419L199.25 355.888L199.532 355.982L199.814 356.029L200.189 355.982L200.753 355.747L201.739 355.137L202.021 355.043H202.255L202.631 355.419L202.725 355.7V356.123L202.631 356.545L202.396 357.108L202.161 358.422V359.595L200.565 361.847L199.908 362.504L199.626 362.551L197.748 361.284L197.184 361.19L196.527 361.284L196.245 361.425L195.729 361.707L195.353 361.847L194.79 361.941H194.085L193.428 361.847L193.099 361.894L192.818 361.988L191.691 362.739L191.315 363.114L191.033 363.49L190.893 363.959L190.939 364.71L191.127 365.554V365.977L190.47 367.948L189.249 370.435L188.451 371.279L187.559 370.247L186.995 369.778L186.197 369.308L184.507 369.637L183.709 369.918L183.333 370.012L182.816 370.059H181.971L181.079 369.918L180.657 369.778L179.671 369.355L178.638 368.698L178.45 368.511L178.356 368.229L178.45 367.619L179.013 366.634V366.352L178.919 366.164L178.732 366.071L178.121 365.883L177.558 365.554L177.276 365.508L176.994 365.554L175.351 367.291L174.787 367.666L173.754 367.807L173.332 367.901L172.768 368.135L172.393 368.182H172.111L169.716 367.385L169.388 367.338L168.918 367.572L168.308 368.041L166.43 370.388L166.054 370.716L165.35 371.045L164.88 371.185L164.458 371.373L164.129 371.749L163.143 373.203L161.546 374.893L161.077 374.658L160.091 374.095L159.199 373.438L158.917 373.297L158.541 373.203L151.639 372.171L151.31 371.749L151.217 370.951L153.47 364.334L153.658 364.1L153.94 364.006H155.02L155.63 363.865L155.912 363.631L156.053 363.302L156.147 362.645L156.1 362.223L155.724 360.44L155.677 360.111L155.771 359.032L156.194 357.53V357.155L155.349 356.076L155.208 355.794L154.785 354.527L154.738 354.246V353.823L154.832 352.791L154.785 352.181L152.719 346.597L152.25 344.157L152.343 343.64L152.86 342.092L152.907 341.529V341.06L152.156 337.775L152.062 336.649L151.686 334.865L151.545 334.584L151.123 334.443L150.888 334.396L150.324 334.209L149.714 333.974L149.245 333.645L149.01 333.082L148.822 332.801L148.587 332.66L148.305 332.566H147.601L146.85 332.66L145.629 332.895L145.347 332.801L145.253 332.566L145.066 331.628L144.831 331.018L144.643 330.361L144.596 328.812L144.173 325.95L144.22 325.105L144.361 324.542L144.502 323.744L144.455 323.416L144.22 322.477L143.939 321.961L143.704 321.867H143.516L141.732 322.243L141.45 322.196L141.262 322.055L140.981 321.539L140.84 321.304L140.605 321.21H139.948L138.68 321.539L137.976 321.633L137.6 321.586L137.083 321.445L136.755 321.21L133.844 314.782L133.656 314.172L133.515 313.468L133.468 312.717L133.515 312.341L133.609 311.966L134.219 310.277L134.313 309.62L134.219 306.617L134.36 305.209L134.595 304.458L134.736 304.036L135.018 302.91L135.863 301.502L136.004 301.22L136.802 298.827L137.083 298.264L137.882 297.513L138.445 297.185L140.84 296.246L141.028 296.059L141.215 295.824L141.356 295.214L141.497 294.979L141.873 294.792L142.53 294.745L143.845 294.838L144.831 294.698L145.347 294.51L148.446 292.633L148.681 292.445L148.822 292.164L149.01 291.554L149.198 291.366L149.479 291.319L149.902 291.507L150.184 291.741L151.592 293.196L151.78 293.431L151.921 293.712L152.156 294.698L152.437 295.026L152.954 295.355L154.128 295.683L154.644 295.918L155.067 296.152L156.381 297.607L156.71 297.748L157.039 297.795L157.696 297.607L158.072 297.419L158.917 296.903L159.199 296.856L159.527 296.903L159.809 297.138L159.95 297.419L159.856 297.842L159.668 297.982L154.456 301.126L154.034 301.502L153.705 301.83L153.423 302.393L153.376 302.722V303.097L153.517 303.754L153.799 304.317L155.583 305.913L156.381 306.476L157.368 306.617L160.044 306.804L161.124 307.133L163.847 306.71L168.12 305.678L168.824 305.584L169.341 305.678L172.111 306.664L172.393 306.851L172.252 307.227V307.931L172.064 309.151L171.923 309.526L171.641 310.042L171.454 310.23L170.984 310.464L170.843 310.605V310.84L171.172 311.731L171.313 312.013L173.66 314.922L174.318 315.485L175.022 315.955L175.21 316.049L175.633 316.095L176.008 315.908L176.572 315.392L176.806 315.251H177.088L177.839 315.673L178.121 315.767H178.497L178.872 315.626L179.342 315.157L180.046 314.265L180.234 313.89L180.751 313.327L181.69 312.388L182.065 311.966L182.206 311.403L182.394 310.605L182.582 308.259L182.535 307.743L181.126 305.49L180.938 304.88L180.891 304.177L181.079 303.707L181.408 303.191L182.957 301.736L183.709 300.704L185.775 297.138Z" fill="#009649" stroke="white" stroke-width="2" stroke-linejoin="round"></path>
<path class="region" data-country-region="East Region" d="M448.387 397.182L416.928 399.2L416.553 399.247L370.913 419.659L367.674 420.926L367.439 419.8V419.471L367.674 418.861L367.392 417.97L366.594 416.187L365.842 412.949L365.373 412.151L365.983 411.494L366.218 411.306L365.842 410.509L365.373 407.693L365.091 407.271L364.481 406.614L364.199 406.051L364.152 405.582L364.481 404.972L364.575 404.455L364.152 401.875L364.199 400.842L364.34 400.655L364.575 400.42L364.856 400.091L364.997 399.622L364.903 399.575L364.575 398.027L364.434 394.226L363.964 393.334L363.166 392.583L362.697 391.88L360.255 386.765L359.926 386.249L359.738 385.639L359.316 381.838L358.752 379.773L358.377 377.474L358.095 372.5L357.391 370.2L356.076 368.652L355.841 367.432L355.184 366.212L354.151 365.367L352.836 365.226L353.306 364.194L353.634 363.678L354.057 363.208L353.212 362.364L351.099 358.187L350.723 356.498L350.395 355.513L349.643 354.293V353.073V352.697L348.704 350.022L348.423 349.459L348.61 349.037L348.704 348.662L348.798 347.817H348.423L347.953 347.864L347.765 347.301L347.624 345.424L346.873 343.453L346.732 342.608L347.202 341.764L346.685 341.201L346.591 340.262L346.685 339.37L346.638 338.995L344.807 336.32L344.713 335.241L344.385 334.443L343.868 333.786L343.117 333.27L342.178 332.895L340.628 332.754L339.971 332.472L339.736 332.097L338.234 330.314L337.905 330.267L337.858 329.375L337.623 328.718L337.201 328.249L336.496 328.062L336.074 327.17L333.82 318.723L333.022 317.316L332.036 316.706L331.848 316.471L331.237 315.392L331.003 315.11L330.486 314.922L329.594 315.016L328.937 314.688L328.279 313.046L327.951 312.576L327.152 311.966L326.589 311.028L325.791 310.371L324.899 309.761L324.1 309.432L321.988 308.963L321.659 308.822L321.518 308.541L321.142 308.212L320.72 307.931L318.936 307.649L318.278 307.227L317.762 306.664L316.823 306.194L315.555 306.148L314.381 306.382L313.301 306.523L312.221 306.007L307.15 305.819L304.051 301.971L303.3 301.361L303.065 301.22L302.549 300.657L302.079 300.517H300.295L298.417 300.845L297.478 301.173L296.82 301.549L296.398 302.206L296.022 302.957L295.553 303.52L294.801 303.801L283.72 302.159L283.204 289.911L283.298 289.489L283.72 288.644L283.861 288.269L283.955 287.847L283.814 285.594L280.574 271.892L280.386 271.564L279.26 270.766L279.025 270.578L278.931 270.297L278.978 269.968L279.26 269.546L279.682 269.218L280.715 268.654L281.279 268.467L284.894 267.997L285.457 267.763L285.88 267.387L286.678 266.12L287.43 264.525L287.758 264.103L288.463 263.727L308.089 256.36L308.324 256.079L308.465 255.844L308.653 254.952L308.794 254.436L309.451 253.169L311.094 250.776L311.892 249.884L313.207 248.852L313.865 248.242L314.616 247.35L316.541 244.066L316.87 243.643L323.866 240.969L324.523 240.64L325.087 240.265V239.749L324.993 239.373L315.226 213.236L315.132 212.579L315.461 212.204L316.071 211.828L325.321 208.121V207.84L325.133 207.746L324.054 207.183L323.208 206.432L322.974 206.244L322.363 206.056L321.894 205.775L320.532 204.226L320.016 203.147L319.687 202.678L319.264 202.256L318.842 201.88L315.226 199.815L314.804 199.487L314.005 198.689L313.724 198.502L312.925 198.126L311.47 197.61L310.953 197.281L310.108 196.484L309.78 195.968L309.686 195.733L309.075 193.058L308.512 191.932L308.183 191.463L307.573 190.853L307.244 190.337L306.728 189.257L306.117 188.272L305.929 188.037L305.037 187.24L303.159 185.926L302.737 185.503L300.295 181.796L298.511 178.324L297.665 175.837L297.384 175.274L296.539 174.523L296.398 174.288L296.069 173.397L295.74 172.88L295.365 172.458L295.271 171.848V170.957L295.506 169.033L295.412 167.578L295.318 167.296L294.989 165.185L294.66 164.246L293.956 160.633L293.768 157.395L292.923 153.735L292.078 152.046L291.796 151.107L291.608 150.779V150.497L291.749 150.263V149.887L291.937 149.559L292.641 149.183L295.787 148.198L297.008 146.415L304.333 129.991L304.756 129.756L304.99 129.475L305.178 128.255L305.131 127.41L305.225 127.035L305.366 126.565L305.835 126.049L306.117 125.768L306.962 125.298L308.559 124.923L309.122 124.688L309.592 124.36L310.484 123.375L310.906 123.046L311.47 122.811L314.475 121.826L314.944 121.544L315.367 121.169L316.024 120.184L316.306 119.855L317.621 118.917L317.809 118.729L317.95 118.166L318.09 117.227L318.043 109.438L317.621 106.059L317.057 104.041L316.212 93.061V92.1694L316.588 91.9348L317.386 91.9817L317.621 92.5917L317.104 93.671L324.476 93.9056L326.26 94.5157L326.777 95.1726L327.106 95.9703L327.528 96.7681L328.467 97.3781L330.392 97.2842L331.378 95.7357L332.646 91.794L334.196 89.9639L338.046 86.4446L342.694 82.1744L343.821 80.6728L344.807 78.8896L346.451 74.5256L347.624 71.4286L348.798 69.9739L353.869 67.5338L358.94 65.0467L364.669 62.2782L367.345 60.9643L367.58 60.6358L367.533 60.2604L367.627 60.0258L368.19 60.0727L368.519 60.2135H368.707L374.67 58.1018L379.318 56.5064L379.647 56.2248L379.976 55.2394L380.351 54.9579L387.958 52.0016L399.086 47.7314L402.842 45.2444L404.11 46.9806L407.678 49.4207L409.134 51.0631L410.12 52.8932L410.73 53.5032L411.81 54.0194L414.627 55.0048L415.567 55.5679L417.116 56.9756L420.919 62.2782L423.502 64.3429L426.366 65.516L429.465 65.8445L435.475 65.516L442.095 65.1406L445.1 64.2959L446.65 64.2021L451.392 63.029L452.331 63.1228L453.881 63.7798L454.726 63.9205L455.571 63.7328L458.06 62.2782L460.877 63.2167L463.459 64.5775L466.089 65.0937L469 63.4513L464.07 70.537L459.093 77.6696L454.163 84.7553L446.133 96.205L436.977 109.344L432.141 114.13L427.305 118.964L417.586 128.536L415.567 130.554L414.721 132.196L414.815 142.989L414.909 150.92V298.452L414.956 303.285L415.003 307.274L415.05 311.262L415.426 336.883L415.52 345.189L415.567 349.647L417.069 351.618L418.572 353.542L420.074 355.513L421.577 357.437L424.488 361.191L427.54 365.132L430.78 369.309L433.456 372.781L439.419 380.477L442.377 384.325L447.636 391.082L448.34 392.396L448.575 393.522L448.387 397.182Z" fill="#009649" stroke="white" stroke-width="2" stroke-linejoin="round"></path>
<path class="region" data-country-region="East Region" d="M426.365 421.677L425.943 422.944L424.863 423.131L424.065 421.864L424.112 422.475L424.018 423.131L423.783 423.648L423.22 423.929L422.938 424.211L422.609 424.305L422.187 424.164L421.858 423.882L421.576 423.507L420.825 423.601L419.745 423.976L417.585 425.102L417.022 424.727L416.505 424.821L416.13 425.29L415.942 426.088L416.27 426.557L416.881 426.932L417.35 427.355L417.116 427.965H416.411L415.942 427.589L415.66 427.026L415.566 426.322L414.251 426.604V425.243L414.956 423.366L415.754 422.052L416.834 421.442L418.242 421.067L419.416 420.41L419.933 419.237L420.637 418.439L422.233 418.533L424.018 419.143L425.239 419.847L426.365 421.677ZM283.72 302.159L294.801 303.801L295.552 303.52L296.022 302.956L296.397 302.206L296.82 301.549L297.477 301.173L298.416 300.845L300.294 300.516H302.079L302.548 300.657L303.065 301.22L303.299 301.361L304.051 301.971L307.15 305.819L312.221 306.007L313.301 306.523L314.381 306.382L315.554 306.147L316.822 306.194L317.761 306.664L318.278 307.227L318.935 307.649L320.719 307.931L321.142 308.212L321.518 308.541L321.658 308.822L321.987 308.963L324.1 309.432L324.898 309.761L325.79 310.371L326.589 311.028L327.152 311.966L327.95 312.576L328.279 313.045L328.936 314.688L329.594 315.016L330.486 314.922L331.002 315.11L331.237 315.392L331.847 316.471L332.035 316.705L333.021 317.316L333.819 318.723L336.073 327.17L336.496 328.061L337.2 328.249L337.623 328.718L337.857 329.375L337.904 330.267L338.233 330.314L339.736 332.097L339.97 332.472L340.628 332.754L342.177 332.895L343.116 333.27L343.868 333.786L344.384 334.443L344.713 335.241L344.807 336.32L346.638 338.995L346.685 339.37L346.591 340.262L346.685 341.2L347.201 341.763L346.732 342.608L346.873 343.453L347.624 345.424L347.765 347.301L347.953 347.864L348.422 347.817H348.798L348.704 348.661L348.61 349.037L348.422 349.459L348.704 350.022L349.643 352.697V353.072V354.292L350.394 355.512L350.723 356.498L351.098 358.187L353.211 362.364L354.057 363.208L353.634 363.677L353.305 364.194L352.836 365.226L354.15 365.367L355.183 366.211L355.841 367.431L356.076 368.652L357.39 370.2L358.095 372.499L358.376 377.473L358.752 379.773L359.315 381.837L359.738 385.638L359.926 386.248L360.254 386.765L362.696 391.879L363.166 392.583L363.964 393.334L364.433 394.226L364.574 398.027L364.903 399.575L364.997 399.622L364.856 400.091L364.574 400.42L364.339 400.654L364.199 400.842L364.152 401.874L364.574 404.455L364.48 404.971L364.152 405.582L364.199 406.051L364.48 406.614L365.091 407.271L365.372 407.693L365.842 410.509L366.218 411.306L365.983 411.494L365.372 412.151L365.842 412.949L366.593 416.187L367.391 417.97L367.673 418.861L367.438 419.471V419.8L367.673 420.926L370.913 419.659L416.552 399.247L416.928 399.2L448.387 397.182L448.34 398.402L443.832 403.001L441.672 406.285L441.438 407.318L440.123 408.069L436.789 411.119L434.676 413.7L433.455 414.45L432.563 413.324L431.436 413.793L430.403 413.7L429.746 412.996L429.699 411.729L428.525 412.949L428.291 414.356L427.727 415.717L426.037 415.577L423.736 415.013H423.22L422.468 415.436L421.294 416.75L419.698 417.407L419.088 418.204L418.477 418.861L417.538 418.814L416.74 418.392L416.176 418.017L415.801 417.454L415.566 416.609L415.613 415.717L416.176 414.075L416.13 413.371L415.989 412.573L416.223 411.823L417.116 410.509L415.05 412.104L414.815 419.049L413.547 420.644L412.42 419.8L411.34 416.187L410.26 415.342L409.65 415.013L409.133 414.356L408.57 414.169L407.866 415.013L408.241 415.858L408.429 416.656L408.241 417.407L409.227 416.984L409.979 417.172L410.495 417.829L410.683 418.814L410.542 419.19L409.979 419.518L409.885 419.847L410.072 420.41L410.918 420.644L411.105 421.067L411.199 425.337L411.575 427.636L412.326 429.138L412.843 429.279L413.5 429.185L414.204 429.232L414.956 429.748L415.519 430.593L415.613 431.249L414.956 432.798L413.5 434.581L412.185 434.816L411.998 434.159L413.923 433.22L412.937 432.845L412.091 432.282L410.683 430.78L410.448 430.311L410.542 430.029L410.495 429.795L409.932 429.654L409.556 429.795L408.664 429.983L407.208 430.78L405.894 432.376L404.626 433.455L403.405 432.798L403.452 433.314L403.593 433.83L403.922 434.253L404.438 434.44L404.72 434.628L404.579 435.003L404.203 435.614L404.579 436.505L406.222 437.631L406.645 438.429L405.941 439.79L404.344 441.385L402.466 442.746L399.743 443.872L396.127 448.142L394.108 448.94L392.277 448.518L390.54 447.767L388.662 447.298L386.736 447.532L380.773 449.409L378.285 451.146L376.829 451.615L375.092 452.694L372.134 455.087L371.429 455.838L370.913 456.636L369.833 459.123L368.049 461.328L367.814 462.361L367.908 462.783L368.8 463.956L368.894 464.332L368.659 465.27L368.565 465.786L367.485 469.54L367.344 471.464L368.565 472.45L368.284 473.998L368.988 474.655L370.209 474.561L371.429 473.623L371.476 474.28L371.007 474.984L368.941 476.954L367.72 478.597L367.391 479.301L367.157 482.304L366.781 483.336L364.762 486.199L364.715 486.996L365.372 489.155V490.234L364.997 491.173L364.48 492.017L363.776 492.768L362.931 493.284L360.114 494.598L359.315 495.114L357.907 496.804L357.109 497.414L356.076 497.601L356.498 496.569L357.155 494.317L357.249 493.519L356.216 493.754L355.747 494.364L355.653 495.114V495.959L355.606 496.475L355.23 497.93L355.371 498.258L355.559 498.587L355.7 498.962L354.667 500.652L353.446 503.796L351.85 506.33L351.239 509.755L350.582 511.116L349.831 511.773L349.314 511.914L348.046 511.351L347.765 511.163L346.967 510.271L346.685 510.224L345.135 510.084L345.37 509.567L345.417 509.333L344.807 508.863L344.337 509.943L344.525 510.834L345.229 511.351H346.403L345.699 512.195L345.934 512.852L346.779 513.134L348.845 512.289L349.502 512.805L349.878 513.697L350.018 514.588L349.878 516.418L345.135 529.557L343.633 531.012L341.942 531.294L340.722 530.402L340.769 528.384L339.454 529.135L339.078 529.557L339.266 530.167L339.689 530.777L339.876 531.341L340.158 531.857L340.769 532.42L342.036 532.326L342.694 532.608L342.553 533.64L341.285 535.001L341.097 535.423L340.956 535.939L340.534 536.69L340.017 537.347L339.501 537.629L338.937 537.3L338.515 535.939L338.045 535.658L337.67 534.907L337.811 533.546L337.717 532.748L336.684 533.64L335.134 532.795L334.477 532.701L333.819 533.218L334.43 533.781L335.087 534.062L336.684 534.438L336.214 535.47L335.698 535.986L333.819 536.408H333.209L332.552 536.362L332.035 536.408L331.8 536.831L331.847 538.098L331.941 538.661L332.223 539.271L333.068 538.098L335.04 538.004L337.106 538.567L338.233 539.693L337.998 541.101L335.087 546.169L333.162 551.002L331.237 558.276L330.58 559.918L330.063 559.167L329.547 559.214L329.077 559.73L328.608 560.387L328.514 560.716L328.561 561.466L328.373 561.795L327.528 562.546L327.34 562.827L325.321 568.881L324.945 567.801L325.133 566.065L324.898 565.22L324.147 565.83L323.724 566.628L323.396 567.567L322.879 568.458L322.597 568.411L322.175 568.224L321.799 568.271L321.658 569.068L321.752 569.584L322.691 570.851L322.081 571.696L320.109 571.978L317.855 571.415L316.447 569.678L316.4 570.007L316.071 570.898L314.334 570.382L313.066 571.602L311.986 573.292L310.812 574.136L310.155 574.324L309.967 574.559L304.943 570.945L299.919 567.285L289.824 560.012L279.776 552.738L274.752 549.125L269.681 545.465L264.656 541.852L259.632 538.192L254.561 534.578L249.537 530.965L239.442 523.692L234.418 520.032L229.394 516.418L226.201 514.119L225.356 513.04L224.793 511.82L223.76 508.207L223.29 507.268L222.492 506.517L221.365 506.001L220.144 505.673L218.876 505.532L216.012 505.72L215.871 504.875L216.341 503.749L216.576 502.763L216.294 502.294L215.308 502.153L214.885 501.731L214.792 501.121L214.932 500.417L215.214 499.76L215.496 499.244L216.388 498.305L217.703 497.226L219.111 496.475L220.191 496.428L220.144 495.349L220.332 494.504L220.942 494.035L221.975 493.941L220.802 486.715L221.882 486.386L227.328 485.636L227.798 485.683L228.408 485.729L229.347 485.636L229.723 485.119L229.958 484.416L230.85 475.969L234.841 462.361L236.39 462.83L237.799 462.361L244.936 458.982L246.391 458.044L246.908 457.387L247.331 457.152L247.659 457.058L248.223 457.293L248.645 457.668L249.678 459.029L249.866 459.264L251.697 460.625L253.669 461.469L253.998 461.563L254.796 461.892L255.078 462.079L256.111 463.018L258.693 466.912L259.867 469.353L260.149 470.291L260.478 470.76L260.9 471.136L261.182 471.277L263.717 472.309L263.952 472.45L264.797 473.2L265.549 474.092L265.924 474.467L266.206 474.514L266.535 474.092L267.051 473.81L267.662 473.67L268.413 473.623L269.258 473.67H269.446L269.915 473.294L270.244 473.06L270.854 473.107L271.512 473.247L272.357 473.576L273.343 474.186L274.188 474.514L274.939 475.031L275.503 475.641L275.738 475.781L276.019 475.922L276.677 476.063L277.24 476.297L278.179 476.954L278.461 477.095L278.743 477.142L279.071 477.095L280.809 476.861H281.184L281.842 477.001L283.579 477.658L286.443 477.893L286.678 478.081L286.772 478.315L286.631 478.785L286.584 479.254L286.725 479.348H287.147L288.039 479.066L288.791 478.644L289.072 478.55L290.105 478.456L290.669 478.221L291.561 477.518L291.796 477.33L292.453 477.189L292.782 477.142L293.862 477.283L294.519 477.236L294.801 477.142L295.458 477.001H295.787L296.632 477.33L296.914 477.424L297.242 477.377L297.477 477.236L298.088 476.626L298.51 476.251L298.886 476.063H299.121L299.402 476.157L299.872 476.438L300.482 476.626L301.093 476.673L301.187 476.438L276.864 440.588L276.818 440.353L277.099 440.259L277.991 440.494L278.93 440.634L279.635 440.681L280.386 440.588L280.996 440.353L282.029 439.743L282.264 439.602L283.391 437.913L283.579 437.678L284.095 437.397L284.33 437.256L285.316 437.021L285.88 436.787L286.49 436.27L286.725 435.989L297.524 414.45L297.759 413.183L297.853 411.588L296.35 402.391V401.593L296.491 400.795L297.102 399.997L298.416 398.684L298.651 398.167L298.745 397.839L298.51 365.93L298.088 364.616L291.091 349.318L264.234 303.05V302.3L264.797 302.393H265.361L265.877 302.159L267.192 302.722L268.976 301.924L271.934 299.719H273.578L277.052 300.845L278.461 300.516L279.259 300.939L280.198 300.986L280.949 300.845L281.278 300.751L281.56 301.22L282.264 301.643L283.72 302.159Z" fill="#009649" stroke="white" stroke-width="2" stroke-linejoin="round"></path>
<path class="region" data-country-region="East Region" d="M316.212 92.1694V93.061L317.057 104.041L317.62 106.059L318.043 109.438L318.09 117.227L317.949 118.166L317.808 118.729L317.62 118.917L316.306 119.855L316.024 120.184L315.367 121.169L314.944 121.544L314.475 121.826L311.469 122.811L310.906 123.046L310.483 123.375L309.591 124.36L309.122 124.688L308.558 124.923L306.962 125.298L306.117 125.768L305.835 126.049L305.365 126.565L305.225 127.035L305.131 127.41L305.178 128.255L304.99 129.475L304.755 129.756L304.332 129.991L297.008 146.415L295.787 148.198L292.641 149.183L291.937 149.559L291.749 149.887V150.263L291.608 150.497V150.779L291.796 151.107L292.078 152.046L292.923 153.735L293.768 157.395L293.956 160.633L294.66 164.246L294.989 165.185L295.317 167.296L295.411 167.578L295.505 169.033L295.27 170.956V171.848L295.364 172.458L295.74 172.88L296.069 173.397L296.397 174.288L296.538 174.523L297.383 175.274L297.665 175.837L298.51 178.324L300.294 181.796L302.736 185.503L303.159 185.926L305.037 187.239L305.929 188.037L306.117 188.272L306.727 189.257L307.244 190.337L307.572 190.853L308.183 191.463L308.511 191.932L309.075 193.058L309.685 195.733L309.779 195.968L310.108 196.484L310.953 197.281L311.469 197.61L312.925 198.126L313.723 198.501L314.005 198.689L314.803 199.487L315.226 199.815L318.841 201.88L319.264 202.255L319.686 202.678L320.015 203.147L320.532 204.226L321.893 205.775L322.363 206.056L322.973 206.244L323.208 206.432L324.053 207.183L325.133 207.746L325.321 207.84V208.121L316.071 211.828L315.461 212.204L315.132 212.579L315.226 213.236L324.992 239.373L325.086 239.749V240.265L324.523 240.64L323.865 240.969L316.869 243.643L316.54 244.066L314.615 247.35L313.864 248.242L313.207 248.852L311.892 249.884L311.094 250.776L309.45 253.169L308.793 254.436L308.652 254.952L308.464 255.844L308.324 256.079L308.089 256.36L288.462 263.727L287.758 264.103L287.429 264.525L286.678 266.12L285.88 267.387L285.457 267.763L284.894 267.997L281.278 268.467L280.715 268.654L279.682 269.218L279.259 269.546L278.977 269.968L278.93 270.297L279.024 270.578L279.259 270.766L280.386 271.564L280.574 271.892L283.814 285.594L283.955 287.847L283.861 288.269L283.72 288.644L283.297 289.489L283.203 289.911L283.72 302.159L282.264 301.643L281.56 301.22L281.278 300.751L280.949 300.845L280.198 300.986L279.259 300.939L278.461 300.517L277.052 300.845L273.578 299.719H271.934L268.976 301.924L267.192 302.722L265.877 302.159L265.361 302.393H264.797L264.234 302.3V303.05L291.091 349.319L298.088 364.616L298.51 365.93L298.745 397.839L298.651 398.167L298.416 398.684L297.102 399.998L296.491 400.795L296.35 401.593V402.391L297.853 411.588L297.759 413.183L297.524 414.45L286.725 435.989L286.49 436.271L285.88 436.787L285.316 437.021L284.33 437.256L284.095 437.397L283.579 437.678L283.391 437.913L282.264 439.602L282.029 439.743L280.996 440.353L280.386 440.588L279.635 440.682L278.93 440.635L277.991 440.494L277.099 440.259L276.818 440.353L276.864 440.588L301.187 476.438L301.093 476.673L300.482 476.626L299.872 476.438L299.402 476.157L299.121 476.063H298.886L298.51 476.251L298.088 476.626L297.477 477.236L297.242 477.377L296.914 477.424L296.632 477.33L295.787 477.002H295.458L294.801 477.142L294.519 477.236L293.862 477.283L292.782 477.142L292.453 477.189L291.796 477.33L291.561 477.518L290.669 478.222L290.105 478.456L289.072 478.55L288.791 478.644L288.039 479.066L287.147 479.348H286.725L286.584 479.254L286.631 478.785L286.772 478.315L286.678 478.081L286.443 477.893L283.579 477.658L281.842 477.002L281.184 476.861H280.809L279.071 477.095L278.743 477.142L278.461 477.095L278.179 476.955L277.24 476.298L276.677 476.063L276.019 475.922L275.738 475.781L275.503 475.641L274.939 475.031L274.188 474.514L273.343 474.186L272.357 473.576L271.512 473.248L270.854 473.107L270.244 473.06L269.915 473.294L269.446 473.67H269.258L268.413 473.623L267.662 473.67L267.051 473.811L266.535 474.092L266.206 474.514L265.924 474.468L265.549 474.092L264.797 473.201L263.952 472.45L263.717 472.309L261.182 471.277L260.9 471.136L260.478 470.76L260.149 470.291L259.867 469.353L258.693 466.913L256.111 463.018L255.078 462.079L254.796 461.892L253.998 461.563L253.669 461.469L251.697 460.625L249.866 459.264L249.678 459.029L248.645 457.668L248.223 457.293L247.659 457.058L247.331 457.152L246.908 457.387L246.391 458.044L244.936 458.982L237.799 462.361L236.39 462.83L234.841 462.361L234.183 459.311L233.573 457.856L216.106 437.678L215.871 437.256L215.684 436.646L215.731 436.224L215.825 435.895L216.2 435.473L216.811 434.91L217.327 434.581L217.609 434.487L218.642 434.253L219.158 433.971L219.393 433.784L219.675 433.22L219.769 432.939L220.332 429.889L220.567 429.326L220.942 428.903L221.459 428.575L221.929 428.387L223.008 428.106L223.196 428.012L223.102 427.777L222.727 427.308L221.365 426.463L220.473 426.088L219.675 425.9L219.252 425.947L218.548 426.041L217.797 426.135L217.468 426.088L215.684 425.478L212.021 422.522L211.646 422.334L210.425 422.005L210.143 421.865L208.828 421.02L207.702 420.081L206.105 419.049L202.818 417.36L201.175 416.797L198.311 416.327L195.728 413.747L194.554 412.902L193.615 412.433L192.395 412.01L191.784 411.541L191.221 410.837L190.61 409.523L190.282 408.538L190.235 408.303L189.53 406.708L189.436 406.004V405.394L190 403.329L189.155 402.062L180.468 391.692L179.06 389.205L178.684 388.219L178.496 387.562L178.59 387.093L179.107 385.826L179.482 384.465L179.294 384.09L178.731 383.902L177.182 383.574H176.43L175.867 383.621L173.942 384.512L173.66 384.606H173.284L172.956 384.512L172.674 384.09L172.533 383.715L173.003 381.697L174.599 381.885L175.163 381.65L175.632 381.087L176.055 380.618L176.242 380.148L175.35 379.022L175.209 378.694L175.397 378.318L178.121 376.535L178.402 376.113L178.543 375.69L178.637 374.752L178.872 374.517L179.154 374.376L180.093 374.611H180.797L183.849 375.174H184.365L184.6 375.08L184.835 374.94L185.915 373.766L186.619 373.156L186.948 372.781L188.45 371.279L189.249 370.435L190.469 367.948L191.127 365.977V365.555L190.939 364.71L190.892 363.959L191.033 363.49L191.315 363.115L191.69 362.739L192.817 361.988L193.099 361.894L193.428 361.848L194.085 361.941H194.789L195.353 361.848L195.728 361.707L196.245 361.425L196.527 361.284L197.184 361.191L197.747 361.284L199.625 362.551L199.907 362.504L200.565 361.848L202.161 359.595V358.422L202.396 357.108L202.631 356.545L202.724 356.123V355.7L202.631 355.419L202.255 355.043H202.02L201.738 355.137L200.752 355.747L200.189 355.982L199.813 356.029L199.532 355.982L199.25 355.888L198.874 355.419L198.311 354.386L197.7 352.134L197.559 351.853L197.184 351.43L195.024 349.6L194.883 349.178V348.568L195.447 344.298L195.587 343.781L195.775 343.453L195.916 343.359L196.386 343.124L196.714 343.031L197.184 342.984L197.7 343.124L198.17 343.453L198.968 344.298L200.142 345.142L200.377 345.283L200.752 345.33L201.222 345.283L209.016 342.327L209.627 341.951L209.721 341.717L209.345 341.013L209.016 340.027L208.922 339.324L208.781 335.1L208.828 334.631V333.129L208.359 332.238L206.434 330.032L206.246 329.469L206.199 328.953V324.448L206.011 323.51L199.766 308.306L199.344 307.696L187.136 298.546L185.774 297.138L187.511 296.293L193.146 294.275L195.259 292.915L195.681 292.539L201.832 286.204L201.973 285.876L202.02 285.547L202.255 282.967L202.302 282.638L202.49 282.263L202.724 281.84L203.523 280.808L203.757 280.48L203.945 279.823L204.039 278.368L203.945 277.664L203.241 275.928L203.1 275.646L202.396 274.708L202.208 274.52L201.926 274.004L201.457 272.784L201.316 272.127L201.41 269.171L201.316 268.373L201.269 268.044L201.081 267.669L200.846 267.294L200.189 267.153L173.519 263.727L172.862 263.493L172.58 263.352L172.486 263.023V262.695L172.58 262.366L172.721 262.132L173.66 261.428L173.989 261.006L174.176 260.724L174.74 260.067L174.881 259.833L175.022 259.176L175.116 258.894L175.303 258.659L175.867 258.002L175.961 257.627V257.158L175.867 255.891V254.999L176.102 253.92L176.336 253.638L176.665 253.498H176.994L177.651 253.591H178.355L182.769 252.7L184.131 252.278L184.506 252.09L185.07 251.761L185.351 251.621L185.68 251.527L186.338 251.48L186.854 251.527L187.417 251.714L188.169 252.184L188.403 252.278L189.014 252.465L190.047 252.606L190.235 252.794L190.563 253.122L190.892 253.451L191.362 253.732L191.643 253.826L192.301 253.873L193.005 253.92L193.334 253.826L193.568 253.685L194.226 253.075L194.742 252.841L195.353 252.888L195.869 253.169L196.667 253.967L197.653 254.624L198.029 255.046L199.86 257.674L200.377 258.8L200.893 259.457L201.316 260.302L201.504 261.381L201.598 261.663L202.208 262.273L202.537 262.742L202.959 263.164L203.194 263.305L203.71 263.587L204.368 263.727H204.696L207.044 263.258L207.936 262.93L208.594 262.789L208.875 262.836L209.157 262.93L209.674 263.258L210.378 263.774L210.941 264.009H211.693L212.773 263.68H213.195L213.43 263.774L214.134 264.243L214.369 264.197L214.557 264.009L214.885 263.493L215.167 263.258L215.496 263.07L216.67 262.601L217.468 261.944L218.689 260.818L219.064 260.583L219.816 260.161L220.473 259.786L220.849 259.41L221.224 258.894L221.553 258.659L221.882 258.612L222.398 258.847L222.821 258.894L223.29 258.8L224.699 258.002L225.168 257.815L225.497 257.768L226.248 257.815L226.953 257.909H227.657L229.066 257.439L229.582 257.205L229.911 256.97L230.145 256.642L230.615 255.797L230.85 255.515L231.225 255.234L232.305 254.577L232.775 254.483L233.15 254.53L233.855 254.952L234.183 254.999H234.606L236.954 253.638L237.846 252.935L238.832 251.902L239.254 251.339L239.724 251.011L240.241 250.917H240.569L240.898 250.964L241.743 251.292L242.682 251.574L242.964 251.621L243.058 251.433L241.79 231.208L241.508 230.27L240.898 229.378L237.282 225.202L236.578 224.169L236.296 223.184L235.733 215.207L235.404 214.315L234.7 213.424L231.46 210.467L230.897 209.81L230.615 209.717L230.052 209.763L229.723 209.904L229.3 210.186L228.455 210.984L227.986 211.265L227.328 211.359L226.295 211.218H225.967L225.309 211.312L225.027 211.453L224.135 212.063L223.055 212.579L222.774 212.673L222.069 212.72L221.036 212.579H220.755L220.426 212.673L219.956 212.954L219.722 213.142L219.205 213.471L218.923 213.564L218.313 213.752L216.623 213.94L215.965 214.128L215.167 214.503L214.51 214.644L213.852 214.597L213.289 214.315L212.913 213.893L208.922 204.414L208.265 203.476L207.889 203.1L205.401 201.129L203.898 199.44L203.617 198.924L203.382 198.361L202.818 194.278L202.724 193.95L202.584 193.715L202.161 193.34L199.766 192.12L199.109 191.604L198.686 191.181L198.546 190.9L197.559 188.319L196.151 185.785L195.447 184.846L195.071 184.471L194.179 183.72L193.381 183.251L192.535 182.594L192.16 182.125L191.69 180.998L191.033 180.248L190.704 180.013L189.624 179.544L188.967 179.356L183.145 178.84L180.421 178.887L178.684 179.075H178.402L178.121 178.981L178.074 178.746L178.261 177.104L177.792 175.18L175.209 168.376L174.881 167.719L174.364 166.968L170.937 163.918L170.467 163.167L165.678 149.606L165.349 148.902L164.927 148.432L164.175 148.292H163.471L162.767 148.479L163.471 150.263L163.142 151.576L162.438 152.703L159.198 156.128L158.729 156.41L158.353 156.457L156.897 156.222L156.71 156.175L156.005 156.222L155.442 156.363L154.972 156.597L154.597 156.973L153.047 155.33L152.719 152.843V150.122L152.249 147.729L150.84 145.382L149.807 144.162L147.835 143.036L147.413 141.628L147.46 137.546L147.413 137.17L147.131 136.514L146.333 135.153L145.91 133.557L145.3 132.243L144.126 130.273L142.764 129.099L139.525 126.988L137.083 124.876L136.895 124.595L136.52 122.858L136.285 122.389L135.815 122.295L134.829 123.14L134.266 123.421L133.655 123.234L132.857 122.436L132.435 122.201L130.04 122.248L129.148 121.967L128.772 120.747L130.416 114.318V113.661L130.228 112.957L129.711 111.737L129.617 111.033L129.711 110.47L130.275 109.25L130.416 108.64L130.087 108.218H129.383L127.927 108.452L125.908 107.608L125.485 107.326L125.157 107.092L124.781 106.857L124.358 105.402L124.312 35.8594L132.951 35.8124L134.97 35.5309H135.58L136.191 35.6717L137.271 36.1878L138.022 36.2817L148.962 36.094L158.212 35.9063L158.729 36.0001L159.621 36.5163L160.09 36.6571L171.453 36.5632L174.975 37.5017L179.201 39.6603L181.595 40.1765L182.159 40.6457L183.098 42.1942L183.52 42.4758L184.694 42.3819L185.164 42.5227L185.539 43.0389L185.774 43.6489L186.103 44.9628L186.291 45.2444L186.572 45.3382H186.948L187.277 45.4321L190.469 47.4498L201.973 54.864L208.735 59.228L213.477 62.2781L218.923 65.7975L238.315 78.2796L239.442 79.4058L240.945 81.799L241.837 82.8782L242.588 83.3006L244.372 83.8167L245.734 85.0368L246.438 85.1306L248.27 84.6614L250.148 84.5206L256.393 85.2245L262.731 85.9284L266.018 85.6468L269.023 84.3329L269.117 84.0044L269.07 83.4883L269.164 82.9721L269.728 82.7844L270.056 82.8782L271.183 83.8167L271.653 84.3798L271.747 84.8491L271.981 85.2245L272.826 85.4122L273.578 85.506L273.906 85.4591L274.752 85.1306L274.845 85.3183L274.892 85.6468L275.221 85.8345L278.649 86.0691V85.6937L278.743 84.8491L278.696 84.4737L280.292 86.5853L281.231 87.5238L282.311 88.0869L292.547 90.8555H294.05L296.538 90.3862L297.524 90.527L298.416 90.8555L299.355 90.8086L302.736 90.1047L303.299 90.2455L309.357 93.014L311.657 93.5302L313.911 93.4833L316.212 92.1694Z" fill="#009649" stroke="white" stroke-width="2" stroke-linejoin="round"></path>
<path class="region" data-country-region="West Region" d="M48.3875 298.733L46.9789 299.109L46.1337 299.062L44.9129 298.78L44.4434 298.827L43.9738 298.921L42.6122 299.39L42.1426 299.437H41.72L40.3114 298.733L38.9967 298.358H38.6211L37.6351 298.593L36.0386 299.25L35.3343 299.484L34.8178 299.531L34.3952 299.437L33.7848 299.015L33.5031 298.546L33.4562 298.076L33.7379 297.232L34.0196 296.716L34.2074 296.106V294.322L34.3483 293.665L34.3952 293.337L34.3013 293.009L34.2074 292.774L33.8788 292.492L32.3293 291.507L31.2493 291.085L30.7798 290.709L30.6389 290.334L30.7798 289.395L30.8268 289.114L30.6859 288.832L27.4461 285.594L27.3052 285.313L27.1174 284.703V283.577L26.9296 282.497L26.7418 281.887L26.507 281.559L25.474 280.48L24.9575 280.292L24.5349 280.198L24.2063 280.292L23.6428 280.526L23.1263 280.855L22.8446 280.949L22.5159 280.996L21.8116 280.902L18.6188 280.292H18.1492H17.6797L17.0223 280.48L16.7876 280.62L16.365 280.902L16.0832 281.183L15.9424 281.418L15.5198 282.544L15.332 282.779L14.9564 283.201L14.5807 283.342L14.0642 283.436L12.9843 283.342H12.4678L12.0922 283.483L10.3079 284.562L9.27494 285.688L9.04017 286.111L8.8054 287.049L8.57063 288.316L8.52368 290.24L8.33586 290.944L8.10109 291.272L6.9742 291.695L6.41076 291.929L5.70645 292.445L5.143 292.962L4.86128 293.337L4.72042 293.947V294.322L4.86128 295.355V295.683L4.67347 296.293L3.78134 297.795L3.35876 298.78L3.03008 297.232L2.98313 296.716L2.79531 296.059L2.27882 295.636L1.76233 295.308L1.33974 294.886L1.15193 294.369L1.01107 293.853L0.964111 292.68L1.15193 292.07H1.57451L2.091 292.211L2.56054 292.023L2.93617 291.272L3.03008 290.334L2.98313 288.598L3.12399 287.612L3.68743 285.735L3.8283 284.984L3.73439 284.562L3.35876 283.764L5.98817 280.245L8.14805 278.603L8.61759 277.805L8.8054 276.632L8.14805 274.473L8.05414 273.394L8.33586 272.831L9.36885 271.658L9.79143 271.001L9.93229 270.531L11.4348 264.478L12.4208 262.695L14.2051 261.475L16.5997 260.63L18.4779 259.645L19.9335 258.143L20.8725 255.609L21.2012 253.498L21.7177 252.982L25.521 251.105L26.507 250.166L27.3522 247.773L29.0425 245.567L30.592 241.813L30.9207 240.593L30.9676 237.919L31.2963 236.699L31.7658 235.478L32.3762 234.446L33.5501 233.226L34.5361 233.461L35.5221 234.024L36.7429 233.789L37.0716 233.226L37.5881 233.836L39.2784 235.338L39.3724 236.417L40.4523 238.059L46.5093 244.394L46.7911 244.629L47.4015 244.817L48.1058 244.91L48.3405 245.051L48.4814 245.333L48.5753 245.755L48.4814 246.459L48.4344 247.022L48.4814 247.585L48.7162 248.289L48.9509 248.711L49.2327 248.993L49.7022 249.274L49.9839 249.368L50.6413 249.509L52.8481 249.274L54.0689 248.852L55.7123 248.477L56.041 248.43H56.3696L57.3087 248.711H57.6374L57.8722 248.617L58.1069 248.43L59.1399 247.022L59.5625 246.647L59.7973 246.459L60.4077 246.271L62.2389 246.037L65.6665 246.177L66.2769 246.318L66.7464 246.647L67.3099 246.928L67.5916 247.022L68.202 247.163L69.3759 247.585L69.9393 247.914L70.221 248.242L70.3149 248.43L70.5967 249.228L71.6766 250.682L71.8175 250.964L71.9114 251.902L71.8644 253.404L72.0053 253.779L72.3809 254.202L72.5687 254.436L72.6626 254.812L72.7096 255.375V255.75L72.5218 256.172L72.3339 256.501L71.8644 256.923L71.6296 257.111L70.268 257.862L70.0332 258.096L69.7984 258.425L69.4698 259.457L69.2819 259.879L68.8594 260.255L67.7794 260.959L67.4038 261.1L67.0751 261.146L66.3708 261.1L66.0891 260.959L65.5726 260.724L65.2439 260.63L64.5396 260.583L63.9292 260.771L62.8962 261.287L62.4736 261.428L61.8163 261.381L61.065 261.193H60.7364L60.2668 261.428L60.032 261.663L58.5295 263.962L58.1069 264.337L57.6844 264.572L57.3557 264.619L56.6983 264.478L55.9001 264.056L55.2428 263.962L54.8671 264.009L54.2567 264.197L53.5055 264.619L53.2707 265.135L53.0829 265.933L52.942 268.467L53.0359 268.889L53.7402 269.311L56.1818 270.485L56.6044 270.86L56.7453 271.095L57.5435 272.784L57.7313 273.816L58.3417 275.646L58.3887 275.975V276.35L57.8722 280.198L57.9191 280.902L58.2008 281.84L58.4826 282.403L58.7173 282.967V283.389L58.5765 283.952L58.06 285.125L57.5435 287.143L57.3557 287.753L56.7453 288.457L55.008 289.771L54.3506 290.381L54.1159 290.709L53.8341 291.178L53.4116 292.07L52.989 293.384L51.8621 294.745L49.3735 297.279L48.3875 298.733Z" fill="#009649" stroke="white" stroke-width="2" stroke-linejoin="round"></path>
<path class="region" data-country-region="West Region" d="M5.18992 327.639L4.62648 328.061L3.54654 327.686L1.95011 326.607L0.776265 326.419L0.400635 326.184L0.447589 325.668L0.729312 325.152L0.964081 324.823L1.48057 324.542L3.35873 324.354L5.42469 323.791L6.26986 324.073L6.64549 325.433L6.78636 325.856L7.11503 326.044L7.25589 326.278L7.02112 326.794L6.50463 327.217L5.18992 327.639ZM16.4588 321.257L15.6606 322.336L13.1251 324.026L12.4678 323.838L11.4348 323.744L10.6835 323.556V322.806L12.233 322.196L12.7025 321.961L12.9843 321.539L13.5008 319.943L14.3459 321.163L14.9094 321.586H15.5198L15.8484 321.21L16.2241 320.037L16.7406 319.521L16.4588 321.257ZM48.3874 298.733L49.1387 298.686L49.7491 298.921L49.9839 299.062L50.7821 299.859L51.2516 300.235L51.7681 300.469L52.4255 300.61H53.2237L54.3506 300.469H55.9001L58.6703 300.798L59.046 300.751L59.7033 300.61L59.985 300.469L60.7833 300L61.065 299.906L61.3937 299.812H62.098L62.6145 300.094L63.1779 300.704L63.4127 300.845L63.9761 300.892L64.2109 300.986L64.8682 301.502L65.4317 301.783L65.7134 301.83L66.0421 301.736L66.6525 301.549L67.169 301.267L67.3568 301.032L67.7794 300.188L68.0611 299.719L68.2959 299.578L68.5776 299.437H68.9532H69.2819L69.9393 299.578L70.8314 299.906L71.8174 300.516L72.3808 300.751H72.7095L73.0382 300.704L73.3199 300.563L74.0242 300.141H74.4468L75.0103 300.329L75.245 300.469L75.5737 300.939L75.7615 301.22L75.9493 301.83L76.2311 303.566L76.4189 303.801L76.8884 304.13L78.0623 304.599L78.297 304.833L78.4848 305.162V305.866L78.5318 306.288L78.7196 306.57L81.396 308.681L81.7247 309.151L81.8655 309.432L81.9125 309.948L81.8655 310.324L81.5838 312.248L81.4899 312.576L81.2082 312.858L80.7386 312.998H80.363L79.6587 312.905L79.0952 312.717L78.8605 312.529L78.4379 312.154L78.2501 311.919L78.1092 311.638L77.9214 311.028L77.7805 310.746L77.5458 310.605L77.264 310.511L76.5597 310.417L76.2311 310.324L75.9963 310.183L75.6207 309.714L75.292 308.869L74.8694 308.447L74.5877 308.306L74.306 308.259L74.0242 308.353L73.5077 308.587L73.226 308.681H72.8973L72.6156 308.587L72.3339 308.447L71.6765 307.884L70.9722 307.414L70.5966 306.945L70.174 306.194L69.7514 305.819L69.3758 306.053L69.0002 306.617L67.6385 309.197L67.0751 309.854L66.7933 309.995L66.2299 310.23L65.7134 310.558L65.5256 310.793L65.3847 311.121L65.2908 311.591L65.1969 314.218L65.0561 315.251V315.579L65.0091 315.955L64.8682 316.33L64.3517 317.081L64.117 317.362L63.4127 317.925L63.2249 318.113L62.7084 318.817L62.6614 318.958L62.5675 319.568V320.178L62.7084 320.788L63.084 321.633L63.2718 322.29L63.4127 322.524L64.3517 323.979L64.4926 324.589L64.2578 326.607L64.3048 326.888L64.4457 327.733L64.5396 328.061L64.9621 328.718L65.15 329.187L65.8543 335.569L65.7134 337.259L65.3378 338.197L65.3847 338.901L65.5256 339.605L66.6994 342.89L66.8873 343.64V344.344L66.4647 344.907L65.7604 345.424L65.0091 345.893L64.2109 346.503L63.5535 347.16L62.8492 348.943L62.5205 350.022L62.2858 350.538L61.8632 350.82L61.2058 351.101L45.3824 355.606L44.9598 355.653L42.7999 355.465L42.4713 355.372L41.9548 355.137L41.6261 355.09L41.0157 355.325L39.8418 356.122L38.7619 356.686L37.7759 357.436L37.4472 357.859L37.4003 358.422L37.5411 358.985L38.5741 360.768L38.715 361.143L38.7619 361.8L38.9497 362.363L39.2784 363.067L40.1236 364.194L40.7809 367.056L41.0626 367.431L42.4713 368.464L43.3634 369.965L43.739 370.998L45.9458 380.805L46.0398 381.65L36.4612 376.3L23.7836 369.215L7.9602 360.393L8.05411 360.158L7.58457 359.876L7.44371 359.407L7.86629 358.797L8.75841 358.656L9.36882 358.422L9.04014 357.53L8.28888 357.999L7.3498 358.234L6.45768 357.999L5.80032 357.155L7.06808 357.436L7.49066 357.061L7.86629 355.512L10.5427 357.249L11.4817 357.53V357.155L10.9652 355.982L11.1531 354.574L11.8574 352.087L12.4678 351.289L13.6416 350.585L14.4398 349.694L13.9233 348.239L13.3599 347.957L10.6835 347.019L8.24192 345.33L7.86629 345.236L7.81934 344.063L7.58457 342.467L7.02112 341.247L5.80032 341.388L6.41072 336.132L6.83331 335.335L7.30285 335.147L7.86629 334.678L8.42974 334.162L8.66451 333.645L8.47669 332.895L8.05411 332.331L7.49066 331.862L7.02112 331.252L7.3498 331.064L8.19497 331.018L8.66451 330.83L9.60358 329.844L9.65054 329.704L11.7165 329.844L12.4678 329.657L13.1251 328.812L13.9233 324.87L14.7685 323.228L16.7406 322.806L16.5997 322.993L16.3649 323.556L18.0553 323.603L20.403 325.762L21.9994 326.419L21.7646 325.997L21.5768 325.48V324.964L21.9994 324.823L22.375 325.058L22.8915 326.09L23.1732 326.419L24.1123 326.56L24.9105 326.184L25.1923 325.387L24.8166 324.354H25.7087L26.4131 324.542L26.9295 324.87L27.446 325.433L27.7747 325.95L28.3382 327.17L28.4321 327.639L28.1503 328.061L27.6808 328.577V329.094L28.6199 329.281L29.3711 329.047L30.8267 327.874L31.4841 327.639L31.6249 327.451L33.3153 326.419L33.4561 325.903L33.4092 325.105L33.1274 324.354L30.5919 323.322L30.1224 321.726L30.2163 319.943L30.0755 318.723L31.2023 318.207L32.9866 317.738L34.7239 317.456L35.7099 317.503L36.3203 317.128L36.7898 317.081L37.2124 317.315L37.5881 317.691L38.2454 318.113L38.7619 318.066L39.2784 317.925L39.7949 317.879L42.4713 318.629L43.6451 318.723L47.3075 318.348L48.1057 318.113V317.222L47.777 316.048L47.871 315.251L49.0918 315.485L49.7961 315.204L51.3925 316.377L52.5194 316.705L53.0828 316.518L53.3646 316.095L53.5524 315.673L53.7402 315.485L54.0689 315.251L53.5993 314.782L52.9889 314.359L52.7542 314.312L50.7351 310.464L50.5473 309.854L49.7491 309.526L48.9509 308.869L48.2935 308.071L47.871 307.414L47.4953 307.837L46.791 306.429L46.7441 305.584L47.0258 304.786L47.0727 303.379L46.2745 303.66L43.4103 303.566L43.1286 304.13L42.5182 304.693L41.767 305.209L40.4523 305.584L39.0436 306.382L36.8838 306.71L35.9916 307.086L35.1465 307.696L34.3483 308.447L33.4561 308.963L32.611 308.916L30.8737 308.212H29.9815L27.6339 309.057L25.8966 308.822L24.8636 308.869L23.9715 309.432L23.7836 310.324L24.0654 311.262L24.7227 311.778L25.6148 311.45L26.2252 312.717L26.5539 313.937L26.46 315.11L25.8027 316.095L22.7976 318.442L22.375 319.333L22.1403 320.366L21.4829 321.351L20.5908 321.679L19.6048 320.788L19.6517 320.506L19.9334 320.037L20.0743 319.427L19.9804 318.723L19.6517 318.395L19.1352 318.019L18.4779 317.691L17.9614 317.503L18.5718 316.846L18.7596 316.283L18.4309 315.908H17.5857L18.5718 313.89L18.29 313.186L17.1632 312.294L15.1911 311.356L14.5337 310.605L14.7216 309.432L12.9373 309.573L10.8244 309.244L9.13405 308.259L8.66451 306.57L8.99318 306.288L10.4488 305.537L10.8713 305.396L11.7635 305.209V304.88L11.2 304.552L10.2609 304.599L11.3409 303.003L11.5756 302.112L10.8713 301.736L9.181 301.783L8.14802 302.018L7.44371 302.581H7.86629L7.63152 303.097L7.49066 303.519L7.44371 303.989V304.599L6.97417 304.317L6.88026 303.989V303.473L6.17596 302.581L5.89423 302.675L5.18992 302.722L4.81429 302.44L5.37774 301.736V301.361L5.04906 301.126L4.67343 300.986L3.5935 300.939L3.35873 300.704V298.921V298.78L3.78131 297.795L4.67343 296.293L4.86125 295.683V295.355L4.72039 294.322V293.947L4.86125 293.337L5.14297 292.961L5.70642 292.445L6.41072 291.929L6.97417 291.694L8.10106 291.272L8.33583 290.944L8.52365 290.24L8.5706 288.316L8.80537 287.049L9.04014 286.11L9.27491 285.688L10.3079 284.562L12.0921 283.483L12.4678 283.342H12.9843L14.0642 283.436L14.5807 283.342L14.9563 283.201L15.332 282.779L15.5198 282.544L15.9423 281.418L16.0832 281.183L16.3649 280.902L16.7875 280.62L17.0223 280.479L17.6796 280.292H18.1492H18.6187L21.8116 280.902L22.5159 280.995L22.8446 280.949L23.1263 280.855L23.6428 280.526L24.2062 280.292L24.5349 280.198L24.9575 280.292L25.474 280.479L26.507 281.559L26.7417 281.887L26.9295 282.497L27.1174 283.576V284.703L27.3052 285.313L27.446 285.594L30.6859 288.832L30.8267 289.114L30.7798 289.395L30.6389 290.334L30.7798 290.709L31.2493 291.084L32.3292 291.507L33.8787 292.492L34.2074 292.774L34.3013 293.008L34.3952 293.337L34.3483 293.665L34.2074 294.322V296.105L34.0196 296.715L33.7379 297.232L33.4561 298.076L33.5031 298.545L33.7848 299.015L34.3952 299.437L34.8178 299.531L35.3343 299.484L36.0386 299.249L37.635 298.592L38.6211 298.358H38.9967L40.3114 298.733L41.72 299.437H42.1426L42.6121 299.39L43.9738 298.921L44.4433 298.827L44.9129 298.78L46.1337 299.062L46.9788 299.109L48.3874 298.733Z" fill="#009649" stroke="white" stroke-width="2" stroke-linejoin="round"></path>
</svg>