<svg width="556" height="578" viewBox="0 0 556 578" fill="none" xmlns="http://www.w3.org/2000/svg">
<path class="region" data-country-region="North Region" d="M368.023 113.917L368.579 115.696L370.08 116.864L371.358 117.587L375.527 120.589L377.973 123.313L377.639 124.536L377.417 125.314L377.25 126.871L377.806 127.482L379.584 127.538L380.585 128.094L381.307 129.706L381.085 130.651L381.141 132.374L380.363 133.709L379.362 134.264L375.082 135.654L372.414 136.155L362.465 135.376L361.354 135.932L360.298 136.266L359.631 136.822L358.964 136.655L358.13 136.599L357.407 136.433L355.24 136.377L353.461 136.711L352.794 136.599L349.737 138.434L348.57 138.712L348.014 139.935L347.014 144.382L345.457 148.274L343.456 150.776L341.066 150.386L337.454 147.885L336.231 147.218L334.952 146.161L332.396 145.494L327.838 145.272L327.004 144.994L326.282 144.883L325.448 144.271L321.835 139.268L319.056 136.989L317.555 136.099L316.333 134.709L314.276 131.985L313.498 130.707L313.109 129.261L312.664 128.983L311.942 128.761L311.275 127.371V126.481L310.941 125.592V124.035L310.497 120.366L309.052 116.864L309.496 115.863L309.996 114.974L310.941 114.529L311.831 114.195L312.442 113.639L312.664 113.028L313.053 112.361L313.72 111.694L314.221 109.915V107.969L313.887 106.579L312.775 104.467L314.443 103.688L316.055 103.299L316.944 102.91L317.111 102.688L317.945 103.244L319.723 103.522L320.612 103.966L321.891 104.244L324.225 105.467L325.226 105.301H327.393L327.838 105.856L326.615 107.024L326.56 107.913L326.893 108.525L327.671 108.803L328.783 108.08L329.895 106.412L333.063 104.189L334.174 101.965V100.909L334.063 100.075L334.008 98.685L334.174 97.4619L334.452 96.6836L335.119 95.7385L335.342 94.8491L335.842 94.2375L336.009 93.4036L338.565 91.6803L339.899 90.5128L341.178 89.7901L342.567 89.2898L343.79 89.0674L345.179 90.7352L345.846 91.1799L346.513 92.5697L347.125 94.1263L347.458 95.6273L348.626 98.2958L349.626 98.7962L352.905 100.075L353.795 100.52L355.24 100.853L355.406 101.631L355.017 102.576L354.462 103.299L354.239 104.467L354.739 105.467V106.246L354.517 106.69L354.072 110.137L354.573 112.083L355.629 112.972L357.185 113.751L361.298 115.029L363.299 116.03L365.022 115.641L368.023 113.917Z" fill="#009649" stroke="white" stroke-width="2" stroke-linejoin="round"></path>
<path class="region" data-country-region="North Region" d="M410.654 52.0424L411.043 53.4323L411.099 55.656L410.877 56.9346L410.432 57.9909L409.709 58.658L408.598 59.1027L407.931 59.8255L406.041 61.3265L405.152 62.9387L400.983 65.9407L400.261 66.6634L400.65 67.7197L400.983 68.0532L402.706 70.3881L401.483 73.2234L401.761 74.0017L401.65 74.7244L400.983 75.2247L397.426 76.7257L396.203 76.6701L394.758 76.7257L393.702 76.5589L392.868 76.2254L392.646 75.2803L391.979 74.78L391.534 74.1128L389.922 73.279L389.478 73.7237L388.866 74.224L388.477 75.1691L387.366 75.9474L386.532 77.2816L385.42 77.782L384.642 77.6708L383.531 77.8376L381.974 77.6708L380.14 77.2816L377.917 76.2254L375.527 75.5583L372.97 75.3359L371.247 75.3915L369.969 75.1135L368.746 75.5583L367.412 75.5027L365.8 76.4478L364.355 76.7257L363.299 77.1149L362.187 76.7257L360.798 76.4478L359.519 75.6695L358.686 75.5583L357.463 74.502L359.408 70.3881L363.188 64.662L363.577 63.9393L364.133 62.2715L364.911 60.9929L372.414 45.0933L373.915 39.9788L376.138 40.1455L377.917 39.7008L378.639 39.5896L379.584 40.1455L380.418 40.4791L381.474 40.7015L382.752 40.7571L384.031 41.4798L385.476 41.9245L388.866 42.5916L390.145 42.9808L391.09 43.7591L393.035 45.0933L395.314 47.5394L396.259 47.595L396.981 47.7618L398.593 47.3726L399.482 47.6506L400.261 48.6513L401.65 49.9299L402.706 51.1529L404.096 51.5977L405.152 52.098L406.597 51.8201L408.987 51.6533L410.654 52.0424Z" fill="#009649" stroke="white" stroke-width="2" stroke-linejoin="round"></path>
<path class="region" data-country-region="North Region" d="M343.456 150.775L344.068 152.443L343.901 154.055L344.068 156.057L343.957 158.725L344.457 162.283L345.846 165.841L346.902 169.844L346.458 171.956L345.068 173.735L340.066 174.847L338.51 175.848L338.009 177.349L338.954 179.017L341.678 182.074L342.678 182.853L341.4 187.578L340.733 188.134L339.732 188.801L338.51 190.246L336.509 191.914L324.67 197.529L323.336 198.474L321.613 198.808L319.223 200.031L316.944 201.865L315.054 204.089L313.498 206.702L311.997 207.869L310.33 207.981L307.44 207.536L305.439 208.37L300.659 209.815L292.433 209.871L289.931 210.149L287.986 210.593L287.097 210.649L286.43 209.982L286.263 208.592L285.652 207.591L284.707 206.98L283.262 207.425L279.704 209.648L278.259 210.871L276.759 211.539L274.146 211.983L270.2 211.872L266.976 210.482L262.919 210.705L259.417 210.482L258.083 211.539L256.082 212.595H254.47L253.192 211.316L251.803 208.703L249.857 207.313L249.69 202.977L249.579 202.254L249.023 200.809L249.468 199.864L250.357 194.082L250.469 191.747L250.302 190.802L249.913 190.302L249.468 189.913L249.023 189.357L250.135 187.967L250.913 186.577L251.747 184.131L252.136 183.52L252.97 182.686L253.192 181.907L253.692 181.407L253.859 180.962L254.526 179.906L255.026 176.626L255.304 175.959L258.472 172.512L259.862 170.511L260.64 169.844L261.196 169.177L261.64 168.176L262.53 167.231L263.975 168.176L265.142 168.621L266.865 168.954L272.034 167.842L276.536 168.732L277.648 170.122L278.148 171.567L279.538 173.235L283.373 174.569L285.374 174.514L289.487 174.736L293.489 175.403L295.712 175.181L297.546 174.236L301.548 165.396L303.604 162.672L303.994 160.393L303.493 159.114L299.547 156.779L298.435 155L297.546 153.166L297.49 151.22L298.936 149.83L300.158 149.052L301.603 147.773L302.993 147.106L304.605 145.772L306.217 144.827L308.162 143.215L309.996 141.047L310.608 138.712L310.552 136.544L311.386 132.596L312.053 131.54L313.498 130.706L314.276 131.985L316.333 134.709L317.555 136.099L319.056 136.988L321.835 139.268L325.448 144.271L326.282 144.883L327.004 144.994L327.838 145.272L332.396 145.494L334.952 146.161L336.231 147.217L337.454 147.885L341.066 150.386L343.456 150.775Z" fill="#009649" stroke="white" stroke-width="2" stroke-linejoin="round"></path>
<path class="region" data-country-region="North Region" d="M336.009 93.4036L335.842 94.2375L335.342 94.849L335.119 95.7385L334.452 96.6836L334.175 97.4619L334.008 98.6849L334.063 100.075L334.175 100.909V101.965L333.063 104.189L329.895 106.412L328.783 108.08L327.672 108.803L326.893 108.525L326.56 107.913L326.615 107.024L327.838 105.856L327.394 105.3H325.226L324.225 105.467L321.891 104.244L320.613 103.966L319.723 103.521L317.945 103.244L317.111 102.688L317.667 101.965L318.556 101.576L320.835 100.853L322.225 100.13L322.892 99.9635L323.503 99.63L324.114 98.9073L324.67 98.3513L325.393 98.5181L325.782 98.2957L326.838 98.5181L327.727 98.0178L328.783 97.851L329.506 97.5174L330.617 96.7947L331.785 95.2937L332.785 94.7934L333.73 93.5703L334.897 93.9039L335.62 93.6815L336.009 93.4036Z" fill="#009649" stroke="white" stroke-width="2" stroke-linejoin="round"></path>
<path class="region" data-country-region="North Region" d="M386.532 77.2814L387.811 77.9485L388.2 78.5044L389.033 80.061L389.089 80.9505L389.7 81.9512L390.479 83.0074L390.923 84.0637L389.978 86.9545L390.256 87.6773L390.812 88.4556L391.09 89.345L391.757 90.0122L392.146 91.0684L391.59 93.9593L390.645 95.6826L389.867 98.0731V98.9626L389.978 100.297L389.867 101.742L389.367 103.021L389.534 104.077L389.311 105.189V106.134L389.256 107.19L389.311 107.913L389.534 108.691L389.923 109.303L389.256 109.859L388.255 110.248L384.309 110.026L383.308 110.248L382.642 110.693L381.752 110.748L379.807 110.137L379.14 109.636L378.251 109.359L377.361 109.192L375.694 108.636L375.305 108.024L375.36 107.246L375.194 105.634L374.415 104.967L372.137 104.188L371.136 104.077L370.302 104.355L369.802 105.856L368.691 107.969L368.635 108.747L368.413 109.914L368.579 110.804L368.913 112.694L368.024 113.917L365.022 115.641L363.299 116.03L361.298 115.029L357.185 113.75L355.629 112.972L354.573 112.083L354.073 110.137L354.517 106.69L354.74 106.245V105.467L354.239 104.466L354.462 103.299L355.018 102.576L355.407 101.631L355.24 100.853L353.795 100.519L352.905 100.074L349.626 98.7959L348.626 98.2955L347.458 95.627L347.125 94.126L346.514 92.5694L345.847 91.1796L345.18 90.7349L343.79 89.0671L344.401 88.8447L345.513 87.8996L346.736 87.4549L350.404 84.5084L354.017 80.5058L357.074 75.3356L357.463 74.5017L358.686 75.558L359.52 75.6692L360.798 76.4475L362.188 76.7254L363.299 77.1146L364.355 76.7254L365.8 76.4475L367.412 75.5024L368.746 75.558L369.969 75.1132L371.247 75.3912L372.97 75.3356L375.527 75.558L377.917 76.2251L380.14 77.2814L381.975 77.6705L383.531 77.8373L384.642 77.6705L385.421 77.7817L386.532 77.2814Z" fill="#009649" stroke="white" stroke-width="2" stroke-linejoin="round"></path>
<path class="region" data-country-region="North Region" d="M452.007 139.602L454.119 142.882L455.064 144.772L457.343 148.163L458.843 151.221L459.344 153.333L460.789 154.223L461.233 155.946L462.512 157.225L462.956 158.726L463.846 159.226L465.847 158.781L467.347 158.059L468.348 157.391H469.737L471.405 157.836L472.572 158.337L474.128 158.726L475.74 158.392L477.352 158.281L478.741 158.67L478.074 160.671L478.019 164.118L478.352 166.731L480.02 170.511L481.409 171.568L481.131 173.68L481.076 175.904L479.075 176.515L468.959 178.35L467.625 178.461L466.18 178.128L463.79 179.406L463.29 189.913L460.733 190.08L458.843 191.47L458.399 192.026L458.232 192.749L458.454 195.862L458.399 196.751L457.676 198.03L457.454 198.808L457.565 199.531L457.954 199.865L458.565 199.92L459.177 199.642L460.177 198.697L460.677 198.419L461.289 198.586L461.789 199.086L462.734 200.643L463.345 201.199L464.624 201.81L465.013 202.199L465.346 202.978L465.513 203.7L465.569 204.479L467.458 207.481L465.513 210.594L463.79 212.317L464.29 217.376L457.732 220.767L451.896 222.157L446.56 222.491L442.447 223.603L439.056 225.548L435.166 230.607L430.33 234.555L425.217 236.834L416.212 230.719L413.433 228.439L411.655 227.717L409.654 225.993L409.376 223.492L410.043 221.768L410.154 219.767L408.82 218.266L407.597 216.487L406.986 214.986L405.819 213.652L404.763 212.818L404.651 210.928L404.818 209.482L405.707 208.593L406.763 205.757L406.486 203.756L406.708 201.199L409.153 193.471L409.876 188.968L408.487 186.467L403.206 182.742L401.539 180.963L399.427 180.185L397.648 179.74L395.091 180.407L393.202 180.296L391.756 179.74L392.535 177.071L395.703 173.18L397.426 170.122L396.87 167.509L394.424 166.231L389.311 167.843L388.533 165.619L387.421 164.452L387.699 162.617L388.755 160.783L391.312 159.17L395.147 156.168L396.592 155.501L397.982 155.001L400.761 154.945L401.039 154.223L399.983 151.888L399.76 150.498L398.982 148.997L399.649 146.94L400.705 145.717L401.983 144.661L402.095 144.105L399.149 143.271L394.647 140.213L390.367 138.545L386.032 134.376L381.14 132.375L381.085 130.651L381.307 129.706L380.585 128.094L379.584 127.538L377.806 127.482L377.25 126.871L377.416 125.314L377.639 124.536L377.972 123.313L375.527 120.589L371.358 117.587L370.08 116.864L368.579 115.697L368.023 113.918L368.913 112.695L368.579 110.805L368.412 109.915L368.635 108.748L368.69 107.969L369.802 105.857L370.302 104.356L371.136 104.078L372.136 104.189L374.415 104.967L375.193 105.634L375.36 107.247L375.304 108.025L375.693 108.636L377.361 109.192L378.25 109.359L379.139 109.637L379.806 110.137L381.752 110.749L382.641 110.693L383.308 110.249L384.309 110.026L388.255 110.249L389.255 109.859L389.922 109.304L389.533 108.692L389.311 107.914L389.255 107.191L389.311 106.135V105.19L389.533 104.078L389.366 103.022L389.867 101.743L389.978 100.297L389.867 98.9632V98.0737L390.645 95.6832L391.59 93.9599L392.146 91.069L391.756 90.0128L391.089 89.3456L390.812 88.4562L390.256 87.6779L389.978 86.9551L390.923 84.0643L390.478 83.008L389.7 81.9518L389.089 80.9511L389.033 80.0616L388.199 78.505L387.81 77.9491L386.532 77.282L387.366 75.9477L388.477 75.1694L388.866 74.2243L389.478 73.724L389.922 73.2793L391.534 74.1132L391.979 74.7803L392.646 75.2806L392.868 76.2257L393.702 76.5593L394.758 76.726L396.203 76.6704L397.426 76.726L400.983 75.225L401.65 74.7247L401.761 74.002L401.483 73.2237L402.706 70.3884L404.151 72.5566L405.04 73.8908L405.485 75.3362L405.763 76.8372L405.819 77.8935L406.374 78.3938L407.319 78.2826L407.875 77.8379L408.653 77.6155L409.153 78.505L410.599 82.1186L413.544 87.3443L414.211 89.0121L413.711 90.0128L411.988 92.6812L412.099 93.9599L413.155 95.0161L418.102 96.128L419.603 97.2954L420.603 99.13L420.826 101.354L417.991 104.745L417.491 106.524L421.993 118.532L424.883 122.813L425.494 124.48L425.772 125.87L426.995 126.927L429.83 127.649L432.664 127.872L434.832 128.594L438.167 131.985L441.557 136.822L442.28 138.156L443.781 139.157L445.504 139.824L448.283 139.546L449.617 139.768L452.007 139.602Z" fill="#009649" stroke="white" stroke-width="2" stroke-linejoin="round"></path>
<path class="region" data-country-region="North Region" d="M389.311 167.843L387.366 170.4L380.641 175.07L369.858 180.463L367.579 182.019L365.856 182.408L358.186 185.633L356.574 188.19L354.684 189.802L351.683 190.636L348.403 190.581L346.236 189.802L344.068 189.358L342.845 188.412L341.4 187.579L342.678 182.853L341.678 182.075L338.954 179.017L338.01 177.349L338.51 175.848L340.066 174.848L345.068 173.736L346.458 171.957L346.903 169.844L345.847 165.842L344.457 162.284L343.957 158.726L344.068 156.057L343.901 154.056L344.068 152.444L343.457 150.776L345.457 148.274L347.014 144.383L348.014 139.935L348.57 138.712L349.737 138.434L352.794 136.6L353.461 136.711L355.24 136.377L357.407 136.433L358.13 136.6L358.964 136.655L359.631 136.822L360.298 136.266L361.354 135.933L362.465 135.377L372.414 136.155L375.082 135.655L379.362 134.265L380.363 133.709L381.141 132.375L386.032 134.376L390.367 138.546L394.647 140.213L399.149 143.271L402.095 144.105L401.984 144.661L400.705 145.717L399.649 146.94L398.982 148.997L399.761 150.498L399.983 151.888L401.039 154.223L400.761 154.946L397.982 155.001L396.592 155.501L395.147 156.169L391.312 159.171L388.755 160.783L387.699 162.617L387.421 164.452L388.533 165.619L389.311 167.843Z" fill="#009649" stroke="white" stroke-width="2" stroke-linejoin="round"></path>
<path class="region" data-country-region="North Region" d="M458.177 31.2501L458.455 33.0847L458.065 34.5857L458.566 42.9803L459.566 44.2589L461.345 45.482L462.734 45.8155L465.458 46.7606L466.014 48.6508L465.903 49.8182L465.625 51.0413L465.569 51.9863L464.958 52.6535L464.68 53.4318L464.735 54.2656L465.069 55.1551L466.069 55.6555L467.792 57.2677L468.959 57.2121L474.073 53.265L475.24 51.8196L476.018 50.7077L477.241 49.6514L479.798 49.4847L487.19 52.4311L487.746 53.3206L488.024 55.2107L488.469 56.1002L488.024 56.4894L487.468 56.3226L486.69 56.267L485.801 56.545L485.3 57.1565V57.9348L484.467 60.77L484.3 61.2704L483.744 61.6039L483.3 62.549L480.743 64.2724L480.243 64.8283L479.965 65.3287L479.909 66.8853L480.687 68.3863L482.855 71.3327L483.411 73.6676L484.3 76.0581L483.8 78.1706L482.855 79.6161L479.631 81.1171L479.409 82.3401L479.965 84.4526L483.133 91.1794L474.796 88.9557L473.462 88.1218L472.795 87.2879L471.905 86.5652L470.738 86.1204L469.404 86.0648L468.015 86.8431L466.681 88.0662L462.679 92.5692L462.123 93.0696L461.678 93.6811L459.01 97.0723L458.51 97.9062L458.343 98.9068L458.51 99.9631L457.176 102.409L456.676 102.52L456.454 101.853L455.953 100.908L455.175 100.797L452.896 101.52L451.896 101.186L451.007 101.019L450.173 100.63L449.45 100.074L449.117 98.9624L449.339 97.795L449.172 96.016L449.728 94.3482L448.228 92.0133L447.338 90.2343L445.504 87.6214L445.337 86.732L445.56 86.176L444.837 85.7313L443.503 85.8981L442.28 86.3984L440.446 86.1204H439.501L439.001 86.454L436.444 86.1204L435.444 86.176L433.387 84.8974L432.554 84.1747L432.609 83.1184L432.387 81.8398L431.275 80.6723L429.274 79.894L426.995 78.5042L425.884 77.2256L424.883 75.2798L423.994 74.1123L422.716 72.8893L421.604 72.9449L421.104 72.5002L420.326 71.0547L419.492 71.1103L419.214 71.0547L418.158 69.9429L417.602 69.8873L414.712 69.9985H414.156L413.545 70.61L413.211 70.3876L412.544 69.4981L411.877 69.1646H411.21L410.543 69.3313L407.431 70.6656L406.152 70.888L403.985 70.8324L403.318 70.7212L402.706 70.3876L400.983 68.0527L400.65 67.7192L400.261 66.6629L400.983 65.9402L405.152 62.9382L406.041 61.326L407.931 59.8249L408.598 59.1022L409.71 58.6575L410.432 57.9904L410.877 56.9341L411.099 55.6555L411.044 53.4318L410.654 52.0419L412.767 49.8738L415.657 48.8175L418.214 48.484L419.992 47.7613L421.326 47.0386L423.105 46.5938L423.938 45.8711L424.661 45.6487L426.106 44.2589L427.662 43.3694L428.218 42.7579L428.885 42.2576L429.552 42.202L430.608 42.0352L431.887 41.5904L433.221 40.5342L434.443 39.1999L435.499 37.8657L435.888 36.6983L435.499 35.6976L435.388 34.6413L434.777 34.141V32.362L438.945 33.5851L439.946 33.6962L440.613 33.4739L442.614 32.1952L447.449 31.3613L450.34 30.0271L453.341 29.4156L454.786 28.6929L455.12 29.1932L454.453 29.6935L455.342 30.9722L455.842 31.1946L457.51 31.3057L458.177 31.2501Z" fill="#009649" stroke="white" stroke-width="2" stroke-linejoin="round"></path>
<path class="region" data-country-region="North Region" d="M483.132 91.1799L484.244 91.7914L484.911 92.4585L484.578 94.0151L482.799 96.5724L479.075 100.13L478.464 101.242L479.242 102.521L483.577 105.578L487.301 109.637L488.802 112.75L489.246 115.085L487.468 116.586L485.522 117.642L475.629 119.588L471.683 119.81L469.626 119.588L467.736 119.755L465.902 120.199L463.179 122.59L456.787 131.151L455.175 134.042L453.508 136.433L452.674 137.934L452.007 139.601L449.617 139.768L448.283 139.546L445.504 139.824L443.781 139.157L442.28 138.156L441.558 136.822L438.167 131.985L434.832 128.594L432.664 127.871L429.83 127.649L426.995 126.926L425.772 125.87L425.494 124.48L424.883 122.812L421.993 118.532L417.491 106.524L417.991 104.745L420.826 101.353L420.603 99.1297L419.603 97.2951L418.102 96.1276L413.155 95.0158L412.099 93.9595L411.988 92.6809L413.711 90.0124L414.211 89.0117L413.544 87.3439L410.599 82.1182L409.153 78.5047L408.653 77.6152L407.875 77.8375L407.319 78.2823L406.374 78.3935L405.819 77.8931L405.763 76.8369L405.485 75.3359L405.04 73.8904L404.151 72.5562L402.706 70.3881L403.317 70.7216L403.984 70.8328L406.152 70.8884L407.43 70.666L410.543 69.3318L411.21 69.165H411.877L412.544 69.4986L413.211 70.3881L413.544 70.6105L414.156 69.9989H414.712L417.602 69.8877L418.158 69.9433L419.214 71.0552L419.492 71.1108L420.325 71.0552L421.104 72.5006L421.604 72.9454L422.715 72.8898L423.994 74.1128L424.883 75.2803L425.884 77.226L426.995 78.5047L429.274 79.8945L431.275 80.6728L432.387 81.8402L432.609 83.1189L432.553 84.1751L433.387 84.8979L435.444 86.1765L436.444 86.1209L439.001 86.4545L439.501 86.1209H440.446L442.28 86.3989L443.503 85.8985L444.837 85.7318L445.559 86.1765L445.337 86.7324L445.504 87.6219L447.338 90.2348L448.227 92.0138L449.728 94.3487L449.172 96.0165L449.339 97.7954L449.117 98.9629L449.45 100.075L450.173 100.631L451.006 101.02L451.896 101.187L452.896 101.52L455.175 100.797L455.953 100.909L456.453 101.854L456.676 102.521L457.176 102.41L458.51 99.9636L458.343 98.9073L458.51 97.9066L459.01 97.0727L461.678 93.6815L462.123 93.07L462.678 92.5697L466.68 88.0667L468.014 86.8436L469.404 86.0653L470.738 86.1209L471.905 86.5656L472.794 87.2884L473.461 88.1222L474.795 88.9561L483.132 91.1799Z" fill="#009649" stroke="white" stroke-width="2" stroke-linejoin="round"></path>
<path class="region" data-country-region="North Region" d="M434.777 32.3622V34.1412L435.388 34.6416L435.5 35.6978L435.889 36.6985L435.5 37.866L434.443 39.2002L433.221 40.5344L431.887 41.5907L430.608 42.0354L429.552 42.2022L428.885 42.2578L428.218 42.7581L427.663 43.3697L426.106 44.2592L424.661 45.649L423.939 45.8713L423.105 46.5941L421.326 47.0388L419.992 47.7615L418.214 48.4842L415.657 48.8178L412.767 49.874L410.655 52.0422L408.987 51.653L406.597 51.8198L405.152 52.0978L404.096 51.5974L402.706 51.1527L401.65 49.9296L400.261 48.651L399.483 47.6503L398.593 47.3724L396.982 47.7615L396.259 47.5947L395.314 47.5391L393.035 45.093L391.09 43.7588L390.145 42.9805L388.867 42.5914L385.476 41.9242L384.031 41.4795L382.753 40.7568L381.474 40.7012L380.418 40.4788L379.585 40.1453L378.64 39.5893L377.917 39.7005L376.139 40.1453L373.915 39.9785L375.416 34.7528L381.752 18.742L381.919 17.9081L381.975 16.8518L382.141 16.2959L382.864 14.5725L383.586 12.2932L383.753 11.5149L384.253 10.8478L384.309 10.4586L384.531 8.45726L384.809 7.45659L385.087 6.78948L385.754 6.06677L386.977 5.89999L390.145 6.34473L390.59 6.28914L391.535 5.34406L392.591 4.67694L393.202 4.51016L393.647 4.73253L394.258 4.45457L395.092 4.39898L395.87 4.62135L396.481 5.0105L398.538 3.78745L399.094 3.23152L400.372 1.78611L400.983 1.23018L401.706 0.896617H401.984L402.595 1.28577H402.873L403.096 0.618652H403.429L403.763 1.61933L404.152 2.45322L404.707 3.23152L405.43 3.95423L405.263 4.56576L405.374 5.62202L405.93 7.84574L406.097 9.68031L406.208 10.1806L406.708 10.8478L407.486 10.7922L407.709 11.1257L407.653 12.0152L408.265 14.2945L408.598 15.184L409.321 15.8511L410.821 16.9074L412.044 18.0749L414.99 22.2999L415.49 22.7447L416.379 22.8558L416.991 23.0782L417.658 23.5786L418.825 24.6348L419.826 26.0247L420.437 26.6918L421.938 27.1921L423.827 29.0267L425.217 29.805L430.164 31.306L434.777 32.3622Z" fill="#009649" stroke="white" stroke-width="2" stroke-linejoin="round"></path>
<path class="region" data-country-region="North Region" d="M313.498 130.706L312.053 131.54L311.386 132.596L310.552 136.543L310.608 138.712L309.997 141.047L308.162 143.215L306.217 144.827L304.605 145.772L302.993 147.106L301.604 147.773L300.159 149.052L298.936 149.83L297.491 151.22L297.546 153.166L298.436 155L299.547 156.779L303.494 159.114L303.994 160.393L303.605 162.672L301.548 165.396L297.546 174.236L295.712 175.181L293.489 175.403L289.487 174.736L285.374 174.513L283.373 174.569L279.538 173.235L278.148 171.567L277.648 170.122L276.537 168.732L272.034 167.842L266.865 168.954L265.142 168.621L263.975 168.176L262.53 167.231L265.754 163.895L266.421 162.45L266.81 160.838L266.865 160.17L267.032 159.67L268.311 158.058L268.811 156.946L269.089 155.667L269.255 151.442L269.089 151.22L268.477 150.886L268.311 150.608L268.366 149.719L268.588 149.052L269.533 147.217L269.811 146.439L269.867 145.605L269.589 144.938L268.977 143.937L268.755 143.27V142.547L269.422 141.269L274.536 136.933L278.482 132.207L281.872 129.817L283.04 128.705L286.93 123.368L291.321 118.531L291.599 118.031V116.641L291.933 116.085L294.767 112.694L295.379 112.583L295.712 112.972L295.99 113.083L296.824 113.028L297.491 112.861L298.769 112.194L299.992 111.193L302.048 108.636L303.271 107.635L304.716 107.024L309.441 105.912L312.776 104.466L313.887 106.579L314.221 107.969V109.914L313.721 111.693L313.054 112.361L312.665 113.028L312.442 113.639L311.831 114.195L310.942 114.529L309.997 114.973L309.496 115.863L309.052 116.864L310.497 120.366L310.942 124.035V125.592L311.275 126.481V127.371L311.942 128.76L312.665 128.983L313.109 129.261L313.498 130.706Z" fill="#009649" stroke="white" stroke-width="2" stroke-linejoin="round"></path>
<path class="region" data-country-region="South Region" d="M141.473 461.095L139.973 462.096L137.527 464.765L135.415 468.601L134.025 471.658L131.635 476.55L129.912 479.274L128.856 480.72L126.077 482.276L122.965 483.388L119.463 484.945L116.684 486.446L112.904 487.947L110.459 489.504L108.736 491.727L107.346 494.396L105.568 498.232L104.178 502.345L103.511 505.014L101.399 514.076L100.732 519.357L100.01 522.748L99.0091 526.918L98.2865 533.311V538.536L97.6195 541.539L97.2304 543.818L95.5074 546.431L94.1179 548.321L91.7279 550.934L89.6158 552.435L88.9488 553.936L86.8367 555.826L84.7802 558.828L83.0572 560.663L83.3907 562.164L83.7242 564.776L82.6681 567.445L81.6676 570.391L78.8886 574.116L75.776 576.006L71.2183 576.34H64.9932L60.102 576.006H54.2104L49.0413 575.283L44.1502 574.505L38.2585 574.116H34.0899L28.8653 574.839H15.359L10.1343 575.283L2.51964 576.729L0.296387 577.118L0.351968 576.173L1.79709 570.669L1.90825 569.057L1.79709 567.612L1.90825 566.778L2.46406 565.721L2.57523 565.332L2.63081 564.443L1.90825 563.609L2.13057 563.109L2.24174 561.941L2.90872 560.44L3.18662 558.884L3.52011 557.994L7.13291 550.545L8.41128 549.21L9.02268 547.765L10.0231 546.931L10.579 545.652L10.968 545.096L11.8017 544.763L12.1908 544.429L12.6355 544.374L13.1913 544.707L13.5804 545.152L17.3599 543.651L18.0269 543.095L18.7494 542.206L19.3052 541.261L20.528 536.924L20.5836 536.313L20.9171 535.868L22.6401 534.089L23.0848 533.533L23.5294 531.143L23.6406 527.974L23.8073 527.14L24.1964 525.806L24.4743 525.194L25.1969 524.194V523.804L24.9746 523.248L25.0301 522.581L25.4192 521.636L25.586 521.525L26.3641 521.414L27.1978 521.192L28.3094 520.191L29.4767 518.857L29.8101 518.134L30.0325 517.356L30.1992 516.522L30.2548 515.632L29.9213 514.743L29.2543 514.632L27.8648 515.021L28.0871 514.298L28.6985 513.075L28.9764 512.63L30.6439 511.129L30.8106 510.851L33.3674 504.847L33.7564 504.347L34.5901 503.68L36.1464 501.011L36.6467 498.454L36.9801 497.787L37.536 497.009L38.7588 494.785L40.4262 492.839L40.5374 492.617L41.3711 491.894L41.5378 491.505L41.8713 490.337L42.4271 489.448L42.9274 488.781L43.372 488.058L43.5388 487.113L43.6499 485.445L43.4832 484.722L43.0385 483.833L42.8162 484.111L42.9274 484.611L42.8162 485.167L42.5939 485.445L41.3711 486.224L40.5929 486.168L40.2595 486.224L39.7592 486.724L39.0922 487.613L38.592 488.892L38.1474 489.726L37.9806 490.449L37.5915 491.505L37.2581 491.95L35.6462 493.451L35.146 493.061L35.3683 492.45L36.1464 491.505L36.3132 490.949L37.5915 488.558L39.7592 485.556L39.926 484.945L40.982 483.666L43.5388 481.498L44.6504 481.109L46.1511 480.164L46.5957 479.719L47.763 479.608L48.6523 478.996L49.3748 478.163L49.9306 477.329L51.3757 475.661L52.3206 474.215L53.6546 473.215L54.2104 472.714L54.4883 471.992L54.7662 471.547L57.9344 468.934L59.8241 466.877L62.2141 463.208L63.1034 462.207L64.2151 461.151L64.882 460.762L65.549 460.373L66.2716 460.15L67.7723 459.928L68.4948 459.483L69.662 458.594V457.704L69.7732 457.482L70.1623 457.649L73.9418 458.594L77.6102 459.984L79.1109 461.095L80.1114 462.763L81.3342 463.986L82.946 464.542L84.3911 464.487L94.2846 462.041L99.9539 461.54L102.844 461.707L106.679 462.43L111.459 463.708L114.405 464.82L115.85 464.987L117.295 464.653L128.69 460.706L131.524 460.206L134.359 460.039L137.36 460.262L141.473 461.095Z" fill="#009649" stroke="white" stroke-width="2" stroke-linejoin="round"></path>
<path class="region" data-country-region="North Region" d="M425.217 236.833L421.604 238.779L418.658 241.003L414.823 244.394L411.155 246.895L407.764 250.565L405.319 255.29L402.206 260.349L398.538 265.074L395.147 266.186L392.257 265.074L391.034 261.461L386.643 262.017L382.53 262.851H373.081L370.636 263.129L366.078 252.733L365.411 250.453L365.745 249.008L368.023 245.228L368.19 244.06L366.856 243.56L364.8 243.171L363.855 241.781L362.799 237.834L362.688 236.11L363.633 233.164L364.3 231.83L362.354 229.272L359.631 227.16L357.741 226.437L354.851 227.104L353.294 227.827L352.183 229.884L350.96 230.885L349.237 231.163L346.625 231.218L344.401 230.384L341.733 230.273L340.288 231.719L338.788 234.331L337.787 236.5L336.564 238.334L332.896 237.667L331.618 237H330.395L329.172 236.777L326.115 237.222L324.336 238.278L322.836 239.39L321.502 240.836H315.888L314.276 241.392L313.22 242.948L312.498 244.95L311.219 246.173L309.663 246.784L307.773 245.728L305.606 245.672L302.771 246.117L300.436 247.785L295.379 248.007L293.266 247.34L290.821 247.507L289.876 248.897L289.32 250.12L289.431 251.343L289.876 252.232L289.098 253.289L288.82 254.345L288.931 255.457L289.042 262.628L289.598 264.963L290.543 267.076L290.765 268.299L289.876 268.91L288.764 269.188L287.486 269.8L282.762 267.743L279.093 267.965L275.758 269.021L274.202 270.856L273.257 272.691L272.535 272.524L271.923 271.745L270.812 271.801L267.81 272.468L266.032 273.08L264.031 273.302L262.363 273.08L260.751 273.135L258.25 274.914L256.527 275.192L254.86 274.636L253.248 273.914L251.136 274.747L250.246 275.859L249.746 277.527L248.19 279.306L246.356 279.028L244.633 279.528L242.91 280.362L240.353 282.753L238.685 282.864L237.296 281.975L236.462 281.196L235.517 280.807L234.628 280.585L232.182 280.696L229.904 279.473L231.682 276.804L232.571 275.637L233.238 275.081L234.572 274.636L235.128 274.025L235.962 272.635L236.796 271.523L237.24 270.856L237.574 269.744L238.797 268.855L239.297 267.743L240.742 265.63L240.909 265.185L241.02 264.296L241.187 263.407L241.52 262.628L241.909 262.017L243.577 260.46L244.021 259.348L245.466 257.402L249.968 252.455L253.526 246.173L255.693 240.947L256.027 239.446L256.638 234.331L257.25 231.663L257.361 230.829L257.194 229.773L256.805 229.217L256.305 228.883L255.693 228.216L255.304 227.549L254.415 225.548L254.137 224.213L253.859 223.991L253.081 223.824L252.748 223.491L252.136 222.434L249.635 220.711H248.912L248.079 220.489L247.578 219.933L247.69 218.376L248.412 216.875L249.301 215.43L249.968 214.096L250.191 213.206L250.246 212.706L249.857 211.983L249.968 210.927L249.857 207.313L251.803 208.703L253.192 211.316L254.471 212.595H256.082L258.083 211.538L259.417 210.482L262.919 210.704L266.976 210.482L270.2 211.872L274.146 211.983L276.759 211.538L278.259 210.871L279.705 209.648L283.262 207.424L284.707 206.98L285.652 207.591L286.263 208.592L286.43 209.982L287.097 210.649L287.986 210.593L289.932 210.148L292.433 209.87L300.659 209.815L305.439 208.369L307.44 207.536L310.33 207.98L311.997 207.869L313.498 206.702L315.054 204.089L316.944 201.865L319.223 200.031L321.613 198.807L323.336 198.474L324.67 197.529L336.509 191.914L338.51 190.246L339.733 188.801L340.733 188.134L341.4 187.578L342.845 188.412L344.068 189.357L346.236 189.801L348.403 190.58L351.683 190.635L354.684 189.801L356.574 188.189L358.186 185.632L365.856 182.408L367.579 182.018L369.858 180.462L380.64 175.069L387.366 170.399L389.311 167.842L394.425 166.23L396.87 167.509L397.426 170.121L395.703 173.179L392.535 177.071L391.757 179.739L393.202 180.295L395.092 180.406L397.648 179.739L399.427 180.184L401.539 180.962L403.207 182.741L408.487 186.466L409.876 188.968L409.154 193.471L406.708 201.198L406.486 203.755L406.764 205.757L405.708 208.592L404.818 209.481L404.652 210.927L404.763 212.817L405.819 213.651L406.986 214.985L407.598 216.486L408.82 218.265L410.154 219.766L410.043 221.767L409.376 223.491L409.654 225.992L411.655 227.716L413.434 228.439L416.213 230.718L425.217 236.833Z" fill="#009649" stroke="white" stroke-width="2" stroke-linejoin="round"></path>
<path class="region" data-country-region="South Region" d="M172.377 403.501L172.21 403.724L171.543 406.448V408.394L170.82 409.895L169.82 413.786L168.43 417.233L167.374 421.903L166.318 425.739L164.929 431.854L163.539 437.58L161.816 442.972L160.427 446.419L159.371 448.309L156.981 450.644L154.868 452.145L152.478 454.091L149.699 455.981L145.864 458.26L142.752 460.206L141.473 461.096L137.36 460.262L134.359 460.039L131.524 460.206L128.69 460.707L117.295 464.654L115.85 464.987L114.405 464.82L111.459 463.709L106.679 462.43L102.844 461.707L99.9539 461.54L94.2846 462.041L84.3911 464.487L82.946 464.542L81.3341 463.987L80.1113 462.764L79.1109 461.096L77.6102 459.984L73.9418 458.594L70.1623 457.649L69.7732 457.482L70.2178 456.593L70.996 455.536L71.8297 454.869L72.719 454.369L73.386 453.869L73.8306 453.09L74.1641 450.589L74.9978 448.365L75.2758 446.586L75.776 445.474L75.8872 444.974L75.6092 443.139L75.8872 442.528L75.6092 442.305L75.8316 441.749L76.1095 440.526L75.9983 439.303L75.7204 438.469L75.6092 437.969L75.6648 434.578L75.3869 433.633L76.443 429.185L76.7209 428.574L77.7769 424.682L79.3332 422.403L80.1113 421.68L81.1118 419.123L81.3341 417.4L81.7788 416.51L81.9455 415.287L83.3351 411.729L85.9474 408.004L86.8923 406.281L87.059 405.781L87.1702 405.002L87.726 403.279L88.0039 402.779L87.8928 402.167L88.2262 399.943L87.7816 398.22L88.1707 397.442L88.7265 395.83L90.6718 393.328L91.0053 393.05L92.6172 392.716L94.5069 391.66L97.3972 388.825L97.8974 388.158L98.2309 387.491L98.62 386.935L99.4537 386.601L103.289 386.156L103.956 385.878L107.569 383.988L113.849 379.43L118.073 376.65L120.13 374.315L122.242 370.09L122.909 367.977L123.632 364.864L124.632 362.585L125.633 357.637L126.3 356.192L129.134 351.911L128.912 351.077L129.412 350.855L131.246 346.407L132.414 342.405L132.469 341.571L132.636 340.848L133.303 339.347L133.47 338.513L133.636 337.791L134.025 337.401L135.081 336.901L136.193 335.956L137.471 335.511L138.027 334.844L139.528 332.454L140.306 329.618L140.695 328.784L141.251 328.229L141.918 327.839L145.197 326.561L151.478 325.504L156.48 325.616L162.705 323.559L172.21 321.891L172.543 321.613L173.321 320.835L174.1 320.557L181.881 317.166L181.937 317.277L184.549 322.614L186.05 324.893L189.829 331.898L190.163 333.677L185.772 335.678L181.27 338.513L180.825 338.68L176.823 342.071L173.155 347.353L168.986 359.917L165.207 368.033L163.484 370.646L157.425 376.928L155.98 379.485L154.868 382.432L154.479 383.933L154.257 385.545L154.424 386.935L154.868 388.269L157.036 394.384L158.87 403.613L172.377 403.501Z" fill="#009649" stroke="white" stroke-width="2" stroke-linejoin="round"></path>
<path class="region" data-country-region="North Region" d="M481.076 175.903L481.132 173.68L481.41 171.567L480.02 170.511L478.353 166.731L478.019 164.118L478.075 160.671L478.742 158.67L477.352 158.28L475.741 158.392L474.129 158.725L472.572 158.336L471.405 157.836L469.738 157.391H468.348L467.348 158.058L465.847 158.781L463.846 159.225L462.957 158.725L462.512 157.224L461.234 155.945L460.789 154.222L459.344 153.333L458.844 151.22L457.343 148.162L455.064 144.771L454.119 142.881L452.007 139.601L452.674 137.933L453.508 136.432L455.175 134.042L456.787 131.151L463.179 122.59L465.903 120.199L467.737 119.754L469.627 119.588L471.683 119.81L475.629 119.588L485.523 117.642L487.468 116.586L489.247 115.085L488.802 112.75L487.302 109.637L483.578 105.578L479.242 102.521L478.464 101.242L479.076 100.13L482.799 96.5722L484.578 94.0149L484.912 92.4583L484.245 91.7912L483.133 91.1797L479.965 84.4529L479.409 82.3404L479.631 81.1173L482.855 79.6163L483.8 78.1709L484.3 76.0584L483.411 73.6679L482.855 71.333L480.687 68.3865L479.909 66.8855L479.965 65.3289L480.243 64.8286L480.743 64.2727L483.3 62.5493L483.744 61.6042L484.3 61.2706L484.467 60.7703L485.301 57.9351V57.1568L485.801 56.5452L486.69 56.2673L487.468 56.3229L488.024 56.4896L488.469 56.1005L488.024 55.211L487.746 53.3208L487.19 52.4314L479.798 49.4849L477.241 49.6517L476.019 50.708L475.24 51.8198L474.073 53.2652L468.96 57.2123L467.792 57.2679L466.069 55.6557L465.069 55.1554L464.735 54.2659L464.68 53.432L464.958 52.6537L465.569 51.9866L465.625 51.0415L465.903 49.8185L466.014 48.651L465.458 46.7609L462.735 45.8158L461.345 45.4822L459.566 44.2592L458.566 42.9805L458.066 34.586L458.455 33.085L458.177 31.2504L459.344 31.1392L460.122 30.7501L460.456 30.0274L460.734 28.8599L461.512 28.0816L462.401 27.6925L463.29 27.8037L464.013 28.304L465.458 29.6382L466.181 30.1386L468.793 30.5277L469.682 31.0836H470.961L472.35 31.6396L474.129 31.8064L475.629 31.4728L479.909 29.9162L480.632 29.4714L482.244 27.8037L482.911 27.5813L483.578 27.8593L484.022 27.8037L485.134 26.6918L486.468 23.3006L487.357 22.022L487.302 21.5772L487.468 21.1881L487.802 21.0769L488.191 21.2993L488.358 21.6328L488.191 22.3555L488.302 22.8559L487.969 24.1901L488.524 26.0247L487.857 26.6918L487.969 27.9148L488.691 28.6931L489.692 28.304L490.192 29.0267L489.914 29.3603L489.747 30.0274L489.692 30.7501L489.803 32.1399L489.969 32.6958L490.803 33.8077L491.692 34.4748L492.915 34.864L495.416 35.1419L493.916 33.8633L491.248 30.8057L490.748 29.9162L490.914 29.5826L491.359 29.9718L493.082 31.8064L493.36 32.2511L494.972 33.9745L496.473 34.8084L498.251 35.4755L501.864 35.9758L503.42 35.809L504.254 35.5867L504.865 35.2531L505.588 34.4192L506.255 33.8633L506.922 33.6965L510.257 34.9752L511.035 35.1419L511.869 35.4199L512.758 35.9202L513.703 36.2538V37.9216L514.036 39.0334L514.703 39.8673L515.759 40.3121L517.038 41.2572L518.094 42.2578L519.261 43.0361L520.817 43.1473L521.262 43.4809L521.484 44.5927L521.651 45.1487L522.096 45.7602L523.93 46.8721L525.097 48.0395L528.765 50.3188L529.377 50.9859L529.266 51.3195L528.821 51.6531L527.987 53.5432L526.153 56.3785L525.875 57.1012L530.044 61.4374L531.322 61.8266L531.711 62.0489L527.987 66.552L529.321 68.1086L530.21 69.9987L532.712 77.7262L532.878 78.838L532.767 79.6719L531.155 86.4543L531.044 88.4L531.378 90.457L531.711 91.68V92.1248L531.433 92.7363L530.322 93.9593L530.21 94.6264L530.377 95.2936L530.933 95.6271L532.156 96.0718L532.767 96.5166L533.101 97.0169L534.657 100.797L534.824 102.187L534.379 103.299L533.879 104.077L533.212 106.412L532.767 107.468L532.378 108.525V112.583L532.712 113.973L534.49 115.641L535.102 116.864L535.546 118.142L536.269 119.199L537.158 120.032L538.214 120.755L538.77 121.311L538.992 122.201V123.146L538.77 124.48L538.437 125.203L538.214 125.481L536.713 126.537L541.438 134.487L542.55 135.432L544.773 136.266L554.444 143.771L555 144.716L552.999 146.939L551.832 147.829L550.553 148.385L549.108 148.552L548.552 148.885L547.997 149.608L547.663 150.331L547.163 151.832L546.551 156.057L546.496 156.779L546.273 157.169L545.495 157.891L545.384 158.114L545.495 158.781H546.107L547.385 158.28H548.052L548.775 158.503L549.33 159.003L549.497 159.837L548.83 161.338L547.441 161.616L533.49 161.004L510.479 159.893L503.476 159.559L497.251 161.338L490.803 161.838L488.802 163.006L491.192 169.399L492.693 173.402L486.579 174.236L481.076 175.903Z" fill="#009649" stroke="white" stroke-width="2" stroke-linejoin="round"></path>
<path class="region" data-country-region="South Region" d="M370.636 263.129L368.246 263.407L363.132 264.797L358.296 265.353L355.351 268.132L349.292 265.631L345.402 265.353L342.734 265.631L338.898 267.298L335.73 270.634L331.784 270.412L331.061 270.69L330.283 270.801L329.505 270.745L328.005 270.467L326.337 270.412L325.17 270.967L323.058 273.136L322.502 273.525L320.835 274.414L318.722 276.416L315.054 278.917L311.886 281.919L310.719 282.753L306.828 284.477L304.438 286.089L302.159 288.312L301.603 288.646L300.381 289.202L299.825 289.647L298.657 291.759L298.213 292.204L296.657 293.093L295.1 294.372L290.654 296.763L289.987 297.319L289.598 298.097L289.487 299.153V338.735H284.818L284.762 338.791L284.929 340.57L285.929 343.85L286.318 346.574L285.818 348.297L285.318 350.521L285.54 352.578L286.318 354.802L287.041 357.137V358.693L285.596 359.861L282.317 360.528L278.426 361.084H275.536L271.256 360.695L268.588 360.75H266.198L264.141 361.139L261.585 362.64L258.694 364.92L255.082 368.088L252.97 369.979L250.079 370.423H247.245L244.41 368.867L242.631 368.088L241.464 368.144L239.519 369.256L237.184 369.979H235.017L231.459 368.422L227.124 366.143L224.623 364.92L221.066 364.586L217.453 363.808L214.952 364.197H211.728L207.448 365.754L203.836 366.865L199.889 368.088L195.443 369.145L196.499 372.647L198.055 374.537V376.872L197.332 378.873L195.165 380.764L192.719 383.265L191.274 385.155L189.885 387.88L188.773 389.436L186.939 391.938L185.327 395.107L184.771 397.108L184.104 399.387L182.881 400.054L178.49 400.666L175.711 401.444L173.266 402.167L172.376 403.501L158.87 403.612L157.036 394.384L154.868 388.269L154.424 386.934L154.257 385.545L154.479 383.932L154.868 382.431L155.98 379.485L157.425 376.928L163.483 370.646L165.206 368.033L168.986 359.916L173.155 347.352L176.823 342.071L180.825 338.68L181.269 338.513L185.772 335.678L190.162 333.676L189.829 331.897L186.049 324.893L184.549 322.613L181.936 317.276L181.881 317.165L192.163 312.607L193.331 311.717L194.164 310.605L195.498 308.27L196.665 307.159L197.166 306.491L197.388 305.713L197.722 305.102L199.778 303.656L201.39 301.655L201.668 301.099L203.113 300.209L203.391 299.876L203.836 299.098L205.058 298.097L205.836 296.763L206.837 295.706L207.393 295.373L217.286 290.258L219.621 288.646L222.455 287.201L223.845 286.311L228.069 282.253L229.903 279.473L232.182 280.696L234.628 280.585L235.517 280.807L236.462 281.197L237.296 281.975L238.685 282.864L240.353 282.753L242.909 280.363L244.632 279.529L246.355 279.028L248.19 279.306L249.746 277.527L250.246 275.86L251.135 274.748L253.247 273.914L254.859 274.637L256.527 275.193L258.25 274.915L260.751 273.136L262.363 273.08L264.03 273.302L266.031 273.08L267.81 272.468L270.811 271.801L271.923 271.746L272.534 272.524L273.257 272.691L274.202 270.856L275.758 269.022L279.093 267.965L282.761 267.743L287.486 269.8L288.764 269.189L289.876 268.911L290.765 268.299L290.543 267.076L289.598 264.963L289.042 262.629L288.931 255.457L288.82 254.345L289.097 253.289L289.876 252.233L289.431 251.343L289.32 250.12L289.876 248.897L290.821 247.507L293.266 247.34L295.378 248.008L300.436 247.785L302.771 246.117L305.605 245.673L307.773 245.728L309.663 246.785L311.219 246.173L312.497 244.95L313.22 242.949L314.276 241.392L315.888 240.836H321.501L322.835 239.391L324.336 238.279L326.115 237.223L329.172 236.778L330.395 237H331.617L332.896 237.667L336.564 238.334L337.787 236.5L338.787 234.332L340.288 231.719L341.733 230.273L344.401 230.385L346.624 231.218L349.237 231.163L350.96 230.885L352.182 229.884L353.294 227.827L354.85 227.105L357.741 226.438L359.63 227.16L362.354 229.273L364.299 231.83L363.632 233.164L362.687 236.111L362.799 237.834L363.855 241.781L364.799 243.171L366.856 243.56L368.19 244.06L368.023 245.228L365.744 249.008L365.411 250.454L366.078 252.733L370.636 263.129Z" fill="#009649" stroke="white" stroke-width="2" stroke-linejoin="round"></path>
</svg>