<svg width="512" height="579" viewBox="0 0 512 579" fill="none" xmlns="http://www.w3.org/2000/svg">
<path class="region" data-country-region="West Region" d="M210.226 265.896L209.971 266.867L209.459 266.969H208.283L209.255 267.838L209.51 268.349L209.459 269.065L208.897 268.758L208.283 268.554L207.721 268.605L207.159 269.065L207.874 269.627L208.488 270.292L208.948 271.11L209.204 272.03V272.541L208.948 273.103L208.897 273.359V274.893L209.101 275.762L209.868 276.886L210.073 277.551L209.868 278.215L209.562 278.982L209.408 279.8L209.766 280.669L209.408 281.589L209.459 282.356L209.562 283.123L209.459 283.992L208.539 285.167L208.488 285.679L209.459 285.73L208.692 287.008L208.59 287.417L208.692 287.774L209.101 288.286L209.204 288.746L209.101 289.359L207.823 292.375L207.721 292.631L207.517 293.806L207.108 294.215L206.136 294.88L205.778 295.34L205.42 295.953L205.114 296.669L205.011 297.385L205.165 297.998L205.523 298.356L206.187 298.663L206.341 299.072L206.187 299.378L204.705 301.883L204.5 302.854L203.989 303.723L203.938 304.234L204.142 304.643L204.756 305.41L205.011 305.819L205.114 306.228L205.216 307.046L206.136 310.573L206.699 311.595L210.635 315.889L211.658 316.401L212.578 316.758L212.987 316.963L213.396 317.27L216.055 320.081L216.668 320.592L219.122 322.024L220.247 322.381L220.656 322.586L222.036 323.711L225.615 327.8L227.507 329.385L227.967 329.998L228.325 331.123L228.683 331.787L228.887 332.656L228.632 333.474L228.325 334.292L226.893 334.445L226.433 334.292H226.075L225.155 334.548H224.746L223.928 334.445L223.519 334.496L223.059 334.65L221.474 335.723L221.167 336.03L220.963 336.541V337.001L221.014 338.024L220.758 338.841L214.112 348.758L213.243 349.832L209.817 353.308L208.897 354.075L208.283 354.79L208.028 356.017L208.232 356.835L208.488 357.295L210.38 359.289L210.942 360.158L212.322 362.816L213.089 364.963L213.703 365.627L214.061 365.985L214.572 366.343L215.237 367.161L215.799 368.234L216.668 369.359L217.333 370.484L217.742 372.273L218.406 373.397L219.173 374.011L219.275 374.266V374.778L219.122 375.595L219.173 375.851L219.685 376.26L219.787 376.567L219.736 377.231L219.889 377.947L220.4 378.765L220.758 379.02L221.525 379.276L221.985 379.48L222.599 379.992L223.263 380.707L223.672 381.014L224.644 381.474L225.104 381.934L225.206 382.496L225.104 384.234L225.206 385.001L225.462 385.717V385.972L225.308 386.279L224.235 387.557L223.519 388.886L223.11 388.477L222.854 388.119L222.496 387.046L222.241 386.739L221.372 386.433L220.4 386.79L217.588 389.091L217.077 389.295L216.412 389.397H214.265L213.703 389.295L213.345 389.091L212.68 388.171L212.322 387.813L211.504 387.148L211.146 386.739L210.533 385.461L210.482 385.257L209.919 385.103L209.562 384.695L209.101 383.723L208.335 383.212H206.29L205.472 382.905L205.216 382.548L204.705 381.781L204.398 381.474L203.631 381.27L202.66 381.372L199.643 382.241L197.394 383.314L195.809 384.439L194.888 385.308L194.479 385.819L194.173 386.433L193.866 387.711L193.61 388.324L193.099 388.784L192.537 388.835L191.974 388.631L190.083 387.302L189.316 386.944L188.6 386.893L186.964 387.199L186.248 387.097L185.686 386.433L185.584 385.512V384.337L185.43 383.263L184.97 382.854L184.51 382.65L184.05 382.241L183.641 381.73L183.385 381.321L183.13 379.838L182.669 379.685L182.209 379.838H181.8L181.647 379.378L181.545 378.56L181.391 378.151L181.238 377.998L180.829 377.896L179.397 377.078L178.988 376.618L178.528 376.413L177.915 376.26L177.659 376.209L176.381 374.829L174.591 371.659L173.058 370.433L172.393 370.075L171.626 369.512L171.013 368.899L170.553 367.621L170.041 366.854L169.07 365.627L167.587 364.707L166.82 364.094L166.514 363.327L163.906 361.078L161.401 359.647L160.634 358.522H159.765L156.953 359.238L156.595 359.084L156.34 358.011L156.033 357.602L155.624 357.295L155.164 357.193L154.704 356.784L154.09 355.813L153.528 354.739L153.323 353.87H152.454L151.534 353.666L150.102 353.512L148.415 353.615L147.29 353.87L146.779 354.075L143.405 356.477L142.484 357.193L140.082 359.187L139.621 359.442L139.212 359.493H138.752L136.605 359.135L134.1 359.238L132.464 359.033L131.748 358.931L130.828 358.982L127.965 359.544L125.613 353.921L122.443 348.963L120.296 346.203L119.529 345.487L112.678 340.222L118.097 337.308L118.558 336.95L118.864 336.541L118.762 335.979L118.506 335.57L118.149 335.161L117.893 334.701L117.688 334.241L118.506 332.605L117.893 330.254L117.586 329.845L117.279 329.282L117.075 328.822V328.26L117.177 326.88L116.564 323.711L116.308 323.046L116.052 322.484L115.49 321.666L114.876 321.001L114.416 320.286L112.474 319.519L111.86 318.905L111.656 318.088L111.758 317.218L112.116 316.298L112.32 315.941L113.036 314.969L113.189 314.458L113.24 314.049L113.087 313.231L113.189 312.311L113.496 311.544L114.263 310.062L115.132 308.835L116.103 308.375L118.609 308.017L119.631 307.711L120.705 307.097L121.676 306.33L122.239 305.461L122.392 304.746L122.341 304.03L122.034 301.985V301.423L122.085 298.1L121.676 296.873L120.449 294.624L119.938 293.449L119.887 292.375L120.449 290.177L120.654 284.758L120.398 284.145L119.529 282.969L119.171 282.407L119.018 282.254L117.688 281.794L117.637 281.487L117.74 280.822L117.637 279.851L117.177 279.135L115.95 277.806L115.285 276.682L114.57 275.71L114.416 275.353L114.365 274.944L114.774 271.723V270.65L114.621 269.627V269.116L114.723 268.605L115.03 268.043L115.388 267.634L115.592 267.174L115.694 266.509L115.643 266.203L115.132 265.794L115.03 265.64L116.308 264.26L117.791 262.318L121.267 259.353L133.026 271.212L133.486 272.03L134.1 273.921L134.611 275.199L134.816 275.659L137.218 278.829L144.069 286.241L144.99 286.956L149.08 289.717L151.176 290.739L154.448 291.813L158.845 292.733L160.941 292.835L162.27 292.733L176.841 288.49L180.88 286.548L181.442 285.781L182.056 284.554L184.357 277.5V276.171L184.51 275.557L185.788 272.746L187.782 269.27L189.06 268.401L205.011 266.458L209.101 265.589L209.715 265.896H210.226Z" fill="#009649" stroke="white" stroke-width="2" stroke-linejoin="round"></path>
<path class="region" data-country-region="East Region" d="M338.399 164.528L338.348 164.58L316.006 177.564L279.042 198.982L255.678 212.477L241.26 216.72L239.266 217.64L240.238 221.73L240.289 226.739L240.493 228.989L240.442 230.215L240.289 231.033L240.033 231.647L239.829 232.72L240.289 234.765L240.595 235.481L241.925 237.576L243.459 241.921L247.855 248.771L248.264 249.18L248.673 249.487L249.696 249.845L250.258 250.203L250.77 250.918L251.025 251.481L251.23 253.576L251.536 254.19L253.479 256.235L253.939 256.541L254.399 256.644H254.911L255.32 256.899L256.598 257.973L257.058 258.228L258.387 258.842L258.694 259.046L259.052 259.404L259.512 259.966L260.023 261.04L260.892 262.164L261.097 262.573L261.199 263.033L261.25 264.107L261.353 264.771L261.557 265.589L261.966 266.151L263.04 267.378L263.449 267.685L263.96 267.89L265.443 268.298L266.261 268.656L266.158 268.81H265.289L210.227 265.896H209.715L209.102 265.589L205.012 266.458L189.061 268.401L187.782 269.27L185.789 272.746L184.51 275.557L184.357 276.171V277.5L182.056 284.554L181.443 285.781L180.88 286.548L176.841 288.49L162.271 292.733L160.941 292.835L158.845 292.733L154.448 291.813L151.176 290.739L149.08 289.717L144.99 286.957L144.07 286.241L137.219 278.829L134.816 275.659L134.612 275.199L134.1 273.921L133.487 272.03L133.027 271.212L121.268 259.353L119.58 257.615L111.196 249.691L110.327 248.107L109.662 247.544L108.793 247.136L108.231 246.829L107.77 246.369L107.464 245.858L107.31 245.397L107.259 244.937V244.528L107.566 242.688V242.177L107.464 241.564L104.805 236.145L103.68 234.458L102.658 233.282L102.095 232.771L101.738 232.158L100.971 230.573L100.511 230.011L100.05 229.653L99.5392 229.551L99.0279 229.602L98.0565 229.704L97.4941 229.653L97.034 229.5L96.6761 229.295L96.0626 228.784L95.4491 228.426L94.8356 227.659L94.2732 226.075L94.1709 225.155L94.1198 224.49L94.2732 223.57L94.4777 222.701L94.6311 221.065L94.5799 219.276L94.3754 218.356L94.0176 217.64L92.0237 215.8L91.2056 214.675L90.0809 211.966L89.8764 211.608L90.2342 210.842L90.4899 210.535L91.1545 209.921L91.4613 209.564L91.8192 208.695L91.8703 207.877L91.6146 207.059L91.1034 206.241L90.1831 205.321L90.0297 204.912L89.9786 204.094L89.9275 203.838L89.4162 203.276L88.8539 201.691L88.5982 200.874L88.496 200.056L88.6493 199.238L89.1606 198.829L90.4899 198.215L91.0523 197.653L91.2056 196.937L91.1545 196.222L90.7455 194.79L90.8989 192.183L90.4387 188.861L90.3876 188.35L89.8764 186.407V185.691L91.0011 180.631L91.3079 179.966L91.7169 179.404L92.0748 178.739L92.2282 177.87L91.6146 176.746L91.6658 175.928L92.177 174.19L92.5349 173.321L93.0973 172.759L93.7619 172.35L94.2732 171.787L95.0912 170.407L96.8295 168.158L97.1874 167.442V166.573L96.4716 165.449L95.7558 161.564V160.03L96.3694 158.599L98.2099 155.838L98.8234 155.123L100.255 153.998L103.68 149.96L103.834 149.551L103.987 148.733L104.192 148.324L104.498 148.017L105.265 147.659L105.623 147.353L107.259 144.337L107.975 143.672L108.793 143.519L109.509 143.621L110.071 143.417L112.116 138.509L114.417 128.644L114.519 127.519L114.315 126.65L113.65 124.81L114.775 123.276L115.286 122.407L115.337 121.691L114.979 121.027L114.928 120.516L114.877 117.858L114.979 117.04L115.286 116.273L115.899 115.353L116.257 114.535L116.104 113.819L115.797 113.104L115.644 112.235L115.951 111.314L116.513 110.394L116.922 109.423L116.82 108.401L116.513 107.327L116.564 106.407L117.229 104.465L117.382 102.675L117.178 100.529L116.564 98.4327L115.695 96.848L115.081 96.1323L114.826 95.8768L114.161 96.1835L113.906 96.0812L113.548 95.3656L113.343 94.2921L113.497 93.4231L114.212 93.2697L114.979 93.372L115.746 93.1164L116.411 92.7074L116.922 92.1451L117.433 91.1739L117.229 90.5605L116.717 90.1004L116.257 89.3847V88.5668L116.82 88.209H117.638L118.353 88.3113L119.171 88.2601L119.683 87.749L120.194 87.0333L120.756 86.471L121.472 86.2665H122.904L123.619 86.0109L124.182 85.1931L124.233 84.1707L123.926 82.0748L124.182 81.3081L125.204 80.1323L125.358 79.3145L125.204 78.241L125.255 77.2186L125.716 76.3496L126.636 75.9918L130.47 75.7362L133.333 76.0429L134.407 75.6851L136.657 74.3049L139.571 73.9982L140.849 73.6403L141.053 72.7713L141.156 71.9023L143.456 71.34L143.916 70.5221L143.661 69.9598L143.201 69.5509L142.894 69.0397L143.047 68.0173L143.405 67.3528L144.939 65.4103L145.246 64.6435L145.195 63.9279L144.888 62.3432L144.99 61.372L145.501 61.2186L146.268 61.4231L146.933 61.4742L147.955 60.6563L148.16 59.225V57.6914L148.62 56.4135L149.029 55.8512L149.643 56.2601L150.307 55.9023L150.818 55.1355L151.33 53.3975L151.841 52.4263L152.199 51.5573L151.892 50.8927L151.432 50.7905L150.563 51.1483H150.154L149.847 50.995L149.591 50.6883V50.4327L150.921 49.9726L152.659 48.5924L153.63 48.2346L155.215 48.4902L157.005 49.1036L158.487 49.1547L159.05 47.979L158.845 47.1611L158.334 46.3943L157.669 45.832L156.902 45.6275L156.493 45.2697L156.8 44.4518L157.363 43.6851L157.874 43.3272L158.334 43.5828L158.947 44.1451L159.408 44.7585L159.612 45.2186L160.123 45.4231L161.248 45.1675L163.037 44.4518L164.009 43.7362L164.418 43.0205L164.469 42.2026V41.1291L164.265 40.209L163.958 39.2889L164.06 38.6244L165.031 38.3176L165.901 38.471L166.821 38.8288L167.741 38.9311L168.661 38.471L169.479 37.7042L170.297 37.1419L173.927 35.3528L174.234 34.995L174.49 34.126L175.154 33.2058L175.921 32.3879L176.484 31.9279L177.199 31.6723L179.398 31.3145L179.5 31.6723L179.705 31.9279L178.733 33.7681L178.12 34.3304L177.097 34.5349V34.8416L177.608 35.6084L177.711 35.864L177.455 36.4774L177.404 36.733L177.557 37.5509L177.711 37.9087L177.864 38.0621L177.966 38.5221L177.711 40.618V41.2825L178.426 42.0493L179.142 42.5093L179.756 43.1228L179.96 44.3496L179.909 45.0652L179.602 46.701L178.989 48.6435L179.193 49.2058L180.829 49.6659L181.596 50.1771L182.261 50.8416L182.568 51.455L182.823 55.1355L182.925 55.34L183.386 55.9023V56.4135L183.232 56.8224L182.261 57.5892L181.596 58.6116V59.3783L181.801 60.094L181.954 60.963L181.647 61.7298L180.062 63.0077L179.398 63.7234L179.244 64.7969L179.807 65.4614L180.523 65.9726L180.88 66.5349L180.625 67.1994L180.062 67.5061L179.653 68.0173L179.705 69.0397L180.267 69.8065L181.136 70.471L181.903 70.88L182.261 71.1867L182.107 71.6978L181.392 72.5668L181.136 73.078L181.085 73.487L181.136 73.8448L182.568 77.5253L183.692 78.7522L185.124 78.3432L186.146 78.9055L186.607 79.2633L186.862 79.8256V80.2346L186.555 81.0013V81.5637L186.76 82.126L186.964 82.2793H187.22L187.731 82.4838L188.652 83.0972L188.907 83.455L187.936 83.8128L187.834 84.1707L187.987 85.2442L187.936 85.6531L187.527 86.3176L187.476 86.7266V88.2601L187.731 88.8736L188.294 89.487L189.061 90.0493L189.572 90.2026L189.93 89.7937L190.134 87.749L190.288 87.1867L190.594 86.8288L191.157 86.6755L191.31 87.0844L191.157 88.0557L191.77 88.618L192.537 88.9247L193.151 89.3336L193.56 90.7138L194.122 91.6851L194.327 92.1451V92.5541L194.275 93.4231L194.327 93.832L194.531 94.7522L194.736 95.1611L195.707 95.57L196.014 95.979L196.065 96.5413L195.86 96.9502L195.298 97.7681L195.247 98.5349L195.502 99.2506L196.014 99.7617L196.627 100.068L197.292 100.222L199.03 100.324L199.899 100.477L200.768 100.835L201.689 100.937L202.609 100.631L203.12 100.835L203.887 100.989L204.603 101.295L204.91 101.909L205.114 102.778L205.574 103.596L206.904 105.027L206.597 105.64L206.801 106.1L207.261 106.305L207.773 106.152L207.875 105.845L208.028 104.669L208.182 104.413L208.897 104.362L209.051 104.618L209.255 105.334V105.691L208.949 106.203L208.897 106.458L209.051 106.714L209.511 107.225L209.92 107.634L210.942 108.247L212.936 109.116L213.448 109.219H214.521L214.777 109.27L215.493 109.832L216.362 110.292L216.464 109.985L217.282 110.139L217.947 110.752L218.1 111.059L218.151 111.57L218.1 112.541L217.896 113.461L217.129 115.148L217.231 115.915L217.487 116.068L218.407 116.375L218.816 116.631L219.174 116.989L219.634 117.909L219.992 118.369L220.554 118.931L221.168 119.493L221.986 119.851L222.957 120.005L224.644 119.647L225.309 119.851L225.718 121.18L226.076 121.283L226.485 121.18L226.996 120.925L227.456 120.413L227.865 120.26L228.734 120.158L229.45 120.413L230.064 120.771L231.239 122.049L231.7 122.203L232.109 121.794L232.722 120.874L233.387 121.589L235.892 121.691L236.761 122.918L237.579 122.816L238.908 122.305L239.42 122.509L239.829 122.867L240.289 123.174L241.004 123.225L241.516 122.765L242.027 121.998L243.459 120.209V120.005L244.174 119.902L245.452 119.493L246.066 119.391L252.048 120.26L252.15 120.362L254.451 121.589L256.189 123.021L256.905 123.378L257.825 123.481L258.336 123.532L258.796 123.583L259.256 123.787L259.665 124.094L259.972 124.554L260.074 125.372L260.228 125.832L260.535 126.088L260.944 126.241L261.25 126.394L261.353 126.906L261.506 127.161L263.091 128.337L264.011 128.592L264.522 128.797L265.749 129.768L266.261 129.973L269.226 129.921L269.686 129.819L269.839 129.513L270.248 129.155L271.118 128.49L271.322 128.439L271.987 128.49L272.191 128.337L272.396 127.826L272.549 127.621L273.725 127.11L273.827 127.059L274.339 127.11L275.157 127.519L276.435 127.826L276.844 128.439L277.15 129.973L277.304 130.228L277.611 130.484L277.713 130.688L277.406 131.199V131.711L277.559 131.864L278.48 132.682L278.94 133.193L279.144 133.653L279.247 134.573L279.605 135.442L280.065 136.056L280.576 136.413L281.036 136.618H281.445L281.803 136.516L282.161 136.311L282.519 136.158L282.723 136.413L282.877 136.822L285.075 139.685L285.177 139.992L285.382 140.196L286.302 140.298L286.609 140.401L286.813 140.605L286.864 140.963L287.069 141.679L287.631 142.292L288.347 142.803L289.165 143.212L289.216 142.343L289.676 142.139H290.392L291.159 141.985L291.721 141.679L292.13 141.321L292.642 141.27L293.46 141.73L293.869 142.088L294.124 142.445L294.278 142.803L294.38 143.826L294.533 144.03L298.163 145.615L300.771 145.564L301.64 145.717L302.202 146.126L303.378 147.455L303.48 148.12L303.634 148.171H304.349L305.065 148.631L305.423 148.784L307.366 148.989L307.928 148.937L308.388 148.529L309.258 148.835L309.922 148.682L310.536 148.375L312.121 147.966L312.53 147.915L312.99 148.017L314.114 148.784L314.166 147.813L314.575 147.915L315.546 149.091L315.955 149.244L316.313 149.142L316.569 149.193L316.671 149.806V152.72L316.824 153.436L317.233 154.049L318.102 154.714L319.994 156.759L320.556 157.065L320.607 157.219L321.221 158.241L321.477 158.394L322.397 158.854L323.113 159.314L325.158 161.308L325.567 161.615L326.385 162.075L326.691 162.382L326.845 162.688L327.714 165.551L328.225 166.011L329.145 166.164L329.964 165.96L330.833 165.704L331.651 165.551L332.469 165.858L333.287 165.398L334.207 165.04L335.281 164.784L338.246 164.528H338.399Z" fill="#009649" stroke="white" stroke-width="2" stroke-linejoin="round"></path>
<path class="region" data-country-region="West Region" d="M181.545 378.56L181.647 379.378L181.801 379.838H182.21L182.67 379.685L183.13 379.838L183.386 381.321L183.641 381.73L184.05 382.241L184.51 382.65L184.971 382.854L185.431 383.263L185.584 384.337V385.512L185.686 386.433L186.249 387.097L186.965 387.199L188.601 386.893L189.316 386.944L190.083 387.302L191.975 388.631L192.537 388.835L193.1 388.784L193.611 388.324L193.867 387.711L194.173 386.433L194.48 385.819L194.889 385.308L195.809 384.439L197.394 383.314L199.644 382.241L202.66 381.372L203.632 381.27L204.398 381.474L204.705 381.781L205.216 382.548L205.472 382.905L206.29 383.212H208.335L209.102 383.723L209.562 384.695L209.92 385.104L210.482 385.257L210.534 385.461L211.147 386.739L211.505 387.148L212.323 387.813L212.681 388.171L213.345 389.091L213.703 389.295L214.266 389.397H216.413L217.078 389.295L217.589 389.091L220.401 386.79L221.372 386.433L222.241 386.739L222.497 387.046L222.855 388.12L223.111 388.477L223.52 388.886L223.929 389.295L224.338 389.858L224.491 390.42V390.982L224.389 391.647V392.362L224.542 392.925L225.104 394.049L225.36 394.663L225.667 395.838L225.974 396.35L226.792 397.065L227.712 397.525L228.53 398.088L229.092 399.11L229.246 399.672L229.297 400.286L229.399 400.899L229.706 401.359L230.217 401.666L230.831 401.768L232.058 401.87L232.722 402.075L233.08 402.484L233.438 402.995L233.898 403.455L234.767 403.711L235.023 404.017L236.761 410.151L236.863 410.663L237.068 411.174L237.426 411.532L238.09 411.736L238.857 411.787L239.624 411.685L240.238 411.532L240.8 411.276L241.158 410.867L241.465 410.356L241.669 409.743L242.078 406.522L242.538 405.602L243.05 405.193H243.561L244.686 405.551L245.555 405.602L248.162 405.295L248.571 406.011L247.549 413.372L247.446 416.081L249.236 446.803L249.389 447.263L250.003 448.592L251.741 466.586L252.303 468.477L253.224 468.58L255.831 468.631L257.774 469.04H258.183L258.745 468.835L259.001 468.58L259.717 467.506L260.023 467.148L260.381 466.944L260.79 466.79L261.608 466.688L262.171 466.433L262.733 465.973L262.989 465.615L263.5 464.848L263.807 464.541L264.165 464.388L264.676 464.797L265.238 465.666L266.516 468.784L266.874 469.346L267.59 469.602L312.581 469.449L311.661 470.778L310.127 473.078L309.769 474.305L310.025 493.116L243.203 493.065L239.317 492.963H238.448V492.81L237.63 492.043L237.324 491.583L237.426 491.123L237.733 490.612L237.426 490.509L236.71 490.663H235.483L235.125 490.407L234.972 489.589L234.614 489.282L233.796 489.078H232.927L232.262 489.282L231.751 489.334L231.188 488.976L230.677 488.362L230.422 488.26L230.064 489.027L229.961 489.691L229.91 490.765L230.166 493.474L230.115 493.985L229.655 494.65L229.501 495.366L229.297 495.723L229.246 495.979L229.501 496.644V496.899L229.45 497.768L229.246 498.484L228.734 499.148L228.325 499.404L227.661 499.455L226.536 499.097L226.025 498.995L223.468 499.302L222.702 499.148L221.168 498.484L219.685 497.206L219.072 496.848L218.305 496.746L217.487 496.848L216.209 497.155H215.544L215.186 496.899L214.879 496.541L213.908 494.19L213.806 494.036L212.988 493.116L212.783 492.861L212.323 492.401L211.556 491.941L211.3 491.583L211.045 490.918L210.789 490.612L210.585 490.509L209.818 490.458L209.358 490.356L208.795 490.049L208.335 489.896L208.028 489.998L207.722 490.203L207.313 490.816L206.955 491.532L206.341 492.452L206.086 493.116L206.034 493.679V494.497L205.983 494.701L205.677 495.366L205.472 496.132L205.319 496.388L205.012 496.695L204.347 497.001L203.529 497.257L203.018 497.461L202.66 497.308L202.2 496.848L201.587 496.541L201.229 496.286L200.717 495.621L200.36 495.366L199.848 495.212L199.695 495.11L199.49 494.394L199.337 494.19L198.979 493.985H197.957L197.548 493.781L197.036 493.372L196.832 493.321L196.167 493.525L195.809 493.576L195.349 493.065L194.787 493.116L194.48 493.065L193.151 491.481L192.844 491.174L192.384 491.072L191.566 491.378H191.055L190.339 491.174L189.623 490.663H189.367L189.112 490.816L188.856 491.123L188.652 491.685L188.089 499.864L187.374 502.369L187.322 502.829V504.618L187.425 505.538L186.249 514.535L186.095 517.142L182.619 514.535L176.739 508.145L176.024 506.458L175.972 506.203L175.921 505.078L176.381 500.375L176.126 499.148L176.075 498.586L176.177 497.666L177.966 491.429L178.222 485.806L179.347 483.915L179.654 483.148L180.165 480.541L180.369 479.877L183.539 472.26L180.625 460.401L180.472 459.481V457.896V457.487L180.932 456.005L181.136 455.596L182.721 453.295L182.926 452.528L182.67 451.557V450.586L182.823 450.33L183.028 450.177L183.488 450.024L183.846 449.819L184.562 449.104L185.431 448.439L186.351 448.03L187.629 447.877L188.549 447.57L192.844 447.212L193.56 447.059L201.433 442.56L204.705 439.084L206.137 437.091L206.495 436.528L206.188 435.608L205.268 433.87L201.74 429.167L201.331 428.298L201.075 427.481L201.024 426.612L201.178 425.691L201.382 424.925L201.433 424.567V424.158L200.973 423.544L200.717 423.238L200.564 423.289L200.411 422.369L199.899 421.346L199.286 420.477L198.57 419.864L197.445 419.557L196.167 419.659L192.946 420.733H191.975L191.77 420.426L191.566 420.375L191.259 420.58L190.441 420.835L189.419 420.477L186.913 419.046L186.249 418.535L185.533 418.126L183.692 417.768L182.977 417.308L182.363 416.746L180.318 415.314L179.858 414.803L178.938 413.372L177.813 412.554L177.2 411.992L176.944 411.429L176.79 410.254L176.586 409.691L176.381 409.334L176.075 409.078L174.745 408.209L174.081 407.033L173.314 404.886L173.365 404.426L173.518 404.068L174.234 402.842L175.257 401.104L175.563 400.797L176.126 400.337L176.279 399.826L176.126 399.161L176.024 398.599L175.87 398.088L175.666 397.628L175.001 397.014L174.797 396.656L174.694 396.145L174.745 395.787L174.899 395.429L176.433 394.1L177.097 393.64L177.609 393.027L178.069 392.311L178.222 391.8L178.273 391.34L178.069 390.624L177.915 390.42L177.506 390.164L177.046 390.011H176.79L174.95 390.471L174.132 390.778L169.582 393.078L169.173 393.129L168.661 392.925L168.457 392.413L168.559 392.158L168.815 391.698L168.968 391.493L169.94 390.624L170.298 390.267L170.502 389.653L169.633 384.848L169.531 383.008L169.786 380.912V380.452L169.633 380.094L169.173 379.787L168.304 379.378L167.69 378.918L167.332 378.458L167.128 377.947V377.538L166.872 375.953L166.974 375.544L167.332 375.238L167.792 375.135L167.946 375.187L168.15 375.698L168.457 375.953L168.968 376.005L169.633 376.362L169.888 376.413L171.116 376.362L171.678 376.516L171.985 376.822L172.291 377.487L172.752 377.794L173.212 377.691L174.388 377.129L174.848 377.027L175.41 377.282L178.58 378.356L179.551 378.765L180.165 378.867L181.545 378.56Z" fill="#009649" stroke="white" stroke-width="2" stroke-linejoin="round"></path>
<path class="region" data-country-region="West Region" d="M179.398 31.3143L177.199 31.6722L176.483 31.9278L175.921 32.3878L175.154 33.2057L174.49 34.1258L174.234 34.9949L173.927 35.3527L170.297 37.1418L169.479 37.7041L168.661 38.4709L167.741 38.931L166.821 38.8287L165.9 38.4709L165.031 38.3175L164.06 38.6242L163.958 39.2888L164.264 40.2089L164.469 41.129V42.2025L164.418 43.0204L164.009 43.7361L163.037 44.4517L161.248 45.1674L160.123 45.423L159.612 45.2185L159.407 44.7584L158.947 44.145L158.334 43.5827L157.874 43.3271L157.362 43.685L156.8 44.4517L156.493 45.2696L156.902 45.6274L157.669 45.8319L158.334 46.3942L158.845 47.161L159.05 47.9789L158.487 49.1546L157.004 49.1035L155.215 48.4901L153.63 48.2345L152.659 48.5923L150.921 49.9725L149.591 50.4326V50.6881L149.847 50.9949L150.154 51.1482H150.563L151.432 50.7904L151.892 50.8926L152.199 51.5572L151.841 52.4262L151.33 53.3974L150.818 55.1354L150.307 55.9022L149.642 56.26L149.029 55.8511L148.62 56.4134L148.16 57.6913V59.2249L147.955 60.6562L146.933 61.4741L146.268 61.423L145.501 61.2185L144.99 61.3719L144.888 62.3431L145.194 63.9278L145.246 64.6434L144.939 65.4102L143.405 67.3527L143.047 68.0172L142.894 69.0396L143.2 69.5508L143.661 69.9597L143.916 70.522L143.456 71.3399L141.155 71.9022L141.053 72.7712L140.849 73.6402L139.571 73.998L136.656 74.3048L134.407 75.6849L133.333 76.0428L130.47 75.7361L126.636 75.9917L125.715 76.3495L125.255 77.2185L125.204 78.2409L125.358 79.3143L125.204 80.1322L124.182 81.308L123.926 82.0747L124.233 84.1706L124.182 85.1929L123.619 86.0108L122.904 86.2664H121.472L120.756 86.4709L120.194 87.0332L119.683 87.7488L119.171 88.26L118.353 88.3111L117.638 88.2089H116.82L116.257 88.5667V89.3846L116.717 90.1003L117.229 90.5603L117.433 91.1738L116.922 92.145L116.411 92.7073L115.746 93.1163L114.979 93.3718L114.212 93.2696L113.496 93.423L113.343 94.292L113.547 95.3655L113.905 96.0811L114.161 96.1834L114.826 95.8766L115.081 96.1322L115.695 96.8479L116.564 98.4325L117.177 100.528L117.382 102.675L117.229 104.464L116.564 106.407L116.513 107.327L116.82 108.401L116.922 109.423L116.513 110.394L115.95 111.314L115.644 112.234L115.797 113.103L116.104 113.819L116.257 114.535L115.899 115.353L115.286 116.273L72.34 96.03L71.5731 95.8255V96.03L71.2152 97.1546L70.6529 98.1258L69.9371 98.637L68.9146 98.9949L67.8921 99.1993L67.0229 99.1482L65.8982 99.7105L62.7283 100.119L61.4502 100.733L60.7856 101.96L60.4788 105.027L60.1721 106.458L59.0984 107.634L54.1392 110.292L53.2189 111.57L51.2762 116.477L50.5093 117.755L49.998 118.062L49.1289 118.215L48.4642 117.96L47.8507 117.449L47.135 117.142L46.1124 117.295L45.6523 117.909L44.8343 120.26L44.6298 120.362L44.1185 120.925L43.8629 121.078L43.4539 121.18L42.0735 121.078L41.6134 121.027L40.5908 119.187L31.8483 103.647L23.1569 88.2089L10.0687 65.0012L4.9561 55.9533L4.49597 55.1865L7.61465 55.2888L9.25068 55.1354L12.0626 54.4198L13.443 54.6242L14.8745 55.0332L16.3572 55.2888L18.709 55.1865L22.0321 55.5955L23.5659 55.9533L24.9975 55.8L25.6621 55.9022L28.7808 57.2824H28.9341L30.519 57.2313L32.4618 57.7936L33.4843 57.8958L34.558 57.6402L35.6828 57.2313L36.8075 56.9757L38.0857 57.3335L38.7503 57.6913L38.0857 58.7137L37.6255 59.7361L37.3699 60.8095L37.5233 62.5987L37.6767 62.9565L37.9834 63.2121H38.7503L44.6809 61.9853L45.8568 61.423L48.0552 59.8383L49.8446 59.2249L50.5093 59.1226H51.225L51.9408 59.2249L52.5543 59.0715L53.8836 57.7936L54.6505 57.4357L56.5932 57.2313L57.309 56.9246L58.1781 56.3111L58.9962 55.4933L59.7119 54.5731L60.2743 53.653L61.348 51.1482L61.9615 50.3303L64.3133 47.8255L65.7448 45.014L66.3583 44.3495L67.3297 43.6338L68.6078 43.0204L69.3236 42.8159L70.0394 42.7137L71.2152 42.9182L76.2256 42.6626L76.8391 42.7648L77.4015 42.9182L78.2195 43.3782L79.8555 44.7073L80.6735 45.014L82.1051 44.6562L82.7697 43.4294L83.1787 41.8958L83.6388 40.6179L84.099 40.1578L85.3771 39.0843L85.8884 38.4198L86.7064 37.1418L87.1665 36.5795L87.8312 35.9661L88.6492 35.7105L90.1318 34.9949L91.8701 34.4326L92.6881 33.8703L93.455 33.2057L94.0174 32.3878L94.2219 31.9278V31.5699L94.3241 31.2632L94.7843 30.8543L95.1422 30.752L97.0338 30.7009L97.4939 30.6498L97.9541 30.4965L98.2608 30.2409L98.312 29.8319L98.0563 28.8607L98.1586 28.5028L98.7721 28.1961L99.6924 28.0428L101.431 27.9917L102.198 28.0939L103.834 28.554H104.549L105.061 28.2473L105.367 27.7872L105.623 27.276L105.93 26.9182L106.339 26.7648H107.208L107.668 26.6626L109.611 25.5891L116.359 18.5859L121.881 14.3431L122.648 13.9342L126.073 12.6051L126.482 12.3495L126.687 11.9917L126.942 11.0715L127.198 10.7137L127.658 10.5604L132.617 9.74246L135.174 9.89582L135.992 9.79358L136.81 9.53799L138.548 8.51563L139.264 8.26004L143.354 7.64662L144.121 7.33991L145.399 6.52202L146.115 6.21531L148.415 5.95972L148.927 6.36866L149.131 6.41978L149.387 6.26643L149.642 5.75524L149.847 5.60189L150.46 5.49965L151.176 5.75524L152.301 6.36866L152.863 6.52202L153.681 6.31754L155.522 5.19294L156.289 4.93735L157.056 4.88623L157.618 4.93735L159.356 5.3463L159.868 5.39742L160.328 5.09071L161.043 4.37505L161.299 5.03959L161.555 5.39742L161.759 5.55077L162.168 5.49965L162.322 5.09071L162.373 4.32393L162.679 3.50604L162.935 3.30157L163.191 3.86387L163.395 4.57952L163.6 4.83512L164.009 4.98847L165.594 4.32393L166.207 4.27282L166.054 5.24406L165.9 5.80636L166.105 5.9086H166.77L167.536 5.70412L167.792 5.85748L168.354 6.4709L169.633 7.28879L170.246 7.5955L170.962 7.74885H171.473L171.678 7.54438L171.78 7.28879L172.035 6.82873L172.087 6.41978L172.393 6.11307L173.058 5.95972L173.518 5.39742L173.927 4.784L174.132 4.37505L174.285 3.76163L174.541 3.35269L176.483 1.76802L176.995 1.10349L177.404 1.05237H178.528L179.295 1.35908L180.42 2.38144L181.034 3.6594L181.136 3.81275L181.698 5.70412L182.107 6.16419L182.67 6.67537L183.181 7.23767L183.385 7.90221L183.232 8.87345L182.312 10.6115L181.954 11.5316L181.852 13.2696L182.005 15.0076L182.363 16.6434L183.13 18.8415L183.283 19.7105L183.385 21.5508L183.488 22.0108L183.897 22.9821L183.999 23.4421L183.846 23.8511L183.13 24.9246L182.721 27.0204L182.21 27.9917L180.676 28.7584L180.062 29.5763L179.602 30.5476L179.398 31.3143Z" fill="#009649" stroke="white" stroke-width="2" stroke-linejoin="round"></path>
<path class="region" data-country-region="West Region" d="M181.545 378.56L180.164 378.867L179.551 378.765L178.579 378.356L175.41 377.283L174.847 377.027L174.387 377.129L173.211 377.691L172.751 377.794L172.291 377.487L171.984 376.822L171.678 376.516L171.115 376.362L169.888 376.414L169.632 376.362L168.968 376.005L168.457 375.953L168.15 375.698L167.945 375.187L167.792 375.136L167.332 375.238L166.974 375.545L166.872 375.953L167.127 377.538V377.947L167.332 378.458L167.69 378.918L168.303 379.378L169.172 379.787L169.632 380.094L169.786 380.452V380.912L169.53 383.008L169.632 384.848L170.502 389.653L170.297 390.267L169.939 390.624L168.968 391.493L168.814 391.698L168.559 392.158L168.457 392.414L168.661 392.925L169.172 393.129L169.581 393.078L174.132 390.778L174.95 390.471L176.79 390.011H177.046L177.506 390.164L177.915 390.42L178.068 390.624L178.273 391.34L178.222 391.8L178.068 392.311L177.608 393.027L177.097 393.64L176.432 394.1L174.898 395.43L174.745 395.787L174.694 396.145L174.796 396.656L175.001 397.014L175.665 397.628L175.87 398.088L176.023 398.599L176.125 399.161L176.279 399.826L176.125 400.337L175.563 400.797L175.256 401.104L174.234 402.842L173.518 404.068L173.365 404.426L173.314 404.886L174.08 407.033L174.745 408.209L176.074 409.078L176.381 409.334L176.586 409.691L176.79 410.254L176.943 411.429L177.199 411.992L177.813 412.554L178.937 413.372L179.858 414.803L180.318 415.314L182.363 416.746L182.976 417.308L183.692 417.768L185.533 418.126L186.248 418.535L186.913 419.046L189.418 420.477L190.441 420.835L191.259 420.58L191.565 420.375L191.77 420.426L191.974 420.733H192.946L196.167 419.66L197.445 419.557L198.57 419.864L199.285 420.477L199.899 421.346L200.41 422.369L200.564 423.289L200.717 423.238L200.973 423.545L201.433 424.158V424.567L201.382 424.925L201.177 425.691L201.024 426.612L201.075 427.481L201.331 428.299L201.74 429.168L205.267 433.87L206.187 435.608L206.494 436.529L206.136 437.091L204.705 439.084L201.433 442.56L193.559 447.059L192.844 447.212L188.549 447.57L187.629 447.877L186.351 448.03L185.43 448.439L184.561 449.104L183.845 449.819L183.488 450.024L183.027 450.177L182.823 450.33L182.67 450.586V451.557L182.925 452.529L182.721 453.295L181.136 455.596L180.931 456.005L180.471 457.487V457.896V459.481L180.625 460.401L183.539 472.26L180.369 479.877L180.164 480.541L179.653 483.148L179.346 483.915L178.222 485.806L177.966 491.429L176.177 497.666L176.074 498.586L176.125 499.148L176.381 500.375L175.921 505.078L175.972 506.203L176.023 506.458L176.739 508.145L182.618 514.535L186.095 517.142V518.573L185.942 519.545L185.226 521.487L184.663 522.509L184.101 523.123L183.948 523.276L183.692 523.992L183.59 525.321L183.488 525.679L182.823 526.394L182.567 527.11L182.158 529.206L182.618 529.41L183.13 529.922L183.59 530.586L184.05 530.995L184.357 531.353L185.021 532.375L186.095 534.471L186.606 535.187L187.066 535.647L187.527 537.027L188.6 542.394L188.702 542.497H187.936L176.79 542.65L174.592 542.394L171.678 541.985H171.32L170.911 542.394L170.604 542.548L164.776 543.212L163.497 542.803L162.27 541.934L156.902 535.545L155.982 535.033L152.147 534.369L151.943 534.113L151.432 531.915L150.154 530.535L148.313 529.615L144.785 528.439L144.07 528.695L142.076 536.107L141.667 540.35L141.462 541.014L141.206 541.525L140.951 541.474L140.44 541.576L140.082 541.781L139.775 542.139L139.468 542.599L139.315 543.008L138.292 543.826L132.771 545.41L127.863 546.791L127.709 546.995L127.505 547.608L127.249 547.66L126.584 547.455L125.766 547.353L125.306 547.199L124.846 547.148L124.284 547.404L123.312 548.222L122.801 549.142L122.494 550.164L121.983 553.538L121.676 554.561L121.165 555.225L121.012 555.634L121.267 556.912V557.372L120.807 557.73L116.104 559.212L114.979 559.775L114.11 560.695L113.752 561.308L113.19 561.666L112.525 561.819L111.605 561.768H110.889L111.247 566.011L111.144 566.982L110.684 567.698L107.566 570.203L106.288 571.685L104.191 575.263L90.9498 578.177L89.416 578.484L86.5018 578.688L80.0088 578.279L78.6796 577.819L78.3728 577.513L77.4525 576.081L77.248 576.132L75.612 575.775L75.203 575.11L74.9985 573.934V570.458L76.3789 563.711L76.3278 562.791L75.0496 560.286L74.6917 558.037L74.3339 557.065L72.749 554.049L72.4933 553.18L72.4422 552.26L73.158 549.449V548.58L72.749 547.455L71.5731 545.768L71.4197 545.308L71.5731 544.848L72.0843 544.081L72.2377 543.672L72.0843 542.701L71.6242 541.628L70.8573 540.656L70.0393 540.094L67.9942 538.1L66.9717 537.18L66.6139 536.669L66.4093 536.005L65.9492 528.592L65.0801 525.116L62.4727 520.311L62.1659 518.778L62.3704 507.838L61.7569 505.845L53.0655 491.276L52.4009 490.612L51.4806 490.407L49.6912 490.458L49.1288 490.407L47.2371 489.231L46.5214 487.391V481.564L46.8281 480.541L47.4416 479.621L50.3047 477.116L50.3558 476.299L49.1288 475.276L48.004 474.816L46.0612 473.538L41.7667 471.493L40.8464 470.778L39.9261 469.806L39.057 468.58L38.4435 467.199L38.2901 465.819L38.7503 464.695L39.7216 463.928L42.0734 463.059L40.4374 460.094L39.9261 458.612L39.9773 456.874L40.2329 455.596L40.0795 455.136L38.6991 454.829L37.421 454.062L37.3187 453.193L38.0345 452.426L43.1471 450.842L44.4252 450.739L45.0387 450.842L45.4989 450.944L45.8567 450.893L46.2146 450.433L46.4191 450.024L46.777 448.49L46.8281 447.621L47.6973 445.525L47.7995 444.912L47.7484 444.605L47.595 444.35L47.3905 443.736L47.3394 442.407L47.2883 442.1L46.9815 441.487L46.5725 441.18L45.2944 440.669L44.5786 440.107L43.2493 438.727L41.2554 437.142L40.9487 436.58L41.0509 435.762L41.6133 434.893L43.3516 433.308L44.0673 432.49L46.3169 429.065L46.5214 429.168L58.3826 433.461L77.5037 439.902L81.3381 440.618L83.5365 440.669L89.2115 438.727L102.197 433.104L114.928 427.583L123.67 423.596L125.306 422.676L128.323 420.324L133.384 415.723L135.123 414.752L136.094 414.343L144.939 413.73L150.051 413.321L151.278 413.065L151.738 412.861L152.147 412.503L152.352 412.145L152.403 411.685L151.636 410.305L148.569 406.676L146.472 403.864L144.888 400.797L144.785 400.541L142.894 394.663L142.689 394.203L142.178 393.691L141.564 393.18L139.417 392.311L136.759 392.056L133.077 390.727L131.85 389.96L128.323 387.148L127.863 386.791L127.607 386.484L127.3 385.973L125.818 382.752L125.306 381.934L125.204 381.679V381.116V380.656L125.613 378.663L125.715 378.152V377.385L125.664 375.953V375.698L125.818 375.391L126.278 374.982L127.198 374.522L128.221 373.858L130.112 372.937L131.339 372.12L132.259 371.046L131.339 370.739L130.419 370.791L130.01 370.688L129.141 370.33L128.681 370.228L127.607 370.279L126.482 370.484H125.971L125.46 370.382L124.028 369.768L123.619 369.461L123.312 369.104L123.057 368.644L122.852 368.081L122.801 367.11L123.057 363.021L123.364 362.305L126.227 361.385L126.738 361.129L127.198 360.771L127.607 360.414L127.965 359.545L130.828 358.982L131.748 358.931L132.464 359.033L134.1 359.238L136.605 359.136L138.752 359.493H139.213L139.622 359.442L140.082 359.187L142.485 357.193L143.405 356.477L146.779 354.075L147.29 353.87L148.415 353.615L150.102 353.513L151.534 353.666L152.454 353.87H153.323L153.528 354.739L154.09 355.813L154.704 356.784L155.164 357.193L155.624 357.295L156.033 357.602L156.34 358.011L156.595 359.084L156.953 359.238L159.765 358.522H160.634L161.401 359.647L163.906 361.078L166.514 363.327L166.821 364.094L167.587 364.707L169.07 365.628L170.041 366.854L170.553 367.621L171.013 368.899L171.626 369.513L172.393 370.075L173.058 370.433L174.592 371.66L176.381 374.829L177.659 376.209L177.915 376.26L178.528 376.414L178.989 376.618L179.398 377.078L180.829 377.896L181.238 377.998L181.391 378.152L181.545 378.56Z" fill="#009649" stroke="white" stroke-width="2" stroke-linejoin="round"></path>
<path class="region" data-country-region="West Region" d="M310.024 493.116L309.819 496.081L305.678 510.343L304.144 515.608L302.713 520.362L299.236 531.966L297.396 538.1L295.146 546.382L294.175 548.682L293.817 548.529L293.715 548.222L293.664 547.813L293.459 547.404L292.948 546.842L291.158 545.564L289.216 544.592L288.602 543.979L288.295 543.161V541.73L287.989 541.219L288.142 540.81V540.401L287.886 538.663L287.733 538.254L287.119 538.1L285.33 537.743L279.093 538.1L252.814 537.947L251.229 538.254L250.513 538.612L248.57 540.35L248.11 540.145L246.372 538.612L245.554 538.203L241.668 537.947L240.544 538.152L239.93 538.407L239.777 538.56V538.816L239.368 539.838L239.214 540.707L239.061 541.065L238.754 541.423L238.141 541.628L237.936 541.832L237.527 542.548L236.914 545.104L235.585 548.426L235.278 548.937L234.46 549.398L234.153 549.704L231.034 557.883L230.012 559.366L227.865 561.41L227.251 562.535L225.462 569.334L225.41 572.605L225.053 573.474L224.081 576.95L224.132 577.513L223.365 577.155L223.212 575.059L222.701 574.394L223.008 573.321L222.854 572.094L222.292 571.072L221.372 570.663L220.911 570.305L219.838 567.902L219.429 567.544L219.02 567.391L218.764 567.136L218.662 566.471L218.713 565.96L218.917 565.091V564.631L219.122 564.12L219.429 563.711L219.735 563.251L219.838 562.586L217.486 560.286L216.924 559.417L216.668 558.394L216.515 558.139L215.748 557.628L215.492 557.321L215.543 556.861L215.85 555.992L215.799 555.481L215.236 554.969L214.367 554.356L213.805 553.589L214.214 552.516L214.776 551.851L215.083 551.238L215.032 550.522L214.674 549.602L214.316 549.04L213.191 547.66L212.782 547.404L211.964 547.199L211.044 546.739L210.226 546.126L209.357 545.973L208.999 545.87L208.641 545.922L207.874 546.279L207.516 546.33L205.829 545.922L202.915 544.286L195.042 542.445L188.702 542.497L188.6 542.394L187.526 537.027L187.066 535.647L186.606 535.187L186.095 534.471L185.021 532.375L184.356 531.353L184.05 530.995L183.589 530.586L183.129 529.921L182.618 529.41L182.158 529.206L182.567 527.11L182.823 526.394L183.487 525.679L183.589 525.321L183.692 523.992L183.947 523.276L184.101 523.123L184.663 522.509L185.226 521.487L185.941 519.544L186.095 518.573V517.142L186.248 514.535L187.424 505.538L187.322 504.618V502.829L187.373 502.369L188.089 499.864L188.651 491.685L188.855 491.123L189.111 490.816L189.367 490.663H189.622L190.338 491.174L191.054 491.378H191.565L192.383 491.072L192.843 491.174L193.15 491.481L194.479 493.065L194.786 493.116L195.348 493.065L195.809 493.576L196.166 493.525L196.831 493.321L197.036 493.372L197.547 493.781L197.956 493.985H198.978L199.336 494.19L199.49 494.394L199.694 495.11L199.848 495.212L200.359 495.366L200.717 495.621L201.228 496.286L201.586 496.541L202.199 496.848L202.659 497.308L203.017 497.461L203.529 497.257L204.347 497.001L205.011 496.695L205.318 496.388L205.471 496.132L205.676 495.366L205.983 494.701L206.034 494.497V493.679L206.085 493.116L206.341 492.452L206.954 491.532L207.312 490.816L207.721 490.203L208.028 489.998L208.334 489.896L208.795 490.049L209.357 490.356L209.817 490.458L210.584 490.509L210.788 490.612L211.044 490.918L211.3 491.583L211.555 491.941L212.322 492.401L212.782 492.861L212.987 493.116L213.805 494.037L213.907 494.19L214.879 496.541L215.185 496.899L215.543 497.155H216.208L217.486 496.848L218.304 496.746L219.071 496.848L219.684 497.206L221.167 498.484L222.701 499.148L223.468 499.302L226.024 498.995L226.535 499.097L227.66 499.455L228.325 499.404L228.734 499.148L229.245 498.484L229.449 497.768L229.501 496.899V496.644L229.245 495.979L229.296 495.723L229.501 495.366L229.654 494.65L230.114 493.985L230.165 493.474L229.91 490.765L229.961 489.691L230.063 489.027L230.421 488.26L230.676 488.362L231.188 488.976L231.75 489.334L232.261 489.282L232.926 489.078H233.795L234.613 489.282L234.971 489.589L235.124 490.407L235.482 490.663H236.709L237.425 490.509L237.732 490.612L237.425 491.123L237.323 491.583L237.63 492.043L238.448 492.81V492.963H239.317L243.202 493.065L310.024 493.116Z" fill="#009649" stroke="white" stroke-width="2" stroke-linejoin="round"></path>
<path class="region" data-country-region="East Region" d="M312.58 469.449L267.59 469.602L266.874 469.346L266.516 468.784L265.238 465.666L264.676 464.797L264.164 464.388L263.806 464.541L263.5 464.848L262.988 465.615L262.733 465.973L262.17 466.433L261.608 466.688L260.79 466.79L260.381 466.944L260.023 467.148L259.716 467.506L259.001 468.58L258.745 468.835L258.183 469.04H257.774L255.831 468.631L253.223 468.58L252.303 468.477L251.741 466.586L250.002 448.592L249.389 447.263L249.236 446.803L247.446 416.081L247.548 413.372L248.571 406.011L248.162 405.295L245.554 405.602L244.685 405.551L243.561 405.193H243.049L242.538 405.602L242.078 406.522L241.669 409.742L241.464 410.356L241.158 410.867L240.8 411.276L240.237 411.532L239.624 411.685L238.857 411.787L238.09 411.736L237.425 411.532L237.068 411.174L236.863 410.663L236.761 410.151L235.023 404.017L234.767 403.711L233.898 403.455L233.438 402.995L233.08 402.484L232.722 402.075L232.057 401.87L230.83 401.768L230.217 401.666L229.705 401.359L229.399 400.899L229.296 400.286L229.245 399.672L229.092 399.11L228.53 398.088L227.712 397.525L226.791 397.065L225.973 396.349L225.666 395.838L225.36 394.663L225.104 394.049L224.542 392.925L224.388 392.362V391.647L224.491 390.982V390.42L224.337 389.857L223.928 389.295L223.519 388.886L224.235 387.557L225.309 386.279L225.462 385.972V385.717L225.206 385.001L225.104 384.234L225.206 382.496L225.104 381.934L224.644 381.474L223.673 381.014L223.264 380.707L222.599 379.992L221.985 379.48L221.525 379.276L220.758 379.02L220.401 378.765L219.889 377.947L219.736 377.231L219.787 376.567L219.685 376.26L219.174 375.851L219.122 375.596L219.276 374.778V374.266L219.174 374.011L218.407 373.397L217.742 372.273L217.333 370.484L216.668 369.359L215.799 368.234L215.237 367.161L214.572 366.343L214.061 365.985L213.703 365.627L213.09 364.963L212.323 362.816L210.942 360.158L210.38 359.289L208.488 357.295L208.233 356.835L208.028 356.017L208.284 354.79L208.897 354.075L209.817 353.308L213.243 349.832L214.112 348.758L220.758 338.842L221.014 338.024L220.963 337.001V336.541L221.167 336.03L221.474 335.723L223.059 334.65L223.519 334.496L223.928 334.445L224.746 334.548H225.155L226.076 334.292H226.433L226.894 334.445L228.325 334.292L228.632 333.474L228.887 332.656L228.683 331.787L228.325 331.123L227.967 329.998L227.507 329.385L225.615 327.8L222.037 323.711L220.656 322.586L220.247 322.381L219.122 322.024L216.668 320.592L216.055 320.081L213.396 317.27L212.987 316.963L212.578 316.758L211.658 316.401L210.635 315.889L206.699 311.596L206.136 310.573L205.216 307.046L205.114 306.228L205.012 305.819L204.756 305.41L204.142 304.643L203.938 304.234L203.989 303.723L204.5 302.854L204.705 301.883L206.188 299.378L206.341 299.072L206.188 298.663L205.523 298.356L205.165 297.998L205.012 297.385L205.114 296.669L205.421 295.953L205.779 295.34L206.136 294.88L207.108 294.215L207.517 293.806L207.721 292.631L207.824 292.375L209.102 289.359L209.204 288.746L209.102 288.286L208.693 287.774L208.59 287.417L208.693 287.008L209.46 285.73L208.488 285.679L208.539 285.167L209.46 283.992L209.562 283.123L209.46 282.356L209.408 281.589L209.766 280.669L209.408 279.8L209.562 278.982L209.869 278.215L210.073 277.551L209.869 276.886L209.102 275.762L208.897 274.893V273.359L208.948 273.103L209.204 272.541V272.03L208.948 271.11L208.488 270.292L207.875 269.627L207.159 269.065L207.721 268.605L208.284 268.554L208.897 268.758L209.46 269.065L209.511 268.35L209.255 267.838L208.284 266.969H209.46L209.971 266.867L210.226 265.896L265.289 268.81H266.158L266.26 268.656L265.442 268.298L263.96 267.889L263.449 267.685L263.04 267.378L261.966 266.151L261.557 265.589L261.352 264.771L261.25 264.107L261.199 263.033L261.097 262.573L260.892 262.164L260.023 261.04L259.512 259.966L259.052 259.404L258.694 259.046L258.387 258.841L257.058 258.228L256.598 257.973L255.319 256.899L254.91 256.643H254.399L253.939 256.541L253.479 256.234L251.536 254.19L251.229 253.576L251.025 251.48L250.769 250.918L250.258 250.203L249.696 249.845L248.673 249.487L248.264 249.18L247.855 248.771L243.458 241.921L241.925 237.576L240.595 235.48L240.288 234.765L239.828 232.72L240.033 231.647L240.288 231.033L240.442 230.215L240.493 228.988L240.288 226.739L240.237 221.73L239.266 217.64L241.26 216.72L255.677 212.477L279.042 198.982L316.006 177.564L338.348 164.58L338.399 164.528L338.604 164.58L339.728 165.653L340.137 165.857L342.131 166.318L344.023 166.113L345.812 165.449L348.675 163.966L349.289 164.017L349.954 164.273L351.436 164.58L352.305 165.091L352.817 165.295H353.226L354.197 164.988L356.958 165.091L357.367 164.835L357.622 163.966L358.236 163.557L360.025 163.302L360.179 163.148L360.69 162.842L361.201 162.739L361.457 163.148V164.886L362.275 165.755L364.115 166.113L366.16 166.215L367.49 166.522L368.308 167.289L368.614 167.493L371.477 168.72L377.715 173.679L379.146 174.445L380.118 174.65L380.373 174.752L380.578 174.957L380.782 175.468L380.987 175.672L381.345 175.877L384.515 176.643L385.23 177.052L385.537 177.87L385.639 179.046L385.895 180.222L386.253 181.346L386.662 182.266L387.02 182.624L387.94 183.391L387.991 183.647L387.787 184.107L388.042 184.362L388.707 184.72L388.809 185.078V185.334L388.451 186.151L387.889 188.145L387.48 189.116L386.713 189.73L385.742 190.036L385.435 190.241L385.23 190.854L385.026 191.826L384.975 192.797L385.128 193.359L385.691 194.33V195.455L385.537 196.631L385.588 197.806L385.997 198.573L388.298 200.465L388.656 201.18L389.269 203.889L390.65 206.957L390.854 208.797L389.576 209.206L390.241 210.637L392.286 212.017L392.797 212.988L393.717 232.618L393.513 233.129L380.68 233.282L382.879 235.225L390.292 244.171L394.126 248.771L394.689 249.742L395.047 250.816L396.376 266.049L396.887 272.49L397.501 282.1L398.319 283.941L399.597 284.298L410.435 284.707L426.387 285.27L434.362 285.576L442.287 285.883L458.238 286.445L469.23 286.854L470.15 286.701L471.02 286.292L471.326 285.883L471.889 284.81L472.247 284.605L474.036 284.656L474.445 285.014L474.65 289.257L474.496 289.87L473.525 290.688L473.474 291.455L474.343 293.04L473.78 294.624L469.588 299.429L468.872 300.758L468.566 302.241L468.719 304.132L469.588 307.404L469.69 309.091L469.639 309.397L469.23 310.215L469.128 310.624L469.179 311.135L469.588 313.282L470.304 314.611L470.559 315.429L470.815 318.496L471.02 319.161L471.48 319.928L471.684 320.899L471.735 324.784L471.94 326.471L472.707 327.749L474.292 328.618L475.621 328.771L476.03 328.925L476.439 329.18L477.155 329.794L477.615 330.049L477.922 330.203L478.637 330.305L478.995 330.509L479.455 331.123L480.12 332.605L480.785 333.065L481.347 333.218L481.807 333.27L482.267 333.423L482.83 333.781L483.954 335.059L484.415 335.365L485.897 336.03L486.408 336.286L488.249 337.819L489.425 338.33L491.01 338.739L492.595 338.842L493.822 338.484L494.742 338.33L495.458 338.433L496.429 338.842L496.992 339.404L497.401 340.426L497.503 341.5L497.452 342.522L497.554 343.238L497.503 344.925L497.605 345.742L497.963 346.56L498.372 347.123L498.883 347.634L499.497 348.043L500.161 348.35L499.803 349.73L499.957 350.241L500.724 351.161L501.337 352.234L501.235 353.001L499.957 353.155L503.842 359.953L505.99 365.321L507.421 368.03L509.108 368.95H509.926L510.642 369.103L511 369.512L510.949 370.484L508.086 370.535L507.319 370.688L506.757 371.199L500.212 392.26L497.758 400.081L499.446 400.235L499.855 400.592L500.059 401.461L500.315 404.119L500.519 406.011L498.219 406.215L497.503 406.675L492.339 417.461L488.198 426.254L483.443 436.426L483.75 437.653L490.294 443.685L494.538 447.57L494.077 448.132L493.617 448.848L493.004 449.512L492.083 449.973L491.01 449.666L490.345 449.615L490.038 449.819L489.936 450.177L489.681 450.535L489.272 450.79L488.76 450.893L487.738 451.302L486.408 453.244L485.335 453.653L485.028 453.806L484.568 454.573L484.312 454.829L483.801 455.135L482.012 455.8L481.961 454.624L482.625 452.273L482.676 451.353L482.625 449.461L482.727 448.49L482.574 447.059L481.858 444.503L481.807 443.123L481.909 441.64L481.756 440.976L481.347 440.465L471.889 434.586L464.066 429.73L456.295 424.873L446.377 418.688L443.923 416.95L443.105 416.746L431.806 416.899L423.933 417.001L416.059 417.104L404.76 417.257L384.31 421.704L370.148 424.771L355.986 427.889L341.824 430.957L332.366 432.388L331.702 432.695L331.344 433.206L329.401 438.675L325.873 448.49L323.726 453.091L320.914 457.334L312.58 469.449Z" fill="#009649" stroke="white" stroke-width="2" stroke-linejoin="round"></path>
<path class="region" data-country-region="West Region" d="M30.2122 282.049L29.3942 281.589L28.2183 281.947L26.8379 281.538L26.3777 281.487L25.9176 281.64L25.1507 282.305L24.6395 282.509H23.9748L24.3327 281.896L24.435 281.283L23.9237 280.976L23.0034 280.874L23.1568 280.567L24.3327 279.8L24.7928 279.238L24.8951 278.676L24.9462 278.164L25.2018 277.704L24.9462 277.142L23.3102 275.864L22.7989 275.097L23.6169 274.739L23.6681 274.842L24.6395 275.608L26.071 276.222L27.9626 277.295L28.8318 278.113L29.2408 279.084L29.5475 279.647L30.2633 280.005L31.7971 280.414L34.4556 282.714L35.0691 283.072L35.2225 283.225L34.9669 283.532L34.5579 283.838L34.0466 283.992L33.5354 283.941L33.2797 283.838L33.1775 283.634L31.5926 282.152L30.7234 281.538L30.3144 281.743L30.2122 282.049ZM115.286 116.273L114.979 117.04L114.877 117.858L114.928 120.516L114.979 121.027L115.337 121.692L115.286 122.407L114.774 123.276L113.65 124.81L114.314 126.65L114.519 127.519L114.416 128.644L112.116 138.509L110.071 143.417L109.508 143.621L108.793 143.519L107.975 143.672L107.259 144.337L105.623 147.353L105.265 147.66L104.498 148.017L104.191 148.324L103.987 148.733L103.833 149.551L103.68 149.96L100.255 153.998L98.8231 155.123L98.2096 155.838L96.3691 158.599L95.7556 160.03V161.564L96.4713 165.449L97.1871 166.573V167.442L96.8292 168.158L95.0909 170.407L94.2729 171.787L93.7616 172.35L93.097 172.759L92.5346 173.321L92.1767 174.19L91.6655 175.928L91.6144 176.746L92.2279 177.87L92.0745 178.739L91.7166 179.404L91.3076 179.966L91.0008 180.631L89.8761 185.692V186.407L90.3873 188.35L90.4385 188.861L90.8986 192.184L90.7452 194.791L91.1542 196.222L91.2053 196.938L91.052 197.653L90.4896 198.215L89.1603 198.829L88.6491 199.238L88.4957 200.056L88.5979 200.874L88.8536 201.692L89.4159 203.276L89.9272 203.838L89.9783 204.094L90.0295 204.912L90.1828 205.321L91.1031 206.241L91.6144 207.059L91.87 207.877L91.8189 208.695L91.461 209.564L91.1542 209.922L90.4896 210.535L90.234 210.842L89.8761 211.608L90.0806 211.966L91.2053 214.676L92.0234 215.8L94.0173 217.64L94.3752 218.356L94.5797 219.276L94.6308 221.065L94.4774 222.701L94.2729 223.57L94.1195 224.49L94.1706 225.155L94.2729 226.075L94.8353 227.66L95.4488 228.426L96.0623 228.784L96.6758 229.295L97.0337 229.5L97.4938 229.653L98.0562 229.704L99.0276 229.602L99.5389 229.551L100.05 229.653L100.51 230.011L100.97 230.573L101.737 232.158L102.095 232.771L102.658 233.283L103.68 234.458L104.805 236.145L107.463 241.564L107.566 242.177V242.688L107.259 244.529V244.938L107.31 245.398L107.463 245.858L107.77 246.369L108.23 246.829L108.793 247.136L109.662 247.545L110.326 248.107L111.196 249.691L119.58 257.615L121.267 259.353L117.791 262.318L116.308 264.26L115.03 265.64L115.132 265.794L115.644 266.203L115.695 266.509L115.592 267.174L115.388 267.634L115.03 268.043L114.723 268.605L114.621 269.116V269.628L114.774 270.65V271.723L114.365 274.944L114.416 275.353L114.57 275.711L115.286 276.682L115.95 277.807L117.177 279.136L117.637 279.851L117.74 280.822L117.637 281.487L117.689 281.794L119.018 282.254L119.171 282.407L119.529 282.969L120.398 284.145L120.654 284.759L120.449 290.177L119.887 292.375L119.938 293.449L120.449 294.624L121.676 296.874L122.085 298.1L122.034 301.423V301.985L122.341 304.03L122.392 304.746L122.239 305.461L121.676 306.33L120.705 307.097L119.631 307.711L118.609 308.017L116.104 308.375L115.132 308.835L114.263 310.062L113.496 311.545L113.189 312.311L113.087 313.231L113.241 314.049L113.189 314.458L113.036 314.969L112.32 315.941L112.116 316.299L111.758 317.219L111.656 318.088L111.86 318.906L112.474 319.519L114.416 320.286L114.877 321.001L115.49 321.666L116.053 322.484L116.308 323.046L116.564 323.711L117.177 326.88L117.075 328.26V328.823L117.28 329.283L117.586 329.845L117.893 330.254L118.507 332.605L117.689 334.241L117.893 334.701L118.149 335.161L118.507 335.57L118.762 335.979L118.864 336.541L118.558 336.95L118.098 337.308L112.678 340.222L111.707 339.302L111.605 339.097L110.582 337.922L109.866 336.899L109.355 335.723L108.793 334.854L108.435 334.497L107.821 333.985L107.259 333.73L106.748 333.628H105.981L100.51 335.212L99.6411 335.57L94.6819 338.484L89.5693 342.164L88.5979 342.931L81.6448 347.327L80.8779 347.89L80.7245 348.145L80.6734 348.452L80.7245 349.065L80.9802 349.73L81.3381 350.394L81.5937 351.008L81.6448 351.468V351.775L81.3892 352.541L81.1847 352.95L80.8779 353.308L80.0088 353.87L79.3953 353.973L78.884 353.922L78.4239 353.768L70.1926 347.532L69.2723 347.123L67.8919 346.612L64.5688 344.925L63.3417 344.567L56.7976 344.26L51.7873 344.669L50.4069 345.027L47.7995 346.254L47.3905 346.509L45.0387 348.503L41.3576 353.206L39.875 354.586L36.2962 357.295L34.1489 358.471L28.6784 359.953L25.6108 361.487L25.2018 361.64L24.7928 360.976H24.2816L23.6169 361.231L22.7478 361.283L22.032 361.078L21.3674 360.771L20.0893 359.953L19.1179 359.749L18.8111 359.596L18.5044 359.34L17.6863 358.318L17.0217 358.522L16.5104 358.88H15.9992L15.3345 357.807L14.9767 356.171L14.9255 352.95L14.6699 351.366L13.5963 349.372L12.1136 347.685L8.73931 344.669L7.87017 343.289L7.46116 341.704L7.30778 338.177L7.35891 335.059L7.25666 333.525L6.79653 332.196L6.18302 331.43L5.365 330.56L3.67785 329.231L3.01321 328.976L0.763672 328.669L1.47943 327.545L2.14407 325.142L2.6042 324.171L3.72897 323.915L6.02964 321.819L7.30778 320.95L8.43255 320.49L9.65957 320.286L10.7843 319.877L11.6535 318.803L11.858 318.139L11.6535 317.832L11.3467 317.73L11.1934 317.474L11.3467 317.014L11.6024 316.759L13.3918 315.685L13.903 315.072L15.0278 312.669L19.2712 308.12L19.8336 307.2L20.6005 304.797L21.0095 304.184L21.6742 303.775L23.1568 303.621L23.9748 303.417L26.3777 302.19L27.0935 301.628L28.2694 300.043L27.1446 298.509L26.9401 297.743L27.0424 296.465L27.2469 296.516L28.3716 296.822L29.0874 297.283L30.3144 297.896L33.1264 298.152L34.3534 298.612L34.6601 297.538L34.7624 295.596L34.6601 293.755L34.2 292.938L32.6662 292.784L31.0813 292.375L30.4678 291.762L31.7971 290.842L33.3309 290.433L34.8135 290.177L35.6315 290.279L36.9608 290.739L37.6766 290.842L38.4946 290.535L39.1081 289.819L39.6193 289.053L40.0795 288.439L40.3351 288.337L41.2554 288.132L42.0734 287.57L41.7155 287.212L41.3576 287.11L40.9997 287.212L40.6419 287.57L39.8238 286.957V286.65L41.511 286.037L42.1245 285.985L43.7605 286.803L44.2718 286.854L46.1123 286.65L45.5499 286.088L45.3454 285.73L45.2432 285.321L45.3454 284.759L45.8056 284.656L46.1123 284.299L46.3168 283.43L46.2146 282.969L45.2432 282.458L44.9876 282.203L44.6297 281.692L44.2718 281.589L43.8117 281.64L42.6869 281.896H41.4087L40.6419 281.794L39.8238 281.589L37.7277 280.465L36.9608 280.414L36.3473 280.874L35.8871 281.589L35.427 281.998L34.9158 281.589L34.8646 281.18L34.9158 280.311L34.8135 279.953L34.2511 279.136L32.3595 275.302L33.0241 275.097L34.609 274.995L34.9158 274.893L35.1203 274.228L35.5293 273.564L36.0917 273.001L36.654 272.644L37.6254 272.439L38.1367 272.184L38.3923 271.877L38.2389 271.417L37.6766 270.65L37.5743 270.394L37.1142 270.088L34.3534 269.934L33.0752 269.423L32.5128 269.321L32.1038 269.474L31.7971 269.781L31.4903 269.985L30.3144 269.474L28.3205 269.372L27.8093 269.065V268.707L28.2694 267.583L28.3716 267.123L28.3205 266.612L28.116 265.743L28.0649 265.334L27.8604 264.362L27.3491 263.749L26.071 262.778L25.3552 261.909L24.8951 261.142L24.2816 260.631L23.3613 260.426L22.5433 260.375L21.7764 260.171L21.1118 259.915L20.6005 259.506L20.9073 258.944L21.623 259.097L22.032 258.791V258.279L21.623 258.024L20.0381 257.973L18.8622 258.126L17.3285 258.024L16.7661 256.49L16.4593 256.235L16.0503 255.979V255.366L16.2548 254.65L16.3059 254.139L16.4593 253.883L16.3571 253.679L15.6413 253.525L15.0278 253.321L14.4654 252.452L13.1873 251.532L13.7496 250.765L13.9541 249.896L14.0564 249.027L14.2609 248.158L14.8233 247.391L15.2323 247.136L16.4082 246.778L16.6638 246.573L16.7149 246.215L16.2037 244.886L16.4593 244.222L17.124 243.302L17.942 242.586L19.3224 242.075L19.8848 240.439L20.7028 240.388L21.6742 240.439L22.3388 239.928L22.441 239.11L21.4697 238.139L20.396 236.656L19.7314 235.992L17.2773 234.1L16.5616 233.436L14.1587 229.704L12.5737 228.222L12.3181 227.455L12.4715 226.637L13.1873 225.053L13.2384 224.695L13.085 221.168L13.1361 220.401L13.5451 219.838L14.4654 219.225L16.7661 218.612L17.4307 218.203L18.0442 216.976L18.2998 211.404L18.8111 210.586L19.6291 210.484L20.6005 210.688L21.5208 210.739L21.7764 210.228L21.623 208.235L21.7764 207.519L22.032 207.315L22.7478 207.11L23.0546 206.957L24.6906 205.065L25.5086 204.452L28.2183 202.918L29.0363 202.152L28.8829 201.283L28.2694 200.414L27.9626 199.647L27.9115 197.96L27.9626 197.142L28.2183 196.375L29.2919 195.608L30.6723 195.251L33.4842 194.893L34.3022 194.024L34.0977 192.541L33.0752 189.628L32.8196 188.145L32.564 187.481L32.155 186.867L29.9054 185.385L29.343 184.567L29.0874 183.187V181.653L28.934 180.171L28.2183 179.097L27.6559 177.41L27.6048 176.848L27.7581 176.132L27.9626 175.621V175.161L27.5025 174.497L25.253 172.656L24.3838 171.43L24.9973 170.458L25.5086 170.407L26.7867 170.612L27.2469 170.509L27.6559 170.049V169.538L27.5536 169.027L27.6559 168.414L28.0138 167.902L28.8829 166.982L29.2408 166.42L29.5987 165.398L29.8543 164.324L29.7009 163.353L30.2122 154.918L29.5987 151.545L29.4964 149.807L29.8032 144.746L29.1897 139.89V138.049L29.4453 137.078L30.7746 136.056L31.1836 135.033L31.6948 134.215L32.6151 134.318L33.1775 133.142L33.791 132.222L34.6601 131.66L38.0856 130.688L38.3923 130.33L39.3637 128.388L38.9547 127.928L37.6254 127.57L37.2164 127.161L37.2676 126.445L37.6766 125.832L38.2389 125.372L39.5171 124.656L40.0795 124.145L40.5907 123.481L40.8975 122.867L41.1531 121.998L41.4087 121.589L41.8178 121.436L41.6132 121.027L42.0734 121.078L43.4538 121.18L43.8628 121.078L44.1184 120.925L44.6297 120.362L44.8342 120.26L45.6522 117.909L46.1123 117.295L47.1348 117.142L47.8506 117.449L48.4641 117.96L49.1288 118.215L49.9979 118.062L50.5092 117.755L51.276 116.477L53.2188 111.57L54.1391 110.292L59.0983 107.634L60.1719 106.458L60.4787 105.027L60.7855 101.96L61.4501 100.733L62.7282 100.12L65.898 99.7107L67.0228 99.1484L67.8919 99.1995L68.9145 98.995L69.937 98.6372L70.6527 98.126L71.2151 97.1548L71.573 96.0302V95.8257L72.3399 96.0302L115.286 116.273Z" fill="#009649" stroke="white" stroke-width="2" stroke-linejoin="round"></path>
<path class="region" data-country-region="West Region" d="M112.678 340.222L119.529 345.487L120.296 346.203L122.443 348.963L125.613 353.921L127.965 359.544L127.607 360.413L127.198 360.771L126.738 361.129L126.227 361.385L123.364 362.305L123.057 363.02L122.801 367.11L122.852 368.081L123.057 368.643L123.312 369.103L123.619 369.461L124.028 369.768L125.46 370.381L125.971 370.484H126.482L127.607 370.279L128.681 370.228L129.141 370.33L130.01 370.688L130.419 370.79L131.339 370.739L132.259 371.046L131.339 372.119L130.112 372.937L128.22 373.857L127.198 374.522L126.278 374.982L125.818 375.391L125.664 375.698V375.953L125.715 377.385V378.151L125.613 378.663L125.204 380.656V381.116V381.679L125.306 381.934L125.818 382.752L127.3 385.973L127.607 386.484L127.863 386.79L128.323 387.148L131.85 389.96L133.077 390.726L136.758 392.056L139.417 392.311L141.564 393.18L142.178 393.691L142.689 394.203L142.894 394.663L144.785 400.541L144.888 400.797L146.472 403.864L148.569 406.675L151.636 410.305L152.403 411.685L152.352 412.145L152.147 412.503L151.738 412.861L151.278 413.065L150.051 413.321L144.939 413.73L136.094 414.343L135.122 414.752L133.384 415.723L128.323 420.324L125.306 422.675L123.67 423.595L114.928 427.583L102.197 433.104L89.2114 438.727L83.5365 440.669L81.338 440.618L77.5036 439.902L58.3825 433.461L46.5213 429.167L46.3168 429.065L48.2085 426.254L49.1287 424.925L49.6911 424.362L51.3783 423.595L51.7362 423.289L51.4294 422.471L50.7136 421.551L49.8445 420.733L45.3454 417.461L43.8628 416.899L42.738 416.183L41.2554 413.576L40.284 412.554L36.3473 409.078L35.018 408.107L33.0241 407.442L32.4617 407.033L32.0016 406.42L31.0302 404.119L30.2633 402.688L29.7009 402.126L29.0874 401.666L30.3144 399.979L30.6723 399.161V398.19L30.5189 397.73L28.2183 392.771V392.669L28.525 392.107L28.5761 391.493L28.4739 390.88L28.2183 390.318L27.1957 388.528L26.8379 386.381L26.889 384.132L27.1957 381.985V381.014L26.889 380.094L25.4063 377.487L25.2018 376.771L25.3041 374.369L25.253 373.96L24.6394 372.119L24.5883 371.25L24.4349 370.228L24.0259 369.512L22.7478 368.132L22.1343 366.088L23.3613 364.81L24.8951 363.583L25.2018 361.691V361.64L25.6108 361.487L28.6784 359.953L34.1489 358.471L36.2961 357.295L39.875 354.586L41.3576 353.206L45.0387 348.503L47.3905 346.509L47.7995 346.254L50.4069 345.027L51.7873 344.669L56.7976 344.26L63.3417 344.567L64.5688 344.925L67.8919 346.611L69.2723 347.123L70.1926 347.532L78.4239 353.768L78.884 353.921L79.3953 353.973L80.0088 353.87L80.8779 353.308L81.1847 352.95L81.3892 352.541L81.6448 351.774V351.468L81.5937 351.008L81.338 350.394L80.9802 349.73L80.7245 349.065L80.6734 348.452L80.7245 348.145L80.8779 347.889L81.6448 347.327L88.5979 342.931L89.5693 342.164L94.6819 338.484L99.6411 335.57L100.51 335.212L105.981 333.627H106.748L107.259 333.73L107.821 333.985L108.435 334.496L108.793 334.854L109.355 335.723L109.866 336.899L110.582 337.921L111.605 339.097L111.707 339.302L112.678 340.222Z" fill="#009649" stroke="white" stroke-width="2" stroke-linejoin="round"></path>
</svg>