<svg width="1047" height="575" viewBox="0 0 1047 575" fill="none" xmlns="http://www.w3.org/2000/svg">
<path class="region" d="M87.0152 375.795L86.5966 376.004L85.9686 375.481L85.55 374.643L84.3987 371.295V370.562H85.1313L86.1779 371.295L86.7012 371.713L87.0152 372.236L87.4338 373.178V374.12L87.0152 375.795ZM257.085 380.713L254.259 379.353H253.003L251.015 378.62L248.398 378.83L246.933 377.783L245.991 376.109L243.479 376.423L240.654 375.062L240.549 371.504L238.456 369.411L236.677 370.562L231.548 365.957L225.688 370.981L216.896 371.399L196.906 375.585L196.069 376.318L194.604 376.213L192.511 376.841L188.429 382.388L186.022 384.795L187.592 386.678L181.94 390.237L169.277 393.376L164.776 392.33L165.09 391.911L165.3 391.702L166.032 391.492L166.242 391.283L167.079 390.027L167.393 389.399L167.916 387.934L168.335 387.202L169.067 386.469L169.277 386.155L169.381 385.841L169.591 385.004L169.8 384.585L170.323 383.644L170.428 383.016L170.323 382.388L170.219 381.969L170.323 381.55L170.951 380.713L171.161 380.19L171.265 379.562L171.475 377.05L172.312 373.702V371.19L171.579 369.202L170.428 367.736L169.067 366.376L169.591 366.481L170.428 367.108L170.847 367.422V367.108L170.428 366.795L170.219 366.167V365.539L170.323 364.806L169.905 365.015L169.277 365.643L168.753 366.062L168.23 365.853L168.125 365.12L168.544 364.074L169.277 362.504V363.236L169.695 363.55L170.114 363.655L170.533 363.341L170.742 362.713L170.847 361.353L171.056 360.725L171.265 361.457L171.475 361.353L171.684 360.725L171.893 360.201H172.102L172.73 360.306L172.94 360.201L173.358 359.992L173.463 359.469L173.568 358.004L173.044 357.167L172.312 356.748L171.475 356.643L170.951 356.434L170.847 355.911V354.76L170.428 352.143L169.905 351.097L169.8 350.678L169.591 350.469L168.439 350.573H168.021L167.602 350.05L166.66 348.48L166.242 348.166L165.09 348.271L162.683 348.69L161.323 348.48H158.392L157.764 348.271L157.346 348.062L156.404 347.015L155.985 346.806L154.311 346.597H153.892L153.578 347.015L153.473 347.434V348.376L153.369 348.69L152.217 350.259L151.799 350.573L149.392 351.515H148.659L147.822 350.887L147.508 350.992L147.298 351.306L147.403 351.829L147.508 351.934L148.24 352.143L148.45 352.248L148.764 352.876L148.868 353.294L148.973 353.713L148.764 353.818L145.519 353.608L144.891 353.294L144.473 352.98V352.667L144.368 352.143L144.263 352.248L143.949 351.934L143.112 351.097L142.903 350.887L142.693 350.678L142.589 350.259L142.798 350.05L143.007 349.736L143.217 349.422V349.004L142.693 348.794L142.17 349.527L141.647 350.887L141.228 351.097H140.391L139.554 350.887L138.926 350.573L139.763 349.422L139.972 349.213L139.449 349.004L138.821 349.318L137.775 350.05H137.147L136.623 349.736L136.1 349.318L135.681 348.794L134.739 348.062L134.425 347.434L134.949 345.864L134.844 345.027L134.53 344.504L133.902 344.399L133.379 344.818L133.17 345.55L132.96 346.283L132.751 347.015L132.228 347.12L131.704 346.387L131.076 345.132L130.553 344.608L129.925 344.294L128.355 343.98L126.89 343.457L123.646 342.725L122.599 342.097L121.866 342.201L120.715 343.038L119.773 343.562L116.32 344.399L115.901 344.608L115.168 345.655L114.645 345.864L114.331 345.759L113.703 345.236L113.494 345.132L113.18 345.236L113.075 345.55L112.97 345.759L113.075 345.864L112.97 346.283L110.877 349.736L110.459 350.155L110.249 349.527L110.354 349.004L110.773 348.271L110.877 347.853L110.773 347.539L110.459 347.748L109.517 348.794L108.889 349.108L108.156 349.318L107.633 349.108L107.319 349.004L107.11 349.736V351.515L106.9 352.143L106.482 352.667L106.063 352.98L105.644 352.771L106.063 352.143L106.377 351.62V351.201L105.749 350.992L104.912 351.306L104.702 351.411L104.388 351.725L104.179 351.62L103.97 351.411L103.133 350.678L102.923 350.573L102.505 350.469L102.191 350.992L101.353 353.399L100.935 353.818L101.039 353.399L101.144 352.039L100.725 352.353L100.621 352.771L100.411 353.294L100.202 353.608L100.097 353.713H99.5742L99.3649 353.818L99.0509 354.132L98.0043 356.225L97.481 356.853L96.9577 356.748V356.434L97.1671 355.911L97.2717 355.597L96.9577 355.387L96.6438 355.492L95.8065 356.015L93.6087 358.422L92.8761 359.678L92.4574 360.201L91.9341 360.515L90.9922 360.411L90.5736 360.515L90.3643 360.725L89.9456 361.248L89.7363 361.562L88.7944 361.876L88.4804 362.504H88.1664L87.4338 362.294L87.1199 362.608L87.0152 363.341L86.9105 363.76L86.1779 363.55L85.8639 363.027L85.6546 362.818L85.4453 362.922V363.76L85.3407 364.074L85.1313 363.969L84.6081 363.236L84.1894 363.027H83.9801L83.8754 363.341L83.9801 364.283V364.597L82.3056 362.399L81.8869 362.19L81.7823 362.922L81.9916 364.597L81.4683 364.283L81.259 364.492L81.0497 364.911L80.7357 365.329L80.5264 364.492L80.2124 363.969L78.7472 363.341L78.2239 363.027L78.0146 362.504V362.922V363.55L78.4332 363.969L78.6425 364.911L78.8518 365.329H78.5379L77.7006 364.911V364.597L77.8053 364.283V364.074L77.7006 363.864L77.1773 363.446L76.968 363.236L76.7587 363.446V363.76L75.9214 363.655L74.9795 363.341L74.2469 362.713L73.8282 361.981L73.9329 362.922L75.6074 364.911L76.0261 366.062L75.5028 365.853H74.5609H74.4562L74.1422 365.434L73.9329 364.806L73.6189 364.388L73.0956 364.283V364.597L73.5143 365.015L73.6189 365.748L73.7236 366.481L74.3515 366.899L75.3981 367.841L75.5028 368.26V368.574V368.992L75.3981 369.411L74.2469 368.574L73.8282 368.155L73.4096 367.632L73.0956 367.004L72.7817 366.585L72.363 366.376H71.6304L72.1537 366.795L72.363 367.213V367.736L72.4677 368.05L73.4096 369.097L73.0956 369.411L72.677 369.097L70.6885 368.469H70.3745L70.2699 368.678L70.3745 368.992L70.4792 369.306L70.7931 369.411H71.1071L71.5258 369.725L71.6304 370.457L71.7351 371.085V371.713L66.8161 368.783L64.9323 367.318L63.8857 366.271L63.3624 365.957H62.6298L62.0018 366.062H61.3739L59.804 364.806L59.1761 363.969L58.4435 363.446L57.3969 363.132H55.0944L54.1525 362.713L54.7804 361.876L54.3618 361.562L54.2571 361.039L54.1525 360.515L53.9431 360.097L53.0012 359.574L52.4779 359.364L52.0593 359.26L52.6872 358.422L53.3152 356.643L54.6758 355.492L56.2456 355.178L57.7108 355.701L58.2341 356.12L58.6528 356.748L59.2807 358.213L59.9087 358.422L63.8857 357.69L64.6183 357.062L66.0835 355.283L58.2341 342.829L54.3618 332.678L54.0478 331.841L53.8385 331.213L53.4198 330.899L52.4779 330.794L51.536 330.48L50.9081 329.852L49.6522 328.073L44.8379 319.701L43.268 318.341L41.4888 317.503L31.4416 317.713L25.9994 315.096L25.3714 314.992L24.9528 315.306L24.7435 315.934V318.236L24.6388 320.015L24.4295 320.748L24.0108 320.852L19.3012 317.503L18.464 316.666L17.9407 316.038L17.836 315.62L18.0453 315.201L18.3593 314.468L18.8826 313.945V313.631L18.7779 313.422L17.9407 311.957L16.1615 309.759L15.9521 309.236L16.2661 308.922L18.3593 307.666L19.4059 306.724L19.7198 305.992L19.3012 305.468L17.836 305.364L17.522 304.84V304.213L17.6267 303.48L17.836 302.852L17.6267 302.12L17.4174 301.806L16.8941 301.282L16.7894 300.864L16.8941 300.654L17.3127 300.236L17.7313 299.503L63.5717 306.41L76.968 311.12L77.7006 308.189L89.213 307.143L110.145 292.596L112.029 292.073L113.284 290.922L114.54 290.294L115.796 290.189L118.308 286.84L121.134 284.538L123.75 284.224L126.576 283.177L136.414 284.433L138.298 285.061L138.612 286.317L137.879 289.352L141.856 290.922L143.949 291.34L146.252 291.445L147.194 290.189L156.09 293.119L157.764 292.387V290.712L158.602 286.108L162.369 280.143L162.16 275.538L166.032 270.724L167.498 271.143H176.603L179.324 270.305L180.161 269.782L179.847 268.631L180.58 267.689L185.499 262.875L187.278 264.549L190.208 266.119L190.418 267.27L191.36 267.898L193.243 265.177L195.232 269.887L195.965 274.282L195.86 277.945L196.174 279.829L195.651 281.189L205.175 283.387L206.43 279.933L207.582 278.154L208.628 277.422L209.989 277.631L210.826 279.096L211.977 280.038L214.28 280.247L215.536 284.538L215.431 286.631L214.803 287.468L214.175 292.282L215.326 296.468L216.268 301.073L216.164 305.259L218.675 308.294L220.978 317.817L221.292 322.213L219.408 335.399L219.303 340.841L221.397 344.085L223.699 349.736L226.839 354.446L232.072 359.364L251.957 366.899L252.585 370.771L254.678 373.911L255.201 375.795L255.725 378.097L257.085 380.713Z" fill="#009649" stroke="white" stroke-width="2" stroke-linejoin="round" data-country-region="West Region"></path>
<path class="region" d="M751.491 493.633L750.863 493.738L750.549 494.052L749.712 496.249L749.503 496.668L748.875 497.296L748.142 497.924L747.41 498.238H746.677L745.107 497.505H744.584L743.537 497.61L737.781 496.773L736.106 496.877L735.374 496.668L733.909 495.726L733.281 495.308L732.548 494.784L730.978 494.366L730.246 493.947L729.513 493.319L727.315 492.273L724.385 491.749L723.547 491.435L720.931 489.342L720.512 488.924L719.884 487.877L719.57 487.354L719.047 487.145L718 486.831L717.163 486.203L716.012 486.098L715.489 485.784L714.233 484.738L713.5 484.319L712.663 484.214L711.93 483.901L710.57 482.645L709.837 482.226L710.57 483.168L710.779 483.796V484.319L710.36 484.528L706.279 485.052L705.86 484.947L704.918 484.005L704.395 483.796L703.662 484.424L702.72 486.831L701.778 487.354H700.732H700.313L695.918 489.238L694.662 489.97L694.348 490.284L694.034 490.808L693.092 493.633L692.569 494.575L692.359 495.098L692.255 495.726V496.249L692.569 497.401L692.673 498.029L692.569 498.656L691.941 500.122L690.58 503.156L690.266 504.412L690.161 505.773L690.371 506.924L690.789 507.97L692.673 511.633V512.157L691.941 512.366L690.371 511.738L688.068 511.319L687.754 510.901V510.168V509.017L687.44 508.598L686.812 508.389L685.033 508.284L684.51 508.075L684.091 507.866L683.568 507.447L682.626 507.029H681.475L678.23 507.552H677.393L676.451 507.343L675.614 506.924L674.986 506.296L674.044 504.622L673.521 503.994L672.683 503.575L669.02 502.633H667.241L666.299 502.529L663.264 500.436L661.59 499.808L658.345 499.598L657.927 499.703L657.194 500.122H656.775L656.043 499.912L653.008 498.238L651.438 497.819L651.019 497.715L650.601 497.401L650.287 497.191L649.868 497.296L648.926 497.61L647.147 497.715L646.31 498.029L643.484 499.808L643.065 499.912L642.751 499.808L641.705 498.866L641.495 498.761H641.181L640.763 498.97L639.507 498.552H638.879L638.46 498.97L638.146 499.494L637.832 500.017L637.414 500.436L636.995 500.645L636.472 500.54L635.844 500.226L635.32 500.017L634.797 500.226L634.274 501.273L633.96 501.691L633.541 502.005L632.599 502.319L632.39 502.633L632.285 503.366L632.39 504.726L632.181 505.25L631.762 505.668L629.564 506.087L628.622 506.61L628.936 507.97L629.146 508.284L630.087 509.122L630.297 509.436L630.192 509.854L629.983 510.168L629.564 510.377H629.146L627.994 509.54L627.576 509.959L627.262 510.482L626.948 511.215L626.738 511.843L626.843 512.261L627.052 512.68L626.843 513.098L626.006 514.145L625.692 514.459H625.587L624.227 513.098L624.122 512.68L623.494 512.261L623.389 511.215L621.506 510.482L618.889 507.552L617.738 507.029L617.005 505.877L615.854 504.308L614.179 502.843L613.133 502.319L611.249 501.901L609.888 499.808L609.574 496.773L609.784 494.156L609.156 493.005L609.574 491.959L608.109 490.912L608.737 489.761L608.005 489.028L606.958 489.133L606.121 488.191L605.597 485.889L603.609 485.156L601.83 484.11L600.574 483.796L598.481 483.691L595.76 482.749L594.608 482.121L593.143 479.924L593.248 478.354L592.306 477.517L590.945 476.993L591.573 475.842L593.876 472.703L600.051 454.075L600.888 452.819L600.678 450.098L597.957 432.412L590.631 406.144L584.98 391.388L581.735 386.155L709.942 385.423L706.697 392.016L706.069 400.807L706.593 406.772L707.116 408.76L707.639 410.539L701.36 410.958L700.523 413.993L702.72 417.446L705.232 417.551L707.744 418.074L708.163 421.214L709.209 423.621L719.047 432.726L719.57 437.644L720.931 441.412L724.699 444.97L730.35 445.807L734.641 448.319L737.153 450.726L739.246 453.342L739.037 457.319L737.781 460.563L731.292 471.656L733.49 472.598L735.583 473.121L736.525 472.703L737.362 473.749H739.665L741.758 475.005L740.083 477.517L738.409 480.97L738.932 482.645L739.141 483.691L739.455 484.633L740.188 485.889L742.386 487.668L745.421 488.924L747.514 490.808L745.735 492.063L750.654 492.796L751.491 493.633Z" fill="#009649" stroke="white" stroke-width="2" stroke-linejoin="round" data-country-region="East Region"></path>
<path class="region" d="M581.735 386.155L584.98 391.388L590.631 406.144L597.957 432.411L600.679 450.098L600.888 452.818L600.051 454.074L593.876 472.702L591.573 475.842L590.945 476.993L592.306 477.516L593.248 478.354L593.143 479.923L594.608 482.121L595.76 482.749L598.481 483.691L600.574 483.795L601.83 484.109L603.609 485.156L605.598 485.889L606.121 488.191L606.958 489.133L608.005 489.028L608.737 489.761L608.109 490.912L609.575 491.958L609.156 493.005L609.784 494.156L609.575 496.772L609.888 499.807L611.249 501.9L613.133 502.319L614.18 502.842L615.854 504.307L617.005 505.877L617.738 507.028L618.889 507.552L621.506 510.482L623.389 511.214L623.494 512.261L624.122 512.679L624.227 513.098L625.587 514.459H625.692L625.064 514.982L624.75 515.61L624.959 516.028L625.901 517.075L626.529 517.389L627.262 517.598L625.483 518.959L624.541 519.482L623.599 519.587L622.343 519.273H621.715L621.401 519.796L621.192 520.424L620.878 520.947L620.25 521.784L619.622 522.935L619.098 524.191L618.575 525.133L617.843 525.552L617.215 525.447L616.691 525.238L616.273 524.819L616.063 524.191L615.854 523.773L615.435 523.354L615.017 522.935H614.598L612.191 523.982L611.04 524.924L610.412 526.389L610.202 526.912L609.888 527.331L609.47 527.54L609.051 527.645L608.528 527.959L608.214 528.377L606.435 531.308L605.807 532.145L603.714 533.715L602.248 534.238L601.83 534.552L601.516 535.075L600.783 536.017L599.737 536.435L596.806 536.54L593.352 537.482L592.934 537.901L592.201 538.738L589.585 540.726L588.12 541.25L587.492 541.773L587.178 542.61L587.282 543.029L587.701 543.761V544.18L587.387 544.284L585.922 544.075L585.503 544.18L584.561 544.808H584.143L583.41 544.494L582.991 544.598L581.526 545.54L581.003 546.168L580.689 546.796L580.166 546.691L579.747 546.796L578.596 547.424L578.386 547.529L578.177 547.843L578.282 548.052L578.7 548.575L578.805 548.994V549.517L578.386 552.761L578.177 553.18L577.758 553.598L576.921 554.226L575.979 554.645L574.933 554.854L574.305 554.959L573.991 555.482L573.363 556.529L571.584 557.366L570.956 558.098L570.014 560.819L569.49 561.447L567.92 562.18L567.188 562.703L566.874 563.436L566.455 563.226V563.54V564.378V564.692L566.351 565.005L566.037 565.319L565.932 565.843L566.141 568.668L566.351 569.296L566.56 569.61L566.769 569.715L567.397 569.924V570.343L567.502 570.761L567.711 571.18L567.92 571.494L567.816 571.808L567.188 572.75L567.711 573.064L567.502 573.482L566.979 573.796L566.351 573.692L565.304 573.168H564.99L564.781 573.273L564.676 573.587L564.467 573.901L564.048 573.796L563.734 574.11L563.629 574.32L557.664 571.18L555.885 569.82L553.582 567.413L552.745 566.994L551.803 566.785L551.594 566.68L551.698 566.366L551.908 566.157L552.85 565.843L553.268 565.424L553.582 565.005L553.896 564.587L554.315 563.75L554.629 562.598L554.943 561.447V560.505L554.629 559.982V559.668L555.152 559.25L554.838 559.145L554.943 558.831L554.838 557.994L554.315 558.098L553.896 558.831L553.687 558.517L553.373 558.412L553.059 558.622L552.745 558.831L552.431 558.308L552.222 556.947L551.908 556.319L550.757 554.854L550.547 554.436L550.233 553.494L548.14 554.854L547.617 554.959L547.093 554.75L545.942 554.226L545.419 554.017L542.174 554.226L536.732 554.54L521.557 555.482L519.464 554.959L518.312 553.494L516.115 543.447L514.44 535.075L513.603 526.389L513.498 526.284H512.87L501.148 526.18L500.939 526.075L500.834 525.656L501.044 513.203L505.439 513.935L513.393 506.086L517.266 504.203L519.568 505.04L525.011 500.226L537.36 491.958L549.919 485.784L551.07 484.528L550.443 484.109L548.663 482.644L548.454 480.133L547.407 480.028L547.512 478.772L546.57 479.191L545.838 482.121L545.419 478.668L547.617 476.574L548.245 473.435L550.129 470.191L550.233 466.528L552.85 468.098L553.896 465.272L553.687 462.865L552.954 461.505L554.734 459.412H557.036V457.109L551.07 452.609L548.663 449.574L548.349 448.528L546.884 447.377L545.314 446.749L544.268 446.958L541.756 445.074L541.442 417.655L539.453 415.248L536.104 413.155L533.697 411.062L533.802 406.772L535.476 398.19L537.465 394.841L536.418 391.074L533.697 388.876L533.279 385.318L581.735 386.155Z" fill="#009649" stroke="white" stroke-width="2" stroke-linejoin="round" data-country-region="East Region"></path>
<path class="region" d="M782.052 483.586L781.005 484.633L779.644 484.214L777.97 484.319L777.133 483.586V481.912L777.865 481.284L778.598 479.819L779.54 478.668L780.377 477.83L781.947 477.307L782.889 478.144L782.784 481.284L782.052 483.586Z" fill="#009649" stroke="white" stroke-width="2" stroke-linejoin="round" data-country-region="East Region"></path>
<path class="region" d="M322.601 395.051L323.124 408.551L315.066 403.109L315.38 402.586L316.008 401.33L316.95 400.597L317.892 399.969L318.938 399.028L319.88 397.981L320.508 397.248L320.927 396.097L321.031 394.737L320.927 393.69V392.539L321.136 392.016L321.764 391.702L322.078 391.493L322.392 391.702V391.807V392.434L322.183 393.586L322.392 394.841L322.601 395.051ZM448.819 302.957L453.738 311.12L454.785 313.422L452.273 316.143L419.933 339.69L417.631 339.794L414.701 338.329L412.293 338.015L409.886 337.283L410.41 335.608L406.537 329.852L402.77 326.085L399.63 325.038L394.815 317.294H387.489L381.21 318.864L375.663 326.713L373.256 332.992L366.872 342.829L361.011 342.411L358.499 344.922L357.766 349.422L351.592 350.888L345.207 355.597L338.823 362.295L324.59 381.341L323.648 385.318L322.811 385.423L322.287 385.213L322.078 384.586L320.822 384.481L320.508 384.586L320.403 384.899V385.213L320.613 385.841V385.946L320.299 386.365H319.88L318.31 385.946H318.206L317.682 386.26L317.159 386.469L316.95 386.679L316.426 387.62L316.112 388.039L315.694 388.144L315.484 388.039L315.17 388.144L314.961 388.353L314.124 389.818L314.019 390.237L313.496 391.807L313.077 392.958L312.973 393.376V394.004L312.868 394.423L312.659 395.365L312.554 396.202L312.449 396.934V397.562L312.345 398.19L312.24 398.4L311.612 399.132L311.507 399.341L311.403 399.969L311.193 400.493L310.984 400.283L310.356 400.074L309.728 399.969L307.635 400.597L301.46 402.376L295.599 404.155L282.831 408.028L275.61 410.33L268.388 412.737L263.051 414.411V414.202L258.864 385.527L257.085 380.713L255.724 378.097L255.201 375.795L254.678 373.911L252.585 370.771L251.957 366.899L232.072 359.364L226.839 354.446L223.699 349.736L221.397 344.085L219.303 340.841L219.408 335.399L221.292 322.213L220.978 317.817L218.675 308.294L216.164 305.259L216.268 301.073L215.326 296.468L214.175 292.282L214.803 287.468L215.431 286.631L215.536 284.538L214.28 280.247L211.977 280.038L210.826 279.096L209.989 277.631L208.628 277.422L207.582 278.154L206.43 279.933L205.174 283.387L195.651 281.189L196.174 279.829L195.86 277.945L195.965 274.282L195.232 269.887L193.243 265.177L191.36 267.898L190.418 267.271L190.208 266.119L187.278 264.55L185.499 262.875L185.394 258.898L186.65 254.398L186.545 251.991L187.801 251.677L188.848 249.375L190.104 248.224L193.243 247.282L193.976 245.921L195.337 245.817L198.372 246.131L201.302 244.561L201.407 242.991L202.453 241.526L204.023 240.061L205.384 238.073L205.802 235.875L206.954 233.468L207.268 231.793L207.896 229.491L207.163 228.026L206.012 227.189L204.651 224.782L204.965 220.491L203.814 216.41L205.488 214.526L205.907 212.537L207.791 209.503H207.896L208.942 208.979L210.407 207.828L211.14 206.572L211.035 205.316L210.198 202.386V201.549L210.512 199.979L210.407 199.142L210.303 198.933L209.989 198.514L209.884 198.2L209.989 197.782L210.303 197.049L210.512 196.735L210.198 195.165L208.733 194.328L207.268 193.909L206.744 193.386L207.058 193.072L207.477 192.758L207.791 192.444L207.268 190.875L207.477 190.351L208 190.142L210.198 189.409H210.721L211.349 189.514L211.873 189.828L212.919 190.77L214.594 191.607L215.117 192.13L215.85 193.177L216.687 194.119L220.664 195.165L220.978 196.107V197.677L221.501 198.723L227.257 204.061L227.781 204.479L228.304 204.584H228.723L230.083 204.27H230.711L231.339 204.375L231.967 204.898L232.386 205.526L232.49 206.154L232.804 206.677L233.956 207.2L234.374 207.619L235.211 208.77L236.258 209.503L237.2 209.189L238.979 207.2L243.27 204.793L247.038 201.654L247.561 200.712L248.503 195.793L248.712 194.851L249.026 194.328L249.445 194.223L251.538 195.165L252.375 195.375L253.003 195.27L253.527 194.747L253.736 194.119L253.945 192.654L254.259 192.235L255.62 192.026L256.038 191.502V190.979L255.724 189.723V189.2L256.038 188.677L256.352 188.258L257.19 187.526L257.922 187.84L260.225 191.188L260.748 191.398L262.527 191.816L263.051 191.712L263.155 191.293L262.946 190.561L262.423 189.305V188.468L262.737 187.944L263.26 187.526L263.783 187.316L264.411 187.212L264.83 187.421L265.772 188.154L266.4 188.468L267.132 188.363L267.76 188.258L268.388 187.944L269.016 187.735L271.214 187.944L272.365 187.63L274.04 186.584L274.458 186.479L274.877 186.688L275.191 187.526L275.4 189.095L275.61 189.828L276.028 190.142H276.656L277.075 190.247L277.493 190.665L277.912 191.293L278.121 191.921L278.435 193.386L278.749 194.014L279.063 194.642L279.587 195.165L281.261 196.107L281.889 196.316L282.517 196.212L283.145 195.898L283.564 195.375L283.878 194.747L284.192 194.119L284.715 193.805L285.761 193.909L288.169 194.747L289.006 194.223L289.424 193.072V191.712L289.215 188.991L289.32 187.526L289.843 186.584L290.157 185.642L290.89 185.537L292.041 186.165L292.46 186.27H293.925L294.239 186.479L294.448 186.688L294.867 187.316H295.076L295.809 187.002L296.123 186.898L298.111 186.479L298.32 186.584L298.425 186.793V187.421L299.053 187.84L299.681 188.258H300.414L301.042 187.84L301.251 187.107L301.565 186.27L301.879 185.537L302.402 185.223L302.925 185.014L303.972 184.386L304.391 184.7L305.123 185.537L305.437 186.061L305.542 186.688L305.647 187.212L305.751 187.63L306.275 187.944H309.414L310.565 188.468L311.298 189.514L311.507 191.293L311.403 192.026L311.089 192.654L310.67 193.072L310.252 193.595L310.147 194.119V194.851L310.461 195.584L310.775 196.002L311.193 196.107H312.554L312.763 196.421L312.554 197.991L312.659 198.619L313.077 199.037L313.81 199.142L314.543 198.933L315.275 198.828L315.798 199.351L316.217 200.712L316.426 201.13L316.845 201.654L318.834 203.119L319.775 203.537L326.788 204.165L327.311 204.375L327.729 204.898L328.043 205.526L328.357 205.84L328.671 206.049H329.09L331.602 205.526L332.858 205.421L333.904 206.154L334.428 206.677L335.788 207.305L336.102 207.514L335.997 208.561L335.37 208.875L333.904 208.665L333.276 209.189L333.172 209.817L333.59 210.444L335.056 211.7L335.893 211.386L336.73 210.444L337.567 209.712L338.928 209.503L340.288 209.607L341.544 209.398L342.591 208.247L343.638 205.84L343.952 205.212L344.789 204.27L345.103 203.747L345.207 203.014L345.103 201.654V200.816L345.207 200.084L346.254 197.468L346.463 197.154L346.673 196.84L347.824 196.421L349.394 196.316L350.754 196.84L351.173 198.305V199.77L351.801 200.921L352.638 201.863L353.58 202.596L354.941 203.328L365.616 204.584L368.232 204.165L375.244 201.758L382.361 199.351L383.198 198.514L383.722 197.258L384.14 195.584L384.559 191.921L384.768 190.77L385.92 183.967L386.547 182.084L387.385 180.933L388.431 180.305L389.792 179.991L389.373 179.781H390.001L393.664 179.572L395.129 178.421L396.49 180.723L396.804 182.921L397.327 185.223L399.211 187.84L402.351 186.061L405.909 188.886L405.072 190.037L404.549 192.758L408.002 196.526L406.223 200.502L406.433 202.805L407.374 203.747L409.782 203.642L412.084 213.165L416.166 221.852L421.189 229.805L421.713 234.828L419.41 235.77L416.689 234.41L414.073 236.503L412.712 240.584L410.2 243.201L408.944 246.549L409.991 249.689L406.642 249.584L405.595 250.945L405.909 252.724L410.828 261.201L408.212 261.515L405.491 262.875L408.002 263.608L409.886 268.108L415.433 274.91L419.306 275.957L421.608 274.701L424.748 275.433L425.376 278.364L424.748 282.131L440.865 290.713L448.819 302.957Z" fill="#009649" stroke="white" stroke-width="2" stroke-linejoin="round" data-country-region="West Region"></path>
<path class="region" d="M323.125 408.551L322.601 395.051L322.811 395.365L323.229 395.156L323.543 394.423L323.648 393.481L323.753 392.435L324.276 390.656H324.59L324.904 391.388L325.427 391.911L326.16 392.016L326.474 393.167L326.788 394.004L327.416 394.528L327.73 395.574L328.462 395.783L328.881 396.097L329.509 396.516L329.927 396.725V397.144L329.718 397.981L330.032 399.028L330.241 399.656L330.66 399.446L330.974 399.342L331.497 399.028L331.811 399.551L332.021 400.388V401.435L331.602 402.795V403.528V404.365L331.916 405.621L332.125 406.981L332.649 408.237L332.963 409.179L333.276 409.598L333.381 410.958L333.067 411.691L332.963 412.214V413.051L333.276 414.307L333.067 415.249L329.195 412.632L323.125 408.551ZM354.208 383.539L354.313 383.644L355.15 383.853L355.359 383.958L355.255 384.376L354.836 384.9L354.731 385.109L354.836 385.318L355.045 385.214L355.359 385.004L355.778 384.69L356.092 384.586H356.825L357.871 384.9L358.185 385.109L358.499 385.318L358.604 385.737V386.051V386.365L358.29 386.783H357.871L357.243 386.26L356.72 386.365L356.197 386.469H355.569L354.941 386.156L354.522 385.842L353.476 385.318L352.743 384.9H352.534L350.754 384.795L350.65 384.9L350.336 385.109L350.126 385.632L350.022 386.156L349.185 385.423L348.871 385.004L348.661 384.376L348.871 383.749L349.185 383.539L349.499 383.435L351.487 383.539L352.01 383.435L352.22 383.33L352.952 382.597H353.266L353.58 382.807L353.999 383.33L354.208 383.539ZM358.395 383.33V383.749L358.29 383.958L357.976 384.062L357.767 383.958L357.243 383.435L357.034 383.33L356.197 383.435H355.987L355.883 383.225V382.911L356.197 382.597L357.139 382.388H357.453L357.767 382.493L358.081 382.702L358.185 382.911L358.395 383.33ZM419.934 339.69L415.538 343.144L415.119 344.818L422.759 343.562L429.353 348.062L432.911 348.585L439.295 351.62L442.749 351.934L444.11 351.516L444.947 352.248L475.507 364.597L477.705 364.911L483.88 370.458L489.322 373.074L525.743 381.76L530.034 381.446L532.651 381.655L533.279 385.318L533.697 388.876L536.418 391.074L537.465 394.842L535.477 398.191L533.802 406.772L533.697 411.063L536.104 413.156L539.454 415.249L541.442 417.656L541.756 445.075L544.268 446.958L545.314 446.749L546.884 447.377L548.349 448.528L548.663 449.575L551.071 452.61L557.036 457.11V459.412H554.734L552.954 461.505L553.687 462.865L553.896 465.272L552.85 468.098L550.233 466.528L550.129 470.191L548.245 473.435L547.617 476.575L545.419 478.668L545.838 482.121L546.57 479.191L547.512 478.773L547.408 480.028L548.454 480.133L548.663 482.645L550.443 484.11L551.071 484.528L549.919 485.784L537.36 491.959L525.011 500.226L519.568 505.04L517.266 504.203L513.394 506.087L505.44 513.936L501.044 513.203V512.157L501.253 511.738L501.777 511.529L502.09 510.901L502.195 509.017L503.242 491.749L495.916 495.726H495.497L490.473 485.47L488.38 480.97L487.334 480.133L482.101 476.784L479.484 474.063L474.042 466.842L473.205 466.11L472.367 466.005L471.426 466.319L463.89 470.505L461.378 471.97L460.436 472.18L455.517 471.761L440.97 470.4L437.098 470.086L429.353 469.354L426.946 469.773L410.619 472.389L399.107 474.587L398.06 474.063L396.176 471.866L391.781 466.947L385.92 460.145L382.675 456.377L377.024 450.203L375.454 447.691L375.245 446.854L375.035 445.075L374.931 444.237L374.407 443.191L373.779 442.458L366.872 437.854L358.918 432.516L348.766 425.819V424.249V422.888V418.807L348.661 416.923V414.935L348.871 413.365L349.185 411.272L349.394 409.493V408.446V407.086L349.08 405.516L348.871 403.737L348.557 401.225L348.138 399.97L347.824 399.446L347.301 399.132L346.463 398.923L345.731 398.818L345.208 398.923L344.161 399.342L341.649 399.446L341.126 399.237L340.707 398.923L340.393 398.609V398.191V397.772L340.498 396.725V395.783V395.365L340.707 394.946L340.917 394.737L341.126 394.528L341.44 394.109L341.649 393.69L341.754 393.272L341.649 392.749V392.33L341.754 392.016L342.068 391.807L342.696 391.702V390.865L342.591 390.551L342.277 390.342L342.382 390.028L342.696 389.923L343.01 389.609L342.905 389.295L343.01 388.981L343.324 388.876L343.638 389.19L343.952 389.086L343.847 388.563L343.638 388.144L342.696 387.621L343.01 387.307L343.219 386.888L343.638 386.679L343.952 386.783L344.161 387.097L344.998 386.888L345.208 386.679H345.731L346.254 386.783L346.882 386.888L347.405 387.202L347.824 387.516L348.871 387.83H349.394L350.231 387.516H350.65L350.859 387.83L351.696 387.725L352.534 387.935L352.743 388.039L353.476 387.935H353.685L353.894 388.144L354.417 388.876L354.627 389.086H354.836H355.15L355.673 388.772H355.987H356.301L356.615 388.981L357.453 389.504L357.662 389.609L357.871 389.714L358.395 389.504L358.813 389.19L359.127 388.667L359.755 386.783L360.697 385.423L361.848 384.586L364.36 383.539L364.883 383.225L365.302 382.807L365.511 382.597L366.558 380.295L366.767 379.981L367.814 379.039L368.128 378.935H368.756L370.43 378.516H370.954L371.791 377.783L374.093 376.423L375.245 375.481L375.558 375.272H375.977L376.919 375.586H377.338L377.652 375.481L377.966 375.272L378.28 374.958L378.489 374.539L378.594 373.911L378.803 373.493L379.117 373.074L379.326 372.655L379.536 371.818L379.745 371.4L379.849 371.086L379.954 370.562L380.268 370.039V369.725V369.097L380.163 368.365L380.059 367.841L379.849 367.004L379.64 366.69L379.431 366.586L378.698 366.376H378.28L377.966 366.481L376.919 367.004H376.5L376.082 366.9L374.931 366.272L372.209 365.958H371.477H371.058L370.221 365.644L369.488 365.225L369.174 364.911L368.128 363.237L367.395 362.399L367.29 362.19L367.081 361.876V361.562V361.248L367.29 360.516L367.5 359.26L367.918 358.004L368.023 357.376V356.644V356.016L367.814 355.702L367.604 355.597L366.453 355.283H366.244L365.825 355.597L365.721 355.492L365.093 354.969L364.36 354.76H363.627L362.686 354.341H362.372L361.639 354.446L361.953 355.492L362.162 355.911L362.372 356.225L362.79 356.539L364.151 357.167L366.977 359.051L367.081 359.26V359.574L366.767 359.783L365.825 360.306L365.616 360.516L364.883 361.458L364.465 361.772L364.151 361.981L362.162 362.609H361.744L361.325 362.504L361.011 362.295L359.441 360.62L359.336 361.039L359.022 361.981L358.918 362.399L358.185 364.283L357.871 365.434L357.348 362.609L356.197 359.051L355.987 358.527L355.673 358.109L355.359 357.69L354.941 357.585L354.627 357.481L354.313 357.376L353.58 357.585L352.952 358.004L352.638 358.213L351.906 359.051L350.964 359.679L349.708 360.83L349.289 361.039L348.347 361.248L347.615 361.981L347.405 362.504L347.196 363.027L347.091 364.283L346.987 365.644L347.091 366.272L347.196 366.9L347.51 367.318L348.871 368.155L349.394 369.097L350.022 369.83L350.65 369.934L356.197 368.051H356.72L357.139 368.26L358.395 370.144L359.441 371.086L360.592 371.714L361.848 372.132L362.999 370.562L363.209 370.458L364.36 370.144L364.569 370.039L364.779 369.725L365.093 368.993L365.197 368.574L366.139 368.993L366.349 369.307V369.516V370.248L366.453 371.086L366.663 371.4L366.872 371.818L367.186 372.655L367.814 373.597L368.232 374.016L368.337 374.434V376.423V376.946L368.128 377.469L367.918 377.888L367.604 378.307L365.197 380.714L364.883 381.028L364.465 381.237L363.941 381.342H363.523L361.744 380.818H359.022L358.604 380.714L357.139 380.086L356.615 379.981L352.22 380.19L351.696 379.981L350.336 378.935L349.813 378.725L349.185 378.621L348.557 378.725L347.929 378.935L345.522 380.609L344.475 381.028L342.486 381.342H341.963L341.544 381.237L341.231 380.923L341.44 380.504L342.068 379.981L342.486 379.562L342.696 379.039V378.411V377.783L342.277 375.9V374.121V373.702L341.963 373.074L341.649 372.446L341.021 371.818L340.707 371.609L340.498 371.504L339.033 371.4L337.044 371.714H336.835L336.626 371.609L335.998 370.981L335.893 370.876H335.37L335.056 371.086L334.846 371.4L334.951 372.027L335.474 372.76L336.207 374.225L336.94 375.481L338.091 376.841L338.928 377.993L339.556 378.935L339.975 379.876L340.289 380.4L340.393 381.028L340.184 382.179L339.661 383.539L338.928 385.737L338.509 386.993L338.195 387.935L337.777 388.876L337.672 389.714V390.342L337.986 391.074V391.702L337.567 392.121H336.94L336.312 392.016L335.579 391.807L335.056 392.121L334.532 392.853L333.8 393.69L333.381 394.318L332.963 394.946L332.544 395.156L332.649 393.586L332.335 393.063L331.811 392.644L331.393 392.539L330.869 392.749L330.555 393.272L330.346 393.9V394.318L330.555 394.946L330.66 395.47L330.555 395.679L330.241 395.574L329.927 395.26L329.509 394.737L328.881 394.318L328.462 393.795L328.148 393.272L327.939 393.167H327.73L327.52 393.063L327.311 392.539V391.807L327.939 389.086L328.881 387.097L329.299 386.574L330.137 386.051L330.346 385.842L330.66 385.214L330.555 384.69L330.241 384.062L329.927 383.644L329.509 383.225H329.09L328.567 383.33L328.148 383.644L326.369 385.214L325.846 385.318L324.799 385.214L323.648 385.318L324.59 381.342L338.823 362.295L345.208 355.597L351.592 350.888L357.767 349.423L358.499 344.923L361.011 342.411L366.872 342.83L373.256 332.992L375.663 326.713L381.21 318.864L387.49 317.294H394.816L399.63 325.039L402.77 326.085L406.537 329.853L410.41 335.609L409.886 337.283L412.294 338.016L414.701 338.33L417.631 339.795L419.934 339.69ZM435.318 399.656L436.784 399.446L438.249 399.028L439.609 398.504L440.865 397.877L442.121 397.144L443.272 396.307L444.319 395.26L445.261 394.214L446.203 393.063L446.936 391.807L447.563 390.446L448.087 389.086L448.401 387.621L448.61 386.156L448.715 384.586L448.61 383.016L448.401 381.551L448.087 380.086L447.563 378.621L446.936 377.365L446.203 376.109L445.261 374.853L444.319 373.807L443.272 372.865L442.121 371.923L440.865 371.19L439.609 370.562L438.249 370.039L436.784 369.62L435.318 369.411L433.749 369.307L432.283 369.411L430.818 369.62L429.353 370.039L427.992 370.562L426.736 371.19L425.481 371.923L424.329 372.865L423.283 373.807L422.341 374.853L421.399 376.109L420.666 377.365L420.038 378.621L419.515 380.086L419.201 381.551L418.992 383.016L418.887 384.586L418.992 386.156L419.201 387.621L419.515 389.086L420.038 390.446L420.666 391.807L421.399 393.063L422.341 394.214L423.283 395.26L424.329 396.307L425.481 397.144L426.736 397.877L427.992 398.504L429.353 399.028L430.818 399.446L432.283 399.656L433.749 399.76L435.318 399.656Z" fill="#009649" stroke="white" stroke-width="2" stroke-linejoin="round" data-country-region="West Region"></path>
<path class="region" d="M503.241 36.4081V36.5128L506.59 51.3734L503.555 52.7338L505.125 54.9315L508.16 56.292L510.254 59.9548L503.974 62.7805L501.253 64.6642L501.776 68.4317L503.137 72.6177L504.811 72.9317L506.59 75.4434L506.067 79.9434L503.765 82.5597L504.811 86.2225L508.056 86.8504L508.893 91.8737L508.998 96.4784L510.463 99.1994L512.87 101.502L510.463 103.176L504.916 104.013L503.451 106.944L503.765 108.513L504.602 109.56L505.335 111.548V113.537L505.021 116.781L503.032 118.979L502.195 125.572L502.09 132.583L501.672 142.002L499.578 144.409L498.218 148.281L497.171 153.828L493.194 158.118L488.275 159.793L486.496 159.584L486.077 162.095L490.264 164.921L491.624 167.746L491.101 172.142L490.578 173.712L490.264 175.281L490.996 176.119L490.368 176.956L489.217 178.002L487.961 179.781L489.008 181.247L488.799 183.758L493.194 191.607L493.613 198.828L496.857 198.619L499.16 195.165L502.195 194.642L504.707 196.421L505.23 198.933L506.172 199.77L508.684 199.665L510.463 202.282L512.87 204.165L522.08 207.2L529.511 205.944L532.232 208.247V211.386L531.081 213.479L532.232 215.363L534.848 217.456L538.093 215.572L541.546 214.212L548.245 213.27L552.431 212.014L554.315 210.549L555.152 211.072L556.199 212.433L558.815 214.317L557.245 217.456L554.629 220.177L547.093 222.48L545.628 223.212V224.573L545.942 225.41L545.628 225.933L545.419 226.352L545.942 227.503L545.733 229.596L539.663 237.34L523.022 252.829L520.719 255.968L517.789 257.119L516.533 260.991L513.603 261.933L504.811 269.992L499.683 270.724L496.334 272.608L493.927 275.538L488.485 276.689L476.972 274.91L468.495 276.375L465.564 283.492L462.529 283.596L462.634 284.643L462.425 286.736L463.576 289.457L460.541 290.399L455.099 293.329L454.889 297.306L448.819 302.957L440.865 290.713L424.748 282.131L425.376 278.364L424.748 275.433L421.608 274.701L419.305 275.957L415.433 274.91L409.886 268.108L408.002 263.608L405.491 262.875L408.212 261.515L410.828 261.201L405.909 252.724L405.595 250.945L406.642 249.584L409.991 249.689L408.944 246.549L410.2 243.201L412.712 240.584L414.073 236.503L416.689 234.41L419.41 235.77L421.713 234.828L421.189 229.805L416.166 221.852L412.084 213.165L409.782 203.642L407.374 203.747L406.432 202.805L406.223 200.503L408.002 196.526L404.549 192.758L405.072 190.037L405.909 188.886L402.351 186.061L399.211 187.84L397.327 185.223L396.804 182.921L396.49 180.723L395.129 178.421L393.664 179.572L390.001 179.781H389.373L388.013 179.154L387.28 178.421L386.652 177.374L385.605 174.13L384.977 173.084L384.036 172.874L382.884 172.142L381.942 171.723L381.628 171.828L381 172.037H380.686L380.268 171.933L379.431 171.409L378.803 171.305L377.023 171.409L376.5 171.305L375.454 170.991L374.93 170.886L374.093 170.991L373.779 170.886L373.465 170.677L372.942 170.049L372.105 169.421L371.791 169.107L371.372 168.27L371.267 167.746L371.163 167.328V166.072L371.267 165.549L370.849 165.444L360.487 165.235L360.173 165.13L360.069 164.816L359.964 164.084L359.65 163.874L356.929 163.351L356.301 163.037L356.406 162.2L356.72 161.677L357.976 161.049L358.499 160.63V160.316V159.584L358.708 159.374L359.127 158.956L359.441 158.642L359.546 158.328L358.813 157.491L354.313 156.339L351.696 154.351L350.754 154.037L350.545 154.456L350.231 155.084L349.603 155.398L348.87 155.293L348.242 154.77L347.091 152.049L346.882 151.421L346.987 150.688L347.3 149.746H352.429L356.196 145.665L358.185 143.99L360.173 143.153H361.639L363.104 143.467L364.464 143.363L365.72 142.316L366.767 140.642L367.29 140.223L369.697 139.176L370.221 138.758L371.477 137.293L372 136.874L373.046 136.246L373.884 135.409L371.895 132.583L371.686 131.851L371.581 130.176L371.372 129.444L371.163 129.025L370.849 128.816L368.546 127.979L368.127 127.56L368.023 126.932L368.127 124.944L368.023 124.107L367.918 123.374L367.814 123.165L367.5 123.06L366.244 123.269L365.825 123.165L365.511 122.955L365.197 122.118L364.778 121.909L364.569 121.595L364.464 121.281V120.862V120.339L365.092 118.665L366.139 117.932L367.395 117.618L368.441 117.095L368.86 116.572L369.383 115.316L369.907 114.793L374.302 110.711L372.209 108.618H374.198L375.14 108.304L375.977 107.676L376.814 106.944L377.756 106.839L378.593 107.153L379.431 107.676L380.163 107.99L381 108.095L381.733 107.99L382.466 107.676L383.722 106.63L384.35 106.525L385.082 106.839L386.024 107.676L387.489 109.246L388.327 109.56L389.164 109.037L389.582 108.618L390.106 108.513L391.152 108.618L393.769 108.304L394.711 108.618L396.385 109.979L397.327 110.188L399.316 109.351L400.258 108.723L400.781 107.676L401.304 105.583L401.409 104.641L401.2 103.595L400.572 102.548L399.734 102.025L394.187 100.978L392.408 100.141L390.838 98.6761L389.792 97.211L389.268 97.0017L386.861 98.3622L386.024 98.4668L385.082 98.2575L382.57 96.2691L381.628 95.8505H379.221L378.07 95.6412L377.023 94.5947L376.5 93.6528L376.291 92.5016L376.396 91.4551L376.814 90.4086L377.965 88.7342L378.175 88.2109L378.279 87.6876L378.384 86.3272L378.803 85.9086L379.535 85.6993L380.163 85.9086L380.686 86.3272L381.21 87.269L381.838 88.2109L382.57 88.7342H383.408L384.036 88.3156L385.291 86.8504L386.024 86.3272L387.071 85.8039L386.338 82.8737L386.024 82.3504L385.71 82.1411L382.78 82.2457L382.047 82.455L380.896 84.0248L380.059 84.2341L376.396 83.2923L375.977 82.9783L375.768 82.769L375.454 82.0364L375.349 81.7225L373.988 81.3039L370.43 81.0946L369.802 80.2573L370.43 79.2108L373.046 80.1527L373.884 79.3155L373.988 78.7922V78.269V77.7457L374.198 77.2224L374.616 77.0131L375.558 76.8038L375.768 76.3852L376.082 75.3387L376.709 74.6061L377.442 73.8736L377.965 73.141V72.1991L377.337 71.6759L376.5 71.2573L375.768 70.8387L375.244 70.0014L375.035 69.7921L374.512 69.6875L372.837 69.5828L372.314 69.4782L372.105 69.0596V68.5363V68.0131L372.314 67.5944L372.732 66.9665L373.256 66.5479L374.512 66.3386L375.349 66.234L376.5 66.5479L376.709 66.7572L377.023 67.4898L377.337 68.0131L377.756 68.4317H378.279L378.698 67.5944V66.8619L378.593 66.1293L377.965 64.4549L377.756 63.6177L379.221 63.513L379.849 63.0944L380.373 62.3618L380.791 61.7339L381.524 61.6293L383.512 61.9432L383.931 62.2572L384.664 63.9316L385.082 64.2456L386.966 64.6642L387.071 66.0247L387.28 66.4433L387.699 66.6526L388.222 66.5479L388.431 66.1293L388.641 65.5014V64.6642H391.152L391.466 64.9781L391.78 65.1874L392.094 65.0828L392.722 64.3502H393.036L393.455 64.4549L393.769 64.6642L393.978 65.5014L394.083 66.1293L394.187 66.5479L394.711 66.8619L395.653 67.1758L398.478 67.2805V64.6642V64.4549V63.6177L408.944 63.1991L409.468 63.3037L409.782 63.7223V64.6642L408.63 65.5014L408.316 66.0247L408.421 66.9665L408.84 67.6991L410.095 68.327L410.619 68.9549L410.828 69.3735L411.142 69.6875L411.456 69.8968H411.875L412.293 69.6875L412.398 69.4782L412.084 68.1177L411.979 67.6991V67.3851L412.293 66.8619L413.445 65.7107L412.921 64.8735L412.817 64.6642L412.503 63.1991L413.235 62.0479L414.491 61.3153L415.538 61.0014L417.736 60.7921L419.201 60.2688L419.619 60.3735L420.771 60.8967L421.503 61.0014L423.596 60.3735L426.108 60.6874L426.841 60.2688L427.259 59.5362L427.155 58.9083L426.945 58.2804L426.841 57.4432L427.155 56.8153L427.992 56.5013L429.562 56.606L432.492 57.2339H433.434L434.167 56.9199L435.527 55.7688L436.155 55.4548L437.935 55.3502L442.121 53.4664H442.958L443.795 53.885L445.889 55.5595L446.621 55.7688L446.935 55.8734L447.249 55.3502L447.982 54.9315L448.924 54.8269L449.761 54.4083L450.18 53.2571L449.342 52.1059L449.028 51.3734V51.0594L449.238 50.9548L449.447 50.6408L449.656 50.4315L450.18 50.9548L450.494 51.0594L450.808 51.1641L451.122 51.0594L451.331 50.9548L451.75 50.4315L451.959 50.2222H452.273L453.424 50.5362L454.052 50.3269L455.308 49.6989L456.145 49.5943L456.668 49.2803L457.087 48.9664H457.401L458.134 49.2803L460.645 48.9664L460.959 48.8617L461.483 48.1292H461.797L462.32 48.3385L462.634 48.4431L463.262 48.2338L464.309 47.5012L464.727 47.8152L466.297 49.1757L467.03 49.6989L467.972 49.8036L469.646 48.9664L471.216 47.6059L472.89 46.7687L474.565 47.5012L476.554 50.2222L476.972 50.6408L477.286 50.8501L477.705 51.0594L478.123 50.9548L478.333 50.8501L478.647 50.5362H478.751L479.589 50.8501H479.798L480.531 49.385L479.798 44.6756L480.321 43.7338L480.217 42.7919V41.7454L480.635 41.2221L483.88 39.757H484.612L486.077 40.1756L486.601 39.9663L486.81 39.0244L486.496 37.4546L486.601 36.8267L487.333 36.6174L489.845 36.9314L493.404 38.1872L494.136 38.0826L494.869 37.35L495.497 35.9895L496.229 34.8383L497.067 34.3151L498.95 33.5825L499.474 33.8965L499.683 36.8267L500.102 37.5593L503.241 36.4081Z" fill="#009649" stroke="white" stroke-width="2" stroke-linejoin="round" data-country-region="North Region"></path>
<path class="region" d="M840.974 162.409L840.451 162.514L839.509 165.862L835.951 167.537V168.583L835.427 170.467L834.172 171.723L832.811 172.665L831.974 172.142L828.415 172.665L827.369 175.072L828.415 175.49L828.206 177.165L826.95 178.421L820.252 182.083L818.577 182.397L817.949 181.351L816.798 181.77L816.17 183.025L813.345 184.804L812.403 184.7L811.042 185.956L810.833 186.374L810.519 186.793L810.309 186.897L810.414 187.525L810.833 188.049L811.251 188.572L811.042 189.409L811.67 189.828L812.298 189.932L812.717 190.456L812.926 191.711L813.031 191.921L813.345 192.339L813.763 192.444L813.868 192.967L814.496 194.537L814.81 195.06L815.124 195.374H816.066L816.38 195.688L816.589 196.002L816.798 196.211L818.473 198.305L825.171 202.595L826.113 208.037L825.904 212.223L827.159 212.956L828.52 216.723L827.055 220.386L824.752 224.572L819.624 229.7L811.67 227.607L806.228 225.2L802.879 222.375L800.786 222.688L799.216 221.537L798.797 219.13L799.111 215.258L797.96 212.328L792.308 209.502L787.285 207.828L785.087 205.526L781.528 205.316L775.981 211.177L775.04 215.363L774.412 220.072L771.376 218.921L768.551 219.13L766.981 219.968L765.83 220.072L764.05 223.107L760.911 221.747L751.177 223.526L749.084 222.898L747.619 224.782H740.502L737.886 226.875L731.816 230.642L729.618 229.805L728.048 227.189L729.095 226.037L729.618 224.991L732.234 223.735L734.955 221.642L732.862 219.968L731.083 217.561L731.711 216.933L730.874 215.154L729.513 213.479L728.571 213.374L725.955 210.758L723.548 212.956L721.873 210.967L722.187 207.723L719.257 206.467L717.582 206.049L716.745 205.107L715.489 206.153L713.5 206.781L707.43 207.619L704.604 204.898L705.232 202.177L704.918 199.246L706.174 198.618L707.012 191.188L707.744 188.991L707.43 187.107L706.907 185.014L706.174 183.235L698.011 180.095L699.685 178.002L700.837 175.804L701.465 173.816L703.976 171.932L707.849 170.362L710.151 169.944L712.244 168.583L709.523 167.014L706.593 165.967L705.965 164.502L704.186 164.397L701.046 165.025V160.944L702.721 156.548L705.337 154.665L706.593 153.304L705.965 129.862L705.232 126.513L704.5 125.676L702.616 123.897L699.162 122.746L698.534 119.292L699.371 119.397L702.093 121.071L702.93 122.641L703.976 120.025L704.5 118.036L705.337 116.781L706.07 113.536L704.081 111.129L701.255 111.862L699.371 115.42L696.232 114.688L696.65 111.025L697.174 109.35L695.918 108.722L693.511 109.874L694.348 108.618L696.546 104.641L697.697 101.815L699.371 99.199L697.906 98.3618L697.069 98.5711L696.441 97.9432L695.29 98.6758L693.825 100.455L692.15 101.92L691.104 99.6176L691.313 96.3734L692.778 95.2222L694.453 94.9083L691.208 88.3152V88.2105L693.092 86.3268L693.72 85.6989L693.929 85.3849L694.139 84.8617L694.348 84.1291L694.453 83.7105L694.557 83.5012L695.081 83.2919H695.29L695.918 83.3965L696.127 83.2919V82.5593L696.336 81.9314L696.441 81.3035L696.546 81.1989L698.534 81.3035L698.953 81.4082L699.895 81.9314L700.209 81.7221L701.988 80.3616L702.825 80.0477H703.663L704.709 80.1523L706.384 80.3616L706.802 80.6756L706.907 81.3035L706.802 82.1407L706.907 82.8733L707.221 83.1872H708.058L708.267 82.9779L708.791 81.9314L709.105 81.8268H710.779L710.989 81.9314L711.303 82.4547L711.407 83.0826L711.721 83.6059L712.14 83.7105L712.035 84.757L712.14 85.3849L713.082 86.3268L714.442 87.478L715.175 87.5826L715.698 86.9547L716.954 82.9779V82.664L716.64 82.35L716.222 81.8268L716.012 81.6175L716.222 79.4198L716.535 78.5826L716.849 78.0593L721.036 78.2686L721.35 77.9546L721.768 75.8616L721.978 75.3383L722.187 75.0244L722.501 74.9197L723.862 74.8151L724.071 74.6058L724.28 73.9779L724.594 72.722L724.803 72.0941L725.013 71.6755L725.85 71.4662H728.048L728.885 71.6755L730.874 72.8267L731.606 72.722L737.99 67.908L741.967 64.9778L740.084 61.7336L741.863 60.4777L742.7 59.9545H743.642L746.258 60.2684L747.2 60.0591L750.131 58.6987L761.12 53.3614L760.806 52.4195V51.687L760.911 50.9544L761.434 50.1172L761.957 49.3846L762.376 49.1753L767.504 50.5358L768.655 50.2218L770.225 49.0707L770.749 48.7567H771.167L772.004 48.8614H772.318L772.842 48.3381L772.946 47.6055V46.7683L773.051 45.9311L773.679 45.3032L774.307 45.0939L775.772 45.1985L776.4 45.0939L778.179 44.152L778.703 44.0474H779.331L779.749 44.466L779.54 45.4078L779.121 45.8264L777.028 46.4544L776.505 46.7683L775.981 47.2916L775.667 47.9195L775.981 48.4428L777.237 48.8614L777.761 49.28L777.97 50.3265L777.865 51.373L777.447 52.2102L776.923 52.9428L776.4 53.78L776.086 55.0358L775.877 55.5591L775.667 55.873L775.04 56.501L774.726 56.9196L773.47 58.4894H771.9L768.655 57.2335L766.981 57.1289L766.458 57.3382L766.039 57.6521V57.9661L768.655 62.5708L768.76 63.094L769.074 64.6638L769.911 66.0243L775.144 70.4197L779.958 74.1872L784.668 78.0593L789.378 81.8268L794.192 85.6989L797.646 88.4198L800.786 91.978L804.135 95.7455L806.96 100.246L811.461 108.094L814.182 113.013L817.008 117.827L819.729 122.746L823.392 129.548L826.95 136.246L830.613 143.048L834.276 149.746L839.718 160.107L840.974 162.409Z" fill="#009649" stroke="white" stroke-width="2" stroke-linejoin="round" data-country-region="North Region"></path>
<path class="region" d="M691.208 88.2107V88.3153L694.453 94.9084L692.778 95.2224L691.313 96.3735L691.104 99.6177L692.15 101.92L693.825 100.455L695.29 98.6759L696.441 97.9433L697.069 98.5712L697.907 98.3619L699.372 99.1991L697.697 101.815L696.546 104.641L694.348 108.618L693.511 109.874L695.918 108.722L697.174 109.35L696.651 111.025L696.232 114.688L699.372 115.42L701.256 111.862L704.081 111.129L706.07 113.536L705.337 116.781L704.5 118.037L703.977 120.025L702.93 122.641L702.093 121.071L699.372 119.397L698.534 119.292L699.162 122.746L702.616 123.897L704.5 125.676L696.546 125.048L691.941 121.49L681.266 117.723L678.754 117.513L678.231 112.385L677.079 109.769V107.571L675.614 105.583L674.777 106.629L673.416 106.734L670.277 107.676L667.556 107.153L665.462 107.676L660.23 111.339L652.171 111.129L648.717 109.874L647.252 106.943L648.612 104.746L648.822 100.455L649.659 98.9898L648.508 97.1061L645.891 94.2805L644.112 91.1409L637.937 94.5944L636.577 95.0131L635.112 94.8037L634.274 94.1758L631.03 93.4433V91.0363L630.82 90.513L630.088 89.7804L623.599 89.8851L620.145 90.513L619.203 93.5479L617.215 94.2805L616.692 97.2107L614.912 96.2689L613.343 93.5479L610.831 91.7688L607.482 91.9781L605.912 91.8735L606.749 90.0944L607.796 88.5246L608.11 86.9548L607.063 86.2223H604.447L603.086 85.9083L602.249 86.6409L602.144 83.7106L601.202 80.2571L600.365 79.0013L598.795 77.9548L594.399 78.0594L590.213 80.6757L589.376 82.0362L589.062 83.1874L590.318 84.4432L590.108 85.9083L588.539 86.013L587.701 82.7688L586.759 82.2455L585.817 80.885L583.306 78.792L582.05 79.9432L580.584 80.9897L578.491 80.7804L578.282 80.0478L577.445 79.7338L575.77 80.1525L575.038 80.6757H573.886L574.41 82.8734L574.828 83.606L573.363 84.0246L570.642 84.5478L571.061 86.1176L571.688 86.6409L570.014 87.2688L569.177 88.3153L568.549 89.1525L566.77 90.3037L568.444 93.7572L570.223 95.8503L572.84 97.0014L573.991 100.141L575.456 102.653L574.619 107.257L572.735 109.036L573.468 115.525L573.677 115.943L570.537 117.409L568.758 119.083L566.56 120.234L565.514 121.909L565.304 123.06L564.362 123.792L563.63 125.258L562.374 125.153L557.246 127.874L555.571 127.978L555.676 129.967L557.56 132.479L554.943 135.513L553.059 136.037V137.188L552.536 138.444L550.129 137.606L544.163 133.839L540.919 132.897L538.198 133.42L537.884 139.595L532.651 140.118L530.034 140.746L521.452 139.072L518.417 138.967L517.057 136.037L511.196 136.246L508.684 137.083L506.696 134.048L502.091 132.583L502.195 125.571L503.033 118.978L505.021 116.781L505.335 113.536V111.548L504.602 109.56L503.765 108.513L503.451 106.943L504.916 104.013L510.463 103.176L512.871 101.501L510.463 99.1991L508.998 96.4782L508.893 91.8735L508.056 86.8502L504.812 86.2223L503.765 82.5595L506.068 79.9432L506.591 75.4431L504.812 72.9315L503.137 72.6175L501.777 68.4314L501.253 64.6639L503.975 62.7802L510.254 59.9546L508.161 56.2918L505.126 54.9313L503.556 52.7336L506.591 51.3731L503.242 36.5125V36.4079L512.138 33.1637L513.708 32.9544L517.057 33.059L518.627 32.7451L519.15 32.4311L520.197 31.3846L520.72 31.0706L525.743 30.8613L526.476 30.652L527.941 29.8148L528.779 29.6055H530.767L531.709 29.2915L532.442 28.6636L532.965 27.6171L533.488 26.8845L534.221 26.5706L535.895 26.9892L537.57 26.6752L542.175 26.7799L544.163 26.152L545.629 24.8962L546.675 23.1171L547.198 22.4892L547.931 21.9659L548.873 21.6519H549.606L552.117 22.9078L556.094 22.2798L556.513 21.7566L556.722 20.6054L557.246 20.3961L557.56 19.9775L557.664 19.3496L557.874 18.617L558.292 18.3031L559.025 18.1984L559.653 17.9891L559.757 17.0472L557.664 15.7914L556.722 14.7449L557.141 13.3844L556.618 12.8612L556.408 12.6519L557.978 11.8146L558.606 11.6053L558.92 11.8146L559.234 12.0239L559.653 12.2332L560.176 12.1286L561.432 11.6053H562.06L564.048 12.1286L565.723 11.5007H566.351L566.979 11.71L567.293 11.6053L567.607 11.0821V10.6635L567.502 9.82625V9.40764L567.921 8.88438L569.177 8.04717L569.281 7.41925V6.47738V5.64017L569.491 4.9076L569.805 4.17504L570.328 4.489L572.84 4.9076L573.468 5.22156L573.991 5.74482L574.933 7.3146L575.456 7.94251L575.98 8.25647L576.712 7.83786L576.921 7.3146L577.026 6.47738L576.817 4.80295L576.189 4.38434L575.665 4.17504L575.352 3.65178L575.038 2.18665L574.933 1.87269V1.45408L575.142 1.14013L575.561 0.826172H575.98L580.584 2.50061L581.212 3.33782L581.631 4.80295L582.154 5.74482L583.201 5.32621L585.399 3.23317L585.922 3.02387L589.585 4.6983L594.609 5.32621L597.958 7.20995L598.69 7.94251L600.679 10.8728L601.411 11.396L603.505 11.6053L604.447 11.9193L608.005 14.3263L608.424 14.4309L608.947 14.0123L609.784 12.5472L610.307 12.1286L612.505 11.396L612.819 11.0821V10.7681L612.924 10.0356L613.238 9.30299L614.284 7.62856L614.703 7.41925L616.796 8.25647H617.32L617.948 8.04717L618.471 7.73321L618.994 7.20995L620.041 6.47738L621.401 6.26808L622.866 6.58204L624.018 7.1053L623.599 7.73321L623.18 8.46577L622.971 9.19834L623.285 9.9309L625.064 12.2332L627.576 15.5821L627.995 16.8379V17.3612V18.3031L627.89 19.4542L627.785 20.0822L627.576 20.7101L627.471 21.5473L627.89 22.6985L627.681 23.2217L627.367 23.745L627.262 24.4775L627.157 25.3148L627.367 25.9427L628.309 27.0938L628.518 27.6171L628.413 28.8729L628.727 30.3381L629.774 31.4892L631.03 32.2218L632.076 32.4311H633.123L633.646 32.5358L634.17 33.059L635.007 34.4195L635.321 35.3614V36.3032L635.007 36.9311L634.484 37.2451L633.123 37.6637L632.286 38.3963L632.181 39.6521L632.39 42.7917L632.286 43.3149V43.5242L632.809 44.1521L632.914 44.6754L632.809 46.1405L632.914 46.3498L633.018 46.5591L633.542 46.6638L633.646 46.8731V47.2917L633.542 48.0243V48.6522L633.437 50.4313L631.972 50.7452H631.553L631.03 50.5359L630.088 50.0127L629.565 49.908L628.623 49.8034L628.099 50.222L627.785 51.0592L627.995 52.629L629.565 52.7336L629.879 52.8383L629.983 53.5708V54.6173L629.879 55.6639L629.669 56.2918L630.716 56.815L631.03 57.129L631.448 57.8616L632.286 59.4313L632.704 59.9546H633.228L634.17 59.3267L634.797 58.4895L636.158 56.0825L636.786 55.5592L637.519 55.7685L638.356 56.1871L639.089 56.2918H639.926L640.135 56.5011L640.344 56.9197L640.554 57.4429L640.763 59.6406L641.286 59.536L642.647 58.8034L643.275 58.6988L643.484 58.9081L644.007 59.4313L644.321 59.6406L644.74 59.7453L645.159 59.6406L645.996 59.222L646.729 58.5941L646.938 57.9662L646.729 56.0825L646.833 55.1406L647.147 54.408L647.566 53.7801L648.089 53.5708L653.113 54.0941L653.741 54.3034L654.159 54.5127L654.578 55.036L656.148 57.8616L656.671 58.5941L657.404 58.9081L658.136 58.8034L658.66 58.4895L658.974 57.7569V56.5011L658.45 55.7685L657.822 55.4546L656.985 55.3499L656.357 55.036L655.834 54.6173V54.408V53.8848V53.3615L656.148 52.4197L656.671 51.2685L656.776 50.7452L656.566 50.3266L655.938 49.8034L655.101 49.2801L654.787 48.8615V48.1289L655.206 47.815L658.032 48.2336L658.869 48.7568L659.811 49.8034L660.648 51.1638L660.962 52.4197L661.276 52.9429L662.427 53.2569L662.741 54.0941L662.637 54.6173L661.799 56.6057L666.509 58.4895V58.5941L666.09 59.536L665.776 59.7453L665.358 59.6406H664.939L664.834 59.7453L664.625 60.3732L664.52 60.4779H664.311L663.579 60.1639L663.265 60.3732V60.7918L663.369 61.4197L663.474 61.7337L663.893 62.4663L664.52 62.9895L664.834 63.7221L664.52 64.6639L663.893 66.2337L663.683 67.1756V67.8035L664.207 68.3268L664.939 68.5361H665.776L666.3 68.1175L667.346 66.8616L668.079 65.6058L668.393 65.3965H668.811L671.323 66.5477L672.056 66.2337L671.951 64.6639L671.428 63.4081L670.905 62.5709L670.277 62.0476H669.439L667.137 62.4663L667.032 62.1523L667.137 61.4197L667.451 60.4779L667.66 60.0593L668.811 58.8034L670.067 58.4895L676.766 59.222L678.231 59.1174L678.649 59.222L678.859 59.85L679.068 60.5825V62.2569L680.324 62.8849L680.638 63.5128L680.847 64.6639L681.266 65.2919L688.906 67.0709L689.22 66.9663L689.429 66.6523L689.534 65.7105L689.743 65.5012L690.58 65.6058H690.79L691.104 65.9198L691.732 66.6523L692.046 66.757L692.674 66.5477L692.988 66.3384L693.092 65.7105L692.988 64.6639L693.197 63.9314L694.662 63.5128L695.185 62.8849L695.081 62.3616L694.871 61.8383L694.767 61.5244L695.081 61.3151L696.441 61.0011L696.86 61.1058L696.965 62.1523L697.174 62.2569L698.639 61.8383L697.488 68.6407L697.174 69.7919L696.651 70.4198L695.918 70.5245L692.15 69.7919L691.418 69.8966L690.79 70.2105L690.266 70.8384L689.743 71.8849L690.894 72.7222L688.592 73.5594L688.173 74.0826L687.545 77.9548L686.499 78.1641L685.975 78.478L685.557 79.0013L685.348 79.8385L685.452 80.3618L686.289 81.4083L685.557 82.8734L689.743 85.1758L688.592 87.7921L690.266 89.0479L690.58 88.9432L691.208 88.2107Z" fill="#009649" stroke="white" stroke-width="2" stroke-linejoin="round" data-country-region="North Region"></path>
<path class="region" d="M917.48 400.074L917.27 400.911L918.212 402.376L919.154 402.795L923.026 403.318L925.643 404.469L926.062 405.202L926.166 406.562L926.062 407.923L925.538 411.272L924.806 413.888L923.654 415.772L921.98 416.085L920.829 415.353L918.631 412.841L917.375 412.004L916.119 411.899L914.758 412.213L909.84 414.725L908.584 415.039L907.537 414.516L907.118 413.992L906.7 413.678L904.921 413.469L904.607 413.155L904.397 412.737V411.899L904.293 410.644L903.874 409.074L903.141 408.027L902.304 407.923L901.258 407.609L900.211 408.132L898.118 409.597L887.966 412.841L885.873 413.992L884.826 414.411H883.675L880.535 415.667L879.907 415.772L877.814 415.039H876.558L872.476 416.609L870.697 416.399L870.069 416.504L869.546 416.923L869.127 418.283L868.709 418.597L868.081 418.702L866.092 418.597L864.313 419.33L862.534 419.016L861.383 419.12L860.336 419.644L859.289 420.481L856.778 422.783L855.626 423.411L855.103 423.725L854.685 424.876L855.312 425.713L858.452 427.702L859.708 427.807L864.313 426.865L864.941 426.969L865.464 427.179L866.72 428.225L870.907 429.795L871.325 430.109L871.43 430.527L871.325 431.051L870.907 431.365L869.232 431.679L868.29 432.097L867.767 432.83V433.248L867.871 433.562L868.395 434.19L868.499 434.609L868.395 435.028L868.081 435.76L867.348 438.481L867.139 439.946L867.244 441.307L868.29 446.539V447.9L867.558 450.516L867.348 451.876L867.558 452.504L867.871 452.923L868.709 453.865L869.023 454.388L869.232 455.016V455.644V456.377L869.546 457.109L869.965 457.946L870.907 459.307L873.942 467.365L876.977 475.319L876.872 476.47L876.453 477.621L875.198 480.028L875.512 480.551L876.558 480.76L877.5 481.284L877.814 481.807L878.023 482.435L878.128 483.063V483.795L878.233 484.423L878.861 485.574L878.965 486.202L878.861 486.935L878.442 487.458L878.023 487.772L877.395 487.877L876.872 487.772L875.616 486.726H874.57L873.418 487.249L871.43 488.714L869.232 489.761L868.081 490.388L867.767 491.435L868.29 492.272L869.127 493.005L870.907 493.842L872.058 494.051L872.581 494.365L872.895 494.993L872.79 495.621L872.162 496.04L870.907 496.144L868.918 496.877L868.499 497.295L867.244 497.819H866.825L865.883 497.609H865.464L865.046 497.819L864.522 498.761L863.999 500.854L863.58 501.796L862.639 503.261L862.429 503.784L862.325 504.621L862.429 505.144L862.639 505.668L862.848 507.028L863.162 507.551L863.79 508.598L864.104 509.121V509.54L863.999 510.063L863.685 510.691V511.11L864.313 513.831L864.522 514.458L864.732 514.877L865.046 515.4L865.569 517.912L865.36 518.644L865.046 519.063L864.104 519.586L862.953 518.958L862.22 517.912L861.487 516.656L860.65 515.61L858.976 514.04L858.034 512.575L857.72 512.156L856.568 511.424L850.917 510.272L849.87 510.168L847.777 510.586L845.37 510.482L844.009 509.854L843.277 508.912L842.126 506.191L841.393 505.249L839.3 504.307L838.462 503.365L838.044 502.737L837.834 502.109L837.625 501.377V500.644L837.73 499.284L837.625 498.865L836.893 498.761L835.951 498.97L833.962 499.912H832.916L831.974 499.493L830.299 499.389L828.206 498.551L825.171 498.237L824.752 498.028L823.81 497.295L822.764 496.668L820.252 495.726L818.577 495.621L817.426 495.726L816.903 495.83L815.961 496.458L815.542 496.668L815.019 496.563L813.972 496.249L813.449 496.144L812.298 496.354L811.147 496.249L808.321 496.458L807.17 496.354L805.809 495.412L805.181 495.202H804.553H804.03L803.821 495.307L803.402 495.621L802.669 495.935L802.355 495.726L802.251 495.516L801.937 495.098L800.262 494.679L798.588 494.575L798.064 494.679L796.704 495.307H796.285L795.762 495.098L795.343 494.679L794.82 494.365H793.773L793.145 494.156H792.727L792.308 494.261L791.261 494.784L790.424 494.993L787.912 494.575H786.971L786.552 494.47L786.133 494.156L785.401 493.109L785.191 492.9L784.249 492.586L781.424 492.063L780.9 491.854L780.377 491.958L779.33 492.272L778.284 492.377H777.761L777.237 492.795L776.714 493.423L776.4 493.528L775.877 493.423L775.667 493.528L775.458 493.947L774.516 494.47L773.993 494.575H772.946L771.9 494.993L771.376 495.098L770.748 494.993L769.388 494.365H768.76L768.237 494.575L767.504 495.307L766.981 495.412L766.771 495.307L766.458 494.784L766.248 494.575H765.934L765.411 494.784L765.097 494.889L762.899 494.156H760.597L758.713 493.737H758.085L756.41 494.261H755.782L753.794 493.633L752.852 493.528L751.491 493.633L750.654 492.795L745.735 492.063L747.514 490.807L745.421 488.923L742.386 487.668L740.188 485.888L739.456 484.633L739.142 483.691L738.932 482.644L738.409 480.97L740.084 477.516L741.758 475.005L739.665 473.749H737.362L736.525 472.702L735.583 473.121L733.49 472.598L731.292 471.656L737.781 460.563L739.037 457.318L739.246 453.342L737.153 450.725L734.641 448.318L730.35 445.807L724.699 444.969L720.931 441.411L719.57 437.644L719.047 432.725L709.209 423.62L708.163 421.213L707.744 418.074L705.232 417.551L702.721 417.446L700.523 413.992L701.36 410.958L707.639 410.539L707.116 408.76L706.593 406.771L706.07 400.806L706.698 392.016L709.942 385.422L724.803 368.992L741.13 358.632L747.096 358.945L753.794 358.213L760.492 358.527L764.783 359.678L766.143 359.469L766.353 359.887H766.667L766.876 359.259L768.969 360.515L769.493 361.039H769.702L769.807 360.62L769.911 359.887L770.225 359.469L770.435 359.259L771.69 358.736H772.004L773.365 359.05L773.888 359.155L774.412 358.945L774.935 358.422L775.039 358.736L775.144 359.155L775.039 359.469L774.725 359.678L775.144 360.411L775.772 360.934L778.179 361.876L779.644 362.713L780.377 363.027L779.644 362.085L778.598 360.934L777.761 359.573L777.551 358.422L777.865 358.213L778.493 358.527L779.749 360.097L779.958 360.201H780.272H780.586L781.214 359.992L782.47 359.783L783.621 360.201L784.563 361.143L785.401 362.504L785.505 362.818L785.401 363.027V363.236L785.819 363.55H786.029L787.808 363.132L788.122 362.608L788.436 362.085L788.75 361.562L789.273 361.143L789.796 360.934L791.994 360.725L793.878 359.992L794.611 360.097L795.134 359.783L797.332 358.736L797.646 353.504L796.808 340.003L798.797 339.062L803.716 339.899L806.228 337.91L808.739 336.864L810.414 338.538L814.6 335.189L821.926 339.271L823.915 341.155L826.427 341.573L828.101 343.98L831.869 344.503L834.276 344.19L841.079 345.445L845.684 351.829L859.185 351.097L865.569 353.504L865.674 355.178L867.662 356.434L878.651 361.876L885.663 363.655L888.594 363.759L890.268 364.701L891.001 365.643L893.827 365.539L894.769 366.166L894.873 367.213L899.792 369.306L900.839 372.341L907.642 381.446L909.421 387.306L912.037 390.969L913.398 395.155L913.084 398.923L916.852 400.388L917.48 400.074ZM782.052 483.586L782.784 481.284L782.889 478.144L781.947 477.307L780.377 477.83L779.54 478.667L778.598 479.819L777.865 481.284L777.133 481.912V483.586L777.97 484.319L779.644 484.214L781.005 484.633L782.052 483.586Z" fill="#009649" stroke="white" stroke-width="2" stroke-linejoin="round" data-country-region="East Region"></path>
<path class="region" d="M917.48 400.074L916.852 400.388L913.084 398.923L913.398 395.155L912.037 390.969L909.421 387.306L907.642 381.446L900.839 372.341L899.792 369.306L894.873 367.213L894.769 366.167L893.827 365.539L891.001 365.644L890.268 364.702L888.594 363.76L885.664 363.655L878.651 361.876L867.662 356.434L865.674 355.178L865.569 353.504L859.185 351.097L845.684 351.829L841.079 345.446L834.276 344.19L831.869 344.504L828.101 343.981L826.427 341.574L823.915 341.155L821.927 339.271L814.601 335.19L810.414 338.539L808.74 336.864L806.228 337.911L803.716 339.899L798.797 339.062L796.809 340.004L790.11 340.422L788.75 343.248L783.517 341.783L780.273 338.225L778.807 337.387L780.063 336.76L781.11 335.294L781.633 333.201L781.528 331.736L786.133 330.48L785.087 325.771L784.459 323.887L783.831 323.05L786.238 314.05L787.913 311.329L788.959 307.98L792.413 305.992L789.378 304.841L786.343 303.062L785.819 300.236L788.331 299.189L786.029 298.143L783.412 297.934L782.784 296.468L780.796 295.317L780.168 294.062L781.319 293.12L781.738 291.445L782.575 290.085L785.191 289.875L788.541 287.782L790.843 285.166L791.052 283.282L791.576 281.294L791.262 277.317L786.971 277.003L781.319 277.736L779.121 275.433L779.017 270.829L781.424 269.782L783.203 268.108L779.645 264.968L779.54 263.398L777.028 260.677L774.098 259.003L772.528 256.387L776.086 250.84L781.319 248.747L786.343 244.77L786.971 240.689L787.075 238.701L786.971 237.026L786.761 235.666L786.971 234.724L788.227 233.363L790.424 232.735L793.46 231.27L799.111 225.724L800.786 222.689L802.879 222.375L806.228 225.2L811.67 227.607L819.624 229.7L824.752 224.573L827.055 220.386L828.52 216.724L827.16 212.956L825.904 212.224L826.113 208.037L825.171 202.596L818.473 198.305L816.798 196.212L816.589 196.003L816.38 195.689L816.066 195.375H815.124L814.81 195.061L814.496 194.537L813.868 192.968L813.763 192.444L813.345 192.34L813.031 191.921L812.926 191.712L812.717 190.456L812.298 189.933L811.67 189.828L811.042 189.409L811.251 188.572L810.833 188.049L810.414 187.526L810.309 186.898L810.519 186.793L810.833 186.375L811.042 185.956L812.403 184.7L813.345 184.805L816.17 183.026L816.798 181.77L817.95 181.351L818.578 182.398L820.252 182.084L826.95 178.421L828.206 177.165L828.415 175.491L827.369 175.072L828.415 172.665L831.974 172.142L832.811 172.665L834.172 171.723L835.427 170.467L835.951 168.584V167.537L839.509 165.863L840.451 162.514L840.974 162.409L842.44 165.235L845.161 170.363L849.766 180.2L854.266 190.037L856.882 195.479L857.615 197.572L857.824 198.2L858.452 199.142L859.29 199.979L860.127 200.503L860.964 200.607L859.499 198.305L859.08 197.049L860.022 196.526L860.441 196.735L861.278 197.782L861.801 197.991L862.325 197.886L862.639 197.572L863.057 196.212L863.371 195.584L863.685 195.27L864.732 194.851L864.941 194.642L865.36 194.119L865.569 193.909H865.883L866.93 194.014L867.976 193.805L869.023 193.177L869.965 192.235L870.488 190.77L870.593 190.247V189.514V188.782L870.488 188.154L870.279 187.526L869.546 186.793L869.232 186.27L869.127 185.747V185.014L869.337 183.654L869.546 182.921L869.86 182.293L870.279 182.084L870.907 181.979L873.105 182.293L874.046 181.979L874.36 180.933L874.465 180.305L874.57 179.677L874.884 179.154L875.198 178.735L875.721 178.316L876.14 178.212L879.593 179.886L880.221 179.991L880.535 179.677L880.849 179.258L881.268 178.944H881.896L882.105 179.467V180.933L882.314 181.665L882.628 182.084L883.675 182.712L884.826 183.34L885.454 183.444L886.082 183.549L886.815 182.712L887.129 182.502L887.652 182.607L888.175 182.921L888.385 183.444L888.28 184.072L888.071 185.014L886.396 189.305L885.664 191.712L885.559 192.34L885.768 192.654L886.291 192.968L886.919 193.072H888.385L891.42 192.026L894.559 192.13V193.596L894.978 194.956L895.501 196.212L896.234 197.258L895.606 198.096L895.187 199.142L894.978 200.189L895.292 201.026L896.025 201.444L901.572 201.235L902.095 200.817L902.828 199.665L903.351 199.247H903.769L904.816 199.979H905.339L907.223 199.665L908.479 199.875L909.63 200.293L910.154 200.607L911.723 202.072L912.351 202.386L913.607 202.596H914.34L914.968 202.282L915.387 201.863L915.91 201.235L916.433 200.817L916.852 200.921L917.27 201.13L917.584 201.026L917.898 200.712L918.212 200.607H918.631L919.154 200.921L920.305 200.712L920.829 201.026L921.98 202.072L925.329 199.875L927.108 199.037L927.736 198.2V195.375L928.469 194.537L929.411 194.328L931.399 194.956L934.853 195.27L936.004 194.956L936.946 193.909L937.679 192.444L938.202 190.77H938.411H938.935L939.563 190.979H939.981H940.4L940.818 190.77L943.749 190.456L946.575 190.77L947.203 191.921L947.621 192.444L948.145 192.758L951.075 193.282L951.598 193.596L953.064 194.956L953.691 195.27L954.215 195.375H955.366L955.889 195.584L956.413 195.898L956.831 196.316L957.668 197.782L957.982 198.096L959.029 198.619L959.762 199.456V201.968L960.39 203.223L963.634 205.526L964.367 206.677L964.681 207.41V208.037L964.89 208.665L965.727 209.607L966.041 210.235V210.968L965.518 213.165L965.936 214.421L966.564 215.677L967.088 216.933L967.192 217.875L967.088 218.817V219.654L967.402 220.386L967.716 220.596L968.448 220.805L968.762 221.014L968.972 221.328L969.286 221.956L969.495 222.27H970.437L971.379 221.538L972.321 221.014L973.158 221.642L973.89 222.584L974.728 223.107L975.565 223.317L976.507 223.212L977.449 223.317L978.077 223.945L978.6 224.677L979.437 225.305H979.856L980.798 225.2L981.217 225.41L981.531 225.828L982.159 227.293L982.472 227.503L982.891 227.398L983.31 227.084L983.728 226.875L984.252 226.98L985.926 227.712L986.24 228.026L987.077 229.387L987.287 229.91L987.182 230.538L986.764 230.852L985.717 231.061L985.403 231.166L985.298 233.363L985.403 234.41L985.926 234.933L987.391 235.352L988.019 235.77L988.333 236.712L988.543 238.177L988.647 238.701L989.066 239.433L990.741 241.317L991.264 242.468L991.578 245.608L992.31 246.759L993.252 247.282L994.299 246.968L994.718 246.654L995.345 246.235L995.869 246.026L996.392 245.922L997.02 246.235L998.067 247.073L998.695 247.282L999.741 247.177L1000.16 247.073L1000.58 246.759L1001.42 246.026L1001.83 245.817L1002.25 245.922L1002.67 246.34L1002.99 247.491L1003.4 248.015L1003.82 248.119L1004.24 248.015L1005.18 247.701H1005.71L1006.13 247.91L1006.54 248.329L1006.86 248.852L1007.28 249.061L1007.7 248.956L1008.64 248.224L1009.06 248.015H1009.58L1010.63 248.224V248.538L1010.42 250.108V250.84L1010.73 251.259L1011.25 251.363L1011.67 251.259L1012.09 250.84L1012.82 249.898L1013.97 249.48L1015.02 249.689L1015.65 250.84L1016.7 251.991L1017.64 250.736L1018.48 248.538L1019.1 247.282L1020.57 246.235L1022.14 245.608L1023.92 244.038L1024.34 243.829L1024.44 243.515L1024.55 243.201L1024.44 242.782L1024.23 242.259L1025.49 241.526L1025.91 241.108L1026.12 241.003H1026.43L1026.64 240.898L1027.06 240.27L1027.37 239.433L1027.79 238.91H1028.63L1029.67 239.538H1030.09L1030.82 239.328H1031.24L1031.56 239.538V239.956L1031.35 240.375L1031.14 240.898L1031.03 241.212V241.735L1031.35 242.154L1031.98 242.887L1031.45 243.41L1030.93 243.724L1030.51 243.933L1029.25 244.038L1028.73 244.456L1027.79 245.817L1027.37 246.549L1027.27 247.073L1027.48 247.596L1028 248.224L1028.63 248.642H1029.15L1030.3 248.433L1030.93 248.538L1032.71 249.689L1033.23 250.212V250.84L1033.02 251.573L1032.92 252.515L1033.34 253.143L1033.96 253.666L1035.32 254.294L1036.06 254.817L1035.95 255.236L1035.53 255.654L1035.32 256.387L1035.53 256.91L1036.06 257.433L1037.73 258.794L1038.05 259.108L1038.15 259.422V260.05L1038.36 260.364L1038.67 260.677L1038.99 260.782L1039.62 260.887L1041.81 260.677L1042.55 260.887L1043.28 261.201L1044.64 262.143L1045.06 262.98L1045.58 265.701L1046 266.852L1042.86 265.91L1041.81 265.387L1040.66 265.073L1037.1 266.538L1036.37 266.433L1034.8 265.91L1034.17 266.015L1033.55 266.433L1033.02 267.898L1032.6 268.526L1031.56 269.364L1031.14 269.782L1030.72 270.515L1030.41 271.352L1030.3 271.875V272.608L1030.51 273.55L1031.14 274.806L1031.98 275.643L1032.29 276.375L1031.66 277.631L1031.24 278.154L1031.03 278.573V278.992L1031.35 280.666V281.189L1031.14 281.608L1029.25 284.329L1028 285.585L1027.68 286.003L1027.37 286.631L1026.85 287.992L1026.64 288.515L1026.12 288.829L1023.18 290.085L1020.67 289.875L1020.04 290.189L1019.42 290.713L1018.48 291.968L1017.01 292.701L1012.3 292.282L1006.65 293.12L1005.71 293.748L1004.97 295.003L1001.52 303.376L1000.89 307.562L1000.58 309.027L1000.06 309.969L999.846 310.806L999.741 311.748L1001.83 323.05V324.306L1001.42 326.818L1001.52 328.073L1001.94 329.12L1003.72 332.155L1003.93 332.887L1003.82 333.62L1003.61 334.353L1003.72 334.98L1003.93 335.713V336.236L1003.72 337.492L1003.61 338.329L1003.4 338.853L1003.09 339.167L1001.94 339.271L1001.31 339.481L1000.79 339.899L1000.58 340.527L1000.47 341.26L1000.37 341.783L1000.16 342.306L999.741 342.829L999.532 343.562V344.19L999.323 344.713L997.648 344.608L994.299 345.132L992.834 344.922L992.31 345.027L991.787 345.341L991.473 345.76L990.845 346.911L990.322 347.434L988.543 348.69L987.81 349.632L987.496 349.841L986.345 350.05L985.926 350.26L985.508 350.678L984.984 351.829L984.461 352.248L982.472 352.667L980.589 353.399L979.961 353.504L979.437 353.295L979.333 352.771L979.542 352.248L979.856 351.62L980.17 350.992L980.275 349.736L979.751 348.585L978.914 347.748L977.972 347.225L976.716 347.12L974.309 347.748L973.158 347.539L971.797 346.911L971.379 346.806L970.96 346.911L967.82 346.597L965.099 346.911L963.425 347.853L962.797 347.957L961.018 347.539H958.61L948.877 344.085L944.482 341.155L943.435 340.632L941.132 340.108L940.609 339.794L939.249 338.643L938.621 338.434L937.993 338.329L937.26 338.434L936.632 338.539L936.004 338.853L935.795 339.271V340.841L935.69 341.26L935.481 342.097L935.376 342.515V342.829L935.586 343.562V343.981L935.167 345.446L935.062 346.178L935.167 346.911L935.272 347.539V348.167L935.062 348.795L931.295 356.643L928.992 365.539L927.946 367.737L927.841 368.364L927.527 370.353L927.108 371.504L925.434 374.33L924.387 376.527L923.759 378.934L923.027 384.062L922.399 387.411L921.98 388.458L921.352 390.237L919.364 393.586L918.422 397.144L917.689 399.132L917.48 400.074Z" fill="#009649" stroke="white" stroke-width="2" stroke-linejoin="round" data-country-region="East Region"></path>
<path class="region" d="M207.791 209.503L205.907 212.538L205.488 214.526L203.814 216.41L204.965 220.491L204.651 224.782L206.012 227.189L207.163 228.026L207.896 229.491L207.268 231.794L206.954 233.468L205.802 235.875L205.384 238.073L204.023 240.061L202.453 241.526L201.407 242.992L201.302 244.561L198.372 246.131L195.337 245.817L193.976 245.922L193.243 247.282L190.104 248.224L188.848 249.375L187.801 251.678L186.545 251.992L186.65 254.399L185.394 258.899L185.499 262.875L180.58 267.689L179.847 268.631L180.161 269.782L179.324 270.306L176.603 271.143H167.498L166.032 270.724L162.16 275.538L162.369 280.143L158.602 286.108L157.764 290.713V292.387L156.09 293.12L147.194 290.19L146.252 291.445L143.949 291.341L141.856 290.922L137.879 289.352L138.612 286.317L138.298 285.062L136.414 284.434L126.576 283.178L123.75 284.224L121.134 284.538L118.308 286.841L115.796 290.19L114.54 290.294L113.284 290.922L112.029 292.073L110.145 292.597L89.213 307.143L77.7006 308.19L76.968 311.12L63.5717 306.411L17.7313 299.504V299.085L17.3127 298.562L16.7894 298.143L14.2776 297.515L1.50928 293.015V292.911L5.06766 282.969L8.52139 273.445L9.14934 272.608L10.0913 271.98L11.9751 270.934L12.4984 270.41L13.0217 269.992L14.2776 268.317L15.3242 266.329L15.8475 264.236L15.5335 262.248L14.2776 260.573L10.5099 257.643L9.04468 257.12L10.7192 247.492L12.2891 237.864L12.8124 236.294L13.7543 235.352L19.4059 232.84L21.0804 231.061L22.7549 228.968L23.2782 227.817L23.1736 226.352L21.813 224.468L21.6037 223.317L21.9177 222.794L22.8596 221.852L23.0689 221.224L22.9642 220.596L22.5456 220.177L22.3363 219.759L22.6503 218.922L23.0689 218.608L24.8481 217.875L25.1621 217.352L25.9993 215.468L26.8366 214.317L27.8832 213.27L29.0344 212.642H30.1857L30.8136 213.061L32.4882 215.259L33.6394 215.991L33.9534 216.305L34.2674 216.828L34.4767 217.247L34.686 217.561L35.2093 217.77L35.5233 217.98L36.6745 219.34L37.1978 220.073L38.1397 221.015L39.1863 222.584L40.2329 223.526L40.4422 223.945L40.5469 224.468L40.7562 225.096L41.0702 225.515L42.3261 226.561L42.8493 227.608L43.0587 228.759L43.268 229.91L43.582 231.061L43.7913 231.375L44.0006 232.212L44.2099 232.526L44.5239 232.84L45.5705 233.677L45.9891 234.619L46.1984 235.561L46.5124 236.084L47.4543 236.189L48.1869 236.084L48.3962 236.189L49.5475 237.34L51.1174 238.178L51.4313 238.282L51.7453 238.073L52.2686 237.236L52.6872 236.922L57.9202 234.933L60.432 233.364L62.4205 231.061L62.8391 230.329L63.0484 229.91V229.491L62.7344 227.922L62.5251 227.294L62.2112 226.875L60.432 226.247L60.3273 225.305L60.5366 223.84L60.118 222.27L59.0714 220.177L58.3388 217.352L57.6062 211.596L57.7108 208.77L57.6062 207.514L56.9782 206.677L55.7223 206.363L55.0944 206.049L54.8851 205.212L55.3037 204.689L55.9316 204.793L59.2807 206.782L60.5366 207.096L61.5832 206.887L66.2928 203.328L68.5953 200.293L69.6419 199.352L73.2003 198.514L75.3981 197.573L76.4447 196.631L76.7587 195.27L76.34 194.014L75.5028 192.968L74.8748 191.921L75.1888 190.77L75.8167 189.724L76.0261 189.096L76.2354 187.735L76.4447 187.003L76.7587 186.375L77.1773 185.956L77.7006 185.747L79.7938 186.375H85.8639L86.2826 186.061L87.5385 184.386L91.2015 181.142L92.2481 180.619L96.8531 179.677L99.8882 178.107L100.307 177.793L100.516 177.375L100.411 176.851L100.202 176.119V175.282L100.411 174.968L100.83 174.654L101.144 174.34L100.83 173.921L100.725 173.607L100.935 173.398L101.249 173.293L102.819 173.189L103.237 173.084L103.551 172.665L103.761 171.933L104.388 171.828L104.807 171.723L105.016 171.305L105.121 170.363L104.912 167.956L105.016 167.328L105.435 166.909L105.958 166.805L106.272 166.491V165.444L106.377 164.502H106.9L107.842 165.34H109.098L109.307 165.549L108.784 166.177L108.366 166.909L108.679 167.328H109.307H109.935L111.087 166.805L111.715 166.072L111.819 164.921L110.668 161.468L110.563 160.107L111.191 159.375L112.552 159.688L112.97 160.002L113.494 160.421L113.912 160.944L114.122 161.572L114.54 162.409L115.168 162.723L121.448 163.142L121.971 162.933L122.599 162.619L123.122 162.409L123.541 162.723L124.169 163.875L124.483 164.189L125.006 164.398L126.157 164.502L126.576 164.712L126.89 165.549V166.491L126.681 167.119L126.262 167.537L125.739 167.851L123.332 168.27L123.122 168.584L123.436 169.212L123.855 169.84L124.064 170.363L124.902 171.2L126.785 171.409L128.879 171.096L130.239 170.363L130.762 169.735L131.076 169.107L131.39 168.689H132.018L132.751 168.898L132.96 169.316L133.065 169.944V170.886L133.693 172.037L134.844 171.933L136.1 171.2L137.147 170.363V168.898L136.728 167.537L136.623 166.282L138.088 164.607L138.821 163.456L139.344 162.933L140.077 162.723H140.81L141.438 163.037L142.17 163.456L142.798 163.665L143.635 163.77H144.368L144.996 163.561L145.519 163.037L146.147 161.782L146.461 161.154L147.089 160.84L148.554 160.944L149.287 160.84L149.81 160.421L150.124 159.165L150.543 158.747L151.275 159.165L151.694 160.63L152.008 162.2L152.322 163.456L154.101 166.805L154.729 169.421L154.938 169.84L155.252 170.363L155.671 170.991L156.09 171.409L156.613 171.723L156.822 171.828L157.346 171.409L159.648 171.619L159.753 171.933L160.067 171.723L160.381 171.409L160.59 170.991L160.799 170.782L161.113 170.677L161.741 170.572L161.951 170.468L162.055 170.154L162.265 169.84L162.579 169.735L162.893 169.84L163.416 170.468L163.625 170.572L165.09 170.468L165.614 170.677L165.3 171.409L165.823 171.514L166.451 171.933L166.87 172.037L167.184 171.933L167.602 171.619L167.916 171.2L168.23 170.886L169.172 170.468L172.312 170.572L172.102 169.84L172.207 169.526H172.521H172.94H173.149L173.358 169.944L173.463 170.154L173.777 170.258L174.196 170.049L176.079 170.363L176.498 170.258L177.126 169.944L177.649 170.363H177.754L178.696 170.677L179.01 171.096L179.533 172.037L179.847 172.456L182.464 173.503L183.51 174.34L183.824 174.654L184.034 175.282L183.824 175.7L182.987 176.119L183.406 176.642V177.375L183.301 178.107L183.406 178.735L184.348 179.572L184.661 180.096L184.871 180.828L185.499 181.561L190.208 183.026L191.464 182.712L192.197 182.921L193.139 183.758L193.662 184.282L194.29 185.642L194.813 186.061L196.174 186.27L196.697 186.584L196.907 187.212L197.116 188.782L197.325 189.305L197.534 189.724L197.639 190.142L197.534 190.77L198.372 191.817L198.79 192.235L199.837 192.863L200.151 193.282L200.465 193.91L200.884 194.433L201.511 194.747L203.605 195.166L203.814 195.375L204.337 195.793L204.547 196.003L205.698 196.317L206.116 196.421L206.221 196.84L206.326 197.154L206.221 197.573L206.116 197.991L204.651 199.875L204.442 200.712L204.337 202.491L204.233 203.328L203.709 205.107L203.5 205.945L203.605 206.677L204.023 207.514L204.965 208.77L205.488 209.294L206.116 209.712L206.64 209.817L207.791 209.503Z" fill="#009649" stroke="white" stroke-width="2" stroke-linejoin="round" data-country-region="West Region"></path>
<path class="region" d="M698.011 180.095L706.174 183.234L706.907 185.014L707.43 187.107L707.744 188.99L707.011 191.188L706.174 198.618L704.918 199.246L705.232 202.176L704.604 204.897L707.43 207.618L713.5 206.781L715.489 206.153L716.745 205.107L717.582 206.049L719.256 206.467L722.187 207.723L721.873 210.967L723.547 212.956L725.955 210.758L728.571 213.374L729.513 213.479L730.874 215.153L731.711 216.932L731.083 217.56L732.862 219.967L734.955 221.642L732.234 223.735L729.618 224.991L729.094 226.037L728.048 227.188L729.618 229.805L731.815 230.642L737.886 226.874L740.502 224.781H747.619L749.084 222.898L751.177 223.525L760.91 221.746L764.05 223.107L765.829 220.072L766.981 219.967L768.551 219.13L771.376 218.921L774.411 220.072L775.039 215.363L775.981 211.177L781.528 205.316L785.087 205.525L787.284 207.828L792.308 209.502L797.96 212.328L799.111 215.258L798.797 219.13L799.215 221.537L800.785 222.688L799.111 225.723L793.459 231.27L790.424 232.735L788.226 233.363L786.97 234.723L786.761 235.665L786.97 237.026L787.075 238.7L786.97 240.688L786.342 244.77L781.319 248.747L776.086 250.84L772.528 256.386L774.097 259.003L777.028 260.677L779.54 263.398L779.644 264.968L783.203 268.107L781.424 269.782L779.016 270.828L779.121 275.433L781.319 277.735L786.97 277.003L791.261 277.317L791.575 281.293L791.052 283.282L790.843 285.166L788.54 287.782L785.191 289.875L782.575 290.084L781.738 291.445L781.319 293.119L780.168 294.061L780.796 295.317L782.784 296.468L783.412 297.933L786.028 298.142L788.331 299.189L785.819 300.235L786.342 303.061L789.378 304.84L792.413 305.991L788.959 307.98L787.912 311.329L786.238 314.05L783.831 323.05L784.459 323.887L785.087 325.771L786.133 330.48L781.528 331.736L781.633 333.201L781.11 335.294L780.063 336.759L778.807 337.387L780.272 338.224L783.517 341.782L788.75 343.248L790.11 340.422L796.808 340.003L797.646 353.503L797.332 358.736L795.134 359.783L794.61 360.096L793.878 359.992L791.994 360.724L789.796 360.934L789.273 361.143L788.75 361.562L788.436 362.085L788.122 362.608L787.808 363.131L786.028 363.55H785.819L785.401 363.236V363.027L785.505 362.817L785.401 362.503L784.563 361.143L783.621 360.201L782.47 359.783L781.214 359.992L780.586 360.201H780.272H779.958L779.749 360.096L778.493 358.527L777.865 358.213L777.551 358.422L777.761 359.573L778.598 360.934L779.644 362.085L780.377 363.027L779.644 362.713L778.179 361.876L775.772 360.934L775.144 360.41L774.725 359.678L775.039 359.469L775.144 359.155L775.039 358.736L774.935 358.422L774.411 358.945L773.888 359.155L773.365 359.05L772.004 358.736H771.69L770.434 359.259L770.225 359.469L769.911 359.887L769.806 360.62L769.702 361.038H769.492L768.969 360.515L766.876 359.259L766.667 359.887H766.353L766.143 359.469L764.783 359.678L760.492 358.527L753.794 358.213L747.096 358.945L741.13 358.631L724.803 368.992L709.942 385.422L581.735 386.155L533.278 385.318L532.651 381.655L530.034 381.446L525.743 381.759L489.322 373.073L483.88 370.457L477.705 364.91L475.507 364.597L444.947 352.248L444.109 351.515L442.749 351.934L439.295 351.62L432.911 348.585L429.353 348.061L422.759 343.561L415.119 344.817L415.538 343.143L419.933 339.689L452.273 316.143L454.785 313.422L453.738 311.119L448.819 302.956L454.889 297.305L455.099 293.328L460.541 290.398L463.576 289.456L462.425 286.735L462.634 284.642L462.529 283.596L465.564 283.491L468.495 276.375L476.972 274.91L488.485 276.689L493.927 275.538L496.334 272.607L499.683 270.724L504.811 269.991L513.603 261.933L516.533 260.991L517.789 257.119L520.719 255.968L523.022 252.828L539.663 237.34L545.733 229.595L545.942 227.502L545.419 226.351L545.628 225.932L545.942 225.409L545.628 224.572V223.212L547.093 222.479L554.629 220.177L557.245 217.456L558.815 214.316L556.199 212.432L555.152 211.072L554.315 210.549L553.687 207.723L552.64 206.153L561.641 206.049L566.351 202.909L568.967 201.444L571.793 200.502L577.34 202.7L577.13 207.095L576.607 209.607L575.979 211.386L575.56 214.839L574.305 219.549L572.839 223.316L581.421 226.142L584.352 225.305L585.817 224.258L585.398 221.956L586.131 222.584H587.492L588.957 220.177L590.213 217.56L592.096 217.142L592.515 218.502L594.19 218.084L595.969 220.595L596.911 221.014L596.597 223.212L598.69 223.839L601.202 223.525L607.586 221.746L609.26 221.851L609.888 223.421L611.354 224.781L609.365 228.13L610.412 231.27L618.68 227.816L620.25 221.328L623.703 219.967L624.959 221.118L625.796 222.06L626.215 218.188L627.262 214.211L628.308 213.584L629.774 213.374L632.39 211.909L633.437 210.967L633.227 209.711L633.96 208.979L636.786 208.351L637.832 207.409L639.297 206.781L641.705 202.49L644.53 201.13L644.844 200.188L645.786 200.293L646.519 201.13L647.879 200.921L648.612 201.967H649.763L652.589 204.688L651.333 206.99L652.066 207.514L651.647 210.235L651.228 212.118L650.391 213.27L650.496 214.839L651.647 214.107L654.368 213.479L661.171 214.107L661.59 209.921L662.846 209.502L663.787 208.246L666.927 209.502L668.288 208.142L667.346 207.514L667.241 205.944L667.974 205.107L667.764 204.583L667.974 203.642L669.753 202.7L670.8 201.967H671.846L673.939 201.339L675.091 199.56L675.195 198.304L677.184 195.793L681.475 196.839L682.207 195.793L683.568 195.269L685.87 193.909L685.452 192.548L686.917 191.711L691.417 190.246L693.929 188.258L695.29 186.583L694.138 185.641L691.731 184.804L690.371 186.374L688.905 187.002L689.01 186.165L688.382 184.595L687.022 182.397L686.603 181.351L687.126 179.99L688.487 180.2L693.197 179.362L698.011 180.095Z" fill="#009649" stroke="white" stroke-width="2" stroke-linejoin="round" data-country-region="East Region"></path>
<path class="region" d="M704.5 125.676L705.232 126.513L705.965 129.862L706.593 153.304L705.337 154.665L702.72 156.548L701.046 160.944V165.025L704.186 164.397L705.965 164.502L706.593 165.967L709.523 167.014L712.244 168.583L710.151 169.944L707.849 170.362L703.976 171.932L701.464 173.816L700.836 175.804L699.685 178.002L698.011 180.095L693.196 179.362L688.487 180.2L687.126 179.99L686.603 181.351L687.022 182.397L688.382 184.595L689.01 186.165L688.905 187.002L690.371 186.374L691.731 184.804L694.138 185.642L695.29 186.583L693.929 188.258L691.417 190.246L686.917 191.711L685.452 192.549L685.87 193.909L683.568 195.27L682.207 195.793L681.475 196.839L677.184 195.793L675.195 198.304L675.09 199.56L673.939 201.339L671.846 201.967H670.8L669.753 202.7L667.974 203.642L667.764 204.584L667.974 205.107L667.241 205.944L667.346 207.514L668.288 208.142L666.927 209.502L663.787 208.246L662.845 209.502L661.59 209.921L661.171 214.107L654.368 213.479L651.647 214.107L650.496 214.84L650.391 213.27L651.228 212.119L651.647 210.235L652.066 207.514L651.333 206.991L652.589 204.688L649.763 201.967H648.612L647.879 200.921L646.519 201.13L645.786 200.293L644.844 200.188L644.53 201.13L641.704 202.491L639.297 206.781L637.832 207.409L636.786 208.351L633.96 208.979L633.227 209.712L633.436 210.967L632.39 211.909L629.773 213.374L628.308 213.584L627.262 214.212L626.215 218.188L625.796 222.061L624.959 221.119L623.703 219.967L620.249 221.328L618.68 227.816L610.412 231.27L609.365 228.13L611.354 224.781L609.888 223.421L609.26 221.851L607.586 221.747L601.202 223.526L598.69 223.84L596.597 223.212L596.911 221.014L595.969 220.595L594.19 218.084L592.515 218.502L592.096 217.142L590.213 217.56L588.957 220.177L587.491 222.584H586.131L585.398 221.956L585.817 224.258L584.352 225.305L581.421 226.142L572.839 223.316L574.304 219.549L575.56 214.84L575.979 211.386L576.607 209.607L577.13 207.095L577.34 202.7L571.793 200.502L568.967 201.444L566.35 202.909L561.641 206.049L552.64 206.153L553.687 207.723L554.315 210.549L552.431 212.014L548.245 213.27L541.546 214.212L538.093 215.572L534.848 217.456L532.232 215.363L531.081 213.479L532.232 211.386V208.246L529.511 205.944L522.08 207.2L512.87 204.165L510.463 202.281L508.684 199.665L506.172 199.77L505.23 198.932L504.707 196.421L502.195 194.642L499.16 195.165L496.857 198.618L493.613 198.828L493.194 191.607L488.799 183.758L489.008 181.246L487.961 179.781L489.217 178.002L490.368 176.955L490.996 176.118L490.264 175.281L490.578 173.711L491.101 172.141L491.624 167.746L490.264 164.92L486.077 162.095L486.496 159.583L488.275 159.793L493.194 158.118L497.171 153.827L498.218 148.281L499.578 144.409L501.671 142.002L502.09 132.583L506.695 134.048L508.684 137.083L511.195 136.246L517.056 136.036L518.417 138.967L521.452 139.071L530.034 140.746L532.65 140.118L537.883 139.595L538.197 133.42L540.918 132.897L544.163 133.839L550.128 137.606L552.535 138.443L553.059 137.188V136.036L554.943 135.513L557.559 132.478L555.675 129.967L555.571 127.978L557.245 127.874L562.373 125.153L563.629 125.257L564.362 123.792L565.304 123.06L565.513 121.908L566.56 120.234L568.758 119.083L570.537 117.408L573.676 115.943L573.467 115.525L572.735 109.036L574.618 107.257L575.456 102.652L573.99 100.141L572.839 97.0013L570.223 95.8501L568.444 93.7571L566.769 90.3035L568.548 89.1524L569.176 88.3151L570.013 87.2686L571.688 86.6407L571.06 86.1175L570.641 84.5477L573.363 84.0244L574.828 83.6058L574.409 82.8732L573.886 80.6756H575.037L575.77 80.1523L577.444 79.7337L578.281 80.0476L578.491 80.7802L580.584 80.9895L582.049 79.943L583.305 78.7918L585.817 80.8849L586.759 82.2453L587.701 82.7686L588.538 86.0128L590.108 85.9082L590.317 84.443L589.061 83.1872L589.375 82.036L590.213 80.6756L594.399 78.0592L598.795 77.9546L600.364 79.0011L601.202 80.2569L602.144 83.7105L602.248 86.6407L603.085 85.9082L604.446 86.2221H607.062L608.109 86.9547L607.795 88.5245L606.749 90.0942L605.911 91.8733L607.481 91.978L610.83 91.7687L613.342 93.5478L614.912 96.2687L616.691 97.2106L617.214 94.2803L619.203 93.5478L620.145 90.5128L623.599 89.8849L630.087 89.7803L630.82 90.5128L631.029 91.0361V93.4431L634.274 94.1757L635.111 94.8036L636.576 95.0129L637.937 94.5943L644.112 91.1408L645.891 94.2803L648.507 97.1059L649.658 98.9897L648.821 100.455L648.612 104.746L647.251 106.943L648.717 109.873L652.17 111.129L660.229 111.339L665.462 107.676L667.555 107.153L670.276 107.676L673.416 106.734L674.777 106.629L675.614 105.583L677.079 107.571V109.769L678.23 112.385L678.754 117.513L681.265 117.722L691.941 121.49L696.545 125.048L704.5 125.676ZM642.018 190.77L643.274 188.99L643.902 186.583L644.112 183.967L643.379 182.083L642.542 181.665L641.391 179.886L639.402 178.316L638.251 178.002L636.576 178.735L635.739 179.572L635.006 180.932L634.797 182.502L635.006 184.176L635.948 185.746L637.204 187.316L638.355 188.886L639.402 190.77L640.553 191.502L642.018 190.77Z" fill="#009649" stroke="white" stroke-width="2" stroke-linejoin="round" data-country-region="North Region"></path>
<path class="region" d="M108.365 422.469L108.889 422.574L109.203 422.469L109.621 421.946H109.831L109.935 422.364L110.145 422.469L110.354 422.783V423.62V424.039L110.563 424.353L110.877 424.981L110.982 425.19L110.459 425.085H110.145L109.726 425.295L109.412 425.399L109.307 425.19L109.517 424.772V424.562L109.203 424.458V424.248L109.307 423.934L109.098 423.516L107.947 422.678L107.528 422.051L107.633 421.423H107.842L107.947 421.946L108.365 422.469ZM92.3527 422.783L92.6666 422.992L92.9806 422.888L93.0853 423.725V424.667L93.3992 425.295L94.3412 425.609L94.7598 426.027H95.1784L96.0157 425.399L96.3297 425.295L95.911 426.446L95.1784 426.865L94.3412 426.76L93.6086 426.341L93.1899 425.923L93.0853 425.609L92.9806 425.19L92.876 424.562L92.562 424.039L91.6201 423.097L91.2014 422.155V421.423L92.562 418.178L92.876 417.864L93.2946 417.655L94.4458 417.341V417.969L92.876 418.911L92.562 419.748L92.4573 420.271L92.0387 421.109V421.737V422.26L92.3527 422.783ZM100.411 417.237L100.621 417.655L100.307 418.388L100.202 418.702L99.9927 418.911L99.8881 419.12L100.097 420.481L99.8881 421.213L99.3648 421.737L98.7368 421.841L98.3182 421.632L98.1089 420.795L98.2135 419.958L98.4228 419.016L98.5275 418.283L98.6322 417.655L98.9461 417.446L99.4694 417.341H99.9927L100.307 417.132L100.411 417.237ZM160.695 405.62L159.962 405.829L158.706 405.411L157.764 404.574L157.032 403.736L156.822 402.899L157.136 402.376L157.555 402.062L157.869 401.748L157.973 401.539L157.869 401.225L158.078 401.12L158.915 401.225L159.439 401.329L159.857 401.957L160.276 403.004L160.59 404.26L160.695 404.783V405.62ZM257.085 380.713L258.864 385.527L263.05 414.202V414.411L258.76 415.771L244.421 420.376L244.317 420.481V428.853V437.016L244.421 445.283V453.446V461.609V469.772V477.83V485.888V493.947V501.9V509.958V517.807V525.761V533.61V549.307L242.642 549.203L241.805 549.307L239.502 550.354L237.2 550.668L235.63 551.296L232.386 551.505L231.653 551.191L230.92 550.773L230.397 550.354L229.978 549.831L229.246 548.052L228.932 547.528L228.513 547.005L226.943 545.959L226.001 545.121L225.269 544.18L221.92 538.319L218.152 533.191L217.838 532.563L217.733 531.831V531.098L217.838 530.47V529.947L217.629 529.214L217.001 528.482L212.71 524.505L202.767 517.807L198.79 515.191L197.011 514.458L195.023 514.249L184.975 516.028L180.475 516.865L178.8 517.179L173.149 519.482L171.684 520.319L167.707 521.784L162.264 526.389L158.811 529.738L154.938 533.714L153.892 534.761L153.787 534.028L153.996 533.296L155.043 530.784L155.252 529.528L155.043 528.168L154.834 527.435L154.52 526.807L153.996 526.389L153.787 526.075L153.682 525.656L153.892 524.505V524.086L153.682 523.772L152.95 522.935L153.264 522.412L153.473 521.784L153.682 521.156V520.423L153.892 519.9L154.206 519.691L154.624 519.482L155.043 519.168L156.299 516.761L157.764 514.877L157.973 514.249L158.078 513.83V513.098V512.679L158.183 512.47L158.915 511.633L159.125 511.319L159.229 511.005V510.482L159.334 510.168L159.753 508.807L159.962 507.551V506.295L159.648 504.935L159.02 503.47L158.497 502.633L157.45 501.9L157.136 501.168V500.435L157.346 500.121L157.555 500.54L157.764 501.272L158.078 502.005L158.497 502.319L158.706 502.423L159.648 503.051L159.753 503.261L159.857 503.679H159.962L160.381 505.04L160.59 505.563L160.904 505.877L161.113 505.563L161.427 504.935L161.637 504.098L161.741 503.365L161.532 501.795L160.904 500.854L159.962 500.226L158.811 500.121L158.706 499.284L157.346 498.447L154.729 497.505L152.217 497.295H151.799L151.485 497.4L151.171 497.505L150.857 497.714L150.752 497.923L150.438 498.551L150.333 498.761L149.705 498.447L147.926 496.144L146.984 495.412L146.356 495.307L144.159 495.621L142.484 496.354L141.542 496.981L141.019 497.191L140.496 496.981L138.926 495.098L138.612 494.574L137.984 493.528L137.67 492.9L137.356 492.377L137.146 491.016L136.832 490.388L135.681 488.923L135.263 488.191L134.949 488.086H134.635L134.425 487.877L134.216 487.458L134.321 487.144L134.53 486.935L134.635 486.516L134.53 485.784L134.216 485.156L133.797 484.737L132.751 485.26L131.495 485.156L130.867 485.26L130.762 485.47L130.344 485.888L130.134 485.993L129.82 485.888L129.192 485.574L128.878 485.47L126.471 485.993H124.169L123.855 485.679L123.959 484.842L124.797 482.016L125.111 480.551L125.32 475.842L125.111 475.214L124.378 473.539L124.273 473.225L124.169 472.911V472.074L124.064 471.76L123.75 471.342L122.704 470.609L122.494 469.981L122.39 469.458L122.18 469.353L121.657 469.563L121.134 469.458L120.715 469.144L120.087 468.202L117.68 463.179L117.471 462.551L117.366 461.609L116.843 460.876V460.562L116.947 459.725L116.843 459.411L116.633 458.993L115.901 458.365L115.796 458.051L115.587 457.318L115.168 456.795L114.854 456.062L114.645 455.749L114.331 455.644L113.808 455.435L113.598 455.225L113.389 454.807V454.493L113.494 454.179L113.598 453.655L113.494 450.725L113.389 449.993L113.18 449.365L112.552 448.528L111.505 447.795L109.307 446.748L100.307 445.074L99.1555 444.551L98.6322 444.132L98.1089 443.609L97.5856 442.981L97.3763 442.248L97.5856 440.574V439.841L97.3763 439.109L97.5856 438.9L97.3763 438.167L97.2716 437.016V435.865L97.5856 435.237L98.0042 436.179L98.4228 435.76L98.6322 434.713L98.7368 434.19L99.0508 433.981V433.562V433.039L99.1555 432.725L99.4694 432.411L99.6788 432.516L99.9927 432.83L100.202 432.934L104.284 433.772L105.54 433.667L106.691 433.248H107.319L107.633 433.876L107.947 433.981H110.249L110.563 434.399L110.877 434.504L111.191 434.295L111.505 433.667L111.61 433.562L111.924 433.458L113.18 433.562L113.912 433.667L114.436 433.981L115.378 434.818L116.11 435.76L116.319 435.969L116.947 435.865L117.261 435.969L117.366 436.179V436.493L117.157 436.597L116.843 436.702L117.261 437.225L117.994 437.748L120.087 438.69L120.82 438.795H121.552L122.285 438.586L122.913 438.272L124.273 436.911L124.378 436.597L124.797 436.388H125.425H125.739L126.471 436.179H126.89L126.681 437.33L127.413 437.539L129.192 437.12L130.867 437.958L131.39 437.853L131.809 437.434L131.704 436.911L131.286 436.493L130.867 436.179L129.402 435.341L128.355 434.295H127.727L126.471 434.713L125.32 434.818L124.587 434.19L123.75 431.469L123.122 430.423L122.285 429.586L120.192 428.33L119.564 427.597L118.622 427.492L118.413 427.388L118.308 427.178L117.994 426.865L116.319 425.818L116.11 425.19V424.353L116.215 423.62L116.633 423.306L116.843 423.202L116.947 422.888V422.574L116.843 422.364L116.633 422.155H116.215L115.901 422.051L115.796 421.632L116.11 421.004L116.633 420.69L117.366 420.481L117.889 420.376L118.517 420.481L118.831 420.376L119.145 420.062L119.564 419.33L119.878 419.12L120.924 418.388L121.552 418.074L122.18 417.864L122.599 418.178L123.018 418.806L123.541 419.33L124.064 419.434L124.273 418.911L124.169 418.178L123.75 417.551L123.436 417.027L123.332 416.609L123.436 416.19L123.646 415.771L123.75 415.457L123.646 415.144L123.332 414.411L123.541 413.888L123.855 413.26L124.587 412.109L124.797 411.585L125.006 410.957L127.309 408.236L127.518 407.609L127.623 406.771L127.727 406.143L128.146 406.457L128.774 407.713L129.716 408.132H130.972L132.228 407.818L133.169 407.19L134.007 406.248L134.216 406.143H134.739L135.053 406.039L135.367 405.411L135.681 404.678L135.995 404.05L136.519 403.632L136.832 404.05L137.146 404.469L137.251 405.097L137.356 405.516L139.554 405.934L139.972 406.143L140.705 406.771L141.123 406.981L141.647 406.771L142.484 406.143L142.903 405.934L143.531 406.039L144.577 406.353L145.1 406.457L152.95 405.411L154.101 405.725L155.985 405.411L157.136 405.725L161.532 407.609L164.044 408.027L165.3 408.76L165.928 408.969L168.335 408.655L168.963 408.76L170.428 409.388H171.056L171.579 409.178L172.626 408.55L173.254 408.446L173.358 408.341L173.672 408.027L173.882 407.923L174.51 408.132L174.928 407.818L175.137 407.504L175.033 407.19L174.614 406.876L171.893 406.353L171.684 406.143L171.37 405.725L171.16 405.516L170.323 405.411L169.172 405.097L165.928 403.422L165.3 403.318L165.09 403.213L164.567 402.481L164.462 402.271L164.148 402.167L163.206 402.062L161.95 401.539L161.532 401.225L161.741 400.702L161.427 400.178V399.864L161.637 399.446V399.132L161.532 398.608L161.637 397.667L161.741 397.039L162.055 396.62L162.578 396.411L162.997 396.201L163.206 395.469L163.625 394.213L164.672 392.434L164.776 392.329L169.277 393.376L181.94 390.236L187.592 386.678L186.022 384.794L188.429 382.387L192.511 376.841L194.604 376.213L196.069 376.318L196.906 375.585L216.896 371.399L225.687 370.98L231.548 365.957L236.677 370.562L238.456 369.411L240.549 371.504L240.654 375.062L243.479 376.422L245.991 376.108L246.933 377.783L248.398 378.829L251.015 378.62L253.003 379.353H254.259L257.085 380.713Z" fill="#009649" stroke="white" stroke-width="2" stroke-linejoin="round" data-country-region="West Region"></path>
<path class="region" d="M642.019 190.77L640.554 191.502L639.402 190.77L638.356 188.886L637.205 187.316L635.949 185.746L635.007 184.176L634.797 182.502L635.007 180.932L635.739 179.572L636.577 178.735L638.251 178.002L639.402 178.316L641.391 179.886L642.542 181.665L643.379 182.083L644.112 183.967L643.903 186.583L643.275 188.99L642.019 190.77Z" fill="#009649" stroke="white" stroke-width="2" stroke-linejoin="round" data-country-region="North Region"></path>
</svg>