<svg width="1139" height="561" viewBox="0 0 1139 561" fill="none" xmlns="http://www.w3.org/2000/svg">
<path class="region" d="M808.071 435.851L798.384 419.533L776.047 384.141L753.824 350.734L735.476 321.295L729.436 289.982V260.434L741.63 230.995L763.967 209.495L784.139 199.683L810.579 189.87L806.476 225.152L832.916 244.777L867.333 256.575L907.905 274.216L924.088 287.998H946.425L956.568 254.59V230.995L984.945 219.308L1009.33 199.683L1020.16 178.954L1082.39 192.626L1125.81 208.172L1138 226.806L1101.76 285.241L1048.54 347.316L984.261 396.821L913.945 416.997L836.677 425.267L808.071 435.851Z" fill="#009649" stroke="white" stroke-width="2" stroke-linejoin="round" data-country-region="East Region"></path>
<path class="region" d="M1020.16 178.954L1009.33 199.682L984.944 219.308L956.567 230.995V254.59L946.424 287.998H924.087L907.904 274.216L867.332 256.575L832.915 244.777L806.475 225.152L810.577 189.87L816.618 158.447L828.812 129.008L843.513 110.265L915.653 145.106L1004.43 175.536L1020.16 178.954Z" fill="#009649" stroke="white" stroke-width="2" stroke-linejoin="round" data-country-region="East Region"></path>
<path class="region" d="M755.875 67.9264L733.537 93.6161L696.955 97.5853L658.434 95.6007L630.057 97.5853L605.783 121.07L597.577 146.649L617.863 168.259L630.057 191.744L634.16 215.339L609.771 234.965L577.405 252.605L561.108 276.2L575.354 297.811V329.234L546.977 356.687L520.537 376.313L494.211 348.859L469.822 329.234L445.548 321.295L439.507 307.623L451.588 295.826L463.782 282.044L461.731 262.418L431.302 238.934L409.079 221.182L386.742 199.683L370.559 178.072V142.68L372.496 117.211L378.65 83.8033L382.297 54.5854L469.48 14.2316L516.206 1.00085L599.514 5.74187L679.86 31.1008L755.875 67.9264Z" fill="#009649" stroke="white" stroke-width="2" stroke-linejoin="round" data-country-region="West Region"></path>
<path class="region" d="M520.538 376.313L524.64 415.564L522.589 441.034L530.68 470.472L561.109 501.895L589.486 517.662L626.069 531.333L647.723 536.956L638.833 547.321L622.422 554.046L582.193 560L505.722 558.567L468 549.195L451.931 531.003L425.149 489.436L360.075 460.549L281.895 442.908L214.769 435.852L78.695 439.269L23.308 426.259L0.628906 384.252L14.1907 336.4L107.756 208.172L121.204 150.839L136.817 118.534L171.918 83.8035L213.516 59.3266L243.602 54.5856L311.981 63.1856L382.298 54.5856L378.651 83.8035L372.497 117.211L370.56 142.68V178.073L386.743 199.683L409.08 221.183L431.303 238.934L461.732 262.419L463.783 282.044L451.589 295.826L439.508 307.624L445.549 321.295L469.823 329.234L494.212 348.859L520.538 376.313Z" fill="#009649" stroke="white" stroke-width="2" stroke-linejoin="round" data-country-region="West Region"></path>
<path class="region" d="M843.515 110.265L828.814 129.008L816.619 158.447L810.579 189.87L784.139 199.683L763.967 209.495L741.63 230.995L729.436 260.434V289.983L735.476 321.295L753.825 350.734L776.048 384.141L798.385 419.534L808.072 435.851L775.478 447.98L665.844 520.638L647.723 536.956L626.07 531.333L589.487 517.662L561.11 501.895L530.681 470.472L522.589 441.033L524.641 415.564L520.538 376.313L546.978 356.687L575.355 329.234V297.811L561.11 276.2L577.407 252.606L609.773 234.965L634.161 215.339L630.058 191.744L617.864 168.26L597.578 146.649L605.784 121.07L630.058 97.5854L658.436 95.6008L696.956 97.5854L733.539 93.6162L755.876 67.9265L843.515 110.265Z" fill="#009649" stroke="white" stroke-width="2" stroke-linejoin="round" data-country-region="East Region"></path>
</svg>