<svg width="577" height="565" viewBox="0 0 577 565" fill="none" xmlns="http://www.w3.org/2000/svg">
<path class="region" data-country-region="North Region" d="M271.395 24.1902L273.124 25.4005L275.141 25.5734L275.775 26.0345L276.294 26.5533L277.331 27.9365L277.504 28.3976L277.677 29.7809L277.907 30.4725L278.368 31.5676L279.06 32.3745L279.291 32.4898L291.221 35.0257L294.391 35.0834L301.135 32.8932L302.057 32.7779L303.094 33.0661L314.276 33.7001L316.696 34.507L318.022 35.9479L318.944 36.5819L319.348 37.043L319.521 38.1381L319.405 38.8874L319.175 39.6943L318.483 41.0199L317.907 42.749L317.042 44.0169L315.428 45.5155L311.855 47.9362L310.011 48.8584L308.8 49.2618L308.454 49.0313L308.109 48.1091L307.82 47.7056L307.302 47.5327L305.688 47.7056L302.172 48.916L292.835 54.7372L292.547 55.1983L292.259 56.2358L291.913 56.8698L291.337 57.3885L290.184 57.9072L287.59 58.4836L286.899 58.253L286.495 57.2732L286.092 56.985L285.746 57.1003L282.345 59.6363L281.423 59.9245L279.982 59.7516L279.636 59.8092L278.196 60.2703L277.85 60.9619L277.734 61.9994L278.484 64.8235L278.714 66.4373L278.484 71.5093L279.118 73.9876L276.121 74.6216L274.507 75.5438L273.354 75.7167L272.72 75.6591L271.913 74.8522L271.279 73.7571L270.818 71.9704L270.53 71.394L269.031 68.9157L268.34 61.6535L268.513 60.5008L268.57 59.2905L268.974 57.3885L268.916 56.1205L268.167 54.7372L267.706 53.6422V52.8929L268.225 51.1062L268.052 50.6451L267.706 50.4145L266.438 50.5298L265.746 50.3569L265.17 49.9534L264.305 48.282L263.671 47.648H263.095L262.403 47.9938L261.942 48.6278L261.135 49.8958L260.674 50.4722L260.098 50.8756L259.522 51.1062L257.735 51.0485L256.352 50.4722L255.429 50.3569L254.738 50.4145L253.354 50.7604L251.856 50.8756L250.415 50.7604L249.089 51.0485L247.994 51.5096L247.13 51.5673L246.035 51.452L243.268 50.4145L242.461 50.2993L241.136 50.3569L240.213 50.2416L239.752 50.0111L239.522 49.4924L239.118 47.8209L238.657 47.2446L238.081 46.8411L233.874 45.4002L233.182 44.7662L232.778 43.9593V42.8642L232.606 41.6539L232.375 41.0199H232.778L239.118 37.5041L242.346 36.9277L243.96 36.4666L245.977 35.4292L247.937 34.1036L249.205 32.6627L249.954 30.703V28.9163L249.723 26.8414L249.781 24.3631L253.297 25.1124L254.45 24.8818L255.372 24.0749L256.121 23.0375L256.928 22.1729L258.138 21.9424L259.06 22.4035L261.424 24.5936L262.807 25.4582L264.421 25.804H265.285L268.743 24.9395H270.933L271.395 24.536V24.1902Z" fill="#009649" stroke="white" stroke-width="2" stroke-linejoin="round"></path>
<path class="region" data-country-region="East Region" d="M537.5 154.39L539.344 156.407L539.92 158.021L539.056 159.462L533.926 161.825L535.194 164.015L536.635 165.86L538.306 167.07L540.266 167.531H544.301L545.223 168.05L545.569 169.376L545.626 170.989L545.914 172.257L548.45 175.254L552.081 177.099L571.62 182.171L573.119 184.764L574.963 185.629L576 188.395L575.77 191.623L574.329 193.064L565.914 193.467L565.453 193.122L564.646 191.911L564.185 191.681L563.493 191.969L562.859 193.179L562.341 193.583L558.306 194.101L556.174 193.986L554.329 193.237L553.292 192.199L551.447 189.548L550.295 188.914L548.162 189.433L548.796 191.45L550.064 194.044L549.718 196.291L547.586 196.753L542.11 196.176L540.67 197.502L540.785 198.712L541.534 199.807L542.514 200.787L543.263 201.652L544.012 203.381L544.301 204.706L544.646 208.049L545.453 212.084L545.569 213.525L545.338 214.85L544.877 216.522L544.589 218.193L544.762 219.576L545.857 220.556L547.816 219.807L548.739 220.787L549.084 222.862L548.393 223.899L547.298 224.36L546.375 224.937L544.819 227.53L543.955 228.683L542.802 229.432L541.361 229.259L539.402 227.069L538.076 226.666L535.425 228.164L535.713 230.931L537.845 234.908L536.75 235.253L525.511 235.542L522.514 234.504L518.537 231.911L515.194 228.279L514.157 224.36L514.849 223.035L516.981 221.421L517.269 220.037L517.096 219.576L516.405 218.481L516.29 217.04L515.713 215.657L515.31 215.254L514.676 215.023L511.967 214.735L510.814 214.216L509.604 212.833L505.973 205.398L505.512 204.764L504.935 204.361L504.301 204.476L503.783 204.995L503.264 206.608L502.976 207.3L502.053 207.819L501.304 207.415L500.613 206.493L500.036 205.398L499.402 203.611L498.941 202.977L498.192 202.631L497.558 202.747L496.232 203.554L495.541 203.842L494.791 203.784L493.178 203.438L492.428 203.381L490.987 203.957V204.245L490.872 204.188L488.74 200.729L487.99 198.655L487.817 197.214V196.119L487.933 194.966L488.106 194.101L488.394 193.352L488.797 192.545L491.16 189.721L491.91 190.124H492.313L492.832 189.952L493.293 189.49L493.754 188.511L494.157 186.839L494.215 185.168L494.1 184.303L493.869 183.784L493.35 183.323L492.774 183.15L489.546 182.689L488.567 182.228L488.221 181.767V181.191L488.509 177.214L488.74 176.004L489.431 175.37L490.469 174.851L494.676 174.275L495.137 173.698L495.368 173.179L495.771 172.661L496.347 172.43L499.806 172.545L500.209 172.373L500.497 172.027L500.67 171.162V169.779L500.785 168.799L501.189 168.165L501.881 167.646L502.053 167.185L502.226 166.551L502.457 163.266L502.687 162.286L503.321 161.768L504.301 161.134L506.607 160.096L508.451 158.886L515.54 159.232L516.405 158.598L516.981 157.964L517.096 157.157V156.35L516.981 155.37L516.693 154.736L515.713 153.468L515.656 152.776L515.886 152.488L516.462 152.315L519.171 151.854L520.094 151.508L520.67 151.105L521.246 150.471L521.592 150.183L522.745 149.837L523.955 149.952L524.82 150.298L526.088 151.278L527.01 152.315L527.298 153.295L527.701 153.929L527.99 154.217L529.085 154.851L529.892 155.716L530.295 156.638L530.814 156.869L531.678 156.926L535.021 156.235L536.52 155.082L537.5 154.39Z" fill="#009649" stroke="white" stroke-width="2" stroke-linejoin="round"></path>
<path class="region" data-country-region="North Region" d="M327.821 26.1497L327.475 27.1296L326.668 29.7808L326.38 30.8183L323.498 37.504L322.864 37.9651L322.057 36.9277L321.192 35.602L319.982 34.968L316.697 34.507L314.276 33.7L303.095 33.0661L302.057 32.7779L301.135 32.8931L294.392 35.0833L291.222 35.0257L279.291 32.4897L279.061 32.3744L278.369 31.5675L277.908 30.4724L277.677 29.7808L277.504 28.3975L277.332 27.9365L276.294 26.5532L275.775 26.0345L275.141 25.5734L273.124 25.4005L271.395 24.1901L271.28 22.9798L270.819 22.2881L269.147 21.193L268.571 20.4438L268.283 19.2911L268.456 16.9856L268.398 15.8905L267.245 11.9713L266.899 10.0693L267.015 7.99442L269.839 4.76681L272.894 3.55645L274.392 2.63428L276.236 2.00028L277.62 0.386475L278.369 1.42392L279.003 0.386475L280.098 1.30865L281.366 1.48156L282.576 1.36629L283.671 1.42392L284.536 2.00028L286.207 3.72936L287.014 4.36335L287.879 4.42099L289.954 4.19045L290.991 4.36335L291.971 4.88208L294.853 7.24515L299.06 9.89641L300.386 11.1644H300.962L301.366 9.95404L302 9.43532L302.749 9.55059L303.614 10.1269L306.207 10.6457L308.34 12.0866L310.069 14.2767L311.683 16.9856L313.527 19.4063L316.466 21.2507L317.677 23.729H318.311L319.06 21.7118L319.752 22.1729L322.345 22.7492L323.21 23.2679L324.074 24.2478L324.708 24.8241L325.169 23.729H325.688L326.956 24.997L327.821 26.1497Z" fill="#009649" stroke="white" stroke-width="2" stroke-linejoin="round"></path>
<path class="region" data-country-region="North Region" d="M371.393 80.2701L370.586 80.5006L369.664 80.5582L364.534 79.809L363.612 79.8666L362.632 80.1548L360.788 81.3075L360.269 81.711L359.75 82.3449L356.869 86.7829L355.312 88.4544L354.678 89.2613L354.448 89.8376L354.909 90.5869V90.9327L354.448 91.9125L354.39 92.3736L354.505 93.0652L355.197 95.6589L351.797 92.3736L350.413 91.3362L349.895 90.8174L349.318 90.1258L347.993 88.0509L347.186 87.1287L346.436 86.61L345.111 86.4371L344.362 86.4947L343.728 86.7253L342.114 87.9356H341.595L341.134 87.6475L340.73 86.61L340.788 85.4573L340.961 84.074V82.9213L339.924 81.6533L338.194 80.443L334.218 78.3681L332.834 77.3883L332.2 76.2355L333.238 73.5266L333.295 72.835L333.007 72.3163L332.489 71.9128L330.875 70.9907L330.298 70.5296L329.78 69.9532L329.376 68.9158L329.03 67.4172L328.8 66.9562L328.454 66.6103L327.762 66.3222L326.379 66.034L325.86 66.0916L325.399 66.4374L324.996 67.2443L324.65 68.7429L324.074 69.5498L323.151 70.3567L322.518 70.933L322.114 70.9907L321.422 70.3567L321.077 69.665L320.5 69.2039L319.693 69.2616L317.964 70.0109L316.293 71.0483L314.16 74.8523L313.353 77.273L312.028 80.0971L311.682 82.2297L311.567 88.1085L310.183 87.4169L307.244 88.6273L306.552 88.7425L305.918 88.512L305.515 88.1662L304.708 87.6475H304.132L303.325 87.9356L302.691 87.7051L302.518 87.244L302.114 86.7253L301.538 86.1489L297.792 83.9588L297.215 83.4977L294.737 80.904L294.161 80.6159H293.815L293.296 81.1922L292.777 82.172L291.74 82.9789L290.414 83.3248L289.838 83.2095L289.607 82.9789L290.068 81.077V80.7888L289.665 80.1548L288.916 79.2326L287.302 76.8695L286.264 76.3508L279.118 73.9877L278.484 71.5094L278.714 66.4374L278.484 64.8236L277.734 61.9995L277.85 60.962L278.195 60.2704L279.636 59.8093L279.982 59.7517L281.423 59.9246L282.345 59.6364L285.746 57.1004L286.092 56.9851L286.495 57.2733L286.898 58.2531L287.59 58.4837L290.184 57.9073L291.336 57.3886L291.913 56.8699L292.259 56.2359L292.547 55.1984L292.835 54.7373L302.172 48.9161L305.688 47.7057L307.302 47.5328L307.82 47.7057L308.109 48.1092L308.454 49.0314L308.8 49.2619L310.011 48.8585L311.855 47.9363L315.428 45.5156L317.042 44.017L317.907 42.7491L318.483 41.02L319.175 39.6943L319.405 38.8874L319.52 38.1382L319.348 37.0431L318.944 36.582L318.022 35.948L316.696 34.5071L319.982 34.9682L321.192 35.6022L322.056 36.9278L322.863 37.9653L323.497 37.5042L326.379 30.8184L326.667 29.781L327.474 27.1297L327.82 26.1499L328.396 26.9568L329.319 29.2622L329.03 31.4524L330.702 36.4091L331.393 37.216L332.085 37.85L335.716 42.1151L338.137 46.6107L339.059 47.8787L344.246 52.0861L345.053 53.1812L345.514 54.6797L346.667 55.89L351.335 59.4635L352.834 60.1551L360.73 60.4433L361.825 61.0773L365.744 66.2069L366.263 67.5325L367.474 72.0281L367.704 73.4114L368.396 75.7745L369.894 76.3508L371.508 76.5814L372.373 77.7917L371.623 77.9646L370.413 78.4833L369.779 78.6563V79.6361L371.22 80.0971L371.393 80.2701Z" fill="#009649" stroke="white" stroke-width="2" stroke-linejoin="round"></path>
<path class="region" data-country-region="North Region" d="M269.031 68.9154L270.53 71.3938L270.818 71.9701L271.279 73.7568L271.913 74.8519L272.72 75.6588L273.354 75.7165L274.507 75.5435L276.121 74.6214L279.118 73.9874L286.265 76.3505L287.302 76.8692L288.916 79.2323L289.665 80.1544L290.069 80.7884V81.0766L289.607 82.9786L289.838 83.2091L290.414 83.3244L291.74 82.9786L292.777 82.1717L293.296 81.1919L293.815 80.6155H294.161L294.737 80.9037L297.215 83.4973L297.792 83.9584L301.538 86.1486L302.114 86.7249L302.518 87.2436L302.691 87.7047L303.325 87.9353L304.132 87.6471H304.708L305.515 88.1658L305.918 88.5116L306.552 88.7422L307.244 88.6269L310.183 87.4166L311.567 88.1082L311.451 89.5491L311.509 90.8747L311.913 95.3127L311.855 96.1772L311.682 97.9639L311.163 99.9812L309.78 101.826L309.031 102.344L308.166 102.632H306.898L306.207 102.287L305.861 101.768L305.918 101.134L306.149 100.442V99.7506L305.861 99.2319L305.342 99.1743L304.708 99.5777L302.576 103.036L302.345 104.016L302.403 105.168L302.748 107.301L302.46 107.993L301.884 108.281L298.714 107.013L295.89 107.07L295.083 107.474L294.045 109.318L292.489 110.356L288.339 105.341L287.187 103.439L286.956 102.575L286.668 102.287H286.092L285.803 102.632L285.4 103.612L285.227 103.785H281.25L281.538 104.823L281.654 106.091L281.538 106.955L280.847 109.779L280.443 112.546L280.155 113.122L279.809 113.353L277.907 113.929L276.928 113.699L275.256 112.661L274.795 112.719L274.276 113.18L272.72 115.543L272.49 116.523L272.317 117.848L272.951 121.537L272.547 123.381L273.066 127.474L271.222 131.508L269.896 132.718L267.302 133.813L266.207 133.583L265.4 132.949L264.766 132.257L264.017 131.739L263.383 131.508L262.346 131.335L261.942 131.162L261.596 130.701L260.847 129.318L259.81 128.742L259.06 128.569H258.542L257.908 128.857L257.562 129.203L255.948 130.989L253.182 133.237L252.432 133.583L251.51 133.698L249.435 133.468L248.916 133.698L248.628 134.159L248.571 134.851L248.686 135.6L248.916 136.004L249.32 136.234L250.184 136.522L250.646 136.868L250.818 137.387L250.876 138.367L250.991 138.943L251.222 139.404L251.568 139.808L253.239 141.133L253.816 141.883L254.046 142.632V144.707L254.161 145.225L254.738 145.975L254.911 146.378L254.45 146.724L253.239 146.609L252.029 146.897L251.395 147.3L248.628 150.586L247.764 149.779L247.303 149.49L246.611 149.26L245.574 149.202L244.824 149.318L244.133 149.894L243.326 150.701L241.943 151.047L237.85 150.758L237.101 149.433L237.159 146.839L236.582 145.686L234.623 143.381L231.914 142.92L231.28 142.401L231.338 141.479L231.222 141.018L230.934 140.672L229.954 140.326L228.513 140.845L225.92 144.015L224.652 144.361L223.614 144.476L223.096 144.361L222.692 144.13L220.848 141.594L220.271 140.96L218.888 139.692L218.715 139.058L219.061 138.482L219.58 137.963L219.926 137.329L219.983 136.638L219.522 133.986L219.176 133.698L218.254 134.736L217.966 134.909H217.505L216.929 134.678L215.776 133.929L214.854 133.525L213.874 133.179L211.338 132.661L207.707 130.355L207.13 130.125L206.381 130.01L205.228 130.125L204.537 130.471L203.73 131.393L202.808 133.007L202.058 133.064L201.021 132.603L198.427 130.644L196.756 128.857L196.525 127.992L196.756 127.07L196.698 126.782L196.18 126.436L192.894 124.765L191.857 123.842L190.358 122.344L189.667 121.076L189.148 120.557L188.629 120.211L187.707 120.096L184.018 120.73L182.232 122.805L180.848 123.67L179.235 121.825L178.946 121.595L178.601 121.768L177.39 122.056L176.987 122.459L176.814 123.036L176.41 123.324L175.142 122.805L174.278 122.171L173.759 121.479L172.837 119.635L171.857 118.713L171.166 118.367L170.993 117.791L171.569 116.119L172.376 115.197L176.295 112.949L188.514 108.915L189.667 107.935L189.551 106.609L189.148 105.168L189.609 103.843L190.704 103.324L191.799 103.497L192.894 103.843L193.989 104.016L194.969 103.67L196.756 102.171L197.736 101.71L203.903 102.748L207.707 102.632L209.609 102.056L211.568 101.019L212.548 99.6354L212.491 97.6181L211.338 94.794L210.934 93.0072L211.338 91.3358L212.029 89.722L212.548 87.9353L212.663 85.6298L212.491 81.3071L214.22 81.3648L221.078 81.8835L223.096 81.5377L224.364 80.6155L226.035 79.9815H226.842L228.168 80.7308L229.436 81.2495L235.545 83.0362L236.294 83.4973L236.871 84.0737L237.793 85.7451L238.196 86.7249L235.718 88.1658L230.646 89.3185L229.205 89.3762L227.418 89.3185L226.669 89.5491L226.266 90.0678L226.554 91.624L226.611 92.6038L226.554 93.526L226.035 94.5634L225.286 94.9669L222.807 95.4279L221.885 96.0043L221.77 96.9265L221.309 99.0014L222.116 99.7506H225.632L226.842 100.846L229.205 104.131L228.168 105.745L225.92 108.857L227.937 111.681L225.92 116.004L222.923 114.102L222.116 115.831L221.77 117.214L221.712 118.021L221.77 118.655L222 119.347L222.462 119.866L223.153 120.615L225.862 122.632L231.914 125.399L233.124 126.263L233.585 126.84L234.335 128.684L234.796 129.145L236.467 130.24L238.139 127.416L238.888 120.269L240.847 117.041L252.836 109.203L257.562 104.304L257.908 104.362L260.674 106.148L262.346 106.84L262.807 106.321L263.095 105.111L263.787 103.67L264.075 102.575L264.248 101.249L264.478 100.558L265.977 98.8861L266.207 98.5403L265.977 97.7334L265.4 96.523L261.885 91.624L261.308 90.5865L260.04 86.7826L257.389 81.5953L260.271 80.5002L260.905 79.8662L260.155 79.0593L259.925 78.3101L259.983 77.4455L260.213 76.9268H260.674L261.481 77.0997L262.057 77.3879H262.807L263.787 77.1574L264.075 76.8692V76.5234L263.498 75.8317L262.576 75.1977L262.23 74.3908L262.576 74.045L264.075 73.2381L264.363 72.777L264.421 72.3736L264.132 72.0278L263.498 71.509L262.922 71.2785L262.461 70.5292L262.403 69.7223L262.691 69.2612L263.037 69.0307L263.441 69.0883L264.882 69.4918L265.631 69.4341L266.957 68.6849L267.648 68.512L269.031 68.9154Z" fill="#009649" stroke="white" stroke-width="2" stroke-linejoin="round"></path>
<path class="region" data-country-region="East Region" d="M446.838 178.943L430.989 176.58L430.066 176.695L429.375 176.868L428.798 177.272L427.934 178.136L427.53 178.885L427.588 179.231L427.876 179.865L428.222 180.384L428.337 180.903L428.049 181.248L427.185 181.421L426.608 181.998L425.801 183.611L424.764 184.764L423.726 185.513L421.652 186.32L420.902 186.436L418.539 186.205L417.963 186.32L417.675 186.609L417.559 188.338L417.214 189.663L416.868 190.124L416.522 190.355L415.427 190.701L414.101 190.816L412.43 190.585L410.816 190.067L410.528 189.721L410.758 189.087L411.796 187.243L411.565 186.493L410.24 184.303L410.124 183.727L410.297 182.459L410.182 181.594L409.836 180.73L409.375 180.384L408.511 179.98L406.436 179.404L404.995 179.346L402.055 179.635L400.441 179.404L397.733 178.194L395.139 176.522L393.352 175.081L389.779 170.701L388.165 168.972L379.635 162.92L376.061 162.978L371.162 165.168L369.779 165.341L368.569 164.995L367.531 164.303L365.918 163.842L364.592 164.073L363.439 164.822L359.174 168.338L355.485 169.202L347.532 164.188L346.494 163.266L346.321 162.805L346.379 161.71L346.84 160.788L347.301 160.038L347.474 159.52L347.589 158.77L347.416 157.963L347.128 157.618L346.725 157.56L346.264 157.675L344.938 158.309L343.728 158.54L342.114 155.889L341.365 155.082L338.079 153.468L334.621 150.586L334.275 149.491L334.391 148.165L334.448 146.84L334.737 144.765L336.062 140.73L337.561 141.307L337.849 142.402L337.791 143.036L337.849 143.727L338.483 144.419L343.094 146.609L344.016 146.84L344.592 146.782L345.169 146.494L345.803 146.321L347.128 146.206L348.396 146.667L349.549 146.436L352.085 145.629L353.526 145.399L355.774 145.284L357.042 144.995L357.964 144.477L358.425 143.9L359.059 143.324H359.52L360.039 143.727L360.846 144.592L362.229 145.745L363.209 146.321L364.246 146.436L374.159 144.822L375.543 144.938L378.886 145.918L380.384 145.975L381.479 145.802L382.286 145.399L382.805 144.822L383.266 144.016L384.476 139.923L384.592 139.174L384.476 138.54L384.246 138.137L383.439 136.869L387.531 137.676L388.165 138.137L388.799 138.598L389.433 139.232L389.836 139.52L390.643 139.405L391.162 138.886L391.508 137.964V136.984L391.854 136.638L398.597 140.5L399.173 140.673L399.577 140.903L400.672 142.171L401.421 142.863L404.822 145.111L410.355 146.84L411.219 147.301L412.142 147.647L416.464 148.165L417.386 148.569L418.02 149.088L418.366 149.722L418.827 150.874L419.346 151.22L420.153 151.393L421.133 151.335L424.418 150.759L426.032 150.932L427.127 151.335L427.646 151.22L428.28 150.874L431.623 148.338L432.314 147.647L433.006 146.667L433.87 145.053L435.311 141.307L444.533 130.01L447.011 129.146L453.639 130.529L454.273 130.817L454.792 131.163L455.945 132.373L456.521 132.719L458.366 133.238L459.115 133.641L460.037 135.082L460.729 136.408L460.613 137.099L459.922 138.021L459.288 138.367L457.962 138.886L457.789 139.059L457.674 139.866L457.789 142.402L458.077 142.632L458.827 142.863L459.23 143.093L459.576 143.497L460.44 144.938L460.844 145.399L461.766 145.745L465.916 145.629L466.204 145.745L466.723 146.206L467.818 147.762L468.567 148.281H468.971L470.354 147.82L474.388 148.05L475.022 147.935L475.541 147.647L475.829 146.782L475.887 145.226L476.175 144.304L476.579 144.016L477.27 144.073L477.674 144.304L478.653 145.341L480.555 146.609L480.844 147.013L480.959 147.531L480.901 148.338L481.132 148.915L481.42 149.491L482.112 150.413L481.881 150.932L480.844 151.105L478.711 151.162L477.155 151.566L472.89 153.526L471.737 153.41L469.259 152.546H468.567L467.53 153.122L462.054 157.502L461.478 157.675L459.461 158.136L456.982 158.194L455.887 158.597L454.792 159.404L451.449 162.69L450.988 163.324L449.778 165.629L449.259 166.205L448.74 166.494L448.049 166.667L447.357 166.955L446.723 167.416L446.262 167.992L446.377 168.741L447.184 169.087L448.049 169.606L448.337 169.952L448.798 171.162L449.086 172.257L449.547 173.295L449.432 174.678L446.838 178.943Z" fill="#009649" stroke="white" stroke-width="2" stroke-linejoin="round"></path>
<path class="region" data-country-region="North Region" d="M355.197 95.6593L368.511 104.996L368.684 105.746L368.626 107.417L368.684 107.878L369.087 108.627L369.779 109.492L371.278 110.414L372.2 111.567L373.007 112.374L375.888 111.74L376.35 111.913L376.811 112.374L377.156 113.469L377.272 114.276L377.156 114.91L376.695 115.947L376.522 116.408L377.156 117.503L379.001 119.059L380.211 119.002L380.672 118.714L381.537 117.849L382.056 117.503L382.689 116.869L383.035 116.754L383.612 116.812L384.476 117.1L385.225 117.503L389.202 120.385L389.491 121.019L389.433 122.863L382.862 134.391L383.439 136.869L384.246 138.137L384.476 138.54L384.592 139.174L384.476 139.924L383.266 144.016L382.805 144.823L382.286 145.399L381.479 145.803L380.384 145.975L378.886 145.918L375.543 144.938L374.159 144.823L364.246 146.437L363.209 146.321L362.229 145.745L360.845 144.592L360.039 143.728L359.52 143.324H359.059L358.425 143.901L357.964 144.477L357.041 144.996L355.774 145.284L353.526 145.399L352.085 145.63L349.549 146.437L348.396 146.667L347.128 146.206L345.802 146.321L345.169 146.494L344.592 146.782L344.016 146.84L343.094 146.609L338.483 144.419L337.849 143.728L337.791 143.036L337.849 142.402L337.561 141.307L336.062 140.731L334.736 144.765L334.448 146.84L334.391 148.166L334.275 149.491L334.621 150.586L332.95 151.624L332.431 151.739L332.143 151.509L331.624 150.529L331.278 150.01L330.587 149.664L328.627 149.779L327.762 149.664L327.013 149.376L326.264 148.8L325.515 148.05L324.938 146.725L324.881 146.148L325.054 145.803L325.63 145.745L326.206 145.86H327.013L328.742 144.073L328.569 143.555L328.108 142.748L326.667 140.846L325.745 139.29L325.169 138.829L324.304 138.483L323.728 137.964L322.921 136.638L322.518 135.774L321.134 132.085L320.731 131.509L320.154 131.105L317.791 130.76L316.869 130.471L316.178 130.01L315.14 128.627L314.621 128.166L307.993 125.054L305.976 124.593H304.189L303.671 124.304L302.806 123.44L301.308 121.48L299.117 119.809L297.849 119.29L296.812 119.002L295.947 118.541L294.852 117.676L294.045 117.388L293.296 117.273L292.95 116.985L292.893 116.351L293.239 114.622L293.527 113.584L293.93 112.777V111.855L292.489 110.356L294.045 109.319L295.083 107.475L295.89 107.071L298.714 107.014L301.884 108.282L302.46 107.993L302.748 107.302L302.403 105.169L302.345 104.017L302.576 103.037L304.708 99.5785L305.342 99.1751L305.861 99.2327L306.149 99.7514V100.443L305.918 101.135L305.861 101.769L306.207 102.287L306.898 102.633H308.166L309.031 102.345L309.78 101.826L311.163 99.982L311.682 97.9647L311.855 96.178L311.913 95.3135L311.509 90.8755L311.451 89.5499L311.567 88.109L311.682 82.2301L312.028 80.0976L313.353 77.2734L314.16 74.8527L316.293 71.0487L317.964 70.0113L319.693 69.262L320.5 69.2044L321.077 69.6655L321.422 70.3571L322.114 70.9911L322.518 70.9335L323.152 70.3571L324.074 69.5502L324.65 68.7433L324.996 67.2448L325.399 66.4379L325.86 66.0921L326.379 66.0344L327.762 66.3226L328.454 66.6108L328.8 66.9566L329.03 67.4177L329.376 68.9162L329.78 69.9537L330.298 70.53L330.875 70.9911L332.489 71.9133L333.007 72.3167L333.296 72.8355L333.238 73.5271L332.2 76.236L332.834 77.3887L334.218 78.3685L338.195 80.4434L339.924 81.6538L340.961 82.9218V84.0745L340.788 85.4577L340.731 86.6105L341.134 87.6479L341.595 87.9361H342.114L343.728 86.7257L344.362 86.4952L345.111 86.4375L346.437 86.6105L347.186 87.1292L347.993 88.0514L349.318 90.1262L349.895 90.8179L350.413 91.3366L351.797 92.3741L355.197 95.6593Z" fill="#009649" stroke="white" stroke-width="2" stroke-linejoin="round"></path>
<path class="region" data-country-region="East Region" d="M429.778 106.552L430.47 109.261L431.392 111.567L432.545 113.642L432.948 114.91L433.409 115.717L433.813 116.062L436.579 116.639L437.156 116.869L437.732 117.503L438.424 118.368L439.231 119.982L439.577 121.077L439.865 122.921L440.499 123.613L441.594 124.42L446.378 127.013L446.781 127.474L447.012 129.146L444.533 130.01L435.311 141.307L433.871 145.053L433.006 146.667L432.314 147.647L431.623 148.339L428.28 150.874L427.646 151.22L427.127 151.336L426.032 150.932L424.418 150.759L421.133 151.336L420.153 151.393L419.346 151.22L418.828 150.874L418.367 149.722L418.021 149.088L417.387 148.569L416.465 148.166L412.142 147.647L411.22 147.301L410.355 146.84L404.822 145.111L401.422 142.863L400.672 142.171L399.577 140.903L399.174 140.673L398.597 140.5L391.854 136.638L391.508 136.984V137.964L391.162 138.886L390.644 139.405L389.837 139.52L389.433 139.232L388.799 138.598L388.165 138.137L387.531 137.676L383.439 136.869L382.863 134.391L389.433 122.863L389.491 121.019L389.203 120.385L385.226 117.503L384.477 117.1L383.612 116.812L383.036 116.754L382.69 116.869L382.056 117.503L381.537 117.849L380.673 118.714L380.212 119.002L379.001 119.059L377.157 117.503L376.523 116.408L376.696 115.947L377.157 114.91L377.272 114.276L377.157 113.469L376.811 112.374L376.35 111.913L375.889 111.74L373.007 112.374L372.2 111.567L371.278 110.414L369.779 109.492L369.088 108.627L368.684 107.878L368.627 107.417L368.684 105.746L368.511 104.996L355.198 95.6593L354.506 93.0657L354.391 92.374L354.448 91.9129L354.909 90.9331V90.5873L354.448 89.838L354.679 89.2617L355.313 88.4548L356.869 86.7833L359.751 82.3454L360.269 81.7114L360.788 81.3079L362.633 80.1552L363.612 79.867L364.535 79.8094L369.664 80.5587L370.586 80.501L371.393 80.2705L372.315 81.135L373.353 81.3656L374.39 79.6365L374.967 81.9996L374.851 83.2675L375.14 83.671L377.099 83.5557L379.405 82.6335L380.442 83.0946L381.076 85.3424L381.595 84.939L382.229 84.0744L383.036 83.5557L391.335 83.9015L395.485 84.7661L399.058 86.3799L403.669 91.2789L404.419 92.6046L404.534 93.7573L404.995 95.8322L405.11 97.446L405.456 99.1174L406.263 99.6361L408.453 99.7514L420.326 103.44L423.15 105.515L425.052 108.8V109.377L426.263 109.146L426.781 108.166L427.242 107.071L428.165 106.552H429.778Z" fill="#009649" stroke="white" stroke-width="2" stroke-linejoin="round"></path>
<path class="region" data-country-region="North Region" d="M238.196 86.7251L239.291 87.7049L239.464 88.1083V88.8576L239.81 89.4916L240.79 89.9527L253.009 83.3245L254.796 82.8058L255.948 81.7684L257.389 81.5955L260.04 86.7827L261.308 90.5867L261.885 91.6241L265.401 96.5232L265.977 97.7335L266.207 98.5404L265.977 98.8862L264.478 100.558L264.248 101.249L264.075 102.575L263.787 103.67L263.095 105.111L262.807 106.321L262.346 106.84L260.674 106.148L257.908 104.362L257.562 104.304L252.836 109.203L240.848 117.042L238.888 120.269L238.139 127.416L236.467 130.24L234.796 129.145L234.335 128.684L233.586 126.84L233.124 126.263L231.914 125.399L225.862 122.632L223.153 120.615L222.462 119.866L222.001 119.347L221.77 118.655L221.713 118.021L221.77 117.214L222.116 115.831L222.923 114.102L225.92 116.004L227.937 111.681L225.92 108.857L228.168 105.745L229.205 104.131L226.842 100.846L225.632 99.7508H222.116L221.309 99.0015L221.77 96.9266L221.885 96.0044L222.808 95.4281L225.286 94.967L226.035 94.5635L226.554 93.5261L226.612 92.6039L226.554 91.6241L226.266 90.0679L226.669 89.5492L227.418 89.3187L229.205 89.3763L230.646 89.3187L235.718 88.166L238.196 86.7251Z" fill="#009649" stroke="white" stroke-width="2" stroke-linejoin="round"></path>
<path class="region" data-country-region="East Region" d="M446.838 178.943L450.642 181.825L451.103 182.401L451.968 182.92L458.481 185.341L460.671 185.629L463.726 185.456L464.994 184.937L465.743 184.246L466.204 183.554L466.896 183.035L468.106 182.747L470.7 182.401L474.273 182.978L486.261 187.243L491.16 189.721L488.797 192.545L488.394 193.352L488.106 194.101L487.933 194.966L487.817 196.119V197.214L487.99 198.655L488.74 200.73L490.872 204.188L490.987 204.245L490.93 205.168L491.391 206.897L491.621 208.799L489.258 208.741L486.665 207.761L484.302 206.205L480.728 202.343L478.999 200.902L477.155 200.096L470.296 199.462L468.855 198.828L464.417 195.658L462.054 194.735L459.691 195.197L458.596 196.58L458.366 198.309L458.308 200.038L457.616 201.479L455.945 202.516L453.87 202.977L451.737 202.92L449.835 202.574L447.703 201.536L442.285 196.637L440.729 195.831H439.23L437.789 196.58L431.853 203.727L430.239 205.283L429.432 205.686L426.723 206.205L423.842 207.415L422.919 207.531L420.96 206.781L419.173 205.11L413.698 198.078L411.104 195.485L408.165 193.813L404.937 193.64L402.862 194.735L399.289 198.539L397.271 199.807L396.176 199.98L394.044 199.75L389.145 200.384L388.453 200.672L388.914 199.75L389.836 196.868L387.531 198.136L386.321 198.309L385.11 197.905L385.802 197.041L386.09 196.292L386.032 195.485L385.456 194.563L384.707 194.101L384.246 194.62L383.785 195.946L380.557 196.983L378.77 197.156L377.387 196.407L376.522 195.658L373.295 193.525L371.508 192.776L367.704 190.297L365.802 194.39L365.399 195.024L360.788 195.312L359.75 195.946L353.641 193.122L352.258 189.836L350.99 188.396L350.01 187.762L349.606 187.185L349.434 186.609L349.722 185.283L350.125 184.419L352.661 181.883L353.18 181.479L354.678 180.096L355.831 178.079L356.177 177.618L357.618 176.926L359.059 176.811L360.269 176.58L360.903 176.061L361.018 175.773L360.961 175.312L360.673 174.966L359.289 173.756L358.828 173.064L359.001 172.546L359.808 171.739L360.039 171.278L359.981 170.701L359.174 168.338L363.439 164.822L364.592 164.073L365.917 163.843L367.531 164.304L368.569 164.995L369.779 165.341L371.162 165.168L376.061 162.978L379.635 162.92L388.165 168.972L389.779 170.701L393.352 175.082L395.139 176.522L397.733 178.194L400.441 179.404L402.055 179.635L404.995 179.347L406.436 179.404L408.51 179.981L409.375 180.384L409.836 180.73L410.182 181.594L410.297 182.459L410.124 183.727L410.24 184.303L411.565 186.494L411.796 187.243L410.758 189.087L410.528 189.721L410.816 190.067L412.43 190.586L414.101 190.816L415.427 190.701L416.522 190.355L416.868 190.125L417.213 189.663L417.559 188.338L417.675 186.609L417.963 186.321L418.539 186.205L420.902 186.436L421.651 186.321L423.726 185.514L424.764 184.764L425.801 183.612L426.608 181.998L427.184 181.422L428.049 181.249L428.337 180.903L428.222 180.384L427.876 179.865L427.588 179.231L427.53 178.886L427.934 178.136L428.798 177.272L429.375 176.868L430.066 176.695L430.988 176.58L446.838 178.943Z" fill="#009649" stroke="white" stroke-width="2" stroke-linejoin="round"></path>
<path class="region" data-country-region="West Region" d="M60.7925 150.989L60.6772 152.257L60.7925 152.949L61.1383 154.044L62.0028 155.485L62.8674 156.407L68.0546 159.404L68.9191 160.096L69.1497 160.615L68.631 162.056L68.5733 163.151L68.7462 164.534L69.6684 168.684L69.8989 170.125L69.8413 171.162L69.4379 172.603L68.5733 174.447L68.3428 175.254L68.2275 176.119L68.2851 178.482L69.0344 186.147L69.1497 189.375L68.9768 190.643V191.853L69.092 192.775L69.4955 193.64L69.8989 194.159L72.2044 195.139L71.9738 195.83L69.726 199L66.7866 197.905L68.3428 199.807L68.1699 201.882L66.9019 203.842L65.3457 205.398L64.7694 204.418L64.3659 205.571V206.493L64.7694 209.086L63.7319 208.51L63.3285 208.222V209.086L64.8846 210.873L65.5186 213.813L65.2881 217.04L64.0777 219.519L62.9826 220.383L62.1757 220.268L61.4265 219.807L60.389 219.519L59.2363 219.98L58.0836 221.017L57.1614 222.343L56.7003 223.38H56.0663L56.2969 220.671L57.1038 219.461L57.5072 218.308L56.7003 215.772L54.6831 213.87L54.3372 212.833L54.5102 211.853L54.3949 211.219L53.2422 211.046L53.6456 212.66L53.2422 215.138L53.6456 216.233L54.6831 216.925L55.6052 217.04L56.2969 217.328L56.7003 218.654L55.6629 219.691L54.2796 222.4L53.6456 223.15L53.2422 222.458H52.7234L53.1269 223.38L53.2422 224.533L53.1269 225.801L52.7234 227.126L51.9165 226.896L51.5131 226.954L51.5707 227.357L52.0318 228.049V229.028H51.5707L51.3402 230.066L50.3604 229.49L48.2278 230.066H46.6717L47.4786 230.642L47.9397 231.276L48.6889 232.775H47.9973V233.639H48.6889V234.619L47.9397 235.138L47.5362 235.714L46.6717 237.443L47.0175 239.115L46.6717 240.267L47.7091 240.21L48.3431 240.498L48.7466 241.132L49.3229 242.112L45.8071 242.285L44.1357 242.054L42.6948 241.132L42.4642 241.824L42.0032 242.112L41.4268 239.922L40.5623 239.691L39.5824 239.922L38.6603 239.345L37.9686 240.267L39.0061 240.729L40.0435 241.535L40.5046 242.688L40.0435 244.129L40.9081 246.319L41.3692 246.896L39.9283 247.703L39.5248 246.435L39.5824 244.187L39.2943 242.112L38.6026 241.593L35.7208 240.383L34.6258 240.267L34.8563 239.806L35.0868 238.827L35.3174 238.423L35.0292 238.308L33.9918 238.423L34.6258 237.443L33.9918 236.406L32.8967 236.694L31.3981 236.175L29.7843 235.08L28.6316 233.639L29.3232 232.775L30.3607 234.216L31.8016 234.619L33.1272 233.87L33.9918 231.853L31.3405 232.487L30.3607 232.198L29.3232 230.873V230.066L29.7267 229.662L30.1878 228.74L30.6489 228.049L29.5538 226.781L27.3636 221.421L23.3291 217.155L18.3148 210.066L17.5079 209.375L16.2975 207.991L14.6837 206.723L12.6665 206.378L13.0699 205.513L13.5886 204.13L13.9921 203.553L11.629 200.153L14.165 198.481L22.6951 197.905L20.7931 196.983L18.5453 196.637L13.9921 196.868L11.5714 197.559L10.4187 197.502L10.0152 196.349L10.1881 194.908L10.4187 193.698L10.3034 192.775L9.32358 192.199L9.78466 191.277L9.8423 190.585L9.49648 189.951L8.68958 189.317V188.453L9.43885 187.934L9.8423 187.07V185.974L9.32358 184.591L9.95757 183.208L9.89994 181.825L9.26594 180.614L7.99795 179.865L8.34377 179L8.86249 178.309L9.61176 177.905H10.6492V177.041L9.66939 176.522L8.92012 175.946L8.34377 175.139L7.99795 174.101L8.97776 173.929L9.8423 173.467L11.3408 172.199L10.1881 171.623L7.5945 171.508L6.67232 171.335L5.57724 170.24L4.65506 168.626L4.59743 167.127L5.98069 166.551V165.687L4.82797 164.419L1.94618 156.119L2.69544 155.197L2.17672 154.563L2.40726 154.217L2.69544 153.18L1.08164 149.491L0.793457 147.474L1.31218 145.629H1.94618L2.92599 146.379L7.30632 148.511L9.38121 148.799L13.2428 152.949L25.9227 152.373L30.476 155.312L31.8016 156.638L33.3578 157.099L38.545 157.848L39.5824 157.099L40.447 155.773L41.8302 154.332L46.3835 152.373L47.6515 150.701L45.5766 148.223V146.724L45.9224 145.745L46.614 145.283L50.7062 146.148L52.0894 146.897L53.4151 148.223L55.8358 150.01L58.3718 150.874L60.7925 150.989Z" fill="#009649" stroke="white" stroke-width="2" stroke-linejoin="round"></path>
<path class="region" data-country-region="West Region" d="M335.082 517.726L335.312 519.744L334.16 521.646L332.315 522.914L330.298 523.259L330.01 522.28L329.261 522.164L327.704 521.415L326.667 522.683L325.399 523.029L324.073 522.337L322.978 520.551L324.189 519.801L324.362 518.649L323.843 517.957L322.978 518.706H322.344L323.036 517.15L324.765 516.401L327.704 515.997L333.814 516.92L335.082 517.726ZM378.712 514.153L377.675 515.075L378.77 514.96L379.807 515.018L380.787 515.363L381.652 515.997L382.401 515.075L384.072 516.17L388.856 516.228L392.487 518.533L397.444 519.513L399.692 520.551L399.288 520.896L399.058 521.415L404.648 522.049L405.686 521.415L407.645 523.144L412.66 525.334L414.447 527.87L379.116 517.726L377.905 519.167L375.946 518.303L374.101 516.458L373.006 515.075L374.793 514.729L377.905 513.519L379.692 513.634L378.712 514.153ZM318.944 490.983L324.362 492.309H329.664L331.047 491.906L333.295 490.695L344.649 489.6L352.315 492.021L354.332 491.329L356.004 493.577L357.502 495.075L361.018 497.669L360.326 498.707L358.482 497.669L356.407 497.784L351.969 498.707L342.978 496.805L338.886 497.035L331.624 499.802L327.013 500.493L316.177 498.303L311.451 496.805L309.664 497.035L309.607 497.669L307.935 497.093L306.321 495.94L312.95 492.309V491.329L311.105 490.753L307.244 490.234L305.63 489.6L307.705 488.274L309.837 488.217L312.027 488.563L314.275 488.62L316.293 489.831L318.944 490.983ZM405.11 501.761L406.378 499.917L407.703 498.476L409.836 498.015L411.968 498.418L416.06 500.032L418.135 500.378L418.885 499.975L419.691 499.283H420.556L421.709 500.781L421.997 502.107L421.882 505.277L422.054 506.833L425.109 511.617L426.204 512.309L429.605 513.288L431.968 515.075L436.175 519.859L438.423 521.761L443.726 525.161L460.728 536.631L463.956 538.418L469.258 540.204L471.852 540.032L472.947 540.838L474.964 543.836L476.405 544.815L479.921 545.161L481.477 545.795L481.938 547.928L481.42 552.193L481.477 554.441L482.169 556.515L483.206 558.245L484.474 559.743L486.895 561.184L487.356 562.682L487.241 564.642L485.108 561.357L483.783 560.492L480.555 559.512L479.114 558.648L478.999 556.746L462.169 545.795L460.382 543.144V541.934L460.613 540.089L460.671 538.418L460.094 537.726L455.08 536.804L451.045 534.498L449.489 534.095L447.818 533.98L446.319 533.576L445.109 532.769L444.475 531.386H446.434L444.36 529.369L443.553 528.389L443.092 526.833L441.651 528.274L439.23 527.063L435.138 523.259L429.317 520.262L427.299 518.015L428.452 515.075L425.743 515.19L422.804 512.885L420.037 512.309L419.403 512.424L418.654 512.712L418.02 513.173L417.501 514.268L416.867 514.038L416.06 513.288L415.426 512.885L413.121 510.925L411.738 510.407L413.524 512.136L414.447 513.404L415.715 516.689V517.265L415.023 517.726L414.447 517.554V516.747L414.562 515.767L414.447 515.075L412.487 513.75L407.588 511.732L403.208 510.81L398.02 508.389L392.66 507.41L384.418 504.124L384.649 500.781L382.113 499.11L375.658 497.669L367.934 492.136L364.649 491.099L363.093 489.946L362.344 489.6L361.191 489.37H350.816L347.589 488.62L345.975 487.929L344.188 486.776L343.266 485.45L344.246 484.067V483.145L343.324 482.741L342.747 482.05L342.286 481.243L341.652 480.436L343.785 480.782L346.955 483.433L348.626 484.067L356.983 483.145L364.88 484.24L379.519 490.234L382.977 492.482L385.744 494.96L385.917 495.479L385.974 496.977L386.32 497.669L386.781 497.842L387.934 497.611L388.395 497.669L390.124 498.995L390.931 499.398L392.026 499.513L392.43 499.225L392.372 497.957L392.718 497.669L393.352 497.842L394.216 498.534L394.735 498.707L395.945 498.879L396.81 499.398L398.366 500.493L402.17 501.761L404.014 502.626L405.052 504.124H405.686L407.127 503.894L411.219 507.986L413.697 508.678L410.758 506.372L409.836 504.758L410.988 503.145L410.412 502.28L407.588 503.317L405.11 501.761ZM385.398 467.526L398.712 476.344L402.689 481.07L405.686 488.102L405.743 488.159L406.032 491.848L403.323 493.865L398.078 494.96L395.023 493.231L393.582 493.865L391.738 492.77L390.067 490.983L389.087 489.6L387.703 487.122L387.358 485.508L388.165 484.298L390.412 483.145L389.029 482.626L387.415 483.203L385.686 484.24L384.418 484.643L386.32 483.145H385.398L384.418 482.972L383.611 482.453L382.977 481.358L383.727 480.436L383.15 479.168L382.977 478.592L380.902 480.436L377.617 477.439L377.098 476.69L379.865 474.73L380.499 474.384L381.075 473.865L381.018 473.462L380.672 473.116L379.634 472.425L379.173 471.963L378.885 471.445L378.424 470.292L378.021 469.658L377.56 469.139L377.041 468.909L375.946 468.794L375.427 468.621L375.139 467.987L375.312 466.776L375.542 466.43L375.888 466.373L377.56 466.892L379.577 467.18L380.326 467.526L380.672 468.044L381.075 468.39L381.594 468.563L382.343 468.621L384.072 468.448L385.283 467.756L385.398 467.526Z" fill="#009649" stroke="white" stroke-width="2" stroke-linejoin="round"></path>
<path class="region" data-country-region="West Region" d="M212.837 400.495L218.831 403.262L213.067 401.533L212.203 401.936L211.28 400.841L207.073 397.671L205.517 396.922L206.266 395.942L206.67 396.634L207.073 396.807L210.07 397.152L211.165 398.19L211.972 399.458L212.837 400.495ZM182.52 381.36L184.422 383.147L178.658 380.553L176.814 379.285L174.797 376.576L172.146 374.674L170.878 373.406L169.437 371.62L168.918 369.948L170.186 369.141L172.146 370.986L172.664 372.311L180.099 378.421L181.252 379.977L182.52 381.36ZM278.311 362.974L276.985 367.066L277.504 368.565L280.213 369.891L280.905 370.409L281.769 371.159L285.688 375.769L286.207 376.576V377.499L285.573 378.363L278.887 382.974L278.253 383.666L278.08 384.761L278.253 385.798L278.196 386.144L277.158 388.161L277.331 388.91L277.562 389.372L278.023 389.948L278.484 390.524L278.253 391.389L277.389 392.138L275.083 393.176L272.432 393.809L270.3 394.674L269.55 395.135L268.801 395.712L267.994 396.749L267.36 397.325L266.38 397.441L261.02 395.193L260.617 395.135L259.752 395.827L253.066 404.53L251.971 404.76L251.453 404.472L250.934 404.53L250.358 404.818L249.262 406.028L248.859 406.662L248.513 407.412L248.744 408.91L249.09 409.89L249.551 410.812L250.934 412.426L251.453 413.579L251.798 413.809L252.26 413.982L252.202 414.27L251.683 414.616L250.069 415.308L249.147 415.538L248.34 415.826L247.994 416.23V417.094L248.283 417.556L249.551 418.305L249.608 418.651L249.09 418.939L247.015 418.996L245.977 419.227L245.343 419.861H244.882V420.783L243.729 419.976H241.539L240.848 418.939L240.675 419.919L240.156 419.861L240.329 418.42L240.848 418.132L241.597 418.19L242.519 417.556L242.865 416.749L242.404 415.423L242.865 414.386L241.309 414.558L240.732 414.789L240.156 415.308L239.868 413.982L239.061 413.29L236.871 412.541L238.485 412.368L238.657 411.446L237.851 410.639H236.121V409.775L236.583 409.486L237.505 408.795L236.525 408.046L236.121 407.873L236.871 407.008L236.121 406.144L236.871 405.106L236.237 403.089L237.274 402.397L240.848 402.455V401.417L236.467 400.495H234.853L236.006 399.746L236.986 399.861L237.793 400.265L238.485 400.495L239.522 400.149L239.407 399.227L238.542 398.305L237.505 397.786L238.83 397.268L239.464 396.23L239.291 395.077L238.196 393.982L238.254 396.518L237.389 396.691L235.026 394.674L233.701 393.464H233.009L232.145 393.291L231.511 393.06L230.934 392.426L229.609 390.294L228.917 389.487L224.998 387.239L223.903 386.144L221.828 385.452L215.545 384.991L214.162 383.435L213.182 380.438L210.877 379.343L208.399 378.594L206.842 376.576L209.782 377.902L211.28 378.305L212.837 378.421V377.441L212.26 377.153L211.857 377.21L211.569 377.441L208.975 375.135L202.635 371.965L199.984 369.718L202.75 366.951L204.94 368.334L207.995 371.159L208.399 371.447L208.917 371.389L209.436 371.101L212.779 368.161L213.471 367.931L215.661 369.718L217.563 370.697L218.139 370.813L218.773 370.697L219.465 370.006L219.868 369.314L220.041 368.623L220.214 367.47L220.502 367.066L221.021 366.721L221.885 366.26L222.462 365.741L222.923 365.107L223.442 363.954L223.269 363.435L222.174 362.225L221.943 361.822L222.001 361.476L222.519 360.784L222.865 360.611H223.326L224.652 361.36L225.228 361.533L227.188 361.188L228.398 361.245L231.856 362.513L232.202 362.744L234.162 364.934L234.738 365.28L235.43 365.107L236.006 364.53L238.023 362.283L238.715 361.706L239.58 361.188L240.214 360.957L243.845 360.15L244.248 359.804L244.306 359.401L244.075 358.306L244.19 357.441L244.652 356.634L245.228 356.289L246.265 356.058L246.842 355.77L247.072 355.021L246.554 353.753L246.381 353.119L246.611 352.369L247.015 351.62L247.303 351.274L247.994 351.044L250.358 351.101L252.317 351.505L253.124 351.447L254.334 350.813L256.813 348.45L257.908 348.277L258.599 349.43L258.715 350.006L258.599 350.871L258.657 351.678L259.118 353.003L259.233 354.79L259.118 356.75L259.061 359.458L259.118 360.496L259.695 361.706L260.674 362.917L262.807 363.781L264.594 364.127L266.611 364.069L273.642 361.994L274.68 361.245L275.141 361.015H276.351L277.677 361.591L278.311 362.974Z" fill="#009649" stroke="white" stroke-width="2" stroke-linejoin="round"></path>
<path class="region" data-country-region="West Region" d="M263.095 477.382L262.922 477.67L265.112 476.748L266.323 476.806L267.591 477.67L268.052 477.094L268.455 476.69L268.801 476.921L268.916 478.131L268.686 478.938L268.052 479.572L266.899 480.437L265.746 481.935L264.594 482.857L255.948 485.509L252.605 485.739L250.242 484.932L252.375 483.837L252.605 481.762L251.798 480.148L250.876 480.437H250.242L248.859 478.592L249.724 477.901L250.876 477.67L253.124 476.229L256.813 475.48L260.674 475.595L263.556 476.69L263.095 477.382ZM298.945 456.748L300.904 458.477L301.308 458.42L302.23 457.67L302.922 457.44H304.132L307.014 457.959L308.339 458.477L309.031 459.169L309.607 460.206L310.414 461.302L311.625 462.108L311.682 462.742L310.933 463.031L312.835 464.471L314.967 465.336L317.273 465.682L326.725 465.624L328.281 464.76L329.665 466.085L331.451 466.662L337.503 466.95L343.324 468.506L352.2 468.103L356.638 468.564L360.327 470.293H311.625L309.377 470.523L298.657 468.218L290.415 465.048L287.475 464.471L285.746 463.261L284.651 463.031L280.328 461.186L280.732 460.61L281.135 460.322L282.23 460.264L283.441 460.956L284.536 460.783L286.956 459.284L287.533 460.264L287.879 459.745L288.974 458.477V459.284L292.489 458.189L295.429 460.034L298.138 462.224L300.904 462.108L298.253 459.284L295.659 457.728L294.795 456.748L296.236 456.864L298.945 456.748ZM322.691 441.532L323.613 441.821L324.362 441.705L324.996 441.014L325.861 441.763L327.705 443.838L328.742 444.184L329.607 444.068L330.299 444.299L331.048 445.567L329.78 448.045L329.088 448.852L328.281 448.333L326.552 450.812L323.325 451.561L305.285 452.08L299.06 451.215L292.893 449.313L285.227 444.875L283.614 442.858L284.42 443.377L284.997 443.838H285.631L285.688 443.031L285.977 442.858L286.438 442.973L286.956 442.858L286.438 441.878L286.495 441.014L287.129 440.38L288.282 440.091L286.956 437.728L285.631 434.616L287.648 434.501L288.282 434.616L292.201 436.172L311.106 436.922L322.979 440.091V441.014H321.653L322.691 441.532ZM273.181 433.348L273.585 435.538L276.236 435.192L278.08 436.749L279.81 439.054L282.23 441.014L280.732 442.743L278.08 442.051L271.568 437.959L266.726 435.884L264.305 435.538L264.248 434.904L264.882 434.616L263.902 433.809L263.614 432.887L264.133 432.08L265.573 431.792L271.107 432.253L273.181 433.348ZM276.64 420.207L280.674 421.706L280.213 422.513L276.582 422.916L271.568 422.051L270.127 422.167L269.32 422.628L268.109 422.916L266.553 422.685L265.401 422.224L264.709 421.763L264.767 421.014L265.458 420.726L266.496 420.956L267.821 421.072L268.686 420.438L268.282 419.285L269.896 418.709L274.334 419.4L276.64 420.207ZM385.399 467.526L385.283 467.757L384.073 468.448L382.344 468.621L381.595 468.564L381.076 468.391L380.672 468.045L380.327 467.526L379.577 467.18L377.56 466.892L375.889 466.373L375.543 466.431L375.312 466.777L375.139 467.987L375.428 468.621L375.946 468.794L377.041 468.909L377.56 469.14L378.021 469.659L378.425 470.293L378.886 471.445L379.174 471.964L379.635 472.425L380.672 473.117L381.018 473.463L381.076 473.866L380.5 474.385L379.866 474.731L377.099 476.69L372.315 470.293L358.31 463.031L354.967 460.264L353.353 459.4L352.604 458.823L352.027 457.094L351.278 456.345L350.298 455.884L349.319 455.711L348.684 455.365L347.993 454.616L347.013 453.002L346.783 452.426L346.494 450.696L346.321 450.178L345.918 449.947L344.65 449.601L344.247 449.313L335.082 437.383L332.374 435.538L331.336 434.558L330.644 433.694L329.895 433.06L317.388 431.216L311.682 428.68L305.054 427.239L296.178 420.783L296.005 419.804L295.717 419.227L295.198 418.939L294.622 419.112L293.757 419.746L293.239 419.861L289.55 418.939H282.23V418.017H284.19L286.438 417.498L288.513 416.518L290.242 415.308L288.628 414.271L286.38 413.752L276.928 413.521L275.775 413.867L273.931 415.02L273.297 415.308L271.51 415.596L267.475 416.864L255.602 417.152V418.017L258.772 418.881L260.156 419.861L260.905 421.821H254.911L255.141 423.262L253.7 423.089L250.588 421.821L247.995 421.648L246.899 421.072L245.459 419.861H245.343L245.977 419.227L247.015 418.997L249.09 418.939L249.608 418.651L249.551 418.305L248.283 417.556L247.995 417.095V416.23L248.34 415.827L249.147 415.539L250.069 415.308L251.683 414.616L252.202 414.271L252.26 413.982L251.798 413.809L251.453 413.579L250.934 412.426L249.551 410.812L249.09 409.89L248.744 408.91L248.513 407.412L248.859 406.663L249.263 406.029L250.358 404.818L250.934 404.53L251.453 404.472L251.971 404.761L253.066 404.53L259.752 395.827L260.617 395.135L261.02 395.193L266.38 397.441L267.36 397.326L267.994 396.749L268.801 395.712L269.55 395.135L270.3 394.674L272.432 393.81L275.083 393.176L277.389 392.138L278.253 391.389L278.484 390.525L278.023 389.948L277.562 389.372L277.331 388.911L277.158 388.161L278.196 386.144L278.253 385.798L278.08 384.761L278.253 383.666L278.887 382.974L285.573 378.363L286.207 377.499V376.577L285.688 375.77L281.769 371.159L280.905 370.41L280.213 369.891L277.504 368.565L276.985 367.067L278.311 362.975L281.366 363.839H283.037L284.075 363.493L284.478 363.032L284.882 361.707L286.668 359.978L289.953 357.845L291.279 357.269L292.259 357.038L295.487 357.326L298.253 361.476L303.037 366.375L306.207 370.813L310.184 374.559L310.933 376.519L311.279 378.767L312.143 381.649L313.527 383.896L324.362 392.542L339.751 408.334L344.477 413.925L349.722 418.651L355.428 421.821L364.823 423.319L367.877 425.337L369.376 428.795L367.589 440.091L369.722 446.777L373.526 452.541L377.502 456.23L379.462 457.498L380.5 458.477L381.134 459.861L381.94 462.627L383.093 465.163L384.534 466.95L385.399 467.526Z" fill="#009649" stroke="white" stroke-width="2" stroke-linejoin="round"></path>
<path class="region" data-country-region="West Region" d="M189.839 366.664L190.185 368.22L189.436 367.759L188.744 367.528L187.995 367.355L187.13 367.298L186.381 367.067L186.035 366.491L185.862 365.857L185.459 365.453L182.981 364.646L181.655 363.897L180.791 362.571L181.252 362.283L181.482 361.765L180.214 361.188L178.427 359.978L176.871 358.595L176.237 357.557L175.661 355.943L173.067 352.946L172.145 351.505H174.047L175.603 352.255L180.791 356.232L183.615 356.808L184.133 357.038L184.364 357.788L184.652 360.093L184.883 360.842L185.459 361.476L186.785 362.053L187.534 362.571L188.283 363.551L189.148 364.992L189.839 366.664ZM168.745 344.013L170.819 346.664L171.511 350.583L170.301 349.258L169.379 347.356L168.456 346.203L167.477 346.894H166.843L166.727 346.26L166.093 345.05L165.171 346.549L163.269 345.05L161.194 342.629L158.601 340.497L155.2 336.232L153.413 334.849L153.644 334.33L154.105 333.926L153.702 333.177L152.837 331.045L168.745 344.013ZM130.705 332.543L131.397 332.889L132.146 332.37H132.837L133.471 332.889L133.99 333.926L132.722 334.445L130.705 333.811L129.206 332.255L129.437 330.122L129.898 331.563L130.705 332.543ZM145.287 340.67L146.151 341.073L147.419 340.382L146.785 342.226L148.111 342.457L148.918 343.206L149.321 344.531L149.437 346.433L149.84 348.047L150.762 349.43L155.315 354.387L156.411 355.021L157.794 355.194L158.14 355.886L160.791 359.805L167.822 364.819L168.168 366.375L165.748 367.182L160.906 363.321L159.696 363.667L160.157 364.128L160.387 364.762L160.791 365.453L163.269 367.182L163.846 367.759L164.595 368.277L165.344 368.22L165.92 368.393L166.093 369.545L165.69 370.237L164.71 369.603L163.788 368.623L163.5 368.22L160.042 366.087L158.543 364.819L157.102 363.09L153.241 357.096L150.877 354.272L147.016 345.915L145.056 344.013L142.347 342.745L134.105 333.926L133.875 332.37L133.414 331.16L132.088 329.2L132.607 329.085L133.414 329.2L135.316 331.39L140.791 335.771L141.31 336.693L141.713 337.903L142.29 338.998L143.097 339.459L144.422 339.921L145.287 340.67ZM123.961 317.039L123.327 317.731L122.232 317.5L121.253 316.059L121.368 314.964H122.348L122.693 314.503V313.523L123.327 313.35L124.653 314.273L126.44 316.002L126.267 316.751L124.884 316.809L123.961 317.039ZM113.76 311.103L113.356 311.564L111.743 310.641L107.65 306.953L107.305 305.858L109.091 306.722L112.031 308.739L113.76 311.103ZM128.342 305.454L127.362 306.434L125.806 305.915L124.711 305.108L122.982 303.552L123.155 302.457L124.134 300.786L123.673 296.578L124.48 296.232L125.575 296.06L126.728 296.694L127.593 297.904L127.765 299.23L127.247 300.325L126.959 301.189L127.074 301.708L127.823 303.033L128.342 305.454ZM218.196 225.456L217.908 226.435L218.254 229.894L219.58 232.66L221.136 235.138L222.058 237.732L221.597 240.153L219.868 240.96L217.908 241.594L216.467 243.496L216.582 245.801L217.678 248.164L220.156 252.256L220.675 252.948L222.98 254.562L223.729 255.83L224.363 257.213L225.17 258.135L226.611 257.905L227.533 257.559L229.32 257.443L230.127 257.155L230.876 256.291L231.395 255.08L232.086 254.274L233.297 254.331L233.931 255.08L234.334 256.406L234.565 257.789L234.911 259L235.66 259.749L236.467 259.576L237.274 259.115L238.023 259.173L239.06 260.671L239.81 264.072L241.078 265.974L242.058 266.608L243.326 267.011L245.689 267.357L246.899 267.933L247.648 269.259L248.109 270.93L248.455 272.775L247.533 273.351L247.072 275.138L245.458 277.213L244.709 279.403L246.726 281.593L248.743 281.823L252.259 280.21L254.334 280.613L255.487 282.054L256.121 284.475L256.639 287.126L259.002 293.869L259.694 296.463V298.538L259.118 299.518L258.253 300.094L257.619 300.613L257.562 301.708L257.965 301.247L259.06 301.304L260.789 301.766L262.806 303.091L263.902 304.129L264.19 305.512L263.902 307.76L263.556 308.912L262.576 311.103L262.288 312.601L262.403 314.676L263.325 318.941L265.112 324.762L266.726 327.068L270.933 331.679L272.374 334.157L274.507 339.459L275.947 341.823L277.849 343.724L278.945 344.589L279.867 345.108L280.904 345.223L283.44 345.05L284.42 345.454L285.688 347.528L286.149 349.488L286.956 351.102L291.221 352.658L292.892 353.984L294.449 355.77L295.486 357.327L292.258 357.038L291.279 357.269L289.953 357.845L286.668 359.978L284.881 361.707L284.478 363.033L284.074 363.494L283.037 363.839H281.365L278.311 362.975L277.677 361.592L276.351 361.015H275.141L274.679 361.246L273.642 361.995L266.61 364.07L264.593 364.128L262.806 363.782L260.674 362.917L259.694 361.707L259.118 360.497L259.06 359.459L259.118 356.75L259.233 354.791L259.118 353.004L258.657 351.678L258.599 350.871L258.714 350.007L258.599 349.43L257.907 348.278L256.812 348.451L254.334 350.814L253.124 351.448L252.317 351.505L250.357 351.102L247.994 351.044L247.302 351.275L247.014 351.621L246.611 352.37L246.38 353.119L246.553 353.753L247.072 355.021L246.841 355.77L246.265 356.059L245.228 356.289L244.651 356.635L244.19 357.442L244.075 358.306L244.305 359.401L244.248 359.805L243.844 360.151L240.213 360.958L239.579 361.188L238.715 361.707L238.023 362.283L236.006 364.531L235.429 365.107L234.738 365.28L234.161 364.935L232.202 362.744L231.856 362.514L228.398 361.246L227.187 361.188L225.228 361.534L224.651 361.361L223.326 360.612H222.865L222.519 360.785L222 361.476L221.943 361.822L222.173 362.226L223.268 363.436L223.441 363.955L222.922 365.107L222.461 365.741L221.885 366.26L221.02 366.721L220.502 367.067L220.214 367.471L220.041 368.623L219.868 369.315L219.464 370.006L218.773 370.698L218.139 370.813L217.562 370.698L215.66 369.718L213.47 367.932L212.778 368.162L209.436 371.102L208.917 371.39L208.398 371.447L207.995 371.159L204.94 368.335L202.75 366.952L199.983 369.718L199.81 369.545L197.851 366.491L196.64 365.05L195.199 364.416L193.701 364.185L192.836 363.955L192.145 363.609L191.05 362.744L190.531 361.88L190.128 360.958L189.436 359.805L184.133 353.35L181.597 349.488L179.811 347.644L177.851 346.894L173.759 341.823L173.817 341.419L169.436 336.578L168.341 335.944L167.477 335.252L167.073 334.272L167.477 332.889L165.92 331.794L160.791 326.491L162.347 324.071L161.54 321.074L159.523 318.422L157.506 317.097L158.658 315.713L160.445 314.676L162.059 314.964L162.808 317.558L163.903 319.056L166.036 318.077L166.958 316.002L164.768 314.273L165.517 314.042L165.69 313.811L166.093 314.273H166.843L166.324 312.601L166.036 312.025L170.819 315.252L172.894 317.904L173.932 318.826L175.488 318.999L174.162 314.273L175.027 313.984L175.43 313.581L176.237 312.371L174.912 311.967L173.817 310.93L172.894 309.489L172.145 307.817L174.047 308.509L176.814 310.987L179.523 312.025L186.496 316.059L188.053 316.636L195.776 317.846L197.908 317.615L198.197 316.117L196.871 315.195L190.473 314.273L190.012 313.811L187.073 310.007L186.266 309.489L176.698 304.878L175.315 303.437L177.505 298.653L177.909 297.962L178.658 297.039L179.523 296.751L180.272 296.809L180.963 297.039L182.174 297.789L184.306 299.691L185.747 301.362L186.208 301.708L186.727 301.996L187.419 302.169L194.854 302.918L195.603 303.091L196.698 304.186L199.926 308.105L200.675 305.858L201.136 305.569L201.885 305.224L202.865 305.108L204.075 304.59L205.171 303.552L206.727 301.477L207.534 299.979L208.168 298.423L208.571 297.097L208.629 296.175L208.456 295.714L207.418 294.907L207.13 294.503L206.957 293.466L206.727 293.12L205.747 292.659L204.998 292.083L204.537 291.564L204.306 290.872L204.594 290.238L205.343 289.431L210.358 285.685L208.802 281.247L207.418 279.345L201.539 273.87L201.136 272.948L201.078 272.371L201.655 271.391V270.642L201.424 269.95L200.848 267.126L200.387 266.377L198.888 264.763L198.658 263.841L198.542 261.247L198.139 259.173L197.563 257.847L197.044 256.982L196.41 256.464L194.738 255.369L194.047 254.735L193.125 253.582L192.779 252.487V251.219L193.009 250.7L193.759 250.527H197.217L197.966 250.412L198.658 250.124L199.234 249.605L199.81 249.259L200.905 248.74L201.828 247.876L204.594 246.204L205.113 245.398L205.343 244.36L205.228 243.784L204.882 243.38L203.326 243.034L202.692 242.746L201.597 241.882L200.041 241.133L198.485 239.98L197.908 239.346L197.851 238.942L198.081 238.597L199.983 237.156L201.194 235.83L201.943 233.121L201.597 231.277L199.119 227.646L198.773 226.954L198.6 226.435L198.773 225.686L199.58 224.879L200.56 223.438L201.136 223.323L202.001 223.496L204.075 224.303L206.15 226.09L206.957 226.262L208.283 225.686L208.859 225.283L210.646 223.669L211.049 223.611L211.568 223.726L213.816 225.225L215.257 225.628L216.006 226.09L216.755 226.205L217.389 226.147L218.196 225.456Z" fill="#009649" stroke="white" stroke-width="2" stroke-linejoin="round"></path>
<path class="region" data-country-region="West Region" d="M75.7784 269.604L75.0291 269.777L73.934 269.027L72.666 268.624L71.9744 267.759L72.0896 266.549L72.2626 265.569L73.1271 262.918L75.202 260.44L76.6429 260.728V262.054L76.0665 262.918L74.7409 263.206L74.3951 263.552L74.3375 264.071L74.5104 264.762L74.3375 265.512V266.261L75.202 267.875L75.7784 269.604ZM89.2652 271.218L92.7233 276.001L100.619 284.474L101.369 287.183L99.1785 287.413L96.5849 284.935L93.3573 280.67L92.0317 279.748V278.768L94.0489 279.402L94.7406 279.748L91.974 276.174L90.4755 274.906L88.6888 274.099L87.9972 275.54L87.0174 276.059L85.807 275.771L84.7119 274.964V274.099H85.3459L84.8848 273.062L86.6139 270.872L85.9799 268.163L83.3863 263.783L82.9252 261.938L82.1759 257.673L82.0607 255.368L83.9627 256.693L86.441 257.846L88.0548 259.633L87.3632 262.803L87.8243 264.013L88.2854 266.203L88.6888 269.95L89.2652 271.218ZM122.694 237.616L122.982 239.057L121.484 240.267V241.132L122.175 241.65L126.037 245.397L128.4 246.78L129.437 247.875L132.262 252.544L133.011 255.252L132.089 257.212L129.322 254.791L124.596 249.374L121.484 246.895V247.99L121.714 248.624L122.809 249.719L121.484 248.797L119.927 248.394L118.487 248.336L117.449 248.682L113.415 244.129L114.625 244.013L115.835 244.129L116.988 244.417L118.083 244.936V244.129L117.737 243.61L117.449 242.111L119.063 243.495L119.466 244.129H120.1L118.89 241.42L118.083 240.267L116.758 239.345L116.527 238.884L116.124 237.443L118.198 237.731L120.1 238.423L119.87 237.846L119.466 236.406L121.311 236.578L122.694 237.616ZM95.2017 222.803L94.3948 225.224L93.3573 227.126L94.0489 228.048L93.1844 230.469L93.0115 232.429L93.3573 236.924L94.6253 241.016L94.7982 243.264L93.3573 244.129L93.876 245.627L95.0288 247.645L95.3746 248.682L95.4898 250.18L94.8558 251.852L94.7406 253.581L95.3169 256.578L96.6426 258.711L98.1411 260.613L99.4091 262.803L98.8327 264.071L98.8904 265.108L99.5244 265.569L100.735 264.762L101.369 266.664L100.677 267.644L100.043 268.393L99.3515 268.739L98.2564 268.566H95.4322L90.9942 263.61L87.7666 256.636L88.0548 250.584L87.5937 250.469L86.6715 249.719L85.807 250.238L85.173 249.258L84.8272 247.472L84.7119 243.034L84.539 241.766L84.0779 241.189L83.0405 241.132L81.4843 239.287L79.9281 231.045L77.9685 229.028L78.1991 227.991L78.7178 227.126L77.8532 224.648L78.7178 224.244L81.0232 225.166L81.7148 225.743L83.4439 228.394L84.3661 229.028L86.0952 229.086L87.075 228.97L87.6514 228.164L88.0548 226.204L87.6514 225.397L87.2479 223.265L87.3632 221.881L88.6888 223.38L89.3804 222.458L87.4784 220.613L86.0375 218.25L83.0981 209.893L82.5218 208.74L77.3345 202.516L76.47 200.786L76.4123 198.769L77.4498 195.887L78.5449 194.043L79.8705 192.66L81.6572 192.199L84.0203 193.063L84.8272 194.677L84.4814 200.21L84.7119 203.553L85.3459 206.031L87.075 211.046L89.4957 215.945L90.0144 216.694L91.2824 217.789L93.5302 218.077L94.7406 218.654L95.4322 220.383L95.2017 222.803ZM104.193 181.94L107.363 183.669H106.037L106.21 184.648L106.498 185.455L106.959 186.089L107.363 186.55L108.804 189.086L110.072 192.199L107.536 193.467L108.977 194.447L112.031 194.792L114.164 194.101L114.683 196.637L113.53 201.478L114.164 204.418L115.374 205.743L117.103 206.32L121.484 206.377L121.426 210.296L127.247 215.714L128.688 219.518H128.112L126.959 220.383L125.749 220.671L124.538 220.383L123.443 219.518L122.118 220.556V221.42L123.443 222.631L123.04 223.495L121.599 224.014L119.812 224.244L118.141 223.783L113.415 220.556L110.59 219.461L110.187 218.423L110.072 216.233L110.36 211.276L109.784 210.124L108.112 211.046V212.026L109.438 213.063L106.844 213.236L99.0633 212.026L96.5849 211.219L94.1642 209.201L92.0893 206.723L90.7637 204.418L91.513 203.207L92.3199 202.688L93.2997 202.516H94.3948L94.7982 201.939L94.6829 200.614L94.8558 199.346L95.7204 198.712L99.4091 198.654L100.965 197.847L100.101 195.887L101.369 194.043L101.887 192.948L102.118 191.738L101.887 190.643L101.542 189.663L101.657 188.568L102.694 187.415L102.867 185.859L102.81 184.648L102.291 183.899L101.369 183.669L102.81 182.112L104.193 181.94ZM168.745 156.061L168.976 156.58L169.379 157.617L169.552 158.655V159.289L169.437 160.614L169.091 161.94L168.284 164.649L167.823 165.34L167.189 165.974L165.345 167.588L164.826 168.165L164.538 169.087L164.653 170.297L164.365 170.989L163.673 171.565L160.561 172.891L159.869 173.698L158.659 175.945L158.082 175.772L157.218 175.139L156.987 174.562L156.353 173.986L155.316 173.409L152.492 172.487L151.339 171.796L150.59 171.162L149.552 171.046L146.152 173.352L145.633 174.389L145.114 176.118L144.999 176.868L144.711 177.617L144.077 178.136L143.846 178.654L143.904 179.404L144.423 180.787L144.884 181.651L145.403 183.15L144.999 185.916L144.884 193.063L144.711 193.697L144.135 194.331L143.616 194.619L143.673 195.311L143.904 195.772L147.535 199.346L149.379 202.977V203.726L149.264 204.706L148.918 205.801L148.573 206.262L147.939 206.435L146.267 206.608L143.558 206.32L142.002 206.55L141.368 206.262L140.849 205.686L140.331 205.57L139.581 205.743L136.066 207.991L135.777 208.337L135.662 208.798V210.585L135.201 211.507L132.78 205.916L132.377 203.495L131.397 201.882L129.899 200.729L123.962 197.501L113.415 189.317L108.458 182.689L107.075 181.94L105.461 180.21L104.712 178.308L106.037 177.04L104.942 175.888L101.369 173.237L103.155 175.311L103.444 175.542L103.098 176.637L102.233 177.213H101.253L100.389 176.579L99.0633 175.023L88.5159 169.663L84.7696 168.799L83.0405 167.819L81.4843 167.531L79.6976 168.914L77.6803 172.141L75.836 176.349L74.5104 181.133L73.4729 190.7L72.2049 195.138L69.8995 194.158L69.496 193.64L69.0926 192.775L68.9773 191.853V190.643L69.1502 189.375L69.0349 186.147L68.2857 178.481L68.228 176.118L68.3433 175.254L68.5739 174.447L69.4384 172.603L69.8419 171.162L69.8995 170.124L69.6689 168.683L68.7468 164.533L68.5739 163.15L68.6315 162.055L69.1502 160.614L68.9197 160.096L68.0551 159.404L62.8679 156.407L62.0034 155.485L61.1388 154.044L60.793 152.949L60.6777 152.257L60.793 150.989L61.0235 151.047L63.5019 150.528L68.1704 148.395L70.6487 147.646L72.7813 148.165L76.6429 149.894L81.1961 150.758L85.6341 150.355L89.3804 148.223L91.1671 146.493L95.0288 143.669L96.2967 141.364L96.8155 139.404L97.2766 135.658L97.9106 133.871L98.8327 132.546L101.253 129.779L102.291 128.28L103.501 125.456L104.251 124.592L105.922 123.9L107.017 124.534L107.19 126.667L107.075 129.203L107.19 131.105L108.054 132.834L109.322 134.159L112.665 136.868L113.357 137.156L113.991 137.502L114.567 138.251L114.74 139.347L114.394 141.825L114.452 142.517L116.354 144.188L125.403 148.165L126.959 152.084L131.051 152.949L135.201 151.45L137.045 148.223L137.449 145.225L139.178 145.168L141.426 146.609L143.097 148.223L145.403 148.511L146.498 149.029L147.477 149.894L152.204 150.067L160.273 156.983L164.653 157.56L168.745 156.061Z" fill="#009649" stroke="white" stroke-width="2" stroke-linejoin="round"></path>
<path class="region" data-country-region="North Region" d="M292.489 110.356L293.93 111.854V112.777L293.527 113.584L293.239 114.621L292.893 116.35L292.95 116.984L293.296 117.272L294.046 117.387L294.852 117.676L295.947 118.54L296.812 119.001L297.849 119.289L299.117 119.808L301.308 121.48L302.806 123.439L303.671 124.304L304.189 124.592H305.976L307.993 125.053L314.622 128.165L315.14 128.626L316.178 130.01L316.869 130.471L317.792 130.759L320.155 131.105L320.731 131.508L321.134 132.085L322.518 135.773L322.921 136.638L323.728 137.964L324.304 138.482L325.169 138.828L325.745 139.289L326.667 140.845L328.108 142.747L328.569 143.554L328.742 144.073L327.013 145.86H326.206L325.63 145.744L325.054 145.802L324.881 146.148L324.938 146.724L325.515 148.05L326.264 148.799L327.013 149.375L327.763 149.664L328.627 149.779L330.587 149.664L331.278 150.009L331.624 150.528L332.143 151.508L332.431 151.739L332.95 151.623L334.621 150.586L338.079 153.468L341.365 155.081L342.114 155.888L343.728 158.54L344.938 158.309L346.264 157.675L346.725 157.56L347.128 157.617L347.416 157.963L347.589 158.77L347.474 159.519L347.301 160.038L346.84 160.787L346.379 161.71L346.321 162.805L346.494 163.266L347.532 164.188L355.485 169.202L359.174 168.338L359.981 170.701L360.039 171.277L359.808 171.738L359.001 172.545L358.828 173.064L359.289 173.755L360.673 174.966L360.961 175.312L361.018 175.773L360.903 176.061L360.269 176.58L359.059 176.81L357.618 176.925L356.177 177.617L355.831 178.078L354.679 180.095L353.18 181.479L352.661 181.882L350.125 184.418L349.722 185.283L349.434 186.608L349.607 187.185L350.01 187.761L350.99 188.395L352.258 189.836L353.641 193.121L351.105 191.911L346.955 188.798L345.053 184.649L344.477 185.11L342.921 186.09L342.287 186.608L342.748 185.456L342.806 184.591L342.69 183.784L342.287 182.747L341.365 184.476L340.327 183.784L339.174 182.286L337.734 181.767L338.137 182.747L338.368 183.669L336.35 183.899L335.832 183.15L335.889 181.94L335.716 180.845L334.967 177.963L334.16 177.156L331.451 179.404L331.163 180.038L330.414 181.19L329.376 182.343L328.569 182.862L328.051 184.36L327.071 185.052L325.976 185.513L324.996 186.493L324.477 188.164L324.535 189.317L324.362 190.355L323.152 191.45L320.673 191.738L301.308 185.974L295.659 185.744L291.048 188.914L287.878 196.003L286.553 198.135L285.458 198.885L282.922 199.692L282 200.326L281.308 201.594V202.4L281.539 203.265L281.308 204.879L280.847 206.032L278.887 209.72L277.273 215.599L274.91 216.233L271.337 215.426L267.591 213.812L264.882 212.083L255.948 203.15L254.277 200.902L252.202 195.542L250.703 193.063L249.493 192.084L247.36 191.623L246.496 190.989L246.553 190.355L246.899 189.375L246.957 188.164L246.092 186.896L244.94 186.32L243.902 186.262L241.654 186.724L232.317 186.435L227.073 187.3L224.882 189.317L223.153 188.107L222.807 187.934L221.655 187.819L221.136 187.53L220.675 187.473L219.81 187.934H219.465L218.485 187.646L217.044 187.703L216.41 187.992L215.891 188.568L215.372 188.741L208.975 187.358L208.687 187.069L208.456 186.435L208.399 185.283L208.226 184.533V183.381L208.629 182.862L209.321 181.824L209.666 180.902L210.992 179.75L211.165 179.404L210.704 177.732L210.646 177.041L210.762 176.349L211.223 174.735L211.511 173.064V172.199L211.223 170.758L211.165 170.124L211.396 169.548L212.894 168.222L213.009 167.646L212.721 166.839L211.799 165.341L211.511 164.418L211.568 163.669L212.202 161.364V160.845L211.972 160.384L211.05 159.462L210.704 159.001L210.762 158.54L211.28 158.021L212.606 157.617L215.2 158.309L216.468 158.251L216.929 158.597L217.563 159.519L218.024 159.692L219.004 159.519L219.695 159.577L220.502 159.98L221.367 160.672L222.692 161.825L223.326 162.055L224.075 161.998L226.035 161.306L226.669 160.845L227.015 160.153V158.828L227.995 156.81L228.283 156.119L227.995 154.966L228.341 153.41L228.686 152.661L228.802 151.969L228.283 151.22L227.822 150.24L227.303 149.433L225.92 144.015L228.513 140.845L229.954 140.327L230.934 140.672L231.222 141.018L231.338 141.479L231.28 142.401L231.914 142.92L234.623 143.381L236.582 145.687L237.159 146.839L237.101 149.433L237.85 150.759L241.943 151.047L243.326 150.701L244.133 149.894L244.824 149.318L245.574 149.203L246.611 149.26L247.303 149.491L247.764 149.779L248.628 150.586L251.395 147.301L252.029 146.897L253.239 146.609L254.45 146.724L254.911 146.378L254.738 145.975L254.161 145.226L254.046 144.707V142.632L253.816 141.883L253.239 141.133L251.568 139.808L251.222 139.404L250.991 138.943L250.876 138.367L250.819 137.387L250.646 136.868L250.185 136.523L249.32 136.234L248.917 136.004L248.686 135.6L248.571 134.851L248.628 134.16L248.917 133.698L249.435 133.468L251.51 133.698L252.432 133.583L253.182 133.237L255.948 130.99L257.562 129.203L257.908 128.857L258.542 128.569H259.06L259.81 128.742L260.847 129.318L261.596 130.701L261.942 131.162L262.346 131.335L263.383 131.508L264.017 131.739L264.766 132.258L265.4 132.949L266.207 133.583L267.302 133.814L269.896 132.719L271.222 131.508L273.066 127.474L272.547 123.382L272.951 121.537L272.317 117.849L272.49 116.523L272.72 115.543L274.276 113.18L274.795 112.719L275.256 112.661L276.928 113.699L277.907 113.929L279.809 113.353L280.155 113.122L280.443 112.546L280.847 109.78L281.539 106.955L281.654 106.091L281.539 104.823L281.25 103.785H285.227L285.4 103.612L285.804 102.633L286.092 102.287H286.668L286.956 102.575L287.187 103.44L288.34 105.342L292.489 110.356Z" fill="#009649" stroke="white" stroke-width="2" stroke-linejoin="round"></path>
<path class="region" data-country-region="West Region" d="M131.685 271.276L135.431 274.1L135.085 270.065L137.391 269.95L140.734 272.14L143.442 274.964L145.69 278.653L147.131 280.094L150.762 281.247L151.8 282.803L152.722 284.935L154.105 287.183L152.203 286.895L149.494 284.59L147.419 284.359L147.88 282.976L148.111 282.457L144.076 280.094L142.117 279.345L141.079 278.538L139.754 277.846H138.082V278.768L143.442 281.765L151.396 293.293L156.122 296.578L154.624 295.31L153.068 293.466L151.684 291.102L150.762 288.221L154.854 290.238L163.903 299.863L166.093 301.246L167.477 302.86L170.243 305.339L171.511 306.837L169.609 307.356L167.361 305.973L164.998 304.128L162.808 303.091V304.013L164.537 304.416L166.266 305.511L167.765 307.068L168.86 308.681H166.843L167.016 309.431L167.304 309.892L168.168 310.526L166.093 309.949L161.771 308.047L159.465 307.817V308.681L163.5 311.563V312.37L161.252 311.851L159.292 310.641L157.563 308.912L156.122 306.837V305.973H157.506V304.935L156.699 304.474L156.18 303.898L155.431 302.169L156.468 302.226L157.16 302.053L157.679 301.419L158.14 300.382L155.661 298.71L154.797 298.422L153.875 298.595L152.376 299.46L151.511 299.402L150.474 298.192L148.745 294.561L142.751 289.546L141.829 289.373L136.757 286.261V285.397L137.275 285.224L138.255 284.647L138.832 284.359L137.621 282.169L134.797 278.019L134.739 276.866L133.644 275.944L123.5 263.322L121.771 260.325L120.792 257.213H121.253L121.541 257.443L125.287 261.823L131.685 271.276ZM201.943 233.121L201.194 235.83L199.983 237.155L198.081 238.596L197.851 238.942L197.908 239.345L198.485 239.979L200.041 241.132L201.597 241.881L202.692 242.746L203.326 243.034L204.882 243.38L205.228 243.783L205.343 244.36L205.113 245.397L204.594 246.204L201.828 247.876L200.905 248.74L199.81 249.259L199.234 249.605L198.658 250.123L197.966 250.412L197.217 250.527H193.759L193.009 250.7L192.779 251.218V252.486L193.125 253.581L194.047 254.734L194.738 255.368L196.41 256.463L197.044 256.982L197.563 257.847L198.139 259.172L198.542 261.247L198.658 263.841L198.888 264.763L200.387 266.377L200.848 267.126L201.424 269.95L201.655 270.642V271.391L201.078 272.371L201.136 272.947L201.539 273.869L207.418 279.345L208.802 281.247L210.358 285.685L205.343 289.431L204.594 290.238L204.306 290.872L204.537 291.564L204.998 292.082L205.747 292.659L206.727 293.12L206.957 293.466L207.13 294.503L207.418 294.906L208.456 295.713L208.629 296.174L208.571 297.097L208.168 298.422L207.534 299.978L206.727 301.477L205.171 303.552L204.075 304.589L202.865 305.108L201.885 305.223L201.136 305.569L200.675 305.857L199.926 308.105L196.698 304.186L195.603 303.091L194.854 302.918L187.419 302.169L186.727 301.996L186.208 301.708L185.747 301.362L184.306 299.69L182.174 297.788L180.963 297.039L180.272 296.808L179.523 296.751L178.658 297.039L177.909 297.961L177.505 298.653L175.315 303.437L161.828 289.546L157.275 283.091L154.509 280.094L151.8 278.768L151.396 278.134L148.226 275.541L147.419 275.483L146.843 274.273L137.102 258.999L135.431 254.388L136.526 252.717L136.411 250.642L135.777 248.279L135.431 245.455L135.2 237.905L135.431 235.484L137.506 226.781L138.428 224.706L139.12 222.112L138.37 219L135.2 211.507L135.662 210.585V208.798L135.777 208.337L136.065 207.991L139.581 205.744L140.33 205.571L140.849 205.686L141.368 206.262L142.002 206.551L143.558 206.32L146.267 206.608L147.938 206.435L148.572 206.262L148.918 205.801L149.264 204.706L149.379 203.726V202.977L147.535 199.346L158.946 201.94L162.232 201.709L164.652 199.288L165.286 198.943L165.632 199.116L166.151 199.692L166.958 201.018L167.477 201.652L168.687 202.862L169.321 203.726L169.782 204.303L170.358 204.764L183.384 212.833L184.076 213.64L186.035 218.02L186.496 218.885L187.592 220.095L189.551 221.594L190.07 222.112L190.3 222.746L191.05 225.282L191.453 226.032L191.914 226.896L192.375 227.184L193.182 227.415L194.681 227.184L195.891 227.357L196.583 227.645L196.986 228.106L197.447 229.201L198.139 229.951L201.943 233.121Z" fill="#009649" stroke="white" stroke-width="2" stroke-linejoin="round"></path>
<path class="region" data-country-region="North Region" d="M269.031 68.9156L267.648 68.5121L266.956 68.685L265.63 69.4343L264.881 69.4919L263.44 69.0885L263.037 69.0308L262.691 69.2614L262.403 69.7225L262.46 70.5294L262.921 71.2786L263.498 71.5092L264.132 72.0279L264.42 72.3737L264.362 72.7772L264.074 73.2383L262.576 74.0452L262.23 74.391L262.576 75.1979L263.498 75.8319L264.074 76.5235V76.8693L263.786 77.1575L262.806 77.3881H262.057L261.481 77.0999L260.674 76.927H260.213L259.982 77.4457L259.924 78.3102L260.155 79.0595L260.904 79.8664L260.27 80.5004L257.388 81.5955L255.948 81.7684L254.795 82.8058L253.008 83.3245L240.789 89.9527L239.809 89.4916L239.464 88.8576V88.1083L239.291 87.7049L238.196 86.7251L237.792 85.7453L236.87 84.0738L236.294 83.4975L235.544 83.0364L229.435 81.2497L228.167 80.7309L226.841 79.9817H226.034L224.363 80.6157L223.095 81.5378L221.078 81.8837L214.219 81.3649L212.49 81.3073L212.375 78.4255L213.124 75.5437L214.277 73.8723L214.68 72.3737L213.355 70.2988L212.144 69.4343L209.435 68.2816L208.225 67.5899L205.516 64.7081L204.19 61.5382V57.9647L205.574 53.9879L207.36 50.5297L209.032 48.2819L211.107 47.1868L219.752 47.8785L221.596 46.6681L223.556 43.3252L224.939 42.2301L226.438 41.5385L227.994 41.135L232.374 41.0198L232.605 41.6538L232.778 42.8641V43.9592L233.181 44.7661L233.873 45.4001L238.08 46.841L238.657 47.2445L239.118 47.8208L239.521 49.4923L239.752 50.011L240.213 50.2415L241.135 50.3568L242.461 50.2992L243.268 50.4144L246.034 51.4519L247.129 51.5672L247.994 51.5095L249.089 51.0484L250.414 50.7602L251.855 50.8755L253.354 50.7602L254.737 50.4144L255.429 50.3568L256.351 50.4721L257.734 51.0484L259.521 51.1061L260.097 50.8755L260.674 50.4721L261.135 49.8957L261.942 48.6277L262.403 47.9937L263.094 47.6479H263.671L264.305 48.2819L265.169 49.9533L265.746 50.3568L266.437 50.5297L267.705 50.4144L268.051 50.645L268.224 51.1061L267.705 52.8928V53.642L268.166 54.7371L268.916 56.1204L268.973 57.3884L268.57 59.2904L268.512 60.5007L268.339 61.6534L269.031 68.9156Z" fill="#009649" stroke="white" stroke-width="2" stroke-linejoin="round"></path>
<path class="region" data-country-region="North Region" d="M225.92 144.015L227.303 149.433L227.822 150.24L228.283 151.22L228.802 151.969L228.686 152.661L228.341 153.41L227.995 154.966L228.283 156.119L227.995 156.81L227.015 158.828V160.153L226.669 160.845L226.035 161.306L224.075 161.998L223.326 162.055L222.692 161.825L221.367 160.672L220.502 159.98L219.695 159.577L219.004 159.519L218.024 159.692L217.563 159.519L216.929 158.597L216.468 158.251L215.2 158.309L212.606 157.617L211.28 158.021L210.762 158.539L210.704 159L211.05 159.462L211.972 160.384L212.202 160.845V161.364L211.569 163.669L211.511 164.418L211.799 165.34L212.721 166.839L213.009 167.646L212.894 168.222L211.396 169.548L211.165 170.124L211.223 170.758L211.511 172.199V173.064L211.223 174.735L210.762 176.349L210.646 177.041L210.704 177.732L211.165 179.404L210.992 179.749L209.667 180.902L209.321 181.824L208.629 182.862L208.226 183.38V184.533L208.399 185.282L208.456 186.435L208.687 187.069L208.975 187.357L215.372 188.741L215.891 188.568L216.41 187.991L217.044 187.703L218.485 187.646L219.465 187.934H219.81L220.675 187.473L221.136 187.53L221.655 187.818L222.808 187.934L223.153 188.107L224.882 189.317L223.903 190.239L222.808 193.236L222.692 194.331L223.038 202.516L222.635 204.648L220.329 210.642V213.178L221.482 217.386L221.078 219.806L218.658 224.014L218.197 225.455L217.39 226.146L216.756 226.204L216.006 226.089L215.257 225.628L213.816 225.224L211.569 223.726L211.05 223.61L210.646 223.668L208.86 225.282L208.283 225.685L206.958 226.262L206.151 226.089L204.076 224.302L202.001 223.495L201.136 223.322L200.56 223.437L199.58 224.878L198.773 225.685L198.6 226.435L198.773 226.953L199.119 227.645L201.597 231.276L201.943 233.12L198.139 229.95L197.448 229.201L196.987 228.106L196.583 227.645L195.892 227.357L194.681 227.184L193.183 227.414L192.376 227.184L191.915 226.896L191.454 226.031L191.05 225.282L190.301 222.746L190.07 222.112L189.552 221.593L187.592 220.095L186.497 218.884L186.036 218.02L184.076 213.639L183.385 212.832L170.359 204.763L169.782 204.302L169.321 203.726L168.687 202.861L167.477 201.651L166.958 201.017L166.151 199.691L165.633 199.115L165.287 198.942L164.653 199.288L162.232 201.709L158.947 201.939L147.535 199.346L143.904 195.772L143.673 195.311L143.616 194.619L144.134 194.331L144.711 193.697L144.884 193.063L144.999 185.916L145.402 183.15L144.884 181.651L144.423 180.787L143.904 179.404L143.846 178.654L144.077 178.136L144.711 177.617L144.999 176.868L145.114 176.118L145.633 174.389L146.152 173.352L149.552 171.046L150.59 171.162L151.339 171.796L152.492 172.487L155.316 173.409L156.353 173.986L156.987 174.562L157.218 175.139L158.082 175.773L158.659 175.945L159.869 173.698L160.561 172.891L163.673 171.565L164.365 170.989L164.653 170.297L164.538 169.087L164.826 168.165L165.344 167.588L167.189 165.974L167.823 165.34L168.284 164.649L169.091 161.94L169.437 160.614L169.552 159.289V158.655L169.379 157.617L168.976 156.58L168.745 156.061L174.163 154.044L177.333 154.101L178.428 153.813L179.235 153.006L180.964 150.586L181.944 149.779L177.045 146.436L175.604 144.073L174.854 141.076L174.278 137.445L173.702 135.773L173.01 134.275L172.895 133.122L174.105 132.488L174.739 131.912L175.143 130.816L175.719 129.779L178.543 128.857L179.753 128.223L181.137 127.704L183.154 127.762L182.578 126.494L181.021 123.843L180.849 123.67L182.232 122.805L184.019 120.73L187.707 120.096L188.629 120.211L189.148 120.557L189.667 121.076L190.358 122.344L191.857 123.843L192.894 124.765L196.18 126.436L196.698 126.782L196.756 127.07L196.526 127.992L196.756 128.857L198.427 130.644L201.021 132.603L202.059 133.064L202.808 133.007L203.73 131.393L204.537 130.471L205.229 130.125L206.381 130.01L207.131 130.125L207.707 130.355L211.338 132.661L213.874 133.18L214.854 133.525L215.776 133.929L216.929 134.678L217.505 134.909H217.966L218.254 134.736L219.176 133.698L219.522 133.986L219.983 136.638L219.926 137.329L219.58 137.963L219.061 138.482L218.715 139.058L218.888 139.692L220.272 140.96L220.848 141.594L222.692 144.13L223.096 144.361L223.614 144.476L224.652 144.361L225.92 144.015Z" fill="#009649" stroke="white" stroke-width="2" stroke-linejoin="round"></path>
<path class="region" data-country-region="East Region" d="M537.5 154.39L536.52 155.081L535.022 156.234L531.679 156.926L530.814 156.868L530.295 156.637L529.892 155.715L529.085 154.851L527.99 154.217L527.702 153.928L527.298 153.294L527.01 152.315L526.088 151.277L524.82 150.297L523.955 149.952L522.745 149.836L521.592 150.182L521.247 150.47L520.67 151.104L520.094 151.508L519.172 151.854L516.463 152.315L515.886 152.488L515.656 152.776L515.714 153.467L516.693 154.735L516.981 155.369L517.097 156.349V157.156L516.981 157.963L516.405 158.597L515.541 159.231L508.451 158.885L506.607 160.096L504.302 161.133L503.322 161.767L502.688 162.286L502.457 163.265L502.227 166.551L502.054 167.185L501.881 167.646L501.189 168.165L500.786 168.799L500.671 169.778V171.162L500.498 172.026L500.209 172.372L499.806 172.545L496.348 172.43L495.771 172.66L495.368 173.179L495.137 173.698L494.676 174.274L490.469 174.85L489.432 175.369L488.74 176.003L488.509 177.213L488.221 181.19V181.767L488.567 182.228L489.547 182.689L492.774 183.15L493.351 183.323L493.869 183.784L494.1 184.303L494.215 185.167L494.158 186.839L493.754 188.51L493.293 189.49L492.832 189.951L492.313 190.124H491.91L491.161 189.72L486.262 187.242L474.273 182.977L470.7 182.401L468.106 182.746L466.896 183.035L466.204 183.553L465.743 184.245L464.994 184.937L463.726 185.455L460.671 185.628L458.481 185.34L451.968 182.919L451.104 182.401L450.643 181.824L446.839 178.942L449.432 174.677L449.547 173.294L449.086 172.257L448.798 171.162L448.337 169.951L448.049 169.605L447.184 169.087L446.377 168.741L446.262 167.992L446.723 167.415L447.357 166.954L448.049 166.666L448.741 166.493L449.259 166.205L449.778 165.629L450.988 163.323L451.449 162.689L454.792 159.404L455.887 158.597L456.982 158.194L459.461 158.136L461.478 157.675L462.054 157.502L467.53 153.122L468.567 152.545H469.259L471.737 153.41L472.89 153.525L477.155 151.565L478.711 151.162L480.844 151.104L481.881 150.931L482.112 150.413L481.42 149.491L481.132 148.914L480.901 148.338L480.959 147.531L480.844 147.012L480.556 146.609L478.654 145.341L477.674 144.303L477.27 144.073L476.579 144.015L476.175 144.303L475.887 145.225L475.829 146.782L475.541 147.646L475.023 147.934L474.389 148.05L470.354 147.819L468.971 148.28H468.567L467.818 147.761L466.723 146.205L466.204 145.744L465.916 145.629L461.766 145.744L460.844 145.398L460.441 144.937L459.576 143.496L459.23 143.093L458.827 142.862L458.078 142.632L457.789 142.401L457.674 139.865L457.789 139.058L457.962 138.885L459.288 138.367L459.922 138.021L460.614 137.099L460.729 136.407L460.037 135.082L459.115 133.641L458.366 133.237L456.521 132.718L455.945 132.373L454.792 131.162L454.274 130.816L453.64 130.528L447.011 129.145L446.781 127.474L446.377 127.012L441.594 124.419L440.499 123.612L439.865 122.92L439.576 121.076L439.231 119.981L438.424 118.367L437.732 117.503L437.156 116.869L436.579 116.638L433.813 116.062L433.409 115.716L432.948 114.909L432.545 113.641L431.392 111.566L430.47 109.261L429.778 106.552H436.522L446.723 109.376H447.876L448.913 108.972L450.585 107.762L451.449 107.474H459.461L461.305 108.05L464.245 110.356H466.492L468.164 112.2L469.835 112.834L471.507 112.142L473.121 111.278H474.677L476.291 113.41L476.925 113.583L477.616 113.641L478.25 113.583L478.999 113.41L480.844 111.912L484.244 107.704L485.8 106.667L487.991 107.704L490.527 106.725L494.734 103.151L495.887 101.71L498.019 97.5029L499.46 95.8891L499.633 95.8314L499.864 94.9669L500.152 93.2955L500.555 92.6038L502.745 90.4137L504.59 90.0102L509.374 91.6817L513.235 93.6989L514.446 93.8718L515.425 93.2955L515.886 92.3157L516.29 91.0477L517.27 89.5491L518.538 90.7018L519.575 90.6442L521.247 89.4915L523.206 88.9151L524.244 88.3388L525.223 87.1861L526.664 87.1284L527.241 89.2609L525.569 90.356L524.762 91.1053L523.898 92.1427L525.915 93.7566L526.953 94.8516L527.241 95.9467L526.491 96.8689L525.281 97.1571L522.169 97.4452L521.938 101.249L521.708 102.056L521.362 102.632L521.189 103.266L521.535 104.131L523.033 105.63L523.725 106.84L526.549 110.356L527.01 112.488L527.414 116.696L528.22 118.482L529.546 119.577L531.218 120.5L532.658 121.768L533.235 123.785L532.658 124.995L530.007 128.684L528.912 129.491L527.759 130.644L527.356 133.295L527.241 135.888L526.895 137.099L527.702 137.79L529.661 140.903L530.584 141.825H532.428L533.638 140.845L534.618 139.635L536.347 138.77L537.154 138.136L538.019 137.906L538.941 138.54L539.517 139.635L539.863 140.384L540.266 141.018L541.246 141.825L542.86 142.632L544.301 142.92L545.569 143.612L546.606 145.629L543.782 148.395L537.212 147.416L535.944 150.874L536.578 153.467L537.5 154.39Z" fill="#009649" stroke="white" stroke-width="2" stroke-linejoin="round"></path>
</svg>