<svg width="420" height="598" viewBox="0 0 420 598" fill="none" xmlns="http://www.w3.org/2000/svg">
<path class="region" data-country-region="North Region" d="M230.39 103.347L230.054 103.095L229.886 102.928L229.761 102.886L229.551 102.928L229.173 103.053L228.67 103.137L228.334 102.886L228.208 102.634L228.083 102.172H227.873L227.453 102.55L227.202 102.298L226.95 102.004L226.572 101.71L226.195 101.459L225.649 101.249L225.398 100.913L224.601 99.486L224.391 98.9404L224.601 98.7306L224.684 98.6047L224.559 98.3948L224.181 98.0591L223.971 97.9331L223.72 97.9751L223.3 98.2689L223.048 98.5627L222.797 98.8985L222.503 99.1922L222.042 99.3182L221.161 99.4441L220.699 99.57L220.364 99.7798L220.28 99.9477V100.241L220.112 100.367L219.902 100.325L219.734 100.158L219.608 99.9897L219.525 99.9057L218.14 100.074H217.847L217.763 99.9057L217.553 99.528L217.301 99.2762L217.175 99.4021L217.008 99.486H216.63L216.378 99.6119L216.504 100.074H216.085L215.833 100.158L216.001 97.3036L215.959 96.758L216.21 96.2124L216.504 95.9186L216.63 94.6595L216.756 94.3237L216.882 94.1978L217.091 94.1139L217.217 93.4004H215.455L215.288 93.2325L215.036 93.1066L214.868 92.8548L214.532 92.561L212.141 93.2745L211.806 93.6942L210.883 94.1139L210.631 94.2398L210.379 94.3657L209.708 94.4916L209.582 94.3657H209.456V94.1978L209.414 93.8621L209.289 93.5683L208.575 92.1833L209.582 91.26L211.302 90.0428L210.631 87.021L211.806 86.9371L212.141 86.4754L212.812 86.2236L213.274 85.594L213.735 83.4536L214.239 80.9774L215.539 80.054L217.133 79.4665L217.469 79.8862L217.972 80.1799L218.392 80.5577L219.147 80.5157L219.483 80.8095L220.993 80.5577L222.335 80.2639L222.671 80.0121L223.3 79.7602L223.678 79.2566L223.762 78.8369L223.72 78.4172L223.678 78.1654L223.762 78.0395L223.887 77.9975L224.055 77.8716V77.7037L224.013 77.4099L223.929 77.1581L223.3 75.6892L224.768 75.3534L225.272 75.0177L225.733 74.556L226.237 73.8005L226.363 73.2549V72.8772L226.279 72.6674L226.027 71.4502V71.0725L226.195 70.7368L226.656 70.5269L227.076 70.4849L227.243 70.5689V70.7787L227.034 71.0305V71.3243L227.16 71.4922L227.495 71.4502L227.705 71.3663L227.957 71.2404L229.005 71.1984L229.509 71.0305L230.306 70.4849L230.474 68.6802L231.858 68.5543L232.068 68.8062H233.2L234.207 68.3025L234.543 67.8828L235.046 67.673L236.053 67.589L236.682 67.7149L237.312 67.5051L237.521 67.3792L237.689 67.1693L237.647 66.7496L237.27 66.5398L236.934 65.9942L236.766 65.8263L236.557 65.2807L236.934 65.1128L238.612 64.903L239.409 64.3154L240.919 64.2314L241.381 64.903L241.507 65.1128L241.675 65.1548L242.178 64.861L242.472 64.7771L242.639 64.819L242.723 64.9449L242.681 65.1128L242.597 65.2807L242.346 65.5745L242.262 65.7004V65.9102L242.304 66.246V66.5398L242.22 66.7496L242.094 66.8755L242.01 66.9175L241.926 66.8336L241.716 66.4139L241.507 66.288L241.297 66.4978L241.381 67.1693L241.507 67.631L241.549 67.8828L241.507 68.1346L241.339 68.3445L241.213 68.5543L240.416 69.2258L240.458 69.6455L241.591 70.1072L242.43 69.8134L242.849 69.4777L243.604 69.3937L244.108 69.2678L245.031 69.5616L245.492 69.2678L246.96 68.8901L247.338 68.9321L248.009 69.1839L248.638 69.058L249.016 69.2678V69.6036L248.89 70.0233L248.429 70.9466L247.338 70.9046L246.96 71.3243L246.834 71.6601L246.583 72.0798L246.121 72.2477L245.995 72.4995L245.912 72.5834L245.953 72.7093L245.87 72.8352L245.786 73.2969L245.24 73.9265L244.863 75.3534L243.772 76.4027L243.52 76.9902L243.604 77.4939L243.436 78.3752L243.101 79.1307V79.5924L243.017 80.096L242.891 80.3478L242.597 80.7256L241.926 81.1872L241.213 83.1598L241.087 83.9572L239.661 83.9153L239.325 83.6215L238.78 83.5375L238.57 83.4536H236.473L236.389 83.5375L235.885 84.209L235.718 84.6707L235.466 85.0904L235.214 85.2163L234.543 85.1743L234.249 85.2583L234.039 85.3422L233.536 85.72L233.998 86.7272L234.249 86.8531L234.585 87.6506L234.795 88.406L235.046 88.8257L236.011 89.5392L236.137 89.6651L236.263 89.875V90.5465L237.563 90.7983L238.402 91.0921L240.71 90.7563L241.549 92.5191L239.577 94.1559L239.367 94.3657L239.241 94.4916L238.948 94.7434L237.06 95.2051L236.766 95.4989L235.969 95.5409L235.34 95.7507L234.92 96.1704L234.627 96.758L234.543 96.8419L234.081 97.0098L233.83 97.2197L233.578 97.5974L233.159 97.8492L232.11 98.6466L231.69 99.6119V99.7378L231.816 99.8638L231.858 100.032L231.816 100.451L231.313 100.787L231.061 101.165L230.683 101.501L230.6 102.046L230.683 102.382L230.39 103.347Z" fill="#009649" stroke="white" stroke-width="2" stroke-linejoin="round"></path>
<path class="region" data-country-region="North Region" d="M287.946 110.314L286.813 111.741L286.1 112.329H285.219L284.338 112.581L282.786 113L282.283 112.916L281.779 112.539L281.57 112.203L281.276 112.035L280.521 112.203L280.269 112.371L280.101 112.497L279.934 112.539L279.64 112.413L279.178 112.119L278.465 111.741H278.339L278.088 111.531L277.836 111.447L277.165 111.238H276.913L276.578 111.28L276.032 111.447L275.78 111.573L275.613 111.657L275.319 111.993L274.899 112.035L273.515 111.825L272.341 111.993L272.047 111.825L271.963 111.615L271.921 111.238L271.753 111.112L271.418 111.028L271.124 111.07L270.914 111.238L270.704 111.447L270.621 111.531L270.159 111.489L269.865 111.573L269.446 111.783L269.194 111.825L268.817 112.077L268.229 112.539L268.062 112.623L267.013 113.042L266.845 113.168L266.719 113.462L266.3 113.546L264.789 113.126L264.496 113.252L264.16 113.546L263.908 113.588L262.86 113.378L262.566 113.21H262.314L261.517 113.42L261.182 113.504L260.93 113.588L260.762 113.714L260.594 114.05L260.468 114.427L260.259 114.847L260.091 115.099L259.965 115.267L259.755 115.351L259.252 115.141L258.832 115.015H258.497L258.119 115.099L257.951 115.225L257.868 115.309L257.784 115.519V115.854L257.742 115.938L257.616 116.064L257.364 116.022L257.112 116.106L256.987 116.148L256.861 116.316L256.693 116.4H256.441L256.231 116.232L254.931 114.553L254.763 114.427L254.679 114.217L254.721 114.05L254.805 113.84L254.763 113.756L254.637 113.63L254.302 113.42L253.672 112.707L253.631 112.623L253.672 112.371L253.631 112.245L253.505 112.161L253.337 111.909L253.253 111.489L253.127 111.154L252.833 110.776L252.204 110.356L252.036 110.314L251.743 110.272L251.617 110.314L251.281 110.44L251.03 110.482L250.778 110.398L250.694 110.23V110.104L250.778 109.853L250.652 109.685L250.484 109.643L250.065 109.559L249.729 109.223L249.519 109.139L249.142 109.013L248.89 108.845L248.722 108.677L248.513 108.426L248.345 108.342L248.135 108.3L247.715 108.258H247.254L247.002 108.342L246.918 108.384L246.667 108.594H246.583L246.415 108.552L246.205 108.216L246.037 107.838L245.87 107.418L245.744 107.209L245.618 107.041L245.45 106.873L245.408 106.663V106.411L245.324 106.201L245.366 105.907L245.282 105.824L245.115 105.782L244.905 105.74L244.066 105.152L243.688 105.11H243.437L243.269 105.236L243.059 105.404L242.723 105.488L242.514 105.614L242.388 105.74L242.136 106.075L241.968 106.201H241.8L241.549 105.949L241.381 105.907L241.213 105.949L241.003 106.033L240.794 106.075L240.584 105.949L240.374 105.782L240.08 105.698L239.829 105.614L238.361 104.606L237.48 104.271L236.892 104.564L236.85 104.774L237.018 104.732L237.186 104.858L237.521 105.152L237.563 105.362L237.27 105.446H236.85L236.557 105.488L236.305 105.614L235.424 106.411L235.172 106.495L235.34 105.991L235.466 105.698L235.424 105.53L234.879 105.278L234.795 105.068L234.543 104.858L234.375 104.564L234.123 104.439H233.872L233.62 104.564L233.41 104.816L233.326 104.858L233.201 104.9L233.075 104.858L232.781 104.522L232.697 104.313L232.613 103.935L232.487 103.851L232.278 103.767L231.858 103.725L231.397 103.767L231.061 103.683L230.39 103.347L230.684 102.382L230.6 102.046L230.684 101.501L231.061 101.165L231.313 100.787L231.816 100.451L231.858 100.032L231.816 99.8638L231.69 99.7379V99.612L232.11 98.6467L233.159 97.8493L233.578 97.5975L233.83 97.2197L234.082 97.0099L234.543 96.842L234.627 96.7581L234.921 96.1705L235.34 95.7508L235.969 95.5409L236.766 95.499L237.06 95.2052L238.948 94.7435L239.241 94.4917L239.367 94.3658L239.577 94.1559L241.549 92.5191L240.71 90.7564L238.402 91.0921L237.563 90.7984L236.263 90.5465V89.875L236.137 89.6652L236.011 89.5393L235.046 88.8258L234.795 88.4061L234.585 87.6506L234.249 86.8532L233.998 86.7273L233.536 85.72L234.04 85.3423L234.249 85.2584L234.543 85.1744L235.214 85.2164L235.466 85.0905L235.718 84.6708L235.885 84.2091L236.389 83.5376L236.473 83.4537H238.57L238.78 83.5376L239.325 83.6215L239.661 83.9153L241.087 83.9573L241.213 83.1599L241.926 81.1873L242.598 80.7256L242.891 80.3479L243.017 80.0961L243.101 79.5924V79.1308L243.437 78.3753L243.604 77.4939L243.52 76.9903L243.772 76.4027L244.863 75.3535L245.24 73.9265L245.786 73.297L245.87 72.8353L245.954 72.7094L245.912 72.5835L245.996 72.4995L246.121 72.2477L246.583 72.0798L246.835 71.6601L246.96 71.3244L247.338 70.9047L248.429 70.9467L248.89 70.0233L249.016 69.6036V69.2679L248.638 69.058L248.009 69.1839L247.338 68.9321L246.96 68.8901L245.492 69.2679L245.031 69.5617L244.108 69.2679L243.604 69.3938L242.849 69.4777L242.43 69.8135L241.591 70.1073L240.458 69.6456L240.416 69.2259L241.213 68.5544L241.339 68.3445L241.507 68.1347L241.549 67.8829L241.507 67.6311L241.381 67.1694L241.297 66.4979L241.507 66.288L241.717 66.4139L241.926 66.8336L242.01 66.9176L242.094 66.8756L242.22 66.7497L242.304 66.5398V66.2461L242.262 65.9103V65.7004L242.346 65.5745L242.598 65.2807L242.681 65.1129L242.723 64.945L242.639 64.8191L242.472 64.7771L242.178 64.861L241.675 65.1548L241.507 65.1129L241.381 64.903L240.919 64.2315L239.409 64.3154L238.612 64.903L236.934 65.1129L236.557 65.2807L234.837 65.8264L234.627 65.9523L234.291 66.2041L233.872 66.4139L233.201 66.5818L232.404 66.6658L231.942 66.5398L231.732 66.1621L231.69 65.9103L231.774 65.6585L232.026 65.4486L232.739 65.1968L233.494 64.7771L233.704 64.3994L234.082 64.1895L234.543 64.0217L235.046 63.8957L235.843 63.6439L236.179 63.2662L236.305 62.6367V62.2589L236.389 61.9232L238.025 61.1677L238.612 60.832L239.032 60.6221L239.493 60.4962L239.913 60.4542L240.961 60.5801L242.514 60.4542L243.017 60.6641V59.405L243.898 59.321L244.485 59.405L244.821 59.9086L244.947 59.9926L245.702 61.4195L247.38 60.6221L247.548 60.4123L247.925 59.4889L248.009 59.0273L248.303 58.6495L248.806 58.1879L250.316 57.7682L251.155 57.2226L252.54 56.6769L252.582 57.3065L252.708 57.936V58.2298L252.666 58.3977L252.456 58.6495L252.288 58.7335H252.078L251.869 58.5236L251.785 58.5656L251.533 58.8174L251.323 59.0692L251.281 59.2791V59.405L251.659 60.2444L251.701 60.6221V60.9579L251.617 61.2936L251.407 61.4195L251.155 61.6714L251.113 61.7973L251.155 62.0071L251.239 62.133L251.407 62.091L251.827 61.7973L251.952 61.7553L252.12 61.7973L253.127 62.8465L253.295 63.3082L253.631 63.7698L253.798 63.9377L253.966 63.9797L254.134 64.0636L254.47 64.3574L255.099 65.1129L255.602 65.6165L256.525 65.8683L257.826 66.0362L259.42 65.5326L259.671 64.945L260.049 64.7771L260.175 64.2315L259.713 63.6439L259.504 63.4341L259.336 63.1823L259.42 62.7626L260.007 62.5107L260.385 61.9651V61.8392L262.482 60.0765L265.041 58.1039L266.006 57.5583L266.3 56.8868L266.384 56.1733L265.922 55.2919L265.964 53.5292L266.719 53.1515L267.055 53.0676L267.432 53.2354L267.894 53.5292L268.103 53.5712L268.313 53.4453L268.649 52.9416H269.404L270.285 52.7738L271.082 52.5219L273.347 53.0676L274.312 53.5292L275.109 53.2354L275.445 52.8997L275.655 52.3541L275.78 51.8924L276.242 51.6406L276.536 51.7665L277.878 51.4307L277.962 50.5494L278.088 50.2136L278.465 49.4582L279.976 50.9691L280.605 51.2629L282.535 51.7245L282.87 52.3541L284.213 52.5639L284.758 53.823L285.093 54.2007L285.429 54.4526L285.807 54.4945L286.226 54.4526H286.436L286.604 54.5365L286.688 54.7463L286.562 55.0821L286.226 55.5857L285.177 55.9215L284.884 56.2153L285.01 56.6769L285.765 56.9288L286.142 57.2645L286.394 57.5583L286.646 58.6495L287.023 59.4889L287.443 59.8667L287.275 60.2863L286.268 60.4962L285.597 60.832L285.345 61.3776L285.303 62.5107L287.485 62.3009L288.072 62.175L288.114 62.091L288.156 61.8812L288.324 61.6714L288.575 61.5874L288.953 61.6294L289.079 61.5874L289.331 61.4195L289.456 61.3776H290.757L291.344 61.5035L291.554 61.5874L292.309 60.4962L292.267 60.0765V59.5309L292.057 59.1951L291.009 58.9433L290.589 58.8174L290.337 58.7754L290.086 58.6076L290.044 58.1459L290.295 56.9288L290.967 56.4671L291.889 56.2153L292.687 56.0894L293.232 55.8795L293.484 55.2919L293.651 54.9562L293.903 54.8303H294.239L294.574 54.7883L294.742 54.5785L294.826 54.3266L294.7 54.0329L294.365 53.5292L292.183 52.0603L292.015 51.7245L291.973 51.3888L292.057 51.095L291.931 51.011L291.973 50.8012H290.463L291.009 49.8359L290.673 49.1644L291.931 45.9327L292.015 44.6736L292.477 43.7083L291.973 42.9528L290.799 42.743L287.988 42.6171L288.533 42.1134L288.827 42.0295L289.582 42.1554L289.792 42.0715L290.128 41.8197L290.337 41.6518L290.505 41.6098L290.967 41.6937L291.218 41.6098L291.344 41.4839L291.68 41.1062L291.848 40.9383L291.973 40.8963L292.393 41.0222L292.938 41.1901L293.232 41.358L293.358 41.4L293.609 41.4419L293.777 41.358L294.071 41.1901L294.197 41.1481L294.281 41.1901L294.49 41.4419L294.658 41.5259L294.868 41.4839L294.91 41.4L295.162 41.0222L295.329 40.8544L295.497 40.7284H295.749L295.875 40.7704L296.001 40.9383L296.043 41.1901L296.126 41.316L296.294 41.4419L296.672 41.5259H296.882H297.049L297.217 41.4L297.301 41.2741L297.427 40.6025L297.469 40.4766L298.35 39.7212L298.56 39.6792L298.895 39.8051L299.147 39.8471L299.441 39.8051L299.608 39.7631L299.86 39.6792L299.986 43.0368L300.112 43.9601L301.874 47.8633L302.377 49.5001L302.461 51.1369L302.335 52.6059L302.377 59.2371V65.1968L302.419 69.8974L302.083 70.9467L302 71.4923V72.2058L302.042 72.8773L302.251 73.297L302.377 73.7586L302.545 75.1436V75.6053L302.461 75.8991L302.335 76.025L302.167 76.1089L301.916 76.3608L301.748 76.6126L300.909 78.795L300.825 79.3826L300.867 80.0541L301.664 82.5303L300.531 83.1179L299.986 83.2438L299.399 83.0759L295.623 80.5997L291.47 77.9136L290.967 77.7458H290.421L289.75 77.9136L289.205 78.2074L285.513 81.523L285.261 81.9427L284.968 83.0759L283.919 85.6361L282.576 87.9864L281.192 89.7911L279.346 92.0994L278.927 93.6943L279.011 99.0244L279.178 100.535L279.346 101.039H279.682L279.976 100.955L280.311 100.787L280.605 100.535L280.856 100.242L281.276 101.543L281.528 101.92L282.073 102.508L282.283 102.844L282.409 103.263V103.809L282.199 104.69L282.283 105.236L282.702 105.991L284.716 107.796L285.639 109.223L285.932 109.517L286.226 109.727L287.946 110.314Z" fill="#009649" stroke="white" stroke-width="2" stroke-linejoin="round"></path>
<path class="region" data-country-region="North Region" d="M267.516 196.142L267.432 196.016L267.138 195.806L267.054 195.596L267.012 195.261L266.929 195.009L266.761 194.883L266.467 194.715L266.383 194.589L266.341 194.421V194.002L266.299 193.834L266.173 193.624L266.131 193.204L266.173 192.868L266.131 192.7L266.048 192.491L265.838 192.197L265.376 191.861L265.125 191.819L265.041 191.651L264.999 191.399L264.957 191.148L264.789 190.98L264.705 190.938L264.202 190.896L263.95 190.77L263.74 190.56L263.447 190.644L263.195 190.56L263.111 190.392L262.985 190.14L262.901 190.014L262.692 189.889L262.608 189.595V189.469L262.524 189.301L262.23 189.385L262.146 189.427H261.978L261.769 189.385L261.391 189.175L260.93 188.755L260.258 188.336L259.965 188.084L259.923 187.958L259.839 187.832L259.713 187.748H259.335L259.168 187.79L259 187.958L258.916 188L258.664 187.832L258.371 187.748L257.909 187.496L257.616 187.454L257.406 187.328L257.112 187.202L256.441 187.37H256.147L255.979 187.286L255.518 186.951L254.889 186.741L253.504 185.734L253.378 185.692H253.169L252.959 185.775L252.581 186.027L252.372 186.111H252.246H251.365L251.155 186.237L251.029 186.405L250.861 186.531L250.736 186.573L250.484 186.531L249.98 186.363L249.309 185.943L246.247 185.104L246.079 185.02L245.911 184.894L245.869 184.684L245.911 184.307L245.827 183.971L245.743 183.803L245.618 183.719L244.359 183.089L244.191 183.047L244.107 183.089L243.94 183.215L243.898 183.509L243.856 184.181L243.814 184.474L243.688 184.684L243.604 184.726L243.478 184.768L241.632 184.349L241.423 184.223L241.255 183.971L240.793 183.215L240.667 183.131H240.29L239.996 183.047L239.912 183.005L239.745 182.754L239.577 182.292V182.082L239.786 181.285L239.828 181.033V180.865L239.493 180.277L239.409 180.152L239.451 179.942L239.535 179.69L240.038 178.473L240.206 178.431L241.506 179.018H241.632L241.8 178.892L242.01 178.641L242.387 178.011L242.555 177.801L242.723 177.759L242.975 177.843L243.101 177.801L243.226 177.675L243.478 177.298L243.73 177.004L244.024 176.836L244.191 176.71V176.542L244.024 176.206V176.039L244.191 175.871L244.443 175.787L244.653 175.661L244.904 175.451L245.114 175.409L245.492 175.493H245.618L245.702 175.409L245.995 174.947L246.037 174.821L246.457 174.486L246.582 174.234L246.624 173.898L246.582 173.688L246.499 173.52L245.66 172.765L244.695 171.506L244.527 171.254L246.079 170.331L246.289 170.205L246.834 170.037L247.044 169.953L247.17 169.743L247.128 169.533L246.918 169.114L246.876 168.778V168.568L246.834 168.442L246.582 168.232L246.289 167.812V167.309L246.415 166.679L246.457 166.134L246.834 165.462L247.044 164.833L247.38 164.287L247.925 163.825L249.435 163.364L249.645 163.07V162.692L249.687 162.356L250.022 162.147L249.729 161.769L249.603 161.265V160.678L249.729 160.216L250.148 159.796L250.694 159.544L251.281 159.377L251.784 159.125L252.036 158.957L252.162 158.789L252.288 158.537L252.246 158.201L252.288 157.824L252.665 157.32L252.707 156.984L252.665 156.858L252.414 156.607L252.33 156.481L252.288 156.313L252.33 155.977L252.288 155.851L252.12 155.347L251.575 154.634L251.365 153.837L251.197 153.459L250.945 153.165L250.61 152.913L250.4 152.661L250.316 151.36L249.729 151.108H248.932L248.302 150.899L246.708 149.178L246.037 148.884L245.576 148.758L245.324 148.59L245.198 148.297V147.877L245.03 147.625L244.611 147.457L244.149 147.331H243.856L242.807 146.24L242.01 144.855L241.758 144.561L241.506 144.309L241.632 144.058L242.052 143.008L242.136 142.589L242.304 142.295L242.807 141.833L242.891 141.623L242.933 141.413L242.891 140.952L242.975 140.784L243.059 140.616L243.436 140.28L243.73 139.903L245.072 139.399L246.079 139.189L246.205 139.231L246.666 139.357H246.96L247.17 139.315L247.505 139.189L247.715 139.105L247.925 139.021L248.051 138.937L248.135 138.685V138.35L248.009 138.056V137.93L248.093 137.72L248.302 137.426L248.722 136.965L248.806 136.923L249.141 136.755L250.148 136.587L250.819 135.748L251.071 135.58L251.323 135.454L251.826 135.286L252.162 135.076L252.456 134.782L253.756 133.103L253.882 133.02L254.092 132.894L254.343 132.852L255.476 132.768L255.686 132.726L255.854 132.558L255.979 132.348L256.189 131.802L256.357 131.509L256.609 131.215L257.154 130.837L257.28 130.543L257.406 129.872L257.322 129.494L257.196 129.284L257.07 129.116L256.651 128.781L256.441 128.487L256.399 128.235V128.025L256.525 127.731L256.735 127.186L256.986 126.766L257.154 126.64L257.196 126.514L257.238 126.346L257.196 125.507L257.238 125.213L257.364 125.045L257.574 124.71L257.699 124.416L258.035 123.534L258.245 123.157L258.287 123.031L258.245 122.737L257.993 122.485L257.909 122.275V121.94L257.993 121.1V120.806L257.909 120.596L257.657 120.219L257.532 120.009V119.883L257.574 119.589L257.783 119.295L258.077 119.086L259.168 118.498L259.252 118.414L259.294 118.246L259.335 117.994L259.252 117.449L259.168 117.197L259.084 117.029L259 116.945L258.329 116.735L258.245 116.693L258.161 116.567L258.203 116.4L258.287 116.106V115.938L258.245 115.812L258.329 115.602L259.252 115.14L259.755 115.35L259.965 115.266L260.091 115.098L260.258 114.847L260.468 114.427L260.594 114.049L260.762 113.713L260.93 113.588L261.181 113.504L261.517 113.42L262.314 113.21H262.566L262.859 113.378L263.908 113.588L264.16 113.546L264.495 113.252L264.789 113.126L266.299 113.546L266.719 113.462L266.845 113.168L267.012 113.042L268.061 112.622L268.229 112.538L268.816 112.077L269.194 111.825L269.446 111.783L269.865 111.573L270.159 111.489L270.62 111.531L270.704 111.447L270.914 111.237L271.124 111.069L271.417 111.027L271.753 111.111L271.921 111.237L271.963 111.615L272.047 111.825L272.34 111.993L273.515 111.825L274.899 112.035L275.319 111.993L275.612 111.657L275.78 111.573L276.032 111.447L276.577 111.279L276.913 111.237H277.165L277.836 111.447L278.087 111.531L278.339 111.741H278.465L279.178 112.119L279.64 112.412L279.933 112.538L280.101 112.496L280.269 112.37L280.521 112.203L281.276 112.035L281.569 112.203L281.779 112.538L282.282 112.916L282.786 113L284.338 112.58L285.219 112.328H286.1L286.813 111.741L287.946 110.314L292.099 111.783L293.441 112.035L301.999 112.161V111.867L301.957 111.615L301.873 111.363L301.706 111.153L301.622 110.818L301.496 107.418L302.167 103.599L302.503 101.668L302.461 101.039H303.761L304.055 101.123L304.558 101.584L304.852 101.71L305.439 101.836L306.404 101.752H306.991L309.508 102.172L311.774 102.088L320.038 101.878L319.786 102.759L319.493 105.613L319.115 106.998L319.073 107.46L318.989 107.922L318.276 108.887L318.234 109.097L318.15 109.726L318.108 109.894L317.941 110.23L317.857 110.818L315.801 116.651L314.459 123.073L314.417 123.576L314.375 123.786L314.207 124.332L314.165 124.542V124.835L314.249 125.255L314.291 125.465L313.368 130.963L313.242 131.383L311.606 133.985L311.48 134.321L311.396 134.824L311.186 135.286L310.851 135.622L310.431 135.748L310.473 135.999L310.557 136.041L310.809 135.915L310.977 136.671L310.767 137.51L310.431 138.308L310.264 139.021L310.012 139.441L308.334 141.162L308.082 141.372L307.453 141.665L307.201 141.833L307.033 142.085L306.656 142.715L306.404 143.05L304.265 144.897L303.719 144.435L302.964 144.561L302.503 145.065L302.964 145.652L303.09 145.485L303.384 145.233L303.677 145.065L304.013 145.023L303.635 145.736L302.88 146.408L300.447 147.667L299.776 147.835L299.021 147.793L298.14 147.625L298.224 147.961L298.266 148.045L298.392 148.087V148.255L297.804 148.59L294.029 152.955L293.106 153.795L292.812 153.962L292.686 154.046L292.644 154.172L292.56 154.55L292.477 154.634L292.225 154.802L291.47 155.893L291.218 156.145L290.547 156.523L290.295 156.774L290.169 156.984L290.085 157.488L289.834 157.614L289.666 157.782L289.54 157.95L289.372 158.327L286.813 161.895L284.254 167.015L284.044 167.896L284.254 168.778H283.499L283.289 168.946L283.205 169.533L283.499 169.407L284.17 169.155L284.422 168.946V169.114L284.296 169.407L284.128 169.701L283.625 170.289L281.611 172.177L281.024 172.891L280.101 174.528L279.01 177.088L276.2 182.124L275.822 183.047L275.738 183.383L275.57 183.677L274.647 184.684L271.333 190.896L270.788 191.693L270.494 192.029L270.201 192.155L269.949 192.365L269.32 193.708L267.516 196.142ZM257.909 173.52L256.986 173.269L255.518 172.471L255.015 172.303H254.721L253.966 171.674L253.798 171.8L253.42 172.261L253.504 172.639L253.714 172.933L253.63 173.31L252.917 174.276L252.833 174.947L252.875 175.745L253.672 176.416L254.05 176.878L254.301 177.507L254.343 178.011L254.847 179.69L255.644 180.655L256.525 183.089L257.49 183.341H257.951L258.832 183.047L259.419 182.964L260.091 183.089L260.594 183.383L261.181 183.845L261.601 184.013L262.146 184.097L262.817 184.558L263.069 184.6L263.237 184.558L263.572 184.307L263.782 184.097L263.95 183.719L264.034 183.089L264.118 182.754L264.16 182.46L264.495 182.418L264.537 182.208V181.914L264.453 181.662V181.537L264.495 181.411H264.579L264.789 181.453H264.999L265.083 181.369L265.167 181.159L265.334 180.991L265.502 181.033L265.67 181.159L265.838 181.117V180.907L265.796 180.655L265.67 180.529L265.544 180.361L265.209 180.068L264.873 179.858L264.663 179.648L264.621 179.396L264.663 179.144L264.831 178.976L264.789 178.767L264.495 178.725H264.37L264.286 178.809L264.16 178.976L264.076 179.018L263.824 178.85L263.656 178.683V178.389L263.572 178.263L263.489 178.095L263.237 177.927L263.111 177.843L262.775 177.801L262.692 177.759L262.188 177.214L262.104 177.13L262.23 176.92L262.44 176.836L262.692 176.92L262.817 176.836L262.733 176.71L262.314 176.29L262.146 176.08L261.853 175.577L261.685 175.409L261.349 175.283L261.139 175.115L260.93 174.821L260.72 173.94L260.594 173.73L260.258 173.478L259.629 173.688H259.335L257.909 173.52Z" fill="#009649" stroke="white" stroke-width="2" stroke-linejoin="round"></path>
<path class="region" data-country-region="North Region" d="M193.725 53.9911V55.7538L193.85 56.2994L194.396 57.2647L194.522 57.7684L194.69 57.8523L198.046 58.1461L198.507 58.272L199.136 58.6497L199.64 58.9015L200.017 58.9855L200.479 59.0694L200.772 58.9855L201.989 58.314L204.212 57.3487L205.051 56.7611L205.261 56.2155L205.471 56.0056L205.764 55.9217L206.016 56.0896L206.142 56.4673L206.394 58.6497L206.855 59.4471L207.526 59.8668L208.198 60.5384L208.449 61.2099L208.617 61.4617L208.869 61.6715L210.924 62.0073L212.435 63.1405L213.903 63.1825L214.784 63.0565L214.994 63.2244L215.119 63.812L215.245 63.9799L215.329 64.0638L215.539 64.1058L215.707 64.0638L215.917 63.854L216.63 62.7208L216.714 62.3011L216.756 61.7974L216.797 61.6296L217.007 61.5037L217.427 61.3358H217.846L218.308 61.2518L219.105 62.0073L219.44 61.7974L219.734 61.6296L220.028 61.5876L222.964 61.9234H223.174L223.258 61.8814L223.426 61.7555L223.677 61.5876L224.097 61.5456L225.062 61.7974L225.985 61.8814L226.698 62.0493L228.208 62.7628L228.795 63.0985L229.089 63.5182L229.005 64.1058L228.879 64.5255L228.628 64.7353L228.208 64.7773L227.956 64.6514L227.579 64.4415L227.201 64.2317L226.908 64.1897L226.488 64.3576L226.32 64.6514L226.404 65.0711L226.824 65.3649L227.075 65.6587L227.243 66.1623L227.495 66.3722L227.914 66.4561L228.544 66.3302L228.963 66.54L229.257 66.7079L230.473 68.6805L230.306 70.4852L229.509 71.0308L229.005 71.1987L227.956 71.2406L227.705 71.3666L227.495 71.4505L227.159 71.4925L227.033 71.3246V71.0308L227.243 70.779V70.5691L227.075 70.4852L226.656 70.5272L226.194 70.737L226.027 71.0728V71.4505L226.278 72.6676L226.362 72.8775V73.2552L226.236 73.8008L225.733 74.5563L225.272 75.0179L224.768 75.3537L223.3 75.6894L223.929 77.1584L224.013 77.4102L224.055 77.704V77.8719L223.887 77.9978L223.761 78.0397L223.677 78.1657L223.719 78.4175L223.761 78.8372L223.677 79.2569L223.3 79.7605L222.671 80.0123L222.335 80.2641L220.993 80.5579L219.482 80.8097L219.147 80.516L218.392 80.5579L217.972 80.1802L217.469 79.8864L217.133 79.4667L215.539 80.0543L214.239 80.9776L213.735 83.4538L213.274 85.5943L212.812 86.2238L212.141 86.4757L211.805 86.9373L210.631 87.0213L211.302 90.0431L209.582 91.2602L208.575 92.1836L209.288 93.5686L209.414 93.8623L209.456 94.1981V94.366H209.582L209.708 94.4919L210.379 94.366L210.631 94.2401L210.882 94.1142L211.805 93.6945L212.141 93.2748L214.532 92.5613L214.868 92.8551L215.036 93.1069L215.287 93.2328L215.455 93.4007H217.217L217.091 94.1142L216.881 94.1981L216.756 94.324L216.63 94.6598L216.504 95.9189L216.21 96.2126L215.958 96.7583L216 97.3039L215.833 100.158L215.665 100.2L215.413 100.452L215.329 100.871V101.333L215.245 101.543L214.658 102.466L214.448 102.592L213.232 102.928H212.98L212.728 102.844L212.099 102.256L211.847 102.13L211.302 102.214L210.84 102.634L210.001 103.599L209.246 104.187L208.827 104.355L208.659 104.187L208.785 103.767V103.557L208.575 103.515H208.407L208.072 103.641L206.142 103.683L205.303 103.557L204.632 103.222L204.254 102.508L204.003 102.256L203.709 102.466L203.625 102.802L203.709 104.229L203.247 103.935L202.618 103.348L202.534 103.306L202.115 103.557L201.863 103.809L201.737 103.977L201.569 103.893L201.276 103.641L201.192 103.725L200.982 103.893L200.521 104.019L200.185 104.271L199.64 104.774L199.556 104.9L199.43 105.194V105.362L199.346 105.614H199.22L199.052 105.446L198.675 105.278L198.381 105.194L198.088 105.32L197.836 105.53L197.29 106.118L197.165 106.369L197.123 106.705L197.207 107.041L197.165 107.293L196.913 107.544L196.409 107.377H196.2L195.696 108.006L195.361 108.258L194.228 108.594L193.85 109.097L194.27 109.727L194.941 110.314L195.319 110.776L195.277 112.035H195.151L194.983 112.119L194.731 112.539L194.606 112.959L194.731 113.294L195.235 113.42H195.445L195.612 113.504L195.78 113.63L195.822 113.798L195.738 113.84H193.809L193.431 113.714H192.886L192.634 113.756L192.424 113.924L192.256 114.344L192.172 114.469L191.837 114.218L191.711 114.176L191.166 114.26L190.704 114.553L190.369 115.015L190.243 115.561L190.285 115.938L190.243 116.064L190.075 116.274L189.991 116.316L189.697 116.358L189.572 116.4L187.81 118.079L187.39 118.666L186.929 119.548L186.887 119.758L186.929 120.009L187.138 120.387L187.18 120.597L187.096 120.807L186.929 120.933L186.677 121.017L186.467 120.975L186.341 120.933L186.215 120.849L186.132 120.639L186.048 120.177L185.964 119.8L185.838 119.254L185.712 119.17L185.544 119.086L184.202 118.834L183.95 118.792L183.531 118.834H183.405L183.237 118.75L183.069 118.624L182.776 118.331L182.524 118.037L182.356 117.911L181.937 117.953L179.881 119.128L179.378 119.548L179.126 119.884L178.958 119.968L178.832 120.009L178.497 119.884L178.119 119.674L177.909 119.59H177.699L177.532 119.674L177.322 119.968L177.112 120.093L176.777 120.303L176.567 120.345L176.441 120.303L176.273 120.177H176.147L176.021 120.219L175.812 120.471L174.595 120.807L174.302 121.017L172.875 122.276L172.749 122.36L172.498 122.444L172.246 122.486H172.036H171.826L171.617 122.654L171.323 123.157L171.071 123.283V123.451L171.155 123.787L171.029 124.081L170.736 124.5L170.442 124.836L170.064 125.088L169.855 125.424L169.771 125.466H169.309L169.1 125.508L168.89 125.633L168.806 125.759L168.261 126.683L168.303 126.851L168.345 126.976V127.144L167.967 127.858L167.673 128.236L167.422 128.487H167.254L167.044 128.403H166.834L166.666 128.697H166.625L166.457 128.739H166.247L166.079 128.781L165.66 129.201L165.366 129.369H165.198L165.072 129.327L162.975 125.172L163.31 125.13L166.876 120.765L166.625 120.471L166.457 120.387L166.205 120.303L165.827 120.261L162.765 120.303L162.262 120.135L162.094 119.884L162.052 119.506L161.842 119.044L161.632 118.373L161.381 118.079H161.297L160.751 117.953H160.458L160.248 118.079L160.122 118.289L160.08 118.541V118.918L160.206 119.422L160.164 119.548L159.996 119.968L159.954 120.135V120.387L160.08 120.807L160.122 120.891L160.416 121.059L160.542 121.269L160.584 121.814L160.542 122.066L160.416 122.57V122.821V123.157L160.374 123.367L160.248 123.661L160.122 123.829L159.996 123.955L159.661 124.081L159.535 124.206L159.325 124.668L158.99 125.088L158.948 125.633V125.801L158.99 126.347L158.948 126.767L158.822 127.186L158.025 127.9L157.857 128.068L157.731 128.529L157.521 128.865L157.018 129.369L155.466 128.026L155.424 127.69L155.55 127.354L155.675 127.144L155.633 126.683L155.088 125.969L154.794 125.759L154.333 125.675L154.081 125.424L153.955 124.962L154.165 124.458L154.375 124.039L155.004 123.409L155.172 123.073L155.256 122.57L155.13 121.059L154.962 120.597L154.836 120.219L148.796 121.604L148.292 120.387V119.044L147.747 118.037L147.621 116.778L147.537 116.358V116.022L147.621 115.645L147.663 113.378L147.159 112.581L146.74 112.077L146.656 112.329L146.572 112.497L146.404 112.833V113.336L146.446 113.672L146.572 114.176L146.446 114.386L145.775 114.344L145.188 114.218L144.81 114.302L144.558 114.553L144.475 114.889L144.517 115.141L144.852 115.351L144.894 115.603L144.81 115.813L144.517 115.98L144.139 116.022L143.468 115.938H143.048L142.755 116.064L142.713 116.148L142.503 116.484L142.041 116.946L141.58 116.988L140.741 116.694L139.944 116.316L139.147 115.813L138.56 115.645L136.84 115.435L136.798 115.141L136.714 114.931L136.588 114.679L136.168 114.344L135.707 114.302H135.539L135.329 114.218L134.239 113.294L133.819 113.084L133.316 112.959L132.351 112.875L131.973 112.791L131.554 112.539L129.834 110.566L129.037 109.853L128.072 109.727L127.778 109.475L127.527 109.181L127.317 108.51L127.233 107.964V107.503L127.275 106.831L127.401 106.243L127.652 105.908L128.533 105.53L128.785 105.404L128.869 105.236L128.743 105.068L128.198 104.229L127.527 102.004V101.711L127.652 101.291L127.946 100.829L128.03 100.368L127.946 99.6122V99.1925L128.114 98.3951L128.03 98.0593L126.729 97.136L126.436 97.178L126.31 97.2619L126.058 96.8842L125.849 96.6743L125.471 96.5484L124.842 96.4645L124.59 96.3805L124.38 96.1287L124.045 95.9608L123.709 95.9189L123.457 95.8769H122.912L122.618 95.9189H122.367L121.905 95.8769L121.695 95.751L121.528 95.4152L121.36 94.324V94.282L121.276 93.7364V93.1908L121.402 92.7292L121.653 92.4354L121.486 85.9301L120.059 85.8881L120.101 85.8041L120.94 84.587V84.3352L120.856 84.0834V83.9155L121.066 83.7476L121.612 83.5378L121.821 83.3699L121.989 83.1181L122.073 82.7404L122.115 82.2367V81.7331L122.031 81.4813L121.779 81.1035L121.989 80.7258L122.367 80.39L122.66 80.0543L122.87 79.6766V79.5507L122.744 79.2569L122.576 79.047L122.409 78.9211V78.6273L122.492 78.1657L122.786 77.704L123.625 76.6967L123.751 76.4869L123.793 76.235L123.835 75.9413L123.793 75.6894L123.751 75.5216V75.3537L124.045 75.1438L124.212 74.934L124.129 74.6822L123.919 74.4723L123.793 74.2625L123.835 74.0526L123.877 73.8847L124.045 73.549L124.422 72.2479L124.548 71.9961L125.051 71.8282L125.261 71.5764L125.555 70.737L125.723 70.4432L125.89 70.2753L126.1 70.1494L126.352 70.0235L126.604 69.8556L126.688 69.6878L126.729 69.5199L126.813 69.352L127.568 68.5546L128.03 68.3028L128.491 68.3867L128.617 68.5546L128.701 68.7644L128.827 68.8903L129.079 68.7644L129.247 68.5966L130.715 67.8831L131.638 67.6312L132.603 67.5473L133.693 67.7572L134.574 68.0929L134.868 68.1769L135.204 68.1349L135.833 67.8831L136.084 67.8411L136.378 67.925L136.546 68.0929L136.84 68.5546L137.091 68.8484L137.301 68.9743L137.888 69.2681L138.35 69.5619L140.405 71.1987L140.573 71.4085L140.825 71.6603L141.916 71.9961L142.083 72.164L142.293 72.5837L142.419 72.7935L142.587 72.9194L143.006 73.0453L143.174 73.1293L143.887 74.1366L144.768 74.7661L145.062 75.1858L145.439 75.4376L146.446 75.1858L146.698 75.2278L146.866 75.3537L147.076 75.5216L147.117 75.6894L146.992 75.8573L147.034 75.9832L147.453 75.8993L149.467 75.3537H150.474L151.355 75.8573L152.697 77.4522L153.494 78.0817L154.501 78.2496L155.004 78.1237L155.424 77.9558L155.801 77.8719L158.151 78.7532L159.157 79.4667L159.87 79.6346L161.255 79.4667L161.926 79.5926L162.471 79.7605L163.059 79.6766L164.191 79.3828L164.611 79.2149L165.744 78.3335L166.625 77.8719L167.38 77.7879L168.135 77.9138L169.016 78.1657L169.855 78.3335L173.882 77.9138L175.308 77.2004L177.825 75.2278L178.245 73.9267L179.294 71.3246L179.923 68.5546L181.601 64.6934L182.062 63.2664L182.65 62.2171V61.4197L183.237 60.1187L183.447 59.4052V58.5658L183.237 56.9709L183.279 56.4673L183.405 56.3414H183.531L184.202 56.0896L185.167 56.1315L185.46 56.0056L186.09 55.502L191.25 53.9071L192.172 53.7393L192.55 53.7812L192.928 53.8652L193.263 53.9071L193.725 53.9911Z" fill="#009649" stroke="white" stroke-width="2" stroke-linejoin="round"></path>
<path class="region" data-country-region="North Region" d="M230.39 103.347L231.061 103.683L231.397 103.767L231.858 103.725L232.277 103.767L232.487 103.851L232.613 103.935L232.697 104.313L232.781 104.522L233.075 104.858L233.2 104.9L233.326 104.858L233.41 104.816L233.62 104.564L233.872 104.438H234.123L234.375 104.564L234.543 104.858L234.795 105.068L234.878 105.278L235.424 105.53L235.466 105.698L235.34 105.991L235.172 106.495L235.424 106.411L236.305 105.614L236.556 105.488L236.85 105.446H237.27L237.563 105.362L237.521 105.152L237.186 104.858L237.018 104.732L236.85 104.774L236.892 104.564L237.479 104.271L238.36 104.606L239.829 105.614L240.08 105.698L240.374 105.781L240.584 105.949L240.793 106.075L241.003 106.033L241.213 105.949L241.381 105.907L241.549 105.949L241.8 106.201H241.968L242.136 106.075L242.388 105.739L242.513 105.614L242.723 105.488L243.059 105.404L243.269 105.236L243.436 105.11H243.688L244.066 105.152L244.905 105.739L245.114 105.781L245.282 105.823L245.366 105.907L245.324 106.201L245.408 106.411V106.663L245.45 106.873L245.618 107.041L245.744 107.208L245.869 107.418L246.037 107.838L246.205 108.216L246.415 108.551L246.583 108.593H246.667L246.918 108.384L247.002 108.342L247.254 108.258H247.715L248.135 108.3L248.345 108.342L248.512 108.426L248.722 108.677L248.89 108.845L249.142 109.013L249.519 109.139L249.729 109.223L250.065 109.559L250.484 109.643L250.652 109.685L250.778 109.853L250.694 110.104V110.23L250.778 110.398L251.029 110.482L251.281 110.44L251.617 110.314L251.743 110.272L252.036 110.314L252.204 110.356L252.833 110.776L253.127 111.154L253.253 111.489L253.337 111.909L253.505 112.161L253.63 112.245L253.672 112.371L253.63 112.623L253.672 112.706L254.302 113.42L254.637 113.63L254.763 113.756L254.805 113.84L254.721 114.049L254.679 114.217L254.763 114.427L254.931 114.553L256.231 116.232L256.441 116.4H256.693L256.861 116.316L256.986 116.148L257.112 116.106L257.364 116.022L257.616 116.064L257.742 115.938L257.783 115.854V115.518L257.867 115.309L257.951 115.225L258.119 115.099L258.497 115.015H258.832L259.252 115.141L258.329 115.602L258.245 115.812L258.287 115.938V116.106L258.203 116.4L258.161 116.568L258.245 116.694L258.329 116.736L259 116.945L259.084 117.029L259.168 117.197L259.252 117.449L259.336 117.995L259.294 118.246L259.252 118.414L259.168 118.498L258.077 119.086L257.783 119.296L257.574 119.59L257.532 119.883V120.009L257.658 120.219L257.909 120.597L257.993 120.807V121.1L257.909 121.94V122.276L257.993 122.485L258.245 122.737L258.287 123.031L258.245 123.157L258.035 123.535L257.7 124.416L257.574 124.71L257.364 125.046L257.238 125.213L257.196 125.507L257.238 126.347L257.196 126.515L257.154 126.64L256.986 126.766L256.735 127.186L256.525 127.732L256.399 128.025V128.235L256.441 128.487L256.651 128.781L257.07 129.117L257.196 129.285L257.322 129.494L257.406 129.872L257.28 130.544L257.154 130.837L256.609 131.215L256.357 131.509L256.189 131.803L255.98 132.348L255.854 132.558L255.686 132.726L255.476 132.768L254.344 132.852L254.092 132.894L253.882 133.02L253.756 133.104L252.456 134.783L252.162 135.076L251.826 135.286L251.323 135.454L251.071 135.58L250.82 135.748L250.148 136.587L249.142 136.755L248.806 136.923L248.722 136.965L248.303 137.427L248.093 137.72L248.009 137.93V138.056L248.135 138.35V138.686L248.051 138.938L247.925 139.021L247.715 139.105L247.506 139.189L247.17 139.315L246.96 139.357H246.667L246.205 139.231L246.079 139.189L245.072 139.399L243.73 139.903L243.436 140.281L243.059 140.616L242.975 140.784L242.891 140.952L242.933 141.414L242.891 141.624L242.807 141.833L242.304 142.295L242.136 142.589L242.052 143.009L241.632 144.058L241.507 144.31L241.213 144.142L240.877 144.016L240.248 143.89L240.122 143.764L239.535 142.715L239.241 142.463L238.402 142.421L238.193 142.127L238.025 141.204L237.941 140.784L237.731 140.407L237.479 140.071L237.102 139.819L236.85 139.861L235.717 140.616L235.34 140.7L232.613 140.868L232.236 141.036L231.858 141.456L231.313 142.337L230.935 142.673L230.558 142.841L230.096 142.883L229.677 142.841L229.257 142.673L227.957 142.799L227.789 142.757L227.579 143.009L227.327 143.344L226.782 144.142L226.74 144.268L225.859 145.191L225.146 146.156L225.062 146.366L225.02 146.66L224.852 146.702H224.349L224.097 146.576L223.929 146.366L223.72 146.156L223.342 146.114L223.048 146.282L222.881 146.576L222.755 146.912L222.587 147.248L222.083 147.457L219.86 147.332L219.986 147.709L219.776 147.877L219.483 147.961L219.315 148.171V148.633L219.189 148.884L219.147 149.178L218.979 149.136H218.895L218.56 149.682L218.308 149.976L218.056 150.06L217.763 150.143L217.846 150.353L218.098 150.605L218.266 150.815L218.14 150.857L217.846 150.983L217.721 150.815L217.595 150.983L217.679 151.528L217.259 152.326L216.127 153.711L215.791 153.879L215.581 154.005L215.455 154.173V154.424L215.581 154.928L215.623 155.18L215.413 155.348L214.448 155.642L214.113 155.851L214.071 156.061L214.029 156.565L213.987 156.775L213.777 157.027L213.609 157.11L213.442 157.194L213.274 157.32L213.232 157.488L213.4 157.74L213.484 157.908L213.442 158.202L213.358 158.328L213.232 158.453L212.435 159.335L212.225 159.671L212.141 160.09L212.015 160.174H211.554L211.47 160.258L211.428 160.51L211.344 160.72L211.176 160.93L211.05 161.056L210.421 161.433L210.002 161.643L209.456 161.727L209.121 161.937L208.911 162.021L208.366 162.063L207.82 162.273L207.694 162.357L207.065 163.028L206.981 163.07L206.813 163.028L206.73 162.776H206.52L206.394 162.86L206.268 163.238L206.142 163.406L205.932 163.112H205.765L205.597 163.322V163.7L205.345 164.245L205.513 164.329L205.765 164.581L206.058 164.707L206.31 164.917L206.855 165.798L207.023 166.134L209.163 171.254L209.54 171.716L210.463 172.513L210.757 172.933L211.009 174.024L211.176 174.318L211.386 174.696L211.596 174.78L211.806 174.738H212.267L212.561 174.822L212.728 174.948V175.199L212.435 175.493L212.015 176.542V177.172L212.477 178.389L212.435 178.767H212.645L212.351 178.851L212.099 178.977L212.351 179.438L212.519 179.9L212.728 179.732H212.896L213.064 179.816L213.19 180.026L212.896 180.446L212.477 180.488L212.057 180.446L211.638 180.572L211.596 180.991L211.973 181.243L212.267 181.495L211.848 181.747L211.68 181.705L211.176 181.453H211.05L210.883 181.663L210.967 181.873L211.134 181.999L211.386 182.04L211.47 182.166L211.386 182.418L211.092 182.754L210.925 182.838L210.673 182.88L210.253 182.838L210.211 182.796L210.044 182.586L209.876 182.502L209.792 182.67H209.708L209.372 182.712L209.205 182.796L208.953 183.048L208.156 183.006L207.862 183.048V183.216L207.988 183.426L207.946 183.593L207.569 183.887L207.233 183.845L206.855 183.719L206.436 183.593L205.513 183.761L205.303 183.887L205.429 184.139L205.849 184.559L205.974 184.978L205.807 185.062L205.052 185.02L204.632 185.146L204.296 185.44L204.087 185.818L204.254 186.237L204.045 186.447L203.793 186.531H203.248L202.912 186.615L202.66 186.951L202.451 187.035L202.115 186.867L201.863 186.573L201.57 186.279L201.024 186.237L200.898 186.363L200.479 186.657L200.311 186.741L199.975 186.699L199.85 186.741L199.724 186.783L199.514 186.993L199.346 187.035L199.136 186.993L198.885 186.825L198.633 186.867L198.214 187.077H198.046L198.214 186.867V186.741L197.878 186.573L197.458 186.531H196.577L196.242 186.447L195.403 185.986L195.193 185.776L195.109 185.608L195.025 185.02L194.732 184.643L194.564 184.433L194.438 184.391L191.921 184.852L191.292 184.81L191.04 184.475L190.914 184.013L190.579 183.845L190.201 183.761L189.823 183.593L189.614 183.342L189.446 183.048L189.194 182.796L188.691 182.67L188.565 182.88V183.3L188.481 183.635L187.936 183.593L187.264 183.342H187.013L185.88 183.677L185.586 183.803L184.999 184.349L184.622 184.517L184.034 184.055L183.741 183.971L183.489 184.097L183.321 184.307V184.559L183.405 184.936L183.153 185.23L182.734 185.692L181.475 186.615L180.888 186.951L180.51 187.119L179.965 187.035L179.713 186.951L179.336 186.699L179.21 186.657L178.707 186.573L178.539 186.447L178.455 186.195L178.413 185.65L178.287 185.44L177.658 185.356L176.525 185.482H176.231L175.476 185.566L174.763 185.104L174.092 184.475L173.421 184.055L172.498 184.097L172.036 184.013L171.827 183.677L171.701 183.258L171.407 182.964L170.61 182.502L169.981 182.04L168.932 180.739L167.212 179.187L167.128 179.019L167.086 178.767L167.044 178.263L166.96 178.137L166.121 177.76L165.954 177.55L165.744 177.382L165.618 177.172L165.324 176.584H165.115L164.947 176.542L164.695 176.417L164.569 176.291L162.639 172.22L162.178 171.464L161.591 171.338L161.297 171.296L160.668 171.17L160.374 171.044L160.122 170.877L159.955 170.625L159.871 170.289L159.829 169.785L159.703 169.408L159.493 169.24L158.696 169.114L158.109 168.736L157.228 167.603L157.06 167.519H156.85L156.431 167.561L156.305 167.435L156.221 167.015L156.137 166.931H155.508L155.256 166.764L154.879 166.47L153.998 165.295L153.83 164.959L153.662 164.119L153.536 163.868L153.704 163.574L155.046 160.762L159.661 150.899L161.758 146.366L163.94 141.582L163.982 141.33L163.898 141.204L163.646 141.078L163.436 140.7L163.269 140.071L163.353 138.686L163.73 137.511L164.066 136.965L164.275 136.461L164.695 134.908L164.779 134.447L164.737 134.195L164.569 134.027L164.401 133.775L164.317 133.523L164.443 133.23L164.905 132.936L165.408 132.39L165.786 131.803L165.995 131.341L166.583 129.746L166.625 129.41V128.697H166.667L166.834 128.403H167.044L167.254 128.487H167.422L167.673 128.235L167.967 127.858L168.345 127.144V126.976L168.303 126.85L168.261 126.682L168.806 125.759L168.89 125.633L169.1 125.507L169.31 125.465H169.771L169.855 125.423L170.065 125.088L170.442 124.836L170.736 124.5L171.03 124.08L171.155 123.786L171.071 123.451V123.283L171.323 123.157L171.617 122.653L171.827 122.485H172.036H172.246L172.498 122.443L172.75 122.36L172.875 122.276L174.302 121.016L174.595 120.807L175.812 120.471L176.022 120.219L176.148 120.177H176.273L176.441 120.303L176.567 120.345L176.777 120.303L177.112 120.093L177.322 119.967L177.532 119.673L177.7 119.59H177.909L178.119 119.673L178.497 119.883L178.832 120.009L178.958 119.967L179.126 119.883L179.378 119.548L179.881 119.128L181.937 117.953L182.356 117.911L182.524 118.037L182.776 118.33L183.069 118.624L183.237 118.75L183.405 118.834H183.531L183.95 118.792L184.202 118.834L185.544 119.086L185.712 119.17L185.838 119.254L185.964 119.799L186.048 120.177L186.132 120.639L186.216 120.849L186.342 120.933L186.467 120.974L186.677 121.016L186.929 120.933L187.097 120.807L187.181 120.597L187.139 120.387L186.929 120.009L186.887 119.757L186.929 119.548L187.39 118.666L187.81 118.079L189.572 116.4L189.698 116.358L189.991 116.316L190.075 116.274L190.243 116.064L190.285 115.938L190.243 115.56L190.369 115.015L190.704 114.553L191.166 114.259L191.711 114.175L191.837 114.217L192.173 114.469L192.257 114.343L192.424 113.924L192.634 113.756L192.886 113.714H193.431L193.809 113.84H195.738L195.822 113.798L195.78 113.63L195.613 113.504L195.445 113.42H195.235L194.732 113.294L194.606 112.958L194.732 112.539L194.983 112.119L195.151 112.035H195.277L195.319 110.776L194.941 110.314L194.27 109.727L193.851 109.097L194.228 108.593L195.361 108.258L195.697 108.006L196.2 107.376H196.41L196.913 107.544L197.165 107.292L197.207 107.041L197.123 106.705L197.165 106.369L197.291 106.117L197.836 105.53L198.088 105.32L198.381 105.194L198.675 105.278L199.053 105.446L199.22 105.614H199.346L199.43 105.362V105.194L199.556 104.9L199.64 104.774L200.185 104.271L200.521 104.019L200.982 103.893L201.192 103.725L201.276 103.641L201.57 103.893L201.737 103.977L201.863 103.809L202.115 103.557L202.534 103.305L202.618 103.347L203.248 103.935L203.709 104.229L203.625 102.802L203.709 102.466L204.003 102.256L204.254 102.508L204.632 103.221L205.303 103.557L206.142 103.683L208.072 103.641L208.408 103.515H208.575L208.785 103.557V103.767L208.659 104.187L208.827 104.354L209.247 104.187L210.002 103.599L210.841 102.634L211.302 102.214L211.848 102.13L212.099 102.256L212.728 102.844L212.98 102.928H213.232L214.448 102.592L214.658 102.466L215.246 101.543L215.329 101.333V100.871L215.413 100.451L215.665 100.199L215.833 100.158L216.085 100.074H216.504L216.378 99.6119L216.63 99.486H217.007L217.175 99.402L217.301 99.2761L217.553 99.528L217.763 99.9057L217.846 100.074H218.14L219.524 99.9057L219.608 99.9896L219.734 100.158L219.902 100.325L220.112 100.367L220.28 100.241V99.9477L220.364 99.7798L220.699 99.5699L221.161 99.444L222.042 99.3181L222.503 99.1922L222.797 98.8984L223.048 98.5627L223.3 98.2689L223.72 97.9751L223.971 97.9331L224.181 98.059L224.559 98.3948L224.684 98.6046L224.601 98.7305L224.391 98.9404L224.601 99.486L225.398 100.913L225.649 101.249L226.195 101.459L226.572 101.71L226.95 102.004L227.201 102.298L227.453 102.55L227.873 102.172H228.082L228.208 102.634L228.334 102.886L228.67 103.137L229.173 103.053L229.551 102.928L229.76 102.886L229.886 102.928L230.054 103.095L230.39 103.347Z" fill="#009649" stroke="white" stroke-width="2" stroke-linejoin="round"></path>
<path class="region" data-country-region="North Region" d="M299.86 39.6789L299.609 39.7628L299.441 39.8048L299.147 39.8468L298.895 39.8048L298.56 39.6789L298.35 39.7209L297.469 40.4763L297.427 40.6022L297.301 41.2738L297.217 41.3997L297.05 41.5256H296.882H296.672L296.294 41.4416L296.127 41.3157L296.043 41.1898L296.001 40.938L295.875 40.7701L295.749 40.7282H295.497L295.33 40.8541L295.162 41.0219L294.91 41.3997L294.868 41.4836L294.658 41.5256L294.491 41.4416L294.281 41.1898L294.197 41.1478L294.071 41.1898L293.777 41.3577L293.61 41.4416L293.358 41.3997L293.232 41.3577L292.938 41.1898L292.393 41.0219L291.974 40.896L291.848 40.938L291.68 41.1059L291.344 41.4836L291.218 41.6095L290.967 41.6935L290.505 41.6095L290.337 41.6515L290.128 41.8194L289.792 42.0712L289.582 42.1551L288.827 42.0292L288.534 42.1132L287.988 42.6168L290.799 42.7427L291.974 42.9525L292.477 43.708L292.015 44.6733L291.932 45.9324L290.673 49.1641L291.009 49.8356L290.463 50.8009H291.974L291.932 51.0107L292.057 51.0947L291.974 51.3885L292.015 51.7242L292.183 52.06L294.365 53.5289L294.7 54.0326L294.826 54.3264L294.742 54.5782L294.574 54.788L294.239 54.83H293.903L293.652 54.9559L293.484 55.2917L293.232 55.8792L292.687 56.0891L291.89 56.215L290.967 56.4668L290.295 56.9285L290.044 58.1456L290.086 58.6073L290.337 58.7751L290.589 58.8171L291.009 58.943L292.057 59.1948L292.267 59.5306V60.0762L292.309 60.4959L291.554 61.5871L291.344 61.5032L290.757 61.3773H289.456L289.331 61.4192L289.079 61.5871L288.953 61.6291L288.575 61.5871L288.324 61.6711L288.156 61.8809L288.114 62.0908L288.072 62.1747L287.485 62.3006L285.303 62.5105L285.345 61.3773L285.597 60.8317L286.268 60.4959L287.275 60.2861L287.443 59.8664L287.023 59.4886L286.646 58.6492L286.394 57.558L286.142 57.2642L285.765 56.9285L285.01 56.6767L284.884 56.215L285.178 55.9212L286.226 55.5854L286.562 55.0818L286.688 54.7461L286.604 54.5362L286.436 54.4523H286.226L285.807 54.4942L285.429 54.4523L285.094 54.2004L284.758 53.8227L284.213 52.5636L282.87 52.3538L282.535 51.7242L280.605 51.2626L279.976 50.9688L278.465 49.4579L278.088 50.2133L277.962 50.5491L277.878 51.4304L276.536 51.7662L276.242 51.6403L275.781 51.8921L275.655 52.3538L275.445 52.8994L275.109 53.2351L274.312 53.5289L273.347 53.0673L271.082 52.5217L270.285 52.7735L269.404 52.9413H268.649L268.313 53.445L268.104 53.5709L267.894 53.5289L267.432 53.2351L267.055 53.0673L266.719 53.1512L265.964 53.5289L265.922 55.2917L266.384 56.173L266.3 56.8865L266.006 57.558L265.041 58.1036L262.482 60.0762L260.385 61.8389V61.9648L260.007 62.5105L259.42 62.7623L259.336 63.182L259.504 63.4338L259.713 63.6436L260.175 64.2312L260.049 64.7768L259.672 64.9447L259.42 65.5323L257.826 66.0359L256.525 65.868L255.602 65.6162L255.099 65.1126L254.47 64.3571L254.134 64.0633L253.966 63.9794L253.798 63.9374L253.631 63.7695L253.295 63.3079L253.127 62.8462L252.12 61.797L251.953 61.755L251.827 61.797L251.407 62.0908L251.239 62.1327L251.156 62.0068L251.114 61.797L251.156 61.6711L251.407 61.4192L251.617 61.2933L251.701 60.9576V60.6218L251.659 60.2441L251.281 59.4047V59.2788L251.323 59.0689L251.533 58.8171L251.785 58.5653L251.869 58.5233L252.078 58.7332H252.288L252.456 58.6492L252.666 58.3974L252.708 58.2295V57.9358L252.582 57.3062L252.54 56.6767L251.156 57.2223L250.317 57.7679L248.806 58.1876L248.303 58.6492L248.009 59.027L247.925 59.4886L247.548 60.412L247.38 60.6218L245.702 61.4192L244.947 59.9923L244.821 59.9083L244.485 59.4047L243.898 59.3208L243.017 59.4047V60.6638L242.514 60.4539L240.962 60.5798L239.913 60.4539L239.493 60.4959L239.032 60.6218L238.612 60.8317L238.025 61.1674L236.389 61.9229L236.305 62.2586V62.6364L236.179 63.2659L235.844 63.6436L235.046 63.8955L234.543 64.0214L234.082 64.1892L233.704 64.3991L233.494 64.7768L232.739 65.1965L232.026 65.4483L231.774 65.6582L231.69 65.91L231.732 66.1618L231.942 66.5395L232.404 66.6655L233.201 66.5815L233.872 66.4136L234.291 66.2038L234.627 65.952L234.837 65.8261L236.557 65.2805L236.766 65.8261L236.934 65.9939L237.27 66.5395L237.647 66.7494L237.689 67.1691L237.522 67.3789L237.312 67.5049L236.683 67.7147L236.053 67.5888L235.046 67.6727L234.543 67.8826L234.207 68.3023L233.201 68.8059H232.068L231.858 68.5541L230.474 68.68L229.257 66.7074L228.964 66.5395L228.544 66.3297L227.915 66.4556L227.495 66.3717L227.244 66.1618L227.076 65.6582L226.824 65.3644L226.405 65.0706L226.321 64.6509L226.489 64.3571L226.908 64.1892L227.202 64.2312L227.579 64.4411L227.957 64.6509L228.209 64.7768L228.628 64.7348L228.88 64.525L229.006 64.1053L229.089 63.5177L228.796 63.098L228.209 62.7623L226.698 62.0488L225.985 61.8809L225.062 61.797L224.097 61.5451L223.678 61.5871L223.426 61.755L223.258 61.8809L223.174 61.9229H222.965L220.028 61.5871L219.734 61.6291L219.441 61.797L219.105 62.0068L218.308 61.2514L217.847 61.3353H217.427L217.008 61.5032L216.798 61.6291L216.756 61.797L216.714 62.3006L216.63 62.7203L215.917 63.8535L215.707 64.0633L215.539 64.1053L215.33 64.0633L215.246 63.9794L215.12 63.8115L214.994 63.2239L214.784 63.0561L213.903 63.182L212.435 63.14L210.925 62.0068L208.869 61.6711L208.618 61.4612L208.45 61.2094L208.198 60.5379L207.527 59.8664L206.856 59.4467L206.394 58.6492L206.142 56.4668L206.017 56.0891L205.765 55.9212L205.471 56.0051L205.262 56.215L205.052 56.7606L204.213 57.3482L201.989 58.3135L200.773 58.985L200.479 59.0689L200.018 58.985L199.64 58.9011L199.137 58.6492L198.507 58.2715L198.046 58.1456L194.69 57.8518L194.522 57.7679L194.396 57.2642L193.851 56.2989L193.725 55.7533V53.9906L194.984 52.6476L195.109 52.4377L195.697 50.8848L196.2 50.2553L196.704 49.7936L197.962 48.9962L199.179 47.7371L199.346 47.4433L199.724 47.1915L201.444 46.6459L201.864 46.3941L202.157 46.1422L202.367 45.7645L202.744 43.8759L202.786 42.9106L204.171 37.2447L204.255 36.6991L204.087 36.2374L204.674 35.2301L204.59 34.8524L204.674 34.4747L205.052 33.8031L205.387 32.9218L205.597 32.7539L205.765 32.8378L205.891 33.0897L206.059 33.3415H206.394L206.688 33.1316L206.646 32.8378L206.52 32.4601V32.0404L206.772 32.1663L206.814 31.9565L206.94 31.8306L207.317 31.5787H207.191L207.317 31.3269L207.527 31.159H207.737L207.988 31.285L208.072 31.0331L207.946 30.9072L207.779 30.7813L207.695 30.5295L207.779 30.3197H207.988L208.198 30.4036L208.366 30.5715L208.45 30.4456L208.618 30.2777L208.66 30.1518L208.785 30.3197L208.953 30.4036H209.121L209.331 30.2777L209.037 29.9L209.247 29.6481L209.96 29.3963L210.715 29.0186L211.051 28.7668L211.386 28.473L211.848 27.7175L212.141 27.5077L212.351 28.1792L212.519 28.0533L212.729 27.8015L212.771 27.6756L213.022 27.5497L213.316 27.4657L213.442 27.5077L213.316 27.8015L213.568 27.9693L213.778 27.8434L213.945 27.5916L214.113 27.3818L214.365 27.2559H215.162L215.623 27.13L216.001 26.8362L216.295 26.4584L216.378 25.9968L216.253 25.5351L216.462 25.3672L216.588 24.7796L216.966 24.4019L217.134 23.8143H217.343L217.637 23.9403L217.889 24.0242L218.14 23.9403L218.895 23.3107L219.441 23.8983L219.693 24.0242L219.986 23.8983L220.07 23.6884L220.364 22.849L220.574 22.7231L220.657 22.6812L220.532 22.4293L220.406 22.1775L220.322 22.0096L220.364 21.8418L220.574 21.8837L220.993 21.9257L221.329 21.7998L221.203 21.4221L221.916 21.2122L222.755 20.8765L223.426 20.4148L223.72 19.8272L223.552 18.9039V18.4422L223.804 18.2324L224.139 18.1484L224.559 18.0225L224.936 17.8127L225.188 17.6448L225.524 17.351L225.733 16.8893L225.817 16.4277L225.65 15.966L225.691 15.7562L226.069 15.5883L226.489 15.4624L226.782 15.3365L226.866 15.2105L226.992 14.8748L227.076 14.7489L227.202 14.6649L227.621 14.539L227.789 14.3711L227.957 14.1193V13.9515L227.873 13.7836L227.831 13.5318L227.873 13.238L227.999 13.0281L228.586 12.2727L228.754 12.1468L229.006 12.0628L229.467 12.0208L229.635 11.9369L230.348 11.0975L230.642 10.8457L231.355 10.426L232.11 10.2161L233.704 10.0902L234.963 10.426L235.256 10.3421L235.676 9.96432L236.011 9.92235L236.389 9.96432H236.934L237.605 9.75448L238.99 8.91508L239.871 8.66326L240.29 8.62129L240.668 8.49538L240.962 8.28553L241.045 7.86584L241.255 7.57205H241.717L242.556 7.65599L242.891 7.40417L243.353 6.56477L243.521 6.35493L243.604 6.10311L243.479 4.63417L243.94 4.04659L244.276 3.66886L244.611 3.45901L244.569 3.37507L244.989 2.82947L245.157 2.74553L247.506 2.61962L247.883 2.49371L248.177 2.19992L248.555 1.9481L249.058 1.86416L250.149 2.11598L250.694 2.15795L251.072 2.03204L251.197 2.11598L251.323 2.15795H251.617L252.036 1.9481L252.75 1.5284L253.127 1.44447L254.092 1.69628L254.595 1.73825L254.805 1.5284L254.973 1.19265L255.351 1.10871L255.98 1.15068L256.735 0.814919L257.113 0.772949L257.49 1.02477L257.7 0.940828L259 0.856889L259.42 0.982798L260.552 1.73825L261.224 1.86416L261.685 2.15795L262.398 2.19992L262.65 2.28386L263.195 2.61962L263.405 2.70356L263.825 2.7875L263.992 2.87144L264.37 3.29113L264.454 3.45901L265.041 3.54295L265.293 3.62689L265.88 4.04659L266.342 4.29841H266.677L267.558 4.21447H268.02L268.397 4.34038L268.691 4.50826L268.943 4.76008L269.572 5.22174L270.243 5.34765H270.956L271.753 5.22174L272.089 5.09583L272.844 4.76008L273.222 4.63417H273.599L274.858 4.76008H275.403L275.571 4.80205L275.864 5.01189L276.032 5.05386L276.326 4.96992L276.829 4.5922L277.207 4.46629L279.388 4.29841L280.018 4.04659L280.605 4.21447L281.738 4.34038L283.877 4.84402L284.548 5.1378L284.884 5.22174L285.219 5.1378L285.849 4.80205L286.142 4.76008L286.352 4.88598L286.73 5.38962L286.897 5.47356L287.023 5.51553L287.317 5.72538L287.485 5.80932L287.653 5.76735L287.946 5.64144H288.156L288.324 5.80932L288.785 6.48084L288.617 6.85856L290.463 12.6924L293.61 22.5133L293.735 23.1848L293.316 28.0113L293.442 28.8927L293.819 29.6481L295.665 31.6627L296.043 32.4601L296.798 35.1042L297.595 36.9928L297.889 37.4125L298.224 37.7483L299.483 38.7136L299.734 38.9654L299.818 39.3012L299.86 39.6789Z" fill="#009649" stroke="white" stroke-width="2" stroke-linejoin="round"></path>
<path class="region" data-country-region="South Region" d="M416.777 596.87L416.231 597.373L415.686 597.583L415.518 597.541L415.183 597.415L413.001 597.289L412.707 597.373L411.994 597.247L411.701 597.08L411.407 596.786L411.323 596.576L411.197 596.198L411.155 595.82L411.533 595.485L411.952 594.813L412.12 594.645L412.246 594.519L412.665 593.89L412.875 593.68L413.504 593.47L414.134 593.596L415.938 594.1L416.861 595.191L417.406 595.401L417.196 596.156L416.777 596.87ZM418.958 588.434L418.245 588.728L417.322 588.602L416.735 588.182L416.819 587.594L417.49 587.175L418.371 587.133L419 587.636L418.958 588.434ZM149.761 212.385L149.971 213.014L149.803 213.182L149.677 213.644L149.425 213.938L149.341 214.651L149.887 214.945L150.306 215.533L150.432 216.12L149.971 216.834L149.635 217.127L149.299 217.295L149.132 217.589V217.883L149.048 218.303L148.838 218.596V219.142L148.88 219.478L148.67 220.065L147.915 220.527L147.454 221.24L144.685 222.458L143.888 222.332L142.168 221.702L141.497 221.996L140.574 222.709L139.818 224.262L139.147 224.682L136.127 225.06L135.204 225.521L133.778 225.395L133.064 226.235L132.183 226.99L132.058 227.872V228.837L132.561 229.718L132.813 230.726L132.939 231.523L132.855 232.614L133.526 233.37L133.862 234.167L134.659 234.923L133.82 235.846L132.561 235.762L131.261 235.846L130.254 236.308L129.876 236.433H129.666L129.415 236.182L129.289 235.93L129.163 235.594L128.827 235.258L128.785 235.342L128.869 235.93V236.727L128.618 237.231L127.863 237.483L127.443 237.735L126.52 238.994L126.436 239.707L125.807 240.63L126.101 241.596L125.807 242.519L122.493 247.933L122.325 248.773L122.577 249.654L125.597 249.738L128.03 249.402L132.519 249.612L135.959 250.409L137.385 251.039L138.392 251.878L138.77 253.473L139.777 254.774L139.483 255.32L135.959 256.915L135.54 257.418L135.288 257.754L134.575 258.552L136.337 258.719L136.84 258.51L137.301 258.594L138.057 258.887L138.392 259.517L140.825 260.692L139.902 262.161V262.497V263.21H139.818L138.896 263.252L135.749 263.966L135.33 264.175L134.994 264.427L134.659 264.721L134.491 265.267L134.617 265.728L134.952 266.022L135.414 266.106V266.274L128.66 265.644L128.576 265.477L128.45 264.805L128.408 264.637L127.821 264.595L127.569 264.511L127.401 264.343L127.485 264.679L127.611 264.805L127.821 264.889L127.988 265.057L128.198 265.393V265.561L128.072 265.728L127.946 265.602L127.695 265.519L127.149 265.435L126.898 265.519L126.52 265.644H126.185L124.632 265.141L124.003 264.763L123.793 264.679L123.542 264.511L123.416 264.175L123.374 263.966V263.798L123.5 263.714H123.793L123.5 263.42L123.038 263.294L122.199 263.21L122.367 263.546L122.661 263.924L122.954 264.175L123.248 264.343L122.912 264.469L122.451 264.343L120.228 263.588L119.85 263.546H119.347L118.969 263.63L118.633 263.756L117.627 264.595L116.83 265.015L115.991 265.225L114.145 265.015L113.348 265.057L111.67 265.435L111.292 265.644L110.956 265.896L110.369 266.526L110.159 267.029L110.243 267.407L110.495 267.659L110.873 267.869L110.579 268.121L110.201 268.247L107.684 268.624L106.929 268.96L106.468 269.506L106.384 269.883L106.51 270.639L106.3 270.891L105.922 271.604L105.797 271.688L104.664 272.36L103.867 272.653L103.028 272.821L102.189 272.863L100.133 272.444L99.42 272.024L98.9586 271.898L98.5391 271.982L97.742 272.318L97.0708 272.444L96.903 272.569L96.7352 272.863L96.6094 272.989L95.3089 273.577L94.4699 273.703L93.6309 273.619L90.4426 272.402L89.6455 272.234L87.7578 272.066L86.8348 272.192L86.0378 272.569H86.2056L85.0729 272.863L84.7373 273.073L85.2407 273.157L85.7022 273.493L85.9539 273.996L85.7861 274.5L85.4085 274.626L81.9686 273.996L79.2418 274.374L78.4447 274.752L77.7735 275.297L76.6828 276.766L76.3472 277.102L75.9696 277.27L75.676 277.312L75.5501 277.48L75.4662 277.69L75.2565 277.9L75.0887 278.026L74.4594 278.235L74.1238 278.487L73.7882 278.823L73.4945 279.201L73.3687 279.62L73.1589 279.536L72.6975 279.662L71.9004 279.998L70.4741 281.089L69.9287 281.803L70.1804 282.474V282.6L69.8448 282.684L69.3414 283.02L69.0478 283.104L68.7122 283.062L68.4185 282.936L68.1249 282.768L66.9083 281.845L66.6146 281.551L66.279 281.383L63.1747 281.467L62.881 281.551L62.5454 281.887L62.2937 281.971L62.084 281.929L61.9581 281.761L61.7903 281.467L60.7835 280.879L59.3152 279.369L58.3084 278.781L58.0148 278.529L57.7211 278.151L57.3435 277.858L56.8821 277.816L56.4206 277.942L56.0431 278.235L55.8753 278.109H55.7075L55.5397 278.151L55.3719 278.235L55.4138 277.984L56.5884 276.389L56.6723 276.137L56.5884 275.465L56.2948 274.71L55.8753 274.038L55.4977 273.535L55.246 273.325L54.9943 273.241L53.6099 273.535L52.4353 273.451L52.1836 273.367L51.89 273.115L51.5544 272.444L51.2607 272.234V272.066L51.7222 271.982L51.9739 271.646L52.0997 271.142L52.3095 270.597L51.9739 270.807L51.5124 271.604L51.3027 271.772L49.8344 271.646L49.5827 271.688L48.9954 271.898L47.1076 272.192L46.6881 272.486L46.6042 272.653L46.4364 272.737L46.2266 272.695L46.0169 272.569L45.8491 272.276L45.891 272.024L46.0169 271.772L45.891 270.975V270.807L45.9749 270.513L46.1427 270.345L46.3105 270.135L46.4783 269.674L46.4364 269.338L46.1427 268.54V268.037L46.3105 267.827L46.5622 267.617L46.8139 267.239L46.0169 265.98L45.6813 265.77L44.5486 265.519L42.7028 265.309L40.8989 265.435L40.6472 265.561L40.4794 265.644L39.7662 265.938L39.4306 266.19L39.2628 266.358L39.095 266.61L38.8014 266.904L38.7175 267.071L38.6755 267.407L38.7175 267.659L38.8433 267.785L38.9692 267.869L39.095 268.037L39.3467 269.002L39.3887 269.464L39.2209 271.017L39.3048 271.478L39.6404 271.772L39.2628 271.856L38.8014 271.604L38.298 271.184L38.0043 270.807L37.5428 269.841L37.5009 269.59V269.422L37.5848 269.086L37.6267 268.918L37.5848 268.834L37.375 268.666L37.1653 268.079L36.9975 267.827L36.4521 267.617L36.2843 267.407L36.2424 267.071L36.2843 266.736L36.4102 266.568L36.6199 266.484L36.7458 266.4L36.8297 266.022V265.728L36.8716 265.477L36.9555 265.225L37.0814 264.973L36.7877 265.015L36.536 265.141L36.2843 264.721L36.2424 264.385L36.4102 264.05L36.7038 263.714L36.9555 263.252L37.1653 262.413L37.375 261.909L38.0043 261.405L38.7594 261.447L39.3887 261.322L39.6404 260.482L39.5565 260.02L39.1789 259.391L39.095 259.097L39.0531 258.635L38.5077 256.579L38.0043 255.53L37.9204 255.068L37.7106 254.984L36.8297 253.893L36.4941 253.683L36.3682 253.557L36.2843 253.347V252.382L36.2424 251.878L36.1165 251.501L35.6131 250.703L35.0678 250.074L32.9702 248.605L33.138 248.227L33.0541 247.765L32.5507 246.842L32.299 246.212L31.8376 245.583L31.7537 245.331L31.5859 245.037L30.7049 244.156L30.3693 243.988L29.9498 243.82L29.6981 243.442L29.4464 243.023L29.2366 242.687L29.74 242.435L30.0337 242.351L30.2434 242.435L30.3693 242.729L30.4951 242.981L30.621 243.191L30.8307 243.358L30.7468 243.61L30.9146 243.778L31.4181 244.198L31.7956 244.702L32.0473 244.995L32.299 245.079L32.5927 244.911L32.5088 244.66L32.0893 244.198L32.0054 244.03L31.9634 243.61L31.8795 243.484L31.7956 243.4H31.5859L31.502 243.358L31.0824 242.897L30.9146 242.687L30.8307 242.435L30.9146 241.428L30.8307 241.092L30.579 240.63L30.1176 240.421L29.5303 240.379L28.943 240.463L29.1527 240.84L29.2366 240.966L28.9849 241.008L28.8171 241.134L28.3976 241.428L28.1879 241.176L28.104 240.924L28.0201 240.547L27.9362 240.337L27.8103 240.127L27.7683 239.875L27.8942 239.539L27.8103 239.329L27.5586 238.658L27.4327 238.154V237.986L27.4747 237.777L27.6844 237.525L27.8103 237.231L27.6844 236.979L27.223 236.35L27.0552 236.224L27.0971 236.014L27.1391 235.972L27.4327 236.014L27.5586 235.846L27.8522 235.594L28.104 235.51L28.1459 235.3L28.2298 235.132V234.965V234.251L28.2718 233.957L28.5654 233.747L29.0269 233.538L29.4883 233.454H29.782L29.6142 233.622L29.8659 233.999L30.8307 234.923L31.6698 235.258L32.4249 235.048L33.0961 234.545L35.4453 232.153L35.8648 231.229L36.1585 230.432L36.6199 228.543L36.7038 227.62L36.6199 226.025L36.4941 225.647L36.2424 225.144L36.3682 224.766L36.8297 224.136L36.9136 223.213L36.1585 220.191L35.9487 217.715L35.6131 216.75L35.4873 216.246L35.5292 215.239L35.4873 214.735L35.2775 214.273L35.0258 213.98L34.8161 213.56L34.6902 213.266V213.056V212.888V212.637L34.2707 211.042L33.9351 210.286L33.4736 209.489L32.5927 208.314L32.4249 208.02L32.3829 207.81L31.502 206.509L30.579 205.544L30.4112 205.166L30.2854 204.746L29.9917 204.411L29.3625 203.823L28.6074 202.648L28.062 202.228L27.8522 201.641L27.6005 200.591L27.3908 200.298L26.5937 199.626L26.4259 199.416L26.3001 199.122L25.5869 197.905L26.6357 198.199L26.7615 195.807L27.7264 194.506L28.0201 192.869L29.1527 191.778L29.6142 190.183L30.1595 189.595L30.579 189.26L30.9566 189.218L31.2502 189.301L31.5859 189.427L31.9634 189.721L32.4668 189.973L33.18 190.309L34.019 189.973L34.9419 189.427L35.8648 188.042L36.6619 186.531L37.1653 184.769L37.7526 183.719L38.0882 183.006L39.137 183.636L39.4306 182.964L39.976 182.46L41.0247 182.376L42.4091 183.426L43.5837 184.097L44.4227 184.769L45.1359 185.65L45.6393 186.531L46.5203 187.455L48.4081 188.084L48.3661 190.812L47.7788 191.694L48.1983 193.037L47.7369 194.59L48.3661 198.829L48.7856 200.004L49.331 200.633L49.5407 200.969L49.4988 201.305L49.3729 202.018L49.7505 204.159V205.082L49.9183 205.628L50.4217 206.089L50.5056 206.635L50.7573 206.971L50.8832 207.516L50.7573 207.978V208.901L50.6314 209.447L50.9671 211.42L50.8832 212.469L50.4636 213.266L50.128 214.777L51.1349 214.819L51.4285 214.903L51.7222 215.071L51.89 215.197L52.1417 215.407L52.3514 215.449L52.6451 215.281L52.8968 215.239L53.1065 215.365L53.1904 215.407L53.4002 215.365L53.6938 215.239L54.3651 214.651L54.6168 214.525L54.7426 214.651L54.449 215.826L54.407 216.12L54.4909 216.288L55.0363 216.582L55.288 216.708L55.4558 217.002L55.7914 217.715L55.9172 217.925L56.085 218.009H56.4206L56.5045 218.051L56.7143 218.261L56.924 218.303L57.0918 218.177L57.3435 218.093L57.5533 218.135L57.7211 218.261L57.8889 218.47L58.0567 218.764L58.2665 218.974L58.5182 219.016H58.7279L58.8538 219.058L58.8957 219.226L58.8118 219.73V219.897L58.8538 220.149L58.8957 220.317L58.8118 220.653V220.821L58.9796 221.366L59.1894 222.542L59.1055 222.751L58.2665 223.633L57.847 224.346L58.0148 225.563L58.1406 226.109L58.2665 226.487L59.0635 227.956V228.501L58.7699 230.684L59.9864 231.901L61.0772 231.355L61.203 231.145L60.9933 230.852L60.7416 230.18L60.8255 229.467L61.203 228.543L61.4547 227.746L61.8323 227.41L62.2937 227.662L62.6713 227.578L63.3005 227.284L63.8039 226.571L64.7269 226.151L65.1883 225.815L66.4888 225.731L67.5795 225.437L69.3834 224.01L70.0126 223.171L70.558 222.835L71.7746 221.576L72.3199 221.492L72.6555 221.786L72.9072 222.332L73.2009 222.793V223.759L71.7326 225.689L71.1453 226.319L70.6419 226.697L70.6 227.788L70.8936 229.257L71.439 230.977L72.4038 233.034L72.6555 234.209L73.117 234.839L73.5785 235.258L74.0399 235.51L74.5014 235.804L75.0467 236.601L75.5501 237.105L75.9696 237.818L76.3891 238.028L77.2282 238.868L78.5706 238.616L79.6613 238.028L80.1647 238.112L80.8779 238.49L82.7656 238.406L84.3178 237.105L84.6954 235.93L84.8632 234.629L85.0729 233.747L85.87 232.824L87.2963 232.32L88.429 232.153L89.3099 231.901L90.8202 231.229L91.8689 229.047L92.2465 227.788L93.1274 227.41L93.4631 227.158L93.7987 226.78L94.4699 225.899L95.9381 225.395L96.7352 225.228L97.6162 224.556L98.7069 223.885L99.2942 222.751L100.259 222.29L100.846 222.164L101.685 222.332L102.44 222.08L103.196 222.29L103.867 222.542L105.125 222.793L106.3 222.5L107.433 221.702L107.936 220.863L109.069 219.52L109.53 219.394L109.95 218.554L109.614 217.631L109.488 217.421V217.169L109.656 216.246L109.614 215.533L109.698 215.155V214.777L109.866 214.483L110.034 214.022L110.789 213.854L113.096 208.146L113.641 207.348L117.291 209.237L118.004 209.825L118.927 210.79L119.766 212.091L121.528 212.679L122.703 213.392L124.045 213.476L124.926 213.854L126.352 213.938L127.233 214.232L127.946 214.609L128.156 215.449L128.198 215.658L128.785 216.666L130.967 214.693L131.344 214.232L131.806 213.392L133.148 211.503L134.407 210.79L135.246 209.909L137.679 209.951L138.182 209.825L138.979 209.489L139.693 209.405L141.035 209.573L142.713 210.538L143.175 210.958L143.384 211.378L143.342 211.881L144.265 212.637L144.978 212.217L145.608 211.755L146.195 210.958L146.824 210.706L147.37 210.79L148.209 212.007L149.761 212.385Z" fill="#009649" stroke="white" stroke-width="2" stroke-linejoin="round"></path>
<path class="region" data-country-region="South Region" d="M120.059 85.8878L121.485 85.9297L121.653 92.435L121.402 92.7288L121.276 93.1905V93.7361L121.36 94.2817V94.3237L121.527 95.4149L121.695 95.7507L121.905 95.8766L122.366 95.9185H122.618L122.912 95.8766H123.457L123.709 95.9185L124.044 95.9605L124.38 96.1284L124.59 96.3802L124.842 96.4641L125.471 96.5481L125.848 96.674L126.058 96.8838L126.31 97.2616L126.436 97.1776L126.729 97.1357L128.03 98.059L128.114 98.3948L127.946 99.1922V99.6119L128.03 100.367L127.946 100.829L127.652 101.291L127.526 101.71V102.004L128.198 104.229L128.743 105.068L128.869 105.236L128.785 105.404L128.533 105.53L127.652 105.907L127.401 106.243L127.275 106.831L127.233 107.502V107.964L127.317 108.509L127.526 109.181L127.778 109.475L128.072 109.727L129.037 109.852L129.834 110.566L131.554 112.539L131.973 112.79L132.351 112.874L133.316 112.958L133.819 113.084L134.238 113.294L135.329 114.217L135.539 114.301H135.707L136.168 114.343L136.588 114.679L136.714 114.931L136.797 115.141L136.839 115.434L138.559 115.644L139.147 115.812L139.944 116.316L140.741 116.694L141.58 116.987L142.041 116.945L142.503 116.484L142.713 116.148L142.754 116.064L143.048 115.938H143.468L144.139 116.022L144.516 115.98L144.81 115.812L144.894 115.602L144.852 115.351L144.516 115.141L144.474 114.889L144.558 114.553L144.81 114.301L145.188 114.217L145.775 114.343L146.446 114.385L146.572 114.175L146.446 113.672L146.404 113.336V112.832L146.572 112.497L146.656 112.329L146.74 112.077L147.159 112.581L147.663 113.378L147.621 115.644L147.537 116.022V116.358L147.621 116.778L147.747 118.037L148.292 119.044V120.387L148.795 121.604L154.836 120.219L154.962 120.597L155.13 121.058L155.256 122.569L155.172 123.073L155.004 123.409L154.375 124.038L154.165 124.458L153.955 124.962L154.081 125.423L154.333 125.675L154.794 125.759L155.088 125.969L155.633 126.682L155.675 127.144L155.549 127.354L155.424 127.69L155.466 128.025L157.018 129.368L157.521 128.865L157.731 128.529L157.857 128.067L158.025 127.899L158.822 127.186L158.947 126.766L158.989 126.347L158.947 125.801V125.633L158.989 125.088L159.325 124.668L159.535 124.206L159.661 124.08L159.996 123.954L160.122 123.828L160.248 123.661L160.374 123.367L160.416 123.157V122.821V122.569L160.542 122.066L160.583 121.814L160.542 121.268L160.416 121.058L160.122 120.891L160.08 120.807L159.954 120.387V120.135L159.996 119.967L160.164 119.548L160.206 119.422L160.08 118.918V118.54L160.122 118.288L160.248 118.079L160.458 117.953H160.751L161.297 118.079H161.381L161.632 118.372L161.842 119.044L162.052 119.506L162.094 119.883L162.262 120.135L162.765 120.303L165.827 120.261L166.205 120.303L166.457 120.387L166.624 120.471L166.876 120.765L163.31 125.129L162.975 125.171L165.072 129.326L165.198 129.368H165.366L165.66 129.201L166.079 128.781L166.247 128.739H166.457L166.624 128.697V129.41L166.582 129.746L165.995 131.341L165.785 131.803L165.408 132.39L164.904 132.936L164.443 133.23L164.317 133.523L164.401 133.775L164.569 134.027L164.737 134.195L164.779 134.447L164.695 134.908L164.275 136.461L164.065 136.965L163.73 137.511L163.352 138.686L163.268 140.071L163.436 140.7L163.646 141.078L163.898 141.204L163.981 141.33L163.94 141.582L161.758 146.366L159.661 150.899L155.046 160.762L153.704 163.574L153.536 163.868L153.662 164.119L153.829 164.959L153.997 165.295L154.878 166.47L155.256 166.763L155.507 166.931H156.137L156.221 167.015L156.305 167.435L156.43 167.561L156.85 167.519H157.06L157.227 167.603L158.108 168.736L158.696 169.114L159.493 169.24L159.703 169.408L159.828 169.785L159.87 170.289L159.954 170.625L160.122 170.877L160.374 171.044L160.667 171.17L161.297 171.296L161.59 171.338L162.178 171.464L162.639 172.22L164.569 176.291L164.695 176.417L164.946 176.542L165.114 176.584H165.324L165.618 177.172L165.743 177.382L165.953 177.55L166.121 177.76L166.96 178.137L167.044 178.263L167.086 178.767L167.128 179.019L167.212 179.187L168.932 180.739L169.98 182.04L170.61 182.502L171.407 182.964L171.7 183.258L171.826 183.677L172.036 184.013L172.497 184.097L173.42 184.055L174.092 184.475L174.763 185.104L175.476 185.566L175.77 188.798L176.147 189.259L176.525 189.847L176.399 190.35L175.937 190.938L175.895 191.4L176.063 191.987L176.231 192.869L176.105 193.414L175.56 194.254L175.686 195.051L175.434 195.555L175.14 195.974L175.056 196.52L174.595 197.234L173.924 198.031L173.756 199.164L173.211 199.542L170.568 198.954L167.589 200.381L166.037 200.717L165.743 200.843L164.653 201.64L163.898 202.018L163.394 202.564L162.639 202.774L161.8 203.235L160.458 203.445L157.773 203.529V203.991L157.479 205.124L157.102 205.711L156.892 206.97L156.64 210.454L153.41 210.79L151.606 211.461H150.431L149.928 211.671L149.76 212.385L148.208 212.007L147.369 210.79L146.824 210.706L146.194 210.958L145.607 211.755L144.978 212.217L144.265 212.636L143.342 211.881L143.384 211.377L143.174 210.958L142.713 210.538L141.034 209.573L139.692 209.405L138.979 209.489L138.182 209.824L137.678 209.95L135.245 209.908L134.406 210.79L133.148 211.503L131.805 213.392L131.344 214.231L130.966 214.693L128.785 216.666L128.198 215.658L128.156 215.448L127.946 214.609L127.233 214.231L126.352 213.937L124.925 213.854L124.044 213.476L122.702 213.392L121.527 212.678L119.766 212.091L118.927 210.79L118.004 209.824L117.29 209.237L113.641 207.348L113.095 208.146L110.788 213.854L110.033 214.021L109.865 214.483L109.697 214.777V215.155L109.613 215.532L109.655 216.246L109.488 217.169V217.421L109.613 217.631L109.949 218.554L109.53 219.394L109.068 219.519L107.935 220.863L107.432 221.702L106.299 222.499L105.125 222.793L103.866 222.541L103.195 222.289L102.44 222.08L101.685 222.331L100.846 222.164L100.258 222.289L99.2936 222.751L98.7063 223.884L97.6156 224.556L96.7346 225.227L95.9375 225.395L94.4693 225.899L93.7981 226.78L93.4625 227.158L93.1269 227.41L92.2459 227.788L91.8683 229.047L90.8196 231.229L89.3094 231.901L88.4284 232.152L87.2957 232.32L85.8694 232.824L85.0723 233.747L84.8626 234.629L84.6948 235.93L84.3172 237.105L82.7651 238.406L80.8773 238.49L80.1641 238.112L79.6607 238.028L78.57 238.616L77.2276 238.868L76.3886 238.028L75.969 237.818L75.5495 237.105L75.0461 236.601L74.5008 235.804L74.0393 235.51L73.5779 235.258L73.1164 234.838L72.6549 234.209L72.4032 233.034L71.4384 230.977L70.893 229.256L70.5994 227.788L70.6413 226.696L71.1447 226.319L71.732 225.689L73.2003 223.758V222.793L72.9066 222.331L72.6549 221.786L72.3193 221.492L71.774 221.576L70.5574 222.835L70.0121 223.171L69.3828 224.01L67.5789 225.437L66.4882 225.731L65.1877 225.815L64.7263 226.151L63.8034 226.57L63.3 227.284L62.6707 227.578L62.2931 227.662L61.8317 227.41L61.4541 227.746L61.2024 228.543L60.8249 229.466L60.741 230.18L60.9927 230.851L61.2024 231.145L61.0766 231.355L59.9858 231.901L58.7693 230.683L59.0629 228.501V227.955L58.2659 226.486L58.14 226.109L58.0142 225.563L57.8464 224.346L58.2659 223.632L59.1049 222.751L59.1888 222.541L58.979 221.366L58.8112 220.821V220.653L58.8951 220.317L58.8532 220.149L58.8112 219.897V219.729L58.8951 219.226L58.8532 219.058L58.7273 219.016H58.5176L58.2659 218.974L58.0561 218.764L57.8883 218.47L57.7205 218.26L57.5527 218.134L57.343 218.092L57.0913 218.176L56.9234 218.302L56.7137 218.26L56.5039 218.051L56.42 218.009H56.0844L55.9166 217.925L55.7908 217.715L55.4552 217.001L55.2874 216.707L55.0357 216.582L54.4903 216.288L54.4064 216.12L54.4484 215.826L54.742 214.651L54.6162 214.525L54.3645 214.651L53.6933 215.239L53.3996 215.364L53.1898 215.406L53.1059 215.364L52.8962 215.239L52.6445 215.281L52.3508 215.448L52.1411 215.406L51.8894 215.197L51.7216 215.071L51.4279 214.903L51.1343 214.819L50.1274 214.777L50.4631 213.266L50.8826 212.469L50.9665 211.419L50.6309 209.447L50.7567 208.901V207.978L50.8826 207.516L50.7567 206.97L50.505 206.635L50.4211 206.089L49.9177 205.627L49.7499 205.082V204.159L49.3723 202.018L49.4982 201.305L49.5401 200.969L49.3304 200.633L48.785 200.004L48.3655 198.828L47.7363 194.589L48.1977 193.037L47.7782 191.694L48.3655 190.812L48.4075 188.084L46.5197 187.455L45.6387 186.531L45.1353 185.65L44.4222 184.768L43.5831 184.097L42.4085 183.425L41.0242 182.376L39.9754 182.46L39.43 182.964L39.1364 183.635L38.0876 183.006L37.752 183.719L37.1647 184.768L36.6613 186.531L35.8642 188.042L34.9413 189.427L34.0184 189.973L33.1794 190.309L32.4662 189.973L31.9628 189.721L31.5853 189.427L31.2497 189.301L30.956 189.217L30.5784 189.259L30.1589 189.595L29.6136 190.183L29.1521 191.777L28.0195 192.869L27.7258 194.505L26.7609 195.807L26.6351 198.199L25.5863 197.905L25.2507 197.359L25.1668 197.275L24.9571 196.73L24.8732 196.604L24.6215 196.184L24.2019 195.177L24.0341 194.799L22.6498 192.869L21.601 190.686L21.4752 190.35L21.3074 189.511L21.0976 188.756L19.923 187.161L19.4196 186.154L19.5035 185.314L19.0001 184.768L17.9094 182.754L17.7415 182.208L17.4059 181.789L16.1474 179.606L16.0635 179.354L15.9796 178.767L15.8118 178.053L15.7279 177.885L15.686 177.256L14.6792 175.451L14.4274 174.738L14.3435 173.856L13.8821 172.052L12.6655 169.156L12.5397 168.4L12.4977 168.274L12.3299 168.023L12.288 167.771L12.246 167.519L11.7426 165.672H11.8685L11.7846 165.42V164.791L11.7426 164.497L11.2811 163.196V162.944L11.0294 162.734L10.8616 162.273L10.8197 161.391L10.2324 159.796L10.0646 159.545L9.35142 157.362L9.26752 157.194L8.88996 156.775L8.76411 156.481L8.42851 156.019L8.009 154.676L7.88315 154.466L7.67339 154.256L7.58949 154.089L7.63144 153.543L7.54754 153.333L7.37974 152.997L7.21194 152.494L7.12804 151.99L7.21194 151.612L6.91828 151.109L5.70171 150.018L5.49196 149.724L5.19831 148.842L5.07245 148.549L4.19149 147.331L2.84907 146.198L2.63932 145.695L2.47151 144.939L2.34566 144.142L2.42956 143.68L2.17786 143.135L2.13591 142.967L2.05201 142.841L1.7164 142.799L1.59055 142.757L1.17104 141.833L0.87739 141.582L0.373982 141.036L0.332031 140.91L0.541784 140.784L0.667636 140.448L0.709587 140.071L0.667636 139.861L1.00324 139.693L1.5486 139.357L2.05201 139.063L2.80712 138.812L4.27539 137.343L4.48514 137.259L4.65295 137.385L4.73685 137.636L4.82075 137.93L4.90465 138.14L5.19831 138.182L5.57586 137.846L5.95342 137.343L6.16317 136.965L6.20512 136.587L6.24707 136.084L6.33097 135.664L6.62463 135.454L6.83438 135.286L6.70853 134.866L6.28902 134.237L6.12122 133.901L6.07927 133.44L6.16317 133.062L6.49878 132.894L6.66658 132.978L6.87633 133.104L7.04413 133.188L7.25389 133.02V132.768L7.16999 132.474L7.00218 132.264L6.96023 132.096L7.04413 131.887L7.12804 131.803L7.54754 131.845L7.8412 131.761V131.593L7.50559 131.173L7.46364 131.047L7.50559 130.921L7.58949 130.795L7.7573 130.921L8.0929 130.879L8.2607 131.005L8.42851 130.753L8.55436 129.033L8.63826 128.949L8.97386 128.571L9.09972 128.487L9.22557 128.529L9.43532 128.739L9.64508 128.781L9.85483 128.697L10.1485 128.403L10.3582 128.361L10.9036 128.487L11.5329 127.983L11.7426 127.858L12.1202 127.774H12.3299L12.5397 127.858L12.8333 128.193L13.0431 128.655L13.2948 129.075L13.6723 129.243L14.1757 129.368L14.3435 129.788V130.25L14.3016 130.753L14.3855 131.803L14.805 132.306L15.4343 132.432L16.6508 132.138L17.1542 132.096L17.364 132.222L17.4479 132.474L17.4898 132.726L17.5737 132.936L17.7415 133.23L17.7835 133.44L17.8255 133.691L17.9094 133.943L18.0352 134.195L18.3289 134.615L18.4547 134.866L18.4967 135.328L18.4128 135.916L18.2869 136.461L17.9513 136.671L17.6157 136.755L17.2801 136.965L17.0284 137.259L16.9445 137.595L17.1123 138.014L17.6576 138.686L17.7415 139.189L17.9094 139.567L18.6225 139.819L18.8323 140.323L18.7064 141.204L18.4547 142.127L18.4967 142.799L19.2518 142.883L20.0908 142.673L20.8878 142.589L21.3074 142.505L21.6849 142.337L21.9786 142.253L22.2722 142.463L22.3981 142.925V143.47L22.482 143.932L22.9015 144.1L23.5307 144.31L23.7824 144.268L23.9502 144.184L24.3278 143.932L24.5376 143.806L25.1668 143.764L28.439 144.478L29.1521 144.813L29.7814 145.233L30.956 146.198L31.7111 146.618L33.3472 147.164H33.7247L34.396 146.954L36.1159 146.702H36.5774L37.3745 147.038L37.8359 147.122L38.2135 146.954L38.3813 146.87L38.591 146.786L38.9686 146.702L39.2622 146.576H39.3461L39.43 146.618L39.6817 146.828L39.7656 146.87L40.1851 146.744L40.8983 146.366L44.6319 145.779L48.7011 146.408L49.0367 146.702L49.4982 147.499L49.7079 147.709L49.8338 147.751L50.547 147.835L50.7567 147.919L50.8406 148.003L51.1762 148.465L51.9313 148.423L52.7284 148.129L53.8191 147.541L53.9869 147.373L54.1967 147.038L54.3225 146.954L54.9518 146.912L55.2035 146.744V146.492L54.4903 145.233L54.3645 144.729L54.4064 144.268L54.742 143.638L54.9937 143.344L55.2454 143.135L55.4971 143.093L55.9586 143.47L56.1683 143.512L56.462 143.386L58.0561 142.967L58.4337 142.799L58.7693 142.505L58.979 142.211L59.5244 140.406L59.6502 140.239L59.9858 140.071L60.1537 139.651L60.2376 139.483L60.4054 139.273L60.6571 138.938L60.8668 138.812L61.0346 138.77L62.9643 138.602L63.3 138.434L63.7195 138.14L64.139 137.972L65.0619 137.888L65.6492 137.72L66.5302 136.923L67.0336 136.629H67.2433L67.8726 136.713L68.0823 136.671L68.6696 136.545L68.7116 135.874V131.257V128.781V120.135V118.918V111.531V109.055V102.927V101.71V96.8419V94.3657V88.28V87.0629V82.1944V79.7602V71.2823V70.0652V62.8464V60.4121V56.8027L68.9213 57.0546L69.2569 57.3064L69.6345 57.894L70.6413 58.6914L71.1447 59.2789L71.3545 59.4468L71.5642 59.4888L71.9418 59.5308L72.1515 59.5727L73.6198 60.4961L76.1368 62.5946L76.3466 62.8464L76.9759 64.1894L77.4793 65.0288L77.689 65.4905V65.7843L77.5212 66.162L77.689 66.4558L78.0666 66.6656L78.4022 66.8335L78.4441 67.3791L78.4861 67.547L78.6119 67.6729L78.9895 67.8408L79.1153 67.9667L79.1573 68.1765L78.9895 68.4284V68.5962L79.0734 68.7221L79.2831 69.0159L79.367 69.1838L79.4929 69.8553L79.6188 70.1071L79.9124 70.317L80.4997 70.5688L80.5836 70.7787L80.6675 71.1984L80.9612 71.1564V71.3243L80.8353 71.5761V71.8279L81.0451 71.9118L81.2129 71.8279L81.3807 71.702H81.5904L81.8421 71.9538L81.2548 72.2896L81.129 72.6673L81.087 73.2549L81.968 74.0523L82.1358 74.5979L82.0099 74.8078L81.5904 75.0596L81.4646 75.2275L81.5065 75.4793L81.7163 75.5632H81.968L82.0938 75.6891L82.1358 75.9409L81.968 76.4026V76.6544L82.0938 76.8643L82.5972 77.1161L82.807 77.284L83.0168 77.6617L83.3943 79.0887L83.1846 79.5084V79.7182L83.4363 79.6343L83.646 79.5084L83.7719 79.5503L83.9816 79.8022V79.8441L84.485 81.1452L84.6528 83.0338L84.6109 84.5867L84.6948 85.0064L85.4079 86.3075L85.366 86.6432L84.527 87.8184L84.1494 88.6578L83.7299 89.4552L82.5972 90.8822L82.0099 91.9734L81.7582 92.3091L81.1709 92.7288L81.087 93.0226L80.8353 94.1558L80.7514 94.7854L80.8353 95.3729L80.9612 95.6248L81.2548 96.0864L81.3387 96.3802V96.8838L80.9192 98.3528V99.0243L81.0031 99.8217L81.2129 100.619L81.4646 101.207L81.7163 101.501L82.0099 101.71L82.1777 101.962L82.3875 102.634L82.5133 102.844L82.5553 102.802L82.9748 102.508L84.2333 101.92L85.1143 101.249L85.6177 100.997L86.7084 100.871L87.5474 101.207L88.3445 101.71L90.9035 102.298L91.4908 102.256L93.2108 101.752H93.4625L94.0078 101.836H94.3015L95.9375 101.375L96.8185 101.333L97.28 101.417L98.2029 101.878L99.8809 101.92L101.056 102.214H101.433L101.895 102.046L102.985 101.291L103.363 100.955L103.573 100.577L103.656 100.157L103.615 99.7378L103.447 98.7725L103.489 98.4367L103.698 98.1849L104.244 98.017L104.831 97.8911H106.719L107.977 97.5973L109.11 96.8838L110.075 95.8766L110.83 94.7434L111.459 93.0226L111.837 92.2252L112.592 91.4278L112.802 90.9661L112.97 90.8402L113.892 90.6723L114.186 90.5884L114.648 90.3366L115.654 89.3713L116.326 88.364L116.745 88.0282L117.374 87.9023L118.255 88.0702L118.591 87.9443L118.968 87.3987L119.262 86.6432L119.514 86.3494L119.891 86.0556L120.059 85.8878Z" fill="#009649" stroke="white" stroke-width="2" stroke-linejoin="round"></path>
<path class="region" data-country-region="South Region" d="M257.909 173.521L259.336 173.689H259.629L260.259 173.479L260.594 173.731L260.72 173.941L260.93 174.822L261.14 175.116L261.349 175.284L261.685 175.41L261.853 175.578L262.146 176.081L262.314 176.291L262.734 176.711L262.818 176.837L262.692 176.921L262.44 176.837L262.23 176.921L262.104 177.131L262.188 177.215L262.692 177.76L262.776 177.802L263.111 177.844L263.237 177.928L263.489 178.096L263.573 178.264L263.657 178.39V178.684L263.824 178.851L264.076 179.019L264.16 178.977L264.286 178.809L264.37 178.725H264.496L264.789 178.767L264.831 178.977L264.663 179.145L264.622 179.397L264.663 179.649L264.873 179.859L265.209 180.069L265.544 180.362L265.67 180.53L265.796 180.656L265.838 180.908V181.118L265.67 181.16L265.502 181.034L265.335 180.992L265.167 181.16L265.083 181.37L264.999 181.454H264.789L264.58 181.412H264.496L264.454 181.537V181.663L264.538 181.915V182.209L264.496 182.419L264.16 182.461L264.118 182.755L264.034 183.09L263.95 183.72L263.783 184.098L263.573 184.307L263.237 184.559L263.069 184.601L262.818 184.559L262.146 184.098L261.601 184.014L261.182 183.846L260.594 183.384L260.091 183.09L259.42 182.964L258.832 183.048L257.951 183.342H257.49L256.525 183.09L255.644 180.656L254.847 179.691L254.344 178.012L254.302 177.508L254.05 176.879L253.672 176.417L252.875 175.746L252.833 174.948L252.917 174.277L253.63 173.311L253.714 172.934L253.505 172.64L253.421 172.262L253.798 171.8L253.966 171.675L254.721 172.304H255.015L255.518 172.472L256.987 173.269L257.909 173.521ZM267.516 196.143L266.09 198.032L265.544 198.409L264.915 199.794L263.908 201.011L261.056 203.739L260.72 203.907L259.504 204.285L259.084 204.495L258.665 204.789L258.539 205.166L257.322 206.677L256.903 206.845L256.735 206.971L256.609 207.433L256.441 207.601L256.315 207.727L256.189 207.769L255.77 207.894L255.434 208.188L254.805 208.86L254.469 209.07L253.714 209.321L253.211 209.699L252.875 209.741L252.54 209.825L252.33 209.783L252.246 209.825L252.12 209.951L252.246 210.287L251.869 211.126L251.281 211.462L251.197 211.63L251.113 212.175L250.904 212.469L250.274 212.931L249.645 213.644L249.31 214.064L249.184 214.442L249.142 214.652L248.806 215.281L248.512 215.449L248.387 215.911L247.128 216.54L246.918 216.792L246.834 217.17L246.667 217.589L246.121 218.429L243.73 221.031L241.716 223.801L240.668 224.473L240.5 224.682L237.899 227.117L237.438 227.788L237.27 227.956L236.976 228.082L236.808 228.25L236.053 229.005L235.718 229.467L235.592 229.887L235.466 230.18L233.284 231.859L232.781 232.153L232.152 232.699L231.858 232.866L231.774 233.202L231.313 233.58L230.39 234.084L229.467 234.755L228.88 235.091L227.789 235.427L227.327 235.888L226.95 236.518L226.782 237.189L226.614 237.693L226.195 238.197L224.181 239.875L223.594 240.085L223.426 240.253L223.174 240.631L222.923 240.799L222.839 241.135L222.755 241.26L221.832 241.68L221.454 242.1L221.245 242.226L220.867 242.268L219.902 242.645L219.567 242.855L217.847 244.702L217.175 245.248L215.791 245.793L215.581 245.961L215.497 246.003L215.036 246.675L214.742 246.8H214.574L214.365 246.675L214.239 247.262L213.777 247.766L212.729 248.647L212.225 248.941H212.141L211.973 248.773L211.89 248.857L211.806 249.109L209.75 250.536L209.582 250.788L208.114 251.501L207.778 251.711L207.653 251.879L207.527 252.215L207.443 252.424L207.275 252.55L207.107 252.634L206.688 252.676L205.01 253.6L204.632 253.683L204.171 253.725L203.751 253.851L202.66 254.817L202.241 254.943L201.318 255.068L200.647 255.446L198.801 256.244L198.549 256.286L198.423 256.411L198.298 256.831L198.172 256.915L197.752 256.999L195.864 257.922L195.109 258.132L194.312 258.174L192.634 257.964H192.131L191.753 258.132L191.418 258.216L190.956 258.006L190.243 257.587L187.642 257.041L184.957 256.915L183.279 257.167L181.685 257.671L180.217 258.384L179.588 258.888L179.084 259.517L178.707 260.273L178.413 261.616L178.329 262.161L178.413 262.413L178.832 262.581L178.916 262.791L179 262.959L179.546 263.378L179.923 263.966L180.091 264.176L180.049 264.344L179.965 264.512L179.336 264.302L178.916 264.428L178.539 264.68L178.035 264.805L177.406 264.763L176.399 264.428L175.812 264.344L174.847 264.47H174.386L173.84 264.134L173.169 264.008L172.498 263.546L171.785 263.253L170.107 262.791L168.345 262.749L166.583 263.001L165.45 263.336L164.989 263.588L164.695 263.966L164.947 264.931L164.737 265.393L164.401 265.771L164.192 265.939L163.269 266.82L163.143 267.156L163.227 267.45L163.395 267.575L163.604 267.701L163.688 267.869L163.604 268.079L163.269 268.331L163.143 268.541H163.017L162.765 268.163L162.346 268.037L161.045 267.995L159.955 267.701L159.493 267.659L158.277 267.869L157.899 267.827L156.221 267.408L155.382 266.946L154.711 266.316L154.333 266.19L151.942 265.897L151.607 265.729L151.355 265.519L150.096 264.973L146.614 264.638L146.195 264.554L145.356 264.218L143.258 264.008L139.902 263.211V262.497V262.161L140.825 260.692L138.392 259.517L138.056 258.888L137.301 258.594L136.84 258.51L136.336 258.72L134.575 258.552L135.288 257.755L135.539 257.419L135.959 256.915L139.483 255.32L139.776 254.775L138.77 253.474L138.392 251.879L137.385 251.039L135.959 250.41L132.519 249.612L128.03 249.403L125.597 249.738L122.577 249.654L122.325 248.773L122.493 247.934L125.807 242.52L126.101 241.596L125.807 240.631L126.436 239.708L126.52 238.994L127.443 237.735L127.862 237.483L128.618 237.231L128.869 236.728V235.93L128.785 235.343L128.827 235.259L129.163 235.595L129.289 235.93L129.415 236.182L129.666 236.434H129.876L130.254 236.308L131.26 235.846L132.561 235.762L133.819 235.846L134.658 234.923L133.861 234.168L133.526 233.37L132.855 232.615L132.938 231.523L132.813 230.726L132.561 229.719L132.058 228.837V227.872L132.183 226.991L133.064 226.235L133.777 225.396L135.204 225.522L136.127 225.06L139.147 224.682L139.818 224.263L140.573 222.71L141.496 221.996L142.168 221.703L143.888 222.332L144.685 222.458L147.453 221.241L147.915 220.527L148.67 220.066L148.88 219.478L148.838 219.142V218.597L149.048 218.303L149.131 217.883V217.589L149.299 217.296L149.635 217.128L149.97 216.834L150.432 216.121L150.306 215.533L149.887 214.945L149.341 214.652L149.425 213.938L149.677 213.644L149.803 213.183L149.97 213.015L149.761 212.385L149.928 211.672L150.432 211.462H151.607L153.41 210.79L156.641 210.455L156.892 206.971L157.102 205.712L157.48 205.124L157.773 203.991V203.53L160.458 203.446L161.801 203.236L162.64 202.774L163.395 202.564L163.898 202.019L164.653 201.641L165.744 200.844L166.038 200.718L167.59 200.382L170.568 198.955L173.211 199.542L173.756 199.165L173.924 198.032L174.595 197.234L175.057 196.521L175.141 195.975L175.434 195.555L175.686 195.052L175.56 194.254L176.106 193.415L176.232 192.869L176.064 191.988L175.896 191.4L175.938 190.939L176.399 190.351L176.525 189.847L176.148 189.26L175.77 188.798L175.476 185.567L176.232 185.483H176.525L177.658 185.357L178.287 185.441L178.413 185.651L178.455 186.196L178.539 186.448L178.707 186.574L179.21 186.658L179.336 186.7L179.713 186.952L179.965 187.035L180.51 187.119L180.888 186.952L181.475 186.616L182.734 185.692L183.153 185.231L183.405 184.937L183.321 184.559V184.307L183.489 184.098L183.741 183.972L184.034 184.056L184.622 184.517L184.999 184.349L185.587 183.804L185.88 183.678L187.013 183.342H187.265L187.936 183.594L188.481 183.636L188.565 183.3V182.88L188.691 182.671L189.194 182.797L189.446 183.048L189.614 183.342L189.824 183.594L190.201 183.762L190.579 183.846L190.914 184.014L191.04 184.475L191.292 184.811L191.921 184.853L194.438 184.391L194.564 184.433L194.732 184.643L195.025 185.021L195.109 185.609L195.193 185.776L195.403 185.986L196.242 186.448L196.578 186.532H197.459L197.878 186.574L198.214 186.742V186.868L198.046 187.077H198.214L198.633 186.868L198.885 186.826L199.137 186.994L199.346 187.035L199.514 186.994L199.724 186.784L199.85 186.742L199.976 186.7L200.311 186.742L200.479 186.658L200.899 186.364L201.024 186.238L201.57 186.28L201.863 186.574L202.115 186.868L202.451 187.035L202.66 186.952L202.912 186.616L203.248 186.532H203.793L204.045 186.448L204.255 186.238L204.087 185.818L204.297 185.441L204.632 185.147L205.052 185.021L205.807 185.063L205.975 184.979L205.849 184.559L205.429 184.14L205.303 183.888L205.513 183.762L206.436 183.594L206.855 183.72L207.233 183.846L207.569 183.888L207.946 183.594L207.988 183.426L207.862 183.216V183.048L208.156 183.006L208.953 183.048L209.205 182.797L209.373 182.713L209.708 182.671H209.792L209.876 182.503L210.044 182.587L210.212 182.797L210.253 182.839L210.673 182.88L210.925 182.839L211.093 182.755L211.386 182.419L211.47 182.167L211.386 182.041L211.134 181.999L210.967 181.873L210.883 181.663L211.051 181.454H211.176L211.68 181.705L211.848 181.747L212.267 181.495L211.973 181.244L211.596 180.992L211.638 180.572L212.057 180.446L212.477 180.488L212.896 180.446L213.19 180.027L213.064 179.817L212.896 179.733H212.729L212.519 179.901L212.351 179.439L212.099 178.977L212.351 178.851L212.645 178.767L213.064 178.893L213.232 178.935L213.4 178.893L213.777 178.725H214.113L214.239 178.893L214.407 179.439L214.616 179.775L214.91 180.027L215.623 180.362L215.749 180.824L216.252 181.328L216.714 181.999L216.798 182.209L216.84 182.629L216.966 182.797L218.14 183.72L219.189 184.937L219.776 185.315L220.448 185.525L221.287 185.609L221.454 185.567L221.832 185.399L222 185.357L222.251 185.441L222.545 185.734L222.755 185.902L223.132 186.07L223.552 186.196L225.859 186.406L226.321 186.616V186.196L226.279 185.818L226.237 185.441L226.363 184.979L226.488 184.769L226.824 184.559L226.95 184.433L227.118 184.224L227.202 184.098L227.537 183.048V182.839L227.495 182.629L227.244 182.251L227.202 182.041L227.369 181.789L229.005 180.488L229.299 180.194L229.425 179.691L229.383 179.187L229.131 178.977L228.838 178.851L228.628 178.516L228.67 178.096L228.963 177.76L229.383 177.508L229.761 177.382L230.306 177.299L230.516 177.215L230.642 177.089L230.893 176.711L231.061 176.585L231.355 176.291L231.858 175.326L232.236 174.99L232.697 174.906L233.662 175.074L234.123 174.906L234.962 174.361L235.298 174.319H235.634L236.557 174.696H237.228L238.99 174.025L240.248 173.773L241.507 173.227L243.772 171.759L244.527 171.255L244.695 171.507L245.66 172.766L246.499 173.521L246.583 173.689L246.625 173.899L246.583 174.235L246.457 174.487L246.037 174.822L245.995 174.948L245.702 175.41L245.618 175.494H245.492L245.114 175.41L244.905 175.452L244.653 175.662L244.443 175.788L244.192 175.872L244.024 176.039V176.207L244.192 176.543V176.711L244.024 176.837L243.73 177.005L243.478 177.299L243.227 177.676L243.101 177.802L242.975 177.844L242.723 177.76L242.555 177.802L242.388 178.012L242.01 178.642L241.8 178.893L241.633 179.019H241.507L240.206 178.432L240.038 178.474L239.535 179.691L239.451 179.943L239.409 180.152L239.493 180.278L239.829 180.866V181.034L239.787 181.286L239.577 182.083V182.293L239.745 182.755L239.913 183.006L239.996 183.048L240.29 183.132H240.668L240.794 183.216L241.255 183.972L241.423 184.224L241.633 184.349L243.478 184.769L243.604 184.727L243.688 184.685L243.814 184.475L243.856 184.182L243.898 183.51L243.94 183.216L244.108 183.09L244.192 183.048L244.359 183.09L245.618 183.72L245.744 183.804L245.828 183.972L245.912 184.307L245.87 184.685L245.912 184.895L246.079 185.021L246.247 185.105L249.31 185.944L249.981 186.364L250.484 186.532L250.736 186.574L250.862 186.532L251.03 186.406L251.155 186.238L251.365 186.112H252.246H252.372L252.582 186.028L252.959 185.776L253.169 185.692H253.379L253.505 185.734L254.889 186.742L255.518 186.952L255.98 187.287L256.147 187.371H256.441L257.112 187.203L257.406 187.329L257.616 187.455L257.909 187.497L258.371 187.749L258.665 187.833L258.916 188.001L259 187.959L259.168 187.791L259.336 187.749H259.713L259.839 187.833L259.923 187.959L259.965 188.085L260.259 188.337L260.93 188.756L261.391 189.176L261.769 189.386L261.979 189.428H262.146L262.23 189.386L262.524 189.302L262.608 189.47V189.596L262.692 189.889L262.902 190.015L262.985 190.141L263.111 190.393L263.195 190.561L263.447 190.645L263.741 190.561L263.95 190.771L264.202 190.897L264.705 190.939L264.789 190.981L264.957 191.149L264.999 191.4L265.041 191.652L265.125 191.82L265.377 191.862L265.838 192.198L266.048 192.492L266.132 192.701L266.174 192.869L266.132 193.205L266.174 193.625L266.3 193.835L266.341 194.002V194.422L266.383 194.59L266.467 194.716L266.761 194.884L266.929 195.01L267.013 195.262L267.055 195.597L267.139 195.807L267.432 196.017L267.516 196.143Z" fill="#009649" stroke="white" stroke-width="2" stroke-linejoin="round"></path>
</svg>