<svg width="1177" height="576" viewBox="0 0 1177 576" fill="none" xmlns="http://www.w3.org/2000/svg">
<path class="region" data-country-region="West Region" d="M651.479 218.799L681.148 222.533L685.034 222.183L688.33 219.382H689.625L693.393 221.366L697.514 222.65L698.573 223.234L700.104 224.401L708.463 229.419L703.871 230.82L694.099 245.292L693.275 247.159L693.393 248.677L693.275 250.311L693.158 253.345L693.04 255.796L693.746 258.831V260.464L692.922 261.865L691.98 263.032L690.803 264.083L690.096 264.899L689.625 265.716L689.508 267.117V268.984L690.332 272.602L691.156 274.587L692.687 276.104L695.041 276.571L695.512 276.921L706.109 285.557L707.286 287.892L711.524 300.38L712.937 305.982L712.584 307.149L712.466 308.549L712.819 309.016L713.644 309.833L715.41 310.767L716.94 311.234L719.177 311.467L719.884 311.701L721.65 312.634L723.416 313.451L723.887 313.801L724.004 314.268L723.416 316.369L722.592 320.337L722.238 321.388L720.826 323.838L720.355 325.006L719.766 326.756L718.235 333.992L717.764 335.276L716.587 337.027L715.763 338.544L715.292 340.061L714.939 342.045V343.329L715.174 344.38L715.881 345.78L716.116 346.714V347.531L715.998 349.165L716.469 350.098L717.411 351.149L721.061 353.366L721.532 353.95L720.59 356.051L720.708 356.401L721.532 356.517L730.244 355.817L733.541 356.167L735.189 356.051L738.839 354.067L740.252 353.6L744.844 353.483L748.376 356.167L742.136 362.703L739.075 366.788L736.602 371.573L728.596 396.083L724.358 404.953L719.177 412.772L713.173 418.841L708.463 421.292L705.991 420.242L703.636 417.674L699.515 415.573L697.161 416.624L690.921 422.342L687.506 423.86L683.856 423.51L681.737 422.693L679.971 423.043L677.381 426.077L676.674 428.295L675.497 433.78L673.967 436.581L672.318 437.865L668.315 439.382L659.485 444.751L651.597 447.202L646.887 450.12L637.586 458.873L632.641 460.624L628.403 458.99L620.514 451.87L615.452 450.353L608.034 453.154L606.033 452.921L604.149 450.003L604.62 447.435L605.797 444.751L605.68 441.716L602.03 437.281L597.203 436.464L587.666 438.332L585.664 437.281L581.19 431.796L578.836 429.812L576.716 429.112H574.479L555.524 434.13L551.992 436.114L549.755 440.666L547.753 452.571L545.281 457.356V457.706L545.634 459.69L545.752 461.441L545.634 462.958L545.281 464.592L534.331 472.411L506.428 471.828L494.066 479.647L491.829 480.114L466.28 477.08L453.918 478.83L449.915 478.597L449.679 475.679L449.561 471.945L449.915 470.894L452.269 467.51L452.858 465.992L453.447 465.059L454.271 464.358L455.33 463.658L456.155 462.958L457.45 461.557L458.98 459.573L459.687 457.472L459.804 455.372L458.509 449.769L458.392 448.136L458.98 445.801L459.451 444.634L459.804 443.701L460.746 442.417L460.982 441.716L461.1 439.732L460.629 438.449L457.803 435.297L454.506 438.332L453.447 439.149L452.387 439.732L450.621 439.849L449.444 439.616L448.149 439.966L444.734 440.783L441.791 442.3L440.731 442.65L439.318 442.884L437.67 443.35L436.846 443.934L436.139 444.284L434.609 444.751L433.902 445.218L433.314 446.035L432.607 447.319L432.254 448.836L432.019 449.419L430.37 449.303L429.428 449.419L427.427 450.003L426.367 450.12L425.308 449.886L423.659 449.419H423.071L422.011 449.653L420.481 449.419L419.539 448.836L415.536 445.685L414.711 445.218L413.534 444.868H412.474H411.65L410.944 445.218L410.473 445.801L410.002 446.852L409.531 447.435L409.06 447.902H408L407.412 447.435L406.823 446.618L406.47 445.334L406.117 443.701V441.95L406.47 440.549L407.53 439.032L408.942 437.748L409.767 436.698L410.826 436.231L411.062 435.647V434.714L410.237 432.73L408.471 429.695L408.118 428.645L408.236 427.828L409.06 427.128L409.296 426.661V426.194L407.412 424.21L407.53 423.043L408.354 421.642L410.708 418.491L413.181 415.923L413.887 414.523L414.24 413.356L416.007 404.602L407.883 386.162L406.588 384.645L401.29 380.21L395.285 371.457L392.93 370.873L391.988 371.223L390.811 371.923L388.927 374.258L385.866 377.175L385.277 377.992L384.571 379.276L383.394 380.56L383.158 381.143L383.04 381.96L382.805 382.661L382.334 383.361L381.51 384.295L381.274 386.279L381.039 386.979L380.568 387.796L373.975 390.014L361.024 391.998L358.434 392.815L356.668 394.682L355.372 396.899L354.901 397.366L353.489 398.65L352.9 399.234L352.194 400.634L351.252 400.517L349.25 397.016L350.192 395.616L351.958 393.865L352.9 392.464L353.253 390.947L353.606 390.364L355.019 389.197L355.726 388.38L356.55 387.096L357.021 385.579L357.492 383.711L357.727 381.727L357.492 379.276L356.668 375.191L355.019 372.273L353.96 370.99L353.018 370.64L352.429 370.523L351.958 370.173L351.723 369.122L351.958 367.372V365.504L351.487 363.87L349.839 360.719L349.132 358.968L349.25 356.984L349.839 356.051L351.605 353.833L351.84 353.25L351.723 352.899L350.545 352.666L350.192 352.199L350.074 351.382L350.427 349.398L350.545 347.998L350.663 346.48L350.192 345.08L349.486 344.146L347.837 343.563H345.954L341.009 344.73L340.42 344.263L340.655 343.096L342.068 340.762L345.012 337.027L345.483 336.327L345.129 335.276L343.717 334.342L340.655 329.791L343.01 324.772L363.261 322.205L363.378 321.037L364.085 319.053L364.203 317.069L364.674 315.552L365.145 314.618L366.086 313.218L369.148 309.6L374.681 301.78L385.984 304.698H387.161L388.456 304.348L388.574 303.181L388.103 300.38L388.456 299.796L389.163 298.979L392.106 296.411L392.93 295.361L397.757 286.141L398.817 284.857L399.877 284.273L402.938 284.157L403.88 283.807L404.704 283.34L407.53 279.022L410.002 273.77L410.708 272.836L411.415 271.435L411.533 269.335L420.363 263.149L422.835 262.332L423.188 262.799L423.659 264.083L424.601 265.366L425.072 266.65L428.604 267.467L446.147 268.518L448.973 263.266L449.444 261.398L450.15 257.78L450.268 256.263L450.15 255.212L449.797 254.862L447.089 252.295L445.912 250.194L445.676 248.793L445.912 247.86L446.5 247.159L447.324 245.876L447.56 244.592L447.324 242.724L446.265 238.99L446.147 237.939L446.618 237.122L450.032 235.488L451.092 234.438L451.681 233.621L454.035 228.136L463.807 228.719L497.951 223.817H499.599L499.835 224.401L500.188 225.451L501.248 226.151L501.718 226.852L502.072 228.019L502.425 230.47L502.543 231.637L502.425 232.337L501.483 232.687L501.012 233.154L500.541 234.438L501.601 234.671L509.96 233.388L511.137 233.037L512.197 232.22L512.903 231.17L513.021 230.586L513.374 228.602L513.728 227.435L515.965 224.518L520.321 222.067L527.15 213.547L561.764 207.711L577.423 209.579L590.727 214.48L592.258 215.764L593.435 216.931L594.141 217.398L596.261 217.982L596.967 218.332L598.144 219.616L599.204 220.666L600.028 220.9H600.735L603.207 219.499L612.626 216.815H614.627L620.397 218.449L640.176 218.915L640.647 218.682L643.12 218.449L646.769 216.698H647.829L648.771 216.815L651.479 218.799Z" fill="#009649" stroke="white" stroke-width="2" stroke-linejoin="round"></path>
<path class="region" data-country-region="West Region" d="M625.109 126.947L625.344 127.881L629.7 135.234L630.642 137.801L631.466 140.719L631.584 144.57L631.82 146.555L632.761 148.305L633.468 148.655L634.057 148.539L635.116 147.138L635.94 146.671L637.353 146.555L638.648 146.788L639.943 147.838L641.003 149.589L642.298 152.74L643.004 153.791L643.711 154.141L644.182 153.557L644.771 153.324L645.359 153.557L645.948 154.724L646.654 155.658L647.361 156.125H648.067L652.188 155.425L655.014 154.141L656.073 153.791L657.133 153.674L657.721 154.958L657.839 157.409L656.544 166.629V170.13L656.309 172.698L655.249 177.25L655.131 181.101L654.66 183.085L653.954 183.902L652.541 184.019L650.304 185.069H649.245L647.714 184.952L647.008 185.069L646.772 185.886L647.008 187.17L654.072 196.39L655.367 197.557L656.309 198.841L657.015 200.358L657.251 203.043L658.075 206.077L658.546 207.361L659.017 208.178L659.605 208.878L660.665 209.228L662.902 209.695L663.373 210.395L663.02 211.679L660.665 214.013L658.546 215.764L651.481 218.799L648.774 216.814L647.832 216.698H646.772L643.122 218.448L640.65 218.682L640.179 218.915L620.399 218.448L614.63 216.814H612.629L603.21 219.499L600.737 220.899H600.031L599.207 220.666L598.147 219.616L596.97 218.332L596.263 217.982L594.144 217.398L593.438 216.931L592.26 215.764L590.73 214.48L577.425 209.578L561.767 207.711L527.152 213.547L520.323 222.066L515.967 224.517L513.73 227.435L513.377 228.602L513.024 230.586L512.906 231.17L512.2 232.22L511.14 233.037L509.963 233.387L501.603 234.671L500.544 234.438L501.015 233.154L501.486 232.687L502.428 232.337L502.545 231.637L502.428 230.47L502.074 228.019L501.721 226.852L501.25 226.151L500.191 225.451L499.837 224.401L499.602 223.817H497.954L463.81 228.719L454.038 228.135L451.683 233.621L451.095 234.438L450.035 235.488L446.621 237.122L446.15 237.939L446.267 238.99L447.327 242.724L447.562 244.592L447.327 245.875L446.503 247.159L445.914 247.86L445.679 248.793L445.914 250.194L447.092 252.295L449.799 254.862L450.153 255.212L450.27 256.263L450.153 257.78L449.446 261.398L448.975 263.265L446.15 268.517L428.607 267.467L425.075 266.65L424.604 265.366L423.662 264.082L423.191 262.799L422.838 262.332L420.365 263.149L411.535 269.334L410.947 266.417L410.358 265.366L403.294 256.613L401.881 254.512L401.174 252.995L400.586 250.777L400.468 249.727L400.586 248.91L401.057 248.326V248.093L400.468 247.626L399.173 246.926L395.876 243.775L394.581 243.308L393.286 242.491L391.873 242.024L391.285 241.674L386.575 237.472L385.751 236.305L385.28 235.255V233.504L385.633 230.82L385.516 230.003L385.28 228.602L385.398 226.852L385.986 224.984V223.817V222.183L384.809 217.515L384.691 216.231L384.927 215.531L385.516 214.714L385.869 214.013L386.34 212.496L387.046 211.913L387.988 210.979L388.341 210.395L389.401 209.462L385.28 204.093L384.456 203.509L383.279 202.926L379.393 202.459L370.799 200.242L364.088 202.226H362.086L361.733 201.642L360.438 199.074L359.967 198.608H359.496L356.788 201.525L356.435 201.992L356.317 203.043L355.493 204.093L354.08 205.494L348.546 208.645L347.016 208.995L346.309 208.878L343.366 207.944L339.598 207.244L337.832 205.844L336.773 203.393L342.777 199.775L343.601 199.074L344.779 197.907L346.78 194.523L347.958 193.356L349.253 192.539L355.493 190.788L357.377 189.271L359.731 186.47L362.439 182.502L363.499 180.401L363.97 178.65L363.381 174.565V173.865L363.97 172.348L364.088 171.881L363.852 171.064L363.97 170.013L364.205 168.73V167.679L363.617 166.862L362.439 166.162L361.968 165.578L361.38 164.178L360.555 163.128L359.731 162.427L356.788 161.494H355.611L355.257 160.793L356.081 159.743L361.615 153.907L359.143 150.056L358.907 149.356L358.672 148.072L358.789 146.788L358.672 144.57L358.083 143.053L356.435 140.719L355.375 139.785L351.608 137.334L350.43 137.101L349.606 136.751L348.782 136.167L346.192 133.833L345.603 133.366L344.072 133.133L339.127 129.865L337.95 128.698L336.773 127.181L334.183 122.512L333.829 121.812V120.995L333.594 120.295L332.534 118.311L332.417 117.377L332.887 116.093L332.652 115.276L332.063 114.226L319.348 93.2177L319.112 92.6341L318.995 91.3503L318.877 89.0161L315.227 87.7323L314.285 86.3318L319.112 82.597L319.583 67.658L325.588 68.9418L330.297 65.9074L339.01 55.2867L345.838 51.6686L347.487 49.918L348.546 47.1169L349.017 41.2814L350.195 38.7137L354.433 36.0294L363.499 37.3132L369.386 34.2787L370.799 33.9286L372.211 34.2787L379.04 37.6633L384.927 39.414L390.814 39.0639L399.173 31.361L403.058 29.8437L411.535 29.6103L431.904 31.5944L437.908 35.2124L436.142 40.4644L436.378 45.0161L437.319 49.2177L437.908 53.8861L436.966 64.2734L438.144 67.7747L442.147 68.5917L447.445 68.1249L455.451 63.5731L459.925 62.406L461.809 63.1063L465.929 66.1408L467.813 67.0745L470.05 67.1912L475.23 66.2575L481.588 63.6899L483.001 61.1222L483.59 57.2708L485.003 51.0851L485.591 50.9684H488.181L489.006 50.2681L489.594 48.1673L489.123 46.6501L488.181 45.3663L491.478 35.0957L494.186 30.6607L497.247 27.7429L500.661 26.109L504.547 25.292H510.905L513.024 25.0586L515.967 23.7748L517.498 22.4909L535.394 2.88351L536.218 1.24956L537.395 0.782715L540.339 1.94982L543.753 8.01879L545.283 9.65274L550.228 12.9206L552.701 19.223L556.468 35.2124L559.765 45.1328L560.825 47.4671L564.357 50.1514L568.713 51.3185L576.955 51.4352L576.013 53.4193L575.659 55.0533L575.777 59.9551L575.306 63.8066L587.198 67.7747L591.672 68.3583L595.792 67.8915L602.739 65.0904L604.623 66.6076L606.624 72.5599L607.566 77.6952L608.861 92.9843L608.508 94.2681L606.977 96.6023L606.86 97.8861L607.566 98.9365L610.392 101.037L610.745 101.854L612.393 103.605L612.746 105.005L612.275 106.756L611.098 107.456L609.803 107.807L608.861 108.507L601.09 121.228L600.266 125.313L602.856 129.048L608.037 130.915L617.573 131.616L622.165 129.865L625.109 126.947Z" fill="#009649" stroke="white" stroke-width="2" stroke-linejoin="round"></path>
<path class="region" data-country-region="West Region" d="M87.4055 496.454L78.9285 494.12L71.3934 492.486L63.8583 497.037L59.1488 492.719L52.4379 490.385L47.7284 487.817L48.7881 482.799L46.3156 480.698L45.4914 480.231L46.6688 474.512L47.7284 471.361L49.8477 468.793L47.1398 465.992L43.1367 458.523L40.8997 457.122L37.6031 456.655L34.7775 454.905L29.5971 449.303L28.0665 444.517V437.865L27.1246 432.263L23.9457 421.175L23.828 419.775L24.0635 416.273L23.9457 414.873L23.1216 413.822L21.8265 413.356L19.5895 411.372L17.7057 410.438L16.0574 409.504L15.4687 407.637L15.1155 406.236L14.5268 404.486L13.8204 402.968L13.2317 402.268L12.4076 401.685L12.7608 400.051L13.585 398.3L14.0559 396.899L13.114 394.565L10.9948 392.114L8.75777 390.364L7.58041 389.663L3.45964 389.313L1.81134 388.263L1.22266 386.395L1.34039 383.011L1.6936 381.61L2.28228 380.793L2.75323 378.809L4.637 362.353L5.46116 357.918L7.58041 353.716L12.8785 346.013L14.0559 341.929L15.5865 339.011L19.0008 336.21L22.2974 332.708L22.7684 331.074H23.4748L35.9548 327.223L45.256 326.756L45.9624 326.639L46.0801 326.173L45.8447 325.356L45.256 323.955L46.5511 323.838L49.259 324.539L58.207 328.857L60.3262 329.557L61.5036 329.324L70.0983 325.589L72.924 323.838L76.5738 322.788L79.164 322.671L80.6946 322.204L81.6365 321.387L82.4606 319.403L83.2847 318.47L84.1089 317.886L85.9927 316.952L87.641 315.902L88.3474 314.968L88.8183 313.685L89.6425 312.401L90.5844 311.467L91.8795 310.533L93.0569 310.183L93.4101 309.483L99.2969 300.029L101.063 297.695L102.358 296.645L103.418 296.878L104.83 298.045L106.95 298.746L107.656 299.096L108.363 299.679L109.304 300.613L110.011 301.78L110.835 303.297L111.306 305.515L111.424 308.433L110.246 311.934L109.187 314.035L105.537 318.937L104.83 319.637L104.242 319.987H102.829L102.123 320.104L101.769 320.571L100.356 324.422L99.4146 325.472L97.1776 326.639V328.507L96.118 330.958L107.421 342.045L105.419 343.329L104.595 344.146L103.653 345.547L100.474 350.448L98.7082 353.95L99.4146 357.451L102.123 358.502H104.948H105.419L106.243 359.085L106.832 359.785L108.363 360.836L109.54 362.003L110.129 362.47L110.953 362.586L114.603 362.703L115.309 363.17L115.427 363.754L114.956 365.037L114.485 365.621L114.367 366.204L114.72 366.905L116.722 368.539L117.428 369.239L118.841 371.456L120.489 373.09L121.314 374.608L124.846 381.494L125.67 382.544L126.258 383.128H127.436L128.26 383.478L128.966 384.178L130.144 385.462L130.732 386.512L131.321 387.563L131.792 388.146V389.43L131.321 391.064L129.555 395.149L128.024 397.833L127.907 399.117L129.084 402.618L140.269 411.605L134.618 418.374L133.676 420.242L133.44 421.876L133.911 424.56L134.265 425.61L134.735 426.077L135.677 426.311L139.916 428.295L140.387 429.345V430.629L139.916 434.013L140.387 435.181L140.858 435.647L141.8 435.414L142.388 435.647L143.095 436.815V437.748L142.859 439.149L141.564 442.533L140.858 443.817L140.034 444.517L138.974 444.167L136.619 444.868L130.144 449.886L124.61 452.337H123.668L122.726 451.987L121.196 450.82L120.254 450.353L117.428 450.003L116.84 449.769L116.604 448.952L116.84 448.369L117.664 446.735L117.193 445.101L116.84 444.167L116.486 444.051L115.78 444.284L114.603 445.101L113.661 445.451L112.954 445.918L112.483 446.735L111.895 449.769L112.012 450.586L112.483 451.753L113.425 452.804L114.132 453.971L114.249 454.321L113.896 454.905L113.307 455.488L112.012 456.072L111.306 456.305L110.364 456.655L109.54 457.356L108.009 458.873L106.008 460.157L105.066 460.39L102.829 460.507L97.884 459.34H97.1776L96.8244 459.573L96.7067 460.04L97.884 462.024V463.425L97.5308 464.708V465.992L97.7663 466.459L99.4146 467.626L100.592 468.793L101.534 469.143L104.83 468.91L105.537 469.143L106.126 470.077L106.008 470.311L105.184 471.244L102.829 472.645L99.7678 475.212L98.2372 475.913H97.2954L96.7067 475.679L96.2357 475.796L96.0003 476.38L95.8825 478.247L96.118 479.414L96.4712 480.698L96.3535 481.398L95.647 481.982L93.5278 483.265L92.3504 484.082L88.5829 488.634L87.4055 496.454Z" fill="#009649" stroke="white" stroke-width="2" stroke-linejoin="round"></path>
<path class="region" data-country-region="West Region" d="M118.136 242.608L117.547 244.475L115.663 249.027L113.544 251.945L107.069 258.13L111.543 259.881L114.015 260.465L115.192 260.348L115.899 259.764L119.313 255.446L120.373 255.563L121.432 256.73L123.905 260.114L125.906 262.332L126.966 263.149L127.437 263.382L129.203 263.849L129.909 264.316L130.734 265.366L132.382 267.701L133.441 269.685L134.148 271.669L134.03 273.77L133.677 274.587L132.853 275.404L132.5 275.987L132.264 277.154L131.087 279.372L130.734 280.189L130.38 281.356L130.498 282.056L130.851 282.873L132.029 283.807L132.617 284.74L133.206 288.242L134.619 290.226L136.62 292.21L138.975 295.478L143.449 305.282L148.276 301.08L149.571 300.263L150.395 299.563L151.455 299.446L154.398 301.08L161.109 298.979L161.698 297.929L162.287 297.112V295.945V295.128V294.077V292.677L162.64 291.626H163.464L164.877 293.26L165.348 293.377H167.349L168.056 293.26L168.645 293.027L169.94 291.86L176.415 289.059L179.829 288.125L182.537 289.526L184.421 291.743L186.658 295.828L187.011 296.412L187.718 296.878L191.603 298.746L195.371 299.329L202.553 299.096L203.73 298.862L203.848 298.396L203.612 297.112L203.965 296.528L204.554 296.645L205.26 297.228L206.909 298.746L208.557 301.43L209.499 302.247L210.205 302.48L211.383 302.13L212.913 301.313L213.973 301.43L215.033 301.897L216.328 303.414L217.152 304.698L237.167 309.016L237.638 311L238.109 312.167L237.638 312.868L236.578 313.568L227.042 317.419L225.276 317.653L224.098 317.536L221.39 315.669L220.802 315.435L220.095 315.319L219.153 316.953L212.913 333.175L212.442 333.876L208.91 337.844L217.976 342.512L218.565 342.629L219.389 343.096L223.863 346.714L233.046 356.051L228.572 361.069L213.973 387.213L210.559 390.597L209.617 395.266L209.146 397.366L209.028 398.533L208.204 403.669L207.851 404.486L206.909 405.536L207.497 407.17L212.796 411.955L211.383 414.406L210.559 415.69L210.205 416.624V417.324L210.676 418.258V419.075L210.088 420.125L209.499 420.709L209.264 421.642L209.499 422.809L210.323 425.26L210.912 426.077L211.383 426.661L211.971 426.778L212.442 427.244L214.562 429.345L215.268 430.279L215.621 431.563L215.504 433.197L214.915 435.414L214.326 436.581L213.384 437.281L210.088 439.266L207.733 441.133L207.144 441.25L206.791 441.016L203.848 437.515L203.377 437.165L202.906 437.281L202.199 437.748L200.669 438.449L200.787 439.382L201.257 440.783L203.023 444.167L203.73 445.918L203.612 447.669L203.141 449.186L202.199 450.12L201.022 450.703L199.845 450.587L198.432 449.653L197.019 448.953L196.195 448.836L195.135 448.953L191.721 450.236L191.014 451.17V452.337L200.08 462.258L201.257 464.358L201.14 466.926L199.491 471.128L199.02 472.295L199.256 473.228L199.727 474.045L201.14 475.213L202.082 475.563L203.141 475.446L206.556 474.279L207.851 474.045L208.439 474.396L208.91 475.563L208.086 477.897L207.968 478.714L208.322 479.181L209.146 479.998L209.852 480.231L211.265 480.348L212.207 480.698H213.267L214.326 481.281L214.797 482.565L214.915 484.199L213.973 490.852L215.386 501.472L214.797 509.409L216.328 510.693L216.799 512.793V513.961L216.092 515.945L215.621 519.563L217.034 521.897L217.623 523.297L217.387 524.464L216.092 525.632L212.678 527.849L207.733 532.284L205.378 535.669L203.848 536.836L203.023 537.186L202.67 537.069L202.082 537.303L200.316 539.053L199.609 540.454L198.903 542.555L198.785 549.09L197.961 550.374L196.43 551.775L192.545 554.809L190.897 555.743L189.602 556.093L189.131 555.86L187.836 555.743L187.011 555.276L186.54 555.159L186.069 555.626L185.599 556.677L184.186 563.796L183.362 566.014L181.713 567.764L172.883 563.096L170.764 560.645L169.116 557.494L165.348 553.876L160.992 550.841L157.931 549.324L155.694 549.674L153.574 550.724H151.455L148.983 548.157L141.918 537.77L140.035 536.486L134.854 535.435L132.735 534.502L130.734 532.634L109.541 504.39L103.066 499.138L89.5259 497.037L87.4066 496.454L88.584 488.634L92.3515 484.083L93.5289 483.266L95.6481 481.982L96.3546 481.398L96.4723 480.698L96.1191 479.414L95.8836 478.247L96.0013 476.38L96.2368 475.796L96.7078 475.679L97.2964 475.913H98.2383L99.7689 475.213L102.83 472.645L105.185 471.244L106.009 470.311L106.127 470.077L105.538 469.144L104.832 468.91L101.535 469.144L100.593 468.793L99.4157 467.626L97.7674 466.459L97.5319 465.992V464.709L97.8851 463.425V462.024L96.7078 460.04L96.8255 459.573L97.1787 459.34H97.8851L102.83 460.507L105.067 460.39L106.009 460.157L108.01 458.873L109.541 457.356L110.365 456.655L111.307 456.305L112.013 456.072L113.309 455.488L113.897 454.905L114.25 454.321L114.133 453.971L113.426 452.804L112.484 451.754L112.013 450.587L111.896 449.77L112.484 446.735L112.955 445.918L113.662 445.451L114.604 445.101L115.781 444.284L116.487 444.051L116.841 444.167L117.194 445.101L117.665 446.735L116.841 448.369L116.605 448.953L116.841 449.77L117.429 450.003L120.255 450.353L121.197 450.82L122.727 451.987L123.669 452.337H124.611L130.145 449.886L136.62 444.868L138.975 444.167L140.035 444.518L140.859 443.817L141.565 442.533L142.86 439.149L143.096 437.748V436.815L142.389 435.648L141.801 435.414L140.859 435.648L140.388 435.181L139.917 434.014L140.388 430.629V429.345L139.917 428.295L135.678 426.311L134.737 426.077L134.266 425.61L133.912 424.56L133.441 421.876L133.677 420.242L134.619 418.374L140.27 411.605L129.085 402.618L127.908 399.117L128.026 397.833L129.556 395.149L131.322 391.064L131.793 389.43V388.146L131.322 387.563L130.734 386.512L130.145 385.462L128.967 384.178L128.261 383.478L127.437 383.128H126.26L125.671 382.544L124.847 381.494L121.315 374.608L120.49 373.091L118.842 371.457L117.429 369.239L116.723 368.539L114.721 366.905L114.368 366.205L114.486 365.621L114.957 365.037L115.428 363.754L115.31 363.17L114.604 362.703L110.954 362.587L110.13 362.47L109.541 362.003L108.364 360.836L106.833 359.785L106.244 359.085L105.42 358.502H104.949H102.124L99.4157 357.451L98.7093 353.95L100.475 350.449L103.654 345.547L104.596 344.146L105.42 343.329L107.422 342.045L96.1191 330.958L97.1787 328.507V326.64L99.4157 325.473L100.358 324.422L101.77 320.571L102.124 320.104L102.83 319.987H104.243L104.832 319.637L105.538 318.937L109.188 314.035L110.247 311.934L111.425 308.433L111.307 305.515L110.836 303.297L110.012 301.78L109.306 300.613L108.364 299.679L107.657 299.096L106.951 298.746L104.832 298.045L103.419 296.878L102.359 296.645L101.064 297.695L99.298 300.03L93.4112 309.483L93.0579 310.183L91.8806 310.534L90.5855 311.467L89.6436 312.401L88.8194 313.685L88.3485 314.969L87.6421 315.902L85.9938 316.953L84.11 317.886L83.2858 318.47L82.4617 319.404L81.6375 321.388L80.6957 322.205L79.1651 322.671L76.5749 322.788L72.9251 323.839L70.0994 325.589L61.5047 329.324L60.3273 329.557L58.208 328.857L49.2601 324.539L46.5522 323.839L45.2571 323.955L45.8458 325.356L46.0812 326.173L45.9635 326.64L45.2571 326.756L35.9559 327.223L23.4759 331.075H22.7695L23.9468 327.223L21.9453 312.751L22.534 306.915L25.7129 302.947L28.0676 298.629L38.5461 268.634L43.6088 260.114L50.6729 253.929L53.7341 250.194L54.9114 244.358L56.7952 241.441L67.8624 233.388L77.0458 231.404L87.0534 234.088L110.601 245.876L114.133 245.292L118.136 242.608Z" fill="#009649" stroke="white" stroke-width="2" stroke-linejoin="round"></path>
<path class="region" d="M1141.38 233.854L1141.03 234.438L1139.61 238.289L1139.5 240.623L1139.85 243.191L1140.32 253.695L1139.85 255.796L1138.44 259.414L1136.67 261.982L1134.67 263.499L1133.14 265.6L1132.55 269.684L1132.78 276.337L1131.37 282.989L1128.9 288.708L1125.6 293.143L1123.13 294.661L1117.6 296.411L1115.12 298.162L1113.48 300.379L1111.36 305.281L1110.06 307.615L1096.64 318.47L1093.46 323.488L1093.11 329.674L1095.46 342.279L1094.76 347.064L1092.52 352.082L1092.28 374.374L1088.4 379.393L1084.75 382.194L1080.98 383.244L1068.62 382.077L1064.85 382.31L1061.08 383.594L1050.37 384.178L1047.31 385.345L1041.07 388.963L1032.12 390.247L1021.41 395.732L1015.17 396.199L1008.69 394.098L1003.27 390.013L998.33 384.411L986.792 366.671L985.143 363.403L982.435 350.682L980.669 347.18L977.137 346.363L969.484 346.48L966.188 344.963L964.893 342.745L963.009 336.793L961.596 334.109L959.83 332.475L956.062 331.074L949.234 326.989L946.173 326.056L935.459 329.44L928.394 329.557L924.98 330.257L920.977 332.592L919.211 335.509L918.034 338.777L915.679 342.279L912.618 344.029L910.263 342.979L907.673 340.761L903.905 339.127L897.077 340.761L881.182 348.348L875.884 347.18L871.763 343.096L865.994 340.411L859.872 339.361L854.809 339.711L847.392 339.127L836.207 332.241L829.732 331.541L826.67 330.841L820.548 325.239L817.369 323.605H814.073L770.393 333.642L757.559 334.576L751.673 336.91L751.437 339.244L751.319 341.812L751.908 349.398L751.673 351.499L748.847 355.7L748.376 356.167L744.844 353.483L740.252 353.6L738.839 354.066L735.189 356.05L733.541 356.167L730.245 355.817L721.532 356.517L720.708 356.401L720.59 356.05L721.532 353.95L721.061 353.366L717.411 351.149L716.469 350.098L715.998 349.165L716.116 347.531V346.714L715.881 345.78L715.174 344.379L714.939 343.329V342.045L715.292 340.061L715.763 338.544L716.587 337.027L717.764 335.276L718.235 333.992L719.766 326.756L720.355 325.005L720.826 323.838L722.239 321.387L722.592 320.337L723.416 316.369L724.005 314.268L723.887 313.801L723.416 313.451L721.65 312.634L719.884 311.7L719.177 311.467L716.94 311.234L715.41 310.767L713.644 309.833L712.82 309.016L712.466 308.549L712.584 307.149L712.937 305.982L711.524 300.379L707.286 287.891L706.109 285.557L695.512 276.921L695.041 276.57L692.687 276.104L691.156 274.586L690.332 272.602L689.508 268.984V267.117L689.626 265.716L690.096 264.899L690.803 264.082L691.98 263.032L692.922 261.865L693.746 260.464V258.83L693.04 255.796L693.158 253.345L693.275 250.31L693.393 248.676L693.275 247.159L694.1 245.292L703.872 230.82L708.463 229.419L711.524 226.501L713.997 220.432L715.41 218.332L716.587 217.165L722.709 213.313L719.648 209.462L716.94 208.645L714.586 208.178L713.997 207.594L714.115 206.894L716.469 204.676L719.177 200.942L720.119 199.891L722.945 198.141L731.893 194.173L733.306 192.889L733.894 192.539H734.483L734.954 192.772H735.543L736.485 192.188L739.781 189.037L740.605 188.687L741.076 188.921L741.783 189.738L743.313 190.088L747.905 193.239L751.202 197.791L751.319 197.557L750.966 196.74L750.613 195.106V194.056L751.202 193.706L756.029 192.072L756.853 191.605L756.735 191.021L755.676 189.154L755.911 188.22L756.5 187.17L758.148 185.419L759.09 185.186L760.149 185.536L760.267 186.47L759.796 188.687L760.267 189.621L761.327 190.554L766.86 194.756L771.805 197.674L776.044 198.141L777.81 198.608L778.87 199.074L779.223 199.891L781.813 204.093L782.99 204.56L785.463 204.793L788.053 204.443L790.172 203.509L791.585 202.459L792.645 201.292V200.592L792.056 199.425L791.938 198.491L792.174 198.024L793.116 197.557L794.411 197.207L798.178 196.974L811.129 199.191L812.189 198.608V198.257L810.776 197.207L810.187 196.507L810.305 195.223L810.658 193.005V192.305L810.07 191.138L809.952 190.554L810.187 189.738L810.776 189.621L813.013 190.088L817.958 192.305L821.137 193.122L822.314 193.706L822.432 194.289L821.608 195.223V196.04L822.314 196.74L824.669 197.907L825.964 198.257H826.906L833.499 196.857L837.62 200.475L841.858 201.175L847.745 204.91L848.569 205.143L849.04 204.326L849.747 203.976L850.924 203.509L853.75 203.043L854.927 203.276L855.751 203.626L856.34 205.26L856.458 206.077L856.34 207.711L856.811 209.112L857.753 210.512L861.167 213.78L861.756 214.597V215.18L862.462 216.931L863.64 218.682L864.464 219.382L865.17 219.732L866.583 219.382L869.409 219.032L877.297 221.716L881.3 222.183H882.242L886.009 220.899L886.951 221.016L887.775 221.249L890.248 222.883L890.719 223.467L891.779 224.984L892.838 226.151L894.604 227.785L895.782 228.369L900.02 227.552L903.081 228.602L905.083 228.719L906.496 229.302L907.908 230.47L908.968 230.703L910.028 230.586L911.323 230.119L911.911 230.236L912.265 230.586L912.618 232.22L912.265 233.154L911.087 234.321L910.381 235.605L909.203 237.005L908.732 237.706L908.497 238.406L908.615 239.806L910.97 243.308L914.737 246.809L916.974 247.86L919.447 248.21L922.154 247.86L922.743 247.626L922.861 247.159L921.566 245.992L921.33 245.525L921.095 244.241L921.213 243.541L922.037 242.374L922.861 242.024L923.92 241.907H926.864L927.806 241.674L930.278 240.74L933.457 240.39L934.988 239.806L935.694 239.106L936.283 237.822L936.871 235.605L937.342 231.52V230.586L937.107 229.769L936.4 228.602L936.636 228.019L937.342 227.435L939.344 226.852H940.286L941.11 227.085L942.523 228.252L943.347 229.186L943.936 229.419L944.289 228.719L944.524 227.552L944.76 225.218L945.231 224.517L945.584 224.634L945.937 226.151L946.408 227.085L947.35 228.252L950.058 229.536L951.588 229.769L953.237 229.419L954.179 228.719L954.767 228.252L957.593 226.735L960.066 232.804L960.301 234.321L960.536 237.356L961.125 239.34L962.302 241.674L963.362 243.191L969.249 253.928L982.318 259.064L987.616 259.997L991.148 259.764L992.914 259.997L994.327 260.581L998.212 263.499L1000.45 264.199L1002.45 264.432L1004.1 264.082L1005.28 263.732L1006.1 263.265L1006.92 262.332L1007.4 260.814L1008.81 260.114L1013.52 259.297L1016.93 256.263L1020.82 254.979L1021.99 254.279L1022.82 253.345L1023.41 251.594L1023.76 250.31V249.143L1023.41 247.86L1022.23 245.175L1021.99 244.241L1021.88 243.424L1021.99 241.44L1021.88 240.857L1021.05 237.589L1020.94 236.422V232.337L1020.82 231.403L1020.46 230.236L1020.7 222.417L1028.47 222.65L1048.37 229.069L1051.19 230.47L1052.37 231.053L1052.84 231.637L1052.72 232.104L1054.02 233.271L1063.44 238.873L1067.79 240.04L1071.68 240.157L1077.8 239.106L1089.69 238.873L1090.4 238.639L1090.87 238.406L1091.11 237.356L1090.99 235.955L1090.4 232.921L1089.58 230.119L1089.46 229.302V227.902L1090.75 226.501L1095.11 224.634L1102.88 214.247L1108.41 214.13L1112.06 216.231L1112.65 217.398L1112.89 218.565L1113 219.732L1113.36 221.249L1116.54 228.719L1116.65 230.703L1116.89 232.337L1117.6 233.037L1118.66 233.387L1125.48 233.037L1130.78 231.52L1131.72 231.403L1141.38 233.854Z" fill="#009649" stroke="white" stroke-width="2" stroke-linejoin="round" data-country-region="East Region"></path>
<path class="region" data-country-region="West Region" d="M340.657 329.791L343.718 334.342L345.131 335.276L345.484 336.326L345.013 337.027L342.07 340.761L340.657 343.096L340.421 344.263L341.01 344.73L345.955 343.562H347.839L349.487 344.146L350.193 345.08L350.664 346.48L350.547 347.997L350.429 349.398L350.076 351.382L350.193 352.199L350.547 352.666L351.724 352.899L351.842 353.249L351.606 353.833L349.84 356.051L349.251 356.984L349.134 358.968L349.84 360.719L351.488 363.87L351.959 365.504V367.371L351.724 369.122L351.959 370.173L352.43 370.523L353.019 370.639L353.961 370.99L355.02 372.273L356.669 375.191L357.493 379.276L357.728 381.727L357.493 383.711L357.022 385.578L356.551 387.096L355.727 388.379L355.02 389.196L353.608 390.363L353.254 390.947L352.901 392.464L351.959 393.865L350.193 395.615L349.251 397.016L351.253 400.517L352.195 400.634L352.901 399.234L353.49 398.65L354.903 397.366L355.374 396.899L356.669 394.682L358.435 392.814L361.025 391.997L373.976 390.013L380.569 387.796L381.04 386.979L381.276 386.279L381.511 384.295L382.335 383.361L382.806 382.661L383.042 381.96L383.159 381.143L383.395 380.56L384.572 379.276L385.279 377.992L385.867 377.175L388.928 374.257L390.812 371.923L391.99 371.223L392.932 370.873L395.286 371.456L401.291 380.21L406.589 384.645L407.884 386.162L416.008 404.602L414.242 413.356L413.889 414.523L413.182 415.923L410.71 418.491L408.355 421.642L407.531 423.043L407.413 424.21L409.297 426.194V426.661L409.061 427.127L408.237 427.828L408.119 428.645L408.473 429.695L410.239 432.73L411.063 434.714V435.647L410.827 436.231L409.768 436.698L408.944 437.748L407.531 439.032L406.471 440.549L406.118 441.95V443.7L406.471 445.334L406.824 446.618L407.413 447.435L408.002 447.902H409.061L409.532 447.435L410.003 446.852L410.474 445.801L410.945 445.218L411.652 444.867H412.476H413.535L414.713 445.218L415.537 445.684L419.54 448.836L420.482 449.419L422.012 449.653L423.072 449.419H423.661L425.309 449.886L426.369 450.119L427.428 450.003L429.43 449.419L430.372 449.302L432.02 449.419L432.255 448.836L432.609 447.318L433.315 446.035L433.904 445.218L434.61 444.751L436.141 444.284L436.847 443.934L437.671 443.35L439.32 442.883L440.732 442.65L441.792 442.3L444.735 440.783L448.15 439.966L449.445 439.616L450.622 439.849L452.388 439.732L453.448 439.149L454.508 438.332L457.804 435.297L460.63 438.448L461.101 439.732L460.983 441.716L460.748 442.417L459.806 443.7L459.452 444.634L458.981 445.801L458.393 448.135L458.511 449.769L459.806 455.371L459.688 457.472L458.981 459.573L457.451 461.557L456.156 462.958L455.332 463.658L454.272 464.358L453.448 465.058L452.859 465.992L452.271 467.509L449.916 470.894L449.563 471.944L449.68 475.679L449.916 478.597L445.206 478.48L442.145 479.881L412.593 486.417L409.061 489.334L403.528 500.772L401.526 502.523L397.523 503.223L395.639 504.273L392.932 507.541L393.285 508.708L394.698 509.875L395.286 513.493L393.285 526.098L392.814 532.517L394.109 538.236L400.113 544.072L408.119 549.791L402.704 551.775L397.994 552.942L394.462 555.626L387.633 563.446L382.571 566.48L376.566 567.064L370.444 565.897L362.909 562.629L353.608 561.928L311.34 566.83L295.917 573.133L288.264 573.833L262.833 571.149L203.612 575L186.422 570.332L181.713 567.764L183.361 566.013L184.185 563.796L185.598 556.676L186.069 555.626L186.54 555.159L187.011 555.276L187.835 555.743L189.13 555.86L189.601 556.093L190.896 555.743L192.545 554.809L196.43 551.775L197.96 550.374L198.785 549.09L198.902 542.554L199.609 540.454L200.315 539.053L202.081 537.303L202.67 537.069L203.023 537.186L203.847 536.836L205.378 535.669L207.733 532.284L212.677 527.849L216.092 525.631L217.387 524.464L217.622 523.297L217.034 521.897L215.621 519.562L216.092 515.944L216.798 513.96V512.793L216.327 510.692L214.797 509.409L215.385 501.472L213.973 490.852L214.914 484.199L214.797 482.565L214.326 481.281L213.266 480.698H212.207L211.265 480.348L209.852 480.231L209.145 479.997L208.321 479.18L207.968 478.714L208.086 477.897L208.91 475.562L208.439 474.395L207.85 474.045L206.555 474.279L203.141 475.446L202.081 475.562L201.139 475.212L199.727 474.045L199.256 473.228L199.02 472.295L199.491 471.127L201.139 466.926L201.257 464.358L200.08 462.257L191.014 452.337V451.17L191.72 450.236L195.135 448.952L196.194 448.836L197.019 448.952L198.431 449.653L199.844 450.586L201.022 450.703L202.199 450.119L203.141 449.186L203.612 447.669L203.73 445.918L203.023 444.167L201.257 440.783L200.786 439.382L200.668 438.448L202.199 437.748L202.905 437.281L203.376 437.165L203.847 437.515L206.791 441.016L207.144 441.249L207.733 441.133L210.087 439.265L213.384 437.281L214.326 436.581L214.914 435.414L215.503 433.196L215.621 431.562L215.268 430.279L214.561 429.345L212.442 427.244L211.971 426.777L211.382 426.661L210.911 426.077L210.323 425.26L209.499 422.809L209.263 421.642L209.499 420.708L210.087 420.125L210.676 419.074V418.257L210.205 417.324V416.623L210.558 415.69L211.382 414.406L212.795 411.955L207.497 407.17L206.908 405.536L207.85 404.486L208.204 403.669L209.028 398.533L209.145 397.366L209.616 395.265L210.558 390.597L213.973 387.212L228.572 361.069L233.046 356.051L223.862 346.714L219.388 343.096L218.564 342.629L217.976 342.512L208.91 337.844L212.442 333.875L212.913 333.175L219.153 316.952L220.095 315.318L220.801 315.435L221.39 315.669L224.098 317.536L225.275 317.653L227.041 317.419L236.578 313.568L237.638 312.867L238.108 312.167L237.638 311L237.167 309.016L241.17 304.698L241.641 304.348L242.465 304.114L243.995 304.931L244.349 304.581L244.702 303.764L245.055 301.78L245.173 300.379L245.055 298.629L244.702 296.761L243.878 295.594L243.524 294.894L243.053 294.661L241.994 292.443L241.758 291.393L241.052 289.875L240.816 288.942L240.934 286.841L240.816 285.557L240.581 284.273L240.11 282.289V281.356L240.345 280.422L241.287 279.138L242.818 277.971L247.056 278.321L248.352 279.138V280.655L248.587 281.939L248.94 282.406L263.54 285.557L265.306 286.608L269.78 291.276L270.839 292.793L273.194 296.995L274.842 299.212L283.79 304.348L287.322 305.281L289.677 307.499L291.325 310.3L291.443 312.167L290.266 315.085L288.5 317.769L286.851 320.804L286.616 322.905L287.087 324.188L288.264 325.472V326.99L288.853 327.573L289.795 327.807L292.267 327.69L293.091 328.04L293.798 328.74L294.857 329.907L298.86 332.708L299.802 333.642L301.804 337.96L304.158 344.846L309.221 346.714L310.516 346.83L311.694 344.379L312.165 344.146L312.518 344.379L313.813 346.364L315.226 347.531L315.932 347.18L316.168 346.48L316.521 346.13L319.582 344.263L326.175 338.544L340.657 329.791Z" fill="#009649" stroke="white" stroke-width="2" stroke-linejoin="round"></path>
<path class="region" data-country-region="West Region" d="M411.536 269.334L411.418 271.435L410.712 272.836L410.005 273.769L407.533 279.021L404.707 283.34L403.883 283.807L402.941 284.157L399.88 284.273L398.821 284.857L397.761 286.141L392.934 295.361L392.11 296.411L389.166 298.979L388.46 299.796L388.107 300.379L388.577 303.181L388.46 304.348L387.165 304.698H385.987L374.685 301.78L369.151 309.6L366.09 313.218L365.148 314.618L364.677 315.552L364.206 317.069L364.088 319.053L363.382 321.037L363.264 322.204L343.014 324.772L340.659 329.791L326.177 338.544L319.584 344.263L316.523 346.13L316.17 346.48L315.934 347.18L315.228 347.531L313.815 346.364L312.52 344.379L312.167 344.146L311.696 344.379L310.518 346.83L309.223 346.714L304.161 344.846L301.806 337.96L299.804 333.642L298.863 332.708L294.859 329.907L293.8 328.74L293.093 328.04L292.269 327.69L289.797 327.807L288.855 327.573L288.266 326.99V325.472L287.089 324.188L286.618 322.905L286.853 320.804L288.502 317.769L290.268 315.085L291.445 312.167L291.327 310.3L289.679 307.499L287.324 305.281L283.792 304.348L274.844 299.212L273.196 296.995L270.841 292.793L269.782 291.276L265.308 286.608L263.542 285.557L248.942 282.406L248.589 281.939L248.354 280.655V279.138L247.059 278.321L242.82 277.971L241.29 279.138L240.348 280.422L240.112 281.356V282.289L240.583 284.273L240.819 285.557L240.936 286.841L240.819 288.942L241.054 289.875L241.76 291.393L241.996 292.443L243.056 294.661L243.527 294.894L243.88 295.594L244.704 296.761L245.057 298.629L245.175 300.379L245.057 301.78L244.704 303.764L244.351 304.581L243.997 304.931L242.467 304.114L241.643 304.348L241.172 304.698L237.169 309.016L217.154 304.698L216.329 303.414L215.034 301.897L213.975 301.43L212.915 301.313L211.385 302.13L210.207 302.48L209.501 302.247L208.559 301.43L206.911 298.745L205.262 297.228L204.556 296.645L203.967 296.528L203.614 297.112L203.849 298.395L203.732 298.862L202.554 299.096L195.372 299.329L191.605 298.745L187.72 296.878L187.013 296.411L186.66 295.828L184.423 291.743L182.539 289.525L179.831 288.125L176.417 289.059L169.941 291.86L168.646 293.027L168.058 293.26L167.351 293.377H165.35L164.879 293.26L163.466 291.626H162.642L162.289 292.677V294.077V295.127V295.944V297.112L161.7 297.929L161.111 298.979L154.4 301.08L151.457 299.446L150.397 299.562L149.573 300.263L148.278 301.08L143.451 305.281L138.977 295.478L136.622 292.21L134.621 290.226L133.208 288.242L132.619 284.74L132.03 283.807L130.853 282.873L130.5 282.056L130.382 281.356L130.735 280.188L131.088 279.372L132.266 277.154L132.501 275.987L132.855 275.403L133.679 274.586L134.032 273.769L134.15 271.669L133.443 269.685L132.384 267.7L130.735 265.366L129.911 264.316L129.205 263.849L127.439 263.382L126.968 263.149L125.908 262.332L123.907 260.114L121.434 256.73L120.374 255.563L119.315 255.446L115.901 259.764L115.194 260.348L114.017 260.464L111.544 259.881L107.07 258.13L113.546 251.944L115.665 249.027L117.549 244.475L118.138 242.608L121.905 240.157L126.85 238.756L129.793 240.157L136.151 246.809L143.686 247.976L183.363 232.454L187.013 229.419L194.077 217.281L197.492 214.48L202.554 213.663L206.911 214.364L210.796 214.13L214.563 210.395L216.329 206.194L217.86 196.507L219.155 191.838L221.863 186.47L226.219 183.669L231.164 182.852L242.231 183.785L249.178 180.634L255.182 175.032L259.539 167.796L260.834 160.91L260.598 145.037L261.305 136.634L263.895 126.364L267.78 116.793L272.725 108.74L278.847 103.021L306.633 92.284L314.286 86.3318L315.228 87.7323L318.878 89.0161L318.995 91.3503L319.113 92.6342L319.349 93.2177L332.064 114.226L332.653 115.276L332.888 116.093L332.417 117.377L332.535 118.311L333.595 120.295L333.83 120.995V121.812L334.183 122.512L336.774 127.181L337.951 128.698L339.128 129.865L344.073 133.133L345.604 133.366L346.192 133.833L348.783 136.167L349.607 136.751L350.431 137.101L351.608 137.334L355.376 139.785L356.436 140.719L358.084 143.053L358.672 144.57L358.79 146.788L358.672 148.072L358.908 149.356L359.143 150.056L361.616 153.907L356.082 159.743L355.258 160.793L355.611 161.494H356.789L359.732 162.427L360.556 163.128L361.38 164.178L361.969 165.578L362.44 166.162L363.617 166.862L364.206 167.679V168.73L363.971 170.013L363.853 171.064L364.088 171.881L363.971 172.348L363.382 173.865V174.565L363.971 178.65L363.5 180.401L362.44 182.502L359.732 186.47L357.377 189.271L355.494 190.788L349.254 192.539L347.958 193.356L346.781 194.523L344.78 197.907L343.602 199.074L342.778 199.775L336.774 203.393L337.833 205.844L339.599 207.244L343.367 207.944L346.31 208.878L347.017 208.995L348.547 208.645L354.081 205.494L355.494 204.093L356.318 203.043L356.436 201.992L356.789 201.525L359.497 198.608H359.968L360.439 199.074L361.734 201.642L362.087 202.226H364.088L370.799 200.242L379.394 202.459L383.279 202.926L384.457 203.509L385.281 204.093L389.402 209.462L388.342 210.395L387.989 210.979L387.047 211.913L386.34 212.496L385.87 214.013L385.516 214.714L384.928 215.531L384.692 216.231L384.81 217.515L385.987 222.183V223.817V224.984L385.399 226.852L385.281 228.602L385.516 230.003L385.634 230.82L385.281 233.504V235.255L385.752 236.305L386.576 237.472L391.285 241.674L391.874 242.024L393.287 242.491L394.582 243.308L395.877 243.775L399.174 246.926L400.469 247.626L401.057 248.093V248.326L400.587 248.91L400.469 249.727L400.587 250.777L401.175 252.995L401.882 254.512L403.294 256.613L410.359 265.366L410.947 266.417L411.536 269.334Z" fill="#009649" stroke="white" stroke-width="2" stroke-linejoin="round"></path>
<path class="region" d="M1141.38 233.854L1131.73 231.403L1130.78 231.52L1125.49 233.037L1118.66 233.388L1117.6 233.037L1116.89 232.337L1116.66 230.703L1116.54 228.719L1113.36 221.25L1113.01 219.732L1112.89 218.565L1112.65 217.398L1112.06 216.231L1108.41 214.13L1102.88 214.247L1095.11 224.634L1090.75 226.502L1089.46 227.902V229.303L1089.58 230.12L1090.4 232.921L1090.99 235.955L1091.11 237.356L1090.87 238.406L1090.4 238.64L1089.69 238.873L1077.8 239.106L1071.68 240.157L1067.8 240.04L1063.44 238.873L1054.02 233.271L1052.73 232.104L1052.84 231.637L1052.37 231.053L1051.19 230.47L1048.37 229.069L1028.47 222.65L1020.7 222.417L1020.47 230.236L1020.82 231.403L1020.94 232.337V236.422L1021.05 237.589L1021.88 240.857L1022 241.441L1021.88 243.425L1022 244.242L1022.23 245.175L1023.41 247.86L1023.76 249.143V250.311L1023.41 251.594L1022.82 253.345L1022 254.279L1020.82 254.979L1016.93 256.263L1013.52 259.297L1008.81 260.114L1007.4 260.815L1006.93 262.332L1006.1 263.265L1005.28 263.732L1004.1 264.082L1002.45 264.433L1000.45 264.199L998.213 263.499L994.328 260.581L992.915 259.998L991.149 259.764L987.617 259.998L982.319 259.064L969.25 253.929L963.363 243.191L962.304 241.674L961.126 239.34L960.538 237.356L960.302 234.321L960.067 232.804L957.594 226.735L954.769 228.252L954.18 228.719L953.238 229.419L951.59 229.769L950.059 229.536L947.351 228.252L946.409 227.085L945.938 226.151L945.585 224.634L945.232 224.517L944.761 225.218L944.526 227.552L944.29 228.719L943.937 229.419L943.348 229.186L942.524 228.252L941.111 227.085L940.287 226.852H939.345L937.344 227.435L936.637 228.019L936.402 228.602L937.108 229.769L937.344 230.586V231.52L936.873 235.605L936.284 237.823L935.695 239.106L934.989 239.807L933.458 240.39L930.279 240.74L927.807 241.674L926.865 241.907H923.922L922.862 242.024L922.038 242.374L921.214 243.541L921.096 244.242L921.332 245.525L921.567 245.992L922.862 247.159L922.744 247.626L922.156 247.86L919.448 248.21L916.975 247.86L914.738 246.809L910.971 243.308L908.616 239.807L908.498 238.406L908.734 237.706L909.205 237.006L910.382 235.605L911.088 234.321L912.266 233.154L912.619 232.22L912.266 230.586L911.913 230.236L911.324 230.12L910.029 230.586L908.969 230.703L907.91 230.47L906.497 229.303L905.084 228.719L903.082 228.602L900.021 227.552L895.783 228.369L894.605 227.785L892.839 226.151L891.78 224.984L890.72 223.467L890.249 222.884L887.777 221.25L886.953 221.016L886.011 220.899L882.243 222.183H881.301L877.298 221.716L869.41 219.032L866.584 219.382L865.171 219.732L864.465 219.382L863.641 218.682L862.463 216.931L861.757 215.181V214.597L861.168 213.78L857.754 210.512L856.812 209.112L856.341 207.711L856.459 206.077L856.341 205.26L855.752 203.626L854.928 203.276L853.751 203.043L850.925 203.51L849.748 203.976L849.042 204.327L848.571 205.143L847.746 204.91L841.86 201.175L837.621 200.475L833.5 196.857L826.907 198.258H825.965L824.67 197.907L822.315 196.74L821.609 196.04V195.223L822.433 194.289L822.315 193.706L821.138 193.122L817.959 192.305L813.014 190.088L810.777 189.621L810.189 189.738L809.953 190.555L810.071 191.138L810.66 192.305V193.006L810.306 195.223L810.189 196.507L810.777 197.207L812.19 198.258V198.608L811.131 199.191L798.18 196.974L794.412 197.207L793.117 197.557L792.175 198.024L791.939 198.491L792.057 199.425L792.646 200.592V201.292L791.586 202.459L790.173 203.51L788.054 204.443L785.464 204.793L782.992 204.56L781.814 204.093L779.224 199.892L778.871 199.075L777.811 198.608L776.045 198.141L771.807 197.674L766.862 194.756L761.328 190.555L760.269 189.621L759.798 188.687L760.269 186.47L760.151 185.536L759.091 185.186L758.149 185.419L756.501 187.17L755.912 188.22L755.677 189.154L756.736 191.021L756.854 191.605L756.03 192.072L751.203 193.706L750.614 194.056V195.106L750.967 196.74L751.321 197.557L751.203 197.791L747.906 193.239L743.314 190.088L741.784 189.738L741.078 188.921L740.607 188.687L739.782 189.037L736.486 192.189L735.544 192.772H734.955L734.484 192.539H733.896L733.307 192.889L731.894 194.173L722.946 198.141L720.12 199.892L719.179 200.942L716.471 204.677L714.116 206.894L713.998 207.594L714.587 208.178L716.942 208.645L719.65 209.462L722.711 213.313L716.588 217.165L715.411 218.332L713.998 220.433L711.526 226.502L708.465 229.419L700.105 224.401L698.575 223.234L697.515 222.65L693.394 221.366L689.627 219.382H688.332L685.035 222.183L681.15 222.533L651.48 218.799L658.544 215.764L660.664 214.014L663.018 211.679L663.372 210.395L662.901 209.695L660.664 209.228L659.604 208.878L659.015 208.178L658.544 207.361L658.074 206.077L657.249 203.043L657.014 200.358L656.307 198.841L655.366 197.557L654.07 196.39L647.006 187.17L646.771 185.886L647.006 185.069L647.713 184.953L649.243 185.069H650.303L652.54 184.019L653.953 183.902L654.659 183.085L655.13 181.101L655.248 177.25L656.307 172.698L656.543 170.13V166.629L657.838 157.409L657.72 154.958L657.132 153.674L656.072 153.791L655.012 154.141L652.187 155.425L648.066 156.125H647.36L646.653 155.658L645.947 154.724L645.358 153.557L644.769 153.324L644.181 153.557L643.71 154.141L643.003 153.791L642.297 152.74L641.002 149.589L639.942 147.838L638.647 146.788L637.352 146.555L635.939 146.671L635.115 147.138L634.055 148.539L633.467 148.655L632.76 148.305L631.818 146.555L631.583 144.571L631.465 140.719L630.641 137.801L629.699 135.234L625.343 127.881L625.107 126.947L629.11 122.746L632.878 120.061L639.471 119.361L645.24 122.279L655.837 132.199L662.665 135.584L666.668 132.433L668.788 124.613L669.965 113.642L672.555 110.608L673.968 107.106L675.145 103.372L679.148 94.6183L680.326 92.9844L680.797 93.5679L685.388 94.0348L687.39 92.1674L691.864 86.7987L695.043 85.048L710.937 83.6475L711.997 82.247L713.41 77.9287L714.469 73.4937L714.94 70.5759L715.646 68.5918L717.766 67.0746L720.238 66.9579L728.715 70.1091L739.311 69.7589V64.3902L742.49 63.5732L760.033 72.4433L764.507 73.6104L769.334 71.8597L771.689 69.6422L774.986 65.5573L777.105 64.3902L778.988 64.2735L783.463 64.9738L791.351 63.69L794.53 64.2735L812.779 85.9817L816.075 88.4327L820.667 89.1329L824.199 88.8995L827.496 89.3663L831.381 92.2841L834.678 95.6687L838.092 98.1197L841.86 98.8199L846.687 97.0693L851.161 93.2178L857.872 83.4141L862.11 79.3292L865.407 78.6289H869.763L873.531 77.812L875.179 75.0109L872.707 70.2258L867.997 67.308L865.407 64.5069L869.645 59.8385L872.824 58.3213L881.184 56.6873L884.362 56.9207L888.13 59.4884L891.073 62.7563L894.134 64.9738L898.608 64.1568L902.141 60.8889L908.616 51.4353L912.384 48.8677L915.209 49.5679L926.747 55.6369L946.88 61.3557L950.295 61.239L957.947 59.6051L960.891 60.5388L967.837 57.7377L982.672 56.1037L986.44 57.0374L988.559 58.438L992.444 62.1727L994.446 63.5732L996.094 63.8067L999.273 63.1064L1001.27 63.69L1004.81 67.308L1011.75 77.9287L1014.93 80.4963L1017.05 78.9791L1019.99 75.5945L1023.53 72.3266L1027.65 71.5096L1031.41 73.7271L1039.07 80.613L1050.13 86.0984L1057.55 93.1011L1063.44 102.671L1066.15 113.759L1067.44 123.679L1073.33 127.998L1087.93 130.799L1094.64 135L1096.99 136.051L1099.11 136.284L1104.06 135.584L1105.71 135.934L1107.94 138.502L1108.06 140.719L1107.47 142.703L1107.94 144.687L1109.47 145.971L1119.13 148.889L1130.55 148.422L1134.9 150.173L1145.38 160.677L1152.92 163.011L1169.05 163.711L1176.23 167.212L1174.7 172.348L1173.17 179.467L1172.23 186.703V191.955L1169.05 194.64L1161.16 195.807L1157.51 198.608L1153.04 211.679L1150.45 217.281L1150.21 218.799V222.767L1149.86 224.751L1147.86 227.435L1142.91 231.637L1141.38 233.854Z" fill="#009649" stroke="white" stroke-width="2" stroke-linejoin="round" data-country-region="East Region"></path>
</svg>