<svg width="1440" height="332" viewBox="0 0 1440 332" fill="none" xmlns="http://www.w3.org/2000/svg">
<g clip-path="url(#clip0)">
<path d="M-0.000160217 -174.95C526 -204.597 887 -313.097 1474 -164.597V454C1474 454 1313.5 362.05 917 416.55C526.5 447.05 184.5 487.55 -0.000160217 416.55C-73.9158 264.956 -0.000160217 -174.95 -0.000160217 -174.95Z" fill="white"/>
<path d="M-0.000160217 -174.95C526 -204.597 887 -313.097 1474 -164.597V454C1474 454 1313.5 362.05 917 416.55C526.5 447.05 184.5 487.55 -0.000160217 416.55C-73.9158 264.956 -0.000160217 -174.95 -0.000160217 -174.95Z" fill="url(#paint0_linear)"/>
</g>
<defs>
<linearGradient id="paint0_linear" x1="1640.47" y1="-3256.63" x2="-2015.89" y2="-1543.47" gradientUnits="userSpaceOnUse">
<stop stop-color="#6FCCDD"/>
<stop offset="0.46069" stop-color="#F27AAA"/>
<stop offset="0.885934" stop-color="#9278B6"/>
</linearGradient>
<clipPath id="clip0">
<rect width="1440" height="457" fill="white"/>
</clipPath>
</defs>
</svg>
