<svg width="206" height="35" viewBox="0 0 206 35" fill="none" xmlns="http://www.w3.org/2000/svg">
<g clip-path="url(#clip0)">
<path d="M68.3884 0.432129H62.8541V25.105H68.3884V0.432129Z" fill="white"/>
<path d="M141.96 0.432129H136.426V25.105H141.96V0.432129Z" fill="white"/>
<path d="M0 21.5185L3.2503 17.6728C5.49039 19.4876 7.86224 20.6543 10.7173 20.6543C12.9573 20.6543 14.319 19.7901 14.319 18.321V18.2346C14.319 16.8519 13.4405 16.1605 9.26779 15.0802C4.21662 13.8271 0.966317 12.4444 0.966317 7.5185V7.4321C0.966317 2.93828 4.61195 0 9.75097 0C13.3966 0 16.5151 1.12345 19.0627 3.15432L16.2077 7.25925C13.9676 5.74691 11.8153 4.83951 9.70703 4.83951C7.59871 4.83951 6.50063 5.79013 6.50063 7.00001V7.0864C6.50063 8.72838 7.55479 9.2469 11.9032 10.3271C16.9983 11.6234 19.8533 13.4383 19.8533 17.716V17.8025C19.8533 22.6852 16.0759 25.4506 10.6294 25.4506C6.85203 25.4506 3.0307 24.1543 0 21.5185Z" fill="white"/>
<path d="M83.9812 0.259277H78.8861L68.1249 25.105H73.791L76.075 19.5741L78.0515 14.7778L81.3458 6.78398L84.6839 14.7778L82.5756 19.5741H86.6605L88.9445 25.105H94.7424L83.9812 0.259277Z" fill="white"/>
<path d="M143.234 0.432115H148.329L160.1 15.642V0.432115L165.547 0.30249V25.1049H160.847L148.68 9.41976V25.1049L143.278 25.2778L143.234 0.432115Z" fill="white"/>
<path d="M165.02 21.7778L168.49 17.9753C169.939 19.5309 171.301 20.4383 173.058 20.4383C175.122 20.4383 176.44 19.1852 176.44 16.3333V0.432115L182.106 0.30249V16.5926C182.106 19.5309 181.227 21.6914 179.734 23.2037C178.197 24.7161 175.956 25.4938 173.233 25.4938C169.324 25.4506 166.733 23.7654 165.02 21.7778Z" fill="white"/>
<path d="M194.887 0.259277H189.792L179.031 25.105H184.653L186.937 19.5741L188.914 14.7778L192.252 6.78398L195.59 14.7778L193.482 19.5741H197.567L199.851 25.105H205.605L194.887 0.259277Z" fill="white"/>
<path d="M59.472 17.6296C57.4955 19.4012 55.7385 20.5247 52.8835 20.5247C48.579 20.5247 45.5923 16.9815 45.5923 12.7901V12.7037C45.5923 8.46912 48.623 5.01233 52.8835 5.01233C55.3871 5.01233 57.3637 6.04938 59.2963 7.77778L62.8102 3.80246C60.4823 1.55555 57.6712 0 52.9275 0C47.8324 0 43.7475 2.50617 41.5953 6.26543C42.913 8.12346 43.6596 10.3704 43.6596 12.7469C43.6596 15.1667 42.869 17.4136 41.5513 19.2716C43.7036 23.0309 47.7884 25.4938 52.7078 25.4938C57.5394 25.4938 60.3944 23.8086 62.9859 21.0864L59.472 17.6296Z" fill="white"/>
<path d="M129.705 0.432129V15.642L117.978 0.432129H112.883V14.6914L118.329 24.9753V9.41978L130.452 25.105H135.152V0.432129H129.705Z" fill="white"/>
<path d="M110.072 20.179H100.408L100.452 0.30249H95.0498L94.9181 25.1049H112.663L110.072 20.179Z" fill="white"/>
<g clip-path="url(#clip1)">
<path d="M22.8098 10.9326C22.4342 11.1615 22.1244 11.4799 21.9097 11.8577C21.6949 12.2356 21.5822 12.6606 21.5822 13.0927C21.5822 13.5247 21.6949 13.9497 21.9097 14.3276C22.1244 14.7054 22.4342 15.0238 22.8098 15.2527C23.2994 17.0898 24.4 18.7165 25.9392 19.8776C27.4784 21.0387 29.369 21.6687 31.3147 21.6687C33.2603 21.6687 35.151 21.0387 36.6901 19.8776C38.2293 18.7165 39.3299 17.0898 39.8195 15.2527C40.1963 15.0247 40.5073 14.7067 40.723 14.3287C40.9386 13.9507 41.0518 13.5253 41.0518 13.0927C41.0518 12.6601 40.9386 12.2346 40.723 11.8566C40.5073 11.4786 40.1963 11.1606 39.8195 10.9326C39.3299 9.09552 38.2293 7.46885 36.6901 6.30771C35.151 5.14656 33.2603 4.5166 31.3147 4.5166C29.369 4.5166 27.4784 5.14656 25.9392 6.30771C24.4 7.46885 23.2994 9.09552 22.8098 10.9326ZM31.349 20.3151C29.8715 20.3269 28.4283 19.8811 27.2271 19.0418C26.0259 18.2025 25.1287 17.013 24.6646 15.6445H37.9965C37.5495 17.0162 36.6617 18.2111 35.4644 19.0523C34.2672 19.8934 32.8242 20.3362 31.349 20.3151ZM26.4506 13.0978C26.4496 12.8419 26.5263 12.5914 26.6712 12.3781C26.8161 12.1647 27.0225 11.9981 27.2645 11.8992C27.5064 11.8003 27.773 11.7737 28.0305 11.8226C28.288 11.8715 28.5248 11.9938 28.711 12.1741C28.8972 12.3543 29.0245 12.5844 29.0767 12.8352C29.1289 13.086 29.1037 13.3462 29.0043 13.5831C28.9049 13.8199 28.7357 14.0226 28.5182 14.1657C28.3006 14.3087 28.0445 14.3856 27.7822 14.3866C27.6076 14.3873 27.4346 14.3543 27.273 14.2896C27.1115 14.2249 26.9647 14.1297 26.8409 14.0094C26.7172 13.8892 26.6191 13.7463 26.5521 13.589C26.4851 13.4317 26.4506 13.263 26.4506 13.0927V13.0978ZM33.5261 13.0978C33.525 12.8404 33.6024 12.5886 33.7483 12.3741C33.8942 12.1597 34.1021 11.9924 34.3456 11.8934C34.5892 11.7945 34.8574 11.7683 35.1162 11.8183C35.3749 11.8682 35.6127 11.9921 35.7992 12.1741C35.9858 12.356 36.1127 12.588 36.1639 12.8405C36.2151 13.093 36.1883 13.3546 36.0869 13.5922C35.9855 13.8298 35.814 14.0326 35.5942 14.175C35.3744 14.3173 35.1162 14.3928 34.8524 14.3918C34.6778 14.3918 34.5049 14.3581 34.3436 14.2928C34.1823 14.2274 34.0359 14.1317 33.9127 14.011C33.7894 13.8902 33.6919 13.747 33.6255 13.5894C33.5592 13.4318 33.5254 13.263 33.5261 13.0927V13.0978ZM37.97 10.546H24.6117C25.0551 9.16603 25.9441 7.963 27.146 7.11656C28.3479 6.27012 29.7982 5.82568 31.2803 5.84961C32.7609 5.83967 34.2065 6.2886 35.4088 7.13169C36.611 7.97479 37.5079 9.16851 37.97 10.5408V10.546Z" fill="white"/>
<path d="M18.7992 13.0927V13.1597C18.7992 19.6913 24.0146 24.9754 31.2803 24.9754C38.546 24.9754 43.8354 19.6243 43.8354 13.1185V13.0514C43.8354 6.49403 38.62 1.20996 31.349 1.20996C24.078 1.20996 18.7992 6.56105 18.7992 13.0927ZM42.1868 13.0927C42.1868 15.1912 41.5488 17.2427 40.3537 18.9875C39.1585 20.7323 37.4598 22.0921 35.4724 22.895C33.485 23.6978 31.2981 23.9076 29.1885 23.4978C27.0789 23.088 25.1412 22.0771 23.6205 20.5928C22.0999 19.1086 21.0646 17.2177 20.6456 15.1593C20.2266 13.1009 20.4427 10.9676 21.2666 9.02907C22.0905 7.09055 23.4851 5.43394 25.2742 4.26879C27.0632 3.10364 29.1662 2.48227 31.3173 2.48329C34.1997 2.48739 36.9627 3.60664 39.0004 5.59554C41.0381 7.58445 42.184 10.2806 42.1868 13.0927Z" fill="white"/>
</g>
<path d="M112.839 27.179H115.826C116.353 27.179 116.836 27.2654 117.319 27.4814C117.802 27.6975 118.197 27.9567 118.549 28.3024C118.9 28.6481 119.164 29.0802 119.383 29.5123C119.603 29.9876 119.691 30.4629 119.691 30.9814C119.691 31.5 119.603 31.9753 119.383 32.4506C119.208 32.9259 118.9 33.3148 118.549 33.6604C118.197 34.0061 117.802 34.3086 117.319 34.5246C116.836 34.7407 116.353 34.8271 115.826 34.8271H112.839V27.179ZM114.859 33.1851H115.342C115.694 33.1851 116.001 33.1419 116.265 33.0123C116.528 32.8827 116.792 32.753 116.968 32.5802C117.143 32.4074 117.319 32.1481 117.407 31.8888C117.495 31.6296 117.539 31.3271 117.539 31.0246C117.539 30.7222 117.495 30.4197 117.363 30.1604C117.275 29.9012 117.099 29.6851 116.924 29.4691C116.748 29.2963 116.484 29.1234 116.221 29.037C115.957 28.9074 115.65 28.8642 115.298 28.8642H114.815V33.1851H114.859Z" fill="white"/>
<path d="M122.985 27.179H120.965V34.8703H122.985V27.179Z" fill="white"/>
<path d="M128.431 30.5928H132.472C132.472 30.9817 132.472 31.3705 132.428 31.7162C132.385 32.0619 132.341 32.3643 132.209 32.6236C132.077 33.0125 131.857 33.3582 131.638 33.7039C131.374 34.0063 131.111 34.2656 130.759 34.4817C130.408 34.6977 130.057 34.8273 129.661 34.957C129.266 35.0866 128.827 35.1298 128.388 35.1298C127.773 35.1298 127.246 35.0434 126.718 34.8274C126.235 34.6113 125.796 34.352 125.445 34.0064C125.093 33.6607 124.786 33.2286 124.61 32.7101C124.391 32.1915 124.303 31.673 124.303 31.0681C124.303 30.4631 124.391 29.9014 124.61 29.4261C124.786 28.9076 125.093 28.5187 125.445 28.1298C125.796 27.7841 126.235 27.4817 126.762 27.3088C127.289 27.0928 127.86 27.0063 128.475 27.0063C129.31 27.0063 130.013 27.1792 130.628 27.5249C131.243 27.8706 131.726 28.389 132.077 29.1236L130.144 29.9014C129.969 29.4693 129.749 29.1668 129.442 28.994C129.134 28.8212 128.827 28.7347 128.475 28.7347C128.168 28.7347 127.904 28.7779 127.641 28.9076C127.377 29.0372 127.202 29.1668 127.026 29.3829C126.85 29.5989 126.718 29.8582 126.631 30.1175C126.543 30.4199 126.499 30.7224 126.499 31.1113C126.499 31.4569 126.543 31.7595 126.631 32.0187C126.718 32.278 126.85 32.5372 127.026 32.7533C127.202 32.9693 127.421 33.0989 127.685 33.2286C127.948 33.3582 128.256 33.4014 128.563 33.4014C128.783 33.4014 128.959 33.3582 129.134 33.315C129.31 33.2718 129.486 33.1854 129.617 33.099C129.749 33.0125 129.881 32.8829 129.969 32.7101C130.057 32.5372 130.144 32.3644 130.144 32.1483H128.475V30.5928H128.431Z" fill="white"/>
<path d="M135.767 27.179H133.746V34.8703H135.767V27.179Z" fill="white"/>
<path d="M140.379 28.9073V34.8703H138.358V28.9073H136.689V27.179H142.048V28.9073H140.379Z" fill="white"/>
<path d="M147.362 33.5308H144.464L143.98 34.8703H141.828L144.815 27.179H147.011L149.998 34.8703H147.846L147.362 33.5308ZM146.835 32.0185L145.913 29.4691L144.991 32.0185H146.835Z" fill="white"/>
<path d="M152.897 27.179V33.1851H155.356V34.8703H150.876V27.179H152.897Z" fill="white"/>
<path d="M164.712 33.5308H161.813L161.33 34.8703H159.178L162.165 27.179H164.361L167.348 34.8703H165.195L164.712 33.5308ZM164.141 32.0185L163.219 29.4691L162.296 32.0185H164.141Z" fill="white"/>
<path d="M171.784 30.5928H175.825C175.825 30.9817 175.825 31.3705 175.781 31.7162C175.737 32.0619 175.693 32.3643 175.561 32.6236C175.429 33.0125 175.21 33.3582 174.99 33.7039C174.727 34.0063 174.463 34.2656 174.112 34.4817C173.76 34.6977 173.409 34.8273 173.014 34.957C172.618 35.0866 172.179 35.1298 171.74 35.1298C171.125 35.1298 170.598 35.0434 170.071 34.8274C169.588 34.6113 169.148 34.352 168.797 34.0064C168.446 33.6607 168.138 33.2286 167.962 32.7101C167.743 32.1915 167.655 31.673 167.655 31.0681C167.655 30.4631 167.743 29.9014 167.962 29.4261C168.138 28.9076 168.446 28.5187 168.797 28.1298C169.148 27.7841 169.588 27.4817 170.115 27.3088C170.642 27.0928 171.213 27.0063 171.828 27.0063C172.662 27.0063 173.365 27.1792 173.98 27.5249C174.595 27.8706 175.078 28.389 175.429 29.1236L173.497 29.9014C173.321 29.4693 173.101 29.1668 172.794 28.994C172.487 28.8212 172.179 28.7347 171.828 28.7347C171.52 28.7347 171.257 28.7779 170.993 28.9076C170.73 29.0372 170.554 29.1668 170.378 29.3829C170.202 29.5989 170.071 29.8582 169.983 30.1175C169.895 30.4199 169.851 30.7224 169.851 31.1113C169.851 31.4569 169.895 31.7595 169.983 32.0187C170.071 32.278 170.202 32.5372 170.378 32.7533C170.554 32.9693 170.774 33.0989 171.037 33.2286C171.301 33.3582 171.608 33.4014 171.916 33.4014C172.135 33.4014 172.311 33.3582 172.487 33.315C172.662 33.2718 172.838 33.1854 172.97 33.099C173.101 33.0125 173.233 32.8829 173.321 32.7101C173.409 32.5372 173.497 32.3644 173.497 32.1483H171.828V30.5928H171.784Z" fill="white"/>
<path d="M181.535 28.9073H179.119V30.1604H181.403V31.8456H179.119V33.1851H181.535V34.8703H177.098V27.179H181.535V28.9073Z" fill="white"/>
<path d="M182.984 34.8703V27.179H185.005L188.782 31.8888V27.179H190.759V34.8703H188.782L185.005 30.1604V34.8703H182.984Z" fill="white"/>
<path d="M198.138 29.7718C197.655 29.21 197.084 28.9076 196.381 28.9076C196.073 28.9076 195.81 28.9508 195.546 29.0804C195.283 29.21 195.063 29.3397 194.887 29.5125C194.712 29.6854 194.536 29.9014 194.448 30.1607C194.36 30.4199 194.272 30.6792 194.272 30.9817C194.272 31.2841 194.316 31.5866 194.448 31.8459C194.536 32.1051 194.712 32.3212 194.887 32.5372C195.063 32.71 195.283 32.8829 195.546 32.9693C195.81 33.0989 196.073 33.1422 196.381 33.1422C197.04 33.1422 197.611 32.8829 198.138 32.3212V34.6977L197.918 34.7841C197.611 34.9137 197.303 34.957 197.04 35.0434C196.776 35.0866 196.513 35.1298 196.249 35.1298C195.722 35.1298 195.195 35.0434 194.712 34.8274C194.229 34.6113 193.789 34.352 193.394 33.9632C192.999 33.6175 192.735 33.1854 192.472 32.6669C192.252 32.1483 192.12 31.6298 192.12 31.0249C192.12 30.4199 192.252 29.9014 192.472 29.3829C192.691 28.9076 192.999 28.4755 193.394 28.1298C193.789 27.7841 194.185 27.4817 194.712 27.3088C195.195 27.0928 195.722 27.0063 196.293 27.0063C196.6 27.0063 196.908 27.0496 197.215 27.0928C197.523 27.136 197.83 27.2656 198.182 27.3952V29.7718H198.138Z" fill="white"/>
<path d="M201.3 31.1975L198.445 27.179H200.905L202.354 29.2962L203.76 27.179H206.176L203.321 31.1975V34.8703H201.3V31.1975Z" fill="white"/>
</g>
<defs>
<clipPath id="clip0">
<rect width="206" height="35" fill="white"/>
</clipPath>
<clipPath id="clip1">
<rect width="25.0362" height="23.7654" fill="white" transform="translate(18.7992 1.20996)"/>
</clipPath>
</defs>
</svg>
