<svg width="24" height="24" viewBox="0 0 24 24" fill="none" xmlns="http://www.w3.org/2000/svg">
<path d="M10.8439 24C16.8023 24 21.6326 19.1698 21.6326 13.2114C21.6326 11.378 21.1767 9.65294 20.3708 8.14193C20.2827 8.15452 20.192 8.15955 20.1039 8.15955C20.0535 8.15955 20.0006 8.15704 19.9478 8.15452L18.5752 8.04875L17.588 9.03594C18.341 10.2498 18.7767 11.6802 18.7767 13.2114C18.7767 17.5908 15.2258 21.1417 10.8464 21.1417C6.46695 21.1417 2.91352 17.5908 2.91352 13.2114C2.91352 8.83196 6.46441 5.28107 10.8438 5.28107C12.3776 5.28107 13.808 5.71675 15.0193 6.46973L15.9133 5.57572L15.7924 4.00174C15.7824 3.87582 15.7848 3.74991 15.7974 3.62651C14.3141 2.85841 12.6294 2.42273 10.8413 2.42273C4.8854 2.42273 0.0551758 7.25294 0.0551758 13.2114C0.0551758 19.1698 4.88542 24 10.8439 24Z" fill="#333333"/>
<path d="M10.844 10.4235C10.9145 10.4235 10.985 10.426 11.0555 10.4311L13.0475 8.43903L13.0903 8.39622C12.4078 8.07639 11.6473 7.89758 10.8439 7.89758C7.91005 7.89758 5.53271 10.2749 5.53271 13.2088C5.53271 16.1427 7.91005 18.5225 10.8439 18.5225C13.7778 18.5225 16.1552 16.1452 16.1552 13.2113C16.1552 12.408 15.9763 11.6474 15.6565 10.9649L15.6137 11.0078L13.6217 12.9998C13.6267 13.0703 13.6293 13.1408 13.6293 13.2113C13.6293 14.75 12.3827 15.9991 10.8414 15.9991C9.30019 15.9991 8.05609 14.75 8.05609 13.2113C8.05614 11.6726 9.30525 10.4235 10.844 10.4235Z" fill="#333333"/>
<path d="M21.9625 3.59119L22.6022 2.95152C22.8943 2.65939 22.8943 2.18846 22.6022 1.89633L22.1589 1.45058C22.0128 1.30451 21.8215 1.23148 21.6326 1.23148C21.4437 1.23148 21.2498 1.30451 21.1063 1.45058L20.3734 2.18342L20.2223 0.231689C20.2122 0.0881427 20.0938 0 19.9705 0C19.9075 0 19.8446 0.0226653 19.7942 0.0730325L16.9107 2.95656C16.6512 3.21595 16.5177 3.57608 16.5455 3.94376L16.553 4.05708L16.6915 5.86275L15.6489 6.90535L13.7728 8.78153L13.73 8.82434L11.9142 10.6401L11.1084 11.446C11.0026 11.5517 10.9371 11.6928 10.927 11.8413L10.8767 12.4735C10.8464 12.8412 11.1386 13.1534 11.5037 13.1534C11.5138 13.1534 11.5239 13.1534 11.5365 13.1534L12.2038 13.1207C12.36 13.1131 12.5086 13.0476 12.6169 12.9368L13.4152 12.1385L15.2309 10.3228L15.2737 10.28L17.1499 8.40378L18.2832 7.27051L19.9302 7.39643L20.0032 7.40147C20.0359 7.40399 20.0687 7.40399 20.0989 7.40399C20.4313 7.40399 20.7512 7.27303 20.9904 7.03631L23.8714 4.1553C24.0225 4.0042 23.9268 3.74229 23.7128 3.72718L21.9625 3.59119Z" fill="#333333"/>
</svg>
