<svg width="24" height="24" viewBox="0 0 24 24" fill="none" xmlns="http://www.w3.org/2000/svg">
<path d="M0 18.0331L2.8125 18.0381V5.96191L0 5.96686V18.0331Z" fill="#333333"/>
<path d="M4.21875 9.05225H7.03125V5.95447L4.21875 5.95941V9.05225Z" fill="#333333"/>
<path d="M8.4375 18.3696L16.2656 21.3975V2.60242L8.4375 5.63025V18.3696Z" fill="#333333"/>
<path d="M4.21875 10.4584H7.03125V13.5415H4.21875V10.4584Z" fill="#333333"/>
<path d="M4.21875 18.0407L7.03125 18.0457V14.9479H4.21875V18.0407Z" fill="#333333"/>
<path d="M21.8906 7.69836V16.3018L24 15.2471V8.75305L21.8906 7.69836Z" fill="#333333"/>
<path d="M19.0781 0C18.3014 0 17.6719 0.629517 17.6719 1.40625V22.5938C17.6719 23.3705 18.3014 24 19.0781 24C19.8549 24 20.4844 23.3705 20.4844 22.5938V1.40625C20.4844 0.629517 19.8549 0 19.0781 0Z" fill="#333333"/>
</svg>
