<svg width="24" height="24" viewBox="0 0 24 24" fill="none" xmlns="http://www.w3.org/2000/svg">
<path d="M10.5938 4.92297V7.92091L12.8418 6.42194L10.5938 4.92297Z" fill="#333333"/>
<path d="M24 0H0V12.75H24V0ZM9.1875 2.29584L15.3769 6.42188L9.1875 10.5479V2.29584ZM14.8125 10.9318L13.8182 9.9375L14.8125 8.94323L15.8068 9.9375L14.8125 10.9318ZM17.625 10.9318L16.6307 9.9375L17.625 8.94323L18.6193 9.9375L17.625 10.9318ZM20.4375 10.9318L19.4432 9.9375L20.4375 8.94323L21.4318 9.9375L20.4375 10.9318Z" fill="#333333"/>
<path d="M7.07812 19.0781C7.07812 17.9131 6.13373 16.9688 4.96875 16.9688H2.10938C0.944391 16.9688 0 17.9131 0 19.0781V24H7.07812V19.0781Z" fill="#333333"/>
<path d="M15.5156 19.0781C15.5156 17.9131 14.5712 16.9688 13.4062 16.9688H10.5938C9.42877 16.9688 8.48438 17.9131 8.48438 19.0781V24H15.5156V19.0781Z" fill="#333333"/>
<path d="M24 19.0781C24 17.9131 23.0087 16.9688 21.8438 16.9688H19.0312C17.8663 16.9688 16.9219 17.9131 16.9219 19.0781V24H24V19.0781Z" fill="#333333"/>
<path d="M16.2187 16.9905C16.86 16.129 17.8771 15.5625 19.0312 15.5625H19.6052C19.3147 14.7451 18.542 14.1562 17.6249 14.1562H14.8124C13.8953 14.1562 13.1227 14.7451 12.8322 15.5625H13.4062C14.5602 15.5625 15.5773 16.129 16.2187 16.9905Z" fill="#333333"/>
<path d="M11.1677 15.5625C10.8772 14.7451 10.1045 14.1562 9.18743 14.1562H6.37493C5.45783 14.1562 4.68518 14.7451 4.39465 15.5625H4.96868C6.12275 15.5625 7.13984 16.129 7.78118 16.9905C8.42253 16.129 9.43962 15.5625 10.5937 15.5625H11.1677Z" fill="#333333"/>
</svg>
