<svg width="24" height="24" viewBox="0 0 24 24" fill="none" xmlns="http://www.w3.org/2000/svg">
<path d="M8.74407 13.2407C8.74407 12.9401 8.50021 12.6965 8.19932 12.6965H6.29836C5.99781 12.6965 5.75391 12.9401 5.75391 13.2407V15.1415C5.75391 15.4425 5.99781 15.6862 6.29836 15.6862H8.19932C8.50021 15.6862 8.74407 15.4425 8.74407 15.1415V13.2407Z" fill="#333333"/>
<path d="M13.4949 13.2407C13.4949 12.9401 13.251 12.6965 12.9507 12.6965H11.0495C10.7489 12.6965 10.505 12.9401 10.505 13.2407V15.1415C10.505 15.4425 10.7489 15.6862 11.0495 15.6862H12.9507C13.251 15.6862 13.4949 15.4425 13.4949 15.1415V13.2407Z" fill="#333333"/>
<path d="M18.2459 13.2407C18.2459 12.9401 18.002 12.6965 17.7015 12.6965H15.8005C15.4996 12.6965 15.2557 12.9401 15.2557 13.2407V15.1415C15.2557 15.4425 15.4996 15.6862 15.8005 15.6862H17.7015C18.002 15.6862 18.2459 15.4425 18.2459 15.1415V13.2407Z" fill="#333333"/>
<path d="M8.74407 17.992C8.74407 17.6909 8.50021 17.4475 8.19932 17.4475H6.29836C5.99781 17.4475 5.75391 17.6909 5.75391 17.992V19.8924C5.75391 20.1932 5.99781 20.4368 6.29836 20.4368H8.19932C8.50021 20.4368 8.74407 20.1932 8.74407 19.8924V17.992Z" fill="#333333"/>
<path d="M13.4949 17.992C13.4949 17.6909 13.251 17.4475 12.9507 17.4475H11.0495C10.7489 17.4475 10.505 17.6909 10.505 17.992V19.8924C10.505 20.1932 10.7489 20.4368 11.0495 20.4368H12.9507C13.251 20.4368 13.4949 20.1932 13.4949 19.8924V17.992Z" fill="#333333"/>
<path d="M18.2459 17.992C18.2459 17.6909 18.002 17.4475 17.7017 17.4475H15.8005C15.4996 17.4475 15.2557 17.6909 15.2557 17.992V19.8924C15.2557 20.1932 15.4996 20.4368 15.8005 20.4368H17.7017C18.002 20.4368 18.2459 20.1932 18.2459 19.8924V17.992Z" fill="#333333"/>
<path d="M21.6451 2.67229V5.57548C21.6451 6.8877 20.5805 7.94514 19.2685 7.94514H17.7693C16.4572 7.94514 15.3786 6.8877 15.3786 5.57548V2.66187H8.62134V5.57548C8.62134 6.8877 7.54276 7.94514 6.23084 7.94514H4.73135C3.41939 7.94514 2.35491 6.8877 2.35491 5.57548V2.67229C1.20824 2.70685 0.265991 3.65569 0.265991 4.82193V21.836C0.265991 23.0242 1.22904 24 2.41721 24H21.5827C22.7691 24 23.7339 23.0222 23.7339 21.836V4.82193C23.7339 3.65569 22.7917 2.70685 21.6451 2.67229ZM20.9487 20.7765C20.9487 21.29 20.5324 21.7066 20.0187 21.7066H3.94024C3.42656 21.7066 3.01023 21.29 3.01023 20.7765V11.9881C3.01023 11.4744 3.42651 11.0579 3.94024 11.0579H20.0187C20.5323 11.0579 20.9487 11.4744 20.9487 11.9881L20.9487 20.7765Z" fill="#333333"/>
<path d="M4.72607 6.38875H6.20898C6.65909 6.38875 7.02404 6.02434 7.02404 5.57423V0.814812C7.02404 0.364657 6.65909 0 6.20898 0H4.72607C4.27591 0 3.91101 0.364657 3.91101 0.814812V5.57423C3.91101 6.02434 4.27591 6.38875 4.72607 6.38875Z" fill="#333333"/>
<path d="M17.7503 6.38875H19.2332C19.683 6.38875 20.048 6.02434 20.048 5.57423V0.814812C20.048 0.364657 19.6831 0 19.2332 0H17.7503C17.3003 0 16.9353 0.364657 16.9353 0.814812V5.57423C16.9353 6.02434 17.3003 6.38875 17.7503 6.38875Z" fill="#333333"/>
</svg>
