<svg width="24" height="24" viewBox="0 0 24 24" fill="none" xmlns="http://www.w3.org/2000/svg">
<path d="M5.35254 17.2617C5.35254 16.8975 5.05756 16.6025 4.69336 16.6025H1.39746C1.03326 16.6025 0.738281 16.8975 0.738281 17.2617V22.5791C0.738281 22.9433 1.03326 23.2383 1.39746 23.2383H4.69336C5.05756 23.2383 5.35254 22.9433 5.35254 22.5791V17.2617Z" fill="#333333"/>
<path d="M10.6699 12.6475H7.37402C7.00983 12.6475 6.71484 12.9424 6.71484 13.3066V22.5791C6.71484 22.9433 7.00983 23.2383 7.37402 23.2383H10.6699C11.0341 23.2383 11.3291 22.9433 11.3291 22.5791V13.3066C11.3291 12.9424 11.0341 12.6475 10.6699 12.6475Z" fill="#333333"/>
<path d="M16.6025 11.3291H13.3066C12.9424 11.3291 12.6475 11.6241 12.6475 11.9883V22.5791C12.6475 22.9433 12.9424 23.2383 13.3066 23.2383H16.6025C16.9667 23.2383 17.2617 22.9433 17.2617 22.5791V11.9883C17.2617 11.6241 16.9667 11.3291 16.6025 11.3291Z" fill="#333333"/>
<path d="M22.5791 6.05566H19.2832C18.919 6.05566 18.624 6.35065 18.624 6.71484V22.5791C18.624 22.9433 18.919 23.2383 19.2832 23.2383H22.5791C22.9433 23.2383 23.2383 22.9433 23.2383 22.5791V6.71484C23.2383 6.35065 22.9433 6.05566 22.5791 6.05566Z" fill="#333333"/>
<path d="M3.08936 15.2402C4.17975 15.2402 5.06689 14.3531 5.06689 13.2627C5.06689 13.0774 5.03311 12.9018 4.98532 12.7318L7.55365 10.9188C7.8761 11.1477 8.26776 11.2852 8.69238 11.2852C9.69283 11.2852 10.5132 10.5359 10.6433 9.57047L13.2731 9.01675C13.6213 9.5842 14.2417 9.9668 14.9546 9.9668C16.045 9.9668 16.9321 9.07965 16.9321 7.98926C16.9321 7.72559 16.878 7.47482 16.7841 7.24466L19.9389 4.4404C20.2218 4.59654 20.5418 4.69336 20.8872 4.69336C21.9776 4.69336 22.8647 3.80621 22.8647 2.71582C22.8647 1.62543 21.9776 0.738281 20.8872 0.738281C19.7968 0.738281 18.9097 1.62543 18.9097 2.71582C18.9097 2.97949 18.9638 3.23026 19.0577 3.46042L15.9028 6.26468C15.6199 6.10854 15.3 6.01172 14.9546 6.01172C13.9541 6.01172 13.1337 6.76099 13.0037 7.72641L10.3738 8.28012C10.0257 7.71268 9.40526 7.33008 8.69238 7.33008C7.60199 7.33008 6.71484 8.21722 6.71484 9.30762C6.71484 9.49287 6.74863 9.66852 6.79642 9.83853L4.22809 11.6516C3.90564 11.4226 3.51398 11.2852 3.08936 11.2852C1.99896 11.2852 1.11182 12.1723 1.11182 13.2627C1.11182 14.3531 1.99896 15.2402 3.08936 15.2402Z" fill="#333333"/>
</svg>
