<svg width="49" height="41" viewBox="0 0 49 41" fill="none" xmlns="http://www.w3.org/2000/svg">
<path d="M35.3951 0.132812L19.7552 14.8916L26.3636 29.2097L48.8322 25.6853L35.3951 0.132812Z" fill="#A341FF"/>
<path d="M23.6177 31.543C23.6094 31.5293 23.6018 31.5151 23.5951 31.5005L16.0878 15.8304C16.0804 15.8157 16.0737 15.8006 16.0679 15.7852C15.8485 15.2954 15.8308 14.739 16.0186 14.2363C16.2064 13.7336 16.5846 13.325 17.0714 13.099C17.5581 12.873 18.1143 12.8478 18.6195 13.0288C19.1247 13.2097 19.5384 13.5823 19.771 14.066L23.2932 21.419L27.2782 29.736C27.5099 30.2205 27.5414 30.7767 27.3658 31.2841C27.1902 31.7916 26.8218 32.2094 26.3403 32.4471C25.8588 32.6848 25.303 32.7232 24.7934 32.554C24.2838 32.3848 23.8614 32.0215 23.6177 31.543V31.543Z" stroke="white" stroke-width="1.3" stroke-linecap="round" stroke-linejoin="round"/>
<path d="M16.2308 16.2132C16.0898 16.503 14.4759 19.2332 12.1357 21.7077C11.0614 22.8432 9.79421 23.8963 8.3728 24.5784L12.1597 32.4846H12.161C16.8999 30.2148 23.1533 31.7214 23.5974 31.8317C23.5891 31.818 23.7672 31.8463 23.7604 31.8317L16.2308 16.2132ZM16.2308 16.2132C16.2366 16.2286 16.0638 15.7726 16.2308 16.2132Z" stroke="white" stroke-width="1.3" stroke-linecap="round" stroke-linejoin="round"/>
<path d="M14.9232 36.5863C15.299 37.0246 15.4877 37.5928 15.4489 38.1687C15.4101 38.7447 15.1467 39.2824 14.7155 39.6662C14.2843 40.0501 13.7197 40.2493 13.1431 40.2211C12.5665 40.1929 12.024 39.9396 11.6323 39.5156L7.1899 34.6929L7.18591 34.6836L7.19256 34.6809L12.1761 32.2942H12.1775L12.1815 32.3035C12.9069 33.8434 13.8284 35.2829 14.9232 36.5863V36.5863Z" stroke="white" stroke-width="1.3" stroke-linecap="round" stroke-linejoin="round"/>
<path d="M3.21741 26.8804L8.20157 24.4933L11.9886 32.4005L7.00446 34.7876L3.21741 26.8804Z" stroke="white" stroke-width="1.3" stroke-linecap="round" stroke-linejoin="round"/>
<path d="M3.21393 26.7556L7.00081 34.6618L6.99416 34.6644L6.30407 34.9955C6.04024 35.122 5.75407 35.1953 5.46192 35.2112C5.16977 35.227 4.87735 35.1852 4.60137 35.088C4.3254 34.9908 4.07127 34.8402 3.85352 34.6448C3.63576 34.4494 3.45864 34.213 3.33227 33.9491L1.47075 30.0612C1.3442 29.7973 1.27089 29.5112 1.255 29.219C1.2391 28.9268 1.28095 28.6344 1.37813 28.3584C1.47531 28.0824 1.62593 27.8283 1.82138 27.6105C2.01682 27.3928 2.25327 27.2157 2.51719 27.0894L3.21393 26.7556Z" stroke="white" stroke-width="1.3" stroke-linecap="round" stroke-linejoin="round"/>
<path d="M29.4033 11.5532C25.7711 13.4845 24.3634 17.9103 26.2518 21.4618C28.1402 25.0133 32.5965 26.3212 36.2287 24.3899C39.8609 22.4586 41.2686 18.0328 39.3803 14.4813C37.4919 10.9298 33.0355 9.62192 29.4033 11.5532ZM35.7737 23.5341C32.6229 25.2094 28.7651 24.0772 27.127 20.9964C25.4889 17.9156 26.7075 14.0843 29.8584 12.409C33.0092 10.7337 36.8669 11.8659 38.505 14.9467C40.1431 18.0275 38.9245 21.8588 35.7737 23.5341Z" fill="white" stroke="white" stroke-width="0.3"/>
<path d="M33.4919 16.0754C33.6284 16.3322 33.8944 16.4103 34.157 16.2707C34.4196 16.131 34.5036 15.8668 34.3671 15.6101C33.8893 14.7115 32.7586 14.3797 31.6611 14.7437L31.4108 14.273C31.2743 14.0163 31.0083 13.9382 30.7457 14.0778C30.4831 14.2174 30.3991 14.4816 30.5356 14.7384L30.7859 15.209C29.8703 15.9154 29.5132 17.0383 29.9909 17.9369C30.4687 18.8355 31.5994 19.1673 32.697 18.8033L33.7208 20.7288C33.1274 20.8797 32.5953 20.7235 32.3678 20.2956C32.2313 20.0389 31.9652 19.9608 31.7026 20.1004C31.4401 20.24 31.356 20.5043 31.4925 20.761C31.9703 21.6596 33.101 21.9914 34.1986 21.6274L34.4261 22.0553C34.5626 22.312 34.8286 22.3901 35.0912 22.2505C35.3538 22.1109 35.4378 21.8466 35.3013 21.5899L35.051 21.1192C35.9665 20.4129 36.3237 19.2899 35.8459 18.3914C35.3682 17.4928 34.2374 17.1609 33.1399 17.525L32.1161 15.5995C32.7323 15.4914 33.2644 15.6476 33.4919 16.0754ZM30.8662 17.4715C30.6387 17.0437 30.8067 16.5152 31.2636 16.1076L32.2419 17.9475C31.6258 18.0556 31.0937 17.8994 30.8662 17.4715ZM34.9707 18.8567C35.1982 19.2846 35.0301 19.8131 34.5733 20.2207L33.5949 18.3807C34.2111 18.2727 34.7432 18.4288 34.9707 18.8567Z" fill="white" stroke="white" stroke-width="0.3"/>
</svg>
