<svg width="109" height="92" viewBox="0 0 109 92" fill="none" xmlns="http://www.w3.org/2000/svg">
<path d="M78.5 0L43 33.5L58 66L109 58L78.5 0Z" fill="#A341FF"/>
<path d="M51.767 71.2959C51.7481 71.2647 51.731 71.2325 51.7157 71.1993L34.6754 35.6308C34.6585 35.5974 34.6434 35.5632 34.6301 35.5282C34.1322 34.4165 34.0921 33.1534 34.5184 32.0123C34.9447 30.8712 35.8031 29.9439 36.908 29.4309C38.0128 28.918 39.2752 28.8607 40.422 29.2714C41.5688 29.6822 42.5077 30.528 43.0356 31.6257L51.0306 48.3159L60.0759 67.1943C60.6018 68.2939 60.6732 69.5564 60.2747 70.7082C59.8761 71.8601 59.0398 72.8085 57.9469 73.3481C56.8539 73.8876 55.5924 73.9747 54.4357 73.5906C53.2789 73.2065 52.3201 72.382 51.767 71.2959V71.2959Z" stroke="white" stroke-width="2" stroke-linecap="round" stroke-linejoin="round"/>
<path d="M35 36.5C34.6801 37.1579 31.0169 43.3549 25.705 48.9716C23.2663 51.5491 20.3901 53.9395 17.1637 55.4878L25.7593 73.4335H25.7623C36.5189 68.2816 50.7131 71.7011 51.7212 71.9516C51.7023 71.9204 52.1065 71.9847 52.0912 71.9516L35 36.5ZM35 36.5C35.0133 36.535 34.621 35.5 35 36.5Z" stroke="white" stroke-width="2" stroke-linecap="round" stroke-linejoin="round"/>
<path d="M32.0322 82.7436C32.8851 83.7383 33.3136 85.028 33.2254 86.3354C33.1372 87.6428 32.5395 88.8633 31.5607 89.7345C30.582 90.6057 29.3004 91.0579 27.9916 90.994C26.6829 90.93 25.4515 90.355 24.5623 89.3925L14.4788 78.4458L14.4697 78.4247L14.4848 78.4186L25.7967 73.0011H25.7998L25.8088 73.0222C27.4554 76.5175 29.5472 79.7851 32.0322 82.7436V82.7436Z" stroke="white" stroke-width="2" stroke-linecap="round" stroke-linejoin="round"/>
<path d="M5.46167 60.7124L16.7749 55.2941L25.3709 73.2422L14.0577 78.6606L5.46167 60.7124Z" stroke="white" stroke-width="2" stroke-linecap="round" stroke-linejoin="round"/>
<path d="M5.45394 60.4294L14.0496 78.3752L14.0345 78.3812L12.4681 79.1327C11.8692 79.4199 11.2197 79.5862 10.5565 79.6222C9.89337 79.6582 9.22963 79.5632 8.60321 79.3426C7.97679 79.122 7.39996 78.7802 6.90569 78.3366C6.41142 77.8931 6.00938 77.3565 5.72255 76.7575L1.49718 67.9325C1.20995 67.3337 1.04353 66.6841 1.00746 66.0209C0.971389 65.3578 1.06636 64.694 1.28695 64.0675C1.50754 63.4411 1.84942 62.8642 2.29306 62.37C2.73669 61.8757 3.27338 61.4737 3.87245 61.187L5.45394 60.4294Z" stroke="white" stroke-width="2" stroke-linecap="round" stroke-linejoin="round"/>
<path d="M64.8997 25.9224C56.6552 30.3061 53.46 40.3521 57.7463 48.4134C62.0326 56.4747 72.1478 59.4434 80.3923 55.0597C88.6368 50.676 91.832 40.63 87.5458 32.5687C83.2595 24.5074 73.1443 21.5387 64.8997 25.9224ZM79.3595 53.1172C72.2076 56.9199 63.4511 54.35 59.7329 47.3571C56.0147 40.3641 58.7807 31.6676 65.9326 27.8649C73.0845 24.0622 81.8409 26.6321 85.5591 33.625C89.2773 40.618 86.5113 49.3145 79.3595 53.1172Z" fill="white" stroke="white" stroke-width="0.3"/>
<path d="M74.1799 36.187C74.4898 36.7698 75.0937 36.947 75.6897 36.6301C76.2857 36.3132 76.4764 35.7135 76.1666 35.1307C75.0821 33.0911 72.5155 32.3379 70.0244 33.1641L69.4563 32.0958C69.1464 31.513 68.5426 31.3358 67.9466 31.6527C67.3506 31.9696 67.1598 32.5693 67.4697 33.1521L68.0377 34.2204C65.9597 35.8237 65.1489 38.3727 66.2334 40.4123C67.3179 42.4519 69.8844 43.2051 72.3756 42.3789L74.6995 46.7495C73.3526 47.0919 72.1448 46.7374 71.6284 45.7662C71.3186 45.1834 70.7147 45.0062 70.1187 45.3231C69.5227 45.64 69.3319 46.2397 69.6418 46.8225C70.7263 48.8621 73.2928 49.6153 75.784 48.7891L76.3004 49.7603C76.6103 50.3431 77.2142 50.5203 77.8102 50.2034C78.4061 49.8865 78.5969 49.2868 78.2871 48.704L77.719 47.6356C79.7971 46.0324 80.6078 43.4834 79.5233 41.4438C78.4388 39.4042 75.8723 38.6509 73.3811 39.4772L71.0572 35.1066C72.4557 34.8613 73.6635 35.2158 74.1799 36.187ZM68.22 39.356C67.7036 38.3847 68.0851 37.1852 69.1222 36.2601L71.3428 40.4364C69.9443 40.6817 68.7365 40.3272 68.22 39.356ZM77.5367 42.5001C78.0531 43.4714 77.6716 44.6709 76.6345 45.596L74.4139 41.4197C75.8125 41.1744 77.0202 41.5289 77.5367 42.5001Z" fill="white" stroke="white" stroke-width="0.3"/>
</svg>
