<svg width="29" height="37" viewBox="0 0 29 37" fill="none" xmlns="http://www.w3.org/2000/svg">
<path d="M25.696 0H18.9996C17.4379 0 16.1673 1.27057 16.1673 2.83231V9.5288C16.1673 11.0905 17.4379 12.3611 18.9996 12.3611H25.696C27.2578 12.3611 28.5284 11.0905 28.5284 9.5288V2.83231C28.5285 1.27057 27.2579 0 25.696 0ZM26.3605 9.5288C26.3605 9.89511 26.0624 10.1931 25.6961 10.1931H18.9997C18.6334 10.1931 18.3354 9.89511 18.3354 9.5288V2.83231C18.3354 2.46599 18.6334 2.16797 18.9997 2.16797H25.6961C26.0624 2.16797 26.3605 2.46599 26.3605 2.83231V9.5288Z" fill="white"/>
<path d="M20.5087 15.0673C19.9887 15.0673 19.4983 15.1964 19.0678 15.4242C18.5131 14.5932 17.567 14.045 16.4953 14.045C15.9418 14.045 15.4218 14.1912 14.9718 14.4471C14.4087 13.6823 13.5021 13.1853 12.4817 13.1853C12.1606 13.1853 11.8505 13.2346 11.5589 13.3259V12.361H11.8164C13.3782 12.361 14.6487 11.0905 14.6487 9.52873V2.83231C14.6487 1.27057 13.3782 0 11.8164 0H5.12C3.55827 0 2.2877 1.27057 2.2877 2.83231V9.5288C2.2877 11.0905 3.55827 12.3611 5.12 12.3611H5.37748V19.0762C5.2099 18.9081 5.02165 18.7583 4.81497 18.6299C4.14911 18.2163 3.36828 18.0723 2.60263 18.2198C1.77938 18.2528 1.04054 18.6121 0.560619 19.217C0.0564943 19.8524 -0.118605 20.7045 0.0800528 21.5547L1.50455 27.6511C2.31711 32.7376 6.28492 36.5433 6.45388 36.7032C6.65521 36.8938 6.92187 36.9999 7.19908 36.9999H19.3912C19.7561 36.9999 20.0965 36.8163 20.2969 36.5114C22.4563 33.2268 23.598 29.413 23.5985 25.4824L23.5997 18.1581C23.5997 18.158 23.5997 18.158 23.5997 18.158C23.5995 16.4538 22.213 15.0673 20.5087 15.0673ZM7.6545 34.832C6.78088 33.9028 4.20635 30.902 3.63993 27.2756C3.63574 27.249 3.63061 27.2225 3.62446 27.1963L2.191 21.0614C2.14316 20.8564 2.16723 20.68 2.25886 20.5644C2.35049 20.4489 2.50724 20.3885 2.71674 20.3686C2.82217 20.3585 2.86589 20.346 2.96338 20.3401C3.2093 20.3252 3.46143 20.3415 3.67086 20.4716C3.88029 20.6016 4.02641 20.8054 4.08248 21.0454L5.31888 26.3372C5.42214 26.779 5.78962 27.1099 6.23983 27.1662L6.32669 27.177C6.63534 27.2156 6.9455 27.1198 7.17863 26.9141C7.41176 26.7084 7.54524 26.4124 7.54524 26.1014V8.87364C7.54524 8.36482 7.95925 7.95081 8.46807 7.95081C8.97689 7.95081 9.3909 8.36482 9.3909 8.87364V16.2761V19.0385C9.3909 19.6372 9.87624 20.1225 10.4749 20.1225C11.0735 20.1225 11.5589 19.6372 11.5589 19.0385V16.2761C11.5589 15.7673 11.9728 15.3533 12.4816 15.3533C12.9904 15.3533 13.4045 15.7673 13.4045 16.2761V17.1358V19.162C13.4045 19.7606 13.8898 20.2459 14.4884 20.2459C15.0871 20.2459 15.5724 19.7606 15.5724 19.162V17.1358C15.5724 16.6269 15.9864 16.2129 16.4953 16.2129C17.0041 16.2129 17.418 16.6269 17.418 17.1358V18.158V19.9189C17.418 20.5176 17.9034 21.0029 18.502 21.0029C19.1007 21.0029 19.586 20.5176 19.586 19.9189V18.158C19.586 17.6492 20 17.2352 20.5088 17.2352C21.0176 17.2352 21.4317 17.6492 21.4317 18.1578L21.4305 25.4822C21.4301 28.7952 20.5207 32.0154 18.7954 34.832H7.6545ZM4.45566 9.5288V2.83231C4.45566 2.46599 4.75369 2.16797 5.12 2.16797H11.8164C12.1827 2.16797 12.4808 2.46599 12.4808 2.83231V9.5288C12.4808 9.89511 12.1827 10.1931 11.8164 10.1931H11.5589V8.87357C11.5589 7.16933 10.1724 5.78277 8.46814 5.78277C6.7639 5.78277 5.37734 7.16933 5.37734 8.87357V10.1931H5.11986C4.75369 10.1931 4.45566 9.89511 4.45566 9.5288Z" fill="white"/>
</svg>
