<svg width="34" height="41" viewBox="0 0 34 41" fill="none" xmlns="http://www.w3.org/2000/svg">
<path d="M8.48992 9.95714C9.47459 9.95714 10.4371 9.66515 11.2559 9.1181C12.0746 8.57105 12.7127 7.7935 13.0895 6.88379C13.4663 5.97407 13.5649 4.97305 13.3728 4.0073C13.1807 3.04155 12.7066 2.15446 12.0103 1.45819C11.314 0.761926 10.4269 0.287763 9.46119 0.0956641C8.49545 -0.0964352 7.49442 0.00215714 6.58471 0.378973C5.67499 0.755789 4.89744 1.39391 4.35039 2.21263C3.80334 3.03135 3.51135 3.9939 3.51135 4.97857C3.51246 6.29863 4.03734 7.56431 4.97077 8.49773C5.90419 9.43115 7.16986 9.95603 8.48992 9.95714ZM8.48992 2.09184C9.06086 2.09184 9.61898 2.26114 10.0937 2.57834C10.5684 2.89554 10.9384 3.34639 11.1569 3.87387C11.3754 4.40135 11.4326 4.98177 11.3212 5.54175C11.2098 6.10172 10.9349 6.61608 10.5312 7.0198C10.1274 7.42352 9.61307 7.69845 9.0531 7.80984C8.49312 7.92122 7.9127 7.86406 7.38522 7.64557C6.85774 7.42708 6.40689 7.05708 6.08969 6.58236C5.77249 6.10763 5.60319 5.54951 5.60319 4.97857C5.6043 4.2133 5.90879 3.47969 6.44992 2.93857C6.99104 2.39744 7.72465 2.09294 8.48992 2.09184Z" fill="white"/>
<path d="M1.1601 12.551C0.730401 13.0332 0.4076 13.6008 0.212914 14.2166C0.0182272 14.8323 -0.0439357 15.4824 0.0305111 16.1239L1.05133 23.7925C1.12128 24.4255 1.34107 25.0328 1.69248 25.5639C2.04389 26.095 2.51681 26.5347 3.07204 26.8466L4.72459 38.8621C4.79129 39.4494 5.07152 39.9917 5.51197 40.3859C5.95243 40.7801 6.52239 40.9986 7.11347 41H9.90816C10.497 41.0012 11.0658 40.7863 11.5069 40.3962C11.9479 40.006 12.2306 39.4677 12.3012 38.8831L13.9287 26.8424C14.4821 26.5336 14.9541 26.0974 15.3055 25.57C15.6569 25.0425 15.8776 24.439 15.9494 23.8093L16.9744 16.0988C17.0474 15.461 16.985 14.815 16.7911 14.203C16.5973 13.591 16.2764 13.0268 15.8495 12.5474C15.4226 12.068 14.8993 11.6841 14.3138 11.4208C13.7283 11.1576 13.0938 11.0209 12.4518 11.0198H11.1633C10.9807 11.0186 10.8003 11.0591 10.6357 11.1381C10.4712 11.2171 10.3268 11.3326 10.2136 11.4758L8.4899 13.6053L6.81643 11.48C6.70278 11.3359 6.55782 11.2196 6.39256 11.1399C6.22729 11.0602 6.04604 11.0191 5.86255 11.0198H4.56561C3.92215 11.0208 3.28615 11.1577 2.69928 11.4216C2.11241 11.6855 1.5879 12.0704 1.1601 12.551ZM2.72061 13.9442C2.94977 13.6812 3.23267 13.4704 3.55023 13.3261C3.86778 13.1817 4.21261 13.1072 4.56143 13.1075H5.43582L7.32683 15.4796C7.47133 15.6527 7.65208 15.7919 7.8563 15.8875C8.06053 15.983 8.28325 16.0325 8.50872 16.0325C8.73419 16.0325 8.95691 15.983 9.16114 15.8875C9.36537 15.7919 9.54611 15.6527 9.69061 15.4796L11.5816 13.12H12.4518C12.798 13.1198 13.1402 13.1925 13.4565 13.3332C13.7727 13.4739 14.0558 13.6796 14.2874 13.9368C14.519 14.194 14.6939 14.4971 14.8007 14.8263C14.9076 15.1555 14.944 15.5035 14.9076 15.8478L13.8868 23.5541C13.8474 23.9115 13.709 24.2508 13.4873 24.5338C13.2656 24.8169 12.9693 25.0325 12.6317 25.1564C12.4535 25.2213 12.2963 25.3335 12.1769 25.4809C12.0575 25.6283 11.9805 25.8053 11.954 25.9932L10.2219 38.6237C10.2136 38.7021 10.1765 38.7746 10.1178 38.8272C10.059 38.8797 9.98281 38.9086 9.90398 38.9082H7.11347C7.03188 38.9062 6.95397 38.8738 6.89511 38.8173C6.83626 38.7607 6.80072 38.6842 6.79551 38.6027L5.07184 25.9932C5.04535 25.8053 4.96829 25.6283 4.84891 25.4809C4.72952 25.3335 4.5723 25.2213 4.39408 25.1564C4.05413 25.0301 3.75636 24.8111 3.53453 24.5242C3.3127 24.2373 3.17567 23.894 3.13898 23.5332L2.1098 15.8603C2.06831 15.5145 2.10136 15.1638 2.20672 14.8319C2.31208 14.4999 2.4873 14.1944 2.72061 13.9358V13.9442Z" fill="white"/>
<path d="M17.058 10.8232C17.058 11.1006 17.1682 11.3666 17.3644 11.5627C17.5605 11.7589 17.8266 11.8691 18.104 11.8691H31.1277C31.2576 11.8691 31.3821 11.9207 31.4739 12.0124C31.5657 12.1042 31.6172 12.2287 31.6172 12.3586V22.7424C31.6172 22.8723 31.5657 22.9968 31.4739 23.0886C31.3821 23.1804 31.2576 23.2319 31.1277 23.2319H27.99C27.7126 23.2319 27.4466 23.3421 27.2504 23.5383C27.0543 23.7344 26.9441 24.0005 26.9441 24.2778V36.5193L24.8313 38.6111L22.7395 36.4984V35.5152L24.0866 34.1722C24.3275 33.9307 24.4628 33.6034 24.4628 33.2623C24.4628 32.9211 24.3275 32.5939 24.0866 32.3523L22.9361 31.2018L24.0908 30.0513C24.3307 29.8092 24.4653 29.4822 24.4653 29.1414C24.4653 28.8005 24.3307 28.4735 24.0908 28.2314L22.7144 26.8885V24.2653C22.7144 23.9879 22.6042 23.7219 22.408 23.5257C22.2119 23.3296 21.9458 23.2194 21.6685 23.2194H18.5307C18.2533 23.2194 17.9873 23.3296 17.7911 23.5257C17.595 23.7219 17.4848 23.9879 17.4848 24.2653C17.4848 24.5427 17.595 24.8087 17.7911 25.0049C17.9873 25.201 18.2533 25.3112 18.5307 25.3112H20.6225V27.0433C20.6218 27.2638 20.6647 27.4823 20.7487 27.6862C20.8327 27.8901 20.9562 28.0754 21.112 28.2314L22.0073 29.1267L21.271 29.8589C20.92 30.211 20.7229 30.6879 20.7229 31.1851C20.7229 31.6823 20.92 32.1592 21.271 32.5113L22.0031 33.2435L21.1078 34.1346C20.9502 34.2934 20.8261 34.4823 20.7427 34.69C20.6593 34.8976 20.6185 35.1199 20.6225 35.3437V36.7201C20.6221 36.9284 20.6629 37.1347 20.7426 37.3272C20.8223 37.5196 20.9393 37.6943 21.0869 37.8413L23.8147 40.5816C23.9444 40.7131 24.0987 40.8177 24.2688 40.8894C24.4389 40.9612 24.6216 40.9988 24.8062 41C24.9916 40.9996 25.1751 40.9624 25.346 40.8906C25.5169 40.8188 25.6719 40.7137 25.8019 40.5816L28.5715 37.8539C28.7193 37.707 28.8365 37.5323 28.9162 37.3398C28.9959 37.1474 29.0366 36.941 29.0359 36.7326V25.3238H31.1277C31.812 25.3227 32.4679 25.0503 32.9518 24.5665C33.4356 24.0826 33.708 23.4267 33.7091 22.7424V12.3586C33.708 11.6743 33.4356 11.0184 32.9518 10.5345C32.4679 10.0507 31.812 9.77835 31.1277 9.77724H18.1123C17.9743 9.77614 17.8374 9.80238 17.7095 9.85444C17.5816 9.90651 17.4654 9.98338 17.3673 10.0806C17.2693 10.1778 17.1915 10.2935 17.1385 10.421C17.0854 10.5484 17.058 10.6851 17.058 10.8232Z" fill="white"/>
</svg>
