<svg width="32" height="38" viewBox="0 0 32 38" fill="none" xmlns="http://www.w3.org/2000/svg">
<path d="M15.6927 0.00245304C15.5266 0.00895444 15.3636 0.0487783 15.2132 0.119575L0.699755 7.1469C0.490603 7.24911 0.314171 7.40815 0.190482 7.60597C0.0667932 7.8038 0.000802508 8.03248 0 8.26607V13.9009C0 24.3865 6.25033 33.3768 15.2521 37.3644C15.4112 37.4354 15.5833 37.4721 15.7574 37.4721C15.9316 37.4721 16.1037 37.4354 16.2628 37.3644C25.2652 33.377 31.5149 24.3869 31.5149 13.9009V8.26607C31.5141 8.03248 31.4481 7.8038 31.3244 7.60597C31.2007 7.40815 31.0243 7.24911 30.8151 7.1469L16.3017 0.119575C16.1118 0.0295362 15.9023 -0.0107561 15.6927 0.00245304ZM15.7574 2.63119L29.0269 9.0599V13.9009C29.0269 23.1854 23.6042 31.1022 15.7574 34.8137C7.91125 31.1019 2.48802 23.1849 2.48802 13.9009V9.0599L15.7574 2.63119ZM23.1049 12.4825C22.8263 12.5127 22.566 12.6365 22.3662 12.8338L13.6971 21.1495L10.0039 17.4406C9.89204 17.312 9.7551 17.2077 9.60154 17.1343C9.44798 17.0609 9.28106 17.0199 9.11109 17.0138C8.94113 17.0077 8.77172 17.0367 8.61334 17.0989C8.45497 17.1612 8.31098 17.2554 8.19028 17.3757C8.06957 17.496 7.97471 17.6399 7.91157 17.7985C7.84842 17.9571 7.81832 18.127 7.82312 18.2977C7.82793 18.4685 7.86754 18.6364 7.93951 18.7911C8.01148 18.9459 8.11428 19.0842 8.24156 19.1975L12.8029 23.7782C13.0318 24.0091 13.3415 24.141 13.6659 24.1458C13.9902 24.1507 14.3037 24.0281 14.5394 23.8043L24.0768 14.6427C24.2685 14.4647 24.3995 14.2306 24.4514 13.9737C24.5033 13.7167 24.4734 13.4499 24.3659 13.2109C24.2584 12.972 24.0788 12.773 23.8525 12.6423C23.6261 12.5116 23.3646 12.4556 23.1049 12.4825Z" fill="white"/>
</svg>
