<svg width="36" height="35" viewBox="0 0 36 35" fill="none" xmlns="http://www.w3.org/2000/svg">
<path d="M18 1C8.6625 1 1.125 8.37 1.125 17.5C1.125 26.63 8.6625 34 18 34C27.3375 34 34.875 26.63 34.875 17.5C34.875 8.37 27.3375 1 18 1ZM18 31.8C9.9 31.8 3.375 25.42 3.375 17.5C3.375 9.58 9.9 3.2 18 3.2C26.1 3.2 32.625 9.58 32.625 17.5C32.625 25.42 26.1 31.8 18 31.8Z" fill="#A341FF" stroke="#A341FF" stroke-width="0.3"/>
<path d="M21.375 14.4197C21.375 15.0797 21.825 15.5197 22.5 15.5197C23.175 15.5197 23.625 15.0797 23.625 14.4197C23.625 12.1097 21.7125 10.2397 19.125 9.79975V8.58975C19.125 7.92975 18.675 7.48975 18 7.48975C17.325 7.48975 16.875 7.92975 16.875 8.58975V9.79975C14.2875 10.2397 12.375 12.1097 12.375 14.4197C12.375 16.7297 14.2875 18.5997 16.875 19.0397V23.9897C15.525 23.6597 14.625 22.7797 14.625 21.6797C14.625 21.0197 14.175 20.5797 13.5 20.5797C12.825 20.5797 12.375 21.0197 12.375 21.6797C12.375 23.9897 14.2875 25.8597 16.875 26.2997V27.3997C16.875 28.0597 17.325 28.4997 18 28.4997C18.675 28.4997 19.125 28.0597 19.125 27.3997V26.1897C21.7125 25.7497 23.625 23.8797 23.625 21.5697C23.625 19.2597 21.7125 17.3897 19.125 16.9497V11.9997C20.475 12.4397 21.375 13.3197 21.375 14.4197ZM14.625 14.4197C14.625 13.3197 15.525 12.4397 16.875 12.1097V16.8397C15.525 16.3997 14.625 15.5197 14.625 14.4197ZM21.375 21.5697C21.375 22.6697 20.475 23.5497 19.125 23.8797V19.1497C20.475 19.5897 21.375 20.4697 21.375 21.5697Z" fill="#A341FF" stroke="#A341FF" stroke-width="0.3"/>
</svg>
