<svg width="43" height="48" viewBox="0 0 43 48" fill="none" xmlns="http://www.w3.org/2000/svg">
<path d="M34.8097 23.8618L30.2043 28.1094C28.1294 30.0233 24.9327 30.0233 22.8579 28.1094L18.2536 23.8618C17.0091 22.7141 16.3588 21.0612 16.4848 19.3734L16.7526 13.86C16.7807 13.4898 16.828 13.1252 16.8966 12.7685C17.2162 11.0729 17.9689 9.5381 19.0322 8.27788C19.5048 7.71641 20.0393 7.21008 20.6244 6.769C22.2717 5.52342 24.3206 4.78979 26.5316 4.78979C28.7426 4.78979 30.7916 5.52454 32.4389 6.769C32.7033 6.96816 32.9576 7.18082 33.2006 7.40586C33.4943 7.67928 33.7722 7.96958 34.031 8.27676C35.0943 9.53697 35.8471 11.0717 36.1666 12.7685C36.2353 13.1252 36.2825 13.4898 36.3107 13.86L36.5773 19.3734C36.7045 21.0611 36.0529 22.7141 34.8097 23.8618Z" stroke="white"/>
<path d="M29.8882 22.4541C29.8882 22.8034 29.8346 23.1404 29.7355 23.4562C29.309 24.8207 28.0356 25.8107 26.5316 25.8107C25.0267 25.8107 23.7533 24.8208 23.3277 23.4562C23.2286 23.1402 23.175 22.8034 23.175 22.4541H29.8882Z" stroke="white" stroke-width="1.3" stroke-linejoin="round"/>
<path d="M14.1369 12.7659C14.2175 6.00003 19.7467 0.520605 26.5313 0.520605C33.3158 0.520605 38.8449 6.00013 38.9256 12.7659H37.7627C37.6822 6.64101 32.6748 1.68335 26.5313 1.68335C20.3875 1.68335 15.3803 6.64101 15.2997 12.7659H14.1369Z" fill="white" stroke="url(#paint0_linear)" stroke-width="0.3"/>
<path d="M19.067 7.27197C18.9411 7.40364 18.8187 7.53873 18.7002 7.67712C17.7254 8.81384 17.0044 10.1712 16.6262 11.6679C16.8201 11.609 17.0107 11.5431 17.198 11.4704M19.067 7.27197L32.4931 10.002C32.493 10.002 32.493 10.0021 32.493 10.0021C32.4745 10.0207 32.4559 10.0392 32.4372 10.0577C30.8975 11.5764 28.7687 12.5169 26.4156 12.5169C24.0643 12.5169 21.9358 11.5777 20.396 10.0602L20.3369 10.0014L20.2776 10.0605C19.3774 10.9475 18.2772 11.6377 17.0477 12.0573C17.0916 11.8592 17.1417 11.6635 17.198 11.4704M19.067 7.27197C19.0729 7.26587 19.0788 7.25988 19.0847 7.25387C19.0896 7.24889 19.0946 7.24389 19.0994 7.23883C19.2167 7.11729 19.3369 6.99849 19.4603 6.88288C19.4676 6.87604 19.475 6.86929 19.4824 6.86254L19.067 7.27197ZM17.198 11.4704C17.5746 10.177 18.2239 9.00071 19.0797 8.0026L19.0799 8.00239C19.1925 7.87101 19.3087 7.74271 19.4284 7.61758L19.4288 7.61712C19.4381 7.60732 19.4384 7.60713 19.4388 7.60683C19.4393 7.60646 19.44 7.60593 19.4593 7.586L35.7836 12.0575C35.7398 11.8595 35.6897 11.6639 35.6336 11.4709M17.198 11.4704C18.2547 11.0601 19.2008 10.4342 19.9825 9.64874L20.337 9.29259L20.6914 9.64876C22.1448 11.1094 24.1714 12.0169 26.4156 12.0169C28.66 12.0169 30.6856 11.1095 32.1387 9.64931L32.493 9.29325L32.8474 9.64923C33.6296 10.4349 34.5764 11.0609 35.6336 11.4709M35.6336 11.4709C35.257 10.1764 34.6076 8.99981 33.7515 8.00146L33.7513 8.00118C33.4989 7.70647 33.2273 7.42718 32.9394 7.16343M35.6336 11.4709L32.9394 7.16343M32.9394 7.16343C32.8257 7.0597 32.708 6.95835 32.5867 6.85808C32.572 6.84588 32.5668 6.8419 32.5594 6.83631C32.5516 6.83032 32.5413 6.82248 32.5143 6.80075L32.5134 6.79996C32.428 6.73079 32.343 6.66368 32.2577 6.59896L32.1941 6.55171C30.5826 5.35443 28.5793 4.64624 26.4156 4.64624C24.2512 4.64624 22.2474 5.35353 20.6368 6.55124L20.6051 6.57485C20.4806 6.66823 20.3585 6.76447 20.2389 6.86355L20.2383 6.86405L20.218 6.88081L20.2004 6.89525C20.0794 6.99666 19.9607 7.10151 19.844 7.20935L19.844 7.20934L19.8191 7.23218L19.801 7.24882C19.6845 7.35796 19.5708 7.47044 19.4593 7.58593L32.9394 7.16343Z" stroke="white"/>
<path d="M22.143 18.4328C22.7644 18.4328 23.2682 17.929 23.2682 17.3076C23.2682 16.6861 22.7644 16.1824 22.143 16.1824C21.5216 16.1824 21.0178 16.6861 21.0178 17.3076C21.0178 17.929 21.5216 18.4328 22.143 18.4328Z" fill="white"/>
<path d="M30.9195 18.4328C31.5409 18.4328 32.0447 17.929 32.0447 17.3076C32.0447 16.6861 31.5409 16.1824 30.9195 16.1824C30.2981 16.1824 29.7943 16.6861 29.7943 17.3076C29.7943 17.929 30.2981 18.4328 30.9195 18.4328Z" fill="white"/>
<path d="M20.4665 26.2156L26.205 31.954L23.5045 36.3423L19.0038 27.3408L20.4665 26.2156Z" stroke="white" stroke-width="1.3" stroke-linecap="round" stroke-linejoin="round"/>
<path d="M32.5959 26.2156L26.8574 31.954L29.5579 36.3423L34.0586 27.3408L32.5959 26.2156Z" stroke="white" stroke-width="1.3" stroke-linecap="round" stroke-linejoin="round"/>
<path d="M20.8638 24.1713C20.8638 24.332 20.7989 24.4767 20.6939 24.5828C20.5878 24.6878 20.4431 24.7526 20.2824 24.7526H16.8247C15.285 24.7526 14.0368 23.5044 14.0368 21.9648V20.1581H15.1996V21.9648C15.1996 22.8622 15.9272 23.5899 16.8247 23.5899H20.2824C20.6035 23.5899 20.8638 23.8501 20.8638 24.1713Z" fill="white" stroke="url(#paint1_linear)" stroke-width="0.3"/>
<path d="M15.6689 11.6704C13.1309 11.6704 11.0735 13.7278 11.0735 16.2658C11.0735 18.8038 13.1309 20.8612 15.6689 20.8612" stroke="white" stroke-width="1.3"/>
<path d="M37.3936 11.6704C39.9315 11.6704 41.9889 13.7278 41.9889 16.2658C41.9889 18.8038 39.9315 20.8612 37.3936 20.8612" stroke="white" stroke-width="1.3"/>
<path d="M15.3322 11.605V21.077" stroke="white" stroke-width="1.3" stroke-linecap="round" stroke-linejoin="round"/>
<path d="M37.5804 11.3845V20.8565" stroke="white" stroke-width="1.3" stroke-linecap="round" stroke-linejoin="round"/>
<path d="M21.0138 24.1711C21.0138 24.3736 20.9316 24.5559 20.8 24.6887C20.6672 24.8203 20.4849 24.9024 20.2824 24.9024H18.1445V23.4397H20.2824C20.6863 23.4397 21.0138 23.767 21.0138 24.1711Z" fill="white"/>
<path d="M7.20112 22.3987C3.78403 22.3987 1.01404 25.1688 1.01404 28.5858C1.01404 30.505 1.88809 32.2201 3.25969 33.3549L2.00702 36.8624L5.23316 34.4531L5.2317 34.4508C5.85056 34.6585 6.51239 34.7729 7.20123 34.7729C10.6182 34.7729 13.3883 32.0027 13.3883 28.5858C13.3883 25.1688 10.6182 22.3987 7.20112 22.3987Z" fill="#A341FF" stroke="white" stroke-width="1.3" stroke-linecap="round" stroke-linejoin="round"/>
<path d="M6.26248 29.5919C6.26248 29.2248 6.32245 28.895 6.4424 28.6026C6.56223 28.3103 6.80955 28.0557 7.18435 27.8382C7.29675 27.7708 7.43538 27.6939 7.60033 27.6077C7.76506 27.5217 7.9263 27.4186 8.08371 27.2987C8.24113 27.1788 8.37401 27.0383 8.48282 26.8771C8.5914 26.716 8.64586 26.5305 8.64586 26.3206C8.64586 26.1632 8.61581 26.0247 8.55595 25.9047C8.49587 25.7848 8.41722 25.6837 8.31989 25.6012C8.22234 25.5188 8.10802 25.4569 7.97704 25.4157C7.84585 25.3746 7.71285 25.3539 7.57805 25.3539C7.4131 25.3539 7.26322 25.382 7.12831 25.4382C6.9934 25.4943 6.87155 25.5656 6.76296 25.6517C6.65416 25.738 6.55672 25.8355 6.47064 25.944C6.38445 26.0527 6.31131 26.1559 6.25145 26.2532L5.27344 25.5787C5.37077 25.3465 5.50005 25.1403 5.66129 24.9604C5.82231 24.7805 6.00594 24.6288 6.21207 24.5052C6.41809 24.3815 6.64099 24.2879 6.881 24.2242C7.12077 24.1606 7.36809 24.1287 7.62295 24.1287C7.90773 24.1287 8.18881 24.17 8.46616 24.2523C8.7433 24.3349 8.99253 24.4659 9.21374 24.6458C9.43473 24.8257 9.61453 25.0562 9.75327 25.3371C9.89189 25.6182 9.96121 25.9536 9.96121 26.3433C9.96121 26.5832 9.93319 26.7948 9.87693 26.9784C9.82078 27.1622 9.73999 27.3288 9.63524 27.4787C9.53026 27.6287 9.40649 27.7636 9.26426 27.8834C9.12181 28.0034 8.96069 28.1195 8.78088 28.2319C8.63089 28.3218 8.48102 28.4081 8.33114 28.4905C8.18115 28.573 8.04444 28.6648 7.92079 28.7659C7.79713 28.8671 7.69597 28.9833 7.61721 29.1144C7.53856 29.2456 7.49918 29.4049 7.49918 29.5921H6.26248V29.5919ZM6.28498 32.2111V30.6598H7.53282V32.2111H6.28498Z" fill="white"/>
<path d="M20.3944 35.5984L21.647 32.0908L18.4209 34.5002L18.4224 34.5024C17.8035 34.2947 17.1417 34.1804 16.4528 34.1804C13.0357 34.1804 10.2657 36.9505 10.2657 40.3675C10.2657 43.7845 13.0357 46.5546 16.4528 46.5546C19.8698 46.5546 22.6399 43.7845 22.6399 40.3675C22.64 38.4483 21.766 36.7332 20.3944 35.5984Z" fill="#A341FF" stroke="white" stroke-width="1.3" stroke-linecap="round" stroke-linejoin="round"/>
<path d="M15.7955 41.2846V36.8689H17.1105V41.2846H15.7955V41.2846ZM15.7955 43.9046V42.423H17.1105V43.9046H15.7955Z" fill="white"/>
<defs>
<linearGradient id="paint0_linear" x1="39.0765" y1="6.64326" x2="13.986" y2="6.64326" gradientUnits="userSpaceOnUse">
<stop stop-color="#A341FF"/>
<stop offset="1" stop-color="#7100DA"/>
</linearGradient>
<linearGradient id="paint1_linear" x1="21.0138" y1="22.4553" x2="13.8868" y2="22.4553" gradientUnits="userSpaceOnUse">
<stop stop-color="#A341FF"/>
<stop offset="1" stop-color="#7100DA"/>
</linearGradient>
</defs>
</svg>
