<svg width="96" height="106" viewBox="0 0 96 106" fill="none" xmlns="http://www.w3.org/2000/svg">
<path d="M77.7109 53.3212L67.2573 62.9626C62.5477 67.3069 55.2918 67.3069 50.5822 62.9626L40.1312 53.3212C37.3065 50.7161 35.8303 46.9643 36.1163 43.1333L36.7242 30.6187C36.7881 29.7784 36.8953 28.9509 37.0511 28.1413C37.7764 24.2924 39.4851 20.8088 41.8986 17.9483C42.9713 16.6738 44.1844 15.5245 45.5125 14.5234C49.2516 11.6961 53.9024 10.0309 58.921 10.0309C63.9397 10.0309 68.5905 11.6986 72.3296 14.5234C72.9298 14.9754 73.507 15.4581 74.0586 15.9689C74.7252 16.5896 75.3561 17.2485 75.9435 17.9457C78.357 20.8062 80.0656 24.2899 80.791 28.1413C80.9468 28.9509 81.054 29.7784 81.1179 30.6187L81.7232 43.1333C82.0118 46.9641 80.5328 50.7161 77.7109 53.3212Z" stroke="white" stroke-width="1.8"/>
<path d="M66.5397 50.1259C66.5397 50.9186 66.4181 51.6835 66.1931 52.4005C65.2251 55.4977 62.3348 57.7447 58.9208 57.7447C55.5049 57.7447 52.6145 55.4979 51.6486 52.4005C51.4236 51.6833 51.302 50.9186 51.302 50.1259H66.5397Z" stroke="white" stroke-width="2" stroke-linejoin="round"/>
<path d="M30.7459 28.1759C30.9074 12.7774 43.4845 0.3 58.9202 0.3C74.3559 0.3 86.9328 12.7776 87.0942 28.1759H84.3739C84.2125 14.277 72.8563 3.0202 58.9202 3.0202C44.9836 3.0202 33.6276 14.277 33.4663 28.1759H30.7459Z" fill="white" stroke="url(#paint0_linear)" stroke-width="0.6"/>
<path d="M73.213 13.7121C72.978 13.5218 72.7405 13.3348 72.4982 13.1539C72.4911 13.1485 72.484 13.1429 72.477 13.1372C72.4689 13.1308 72.4608 13.1243 72.4525 13.1182C72.4523 13.1184 72.452 13.1187 72.4518 13.1189C72.4514 13.1191 72.4511 13.1193 72.4507 13.1195C68.6031 10.2608 63.8199 8.57043 58.6577 8.57043C53.4942 8.57043 48.7097 10.2585 44.8634 13.1187L44.8629 13.1182M73.213 13.7121L72.3255 21.9886C68.8308 25.4357 63.9987 27.5704 58.6577 27.5704C53.3206 27.5704 48.4893 25.4386 44.9941 21.9942L44.86 21.8608L44.7253 21.9949C42.6189 24.0703 40.0301 25.6712 37.1348 26.6137C37.2096 26.2648 37.2929 25.9192 37.3845 25.577M73.213 13.7121C73.2376 13.7319 73.2625 13.7514 73.2873 13.7708C73.3212 13.7973 73.355 13.8237 73.3882 13.8512M73.213 13.7121L73.3882 13.8512M44.8629 13.1182C44.8605 13.12 44.8581 13.1219 44.8558 13.1238C44.8526 13.1264 44.8494 13.129 44.8461 13.1314M44.8629 13.1182L44.8633 13.1188L44.8695 13.1268L45.4077 13.8346C45.4146 13.8293 45.4197 13.8252 45.4216 13.8237L45.4203 13.8248L45.4032 13.8383C45.4023 13.8391 45.4013 13.8398 45.4003 13.8406C45.3948 13.8449 45.3881 13.8499 45.3805 13.8555C45.363 13.8686 45.3454 13.8817 45.3279 13.8948M44.8629 13.1182L44.8477 13.1336L44.8461 13.1314M44.8461 13.1314C44.5287 13.3679 44.2178 13.6123 43.9136 13.8643L43.825 13.9373M44.8461 13.1314L44.8477 13.1336L44.2318 13.7598L44.2352 13.7632L44.2362 13.7642L44.2366 13.7646L44.2368 13.7647L44.2369 13.7648L44.2369 13.7648L44.2369 13.7649L44.2369 13.7649L44.8482 13.1344L44.2369 13.7649L44.7864 14.2976L45.3279 13.8948M43.825 13.9373C43.5339 14.1811 43.2493 14.4324 42.9708 14.6899M43.825 13.9373L44.4028 14.6273C44.4019 14.628 44.401 14.6288 44.4001 14.6296M43.825 13.9373L44.3981 14.6312L44.4001 14.6296M42.9708 14.6899C42.9541 14.7054 42.9373 14.7207 42.9205 14.736C42.9036 14.7513 42.8868 14.7667 42.8701 14.7822M42.9708 14.6899L43.5836 15.349C43.5832 15.3493 43.5829 15.3497 43.5825 15.35M42.9708 14.6899L43.5818 15.3507C43.582 15.3505 43.5822 15.3503 43.5825 15.35M42.8701 14.7822C42.59 15.0446 42.3173 15.3142 42.0511 15.5901M42.8701 14.7822L43.4829 15.4413C43.4833 15.4409 43.4837 15.4406 43.4841 15.4402M42.8701 14.7822L43.4855 15.439C43.485 15.4394 43.4846 15.4398 43.4841 15.4402M42.0511 15.5901C42.04 15.6016 42.0288 15.613 42.0176 15.6243C42.0042 15.6379 41.9908 15.6515 41.9776 15.6653C41.6917 15.9642 41.4139 16.2709 41.1449 16.585C38.875 19.232 37.2112 22.4062 36.3721 25.9081C36.7139 25.8072 37.0515 25.6967 37.3845 25.577M42.0511 15.5901L42.6988 16.215M42.0511 15.5901L42.6989 16.2149M37.3845 25.577C38.2261 22.4317 39.7659 19.5757 41.8281 17.1708L41.8284 17.1705C42.0866 16.869 42.3533 16.5745 42.6279 16.2875L42.6287 16.2866C42.6484 16.2659 42.6507 16.2638 42.6538 16.2609C42.6575 16.2574 42.6624 16.2528 42.6988 16.215M37.3845 25.577C39.9899 24.6405 42.3183 23.139 44.2221 21.2259L44.86 20.5849L45.498 21.226C48.8397 24.5844 53.4991 26.6704 58.6577 26.6704C63.8165 26.6704 68.4738 24.5844 71.8146 21.2272L72.4524 20.5863L73.0903 21.2271C74.9953 23.1405 77.325 24.6421 79.9314 25.5778M42.6988 16.215L42.6989 16.2149M42.6988 16.215L79.9314 25.5778M42.6989 16.2149C42.9548 15.9497 43.2163 15.6912 43.4841 15.4402M42.6989 16.2149L43.4841 15.4402M79.9314 25.5778C79.0899 22.4301 77.5499 19.5735 75.4873 17.1683L75.4869 17.1677C74.9076 16.4912 74.2844 15.8505 73.6243 15.2457M79.9314 25.5778L73.6243 15.2457M73.6243 15.2457C73.3627 15.0071 73.0923 14.7743 72.8146 14.5447C72.7814 14.5172 72.7662 14.5055 72.7462 14.4902C72.7262 14.4748 72.7013 14.4556 72.6482 14.4128L72.6464 14.4114C72.4508 14.2529 72.2556 14.0987 72.059 13.9497L71.9139 13.8419C68.2169 11.0951 63.6208 9.47043 58.6577 9.47043C53.6929 9.47043 49.0957 11.093 45.4005 13.8409L45.3279 13.8948M73.6243 15.2457L43.5825 15.35M73.6243 15.2457C73.624 15.2454 73.6237 15.2452 73.6235 15.2449L74.2314 14.5813C73.9568 14.3308 73.6749 14.0882 73.3882 13.8512M73.6243 15.2457L73.3882 13.8512M45.3279 13.8948C45.0423 14.1092 44.7622 14.33 44.4877 14.5574L44.4866 14.5583L44.4408 14.596L44.4001 14.6296M44.4001 14.6296C44.1222 14.8623 43.8499 15.1029 43.5825 15.35" stroke="white" stroke-width="1.8"/>
<path d="M48.9595 40.9981C50.3701 40.9981 51.5135 39.8547 51.5135 38.4441C51.5135 37.0336 50.3701 35.8901 48.9595 35.8901C47.549 35.8901 46.4055 37.0336 46.4055 38.4441C46.4055 39.8547 47.549 40.9981 48.9595 40.9981Z" fill="white"/>
<path d="M68.8807 40.9981C70.2912 40.9981 71.4347 39.8547 71.4347 38.4441C71.4347 37.0336 70.2912 35.8901 68.8807 35.8901C67.4701 35.8901 66.3267 37.0336 66.3267 38.4441C66.3267 39.8547 67.4701 40.9981 68.8807 40.9981Z" fill="white"/>
<path d="M45.1542 58.6639L58.1796 71.6894L52.05 81.65L41.834 61.2179L45.1542 58.6639Z" stroke="white" stroke-width="1.8" stroke-linecap="round" stroke-linejoin="round"/>
<path d="M72.6863 58.6639L59.6609 71.6894L65.7905 81.65L76.0065 61.2179L72.6863 58.6639Z" stroke="white" stroke-width="1.8" stroke-linecap="round" stroke-linejoin="round"/>
<path d="M46.0963 54.0235C46.0963 54.3996 45.9444 54.7382 45.6989 54.9862C45.4509 55.2317 45.1123 55.3836 44.7362 55.3836H36.8877C33.3706 55.3836 30.5192 52.5323 30.5192 49.0151V44.8737H33.2394V49.0151C33.2394 51.0299 34.873 52.6634 36.8877 52.6634H44.7362C45.4874 52.6634 46.0963 53.2721 46.0963 54.0235Z" fill="white" stroke="url(#paint1_linear)" stroke-width="0.6"/>
<path d="M34.2643 25.6486C28.5035 25.6486 23.8335 30.3186 23.8335 36.0794C23.8335 41.8402 28.5035 46.5102 34.2643 46.5102" stroke="white" stroke-width="2"/>
<path d="M83.5759 25.6486C89.3367 25.6486 94.0067 30.3186 94.0067 36.0794C94.0067 41.8402 89.3367 46.5102 83.5759 46.5102" stroke="white" stroke-width="2"/>
<path d="M33.5 25.5V47" stroke="white" stroke-width="2" stroke-linecap="round" stroke-linejoin="round"/>
<path d="M84 25V46.5" stroke="white" stroke-width="2" stroke-linecap="round" stroke-linejoin="round"/>
<path d="M46.3963 54.0235C46.3963 54.4832 46.2098 54.897 45.911 55.1983C45.6096 55.4972 45.1959 55.6836 44.7362 55.6836H39.8835V52.3634H44.7362C45.653 52.3634 46.3963 53.1064 46.3963 54.0235Z" fill="white"/>
<path d="M15.0437 50C7.28745 50 1 56.2877 1 64.0437C1 68.4001 2.98395 72.2931 6.09728 74.8688L3.25391 82.8304L10.5767 77.3616L10.5734 77.3564C11.9781 77.8279 13.4804 78.0874 15.044 78.0874C22.7999 78.0874 29.0877 71.7997 29.0877 64.0437C29.0877 56.2877 22.7999 50 15.0437 50Z" fill="#A341FF" stroke="white" stroke-width="2" stroke-linecap="round" stroke-linejoin="round"/>
<path d="M12.9132 66.3277C12.9132 65.4943 13.0493 64.7458 13.3216 64.0822C13.5936 63.4187 14.1549 62.8407 15.0057 62.347C15.2608 62.1941 15.5755 62.0196 15.9499 61.824C16.3238 61.6286 16.6898 61.3947 17.0471 61.1224C17.4044 60.8504 17.706 60.5314 17.953 60.1654C18.1995 59.7999 18.3231 59.3788 18.3231 58.9025C18.3231 58.5451 18.2549 58.2308 18.119 57.9582C17.9826 57.6862 17.8041 57.4566 17.5832 57.2694C17.3617 57.0825 17.1023 56.942 16.805 56.8483C16.5072 56.755 16.2053 56.7081 15.8993 56.7081C15.5249 56.7081 15.1847 56.7719 14.8785 56.8994C14.5723 57.0268 14.2957 57.1887 14.0492 57.3841C13.8022 57.58 13.5811 57.8012 13.3857 58.0476C13.19 58.2943 13.024 58.5285 12.8882 58.7495L10.6682 57.2183C10.8891 56.6912 11.1826 56.2233 11.5486 55.8149C11.9141 55.4065 12.3309 55.0623 12.7988 54.7816C13.2664 54.5009 13.7723 54.2884 14.3171 54.1438C14.8614 53.9995 15.4227 53.927 16.0012 53.927C16.6476 53.927 17.2856 54.0207 17.9152 54.2077C18.5442 54.3952 19.11 54.6924 19.6121 55.1008C20.1137 55.5092 20.5218 56.0323 20.8367 56.67C21.1514 57.308 21.3087 58.0693 21.3087 58.9538C21.3087 59.4983 21.2451 59.9787 21.1174 60.3955C20.99 60.8126 20.8066 61.1908 20.5688 61.531C20.3305 61.8715 20.0496 62.1777 19.7268 62.4497C19.4034 62.722 19.0377 62.9855 18.6296 63.2407C18.2891 63.4448 17.9489 63.6406 17.6087 63.8276C17.2683 64.0151 16.958 64.2232 16.6773 64.4528C16.3966 64.6824 16.167 64.9462 15.9882 65.2438C15.8097 65.5416 15.7203 65.9032 15.7203 66.3282H12.9132V66.3277ZM12.9643 72.2729V68.7517H15.7967V72.2729H12.9643Z" fill="white"/>
<path d="M44.9904 79.9616L47.8337 72L40.5109 77.4689L40.5142 77.474C39.1095 77.0025 37.6073 76.743 36.0437 76.743C28.2874 76.743 22 83.0307 22 90.7867C22 98.5427 28.2874 104.83 36.0437 104.83C43.7997 104.83 50.0874 98.5427 50.0874 90.7867C50.0876 86.4304 48.1037 82.5376 44.9904 79.9616Z" fill="#A341FF" stroke="white" stroke-width="2" stroke-linecap="round" stroke-linejoin="round"/>
<path d="M34.5518 92.8685V82.8456H37.5366V92.8685H34.5518ZM34.5518 98.8155V95.4524H37.5366V98.8155H34.5518Z" fill="white"/>
<defs>
<linearGradient id="paint0_linear" x1="87.3958" y1="14.2379" x2="30.4443" y2="14.2379" gradientUnits="userSpaceOnUse">
<stop stop-color="#A341FF"/>
<stop offset="1" stop-color="#7100DA"/>
</linearGradient>
<linearGradient id="paint1_linear" x1="46.3963" y1="50.1287" x2="30.2192" y2="50.1287" gradientUnits="userSpaceOnUse">
<stop stop-color="#A341FF"/>
<stop offset="1" stop-color="#7100DA"/>
</linearGradient>
</defs>
</svg>
