<svg width="74" height="91" viewBox="0 0 74 91" fill="none" xmlns="http://www.w3.org/2000/svg">
<path d="M54.5859 64.1193H12.1916C9.87665 64.1193 8 62.2426 8 59.9277V5.19161C8 2.87665 9.87665 1 12.1916 1H43C51 8.85938 52.5 10.3594 58.7779 15.8594V59.928C58.7776 62.2426 56.9009 64.1193 54.5859 64.1193Z" stroke="white" stroke-width="2" stroke-linecap="round" stroke-linejoin="round"/>
<path d="M40.5749 18.7021L40.5749 18.7021C41.3552 19.0989 41.6662 20.0528 41.2694 20.8331L28.3665 46.2111C28.0868 46.7611 27.5303 47.0781 26.9524 47.0781C26.711 47.0781 26.4659 47.0227 26.2355 46.9057C25.4552 46.5089 25.1443 45.5549 25.541 44.7746L25.4074 44.7067L25.541 44.7746L38.4439 19.3966L38.3111 19.3291L38.4439 19.3966C38.8407 18.6162 39.7949 18.3053 40.5749 18.7021Z" fill="white" stroke="#A341FF" stroke-width="0.3"/>
<path d="M24.7983 20.4958C28.3436 20.4958 31.2282 23.3804 31.2282 26.9256C31.2282 30.4708 28.3437 33.3554 24.7985 33.3554C21.2533 33.3554 18.3688 30.4708 18.3688 26.9256C18.3688 23.3804 21.2533 20.4958 24.7983 20.4958ZM21.5385 26.9256C21.5385 28.7232 23.0009 30.1856 24.7985 30.1856C26.5962 30.1856 28.0584 28.7232 28.0585 26.9257C28.0585 25.1278 26.5962 23.6656 24.7985 23.6656C23.0009 23.6656 21.5385 25.1279 21.5385 26.9256Z" fill="white" stroke="#A341FF" stroke-width="0.3"/>
<path d="M35.6605 38.6822C35.6605 35.1371 38.5451 32.2525 42.0903 32.2525C45.6356 32.2525 48.52 35.137 48.52 38.6822C48.52 42.2275 45.6355 45.1119 42.0903 45.1119C38.5449 45.1119 35.6605 42.2274 35.6605 38.6822ZM38.8303 38.6821C38.8303 40.4797 40.2926 41.9421 42.0903 41.9421C43.888 41.9421 45.3503 40.4797 45.3503 38.6821C45.3503 36.8845 43.8879 35.4222 42.0903 35.4222C40.2926 35.4222 38.8303 36.8845 38.8303 38.6821Z" fill="white" stroke="#A341FF" stroke-width="0.3"/>
<circle cx="60.2742" cy="66.6336" r="12.2742" fill="#A341FF" stroke="white" stroke-width="2"/>
<path d="M56.5913 62.9513L63.6838 70.0438" stroke="white" stroke-width="3" stroke-linecap="round"/>
<path d="M63.687 62.9513L56.5945 70.0438" stroke="white" stroke-width="3" stroke-linecap="round"/>
<path d="M9.89478 74.9294C9.89478 74.2814 9.35478 73.7594 8.70678 73.7594H2.87478C2.01078 73.7594 1.38078 74.3894 1.38078 75.2534V85.1174C1.38078 85.8554 2.01078 86.5034 2.74878 86.5034C3.48678 86.5034 4.08078 85.8554 4.08078 85.1174V81.5354H7.86078C8.50878 81.5354 9.06678 81.0494 9.06678 80.4014C9.06678 79.7534 8.50878 79.2494 7.86078 79.2494H4.08078V76.1174H8.70678C9.35478 76.1174 9.89478 75.5954 9.89478 74.9294ZM20.8453 84.3254L18.5413 81.5714C20.1073 80.9054 21.0253 79.5194 21.0253 77.8994C21.0253 75.6314 19.2073 73.7594 16.3993 73.7594H13.1053C12.2413 73.7594 11.6113 74.3894 11.6113 75.2534V85.1354C11.6113 85.8734 12.2053 86.5034 12.9793 86.5034C13.7173 86.5034 14.3113 85.8734 14.3113 85.1354V81.9854H15.8593L18.9553 85.9094C19.1713 86.2154 19.5133 86.4134 19.9453 86.4134C20.6473 86.4134 21.1693 85.8554 21.1693 85.1534C21.1693 84.8294 21.0253 84.5414 20.8453 84.3254ZM14.3113 76.0634H16.2553C17.4433 76.0634 18.3973 76.4954 18.3973 77.8994C18.3973 79.3034 17.4433 79.6814 16.2553 79.6814H14.3113V76.0634ZM25.6667 84.0014V81.1754H28.6187C29.2667 81.1754 29.8067 80.6354 29.8067 80.0234C29.8067 79.4294 29.2667 78.9074 28.6187 78.9074H25.6667V76.1174H30.2927C30.9407 76.1174 31.4807 75.5954 31.4807 74.9294C31.4807 74.2814 30.9407 73.7594 30.2927 73.7594H24.4607C23.5967 73.7594 22.9667 74.3894 22.9667 75.2534V84.8654C22.9667 85.7294 23.5967 86.3594 24.4607 86.3594H30.4727C31.1207 86.3594 31.6607 85.8374 31.6607 85.1714C31.6607 84.5234 31.1207 84.0014 30.4727 84.0014H25.6667ZM36.073 84.0014V81.1754H39.025C39.673 81.1754 40.213 80.6354 40.213 80.0234C40.213 79.4294 39.673 78.9074 39.025 78.9074H36.073V76.1174H40.699C41.347 76.1174 41.887 75.5954 41.887 74.9294C41.887 74.2814 41.347 73.7594 40.699 73.7594H34.867C34.003 73.7594 33.373 74.3894 33.373 75.2534V84.8654C33.373 85.7294 34.003 86.3594 34.867 86.3594H40.879C41.527 86.3594 42.067 85.8374 42.067 85.1714C42.067 84.5234 41.527 84.0014 40.879 84.0014H36.073Z" fill="white"/>
</svg>
