<svg width="37" height="43" viewBox="0 0 37 43" fill="none" xmlns="http://www.w3.org/2000/svg">
<path d="M27.9085 28.7031H9.2313C8.21142 28.7031 7.38464 27.8763 7.38464 26.8564V2.74192C7.38464 1.72204 8.21142 0.895264 9.2313 0.895264H22.8042C26.3287 4.35779 26.9895 5.01862 29.7553 7.4417V26.8566C29.7552 27.8763 28.9284 28.7031 27.9085 28.7031Z" fill="#A341FF" stroke="white" stroke-width="1.5" stroke-linecap="round" stroke-linejoin="round"/>
<path d="M21.4259 9.30375L21.4257 9.30368C21.4228 9.30218 21.4214 9.30207 21.4208 9.30203C21.4195 9.30194 21.4175 9.30206 21.415 9.30286C21.4126 9.30367 21.4108 9.30477 21.4099 9.3056C21.4093 9.30607 21.4082 9.30701 21.4067 9.31003L21.4067 9.31005L15.7222 20.4906L15.7222 20.4906C15.7207 20.4936 15.7205 20.495 15.7205 20.4957C15.7204 20.497 15.7205 20.499 15.7213 20.5015C15.7221 20.5039 15.7232 20.5057 15.724 20.5066L21.4259 9.30375ZM21.4259 9.30375C21.4289 9.30529 21.4299 9.30638 21.4303 9.30694C21.4312 9.30792 21.4323 9.30964 21.4331 9.3121C21.4339 9.31456 21.434 9.3166 21.4339 9.31785C21.4338 9.31856 21.4337 9.31998 21.4322 9.32298L21.4322 9.323M21.4259 9.30375L21.4322 9.323M21.4322 9.323L15.7477 20.5035L21.4322 9.323ZM15.7322 20.5113C15.7317 20.5112 15.7305 20.5108 15.7285 20.5098L15.7477 20.5035C15.7465 20.5059 15.7456 20.5068 15.7453 20.5072C15.7448 20.5077 15.7441 20.5084 15.743 20.509C15.7402 20.5107 15.7369 20.5115 15.7343 20.5115L15.7322 20.5113Z" fill="white" stroke="white" stroke-width="1.5"/>
<path d="M16.9055 12.3171V12.317C16.9055 11.1472 15.955 10.1968 14.7853 10.1968C13.6157 10.1968 12.6652 11.1473 12.6652 12.317C12.6652 13.4867 13.6157 14.4371 14.7853 14.4371C15.9551 14.4371 16.9054 13.4867 16.9055 12.3171ZM14.7853 10.1682C15.9695 10.1682 16.9341 11.1328 16.9341 12.317C16.9341 13.5012 15.9695 14.4658 14.7853 14.4658C13.6012 14.4658 12.6366 13.5011 12.6366 12.317C12.6366 11.1328 13.6012 10.1682 14.7853 10.1682Z" fill="white" stroke="white" stroke-width="1.5"/>
<path d="M20.2546 17.4966C20.2546 16.3125 21.2193 15.3479 22.4034 15.3479C23.5876 15.3479 24.5522 16.3125 24.5522 17.4966C24.5522 18.6808 23.5876 19.6454 22.4034 19.6454C21.2192 19.6454 20.2546 18.6808 20.2546 17.4966ZM20.2833 17.4966C20.2833 18.6663 21.2337 19.6167 22.4034 19.6167C23.5732 19.6167 24.5236 18.6662 24.5236 17.4966C24.5236 16.3269 23.5731 15.3765 22.4034 15.3765C21.2337 15.3765 20.2833 16.3269 20.2833 17.4966Z" fill="white" stroke="white" stroke-width="1.5"/>
<circle cx="30.4146" cy="29.8108" r="5.40752" fill="#A341FF" stroke="white" stroke-width="1.5"/>
<path d="M28.7921 28.1885L31.9168 31.3132" stroke="white" stroke-width="1.5" stroke-linecap="round"/>
<path d="M31.9181 28.1885L28.7934 31.3132" stroke="white" stroke-width="1.5" stroke-linecap="round"/>
<path d="M6.41289 34.221C6.41289 33.861 6.11289 33.571 5.75289 33.571H2.51289C2.03289 33.571 1.68289 33.921 1.68289 34.401V39.881C1.68289 40.291 2.03289 40.651 2.44289 40.651C2.85289 40.651 3.18289 40.291 3.18289 39.881V37.891H5.28289C5.64289 37.891 5.95289 37.621 5.95289 37.261C5.95289 36.901 5.64289 36.621 5.28289 36.621H3.18289V34.881H5.75289C6.11289 34.881 6.41289 34.591 6.41289 34.221ZM12.4965 39.441L11.2165 37.911C12.0865 37.541 12.5965 36.771 12.5965 35.871C12.5965 34.611 11.5865 33.571 10.0265 33.571H8.19648C7.71648 33.571 7.36648 33.921 7.36648 34.401V39.891C7.36648 40.301 7.69648 40.651 8.12648 40.651C8.53648 40.651 8.86648 40.301 8.86648 39.891V38.141H9.72648L11.4465 40.321C11.5665 40.491 11.7565 40.601 11.9965 40.601C12.3865 40.601 12.6765 40.291 12.6765 39.901C12.6765 39.721 12.5965 39.561 12.4965 39.441ZM8.86648 34.851H9.94648C10.6065 34.851 11.1365 35.091 11.1365 35.871C11.1365 36.651 10.6065 36.861 9.94648 36.861H8.86648V34.851ZM15.1751 39.261V37.691H16.8151C17.1751 37.691 17.4751 37.391 17.4751 37.051C17.4751 36.721 17.1751 36.431 16.8151 36.431H15.1751V34.881H17.7451C18.1051 34.881 18.4051 34.591 18.4051 34.221C18.4051 33.861 18.1051 33.571 17.7451 33.571H14.5051C14.0251 33.571 13.6751 33.921 13.6751 34.401V39.741C13.6751 40.221 14.0251 40.571 14.5051 40.571H17.8451C18.2051 40.571 18.5051 40.281 18.5051 39.911C18.5051 39.551 18.2051 39.261 17.8451 39.261H15.1751ZM20.9563 39.261V37.691H22.5963C22.9563 37.691 23.2563 37.391 23.2563 37.051C23.2563 36.721 22.9563 36.431 22.5963 36.431H20.9563V34.881H23.5263C23.8863 34.881 24.1863 34.591 24.1863 34.221C24.1863 33.861 23.8863 33.571 23.5263 33.571H20.2863C19.8063 33.571 19.4563 33.921 19.4563 34.401V39.741C19.4563 40.221 19.8063 40.571 20.2863 40.571H23.6263C23.9863 40.571 24.2863 40.281 24.2863 39.911C24.2863 39.551 23.9863 39.261 23.6263 39.261H20.9563Z" fill="white"/>
</svg>
