<svg width="40" height="50" viewBox="0 0 40 50" fill="none" xmlns="http://www.w3.org/2000/svg">
<path d="M20 24.4533C25.5592 24.4533 30.0662 18.9793 30.0662 12.2267C30.0662 5.474 28.5865 0 20 0C11.4136 0 9.93359 5.474 9.93359 12.2267C9.93359 18.9793 14.4406 24.4533 20 24.4533Z" fill="black"/>
<path d="M20 24.4533C25.5592 24.4533 30.0662 18.9793 30.0662 12.2267C30.0662 5.474 28.5865 0 20 0C11.4136 0 9.93359 5.474 9.93359 12.2267C9.93359 18.9793 14.4406 24.4533 20 24.4533Z" fill="url(#paint0_linear)"/>
<path d="M0.98709 43.1219C0.985373 42.7101 0.983656 43.0059 0.98709 43.1219V43.1219Z" fill="black"/>
<path d="M0.98709 43.1219C0.985373 42.7101 0.983656 43.0059 0.98709 43.1219V43.1219Z" fill="url(#paint1_linear)"/>
<path d="M39.0122 43.4435C39.0176 43.3307 39.0141 42.6614 39.0122 43.4435V43.4435Z" fill="black"/>
<path d="M39.0122 43.4435C39.0176 43.3307 39.0141 42.6614 39.0122 43.4435V43.4435Z" fill="url(#paint2_linear)"/>
<path d="M38.9909 42.6282C38.8045 30.8651 37.2682 27.5132 25.5121 25.3915C25.5121 25.3915 23.8572 27.5002 20.0001 27.5002C16.1429 27.5002 14.4878 25.3915 14.4878 25.3915C2.85992 27.4901 1.2302 30.7922 1.01592 42.2461C0.998346 43.1813 0.990203 43.2305 0.987061 43.1219C0.987775 43.3254 0.988632 43.7016 0.988632 44.3578C0.988632 44.3578 3.78749 50.0001 20.0001 50.0001C36.2123 50.0001 39.0115 44.3578 39.0115 44.3578C39.0115 43.9362 39.0118 43.6431 39.0122 43.4436C39.0091 43.5108 39.0028 43.3806 38.9909 42.6282Z" fill="black"/>
<path d="M38.9909 42.6282C38.8045 30.8651 37.2682 27.5132 25.5121 25.3915C25.5121 25.3915 23.8572 27.5002 20.0001 27.5002C16.1429 27.5002 14.4878 25.3915 14.4878 25.3915C2.85992 27.4901 1.2302 30.7922 1.01592 42.2461C0.998346 43.1813 0.990203 43.2305 0.987061 43.1219C0.987775 43.3254 0.988632 43.7016 0.988632 44.3578C0.988632 44.3578 3.78749 50.0001 20.0001 50.0001C36.2123 50.0001 39.0115 44.3578 39.0115 44.3578C39.0115 43.9362 39.0118 43.6431 39.0122 43.4436C39.0091 43.5108 39.0028 43.3806 38.9909 42.6282Z" fill="url(#paint3_linear)"/>
<defs>
<linearGradient id="paint0_linear" x1="9.93359" y1="0" x2="30.4494" y2="0.325825" gradientUnits="userSpaceOnUse">
<stop stop-color="#892CDF"/>
<stop offset="1" stop-color="#A341FF"/>
</linearGradient>
<linearGradient id="paint1_linear" x1="0.985107" y1="42.9103" x2="0.987128" y2="42.9103" gradientUnits="userSpaceOnUse">
<stop stop-color="#892CDF"/>
<stop offset="1" stop-color="#A341FF"/>
</linearGradient>
<linearGradient id="paint2_linear" x1="39.0122" y1="43.0695" x2="39.0151" y2="43.0695" gradientUnits="userSpaceOnUse">
<stop stop-color="#892CDF"/>
<stop offset="1" stop-color="#A341FF"/>
</linearGradient>
<linearGradient id="paint3_linear" x1="0.987061" y1="25.3915" x2="39.7113" y2="26.5457" gradientUnits="userSpaceOnUse">
<stop stop-color="#892CDF"/>
<stop offset="1" stop-color="#A341FF"/>
</linearGradient>
</defs>
</svg>
