<svg width="72" height="63" viewBox="0 0 72 63" fill="none" xmlns="http://www.w3.org/2000/svg">
<path d="M43.4489 11.1036C46.778 13.1909 49.1124 16.7231 49.5374 20.8231C50.8951 21.4575 52.402 21.8223 53.9996 21.8223C59.832 21.8223 64.5592 17.0951 64.5592 11.2636C64.5592 5.43114 59.832 0.703918 53.9996 0.703918C48.2228 0.705716 43.537 5.34847 43.4489 11.1036ZM36.531 32.7243C42.3635 32.7243 47.0907 27.9962 47.0907 22.1646C47.0907 16.3331 42.3626 11.6059 36.531 11.6059C30.6995 11.6059 25.9696 16.334 25.9696 22.1655C25.9696 27.9971 30.6995 32.7243 36.531 32.7243ZM41.0103 34.444H32.05C24.5948 34.444 18.5297 40.5101 18.5297 47.9652V58.9229L18.5575 59.0946L19.3123 59.3309C26.427 61.5539 32.608 62.2952 37.6955 62.2952C47.6325 62.2952 53.3921 59.4621 53.7471 59.2815L54.4524 58.9247H54.5279V47.9652C54.5306 40.5101 48.4654 34.444 41.0103 34.444ZM58.4806 22.5429H49.5895C49.4934 26.1003 47.9748 29.3035 45.573 31.6074C52.1998 33.5779 57.0483 39.723 57.0483 46.9814V50.3581C65.827 50.0365 70.8858 47.5484 71.2192 47.3813L71.9245 47.0237H72V36.0624C72 28.6081 65.9349 22.5429 58.4806 22.5429ZM18.0022 21.8241C20.068 21.8241 21.99 21.2212 23.6181 20.1941C24.1357 16.8183 25.9453 13.8684 28.5304 11.8593C28.5412 11.6616 28.5601 11.4657 28.5601 11.2663C28.5601 5.43383 23.832 0.706614 18.0022 0.706614C12.1689 0.706614 7.44261 5.43383 7.44261 11.2663C7.44261 17.096 12.1689 21.8241 18.0022 21.8241ZM27.4854 31.6074C25.0953 29.3152 23.5822 26.129 23.4717 22.5933C23.1419 22.569 22.8157 22.5429 22.4797 22.5429H13.5203C6.06514 22.5429 0 28.6081 0 36.0624V47.0219L0.0278547 47.1908L0.782628 47.4289C6.49015 49.2107 11.584 50.032 16.0084 50.2907V46.9814C16.0102 39.723 20.8569 33.5797 27.4854 31.6074Z" fill="black"/>
<path d="M43.4489 11.1036C46.778 13.1909 49.1124 16.7231 49.5374 20.8231C50.8951 21.4575 52.402 21.8223 53.9996 21.8223C59.832 21.8223 64.5592 17.0951 64.5592 11.2636C64.5592 5.43114 59.832 0.703918 53.9996 0.703918C48.2228 0.705716 43.537 5.34847 43.4489 11.1036ZM36.531 32.7243C42.3635 32.7243 47.0907 27.9962 47.0907 22.1646C47.0907 16.3331 42.3626 11.6059 36.531 11.6059C30.6995 11.6059 25.9696 16.334 25.9696 22.1655C25.9696 27.9971 30.6995 32.7243 36.531 32.7243ZM41.0103 34.444H32.05C24.5948 34.444 18.5297 40.5101 18.5297 47.9652V58.9229L18.5575 59.0946L19.3123 59.3309C26.427 61.5539 32.608 62.2952 37.6955 62.2952C47.6325 62.2952 53.3921 59.4621 53.7471 59.2815L54.4524 58.9247H54.5279V47.9652C54.5306 40.5101 48.4654 34.444 41.0103 34.444ZM58.4806 22.5429H49.5895C49.4934 26.1003 47.9748 29.3035 45.573 31.6074C52.1998 33.5779 57.0483 39.723 57.0483 46.9814V50.3581C65.827 50.0365 70.8858 47.5484 71.2192 47.3813L71.9245 47.0237H72V36.0624C72 28.6081 65.9349 22.5429 58.4806 22.5429ZM18.0022 21.8241C20.068 21.8241 21.99 21.2212 23.6181 20.1941C24.1357 16.8183 25.9453 13.8684 28.5304 11.8593C28.5412 11.6616 28.5601 11.4657 28.5601 11.2663C28.5601 5.43383 23.832 0.706614 18.0022 0.706614C12.1689 0.706614 7.44261 5.43383 7.44261 11.2663C7.44261 17.096 12.1689 21.8241 18.0022 21.8241ZM27.4854 31.6074C25.0953 29.3152 23.5822 26.129 23.4717 22.5933C23.1419 22.569 22.8157 22.5429 22.4797 22.5429H13.5203C6.06514 22.5429 0 28.6081 0 36.0624V47.0219L0.0278547 47.1908L0.782628 47.4289C6.49015 49.2107 11.584 50.032 16.0084 50.2907V46.9814C16.0102 39.723 20.8569 33.5797 27.4854 31.6074Z" fill="url(#paint0_linear)"/>
<defs>
<linearGradient id="paint0_linear" x1="0" y1="0.703918" x2="73.3503" y2="2.38527" gradientUnits="userSpaceOnUse">
<stop stop-color="#892CDF"/>
<stop offset="1" stop-color="#A341FF"/>
</linearGradient>
</defs>
</svg>
