<svg width="24" height="23" viewBox="0 0 24 23" fill="none" xmlns="http://www.w3.org/2000/svg">
<g clip-path="url(#clip0)">
<path d="M22.6743 18.6617L20.5248 16.5123V23.1548H18.65V16.5123L16.5005 18.6617L15.1747 17.3361L19.5873 12.9234L24 17.3361L22.6743 18.6617ZM14.9991 19.5925L16.8831 21.4675H2.81232C1.2616 21.4675 0 20.2224 0 18.6716V3.67255C0 2.12183 1.2616 0.890625 2.81232 0.890625H21.1644C22.7151 0.890625 23.9984 2.12183 23.9984 3.67255V14.683L22.1235 12.808V3.67255C22.1235 3.15564 21.6813 2.76544 21.1644 2.76544H2.81232C2.29541 2.76544 1.87482 3.15564 1.87482 3.67255V10.7743V14.0945V18.6716C1.87482 19.1885 2.29541 19.5925 2.81232 19.5925H14.9991Z" fill="white"/>
<rect x="4" y="6" width="16" height="2" fill="white"/>
<rect x="4" y="10" width="13" height="2" fill="white"/>
<rect x="4" y="14" width="10" height="2" fill="white"/>
</g>
<defs>
<clipPath id="clip0">
<rect width="24" height="23" fill="white"/>
</clipPath>
</defs>
</svg>
