<svg width="48" height="50" viewBox="0 0 48 50" fill="none" xmlns="http://www.w3.org/2000/svg">
<path d="M11.0003 35.499C9.74999 35.499 8.68753 35.9365 7.81245 36.8115C6.9377 37.6872 6.5 38.7494 6.5 39.9997C6.5 41.2501 6.93737 42.3124 7.81245 43.1881C8.68786 44.0631 9.75032 44.5005 11.0003 44.5005C12.2295 44.5005 13.2866 44.0631 14.1722 43.1881C15.0575 42.3135 15.5001 41.2501 15.5001 39.9997C15.5001 38.7494 15.0576 37.688 14.1722 36.8115C13.2865 35.9373 12.2295 35.499 11.0003 35.499Z" fill="black" fill-opacity="0.15"/>
<path d="M10.0004 25.9998C10.0004 24.6248 9.51108 23.4481 8.5318 22.468C7.55264 21.4889 6.37536 20.9994 5.00041 20.9994C3.62535 20.9994 2.4483 21.489 1.46902 22.468C0.489962 23.4473 0.000488281 24.6244 0.000488281 25.9998C0.000488281 27.3745 0.489853 28.551 1.46902 29.5305C2.4483 30.51 3.62535 30.9996 5.00041 30.9996C6.37536 30.9996 7.55264 30.51 8.5318 29.5305C9.51108 28.5516 10.0004 27.3745 10.0004 25.9998Z" fill="black" fill-opacity="0.15"/>
<path d="M39 14.5003C39.6869 14.5003 40.2764 14.2552 40.7654 13.7658C41.2549 13.276 41.5002 12.6873 41.5002 11.9999C41.5002 11.3122 41.2549 10.7239 40.7654 10.2344C40.2761 9.74461 39.6869 9.49988 39 9.49988C38.3123 9.49988 37.7234 9.74505 37.2339 10.2344C36.7446 10.724 36.4998 11.3122 36.4998 11.9999C36.4998 12.6876 36.7446 13.276 37.2339 13.7658C37.7234 14.2556 38.3123 14.5003 39 14.5003Z" fill="black" fill-opacity="0.15"/>
<path d="M11.0009 6.50024C9.47979 6.50024 8.18299 7.03678 7.11002 8.10953C6.03694 9.18228 5.50073 10.4792 5.50073 11.9999C5.50073 13.5212 6.03694 14.8176 7.11002 15.8908C8.18332 16.9638 9.48012 17.5003 11.0009 17.5003C12.5216 17.5003 13.8185 16.9635 14.8913 15.8908C15.964 14.8176 16.5005 13.5209 16.5005 11.9999C16.5005 10.4792 15.964 9.18228 14.8913 8.10953C13.8185 7.03678 12.5216 6.50024 11.0009 6.50024Z" fill="black" fill-opacity="0.15"/>
<path d="M47.1247 23.8744C46.5415 23.291 45.8332 22.9996 45.0002 22.9996C44.1664 22.9996 43.4581 23.291 42.8749 23.8744C42.2921 24.4578 42.0007 25.1663 42.0007 26.0001C42.0007 26.833 42.2921 27.5425 42.8749 28.1246C43.4584 28.7082 44.1664 28.9995 45.0002 28.9995C45.8332 28.9995 46.5419 28.7082 47.1247 28.1246C47.7083 27.5418 47.9993 26.833 47.9993 26.0001C47.9993 25.1667 47.7087 24.4581 47.1247 23.8744Z" fill="black" fill-opacity="0.15"/>
<path d="M38.9998 36.4996C38.0409 36.4996 37.218 36.8431 36.5303 37.5308C35.8434 38.2177 35.4995 39.041 35.4995 39.9999C35.4995 40.9581 35.8434 41.7814 36.5303 42.4692C37.218 43.1568 38.041 43.4999 38.9998 43.4999C39.958 43.4999 40.7808 43.1561 41.4685 42.4692C42.1562 41.7815 42.4998 40.9585 42.4998 39.9999C42.4998 39.041 42.1562 38.2186 41.4685 37.5308C40.781 36.843 39.958 36.4996 38.9998 36.4996Z" fill="black" fill-opacity="0.15"/>
<path d="M25.0001 41.999C23.896 41.999 22.9532 42.3904 22.1714 43.1718C21.3905 43.9532 20.9998 44.8955 20.9998 45.9998C20.9998 47.104 21.3901 48.0464 22.1714 48.8277C22.9532 49.6091 23.8956 50.0001 25.0001 50.0001C26.1044 50.0001 27.0468 49.6091 27.8282 48.8277C28.6096 48.0464 29.0002 47.104 29.0002 45.9998C29.0002 44.8955 28.6096 43.9532 27.8282 43.1718C27.0468 42.3904 26.1044 41.999 25.0001 41.999Z" fill="black" fill-opacity="0.15"/>
<path d="M25.0002 0C23.3338 0 21.9165 0.583056 20.7497 1.74972C19.5833 2.91649 19 4.33346 19 6C19 7.66664 19.5831 9.08296 20.7497 10.2498C21.9165 11.4163 23.3335 11.9997 25.0002 11.9997C26.6674 11.9997 28.0837 11.4166 29.25 10.2498C30.4164 9.08351 30.9996 7.66664 30.9996 6C30.9996 4.33357 30.4164 2.91692 29.25 1.74972C28.0837 0.583385 26.6674 0 25.0002 0Z" fill="black" fill-opacity="0.15"/>
</svg>
