<svg width="27" height="38" viewBox="0 0 27 38" fill="none" xmlns="http://www.w3.org/2000/svg">
<mask id="path-1-inside-1" fill="white">
<path d="M12.3838 4.77981C12.3838 5.12325 12.1054 5.40165 11.7619 5.40165H9.89638C9.55294 5.40165 9.27454 5.12325 9.27454 4.77981C9.27454 4.43636 9.55294 4.15796 9.89638 4.15796H11.7619C12.1054 4.15796 12.3838 4.43636 12.3838 4.77981Z"/>
</mask>
<path d="M12.3838 4.77981C12.3838 5.12325 12.1054 5.40165 11.7619 5.40165H9.89638C9.55294 5.40165 9.27454 5.12325 9.27454 4.77981C9.27454 4.43636 9.55294 4.15796 9.89638 4.15796H11.7619C12.1054 4.15796 12.3838 4.43636 12.3838 4.77981Z" fill="white"/>
<path d="M10.8838 4.77981C10.8838 4.29482 11.2769 3.90165 11.7619 3.90165V6.90165C12.9338 6.90165 13.8838 5.95168 13.8838 4.77981H10.8838ZM11.7619 3.90165H9.89638V6.90165H11.7619V3.90165ZM9.89638 3.90165C10.3814 3.90165 10.7745 4.29482 10.7745 4.77981H7.77454C7.77454 5.95168 8.72451 6.90165 9.89638 6.90165V3.90165ZM10.7745 4.77981C10.7745 5.26479 10.3814 5.65796 9.89638 5.65796V2.65796C8.72451 2.65796 7.77454 3.60793 7.77454 4.77981H10.7745ZM9.89638 5.65796H11.7619V2.65796H9.89638V5.65796ZM11.7619 5.65796C11.2769 5.65796 10.8838 5.26479 10.8838 4.77981H13.8838C13.8838 3.60793 12.9338 2.65796 11.7619 2.65796V5.65796Z" fill="white" mask="url(#path-1-inside-1)"/>
<path d="M13.4993 4.77981C13.4993 4.70904 13.5567 4.65165 13.6275 4.65165C13.6982 4.65165 13.7556 4.70904 13.7556 4.77981C13.7556 4.85057 13.6982 4.90796 13.6275 4.90796C13.5567 4.90796 13.4993 4.85057 13.4993 4.77981Z" fill="white" stroke="white" stroke-width="1.5"/>
<path d="M14.3267 12.997C14.3267 13.4022 14.6605 13.6723 15.1612 13.6723C15.662 13.6723 15.9958 13.4022 15.9958 12.997C15.9958 11.5789 14.577 10.4309 12.6575 10.1608V9.41797C12.6575 9.01279 12.3237 8.74268 11.8229 8.74268C11.3222 8.74268 10.9883 9.01279 10.9883 9.41797V10.1608C9.06881 10.4309 7.65002 11.5789 7.65002 12.997C7.65002 14.4151 9.06881 15.5631 10.9883 15.8332V18.872C9.98685 18.6694 9.31918 18.1292 9.31918 17.4539C9.31918 17.0487 8.98535 16.7786 8.4846 16.7786C7.98386 16.7786 7.65002 17.0487 7.65002 17.4539C7.65002 18.872 9.06881 20.02 10.9883 20.2901V20.9654C10.9883 21.3706 11.3222 21.6407 11.8229 21.6407C12.3237 21.6407 12.6575 21.3706 12.6575 20.9654V20.2226C14.577 19.9525 15.9958 18.8045 15.9958 17.3864C15.9958 15.9683 14.577 14.8203 12.6575 14.5502V11.5114C13.659 11.7815 14.3267 12.3217 14.3267 12.997ZM9.31918 12.997C9.31918 12.3217 9.98685 11.7815 10.9883 11.5789V14.4826C9.98685 14.2125 9.31918 13.6723 9.31918 12.997ZM14.3267 17.3864C14.3267 18.0617 13.659 18.6019 12.6575 18.8045V15.9008C13.659 16.1709 14.3267 16.7111 14.3267 17.3864Z" fill="white"/>
<rect x="0.812988" y="1.52637" width="21.6406" height="35.6767" rx="5.25" stroke="white" stroke-width="1.5"/>
<path d="M19.3168 34C24.0062 30.6312 25.6416 27.7574 26 20.0952C23.0686 20.2707 21.5849 19.8679 19.3168 18C17.505 19.8477 16.0467 20.1862 13.005 20.0952C12.9046 26.6262 14.3044 30.1905 19.3168 34Z" fill="#A341FF" stroke="white" stroke-width="1.5" stroke-linecap="round" stroke-linejoin="round"/>
<path d="M17.1339 25.3735L18.757 26.9966" stroke="white" stroke-width="1.5" stroke-linecap="round"/>
<path d="M22.5404 23.5374L18.9696 27.1081" stroke="white" stroke-width="1.5" stroke-linecap="round"/>
<circle cx="11.6334" cy="32.9698" r="0.957094" stroke="white" stroke-width="1.5"/>
</svg>