<svg width="63" height="85" viewBox="0 0 63 85" fill="none" xmlns="http://www.w3.org/2000/svg">
<path d="M27.9662 6.81774C27.9662 7.59731 27.3342 8.22924 26.5547 8.22924H22.3202C21.5406 8.22924 20.9087 7.59731 20.9087 6.81774C20.9087 6.03818 21.5406 5.40625 22.3202 5.40625H26.5547C27.3342 5.40625 27.9662 6.03818 27.9662 6.81774Z" fill="white"/>
<path d="M32.2007 6.81774C32.2007 7.59731 31.5687 8.22924 30.7892 8.22924C30.0096 8.22924 29.3777 7.59731 29.3777 6.81774C29.3777 6.03818 30.0096 5.40625 30.7892 5.40625C31.5687 5.40625 32.2007 6.03818 32.2007 6.81774Z" fill="white"/>
<path d="M46.498 7.50372V22.2677V41.1533V68.0248C31.609 68.0248 23.353 68.0248 7.74963 68.0248V41.1533V22.2677V7.50372C7.74963 7.16402 8.0686 6.88855 8.46192 6.88855H17.7216V8.73405C17.7216 9.75325 18.6784 10.5795 19.8585 10.5795H34.3891C35.5692 10.5795 36.526 9.75325 36.526 8.73405V6.88855H45.7857C46.179 6.88855 46.498 7.16402 46.498 7.50372Z" fill="white" fill-opacity="0.2"/>
<path d="M32.3763 27.7392C32.3763 28.6588 33.1341 29.272 34.2707 29.272C35.4073 29.272 36.1651 28.6588 36.1651 27.7392C36.1651 24.5203 32.9446 21.9145 28.5876 21.3014V19.6153C28.5876 18.6956 27.8299 18.0825 26.6932 18.0825C25.5566 18.0825 24.7989 18.6956 24.7989 19.6153V21.3014C20.4419 21.9145 17.2214 24.5203 17.2214 27.7392C17.2214 30.958 20.4419 33.5638 24.7989 34.1769V41.0745C22.5257 40.6147 21.0102 39.3885 21.0102 37.8557C21.0102 36.936 20.2524 36.3229 19.1158 36.3229C17.9792 36.3229 17.2214 36.936 17.2214 37.8557C17.2214 41.0745 20.4419 43.6803 24.7989 44.2934V45.8262C24.7989 46.7459 25.5566 47.359 26.6932 47.359C27.8299 47.359 28.5876 46.7459 28.5876 45.8262V44.1401C32.9446 43.527 36.1651 40.9213 36.1651 37.7024C36.1651 34.4835 32.9446 31.8777 28.5876 31.2646V24.367C30.8608 24.9801 32.3763 26.2064 32.3763 27.7392ZM21.0102 27.7392C21.0102 26.2064 22.5257 24.9801 24.7989 24.5203V31.1113C22.5257 30.4982 21.0102 29.272 21.0102 27.7392ZM32.3763 37.7024C32.3763 39.2352 30.8608 40.4614 28.5876 40.9213V34.3302C30.8608 34.9433 32.3763 36.1696 32.3763 37.7024Z" fill="white"/>
<rect x="1" y="1" width="50.5255" height="82.3852" rx="5" stroke="white" stroke-width="2"/>
<path d="M44.0001 79C56.63 70.1569 61.0347 62.6131 62.0001 42.5C54.1049 42.9606 50.1087 41.9032 44.0001 37C39.1201 41.8503 35.1924 42.7387 27.0001 42.5C26.7297 59.6438 30.5 69 44.0001 79Z" fill="#A341FF" stroke="white" stroke-width="2" stroke-linecap="round" stroke-linejoin="round"/>
<path d="M38.7483 55.8325L42.4324 59.5167" stroke="white" stroke-width="4" stroke-linecap="round"/>
<path d="M51.0203 51.6644L42.9152 59.7695" stroke="white" stroke-width="4" stroke-linecap="round"/>
<circle cx="26.2628" cy="75.3439" r="2.87483" stroke="white" stroke-width="2"/>
</svg>