<svg width="35" height="49" viewBox="0 0 35 49" fill="none" xmlns="http://www.w3.org/2000/svg">
<path d="M29.7826 19.173V19.673H30.2826C32.3595 19.673 34.0431 21.3569 34.043 23.4336V44.7391C34.043 46.8163 32.3594 48.5 30.2826 48.5H4.7172C2.64048 48.5 0.956543 46.8163 0.956543 44.7391V23.4336C0.956543 21.3569 2.64048 19.673 4.7172 19.673H5.2172V19.173V12.7826C5.2172 5.99845 10.7158 0.5 17.4998 0.5C24.2829 0.5 29.7826 5.99849 29.7826 12.7826V19.173ZM26.0218 19.673H26.5218V19.173V12.7826C26.5218 7.79924 22.4823 3.76093 17.4998 3.76093C12.5176 3.76093 8.47812 7.7994 8.47812 12.7826V19.173V19.673H8.97812H26.0218ZM30.2826 45.2389H30.7826V44.7389V23.4347V22.9347H30.2826H4.7172H4.2172V23.4347V44.7389V45.2389H4.7172H30.2826ZM15.8694 35.6264V35.339L15.621 35.1944C14.4971 34.5397 13.7392 33.3397 13.7392 31.9566C13.7392 29.8786 15.4233 28.1945 17.4998 28.1945C19.5765 28.1945 21.2608 29.8787 21.2608 31.9566C21.2608 33.3396 20.5022 34.5397 19.3786 35.1944L19.1303 35.3391V35.6264V38.3475C19.1303 39.247 18.3993 39.978 17.4998 39.978C16.6001 39.978 15.8694 39.2471 15.8694 38.3475V35.6264Z" fill="#A341FF" stroke="white"/>
</svg>
