<svg width="113" height="21" viewBox="0 0 113 21" fill="none" xmlns="http://www.w3.org/2000/svg">
<path d="M11.6319 5.46483H15.7799V19.763H11.6319V18.0032C11.5449 18.5806 10.0655 20.0379 7.45485 20.0379C4.003 20.0379 0 17.6732 0 12.5864C0 7.66455 4.003 5.21736 7.45485 5.21736C10.0655 5.21736 11.5449 6.75716 11.6319 7.05962V5.46483ZM8.035 16.5459C10.0655 16.5459 11.8349 15.2261 11.8349 12.5864C11.8349 10.0292 10.0655 8.70941 8.035 8.70941C5.94648 8.70941 4.032 10.0567 4.032 12.5864C4.032 15.1986 5.94648 16.5459 8.035 16.5459ZM24.308 19.9829C21.4363 19.9829 18.5936 18.1957 18.5936 13.6863V5.46483H22.7417V13.4113C22.7417 15.7485 23.6989 16.5459 25.2943 16.5459C27.4988 16.5459 28.8042 14.5661 29.1232 13.5763V5.46483H33.2713V19.763H29.1232V17.1233C28.8332 17.8657 27.2088 19.9829 24.308 19.9829ZM43.1627 16.4634C43.9459 16.4634 44.5261 16.3809 45.1642 16.1609V19.4605C44.5261 19.7355 43.5398 19.928 42.0895 19.928C39.7399 19.928 37.7674 19.1581 37.7674 15.1161V8.70941H35.6499V5.46483H37.7674V2.11027H41.9154V5.46483H45.1352V8.70941H41.9154V15.0886C41.9154 15.7485 42.1185 16.4634 43.1627 16.4634ZM55.0847 5.21736C58.5075 5.21736 62.9746 7.66454 62.9746 12.6689C62.9746 17.6732 58.5075 20.0379 55.0847 20.0379C51.6618 20.0379 47.1657 17.6732 47.1657 12.6689C47.1657 7.66454 51.6618 5.21736 55.0847 5.21736ZM55.0847 8.70941C53.1992 8.70941 51.1977 10.0567 51.1977 12.6689C51.1977 15.1986 53.1992 16.5459 55.0847 16.5459C56.9412 16.5459 58.9717 15.1986 58.9717 12.6689C58.9717 10.0567 56.9412 8.70941 55.0847 8.70941ZM73.8233 5.21736C77.2752 5.21736 81.2782 7.66455 81.2782 12.5864C81.2782 17.6732 77.2752 20.0379 73.8233 20.0379C71.2127 20.0379 69.7333 18.5806 69.6463 18.0032V19.763H65.4983V5.46483V0.322998H69.6463V7.05962C69.7333 6.75716 71.2127 5.21736 73.8233 5.21736ZM73.2432 16.5459C75.3317 16.5459 77.2462 15.1986 77.2462 12.5864C77.2462 10.0567 75.3317 8.70941 73.2432 8.70941C71.2127 8.70941 69.4433 10.0292 69.4433 12.5864C69.4433 15.2261 71.2127 16.5459 73.2432 16.5459ZM87.9499 0.322998V19.763H83.8018V0.322998H87.9499ZM98.3925 5.21736C101.815 5.21736 106.543 7.66454 105.644 13.9887H94.6795C95.2017 15.776 96.7681 16.7109 98.7986 16.7109C100.684 16.7109 101.409 16.2984 102.482 15.7485L104.774 17.8657C103.469 19.1581 101.612 20.0379 98.6535 20.0379C94.8826 20.0379 90.4735 17.5908 90.4735 12.6689C90.4735 7.66454 94.9696 5.21736 98.3925 5.21736ZM98.3925 8.57193C96.8841 8.57193 95.2887 9.45181 94.7375 11.2116H101.989C101.525 9.45181 99.8718 8.57193 98.3925 8.57193ZM110.169 19.9005C108.835 19.9005 107.791 18.9106 107.791 17.6457C107.791 16.4084 108.835 15.4185 110.169 15.4185C111.475 15.4185 112.519 16.4084 112.519 17.6457C112.519 18.9106 111.475 19.9005 110.169 19.9005Z" fill="white"/>
</svg>
