<svg xmlns="http://www.w3.org/2000/svg" viewBox="0 0 2996.33 553.85"><defs><style>.cls-1{fill:#7100da;}</style></defs><title>logo-color.svg</title><g id="Слой_2" data-name="Слой 2"><g id="Слой_1-2" data-name="Слой 1"><g id="SvgjsG5040"><path class="cls-1" d="M309.75,144.45H420.21V546.12H309.75V496.68c-2.32,16.23-41.71,57.17-111.23,57.17C106.6,553.85,0,487.42,0,344.51c0-138.27,106.6-207,198.52-207,69.52,0,108.91,43.25,111.23,51.75v-44.8ZM214,455.75c54.07,0,101.19-37.08,101.19-111.24C315.16,272.67,268,235.6,214,235.6c-55.62,0-106.6,37.85-106.6,108.91C107.37,417.89,158.35,455.75,214,455.75ZM647.31,552.3c-76.47,0-152.17-50.21-152.17-176.89v-231H605.6V367.69c0,65.65,25.49,88.06,68,88.06,58.7,0,93.46-55.62,102-83.43V144.45H886V546.12H775.54V472c-7.73,20.85-51,80.33-128.23,80.33Zm502.09-98.87c20.86,0,36.31-2.32,53.3-8.5v92.69c-17,7.73-43.25,13.14-81.88,13.14-62.56,0-115.09-21.63-115.09-135.18v-180H949.34V144.45h56.39V50.21h110.46v94.24h85.74V235.6h-85.74V414.81c0,18.53,5.41,38.62,33.21,38.62ZM1466.88,137.5C1558,137.5,1677,206.24,1677,346.83s-119,207-210.11,207S1256,487.42,1256,346.83,1375.73,137.5,1466.88,137.5Zm0,98.1c-50.21,0-103.51,37.85-103.51,111.23,0,71.07,53.3,108.92,103.51,108.92,49.44,0,103.51-37.85,103.51-108.92C1570.39,273.45,1516.32,235.6,1466.88,235.6Zm499-98.1c91.92,0,198.52,68.74,198.52,207,0,142.91-106.6,209.34-198.52,209.34-69.52,0-108.91-40.94-111.23-57.17v49.44H1744.19V0h110.46V189.25c2.32-8.5,41.71-51.75,111.23-51.75Zm-15.45,318.25c55.62,0,106.6-37.85,106.6-111.24,0-71.06-51-108.91-106.6-108.91-54.07,0-101.19,37.07-101.19,108.91C1849.24,418.67,1896.36,455.75,1950.43,455.75ZM2342.07,0V546.12H2231.61V0Zm278.08,137.5c91.15,0,217.06,68.74,193.11,246.41h-292c13.91,50.21,55.62,76.47,109.69,76.47,50.21,0,69.52-11.59,98.1-27l61,59.48c-34.76,36.31-84.2,61-163,61-100.42,0-217.83-68.75-217.83-207,0-140.59,119.73-209.33,210.88-209.33Zm0,94.23c-40.17,0-82.65,24.72-97.33,74.16h193.11c-12.36-49.44-56.39-74.16-95.78-74.16ZM2933.76,550c-35.53,0-63.34-27.8-63.34-63.34,0-34.76,27.81-62.57,63.34-62.57a62.31,62.31,0,0,1,62.57,62.57C2996.33,522.18,2968.52,550,2933.76,550Z"/></g></g></g></svg>