<svg width="153" height="28" viewBox="0 0 153 28" fill="none" xmlns="http://www.w3.org/2000/svg">
<path d="M16.3263 7.83198H21.9107V27.0812H16.3263V24.712C16.2092 25.4894 14.2175 27.4513 10.7029 27.4513C6.05575 27.4513 0.666626 24.2678 0.666626 17.4196C0.666626 10.7934 6.05575 7.49882 10.7029 7.49882C14.2175 7.49882 16.2092 9.57181 16.3263 9.979V7.83198ZM11.4839 22.7501C14.2175 22.7501 16.5997 20.9733 16.5997 17.4196C16.5997 13.9769 14.2175 12.2001 11.4839 12.2001C8.6722 12.2001 6.0948 14.0139 6.0948 17.4196C6.0948 20.9362 8.6722 22.7501 11.4839 22.7501ZM33.3919 27.3773C29.5258 27.3773 25.6987 24.9712 25.6987 18.9003V7.83198H31.2831V18.5301C31.2831 21.6766 32.5718 22.7501 34.7196 22.7501C37.6875 22.7501 39.4449 20.0848 39.8744 18.7522V7.83198H45.4588V27.0812H39.8744V23.5275C39.4839 24.527 37.297 27.3773 33.3919 27.3773ZM58.7754 22.639C59.8298 22.639 60.6108 22.528 61.47 22.2319V26.674C60.6108 27.0442 59.2831 27.3033 57.3305 27.3033C54.1673 27.3033 51.5118 26.2668 51.5118 20.8252V12.2001H48.661V7.83198H51.5118V3.31582H57.0962V7.83198H61.4309V12.2001H57.0962V20.7882C57.0962 21.6766 57.3696 22.639 58.7754 22.639ZM74.8256 7.49882C79.4337 7.49882 85.4477 10.7934 85.4477 17.5306C85.4477 24.2678 79.4337 27.4513 74.8256 27.4513C70.2175 27.4513 64.1645 24.2678 64.1645 17.5306C64.1645 10.7934 70.2175 7.49882 74.8256 7.49882ZM74.8256 12.2001C72.2873 12.2001 69.5927 14.0139 69.5927 17.5306C69.5927 20.9362 72.2873 22.7501 74.8256 22.7501C77.3249 22.7501 80.0585 20.9362 80.0585 17.5306C80.0585 14.0139 77.3249 12.2001 74.8256 12.2001ZM100.053 7.49882C104.7 7.49882 110.089 10.7934 110.089 17.4196C110.089 24.2678 104.7 27.4513 100.053 27.4513C96.5383 27.4513 94.5467 25.4894 94.4295 24.712V27.0812H88.8451V7.83198V0.909668H94.4295V9.979C94.5467 9.57181 96.5383 7.49882 100.053 7.49882ZM99.2719 22.7501C102.084 22.7501 104.661 20.9362 104.661 17.4196C104.661 14.0139 102.084 12.2001 99.2719 12.2001C96.5383 12.2001 94.1562 13.9769 94.1562 17.4196C94.1562 20.9733 96.5383 22.7501 99.2719 22.7501ZM119.071 0.909668V27.0812H113.487V0.909668H119.071ZM133.13 7.49882C137.738 7.49882 144.103 10.7934 142.893 19.3075H128.131C128.834 21.7136 130.943 22.9722 133.676 22.9722C136.215 22.9722 137.191 22.4169 138.636 21.6766L141.721 24.527C139.964 26.2668 137.464 27.4513 133.481 27.4513C128.404 27.4513 122.469 24.1568 122.469 17.5306C122.469 10.7934 128.522 7.49882 133.13 7.49882ZM133.13 12.015C131.099 12.015 128.951 13.1995 128.209 15.5687H137.972C137.347 13.1995 135.121 12.015 133.13 12.015ZM148.985 27.2663C147.188 27.2663 145.782 25.9336 145.782 24.2308C145.782 22.565 147.188 21.2324 148.985 21.2324C150.742 21.2324 152.148 22.565 152.148 24.2308C152.148 25.9336 150.742 27.2663 148.985 27.2663Z" fill="white"/>
<path d="M16.3263 7.83198H21.9107V27.0812H16.3263V24.712C16.2092 25.4894 14.2175 27.4513 10.7029 27.4513C6.05575 27.4513 0.666626 24.2678 0.666626 17.4196C0.666626 10.7934 6.05575 7.49882 10.7029 7.49882C14.2175 7.49882 16.2092 9.57181 16.3263 9.979V7.83198ZM11.4839 22.7501C14.2175 22.7501 16.5997 20.9733 16.5997 17.4196C16.5997 13.9769 14.2175 12.2001 11.4839 12.2001C8.6722 12.2001 6.0948 14.0139 6.0948 17.4196C6.0948 20.9362 8.6722 22.7501 11.4839 22.7501ZM33.3919 27.3773C29.5258 27.3773 25.6987 24.9712 25.6987 18.9003V7.83198H31.2831V18.5301C31.2831 21.6766 32.5718 22.7501 34.7196 22.7501C37.6875 22.7501 39.4449 20.0848 39.8744 18.7522V7.83198H45.4588V27.0812H39.8744V23.5275C39.4839 24.527 37.297 27.3773 33.3919 27.3773ZM58.7754 22.639C59.8298 22.639 60.6108 22.528 61.47 22.2319V26.674C60.6108 27.0442 59.2831 27.3033 57.3305 27.3033C54.1673 27.3033 51.5118 26.2668 51.5118 20.8252V12.2001H48.661V7.83198H51.5118V3.31582H57.0962V7.83198H61.4309V12.2001H57.0962V20.7882C57.0962 21.6766 57.3696 22.639 58.7754 22.639ZM74.8256 7.49882C79.4337 7.49882 85.4477 10.7934 85.4477 17.5306C85.4477 24.2678 79.4337 27.4513 74.8256 27.4513C70.2175 27.4513 64.1645 24.2678 64.1645 17.5306C64.1645 10.7934 70.2175 7.49882 74.8256 7.49882ZM74.8256 12.2001C72.2873 12.2001 69.5927 14.0139 69.5927 17.5306C69.5927 20.9362 72.2873 22.7501 74.8256 22.7501C77.3249 22.7501 80.0585 20.9362 80.0585 17.5306C80.0585 14.0139 77.3249 12.2001 74.8256 12.2001ZM100.053 7.49882C104.7 7.49882 110.089 10.7934 110.089 17.4196C110.089 24.2678 104.7 27.4513 100.053 27.4513C96.5383 27.4513 94.5467 25.4894 94.4295 24.712V27.0812H88.8451V7.83198V0.909668H94.4295V9.979C94.5467 9.57181 96.5383 7.49882 100.053 7.49882ZM99.2719 22.7501C102.084 22.7501 104.661 20.9362 104.661 17.4196C104.661 14.0139 102.084 12.2001 99.2719 12.2001C96.5383 12.2001 94.1562 13.9769 94.1562 17.4196C94.1562 20.9733 96.5383 22.7501 99.2719 22.7501ZM119.071 0.909668V27.0812H113.487V0.909668H119.071ZM133.13 7.49882C137.738 7.49882 144.103 10.7934 142.893 19.3075H128.131C128.834 21.7136 130.943 22.9722 133.676 22.9722C136.215 22.9722 137.191 22.4169 138.636 21.6766L141.721 24.527C139.964 26.2668 137.464 27.4513 133.481 27.4513C128.404 27.4513 122.469 24.1568 122.469 17.5306C122.469 10.7934 128.522 7.49882 133.13 7.49882ZM133.13 12.015C131.099 12.015 128.951 13.1995 128.209 15.5687H137.972C137.347 13.1995 135.121 12.015 133.13 12.015ZM148.985 27.2663C147.188 27.2663 145.782 25.9336 145.782 24.2308C145.782 22.565 147.188 21.2324 148.985 21.2324C150.742 21.2324 152.148 22.565 152.148 24.2308C152.148 25.9336 150.742 27.2663 148.985 27.2663Z" fill="#7100DA"/>
</svg>
