<svg width="30" height="40" viewBox="0 0 30 40" fill="none" xmlns="http://www.w3.org/2000/svg">
<path d="M14.9998 0C7.01188 0 0.51329 6.49859 0.51329 14.4864C0.51329 24.3995 13.4773 38.9526 14.0292 39.5673C14.5477 40.1447 15.4528 40.1437 15.9703 39.5673C16.5223 38.9526 29.4863 24.3995 29.4863 14.4864C29.4861 6.49859 22.9876 0 14.9998 0ZM14.9998 21.7749C10.9809 21.7749 7.71134 18.5053 7.71134 14.4864C7.71134 10.4675 10.9809 7.19797 14.9998 7.19797C19.0186 7.19797 22.2881 10.4676 22.2881 14.4865C22.2881 18.5054 19.0186 21.7749 14.9998 21.7749Z" fill="#A341FF"/>
</svg>
