<svg width="29" height="29" viewBox="0 0 29 29" fill="none" xmlns="http://www.w3.org/2000/svg">
<path d="M23.4919 11.4019L10.7192 24.1123L3.09375 26.6417L5.63557 19.0534L18.3447 6.34308L23.4919 11.4019Z" stroke="white" stroke-width="2" stroke-miterlimit="10" stroke-linecap="round" stroke-linejoin="round"/>
<path d="M5.63477 19.0534L10.7184 24.1122L5.63477 19.0534Z" stroke="white" stroke-width="2" stroke-miterlimit="10" stroke-linecap="round" stroke-linejoin="round"/>
<path d="M25.3982 6.97549C26.0972 7.67108 26.0972 8.80932 25.3982 9.50491L23.4918 11.402L18.4082 6.34314L20.3146 4.44607C21.0136 3.75048 22.1574 3.75048 22.8564 4.44607L25.3982 6.97549Z" stroke="white" stroke-width="2" stroke-miterlimit="10" stroke-linecap="round" stroke-linejoin="round"/>
<path d="M11 9.31582L14.8127 5.52169C15.5117 4.8261 16.6556 4.8261 17.3546 5.52169C16.6556 4.8261 15.5117 4.8261 14.8127 5.52169L11 9.31582Z" stroke="white" stroke-width="2" stroke-miterlimit="10" stroke-linecap="round" stroke-linejoin="round"/>
<path d="M25.3983 6.97549C26.0973 6.2799 26.0973 5.14166 25.3983 4.44607C24.6993 3.75048 23.5554 3.75048 22.8564 4.44607L25.3983 6.97549Z" stroke="white" stroke-width="2" stroke-miterlimit="10" stroke-linecap="round" stroke-linejoin="round"/>
</svg>
