<svg width="35" height="35" viewBox="0 0 35 35" fill="none" xmlns="http://www.w3.org/2000/svg">
<path d="M17.875 1C8.5375 1 1 8.37 1 17.5C1 26.63 8.5375 34 17.875 34C27.2125 34 34.75 26.63 34.75 17.5C34.75 8.37 27.2125 1 17.875 1ZM17.875 31.8C9.775 31.8 3.25 25.42 3.25 17.5C3.25 9.58 9.775 3.2 17.875 3.2C25.975 3.2 32.5 9.58 32.5 17.5C32.5 25.42 25.975 31.8 17.875 31.8Z" fill="#A341FF" stroke="#A341FF" stroke-width="0.3"/>
<path d="M21.9915 8.61779C21.4587 8.34674 20.807 8.55912 20.536 9.09213L12.4853 24.9267C12.2143 25.4597 12.4267 26.1113 12.9596 26.3822C13.1168 26.4621 13.2843 26.5 13.4493 26.5C13.8438 26.5 14.224 26.2837 14.4151 25.9079L22.4659 10.0733C22.7368 9.54035 22.5245 8.88877 21.9915 8.61779Z" fill="#A341FF" stroke="#A341FF" stroke-width="0.3"/>
<path d="M16.2108 13.8322C16.2108 11.5685 14.3691 9.72675 12.1053 9.72675C9.84173 9.72675 8 11.5685 8 13.8322C8 16.0959 9.84173 17.9376 12.1054 17.9376C14.3692 17.9376 16.2108 16.0959 16.2108 13.8322ZM12.1054 15.7727C11.0355 15.7727 10.165 14.9021 10.165 13.8322C10.165 12.7622 11.0355 11.8917 12.1054 11.8917C13.1754 11.8917 14.0459 12.7622 14.0459 13.8322C14.0459 14.9021 13.1754 15.7727 12.1054 15.7727Z" fill="#A341FF" stroke="#A341FF" stroke-width="0.3"/>
<path d="M22.8946 17.0625C20.6309 17.0625 18.7891 18.9042 18.7891 21.1679C18.7891 23.4316 20.6308 25.2733 22.8946 25.2733C25.1583 25.2733 27 23.4316 27 21.1679C27 18.9042 25.1583 17.0625 22.8946 17.0625ZM22.8946 23.1083C21.8246 23.1083 20.9541 22.2377 20.9541 21.1678C20.9541 20.0979 21.8246 19.2274 22.8946 19.2274C23.9645 19.2274 24.835 20.0979 24.835 21.1678C24.835 22.2377 23.9646 23.1083 22.8946 23.1083Z" fill="#A341FF" stroke="#A341FF" stroke-width="0.3"/>
</svg>
