<svg width="36" height="38" viewBox="0 0 36 38" fill="none" xmlns="http://www.w3.org/2000/svg">
<path d="M17.896 37.1257C17.5247 37.1257 16.8775 37.0199 15.5493 36.1059C14.706 35.5252 13.7292 34.7177 12.7245 33.7704C11.355 32.4785 8.75179 29.8042 6.70478 26.4086C3.38662 20.9045 1.12793 12.0743 1.0334 11.7011C0.91626 11.2384 1.11636 10.7536 1.52565 10.508C5.05852 8.39068 6.99748 6.14771 8.00211 4.63925C9.05497 3.05804 9.32921 1.93214 9.34575 1.86103C9.44414 1.35279 9.88623 1 10.4044 1H25.3875C25.9057 1 26.3478 1.35279 26.4464 1.86103C26.4627 1.93214 26.7369 3.05831 27.7898 4.63925C28.7947 6.14798 30.7337 8.39068 34.2663 10.5083C34.6758 10.7536 34.8759 11.2386 34.7585 11.7014C34.664 12.0746 32.4056 20.9045 29.0871 26.4089C27.0401 29.8045 24.4369 32.4785 23.0674 33.7704C22.0627 34.7179 21.0862 35.5255 20.2426 36.1059C18.9144 37.0202 18.2672 37.1257 17.896 37.1257V37.1257Z" stroke="white" stroke-width="1.5"/>
<path d="M2.92041 17.8909C3.88921 20.6738 5.18571 23.8894 6.70464 26.4088C8.75165 29.8044 11.3549 32.4785 12.7244 33.7703C13.729 34.7179 14.7058 35.5254 15.5492 36.1059C16.8774 37.0201 17.5246 37.1259 17.8958 37.1259H17.8964V17.8909H2.92041Z" fill="#A341FF" stroke="white" stroke-width="1.5"/>
<path d="M17.8964 17.8909V37.1257C18.2679 37.1257 18.9148 37.0196 20.2424 36.1059C21.0858 35.5255 22.0626 34.7176 23.0672 33.7703C24.4368 32.4785 27.04 29.8045 29.087 26.4086C30.6056 23.8894 31.9024 20.6738 32.8712 17.8906H17.8964V17.8909Z" stroke="white" stroke-width="1.5"/>
<path d="M32.8713 17.891C34.0192 14.5935 34.7072 11.9037 34.7584 11.7014C34.8758 11.2387 34.6757 10.7536 34.2662 10.5083C30.7336 8.39071 28.7943 6.148 27.7897 4.63927C26.7368 3.05832 26.4629 1.93214 26.4463 1.86103C26.3477 1.35279 25.9056 1 25.3874 1H17.8964V17.891H32.8713Z" fill="#A341FF" stroke="white" stroke-width="1.5"/>
<path d="M17.8965 1H10.4043C9.88615 1 9.44406 1.35279 9.34566 1.86103C9.32912 1.93214 9.05488 3.05832 8.00202 4.63927C6.99739 6.148 5.05814 8.39071 1.52554 10.5083C1.11597 10.7536 0.915868 11.2387 1.03328 11.7014C1.08455 11.9037 1.77249 14.5935 2.92044 17.891H17.8965V1Z" stroke="white" stroke-width="1.5"/>
<path d="M10.4186 17.8908C10.4186 21.9911 13.7243 25.333 17.8107 25.3931V10.3884C13.7243 10.4482 10.4186 13.7904 10.4186 17.8908Z" stroke="white" stroke-width="1.5"/>
<path d="M16.9652 18.2842L16.342 17.5268C15.9625 17.0657 15.2808 16.9996 14.8197 17.3788C14.3584 17.7583 14.2922 18.4399 14.6717 18.9013L16.052 20.5787C16.2458 20.8144 16.5302 20.9572 16.8348 20.9718C16.8521 20.9726 16.8698 20.9731 16.8872 20.9731C17.1732 20.9731 17.4486 20.8596 17.652 20.6562L17.8107 20.4974V17.4383L16.9652 18.2842Z" stroke="white" stroke-width="1.5"/>
<path d="M17.9223 25.3946C13.7847 25.3946 10.4186 22.0282 10.4186 17.8909C10.4186 13.7533 13.7847 10.3872 17.9223 10.3872C22.0599 10.3872 25.426 13.7533 25.426 17.8906C25.426 22.0282 22.0599 25.3946 17.9223 25.3946V25.3946Z" fill="url(#paint0_linear)" stroke="white" stroke-width="1.5"/>
<path d="M15.1091 18.1082L16.7322 19.7312" stroke="white" stroke-width="1.5" stroke-linecap="round"/>
<path d="M20.5156 16.2717L16.9448 19.8425" stroke="white" stroke-width="1.5" stroke-linecap="round"/>
<defs>
<linearGradient id="paint0_linear" x1="25.426" y1="17.8909" x2="10.4186" y2="17.8909" gradientUnits="userSpaceOnUse">
<stop stop-color="#A341FF"/>
<stop offset="1" stop-color="#7100DA"/>
</linearGradient>
</defs>
</svg>
