<svg width="79" height="84" viewBox="0 0 79 84" fill="none" xmlns="http://www.w3.org/2000/svg">
<path d="M39.3508 82.9997C38.5081 82.9997 37.0392 82.7594 34.0244 80.6849C32.11 79.3668 29.8929 77.5337 27.6125 75.3835C24.5039 72.4513 18.595 66.381 13.9486 58.6735C6.41694 46.1802 1.29008 26.1369 1.0755 25.2899C0.809614 24.2395 1.26381 23.139 2.19283 22.5816C10.2119 17.7757 14.613 12.6845 16.8934 9.26053C19.2832 5.67141 19.9057 3.11581 19.9432 2.9544C20.1665 1.80078 21.17 1 22.3462 1H56.3555C57.5316 1 58.5351 1.80078 58.7591 2.9544C58.796 3.11581 59.4184 5.67204 61.8083 9.26053C64.0892 12.6851 68.4904 17.7757 76.5088 22.5822C77.4385 23.139 77.8926 24.2401 77.6261 25.2905C77.4116 26.1376 72.2853 46.1802 64.753 58.6742C60.1066 66.3817 54.1977 72.4513 51.0891 75.3835C48.8088 77.5344 46.5922 79.3674 44.6772 80.6849C41.6624 82.7601 40.1935 82.9997 39.3508 82.9997V82.9997Z" stroke="white" stroke-width="2"/>
<path d="M5.35913 39.3397C7.55814 45.6565 10.501 52.9555 13.9487 58.6741C18.5951 66.3816 24.504 72.4513 27.6126 75.3835C29.893 77.5343 32.1101 79.3674 34.0245 80.6849C37.0393 82.76 38.5082 83.0003 39.3509 83.0003H39.3522V39.3397H5.35913Z" fill="#A341FF" stroke="white" stroke-width="2"/>
<path d="M39.3521 39.3397V82.9997C40.1954 82.9997 41.6637 82.7588 44.6772 80.6849C46.5916 79.3674 48.8087 77.5337 51.0891 75.3835C54.1977 72.4513 60.1066 66.3816 64.753 58.6735C68.2001 52.9555 71.1436 45.6565 73.3426 39.3391H39.3521V39.3397Z" stroke="white" stroke-width="2"/>
<path d="M73.3427 39.3399C75.9484 31.8551 77.5099 25.7498 77.6263 25.2906C77.8928 24.2402 77.4386 23.1391 76.5089 22.5823C68.4905 17.7757 64.0887 12.6852 61.8083 9.26056C59.4185 5.67206 58.7966 3.11581 58.7591 2.95441C58.5351 1.80078 57.5317 1 56.3555 1H39.3521V39.3399H73.3427Z" fill="#A341FF" stroke="white" stroke-width="2"/>
<path d="M39.3523 1H22.3463C21.1701 1 20.1667 1.80078 19.9433 2.95441C19.9058 3.11581 19.2833 5.67206 16.8935 9.26056C14.6131 12.6852 10.2113 17.7757 2.19288 22.5823C1.26323 23.1391 0.809033 24.2402 1.07554 25.2906C1.19191 25.7498 2.75343 31.8551 5.3591 39.3399H39.3523V1Z" stroke="white" stroke-width="2"/>
<path d="M22.3787 39.3398C22.3787 48.647 29.8822 56.2325 39.1575 56.3689V22.3107C29.8822 22.4464 22.3787 30.0326 22.3787 39.3398Z" stroke="white" stroke-width="2"/>
<path d="M37.2382 40.2326L35.8237 38.5134C34.9623 37.4668 33.4151 37.3166 32.3685 38.1774C31.3212 39.0389 31.1711 40.586 32.0325 41.6333L35.1656 45.4408C35.6054 45.9757 36.251 46.2997 36.9423 46.3329C36.9817 46.3348 37.0218 46.336 37.0612 46.336C37.7106 46.336 38.3355 46.0783 38.7972 45.6166L39.1576 45.2562V38.3126L37.2382 40.2326Z" stroke="white" stroke-width="2"/>
<path d="M39.4109 56.3721C30.0192 56.3721 22.3787 48.7309 22.3787 39.3399C22.3787 29.9482 30.0192 22.3076 39.4109 22.3076C48.8026 22.3076 56.4431 29.9482 56.4431 39.3392C56.4431 48.7309 48.8026 56.3721 39.4109 56.3721Z" fill="url(#paint0_linear)" stroke="white" stroke-width="2"/>
<path d="M33.0254 39.8325L36.7095 43.5167" stroke="white" stroke-width="4" stroke-linecap="round"/>
<path d="M45.2974 35.6644L37.1923 43.7695" stroke="white" stroke-width="4" stroke-linecap="round"/>
<defs>
<linearGradient id="paint0_linear" x1="56.4431" y1="39.3399" x2="22.3787" y2="39.3399" gradientUnits="userSpaceOnUse">
<stop stop-color="#A341FF"/>
<stop offset="1" stop-color="#7100DA"/>
</linearGradient>
</defs>
</svg>
