<svg width="514" height="257" viewBox="0 0 514 257" fill="none" xmlns="http://www.w3.org/2000/svg">
<mask id="path-1-inside-1" fill="white">
<path d="M506.163 256.503C510.029 256.503 513.173 253.368 513.067 249.503C511.281 184.103 484.522 121.756 438.134 75.3688C390.094 27.3291 324.939 0.340581 257 0.340576C189.062 0.340571 123.906 27.329 75.8658 75.3688C29.4784 121.756 2.71903 184.103 0.933073 249.503C0.827539 253.368 3.97153 256.503 7.83752 256.503L152.792 256.503C156.658 256.503 159.766 253.365 160.044 249.509C161.718 226.284 171.689 204.341 188.264 187.767C206.494 169.537 231.219 159.295 257 159.295C282.781 159.295 307.506 169.537 325.736 187.767C342.311 204.341 352.282 226.284 353.956 249.509C354.234 253.365 357.342 256.503 361.208 256.503H506.163Z"/>
</mask>
<path d="M506.163 256.503C510.029 256.503 513.173 253.368 513.067 249.503C511.281 184.103 484.522 121.756 438.134 75.3688C390.094 27.3291 324.939 0.340581 257 0.340576C189.062 0.340571 123.906 27.329 75.8658 75.3688C29.4784 121.756 2.71903 184.103 0.933073 249.503C0.827539 253.368 3.97153 256.503 7.83752 256.503L152.792 256.503C156.658 256.503 159.766 253.365 160.044 249.509C161.718 226.284 171.689 204.341 188.264 187.767C206.494 169.537 231.219 159.295 257 159.295C282.781 159.295 307.506 169.537 325.736 187.767C342.311 204.341 352.282 226.284 353.956 249.509C354.234 253.365 357.342 256.503 361.208 256.503H506.163Z" stroke="#5700A7" stroke-width="6" mask="url(#path-1-inside-1)"/>
</svg>
