<svg width="17" height="16" viewBox="0 0 17 16" fill="none" xmlns="http://www.w3.org/2000/svg">
<path d="M7.55544 1.71739C7.86673 0.821825 9.13327 0.821828 9.44456 1.71739L10.5051 4.76845C10.6424 5.16352 11.0111 5.43139 11.4293 5.43991L14.6588 5.50572C15.6067 5.52504 15.9981 6.72959 15.2425 7.30239L12.6685 9.25386C12.3352 9.50655 12.1944 9.93997 12.3155 10.3403L13.2509 13.4321C13.5254 14.3396 12.5008 15.084 11.7226 14.5424L9.07118 12.6975C8.72786 12.4586 8.27214 12.4586 7.92882 12.6975L5.27745 14.5425C4.4992 15.084 3.47456 14.3395 3.74911 13.432L4.68448 10.3403C4.8056 9.93997 4.66477 9.50655 4.33147 9.25386L1.75746 7.30239C1.00193 6.72959 1.39331 5.52504 2.34124 5.50572L5.5707 5.43991C5.98887 5.43139 6.35756 5.16352 6.49489 4.76845L7.55544 1.71739Z" fill="#A341FF" stroke="#A341FF" stroke-linecap="round" stroke-linejoin="round"/>
</svg>
