<svg width="728" height="1637" viewBox="0 0 728 1637" fill="none" xmlns="http://www.w3.org/2000/svg">
	<path d="M25 25H544.3C631.948 25 703 96.0524 703 183.7V183.7C703 271.348 631.948 342.4 544.3 342.4H183.7C96.0525 342.4 25 413.452 25 501.1V501.1C25 588.748 96.0525 659.8 183.7 659.8H544.3C631.948 659.8 703 730.852 703 818.5V818.5C703 906.148 631.948 977.2 544.3 977.2H183.7C96.0525 977.2 25 1048.25 25 1135.9V1135.9C25 1223.55 96.0525 1294.6 183.7 1294.6H544.3C631.948 1294.6 703 1365.65 703 1453.3V1453.3C703 1540.95 631.948 1612 544.3 1612H25" stroke="#374873" stroke-opacity="0.1" stroke-width="50" stroke-linecap="round" stroke-linejoin="round"/>
	<path d="M25 25H544.3C631.948 25 703 96.0524 703 183.7V183.7C703 271.348 631.948 342.4 544.3 342.4H183.7C96.0525 342.4 25 413.452 25 501.1V501.1C25 588.748 96.0525 659.8 183.7 659.8H544.3C631.948 659.8 703 730.852 703 818.5V818.5C703 906.148 631.948 977.2 544.3 977.2H183.7C96.0525 977.2 25 1048.25 25 1135.9V1135.9C25 1223.55 96.0525 1294.6 183.7 1294.6H544.3C631.948 1294.6 703 1365.65 703 1453.3V1453.3C703 1540.95 631.948 1612 544.3 1612H25" stroke="#333333" stroke-width="4" stroke-linecap="square" stroke-linejoin="round" stroke-dasharray="15 25"/>
	<path d="M173.625 639.75V644.625H165.5C165.069 644.625 164.656 644.454 164.351 644.149C164.046 643.844 163.875 643.431 163.875 643V626.75C163.875 626.319 164.046 625.906 164.351 625.601C164.656 625.296 165.069 625.125 165.5 625.125H173.625V639.75Z" fill="#57565C"/>
	<path d="M193.125 672.25C198.51 672.25 202.875 667.885 202.875 662.5C202.875 657.115 198.51 652.75 193.125 652.75C187.74 652.75 183.375 657.115 183.375 662.5C183.375 667.885 187.74 672.25 193.125 672.25Z" fill="#57565C"/>
	<path d="M238.625 672.25C244.01 672.25 248.375 667.885 248.375 662.5C248.375 657.115 244.01 652.75 238.625 652.75C233.24 652.75 228.875 657.115 228.875 662.5C228.875 667.885 233.24 672.25 238.625 672.25Z" fill="#57565C"/>
	<path d="M180.125 620.25H215.875V636.5H180.125V620.25Z" fill="#E1D9E9"/>
	<path d="M258.125 643V649.5H250C249.569 649.5 249.156 649.329 248.851 649.024C248.546 648.719 248.375 648.306 248.375 647.875V644.625C248.375 644.194 248.546 643.781 248.851 643.476C249.156 643.171 249.569 643 250 643H258.125Z" fill="#F4F3DA"/>
	<path d="M230.273 620.25L241.875 636.5H215.875V620.25H230.273Z" fill="#EEEAF1"/>
	<path d="M193.125 652.75C190.539 652.75 188.059 653.777 186.231 655.606C184.402 657.434 183.375 659.914 183.375 662.5H176.875C176.014 662.497 175.189 662.154 174.58 661.545C173.971 660.936 173.628 660.111 173.625 659.25V620.25C173.625 618.526 174.31 616.873 175.529 615.654C176.748 614.435 178.401 613.75 180.125 613.75H223.951C224.47 613.75 224.981 613.874 225.441 614.111C225.902 614.349 226.299 614.693 226.6 615.115L230.273 620.25H180.125V636.5H215.875V662.5H202.875C202.875 659.914 201.848 657.434 200.019 655.606C198.191 653.777 195.711 652.75 193.125 652.75Z" fill="#F01A14"/>
	<path d="M215.875 662.5V636.5H254.875C255.736 636.503 256.561 636.846 257.17 637.455C257.779 638.064 258.122 638.889 258.125 639.75V643H250C249.569 643 249.156 643.171 248.851 643.476C248.546 643.781 248.375 644.194 248.375 644.625V647.875C248.375 648.306 248.546 648.719 248.851 649.024C249.156 649.329 249.569 649.5 250 649.5H258.125V659.25C258.122 660.111 257.779 660.936 257.17 661.545C256.561 662.154 255.736 662.497 254.875 662.5H248.375C248.375 659.914 247.348 657.434 245.519 655.606C243.691 653.777 241.211 652.75 238.625 652.75C236.039 652.75 233.559 653.777 231.731 655.606C229.902 657.434 228.875 659.914 228.875 662.5H215.875Z" fill="#FF0700"/>
	<path d="M193.125 673.875C190.875 673.875 188.676 673.208 186.805 671.958C184.935 670.708 183.477 668.932 182.616 666.853C181.755 664.775 181.53 662.487 181.969 660.281C182.407 658.074 183.491 656.047 185.082 654.457C186.672 652.866 188.699 651.782 190.906 651.344C193.112 650.905 195.4 651.13 197.478 651.991C199.557 652.852 201.333 654.31 202.583 656.18C203.833 658.051 204.5 660.25 204.5 662.5C204.497 665.516 203.297 668.407 201.165 670.54C199.032 672.672 196.141 673.872 193.125 673.875V673.875ZM193.125 654.375C191.518 654.375 189.947 654.852 188.611 655.744C187.275 656.637 186.233 657.906 185.618 659.391C185.004 660.875 184.843 662.509 185.156 664.085C185.47 665.661 186.243 667.109 187.38 668.245C188.516 669.382 189.964 670.155 191.54 670.469C193.116 670.782 194.75 670.621 196.234 670.007C197.719 669.392 198.988 668.35 199.881 667.014C200.773 665.678 201.25 664.107 201.25 662.5C201.247 660.346 200.391 658.281 198.867 656.758C197.344 655.234 195.279 654.378 193.125 654.375V654.375Z" fill="#3E3D42"/>
	<path d="M238.625 673.875C236.375 673.875 234.176 673.208 232.305 671.958C230.435 670.708 228.977 668.932 228.116 666.853C227.255 664.775 227.03 662.487 227.469 660.281C227.907 658.074 228.991 656.047 230.582 654.457C232.172 652.866 234.199 651.782 236.406 651.344C238.612 650.905 240.9 651.13 242.978 651.991C245.057 652.852 246.833 654.31 248.083 656.18C249.333 658.051 250 660.25 250 662.5C249.997 665.516 248.797 668.407 246.665 670.54C244.532 672.672 241.641 673.872 238.625 673.875V673.875ZM238.625 654.375C237.018 654.375 235.447 654.852 234.111 655.744C232.775 656.637 231.733 657.906 231.118 659.391C230.504 660.875 230.343 662.509 230.656 664.085C230.97 665.661 231.743 667.109 232.88 668.245C234.016 669.382 235.464 670.155 237.04 670.469C238.616 670.782 240.25 670.621 241.734 670.007C243.219 669.392 244.488 668.35 245.381 667.014C246.273 665.678 246.75 664.107 246.75 662.5C246.747 660.346 245.891 658.281 244.367 656.758C242.844 655.234 240.779 654.378 238.625 654.375V654.375Z" fill="#3E3D42"/>
	<path d="M251.625 654.375H258.125V657.625H251.625V654.375Z" fill="#FF9100"/>
	<path d="M191.5 660.875H194.75V664.125H191.5V660.875Z" fill="#3E3D42"/>
	<path d="M237 660.875H240.25V664.125H237V660.875Z" fill="#3E3D42"/>
	<path d="M173.625 654.375H180.125V657.625H173.625V654.375Z" fill="#FF9100"/>
	<path d="M163.875 628.375H167.125V631.625H163.875V628.375Z" fill="#3E3D42"/>
	<path d="M170.375 631.625H173.625V634.875H170.375V631.625Z" fill="#3E3D42"/>
	<path d="M170.375 638.125H173.625V641.375H170.375V638.125Z" fill="#3E3D42"/>
	<path d="M163.875 634.875H167.125V638.125H163.875V634.875Z" fill="#3E3D42"/>
</svg>
