<svg width="19" height="20" viewBox="0 0 19 20" fill="none" xmlns="http://www.w3.org/2000/svg">
<path d="M18.114 17.3951L13.83 12.9395C14.9315 11.6301 15.535 9.98262 15.535 8.26749C15.535 4.26026 12.2747 1 8.26749 1C4.26026 1 1 4.26026 1 8.26749C1 12.2747 4.26026 15.535 8.26749 15.535C9.77186 15.535 11.2055 15.0812 12.4311 14.2199L16.7477 18.7093C16.9281 18.8967 17.1708 19 17.4309 19C17.677 19 17.9105 18.9062 18.0878 18.7355C18.4644 18.3731 18.4764 17.7721 18.114 17.3951ZM8.26749 2.89587C11.2295 2.89587 13.6391 5.30552 13.6391 8.26749C13.6391 11.2295 11.2295 13.6391 8.26749 13.6391C5.30551 13.6391 2.89587 11.2295 2.89587 8.26749C2.89587 5.30552 5.30551 2.89587 8.26749 2.89587Z" fill="white" stroke="white" stroke-width="0.8"/>
</svg>
