<svg width="32" height="32" viewBox="0 0 32 32" fill="none" xmlns="http://www.w3.org/2000/svg">
<path d="M25.3036 19.8227C24.6475 19.1406 23.8562 18.7759 23.0175 18.7759C22.1856 18.7759 21.3874 19.1339 20.7043 19.816L18.567 21.9434C18.3911 21.8489 18.2153 21.7611 18.0462 21.6733C17.8027 21.5517 17.5727 21.4369 17.3766 21.3153C15.3746 20.0456 13.5551 18.3909 11.8101 16.25C10.9647 15.1829 10.3965 14.2846 9.98392 13.3728C10.5385 12.8663 11.0526 12.3395 11.5531 11.833C11.7425 11.6439 11.9319 11.448 12.1212 11.2589C13.5416 9.8406 13.5416 8.00356 12.1212 6.58526L10.2748 4.74146C10.0651 4.5321 9.84865 4.31597 9.64574 4.09985C9.23992 3.68112 8.81381 3.24887 8.37418 2.84364C7.7181 2.19527 6.93352 1.85083 6.10835 1.85083C5.28319 1.85083 4.48508 2.19527 3.80871 2.84364C3.80195 2.8504 3.80195 2.8504 3.79518 2.85715L1.49554 5.17371C0.629796 6.0382 0.13605 7.09179 0.0278314 8.31423C-0.134496 10.2863 0.447178 12.1234 0.893579 13.3256C1.98929 16.277 3.62609 19.0123 6.06777 21.9434C9.03025 25.4757 12.5947 28.265 16.6664 30.2304C18.2221 30.9665 20.2985 31.8378 22.6184 31.9864C22.7605 31.9931 22.9093 31.9999 23.0445 31.9999C24.6069 31.9999 25.9191 31.4393 26.9472 30.3249C26.9539 30.3114 26.9675 30.3047 26.9742 30.2912C27.3259 29.8657 27.7317 29.4807 28.1579 29.0687C28.4487 28.7918 28.7463 28.5014 29.0371 28.1975C29.7067 27.5018 30.0584 26.6914 30.0584 25.8607C30.0584 25.0232 29.7 24.2195 29.0168 23.5441L25.3036 19.8227ZM27.725 26.9345C27.7182 26.9345 27.7182 26.9413 27.725 26.9345C27.4612 27.2182 27.1907 27.4748 26.8998 27.7585C26.4602 28.1772 26.0138 28.6162 25.5944 29.1092C24.9113 29.8387 24.1064 30.1831 23.0513 30.1831C22.9498 30.1831 22.8416 30.1831 22.7402 30.1763C20.7314 30.048 18.8646 29.2646 17.4645 28.596C13.6363 26.7454 10.2748 24.1182 7.48137 20.7885C5.17497 18.0127 3.63286 15.4463 2.61155 12.6907C1.98253 11.009 1.75256 9.69877 1.85402 8.46282C1.92165 7.67262 2.22602 7.0175 2.7874 6.45693L5.09381 4.15388C5.42522 3.84321 5.77693 3.67436 6.12188 3.67436C6.54799 3.67436 6.89294 3.93101 7.10937 4.14713C7.11614 4.15388 7.1229 4.16064 7.12966 4.16739C7.54225 4.55236 7.93454 4.95083 8.34712 5.37632C8.55679 5.59245 8.77323 5.80857 8.98967 6.03144L10.8361 7.87524C11.5531 8.59114 11.5531 9.25302 10.8361 9.96892C10.64 10.1648 10.4506 10.3606 10.2545 10.5497C9.68632 11.1306 9.14523 11.6709 8.55679 12.1977C8.54327 12.2112 8.52974 12.2179 8.52298 12.2314C7.9413 12.8123 8.04952 13.3796 8.17127 13.7646C8.17803 13.7848 8.18479 13.8051 8.19156 13.8253C8.67178 14.987 9.34814 16.0811 10.3762 17.3846L10.383 17.3914C12.2497 19.6877 14.218 21.4774 16.3891 22.8485C16.6664 23.0241 16.9505 23.1659 17.221 23.301C17.4645 23.4225 17.6945 23.5373 17.8906 23.6589C17.9177 23.6724 17.9447 23.6927 17.9718 23.7062C18.2018 23.821 18.4182 23.875 18.6414 23.875C19.2028 23.875 19.5545 23.5238 19.6695 23.409L21.9826 21.0992C22.2126 20.8696 22.5778 20.5927 23.004 20.5927C23.4233 20.5927 23.7682 20.8561 23.9779 21.0857C23.9847 21.0925 23.9847 21.0925 23.9914 21.0992L27.7182 24.8206C28.4149 25.5095 28.4149 26.2186 27.725 26.9345Z" fill="#A341FF"/>
<path d="M17.2955 7.61195C19.0676 7.90911 20.6774 8.74659 21.9625 10.0298C23.2475 11.313 24.0795 12.9204 24.3838 14.6899C24.4582 15.1357 24.8438 15.4464 25.2834 15.4464C25.3375 15.4464 25.3849 15.4396 25.439 15.4329C25.9395 15.3518 26.2709 14.8791 26.1897 14.3793C25.8245 12.2383 24.8099 10.2865 23.2611 8.73983C21.7122 7.19321 19.7575 6.18014 17.6134 5.81543C17.1129 5.73438 16.6462 6.06532 16.5583 6.55835C16.4704 7.05138 16.795 7.5309 17.2955 7.61195Z" fill="#A341FF"/>
<path d="M31.9861 14.1159C31.3841 10.5904 29.7202 7.38232 27.1636 4.82937C24.6069 2.27643 21.3942 0.61499 17.8636 0.0139004C17.3698 -0.0738993 16.9031 0.263792 16.8152 0.75682C16.734 1.2566 17.0655 1.72262 17.566 1.81042C20.7178 2.34397 23.5924 3.83656 25.8785 6.1126C28.1646 8.39539 29.6526 11.2658 30.1869 14.413C30.2613 14.8588 30.6469 15.1695 31.0865 15.1695C31.1406 15.1695 31.188 15.1627 31.2421 15.156C31.7358 15.0817 32.074 14.6089 31.9861 14.1159Z" fill="#A341FF"/>
</svg>
