<svg width="32" height="32" viewBox="0 0 32 32" fill="none" xmlns="http://www.w3.org/2000/svg">
<path d="M10.4535 8.21338L14.9335 3.73332V19.0934C14.9335 19.7333 15.3602 20.1601 16.0002 20.1601C16.6402 20.1601 17.067 19.7334 17.067 19.0934V3.73332L21.547 8.21338C21.7603 8.4267 22.187 8.4267 22.4003 8.4267C22.6136 8.4267 23.0402 8.4267 23.2536 8.21338C23.6802 7.78674 23.6802 7.14666 23.2536 6.72003L16.8534 0.319978C16.4268 -0.106659 15.7867 -0.106659 15.36 0.319978L8.96011 6.72003C8.53348 7.14666 8.53348 7.78674 8.96011 8.21338C9.38675 8.64002 10.0268 8.64002 10.4535 8.21338V8.21338Z" fill="#A341FF"/>
<path d="M30.9333 21.2266C30.2933 21.2266 29.8666 21.6532 29.8666 22.2933V26.5599C29.8666 28.2666 28.3732 29.7599 26.6665 29.7599H5.33333C3.62666 29.7599 2.13331 28.2666 2.13331 26.5599V22.2933C2.13331 21.6533 1.70667 21.2266 1.06659 21.2266C0.426515 21.2266 0 21.6533 0 22.2933V26.5599C0 29.5466 2.34663 31.8932 5.33333 31.8932H26.6667C29.6534 31.8932 32 29.5466 32 26.5599V22.2933C32 21.6532 31.5734 21.2266 30.9333 21.2266V21.2266Z" fill="#A341FF"/>
</svg>
