<svg width="32" height="32" viewBox="0 0 32 32" fill="none" xmlns="http://www.w3.org/2000/svg">
<path d="M27.3143 4.69012C24.291 1.66834 20.2757 0 15.9989 0C11.722 0 7.70668 1.66834 4.68342 4.69012C-1.14859 10.5193 -1.57091 19.8325 3.62427 26.1441C2.907 27.6114 2.06237 28.5896 1.10377 29.0586C0.520572 29.3467 0.192103 29.9765 0.285951 30.6198C0.386503 31.2697 0.882559 31.7722 1.53279 31.8727C1.88808 31.9263 2.27017 31.9598 2.66568 31.9598C4.62979 31.9598 6.69445 31.2831 8.41724 30.0972C10.7366 31.3434 13.3443 32 15.9989 32C20.2757 32 24.291 30.3384 27.3143 27.3166C30.3375 24.2948 32 20.2747 32 16.0067C32 11.7387 30.3375 7.71189 27.3143 4.69012ZM26.0339 26.0301C23.3525 28.7102 19.7863 30.1843 15.9989 30.1843C13.4649 30.1843 10.978 29.5075 8.81275 28.2345C8.67197 28.1541 8.51109 28.1072 8.35691 28.1072C8.16251 28.1072 7.96141 28.1742 7.80053 28.2948C5.74927 29.8827 3.6846 30.1173 2.77964 30.1374C3.85889 29.3333 4.76386 28.0871 5.52135 26.3518C5.66212 26.0301 5.60179 25.6549 5.36717 25.3869C0.406613 19.7856 0.668048 11.2496 5.96378 5.95645C8.64516 3.27638 12.2114 1.80234 15.9989 1.80234C19.7863 1.80234 23.3525 3.27638 26.0339 5.95645C31.571 11.4975 31.571 20.5025 26.0339 26.0301Z" fill="#A341FF"/>
<path d="M22.7025 10.7202H9.29559C8.79283 10.7202 8.39062 11.1224 8.39062 11.6252C8.39062 12.1279 8.79283 12.5301 9.29559 12.5301H22.7025C23.2053 12.5301 23.6075 12.1279 23.6075 11.6252C23.6075 11.1224 23.1986 10.7202 22.7025 10.7202Z" fill="#A341FF"/>
<path d="M22.7025 15.0955H9.29559C8.79283 15.0955 8.39062 15.4977 8.39062 16.0004C8.39062 16.5032 8.79283 16.9054 9.29559 16.9054H22.7025C23.2053 16.9054 23.6075 16.5032 23.6075 16.0004C23.6075 15.4977 23.1986 15.0955 22.7025 15.0955Z" fill="#A341FF"/>
<path d="M22.7025 19.4707H9.29559C8.79283 19.4707 8.39062 19.8729 8.39062 20.3757C8.39062 20.8784 8.79283 21.2806 9.29559 21.2806H22.7025C23.2053 21.2806 23.6075 20.8784 23.6075 20.3757C23.6075 19.8729 23.1986 19.4707 22.7025 19.4707Z" fill="#A341FF"/>
</svg>
