<svg width="32" height="32" viewBox="0 0 32 32" fill="none" xmlns="http://www.w3.org/2000/svg">
<path d="M25.175 13.125C25.175 13.7049 24.7049 14.175 24.125 14.175C23.5451 14.175 23.075 13.7049 23.075 13.125C23.075 12.5451 23.5451 12.075 24.125 12.075C24.7049 12.075 25.175 12.5451 25.175 13.125Z" fill="#A341FF" stroke="white" stroke-width="0.4"/>
<path d="M25.175 2.5V2.7H25.375H27C29.6465 2.7 31.8 4.85346 31.8 7.5V14.625C31.8 15.2049 31.3299 15.675 30.75 15.675C30.1701 15.675 29.7 15.2049 29.7 14.625V7.5C29.7 6.01104 28.489 4.8 27 4.8H25.375H25.175V5V6.25C25.175 6.82992 24.7049 7.3 24.125 7.3C23.5451 7.3 23.075 6.82992 23.075 6.25V5V4.8H22.875H17.1875H16.9875V5V6.25C16.9875 6.82992 16.5174 7.3 15.9375 7.3C15.3576 7.3 14.8875 6.82992 14.8875 6.25V5V4.8H14.6875H9.0625H8.8625V5V6.25C8.8625 6.82992 8.39242 7.3 7.8125 7.3C7.23258 7.3 6.7625 6.82992 6.7625 6.25V5V4.8H6.5625H5C3.51104 4.8 2.3 6.01104 2.3 7.5V27C2.3 28.489 3.51104 29.7 5 29.7H14.5625C15.1424 29.7 15.6125 30.1701 15.6125 30.75C15.6125 31.3299 15.1424 31.8 14.5625 31.8H5C2.35346 31.8 0.2 29.6465 0.2 27V7.5C0.2 4.85346 2.35346 2.7 5 2.7H6.5625H6.7625V2.5V1.25C6.7625 0.670082 7.23258 0.2 7.8125 0.2C8.39242 0.2 8.8625 0.670082 8.8625 1.25V2.5V2.7H9.0625H14.6875H14.8875V2.5V1.25C14.8875 0.670082 15.3576 0.2 15.9375 0.2C16.5174 0.2 16.9875 0.670082 16.9875 1.25V2.5V2.7H17.1875H22.875H23.075V2.5V1.25C23.075 0.670082 23.5451 0.2 24.125 0.2C24.7049 0.2 25.175 0.670082 25.175 1.25V2.5Z" fill="#A341FF" stroke="white" stroke-width="0.4"/>
<path d="M17.075 24.4375C17.075 20.378 20.378 17.075 24.4375 17.075C28.497 17.075 31.8 20.378 31.8 24.4375C31.8 28.497 28.497 31.8 24.4375 31.8C20.378 31.8 17.075 28.497 17.075 24.4375ZM19.175 24.4375C19.175 27.3395 21.5356 29.7 24.4375 29.7C27.3394 29.7 29.7 27.3395 29.7 24.4375C29.7 21.5355 27.3394 19.175 24.4375 19.175C21.5356 19.175 19.175 21.5355 19.175 24.4375Z" fill="#A341FF" stroke="white" stroke-width="0.4"/>
<path d="M25.4875 23.1875V23.3875H25.6875H26.25C26.8299 23.3875 27.3 23.8576 27.3 24.4375C27.3 25.0174 26.8299 25.4875 26.25 25.4875H24.4375C23.8576 25.4875 23.3875 25.0174 23.3875 24.4375V21.875C23.3875 21.2951 23.8576 20.825 24.4375 20.825C25.0174 20.825 25.4875 21.2951 25.4875 21.875V23.1875Z" fill="#A341FF" stroke="white" stroke-width="0.4"/>
<path d="M19.7375 13.125C19.7375 13.7049 19.2674 14.175 18.6875 14.175C18.1076 14.175 17.6375 13.7049 17.6375 13.125C17.6375 12.5451 18.1076 12.075 18.6875 12.075C19.2674 12.075 19.7375 12.5451 19.7375 13.125Z" fill="#A341FF" stroke="white" stroke-width="0.4"/>
<path d="M14.3 18.5625C14.3 19.1424 13.8299 19.6125 13.25 19.6125C12.6701 19.6125 12.2 19.1424 12.2 18.5625C12.2 17.9826 12.6701 17.5125 13.25 17.5125C13.8299 17.5125 14.3 17.9826 14.3 18.5625Z" fill="#A341FF" stroke="white" stroke-width="0.4"/>
<path d="M8.8625 13.125C8.8625 13.7049 8.3924 14.175 7.8125 14.175C7.2326 14.175 6.7625 13.7049 6.7625 13.125C6.7625 12.5451 7.2326 12.075 7.8125 12.075C8.3924 12.075 8.8625 12.5451 8.8625 13.125Z" fill="#A341FF" stroke="white" stroke-width="0.4"/>
<path d="M8.8625 18.5625C8.8625 19.1424 8.3924 19.6125 7.8125 19.6125C7.2326 19.6125 6.7625 19.1424 6.7625 18.5625C6.7625 17.9826 7.2326 17.5125 7.8125 17.5125C8.3924 17.5125 8.8625 17.9826 8.8625 18.5625Z" fill="#A341FF" stroke="white" stroke-width="0.4"/>
<path d="M8.8625 24C8.8625 24.5799 8.3924 25.05 7.8125 25.05C7.2326 25.05 6.7625 24.5799 6.7625 24C6.7625 23.4201 7.2326 22.95 7.8125 22.95C8.3924 22.95 8.8625 23.4201 8.8625 24Z" fill="#A341FF" stroke="white" stroke-width="0.4"/>
<path d="M14.3 24C14.3 24.5799 13.8299 25.05 13.25 25.05C12.6701 25.05 12.2 24.5799 12.2 24C12.2 23.4201 12.6701 22.95 13.25 22.95C13.8299 22.95 14.3 23.4201 14.3 24Z" fill="#A341FF" stroke="white" stroke-width="0.4"/>
<path d="M14.3 13.125C14.3 13.7049 13.8299 14.175 13.25 14.175C12.6701 14.175 12.2 13.7049 12.2 13.125C12.2 12.5451 12.6701 12.075 13.25 12.075C13.8299 12.075 14.3 12.5451 14.3 13.125Z" fill="#A341FF" stroke="white" stroke-width="0.4"/>
</svg>
