<svg width="116" height="109" viewBox="0 0 116 109" fill="none" xmlns="http://www.w3.org/2000/svg">
<path d="M69.0814 3.47615V3.47626L69.0911 86.3043H64.1388L64.1292 3.47615C64.1292 3.47611 64.1292 3.47607 64.1292 3.47603C64.1292 2.10848 65.2377 1 66.6053 1C67.9729 1 69.0814 2.10854 69.0814 3.47615Z" fill="#F1E6FB" stroke="#7100DA" stroke-width="2"/>
<path d="M27.0576 40.0926C30.5706 22.9076 44.9999 9.69733 62.7839 8.01938L46.2215 41.8482L45.2258 41.7553C45.2258 41.7553 45.2258 41.7553 45.2258 41.7553C44.9365 44.855 42.35 47.2255 39.2456 47.2255H32.9562C29.1718 47.2255 26.3058 43.7698 27.0576 40.0926Z" fill="white" stroke="#7100DA" stroke-width="2"/>
<path d="M67.6056 41.2202V8.53301C67.948 8.74192 68.3437 8.99512 68.7826 9.2957C70.3917 10.3975 72.5801 12.134 74.8638 14.6569C79.4235 19.6939 84.3881 27.8916 85.8627 40.5068C86.2807 44.0842 83.4943 47.2255 79.8985 47.2255H73.6109C70.2942 47.2255 67.6056 44.5369 67.6056 41.2202Z" fill="white" stroke="#7100DA" stroke-width="2"/>
<path d="M46.3744 40.3907C49.3759 14.713 66.6248 6.83908 66.6248 6.83908V41.2202C66.6248 45.0892 63.4885 48.2255 59.6195 48.2255H53.3319C49.1349 48.2255 45.8871 44.5595 46.3744 40.3907Z" fill="url(#paint0_linear)"/>
<path d="M107.172 39.8923C103.316 21.0294 86.6275 6.83908 66.6248 6.83908C66.6248 6.83908 84.5241 15.0098 87.0283 41.8482C87.3652 45.4576 90.3792 48.2255 94.0042 48.2255H100.294C104.695 48.2255 108.054 44.2047 107.172 39.8923Z" fill="url(#paint1_linear)"/>
<path d="M16.9543 107.549V98.8141H24.7189L23.1844 107.12C23.0135 107.466 22.6602 107.688 22.2702 107.688H17.0933C17.0166 107.688 16.9543 107.626 16.9543 107.549Z" fill="white" stroke="#7100DA" stroke-width="2"/>
<path d="M109.562 98.8141V107.549C109.562 107.626 109.5 107.688 109.423 107.688H104.246C103.856 107.688 103.503 107.466 103.332 107.12L101.797 98.8141H109.562Z" fill="#F1E6FB" stroke="#7100DA" stroke-width="2"/>
<path d="M22.3397 84.6961L22.3412 84.6982C22.9806 85.6297 24.0381 86.1862 25.1678 86.1862H107.486C109.65 86.1862 111.404 87.94 111.403 90.1034C111.403 92.2668 109.65 94.0206 107.486 94.0206H22.3878C20.4152 94.0206 18.569 93.0489 17.452 91.4231C17.4516 91.4226 17.4513 91.4221 17.451 91.4216L1.68995 68.3446L1.6885 68.3425C0.478252 66.5802 0.906472 64.1776 2.63775 62.9397L2.63779 62.9396C4.40149 61.6784 6.94835 62.1636 8.20867 63.9976C8.20893 63.9979 8.20919 63.9983 8.20945 63.9987L22.3397 84.6961Z" fill="#F1E6FB" stroke="#7100DA" stroke-width="2"/>
<path d="M113.893 99.2804H12.6239C12.0128 99.2804 11.5173 98.7849 11.5173 98.1738V94.6611C11.5173 94.05 12.0128 93.5546 12.6239 93.5546H113.893C114.504 93.5546 114.999 94.05 114.999 94.6611V98.174C114.999 98.7848 114.504 99.2804 113.893 99.2804Z" fill="#F1E6FB" stroke="#7100DA" stroke-width="2"/>
<path d="M52.8598 72.7789H44.1843C37.3606 72.7789 31.8291 78.3104 31.8291 85.1341V93.5544H36.5131V85.906C36.5131 81.243 40.2931 77.463 44.9562 77.463H52.8598C54.1533 77.463 55.2018 76.4145 55.2018 75.1211L52.8598 72.7789ZM52.8598 72.7789C54.153 72.7789 55.2016 73.8273 55.2018 75.121L52.8598 72.7789Z" fill="#F1E6FB" stroke="#7100DA" stroke-width="2"/>
<defs>
<linearGradient id="paint0_linear" x1="66.6248" y1="27.5323" x2="46.3259" y2="27.5323" gradientUnits="userSpaceOnUse">
<stop stop-color="#A341FF"/>
<stop offset="1" stop-color="#7100DA"/>
</linearGradient>
<linearGradient id="paint1_linear" x1="107.313" y1="27.5323" x2="66.6248" y2="27.5323" gradientUnits="userSpaceOnUse">
<stop stop-color="#A341FF"/>
<stop offset="1" stop-color="#7100DA"/>
</linearGradient>
</defs>
</svg>
