<svg width="115" height="106" viewBox="0 0 115 106" fill="none" xmlns="http://www.w3.org/2000/svg">
<path d="M77.7109 53.3212L67.2574 62.9626C62.5478 67.3069 55.2919 67.3069 50.5823 62.9626L40.1313 53.3212C37.3066 50.7161 35.8304 46.9643 36.1164 43.1333L36.7243 30.6187C36.7881 29.7784 36.8954 28.9509 37.0512 28.1413C37.7765 24.2924 39.4851 20.8087 41.8987 17.9483C42.9714 16.6738 44.1845 15.5245 45.5126 14.5233C49.2516 11.6961 53.9025 10.0309 58.9211 10.0309C63.9397 10.0309 68.5906 11.6986 72.3296 14.5233C72.9298 14.9754 73.507 15.4581 74.0587 15.9689C74.7253 16.5895 75.3561 17.2485 75.9435 17.9457C78.3571 20.8062 80.0657 24.2899 80.791 28.1413C80.9468 28.9509 81.0541 29.7784 81.118 30.6187L81.7233 43.1333C82.0119 46.964 80.5328 50.7161 77.7109 53.3212Z" stroke="#7100DA" stroke-width="2"/>
<path d="M66.5397 50.1259C66.5397 50.9186 66.4181 51.6835 66.1931 52.4005C65.2251 55.4977 62.3348 57.7447 58.9208 57.7447C55.5049 57.7447 52.6145 55.4979 51.6486 52.4005C51.4236 51.6833 51.302 50.9186 51.302 50.1259H66.5397Z" fill="white" stroke="#7100DA" stroke-width="2" stroke-linejoin="round"/>
<path d="M87.3959 28.4759H84.0757C84.0757 14.6051 72.7909 3.3202 58.9203 3.3202C45.0493 3.3202 33.7647 14.6051 33.7647 28.4759H30.4445C30.4445 12.7741 43.2188 0 58.9203 0C74.6218 0 87.3959 12.7744 87.3959 28.4759Z" fill="#A341FF"/>
<path d="M79.7841 25.4177C78.9362 22.3583 77.4237 19.5801 75.4114 17.2334L75.4109 17.2328C74.8344 16.5596 74.2141 15.9218 73.5569 15.3196C73.2967 15.0823 73.0275 14.8507 72.7508 14.6218C72.7175 14.5943 72.7039 14.5838 72.6853 14.5696C72.6662 14.5549 72.6419 14.5363 72.5854 14.4908L72.5834 14.4892C72.3886 14.3313 72.1944 14.1779 71.999 14.0298L71.8542 13.9222C68.174 11.1878 63.5986 9.5705 58.6576 9.5705C53.7149 9.5705 49.1385 11.1858 45.4601 13.9212L45.3877 13.9751C45.1034 14.1884 44.8246 14.4082 44.5515 14.6345L44.5503 14.6355L44.5043 14.6733L44.4639 14.7066C44.1875 14.9381 43.9166 15.1774 43.6505 15.4234C43.6298 15.4425 43.6097 15.4609 43.5938 15.4754C43.577 15.4907 43.5642 15.5023 43.5523 15.5134C43.2858 15.7631 43.0256 16.0203 42.7708 16.2844L79.7841 25.4177ZM79.7841 25.4177C77.265 24.4832 75.0116 23.0152 73.1611 21.1566L72.4523 20.4446L71.7436 21.1568C68.421 24.4957 63.789 26.5705 58.6576 26.5705C53.5265 26.5705 48.8924 24.4956 45.5688 21.1555L44.86 20.4432L44.1511 21.1555C42.3018 23.0138 40.0498 24.4816 37.5317 25.4168C38.3797 22.3597 39.892 19.5822 41.9039 17.236L41.9043 17.2356C42.1613 16.9355 42.4268 16.6424 42.7001 16.3566L42.701 16.3557C42.7214 16.3343 42.7229 16.333 42.725 16.3311C42.7276 16.3287 42.7312 16.3254 42.7707 16.2845L79.7841 25.4177ZM45.4858 13.9005C45.4859 13.9004 45.4858 13.9004 45.4856 13.9006L45.4858 13.9005Z" stroke="#7100DA" stroke-width="2"/>
<path d="M48.9595 40.9981C50.37 40.9981 51.5135 39.8547 51.5135 38.4441C51.5135 37.0336 50.37 35.8901 48.9595 35.8901C47.549 35.8901 46.4055 37.0336 46.4055 38.4441C46.4055 39.8547 47.549 40.9981 48.9595 40.9981Z" fill="#7100DA"/>
<path d="M68.8807 40.9981C70.2913 40.9981 71.4347 39.8547 71.4347 38.4441C71.4347 37.0336 70.2913 35.8901 68.8807 35.8901C67.4702 35.8901 66.3267 37.0336 66.3267 38.4441C66.3267 39.8547 67.4702 40.9981 68.8807 40.9981Z" fill="#7100DA"/>
<path d="M45.1541 58.6639L58.1795 71.6894L52.0499 81.65L41.8339 61.2179L45.1541 58.6639Z" stroke="#7100DA" stroke-width="2" stroke-linecap="round" stroke-linejoin="round"/>
<path d="M72.6862 58.6639L59.6608 71.6894L65.7904 81.65L76.0064 61.2179L72.6862 58.6639Z" stroke="#7100DA" stroke-width="2" stroke-linecap="round" stroke-linejoin="round"/>
<path d="M46.3963 54.0235C46.3963 54.4833 46.2099 54.897 45.911 55.1984C45.6097 55.4972 45.1959 55.6836 44.7362 55.6836H36.8877C33.2049 55.6836 30.2192 52.698 30.2192 49.0151V44.5737H33.5394V49.0151C33.5394 50.8642 35.0386 52.3634 36.8877 52.3634H44.7362C45.6531 52.3634 46.3963 53.1064 46.3963 54.0235Z" fill="#A341FF"/>
<path d="M34.2642 25.6486C28.5034 25.6486 23.8334 30.3186 23.8334 36.0794C23.8334 41.8402 28.5034 46.5102 34.2642 46.5102" fill="#A341FF"/>
<path d="M83.5759 25.6486C89.3367 25.6486 94.0067 30.3186 94.0067 36.0794C94.0067 41.8402 89.3367 46.5102 83.5759 46.5102" fill="#A341FF"/>
<path d="M46.3963 54.0236C46.3963 54.4833 46.2098 54.897 45.911 55.1984C45.6096 55.4972 45.1959 55.6837 44.7362 55.6837H39.8836V52.3635H44.7362C45.6531 52.3635 46.3963 53.1064 46.3963 54.0236Z" fill="#A341FF"/>
<path d="M92.7123 56.3185H99.5711C100.087 56.3185 100.505 56.7365 100.505 57.2523C100.505 57.2524 100.505 57.2525 100.505 57.2526V62.7467H91.7784V57.2523C91.7784 56.7365 92.1965 56.3185 92.7123 56.3185Z" stroke="#7100DA" stroke-width="2"/>
<path d="M111.494 104.078H80.7887C79.6643 104.078 78.7528 103.167 78.7528 102.042V62.3976C78.7528 61.2732 79.6643 60.3617 80.7887 60.3617H111.495C112.619 60.3617 113.531 61.2732 113.531 62.3976V102.042C113.531 102.042 113.531 102.043 113.531 102.043C113.53 103.167 112.619 104.078 111.494 104.078Z" fill="#F1E6FB" stroke="#7100DA" stroke-width="2"/>
<path d="M105.719 68.5777H86.5641C85.7883 68.5777 85.1594 69.2066 85.1594 69.9824C85.1594 70.7582 85.7883 71.3871 86.5641 71.3871H105.719C106.495 71.3871 107.124 70.7582 107.124 69.9824C107.124 69.2066 106.495 68.5777 105.719 68.5777Z" fill="#7100DA" stroke="#F1E6FB"/>
<path d="M105.719 74.7308H86.5641C85.7883 74.7308 85.1594 75.3597 85.1594 76.1355C85.1594 76.9113 85.7883 77.5402 86.5641 77.5402H105.719C106.495 77.5402 107.124 76.9113 107.124 76.1355C107.124 75.3597 106.495 74.7308 105.719 74.7308Z" fill="#7100DA" stroke="#F1E6FB"/>
<path d="M105.719 80.8836H86.5641C85.7883 80.8836 85.1594 81.5125 85.1594 82.2883C85.1594 83.0641 85.7883 83.693 86.5641 83.693H105.719C106.495 83.693 107.124 83.0641 107.124 82.2883C107.124 81.5125 106.495 80.8836 105.719 80.8836Z" fill="#7100DA" stroke="#F1E6FB"/>
<path d="M105.719 87.0364H86.5641C85.7883 87.0364 85.1594 87.6653 85.1594 88.4411C85.1594 89.2169 85.7883 89.8459 86.5641 89.8459H105.719C106.495 89.8459 107.124 89.2169 107.124 88.4411C107.124 87.6653 106.495 87.0364 105.719 87.0364Z" fill="#7100DA" stroke="#F1E6FB"/>
<path d="M94.7369 93.1896H86.5641C85.7883 93.1896 85.1594 93.8185 85.1594 94.5943C85.1594 95.3701 85.7883 95.999 86.5641 95.999H94.7369C95.5127 95.999 96.1416 95.3701 96.1416 94.5943C96.1416 93.8185 95.5127 93.1896 94.7369 93.1896Z" fill="#7100DA" stroke="#F1E6FB"/>
<path d="M14.0437 57.7046C6.28745 57.7046 0 63.9923 0 71.7483C0 76.1047 1.98395 79.9978 5.09728 82.5735L2.25391 90.5351L9.57675 85.0662L9.57343 85.0611C10.9781 85.5325 12.4804 85.792 14.044 85.792C21.7999 85.792 28.0877 79.5043 28.0877 71.7483C28.0877 63.9923 21.7999 57.7046 14.0437 57.7046Z" fill="url(#paint0_linear)"/>
<path d="M11.9132 74.0324C11.9132 73.199 12.0493 72.4504 12.3216 71.7869C12.5936 71.1233 13.1549 70.5454 14.0057 70.0517C14.2608 69.8987 14.5755 69.7243 14.9499 69.5286C15.3238 69.3332 15.6898 69.0993 16.0471 68.827C16.4044 68.555 16.706 68.236 16.953 67.8701C17.1994 67.5046 17.3231 67.0834 17.3231 66.6071C17.3231 66.2498 17.2549 65.9354 17.119 65.6629C16.9826 65.3909 16.8041 65.1613 16.5832 64.9741C16.3617 64.7871 16.1022 64.6467 15.805 64.5529C15.5072 64.4597 15.2053 64.4127 14.8993 64.4127C14.5249 64.4127 14.1847 64.4766 13.8785 64.604C13.5722 64.7314 13.2956 64.8934 13.0492 65.0888C12.8022 65.2846 12.581 65.5058 12.3857 65.7523C12.19 65.999 12.024 66.2332 11.8881 66.4541L9.6682 64.923C9.88912 64.3958 10.1826 63.928 10.5486 63.5196C10.914 63.1112 11.3309 62.7669 11.7987 62.4862C12.2664 62.2055 12.7723 61.993 13.3171 61.8485C13.8614 61.7042 14.4227 61.6317 15.0012 61.6317C15.6476 61.6317 16.2856 61.7254 16.9152 61.9123C17.5442 62.0998 18.1099 62.3971 18.6121 62.8055C19.1137 63.2139 19.5218 63.7369 19.8367 64.3746C20.1514 65.0126 20.3087 65.774 20.3087 66.6584C20.3087 67.203 20.2451 67.6834 20.1174 68.1002C19.9899 68.5172 19.8066 68.8955 19.5688 69.2357C19.3305 69.5761 19.0496 69.8824 18.7267 70.1544C18.4034 70.4266 18.0377 70.6902 17.6295 70.9453C17.2891 71.1494 16.9489 71.3453 16.6087 71.5322C16.2683 71.7197 15.9579 71.9279 15.6773 72.1575C15.3966 72.3871 15.167 72.6509 14.9882 72.9484C14.8097 73.2462 14.7203 73.6079 14.7203 74.0329H11.9132V74.0324ZM11.9642 79.9776V76.4564H14.7966V79.9776H11.9642Z" fill="white"/>
<path d="M46.7546 78.5856L49.598 70.6241L42.2751 76.0929L42.2785 76.0981C40.8738 75.6266 39.3715 75.3671 37.8079 75.3671C30.0517 75.3671 23.7642 81.6548 23.7642 89.4108C23.7642 97.1668 30.0517 103.454 37.8079 103.454C45.5639 103.454 51.8516 97.1668 51.8516 89.4108C51.8519 85.0544 49.8679 81.1616 46.7546 78.5856Z" fill="url(#paint1_linear)"/>
<path d="M36.3159 91.4925V81.4696H39.3007V91.4925H36.3159ZM36.3159 97.4395V94.0764H39.3007V97.4395H36.3159Z" fill="white"/>
<defs>
<linearGradient id="paint0_linear" x1="28.0877" y1="74.1198" x2="9.48403e-08" y2="74.1198" gradientUnits="userSpaceOnUse">
<stop stop-color="#A341FF"/>
<stop offset="1" stop-color="#7100DA"/>
</linearGradient>
<linearGradient id="paint1_linear" x1="51.8516" y1="87.0393" x2="23.7642" y2="87.0393" gradientUnits="userSpaceOnUse">
<stop stop-color="#A341FF"/>
<stop offset="1" stop-color="#7100DA"/>
</linearGradient>
</defs>
</svg>
