<svg width="115" height="88" viewBox="0 0 115 88" fill="none" xmlns="http://www.w3.org/2000/svg">
<path d="M1.01828 12.2194H114.048V80.5724C114.048 84.4384 110.914 87.5724 107.048 87.5724H8.01828C4.15228 87.5724 1.01828 84.4384 1.01828 80.5724V12.2194Z" fill="#7100DA" fill-opacity="0.1"/>
<path d="M114.425 13.9657V14.076L114.471 14.1761C114.492 14.221 114.5 14.2586 114.5 14.2945C114.5 14.324 114.493 14.3607 114.47 14.4114L114.425 14.5102V14.6188V78.5252C114.425 83.2218 110.602 87.0448 105.907 87.0448H9.01808C4.32305 87.0448 0.5 83.2218 0.5 78.5252V9.01808C0.5 4.32158 4.32295 0.5 9.01808 0.5H105.907C110.602 0.5 114.425 4.32158 114.425 9.01808V13.9657ZM113.184 15.1329C113.185 15.123 113.186 15.116 113.186 15.1139L113.186 15.1059L113.186 15.1025L113.186 15.0857L113.186 15.0144L113.186 14.6585C113.187 13.9688 113.187 12.3512 113.187 9.01808C113.187 5.00474 109.923 1.73941 105.908 1.73941H9.01955C5.00622 1.73941 1.74088 5.00313 1.74088 9.01808V9.1687V9.31907V9.4692V9.61907V9.7687V9.91808V10.0672V10.2161V10.3648V10.5132V10.6613V10.8093V10.957V11.1044V11.2516V11.3986V11.5453V11.6918V11.8381V11.9841V12.1299V12.2755V12.4209V12.566V12.7109V12.8555V13V13.1442V13.2881V13.4319V13.5754V13.7188V13.8619V14.0047V14.1474V14.2898V14.4321V14.5741V14.7159V14.8574V14.9988V15.14V15.2809V15.4216V15.5622V15.7025V15.8426V15.9825V16.1222V16.2617V16.401V16.5401V16.679V16.8177V16.9561V17.0944V17.2325V17.3704V17.5081V17.6456V17.7829V17.92V18.057V18.1937V18.3302V18.4666V18.6028V18.7387V18.8745V19.0101V19.1456V19.2808V19.4159V19.5507V19.6854V19.82V19.9543V20.0885V20.2224V20.3562V20.4899V20.6233V20.7566V20.8897V21.0227V21.1554V21.2881V21.4205V21.5528V21.6849V21.8168V21.9486V22.0802V22.2116V22.3429V22.474V22.605V22.7358V22.8664V22.9969V23.1273V23.2575V23.3875V23.5173V23.6471V23.7766V23.9061V24.0353V24.1645V24.2934V24.4223V24.5509V24.6795V24.8079V24.9361V25.0642V25.1922V25.32V25.4477V25.5753V25.7027V25.83V25.9571V26.0841V26.211V26.3378V26.4644V26.5909V26.7172V26.8435V26.9696V27.0955V27.2214V27.3471V27.4727V27.5982V27.7236V27.8488V27.9739V28.0989V28.2238V28.3486V28.4732V28.5977V28.7222V28.8465V28.9706V29.0947V29.2187V29.3426V29.4663V29.59V29.7135V29.8369V29.9603V30.0835V30.2066V30.3296V30.4526V30.5754V30.6981V30.8207V30.9433V31.0657V31.188V31.3103V31.4324V31.5545V31.6765V31.7983V31.9201V32.0418V32.1634V32.285V32.4064V32.5278V32.649V32.7702V32.8913V33.0123V33.1333V33.2542V33.375V33.4957V33.6163V33.7369V33.8573V33.9778V34.0981V34.2184V34.3386V34.4587V34.5788V34.6988V34.8187V34.9386V35.0584V35.1781V35.2978V35.4174V35.5369V35.6564V35.7758V35.8952V36.0145V36.1338V36.253V36.3721V36.4912V36.6103V36.7293V36.8482V36.9671V37.086V37.2048V37.3235V37.4422V37.5609V37.6795V37.7981V37.9166V38.0351V38.1535V38.272V38.3903V38.5087V38.627V38.7452V38.8635V38.9817V39.0998V39.218V39.3361V39.4542V39.5722V39.6902V39.8082V39.9262V40.0441V40.162V40.2799V40.3978V40.5157V40.6335V40.7513V40.8691V40.9869V41.1046V41.2224V41.3401V41.4578V41.5756V41.6933V41.8109V41.9286V42.0463V42.1639V42.2816V42.3992V42.5169V42.6345V42.7522V42.8698V42.9874V43.1051V43.2227V43.3403V43.458V43.5756V43.6933V43.8109V43.9286V44.0462V44.1639V44.2816V44.3993V44.517V44.6347V44.7525V44.8702V44.988V45.1058V45.2235V45.3414V45.4592V45.577V45.6949V45.8128V45.9307V46.0487V46.1666V46.2846V46.4027V46.5207V46.6388V46.7569V46.875V46.9932V47.1114V47.2296V47.3479V47.4662V47.5845V47.7029V47.8213V47.9398V48.0582V48.1768V48.2954V48.414V48.5326V48.6513V48.7701V48.8889V49.0077V49.1266V49.2456V49.3646V49.4836V49.6027V49.7218V49.841V49.9603V50.0796V50.199V50.3184V50.4379V50.5575V50.6771V50.7967V50.9165V51.0363V51.1561V51.2761V51.3961V51.5161V51.6363V51.7565V51.8767V51.9971V52.1175V52.238V52.3585V52.4792V52.5999V52.7207V52.8415V52.9625V53.0835V53.2046V53.3258V53.4471V53.5684V53.6899V53.8114V53.933V54.0547V54.1765V54.2983V54.4203V54.5424V54.6645V54.7868V54.9091V55.0315V55.1541V55.2767V55.3994V55.5222V55.6451V55.7682V55.8913V56.0145V56.1378V56.2613V56.3848V56.5085V56.6322V56.7561V56.8801V57.0041V57.1283V57.2526V57.377V57.5016V57.6262V57.751V57.8759V58.0009V58.126V58.2512V58.3766V58.5021V58.6277V58.7534V58.8792V59.0052V59.1313V59.2575V59.3839V59.5104V59.637V59.7637V59.8906V60.0176V60.1448V60.272V60.3995V60.527V60.6547V60.7825V60.9105V61.0386V61.1669V61.2953V61.4238V61.5525V61.6813V61.8103V61.9394V62.0687V62.1981V62.3277V62.4574V62.5872V62.7173V62.8474V62.9778V63.1083V63.2389V63.3697V63.5007V63.6318V63.7631V63.8945V64.0261V64.1579V64.2898V64.4219V64.5542V64.6866V64.8192V64.952V65.085V65.2181V65.3513V65.4848V65.6184V65.7522V65.8862V66.0204V66.1547V66.2892V66.4239V66.5588V66.6939V66.8291V66.9645V67.1001V67.2359V67.3719V67.508V67.6444V67.7809V67.9177V68.0546V68.1917V68.329V68.4665V68.6042V68.7421V68.8802V69.0185V69.157V69.2957V69.4345V69.5736V69.7129V69.8524V69.9921V70.132V70.2721V70.4124V70.553V70.6937V70.8346V70.9758V71.1171V71.2587V71.4005V71.5425V71.6847V71.8272V71.9698V72.1127V72.2558V72.3991V72.5427V72.6864V72.8304V72.9746V73.119V73.2637V73.4086V73.5537V73.699V73.8446V73.9904V74.1364V74.2827V74.4292V74.576C1.74088 77.1806 1.74593 78.3982 1.77039 79.045C1.78271 79.3706 1.80047 79.5704 1.82901 79.7383C1.84749 79.847 1.87299 79.9503 1.89686 80.0471C1.90683 80.0874 1.9165 80.1266 1.92527 80.1646C2.67007 83.3913 5.56548 85.8054 9.01808 85.8054H105.907C109.92 85.8054 113.185 82.5401 113.184 78.5252C113.184 78.5252 113.184 78.5251 113.184 78.525V17.076C113.184 16.235 113.184 15.6017 113.184 15.1329Z" fill="#7100DA" stroke="#7100DA"/>
<path d="M113.631 12.2843H8.8988H2.05356" stroke="#7100DA" stroke-width="2"/>
<path d="M12.2194 28.5119L8.14627 32.5851L12.2194 36.6582" stroke="#7100DA" stroke-width="2" stroke-linecap="round" stroke-linejoin="round"/>
<path d="M101.828 28.5119L105.901 32.5851L101.828 36.6582" stroke="#7100DA" stroke-width="2" stroke-linecap="round" stroke-linejoin="round"/>
<circle cx="38.7496" cy="65.6299" r="12.2742" fill="url(#paint0_linear)"/>
<circle cx="75.7139" cy="65.63" r="12.2742" fill="url(#paint1_linear)"/>
<path d="M70.2068 65.595L73.4306 68.8187" stroke="white" stroke-width="3" stroke-linecap="round"/>
<path d="M80.9453 61.9477L73.8531 69.04" stroke="white" stroke-width="3" stroke-linecap="round"/>
<path d="M35.0667 61.9477L42.1593 69.0402" stroke="white" stroke-width="3" stroke-linecap="round"/>
<path d="M42.1624 61.9477L35.0699 69.0402" stroke="white" stroke-width="3" stroke-linecap="round"/>
<circle cx="8.65542" cy="7.63714" r="1.52743" fill="#7100DA"/>
<circle cx="13.7468" cy="7.63714" r="1.52743" fill="#7100DA"/>
<circle cx="18.8382" cy="7.63714" r="1.52743" fill="#7100DA"/>
<path d="M31.1385 41.9952H35.2685C35.5635 44.7089 37.7527 46.8411 40.4542 46.8411C43.1558 46.8411 45.345 44.7089 45.64 41.9952H51.3226H69.4261C69.7211 44.7089 71.9103 46.8411 74.6118 46.8411C77.3134 46.8411 79.5026 44.7089 79.7976 41.9952H83.9276C84.2536 41.9952 84.5176 41.7206 84.5176 41.3814V30.0904V30.0743C84.5176 30.042 84.502 29.9935 84.502 29.9612C84.502 29.9289 84.502 29.8804 84.4865 29.8481V29.832L81.3813 21.7716C81.2881 21.5455 81.0863 21.384 80.8378 21.384H73.0748H63.759H54.4433C54.4278 21.384 54.4123 21.384 54.3967 21.4001C54.3657 21.4001 54.3191 21.4163 54.2881 21.4163C54.2415 21.4324 54.2104 21.4324 54.1794 21.4647C54.1639 21.4647 54.1483 21.4647 54.1328 21.4809L41.8516 29.4605H37.349C33.6072 29.4605 30.5485 32.6264 30.5485 36.5355V38.1508V39.7661V41.3814C30.564 41.7206 30.8125 41.9952 31.1385 41.9952ZM40.4542 45.6296C38.2029 45.6296 36.3708 43.7235 36.3708 41.3814C36.3708 39.0392 38.2029 37.1493 40.4542 37.1493C42.7055 37.1493 44.5376 39.0553 44.5376 41.3975C44.5376 43.7397 42.7055 45.6296 40.4542 45.6296ZM74.6118 45.6296C72.3605 45.6296 70.5285 43.7235 70.5285 41.3814C70.5285 39.0392 72.3605 37.1331 74.6118 37.1331C76.8631 37.1331 78.6952 39.0392 78.6952 41.3814C78.6952 43.7235 76.8631 45.6296 74.6118 45.6296ZM73.6492 22.6116H80.4342L83.0736 29.4766H73.6492V22.6116ZM64.3335 22.6116H72.4848V29.4766H64.3335V22.6116ZM55.0178 22.6116H63.169V29.4766H55.0178V22.6116ZM53.8533 23.0962V29.4766H44.0408L53.8533 23.0962ZM31.7285 39.7661V38.1508V36.5355C31.7285 33.3049 34.2593 30.6719 37.3645 30.6719H41.9913C42.0069 30.6719 42.0069 30.6719 42.0224 30.6719C42.0379 30.6719 42.0534 30.6719 42.0534 30.6719H54.4278H63.7435H73.0592H83.3531V40.7675H79.7976C79.5026 38.0538 77.3134 35.9217 74.6118 35.9217C71.9103 35.9217 69.7211 38.0538 69.4261 40.7675H51.3226H45.64C45.345 38.0538 43.1558 35.9217 40.4542 35.9217C37.7527 35.9217 35.5635 38.0538 35.2685 40.7675H31.7285V39.7661Z" fill="#7100DA" stroke="#7100DA" stroke-width="0.4"/>
<defs>
<linearGradient id="paint0_linear" x1="51.0238" y1="65.6299" x2="26.4754" y2="65.6299" gradientUnits="userSpaceOnUse">
<stop stop-color="#A341FF"/>
<stop offset="1" stop-color="#7100DA"/>
</linearGradient>
<linearGradient id="paint1_linear" x1="87.9882" y1="65.63" x2="63.4397" y2="65.63" gradientUnits="userSpaceOnUse">
<stop stop-color="#A341FF"/>
<stop offset="1" stop-color="#7100DA"/>
</linearGradient>
</defs>
</svg>
