<svg width="109" height="96" viewBox="0 0 109 96" fill="none" xmlns="http://www.w3.org/2000/svg">
<path d="M107.821 68.4496L103.956 67.8577C103.717 67.1585 103.434 66.476 103.11 65.8138L105.424 62.662C105.831 62.1108 105.772 61.345 105.288 60.8604L100.029 55.6017C99.5444 55.1171 98.7804 55.0598 98.2274 55.4649L95.0755 57.7788C94.4152 57.4551 93.7308 57.1721 93.0316 56.9335L92.4397 53.0677C92.3362 52.3907 91.7535 51.8894 91.0691 51.8894H83.6316C82.9472 51.8894 82.3645 52.3907 82.261 53.0677L81.6691 56.9335C80.9699 57.1721 80.2855 57.4551 79.6252 57.7788L76.4733 55.4649C75.9221 55.0598 75.1564 55.1171 74.6717 55.6017L69.4131 60.8604C68.9285 61.345 68.8693 62.1108 69.2762 62.662L71.5902 65.8138C71.2665 66.476 70.9835 67.1585 70.7449 67.8577L66.879 68.4496C66.2021 68.5532 65.7008 69.1358 65.7008 69.8202V77.2578C65.7008 77.9421 66.2021 78.5248 66.879 78.6284L70.7449 79.2203C70.9835 79.9195 71.2665 80.6038 71.5902 81.2642L69.2762 84.416C68.8693 84.9691 68.9285 85.733 69.4131 86.2176L74.6717 91.4762C75.1564 91.9608 75.9221 92.02 76.4733 91.615L79.6252 89.2992C80.2855 89.6229 80.9699 89.9059 81.6691 90.1445L82.261 94.0103C82.3645 94.6891 82.9472 95.1885 83.6316 95.1885H91.0691C91.7535 95.1885 92.3362 94.6891 92.4397 94.0103L93.0316 90.1445C93.7308 89.9059 94.4152 89.6229 95.0755 89.2992L98.2274 91.615C98.7804 92.02 99.5444 91.9608 100.029 91.4762L105.288 86.2176C105.772 85.733 105.831 84.9691 105.424 84.416L103.111 81.2642C103.434 80.6038 103.717 79.9195 103.956 79.2203L107.822 78.6284C108.499 78.5248 109 77.9421 109 77.2578V69.8202C109 69.1358 108.499 68.5532 107.821 68.4496ZM96.0133 73.5399C96.0133 78.3232 92.1346 82.202 87.3513 82.202C82.5662 82.202 78.6874 78.3232 78.6874 73.5399C78.6874 68.7548 82.5662 64.876 87.3513 64.876C92.1342 64.876 96.0133 68.7548 96.0133 73.5399Z" fill="url(#paint0_linear)"/>
<path d="M87.3503 61.6308C80.7736 61.6308 75.442 66.9623 75.442 73.539C75.442 80.1157 80.7736 85.4472 87.3503 85.4472C93.927 85.4472 99.2585 80.1157 99.2585 73.539C99.2585 66.9623 93.927 61.6308 87.3503 61.6308ZM87.3512 82.2019C82.5661 82.2019 78.6873 78.3232 78.6873 73.5399C78.6873 68.7548 82.5661 64.876 87.3512 64.876C92.1345 64.876 96.0132 68.7548 96.0132 73.5399C96.0132 78.3232 92.1341 82.2019 87.3512 82.2019Z" fill="#A341FF"/>
<rect x="1.14832" y="1" width="82.1543" height="82.1543" rx="6" fill="#F1E6FB" stroke="#7100DA" stroke-width="2"/>
<path d="M83.1302 40.9247H67.319C66.5527 40.9247 65.9318 40.3038 65.9318 39.5375C65.9318 38.7711 66.5527 38.1502 67.319 38.1502H83.1302C83.8966 38.1502 84.5175 38.7711 84.5175 39.5375C84.5175 40.3038 83.8967 40.9247 83.1302 40.9247Z" fill="#5700A7"/>
<path d="M99.0537 40.9247H83.2425C82.4762 40.9247 81.8552 40.3038 81.8552 39.5375C81.8552 38.7711 82.4762 38.1502 83.2425 38.1502H99.0537C99.82 38.1502 100.441 38.7711 100.441 39.5375C100.441 40.3038 99.8202 40.9247 99.0537 40.9247Z" fill="#5700A7"/>
<path d="M107.435 40.9247H91.6233C90.857 40.9247 90.2361 40.3038 90.2361 39.5375C90.2361 38.7711 90.857 38.1502 91.6233 38.1502H107.435C108.201 38.1502 108.822 38.7711 108.822 39.5375C108.822 40.3038 108.201 40.9247 107.435 40.9247Z" fill="#5700A7"/>
<path d="M80.2413 34.1364C77.5111 34.1364 75.29 36.3575 75.29 39.0877C75.29 41.8178 77.5111 44.0389 80.2413 44.0389C82.9714 44.0389 85.1925 41.8178 85.1925 39.0877C85.1925 36.3575 82.9712 34.1364 80.2413 34.1364Z" fill="#A341FF"/>
<path d="M91.6236 27.5154H107.435C108.201 27.5154 108.822 26.8944 108.822 26.1281C108.822 25.3618 108.201 24.7409 107.435 24.7409H91.6236C90.8573 24.7409 90.2363 25.3618 90.2363 26.1281C90.2363 26.8944 90.8571 27.5154 91.6236 27.5154Z" fill="#5700A7"/>
<path d="M75.7001 27.5154H91.5113C92.2777 27.5154 92.8986 26.8944 92.8986 26.1281C92.8986 25.3618 92.2777 24.7409 91.5113 24.7409H75.7001C74.9338 24.7409 74.3129 25.3618 74.3129 26.1281C74.3129 26.8944 74.9336 27.5154 75.7001 27.5154Z" fill="#5700A7"/>
<path d="M67.3193 27.5154H83.1305C83.8968 27.5154 84.5177 26.8944 84.5177 26.1281C84.5177 25.3618 83.8968 24.7409 83.1305 24.7409H67.3193C66.5529 24.7409 65.932 25.3618 65.932 26.1281C65.932 26.8944 66.5527 27.5154 67.3193 27.5154Z" fill="#5700A7"/>
<path d="M94.5128 20.7271C97.2429 20.7271 99.464 22.9482 99.464 25.6783C99.464 28.4085 97.2429 30.6295 94.5128 30.6295C91.7826 30.6295 89.5615 28.4085 89.5615 25.6783C89.5615 22.9482 91.7828 20.7271 94.5128 20.7271Z" fill="#A341FF"/>
<path d="M83.1302 14.106H67.319C66.5527 14.106 65.9318 13.4851 65.9318 12.7188C65.9318 11.9525 66.5527 11.3315 67.319 11.3315H83.1302C83.8966 11.3315 84.5175 11.9525 84.5175 12.7188C84.5175 13.4851 83.8967 14.106 83.1302 14.106Z" fill="#5700A7"/>
<path d="M99.0537 14.106H83.2425C82.4762 14.106 81.8552 13.4851 81.8552 12.7188C81.8552 11.9525 82.4762 11.3315 83.2425 11.3315H99.0537C99.82 11.3315 100.441 11.9525 100.441 12.7188C100.441 13.4851 99.8202 14.106 99.0537 14.106Z" fill="#5700A7"/>
<path d="M107.435 14.106H91.6233C90.857 14.106 90.2361 13.4851 90.2361 12.7188C90.2361 11.9525 90.857 11.3315 91.6233 11.3315H107.435C108.201 11.3315 108.822 11.9525 108.822 12.7188C108.822 13.4851 108.201 14.106 107.435 14.106Z" fill="#5700A7"/>
<path d="M70.0448 7.31775C67.3147 7.31775 65.0936 9.53884 65.0936 12.269C65.0936 14.9991 67.3147 17.2202 70.0448 17.2202C72.775 17.2202 74.9961 14.9991 74.9961 12.269C74.9961 9.53884 72.7748 7.31775 70.0448 7.31775Z" fill="#A341FF"/>
<path d="M35.0852 26.0997C35.0852 22.3412 38.132 19.2944 41.8905 19.2944C45.6488 19.2944 48.6957 22.3412 48.6959 26.0997C48.6959 26.0997 48.6959 26.0998 48.6959 26.0998V29.8628C48.6959 33.6213 45.649 36.6681 41.8905 36.6681C38.132 36.6681 35.0852 33.6213 35.0852 29.8628V26.0997Z" stroke="#7100DA" stroke-width="2" stroke-linecap="round" stroke-linejoin="round"/>
<path d="M36.2506 41.6373C36.2828 41.6266 36.3142 41.6142 36.3448 41.6004C36.5676 41.5292 36.7401 41.4844 36.859 41.4564C36.927 41.4404 36.9796 41.4295 37.0194 41.4213C37.0222 41.4207 37.0253 41.4201 37.0286 41.4194C37.0447 41.4161 37.066 41.4118 37.0825 41.4082C37.0907 41.4064 37.1064 41.403 37.1249 41.3983C37.8362 41.2561 38.3939 41.2383 39.519 41.2512C39.708 41.2534 39.9115 41.2564 40.1325 41.2596C41.2518 41.2761 42.8203 41.2992 45.2287 41.256C45.7355 41.2566 46.1979 41.3071 46.6542 41.398C46.6716 41.4024 46.6863 41.4057 46.6946 41.4076C46.7133 41.4117 46.7364 41.4165 46.7537 41.4201L46.7611 41.4217C46.803 41.4304 46.8571 41.4418 46.9262 41.4581C47.0466 41.4864 47.2184 41.531 47.4362 41.6006C47.4667 41.6143 47.4981 41.6266 47.5302 41.6373C49.9729 42.4536 51.8395 44.527 52.358 47.0876C49.3301 49.004 45.7414 50.113 41.8904 50.113C38.0393 50.113 34.4507 49.004 31.4227 47.0876C31.9412 44.527 33.8079 42.4536 36.2506 41.6373Z" stroke="#7100DA" stroke-width="2" stroke-linecap="round" stroke-linejoin="round"/>
<path d="M35.0852 26.0995C35.0852 20.2345 41.9442 17.2273 46.2885 20.909C46.2981 20.9179 46.3079 20.9267 46.3179 20.9352C47.7973 22.2038 48.3623 23.6683 48.5767 24.9036C48.6692 25.4371 48.6964 25.9295 48.7 26.3497C47.413 25.9464 46.3196 25.1011 45.5979 23.9889C45.4287 23.7283 45.148 23.5611 44.8382 23.5365C44.5284 23.5119 44.2248 23.6327 44.0166 23.8634C42.4928 25.5521 40.2919 26.6118 37.8416 26.6118C36.8744 26.6118 35.9475 26.4458 35.0852 26.1423V26.0995Z" stroke="#7100DA" stroke-width="2" stroke-linecap="round" stroke-linejoin="round"/>
<rect x="23.0163" y="57.6274" width="38.4183" height="8.23249" rx="4.11624" fill="#A341FF"/>
<defs>
<linearGradient id="paint0_linear" x1="109" y1="73.539" x2="65.7008" y2="73.539" gradientUnits="userSpaceOnUse">
<stop stop-color="#A341FF"/>
<stop offset="1" stop-color="#7100DA"/>
</linearGradient>
</defs>
</svg>
