<svg width="32" height="25" viewBox="0 0 32 25" fill="none" xmlns="http://www.w3.org/2000/svg">
<path d="M20.3265 17.7532H11.6738V2.12476H20.3266L20.3265 17.7532Z" fill="#6C6BBD"/>
<path d="M12.2229 9.9392C12.2229 6.76897 13.6997 3.94497 15.9998 2.12513C14.3179 0.794347 12.195 0 9.88825 0C4.427 0 0 4.44987 0 9.9392C0 15.4286 4.427 19.8785 9.88825 19.8785C12.1951 19.8785 14.3179 19.0842 15.9998 17.7534C13.6997 15.9335 12.2229 13.1095 12.2229 9.93932" fill="#D32011"/>
<path d="M32.0004 9.9392C32.0004 15.4286 27.5734 19.8785 22.1121 19.8785C19.8052 19.8785 17.6825 19.0842 16 17.7534C18.3006 15.9335 19.7775 13.1095 19.7775 9.93932C19.7775 6.76897 18.3006 3.94497 16 2.12513C17.6825 0.794347 19.8054 0 22.1121 0C27.5734 0 32.0004 4.44987 32.0004 9.9392Z" fill="#0099DF"/>
<path d="M23.255 22.1691C23.37 22.1691 23.5354 22.1912 23.6618 22.2411L23.4858 22.7821C23.365 22.7321 23.2443 22.7157 23.1287 22.7157C22.7552 22.7157 22.5684 22.9583 22.5684 23.3944V24.8743H21.9969V22.2354H22.5628V22.5558C22.7112 22.3239 22.9255 22.1691 23.255 22.1691ZM21.1437 22.7599H20.2099V23.9523C20.2099 24.2171 20.303 24.394 20.5892 24.394C20.7375 24.394 20.9242 24.3441 21.094 24.2449L21.2587 24.7358C21.0777 24.8628 20.7922 24.9406 20.545 24.9406C19.8692 24.9406 19.6334 24.576 19.6334 23.9631V22.7599H19.1003V22.2354H19.6334V21.4348H20.2099V22.2354H21.1437V22.7599ZM13.8319 23.3229C13.8929 22.9419 14.1232 22.6822 14.5299 22.6822C14.8977 22.6822 15.134 22.9141 15.1944 23.3229H13.8319ZM15.788 23.5548C15.7823 22.7321 15.2768 22.1691 14.5405 22.1691C13.7717 22.1691 13.2334 22.7321 13.2334 23.5548C13.2334 24.3934 13.7937 24.94 14.5795 24.94C14.975 24.94 15.3372 24.8407 15.6559 24.5704L15.3755 24.145C15.1562 24.322 14.8757 24.4211 14.6123 24.4211C14.2444 24.4211 13.9093 24.2499 13.8269 23.7754H15.7767C15.7823 23.7033 15.7879 23.6319 15.7879 23.5548H15.788ZM18.298 22.9091C18.1389 22.8092 17.815 22.6822 17.4799 22.6822C17.1668 22.6822 16.98 22.7984 16.98 22.9919C16.98 23.1681 17.1775 23.218 17.4247 23.2509L17.6938 23.2895C18.2653 23.3729 18.611 23.6155 18.611 24.0793C18.611 24.5818 18.1715 24.9406 17.4139 24.9406C16.9852 24.9406 16.5897 24.83 16.2764 24.5981L16.5457 24.1508C16.738 24.2999 17.0242 24.4269 17.4195 24.4269C17.8094 24.4269 18.0182 24.3113 18.0182 24.1066C18.0182 23.9579 17.8698 23.8746 17.5567 23.8309L17.2875 23.7925C16.6997 23.7091 16.3809 23.4442 16.3809 23.014C16.3809 22.4895 16.8097 22.1691 17.4743 22.1691C17.8918 22.1691 18.2709 22.2633 18.545 22.4452L18.2979 22.9091H18.298ZM25.343 22.7143C25.2255 22.7143 25.1168 22.7352 25.0155 22.7763C24.9175 22.8162 24.8286 22.8755 24.7539 22.9508C24.6789 23.0277 24.6199 23.119 24.5804 23.2192C24.5383 23.3235 24.5175 23.4386 24.5175 23.5637C24.5175 23.6893 24.5383 23.8038 24.5804 23.9081C24.6225 24.0123 24.6804 24.102 24.7539 24.1767C24.8286 24.2519 24.9175 24.3112 25.0155 24.351C25.1168 24.3927 25.2255 24.413 25.343 24.413C25.4605 24.413 25.57 24.3929 25.6705 24.351C25.769 24.3113 25.8584 24.252 25.9334 24.1767C26.0083 24.102 26.0662 24.0123 26.1089 23.9081C26.151 23.8038 26.1718 23.6895 26.1718 23.5637C26.1718 23.4386 26.151 23.3235 26.1089 23.2192C26.0662 23.115 26.0083 23.0253 25.9334 22.9508C25.8584 22.8754 25.7691 22.816 25.6707 22.7763C25.5665 22.7344 25.4553 22.7134 25.3432 22.7143H25.343ZM25.343 22.1691C25.5468 22.1691 25.7354 22.2044 25.9089 22.2759C26.0824 22.3466 26.2327 22.4446 26.3592 22.5691C26.4866 22.6947 26.5877 22.8446 26.6565 23.0101C26.7282 23.1802 26.764 23.3646 26.764 23.5637C26.764 23.7627 26.7282 23.9473 26.6565 24.1172C26.5877 24.2829 26.4865 24.4331 26.359 24.5589C26.2328 24.6833 26.0824 24.7808 25.909 24.8522C25.7353 24.9229 25.5468 24.9583 25.343 24.9583C25.1393 24.9583 24.9507 24.9229 24.7772 24.8522C24.6037 24.7808 24.4547 24.6834 24.3289 24.5589C24.2022 24.4327 24.1015 24.2826 24.0327 24.1172C23.961 23.9473 23.9252 23.7627 23.9252 23.5637C23.9252 23.3646 23.961 23.1802 24.0327 23.0102C24.1015 22.845 24.2022 22.6951 24.3289 22.5691C24.4575 22.4425 24.6099 22.3428 24.7772 22.2759C24.9507 22.2044 25.1393 22.1691 25.343 22.1691ZM10.4947 23.5548C10.4947 23.091 10.7972 22.7099 11.2913 22.7099C11.7635 22.7099 12.0823 23.0746 12.0823 23.5548C12.0823 24.0351 11.7635 24.399 11.2913 24.399C10.7972 24.399 10.4947 24.0186 10.4947 23.5548ZM12.6205 23.5548V22.2354H12.0495V22.5558C11.8679 22.3182 11.5938 22.1691 11.2203 22.1691C10.484 22.1691 9.90741 22.7485 9.90741 23.5548C9.90741 24.3606 10.484 24.9406 11.2203 24.9406C11.5938 24.9406 11.8678 24.7915 12.0495 24.5539V24.8743H12.6205V23.5548ZM9.40178 24.8743V23.218C9.40178 22.5944 9.00628 22.1748 8.36941 22.169C8.03428 22.1633 7.68778 22.2682 7.44641 22.6386C7.26528 22.346 6.97928 22.1691 6.57816 22.1691C6.29828 22.1691 6.02353 22.2519 5.80916 22.5608V22.2354H5.23828V24.8743H5.81478V23.4114C5.81478 22.9533 6.06753 22.7099 6.45728 22.7099C6.83653 22.7099 7.02891 22.9583 7.02891 23.4057V24.8743H7.60553V23.4114C7.60553 22.9533 7.86953 22.7099 8.24803 22.7099C8.63853 22.7099 8.82528 22.9583 8.82528 23.4057V24.8743H9.40178Z" fill="#110F0D"/>
</svg>
