<svg width="32" height="24" viewBox="0 0 32 24" fill="none" xmlns="http://www.w3.org/2000/svg">
<path d="M32 19.081C32 21.7364 29.7701 23.8987 27.0317 23.8987H0V4.8177C0 2.1623 2.22987 0 4.96825 0H32V19.081Z" fill="white"/>
<path d="M23.1973 14.1873H25.251C25.3098 14.1873 25.4466 14.1684 25.5054 14.1684C25.8966 14.0925 26.2291 13.7511 26.2291 13.2769C26.2291 12.8217 25.8966 12.4803 25.5054 12.3855C25.4466 12.3665 25.3294 12.3665 25.2511 12.3665H23.1974V14.1873H23.1973Z" fill="url(#paint0_linear)"/>
<path d="M25.017 1.61206C23.061 1.61206 21.457 3.14855 21.457 5.06418V8.64903H26.484C26.6014 8.64903 26.7382 8.64903 26.836 8.66794C27.9705 8.72491 28.8116 9.29388 28.8116 10.2801C28.8116 11.0578 28.2444 11.7216 27.1881 11.8545V11.8923C28.3421 11.9682 29.2224 12.5941 29.2224 13.5614C29.2224 14.6047 28.2444 15.2875 26.9534 15.2875H21.4375V22.3054H26.66C28.616 22.3054 30.22 20.769 30.22 18.8533V1.61206H25.017Z" fill="url(#paint1_linear)"/>
<path d="M25.9748 10.5078C25.9748 10.0525 25.6423 9.74897 25.251 9.692C25.212 9.692 25.1141 9.6731 25.0555 9.6731H23.1973V11.3422H25.0555C25.1143 11.3422 25.2315 11.3422 25.2511 11.3233C25.6424 11.2663 25.9749 10.9629 25.9749 10.5076L25.9748 10.5078Z" fill="url(#paint2_linear)"/>
<path d="M5.33927 1.61206C3.38327 1.61206 1.77927 3.14855 1.77927 5.06418V13.5805C2.77689 14.0546 3.81352 14.3581 4.85027 14.3581C6.08252 14.3581 6.74752 13.6374 6.74752 12.6511V8.63H9.79889V12.6321C9.79889 14.1873 8.80139 15.4582 5.41752 15.4582C3.36377 15.4582 1.75977 15.0219 1.75977 15.0219V22.2864H6.98227C8.93827 22.2864 10.5423 20.75 10.5423 18.8342V1.6123H5.33914L5.33927 1.61206Z" fill="url(#paint3_linear)"/>
<path d="M15.1791 1.61206C13.2231 1.61206 11.6191 3.14855 11.6191 5.06418V9.57836C12.519 8.8386 14.0838 8.36442 16.607 8.47824C17.9566 8.53521 19.404 8.89557 19.404 8.89557V10.3561C18.6803 9.9957 17.8198 9.67315 16.7048 9.59727C14.7879 9.46454 13.6339 10.375 13.6339 11.9682C13.6339 13.5804 14.7879 14.4908 16.7048 14.3391C17.8198 14.2632 18.6804 13.9219 19.404 13.5804V15.0409C19.404 15.0409 17.9761 15.4013 16.607 15.4582C14.0838 15.5719 12.519 15.0978 11.6193 14.3581V22.3243H16.8418C18.7978 22.3243 20.4016 20.7879 20.4016 18.8722V1.6123H15.1791V1.61206Z" fill="url(#paint4_linear)"/>
<defs>
<linearGradient id="paint0_linear" x1="21.4531" y1="13.2791" x2="30.2431" y2="13.2791" gradientUnits="userSpaceOnUse">
<stop stop-color="#007940"/>
<stop offset="0.2285" stop-color="#00873F"/>
<stop offset="0.7433" stop-color="#40A737"/>
<stop offset="1" stop-color="#5CB531"/>
</linearGradient>
<linearGradient id="paint1_linear" x1="21.4536" y1="11.9504" x2="30.244" y2="11.9504" gradientUnits="userSpaceOnUse">
<stop stop-color="#007940"/>
<stop offset="0.2285" stop-color="#00873F"/>
<stop offset="0.7433" stop-color="#40A737"/>
<stop offset="1" stop-color="#5CB531"/>
</linearGradient>
<linearGradient id="paint2_linear" x1="21.4529" y1="10.5053" x2="30.2433" y2="10.5053" gradientUnits="userSpaceOnUse">
<stop stop-color="#007940"/>
<stop offset="0.2285" stop-color="#00873F"/>
<stop offset="0.7433" stop-color="#40A737"/>
<stop offset="1" stop-color="#5CB531"/>
</linearGradient>
<linearGradient id="paint3_linear" x1="1.77522" y1="11.9505" x2="10.7011" y2="11.9505" gradientUnits="userSpaceOnUse">
<stop stop-color="#1F286F"/>
<stop offset="0.4751" stop-color="#004E94"/>
<stop offset="0.8261" stop-color="#0066B1"/>
<stop offset="1" stop-color="#006FBC"/>
</linearGradient>
<linearGradient id="paint4_linear" x1="11.5686" y1="11.9504" x2="20.2377" y2="11.9504" gradientUnits="userSpaceOnUse">
<stop stop-color="#6C2C2F"/>
<stop offset="0.1735" stop-color="#882730"/>
<stop offset="0.5731" stop-color="#BE1833"/>
<stop offset="0.8585" stop-color="#DC0436"/>
<stop offset="1" stop-color="#E60039"/>
</linearGradient>
</defs>
</svg>
