<svg width="40" height="13" viewBox="0 0 40 13" fill="none" xmlns="http://www.w3.org/2000/svg">
<path d="M20.687 4.13932C20.6642 5.94303 22.2906 6.94952 23.5158 7.54799C24.7745 8.16196 25.1973 8.55572 25.1923 9.10485C25.183 9.94515 24.1883 10.316 23.2575 10.3305C21.6336 10.3557 20.6894 9.89096 19.9388 9.53949L19.3538 12.2834C20.1069 12.6313 21.5014 12.9347 22.9475 12.948C26.342 12.948 28.5628 11.2683 28.5748 8.66411C28.5881 5.35897 24.0142 5.17603 24.0455 3.69873C24.0563 3.25078 24.4827 2.77276 25.417 2.65122C25.8795 2.58982 27.1562 2.54283 28.6037 3.211L29.1719 0.556179C28.3934 0.272058 27.393 -1.90735e-06 26.1473 -1.90735e-06C22.9523 -1.90735e-06 20.7052 1.70253 20.687 4.13932ZM34.6309 0.228673C34.0111 0.228673 33.4888 0.591106 33.2556 1.14729L28.4067 12.753H31.7987L32.4738 10.883H36.6188L37.0103 12.753H40L37.3911 0.228673H34.6309ZM35.1055 3.61196L36.0844 8.31499H33.4034L35.1055 3.61196ZM16.5744 0.228829L13.9006 12.7528H17.133L19.8055 0.228516H16.5744V0.228829ZM11.7927 0.228516L8.42828 8.75323L7.06734 1.50502C6.90766 0.695889 6.27703 0.228673 5.57672 0.228673H0.0770312L0 0.59236C1.12906 0.83795 2.41188 1.23406 3.18906 1.65789C3.66469 1.91679 3.80031 2.14312 3.95656 2.75835L6.53422 12.753H9.95L15.1869 0.228673H11.7927" fill="url(#paint0_linear)"/>
<defs>
<linearGradient id="paint0_linear" x1="18.3896" y1="13.2077" x2="18.7653" y2="-0.0899998" gradientUnits="userSpaceOnUse">
<stop stop-color="#222357"/>
<stop offset="1" stop-color="#254AA5"/>
</linearGradient>
</defs>
</svg>
