<svg width="35" height="6" viewBox="0 0 35 6" fill="none" xmlns="http://www.w3.org/2000/svg">
<path d="M18.4812 0.0253906C16.8419 0.0253906 15.5117 1.33248 15.5117 2.94565C15.5117 4.66081 16.7841 5.94286 18.4812 5.94286C20.1361 5.94286 21.4427 4.64379 21.4427 2.97934C21.4427 1.32474 20.1448 0.0253906 18.4812 0.0253906Z" fill="url(#paint0_linear)"/>
<path d="M1.62374 0.131825H0.0273438V5.81466H1.6154C2.458 5.81466 3.06735 5.61094 3.60192 5.15899C4.23616 4.62213 4.61228 3.81262 4.61228 2.97596C4.61228 1.2982 3.3842 0.131825 1.62374 0.131825ZM2.89331 4.39999C2.55008 4.71603 2.10813 4.85264 1.40581 4.85264H1.11405V1.09413H1.40581C2.10813 1.09413 2.53312 1.22208 2.89331 1.55403C3.26895 1.89492 3.49296 2.42278 3.49296 2.96787C3.49296 3.51415 3.26895 4.06043 2.89331 4.39999ZM5.11362 5.81466H6.19862V0.131825H5.11376V5.81466H5.11362ZM8.85479 2.31171C8.20271 2.06515 8.01083 1.90252 8.01083 1.59687C8.01083 1.23869 8.35249 0.966244 8.82082 0.966244C9.14642 0.966244 9.41356 1.1025 9.69828 1.42531L10.2653 0.668127C9.79774 0.249732 9.2385 0.0370109 8.62839 0.0370109C7.64415 0.0370109 6.89213 0.736081 6.89213 1.66399C6.89213 2.44859 7.24254 2.84871 8.2615 3.22462C8.68752 3.3772 8.90408 3.47899 9.01291 3.54855C9.22995 3.69345 9.33898 3.89724 9.33898 4.13564C9.33898 4.59652 8.97962 4.93685 8.49468 4.93685C7.97692 4.93685 7.55993 4.67299 7.30933 4.17882L6.60878 4.8698C7.10876 5.61862 7.71005 5.95203 8.53747 5.95203C9.66458 5.95203 10.4573 5.1841 10.4573 4.0852C10.4573 3.18178 10.0909 2.77245 8.85479 2.31171ZM10.7995 2.97603C10.7995 4.64801 12.0857 5.94289 13.7393 5.94289C14.2069 5.94289 14.6076 5.84857 15.1007 5.61087V4.30643C14.666 4.75001 14.2818 4.92848 13.7889 4.92848C12.6954 4.92848 11.9184 4.11876 11.9184 2.96787C11.9184 1.87769 12.7197 1.01689 13.7393 1.01689C14.2562 1.01689 14.6493 1.20422 15.1007 1.65583V0.351523C14.6248 0.105244 14.2317 0.00366211 13.7642 0.00366211C12.119 0.00366211 10.7995 1.32471 10.7995 2.97603ZM23.9007 3.94915L22.4144 0.131825H21.2286L23.5925 5.95985H24.1765L26.5815 0.131755H25.4046L23.9007 3.94908V3.94915ZM27.0753 5.81473H30.1559V4.85264H28.1606V3.31769H30.0796V2.35545H28.1606V1.09406H30.1559V0.131895H27.0752V5.81473H27.0753ZM34.455 1.80896C34.455 0.744383 33.7379 0.131825 32.4846 0.131825H30.8729V5.81466H31.9595V3.53069H32.1017L33.6039 5.81466H34.9399L33.1853 3.42094C34.0048 3.24987 34.455 2.67869 34.455 1.80896ZM32.2755 2.74748H31.9595V1.02548H32.2929C32.9707 1.02548 33.3379 1.31606 33.3379 1.8691C33.3379 2.43959 32.9707 2.74748 32.2755 2.74748Z" fill="#0B1015"/>
<defs>
<linearGradient id="paint0_linear" x1="16.6632" y1="0.56169" x2="20.757" y2="4.79824" gradientUnits="userSpaceOnUse">
<stop stop-color="#F34F26"/>
<stop offset="1" stop-color="#F69E35"/>
</linearGradient>
</defs>
</svg>
