<svg width="22" height="22" viewBox="0 0 22 22" fill="none" xmlns="http://www.w3.org/2000/svg">
<path d="M11 0C4.93423 0 0 4.93423 0 11C0 17.0658 4.93423 22 11 22C17.0658 22 22 17.0649 22 11C22 4.93509 17.0658 0 11 0ZM11 20.2959C5.8749 20.2959 1.7041 16.126 1.7041 11C1.7041 5.87404 5.8749 1.7041 11 1.7041C16.126 1.7041 20.2959 5.87404 20.2959 11C20.2959 16.126 16.1251 20.2959 11 20.2959Z" fill="white"/>
<path d="M16.0472 7.17427C15.7004 6.85901 15.1611 6.88372 14.8442 7.2322L9.64661 12.9555L7.1356 10.4027C6.80414 10.067 6.26565 10.0619 5.9308 10.3925C5.59508 10.7222 5.58997 11.2616 5.92057 11.5973L9.06378 14.7925C9.22483 14.9561 9.44294 15.0473 9.67128 15.0473C9.67639 15.0473 9.68236 15.0473 9.68748 15.0481C9.92264 15.043 10.1442 14.9425 10.3018 14.7687L16.1051 8.37826C16.4213 8.02888 16.3957 7.49039 16.0472 7.17427Z" fill="white"/>
</svg>
