<svg width="944" height="380" viewBox="0 0 944 380" fill="none" xmlns="http://www.w3.org/2000/svg">
<path fill-rule="evenodd" clip-rule="evenodd" d="M252.357 12.4764C295.665 18.8332 339.051 41.4064 362.097 78.5922C385.369 116.14 378.712 163.521 373.09 207.279C367.605 249.964 364.862 300.002 330.344 325.729C296.392 351.035 247.815 322.507 206.4 331.518C164.704 340.591 131.701 389.149 90.5028 377.915C49.5742 366.754 31.4042 318.472 15.0969 279.353C0.485552 244.303 -3.73264 206.17 3.37418 168.907C10.0336 133.99 26.6198 101.012 53.5404 77.7831C78.5042 56.2432 113.629 57.021 144.98 46.7231C181.567 34.705 214.224 6.87901 252.357 12.4764Z" fill="#FBFBFB"/>
<path fill-rule="evenodd" clip-rule="evenodd" d="M551.915 63.018C580.854 63.4108 610.646 68.0684 633.482 85.8545C655.916 103.327 671.217 130.097 674.333 158.365C677.168 184.075 661.495 206.983 649.355 229.821C639.334 248.672 624.893 262.992 610.389 278.656C591.528 299.026 578.87 328.435 551.915 335.056C523.189 342.112 493.428 328.81 468.044 313.621C440.738 297.283 415.273 275.966 403.65 246.339C391.632 215.707 391.648 180.588 403.867 150.036C415.646 120.581 441.379 99.6901 468.723 83.618C493.971 68.7781 522.633 62.6205 551.915 63.018Z" fill="#FBFBFB"/>
<path fill-rule="evenodd" clip-rule="evenodd" d="M834.92 0.749562C863.782 -3.36169 894.485 9.77502 915.024 31.9158C934.332 52.7302 935.142 84.7258 939.683 113.685C943.536 138.25 946.456 162.895 939.281 186.587C932.107 210.279 914.38 226.549 899.67 245.823C878.669 273.339 867.179 315.147 834.92 323.326C802.28 331.602 769.739 307.643 743.327 285.464C717.623 263.881 693.704 235.683 689.233 200.994C685.014 168.265 705.38 139.033 720.762 110.41C733.08 87.4888 750.539 70.3776 768.911 52.7289C789.755 32.7059 807.186 4.70026 834.92 0.749562Z" fill="#FBFBFB"/>
</svg>
