<svg width="605" height="411" viewBox="0 0 605 411" fill="none" xmlns="http://www.w3.org/2000/svg">
<path fill-rule="evenodd" clip-rule="evenodd" d="M7.81322 304.516C-9.90877 262.221 8.58853 214.939 20.3216 170.2C31.8211 126.353 33.9969 69.7655 74.8962 48.7281C116.693 27.229 162.508 72.3053 209.33 72.9798C247.831 73.5344 285.492 36.8448 320.414 52.2649C355.527 67.7691 358.955 114.51 377.923 147.423C400.386 186.4 455.19 219.283 441.643 262.621C427.855 306.732 359.778 301.629 321.364 328.364C289.043 350.859 273.924 394.514 236.127 405.658C195.023 417.778 151.116 407.124 112.409 389.977C69.9679 371.176 25.5612 346.874 7.81322 304.516Z" fill="#FBFBFB"/>
<path fill-rule="evenodd" clip-rule="evenodd" d="M516.77 13.3756C539.65 11.4489 566.112 -9.66449 583.487 5.36676C601.334 20.8062 583.151 51.1314 587.29 74.3832C590.56 92.749 605.804 107.393 604.967 126.03C603.962 148.42 602.168 177.396 582.21 187.535C561.631 197.989 539.822 171.876 516.77 170.834C495.52 169.873 474.696 190.959 455.488 181.804C436.219 172.621 429.923 147.976 425.12 127.154C420.635 107.711 423.831 88.0612 429.447 68.9153C435.223 49.2247 440.438 26.9583 457.736 15.9561C474.78 5.11556 496.65 15.0698 516.77 13.3756Z" fill="#FBFBFB"/>
</svg>
