<svg width="10" height="6" viewBox="0 0 10 6" fill="none" xmlns="http://www.w3.org/2000/svg">
<path d="M8.23312 0.741832L4.99979 3.97516L1.76645 0.741832C1.6893 0.66468 1.59771 0.603481 1.49691 0.561726C1.3961 0.519972 1.28806 0.498481 1.17896 0.498481C1.06985 0.498481 0.961806 0.519972 0.861002 0.561726C0.760199 0.603481 0.668605 0.66468 0.591454 0.741831C0.514303 0.818983 0.453104 0.910576 0.41135 1.01138C0.369595 1.11218 0.348105 1.22022 0.348105 1.32933C0.348105 1.43844 0.369595 1.54648 0.41135 1.64728C0.453103 1.74809 0.514303 1.83968 0.591454 1.91683L4.41645 5.74183C4.49355 5.81908 4.58512 5.88037 4.68593 5.92219C4.78674 5.96401 4.89481 5.98553 5.00395 5.98553C5.11309 5.98553 5.22116 5.96401 5.32197 5.92219C5.42278 5.88037 5.51436 5.81908 5.59145 5.74183L9.41645 1.91683C9.49371 1.83974 9.555 1.74816 9.59681 1.64735C9.63863 1.54654 9.66016 1.43847 9.66016 1.32933C9.66016 1.22019 9.63863 1.11212 9.59681 1.01131C9.555 0.910501 9.49371 0.818927 9.41645 0.741832C9.09145 0.425166 8.55812 0.416832 8.23312 0.741832Z" fill="#282424"/>
</svg>
