<svg width="15" height="14" viewBox="0 0 15 14" fill="none" xmlns="http://www.w3.org/2000/svg">
<path d="M13.4161 6.08333H3.1769L7.65024 1.60999C8.00774 1.25249 8.00774 0.665826 7.65024 0.308326C7.56543 0.223348 7.4647 0.155929 7.35381 0.10993C7.24292 0.0639299 7.12404 0.0402527 7.00399 0.0402527C6.88393 0.0402527 6.76506 0.0639299 6.65417 0.10993C6.54327 0.155929 6.44254 0.223348 6.35774 0.308326L0.316902 6.34916C0.231924 6.43397 0.164505 6.5347 0.118506 6.64559C0.0725058 6.75648 0.0488281 6.87536 0.0488281 6.99541C0.0488281 7.11547 0.0725058 7.23434 0.118506 7.34523C0.164505 7.45613 0.231924 7.55686 0.316902 7.64166L6.35774 13.6825C6.4426 13.7674 6.54336 13.8347 6.65424 13.8806C6.76512 13.9265 6.88397 13.9502 7.00399 13.9502C7.12401 13.9502 7.24285 13.9265 7.35374 13.8806C7.46462 13.8347 7.56537 13.7674 7.65024 13.6825C7.7351 13.5976 7.80242 13.4969 7.84835 13.386C7.89428 13.2751 7.91792 13.1563 7.91792 13.0362C7.91792 12.9162 7.89428 12.7974 7.84835 12.6865C7.80242 12.5756 7.7351 12.4749 7.65024 12.39L3.1769 7.91666H13.4161C13.9202 7.91666 14.3327 7.50416 14.3327 6.99999C14.3327 6.49583 13.9202 6.08333 13.4161 6.08333Z" fill="#282424"/>
</svg>
