<svg width="46" height="46" viewBox="0 0 46 46" fill="none" xmlns="http://www.w3.org/2000/svg">
<g clip-path="url(#clip0)">
<path d="M42.5905 33.9404L36.8717 28.2218C35.2913 26.6414 32.7335 26.6413 31.1529 28.2218L28.5535 30.8213C27.3561 32.0185 25.4185 32.0186 24.221 30.8213C24.2205 30.8207 24.22 30.8202 24.2194 30.8197L15.1794 21.8099C13.9821 20.6126 13.9819 18.6749 15.1794 17.4774L17.7787 14.878C19.3592 13.2976 19.3592 10.7397 17.7787 9.15918L12.0599 3.44037C10.4795 1.85993 7.92162 1.85984 6.34118 3.44037C6.33372 3.44782 4.43497 5.34658 4.43497 5.34658C-1.12689 10.4806 -1.7584 20.1221 4.26265 26.143L19.8887 41.7388C25.3338 47.1839 34.5395 47.7102 40.684 41.5658C40.684 41.5658 40.6843 41.5654 40.6844 41.5653L42.5905 39.6593C44.1672 38.0825 44.1672 35.5171 42.5905 33.9404ZM8.24766 5.34676C8.77316 4.82126 9.62829 4.82117 10.1539 5.34676L15.8727 11.0656C16.3994 11.5923 16.3994 12.4449 15.8727 12.9718L14.9195 13.9249L7.29451 6.29991L8.24766 5.34676ZM21.794 39.8317L6.16805 24.236C1.79653 19.8645 1.54937 12.9075 5.42469 8.2426L13.0223 15.8402C11.0317 18.0966 11.1018 21.5447 13.2748 23.7177L22.3148 32.7275C24.4752 34.8879 27.9235 34.9783 30.1907 32.9783L37.7889 40.5765C33.1429 44.4444 26.1994 44.237 21.794 39.8317ZM40.6843 37.7531L39.7312 38.7062L32.1062 31.0812L33.0592 30.1281C33.5861 29.6013 34.4386 29.6013 34.9655 30.1281L40.6843 35.8469C41.2099 36.3724 41.2099 37.2276 40.6843 37.7531Z" fill="white"/>
<path d="M41.9562 0.000610352H25.7811C23.5513 0.000610352 21.7373 1.81464 21.7373 4.04438V14.8278C21.7373 17.0575 23.5513 18.8715 25.7811 18.8715H27.129V22.9153C27.129 24.1126 28.5838 24.7146 29.43 23.8685L34.4269 18.8715H41.9562C44.1859 18.8715 45.9999 17.0575 45.9999 14.8278V4.04447C46 1.81473 44.186 0.000610352 41.9562 0.000610352ZM43.3042 14.8279C43.3042 15.5711 42.6995 16.1758 41.9562 16.1758H33.8687C33.5112 16.1758 33.1684 16.3177 32.9156 16.5706L29.8249 19.6613V17.5237C29.8249 16.7793 29.2215 16.1758 28.477 16.1758H25.7812C25.0379 16.1758 24.4332 15.5711 24.4332 14.8279V4.04447C24.4332 3.30119 25.0379 2.69655 25.7812 2.69655H41.9563C42.6996 2.69655 43.3043 3.30119 43.3043 4.04447V14.8279H43.3042Z" fill="white"/>
<path d="M39.2602 5.39246H28.4768C27.7324 5.39246 27.1289 5.99593 27.1289 6.74038C27.1289 7.48482 27.7324 8.0883 28.4768 8.0883H39.2602C40.0047 8.0883 40.6081 7.48482 40.6081 6.74038C40.6081 5.99593 40.0047 5.39246 39.2602 5.39246Z" fill="white"/>
<path d="M33.8685 10.7841H28.4768C27.7324 10.7841 27.1289 11.3875 27.1289 12.132C27.1289 12.8764 27.7324 13.4799 28.4768 13.4799H33.8685C34.613 13.4799 35.2164 12.8764 35.2164 12.132C35.2164 11.3875 34.6129 10.7841 33.8685 10.7841Z" fill="white"/>
</g>
<defs>
<clipPath id="clip0">
<rect width="46" height="46" fill="white"/>
</clipPath>
</defs>
</svg>
