<svg width="40" height="46" viewBox="0 0 40 46" fill="none" xmlns="http://www.w3.org/2000/svg">
<path d="M15.3129 22.0245C14.2941 22.0245 13.4648 22.8622 13.4648 23.8964C13.4648 24.9306 14.294 25.7691 15.3129 25.7691C16.3331 25.7691 17.1621 24.9306 17.1621 23.8964C17.1621 22.8621 16.3331 22.0245 15.3129 22.0245Z" fill="white"/>
<path d="M24.6723 22.01C23.6436 22.01 22.8091 22.8546 22.8091 23.8965C22.8091 24.9385 23.6436 25.7831 24.6723 25.7831C25.6997 25.7831 26.5342 24.9385 26.5342 23.8965C26.5342 22.8545 25.6997 22.01 24.6723 22.01Z" fill="white"/>
<path d="M16.752 37.3433C15.8724 37.3433 15.1567 38.0663 15.1567 38.9592C15.1567 39.852 15.8724 40.5757 16.752 40.5757C17.6327 40.5757 18.3483 39.852 18.3483 38.9592C18.3483 38.0663 17.6327 37.3433 16.752 37.3433Z" fill="white"/>
<path d="M23.2358 37.3308C22.3477 37.3308 21.6274 38.0599 21.6274 38.9593C21.6274 39.8587 22.3477 40.5878 23.2358 40.5878C24.1228 40.5878 24.8431 39.8587 24.8431 38.9593C24.8431 38.0598 24.1229 37.3308 23.2358 37.3308Z" fill="white"/>
<path d="M38.8449 1.11487L38.6158 0.203227L37.6859 0.0652266C37.5234 0.0413281 33.6694 -0.496027 30.4294 2.01987C28.5297 3.49519 27.2626 5.66851 26.6482 8.49571C26.4153 8.40075 26.1828 8.31378 25.952 8.23472C25.7341 8.14236 25.1667 7.92718 24.227 7.73159L25.391 0H14.6086L15.7728 7.73177C14.8337 7.92736 14.2654 8.14272 14.048 8.23472C13.8172 8.31378 13.5845 8.40066 13.3515 8.4958C12.737 5.6686 11.47 3.49528 9.57021 2.02005C6.33017 -0.496027 2.47615 0.0411484 2.31362 0.0652266L1.38374 0.203227L1.15464 1.11487C1.1275 1.22241 0.498148 3.78575 1.02912 6.88562C1.49218 9.59001 2.93723 13.1858 7.10337 15.5342C6.5883 17.3896 6.4016 19.6674 6.70509 22.4642C7.08199 25.94 7.90307 28.0095 8.85388 30.4059C9.22341 31.3372 9.60543 32.3004 9.99346 33.4283C10.2175 34.0801 10.2514 35.9461 10.204 37.0627L10.2026 37.1233C10.2026 41.3495 12.2893 43.4839 14.0398 44.5302C16.0721 45.745 18.4026 46 19.9998 46C21.5971 46 23.9276 45.745 25.9598 44.5303C27.7103 43.484 29.797 41.3495 29.797 37.1233L29.7957 37.0631C29.748 35.9463 29.7819 34.0802 30.0062 33.4284C30.3942 32.3004 30.7762 31.3374 31.1457 30.406C32.0966 28.0097 32.9175 25.9402 33.2945 22.4643C33.5978 19.6674 33.4113 17.3896 32.8962 15.5342C37.0622 13.1858 38.5073 9.59001 38.9703 6.88571C39.5014 3.78584 38.872 1.2225 38.8449 1.11487ZM22.1188 2.81633L20.9881 10.3266H19.0115L17.8808 2.81633H22.1188ZM8.18688 12.907C5.79255 11.4566 4.32549 9.30772 3.82111 6.50181C3.55751 5.03538 3.61986 3.69563 3.71976 2.82505C4.75791 2.86754 6.42819 3.13402 7.86803 4.26416C9.39097 5.45954 10.36 7.37707 10.7581 9.96646C9.78817 10.7096 8.89692 11.6696 8.18688 12.907ZM24.5149 42.1129C22.9562 43.0447 21.017 43.1837 19.9998 43.1837C18.9827 43.1837 17.0435 43.0447 15.4848 42.1129C13.8322 41.1252 13.0255 39.5022 13.019 37.152C13.0238 37.0346 13.0307 36.8388 13.0352 36.5906C14.6181 35.1254 17.2284 34.231 19.9998 34.231C22.7712 34.231 25.3816 35.1255 26.9645 36.5906C26.9691 36.8388 26.976 37.0345 26.9808 37.152C26.9742 39.5021 26.1674 41.1252 24.5149 42.1129ZM30.4947 22.1607C30.2162 24.7289 29.6733 26.4151 28.9763 28.2263H24.6858V31.0426H27.8748C27.7002 31.5044 27.5231 31.9888 27.343 32.5125C27.2684 32.7295 27.2078 32.9806 27.1587 33.2512C25.1766 32.0773 22.6618 31.4148 19.9997 31.4148C17.3377 31.4148 14.8229 32.0773 12.8409 33.2512C12.7917 32.9806 12.7313 32.7296 12.6565 32.5126C12.4764 31.9887 12.2993 31.5044 12.1247 31.0426H15.3137V28.2263H11.0233C10.3262 26.4151 9.78332 24.7289 9.5048 22.1607C9.40553 21.2446 9.3651 20.3807 9.37956 19.5667H14.3671V16.7504H9.70237C9.93291 15.748 10.2837 14.8597 10.7582 14.0941C11.6826 12.6024 13.1118 11.5222 15.0064 10.8836L15.0699 10.8666L15.1507 10.8261C15.2051 10.8033 15.5471 10.6657 16.1927 10.522L16.5874 13.1431H23.4122L23.8068 10.522C24.4504 10.6652 24.7914 10.8021 24.8479 10.8257L24.8996 10.8521L24.9931 10.8836C26.8877 11.5222 28.317 12.6024 29.2414 14.094C29.7159 14.8596 30.0668 15.7479 30.2973 16.7504H25.6326V19.5667H30.6201C30.6344 20.3805 30.5941 21.2445 30.4947 22.1607ZM36.1945 6.41017C35.7063 9.26082 34.2338 11.4407 31.8126 12.907C31.1026 11.6696 30.2113 10.7096 29.2413 9.96646C29.6394 7.37707 30.6085 5.45954 32.1314 4.26416C33.5721 3.13339 35.243 2.86727 36.2792 2.82478C36.3771 3.67847 36.439 4.98255 36.1945 6.41017Z" fill="white"/>
</svg>
