<svg width="46" height="46" viewBox="0 0 46 46" fill="none" xmlns="http://www.w3.org/2000/svg">
<g clip-path="url(#clip0)">
<path d="M6.53297 0V20.928C4.86385 23.0063 3.86328 25.6437 3.86328 28.5103C3.86328 31.3772 4.86385 34.0143 6.53297 36.0926V46H35.3658L42.2224 39.4551V0L6.53297 0ZM27.7452 27.1626H17.3398V16.7573C22.7884 17.3777 27.1247 21.7141 27.7452 27.1626ZM14.6445 19.1736V29.8583H25.3293C24.673 34.4235 20.7364 37.9442 15.9922 37.9442C10.7904 37.9442 6.55859 33.7121 6.55859 28.5107C6.55859 23.7661 10.079 19.8295 14.6445 19.1736ZM9.22829 38.5735C11.1617 39.8773 13.4895 40.6396 15.9922 40.6396C22.2244 40.6396 27.3732 35.914 28.0456 29.8583H30.517V28.5107C30.517 25.9585 29.8548 23.5591 28.6942 21.4727H35.775V18.7773H26.764C24.1041 15.8367 20.2605 13.9858 15.9922 13.9858H14.6445V16.4568C12.6553 16.6779 10.81 17.3809 9.22829 18.4474V2.69531H39.527V35.6062H31.8282V43.3047H9.22829V38.5735ZM34.5235 38.3015H39.527V38.3019L34.5235 43.0776V38.3015Z" fill="white"/>
<path d="M12.9805 7.27734H35.7752V9.97266H12.9805V7.27734Z" fill="white"/>
<path d="M31.0859 13.0273H35.775V15.7227H31.0859V13.0273Z" fill="white"/>
</g>
<defs>
<clipPath id="clip0">
<rect width="46" height="46" fill="white"/>
</clipPath>
</defs>
</svg>
