<svg width="46" height="46" viewBox="0 0 46 46" fill="none" xmlns="http://www.w3.org/2000/svg">
<path d="M21.6523 10.8711H20.3047V18.957H12.2188V20.3047C12.2188 25.5065 16.4505 29.7383 21.6523 29.7383C26.8542 29.7383 31.0859 25.5065 31.0859 20.3047C31.0859 15.1029 26.8542 10.8711 21.6523 10.8711ZM21.6523 27.043C18.3983 27.043 15.6756 24.7242 15.0495 21.6523H23V13.7019C26.0719 14.328 28.3906 17.0507 28.3906 20.3047C28.3906 24.0202 25.3679 27.043 21.6523 27.043Z" fill="white"/>
<path d="M17.6094 5.48047H16.2617C11.0599 5.48047 6.82812 9.71225 6.82812 14.9141V16.2617H17.6094V5.48047ZM14.9141 13.5664H9.65891C10.1962 10.9301 12.2777 8.84856 14.9141 8.31125V13.5664Z" fill="white"/>
<path d="M1.4375 0V40.6094C1.4375 43.5819 3.85556 46 6.82812 46H39.1719C42.1444 46 44.5625 43.5819 44.5625 40.6094V32.5234H36.4766V0H1.4375ZM4.13281 40.6094V2.69531H33.7812V40.6094C33.7812 41.591 34.0462 42.5112 34.5063 43.3047H6.82812C5.34184 43.3047 4.13281 42.0957 4.13281 40.6094ZM41.8672 35.2188V40.6094C41.8672 42.0957 40.6582 43.3047 39.1719 43.3047C37.6856 43.3047 36.4766 42.0957 36.4766 40.6094V35.2188H41.8672Z" fill="white"/>
<path d="M6.82812 32.5234H31.0859V35.2188H6.82812V32.5234Z" fill="white"/>
<path d="M6.82812 37.9141H31.0859V40.6094H6.82812V37.9141Z" fill="white"/>
</svg>
