<svg width="46" height="46" viewBox="0 0 46 46" fill="none" xmlns="http://www.w3.org/2000/svg">
<path d="M44.6523 21.6532C43.9081 21.6532 43.3047 22.2566 43.3047 23.0008C43.3047 34.197 34.1961 43.3057 23.0002 43.3057C11.8043 43.3055 2.69558 34.1969 2.69531 23.001C2.69558 11.8049 11.8041 2.69632 22.9998 2.69632C27.9717 2.69623 32.6701 4.47217 36.3727 7.72218L32.1419 11.9531C29.5758 9.82219 26.3772 8.66194 23.0002 8.66194C15.0936 8.66194 8.66112 15.0944 8.66112 23.001C8.66112 30.9076 15.0936 37.3401 23.0002 37.3401C30.9067 37.3401 37.3392 30.9076 37.3392 23.001C37.3392 22.2567 36.7358 21.6534 35.9915 21.6534C35.2472 21.6534 34.6438 22.2567 34.6438 23.001C34.6438 29.4213 29.4205 34.6448 23.0002 34.6448C16.5798 34.6448 11.3564 29.4214 11.3564 23.001C11.3564 16.5806 16.5798 11.3573 23.0002 11.3573C25.6563 11.3573 28.1765 12.2414 30.2257 13.8694L25.9484 18.1467C25.0687 17.6103 24.0565 17.3229 22.9996 17.323C19.8689 17.323 17.3218 19.8701 17.3218 23.0009C17.3218 26.1318 19.869 28.679 22.9999 28.679C26.1308 28.679 28.678 26.1319 28.678 23.0011C28.678 21.9444 28.3906 20.9324 27.8542 20.0526L39.2632 8.64335C39.5264 8.38011 39.6579 8.03519 39.6579 7.69028C39.6579 7.34528 39.5264 7.00028 39.2632 6.73713C34.9191 2.3931 29.1433 0.000917239 22.9998 0.00100708C16.8565 0.00100708 11.0807 2.39346 6.73666 6.73749C2.39254 11.0815 8.98438e-05 16.8575 0 23.001C8.98438e-05 29.1444 2.39263 34.9201 6.73666 39.2643C11.0808 43.6084 16.8566 46.0008 23.0002 46.0009C29.1436 46.0009 34.9193 43.6085 39.2634 39.2643C43.6076 34.92 46 29.1443 46 23.0008C46 22.2566 45.3966 21.6532 44.6523 21.6532ZM23 25.9836C21.3552 25.9836 20.0172 24.6456 20.0172 23.0009C20.0172 21.3562 21.3551 20.0183 23.0001 20.0183C23.7966 20.0182 24.5456 20.3283 25.1089 20.8916C25.109 20.8917 25.1092 20.8917 25.1093 20.8918C25.1094 20.8919 25.1094 20.892 25.1095 20.8921C25.6727 21.4554 25.9829 22.2044 25.9829 23.0011C25.9828 24.6458 24.6448 25.9836 23 25.9836Z" fill="white"/>
</svg>
