<svg width="46" height="46" viewBox="0 0 46 46" fill="none" xmlns="http://www.w3.org/2000/svg">
<path d="M42.0698 21.3333H42.346L42.3186 21.0585C41.405 11.8991 34.1009 4.59589 24.9415 3.68237L24.6667 3.65496V3.93113V9.73682V9.9534L24.881 9.98427C30.6345 10.8126 35.1874 15.3655 36.0157 21.119L36.0466 21.3333H36.2632H42.0698ZM21.3333 3.9302V3.65402L21.0585 3.68143C11.2599 4.65893 3.58333 12.9485 3.58333 23C3.58333 28.3964 5.79947 33.2808 9.36457 36.8032L9.54136 36.9779L9.71708 36.8021L13.7802 32.7381L13.9584 32.5598L13.7786 32.3831C11.346 29.9917 9.83333 26.67 9.83333 23C9.83333 16.3809 14.7489 10.9009 21.119 9.98333L21.3333 9.95245V9.73588V3.9302ZM12.3667 38.866L12.1491 39.0836L12.4067 39.252C15.4558 41.2455 19.0911 42.4167 23 42.4167C33.0515 42.4167 41.3411 34.7392 42.3176 24.9415L42.345 24.6667H42.0689H36.2632H36.0466L36.0157 24.8811C35.0991 31.2511 29.6191 36.1667 23 36.1667C20.7789 36.1667 18.6867 35.6093 16.8488 34.633L16.6855 34.5462L16.5547 34.677L12.3667 38.866ZM0.25 23C0.25 10.4556 10.4565 0.25 23 0.25C35.5435 0.25 45.75 10.4556 45.75 23C45.75 35.5444 35.5435 45.75 23 45.75C10.4565 45.75 0.25 35.5444 0.25 23ZM23 13.1667C17.5775 13.1667 13.1667 17.5775 13.1667 23C13.1667 28.4225 17.5775 32.8333 23 32.8333C28.4225 32.8333 32.8333 28.4225 32.8333 23C32.8333 17.5775 28.4225 13.1667 23 13.1667Z" fill="white" stroke="#474747" stroke-width="0.5"/>
</svg>
