<svg width="571" height="487" viewBox="0 0 571 487" fill="none" xmlns="http://www.w3.org/2000/svg">
<path fill-rule="evenodd" clip-rule="evenodd" d="M280.651 7.80959C333.882 -1.68468 389.73 -6.35118 438.639 16.7192C493.579 42.6343 546.164 84.0922 564.93 141.903C583.694 199.713 554.636 259.528 536.259 317.463C517.74 375.845 512.369 450.465 458.081 478.75C403.635 507.117 341.969 453.454 280.651 450.637C223.841 448.027 160.022 497.319 114.674 462.974C69.1752 428.513 99.7336 353.203 80.8555 299.314C61.229 243.288 -15.9254 200.326 2.94838 144.042C21.8726 87.6073 105.477 92.8169 158.886 66.6162C200.368 46.2664 235.17 15.9216 280.651 7.80959Z" fill="#FBFBFB"/>
</svg>
