<svg width="46" height="46" viewBox="0 0 46 46" fill="none" xmlns="http://www.w3.org/2000/svg">
<path d="M41.957 19.0469H40.5195V17.6992C40.5195 13.0124 38.6997 8.58358 35.3954 5.22846C32.0748 1.8568 27.6727 0 23 0C18.3273 0 13.9252 1.8568 10.6046 5.22846C7.30025 8.58358 5.48047 13.0124 5.48047 17.6992V19.0469H4.04297C1.81368 19.0469 0 20.8605 0 23.0898V31.1758C0 33.4051 1.81368 35.2188 4.04297 35.2188H5.71227C6.26858 36.7872 7.76654 37.9141 9.52344 37.9141C11.7527 37.9141 13.5664 36.1004 13.5664 33.8711V20.3945C13.5664 18.1652 11.7527 16.3516 9.52344 16.3516C9.06658 16.3516 8.62761 16.4288 8.21765 16.5692C8.7904 8.82185 15.2015 2.69531 23 2.69531C30.7985 2.69531 37.2096 8.82185 37.7824 16.5692C37.3724 16.4288 36.9334 16.3516 36.4766 16.3516C34.2473 16.3516 32.4336 18.1652 32.4336 20.3945V33.8711C32.4336 35.628 33.5603 37.126 35.1289 37.6823V39.2617C35.1289 40.0048 34.5243 40.6094 33.7812 40.6094H26.8112C26.2549 39.0409 24.7569 37.9141 23 37.9141C20.7707 37.9141 18.957 39.7277 18.957 41.957C18.957 44.1863 20.7707 46 23 46C24.7569 46 26.2549 44.8732 26.8112 43.3047H33.7812C36.0105 43.3047 37.8242 41.491 37.8242 39.2617V37.6823C38.971 37.2755 39.881 36.3655 40.2877 35.2188H41.957C44.1863 35.2188 46 33.4051 46 31.1758V23.0898C46 20.8605 44.1863 19.0469 41.957 19.0469ZM5.48047 32.5234H4.04297C3.29987 32.5234 2.69531 31.9189 2.69531 31.1758V23.0898C2.69531 22.3467 3.29987 21.7422 4.04297 21.7422H5.48047V32.5234ZM9.52344 19.0469C10.2665 19.0469 10.8711 19.6514 10.8711 20.3945V33.8711C10.8711 34.6142 10.2665 35.2188 9.52344 35.2188C8.78034 35.2188 8.17578 34.6142 8.17578 33.8711V20.3945C8.17578 19.6514 8.78034 19.0469 9.52344 19.0469ZM23 43.3047C22.2569 43.3047 21.6523 42.7001 21.6523 41.957C21.6523 41.2139 22.2569 40.6094 23 40.6094C23.7431 40.6094 24.3477 41.2139 24.3477 41.957C24.3477 42.7001 23.7431 43.3047 23 43.3047ZM37.8242 33.8711C37.8242 34.6142 37.2197 35.2188 36.4766 35.2188C35.7335 35.2188 35.1289 34.6142 35.1289 33.8711V20.3945C35.1289 19.6514 35.7335 19.0469 36.4766 19.0469C37.2197 19.0469 37.8242 19.6514 37.8242 20.3945V33.8711ZM43.3047 31.1758C43.3047 31.9189 42.7001 32.5234 41.957 32.5234H40.5195V21.7422H41.957C42.7001 21.7422 43.3047 22.3467 43.3047 23.0898V31.1758Z" fill="white"/>
</svg>
