<svg width="46" height="46" viewBox="0 0 46 46" fill="none" xmlns="http://www.w3.org/2000/svg">
<path d="M39.2617 24.0918H34.7589C34.1461 24.0918 33.5528 24.1755 32.9881 24.3295C31.8742 22.1398 29.6001 20.6353 26.9796 20.6353H19.0204C16.3999 20.6353 14.1258 22.1398 13.0119 24.3295C12.4472 24.1755 11.8539 24.0918 11.2411 24.0918H6.73828C3.02279 24.0918 0 27.1146 0 30.8301V38.0282C0 40.2575 1.81368 42.0711 4.04297 42.0711H41.957C44.1863 42.0711 46 40.2575 46 38.0282V30.8301C46 27.1146 42.9772 24.0918 39.2617 24.0918ZM12.2821 27.3738V39.3759H4.04297C3.29987 39.3759 2.69531 38.7714 2.69531 38.0283V30.8302C2.69531 28.6009 4.50899 26.7872 6.73828 26.7872H11.2411C11.6069 26.7872 11.9612 26.8369 12.2984 26.9284C12.2887 27.0759 12.2821 27.2241 12.2821 27.3738ZM31.0226 39.3759H14.9774V27.3737C14.9774 25.1444 16.7911 23.3307 19.0204 23.3307H26.9796C29.2089 23.3307 31.0226 25.1444 31.0226 27.3737V39.3759ZM43.3047 38.0283C43.3047 38.7714 42.7001 39.3759 41.957 39.3759H33.7179V27.3737C33.7179 27.2239 33.7113 27.0757 33.7016 26.9283C34.0388 26.8369 34.3931 26.7871 34.7589 26.7871H39.2617C41.491 26.7871 43.3047 28.6008 43.3047 30.8301V38.0283Z" fill="white"/>
<path d="M8.98968 11.3656C5.68801 11.3656 3.00195 14.0517 3.00195 17.3533C3.00186 20.655 5.68801 23.3411 8.98968 23.3411C12.2913 23.3411 14.9774 20.655 14.9774 17.3533C14.9774 14.0517 12.2913 11.3656 8.98968 11.3656ZM8.98959 20.6457C7.17412 20.6457 5.69718 19.1688 5.69718 17.3533C5.69718 15.5379 7.17412 14.0609 8.98959 14.0609C10.8051 14.0609 12.282 15.5379 12.282 17.3533C12.282 19.1688 10.8051 20.6457 8.98959 20.6457Z" fill="white"/>
<path d="M23 3.92877C18.589 3.92877 15.0005 7.51731 15.0005 11.9283C15.0005 16.3392 18.589 19.9278 23 19.9278C27.411 19.9278 30.9995 16.3392 30.9995 11.9283C30.9995 7.5174 27.411 3.92877 23 3.92877ZM23 17.2325C20.0752 17.2325 17.6958 14.8531 17.6958 11.9283C17.6958 9.0036 20.0752 6.62408 23 6.62408C25.9248 6.62408 28.3042 9.00351 28.3042 11.9283C28.3042 14.8531 25.9248 17.2325 23 17.2325Z" fill="white"/>
<path d="M37.0102 11.3656C33.7086 11.3656 31.0225 14.0517 31.0225 17.3533C31.0226 20.655 33.7086 23.3411 37.0102 23.3411C40.3119 23.3411 42.9979 20.655 42.9979 17.3533C42.9979 14.0517 40.3119 11.3656 37.0102 11.3656ZM37.0102 20.6457C35.1948 20.6457 33.7178 19.1688 33.7178 17.3533C33.7179 15.5379 35.1948 14.0609 37.0102 14.0609C38.8257 14.0609 40.3026 15.5379 40.3026 17.3533C40.3026 19.1688 38.8257 20.6457 37.0102 20.6457Z" fill="white"/>
</svg>
