<svg width="46" height="46" viewBox="0 0 46 46" fill="none" xmlns="http://www.w3.org/2000/svg">
<path d="M10.6835 29.4438L8.25506 44.3306C8.16689 44.873 8.39498 45.4193 8.84539 45.7374C9.29389 46.0537 9.88614 46.0882 10.3691 45.8198L23 38.8393L35.6308 45.8218C35.8493 45.9406 36.0889 46 36.3266 46C36.6179 46 36.9073 45.9118 37.1546 45.7374C37.605 45.4193 37.8331 44.873 37.7449 44.3306L35.3165 29.4438L45.5898 18.9137C45.9655 18.5284 46.0958 17.963 45.9252 17.4532C45.7546 16.9414 45.3119 16.5715 44.7791 16.4891L30.6379 14.329L24.2995 0.827994C23.8261 -0.180173 22.172 -0.180173 21.6986 0.827994L15.3621 14.329L1.22089 16.4891C0.68806 16.5715 0.24531 16.9414 0.0747263 17.4532C-0.0958571 17.9649 0.0325596 18.5284 0.408226 18.9137L10.6835 29.4438ZM16.5542 17.0545C17.0276 16.9817 17.434 16.6788 17.6371 16.2457L23 4.82041L28.3628 16.2438C28.566 16.6769 28.9723 16.9817 29.4457 17.0526L41.5801 18.906L32.7539 27.9527C32.4338 28.2785 32.2901 28.7385 32.3629 29.1889L34.4329 41.8715L23.6957 35.9375C23.4791 35.8187 23.2396 35.7573 23 35.7573C22.7604 35.7573 22.5208 35.8168 22.3042 35.9375L11.5671 41.8715L13.6371 29.1889C13.7099 28.7385 13.5661 28.2804 13.2461 27.9527L4.41981 18.906L16.5542 17.0545Z" fill="white"/>
</svg>
