<svg width="46" height="46" viewBox="0 0 46 46" fill="none" xmlns="http://www.w3.org/2000/svg">
<g clip-path="url(#clip0)">
<path d="M20.2574 0C9.08779 0 0 9.08779 0 20.2574C0 31.4277 9.08779 40.5149 20.2574 40.5149C31.4277 40.5149 40.5149 31.4277 40.5149 20.2574C40.5149 9.08779 31.4277 0 20.2574 0ZM20.2574 36.7751C11.1497 36.7751 3.73984 29.3653 3.73984 20.2575C3.73984 11.1498 11.1497 3.73984 20.2574 3.73984C29.3652 3.73984 36.775 11.1497 36.775 20.2574C36.775 29.3652 29.3652 36.7751 20.2574 36.7751Z" fill="white"/>
<path d="M45.4522 42.8081L34.7313 32.0872C34.0008 31.3567 32.8177 31.3567 32.0872 32.0872C31.3567 32.8171 31.3567 34.0014 32.0872 34.7313L42.8081 45.4522C43.1733 45.8174 43.6514 46 44.1301 46C44.6082 46 45.0869 45.8174 45.4522 45.4522C46.1827 44.7223 46.1827 43.538 45.4522 42.8081Z" fill="white"/>
</g>
<defs>
<clipPath id="clip0">
<rect width="46" height="46" fill="white"/>
</clipPath>
</defs>
</svg>
