<svg width="46" height="46" viewBox="0 0 46 46" fill="none" xmlns="http://www.w3.org/2000/svg">
<g clip-path="url(#clip0)">
<path d="M45.9965 21.0921C45.9771 16.3051 42.0766 12.4166 37.2852 12.4166C36.8035 12.4166 36.3281 12.4564 35.8626 12.5327C35.9681 11.7642 35.9605 11.2603 35.9517 11.0768C35.9307 5.37342 31.2843 0.740356 25.576 0.740356C22.6537 0.740356 19.9235 1.95067 17.9782 4.04709C16.033 1.95067 13.3027 0.740356 10.3804 0.740356C4.67212 0.740356 0.0257226 5.3736 0.00482413 11.077C-0.0298566 11.7952 -0.0552586 17.3777 6.69973 24.7206C6.67108 24.7203 6.64271 24.7187 6.61406 24.7187C2.98034 24.7187 0.0219393 27.6652 0.00284237 31.2945C-0.0128315 31.6743 0.00248202 33.3061 1.19739 35.6397C2.8408 38.8492 5.90567 41.9251 10.3069 44.782L11.0426 45.2595L11.7782 44.782C16.1794 41.9251 19.2443 38.8492 20.8877 35.6397C21.5069 34.4303 21.809 33.4102 21.9545 32.6544C23.9719 34.8017 26.6898 37.1207 30.3529 39.4984L31.0886 39.9759L31.8243 39.4984C45.99 30.3032 46.0354 21.9843 45.9965 21.0921V21.0921ZM2.70712 11.1161C2.70712 6.88496 6.14934 3.44275 10.3804 3.44275C13.005 3.44275 15.4204 4.76313 16.8414 6.97486L17.9782 8.74412L19.115 6.97486C20.5361 4.76313 22.9515 3.44275 25.5761 3.44275C29.8072 3.44275 33.2495 6.88496 33.2495 11.1161C33.2495 11.1161 33.1938 12.481 32.8822 13.6068C32.2298 13.989 31.6263 14.4567 31.0887 15.002C29.4695 13.3595 27.2556 12.4166 24.892 12.4166C20.1006 12.4166 16.2002 16.3051 16.1807 21.0921C16.1661 21.4264 16.1643 22.8039 16.9116 24.8786C16.4476 24.7751 15.966 24.7187 15.4712 24.7187C14.1156 24.7187 12.8251 25.1275 11.7451 25.8652C8.90145 23.3484 6.22239 20.3783 4.47755 17.0758C2.97926 14.2403 2.70712 11.1161 2.70712 11.1161V11.1161ZM18.359 34.6422C16.6994 37.7109 13.5978 40.2832 11.0425 42.0259C8.48718 40.2832 5.38555 37.711 3.72593 34.6422C2.72532 32.7921 2.70505 31.3301 2.70505 31.3301C2.70505 29.1746 4.45854 27.4211 6.61397 27.4211C7.95111 27.4211 9.1816 28.0939 9.90566 29.2209L11.0425 30.9902L12.1793 29.2209C12.9033 28.0938 14.1339 27.4211 15.4711 27.4211C17.6264 27.4211 19.38 29.1746 19.38 31.3301C19.3799 31.3301 19.3659 32.7803 18.359 34.6422V34.6422ZM41.8551 25.9177C39.4323 30.4704 34.8047 34.2479 31.0885 36.7457C27.3723 34.2479 22.7448 30.4704 20.3218 25.9177C18.8602 23.1714 18.8828 21.128 18.8828 21.128C18.8828 17.8146 21.5785 15.119 24.8919 15.119C26.9473 15.119 28.8389 16.153 29.9517 17.8852L31.0885 19.6546L32.2253 17.8852C33.3382 16.1531 35.2298 15.119 37.2852 15.119C40.5986 15.119 43.2942 17.8146 43.2942 21.128C43.2942 21.128 43.3208 23.1639 41.8551 25.9177Z" fill="white"/>
</g>
<defs>
<clipPath id="clip0">
<rect width="46" height="46" fill="white"/>
</clipPath>
</defs>
</svg>
