<svg width="46" height="46" viewBox="0 0 46 46" fill="none" xmlns="http://www.w3.org/2000/svg">
<path d="M41.957 5.48047H4.04297C1.81646 5.48047 0 7.29495 0 9.52344V36.4766C0 38.6975 1.80838 40.5195 4.04297 40.5195H41.957C44.178 40.5195 46 38.7112 46 36.4766V9.52344C46 7.3025 44.1916 5.48047 41.957 5.48047ZM41.3987 8.17578L23.0857 26.4889L4.61429 8.17578H41.3987ZM2.69531 35.9185V10.0687L15.6758 22.9379L2.69531 35.9185ZM4.60117 37.8242L17.5899 24.8355L22.1411 29.3476C22.6679 29.87 23.5181 29.8683 24.0428 29.3435L28.4805 24.9059L41.3988 37.8242H4.60117ZM43.3047 35.9184L30.3863 23L43.3047 10.0815V35.9184Z" fill="white"/>
</svg>
