<svg width="46" height="46" viewBox="0 0 46 46" fill="none" xmlns="http://www.w3.org/2000/svg">
<path d="M23 0C10.2889 0 0 10.2868 0 23V46H23C35.7111 46 46 35.7132 46 23C46 10.2889 35.7132 0 23 0ZM23 43.3047H2.69531V23C2.69531 11.7783 11.7766 2.69531 23 2.69531C34.2217 2.69531 43.3047 11.7766 43.3047 23C43.3047 34.2217 34.2234 43.3047 23 43.3047Z" fill="white"/>
<path d="M28.5188 16.7018L23.0001 8.23999L17.4813 16.7018L7.72803 19.3357L14.0704 27.1991L13.5616 37.2887L23.0001 33.6868L32.4386 37.2887L31.9297 27.1991L38.2721 19.3357L28.5188 16.7018ZM29.5383 33.2973L23.0001 30.802L16.4615 33.2973L16.8142 26.3077L12.4206 20.8602L19.1768 19.036L23.0001 13.174L26.8233 19.036L33.5795 20.8602L29.1859 26.3077L29.5383 33.2973Z" fill="white"/>
</svg>
