<svg width="46" height="46" viewBox="0 0 46 46" fill="none" xmlns="http://www.w3.org/2000/svg">
<path d="M43.7027 0H2.29733C1.03075 0 0 1.03075 0 2.29733V43.7027C0 44.9693 1.03075 46 2.29733 46H43.7027C44.9696 46 46 44.9693 46 43.7027V2.29733C46 1.03075 44.9693 0 43.7027 0ZM43.3047 2.69531V10.2187H2.69531V2.69531H43.3047ZM2.69531 43.3047V12.914H43.3047V43.3047H2.69531Z" fill="white"/>
<path d="M35.075 6.45715C35.075 7.47035 34.2537 8.29158 33.2405 8.29158C32.227 8.29158 31.4058 7.47035 31.4058 6.45715C31.4058 5.4436 32.227 4.62238 33.2405 4.62238C34.2537 4.62238 35.075 5.4436 35.075 6.45715V6.45715Z" fill="white"/>
<path d="M40.5167 6.45715C40.5167 7.47035 39.6951 8.29158 38.6819 8.29158C37.6687 8.29158 36.8472 7.47035 36.8472 6.45715C36.8472 5.4436 37.6687 4.62238 38.6819 4.62238C39.6951 4.62238 40.5167 5.4436 40.5167 6.45715Z" fill="white"/>
<path d="M29.6334 6.45715C29.6334 7.47035 28.8118 8.29158 27.7986 8.29158C26.7854 8.29158 25.9639 7.47035 25.9639 6.45715C25.9639 5.4436 26.7854 4.62238 27.7986 4.62238C28.8118 4.62238 29.6334 5.4436 29.6334 6.45715Z" fill="white"/>
<path d="M25.1853 16.6228C25.1786 16.6214 25.1716 16.6204 25.1646 16.619C24.4623 16.4916 23.739 16.4246 22.9999 16.4246C22.2619 16.4246 21.5396 16.4912 20.8388 16.6183C20.83 16.62 20.8212 16.6214 20.8124 16.6232C15.2965 17.6353 11.1079 22.4006 11.1079 28.1095C11.1079 34.5526 16.4427 39.7945 22.9999 39.7945C29.5571 39.7945 34.8919 34.5526 34.8919 28.1095C34.8919 22.3999 30.7023 17.6339 25.1853 16.6228V16.6228ZM32.0934 26.7619H28.3776C28.2828 24.3105 27.9294 22.05 27.3651 20.1987C29.854 21.5162 31.6551 23.9237 32.0934 26.7619V26.7619ZM24.0735 19.1813C24.9505 20.8539 25.5436 23.6654 25.6787 26.7619H20.3211C20.4562 23.6654 21.0493 20.8539 21.9264 19.1813C22.2787 19.1409 22.6367 19.1195 22.9999 19.1195C23.3632 19.1195 23.7211 19.1409 24.0735 19.1813V19.1813ZM18.6348 20.1987C18.0705 22.05 17.717 24.3105 17.6223 26.7619H13.9064C14.3447 23.9237 16.1458 21.5162 18.6348 20.1987ZM13.9064 29.4572H17.6223C17.717 31.9086 18.0705 34.1691 18.6348 36.0203C16.1458 34.7025 14.3447 32.2953 13.9064 29.4572ZM21.9264 37.0374C21.0493 35.3647 20.4562 32.5533 20.3211 29.4572H25.6787C25.5436 32.5533 24.9505 35.3647 24.0738 37.0374C23.7215 37.0777 23.3632 37.0992 22.9999 37.0992C22.6367 37.0992 22.2787 37.0777 21.9264 37.0374V37.0374ZM27.3651 36.0203C27.9294 34.1691 28.2828 31.9086 28.3776 29.4572H32.0934C31.6551 32.2953 29.854 34.7025 27.3651 36.0203V36.0203Z" fill="white"/>
</svg>
