<svg width="46" height="46" viewBox="0 0 46 46" fill="none" xmlns="http://www.w3.org/2000/svg">
<g clip-path="url(#clip0)">
<path d="M44.8304 3.6908L42.591 3.35903L42.2592 1.11958C42.2177 0.953699 42.1762 0.787814 42.0933 0.663401C41.7201 0.0413321 40.9321 -0.166024 40.2686 0.165746L37.5315 1.74165L34.7944 3.31756C34.3797 3.56639 34.1308 4.02257 34.1308 4.52023L34.2967 7.34027L34.4211 9.57972L33.4258 10.575C29.8593 7.46468 25.2145 5.55701 20.1135 5.55701C14.5564 5.55701 9.49691 7.79645 5.84744 11.4874C2.23945 15.1783 0 20.1964 0 25.795C0 31.3521 2.23945 36.4116 5.93039 40.0611C9.57986 43.7105 14.6393 45.9915 20.1965 45.9915C25.7536 45.9915 30.8131 43.752 34.4626 40.0611C38.1121 36.4116 40.393 31.3521 40.393 25.795C40.393 20.694 38.4853 16.0492 35.375 12.4827L36.3703 11.4874L38.6097 11.6118L41.3883 11.7777C41.886 11.8192 42.3836 11.5703 42.6324 11.1142L44.2083 8.37705L45.7842 5.68142C45.8672 5.51554 45.9501 5.34965 45.9916 5.14229C46.0745 4.43728 45.5354 3.77374 44.8304 3.6908ZM37.6974 25.795C37.6974 30.6471 35.7482 35.0431 32.5549 38.1949C29.3616 41.3882 25.0072 43.3373 20.155 43.3373C15.3029 43.3373 10.9069 41.3882 7.75512 38.1949C4.60331 35.0016 2.61269 30.6056 2.61269 25.795C2.61269 20.9428 4.56184 16.5469 7.75512 13.3951C10.9484 10.2018 15.3029 8.25264 20.155 8.25264C24.5095 8.25264 28.5322 9.87002 31.6011 12.4827L28.4078 15.676C26.1684 13.8513 23.2654 12.7315 20.155 12.7315C16.547 12.7315 13.2708 14.183 10.9069 16.5469C8.54307 18.9107 7.09158 22.187 7.09158 25.795C7.09158 29.403 8.54307 32.6792 10.9069 35.0431C13.2708 37.4069 16.547 38.8584 20.155 38.8584C23.763 38.8584 27.0392 37.4069 29.4031 35.0431C31.767 32.6792 33.2185 29.403 33.2185 25.795C33.2185 22.6846 32.0987 19.7816 30.274 17.5422L33.4673 14.3489C36.1214 17.4178 37.6974 21.399 37.6974 25.795ZM19.2427 26.7073C19.7403 27.205 20.6112 27.205 21.1089 26.7073L23.3068 24.5094C23.4312 24.9241 23.5142 25.3388 23.5142 25.795C23.5142 26.7073 23.1409 27.5782 22.5189 28.1588C21.8968 28.7809 21.0674 29.1541 20.155 29.1541C19.2427 29.1541 18.3718 28.7809 17.7912 28.1588C17.1691 27.5368 16.7959 26.7073 16.7959 25.795C16.7959 24.8826 17.1691 24.0117 17.7912 23.4311L17.8326 23.3896C18.4132 22.809 19.2427 22.4773 20.155 22.4773C20.6112 22.4773 21.0259 22.5602 21.3992 22.7261L19.2427 24.8411C18.745 25.3388 18.745 26.2097 19.2427 26.7073ZM23.3898 20.694C22.4774 20.1134 21.3577 19.7402 20.1965 19.7402C18.5791 19.7402 17.1276 20.3622 16.0494 21.4405C16.0079 21.482 16.0079 21.482 15.9664 21.5234C14.8882 22.6017 14.2246 24.0947 14.2246 25.7535C14.2246 27.4123 14.8882 28.9053 15.9664 29.9836C17.0447 31.0618 18.5376 31.7254 20.1965 31.7254C21.8553 31.7254 23.3483 31.0618 24.4266 29.9836C25.5048 28.9053 26.1683 27.4123 26.1683 25.7535C26.1683 24.5923 25.8366 23.4726 25.2145 22.5602L28.3663 19.4084C29.7349 21.1502 30.5643 23.3896 30.5643 25.7535C30.5643 28.615 29.4031 31.2277 27.4954 33.1354C25.6292 35.0016 23.0165 36.2043 20.1135 36.2043C17.252 36.2043 14.6393 35.0431 12.7317 33.1354C10.824 31.2277 9.6628 28.6565 9.6628 25.7535C9.6628 22.892 10.824 20.2793 12.7317 18.3716C14.5979 16.5054 17.2106 15.3027 20.1135 15.3027C22.5189 15.3027 24.7169 16.1322 26.4586 17.5007L23.3898 20.694ZM41.9274 7.04997L40.7248 9.08206L38.6927 8.95765L37.0338 8.87471L36.9509 7.21586L36.8265 5.18377L38.8585 3.9811L39.8953 3.35903L40.0612 4.64464C40.1442 5.26671 40.6418 5.68142 41.2224 5.76436L42.4665 5.93025L41.9274 7.04997Z" fill="white"/>
</g>
<defs>
<clipPath id="clip0">
<rect width="46" height="46" fill="white"/>
</clipPath>
</defs>
</svg>
