<svg width="46" height="46" viewBox="0 0 46 46" fill="none" xmlns="http://www.w3.org/2000/svg">
<g clip-path="url(#clip0)">
<path d="M36.1428 26.2857C32.8822 26.2857 30.0088 27.8953 28.2135 30.3417L19.2428 25.8553C19.5206 24.9454 19.7143 23.9994 19.7143 23C19.7143 22.0005 19.5206 21.0543 19.2428 20.1446L28.2135 15.6582C30.0088 18.1046 32.8822 19.7142 36.1428 19.7142C41.5784 19.7142 46 15.2926 46 9.85705C46 4.42154 41.5785 0 36.1428 0C30.7072 0 26.2857 4.42163 26.2857 9.85715C26.2857 10.8566 26.4796 11.8026 26.7574 12.7123L17.7864 17.1989C15.9911 14.7525 13.1177 13.1429 9.85705 13.1429C4.42154 13.1429 0 17.5644 0 23C0 28.4357 4.42154 32.8572 9.85715 32.8572C13.1178 32.8572 15.9912 31.2476 17.7865 28.8012L26.7572 33.2878C26.4794 34.1974 26.2857 35.1434 26.2857 36.1429C26.2857 41.5785 30.7072 46.0001 36.1428 46.0001C41.5785 46.0001 46 41.5785 46 36.1429C46 30.7074 41.5784 26.2857 36.1428 26.2857V26.2857ZM36.1428 3.28575C39.7671 3.28575 42.7142 6.23458 42.7142 9.85715C42.7142 13.4798 39.767 16.4286 36.1428 16.4286C32.5186 16.4286 29.5714 13.4797 29.5714 9.85715C29.5714 6.23458 32.5187 3.28575 36.1428 3.28575ZM9.85715 29.5714C6.23287 29.5714 3.28575 26.6226 3.28575 23C3.28575 19.3774 6.23296 16.4286 9.85715 16.4286C13.4814 16.4286 16.4286 19.3775 16.4286 23C16.4286 26.6226 13.4814 29.5714 9.85715 29.5714V29.5714ZM36.1428 42.7142C32.5186 42.7142 29.5714 39.7654 29.5714 36.1428C29.5714 32.5203 32.5187 29.5714 36.1428 29.5714C39.7671 29.5714 42.7142 32.5203 42.7142 36.1428C42.7142 39.7655 39.7671 42.7142 36.1428 42.7142Z" fill="white"/>
</g>
<defs>
<clipPath id="clip0">
<rect width="46" height="46" fill="white"/>
</clipPath>
</defs>
</svg>
