<svg width="46" height="46" viewBox="0 0 46 46" fill="none" xmlns="http://www.w3.org/2000/svg">
<path d="M38 2.99997H33.242C32.6228 1.25413 30.9554 0 29 0H16.9999C15.0444 0 13.3772 1.25413 12.7579 2.99997H8C5.5187 2.99997 3.5 5.01867 3.5 7.49998V41.5C3.5 43.9813 5.5187 46 8 46H38C40.4813 46 42.5 43.9813 42.5 41.5V7.49998C42.4999 5.01867 40.4812 2.99997 38 2.99997ZM15.5 4.5C15.5 3.6729 16.1729 2.99997 17 2.99997H29C29.8271 2.99997 30.5 3.6729 30.5 4.5V6.00003H15.5V4.5ZM39.4999 41.5C39.4999 42.3271 38.827 43 37.9999 43H8C7.1729 43 6.49997 42.3271 6.49997 41.5V7.49998C6.49997 6.67287 7.1729 5.99995 8 5.99995H12.5V7.49998C12.5 8.32834 13.1716 9.00001 14 9.00001H32.0001C32.8284 9.00001 33.5001 8.32843 33.5001 7.49998V6.00003H38.0001C38.8272 6.00003 39.5001 6.67296 39.5001 7.50007V41.5H39.4999Z" fill="white"/>
<path d="M11 18C11.8285 18 12.5001 17.3284 12.5001 16.5C12.5001 15.6715 11.8285 14.9999 11 14.9999C10.1716 14.9999 9.5 15.6715 9.5 16.5C9.5 17.3284 10.1716 18 11 18Z" fill="white"/>
<path d="M35 15H17C16.1717 15 15.5 15.6716 15.5 16.5C15.5 17.3284 16.1716 18.0001 17 18.0001H35C35.8284 18.0001 36.5001 17.3285 36.5001 16.5C36.5001 15.6716 35.8285 15 35 15Z" fill="white"/>
<path d="M11 27.0001C11.8285 27.0001 12.5001 26.3285 12.5001 25.5C12.5001 24.6716 11.8285 24 11 24C10.1716 24 9.5 24.6716 9.5 25.5C9.5 26.3285 10.1716 27.0001 11 27.0001Z" fill="white"/>
<path d="M35 24H17C16.1717 24 15.5 24.6716 15.5 25.5C15.5 26.3284 16.1716 27.0001 17 27.0001H35C35.8284 27.0001 36.5001 26.3285 36.5001 25.5C36.5001 24.6717 35.8285 24 35 24Z" fill="white"/>
<path d="M11 36.0001C11.8285 36.0001 12.5001 35.3285 12.5001 34.5C12.5001 33.6716 11.8285 33 11 33C10.1716 33 9.5 33.6716 9.5 34.5C9.5 35.3285 10.1716 36.0001 11 36.0001Z" fill="white"/>
<path d="M35 33H17C16.1717 33 15.5 33.6716 15.5 34.5C15.5 35.3285 16.1716 36.0001 17 36.0001H35C35.8284 36.0001 36.5001 35.3285 36.5001 34.5C36.5001 33.6716 35.8285 33 35 33Z" fill="white"/>
</svg>
