<svg width="46" height="46" viewBox="0 0 46 46" fill="none" xmlns="http://www.w3.org/2000/svg">
<path d="M41.957 6.82812H4.04297C1.81372 6.82812 0 8.64185 0 10.8711V35.1289C0 37.3582 1.81372 39.1719 4.04297 39.1719H41.957C44.1863 39.1719 46 37.3582 46 35.1289V10.8711C46 8.64185 44.1863 6.82812 41.957 6.82812ZM43.3047 35.1289C43.3047 35.8719 42.7 36.4766 41.957 36.4766H4.04297C3.3 36.4766 2.69531 35.8719 2.69531 35.1289V10.8711C2.69531 10.1281 3.3 9.52344 4.04297 9.52344H41.957C42.7 9.52344 43.3047 10.1281 43.3047 10.8711V35.1289Z" fill="white"/>
<path d="M16.765 22.6333C17.5139 21.7668 17.9688 20.6388 17.9688 19.4062C17.9688 16.6815 15.7521 14.4648 13.0273 14.4648C10.3026 14.4648 8.08594 16.6815 8.08594 19.4062C8.08594 20.6388 8.54077 21.7668 9.2897 22.6333C6.965 23.9437 5.39062 26.4355 5.39062 29.2891V30.1875C5.39062 30.9319 5.99391 31.5352 6.73828 31.5352H19.3164C20.0608 31.5352 20.6641 30.9319 20.6641 30.1875V29.2891C20.6641 26.4355 19.0897 23.9437 16.765 22.6333ZM10.7812 19.4062C10.7812 18.1677 11.7888 17.1602 13.0273 17.1602C14.2659 17.1602 15.2734 18.1677 15.2734 19.4062C15.2734 20.6448 14.2659 21.6523 13.0273 21.6523C11.7888 21.6523 10.7812 20.6448 10.7812 19.4062ZM8.10629 28.8398C8.33371 26.3249 10.4538 24.3477 13.0273 24.3477C15.6009 24.3477 17.721 26.3249 17.9484 28.8398H8.10629Z" fill="white"/>
<path d="M39.2617 27.043H24.8867C24.1423 27.043 23.5391 27.6463 23.5391 28.3906C23.5391 29.135 24.1423 29.7383 24.8867 29.7383H39.2617C40.0061 29.7383 40.6094 29.135 40.6094 28.3906C40.6094 27.6463 40.0061 27.043 39.2617 27.043Z" fill="white"/>
<path d="M39.2617 21.6523H24.8867C24.1423 21.6523 23.5391 22.2556 23.5391 23C23.5391 23.7444 24.1423 24.3477 24.8867 24.3477H39.2617C40.0061 24.3477 40.6094 23.7444 40.6094 23C40.6094 22.2556 40.0061 21.6523 39.2617 21.6523Z" fill="white"/>
<path d="M24.8867 18.957H30.2773C31.0217 18.957 31.625 18.3537 31.625 17.6094C31.625 16.865 31.0217 16.2617 30.2773 16.2617H24.8867C24.1423 16.2617 23.5391 16.865 23.5391 17.6094C23.5391 18.3537 24.1423 18.957 24.8867 18.957Z" fill="white"/>
</svg>
