<svg width="46" height="46" viewBox="0 0 46 46" fill="none" xmlns="http://www.w3.org/2000/svg">
<g clip-path="url(#clip0)">
<path d="M39.678 0H18.8402C16.9396 0 15.3932 1.54639 15.3932 3.44704V7.22757H6.31871C4.41977 7.22757 2.875 8.77396 2.875 10.6746V42.5529C2.875 44.4536 4.41977 46 6.31871 46H29.2591C30.0034 46 30.6068 45.3966 30.6068 44.6523V38.7724H39.6781C41.5787 38.7724 43.1251 37.226 43.1251 35.3254V3.44704C43.125 1.54639 41.5787 0 39.678 0V0ZM5.57031 42.553V10.6746C5.57031 10.2602 5.90606 9.92288 6.31871 9.92288H15.3933V37.4247C15.3933 37.9324 15.6741 38.3746 16.0889 38.6043L24.2297 43.3047H6.31871C5.90606 43.3047 5.57031 42.9674 5.57031 42.553ZM27.9115 42.3181L21.7703 38.7724H27.9115V42.3181ZM40.4297 35.3254C40.4297 35.7398 40.0925 36.0771 39.678 36.0771H18.0885V3.44704C18.0885 3.03259 18.4257 2.69531 18.8402 2.69531H39.678C40.0924 2.69531 40.4297 3.03259 40.4297 3.44704V35.3254Z" fill="white"/>
<path d="M37.285 4.49219H21.2329C20.4886 4.49219 19.8853 5.09558 19.8853 5.83984V13.4758C19.8853 14.22 20.4886 14.8234 21.2329 14.8234H37.285C38.0293 14.8234 38.6327 14.22 38.6327 13.4758V5.83984C38.6327 5.09558 38.0293 4.49219 37.285 4.49219ZM35.9374 12.1281H22.5806V7.1875H35.9374V12.1281Z" fill="white"/>
<path d="M37.285 17.5188H21.2329C20.4886 17.5188 19.8853 18.1222 19.8853 18.8665C19.8853 19.6107 20.4886 20.2141 21.2329 20.2141H37.285C38.0293 20.2141 38.6327 19.6107 38.6327 18.8665C38.6327 18.1222 38.0293 17.5188 37.285 17.5188Z" fill="white"/>
<path d="M21.2329 24.7063H33.6913C34.4356 24.7063 35.0389 24.1029 35.0389 23.3586C35.0389 22.6144 34.4356 22.011 33.6913 22.011H21.2329C20.4886 22.011 19.8853 22.6144 19.8853 23.3586C19.8853 24.1029 20.4886 24.7063 21.2329 24.7063Z" fill="white"/>
<path d="M35.2504 26.5032H21.2329C20.4886 26.5032 19.8853 27.1066 19.8853 27.8508C19.8853 28.5951 20.4886 29.1985 21.2329 29.1985H35.2504C35.9947 29.1985 36.5981 28.5951 36.5981 27.8508C36.5981 27.1066 35.9948 26.5032 35.2504 26.5032Z" fill="white"/>
<path d="M25.2401 30.9954H21.2329C20.4886 30.9954 19.8853 31.5988 19.8853 32.343C19.8853 33.0873 20.4886 33.6907 21.2329 33.6907H25.2401C25.9844 33.6907 26.5878 33.0873 26.5878 32.343C26.5878 31.5988 25.9844 30.9954 25.2401 30.9954Z" fill="white"/>
</g>
<defs>
<clipPath id="clip0">
<rect width="46" height="46" fill="white"/>
</clipPath>
</defs>
</svg>
