<svg width="46" height="46" viewBox="0 0 46 46" fill="none" xmlns="http://www.w3.org/2000/svg">
<g clip-path="url(#clip0)">
<path d="M46 18.2436V18.2396C46 18.2012 45.9978 18.1632 45.9947 18.1254C45.9938 18.1151 45.9925 18.1048 45.9914 18.0945C45.9881 18.0649 45.984 18.0355 45.9789 18.0064C45.977 17.9954 45.9751 17.9844 45.973 17.9736C45.9658 17.9381 45.9576 17.9029 45.9476 17.8683C45.9466 17.8649 45.9458 17.8614 45.9448 17.8579C45.9343 17.8225 45.9221 17.7878 45.9088 17.7535C45.9038 17.7403 45.8982 17.7275 45.8927 17.7145C45.8829 17.6913 45.8724 17.6684 45.8613 17.6458C45.8548 17.6327 45.8486 17.6195 45.8418 17.6066C45.825 17.575 45.8071 17.5441 45.7879 17.5139C45.7807 17.5027 45.7728 17.4919 45.7652 17.4809C45.7502 17.4589 45.7347 17.4373 45.7184 17.4163C45.7097 17.405 45.701 17.3939 45.6919 17.3829C45.6683 17.3542 45.6439 17.3262 45.6178 17.2995C45.6157 17.2974 45.6138 17.2953 45.6117 17.2932C45.5838 17.2649 45.5542 17.2382 45.5237 17.2123C45.52 17.2091 45.5167 17.2055 45.5129 17.2024L43.2148 15.2954V9.43501C43.2148 7.70111 41.8042 6.29048 40.0703 6.29048H32.3639L26.1557 1.13839C24.327 -0.378893 21.6728 -0.378893 19.8443 1.13839L13.6361 6.29039H5.92969C4.19579 6.29039 2.78516 7.70102 2.78516 9.43492V15.2953L0.487043 17.2025C0.48327 17.2057 0.479945 17.2093 0.476172 17.2125C0.445715 17.2384 0.416066 17.2651 0.388215 17.2934C0.386148 17.2954 0.384172 17.2976 0.382105 17.2997C0.356141 17.3263 0.331613 17.3544 0.307984 17.383C0.29891 17.394 0.290195 17.4052 0.28148 17.4165C0.265219 17.4376 0.249676 17.4591 0.234672 17.4811C0.227125 17.4921 0.219219 17.5029 0.212031 17.5141C0.192805 17.5442 0.174926 17.5751 0.158125 17.6067C0.151207 17.6197 0.145008 17.6329 0.138629 17.646C0.127488 17.6686 0.117066 17.6915 0.107184 17.7146C0.101703 17.7276 0.0961328 17.7405 0.0911016 17.7536C0.0778047 17.788 0.0654961 17.8226 0.0550742 17.8581C0.0540859 17.8615 0.0532773 17.865 0.0522891 17.8685C0.0423164 17.9031 0.0341406 17.9383 0.0269531 17.9738C0.0247969 17.9847 0.0229102 17.9956 0.0210234 18.0065C0.0159023 18.0357 0.0117695 18.065 0.00853516 18.0947C0.00745703 18.105 0.00610938 18.1153 0.00521094 18.1256C0.00215625 18.1632 0 18.2012 0 18.2396V18.2436V18.2444V41.0581C0 42.4703 0.596383 43.745 1.54945 44.6464C1.57649 44.6734 1.60362 44.7002 1.63255 44.7246C2.50916 45.5164 3.66985 45.9994 4.94141 45.9994H41.0586C42.3302 45.9994 43.491 45.5163 44.3677 44.7243C44.3964 44.7 44.4233 44.6735 44.4502 44.6467C45.4034 43.7453 46 42.4704 46 41.058V18.2444C46 18.2442 46 18.2439 46 18.2436ZM5.92969 8.9857H40.0703C40.318 8.9857 40.5195 9.18722 40.5195 9.43492V19.9181L39.7569 20.5509L24.4344 33.2668C23.6033 33.9565 22.3967 33.9564 21.5656 33.2668L6.24306 20.551L5.48047 19.9181V9.43492C5.48047 9.18722 5.68199 8.9857 5.92969 8.9857ZM2.69531 41.0581V21.1092L3.27498 21.5903C3.27534 21.5906 3.2757 21.591 3.27606 21.5912L16.4354 32.5118L2.83331 41.8333C2.7441 41.5916 2.69531 41.3304 2.69531 41.0581ZM18.592 34.3015L19.8443 35.3408C21.6728 36.8583 24.3272 36.8582 26.1557 35.3408L27.408 34.3015L40.545 43.3042H5.45495L18.592 34.3015ZM29.5646 32.5119L42.7238 21.5912C42.7242 21.591 42.7246 21.5906 42.7249 21.5903L43.3046 21.1092V41.0581C43.3046 41.3304 43.2558 41.5916 43.1666 41.8333L29.5646 32.5119ZM21.5656 3.21261C22.3967 2.52288 23.6033 2.52288 24.4344 3.21261L28.1433 6.29048H17.8567L21.5656 3.21261Z" fill="white"/>
<path d="M11.8145 14.8238C11.8145 15.5681 12.4178 16.1714 13.1621 16.1714H25.9199C26.6642 16.1714 27.2676 15.5681 27.2676 14.8238C27.2676 14.0795 26.6642 13.4761 25.9199 13.4761H13.1621C12.4178 13.4761 11.8145 14.0795 11.8145 14.8238Z" fill="white"/>
<path d="M13.1621 21.5621H32.8379C33.4657 21.5621 33.9918 21.1321 34.1414 20.551C34.1692 20.4432 34.1855 20.3309 34.1855 20.2144C34.1855 19.4702 33.5822 18.8668 32.8379 18.8668H13.1621C12.4178 18.8668 11.8145 19.4702 11.8145 20.2144C11.8145 20.3309 11.8308 20.4432 11.8586 20.551C12.0082 21.1322 12.5343 21.5621 13.1621 21.5621Z" fill="white"/>
</g>
<defs>
<clipPath id="clip0">
<rect width="46" height="46" fill="white"/>
</clipPath>
</defs>
</svg>
