<svg width="46" height="46" viewBox="0 0 46 46" fill="none" xmlns="http://www.w3.org/2000/svg">
<g clip-path="url(#clip0)">
<path d="M41.2744 11.9427L29.7265 0.394773C29.4738 0.142043 29.131 0 28.7736 0H9.28649C6.55353 0 4.33008 2.22345 4.33008 4.95632V41.0436C4.33008 43.7765 6.55353 46 9.2864 46H36.7128C39.4458 46 41.6691 43.7765 41.6691 41.0436V12.8955C41.6691 12.5381 41.5272 12.1954 41.2744 11.9427ZM30.1213 4.60117L37.0679 11.5479H32.3823C31.1356 11.5479 30.1213 10.5336 30.1213 9.28679V4.60117ZM36.7128 43.3047H9.2864C8.03973 43.3047 7.02539 42.2904 7.02539 41.0436V4.95632C7.02539 3.70965 8.03973 2.69531 9.2864 2.69531H27.4258V9.28679C27.4258 12.0197 29.6493 14.2432 32.3823 14.2432H38.9738V41.0436C38.9738 42.2904 37.9596 43.3047 36.7128 43.3047Z" fill="white"/>
<path d="M17.2261 20.2089H11.4521C10.7079 20.2089 10.1045 20.8123 10.1045 21.5565V27.3305C10.1045 28.0748 10.7079 28.6782 11.4521 28.6782H17.2261C17.9704 28.6782 18.5738 28.0748 18.5738 27.3305V21.5564C18.5738 20.8122 17.9705 20.2089 17.2261 20.2089ZM15.8785 25.9828H12.7998V22.9041H15.8785V25.9828Z" fill="white"/>
<path d="M17.2261 31.7568H11.4521C10.7079 31.7568 10.1045 32.3602 10.1045 33.1044V38.8784C10.1045 39.6227 10.7079 40.2261 11.4521 40.2261H17.2261C17.9704 40.2261 18.5738 39.6227 18.5738 38.8784V33.1044C18.5738 32.3602 17.9705 31.7568 17.2261 31.7568ZM15.8785 37.5307H12.7998V34.452H15.8785V37.5307Z" fill="white"/>
<path d="M21.6523 21.5565C21.6523 22.3008 22.2557 22.9042 23 22.9042H28.774C29.5183 22.9042 30.1216 22.3008 30.1216 21.5565C30.1216 20.8123 29.5183 20.2089 28.774 20.2089H23C22.2557 20.2089 21.6523 20.8122 21.6523 21.5565Z" fill="white"/>
<path d="M34.5479 25.9828H23C22.2557 25.9828 21.6523 26.5862 21.6523 27.3304C21.6523 28.0747 22.2557 28.6781 23 28.6781H34.5479C35.2922 28.6781 35.8955 28.0747 35.8955 27.3304C35.8955 26.5862 35.2922 25.9828 34.5479 25.9828Z" fill="white"/>
<path d="M23 34.4521H28.774C29.5183 34.4521 30.1216 33.8487 30.1216 33.1044C30.1216 32.3602 29.5183 31.7568 28.774 31.7568H23C22.2557 31.7568 21.6523 32.3602 21.6523 33.1044C21.6523 33.8487 22.2557 34.4521 23 34.4521Z" fill="white"/>
<path d="M34.5479 37.5306H23C22.2557 37.5306 21.6523 38.134 21.6523 38.8783C21.6523 39.6226 22.2557 40.226 23 40.226H34.5479C35.2922 40.226 35.8955 39.6226 35.8955 38.8783C35.8955 38.134 35.2922 37.5306 34.5479 37.5306Z" fill="white"/>
<path d="M11.4521 9.91272H18.6696C19.4138 9.91272 20.0172 9.30933 20.0172 8.56506C20.0172 7.8208 19.4138 7.21741 18.6696 7.21741H11.4521C10.7079 7.21741 10.1045 7.8208 10.1045 8.56506C10.1045 9.30933 10.7079 9.91272 11.4521 9.91272Z" fill="white"/>
<path d="M11.4521 15.6868H23C23.7443 15.6868 24.3477 15.0834 24.3477 14.3391C24.3477 13.5948 23.7443 12.9915 23 12.9915H11.4521C10.7079 12.9915 10.1045 13.5948 10.1045 14.3391C10.1045 15.0834 10.7079 15.6868 11.4521 15.6868Z" fill="white"/>
</g>
<defs>
<clipPath id="clip0">
<rect width="46" height="46" fill="white"/>
</clipPath>
</defs>
</svg>
