<svg width="46" height="46" viewBox="0 0 46 46" fill="none" xmlns="http://www.w3.org/2000/svg">
<g clip-path="url(#clip0)">
<path d="M44.0031 11.1378H36.4871V1.35818C36.4871 0.6082 35.8789 0 35.1289 0H1.98709C1.23711 0 0.628906 0.6082 0.628906 1.35818V40.2047C0.628906 43.4001 3.22876 46 6.42418 46H39.566C42.7614 46 45.3613 43.4001 45.3613 40.2047V12.496C45.3613 11.746 44.7531 11.1378 44.0031 11.1378ZM42.6445 40.2047C42.6445 41.9023 41.2635 43.2836 39.566 43.2836C37.8681 43.2836 36.4871 41.9023 36.4871 40.2047V13.8542H42.6445V40.2047ZM6.42418 43.2836C4.72662 43.2836 3.34528 41.9023 3.34528 40.2047V2.71637H33.7707V40.2047C33.7707 41.3355 34.0975 42.3908 34.6597 43.2836H6.42418Z" fill="white"/>
<path d="M28.7904 6.33856H8.32571C7.57573 6.33856 6.96753 6.94676 6.96753 7.69675V17.2953C6.96753 18.0453 7.57573 18.6535 8.32571 18.6535H28.7904C29.5404 18.6535 30.1486 18.0453 30.1486 17.2953V7.69675C30.1486 6.94676 29.5404 6.33856 28.7904 6.33856ZM27.4323 15.9371H9.68425V9.05528H27.4323V15.9371Z" fill="white"/>
<path d="M28.7904 36.9447H8.32571C7.57573 36.9447 6.96753 37.5529 6.96753 38.3033C6.96753 39.0533 7.57573 39.6615 8.32571 39.6615H28.7904C29.5404 39.6615 30.1486 39.0533 30.1486 38.3033C30.1486 37.5529 29.5404 36.9447 28.7904 36.9447Z" fill="white"/>
<path d="M28.7904 31.6931H8.32571C7.57573 31.6931 6.96753 32.3009 6.96753 33.0513C6.96753 33.8013 7.57573 34.4095 8.32571 34.4095H28.7904C29.5404 34.4095 30.1486 33.8013 30.1486 33.0513C30.1486 32.3009 29.5404 31.6931 28.7904 31.6931Z" fill="white"/>
<path d="M28.7904 26.4411H8.32571C7.57573 26.4411 6.96753 27.049 6.96753 27.7993C6.96753 28.5493 7.57573 29.1575 8.32571 29.1575H28.7904C29.5404 29.1575 30.1486 28.5493 30.1486 27.7993C30.1486 27.049 29.5404 26.4411 28.7904 26.4411Z" fill="white"/>
<path d="M28.7904 21.1891H8.32571C7.57573 21.1891 6.96753 21.7973 6.96753 22.5473C6.96753 23.2973 7.57573 23.9055 8.32571 23.9055H28.7904C29.5404 23.9055 30.1486 23.2973 30.1486 22.5473C30.1486 21.7973 29.5404 21.1891 28.7904 21.1891Z" fill="white"/>
</g>
<defs>
<clipPath id="clip0">
<rect width="46" height="46" fill="white"/>
</clipPath>
</defs>
</svg>
