<svg width="46" height="46" viewBox="0 0 46 46" fill="none" xmlns="http://www.w3.org/2000/svg">
<path d="M41.0586 4.94141H4.94141C2.21661 4.94141 0 7.15802 0 9.88281V36.1172C0 38.842 2.21661 41.0586 4.94141 41.0586H41.0586C43.7834 41.0586 46 38.842 46 36.1172V9.88281C46 7.15802 43.7834 4.94141 41.0586 4.94141ZM43.3047 36.1172C43.3047 37.3557 42.2971 38.3633 41.0586 38.3633H4.94141C3.7029 38.3633 2.69531 37.3557 2.69531 36.1172V9.88281C2.69531 8.6443 3.7029 7.63672 4.94141 7.63672H41.0586C42.2971 7.63672 43.3047 8.6443 43.3047 9.88281V36.1172Z" fill="white"/>
<path d="M23.0898 10.8711C22.3455 10.8711 21.7422 11.4744 21.7422 12.2188V33.7812C21.7422 34.5256 22.3455 35.1289 23.0898 35.1289C23.8342 35.1289 24.4375 34.5256 24.4375 33.7812V12.2188C24.4375 11.4744 23.8342 10.8711 23.0898 10.8711Z" fill="white"/>
<path d="M38.231 10.332H33.2843C31.9731 10.332 30.9062 11.3989 30.9062 12.7104V17.6571C30.9062 18.9683 31.9731 20.0352 33.2847 20.0352H38.2313C39.5425 20.0352 40.6094 18.9683 40.6094 17.6568V12.7101C40.6094 11.3989 39.5425 10.332 38.231 10.332ZM37.9141 17.3398H33.6016V13.0273H37.9141V17.3398Z" fill="white"/>
<path d="M6.73828 16.6211H11.4102C12.1545 16.6211 12.7578 16.0178 12.7578 15.2734C12.7578 14.5291 12.1545 13.9258 11.4102 13.9258H6.73828C5.99391 13.9258 5.39062 14.5291 5.39062 15.2734C5.39062 16.0178 5.99391 16.6211 6.73828 16.6211Z" fill="white"/>
<path d="M17.6992 19.3164H6.73828C5.99391 19.3164 5.39062 19.9197 5.39062 20.6641C5.39062 21.4084 5.99391 22.0117 6.73828 22.0117H17.6992C18.4436 22.0117 19.0469 21.4084 19.0469 20.6641C19.0469 19.9197 18.4436 19.3164 17.6992 19.3164Z" fill="white"/>
<path d="M17.6992 24.707H6.73828C5.99391 24.707 5.39062 25.3103 5.39062 26.0547C5.39062 26.7991 5.99391 27.4023 6.73828 27.4023H17.6992C18.4436 27.4023 19.0469 26.7991 19.0469 26.0547C19.0469 25.3103 18.4436 24.707 17.6992 24.707Z" fill="white"/>
<path d="M17.6992 30.0977H6.73828C5.99391 30.0977 5.39062 30.7009 5.39062 31.4453C5.39062 32.1897 5.99391 32.793 6.73828 32.793H17.6992C18.4436 32.793 19.0469 32.1897 19.0469 31.4453C19.0469 30.7009 18.4436 30.0977 17.6992 30.0977Z" fill="white"/>
</svg>
