<svg width="167" height="36" viewBox="0 0 167 36" fill="none" xmlns="http://www.w3.org/2000/svg">
<path d="M52.948 16H50.491V1.993H56.644C58.058 1.993 59.171 2.413 59.983 3.253C60.809 4.093 61.222 5.136 61.222 6.382C61.222 7.614 60.809 8.657 59.983 9.511C59.171 10.351 58.058 10.771 56.644 10.771H52.948V16ZM56.308 8.608C57.008 8.608 57.582 8.405 58.03 7.999C58.478 7.593 58.702 7.054 58.702 6.382C58.702 5.71 58.478 5.171 58.03 4.765C57.582 4.359 57.008 4.156 56.308 4.156H52.948V8.608H56.308ZM71.1942 16H68.9892V14.908C68.2052 15.804 67.1132 16.252 65.7132 16.252C64.7892 16.252 63.9702 15.958 63.2562 15.37C62.5422 14.768 62.1852 13.942 62.1852 12.892C62.1852 11.814 62.5352 10.995 63.2352 10.435C63.9492 9.875 64.7752 9.595 65.7132 9.595C67.1552 9.595 68.2472 10.029 68.9892 10.897V9.385C68.9892 8.797 68.7722 8.335 68.3382 7.999C67.9042 7.663 67.3302 7.495 66.6162 7.495C65.4822 7.495 64.4812 7.922 63.6132 8.776L62.7102 7.243C63.8582 6.151 65.2792 5.605 66.9732 5.605C68.2192 5.605 69.2342 5.899 70.0182 6.487C70.8022 7.075 71.1942 8.006 71.1942 9.28V16ZM66.5742 14.74C67.6802 14.74 68.4852 14.39 68.9892 13.69V12.157C68.4852 11.457 67.6802 11.107 66.5742 11.107C65.9442 11.107 65.4262 11.275 65.0202 11.611C64.6142 11.947 64.4112 12.388 64.4112 12.934C64.4112 13.48 64.6142 13.921 65.0202 14.257C65.4262 14.579 65.9442 14.74 66.5742 14.74ZM77.098 16.252C76.244 16.252 75.593 16.028 75.145 15.58C74.711 15.132 74.494 14.488 74.494 13.648V7.789H72.814V5.857H74.494V3.085H76.699V5.857H78.757V7.789H76.699V13.102C76.699 13.466 76.783 13.76 76.951 13.984C77.119 14.194 77.357 14.299 77.665 14.299C78.113 14.299 78.442 14.18 78.652 13.942L79.177 15.601C78.715 16.035 78.022 16.252 77.098 16.252ZM81.8511 4.618C81.4871 4.618 81.1651 4.485 80.8851 4.219C80.6191 3.953 80.4861 3.631 80.4861 3.253C80.4861 2.875 80.6191 2.553 80.8851 2.287C81.1651 2.021 81.4871 1.888 81.8511 1.888C82.2291 1.888 82.5511 2.021 82.8171 2.287C83.0831 2.553 83.2161 2.875 83.2161 3.253C83.2161 3.631 83.0831 3.953 82.8171 4.219C82.5511 4.485 82.2291 4.618 81.8511 4.618ZM82.9641 16H80.7591V5.857H82.9641V16ZM90.5075 16.252C88.9675 16.252 87.6935 15.762 86.6855 14.782C85.6915 13.788 85.1945 12.5 85.1945 10.918C85.1945 9.434 85.6775 8.181 86.6435 7.159C87.6235 6.123 88.8555 5.605 90.3395 5.605C91.8375 5.605 93.0415 6.123 93.9515 7.159C94.8755 8.195 95.3375 9.518 95.3375 11.128V11.653H87.5045C87.5885 12.451 87.9175 13.116 88.4915 13.648C89.0655 14.18 89.8145 14.446 90.7385 14.446C91.2565 14.446 91.7745 14.348 92.2925 14.152C92.8245 13.956 93.2655 13.683 93.6155 13.333L94.6235 14.782C93.6015 15.762 92.2295 16.252 90.5075 16.252ZM93.1955 10.099C93.1675 9.399 92.9085 8.776 92.4185 8.23C91.9425 7.684 91.2495 7.411 90.3395 7.411C89.4715 7.411 88.7925 7.684 88.3025 8.23C87.8125 8.762 87.5395 9.385 87.4835 10.099H93.1955ZM106.565 16H104.36V9.658C104.36 8.258 103.681 7.558 102.323 7.558C101.791 7.558 101.294 7.691 100.832 7.957C100.37 8.223 99.9989 8.545 99.7189 8.923V16H97.5139V5.857H99.7189V7.243C100.097 6.795 100.601 6.41 101.231 6.088C101.861 5.766 102.547 5.605 103.289 5.605C104.367 5.605 105.179 5.885 105.725 6.445C106.285 7.005 106.565 7.81 106.565 8.86V16ZM112.474 16.252C111.62 16.252 110.969 16.028 110.521 15.58C110.087 15.132 109.87 14.488 109.87 13.648V7.789H108.19V5.857H109.87V3.085H112.075V5.857H114.133V7.789H112.075V13.102C112.075 13.466 112.159 13.76 112.327 13.984C112.495 14.194 112.733 14.299 113.041 14.299C113.489 14.299 113.818 14.18 114.028 13.942L114.553 15.601C114.091 16.035 113.398 16.252 112.474 16.252ZM128.336 16H125.963L118.655 6.004V16H116.198V1.993H118.718L125.879 11.716V1.993H128.336V16ZM135.932 16.252C134.392 16.252 133.118 15.762 132.11 14.782C131.116 13.788 130.619 12.5 130.619 10.918C130.619 9.434 131.102 8.181 132.068 7.159C133.048 6.123 134.28 5.605 135.764 5.605C137.262 5.605 138.466 6.123 139.376 7.159C140.3 8.195 140.762 9.518 140.762 11.128V11.653H132.929C133.013 12.451 133.342 13.116 133.916 13.648C134.49 14.18 135.239 14.446 136.163 14.446C136.681 14.446 137.199 14.348 137.717 14.152C138.249 13.956 138.69 13.683 139.04 13.333L140.048 14.782C139.026 15.762 137.654 16.252 135.932 16.252ZM138.62 10.099C138.592 9.399 138.333 8.776 137.843 8.23C137.367 7.684 136.674 7.411 135.764 7.411C134.896 7.411 134.217 7.684 133.727 8.23C133.237 8.762 132.964 9.385 132.908 10.099H138.62ZM154.09 16H151.78L149.428 8.566L147.076 16H144.766L141.616 5.857H143.905L146.047 13.228L148.462 5.857H150.394L152.809 13.228L154.951 5.857H157.24L154.09 16ZM162.236 16.252C160.416 16.252 158.967 15.727 157.889 14.677L158.897 13.081C159.275 13.473 159.786 13.809 160.43 14.089C161.074 14.369 161.711 14.509 162.341 14.509C162.985 14.509 163.475 14.383 163.811 14.131C164.161 13.879 164.336 13.55 164.336 13.144C164.336 12.78 164.126 12.5 163.706 12.304C163.286 12.094 162.775 11.933 162.173 11.821C161.571 11.695 160.969 11.548 160.367 11.38C159.765 11.198 159.254 10.883 158.834 10.435C158.414 9.987 158.204 9.406 158.204 8.692C158.204 7.824 158.561 7.096 159.275 6.508C159.989 5.906 160.962 5.605 162.194 5.605C163.748 5.605 165.064 6.081 166.142 7.033L165.218 8.587C164.896 8.223 164.469 7.929 163.937 7.705C163.405 7.481 162.831 7.369 162.215 7.369C161.641 7.369 161.179 7.488 160.829 7.726C160.493 7.95 160.325 8.244 160.325 8.608C160.325 8.888 160.472 9.119 160.766 9.301C161.074 9.469 161.452 9.595 161.9 9.679C162.362 9.763 162.859 9.882 163.391 10.036C163.923 10.176 164.413 10.344 164.861 10.54C165.323 10.736 165.701 11.058 165.995 11.506C166.303 11.94 166.457 12.472 166.457 13.102C166.457 14.026 166.086 14.782 165.344 15.37C164.602 15.958 163.566 16.252 162.236 16.252Z" fill="white"/>
<path d="M52.672 32H49.936V23.996H52.672C53.896 23.996 54.884 24.376 55.636 25.136C56.396 25.896 56.776 26.852 56.776 28.004C56.776 29.164 56.396 30.12 55.636 30.872C54.884 31.624 53.896 32 52.672 32ZM52.672 31.112C53.616 31.112 54.364 30.816 54.916 30.224C55.468 29.632 55.744 28.892 55.744 28.004C55.744 27.108 55.472 26.364 54.928 25.772C54.384 25.18 53.632 24.884 52.672 24.884H50.932V31.112H52.672ZM63.5823 32H58.3383V23.996H63.5823V24.884H59.3343V27.464H63.4983V28.352H59.3343V31.112H63.5823V32ZM71.7944 32H70.8344L66.1664 25.616V32H65.1704V23.996H66.1904L70.7984 30.248V23.996H71.7944V32ZM76.6425 32H75.6465V24.884H73.1145V23.996H79.1865V24.884H76.6425V32ZM86.5536 32H85.4136L84.7056 30.224H80.7216L80.0136 32H78.8736L82.0896 23.996H83.3256L86.5536 32ZM84.4056 29.336L82.7136 25.028L81.0096 29.336H84.4056ZM92.3161 32H87.6001V23.996H88.5961V31.112H92.3161V32ZM104.647 32H103.651V25.412L100.927 32H100.519L97.807 25.412V32H96.811V23.996H98.239L100.723 30.02L103.219 23.996H104.647V32ZM113.366 32H112.226L111.518 30.224H107.534L106.826 32H105.686L108.902 23.996H110.138L113.366 32ZM111.218 29.336L109.526 25.028L107.822 29.336H111.218ZM120.221 32H119.045L117.005 28.82H115.409V32H114.413V23.996H117.629C118.373 23.996 118.977 24.216 119.441 24.656C119.905 25.096 120.137 25.68 120.137 26.408C120.137 27.096 119.937 27.644 119.537 28.052C119.137 28.46 118.645 28.688 118.061 28.736L120.221 32ZM117.509 27.944C117.981 27.944 118.365 27.8 118.661 27.512C118.957 27.224 119.105 26.856 119.105 26.408C119.105 25.96 118.957 25.596 118.661 25.316C118.365 25.028 117.981 24.884 117.509 24.884H115.409V27.944H117.509ZM127.785 32H126.549L123.513 28.4L122.709 29.312V32H121.713V23.996H122.709V28.136L126.249 23.996H127.497L124.161 27.8L127.785 32ZM134.164 32H128.92V23.996H134.164V24.884H129.916V27.464H134.08V28.352H129.916V31.112H134.164V32ZM138.728 32H137.732V24.884H135.2V23.996H141.272V24.884H138.728V32ZM143.592 32H142.596V23.996H143.592V32ZM152.091 32H151.131L146.463 25.616V32H145.467V23.996H146.487L151.095 30.248V23.996H152.091V32ZM157.755 32.156C156.595 32.156 155.619 31.772 154.827 31.004C154.035 30.228 153.639 29.228 153.639 28.004C153.639 26.78 154.035 25.784 154.827 25.016C155.619 24.248 156.595 23.864 157.755 23.864C159.019 23.864 160.055 24.364 160.863 25.364L160.071 25.856C159.815 25.52 159.479 25.252 159.063 25.052C158.655 24.852 158.219 24.752 157.755 24.752C156.875 24.752 156.139 25.06 155.547 25.676C154.963 26.284 154.671 27.06 154.671 28.004C154.671 28.948 154.963 29.728 155.547 30.344C156.139 30.96 156.875 31.268 157.755 31.268C158.195 31.268 158.603 31.184 158.979 31.016C159.363 30.84 159.671 30.636 159.903 30.404V28.772H157.155V27.884H160.899V30.776C160.075 31.696 159.027 32.156 157.755 32.156Z" fill="white"/>
<rect width="29" height="30" rx="5" fill="#C52033"/>
<rect x="11" y="11" width="25" height="24" rx="5" fill="#C52033" stroke="#1F1F1F" stroke-width="2"/>
</svg>
