<svg width="171" height="42" viewBox="0 0 171 42" fill="none" xmlns="http://www.w3.org/2000/svg">
<path d="M52.948 22H50.491V7.993H56.644C58.058 7.993 59.171 8.413 59.983 9.253C60.809 10.093 61.222 11.136 61.222 12.382C61.222 13.614 60.809 14.657 59.983 15.511C59.171 16.351 58.058 16.771 56.644 16.771H52.948V22ZM56.308 14.608C57.008 14.608 57.582 14.405 58.03 13.999C58.478 13.593 58.702 13.054 58.702 12.382C58.702 11.71 58.478 11.171 58.03 10.765C57.582 10.359 57.008 10.156 56.308 10.156H52.948V14.608H56.308ZM71.1942 22H68.9892V20.908C68.2052 21.804 67.1132 22.252 65.7132 22.252C64.7892 22.252 63.9702 21.958 63.2562 21.37C62.5422 20.768 62.1852 19.942 62.1852 18.892C62.1852 17.814 62.5352 16.995 63.2352 16.435C63.9492 15.875 64.7752 15.595 65.7132 15.595C67.1552 15.595 68.2472 16.029 68.9892 16.897V15.385C68.9892 14.797 68.7722 14.335 68.3382 13.999C67.9042 13.663 67.3302 13.495 66.6162 13.495C65.4822 13.495 64.4812 13.922 63.6132 14.776L62.7102 13.243C63.8582 12.151 65.2792 11.605 66.9732 11.605C68.2192 11.605 69.2342 11.899 70.0182 12.487C70.8022 13.075 71.1942 14.006 71.1942 15.28V22ZM66.5742 20.74C67.6802 20.74 68.4852 20.39 68.9892 19.69V18.157C68.4852 17.457 67.6802 17.107 66.5742 17.107C65.9442 17.107 65.4262 17.275 65.0202 17.611C64.6142 17.947 64.4112 18.388 64.4112 18.934C64.4112 19.48 64.6142 19.921 65.0202 20.257C65.4262 20.579 65.9442 20.74 66.5742 20.74ZM77.098 22.252C76.244 22.252 75.593 22.028 75.145 21.58C74.711 21.132 74.494 20.488 74.494 19.648V13.789H72.814V11.857H74.494V9.085H76.699V11.857H78.757V13.789H76.699V19.102C76.699 19.466 76.783 19.76 76.951 19.984C77.119 20.194 77.357 20.299 77.665 20.299C78.113 20.299 78.442 20.18 78.652 19.942L79.177 21.601C78.715 22.035 78.022 22.252 77.098 22.252ZM81.8511 10.618C81.4871 10.618 81.1651 10.485 80.8851 10.219C80.6191 9.953 80.4861 9.631 80.4861 9.253C80.4861 8.875 80.6191 8.553 80.8851 8.287C81.1651 8.021 81.4871 7.888 81.8511 7.888C82.2291 7.888 82.5511 8.021 82.8171 8.287C83.0831 8.553 83.2161 8.875 83.2161 9.253C83.2161 9.631 83.0831 9.953 82.8171 10.219C82.5511 10.485 82.2291 10.618 81.8511 10.618ZM82.9641 22H80.7591V11.857H82.9641V22ZM90.5075 22.252C88.9675 22.252 87.6935 21.762 86.6855 20.782C85.6915 19.788 85.1945 18.5 85.1945 16.918C85.1945 15.434 85.6775 14.181 86.6435 13.159C87.6235 12.123 88.8555 11.605 90.3395 11.605C91.8375 11.605 93.0415 12.123 93.9515 13.159C94.8755 14.195 95.3375 15.518 95.3375 17.128V17.653H87.5045C87.5885 18.451 87.9175 19.116 88.4915 19.648C89.0655 20.18 89.8145 20.446 90.7385 20.446C91.2565 20.446 91.7745 20.348 92.2925 20.152C92.8245 19.956 93.2655 19.683 93.6155 19.333L94.6235 20.782C93.6015 21.762 92.2295 22.252 90.5075 22.252ZM93.1955 16.099C93.1675 15.399 92.9085 14.776 92.4185 14.23C91.9425 13.684 91.2495 13.411 90.3395 13.411C89.4715 13.411 88.7925 13.684 88.3025 14.23C87.8125 14.762 87.5395 15.385 87.4835 16.099H93.1955ZM106.565 22H104.36V15.658C104.36 14.258 103.681 13.558 102.323 13.558C101.791 13.558 101.294 13.691 100.832 13.957C100.37 14.223 99.9989 14.545 99.7189 14.923V22H97.5139V11.857H99.7189V13.243C100.097 12.795 100.601 12.41 101.231 12.088C101.861 11.766 102.547 11.605 103.289 11.605C104.367 11.605 105.179 11.885 105.725 12.445C106.285 13.005 106.565 13.81 106.565 14.86V22ZM112.474 22.252C111.62 22.252 110.969 22.028 110.521 21.58C110.087 21.132 109.87 20.488 109.87 19.648V13.789H108.19V11.857H109.87V9.085H112.075V11.857H114.133V13.789H112.075V19.102C112.075 19.466 112.159 19.76 112.327 19.984C112.495 20.194 112.733 20.299 113.041 20.299C113.489 20.299 113.818 20.18 114.028 19.942L114.553 21.601C114.091 22.035 113.398 22.252 112.474 22.252ZM128.336 22H125.963L118.655 12.004V22H116.198V7.993H118.718L125.879 17.716V7.993H128.336V22ZM135.932 22.252C134.392 22.252 133.118 21.762 132.11 20.782C131.116 19.788 130.619 18.5 130.619 16.918C130.619 15.434 131.102 14.181 132.068 13.159C133.048 12.123 134.28 11.605 135.764 11.605C137.262 11.605 138.466 12.123 139.376 13.159C140.3 14.195 140.762 15.518 140.762 17.128V17.653H132.929C133.013 18.451 133.342 19.116 133.916 19.648C134.49 20.18 135.239 20.446 136.163 20.446C136.681 20.446 137.199 20.348 137.717 20.152C138.249 19.956 138.69 19.683 139.04 19.333L140.048 20.782C139.026 21.762 137.654 22.252 135.932 22.252ZM138.62 16.099C138.592 15.399 138.333 14.776 137.843 14.23C137.367 13.684 136.674 13.411 135.764 13.411C134.896 13.411 134.217 13.684 133.727 14.23C133.237 14.762 132.964 15.385 132.908 16.099H138.62ZM154.09 22H151.78L149.428 14.566L147.076 22H144.766L141.616 11.857H143.905L146.047 19.228L148.462 11.857H150.394L152.809 19.228L154.951 11.857H157.24L154.09 22ZM162.236 22.252C160.416 22.252 158.967 21.727 157.889 20.677L158.897 19.081C159.275 19.473 159.786 19.809 160.43 20.089C161.074 20.369 161.711 20.509 162.341 20.509C162.985 20.509 163.475 20.383 163.811 20.131C164.161 19.879 164.336 19.55 164.336 19.144C164.336 18.78 164.126 18.5 163.706 18.304C163.286 18.094 162.775 17.933 162.173 17.821C161.571 17.695 160.969 17.548 160.367 17.38C159.765 17.198 159.254 16.883 158.834 16.435C158.414 15.987 158.204 15.406 158.204 14.692C158.204 13.824 158.561 13.096 159.275 12.508C159.989 11.906 160.962 11.605 162.194 11.605C163.748 11.605 165.064 12.081 166.142 13.033L165.218 14.587C164.896 14.223 164.469 13.929 163.937 13.705C163.405 13.481 162.831 13.369 162.215 13.369C161.641 13.369 161.179 13.488 160.829 13.726C160.493 13.95 160.325 14.244 160.325 14.608C160.325 14.888 160.472 15.119 160.766 15.301C161.074 15.469 161.452 15.595 161.9 15.679C162.362 15.763 162.859 15.882 163.391 16.036C163.923 16.176 164.413 16.344 164.861 16.54C165.323 16.736 165.701 17.058 165.995 17.506C166.303 17.94 166.457 18.472 166.457 19.102C166.457 20.026 166.086 20.782 165.344 21.37C164.602 21.958 163.566 22.252 162.236 22.252Z" fill="black"/>
<path d="M52.672 38H49.936V29.996H52.672C53.896 29.996 54.884 30.376 55.636 31.136C56.396 31.896 56.776 32.852 56.776 34.004C56.776 35.164 56.396 36.12 55.636 36.872C54.884 37.624 53.896 38 52.672 38ZM52.672 37.112C53.616 37.112 54.364 36.816 54.916 36.224C55.468 35.632 55.744 34.892 55.744 34.004C55.744 33.108 55.472 32.364 54.928 31.772C54.384 31.18 53.632 30.884 52.672 30.884H50.932V37.112H52.672ZM63.5823 38H58.3383V29.996H63.5823V30.884H59.3343V33.464H63.4983V34.352H59.3343V37.112H63.5823V38ZM71.7944 38H70.8344L66.1664 31.616V38H65.1704V29.996H66.1904L70.7984 36.248V29.996H71.7944V38ZM76.6425 38H75.6465V30.884H73.1145V29.996H79.1865V30.884H76.6425V38ZM86.5536 38H85.4136L84.7056 36.224H80.7216L80.0136 38H78.8736L82.0896 29.996H83.3256L86.5536 38ZM84.4056 35.336L82.7136 31.028L81.0096 35.336H84.4056ZM92.3161 38H87.6001V29.996H88.5961V37.112H92.3161V38ZM104.647 38H103.651V31.412L100.927 38H100.519L97.807 31.412V38H96.811V29.996H98.239L100.723 36.02L103.219 29.996H104.647V38ZM113.366 38H112.226L111.518 36.224H107.534L106.826 38H105.686L108.902 29.996H110.138L113.366 38ZM111.218 35.336L109.526 31.028L107.822 35.336H111.218ZM120.221 38H119.045L117.005 34.82H115.409V38H114.413V29.996H117.629C118.373 29.996 118.977 30.216 119.441 30.656C119.905 31.096 120.137 31.68 120.137 32.408C120.137 33.096 119.937 33.644 119.537 34.052C119.137 34.46 118.645 34.688 118.061 34.736L120.221 38ZM117.509 33.944C117.981 33.944 118.365 33.8 118.661 33.512C118.957 33.224 119.105 32.856 119.105 32.408C119.105 31.96 118.957 31.596 118.661 31.316C118.365 31.028 117.981 30.884 117.509 30.884H115.409V33.944H117.509ZM127.785 38H126.549L123.513 34.4L122.709 35.312V38H121.713V29.996H122.709V34.136L126.249 29.996H127.497L124.161 33.8L127.785 38ZM134.164 38H128.92V29.996H134.164V30.884H129.916V33.464H134.08V34.352H129.916V37.112H134.164V38ZM138.728 38H137.732V30.884H135.2V29.996H141.272V30.884H138.728V38ZM143.592 38H142.596V29.996H143.592V38ZM152.091 38H151.131L146.463 31.616V38H145.467V29.996H146.487L151.095 36.248V29.996H152.091V38ZM157.755 38.156C156.595 38.156 155.619 37.772 154.827 37.004C154.035 36.228 153.639 35.228 153.639 34.004C153.639 32.78 154.035 31.784 154.827 31.016C155.619 30.248 156.595 29.864 157.755 29.864C159.019 29.864 160.055 30.364 160.863 31.364L160.071 31.856C159.815 31.52 159.479 31.252 159.063 31.052C158.655 30.852 158.219 30.752 157.755 30.752C156.875 30.752 156.139 31.06 155.547 31.676C154.963 32.284 154.671 33.06 154.671 34.004C154.671 34.948 154.963 35.728 155.547 36.344C156.139 36.96 156.875 37.268 157.755 37.268C158.195 37.268 158.603 37.184 158.979 37.016C159.363 36.84 159.671 36.636 159.903 36.404V34.772H157.155V33.884H160.899V36.776C160.075 37.696 159.027 38.156 157.755 38.156Z" fill="black"/>
<rect y="6" width="29" height="30" rx="5" fill="#C52033"/>
<rect x="11" y="17" width="25" height="24" rx="5" fill="#C52033" stroke="white" stroke-width="2"/>
</svg>
