<svg width="23" height="21" viewBox="0 0 23 21" fill="none" xmlns="http://www.w3.org/2000/svg">
<path d="M5.02388 20.9995V6.83085H0.278971V20.9995H5.02388ZM2.65204 4.8952C4.30668 4.8952 5.33661 3.80721 5.33661 2.44759C5.30578 1.0573 4.30674 -0.000488281 2.68344 -0.000488281C1.0604 -0.000488281 -0.000976562 1.05732 -0.000976562 2.44759C-0.000976562 3.80727 1.0287 4.8952 2.62107 4.8952H2.65189H2.65204ZM7.65018 20.9995H12.3951V13.087C12.3951 12.6636 12.4259 12.2406 12.5512 11.9378C12.8942 11.0918 13.675 10.2155 14.9857 10.2155C16.7027 10.2155 17.3896 11.5148 17.3896 13.4195V20.9994H22.1342V12.8752C22.1342 8.52318 19.7933 6.49821 16.6715 6.49821C14.1118 6.49821 12.9879 7.91828 12.3635 8.88547H12.3952V6.83056H7.65029C7.71256 8.16007 7.65029 20.9992 7.65029 20.9992L7.65018 20.9995Z" fill="white"/>
</svg>
