<svg width="21" height="21" viewBox="0 0 21 21" fill="none" xmlns="http://www.w3.org/2000/svg">
<path d="M10.5007 0C7.64667 0 7.29098 0.0137813 6.17405 0.0610312C5.05251 0.116156 4.29389 0.290062 3.62451 0.549937C2.92394 0.81442 2.28948 1.22851 1.76536 1.76334C1.22903 2.28624 0.814712 2.92106 0.551952 3.6225C0.292077 4.29187 0.11817 5.0505 0.0630454 6.17203C0.0125142 7.28962 0.00201416 7.64466 0.00201416 10.4987C0.00201416 13.3527 0.0157954 13.7084 0.0630454 14.8253C0.11817 15.9436 0.292077 16.7055 0.551952 17.3749C0.816434 18.0754 1.23052 18.7099 1.76536 19.234C2.28826 19.7704 2.92307 20.1847 3.62451 20.4474C4.29389 20.704 5.0558 20.8812 6.17405 20.9363C7.29164 20.9869 7.64667 20.9974 10.5007 20.9974C13.3547 20.9974 13.7104 20.9836 14.8274 20.9363C15.9456 20.8812 16.7075 20.7034 17.3769 20.4474C18.0775 20.183 18.7119 19.7689 19.236 19.234C19.7731 18.7117 20.1875 18.0767 20.4495 17.3749C20.706 16.7055 20.8832 15.9436 20.9384 14.8253C20.9889 13.7077 20.9994 13.3527 20.9994 10.4987C20.9994 7.64466 20.9856 7.28897 20.9384 6.17203C20.8832 5.05378 20.7054 4.28794 20.4495 3.6225C20.185 2.92193 19.7709 2.28747 19.236 1.76334C18.7137 1.22633 18.0787 0.811899 17.3769 0.549937C16.7075 0.290062 15.9456 0.116156 14.8274 0.0610312C13.7098 0.0105 13.3547 0 10.5007 0ZM10.5007 1.89C13.3035 1.89 13.6382 1.90378 14.746 1.95103C15.7678 1.99894 16.3243 2.16956 16.6937 2.31394C17.1505 2.48254 17.5639 2.7509 17.9039 3.09947C18.2518 3.43798 18.5192 3.85045 18.6861 4.30631C18.8305 4.67578 19.0011 5.23228 19.049 6.25406C19.0963 7.36181 19.11 7.69716 19.11 10.4993C19.11 13.3015 19.0963 13.6369 19.0451 14.7446C18.99 15.7664 18.8193 16.3229 18.6756 16.6924C18.4768 17.1852 18.255 17.5297 17.8888 17.9025C17.5477 18.2489 17.1345 18.5159 16.6786 18.6847C16.3138 18.8291 15.7494 18.9997 14.7237 19.0477C13.61 19.0949 13.2819 19.1087 10.4718 19.1087C7.66177 19.1087 7.3343 19.0949 6.21933 19.0437C5.19755 18.9886 4.63383 18.818 4.26436 18.6742C3.76561 18.4754 3.4237 18.2536 3.05751 17.8874C2.68805 17.5179 2.45311 17.1662 2.27198 16.6773C2.12498 16.3124 1.95698 15.748 1.90251 14.7223C1.86511 13.6218 1.84739 13.2805 1.84739 10.4836C1.84739 7.68797 1.86511 7.34606 1.90251 6.23175C1.95698 5.20603 2.12498 4.64297 2.27198 4.27678C2.45311 3.77737 2.6887 3.43612 3.05751 3.06666C3.42305 2.70112 3.76561 2.46487 4.26436 2.27981C4.63383 2.13609 5.18376 1.96547 6.20948 1.91428C7.32314 1.87425 7.65127 1.85981 10.4574 1.85981L10.5007 1.89ZM10.5007 5.11022C9.79283 5.10996 9.09185 5.24919 8.43782 5.51996C7.78378 5.79073 7.18951 6.18773 6.68897 6.68827C6.18844 7.18881 5.79144 7.78308 5.52067 8.43711C5.2499 9.09115 5.11066 9.79213 5.11092 10.5C5.11066 11.2079 5.2499 11.9088 5.52067 12.5629C5.79144 13.2169 6.18844 13.8112 6.68897 14.3117C7.18951 14.8123 7.78378 15.2093 8.43782 15.48C9.09185 15.7508 9.79283 15.89 10.5007 15.8898C11.2086 15.89 11.9096 15.7508 12.5636 15.48C13.2176 15.2093 13.8119 14.8123 14.3124 14.3117C14.813 13.8112 15.21 13.2169 15.4807 12.5629C15.7515 11.9088 15.8907 11.2079 15.8905 10.5C15.8907 9.79213 15.7515 9.09115 15.4807 8.43711C15.21 7.78308 14.813 7.18881 14.3124 6.68827C13.8119 6.18773 13.2176 5.79073 12.5636 5.51996C11.9096 5.24919 11.2086 5.10996 10.5007 5.11022ZM10.5007 13.9998C8.56608 13.9998 7.00092 12.4346 7.00092 10.5C7.00092 8.56537 8.56608 7.00022 10.5007 7.00022C12.4353 7.00022 14.0005 8.56537 14.0005 10.5C14.0005 12.4346 12.4353 13.9998 10.5007 13.9998ZM17.3677 4.89497C17.3674 5.22944 17.2342 5.55009 16.9976 5.78647C16.761 6.02285 16.4402 6.15562 16.1057 6.15562C15.9404 6.15562 15.7766 6.12305 15.6238 6.05976C15.471 5.99647 15.3322 5.90371 15.2152 5.78677C15.0983 5.66983 15.0055 5.531 14.9423 5.37821C14.879 5.22542 14.8464 5.06166 14.8464 4.89628C14.8464 4.7309 14.879 4.56714 14.9423 4.41435C15.0055 4.26156 15.0983 4.12273 15.2152 4.00579C15.3322 3.88885 15.471 3.79609 15.6238 3.7328C15.7766 3.66951 15.9404 3.63694 16.1057 3.63694C16.7994 3.63694 17.3677 4.20131 17.3677 4.89497Z" fill="white"/>
</svg>
