<svg width="615" height="435" viewBox="0 0 615 435" fill="none" xmlns="http://www.w3.org/2000/svg">
<path fill-rule="evenodd" clip-rule="evenodd" d="M361.9 25.6599C419.391 25.477 484.551 -21.1114 529.776 14.3897C575.315 50.1369 545.149 125.153 559.953 181.127C573.489 232.308 627.29 276.092 612.428 326.903C597.567 377.709 538.593 401.175 489.677 421.387C449.223 438.101 405.135 437.235 361.9 430.417C324.397 424.503 294.877 401.105 260.388 385.23C214.404 364.064 142.884 369.888 126.404 322.018C110.008 274.395 182.463 239.899 193.43 190.741C206.472 132.283 152.02 57.3726 194.797 15.4555C235.659 -24.5843 304.696 25.8419 361.9 25.6599Z" fill="#FBFBFB"/>
<path fill-rule="evenodd" clip-rule="evenodd" d="M56.732 67.4618C72.7105 67.0261 89.7345 62.8017 103.369 71.0853C117.402 79.6108 124.257 95.8639 129.152 111.459C133.996 126.896 136.279 143.493 130.881 158.747C125.555 173.795 114.721 187.605 99.9694 193.917C86.3581 199.741 71.5082 191.624 56.732 190.475C43.5506 189.45 29.1134 194.893 18.1493 187.555C7.09017 180.154 3.14961 165.93 0.624375 152.927C-1.66496 141.138 2.95286 129.907 4.645 118.019C6.81338 102.786 0.840109 84.333 11.9194 73.5791C22.9722 62.8508 41.2816 67.8831 56.732 67.4618Z" fill="#FBFBFB"/>
</svg>
