<svg width="625" height="392" viewBox="0 0 625 392" fill="none" xmlns="http://www.w3.org/2000/svg">
<path fill-rule="evenodd" clip-rule="evenodd" d="M106.376 52.6403C143.483 29.5628 184.721 11.1665 228.344 14.1349C271.179 17.0496 308.282 41.5544 341.635 68.6485C374.435 95.2935 403.102 126.995 416.58 167.047C430.497 208.408 433.155 253.941 417.703 294.708C402.372 335.153 373.674 374.688 332.674 388.405C294.049 401.327 256.349 369.802 216.332 362.077C184.803 355.991 153.208 360.03 123.421 348.011C83.5017 331.904 37.0337 319.25 16.4439 281.423C-5.47548 241.154 -2.57202 189.949 14.1831 147.325C30.7105 105.28 68.0327 76.4865 106.376 52.6403Z" fill="#FBFBFB"/>
<path fill-rule="evenodd" clip-rule="evenodd" d="M541.445 14.2833C562.627 21.8457 582.976 31.5076 597.641 48.5829C612.439 65.8147 626.993 87.3785 623.524 109.859C620.161 131.657 595.646 141.911 580.737 158.15C569.31 170.596 559.988 183.67 546.468 193.792C528.105 207.539 510.374 233.569 488.332 227.328C466.09 221.03 466.628 188.38 455.564 168.052C447.298 152.865 437.883 139.572 431.764 123.394C422.862 99.8563 404.321 76.5059 411.853 52.4761C419.635 27.646 444.626 10.196 469.546 2.85171C493.42 -4.1844 518.017 5.91925 541.445 14.2833Z" fill="#FBFBFB"/>
</svg>
