<svg width="527" height="559" viewBox="0 0 527 559" fill="none" xmlns="http://www.w3.org/2000/svg">
<path fill-rule="evenodd" clip-rule="evenodd" d="M211.555 46.3113C266.95 30.1427 318.191 -9.14185 374.699 2.6576C432.96 14.8235 484.979 56.4193 512.639 109.181C538.428 158.376 520.389 216.353 515.736 271.692C511.676 319.973 514.89 370.802 487.296 410.59C459.78 450.264 410.172 462.874 367.503 485.426C315.772 512.769 268.466 570.242 211.617 556.298C154.974 542.406 141.74 468.179 106.739 421.47C72.325 375.545 20.7285 341.319 8.50106 285.244C-5.05552 223.073 -4.25389 149.692 36.9141 101.25C77.4376 53.5662 151.504 63.8391 211.555 46.3113Z" fill="#FBFBFB"/>
</svg>
