<svg width="517" height="453" viewBox="0 0 517 453" fill="none" xmlns="http://www.w3.org/2000/svg">
<path fill-rule="evenodd" clip-rule="evenodd" d="M427.472 10.8729C478.891 35.7857 505.693 97.2831 514.284 153.782C522.755 209.5 498.574 263.147 473.509 313.65C448.69 363.655 422.48 418.445 371.565 441.334C321.787 463.713 264.617 446.301 212.223 431.115C166.516 417.869 125.98 393.966 92.2713 360.387C59.1199 327.363 36.2591 287.198 22.7649 242.384C7.7204 192.42 -11.3078 137.367 10.8895 90.1157C33.1477 42.7349 84.7838 12.7798 135.904 1.54556C180.917 -8.34655 220.747 32.4025 266.802 33.8758C322.226 35.6488 377.582 -13.2992 427.472 10.8729Z" fill="#FBFBFB"/>
</svg>
