<svg width="13" height="13" viewBox="0 0 13 13" fill="none" xmlns="http://www.w3.org/2000/svg">
<path d="M0.957516 7.29172L9.80043 7.29172L5.9371 11.1551C5.62835 11.4638 5.62835 11.9705 5.9371 12.2792C6.01034 12.3526 6.09734 12.4108 6.19311 12.4506C6.28888 12.4903 6.39154 12.5107 6.49523 12.5107C6.59891 12.5107 6.70157 12.4903 6.79734 12.4506C6.89312 12.4108 6.98011 12.3526 7.05335 12.2792L12.2704 7.06214C12.3438 6.9889 12.4021 6.9019 12.4418 6.80613C12.4815 6.71036 12.502 6.6077 12.502 6.50401C12.502 6.40033 12.4815 6.29767 12.4418 6.2019C12.4021 6.10612 12.3438 6.01913 12.2704 5.94589L7.05335 0.728804C6.98006 0.65551 6.89304 0.597372 6.79728 0.557705C6.70152 0.518038 6.59888 0.497623 6.49523 0.497623C6.39157 0.497623 6.28893 0.518038 6.19317 0.557705C6.09741 0.597371 6.0104 0.65551 5.9371 0.728804C5.86381 0.802099 5.80567 0.889112 5.766 0.984875C5.72633 1.08064 5.70592 1.18328 5.70592 1.28693C5.70592 1.39058 5.72633 1.49322 5.766 1.58898C5.80567 1.68475 5.86381 1.77176 5.9371 1.84506L9.80043 5.70839L0.957516 5.70839C0.5221 5.70839 0.16585 6.06464 0.16585 6.50006C0.16585 6.93547 0.5221 7.29172 0.957516 7.29172Z" fill="white"/>
</svg>
