<svg width="13" height="13" viewBox="0 0 13 13" fill="none" xmlns="http://www.w3.org/2000/svg">
<path d="M12.0425 5.70828L3.19957 5.70828L7.0629 1.84494C7.37165 1.53619 7.37165 1.02953 7.0629 0.720776C6.98966 0.647385 6.90266 0.58916 6.80689 0.549433C6.71112 0.509706 6.60846 0.489258 6.50477 0.489258C6.40109 0.489258 6.29843 0.509706 6.20266 0.549433C6.10688 0.58916 6.01989 0.647385 5.94665 0.720776L0.729565 5.93786C0.656175 6.0111 0.59795 6.0981 0.558223 6.19387C0.518496 6.28964 0.498047 6.3923 0.498047 6.49599C0.498047 6.59967 0.518496 6.70233 0.558223 6.7981C0.59795 6.89388 0.656175 6.98087 0.729565 7.05411L5.94665 12.2712C6.01994 12.3445 6.10696 12.4026 6.20272 12.4423C6.29848 12.482 6.40112 12.5024 6.50477 12.5024C6.60843 12.5024 6.71107 12.482 6.80683 12.4423C6.90259 12.4026 6.98961 12.3445 7.0629 12.2712C7.13619 12.1979 7.19433 12.1109 7.234 12.0151C7.27367 11.9194 7.29408 11.8167 7.29408 11.7131C7.29408 11.6094 7.27367 11.5068 7.234 11.411C7.19433 11.3153 7.13619 11.2282 7.0629 11.1549L3.19957 7.29161L12.0425 7.29161C12.4779 7.29161 12.8342 6.93536 12.8342 6.49994C12.8342 6.06453 12.4779 5.70828 12.0425 5.70828Z" fill="#C52033"/>
</svg>
