<svg width="30" height="30" viewBox="0 0 30 30" fill="none" xmlns="http://www.w3.org/2000/svg">
<path d="M28.125 1.875H18.75V0.9375C18.75 0.419707 18.3303 0 17.8125 0H12.1875C11.6697 0 11.25 0.419707 11.25 0.9375V1.875H1.875C0.839473 1.875 0 2.71447 0 3.75V24.375C0 25.4105 0.839473 26.25 1.875 26.25H14.0625V28.125H11.25C11.25 29.1605 12.0895 30 13.125 30H16.875C17.9105 30 18.75 29.1605 18.75 28.125H15.9375V26.25H28.125C29.1605 26.25 30 25.4105 30 24.375V3.75C30 2.71447 29.1605 1.875 28.125 1.875ZM28.125 24.375H1.875V3.75H28.125V24.375Z" fill="white"/>
<path d="M12.1875 14.4469L15.2719 17.5313C15.6376 17.8948 16.2281 17.8948 16.5938 17.5313L22.5 11.6344V14.0625H24.375V9.375C24.375 8.85721 23.9553 8.4375 23.4375 8.4375H18.75V10.3125H21.1781L15.9375 15.5531L12.8531 12.4688C12.4874 12.1052 11.8969 12.1052 11.5312 12.4688L5.90625 18.0938L7.22812 19.4156L12.1875 14.4469Z" fill="white"/>
</svg>
