<svg width="30" height="30" viewBox="0 0 30 30" fill="none" xmlns="http://www.w3.org/2000/svg">
<path d="M15 0C6.7289 0 0 6.7289 0 15C0 23.2711 6.7289 30 15 30C23.2711 30 30 23.2711 30 15C30 6.7289 23.2711 0 15 0ZM15 28.2422C7.69821 28.2422 1.75781 22.3018 1.75781 15C1.75781 7.69821 7.69821 1.75781 15 1.75781C22.3018 1.75781 28.2422 7.69821 28.2422 15C28.2422 22.3018 22.3018 28.2422 15 28.2422Z" fill="white"/>
<path d="M19.3877 10.914C19.9759 10.3257 20.758 10.0016 21.59 10.0016C22.4217 10.0016 23.2038 10.3257 23.7927 10.9144C24.136 11.2575 24.6925 11.2573 25.0356 10.914C25.3786 10.5706 25.3784 10.014 25.0351 9.67091C24.1148 8.75081 22.8912 8.24384 21.59 8.24384C20.2885 8.24384 19.0649 8.75081 18.1446 9.67091L18.1441 9.67137C17.8008 10.0147 17.8011 10.5709 18.1444 10.9142C18.4877 11.2575 19.0443 11.2571 19.3877 10.914Z" fill="white"/>
<path d="M6.20773 10.914C6.79619 10.3257 7.57828 10.0016 8.41003 10.0016C9.24202 10.0016 10.0241 10.3257 10.613 10.9144C10.9563 11.2575 11.5128 11.2573 11.8559 10.914C12.1989 10.5706 12.1987 10.014 11.8554 9.67091C10.9351 8.75081 9.71146 8.24384 8.41003 8.24384C7.10884 8.24384 5.88524 8.75081 4.9649 9.67091L4.96445 9.67137C4.62112 10.0147 4.62135 10.5709 4.96468 10.9142C5.308 11.2575 5.86464 11.2571 6.20773 10.914Z" fill="white"/>
<path d="M24.4141 14.2383H5.58586C5.10063 14.2383 4.70695 14.6317 4.70695 15.1172C4.70695 20.8019 9.31526 25.4102 15 25.4102C20.6847 25.4102 25.293 20.8019 25.293 15.1172C25.293 14.6317 24.8994 14.2383 24.4141 14.2383ZM15 23.6524C10.5499 23.6524 6.94336 20.2675 6.50917 15.9961H23.4908C23.0566 20.2673 19.4506 23.6524 15 23.6524Z" fill="white"/>
</svg>
