<svg width="30" height="30" viewBox="0 0 30 30" fill="none" xmlns="http://www.w3.org/2000/svg">
<path d="M15 20.8204C12.9698 20.8204 11.324 19.1746 11.324 17.1444C11.324 17.098 11.3257 17.052 11.3275 17.006C11.6639 17.1591 12.0374 17.245 12.4312 17.245C13.9055 17.245 15.1007 16.0498 15.1007 14.5755C15.1007 14.1817 15.0147 13.8083 14.8617 13.4718C14.9076 13.47 14.9536 13.4683 15 13.4683C17.0302 13.4683 18.676 15.1141 18.676 17.1443C18.676 19.1745 17.0302 20.8204 15 20.8204Z" fill="white"/>
<path d="M24.8705 8.41503C21.8896 6.6577 18.4764 5.72889 15 5.72889C11.5236 5.72889 8.11036 6.6577 5.12947 8.41503C3.89579 9.14227 2.73864 10.0098 1.69011 10.9933L0.432598 9.65287C1.5797 8.57683 2.84591 7.62756 4.19606 6.83164C7.45964 4.90778 11.1955 3.89087 15 3.89087C18.8044 3.89087 22.5404 4.90778 25.8039 6.83164C27.1541 7.62756 28.4203 8.57677 29.5674 9.65287L28.3099 10.9933C27.2613 10.0098 26.1042 9.14227 24.8705 8.41503Z" fill="white"/>
<path d="M0.266207 16.6842C1.73497 14.1452 3.84697 12.0158 6.374 10.5261C8.97816 8.99093 11.961 8.1795 15 8.1795C18.039 8.1795 21.0218 8.99093 23.626 10.5261C26.153 12.0158 28.265 14.1452 29.7338 16.6842L30 17.1444L29.7338 17.6046C28.265 20.1435 26.153 22.2729 23.626 23.7626C21.0218 25.2978 18.039 26.1092 15 26.1092C11.961 26.1092 8.97816 25.2978 6.374 23.7626C3.84697 22.273 1.73497 20.1436 0.266207 17.6046L0 17.1444L0.266207 16.6842ZM7.87321 17.1444C7.87321 21.0741 11.0703 24.2712 15 24.2712C18.9297 24.2712 22.1268 21.0741 22.1268 17.1444C22.1268 13.2146 18.9297 10.0176 15 10.0176C11.0703 10.0176 7.87321 13.2146 7.87321 17.1444ZM27.8656 17.1444C26.46 14.9027 24.5075 13.0988 22.2417 11.8665C23.3246 13.3482 23.9648 15.1728 23.9648 17.1444C23.9648 19.116 23.3246 20.9406 22.2417 22.4222C24.5075 21.1899 26.46 19.386 27.8656 17.1444ZM7.75827 22.4222C6.67543 20.9406 6.03519 19.116 6.03519 17.1444C6.03519 15.1728 6.67543 13.3482 7.75827 11.8665C5.49249 13.0988 3.53996 14.9027 2.13443 17.1444C3.53996 19.386 5.49249 21.1899 7.75827 22.4222Z" fill="white"/>
</svg>
