<svg width="30" height="30" viewBox="0 0 30 30" fill="none" xmlns="http://www.w3.org/2000/svg">
<g clip-path="url(#clip0)">
<path d="M8.74445 0.969785V6.56244H3.15179V8.50207H9.71429C10.25 8.50207 10.6841 8.06789 10.6841 7.53223V0.969727H8.74445V0.969785Z" fill="white"/>
<path d="M20.835 0H9.71432C9.45697 0 9.21035 0.102129 9.02866 0.28418L2.46616 6.84668C2.28416 7.02838 2.18198 7.27535 2.18198 7.53234V23.6961C2.18198 24.2318 2.61616 24.666 3.15182 24.666H12.4298C12.9655 24.666 13.3997 24.2318 13.3997 23.6961C13.3997 23.1605 12.9655 22.7263 12.4298 22.7263H4.12161V7.93383L10.1158 1.93963H19.8652V14.5151C19.8652 15.0504 20.2993 15.4849 20.835 15.4849C21.3707 15.4849 21.8048 15.0507 21.8048 14.5151V0.969844C21.8048 0.43418 21.3707 0 20.835 0Z" fill="white"/>
<path d="M16.0505 10.7327H7.93631C7.40064 10.7327 6.96646 11.1669 6.96646 11.7026C6.96646 12.2382 7.40064 12.6724 7.93631 12.6724H16.0505C16.5866 12.6724 17.0204 12.2382 17.0204 11.7026C17.0203 11.1669 16.5862 10.7327 16.0505 10.7327Z" fill="white"/>
<path d="M16.0505 14.6121H7.93631C7.40064 14.6121 6.96646 15.0462 6.96646 15.5819C6.96646 16.1176 7.40064 16.5517 7.93631 16.5517H16.0505C16.5866 16.5517 17.0204 16.1176 17.0204 15.5819C17.0204 15.0462 16.5862 14.6121 16.0505 14.6121Z" fill="white"/>
<path d="M20.3824 17.1013C17.352 17.1013 14.8867 19.5665 14.8867 22.5969C14.8867 25.6274 17.352 28.0926 20.3824 28.0926C23.4128 28.0926 25.8781 25.6274 25.8781 22.5969C25.8781 19.5665 23.4128 17.1013 20.3824 17.1013ZM20.3824 26.153C18.4217 26.153 16.8263 24.5576 16.8263 22.5969C16.8263 20.6363 18.4217 19.0409 20.3824 19.0409C22.3431 19.0409 23.9385 20.6363 23.9385 22.5969C23.9384 24.5576 22.3431 26.153 20.3824 26.153Z" fill="white"/>
<path d="M27.5303 28.3413L24.2976 25.1412C23.9168 24.7643 23.3032 24.7668 22.9263 25.148C22.549 25.5288 22.5523 26.1427 22.9331 26.5193L26.1658 29.7194C26.3549 29.9066 26.6013 30 26.8479 30C27.0974 30 27.3473 29.904 27.5371 29.7126C27.9144 29.3318 27.9112 28.7179 27.5303 28.3413Z" fill="white"/>
</g>
<defs>
<clipPath id="clip0">
<rect width="30" height="30" fill="white"/>
</clipPath>
</defs>
</svg>
