<svg width="30" height="30" viewBox="0 0 30 30" fill="none" xmlns="http://www.w3.org/2000/svg">
<g clip-path="url(#clip0)">
<path d="M2.68625 22.7113C2.35625 22.7113 2.03625 22.5375 1.865 22.2288C0.64625 20.0288 0 17.5287 0 15C0 6.72875 6.72875 0 15 0C17.4113 0 19.8025 0.5875 21.9163 1.6975C22.375 1.93875 22.5513 2.505 22.31 2.96375C22.0713 3.4225 21.505 3.6 21.0438 3.3575C19.1975 2.3875 17.1088 1.875 15 1.875C7.7625 1.875 1.875 7.7625 1.875 15C1.875 17.2113 2.43875 19.3962 3.50625 21.32C3.75625 21.7725 3.5925 22.3438 3.14125 22.595C2.99625 22.6737 2.84 22.7113 2.68625 22.7113Z" fill="white"/>
<path d="M15 30C12.2213 30 9.51 29.2325 7.16 27.7812C6.71875 27.51 6.5825 26.9312 6.85375 26.4912C7.12625 26.0525 7.705 25.9137 8.14375 26.1862C10.1988 27.4537 12.57 28.125 15 28.125C22.2375 28.125 28.125 22.2375 28.125 15C28.125 12.5662 27.455 10.2 26.1863 8.15749C25.9138 7.71749 26.05 7.13999 26.4888 6.86624C26.9288 6.59124 27.5063 6.72874 27.7788 7.16874C29.2325 9.50749 30 12.2162 30 15C30 23.2712 23.2713 30 15 30Z" fill="white"/>
<path d="M11.5625 14.0625C11.045 14.0625 10.625 13.6425 10.625 13.125C10.625 12.4362 10.065 11.875 9.375 11.875C8.685 11.875 8.125 12.4362 8.125 13.125C8.125 13.6425 7.705 14.0625 7.1875 14.0625C6.67 14.0625 6.25 13.6425 6.25 13.125C6.25 11.4025 7.65125 10 9.375 10C11.0988 10 12.5 11.4025 12.5 13.125C12.5 13.6425 12.08 14.0625 11.5625 14.0625Z" fill="white"/>
<path d="M22.8125 14.0625C22.295 14.0625 21.875 13.6425 21.875 13.125C21.875 12.4362 21.315 11.875 20.625 11.875C19.935 11.875 19.375 12.4362 19.375 13.125C19.375 13.6425 18.955 14.0625 18.4375 14.0625C17.92 14.0625 17.5 13.6425 17.5 13.125C17.5 11.4025 18.9013 10 20.625 10C22.3488 10 23.75 11.4025 23.75 13.125C23.75 13.6425 23.33 14.0625 22.8125 14.0625Z" fill="white"/>
<path d="M15 22.5C12.27 22.5 9.705 21.4375 7.77499 19.5063C7.40874 19.14 7.40874 18.5463 7.77499 18.18C8.14124 17.8138 8.73499 17.8138 9.10124 18.18C10.6762 19.7575 12.7712 20.625 15 20.625C17.2288 20.625 19.3238 19.7575 20.9 18.1813C21.2663 17.815 21.86 17.815 22.2263 18.1813C22.5925 18.5475 22.5925 19.1413 22.2263 19.5075C20.295 21.4375 17.73 22.5 15 22.5Z" fill="white"/>
<path d="M25 10.045C24.8125 10.045 24.625 9.98874 24.4625 9.87624C23.7188 9.35499 20 6.63374 20 4.12499C20 2.51499 21.3713 1.20624 23.0563 1.20624C23.78 1.20624 24.4625 1.44999 25 1.86999C25.5375 1.44999 26.22 1.20624 26.9438 1.20624C28.6288 1.20499 30 2.51499 30 4.12499C30 6.63374 26.2813 9.35624 25.5375 9.87624C25.375 9.98874 25.1875 10.045 25 10.045ZM23.0563 3.07999C22.405 3.07999 21.875 3.54874 21.875 4.12374C21.875 5.12374 23.5838 6.84499 25 7.94249C26.4413 6.82999 28.125 5.13499 28.125 4.12374C28.125 3.54874 27.595 3.07999 26.9438 3.07999C26.4613 3.07999 26.0325 3.33374 25.8513 3.72624C25.5438 4.38874 24.4575 4.38874 24.15 3.72624C23.9675 3.33374 23.5388 3.07999 23.0563 3.07999Z" fill="white"/>
<path d="M5 30.045C4.8125 30.045 4.625 29.9887 4.4625 29.8762C3.71875 29.355 0 26.6337 0 24.125C0 22.515 1.37125 21.2062 3.05625 21.2062C3.78 21.2062 4.4625 21.45 5 21.87C5.5375 21.45 6.22 21.2062 6.94375 21.2062C8.62875 21.205 10 22.515 10 24.125C10 26.6337 6.28125 29.3562 5.5375 29.8762C5.375 29.9887 5.1875 30.045 5 30.045ZM3.05625 23.08C2.405 23.08 1.875 23.5487 1.875 24.1237C1.875 25.1237 3.58375 26.845 5 27.9425C6.44125 26.83 8.125 25.135 8.125 24.1237C8.125 23.5487 7.595 23.08 6.94375 23.08C6.46125 23.08 6.0325 23.3337 5.85125 23.7262C5.54375 24.3887 4.4575 24.3887 4.15 23.7262C3.9675 23.3337 3.53875 23.08 3.05625 23.08Z" fill="white"/>
</g>
<defs>
<clipPath id="clip0">
<rect width="30" height="30" fill="white"/>
</clipPath>
</defs>
</svg>
