<svg width="20" height="20" viewBox="0 0 20 20" fill="none" xmlns="http://www.w3.org/2000/svg">
<path d="M18.9532 13.6497L16.9411 12.0012C15.6302 10.9273 13.5953 11.0289 12.3994 12.2247L12.3195 12.3046C12.119 12.5051 11.7924 12.5036 11.5947 12.3058L7.70701 8.41816C7.51075 8.2219 7.50687 7.90623 7.69599 7.70579C7.69944 7.70215 7.70294 7.69856 7.70648 7.69496L7.6958 7.70565C7.69934 7.7021 7.70289 7.69851 7.70643 7.69496C8.89571 6.49429 9.00951 4.45001 7.96772 3.13289L6.33575 1.06968C5.28678 -0.256533 3.46367 -0.358977 2.26793 0.836764L1.96816 1.13653C-0.15571 3.2604 -0.656193 7.0884 0.936917 9.63355C0.936917 9.63355 1.87473 11.8084 5.03958 14.9733C8.20443 18.1381 10.3793 19.0759 10.3793 19.0759C12.9482 20.6302 16.7512 20.1699 18.8746 18.0465L19.1601 17.761C20.3567 16.5643 20.2632 14.7229 18.9532 13.6497ZM17.7144 16.3154L17.4289 16.6009C15.9711 18.0586 13.2018 18.3942 11.4376 17.3268L11.3176 17.2541L11.1888 17.1986C11.0307 17.1304 10.6343 16.9155 10.0351 16.5136C8.97079 15.7997 7.77567 14.8182 6.48515 13.5277C5.19463 12.2372 4.21307 11.0421 3.49927 9.97782C3.09735 9.37859 2.8824 8.98223 2.81426 8.8241L2.75255 8.68098L2.66985 8.54887C1.59725 6.83531 1.94306 4.05293 3.41379 2.5822L3.71355 2.28243C4.04594 1.95004 4.44336 1.97266 4.73239 2.33806L6.36436 4.40127C6.76676 4.91 6.71467 5.79567 6.25027 6.26012C5.26234 7.2596 5.26722 8.86972 6.26143 9.86388L10.1491 13.7515C11.1457 14.7481 12.7668 14.7487 13.7653 13.7503L13.8451 13.6705C14.2984 13.2172 15.1481 13.1752 15.6455 13.5828L17.6577 15.2313C18.0333 15.539 18.0553 15.9745 17.7144 16.3154Z" fill="white"/>
</svg>
