<svg width="30" height="30" viewBox="0 0 30 30" fill="none" xmlns="http://www.w3.org/2000/svg">
<g clip-path="url(#clip0)">
<path d="M26.7888 15.401C26.785 15.401 26.7812 15.401 26.7773 15.4011H14.5985V3.18143C14.5968 2.73778 14.2365 2.37923 13.7929 2.37947C10.1296 2.36728 6.61372 3.82147 4.02934 6.41771C1.43157 9.06104 0 12.5243 0 16.1695C0 23.7734 6.1858 29.9597 13.7896 29.9597C17.4523 29.9718 20.9675 28.5176 23.5511 25.9214C26.1489 23.278 27.5795 19.8314 27.5795 16.1862C27.578 15.751 27.224 15.3994 26.7888 15.401ZM22.4118 24.8089C20.128 27.0984 17.0229 28.3787 13.7891 28.3642C7.06963 28.3642 1.60295 22.8933 1.60295 16.1738C1.60295 12.9516 2.87397 9.88553 5.1702 7.54903C7.25721 5.4512 10.0411 4.19165 12.9946 4.00904V16.1696C12.9946 16.6125 13.3463 17.005 13.7891 17.005H25.9492C25.7416 19.9457 24.4866 22.7146 22.4118 24.8089Z" fill="white"/>
<path d="M25.9716 4.06994C25.9684 4.0669 25.9651 4.07195 25.9618 4.06866C23.3184 1.47097 19.8514 0.0402833 16.2061 0.0402833C15.7625 0.0400427 15.4023 0.398597 15.4005 0.842238V13.8305C15.4005 14.2733 15.767 14.599 16.2099 14.599H29.1981C29.6331 14.6067 29.9922 14.2603 29.9999 13.8252C29.9999 13.8214 29.9999 13.8175 30 13.8137C30 10.1684 28.5693 6.71351 25.9716 4.06994ZM17.0044 12.9951V1.6705C19.9717 1.8624 22.6831 3.08458 24.8288 5.19108C26.9353 7.33671 28.1779 10.108 28.3699 12.9951H17.0044Z" fill="white"/>
</g>
<defs>
<clipPath id="clip0">
<rect width="30" height="30" fill="white"/>
</clipPath>
</defs>
</svg>
