<svg width="30" height="30" viewBox="0 0 30 30" fill="none" xmlns="http://www.w3.org/2000/svg">
<g clip-path="url(#clip0)">
<path d="M29.9646 2.23981C29.8996 1.04813 28.9519 0.100491 27.7602 0.0354518C25.3556 -0.0959154 20.6503 0.0318777 16.151 2.35905C13.8574 3.54545 11.4316 5.55692 9.49571 7.8777C9.47186 7.90629 9.44866 7.93506 9.42498 7.96371L5.03163 8.30309C4.30846 8.35899 3.66434 8.73803 3.26438 9.34295L0.267075 13.8765C-0.0362647 14.3353 -0.0844873 14.9094 0.137993 15.4123C0.360532 15.9153 0.817798 16.2658 1.36125 16.35L5.06268 16.9233C5.04961 16.9952 5.03649 17.0671 5.02448 17.1391C4.90125 17.8762 5.14547 18.634 5.67786 19.1664L10.8336 24.3222C11.275 24.7636 11.8714 25.0069 12.4826 25.0069C12.6084 25.0069 12.735 24.9966 12.861 24.9755C12.9329 24.9635 13.0048 24.9504 13.0768 24.9373L13.6501 28.6388C13.7343 29.1823 14.0848 29.6396 14.5876 29.8621C14.7969 29.9547 15.0183 30.0004 15.2387 30.0004C15.5483 30.0003 15.8556 29.9102 16.1235 29.733L20.6571 26.7357C21.262 26.3357 21.641 25.6915 21.6968 24.9684L22.0362 20.5751C22.0648 20.5515 22.0937 20.5283 22.1223 20.5044C24.4431 18.5685 26.4546 16.1428 27.641 13.849C29.9682 9.34957 30.0958 4.6442 29.9646 2.23981ZM19.6876 25.2693L15.351 28.1365L14.7923 24.5292C16.6251 23.9903 18.4382 23.1272 20.1655 21.971L19.9444 24.833C19.9306 25.0115 19.837 25.1706 19.6876 25.2693ZM12.0766 23.0793L6.92075 17.9234C6.7892 17.7918 6.72838 17.607 6.75821 17.4289C6.91149 16.5123 7.14967 15.6398 7.44452 14.8178L15.1805 22.5539C14.1933 22.9075 13.3091 23.1184 12.5711 23.2418C12.3928 23.2714 12.2081 23.2108 12.0766 23.0793ZM5.16704 10.0557L8.02899 9.83461C6.8727 11.5619 6.00961 13.375 5.47073 15.2078L1.86346 14.6491L4.73069 10.3124C4.82948 10.163 4.98856 10.0695 5.16704 10.0557ZM20.9964 19.1545C19.5765 20.3388 18.1982 21.1955 16.9278 21.8153L8.18438 13.0719C8.99637 11.4135 9.98737 10.0325 10.8455 9.00369C12.637 6.85594 14.8652 5.00315 16.9587 3.92033C21.088 1.78442 25.4387 1.6694 27.6645 1.79057C27.9591 1.80662 28.1934 2.04094 28.2095 2.33561C28.3308 4.56147 28.2156 8.91205 26.0797 13.0414C24.9969 15.1349 23.1441 17.363 20.9964 19.1545Z" fill="white"/>
<path d="M20.5501 13.8423C21.6752 13.8421 22.8008 13.4138 23.6573 12.5572C24.4874 11.7273 24.9444 10.6237 24.9444 9.44995C24.9444 8.2762 24.4873 7.17265 23.6573 6.34267C21.9439 4.62921 19.1561 4.62933 17.4428 6.34267C16.6127 7.17265 16.1556 8.2762 16.1556 9.44995C16.1556 10.6237 16.6128 11.7273 17.4428 12.5572C18.2995 13.414 19.4245 13.8424 20.5501 13.8423ZM18.6856 7.58556C19.1996 7.07151 19.8748 6.81452 20.5499 6.81452C21.2252 6.81452 21.9003 7.07151 22.4143 7.58556C22.9123 8.08355 23.1865 8.74565 23.1865 9.44989C23.1865 10.1541 22.9123 10.8163 22.4143 11.3143C21.3864 12.3423 19.7136 12.3423 18.6855 11.3143C18.1876 10.8163 17.9133 10.1542 17.9133 9.44995C17.9133 8.74571 18.1876 8.08355 18.6856 7.58556Z" fill="white"/>
<path d="M0.896547 24.7228C1.12149 24.7228 1.34643 24.637 1.51799 24.4654L4.3875 21.5958C4.73075 21.2526 4.73075 20.6961 4.3875 20.3529C4.04432 20.0096 3.4878 20.0096 3.14455 20.3529L0.275101 23.2224C-0.0681409 23.5656 -0.0681409 24.1221 0.275101 24.4654C0.446664 24.637 0.671605 24.7228 0.896547 24.7228Z" fill="white"/>
<path d="M7.01725 22.9828C6.67406 22.6395 6.11754 22.6395 5.7743 22.9828L0.257462 28.4997C-0.08578 28.8429 -0.08578 29.3994 0.257462 29.7426C0.429083 29.9142 0.653966 30 0.878908 30C1.10385 30 1.32879 29.9142 1.50035 29.7426L7.01719 24.2257C7.36049 23.8825 7.36049 23.326 7.01725 22.9828Z" fill="white"/>
<path d="M8.40404 25.6124L5.53453 28.4819C5.19129 28.8252 5.19129 29.3816 5.53453 29.7249C5.70615 29.8965 5.93109 29.9823 6.15598 29.9823C6.38086 29.9823 6.60586 29.8966 6.77742 29.7249L9.64693 26.8554C9.99017 26.5121 9.99017 25.9557 9.64693 25.6124C9.30375 25.2692 8.74722 25.2692 8.40404 25.6124Z" fill="white"/>
</g>
<defs>
<clipPath id="clip0">
<rect width="30" height="30" fill="white"/>
</clipPath>
</defs>
</svg>
