<svg width="30" height="30" viewBox="0 0 30 30" fill="none" xmlns="http://www.w3.org/2000/svg">
<g clip-path="url(#clip0)">
<path d="M15 13C12.7946 13 11.0002 14.7943 11.0002 16.9998C11.0002 19.2054 12.7945 20.9997 15 20.9997C17.2055 20.9997 18.9999 19.2054 18.9999 16.9998C18.9998 14.7943 17.2055 13 15 13ZM15 18.9997C13.8973 18.9997 13.0001 18.1025 13.0001 16.9998C13.0001 15.897 13.8973 14.9999 15 14.9999C16.1028 14.9999 16.9999 15.897 16.9999 16.9998C16.9999 18.1026 16.1028 18.9997 15 18.9997Z" fill="white"/>
<path d="M28.6525 15.4979L29.9832 8.17893C30.1256 7.39536 29.3365 6.76758 28.6055 7.08094C27.1883 7.68827 25.631 7.91625 24.1023 7.74047C23.4755 7.66776 22.9362 8.19012 22.9918 8.82147C23.0954 9.9985 22.1664 11 20.9997 11C19.897 11 18.9998 10.1028 18.9998 9.00006C18.9998 8.41424 19.2556 7.85971 19.7016 7.47862C20.1827 7.06753 20.1653 6.31764 19.6663 5.92934C18.5766 5.08097 18.2853 4.59558 15.7893 1.38646C15.3889 0.871541 14.6101 0.872771 14.2107 1.38646C11.7229 4.58497 11.4261 5.07874 10.3336 5.92934C9.83423 6.318 9.81765 7.06788 10.2983 7.47862C10.7444 7.85971 11.0001 8.41424 11.0001 9.00006C11.0001 10.1028 10.1029 11 9.00021 11C7.83519 11 6.90443 10.0001 7.00809 8.82147C7.06369 8.18994 6.52445 7.66811 5.89768 7.74047C4.36874 7.91625 2.81161 7.68832 1.39446 7.08094C0.662747 6.767 -0.125513 7.39641 0.0167525 8.17893L1.34753 15.4979C0.536712 16.0355 0.000697878 16.9559 0.000697878 17.9996C0.000697878 19.4484 1.03312 20.6605 2.40087 20.9391L3.13317 23.6539C2.44364 24.2041 2.00062 25.0506 2.00062 25.9992C2.00062 27.6533 3.34634 28.9991 5.00049 28.9991H24.9996C26.6537 28.9991 27.9994 27.6533 27.9994 25.9992C27.9994 25.0506 27.5564 24.204 26.8669 23.6539L27.5992 20.9391C28.9669 20.6605 29.9993 19.4484 29.9993 17.9996C29.9993 16.9559 29.4633 16.0355 28.6525 15.4979ZM5.08006 9.79635C5.45026 11.6217 7.06738 12.9998 9.00027 12.9998C11.2058 12.9998 13.0001 11.2055 13.0001 9C13.0001 8.21871 12.7727 7.46532 12.3569 6.82424C13.1008 6.11966 13.3485 5.75251 15 3.62907C16.6405 5.73833 16.8978 6.11825 17.6431 6.82424C17.2273 7.46538 16.9999 8.21871 16.9999 9C16.9999 11.2055 18.7943 12.9998 20.9998 12.9998C22.9327 12.9998 24.5497 11.6217 24.92 9.79635C25.8611 9.81293 26.8007 9.70664 27.7137 9.48164L26.7079 15.0141C25.1901 15.1613 23.9997 16.4439 23.9997 17.9996C23.9997 19.1504 24.6514 20.1513 25.6048 20.6543L24.9722 22.9994H5.02803L4.39545 20.6543C5.34883 20.1513 6.00051 19.1504 6.00051 17.9996C6.00051 16.4439 4.81012 15.1613 3.29237 15.0141L2.28649 9.48164C3.1995 9.70664 4.1394 9.8127 5.08006 9.79635ZM3.00057 18.9995C2.44921 18.9995 2.00062 18.5509 2.00062 17.9996C2.00062 17.4482 2.44921 16.9996 3.00057 16.9996C3.55194 16.9996 4.00053 17.4482 4.00053 17.9996C4.00053 18.551 3.55194 18.9995 3.00057 18.9995ZM24.9996 26.9992H5.00049C4.44913 26.9992 4.00053 26.5506 4.00053 25.9992C4.00053 25.4479 4.44913 24.9993 5.00049 24.9993H24.9996C25.5509 24.9993 25.9995 25.4479 25.9995 25.9992C25.9995 26.5506 25.5509 26.9992 24.9996 26.9992ZM26.9995 18.9995C26.4481 18.9995 25.9995 18.5509 25.9995 17.9996C25.9995 17.4482 26.4481 16.9996 26.9995 16.9996C27.5508 16.9996 27.9994 17.4482 27.9994 17.9996C27.9994 18.551 27.5508 18.9995 26.9995 18.9995Z" fill="white"/>
</g>
<defs>
<clipPath id="clip0">
<rect width="30" height="30" fill="white"/>
</clipPath>
</defs>
</svg>
