<svg width="30" height="30" viewBox="0 0 30 30" fill="none" xmlns="http://www.w3.org/2000/svg">
<g clip-path="url(#clip0)">
<path d="M29.7426 9.08338L20.9165 0.257461C20.7516 0.0925781 20.5281 0 20.295 0C20.0619 0 19.8383 0.0925781 19.6735 0.257461L16.3688 3.56203C16.204 3.72686 16.1114 3.95039 16.1114 4.18348C16.1114 4.41662 16.204 4.64016 16.3688 4.80498L17.1798 5.61592C15.2029 7.36934 12.9094 8.4242 10.3503 8.75414C8.20905 9.03023 6.67114 8.66859 6.65813 8.66537C6.19817 8.55182 5.731 8.8231 5.6018 9.27885L0.0735951 28.7694C-0.0682605 29.0941 -0.00503781 29.4862 0.263205 29.749C0.43424 29.9165 0.656311 30 0.878205 30C1.02358 30 1.16865 29.9638 1.29949 29.8923L20.7205 24.3978C21.1765 24.2688 21.4482 23.8014 21.3345 23.3413C21.3202 23.2836 20.0223 17.7533 24.3848 12.8207L25.195 13.6308C25.3666 13.8025 25.5915 13.8883 25.8165 13.8883C26.0414 13.8883 26.2664 13.8025 26.438 13.6308L29.7427 10.3263C29.9075 10.1615 30.0002 9.93797 30.0002 9.70488C30.0002 9.4718 29.9075 9.24814 29.7426 9.08338ZM19.4918 19.5067C19.3125 20.963 19.3887 22.1687 19.4834 22.921L3.84903 27.3442L10.7855 20.2625C11.3314 20.5826 11.9544 20.7539 12.604 20.7539C13.5667 20.7539 14.4718 20.3791 15.1525 19.6983H15.1526C16.5578 18.2931 16.5578 16.0066 15.1525 14.6014C13.7473 13.1962 11.4608 13.1962 10.0555 14.6014C8.85546 15.8014 8.68109 17.6437 9.53075 19.0315L2.67862 26.027L7.07796 10.5163C7.83024 10.611 9.03616 10.6874 10.4928 10.508C12.5816 10.2508 15.5899 9.3999 18.424 6.8601L23.1398 11.5758C20.6 14.4097 19.749 17.418 19.4918 19.5067ZM11.2984 15.8443C11.6584 15.4843 12.1311 15.3044 12.6039 15.3044C13.0767 15.3044 13.5496 15.4844 13.9095 15.8443C14.6294 16.5642 14.6294 17.7354 13.9095 18.4553C13.5607 18.804 13.0971 18.996 12.6039 18.996C12.1108 18.996 11.6472 18.804 11.2984 18.4553C10.5786 17.7354 10.5786 16.5642 11.2984 15.8443ZM25.8164 11.7664L24.987 10.9371C24.9869 10.937 24.9869 10.9369 24.9868 10.9368C24.9867 10.9367 24.9866 10.9366 24.9865 10.9365L18.2333 4.18348L20.295 2.12186L27.8781 9.70482L25.8164 11.7664Z" fill="white"/>
</g>
<defs>
<clipPath id="clip0">
<rect width="30" height="30" fill="white"/>
</clipPath>
</defs>
</svg>
