<svg width="30" height="30" viewBox="0 0 30 30" fill="none" xmlns="http://www.w3.org/2000/svg">
<path d="M29.6689 4.72861C29.2253 4.28394 28.5068 4.28277 28.0617 4.72556L19.4333 13.3191L16.9397 10.8255C16.4958 10.382 15.7769 10.3815 15.3329 10.8255L5.2193 20.9392C4.77533 21.3827 4.77533 22.1024 5.2193 22.546C5.4409 22.7679 5.73181 22.8789 6.02273 22.8789C6.31324 22.8789 6.60457 22.7679 6.82611 22.546L16.1363 13.2362L18.6284 15.7278C19.0719 16.1714 19.789 16.1718 20.2337 15.7297L29.6655 6.33577C30.1102 5.89298 30.1117 5.17328 29.6689 4.72861Z" fill="white"/>
<path d="M28.8257 26.3637H2.27273V2.50013C2.27273 1.87248 1.76402 1.36377 1.13636 1.36377C0.50871 1.36377 0 1.87248 0 2.50013V27.5001C0 28.1278 0.50871 28.6365 1.13636 28.6365H28.8257C29.4534 28.6365 29.9621 28.1278 29.9621 27.5001C29.9621 26.8724 29.4534 26.3637 28.8257 26.3637Z" fill="white"/>
<path d="M28.8636 4.3562H20.3409C19.7132 4.3562 19.2045 4.86491 19.2045 5.49257C19.2045 6.12022 19.7132 6.62893 20.3409 6.62893H27.7273V14.0157C27.7273 14.6429 28.236 15.152 28.8636 15.152C29.4913 15.152 29.9999 14.6429 29.9999 14.0152V5.49257C29.9999 4.86491 29.4912 4.3562 28.8636 4.3562Z" fill="white"/>
</svg>
