<svg width="580" height="521" viewBox="0 0 580 521" fill="none" xmlns="http://www.w3.org/2000/svg">
<path fill-rule="evenodd" clip-rule="evenodd" d="M338.732 53.6132C382.002 61.8235 407.896 103.344 439.385 134.142C473.376 167.387 516.745 194.366 529.488 240.183C543.284 289.785 534.537 344.157 510.455 389.667C485.854 436.155 447.373 481.511 395.959 492.52C346.718 503.064 302.72 464.682 256.818 443.978C221.943 428.248 187.158 414.14 160.763 386.438C133.787 358.126 120.197 322.35 106.148 285.848C86.6516 235.191 36.3656 180.103 63.1881 132.908C89.9799 85.7678 164.322 106.824 216.414 91.8334C258.494 79.7237 295.716 45.4509 338.732 53.6132Z" fill="#FBFBFB"/>
</svg>
