<svg width="612" height="593" viewBox="0 0 612 593" fill="none" xmlns="http://www.w3.org/2000/svg">
<path fill-rule="evenodd" clip-rule="evenodd" d="M242.963 489.658C208.809 468.484 178.778 445.497 150.624 416.816C112.265 377.74 40.2868 346.561 49.45 292.526C58.8375 237.167 150.478 245.316 186.946 202.624C224.705 158.422 202.564 64.7852 258.224 48.1238C312.366 31.917 343.885 117.335 395.548 140.182C446.785 162.841 522.387 133.546 554.786 179.274C586.716 224.339 550.643 286.459 537.171 340.066C525.795 385.334 511.891 428.858 482.877 465.417C452.446 503.759 417.538 547.205 368.874 552.122C321.078 556.951 283.783 514.964 242.963 489.658Z" fill="white"/>
</svg>
