<svg width="8" height="12" viewBox="0 0 8 12" fill="none" xmlns="http://www.w3.org/2000/svg">
<path d="M6.70999 9.88002L2.82999 6.00002L6.70999 2.12002C6.80257 2.02744 6.87601 1.91753 6.92611 1.79657C6.97622 1.6756 7.00201 1.54596 7.00201 1.41503C7.00201 1.28409 6.97622 1.15445 6.92611 1.03348C6.87601 0.912518 6.80257 0.802606 6.70999 0.710024C6.6174 0.617442 6.50749 0.544004 6.38653 0.493898C6.26557 0.443793 6.13592 0.418005 6.00499 0.418005C5.87406 0.418005 5.74441 0.443793 5.62344 0.493898C5.50248 0.544004 5.39257 0.617442 5.29999 0.710024L0.709986 5.30002C0.617282 5.39254 0.543735 5.50243 0.493553 5.6234C0.443372 5.74437 0.417542 5.87406 0.417542 6.00502C0.417542 6.13599 0.443372 6.26568 0.493553 6.38665C0.543735 6.50762 0.617282 6.61751 0.709986 6.71002L5.29999 11.3C5.3925 11.3927 5.50239 11.4663 5.62336 11.5165C5.74433 11.5666 5.87402 11.5925 6.00499 11.5925C6.13595 11.5925 6.26564 11.5666 6.38661 11.5165C6.50758 11.4663 6.61747 11.3927 6.70999 11.3C7.08999 10.91 7.09999 10.27 6.70999 9.88002Z" fill="#C52033"/>
</svg>
