<svg width="8" height="12" viewBox="0 0 8 12" fill="none" xmlns="http://www.w3.org/2000/svg">
<path d="M1.29001 2.11997L5.17001 5.99998L1.29001 9.87998C1.19743 9.97256 1.12399 10.0825 1.07389 10.2034C1.02378 10.3244 0.997992 10.454 0.997992 10.585C0.997992 10.7159 1.02378 10.8456 1.07389 10.9665C1.12399 11.0875 1.19743 11.1974 1.29001 11.29C1.38259 11.3826 1.49251 11.456 1.61347 11.5061C1.73443 11.5562 1.86408 11.582 1.99501 11.582C2.12594 11.582 2.25559 11.5562 2.37656 11.5061C2.49752 11.456 2.60743 11.3826 2.70001 11.29L7.29001 6.69998C7.38272 6.60746 7.45626 6.49757 7.50645 6.3766C7.55663 6.25563 7.58246 6.12594 7.58246 5.99498C7.58246 5.86401 7.55663 5.73432 7.50645 5.61335C7.45626 5.49238 7.38272 5.38249 7.29001 5.28998L2.70001 0.699975C2.6075 0.607271 2.49761 0.533724 2.37664 0.483542C2.25567 0.433361 2.12598 0.407531 1.99501 0.407531C1.86405 0.407531 1.73436 0.433361 1.61339 0.483542C1.49242 0.533724 1.38253 0.607271 1.29001 0.699975C0.910014 1.08997 0.900014 1.72997 1.29001 2.11997Z" fill="#C52033"/>
</svg>
