<svg width="22" height="22" viewBox="0 0 22 22" fill="none" xmlns="http://www.w3.org/2000/svg">
<path d="M21.5218 10.0132C21.9549 9.5912 22.1077 8.97182 21.921 8.39605C21.7337 7.82027 21.2461 7.40926 20.6469 7.32204L15.3201 6.54803C15.0932 6.51499 14.8972 6.3727 14.7958 6.16697L12.4143 1.34054C12.1469 0.798247 11.6042 0.461243 10.9994 0.461243C10.395 0.461243 9.85223 0.798247 9.58483 1.34054L7.2029 6.16741C7.10157 6.37314 6.9051 6.51543 6.67823 6.54847L1.35135 7.32248C0.752676 7.40926 0.264571 7.82071 0.0773461 8.39649C-0.109438 8.97226 0.0434254 9.59164 0.476465 10.0137L4.33065 13.7705C4.49497 13.9308 4.5703 14.1617 4.53153 14.3872L3.62228 19.6921C3.54166 20.159 3.66413 20.6132 3.96633 20.9714C4.43594 21.5295 5.25576 21.6996 5.91127 21.3551L10.6751 18.8502C10.8743 18.7458 11.1249 18.7467 11.3236 18.8502L16.0879 21.3551C16.3196 21.4771 16.5668 21.5388 16.8218 21.5388C17.2875 21.5388 17.7289 21.3317 18.0324 20.9714C18.3351 20.6132 18.4571 20.1582 18.3765 19.6921L17.4668 14.3872C17.428 14.1612 17.5033 13.9308 17.6677 13.7705L21.5218 10.0132Z" fill="#FFBC11"/>
</svg>
