<svg width="21" height="19" viewBox="0 0 21 19" fill="none" xmlns="http://www.w3.org/2000/svg">
<path d="M21 2.79724C20.8595 3.09379 20.5981 3.46838 20.2157 3.92098C19.8333 4.37358 19.3612 4.77159 18.7993 5.11495C18.8149 5.23983 18.8267 5.35687 18.8344 5.46613C18.895 7.14823 18.4921 8.89345 17.9331 10.3474C16.8495 13.0507 15.1892 15.2263 12.8177 16.7036C10.3447 18.1221 7.46461 18.4238 4.81103 18.1668C3.04937 17.9645 1.31308 17.3892 0 16.3056C2.40158 16.5927 4.64284 15.7757 6.41471 14.4561C4.44645 14.5059 3.01637 13.0821 2.34115 11.436C2.64553 11.5158 2.96394 11.5062 3.25419 11.4829C3.61147 11.4493 3.95062 11.4158 4.2843 11.3424C3.02925 10.9375 1.93109 10.1931 1.35788 9.07148C1.02165 8.3608 0.869838 7.68404 0.86625 6.91763C1.45434 7.22726 2.16174 7.52903 2.8094 7.5029C1.83129 6.67433 1.04715 5.6154 0.901372 4.40088C0.80934 3.38823 1.06274 2.46384 1.42814 1.60323C2.89126 3.21122 4.5329 4.53451 6.42646 5.34905C7.72142 5.87934 9.01271 6.16292 10.3479 6.16844C10.1938 4.9759 10.3136 3.82256 10.8746 2.84401C11.5349 1.79195 12.4983 1.18155 13.5787 0.877451C15.1246 0.481041 16.6324 1.04099 17.582 2.11825C18.6061 2.00764 19.5872 1.5533 20.368 1.08815C20.0362 2.09283 19.3902 3.09176 18.4482 3.56976C19.3451 3.40372 20.2008 3.13822 21 2.79724Z" fill="white"/>
</svg>
