<svg width="21" height="15" viewBox="0 0 21 15" fill="none" xmlns="http://www.w3.org/2000/svg">
<path d="M20.559 2.42781C20.437 1.99189 20.2046 1.59483 19.8842 1.2751C19.5638 0.955367 19.1662 0.723785 18.73 0.602779C17.0927 0.16506 10.5105 0.16506 10.5105 0.16506C10.5105 0.16506 3.94078 0.15456 2.28637 0.602779C1.85088 0.724316 1.45411 0.956141 1.1344 1.27585C0.8147 1.59555 0.582875 1.99232 0.461338 2.42781C0.150407 4.10402 -0.00273198 5.80568 0.00393156 7.51047C0.000897653 9.20705 0.154012 10.9003 0.461338 12.5688C0.583269 13.0046 0.815162 13.4016 1.13476 13.7219C1.45435 14.0422 1.85091 14.2749 2.28637 14.3978C3.92371 14.8355 10.5105 14.8355 10.5105 14.8355C10.5105 14.8355 17.0763 14.8355 18.73 14.3978C19.1662 14.2755 19.5635 14.043 19.8838 13.7227C20.2041 13.4023 20.4367 13.005 20.559 12.5688C20.8602 10.9013 21.0072 9.20556 20.9967 7.51047C21.0072 5.80422 20.8635 4.10584 20.559 2.42781ZM8.40787 10.6519V4.35522L13.8869 7.51047L8.40787 10.6519Z" fill="white"/>
</svg>
