<svg width="30" height="30" viewBox="0 0 30 30" fill="none" xmlns="http://www.w3.org/2000/svg">
<path d="M19.758 23.4727H10.3439C9.30565 23.4727 8.46107 24.3173 8.46107 25.3555V30H21.6408V25.3555C21.6408 24.3173 20.7962 23.4727 19.758 23.4727Z" fill="#213B8F"/>
<path d="M11.9069 18.1441C11.7567 17.9942 11.5583 17.9045 11.348 17.8892V21.7149H18.7541V17.8892C18.5438 17.9045 18.3451 17.9942 18.1945 18.1448C17.355 18.9844 16.2387 19.4467 15.051 19.4467C13.8634 19.4467 12.7471 18.9844 11.9069 18.1441Z" fill="#213B8F"/>
<path d="M20.5119 18.0585V21.7939C22.1587 22.142 23.3986 23.6064 23.3986 25.3555V30H26.348C26.833 30 27.2269 29.6063 27.2269 29.1211V26.2969C27.2269 22.2404 24.3393 18.845 20.5119 18.0585Z" fill="#213B8F"/>
<path d="M9.59015 18.0585C5.76279 18.845 2.87521 22.2404 2.87521 26.2969V29.1211C2.87521 29.6063 3.26889 30 3.75412 30H6.70326V25.3555C6.70326 23.6064 7.94312 22.142 9.59015 21.7939V18.0585Z" fill="#213B8F"/>
<path d="M27.2907 4.51973H22.5165C22.4501 2.01622 20.3943 0 17.8752 0H12.2269C9.70757 0 7.65198 2.01622 7.58537 4.51973H2.8125C2.32727 4.51973 1.93359 4.91409 1.93359 5.39932C1.93359 6.99303 3.22563 8.28506 4.81934 8.28506H25.2839C26.8776 8.28506 28.1696 6.99303 28.1696 5.39932C28.1696 4.91409 27.7757 4.51973 27.2907 4.51973Z" fill="#213B8F"/>
<path d="M21.5783 10.293V10.0429H8.52356V10.293C8.52356 13.9037 11.4462 16.8203 15.051 16.8203C18.6617 16.8203 21.5783 13.8979 21.5783 10.293Z" fill="#213B8F"/>
</svg>
