<svg width="31" height="30" viewBox="0 0 31 30" fill="none" xmlns="http://www.w3.org/2000/svg">
<path d="M7.80774 18.3041V12.5732C7.80774 12.1596 7.86702 11.7563 7.97803 11.3713H4.11359C3.48691 11.3713 2.91859 11.6263 2.50706 12.0378C2.09554 12.4493 1.84033 13.0179 1.84033 13.6443V18.2046C1.84033 18.7596 2.04289 19.2707 2.37843 19.6683C2.55284 19.8752 2.76387 20.0505 3.00145 20.1846V26.8128C3.00145 27.2974 3.39421 27.6901 3.87853 27.6901H9.26686V21.5627C8.34561 20.731 7.80774 19.5461 7.80774 18.3041Z" fill="#213B8F"/>
<path d="M6.57748 10.3338C8.4724 10.3338 10.0139 8.79227 10.0139 6.89735C10.0139 5.00244 8.4724 3.46092 6.57748 3.46092C4.68257 3.46092 3.14105 5.00244 3.14105 6.89735C3.14105 8.79227 4.68257 10.3338 6.57748 10.3338Z" fill="#213B8F"/>
<path d="M18.3896 9.94148H12.1936C11.4685 9.94148 10.8105 10.237 10.3339 10.7133C9.85739 11.1898 9.56213 11.8478 9.56213 12.5732V18.3041C9.56213 18.9468 9.79651 19.5387 10.1845 19.9986C10.4145 20.2711 10.6992 20.4966 11.0213 20.6577V29.1227C11.0213 29.6072 11.414 30 11.8986 30H18.6849C19.1694 30 19.5622 29.6072 19.5622 29.1227V20.6577C19.8842 20.4966 20.169 20.2711 20.3988 19.9986C20.787 19.5387 21.0213 18.9471 21.0213 18.3041V12.5732C21.0213 11.8478 20.7261 11.1898 20.2495 10.7135C19.773 10.237 19.115 9.94148 18.3896 9.94148Z" fill="#213B8F"/>
<path d="M15.2903 8.1871C17.5476 8.1871 19.3839 6.35078 19.3839 4.09355C19.3839 1.83632 17.5476 0 15.2903 0C13.0331 0 11.1968 1.83632 11.1968 4.09355C11.1968 6.35078 13.0331 8.1871 15.2903 8.1871Z" fill="#213B8F"/>
<path d="M28.194 12.0378C27.7825 11.6263 27.2142 11.3713 26.5875 11.3713H22.6054C22.7162 11.7563 22.7757 12.1596 22.7757 12.5732V18.3041C22.7757 19.5458 22.2378 20.731 21.3166 21.5627V27.6837C21.3512 27.6878 21.3866 27.6901 21.4226 27.6901H26.8223C27.3069 27.6901 27.6996 27.2974 27.6996 26.8128V20.1846C27.937 20.0507 28.148 19.8752 28.3227 19.6683C28.6582 19.2707 28.8608 18.7596 28.8608 18.2046V13.6443C28.8608 13.0179 28.6056 12.4493 28.194 12.0378Z" fill="#213B8F"/>
<path d="M24.1213 10.3338C26.0162 10.3338 27.5577 8.79227 27.5577 6.89735C27.5577 5.00244 26.0162 3.46092 24.1213 3.46092C22.2266 3.46092 20.6849 5.00244 20.6849 6.89735C20.6849 8.79227 22.2266 10.3338 24.1213 10.3338Z" fill="#213B8F"/>
</svg>
