<svg width="30" height="26" viewBox="0 0 30 26" fill="none" xmlns="http://www.w3.org/2000/svg">
<path d="M21.3189 3.49067C18.1135 4.33229 16.9994 7.09213 17.1847 8.24546C17.2435 8.21001 17.3009 8.17582 17.3604 8.13878C17.642 7.96597 17.9486 7.80246 18.2667 7.63386C18.5829 7.46422 18.9235 7.30679 19.2664 7.1471C19.4389 7.06663 19.6197 6.99601 19.7986 6.9232L20.0682 6.8133C20.1844 6.76762 20.256 6.7488 20.3518 6.71527L20.8922 6.53546C21.0801 6.48185 21.2666 6.42944 21.4512 6.37703C21.8249 6.27386 22.1858 6.18283 22.5371 6.11035C23.2391 5.95067 23.899 5.83442 24.4669 5.74656C25.604 5.57343 26.3788 5.54055 26.3788 5.54055C26.3788 5.54055 26.2019 5.61659 25.8914 5.74908C25.5797 5.87879 25.1351 6.05061 24.5998 6.2563C24.3302 6.35433 24.0408 6.461 23.7342 6.57342C23.427 6.68266 23.1024 6.797 22.7678 6.91549C22.4362 7.03239 22.0958 7.15438 21.7476 7.27861C21.4072 7.3936 21.052 7.52965 20.6956 7.66636C20.3634 7.79059 20.0184 7.95607 19.6799 8.09021C19.3439 8.24316 18.7677 8.44349 18.442 8.58271C18.0491 8.74753 17.8006 8.83665 17.5508 8.96887C14.7546 10.6006 13.5156 13.4892 12.7599 16.5458C12.6258 13.6745 12.0234 10.8887 9.95055 8.83407C9.95246 8.83282 9.95531 8.83216 9.95728 8.83057C9.67653 8.56772 9.3849 8.28506 9.08469 7.98228C8.83813 7.72806 8.57752 7.47538 8.32391 7.20586C8.06363 6.95225 7.80778 6.66833 7.54684 6.42621C7.26867 6.16336 6.994 5.90307 6.7225 5.66544C6.44843 5.41949 6.18049 5.17676 5.91922 4.94137C5.65445 4.70406 5.3986 4.47507 5.15654 4.25658C4.91666 4.03552 4.68767 3.82601 4.47848 3.63246C4.06168 3.2393 3.71513 2.90971 3.4775 2.67076C3.24205 2.42962 3.10791 2.29166 3.10791 2.29166C3.10791 2.29166 3.81059 2.61808 4.79565 3.21184C5.28684 3.51014 5.85188 3.86917 6.44083 4.2847C6.73755 4.48689 7.0365 4.70855 7.34214 4.94586C7.49257 5.0656 7.64553 5.18475 7.79728 5.30516L8.22846 5.67786C8.30417 5.74591 8.36325 5.78962 8.45269 5.87682L8.66095 6.08157C8.79957 6.21762 8.93885 6.35241 9.06691 6.49169C9.32528 6.76959 9.5779 7.04585 9.80629 7.32309C10.0356 7.60033 10.2563 7.8686 10.4505 8.13567C10.4917 8.19316 10.5304 8.24551 10.5715 8.30109C11.1845 7.30618 11.2084 4.32972 8.56609 2.32744C5.6887 0.149166 1.67904 1.12651 0 0.320663C1.69534 2.91414 1.36985 4.64559 4.21792 7.49169C6.12119 9.39589 7.89864 9.51378 9.09601 9.18254C11.5314 11.5269 11.9115 15.1009 11.9127 18.521C11.6636 18.3191 11.3608 18.1607 11.0114 18.1607C10.0258 18.1607 9.30804 18.7151 8.96406 19.506C6.79444 18.7676 5.35336 20.484 5.22847 21.9296C4.1962 21.5457 2.88664 22.7331 2.88664 23.7648C2.88664 24.7837 3.69183 25.6083 4.70047 25.6512L20.6711 25.6793C20.6711 25.6793 22.3728 24.7619 22.3728 23.7642C22.3728 22.7185 21.5252 21.8695 20.4795 21.8695C20.3345 21.8695 20.1958 21.8887 20.0617 21.9193C20.0706 21.8459 19.879 18.6302 17.0849 19.9218C16.8677 18.9157 16.5828 18.1607 14.9041 18.1607C14.0772 18.1607 13.5173 18.4609 13.159 18.7662C13.8581 15.2094 14.9386 11.4936 18.0879 9.65557C18.1224 9.6361 18.1403 9.60989 18.1645 9.58626C19.138 10.3672 20.8398 10.9705 23.3655 9.9216C27.0833 8.37735 27.4429 6.65323 29.9999 4.9039C28.1424 5.00811 24.8092 2.57464 21.3189 3.49067ZM12.6154 19.3649L12.7198 19.2601C12.6672 19.3419 12.6349 19.4013 12.6349 19.4013C12.6349 19.4013 12.6243 19.3808 12.6154 19.3649Z" fill="#213B8F"/>
</svg>
