<svg width="30" height="30" viewBox="0 0 30 30" fill="none" xmlns="http://www.w3.org/2000/svg">
<path d="M15 0C6.72914 0 0 6.72914 0 15C0 23.2709 6.72914 30 15 30C23.2709 30 30 23.2709 30 15C30 6.72914 23.2709 0 15 0ZM26.8542 19.9495C25.3797 23.4685 22.3818 26.197 18.6892 27.3059C18.7554 27.1829 18.8195 27.0587 18.8815 26.933C19.1987 26.291 19.5321 25.8384 20.0916 25.3869C20.5197 25.0411 21.3603 24.5056 21.2229 23.8303C21.1238 23.3423 20.5666 23.1421 20.1456 23.0228C19.4775 22.8335 18.7629 22.7844 18.0735 22.7367C17.4765 22.695 16.8566 22.7163 16.2737 22.5676C15.4015 22.3456 15.2049 21.5906 15.1497 20.7947C15.1005 20.0872 15.1111 19.3598 14.7631 18.7195C14.3151 17.8955 13.2839 17.6611 12.4289 17.5825C11.707 17.5164 10.9861 17.5513 10.2682 17.431C9.57753 17.3153 8.9234 17.0727 8.21414 17.1002C7.29495 17.1357 6.88214 17.7587 6.49005 18.4792C6.29651 18.835 5.07405 21.5713 4.35579 22.1849C3.11728 20.3565 2.33819 18.1931 2.18302 15.8617C2.28454 15.8343 2.38514 15.7965 2.48728 15.7456C2.88691 15.5472 3.16688 15.189 3.60174 15.0472C4.01637 14.9121 4.55205 15.0319 4.97567 15.0734C5.39721 15.1146 5.8253 15.1583 6.24719 15.1009C7.08935 14.9858 7.53558 14.4041 7.67009 13.592C7.75005 13.1069 7.68767 12.6191 7.70212 12.1307C7.72493 11.3696 8.2244 11.0965 8.91265 11.0318C10.2127 10.9097 13.2453 11.2542 13.3067 9.2534C13.3328 8.39756 12.3142 7.95586 11.6508 7.72744C10.359 7.28302 8.94754 7.43819 7.62628 7.12947C6.92351 6.96523 6.33077 6.52688 5.83374 6.00879C8.16705 3.63119 11.4138 2.1533 15 2.1533C15.767 2.1533 16.5178 2.22098 17.2478 2.3506C16.8746 2.41995 16.5061 2.51847 16.1477 2.66323C14.2565 3.42572 14.1996 5.57128 15.0262 7.18312C15.5388 8.18274 16.369 9.02023 17.2363 9.71665C18.0758 10.3905 18.9931 10.7888 19.9239 11.3C21.1589 11.979 21.0098 13.7523 21.3222 14.9472C21.5857 15.9548 22.2185 16.8049 23.2159 17.1537C23.8189 17.3644 24.5272 17.2 25.0552 17.6201C25.5087 17.9799 25.6152 18.7164 25.8744 19.2114C26.1325 19.7053 26.4761 19.9132 26.8542 19.9495Z" fill="#213B8F"/>
</svg>
