<svg width="30" height="30" viewBox="0 0 30 30" fill="none" xmlns="http://www.w3.org/2000/svg">
<g clip-path="url(#clip0)">
<rect width="30" height="30" fill="white"/>
<path d="M8.26172 10.2692V13.7942C8.26172 16.6669 10.0946 19.1208 12.6562 20.0555V21.0873C12.6562 22.3482 13.6823 23.3702 14.9485 23.3702C16.214 23.3702 17.2405 22.3482 17.2405 21.0873V20.0555C19.8017 19.1208 21.6351 16.6669 21.6351 13.7942V10.2692H8.26172Z" fill="#213B8F"/>
<path d="M6.04271 20.7708C2.71111 20.7708 0 23.4732 0 26.7938V27.3663C0 28.8181 1.18423 30 2.64015 30H5.26749V27.215C5.26749 26.73 5.66071 26.3361 6.14639 26.3361C6.63162 26.3361 7.0253 26.73 7.0253 27.215V30H9.4986L7.30843 20.7708H6.04271Z" fill="#213B8F"/>
<path d="M18.9983 20.7708V21.0874C18.9983 23.3158 17.1815 25.128 14.9485 25.128C12.7155 25.128 10.8984 23.3158 10.8984 21.0874V20.7708H9.11475L11.3051 30H18.6509L20.8477 20.7708H18.9983Z" fill="#213B8F"/>
<path d="M23.9573 20.7708H22.6552L20.4579 30H22.9747V27.215C22.9747 26.73 23.3683 26.3361 23.8536 26.3361C24.3393 26.3361 24.7325 26.73 24.7325 27.215V30H27.3598C28.8157 30 30 28.8181 30 27.3663V26.7938C30 23.4732 27.2889 20.7708 23.9573 20.7708Z" fill="#213B8F"/>
<path d="M4.50488 8.51143H25.4952C25.9806 8.51143 26.3741 8.11798 26.3741 7.63252C26.3741 7.14706 25.9806 6.75362 25.4952 6.75362H21.6351V6.68083C21.6351 2.99698 18.6351 0 14.9485 0C11.2612 0 8.26175 2.99698 8.26175 6.68083V6.75362H4.50488C4.01942 6.75362 3.62598 7.14706 3.62598 7.63252C3.62598 8.11798 4.01942 8.51143 4.50488 8.51143Z" fill="#213B8F"/>
</g>
<defs>
<clipPath id="clip0">
<rect width="30" height="30" fill="white"/>
</clipPath>
</defs>
</svg>
