<svg width="31" height="27" viewBox="0 0 31 27" fill="none" xmlns="http://www.w3.org/2000/svg">
<path d="M30.9389 15.9167C30.7503 15.4037 30.1806 15.1413 29.6689 15.3302L16.7544 20.0836C15.949 18.9035 14.5543 18.2563 13.1343 18.4014L7.16175 2.17475L1.20798 0.824278C0.677135 0.702963 0.145323 1.03728 0.0246668 1.57005C-0.0959898 2.10282 0.237665 2.63301 0.770438 2.75367L5.67643 3.86673L11.2807 19.0934C9.86563 20.0878 9.23327 21.9397 9.8594 23.6393C10.6055 25.666 12.8531 26.7049 14.8801 25.9588C16.5741 25.335 17.5731 23.6618 17.4215 21.946L30.3524 17.187C30.8647 16.9978 31.1275 16.4294 30.9389 15.9167ZM14.2543 24.2589C13.1663 24.6598 11.9592 24.1016 11.5587 23.0139C11.1584 21.9252 11.7156 20.7189 12.8039 20.3179C13.892 19.9174 15.0994 20.4752 15.4999 21.5629C15.9005 22.6512 15.3423 23.858 14.2543 24.2589Z" fill="#213B8F"/>
<path d="M28.3003 12.9893L24.1547 1.72501L18.9935 3.62477L20.1343 6.72365L18.0542 7.48887L16.9137 4.39034L11.7525 6.28975L15.8982 17.554L28.3003 12.9893ZM25.452 10.9171L25.9074 12.1549L21.2994 13.8508L20.8441 12.6131L25.452 10.9171Z" fill="#213B8F"/>
</svg>
