<svg width="12" height="18" viewBox="0 0 12 18" fill="none" xmlns="http://www.w3.org/2000/svg">
<path d="M11.8334 6.49984C11.8334 5.73379 11.6825 4.97525 11.3894 4.26752C11.0962 3.55978 10.6665 2.91672 10.1249 2.37505C9.5832 1.83337 8.94014 1.40369 8.2324 1.11054C7.52467 0.817387 6.76613 0.666504 6.00008 0.666504C5.23404 0.666504 4.47549 0.817387 3.76776 1.11054C3.06003 1.40369 2.41697 1.83337 1.87529 2.37505C1.33362 2.91672 0.903937 3.55978 0.610784 4.26752C0.317632 4.97525 0.166748 5.73379 0.166748 6.49984C0.166748 7.65567 0.508415 8.73067 1.08758 9.63734H1.08091C3.04758 12.7165 6.00008 17.3332 6.00008 17.3332L10.9192 9.63734H10.9134C11.5138 8.70098 11.833 7.61212 11.8334 6.49984ZM6.00008 8.99984C5.33704 8.99984 4.70116 8.73645 4.23231 8.2676C3.76347 7.79876 3.50008 7.16288 3.50008 6.49984C3.50008 5.8368 3.76347 5.20091 4.23231 4.73207C4.70116 4.26323 5.33704 3.99984 6.00008 3.99984C6.66312 3.99984 7.29901 4.26323 7.76785 4.73207C8.23669 5.20091 8.50008 5.8368 8.50008 6.49984C8.50008 7.16288 8.23669 7.79876 7.76785 8.2676C7.29901 8.73645 6.66312 8.99984 6.00008 8.99984Z" fill="white"/>
</svg>
