<svg width="16" height="15" viewBox="0 0 16 15" fill="none" xmlns="http://www.w3.org/2000/svg">
<g clip-path="url(#clip0)">
<path d="M8.16553 0C4.02339 0 0.665527 3.35786 0.665527 7.5C0.665527 11.6421 4.02339 15 8.16553 15C12.3077 15 15.6655 11.6421 15.6655 7.5C15.6655 3.35786 12.3077 0 8.16553 0ZM5.47021 2.97913C5.62474 2.97001 5.76441 3.06238 5.8703 3.22631L6.89569 5.17089C7.00365 5.40131 6.9423 5.64804 6.78125 5.81267L6.31159 6.28234C6.2826 6.32206 6.26353 6.3668 6.26306 6.416C6.44318 7.11319 6.98953 7.75629 7.47158 8.19854C7.9536 8.64079 8.47169 9.23955 9.14423 9.3814C9.22735 9.40459 9.32919 9.4129 9.38868 9.35761L9.93433 8.80189C10.1227 8.65913 10.3952 8.58994 10.5963 8.70668H10.6054L12.4557 9.7989C12.7273 9.96914 12.7554 10.2982 12.561 10.4984L11.2866 11.7627C11.0984 11.9557 10.8483 12.0206 10.6054 12.0209C9.53108 11.9887 8.51595 11.4614 7.68215 10.9195C6.31353 9.92384 5.05812 8.68893 4.26996 7.19696C3.96769 6.57134 3.6126 5.77309 3.64649 5.07479C3.64951 4.81209 3.72059 4.55473 3.90559 4.3854L5.18 3.11099C5.27928 3.02651 5.37749 2.9846 5.47021 2.97913Z" fill="white"/>
</g>
<defs>
<clipPath id="clip0">
<rect width="15" height="15" fill="white" transform="translate(0.665527)"/>
</clipPath>
</defs>
</svg>
