<svg width="17" height="16" viewBox="0 0 17 16" fill="none" xmlns="http://www.w3.org/2000/svg">
<path d="M1.92478 4.229L7.92478 7.4522C8.12638 7.56019 8.38718 7.6114 8.64958 7.6114C8.91198 7.6114 9.17278 7.56019 9.37438 7.4522L15.3744 4.229C15.7656 4.0186 16.1352 3.2002 15.4176 3.2002H1.88238C1.16478 3.2002 1.53438 4.0186 1.92478 4.229ZM15.556 5.9914L9.37438 9.213C9.10238 9.3554 8.91198 9.3722 8.64958 9.3722C8.38718 9.3722 8.19678 9.3554 7.92478 9.213C7.65278 9.0706 2.21838 6.2218 1.77438 5.9906C1.46238 5.8274 1.46558 6.0186 1.46558 6.1658V12.0002C1.46558 12.3362 1.91838 12.8002 2.26558 12.8002H15.0656C15.4128 12.8002 15.8656 12.3362 15.8656 12.0002V6.1666C15.8656 6.0194 15.8688 5.8282 15.556 5.9914Z" fill="white"/>
</svg>
