<svg width="10" height="11" viewBox="0 0 10 11" fill="none" xmlns="http://www.w3.org/2000/svg">
<path d="M8.4668 4.21756C8.02409 4.51089 7.55208 4.69691 7.05078 4.77561C6.54948 4.85431 6.17188 4.8078 5.91797 4.6361C5.91146 4.6361 5.8903 4.62179 5.85449 4.59317C5.81868 4.56455 5.78125 4.53772 5.74219 4.51268C5.70312 4.48764 5.66406 4.47512 5.625 4.47512V7.48C5.91146 7.11512 6.23698 6.81106 6.60156 6.5678C6.80339 6.43187 7.03613 6.3335 7.2998 6.27268C7.56348 6.21187 7.8125 6.18504 8.04688 6.1922C8.28125 6.19935 8.50098 6.21545 8.70605 6.24049C8.91113 6.26553 9.07227 6.29593 9.18945 6.33171L9.375 6.37463C9.35547 6.41756 9.32454 6.4748 9.28223 6.54634C9.23991 6.61789 9.15365 6.75203 9.02344 6.94878C8.89323 7.14553 8.75977 7.33333 8.62305 7.5122C8.48633 7.69106 8.31543 7.88244 8.11035 8.08634C7.90527 8.29024 7.70182 8.46016 7.5 8.5961C6.65365 9.15415 6.02865 9.44748 5.625 9.4761V10.3132C5.625 10.4992 5.56478 10.6602 5.44434 10.7961C5.32389 10.932 5.17578 11 5 11C4.82422 11 4.67611 10.932 4.55566 10.7961C4.43522 10.6602 4.375 10.4992 4.375 10.3132V9.60488C4.06901 9.6478 3.71257 9.61561 3.30566 9.50829C2.89876 9.40098 2.52279 9.23642 2.17773 9.01463C1.97591 8.88585 1.78385 8.70878 1.60156 8.48341C1.41927 8.25805 1.27116 8.03268 1.15723 7.80732C1.04329 7.58195 0.94401 7.36195 0.859375 7.14732C0.77474 6.93268 0.714518 6.76276 0.678711 6.63756C0.642904 6.51236 0.625 6.44618 0.625 6.43902C0.677083 6.41756 0.745443 6.39431 0.830078 6.36927C0.914714 6.34423 1.0791 6.30846 1.32324 6.26195C1.56738 6.21545 1.80176 6.19041 2.02637 6.18683C2.25098 6.18325 2.49674 6.21545 2.76367 6.28341C3.0306 6.35138 3.25846 6.46407 3.44727 6.62146C3.63607 6.77886 3.94531 7.21171 4.375 7.92V5.16195C4.33594 5.16195 4.29688 5.17447 4.25781 5.19951C4.21875 5.22455 4.18132 5.25138 4.14551 5.28C4.1097 5.30862 4.08854 5.3265 4.08203 5.33366C3.82812 5.49821 3.45052 5.54114 2.94922 5.46244C2.44792 5.38374 1.97591 5.19772 1.5332 4.90439C1.33138 4.76846 1.13932 4.58244 0.957031 4.34634C0.77474 4.11024 0.629883 3.88488 0.522461 3.67024C0.415039 3.45561 0.317383 3.22488 0.229492 2.97805C0.141602 2.73122 0.0846354 2.5613 0.0585938 2.46829C0.0325521 2.37528 0.0130208 2.30374 0 2.25366C0.0455729 2.23935 0.109049 2.22146 0.19043 2.2C0.27181 2.17854 0.429688 2.15171 0.664062 2.11951C0.898438 2.08732 1.12305 2.06943 1.33789 2.06585C1.55273 2.06228 1.79525 2.09089 2.06543 2.15171C2.33561 2.21252 2.57161 2.31089 2.77344 2.44683C3.17708 2.71154 3.52702 3.03171 3.82324 3.40732C4.11947 3.78293 4.30339 4.13886 4.375 4.47512V2.74732C4.375 2.73301 4.37826 2.70439 4.38477 2.66146C4.0918 2.57561 3.82812 2.44683 3.59375 2.27512C3.36589 2.10341 3.16081 1.84049 2.97852 1.48634C2.79622 1.1322 2.67253 0.819187 2.60742 0.547317L2.5 0.139512C2.53255 0.132358 2.57812 0.119837 2.63672 0.101951C2.69531 0.084065 2.80762 0.0626016 2.97363 0.037561C3.13965 0.0125203 3.29915 0 3.45215 0C3.60514 0 3.7793 0.023252 3.97461 0.0697561C4.16992 0.11626 4.33919 0.193171 4.48242 0.300488C4.80143 0.529431 5.07161 0.82813 5.29297 1.19659C5.51432 1.56504 5.625 1.85301 5.625 2.06049V3.78829C5.69661 3.45203 5.88053 3.0961 6.17676 2.72049C6.47298 2.34488 6.82292 2.02472 7.22656 1.76C7.42839 1.62407 7.66113 1.52569 7.9248 1.46488C8.18848 1.40407 8.4375 1.37724 8.67188 1.38439C8.90625 1.39154 9.12598 1.40764 9.33105 1.43268C9.53613 1.45772 9.69727 1.48455 9.81445 1.51317L10 1.56683C9.98698 1.61691 9.96908 1.68667 9.94629 1.7761C9.9235 1.86553 9.86654 2.03545 9.77539 2.28585C9.68424 2.53626 9.58496 2.76878 9.47754 2.98341C9.37012 3.19805 9.22526 3.42341 9.04297 3.65951C8.86068 3.89561 8.66862 4.08163 8.4668 4.21756Z" fill="white"/>
</svg>
