<svg width="32" height="70" viewBox="0 0 32 70" fill="none" xmlns="http://www.w3.org/2000/svg">
<g clip-path="url(#clip0)">
<path d="M30.9181 38.7742C28.5823 39.7746 27.1353 41.9033 26.0801 44.1142C25.3868 45.5958 24.9372 47.0711 23.4586 47.9809C22.2552 48.7171 21.1632 49.2748 20.3495 50.4739C19.6242 51.525 19.252 52.7722 18.8724 53.966C18.818 54.1637 18.7333 54.3385 18.6753 54.5095C18.8246 52.2328 19.0042 49.9791 19.2639 47.7144C19.3439 47.7034 19.4166 47.6391 19.4019 47.5324C19.4113 47.2049 19.3977 46.9077 19.407 46.5802C19.4781 46.1084 19.5262 45.6668 19.5972 45.195C20.1334 41.7778 20.906 38.3009 22.4041 35.1593C22.6635 35.0693 22.8963 34.983 23.1484 34.8396C24.0113 34.3949 24.2685 33.2994 24.1706 32.3887C25.1115 32.3138 25.8902 31.2554 26.2751 30.4958C26.7023 29.6488 26.6164 28.6276 25.9306 27.9879C26.5095 27.256 26.8833 26.4163 26.7551 25.4825C27.547 25.5096 27.7696 23.7665 27.8333 23.2413C27.9284 22.5486 27.7578 21.7022 27.0846 21.55C27.2577 21.2272 27.4271 20.8778 27.5129 20.5126C27.6336 20.0067 27.6387 19.0546 27.1036 18.7203C27.2714 17.9634 27.3299 17.0039 26.8225 16.4756C27.7428 15.2618 28.2018 13.459 27.5698 12.0236C27.3365 11.512 26.746 11.5659 26.3035 11.7082C26.522 10.7268 26.7059 9.09772 25.8868 8.47629C25.7351 8.36121 25.5604 8.27647 25.393 8.24509C25.6288 7.58749 25.5869 6.88649 25.5183 6.18915C25.4643 5.59852 25.2806 5.0529 24.7492 4.74533C24.3925 4.5225 24.0494 4.59681 23.7513 4.80086C23.816 4.0852 23.7134 3.33816 23.137 2.90085C23.137 2.90085 23.1066 2.87784 23.08 2.8815C23.103 2.85116 23.1223 2.79413 23.115 2.74077C23.0354 1.96339 23.0718 0.843868 22.167 0.587594C21.8285 0.498162 21.4734 0.682857 21.2627 0.929271C21.121 1.08465 21.0629 1.25572 20.8945 1.41477C20.8715 1.44511 20.8485 1.47546 20.8255 1.5058C20.7685 1.48645 20.7115 1.4671 20.6545 1.44775C20.019 1.37194 19.7381 1.89981 19.4804 2.39733C19.2456 2.86452 19.0641 3.32437 19.0271 3.84594C18.9094 3.78056 18.7723 3.7722 18.6123 3.79418C18.0825 3.89414 17.763 4.53606 17.5549 4.99957C17.3468 5.46309 17.3097 5.98467 17.406 6.48792C17.2119 6.46021 16.9985 6.48952 16.7391 6.57952C15.2967 7.15822 15.2101 9.10012 15.5074 10.4728C15.2029 10.4331 14.9168 10.5267 14.6454 10.7271C14.2056 11.0866 14.1785 11.8786 14.1148 12.4038C14.0353 13.0128 14.0093 13.6144 14.1432 14.194C13.7588 14.1653 13.3456 14.521 13.1422 14.8208C12.5586 15.7165 12.6205 16.9584 13.0108 18.0193C12.573 17.9979 12.0919 18.2543 11.9638 18.7068C11.5915 19.954 12.0672 21.4381 12.7159 22.5994C11.9444 22.3248 11.1264 22.8993 10.9383 23.9037C10.6477 25.5475 12.0585 27.3109 12.962 28.546C13.064 28.695 13.2434 28.616 13.3087 28.4983C13.3464 28.5747 13.3574 28.6547 13.3951 28.7311C12.962 28.546 12.4478 28.5622 11.9086 28.9896C11.7632 29.1184 11.6445 29.2434 11.6095 29.3841C10.818 28.5686 10.6955 27.2806 11.3251 26.3243C11.4825 26.0852 11.1221 25.8357 10.9647 26.0748C10.1583 27.3272 10.4085 28.951 11.5457 29.9094L11.5761 29.9324C11.6347 30.3593 11.9067 30.7568 12.1411 31.078C12.3415 31.3495 12.5915 31.587 12.8682 31.8208C12.3557 32.2446 12.3443 32.9529 12.6383 33.5106C13.004 34.1943 13.8749 34.4009 14.5867 34.439C14.6401 34.4317 14.6934 34.4244 14.7431 34.3904C14.7881 34.5201 14.8064 34.6535 14.8514 34.7832C14.9378 35.016 15.0774 35.2415 15.2668 35.4329C16.0643 38.6669 16.7698 42.0223 16.7138 45.3736C16.6805 47.3081 16.617 49.2197 16.443 51.1192C16.3579 52.0823 16.2461 53.0491 16.1343 54.0159C15.191 51.699 12.9365 50.3233 10.9875 48.7969C9.89159 47.9416 8.88307 47.1287 7.47504 46.9688C6.28773 46.8328 5.07068 47.2718 4.06966 47.8986C2.13667 49.0612 0.253536 51.5761 0.819761 53.9176C0.950067 54.4705 1.31311 54.9372 1.64582 55.3808C2.11454 56.0231 2.55659 56.6692 2.84592 57.3906C3.30425 58.5509 2.8133 59.9231 3.63407 60.9521C3.72875 61.0478 3.91914 61.0488 3.98451 60.9311C4.03053 60.8704 4.07288 60.7831 4.1189 60.7224C4.16858 60.6884 4.1916 60.658 4.21094 60.601C4.2533 60.5136 4.26898 60.4299 4.31133 60.3426C4.95765 59.1121 5.52027 57.8659 5.60012 56.4686C5.64758 55.4291 5.37495 54.4336 6.18294 53.5887C6.73048 53.0242 7.59241 52.7699 8.33197 52.6139L8.35864 52.6102C8.60562 53.419 8.77258 54.2387 8.88985 55.0925C8.99143 56.03 9.03967 56.9748 9.27464 57.8939C9.50593 58.7864 10.0317 59.4481 10.6871 60.0648C11.4979 60.8233 11.9776 61.5457 12.1582 62.6626C12.2938 63.6498 12.159 64.6469 12.2412 65.6414C12.3785 67.0361 12.8844 68.5432 14.3098 69.027C14.5075 69.0814 14.6189 68.903 14.6005 68.7696C14.872 68.5692 15.1664 68.3385 15.4342 68.1114C17.6543 66.6648 20.0418 65.2495 21.7471 63.2212C22.6325 62.1482 23.2751 60.891 23.6631 59.5601C23.8649 58.8528 24.04 58.1492 24.3291 57.4842C24.6837 56.7016 25.3682 56.1455 25.9691 55.5736C27.9596 53.642 28.8541 50.8552 29.3292 48.1803C29.6198 46.5366 29.7164 44.8652 29.8663 43.1864C29.9958 41.7551 30.1604 40.183 31.2968 39.1571C31.3548 38.986 31.1508 38.6878 30.9181 38.7742ZM30.1514 39.7221C30.1514 39.7221 30.1247 39.7258 30.1514 39.7221C30.1478 39.6955 30.1477 39.6955 30.1744 39.6918C30.1744 39.6918 30.1478 39.6955 30.1514 39.7221ZM19.2786 44.2601C19.2 43.2923 19.0948 42.3282 18.9628 41.3677C18.9335 41.1543 18.9005 40.9141 18.8445 40.7044C18.8675 40.674 18.8639 40.6474 18.8869 40.617C19.0301 39.4828 19.2873 38.3873 19.6245 37.2809C19.7212 36.9958 19.2954 36.864 19.1987 37.1491C18.9509 37.9171 18.7601 38.7044 18.6226 39.4844C18.53 39.0078 18.4143 38.5616 18.3217 38.085C18.2437 37.7152 18.1824 37.0712 17.8947 36.7573C18.64 36.2472 19.4982 35.9662 20.2775 35.5058C20.7917 35.4896 21.2985 35.4199 21.798 35.297C20.53 38.1351 19.8091 41.1971 19.2786 44.2601ZM14.4899 29.7768C14.4826 29.7234 14.4752 29.6701 14.4146 29.624C13.6911 28.9079 13.2872 27.5499 13.5323 26.5648C13.9093 25.1538 15.2961 27.138 15.5718 27.5623C15.7758 27.8604 15.9265 28.1659 16.0772 28.4714C15.9898 28.4291 15.9061 28.4134 15.8188 28.371C15.0619 28.2031 14.6954 29.0962 14.753 29.7135C14.7823 29.9269 14.8116 30.1403 14.8676 30.3501C14.7353 30.178 14.6259 29.9756 14.4899 29.7768ZM14.441 19.7257C15.2188 20.2441 15.7159 21.2903 15.9205 22.1864C15.9278 22.2398 15.9618 22.2895 15.9922 22.3125C15.8928 22.3805 15.8007 22.5019 15.7124 22.65C15.6047 22.855 15.5273 23.0831 15.5069 23.3306C15.2359 22.7426 14.8279 22.1462 14.3451 21.9951C14.1264 21.5902 13.9611 21.178 13.8454 20.7317C13.7298 20.2855 13.6365 19.211 14.441 19.7257ZM15.6804 13.7111C15.7854 13.2889 16.0819 12.6773 16.4977 12.5386C16.5547 12.558 16.6081 12.5507 16.6578 12.5167C16.8482 12.5177 17.0229 12.6024 17.2462 12.8436C17.5983 13.2301 17.8013 13.7187 17.8976 14.222L17.9013 14.2487C16.2866 13.5734 16.4966 16.2901 16.5998 17.6351C16.3555 17.0434 16.0045 16.4664 15.5447 16.2849C15.4771 15.3971 15.4666 14.5287 15.6804 13.7111ZM18.0188 9.36672C18.4022 9.58589 18.5859 10.1315 18.7742 10.5134C19.0039 10.9983 19.2336 11.4833 19.4899 11.9645C19.4596 11.9415 19.4063 11.9488 19.3759 11.9258C18.6494 11.781 18.2415 12.5709 18.0507 13.3583C17.7797 12.7703 17.3607 12.0939 16.8779 11.9428C16.9276 11.9087 16.9736 11.8481 16.9893 11.7644C17.065 11.1287 16.5385 8.48272 18.0188 9.36672ZM19.6028 7.24632C19.9804 6.43333 20.6305 6.61586 20.9732 7.32992C21.1919 7.73481 21.3222 8.28777 21.2511 8.75965C20.2715 8.94857 19.8229 10.2334 19.6081 11.2415C19.4124 10.8063 19.2204 10.3977 19.0017 9.99285C19.0514 9.95884 19.0671 9.87514 19.0597 9.82178C19.0524 9.76842 19.0451 9.71506 19.0377 9.6617C19.0571 9.60467 19.0764 9.54765 19.0424 9.49796C19.0388 9.47128 19.0351 9.4446 19.0351 9.4446C19.0052 8.63321 19.2907 7.94159 19.6028 7.24632ZM21.8511 4.81721C22.0708 5.03168 22.1257 5.43188 22.1927 5.7217C22.278 6.14491 22.3367 6.57179 22.4256 7.02169C22.2462 7.10069 22.0779 7.25974 21.9665 7.43814C21.8514 7.58986 21.7594 7.71123 21.6673 7.83261C21.4737 7.01652 20.972 6.13402 20.1681 6.21726L20.1644 6.19058C20.2445 6.17959 20.3208 6.14192 20.3328 6.03153C20.4729 5.46862 21.0559 3.97501 21.8511 4.81721ZM25.0797 16.2528C25.0603 16.3099 25.064 16.3365 25.0676 16.3632C24.9453 16.4616 24.8192 16.5333 24.6968 16.6316C24.3297 16.9267 23.9893 17.2181 23.7471 17.6319C23.9039 16.7949 23.9938 15.668 23.5737 15.1821C23.8472 14.6008 24.7006 13.0973 25.1876 13.8731C25.6103 14.5761 25.3992 15.6109 25.0797 16.2528ZM25.2762 23.6197C25.1638 23.9885 24.884 24.326 24.6843 24.6524C24.3062 24.8675 23.9924 25.1552 23.6822 25.4696C23.3031 25.8751 23.129 26.3883 22.8069 26.8131L22.7802 26.8168C23.005 26.0791 23.1388 25.2724 23.0895 24.5181C23.0712 24.3847 23.0225 24.2283 22.9242 24.1059C23.2557 23.3536 23.8487 22.1304 24.8006 22.1356C25.5355 22.1434 25.408 23.1938 25.2762 23.6197ZM22.4804 30.1743C22.5301 30.1403 22.5531 30.11 22.6028 30.076C23.0572 29.8233 23.5144 29.7877 23.8011 30.2919C24.5141 31.526 23.0069 32.8203 21.9096 32.9439C21.8426 32.6541 21.7259 32.3982 21.4759 32.1608C21.2902 31.996 21.0888 31.9149 20.8948 31.8872C21.1635 31.4697 21.7655 30.7075 22.381 30.2423C22.404 30.212 22.427 30.1817 22.4804 30.1743ZM20.0892 35.1239C19.4736 35.5891 18.7414 35.7984 18.0578 36.1641C18.2183 35.3537 18.5195 34.5784 18.965 33.8648C19.4069 33.1245 21.0312 31.2976 21.4865 33.0292C21.7214 33.9483 20.7314 34.6552 20.0892 35.1239ZM16.8625 18.3601C16.9692 18.3455 17.0722 18.3041 17.0539 18.1707C17.012 17.4697 16.9397 16.7457 16.9244 16.041C16.9035 15.6905 16.9625 15.329 17.0519 14.9906C17.3118 14.1122 18.0912 15.0381 18.2869 15.4733C18.9042 16.8021 19.2428 18.2778 19.334 19.7332C19.345 19.8132 19.379 19.8629 19.4094 19.8859C19.2703 20.2584 19.1882 20.6503 19.1098 21.0688C18.9748 20.6796 18.8168 20.3207 18.6321 19.9655C18.3795 19.5109 17.9128 18.4877 17.2883 18.4919C17.1512 18.4836 17.0179 18.5019 16.9148 18.5432C16.9002 18.4365 16.8928 18.3831 16.8625 18.3601ZM21.9349 9.78025C21.9642 9.99369 21.9935 10.2071 22.0192 10.3939C22.0888 10.9008 22.1317 11.4114 22.148 11.9256C21.8923 12.0423 21.6658 12.3724 21.5278 12.5545C21.1863 13.0363 21.0499 13.6259 21.0505 14.2239C20.9934 14.2045 20.9097 14.1888 20.8297 14.1998C21.0932 13.3481 20.5952 12.4923 19.8357 12.1073C19.8854 12.0733 19.9277 11.9859 19.9167 11.9059C19.9131 11.8792 19.9397 11.8756 19.9361 11.8489C20.0625 10.9888 20.3501 9.91637 21.0007 9.31053C21.3871 8.95843 21.8459 9.33035 21.9349 9.78025ZM23.1379 18.3408C22.618 18.7112 22.2028 19.4479 21.9404 20.1091C21.8937 19.5719 21.7634 19.0189 21.5218 18.6444C21.5981 18.6067 21.6745 18.569 21.6865 18.4586C21.8286 17.5149 22.1345 16.5758 22.6187 15.7482C22.8415 15.3914 23.2903 15.4928 23.3719 15.8894C23.4389 16.1792 23.4295 16.5067 23.4165 16.8075C23.4097 17.3521 23.289 17.858 23.1379 18.3408ZM20.6747 28.9001C20.603 28.774 20.535 28.6746 20.444 28.6056C20.3958 27.6608 20.5452 26.7704 20.9191 25.9307C20.9421 25.9004 20.9651 25.87 20.9615 25.8433C21.0425 25.6419 21.1502 25.4369 21.2616 25.2585C21.3693 25.0534 21.5074 24.8713 21.6454 24.6893C21.8572 24.2524 22.2076 24.2315 22.6434 24.6337C22.6727 24.8472 22.645 25.0413 22.6173 25.2353C22.5536 25.7606 22.4631 26.2895 22.3157 26.799C21.992 26.8163 21.6865 26.967 21.4188 27.1941C20.9559 27.5838 20.7771 28.2608 20.6747 28.9001ZM19.6712 18.6267C19.5864 17.4151 19.5512 16.1695 20.2498 15.1222C20.3455 15.0275 20.4375 14.9061 20.5066 14.8151C21.1844 14.8035 21.4648 15.064 21.3744 15.5929C21.3844 15.8634 21.3373 16.1145 21.3206 16.3886C21.2715 17.0206 21.2491 17.6489 21.2 18.2808C21.2037 18.3075 21.2074 18.3342 21.211 18.3608C21.2147 18.3875 21.2147 18.3875 21.1917 18.4179C21.0133 18.3065 20.7889 18.2557 20.5258 18.319C20.1027 18.4044 19.88 18.7611 19.6875 19.141C19.7152 18.9469 19.6932 18.7868 19.6712 18.6267ZM20.6534 22.2159C20.4641 22.0245 20.202 21.8974 19.8443 21.8649C19.7072 21.8566 19.6005 21.8712 19.4708 21.9162C19.5173 21.0672 19.7044 20.2532 20.0323 19.4742C20.1096 19.2461 20.244 19.0373 20.4088 18.8516C20.6671 18.952 20.9486 19.0221 21.2069 19.1225C21.286 19.302 21.3383 19.4851 21.3639 19.6718C21.4712 20.2551 21.5022 20.8761 21.4761 21.4777C21.4034 21.5421 21.3307 21.6064 21.258 21.6708C21.0363 21.8371 20.8108 21.9768 20.6534 22.2159ZM19.0189 25.9471C18.887 24.9866 18.7555 23.2378 19.4411 22.4912C20.1497 21.7143 20.5473 22.8285 20.5986 23.202C20.639 23.4955 20.6333 23.8497 20.6202 24.1505C20.6292 24.6114 20.5811 25.0529 20.533 25.4944C20.2015 26.2467 20.0181 27.0875 19.9873 27.8528C19.9223 27.1821 19.7627 26.4158 19.1936 26.0318C19.1633 26.0088 19.1026 25.9628 19.0189 25.9471ZM22.4921 23.7303C22.3477 23.6686 22.184 23.6639 22.0313 23.7392C21.6762 23.9239 21.3624 24.2116 21.1093 24.5454C21.1547 23.8868 21.1661 23.1785 20.9595 22.6632C20.9955 22.332 21.2246 22.219 21.473 22.049C21.7445 21.8486 22.1586 21.3024 22.542 21.5216C22.8648 21.6947 22.8424 22.323 22.8293 22.6238C22.8006 23.0083 22.6615 23.3808 22.4921 23.7303ZM23.0799 14.9509C23.0836 14.9776 23.0569 14.9812 23.0799 14.9509C22.5355 14.9441 22.182 15.5363 21.9932 15.9428C21.9278 16.0605 21.8891 16.1746 21.8504 16.2886C21.8598 15.9612 21.8692 15.6337 21.8252 15.3135C21.7812 14.9934 21.6876 14.7072 21.4945 14.4891C21.4909 14.4624 21.4909 14.4624 21.5139 14.432C21.4856 14.0282 21.541 13.64 21.7067 13.2639C21.8688 12.861 22.2804 12.0977 22.7381 12.6601C23.2298 13.2721 23.3011 14.1866 23.0799 14.9509ZM20.1664 12.9318C20.4274 13.2493 20.5164 13.6992 20.404 14.068C20.3883 14.1517 20.3993 14.2318 20.4333 14.2815C20.0055 14.5305 19.6823 15.1457 19.5166 15.5219C19.3471 15.8714 19.2614 16.2365 19.2327 16.621C19.1877 16.4913 19.1464 16.3882 19.128 16.2548C18.9517 15.7626 18.7351 14.9768 18.3187 14.5175C18.315 14.4909 18.3077 14.4375 18.3307 14.4072C18.3537 14.3768 18.373 14.3198 18.362 14.2398C18.3584 14.2131 18.3547 14.1864 18.3511 14.1597C18.4075 13.5811 18.6009 13.0109 18.9691 12.5254C19.2802 12.0205 19.9393 12.6639 20.1664 12.9318ZM17.586 19.0762C17.6806 19.172 17.7523 19.298 17.8203 19.3974C18.4287 20.2653 18.8311 21.2158 19.0007 22.2527C18.5865 22.7988 18.4783 23.7923 18.5156 24.657C18.2906 24.0084 17.9589 23.3743 17.5545 22.8047C17.3165 22.4568 16.9524 22.1806 16.591 22.1215C16.6104 22.0645 16.603 22.0111 16.569 21.9614C16.332 21.4231 16.2357 20.9199 16.2654 20.345C16.2821 20.0708 16.3522 19.7894 16.4526 19.5309C16.5807 19.0784 16.9661 18.9167 17.586 19.0762ZM15.9714 23.3483C15.9514 22.8074 16.3102 22.6494 17.055 22.9276C17.2747 23.1421 17.3951 23.4246 17.5384 23.6768C17.9611 24.3798 18.2348 25.1849 18.3751 26.0083C18.0926 26.1287 17.8249 26.3557 17.6371 26.5718C17.361 26.9359 17.2329 27.3885 17.1618 27.8603C16.8442 26.7351 16.2939 25.6962 16.0296 24.5636C15.9479 24.1671 15.9463 23.7595 15.9714 23.3483ZM17.4923 30.8595C17.455 29.9947 17.4941 29.0923 17.5939 28.2359C17.6577 27.7107 17.7858 27.2582 18.0509 26.814C18.362 26.3091 18.7658 26.2809 19.2926 26.7522C19.3752 26.9583 19.4276 27.1414 19.4835 27.3512C19.5809 27.664 19.6018 28.0145 19.6458 28.3346C19.6495 28.3613 19.6531 28.388 19.6568 28.4147C19.6035 28.422 19.5501 28.4293 19.5004 28.4633C18.3754 28.781 17.8798 30.317 17.7356 31.6416C17.6419 31.3554 17.5556 31.1226 17.4923 30.8595ZM18.1139 32.8128C17.9976 31.7687 18.2899 30.5325 18.7631 29.6248C18.9519 29.2183 19.296 28.9535 19.7384 28.8112C20.3907 28.6129 20.4572 29.6911 20.4782 30.0416C20.5274 30.796 20.2226 31.5446 19.8764 32.1902C19.6013 32.3639 19.3639 32.614 19.1725 32.8033C18.797 33.2355 18.4859 33.7403 18.2318 34.2645C18.1768 33.8643 18.1181 33.4375 18.0365 33.0409C18.1092 32.9766 18.1285 32.9196 18.1139 32.8128ZM23.0827 28.6237C22.9316 29.1066 22.6022 29.478 22.2387 29.7998C21.6425 30.2079 21.0793 30.8561 20.7341 31.3112C20.9045 30.7713 20.9876 30.1891 20.9033 29.5754C20.9834 29.5645 21.0561 29.5001 21.0681 29.3897C21.1679 28.5333 21.4114 27.1407 22.5611 27.2003C23.3299 27.2578 23.2301 28.1141 23.0827 28.6237ZM24.0108 21.7276C23.9914 21.7846 23.9721 21.8416 24.0061 21.8913C23.731 22.065 23.4705 22.3455 23.2671 22.6452C23.3355 21.9562 23.2099 21.2395 22.5294 21.034C22.3584 20.9759 22.202 21.0246 22.0456 21.0733C22.1967 20.5904 22.4085 20.1536 22.6469 19.7131C22.7777 19.4776 23.7791 18.0625 24.0914 18.7535C24.5471 19.6967 24.4306 20.8272 24.0108 21.7276ZM23.6248 14.1693C23.6446 13.3239 23.3636 12.4654 22.6732 11.9894C22.6962 11.9591 22.6925 11.9324 22.7155 11.902C22.7782 11.5672 22.9016 11.2784 23.048 10.9593C23.2828 10.4921 23.9988 9.76859 24.3901 10.6391C24.7365 11.3798 24.735 12.3586 24.6849 13.181C24.3188 13.2856 23.9166 13.7214 23.6248 14.1693ZM23.8241 9.68385C23.2869 9.73044 22.7954 10.5047 22.5292 11.1393C22.4899 10.6554 22.424 10.1752 22.3617 9.72162C22.3067 9.32142 22.0843 8.88984 21.7156 8.7774C21.7119 8.75072 21.7083 8.72404 21.7349 8.72038C21.8013 8.41224 21.9357 8.2035 22.1198 7.96075C22.4456 7.56261 22.7254 7.22517 23.2568 7.53274C23.963 7.92504 23.8888 8.96818 23.8241 9.68385ZM15.652 16.8682C15.7807 17.0136 15.8827 17.1627 15.9617 17.3422C16.184 17.7737 16.3567 18.2393 16.5257 18.6782C15.9562 19.0826 15.7994 19.9197 15.8293 20.7311C15.7576 20.605 15.6823 20.4522 15.5839 20.3298C15.6033 20.2728 15.5959 20.2195 15.5619 20.1698C15.1052 19.417 14.8086 18.6422 14.718 17.7848C14.685 17.5447 14.7054 17.2973 14.7561 17.0728C15.0422 16.9792 15.3586 16.9085 15.652 16.8682ZM14.8834 23.1444C15.1591 23.5686 15.3585 24.0305 15.5008 24.4731C15.5348 24.5228 15.5688 24.5725 15.5991 24.5955C15.6734 24.9387 15.7708 25.2515 15.8608 25.511C16.2354 26.6556 16.8161 27.7175 16.9277 28.9255C16.9387 29.0055 16.9727 29.0552 17.06 29.0976C17.0553 29.2613 17.0506 29.4251 17.0423 29.5621C17.001 29.4591 16.933 29.3597 16.8916 29.2566C16.888 29.2299 16.9073 29.1729 16.8733 29.1232C16.5766 28.3485 15.6553 26.1916 14.5307 25.7209C14.1043 24.9911 13.7083 24.2844 13.591 23.4306C13.5167 23.0875 13.6061 22.749 13.8095 22.4492C14.2384 22.0097 14.7474 22.9456 14.8834 23.1444ZM16.0211 31.8227C15.6544 31.3294 15.4367 30.7341 15.2724 30.1314C15.2018 29.8149 15.1881 29.5178 15.2545 29.2096C15.699 28.6865 16.0871 28.7419 16.3848 29.3262C16.5208 29.525 16.6108 29.7845 16.6971 30.0173C17.3548 31.6395 17.7264 33.3554 17.8846 35.1005C17.8229 35.2449 17.7878 35.3857 17.7565 35.5531C17.5906 34.5429 17.3676 33.5134 16.8962 32.6539C16.7456 32.3484 16.4008 32.0152 16.0211 31.8227ZM22.4946 34.6304C22.0327 34.8298 21.5066 34.9564 20.9694 35.003C21.1378 34.844 21.3062 34.6849 21.4443 34.5029C21.7204 34.1387 21.8825 33.7359 21.9342 33.3211C21.9609 33.3174 21.9876 33.3137 22.0142 33.3101C22.6848 33.2451 23.292 32.9171 23.7401 32.4206C23.8224 33.4151 23.4218 34.2584 22.4946 34.6304ZM25.7803 30.455C25.5261 30.9792 24.7668 31.9806 24.0586 31.9691C24.3624 31.4109 24.4575 30.7182 24.1755 30.0502C24.1305 29.9205 24.0589 29.7944 23.9909 29.695C24.5374 29.3209 25.1226 28.8328 25.5938 28.306C26.2456 28.896 26.1191 29.7561 25.7803 30.455ZM26.1051 26.6863C25.5958 27.9251 24.7198 28.6707 23.6535 29.4152C23.5091 29.3534 23.3417 29.3221 23.155 29.3477C23.6466 28.5734 23.9644 27.524 23.2133 27.002C23.6541 26.4521 23.8936 25.8212 24.4485 25.31C24.9537 24.8329 26.0023 24.5529 26.264 25.4684C26.4026 25.8843 26.2478 26.3405 26.1051 26.6863ZM26.6964 25.0556C26.6698 25.0593 26.6164 25.0666 26.5898 25.0703C26.3637 24.612 25.8166 24.3881 25.3061 24.4311C25.5252 24.0476 25.7334 23.5841 25.8081 23.1389C25.8348 23.1352 25.8844 23.1012 25.9075 23.0709C26.2139 22.7298 26.5167 22.362 26.7892 21.9712C28.0575 21.9057 27.1112 25.1074 26.6964 25.0556ZM26.6322 21.4219C26.4131 21.8054 26.1103 22.1731 25.8038 22.5143C25.7368 22.2244 25.5668 21.976 25.2441 21.8028C25.0087 21.6721 24.7843 21.6213 24.5976 21.647C24.8951 20.845 26.0507 18.3757 26.8882 19.1305C27.4866 19.7279 26.9397 20.8903 26.6322 21.4219ZM26.6512 18.5922C25.932 18.5007 25.273 19.2436 24.8155 20.0676C24.8082 20.0142 24.8238 19.9305 24.8165 19.8772C24.7699 19.3399 24.6683 18.4025 24.0945 18.1823C24.0678 18.1859 24.0375 18.1629 24.0108 18.1666C24.2466 17.509 24.8392 17.0742 25.4124 16.6964C25.9626 16.349 26.4103 16.6409 26.6703 17.1489C26.889 17.5538 26.7526 18.1433 26.6512 18.5922ZM27.3749 13.5726C27.3735 14.5514 27.0106 15.4711 26.4317 16.203C26.314 16.1377 26.2 16.099 26.0593 16.0639C25.9186 16.0289 25.7585 16.0509 25.6252 16.0692C25.942 15.2102 26.0402 13.9462 25.3047 13.3405C25.5092 12.8503 25.812 12.4825 26.2591 12.1764C27.2601 11.5496 27.3623 13.0851 27.3749 13.5726ZM25.8926 9.50845C26.0789 10.2712 25.9985 11.0705 25.8004 11.8045C25.781 11.8615 25.7883 11.9149 25.8223 11.9646C25.5776 12.1613 25.3402 12.4114 25.1598 12.6808C25.1842 11.6717 25.0763 10.4904 24.3942 9.87737C24.4376 9.59958 24.4809 9.32179 24.6347 9.05602C24.9228 8.58151 25.2769 8.58724 25.7467 9.0392C25.822 9.19195 25.8707 9.34837 25.8926 9.50845ZM24.8858 5.54207C25.2782 6.22212 25.1837 7.51272 24.9018 8.23101C24.8788 8.26135 24.8825 8.28803 24.8862 8.31471C24.7831 8.35604 24.7068 8.39372 24.6074 8.46174C24.4584 8.56376 24.3627 8.65845 24.2743 8.8065C24.2177 7.99878 23.921 7.22403 23.0428 6.96409C22.9858 6.94474 22.9288 6.92539 22.8754 6.93272C22.8754 6.93272 22.8754 6.93272 22.8718 6.90604C22.9722 6.6476 23.1996 6.12706 23.4987 5.73259L23.5218 5.70224C23.9323 5.12938 24.4558 4.78564 24.8858 5.54207ZM23.177 5.36903C23.0196 5.60812 22.8659 5.87388 22.7352 6.10931C22.6289 5.33559 22.4279 4.46614 21.8238 4.22292C21.8745 3.99849 21.9519 3.7704 22.0062 3.57265C22.1694 2.97939 22.7285 3.09288 23.0502 3.45644C23.4096 3.89637 23.2941 4.83646 23.177 5.36903ZM21.4777 1.30749C21.6738 0.954352 22.0812 0.952753 22.3386 1.2436C22.6566 1.58048 22.6149 2.2658 22.6505 2.72302C22.4298 2.69897 22.1897 2.73195 21.9873 2.8413C21.9376 2.87531 21.888 2.90931 21.8649 2.93966C21.8466 2.80626 21.8016 2.67652 21.753 2.5201C21.663 2.26063 21.4553 1.93578 21.1786 1.70196C21.2439 1.58425 21.4123 1.4252 21.4777 1.30749ZM20.0222 2.18699C20.418 1.5074 21.0578 2.20784 21.2765 2.61274C21.4952 3.01763 21.5041 3.47852 21.3724 3.90437C21.3567 3.98807 21.364 4.04143 21.398 4.09112C21.4017 4.1178 21.375 4.12147 21.3787 4.14815C20.7008 4.15971 20.294 4.75925 20.0315 5.42052C19.9645 5.13071 19.8442 4.84822 19.7008 4.59608C19.6255 4.44333 19.5235 4.29424 19.3948 4.14881C19.4062 3.44048 19.6457 2.80956 20.0222 2.18699ZM18.2578 4.57682C18.7603 3.88258 19.2777 4.68138 19.5001 5.11296C19.6884 5.49484 19.7507 5.94839 19.7256 6.35958C19.3512 6.6013 19.2001 7.08417 19.015 7.51734C18.8879 7.77945 18.7912 8.06457 18.7175 8.31934C18.5228 7.69368 18.2712 7.04867 17.8694 6.6961C17.6601 5.96372 17.8012 5.21038 18.2578 4.57682ZM16.4463 7.21777C17.2046 6.40685 17.995 7.41279 18.2274 8.11483C18.332 8.48102 18.4063 8.82419 18.511 9.19038C18.2573 8.92622 17.9042 8.73007 17.4968 8.73167C16.2441 8.71345 16.521 10.3336 16.5425 11.282C16.4562 11.0493 16.3202 10.8505 16.0848 10.7197C16.0278 10.7004 15.9938 10.6507 15.9368 10.6313C15.6495 9.52906 15.5923 8.12339 16.4463 7.21777ZM14.5232 12.2118C14.5823 11.8503 14.6147 11.4925 14.8144 11.166C15.0822 10.939 15.3416 10.849 15.5963 10.9227C15.634 10.9991 15.7177 11.0148 15.8014 11.0305C15.862 11.0765 15.9227 11.1225 15.9567 11.1722C16.1728 11.36 16.2434 11.6765 16.2837 11.97C16.2341 12.004 16.1844 12.038 16.1117 12.1024C15.2393 12.8746 15.0502 14.0695 15.044 15.212C14.931 14.9829 14.8217 14.7804 14.659 14.5853C14.3357 13.8142 14.4161 13.0148 14.5232 12.2118ZM13.3876 15.222C13.7307 15.1477 14.0738 15.0734 14.4132 14.9724C14.4849 15.0985 14.5602 15.2513 14.6319 15.3773C14.7826 15.6828 14.8762 15.969 14.8669 16.2965C14.7905 16.3341 14.7141 16.3718 14.6414 16.4362C14.1446 16.7762 14.2545 17.5766 14.3242 18.0836C14.3828 18.5104 14.4948 18.93 14.6601 19.3422C14.4818 19.2308 14.2804 19.1497 14.09 19.1487C14.09 19.1487 14.09 19.1487 14.0863 19.122C13.9697 18.8662 13.7886 18.5377 13.5653 18.2965C13.2979 17.7352 13.1603 17.1289 13.1524 16.4776C13.1471 16.0434 13.2522 15.6212 13.3876 15.222ZM12.2385 19.3215C12.2305 18.6702 12.5857 18.4855 13.2661 18.691C13.3755 18.8935 13.4848 19.0959 13.6172 19.268C13.3991 19.4611 13.3134 19.8262 13.3233 20.0967C13.3046 20.7516 13.5599 21.4233 13.8539 21.981C13.7509 22.0223 13.6479 22.0637 13.5485 22.1317C13.3498 22.2677 13.2651 22.4425 13.2144 22.6669C12.8597 22.0632 12.608 21.4182 12.429 20.7088C12.2867 20.2663 12.2474 19.7823 12.2385 19.3215ZM11.6896 25.8121C11.4599 25.3272 11.3563 24.7706 11.3097 24.2333C11.2624 23.0981 12.4151 22.5864 13.0649 23.5573C13.0989 23.607 13.1292 23.63 13.1559 23.6263C13.1632 23.6797 13.1705 23.733 13.1779 23.7864C13.2732 24.4801 13.6012 25.0874 13.9559 25.6911C13.7958 25.7131 13.6164 25.7921 13.4407 25.8978C12.8482 26.3326 12.8661 27.2543 13.124 28.1431C12.5873 27.4013 12.0773 26.6559 11.6896 25.8121ZM14.5244 33.9855C13.98 33.9787 13.4438 33.8349 13.0348 33.4289C12.6864 33.0691 12.7088 32.4408 13.0759 32.1457C13.0989 32.1153 13.1256 32.1117 13.1219 32.085C13.543 32.3805 14.0101 32.6154 14.4929 32.7665C14.4375 33.1547 14.4695 33.5853 14.5511 33.9818C14.5548 34.0085 14.5548 34.0085 14.5244 33.9855ZM14.8668 31.9269C14.748 32.0519 14.6863 32.1963 14.6246 32.3407C14.1079 32.1398 13.6408 31.905 13.1857 31.5597C12.6432 31.1721 11.4877 30.0804 12.1733 29.3339C12.951 28.4659 14.0218 29.7324 14.3801 30.3627C14.6328 30.8173 14.8625 31.3022 15.1152 31.7568C15.0121 31.7982 14.9395 31.8625 14.8668 31.9269ZM14.9914 32.834C15.0498 31.8745 16.0227 32.2302 16.4124 32.6932C16.7341 33.0567 16.8414 33.64 16.9874 34.1093C17.1627 34.792 17.315 35.505 17.414 36.2253C16.8595 35.9481 16.3281 35.6405 15.7893 35.2796C14.9545 34.7419 14.9486 33.7097 14.9914 32.834ZM15.7596 35.8546C16.2643 36.1658 16.8418 36.4127 17.2519 36.6282C17.2822 36.6512 17.3356 36.6439 17.3659 36.6669C17.3006 36.7846 17.3565 36.9944 17.5239 37.0257C17.8017 37.0691 18.1288 39.2532 18.1728 39.5734C18.3398 40.3931 18.48 41.2166 18.5936 42.0436C18.7989 43.5377 18.8974 45.0464 18.9159 46.5662C18.5114 49.5575 18.2974 52.5499 18.1137 55.5653C17.6985 56.3019 17.1922 56.9695 16.6897 57.6637C16.3482 58.1455 16.0601 58.6201 15.8023 59.1176C15.8817 58.5086 15.9611 57.8997 16.0442 57.3174C16.1393 56.6248 16.2308 55.9055 16.3259 55.2128C16.3222 55.1861 16.3452 55.1558 16.3416 55.1291C16.4967 53.8846 16.6483 52.6133 16.7768 51.3724C16.97 49.4158 17.0263 47.4509 17.0825 45.486C17.1459 42.1881 16.5121 38.9588 15.7596 35.8546ZM15.9001 55.081C15.8207 55.69 15.7413 56.2989 15.6618 56.9078C15.4596 58.4035 15.3144 59.9185 14.9715 61.3792C14.9485 61.4095 14.9558 61.4629 14.9328 61.4932C14.8568 60.7425 14.7542 59.9955 14.6213 59.2254C14.3994 58.0055 13.5242 57.1743 13.1726 55.9993C12.63 54.2254 13.1433 52.2249 12.4517 50.553C14.0026 51.7535 15.4579 53.0486 15.9001 55.081ZM5.05852 54.5043C4.87769 55.5621 5.10064 56.5916 4.86645 57.6567C4.84711 57.7137 4.83142 57.7974 4.81208 57.8545C4.83142 57.7974 4.82409 57.7441 4.84344 57.6871C4.97826 56.6899 4.7156 55.9649 4.16421 55.1164C3.37846 53.9467 3.57497 52.8052 4.36932 51.6631C5.00993 50.7868 5.98793 50.1904 7.04025 49.9371C7.06692 49.9334 7.09359 49.9298 7.1166 49.8994C7.53931 50.6025 7.85898 51.3469 8.12897 52.1253C6.87058 52.4613 5.29842 53.085 5.05852 54.5043ZM12.5622 64.0207C12.5626 63.2323 12.552 62.3639 12.2857 61.6122C11.9781 60.7574 11.4136 60.2097 10.7582 59.593C9.22759 58.145 9.39052 56.1654 9.10366 54.2748C8.81679 52.3842 8.05345 50.5862 6.99201 48.9923C6.82565 48.7705 6.44387 48.9589 6.58355 49.1843C6.65522 49.3104 6.75356 49.4328 6.82523 49.5589C5.01035 49.9984 3.51778 51.3995 3.14981 53.2713C2.91929 54.3632 3.6804 55.1557 4.15543 56.0418C4.77381 57.1801 4.20446 58.9709 3.74486 60.1757C3.69884 60.2364 3.68316 60.3201 3.63714 60.3808C3.22279 59.5407 3.44598 58.3955 3.18434 57.48C2.87771 56.4348 2.18928 55.5779 1.5542 54.7138C-0.0863275 52.4654 2.19897 49.5147 4.12097 48.2721C5.06863 47.6527 6.19364 47.335 7.31661 47.3983C8.71365 47.4782 9.80483 48.4972 10.8437 49.3331C11.0561 49.4942 11.2684 49.6553 11.4808 49.8164C12.9147 51.5495 12.1969 54.0402 12.7191 56.0616C13.0027 57.1372 13.8439 57.9187 14.1312 59.0209C14.4295 60.2032 14.5217 61.4681 14.6066 62.6797C14.2647 63.9499 13.9264 65.2468 13.6112 66.5134C13.5411 66.7948 13.9669 66.9266 14.037 66.6452C14.3208 65.546 14.6047 64.4469 14.9116 63.3174C15.0183 63.3028 15.0946 63.2651 15.103 63.128C15.0847 62.9946 15.093 62.8576 15.0747 62.7242C15.1484 62.4694 15.1991 62.245 15.2728 61.9902C15.6848 60.4385 16.1564 59.1233 17.1155 57.7955C17.5913 57.1049 18.0976 56.4374 18.5431 55.7238C18.5928 55.6898 18.6158 55.6594 18.6351 55.6024C18.8119 55.3063 18.962 55.0138 19.1084 54.6947C19.6673 53.4219 19.9182 52.0826 20.6482 50.8678C21.4473 49.562 22.6726 48.9859 23.9257 48.2158C25.0261 47.521 25.5804 46.4119 26.1007 45.2531C26.9912 43.2279 28.0683 41.1771 29.846 39.8728C28.2823 41.7458 27.8239 44.1465 27.3546 46.4672C27.1037 47.8065 26.8491 49.119 26.4005 50.4039C25.8902 51.8332 25.0692 52.9789 24.0201 54.0472C23.0207 55.0816 22.0747 56.1085 21.3483 57.35C20.5723 58.6255 20.2524 60.0558 19.8221 61.474C19.0353 64.0558 17.1589 66.0261 15.1051 67.6945C14.9064 67.8306 14.681 67.9702 14.4822 68.1063C14.4059 68.1439 14.3865 68.201 14.3672 68.258C14.2908 68.2957 14.2448 68.3564 14.1685 68.394C14.1685 68.394 14.1418 68.3977 14.1454 68.4244C12.5041 67.7528 12.5273 65.5477 12.5622 64.0207ZM29.4827 41.5809C29.1738 43.0912 29.1729 44.668 29.0047 46.2134C28.6876 49.2471 28.0007 52.3588 25.9926 54.7549C25.1302 55.7976 24.1062 56.4547 23.6079 57.7736C23.3491 58.4615 23.2007 59.1615 22.9722 59.8725C22.7207 60.6138 22.3552 61.3164 21.9593 61.996C20.8491 63.8066 19.0752 65.1376 17.2562 66.3389C18.2556 65.3046 19.107 64.1819 19.7386 62.8447C20.3896 61.4505 20.5845 59.9014 21.2088 58.5109C21.9179 56.9456 23.048 55.6758 24.2425 54.4788C25.1498 53.5659 25.8861 52.5949 26.4331 51.4324C26.9764 50.2433 27.2612 48.9537 27.5195 47.6678C27.9852 45.3204 28.3222 42.8276 29.6772 40.8202C29.5998 41.0483 29.5527 41.2995 29.4827 41.5809Z" fill="white" stroke="white"/>
</g>
<defs>
<clipPath id="clip0">
<rect width="32" height="70" fill="white"/>
</clipPath>
</defs>
</svg>
