<svg width="52" height="52" viewBox="0 0 52 52" fill="none" xmlns="http://www.w3.org/2000/svg">
<g clip-path="url(#clip0)">
<path d="M2.58364 25.9769C2.12154 25.9876 1.74949 26.3592 1.73799 26.8213C1.73283 27.0311 1.64557 32.0099 4.74934 35.1136C6.32363 36.5757 8.29735 37.536 10.4194 37.8719V39.806C9.45398 39.2499 8.41753 38.8278 7.33826 38.5522C6.36449 38.2932 5.36374 38.15 4.35665 38.1258C2.92119 38.1258 1.75702 39.2895 1.75702 40.725C1.75702 42.1573 2.91524 43.3195 4.34713 43.3246C6.03566 43.3885 7.6528 44.0227 8.93437 45.1242C9.98469 46.2844 10.5214 47.8203 10.4222 49.3822V49.3902C10.4162 50.8256 11.5756 51.9942 13.0111 52.0001C14.447 52.0057 15.6151 50.8467 15.6211 49.4108C15.6211 49.4041 15.6211 49.3977 15.6211 49.3902C15.6211 49.3822 15.6211 49.3545 15.6211 49.3362V37.866C17.7376 37.528 19.7061 36.5689 21.2765 35.1105C24.3794 32.0067 24.2922 27.0276 24.2866 26.8181C24.2755 26.3564 23.9039 25.9848 23.4422 25.9733C23.2434 25.9654 18.7328 25.8936 15.6211 28.5563V26.625C17.7376 26.287 19.7061 25.3279 21.2765 23.8695C24.3794 20.7657 24.2922 15.7866 24.2866 15.5764C24.2759 15.1135 23.9031 14.741 23.4402 14.7303C23.2418 14.7303 18.7308 14.6518 15.6195 17.3145V15.3606C17.736 15.0226 19.7045 14.0635 21.2749 12.6051C24.3778 9.5013 24.2902 4.52218 24.285 4.31196C24.2739 3.84986 23.9023 3.47741 23.4402 3.4663C21.1158 3.46511 18.8303 4.06207 16.8031 5.19926C16.1042 3.33898 15.0185 1.64847 13.6176 0.239179C13.2828 -0.0797262 12.7565 -0.0797262 12.4221 0.239179C11.0195 1.65045 9.93352 3.34374 9.23582 5.2068C7.20419 4.06643 4.91355 3.4671 2.58364 3.4663C2.12154 3.47701 1.74909 3.84947 1.73799 4.31196C1.73283 4.52218 1.64557 9.5013 4.74934 12.6051C6.32363 14.0671 8.29814 15.0274 10.4202 15.363V17.3299C7.30811 14.6534 2.78117 14.7303 2.58364 14.7303C2.12154 14.7414 1.74909 15.1139 1.73799 15.5764C1.73283 15.7866 1.64557 20.7657 4.74934 23.8695C6.32363 25.3315 8.29814 26.2918 10.4202 26.6274V28.5737C7.30811 25.8979 2.778 25.9713 2.58364 25.9769ZM3.511 27.7459C4.93616 27.8629 7.77338 28.3345 9.6519 30.2123C11.5304 32.0896 11.9965 34.9268 12.1159 36.3548C10.6899 36.2377 7.8539 35.7673 5.97537 33.8888C4.09685 32.0099 3.63039 29.1738 3.511 27.7459ZM13.0198 50.2565C12.5435 50.2565 12.1563 49.8717 12.1532 49.3953V49.3902C12.2638 47.3649 11.5443 45.3821 10.1604 43.899C8.55715 42.4719 6.50212 41.6552 4.35665 41.5917C4.12422 41.5921 3.9017 41.4981 3.73987 41.3319C3.57645 41.1724 3.48641 40.9531 3.48998 40.725C3.48998 40.2467 3.8779 39.8587 4.35665 39.8587C5.21778 39.8833 6.07335 40.0083 6.90591 40.2304C8.30965 40.5719 9.62215 41.2137 10.7538 42.1117C10.9739 42.285 11.1873 42.4818 11.3864 42.6749C13.09 44.4642 13.9924 46.8699 13.8861 49.3382V49.3902C13.8861 49.8685 13.4982 50.2565 13.0198 50.2565ZM13.8861 43.0188C13.5137 42.4481 13.0829 41.9173 12.6006 41.4358C12.4514 41.2918 12.3023 41.155 12.1532 41.0233V38.0964C12.5094 38.1206 12.7791 38.1258 12.9246 38.1258H13.098C13.2451 38.1258 13.5196 38.1206 13.8837 38.0952L13.8861 43.0188ZM22.5156 27.7479C22.3986 29.1738 21.9274 32.0099 20.0496 33.8888C18.1719 35.7673 15.3351 36.2334 13.9071 36.3528C14.0242 34.9276 14.4946 32.0908 16.3731 30.2123C18.2516 28.3333 21.0877 27.8673 22.5156 27.7479ZM22.5156 16.5033C22.3986 17.9289 21.9274 20.7657 20.0496 22.6442C18.1719 24.5227 15.3351 24.9888 13.9071 25.1086C14.0242 23.6823 14.4946 20.8462 16.3731 18.9677C18.2516 17.0892 21.0877 16.6231 22.5156 16.5033ZM20.0496 11.3798C18.179 13.2496 15.3351 13.7244 13.9071 13.8442C14.0242 12.4179 14.4946 9.58182 16.3731 7.7033C18.2516 5.82477 21.0877 5.35871 22.5156 5.23892C22.3986 6.66448 21.9274 9.5013 20.0496 11.3798ZM13.0206 2.14666C14.0698 3.3604 14.8563 4.77842 15.3315 6.31067C15.2708 6.36818 15.207 6.41816 15.1479 6.47805C14.1999 7.4546 13.4716 8.62233 13.0119 9.9031C12.5526 8.62233 11.8247 7.4546 10.8771 6.47805C10.8224 6.42252 10.7625 6.37651 10.7038 6.32376C11.1814 4.78714 11.9699 3.36516 13.0206 2.14666ZM3.511 5.23734C4.93616 5.35435 7.77338 5.82477 9.6519 7.7033C11.5304 9.58182 11.9965 12.4179 12.1159 13.8458C10.6899 13.7288 7.8539 13.2576 5.97537 11.3798C4.09685 9.50209 3.63039 6.66527 3.511 5.23734ZM12.9246 15.616H13.098C13.2451 15.616 13.5196 15.616 13.8837 15.5867V19.3687C13.5371 19.9399 13.2443 20.542 13.0095 21.1675C12.7783 20.5511 12.4907 19.9569 12.1508 19.3929V15.5875C12.5094 15.6117 12.7791 15.616 12.9246 15.616ZM3.511 16.5017C4.93616 16.6187 7.77338 17.0892 9.6519 18.9677C11.5304 20.8462 11.9965 23.6823 12.1159 25.1102C10.6899 24.9932 7.8539 24.522 5.97537 22.6442C4.09685 20.7665 3.63039 17.9297 3.511 16.5017ZM12.9246 26.8804H13.098C13.2451 26.8804 13.5196 26.8804 13.8837 26.8511V30.6141C13.5367 31.1852 13.2439 31.7874 13.0095 32.4129C12.7787 31.7961 12.4911 31.2023 12.1508 30.6383V26.8519C12.5094 26.8761 12.7791 26.8804 12.9246 26.8804Z" fill="white"/>
<path d="M28.5781 25.9769C28.1164 25.988 27.7447 26.3596 27.7336 26.8213C27.7281 27.0312 27.6408 32.0099 30.7446 35.1136C32.3145 36.5709 34.2819 37.5288 36.3976 37.866V49.3362V49.3902C36.3976 49.4084 36.402 49.4041 36.402 49.4108C36.4638 50.8042 37.6145 51.8998 39.0091 51.8942C40.4037 51.8887 41.5453 50.7836 41.5965 49.3902V49.3823C41.4965 47.8203 42.0328 46.2844 43.0835 45.1242C44.3627 44.0247 45.9762 43.3905 47.662 43.3247C49.0975 43.3247 50.2612 42.1609 50.2612 40.725C50.2612 39.2896 49.0975 38.1258 47.662 38.1258C46.6557 38.15 45.6558 38.2928 44.6828 38.551C43.6019 38.8275 42.5635 39.2491 41.5965 39.8052V37.8719C43.7189 37.536 45.693 36.5761 47.2677 35.1136C50.3703 32.0099 50.283 27.0312 50.2779 26.8213C50.2664 26.3596 49.8947 25.988 49.433 25.9769C49.2355 25.9689 44.7097 25.8971 41.5965 28.5761V26.6274C43.7189 26.2918 45.693 25.3315 47.2677 23.8695C50.3703 20.7657 50.283 15.7866 50.2779 15.5764C50.2668 15.1147 49.8959 14.743 49.4346 14.7303C49.2371 14.7303 44.7157 14.6526 41.5965 17.3299V15.363C43.7189 15.0274 45.693 14.0671 47.2677 12.6051C50.3703 9.50131 50.283 4.52219 50.2779 4.31197C50.2668 3.85027 49.8959 3.47861 49.4346 3.46631C47.1043 3.46512 44.8133 4.06485 42.7824 5.2076C42.0851 3.34454 40.9991 1.65086 39.5966 0.239186C39.2618 -0.0793219 38.7362 -0.0793219 38.4015 0.239186C37.0009 1.64848 35.9149 3.33899 35.2164 5.19927C33.1879 4.06366 30.9028 3.46711 28.5781 3.46631C28.116 3.47702 27.7435 3.84947 27.7324 4.31197C27.7273 4.52219 27.64 9.50131 30.7438 12.6051C32.3137 14.0635 34.2815 15.0222 36.3976 15.3606V17.3153C33.2859 14.6518 28.7724 14.7252 28.5765 14.7315C28.1148 14.7426 27.7431 15.1143 27.7316 15.5764C27.7265 15.7866 27.6388 20.7657 30.7426 23.8695C32.3129 25.3279 34.2811 26.287 36.3976 26.625V28.5598C33.2875 25.8971 28.7724 25.9713 28.5781 25.9769ZM29.5055 27.7459C30.9306 27.8629 33.7678 28.3345 35.6464 30.2123C37.5249 32.0896 37.9909 34.9268 38.1103 36.3548C36.6844 36.2377 33.8483 35.7673 31.9698 33.8888C30.0913 32.0099 29.6248 29.1738 29.5055 27.7459ZM45.1159 40.2296C45.9473 40.0075 46.8017 39.8833 47.662 39.8587C48.1404 39.8587 48.5283 40.2467 48.5283 40.725C48.5314 40.9583 48.437 41.1816 48.2685 41.3422C48.1074 41.5025 47.8893 41.5925 47.662 41.5917C45.5157 41.6548 43.4603 42.4719 41.8563 43.899C40.4724 45.3821 39.7528 47.3649 39.8635 49.3902V49.3953C39.8619 49.8737 39.4728 50.2608 38.9945 50.2592C38.5157 50.2577 38.129 49.8685 38.1306 49.3902V49.3355C38.0239 46.8727 38.9219 44.4718 40.6191 42.6837C40.8313 42.479 41.0435 42.2815 41.2732 42.1002C42.404 41.2066 43.715 40.5683 45.1159 40.2296ZM39.8635 41.0388C39.7116 41.1724 39.5609 41.299 39.405 41.4469C38.9274 41.9253 38.5002 42.4512 38.1306 43.0173V38.0952C38.4951 38.1206 38.7692 38.1258 38.9171 38.1258H39.0904C39.236 38.1258 39.5057 38.1206 39.8607 38.0964L39.8635 41.0388ZM48.5084 27.7479C48.3914 29.1738 47.9202 32.0099 46.0425 33.8888C44.1648 35.7673 41.3279 36.2334 39.9 36.3528C40.0166 34.9276 40.4874 32.0908 42.366 30.2123C44.2445 28.3333 47.0821 27.8673 48.51 27.7479H48.5084ZM48.5084 16.5033C48.3914 17.9289 47.9202 20.7657 46.0425 22.6442C44.1648 24.5228 41.3279 24.9888 39.9 25.1086C40.0166 23.6823 40.4874 20.8462 42.366 18.9677C44.2445 17.0892 47.0821 16.6231 48.51 16.5033H48.5084ZM46.0425 11.3798C44.1715 13.2496 41.3279 13.7244 39.9 13.8442C40.0166 12.4179 40.4874 9.58183 42.366 7.7033C44.2445 5.82478 47.0805 5.35872 48.5084 5.23893C48.393 6.66448 47.9218 9.50131 46.0441 11.3798H46.0425ZM38.9968 2.14667C40.0491 3.36477 40.8373 4.78755 41.3121 6.32575C41.2557 6.3785 41.197 6.42451 41.1387 6.47965C40.1907 7.45619 39.4625 8.62392 39.0032 9.9051C38.5439 8.62392 37.8156 7.45619 36.868 6.47965C36.8081 6.42015 36.7439 6.36977 36.6836 6.31266C37.1619 4.78041 37.9493 3.36239 38.9968 2.14667ZM29.5055 5.23734C30.9306 5.35436 33.7678 5.82478 35.6464 7.7033C37.5249 9.58183 37.9909 12.4179 38.1103 13.8458C36.6844 13.7288 33.8483 13.2576 31.9698 11.3798C30.0913 9.5021 29.6248 6.66528 29.5055 5.23734ZM38.9191 15.616H39.0924C39.238 15.616 39.5073 15.616 39.8627 15.5875V19.3929C39.5224 19.9569 39.2348 20.5511 39.004 21.1675C38.77 20.542 38.4776 19.9395 38.1306 19.3687V15.5867C38.4971 15.6117 38.7707 15.616 38.9191 15.616ZM29.5055 16.5017C30.9306 16.6188 33.7678 17.0892 35.6464 18.9677C37.5249 20.8462 37.9909 23.6823 38.1103 25.1102C36.6844 24.9932 33.8483 24.522 31.9698 22.6442C30.0913 20.7665 29.6248 17.9297 29.5055 16.5017ZM38.9191 26.8804H39.0924C39.238 26.8804 39.5073 26.8804 39.8627 26.8519V30.6383C39.5224 31.2023 39.2348 31.7961 39.004 32.4129C38.7703 31.787 38.4776 31.1849 38.1306 30.6141V26.8511C38.4971 26.8761 38.7707 26.8804 38.9191 26.8804Z" fill="white"/>
</g>
<defs>
<clipPath id="clip0">
<rect width="52" height="52" fill="white"/>
</clipPath>
</defs>
</svg>
