<svg width="53" height="49" viewBox="0 0 53 49" fill="none" xmlns="http://www.w3.org/2000/svg">
<path d="M52.7659 8.9836C48.5684 1.92066 43.4929 0.43811 39.9744 0.43811C37.0081 0.43811 34.4185 1.99819 33.058 4.30119C29.0828 4.64155 25.5806 7.18482 24.0025 10.8315C22.8329 10.1891 21.5482 9.76649 20.2246 9.58875C18.9644 7.00129 16.2127 5.20157 13.0264 5.20157C10.6139 5.20157 8.3232 5.88332 6.21791 7.22809C5.85654 7.45893 5.75074 7.93893 5.98148 8.3003C6.21242 8.66167 6.69232 8.76767 7.05369 8.53673C8.90537 7.35407 10.9148 6.7544 13.0264 6.7544C15.7512 6.7544 18.0813 8.37069 18.9937 10.6375C19.0154 10.6916 19.0359 10.7462 19.0559 10.8007C19.0684 10.8349 19.081 10.8691 19.0929 10.9036C19.1118 10.9581 19.1295 11.0128 19.1466 11.0677C19.1581 11.1046 19.1695 11.1417 19.1803 11.179C19.1955 11.2313 19.2099 11.2838 19.2236 11.3365C19.2343 11.3782 19.2446 11.4201 19.2544 11.4622C19.266 11.5113 19.2771 11.5606 19.2873 11.61C19.2971 11.6572 19.3059 11.7048 19.3144 11.7524C19.3226 11.798 19.3309 11.8435 19.3379 11.8893C19.3461 11.9426 19.353 11.9962 19.3597 12.0499C19.3649 12.0913 19.3706 12.1325 19.3748 12.174C19.3812 12.2363 19.3857 12.299 19.39 12.3617C19.3924 12.3956 19.3957 12.4294 19.3975 12.4634C19.4024 12.5605 19.4053 12.6582 19.4053 12.7564C19.4053 12.8572 19.4024 12.9576 19.3973 13.0571C19.3957 13.0869 19.3925 13.1166 19.3904 13.1464C19.3857 13.2163 19.3808 13.2862 19.3734 13.3556C19.3698 13.3899 19.3645 13.424 19.3603 13.4583C19.3523 13.5224 19.3445 13.5866 19.3343 13.6502C19.3284 13.6871 19.321 13.7239 19.3143 13.7607C19.3036 13.8207 19.2929 13.8806 19.2803 13.9398C19.2717 13.9799 19.2617 14.0195 19.2522 14.0595C19.2392 14.1145 19.2264 14.1697 19.2118 14.2243C19.2002 14.2675 19.187 14.3104 19.1744 14.3535C19.1596 14.4038 19.145 14.4542 19.1288 14.504C19.1141 14.5493 19.098 14.5943 19.0822 14.6394C19.0656 14.6865 19.0492 14.7337 19.0314 14.7802C19.0145 14.8247 18.9961 14.8688 18.978 14.9129C18.0553 17.16 15.7362 18.7588 13.0264 18.7588C10.2699 18.7588 8.63861 17.7962 6.91146 16.7772C5.42591 15.9006 3.88975 14.9942 1.65206 14.7114C1.61262 14.7064 1.58353 14.6854 1.56573 14.649C1.54761 14.6118 1.54896 14.5753 1.56976 14.5403C2.4277 13.0968 3.36896 11.8317 4.36768 10.7802C4.66301 10.4694 4.65038 9.97787 4.33942 9.68264C4.02856 9.38731 3.53717 9.39994 3.24185 9.7109C2.16353 10.8463 1.15187 12.2043 0.234936 13.7471C-0.0530433 14.2316 -0.0771623 14.8236 0.17055 15.3306C0.417951 15.837 0.898986 16.1814 1.45735 16.252C3.37693 16.4946 4.71052 17.2815 6.12236 18.1146C7.95303 19.1947 9.84591 20.3116 13.0263 20.3116C16.0892 20.3116 18.7502 18.6483 20.0713 16.2213C21.8637 16.7776 23.1134 18.4365 23.1134 20.359V32.4251C19.3225 32.6966 15.8295 34.6692 13.639 37.8203C13.3796 38.1932 12.92 38.3576 12.4687 38.2399C11.657 38.0277 10.8168 37.92 9.97137 37.92C6.88444 37.92 4.03312 39.3248 2.14841 41.7741C1.16471 43.0526 0.997119 44.748 1.71117 46.1985C2.42873 47.6561 3.8824 48.5615 5.50479 48.5615H38.6931C39.122 48.5615 39.4695 48.2139 39.4695 47.7851C39.4695 47.3564 39.122 47.0088 38.6931 47.0088H5.5049C4.46291 47.0088 3.56554 46.4495 3.10438 45.5127C2.64674 44.583 2.74932 43.5395 3.37911 42.7211C4.96744 40.6568 7.37024 39.4728 9.97137 39.4728C10.6843 39.4728 11.3924 39.5633 12.0759 39.7421C13.1484 40.0226 14.2887 39.6062 14.914 38.7066C16.963 35.7591 20.3106 33.9869 23.8888 33.9464C23.8891 33.9464 23.8894 33.9464 23.8898 33.9464C23.8904 33.9464 23.8911 33.9463 23.8917 33.9463C23.9326 33.9459 23.9733 33.9444 24.0141 33.9444C25.5848 33.9444 27.1059 34.2722 28.497 34.8878C28.5293 34.9055 28.5632 34.9203 28.5981 34.9334C30.1621 35.6446 31.5578 36.7215 32.6677 38.1098C33.3642 38.9809 34.5562 39.2986 35.5675 38.8819C36.4756 38.5077 37.4384 38.318 38.4292 38.318C40.8331 38.318 43.0356 39.4273 44.4721 41.3615C44.84 41.8568 45.385 42.1744 45.9674 42.2327C47.2786 42.3639 48.5065 42.9612 49.4247 43.9145C49.9453 44.455 50.0799 45.1921 49.7847 45.8865C49.554 46.4291 48.9882 47.0089 48.0922 47.0089H42.3924C41.9636 47.0089 41.6161 47.3565 41.6161 47.7852C41.6161 48.214 41.9636 48.5616 42.3924 48.5616H48.0922C49.4752 48.5616 50.6713 47.7694 51.2135 46.494C51.7522 45.2271 51.4953 43.8259 50.5428 42.8372C49.3693 41.6189 47.7991 40.8555 46.1218 40.6876C45.9732 40.6727 45.8262 40.581 45.7185 40.4358C44.0115 38.1373 41.2864 36.7651 38.4288 36.7651C37.2342 36.7651 36.0723 36.9942 34.9758 37.4461C34.5986 37.6014 34.1485 37.4755 33.8803 37.1401C32.7118 35.6785 31.2652 34.5201 29.6463 33.7127V15.1295C29.6463 13.2304 30.921 11.5478 32.6952 10.9907C33.9158 13.6692 36.7185 15.5479 39.9743 15.5479C43.1548 15.5479 45.0477 14.431 46.8784 13.3509C48.2903 12.5178 49.6238 11.7309 51.5434 11.4884C52.1018 11.4178 52.5828 11.0734 52.8302 10.567C53.0779 10.0601 53.0539 9.46816 52.7659 8.9836ZM32.0528 8.37793C32.0733 8.76581 32.1247 9.14602 32.2047 9.51639C31.1698 9.84526 30.2361 10.459 29.5179 11.2936C28.5995 12.3608 28.0937 13.7232 28.0937 15.1295V33.0647C26.9991 32.6921 25.8477 32.4691 24.6662 32.4091V20.3589C24.6662 17.796 23.0313 15.5776 20.6689 14.7819C20.6787 14.7488 20.687 14.7154 20.6962 14.6822C20.7029 14.6579 20.7096 14.6337 20.7161 14.6093C20.7748 14.3887 20.8228 14.1657 20.8601 13.9406C20.864 13.9174 20.8677 13.8943 20.8713 13.871C20.9067 13.644 20.9311 13.4151 20.9447 13.1845C20.9463 13.1574 20.9477 13.1305 20.9489 13.1035C20.9544 12.9881 20.9582 12.8725 20.9582 12.7564C20.9582 12.6286 20.9546 12.5012 20.948 12.374C20.9454 12.3259 20.9403 12.2784 20.9368 12.2304C20.9311 12.1522 20.9263 12.0739 20.9181 11.9962C20.9114 11.9328 20.9017 11.8701 20.8934 11.8072C20.8853 11.7461 20.8785 11.6847 20.8688 11.6239C20.8567 11.5477 20.8415 11.4725 20.8271 11.3971C20.8188 11.3537 20.8123 11.31 20.8031 11.2668C21.9279 11.518 23.0034 11.9781 23.9626 12.6233C24.1642 12.759 24.4176 12.7923 24.6477 12.7136C24.8776 12.6348 25.0573 12.4529 25.1333 12.2222C26.2073 8.96249 29.016 6.56518 32.3318 5.9621C32.1787 6.48464 32.0871 7.0223 32.0558 7.57124C32.0545 7.59432 32.0533 7.61741 32.0522 7.6406C32.0466 7.75767 32.0428 7.87506 32.0428 7.99307C32.0426 8.12163 32.046 8.24989 32.0528 8.37793ZM51.4351 9.88553C51.4173 9.92197 51.3882 9.94298 51.3488 9.94795C49.1111 10.2308 47.5749 11.1371 46.0894 12.0136C44.3622 13.0326 42.7309 13.9952 39.9744 13.9952C37.1298 13.9952 34.715 12.2339 33.895 9.80976C33.8819 9.77104 33.87 9.73212 33.8578 9.6932C33.8435 9.64765 33.8296 9.602 33.8163 9.55604C33.8042 9.5137 33.7925 9.47126 33.7813 9.42872C33.7693 9.38286 33.7582 9.33669 33.7474 9.29052C33.7377 9.24974 33.7278 9.20916 33.7191 9.16827C33.7018 9.08681 33.686 9.00493 33.6723 8.92243C33.6674 8.89261 33.6637 8.8627 33.6593 8.83278C33.6501 8.7716 33.6415 8.71022 33.6343 8.64842C33.6304 8.61426 33.6271 8.58 33.6237 8.54573C33.6177 8.48414 33.6126 8.42224 33.6087 8.36003C33.6067 8.3299 33.6045 8.29978 33.6031 8.26955C33.5986 8.17784 33.5956 8.08581 33.5956 7.99307C33.5956 7.88562 33.599 7.77879 33.6049 7.67238C33.6078 7.6202 33.6132 7.56865 33.6176 7.51679C33.6219 7.46472 33.6255 7.41245 33.6313 7.36069C33.6388 7.29403 33.6485 7.22798 33.6582 7.16194C33.6634 7.12664 33.6681 7.09124 33.6739 7.05615C33.6861 6.98276 33.7004 6.91009 33.7155 6.83763C33.721 6.81092 33.7264 6.78411 33.7323 6.75751C33.7493 6.68091 33.7682 6.60493 33.7884 6.52936C33.7942 6.50762 33.8001 6.48588 33.8062 6.46425C33.8281 6.38609 33.8514 6.30846 33.8766 6.23165C33.8825 6.21354 33.8888 6.19552 33.8949 6.17751C33.9218 6.09791 33.9499 6.01872 33.9803 5.94057C33.9848 5.92887 33.9898 5.91717 33.9945 5.90547C34.8977 3.62214 37.2373 1.99105 39.9747 1.99105C44.4426 1.99105 48.4043 4.68337 51.4315 9.77705C51.4519 9.81183 51.4532 9.84837 51.4351 9.88553Z" fill="white"/>
<path d="M46.8536 7.49224C45.1848 6.68855 40.0485 6.20317 36.4329 6.78254C36.0096 6.85045 35.7214 7.24857 35.7892 7.67205C35.8569 8.09532 36.2548 8.38371 36.6786 8.3157C40.3411 7.72888 45.0316 8.33817 46.1799 8.89114C46.2885 8.94342 46.4032 8.96826 46.5163 8.96826C46.8051 8.96826 47.0825 8.80626 47.2162 8.52863C47.4025 8.14242 47.24 7.67836 46.8536 7.49224Z" fill="white"/>
<path d="M40.7843 42.5503C41.1999 42.5503 41.5368 42.2134 41.5368 41.7978C41.5368 41.3822 41.1999 41.0452 40.7843 41.0452C40.3687 41.0452 40.0317 41.3822 40.0317 41.7978C40.0317 42.2134 40.3687 42.5503 40.7843 42.5503Z" fill="white"/>
<path d="M29.2994 41.2293C29.7151 41.2293 30.052 40.8924 30.052 40.4767C30.052 40.0611 29.7151 39.7242 29.2994 39.7242C28.8838 39.7242 28.5469 40.0611 28.5469 40.4767C28.5469 40.8924 28.8838 41.2293 29.2994 41.2293Z" fill="white"/>
<path d="M7.70129 43.3029C8.11691 43.3029 8.45384 42.966 8.45384 42.5503C8.45384 42.1347 8.11691 41.7978 7.70129 41.7978C7.28566 41.7978 6.94873 42.1347 6.94873 42.5503C6.94873 42.966 7.28566 43.3029 7.70129 43.3029Z" fill="white"/>
<path d="M6.48406 13.732C6.59699 13.732 6.71179 13.7071 6.82038 13.6548C7.96847 13.1019 12.6594 12.4924 16.3217 13.0794C16.7447 13.1472 17.1433 12.8591 17.2111 12.4357C17.279 12.0124 16.9909 11.6141 16.5675 11.5463C12.9519 10.9666 7.81537 11.4521 6.1467 12.2559C5.76038 12.4419 5.59807 12.906 5.78409 13.2923C5.91783 13.57 6.19515 13.732 6.48406 13.732Z" fill="white"/>
<path d="M33.9781 45.5605C34.3938 45.5605 34.7307 45.2236 34.7307 44.808C34.7307 44.3924 34.3938 44.0554 33.9781 44.0554C33.5625 44.0554 33.2256 44.3924 33.2256 44.808C33.2256 45.2236 33.5625 45.5605 33.9781 45.5605Z" fill="white"/>
<path d="M15.0485 44.808C15.4641 44.808 15.801 44.471 15.801 44.0554C15.801 43.6398 15.4641 43.3029 15.0485 43.3029C14.6328 43.3029 14.2959 43.6398 14.2959 44.0554C14.2959 44.471 14.6328 44.808 15.0485 44.808Z" fill="white"/>
<path d="M20.1818 38.6413C20.5974 38.6413 20.9343 38.3044 20.9343 37.8887C20.9343 37.4731 20.5974 37.1362 20.1818 37.1362C19.7661 37.1362 19.4292 37.4731 19.4292 37.8887C19.4292 38.3044 19.7661 38.6413 20.1818 38.6413Z" fill="white"/>
</svg>
