<svg width="30" height="30" viewBox="0 0 30 30" fill="none" xmlns="http://www.w3.org/2000/svg">
<path d="M15 7.48584C10.8568 7.48584 7.48608 10.8572 7.48608 15.0005C7.48608 19.1437 10.8568 22.5151 15 22.5151C19.1426 22.5151 22.514 19.1444 22.514 15.0005C22.514 10.8565 19.1426 7.48584 15 7.48584Z" fill="#213B8F"/>
<path d="M15.0001 5.27724C14.1903 5.27724 13.5339 4.6209 13.5339 3.81178V1.46612C13.5339 0.656333 14.1903 0 15.0001 0C15.8098 0 16.4662 0.656333 16.4662 1.46612V3.81178C16.4662 4.6209 15.8092 5.27724 15.0001 5.27724Z" fill="#213B8F"/>
<path d="M15.0001 24.7222C14.1903 24.7222 13.5339 25.3785 13.5339 26.1883V28.5333C13.5339 29.3437 14.1903 30.0001 15.0001 30.0001C15.8098 30.0001 16.4662 29.3437 16.4662 28.5333V26.1883C16.4662 25.3785 15.8092 24.7222 15.0001 24.7222Z" fill="#213B8F"/>
<path d="M21.8743 8.12491C21.3023 7.55228 21.3023 6.62424 21.8743 6.05161L23.5331 4.39284C24.105 3.82088 25.0337 3.82088 25.6063 4.39284C26.179 4.96547 26.179 5.89417 25.6063 6.46614L23.9476 8.12491C23.3756 8.69754 22.4476 8.69754 21.8743 8.12491Z" fill="#213B8F"/>
<path d="M8.12515 21.8758C7.55252 21.3025 6.62449 21.3025 6.05186 21.8758L4.39309 23.5339C3.82112 24.1058 3.82046 25.0352 4.39309 25.6072C4.96572 26.1791 5.89442 26.1791 6.46639 25.6072L8.12515 23.9477C8.69778 23.3758 8.69778 22.4471 8.12515 21.8758Z" fill="#213B8F"/>
<path d="M24.7222 14.9998C24.7222 14.19 25.3785 13.5337 26.1883 13.5337H28.5339C29.3437 13.5337 30.0001 14.19 30.0001 14.9998C30.0001 15.8096 29.3437 16.4653 28.5339 16.4653H26.1883C25.3785 16.4653 24.7222 15.8096 24.7222 14.9998Z" fill="#213B8F"/>
<path d="M5.27724 14.9998C5.27724 14.19 4.6209 13.5337 3.81112 13.5337H1.46612C0.656333 13.5337 0 14.19 0 14.9998C0 15.8096 0.656333 16.4653 1.46612 16.4653H3.81178C4.6209 16.4653 5.27724 15.8096 5.27724 14.9998Z" fill="#213B8F"/>
<path d="M21.8741 21.8758C22.4467 21.3038 23.3754 21.3038 23.9473 21.8758L25.6061 23.5345C26.1788 24.1058 26.1788 25.0352 25.6061 25.6072C25.0335 26.1791 24.1055 26.1791 23.5328 25.6072L21.8741 23.9484C21.3014 23.3758 21.3014 22.4477 21.8741 21.8758Z" fill="#213B8F"/>
<path d="M8.12516 8.12523C8.69779 7.5526 8.69779 6.62456 8.12516 6.05193L6.46639 4.39383C5.89376 3.8212 4.96573 3.8212 4.3931 4.39383C3.82047 4.96579 3.82047 5.89449 4.3931 6.46646L6.05186 8.12523C6.62449 8.69852 7.55253 8.69852 8.12516 8.12523Z" fill="#213B8F"/>
</svg>
