<svg width="61" height="61" viewBox="0 0 61 61" fill="none" xmlns="http://www.w3.org/2000/svg">
<g clip-path="url(#clip0)">
<path d="M42.0703 12.3503C41.5887 13.1147 40.9687 13.7828 40.242 14.3204C39.2171 15.1184 38.3663 16.1183 37.7426 17.258C37.6779 16.7522 37.6084 16.2463 37.5336 15.7412C37.5311 15.7124 37.5264 15.684 37.5207 15.656C37.3573 14.5694 37.1681 13.4899 36.9517 12.4385C36.9448 12.3905 36.9339 12.3429 36.9188 12.2971C36.6924 11.2056 36.4352 10.1486 36.1484 9.14672C36.1393 9.06426 36.1162 8.98379 36.0803 8.90876C35.7733 7.83759 35.4026 6.78597 34.9695 5.75912C34.9502 5.68385 34.9188 5.61229 34.8772 5.54642C33.6867 2.8618 32.1737 1.10028 30.3157 1.10077C30.2451 1.10052 30.1745 1.10622 30.1047 1.1181C27.1519 1.33179 24.9873 5.98247 23.6863 12.3605C23.6828 12.3788 23.6769 12.3957 23.6749 12.414C23.4649 13.4515 23.2765 14.5333 23.1128 15.6493C23.1034 15.6869 23.0977 15.7253 23.0952 15.7639C22.7937 17.8315 22.5718 20.01 22.4312 22.2301C22.4297 22.2489 22.4279 22.268 22.4279 22.2873C22.3603 23.3592 22.3111 24.4366 22.2801 25.5194L22.2804 25.5291C22.2722 25.8324 22.2667 26.1365 22.2618 26.44C20.5565 23.0381 18.4005 21.2867 15.9202 21.335C15.267 21.3454 14.6915 21.7673 14.4855 22.3873C14.2795 23.0074 14.488 23.6898 15.0047 24.0892C16.1631 24.9865 18.1861 27.3136 19.3771 33.031C19.1889 32.9587 19.0047 32.8889 18.8143 32.8208C18.5892 32.7408 18.3636 32.6678 18.1296 32.5952C17.8961 32.5227 17.6448 32.4541 17.3996 32.3887L17.3011 32.3615C17.1198 32.306 16.9339 32.2681 16.7457 32.2483C16.3508 32.2045 15.9608 32.3657 15.7124 32.6759C15.52 32.9292 15.4395 33.2504 15.4901 33.5644C15.5406 33.8783 15.7176 34.1584 15.9796 34.3387C17.7537 35.7082 20.7063 39.0965 20.7063 46.4586C20.7144 52.198 23.1252 54.7712 25.329 55.9211L25.329 56.449C25.328 57.2642 25.6514 58.0461 26.2276 58.6223C26.804 59.1988 27.5857 59.5219 28.4009 59.5209L32.2428 59.5249C33.939 59.5239 35.3137 58.1491 35.3147 56.453L35.3169 55.237C35.6542 54.9953 35.9724 54.7276 36.2685 54.4369C38.1893 52.5162 39.1611 49.5827 39.1614 45.6915C39.1614 42.3378 39.9027 40.088 41.3644 38.9963C42.595 38.0816 44.4019 37.9724 46.7364 38.6736C47.3839 38.8635 48.0799 38.6082 48.4506 38.0444C48.8215 37.4804 48.7804 36.7405 48.3493 36.2208C46.7817 34.3396 43.5211 31.4653 38.7179 32.2344C40.2952 22.7033 41.0995 21.331 42.3972 19.1528C42.7741 18.5204 43.2032 17.806 43.6942 16.8148C44.2424 15.7471 44.6418 14.6093 44.882 13.4332C45.0256 12.7116 44.6265 11.992 43.9381 11.732C43.2482 11.4542 42.4584 11.7157 42.0703 12.3503V12.3503ZM23.9319 22.7083C24.885 22.3311 25.8911 22.1041 26.9137 22.0347C26.904 22.5431 26.8964 23.0554 26.8912 23.5722C25.8631 23.6588 24.8474 23.8569 23.8621 24.1627C23.8817 23.6727 23.9049 23.1879 23.9319 22.7083ZM24.1778 19.5326C25.092 19.2271 26.0396 19.0327 27.0004 18.9539C26.982 19.4611 26.9652 19.9746 26.9506 20.4943C25.9676 20.584 24.9952 20.7665 24.0463 21.0388C24.085 20.5278 24.1288 20.0259 24.1778 19.5326ZM24.5554 16.3292C25.3978 16.0975 26.2593 15.9412 27.1296 15.8622C27.1034 16.3684 27.0786 16.8844 27.0556 17.4111C26.1441 17.495 25.2406 17.6498 24.3531 17.8741C24.4165 17.3467 24.4829 16.8312 24.5537 16.3275L24.5554 16.3292ZM25.0947 13.1177C25.8294 12.9535 26.5742 12.8362 27.3237 12.7666C27.2868 13.269 27.2514 13.7848 27.2178 14.3137C26.4081 14.3865 25.6036 14.5095 24.809 14.6821C24.8989 14.1445 24.9935 13.6226 25.093 13.116L25.0947 13.1177ZM25.8455 9.88832C26.3784 9.79373 26.9632 9.71648 27.5922 9.66299C27.5397 10.1775 27.4916 10.697 27.4478 11.2212C26.7173 11.2861 26.0451 11.3745 25.4404 11.4859C25.5684 10.9271 25.7044 10.3964 25.844 9.88683L25.8455 9.88832ZM26.9144 6.66019C27.2492 6.62205 27.5986 6.58714 27.9661 6.56188C27.8972 7.03383 27.8269 7.55877 27.7598 8.11714C27.2616 8.15329 26.7839 8.20356 26.3291 8.26472C26.52 7.68852 26.7144 7.15145 26.9144 6.66019V6.66019ZM32.9349 5.04178C32.765 5.02891 32.5875 5.01925 32.4112 5.00935C32.33 4.58098 32.2485 4.19099 32.1661 3.85448C32.4528 4.22986 32.7098 4.62654 32.9349 5.04178ZM34.2983 8.25977C33.8456 8.19836 33.3724 8.14958 32.8785 8.11318C32.8104 7.55283 32.741 7.03037 32.6712 6.55792C33.0295 6.58392 33.3697 6.6171 33.6958 6.653C33.9036 7.15095 34.1059 7.67763 34.3005 8.262L34.2983 8.25977ZM35.1912 11.4782C34.5971 11.37 33.9286 11.2824 33.1964 11.2148C33.1526 10.6921 33.1045 10.1726 33.0523 9.65631C33.6763 9.7093 34.2611 9.78358 34.7903 9.8799C34.9284 10.3905 35.0631 10.9243 35.1946 11.4787L35.1912 11.4782ZM35.8275 14.6779C35.0347 14.5066 34.2319 14.3837 33.4237 14.31C33.3903 13.7808 33.3549 13.265 33.3172 12.7624C34.0658 12.8295 34.8086 12.9463 35.5415 13.1118C35.6433 13.6191 35.7384 14.1386 35.8298 14.6801L35.8275 14.6779ZM36.5228 20.1848L36.5221 20.1975L36.5228 20.2715C36.5461 20.5241 36.5627 20.7843 36.5832 21.0396C35.6381 20.768 34.6699 20.5857 33.6911 20.4948C33.6758 19.9748 33.6592 19.4611 33.6406 18.9537C34.5984 19.0324 35.5433 19.2266 36.4547 19.5314C36.4773 19.75 36.5023 19.9597 36.5228 20.1848V20.1848ZM36.8526 27.2775C35.8545 26.9504 34.822 26.7409 33.7756 26.6537C33.7753 26.5911 33.777 26.5289 33.777 26.467C33.777 26.005 33.7711 25.5622 33.7679 25.1133C34.8242 25.1713 35.8624 25.4152 36.8341 25.8331C36.8447 26.3108 36.8494 26.7939 36.8526 27.2775ZM31.5867 35.7283C31.1719 35.7102 30.7549 35.6948 30.3206 35.6963C29.712 35.6958 29.1402 35.7159 28.595 35.7451C28.572 35.2417 28.5517 34.7286 28.5338 34.2062C29.1326 34.173 29.7308 34.1502 30.3189 34.1519C30.907 34.1537 31.4992 34.1745 32.1039 34.2062C32.0913 34.5863 32.0779 34.9666 32.0608 35.3388C31.9024 35.468 31.734 35.5953 31.5867 35.7283V35.7283ZM32.151 32.6759C31.5354 32.6423 30.9226 32.6202 30.3201 32.62C29.7174 32.62 29.0915 32.6432 28.489 32.6767C28.4742 32.1696 28.4613 31.6555 28.4506 31.1348C29.0882 31.0974 29.7105 31.0724 30.3161 31.0724C30.9495 31.0763 31.5701 31.1006 32.1893 31.1345C32.1804 31.655 32.168 32.1691 32.152 32.6769L32.151 32.6759ZM23.7915 28.936C24.7642 28.4913 25.8128 28.2375 26.8808 28.1887C26.8835 28.7054 26.8882 29.2187 26.8986 29.7214C25.8509 29.8118 24.8159 30.0163 23.8121 30.3313C23.7987 29.8732 23.7992 29.4012 23.7925 28.937L23.7915 28.936ZM30.3228 29.5449C29.6924 29.5444 29.0573 29.5704 28.4214 29.607C28.4137 29.1011 28.409 28.5868 28.4066 28.0639C29.0303 28.0265 29.6676 28.0017 30.3223 28.0017C30.9765 28.0017 31.6094 28.0265 32.2337 28.0634C32.2312 28.5824 32.226 29.0967 32.2181 29.6068C31.6015 29.5721 30.9755 29.5454 30.3231 29.5421L30.3228 29.5449ZM28.4068 24.9893C29.0662 24.9509 29.7055 24.9261 30.327 24.9296C30.9486 24.9336 31.5795 24.9509 32.2379 24.9888C32.2426 25.4788 32.2483 25.9663 32.2483 26.468L32.2473 26.5319C31.6171 26.496 30.9765 26.472 30.3223 26.472C29.6676 26.472 29.0256 26.4965 28.3969 26.5319C28.3971 26.5104 28.3959 26.4888 28.3964 26.4675C28.3949 25.9673 28.4006 25.4788 28.4058 24.9883L28.4068 24.9893ZM33.7617 28.1904C34.8262 28.2446 35.8721 28.4908 36.8489 28.9169C36.844 29.3903 36.8408 29.862 36.8294 30.3429C35.828 30.022 34.794 29.813 33.7468 29.7202C33.7545 29.2128 33.759 28.7027 33.7607 28.1894L33.7617 28.1904ZM32.2213 23.4563C31.5686 23.4201 30.9339 23.3966 30.328 23.4023C29.7224 23.4078 29.0786 23.4216 28.4246 23.458C28.4303 22.9378 28.4382 22.4232 28.4484 21.9144C29.0603 21.877 29.684 21.8515 30.3233 21.8525C30.9627 21.8535 31.5874 21.878 32.1985 21.9147C32.2062 22.4176 32.2139 22.9338 32.2198 23.4548L32.2213 23.4563ZM30.3228 20.3213C29.6969 20.3208 29.085 20.3438 28.4853 20.378C28.5009 19.8572 28.5177 19.3417 28.5348 18.8309C29.0957 18.7979 29.6845 18.7752 30.3201 18.7769C30.9555 18.7784 31.548 18.7984 32.1049 18.8309C32.124 19.3387 32.1401 19.856 32.1554 20.3785C31.5587 20.3423 30.9463 20.3208 30.3211 20.3195L30.3228 20.3213ZM28.668 15.7456C29.2143 15.7184 29.7655 15.6996 30.3231 15.6991C30.881 15.6983 31.4326 15.7181 31.9784 15.7454C32.0051 16.251 32.0299 16.7675 32.0524 17.2942C31.5082 17.265 30.9448 17.2454 30.3238 17.2454C29.7028 17.2454 29.1415 17.265 28.595 17.2939C28.616 16.7678 28.6396 16.251 28.6658 15.7444L28.668 15.7456ZM28.8671 12.6589C29.3371 12.6381 29.8197 12.624 30.3233 12.6235C30.8267 12.6227 31.3093 12.6358 31.7793 12.6591C31.8172 13.162 31.8536 13.6788 31.8882 14.2087C31.3705 14.1856 30.8468 14.1681 30.3231 14.1693C29.7996 14.1703 29.2759 14.1854 28.7584 14.2087C28.7916 13.6778 28.827 13.161 28.8649 12.6581L28.8671 12.6589ZM29.1412 9.57187C29.5097 9.5585 29.8952 9.54934 30.3248 9.54909C30.7544 9.54934 31.1345 9.5585 31.5072 9.57212C31.5614 10.0849 31.6102 10.6022 31.6535 11.1244C31.2202 11.1076 30.7777 11.0969 30.3248 11.0942C29.8719 11.0915 29.4257 11.1048 28.9964 11.1247C29.0375 10.5977 29.0845 10.0797 29.1383 9.56989L29.1412 9.57187ZM29.5292 6.49032C29.7937 6.48438 30.0539 6.47423 30.3238 6.47373C30.5937 6.47324 30.8545 6.48388 31.1194 6.49032C31.1902 6.94643 31.261 7.4674 31.3321 8.03271C31.0144 8.02553 30.6787 8.01958 30.3251 8.01958C29.971 8.01958 29.6325 8.02379 29.317 8.0332C29.3849 7.46567 29.4552 6.9442 29.526 6.48809L29.5292 6.49032ZM30.3248 3.02151C30.5539 3.64921 30.7294 4.29523 30.8495 4.95264C30.6739 4.95091 30.5043 4.94175 30.3265 4.94125C30.1485 4.94051 29.9796 4.95042 29.8041 4.95314C29.9219 4.29498 30.0953 3.64822 30.3216 3.01928L30.3248 3.02151ZM33.5861 17.4071C33.5651 16.8814 33.5406 16.3651 33.5123 15.858C34.3807 15.9385 35.2409 16.094 36.0823 16.3228C36.1524 16.8252 36.2188 17.3407 36.2809 17.8679C35.3959 17.6451 34.4949 17.4908 33.5861 17.4071ZM28.2251 5.0143C28.0388 5.02519 27.8484 5.03485 27.6694 5.04847C27.9064 4.60797 28.1807 4.189 28.4895 3.79555C28.4018 4.14518 28.3132 4.5582 28.2273 5.01207L28.2251 5.0143ZM23.8111 25.8495C24.7783 25.4162 25.8185 25.1678 26.877 25.117C26.8738 25.566 26.8674 26.0107 26.8679 26.4688C26.8679 26.5326 26.8694 26.5926 26.8694 26.6564C25.8222 26.7439 24.7882 26.9533 23.7893 27.2807C23.7915 26.7966 23.799 26.3197 23.8111 25.8495V25.8495ZM24.2298 31.8137C25.1041 31.5272 26.0084 31.3425 26.9246 31.2628C26.936 31.7793 26.9493 32.2899 26.9635 32.7948C26.1605 32.8743 25.3636 33.007 24.5782 33.1917C24.47 32.7482 24.3536 32.2867 24.2259 31.8098L24.2298 31.8137ZM24.8984 34.689C25.5944 34.5239 26.3006 34.404 27.0125 34.331C27.0286 34.8522 27.0491 35.3625 27.0744 35.8622C26.3719 35.9343 25.7222 36.0244 25.1613 36.1376C25.0947 35.7476 25.0043 35.258 24.8947 34.6853L24.8984 34.689ZM26.2491 37.5036C26.5326 37.4623 26.8364 37.4254 27.1529 37.3917C27.1739 37.7728 27.194 38.1544 27.214 38.5206C26.9013 38.1687 26.5784 37.8285 26.2451 37.4997L26.2491 37.5036ZM28.6787 37.2773C29.186 37.2503 29.7088 37.2332 30.2567 37.2325C29.5399 38.2024 29.0702 39.3318 28.8877 40.524C28.806 39.5044 28.7366 38.4139 28.675 37.2736L28.6787 37.2773ZM35.7552 33.1221C35.0701 32.9753 34.3775 32.8661 33.6807 32.7948C33.6963 32.2889 33.7089 31.7776 33.7186 31.2608C34.7675 31.3252 35.7986 31.5624 36.7699 31.9633C36.7585 32.2238 36.7486 32.4833 36.7375 32.7435C36.4146 32.852 36.0868 32.9778 35.754 33.1209L35.7552 33.1221ZM36.7806 24.1731C35.7968 23.8619 34.7811 23.6618 33.7528 23.5759C33.7473 23.0554 33.7389 22.5443 33.7283 22.037C34.7484 22.1083 35.7513 22.3361 36.7023 22.7122C36.7316 23.1946 36.759 23.6796 36.7796 24.1721L36.7806 24.1731ZM15.9575 22.8576C19.1436 22.7979 21.1666 27.0539 22.3046 30.6586C22.3096 30.6774 22.3148 30.697 22.321 30.7161C22.4128 31.006 22.4987 31.2955 22.5785 31.5783C22.9628 32.9149 23.2403 34.168 23.4313 35.1607C22.6827 34.6469 21.8998 34.1854 21.0876 33.7798C19.908 27.167 17.6535 24.1974 15.9575 22.8576ZM32.2428 57.9951L28.3986 57.9944C27.583 57.9988 26.9085 57.3605 26.8679 56.5459C28.9949 57.1862 31.2719 57.1233 33.3606 56.3668L33.6059 56.2448L33.7862 56.1521L33.7862 56.4542C33.7837 57.305 33.0939 57.9939 32.2428 57.9951ZM47.1724 37.2055C44.3519 36.3584 42.0897 36.5476 40.4492 37.7676C38.5773 39.1582 37.6294 41.824 37.6294 45.6892C37.6294 49.8858 36.4879 52.6724 34.1314 54.2059C33.7434 54.4523 33.3407 54.6741 32.9257 54.8707L32.666 55.0007C30.6158 55.6723 28.3922 55.5821 26.4031 54.7464C23.644 53.5136 22.2442 50.7247 22.2457 46.4554C22.2462 39.8857 20.013 36.1658 18.1071 34.1886C18.1749 34.2109 18.2418 34.2347 18.3094 34.2592C18.5171 34.3327 18.7179 34.4067 18.9304 34.4904C19.1225 34.5647 19.3191 34.6425 19.4925 34.7173L19.7478 34.8329C19.858 34.8817 19.9679 34.9307 20.0776 34.9834C21.4964 35.6535 22.8209 36.507 24.0171 37.522C25.3834 38.6778 26.5915 40.0083 27.611 41.4793C27.9717 41.9981 28.6158 42.24 29.2291 42.0867C29.8343 41.9476 30.2904 41.4484 30.3746 40.8328C30.7051 38.447 32.4833 36.4288 35.6643 34.8388C36.3205 34.5041 37.0069 34.2307 37.7136 34.0227C37.7956 33.9962 37.8728 33.9719 37.9795 33.9474C42.3635 32.7784 45.3983 35.0699 47.1724 37.2055V37.2055ZM42.3234 16.1289C41.8552 17.0671 41.4444 17.7577 41.0809 18.3668C40.0605 20.0811 39.3251 21.33 38.3623 25.7623C38.3173 23.8686 38.2162 22.0278 38.0593 20.2925C38.606 18.4404 39.6843 16.7896 41.1604 15.5448C42.0424 14.8896 42.7954 14.0767 43.381 13.1469C43.1653 14.1847 42.8092 15.188 42.3229 16.1294L42.3234 16.1289Z" fill="white"/>
<path d="M33.7853 47.9955C33.7841 51.1489 30.6852 51.832 30.5559 51.8588C30.288 51.9123 30.0689 52.1047 29.981 52.3634C29.8933 52.6224 29.9505 52.9084 30.131 53.1137C30.3113 53.3192 30.5876 53.4128 30.8555 53.3593C31.9691 53.112 32.9902 52.5558 33.8021 51.7543C34.7988 50.7601 35.345 49.4007 35.3128 47.9933C35.3175 47.7167 35.1729 47.4592 34.9342 47.3195C34.6958 47.1801 34.4001 47.1801 34.1614 47.3198C33.923 47.4592 33.7784 47.7167 33.7831 47.9933L33.7853 47.9955Z" fill="white"/>
<path d="M35.0937 44.3758C35.394 44.6762 35.394 45.163 35.0937 45.4633C34.7936 45.7634 34.3068 45.7634 34.0064 45.4631C33.7063 45.163 33.7063 44.6762 34.0064 44.376C34.3068 44.0757 34.7936 44.0757 35.0937 44.3758V44.3758Z" fill="white"/>
</g>
<defs>
<clipPath id="clip0">
<rect width="61" height="61" fill="white"/>
</clipPath>
</defs>
</svg>
