<svg width="30" height="30" viewBox="0 0 30 30" fill="none" xmlns="http://www.w3.org/2000/svg">
<path d="M14.8041 11.0149C15.0863 11.1256 15.3632 10.8547 15.2696 10.5664C14.6276 8.58781 12.3028 7.84969 10.1416 9.60514C9.00485 10.5286 8.57767 10.7249 8.56689 10.7298C9.31632 11.4791 10.1725 13.9935 12.041 14.2716C14.0993 14.6447 15.921 12.6197 14.4305 11.6931C13.4503 11.0837 12.2963 10.7297 11.0593 10.7297C12.3561 10.4374 13.6508 10.5628 14.8041 11.0149Z" fill="#213B8F"/>
<path d="M24.1238 9.60525C20.3933 6.57501 18.0142 11.3537 19.493 10.88C20.5433 10.5436 21.6916 10.4703 22.8434 10.7299C20.8919 10.7299 19.093 11.6242 17.8936 13.0799C17.9922 10.7923 18.1411 9.36037 18.3139 8.29519C19.3107 8.26092 20.6393 7.45595 21.3689 6.04737C22.6268 3.79628 22.0435 1.48816 21.8557 0.0317383C20.8729 0.988835 16.5794 -0.13263 14.8774 2.78397C14.1256 4.07234 14.3441 5.64013 15.135 6.78743C15.3854 7.15063 15.984 6.97636 16.0011 6.53559C16.0754 4.61819 17.0296 3.16952 18.8086 2.36716C18.0104 3.40149 17.4862 4.55949 17.2154 5.75638C16.7945 7.62085 16.3549 8.84391 16.1935 14.7865C16.1771 15.3892 16.6653 15.888 17.2682 15.8805C17.7046 15.875 18.0784 15.5981 18.2463 15.1952C18.5015 14.5824 18.917 13.9482 19.5931 13.3672C20.2356 14.0773 21.2132 14.4552 22.2248 14.2717C24.0853 13.9949 24.9536 11.475 25.6988 10.7299C25.6879 10.725 25.2606 10.5288 24.1238 9.60525Z" fill="#213B8F"/>
<path d="M29.6081 17.0095C28.4418 16.2182 27.1725 16.7821 26.5896 17.1186L19.2744 22.4726L14.9912 22.4736L13.9204 21.4028H17.854C19.0371 21.4028 20.362 20.6322 20.362 19.2607C20.362 17.8046 19.0371 17.1186 17.854 17.1186H16.3799C15.2849 17.1186 14.0052 17.2163 13.1029 16.7333C12.2457 16.2971 11.2585 16.0488 10.2048 16.0488C8.43538 16.0488 6.85173 16.7542 5.76654 17.8666L0 23.5434L6.42481 29.9682L8.56642 26.7558H18.6866C19.7659 26.7558 20.8077 26.3599 21.6145 25.6431L29.6813 18.4771C30.1298 18.0788 30.1045 17.3463 29.6081 17.0095Z" fill="#213B8F"/>
</svg>
