<svg width="24" height="30" viewBox="0 0 24 30" fill="none" xmlns="http://www.w3.org/2000/svg">
<path d="M18.0272 6.87668C15.3178 3.22192 12.5695 0.26508 12.5419 0.235676C12.4017 0.0853975 12.2056 0 12.0002 0C11.7948 0 11.5986 0.0853234 11.4585 0.235676C11.431 0.26508 8.68269 3.22192 5.97323 6.87668C2.2721 11.8689 0.395508 15.7442 0.395508 18.3948C0.395508 24.7938 5.60135 30 12.0002 30C18.3992 30 23.605 24.7939 23.605 18.3948C23.605 15.7442 21.7284 11.869 18.0272 6.87668ZM13.1592 26.2445C12.5509 26.3883 11.9238 26.4612 11.2956 26.4612C6.82987 26.4612 3.19674 22.8279 3.19674 18.3622C3.19674 17.7465 3.38627 16.631 4.2892 14.8134C4.37993 14.6307 4.58887 14.54 4.78448 14.598C4.97994 14.6561 5.10518 14.8466 5.08126 15.0491C5.06052 15.224 5.05008 15.3887 5.05008 15.5385C5.05008 20.3253 8.45457 24.4834 13.1453 25.4251C13.3384 25.4639 13.4786 25.6321 13.4819 25.8291C13.4854 26.0263 13.351 26.1991 13.1592 26.2445Z" fill="#213B8F"/>
</svg>
