<svg width="58" height="58" viewBox="0 0 58 58" fill="none" xmlns="http://www.w3.org/2000/svg">
<g clip-path="url(#clip0)">
<path d="M7.47656 56.8672C7.47656 57.4928 7.98372 58 8.60938 58H49.3906C50.0163 58 50.5234 57.4928 50.5234 56.8672C50.5234 56.2415 50.0163 55.7344 49.3906 55.7344H38.6922C39.1373 55.5143 39.5757 55.2792 40.006 55.0283C40.5464 54.713 40.7289 54.0194 40.4138 53.4791C40.0985 52.9386 39.4048 52.7561 38.8645 53.0712C36.2876 54.5743 33.395 55.466 30.4238 55.6826C32.5286 47.574 39.6345 41.668 47.9674 41.0597C47.48 42.9439 46.7201 44.7331 45.7014 46.3917C45.3739 46.9248 45.5408 47.6224 46.0739 47.9498C46.6069 48.2774 47.3046 48.1105 47.6319 47.5773C49.9662 43.7769 50.4279 40.3527 50.5017 40.0965C50.568 39.7636 50.4818 39.4188 50.2665 39.1566C50.0513 38.8943 49.7299 38.7422 49.3906 38.7422C41.515 38.7422 34.0279 43.014 30.1328 50.2674V36.2076C33.8166 35.9341 36.1451 34.2944 36.7626 31.568C40.1882 32.6184 42.905 30.2902 44.6963 27.1876C46.502 24.0601 47.1339 20.5525 44.5196 18.1228C47.1483 15.6757 46.4848 12.1598 44.6963 9.06261C42.9142 5.97638 40.1928 3.6199 36.762 4.67999C36.0825 1.68472 33.3388 0 29 0C24.66 0 21.9161 1.68563 21.2374 4.68225C17.8054 3.62976 15.0886 5.96913 13.3038 9.0625C11.503 12.1812 10.8581 15.7011 13.477 18.1266C10.8545 20.5678 11.5122 24.0846 13.3038 27.1875C15.1053 30.3078 17.8256 32.6177 21.2434 31.5657C21.8703 34.2917 24.1993 35.9325 27.8672 36.2072V50.2673C23.9739 43.0175 16.4888 38.7422 8.60938 38.7422C8.2701 38.7422 7.94872 38.8942 7.7336 39.1566C7.51848 39.4189 7.43216 39.7638 7.49843 40.0965C7.56243 40.2631 8.55194 47.6435 15.1411 53.0453C16.4317 54.1034 17.8351 55.0029 19.3175 55.7344H8.60938C7.98372 55.7344 7.47656 56.2415 7.47656 56.8672ZM42.7342 26.0547C39.5832 31.5124 36.5178 28.9159 36.3743 28.9222C34.4909 27.7878 31.8844 24.9553 30.5876 22.3685C32.3052 21.7236 33.5312 20.0647 33.5312 18.125C33.5312 17.8734 33.508 17.6236 33.4668 17.3773C36.3599 17.2064 40.1214 18.0501 42.0429 19.1167C42.0485 19.1198 42.0542 19.1229 42.06 19.126C44.801 20.5885 44.2872 23.3647 42.7342 26.0547ZM29 15.8594C30.2487 15.8594 31.2656 16.8812 31.2656 18.125C31.2656 19.3576 30.2752 20.3621 29.0455 20.3882C29.0302 20.3876 29.0154 20.385 29 20.385C28.9841 20.385 28.9688 20.3877 28.9531 20.3882C27.7258 20.3632 26.7344 19.3583 26.7344 18.125C26.7344 16.8813 27.7512 15.8594 29 15.8594ZM42.7342 10.1954C44.1175 12.5909 44.7991 15.2148 42.5326 16.8256C40.4194 15.8355 37.1609 15.0877 34.261 15.0876C35.7133 12.5726 36.6962 9.37119 36.8929 7.05153C39.393 5.89164 41.3451 7.78945 42.7342 10.1954ZM29 2.26562C32.7584 2.26562 34.6641 3.59962 34.6641 6.23047C34.6641 8.35653 33.5312 12.1276 31.8798 14.6319C31.0797 13.9735 30.0645 13.5938 29 13.5938C27.9355 13.5938 26.9203 13.9735 26.1202 14.6317C24.4623 12.1175 23.3359 8.34464 23.3359 6.23047C23.3359 3.59962 25.2416 2.26562 29 2.26562ZM15.266 10.1951C16.648 7.79987 18.5948 5.89164 21.1077 7.05289C21.3065 9.37833 22.2888 12.5758 23.7391 15.0877C20.8408 15.0883 17.5822 15.8356 15.4649 16.8268C13.206 15.2393 13.8797 12.5961 15.266 10.1951ZM15.2658 26.0547C12.1025 20.5756 15.8437 19.3274 15.9578 19.1156C17.8799 18.0498 21.6409 17.2063 24.5331 17.3772C24.4919 17.6235 24.4686 17.8734 24.4686 18.125C24.4686 20.0638 25.6937 21.722 27.4127 22.3676C26.1161 24.9546 23.5091 27.7877 21.6256 28.9222C21.4386 28.9147 18.4486 31.5675 15.2658 26.0547ZM23.3621 30.4929C25.2753 29.1564 27.551 26.7078 29 24.198C30.45 26.7096 32.7279 29.1598 34.6419 30.4957C34.4196 32.8112 32.5245 33.9844 29 33.9844C25.4911 33.9844 23.5976 32.8118 23.3621 30.4929ZM10.0331 41.0597C18.3658 41.6686 25.4723 47.5743 27.5762 55.6825C19.2435 55.0736 12.1371 49.1679 10.0331 41.0597Z" fill="white"/>
<path d="M43.5 52.1094C44.1256 52.1094 44.6328 51.6022 44.6328 50.9766C44.6328 50.3509 44.1256 49.8438 43.5 49.8438C42.8744 49.8438 42.3672 50.3509 42.3672 50.9766C42.3672 51.6022 42.8744 52.1094 43.5 52.1094Z" fill="white"/>
</g>
<defs>
<clipPath id="clip0">
<rect width="58" height="58" fill="white"/>
</clipPath>
</defs>
</svg>
