<svg width="28" height="64" viewBox="0 0 28 64" fill="none" xmlns="http://www.w3.org/2000/svg">
<g clip-path="url(#clip0)">
<path d="M9.41239 27.4133C6.76437 30.0613 6.76436 34.3693 9.41239 37.0174C12.0604 39.6654 16.3684 39.6654 19.0165 37.0174C21.6645 34.3693 21.6645 30.0613 19.0165 27.4133C16.3684 24.7653 12.0604 24.7653 9.41239 27.4133ZM17.4157 35.4166C15.6509 37.1815 12.7786 37.1823 11.013 35.4166C9.24732 33.651 9.24822 30.7788 11.013 29.0139C12.7779 27.2491 15.6502 27.2483 17.4158 29.0139C19.1815 30.7796 19.1806 33.6518 17.4157 35.4166Z" fill="white"/>
<path d="M9.41239 43.4199C6.76437 46.0679 6.76437 50.3759 9.41239 53.024C12.0604 55.672 16.3684 55.672 19.0165 53.024C21.6645 50.3759 21.6645 46.0679 19.0165 43.4199C16.3684 40.7719 12.0604 40.7719 9.41239 43.4199ZM17.4158 51.4233C15.651 53.1881 12.7787 53.189 11.013 51.4233C9.2474 49.6577 9.24822 46.7854 11.013 45.0205C12.7779 43.2557 15.6502 43.2549 17.4158 45.0205C19.1815 46.7862 19.1806 49.6585 17.4158 51.4233Z" fill="white"/>
<path d="M23.6144 6.40361C21.1642 4.05346 14.986 0.926355 14.7234 0.795123C14.403 0.63418 14.0247 0.634105 13.7043 0.795199C13.4424 0.927255 7.27051 4.05271 4.82027 6.40136C0.630185 10.377 -0.533558 16.6225 1.88307 21.8839C2.55438 23.3462 2.53562 25.0844 1.83152 26.6561C0.2497 30.1888 0.248875 34.2427 1.83235 37.7738C2.5357 39.3464 2.55528 41.0854 1.88314 42.5483C-0.531907 47.8051 0.646618 54.0264 4.81629 58.0273C7.26811 60.379 13.4479 63.4732 13.7097 63.6037C14.0278 63.7624 14.4022 63.7617 14.7211 63.6021C14.9821 63.4724 21.1588 60.3798 23.6106 58.0297C23.681 57.9624 23.7489 57.896 23.8177 57.8272C27.8208 53.8241 28.9228 47.7201 26.5476 42.547C25.8763 41.0847 25.8951 39.3465 26.5992 37.7747C28.181 34.2421 28.1818 30.1882 26.5983 26.657C25.895 25.0845 25.8754 23.3455 26.5475 21.8825C28.9626 16.6256 27.784 10.4044 23.6144 6.40361ZM24.4899 20.938C23.5457 22.992 23.5605 25.4141 24.5329 27.5807C25.8522 30.5257 25.8514 33.9044 24.5336 36.8479C23.5621 39.0152 23.5457 41.4373 24.4898 43.4913C26.5032 47.8776 25.5676 53.0977 22.0435 56.3953C20.2146 58.1492 15.7243 60.54 14.2136 61.3209C12.7036 60.5393 8.21261 58.1492 6.38213 56.3937C2.90793 53.0603 1.92561 47.8761 3.93894 43.4929C4.88307 41.4389 4.86829 39.0168 3.89595 36.8503C2.57659 33.9053 2.57742 30.5265 3.8952 27.5831C4.86671 25.4157 4.88314 22.9936 3.93894 20.9397C1.92636 16.5541 2.90643 11.3097 6.38528 8.0357C8.21418 6.28183 12.6988 3.86986 14.2143 3.07812C15.7291 3.87061 20.2161 6.28183 22.0466 8.03728C25.5207 11.3706 26.5032 16.5549 24.4899 20.938Z" fill="white"/>
<path d="M9.41239 11.4065C6.76437 14.0545 6.76437 18.3625 9.41239 21.0105C12.0604 23.6586 16.3684 23.6586 19.0165 21.0105C21.6645 18.3625 21.6645 14.0545 19.0165 11.4065C16.3684 8.75843 12.0603 8.7585 9.41239 11.4065ZM17.4158 19.4099C15.651 21.1747 12.7787 21.1755 11.013 19.4099C9.2474 17.6442 9.24822 14.7719 11.013 13.0071C12.7779 11.2423 15.6502 11.2415 17.4158 13.0071C19.1815 14.7728 19.1806 17.6451 17.4158 19.4099Z" fill="white"/>
</g>
<defs>
<clipPath id="clip0">
<rect width="28" height="64" fill="white"/>
</clipPath>
</defs>
</svg>
