<svg width="63" height="63" viewBox="0 0 63 63" fill="none" xmlns="http://www.w3.org/2000/svg">
<path d="M52.9012 18.1942L48.697 20.8215C48.4607 20.9691 44.408 23.5167 41.3732 26.0869C43.5497 18.8498 46.1278 13.3107 46.173 13.2162L48.2983 8.69694L44.6167 12.0714C44.349 12.3175 40.8161 15.6112 37.6316 20.9613C38.1425 14.2803 39.3523 5.16796 39.3671 5.05278L39.8179 1.67342L37.6336 4.29186C34.5761 7.96063 32.4046 12.6984 31.3149 17.8861C30.2478 13.3373 28.3706 7.89763 25.3653 4.29186L23.182 1.67244L23.6328 5.0518C23.6476 5.16796 24.8574 14.2803 25.3683 20.9603C22.1838 15.6102 18.6509 12.3165 18.3831 12.0704L14.6996 8.69399L16.8268 13.2152C16.8721 13.3107 19.4512 18.8488 21.6276 26.0879C18.5928 23.5167 14.5382 20.9682 14.3019 20.8205L10.0977 18.1932L12.9789 22.2272C13.0715 22.3571 21.7714 34.5939 24.2835 42.3399C23.4123 42.4059 22.673 43.0408 22.4998 43.91L21.8846 46.9872C21.7763 47.5266 21.9013 48.0906 22.2252 48.5356C22.55 48.9795 23.0501 49.2699 23.5984 49.331L24.6093 49.4432V58.0781C24.6093 60.2496 26.3753 62.0156 28.5468 62.0156H34.4531C36.6246 62.0156 38.3906 60.2496 38.3906 58.0781V50.9749L38.9871 51.0408C39.0609 51.0497 39.1348 51.0536 39.2096 51.0536C39.7401 51.0536 40.2441 50.842 40.6202 50.4541C41.0474 50.0141 41.2413 49.4127 41.1547 48.8063L40.4715 44.0183C40.3436 43.1195 39.6033 42.4344 38.7134 42.3458C41.2236 34.6008 49.9274 22.3581 50.02 22.2282L52.9012 18.1942ZM38.5215 44.2969L38.7912 46.1849L24.4134 44.3874L24.4311 44.2969H38.5215ZM36.4435 42.3281H34.4531V38.3906C34.4531 29.7448 38.7046 22.4162 42.0367 18.0013C39.7687 23.9134 36.665 33.5416 36.4435 42.3281ZM26.1243 9.06214C29.1453 14.9064 30.5156 22.8808 30.5156 25.5937V29.5312H32.4843V25.5937C32.4843 19.402 34.0721 13.4397 36.9199 8.69793C36.3529 13.356 35.4985 21.0026 35.4433 25.1724C33.7414 28.9829 32.4843 33.4589 32.4843 38.3906V42.3281H30.5156V38.3906C30.5156 33.4589 29.2585 28.9829 27.5575 25.1724C27.5034 21.1099 26.6903 13.7458 26.1243 9.06214ZM28.5468 38.3906V42.3281H26.5564C26.3349 33.5347 23.2253 23.8977 20.9573 17.9865C24.2904 22.3955 28.5468 29.7242 28.5468 38.3906ZM22.6937 29.9299C23.2548 32.1448 23.7411 34.4452 24.0837 36.7477C22.106 32.6812 19.4728 28.4081 17.4765 25.3506C19.592 26.8862 21.7664 28.6463 22.6937 29.9299ZM26.5781 58.0781V49.6627L28.5468 49.8812V60.0469C27.461 60.0469 26.5781 59.1639 26.5781 58.0781ZM32.4843 50.3183V60.0469H30.5156V50.0998L32.4843 50.3183ZM36.4218 58.0781C36.4218 59.1639 35.5388 60.0469 34.4531 60.0469V50.5368L36.4218 50.7553V58.0781ZM23.8159 47.374L24.0256 46.3227L39.0796 48.2048L39.2056 49.0849L23.8159 47.374ZM38.9172 36.7457C39.2598 34.4433 39.746 32.1428 40.3071 29.9279C41.2354 28.6443 43.4089 26.8852 45.5233 25.3506C43.527 28.4071 40.8948 32.6803 38.9172 36.7457Z" fill="white"/>
</svg>
