<svg width="50" height="54" viewBox="0 0 50 54" fill="none" xmlns="http://www.w3.org/2000/svg">
<path d="M49.1347 26.2598C49.1053 25.9163 48.9098 25.6088 48.6111 25.4363C48.3124 25.2639 47.9483 25.2485 47.6362 25.3947C46.5011 25.9266 45.3948 26.5643 44.3269 27.2952C45.8939 20.8 45.9962 14.3104 44.6008 8.90336C44.5057 8.53516 44.2199 8.2466 43.8525 8.1482C43.485 8.04959 43.0933 8.15674 42.8269 8.42811C41.1195 10.1674 39.5563 12.2285 38.1791 14.5313C38.1856 14.2802 38.1899 14.0284 38.1899 13.7758C38.1899 8.80485 36.9117 4.08407 34.5908 0.483152C34.3966 0.182039 34.0627 0 33.7043 0C33.3459 0 33.012 0.182039 32.8178 0.483363C31.3547 2.75337 30.298 5.48923 29.7218 8.46788C27.7171 6.74082 25.1096 5.69531 22.2623 5.69531C20.9224 5.69531 19.636 5.92755 18.4402 6.35259C18.4266 6.35418 18.4129 6.35586 18.3993 6.35755C16.9958 3.68982 14.8884 1.99884 12.4102 1.57106C9.75474 1.11238 7.0133 2.16306 4.6914 4.52893C4.38407 4.84218 4.30275 5.31299 4.48732 5.71113C5.07278 6.97423 5.80631 8.04273 6.65639 8.89218C6.29136 8.989 5.93361 9.11345 5.58514 9.26775C3.12087 10.359 1.42229 12.7534 0.802347 16.0097C0.720292 16.4408 0.913722 16.8777 1.28803 17.1067C2.19991 17.6643 3.12055 18.0773 4.03233 18.3463C3.97632 18.3988 3.92085 18.4521 3.86632 18.5066C1.96071 20.4123 1.23867 23.2578 1.83341 26.5189C1.91219 26.9505 2.25001 27.2885 2.6818 27.3671C2.93324 27.413 3.18183 27.4504 3.42799 27.4806C1.85334 29.3688 1.28676 32.0143 1.83341 35.0115C1.91219 35.4432 2.25001 35.7811 2.6818 35.8598C3.42694 35.9957 4.15003 36.0628 4.8456 36.0628C5.70506 36.0628 6.52149 35.9591 7.28382 35.757C7.12689 36.3556 7.04567 36.969 7.04567 37.5918C7.04567 40.2868 8.54713 42.8095 11.2736 44.6948C11.4541 44.8196 11.6637 44.882 11.8735 44.882C12.0833 44.882 12.293 44.8196 12.4734 44.6948C15.2 42.8095 16.7014 40.287 16.7014 37.5918C16.7014 36.969 16.6202 36.3556 16.4633 35.7571C17.2257 35.9593 18.0419 36.0628 18.9015 36.0628C19.5969 36.0628 20.3203 35.9956 21.0653 35.8598C21.4971 35.781 21.835 35.4432 21.9137 35.0114C22.4602 32.0142 21.8937 29.3686 20.3191 27.4805C20.5653 27.4502 20.814 27.4129 21.0653 27.367C21.4971 27.2882 21.835 26.9504 21.9137 26.5186C22.3945 23.8816 22.0141 21.5168 20.8435 19.7005C21.3467 19.6792 21.8639 19.6218 22.3934 19.5252C22.8252 19.4464 23.163 19.1086 23.2418 18.6768C23.3671 17.9896 23.4276 17.3227 23.4264 16.6814C23.6516 16.6976 23.8792 16.7075 24.1104 16.7075C24.7459 16.7075 25.4029 16.646 26.076 16.5234C26.5078 16.4446 26.8456 16.1068 26.9244 15.675C27.4691 12.6884 26.8053 10.08 25.0556 8.33034C25.0068 8.28151 24.957 8.23384 24.9069 8.1867C28.7697 9.32987 31.5963 12.91 31.5963 17.1385V36.1799C30.3556 33.5018 28.618 31.1695 26.508 29.3958C26.2528 29.1813 25.9109 29.1001 25.5867 29.1768C25.2622 29.2536 24.9931 29.4791 24.861 29.7854C23.2153 33.6003 22.8929 38.1705 23.9534 42.654C24.7892 46.1882 26.418 49.3853 28.628 51.8904H11.8736C11.2912 51.8904 10.8189 52.3626 10.8189 52.9451C10.8189 53.5276 11.2912 53.9998 11.8736 53.9998H45.6222C46.2046 53.9998 46.6769 53.5276 46.6769 52.9451C46.6769 52.3626 46.2046 51.8904 45.6222 51.8904H36.6395C38.8201 50.3732 40.8479 48.4573 42.6187 46.2202C42.9802 45.7635 42.903 45.1001 42.4464 44.7387C41.9897 44.3772 41.3264 44.4543 40.9647 44.911C38.8582 47.5721 36.372 49.7403 33.7055 51.2529V51.1829C33.6946 48.8925 34.0488 46.5225 34.7448 44.1714C34.7548 44.1426 34.7636 44.1134 34.7711 44.0837C35.397 41.995 36.2919 39.9222 37.4395 37.9345C38.9994 35.2328 40.9287 32.8568 43.0978 30.929C43.1356 30.9001 43.1714 30.8686 43.205 30.8346C44.4373 29.7519 45.7453 28.8127 47.1066 28.0413C47.1302 31.1299 46.4862 34.391 45.2164 37.5682C45.0002 38.1091 45.2634 38.7229 45.8044 38.939C46.3449 39.1552 46.9589 38.8919 47.1752 38.3511C48.7883 34.3153 49.4658 30.1341 49.1347 26.2598ZM12.0513 3.64964C13.8133 3.95381 15.3517 5.19297 16.4392 7.16586C14.7531 8.65993 12.8885 9.3112 11.1264 9.00724C9.3644 8.70307 7.82604 7.46402 6.73844 5.49102C8.42447 3.99695 10.2892 3.34515 12.0513 3.64964ZM13.9886 16.2712C13.6534 16.2726 13.3117 16.2899 12.9644 16.3224C13.0168 15.7209 13.1258 15.1353 13.2874 14.5716C13.4525 15.1784 13.6868 15.7473 13.9886 16.2712ZM3.03944 15.6752C3.61393 13.4968 4.80436 11.9205 6.43923 11.1966C8.07421 10.4726 10.0413 10.6506 12.0405 11.6891C11.466 13.8675 10.2757 15.4438 8.64078 16.1677C8.34853 16.2971 8.04531 16.3964 7.73365 16.4684C7.68872 16.4778 7.64358 16.4868 7.59907 16.4968C6.20003 16.781 4.63023 16.5015 3.03944 15.6752ZM5.35807 19.9981C6.06534 19.2909 6.97132 18.8099 8.02421 18.5665C8.04162 18.5629 8.05891 18.5588 8.07621 18.5551C8.89212 18.3734 9.79451 18.3326 10.7608 18.4399C11.0096 20.6789 10.467 22.5782 9.20262 23.8426C8.59048 24.4547 7.82846 24.8961 6.95212 25.162C6.91806 25.1725 6.88378 25.1827 6.84982 25.1935C5.94121 25.4522 4.91267 25.5245 3.79987 25.4009C3.55097 23.1618 4.09371 21.2626 5.35807 19.9981ZM3.79987 33.8935C3.55107 31.6545 4.09371 29.7553 5.35807 28.4909C5.98498 27.864 6.76829 27.415 7.67142 27.1516C7.68239 27.1481 7.69378 27.1451 7.70475 27.1416C8.61484 26.8816 9.64548 26.8089 10.7608 26.9327C10.979 28.8964 10.5882 30.5986 9.63588 31.8405C9.41767 32.0568 9.21285 32.2786 9.021 32.5051C7.7597 33.6466 5.93519 34.1306 3.79987 33.8935ZM11.8736 42.5139C10.1145 41.1067 9.15526 39.3799 9.15526 37.5918C9.15526 36.3107 9.65022 35.0617 10.5766 33.9385C10.6157 33.9011 10.6559 33.8653 10.6943 33.8269C10.8756 33.6456 11.0459 33.4557 11.2057 33.2579C11.414 33.0565 11.6359 32.86 11.8737 32.6696C12.1118 32.86 12.3338 33.0566 12.5421 33.2581C12.7018 33.4558 12.8721 33.6456 13.0533 33.8268C13.0916 33.8651 13.1319 33.9009 13.1709 33.9383C14.0971 35.0616 14.5921 36.3106 14.5921 37.5918C14.5921 39.3799 13.6327 41.1067 11.8736 42.5139ZM19.9473 33.8935C17.8111 34.131 15.9874 33.6466 14.7263 32.5051C14.5345 32.2785 14.3297 32.0567 14.1113 31.8404C13.1591 30.5984 12.7682 28.8962 12.9864 26.9326C14.0994 26.8088 15.1286 26.8811 16.0376 27.1402C16.053 27.1451 16.0691 27.1492 16.0846 27.1542C16.9839 27.4181 17.7644 27.866 18.3892 28.4909C19.6535 29.7552 20.1961 31.6544 19.9473 33.8935ZM19.9476 25.4009C18.8343 25.5245 17.8055 25.4521 16.8967 25.1933C16.8646 25.183 16.832 25.1734 16.7997 25.1634C15.9215 24.8977 15.1579 24.4559 14.5448 23.8426C13.2805 22.5782 12.7377 20.6789 12.9866 18.4399C15.2255 18.191 17.125 18.7339 18.3894 19.9981C19.6537 21.2624 20.1964 23.1618 19.9476 25.4009ZM21.2727 17.5562C19.3105 17.7572 17.6486 17.2734 16.5403 16.165C15.432 15.0568 14.9486 13.3952 15.149 11.4327C17.1126 11.2322 18.7733 11.7157 19.8814 12.8238C20.9896 13.9321 21.4731 15.5937 21.2727 17.5562ZM24.9553 14.5544C24.3296 14.6183 23.731 14.6121 23.1667 14.5369C22.8498 13.2944 22.2469 12.2062 21.373 11.3324C20.2635 10.223 18.8084 9.55083 17.131 9.3458C17.6902 8.97634 18.2912 8.66552 18.9254 8.42189C20.8472 8.24597 22.4734 8.73155 23.564 9.82209C24.6722 10.9303 25.1557 12.5918 24.9553 14.5544ZM30.7723 51.103C28.5041 48.782 26.8327 45.6637 26.006 42.1687C25.1793 38.6737 25.2769 35.1369 26.2651 32.0457C28.5333 34.3667 30.2049 37.485 31.0316 40.9801C31.8581 44.4752 31.7607 48.0119 30.7723 51.103ZM31.5301 10.4346C31.5411 10.3928 31.5504 10.3503 31.5563 10.3064C31.9041 7.69975 32.6394 5.26721 33.7046 3.17229C35.245 6.19808 36.0804 9.89476 36.0804 13.776C36.0804 16.3153 35.7222 18.7752 35.0435 21.0203C34.7898 21.6818 34.5492 22.3537 34.3236 23.0354C34.1323 23.4953 33.9262 23.9429 33.7055 24.3766V17.1387C33.7056 14.6365 32.8977 12.3199 31.5301 10.4346ZM41.9982 27.896C41.8543 28.4332 41.6972 28.9708 41.5338 29.5012C39.2623 31.5527 37.2454 34.0524 35.6129 36.88C35.0985 37.7711 34.6323 38.6793 34.2135 39.5986C33.8962 35.3811 34.3605 30.7455 35.5846 26.1776C35.804 25.3586 36.0456 24.552 36.3065 23.7586C36.5782 23.0973 36.8216 22.414 37.0364 21.7121C38.5597 17.7567 40.5936 14.2189 42.9846 11.3877C43.8777 16.3612 43.5405 22.14 41.9982 27.896Z" fill="white"/>
</svg>
