<svg width="59" height="59" viewBox="0 0 59 59" fill="none" xmlns="http://www.w3.org/2000/svg">
<g clip-path="url(#clip0)">
<path d="M24.0932 16.2624C24.2138 16.3083 24.3372 16.3317 24.4587 16.3317C24.8593 16.3317 25.2392 16.0886 25.395 15.6921C25.5966 15.1757 25.3405 14.5933 24.8256 14.3912C23.3289 13.8069 22.5866 12.1126 23.1722 10.6159C23.7569 9.11962 25.4503 8.37735 26.9475 8.96298C27.4665 9.16194 28.0472 8.90986 28.2493 8.39265C28.4509 7.87545 28.1948 7.29387 27.6799 7.09176C25.147 6.10461 22.2904 7.35824 21.301 9.88575C20.312 12.4137 21.5652 15.2748 24.0932 16.2624Z" fill="white"/>
<path d="M53.3704 19.4287C52.8622 19.6519 52.6308 20.2443 52.8532 20.7516C53.1665 21.4646 53.1813 22.2573 52.8982 22.9811C52.615 23.7063 52.0668 24.278 51.3533 24.5899C50.6403 24.9023 49.849 24.9185 49.1229 24.6349C48.3977 24.3518 47.826 23.8026 47.5141 23.0896C47.2922 22.5823 46.7025 22.3514 46.1912 22.5724C45.683 22.7952 45.452 23.3867 45.674 23.8949C46.2015 25.099 47.1666 26.0263 48.3905 26.5052C48.9721 26.7321 49.5789 26.8455 50.1843 26.8455C50.8555 26.8455 51.5253 26.706 52.1591 26.4287C53.3632 25.9016 54.2904 24.9365 54.7694 23.7112C55.2483 22.486 55.22 21.1482 54.6929 19.9441C54.4709 19.4377 53.8813 19.2081 53.3704 19.4287Z" fill="white"/>
<path d="M39.3419 16.6401C38.8598 16.9129 38.6887 17.5255 38.962 18.0089C39.3446 18.6855 39.4414 19.4732 39.2334 20.2223C39.0245 20.9726 38.5362 21.5961 37.8582 21.9796C37.1803 22.3636 36.3931 22.4581 35.6449 22.251C34.8946 22.0422 34.2711 21.5538 33.8876 20.8759C33.6153 20.3929 33.0004 20.2232 32.5196 20.4964C32.0375 20.7696 31.8665 21.3823 32.1397 21.8653C33.0436 23.465 34.7149 24.3649 36.4336 24.3649C37.2528 24.3649 38.0847 24.16 38.8467 23.7293C39.9919 23.0824 40.8161 22.0291 41.1685 20.7615C41.5215 19.4939 41.3576 18.1665 40.7108 17.0213C40.4375 16.5374 39.824 16.3668 39.3419 16.6401Z" fill="white"/>
<path d="M30.7708 18.4528C31.4608 18.7859 32.1887 18.9439 32.908 18.9439C34.7369 18.9439 36.4974 17.9203 37.3473 16.1656C37.5881 15.6669 37.3792 15.066 36.88 14.8238C36.3781 14.5821 35.7794 14.7927 35.5382 15.291C34.8382 16.7382 33.0917 17.3427 31.6454 16.645C30.1996 15.9451 29.5919 14.1976 30.2918 12.7523C30.5327 12.2531 30.3238 11.6526 29.8246 11.4104C29.3236 11.1682 28.7249 11.3793 28.4827 11.8772C27.302 14.3201 28.327 17.2694 30.7708 18.4528Z" fill="white"/>
<path d="M23.3025 24.1672C23.934 24.4436 24.6029 24.5823 25.2732 24.5823C25.8795 24.5823 26.4881 24.4688 27.0696 24.2406C28.2949 23.7608 29.2591 22.8335 29.7844 21.6285C30.0072 21.1203 29.7745 20.5274 29.2663 20.3055C28.7541 20.0836 28.1653 20.3177 27.9443 20.8236C27.6323 21.5371 27.0615 22.0863 26.3364 22.3703C25.6126 22.6548 24.8212 22.6408 24.106 22.3271C22.6336 21.6834 21.9597 19.9621 22.6025 18.4897C22.8253 17.9815 22.5926 17.3891 22.0844 17.1667C21.5708 16.9457 20.9834 17.1789 20.7624 17.6853C19.6771 20.1709 20.8168 23.0797 23.3025 24.1672Z" fill="white"/>
<path d="M35.9671 13.5999C36.1269 13.6147 36.2863 13.6219 36.4465 13.6219C37.5863 13.6219 38.681 13.2299 39.5709 12.4961C41.664 10.7685 41.962 7.65899 40.2349 5.56631C39.881 5.13913 39.2504 5.07611 38.8205 5.43036C38.3929 5.78372 38.3326 6.41661 38.685 6.84469C39.7082 8.08391 39.5317 9.92497 38.2912 10.9472C37.6916 11.4424 36.9435 11.6782 36.158 11.6004C35.3837 11.5261 34.6838 11.1543 34.1886 10.5538C33.8353 10.1271 33.2042 10.0636 32.7743 10.4179C32.3467 10.7717 32.2864 11.4041 32.6388 11.8322C33.4752 12.8463 34.6577 13.4743 35.9671 13.5999Z" fill="white"/>
<path d="M15.3823 22.6687C15.5912 22.1547 15.3431 21.569 14.8286 21.3602C14.3164 21.1536 13.7289 21.3984 13.5201 21.9138C12.9165 23.4024 11.2163 24.1231 9.72364 23.5186C8.23549 22.914 7.51528 21.2121 8.11891 19.7221C8.32687 19.2081 8.07975 18.6229 7.56524 18.4136C7.05029 18.2061 6.46466 18.4528 6.2567 18.9673C5.23669 21.4831 6.45296 24.3594 8.96741 25.3799C9.5724 25.6248 10.1967 25.7405 10.8125 25.7405C12.7589 25.74 14.6063 24.58 15.3823 22.6687Z" fill="white"/>
<path d="M57.4094 19.7983C58.004 17.9464 57.5161 15.8938 56.0919 14.4939C55.0745 13.4955 53.7066 12.9449 52.2918 12.9629C52.0559 12.3364 51.685 11.7678 51.1971 11.2889C49.9083 10.0231 48.0646 9.65985 46.4355 10.155C46.4387 10.0663 46.4576 9.98124 46.4576 9.89257C46.4576 5.97684 43.2216 2.79123 39.2455 2.79123C38.4915 2.79123 37.7533 2.90556 37.0399 3.13333C35.9051 1.95352 34.3143 1.26752 32.651 1.26752C30.8001 1.26752 29.072 2.10297 27.935 3.49929C26.9928 3.0343 25.9584 2.79213 24.8939 2.79213C21.1316 2.79213 18.0702 5.80713 18.0702 9.5131V9.55226C17.0169 10.0483 16.1401 10.8032 15.4802 11.7102C13.5882 11.0062 11.4276 11.4059 9.93224 12.8139C8.05653 12.2256 5.96925 12.6974 4.54727 14.0946C3.53086 15.093 2.97765 16.4425 2.98125 17.8325C2.34656 18.0634 1.76993 18.4262 1.28379 18.9034C0.381715 19.7883 -0.115234 20.9673 -0.115234 22.224C-0.115234 23.4804 0.381715 24.6593 1.28379 25.546C1.80414 26.0565 2.42173 26.4341 3.10369 26.6601C3.11179 28.1105 3.69651 29.5176 4.75253 30.5547C5.80225 31.586 7.19407 32.1509 8.63945 32.1675C8.71688 33.1349 9.13865 34.063 9.85167 34.763C10.6642 35.5602 11.731 35.9599 12.7992 35.9599C13.2029 35.9599 13.6017 35.8847 13.9916 35.77C18.1211 35.8856 23.7424 44.9689 24.4815 55.5696C24.5729 56.8773 25.6748 57.9013 26.9883 57.9013H32.01C33.2916 57.9013 34.3692 56.9394 34.5137 55.6628L34.5902 54.9579C35.9663 42.211 38.8323 35.6669 43.1086 35.4711C43.9485 35.9244 44.8713 36.1751 45.8036 36.1751C47.2395 36.1751 48.6759 35.6381 49.7697 34.564C50.1469 34.1936 50.4643 33.7777 50.7195 33.3217C51.9592 33.3145 53.1664 32.8306 54.0541 31.9591C55.0354 30.9958 55.5283 29.6733 55.4419 28.3405C56.1418 28.0812 56.7788 27.6774 57.3171 27.149C58.3281 26.156 58.8849 24.8339 58.8849 23.4263C58.884 22.0633 58.3628 20.7809 57.4094 19.7983ZM19.4441 11.1592C19.896 11.0067 20.1773 10.557 20.1188 10.0839C20.0959 9.89572 20.0796 9.70621 20.0796 9.5113C20.0796 6.91312 22.239 4.79883 24.8948 4.79883C25.89 4.79883 26.847 5.09727 27.6653 5.66174C27.8976 5.82244 28.1888 5.87646 28.463 5.81344C28.738 5.74997 28.9739 5.57306 29.1116 5.32594C29.8219 4.06061 31.1795 3.27422 32.6519 3.27422C33.9416 3.27422 35.1646 3.88776 35.924 4.91632C36.2022 5.29398 36.7045 5.42722 37.133 5.24086C37.806 4.94738 38.5172 4.79883 39.2464 4.79883C42.1147 4.79883 44.4495 7.08372 44.4495 9.89167C44.4495 10.5799 44.3001 11.2497 44.0197 11.8876C44.0188 11.8903 44.017 11.8916 44.0156 11.8943L43.9395 12.0771C43.9373 12.0802 43.9364 12.0843 43.9355 12.0874V12.0883L43.9332 12.0924C43.9152 12.1306 43.9152 12.1707 43.9022 12.2099C43.8743 12.2945 43.841 12.3778 43.8351 12.4637C43.8342 12.4849 43.8423 12.5043 43.8423 12.5254C43.8423 12.6298 43.8482 12.7352 43.8806 12.8338C43.8905 12.8657 43.9148 12.8909 43.9274 12.922C43.9638 13.0053 43.999 13.0894 44.0561 13.1619C44.1353 13.2605 44.2339 13.3447 44.3514 13.409C44.8988 13.7115 45.2251 14.2485 45.2251 14.8472C45.2251 15.449 44.8785 16.0041 44.3231 16.2993C44.0741 16.4312 43.8923 16.6613 43.8212 16.9331C43.7509 17.2055 43.7968 17.4945 43.9485 17.7308C44.2762 18.2385 44.4495 18.8233 44.4495 19.4197C44.4495 20.7003 43.6704 21.8522 42.4631 22.3546C41.9621 22.5634 41.7181 23.1329 41.9121 23.6411C42.0517 24.0057 42.1219 24.3811 42.1219 24.7556C42.1219 26.5134 40.6585 27.9435 38.8589 27.9435C38.6743 27.9435 38.4915 27.9232 38.3083 27.8912C38.2701 27.8849 38.2332 27.8759 38.1958 27.8692C38.0171 27.8318 37.8384 27.7837 37.6637 27.7152H37.6624C36.9926 27.4542 36.4151 26.9824 36.0415 26.3545C35.8628 26.056 35.5432 25.8715 35.1961 25.8643C34.8225 25.8643 34.5223 26.0322 34.3354 26.3243C33.7917 27.1661 33.0274 27.8075 32.146 28.2144C32.0163 28.2748 31.8858 28.3319 31.753 28.3814C31.6877 28.4053 31.6198 28.4246 31.5532 28.4458C31.4276 28.4859 31.3024 28.5268 31.1737 28.5583C31.0864 28.5795 30.9968 28.5912 30.9077 28.6083C30.7951 28.6295 30.6835 28.6547 30.5701 28.6677C30.3743 28.6907 30.1753 28.7028 29.9745 28.7046C29.8246 28.7055 29.6743 28.6947 29.5244 28.6826C29.4762 28.6785 29.4272 28.6785 29.379 28.6736C29.2152 28.6556 29.0513 28.6263 28.8888 28.593C28.8577 28.5871 28.8244 28.5831 28.7934 28.5763C28.6165 28.5358 28.4418 28.4859 28.269 28.4273C28.2537 28.4224 28.2388 28.4183 28.224 28.4134C28.0367 28.3481 27.8521 28.2739 27.6712 28.1865C26.8943 27.8161 26.2082 27.2615 25.6937 26.5516C25.5348 26.3324 25.2949 26.1857 25.0271 26.147C24.9776 26.1398 24.9294 26.1357 24.8803 26.1357C24.6611 26.1357 24.4464 26.2068 24.2704 26.3428C24.0116 26.5404 23.7293 26.6921 23.4381 26.8217C23.4309 26.8249 23.4237 26.824 23.417 26.8267C23.1536 26.9424 22.8885 27.0279 22.6225 27.0868C22.6135 27.0891 22.6045 27.0918 22.595 27.094C22.3272 27.1526 22.058 27.1823 21.7897 27.1823C19.562 27.1823 17.7515 25.4105 17.7515 23.2323C17.7515 22.3987 18.0185 21.5983 18.5235 20.9164C18.6874 20.6967 18.754 20.4194 18.7076 20.1489C18.6626 19.8788 18.5078 19.6398 18.2809 19.4863C16.9773 18.6036 16.1999 17.1542 16.1999 15.6093C16.1999 15.3806 16.2211 15.1556 16.2539 14.9336C16.2621 14.8765 16.2751 14.8202 16.285 14.7639C16.3174 14.5951 16.3575 14.4281 16.4074 14.2647C16.4259 14.2076 16.4417 14.1499 16.4619 14.0928C16.524 13.9163 16.5965 13.7444 16.6789 13.5765C16.6946 13.5436 16.7068 13.5094 16.7248 13.4761C17.2785 12.4129 18.2368 11.5671 19.4441 11.1592ZM33.7768 29.613C34.2891 29.2934 34.7662 28.918 35.1867 28.4751C35.6098 28.8806 36.1067 29.1962 36.6383 29.442C36.6671 29.4784 36.6955 29.5135 36.7347 29.5527C36.9003 29.7152 37.079 29.8628 37.269 29.9943C36.0266 31.4415 34.9157 33.1412 33.9978 34.7882C34.0591 32.8567 33.9443 31.098 33.7768 29.613ZM27.2589 40.1813C25.5875 36.3389 23.4674 33.5526 21.8073 31.7458C22.1264 31.6022 22.4249 31.4081 22.6819 31.1561C23.2374 30.6101 23.5457 29.8768 23.5646 29.1188C23.7937 28.9941 24.0237 28.8293 24.2538 28.6605C24.3965 28.5975 24.5409 28.5381 24.6782 28.4638C25.1756 28.986 25.7491 29.4267 26.3716 29.7773C27.1733 32.9048 27.3147 36.9786 27.2589 40.1813ZM11.2579 33.3307C10.7155 32.7973 10.5075 32.0424 10.7024 31.31C10.7916 30.9715 10.6993 30.6101 10.4571 30.3571C10.2653 30.1572 10.0025 30.0478 9.73103 30.0478C9.65991 30.0478 9.58654 30.0559 9.51497 30.0708C8.2879 30.34 7.03652 29.9853 6.15786 29.1228C5.33996 28.3193 4.96635 27.1692 5.16036 26.0466C5.20762 25.7752 5.14055 25.4983 4.9767 25.2773C4.81285 25.0572 4.56573 24.9136 4.29249 24.8794C3.67671 24.8042 3.12259 24.5391 2.68956 24.1133C2.17641 23.6068 1.89327 22.9361 1.89327 22.224C1.89327 21.5119 2.17641 20.8412 2.69181 20.3362C3.10233 19.9324 3.62764 19.6709 4.21012 19.5817C4.4793 19.5403 4.71922 19.3918 4.87722 19.1699C5.03387 18.9479 5.09509 18.672 5.04377 18.4046C4.84796 17.3563 5.18826 16.2804 5.95484 15.5274C6.9582 14.5411 8.49271 14.2908 9.77334 14.9048C10.1902 15.1047 10.6984 14.9913 10.9914 14.6266C11.0738 14.5231 11.1602 14.4218 11.2588 14.3251C12.1303 13.4675 13.387 13.1741 14.5367 13.5045C14.5268 13.5337 14.5241 13.5648 14.5146 13.594C14.4385 13.8308 14.3832 14.0752 14.3341 14.321C14.3161 14.4097 14.2896 14.4961 14.2756 14.5852C14.2234 14.921 14.1923 15.2622 14.1923 15.6088C14.1923 17.499 15.0017 19.2855 16.3939 20.55C15.9668 21.3787 15.7448 22.2898 15.7448 23.2305C15.7448 23.4335 15.7561 23.6334 15.7759 23.831C15.7831 23.9003 15.7971 23.9679 15.8074 24.0372C15.8241 24.1637 15.8403 24.2911 15.8664 24.4157C15.8826 24.495 15.9064 24.5715 15.9258 24.6489C15.9528 24.7592 15.978 24.8717 16.0122 24.9793C16.0383 25.0617 16.0703 25.14 16.0996 25.2201C16.1356 25.3205 16.1698 25.4222 16.2107 25.5195C16.2458 25.6018 16.2873 25.6793 16.3255 25.7594C16.3696 25.8521 16.4119 25.9453 16.461 26.0349C16.5042 26.1141 16.5533 26.1884 16.5997 26.2658C16.6519 26.3522 16.7018 26.4387 16.7572 26.5219C16.8085 26.5971 16.8639 26.6682 16.9179 26.7407C16.9773 26.8199 17.0345 26.9 17.098 26.9775C17.156 27.049 17.2195 27.1152 17.2816 27.1836C17.3469 27.2556 17.4112 27.329 17.4806 27.3983C17.5458 27.4636 17.6161 27.5248 17.6845 27.5883C17.7556 27.6536 17.8272 27.7211 17.9014 27.7823C17.9726 27.8413 18.0477 27.8966 18.1225 27.9529C18.1994 28.011 18.276 28.0704 18.3561 28.1258C18.4335 28.1789 18.5141 28.227 18.5942 28.2761C18.6766 28.3274 18.759 28.3787 18.8445 28.426C18.9269 28.471 19.011 28.5124 19.0957 28.5543C19.1839 28.5975 19.2721 28.6416 19.3626 28.6812C19.449 28.7181 19.5377 28.7514 19.6259 28.7843C19.7191 28.8199 19.8127 28.8559 19.9081 28.886C19.9982 28.9153 20.0909 28.9401 20.1832 28.9653C20.2809 28.9914 20.3772 29.0175 20.4753 29.0395C20.5698 29.0607 20.6653 29.0769 20.7616 29.0926C20.8624 29.1098 20.9628 29.126 21.065 29.139C21.1627 29.1512 21.2613 29.1579 21.3594 29.1651C21.4238 29.1692 21.4859 29.1791 21.5502 29.1822C21.5219 29.3839 21.4278 29.572 21.277 29.7215C21.0137 29.9794 20.6234 30.0708 20.2566 29.9628C19.9896 29.884 19.7033 29.9195 19.4652 30.0591C19.2262 30.1986 19.0556 30.4314 18.9935 30.7014C18.9489 30.8954 18.8778 31.0791 18.7824 31.2502C18.6851 31.4248 18.5645 31.5846 18.42 31.725C17.8011 32.3336 16.8765 32.5173 16.0586 32.1932C15.5634 31.9951 14.999 32.222 14.7762 32.7063C14.669 32.9404 14.5209 33.1502 14.3404 33.328C14.1271 33.5368 13.8664 33.6998 13.5657 33.8101C13.5617 33.811 13.5599 33.815 13.5558 33.8159C12.7794 34.0982 11.8773 33.9384 11.2579 33.3307ZM32.5916 54.7432L32.5164 55.4368C32.4863 55.697 32.2684 55.8928 32.0082 55.8928H26.9865C26.7223 55.8928 26.5022 55.6889 26.4846 55.4301C25.8135 45.8066 21.1645 36.6378 16.2463 34.3142C16.3237 34.3259 16.4011 34.3282 16.4786 34.3354C16.5488 34.3421 16.619 34.3511 16.6883 34.3543C16.7847 34.3583 16.8801 34.3552 16.9755 34.3534C17.0439 34.3511 17.1124 34.3534 17.1794 34.348C17.2753 34.3412 17.3694 34.3259 17.4639 34.3129C17.531 34.3039 17.5985 34.298 17.6656 34.285C17.7592 34.267 17.8506 34.2418 17.9429 34.2179C18.009 34.2008 18.0756 34.1877 18.1409 34.1666C18.2332 34.1373 18.3223 34.1 18.4128 34.0648C18.4745 34.041 18.5375 34.0207 18.5978 33.9937C18.6964 33.9496 18.7896 33.8974 18.885 33.8461C18.9341 33.8191 18.9854 33.797 19.0335 33.7687C19.151 33.6993 19.2627 33.6201 19.3743 33.5386C19.3963 33.5215 19.4216 33.5085 19.4436 33.4914C19.5759 33.3892 19.7038 33.2794 19.8253 33.1601C19.9235 33.0637 20.0157 32.9634 20.1035 32.8576C22.0679 34.9557 25.4111 39.2774 27.018 45.7C27.1355 46.1739 27.5807 46.4904 28.0655 46.4584C28.553 46.4224 28.9433 46.0416 28.9919 45.5555C29.0297 45.171 29.8305 36.8539 28.621 30.5934C28.6925 30.606 28.7655 30.6092 28.837 30.6204C28.9977 30.6456 29.1584 30.6686 29.3223 30.6825C29.4317 30.6915 29.541 30.6947 29.6504 30.6996C29.7468 30.7037 29.8413 30.7149 29.9381 30.7149C29.9939 30.7149 30.0484 30.7077 30.1037 30.7068C30.2172 30.7037 30.3306 30.6978 30.444 30.6897C30.5948 30.6794 30.7456 30.6654 30.8942 30.6456C31.0004 30.6312 31.1048 30.6155 31.2102 30.5975C31.3731 30.5682 31.5347 30.534 31.6945 30.4939C31.7467 30.4809 31.8012 30.4746 31.8534 30.4597C32.1284 33.3784 32.1352 37.282 31.0427 41.1689C30.896 41.6879 31.1872 42.2303 31.7004 42.396C32.214 42.5639 32.7658 42.2929 32.9517 41.7874C32.976 41.7226 35.1664 35.8177 38.3421 31.8245C38.352 31.8407 38.3682 31.8538 38.379 31.8709C38.4906 32.0406 38.6171 32.2013 38.7648 32.348C38.7688 32.3521 38.7706 32.357 38.7747 32.3606C38.9084 32.4912 39.0538 32.6069 39.2068 32.7095C39.2118 32.7122 39.2158 32.7171 39.2208 32.7212C39.2982 32.7725 39.3824 32.8067 39.4638 32.8508C39.5503 32.8972 39.6322 32.9517 39.7227 32.9886C39.769 33.0075 39.8181 33.0156 39.8645 33.0327C39.9959 33.08 40.1264 33.1272 40.2637 33.1565C40.4496 33.1956 40.6387 33.2177 40.8291 33.2217C40.9376 33.4275 41.0596 33.6255 41.1928 33.8141C34.5884 36.2341 33.1088 49.9474 32.5916 54.7432ZM55.9091 25.7162C55.4247 26.192 54.8085 26.5044 54.1293 26.621C53.847 26.6691 53.599 26.8357 53.4464 27.0801C53.2938 27.3241 53.2546 27.6203 53.3361 27.8957C53.6103 28.8307 53.346 29.8381 52.6461 30.5259C52.0253 31.1336 51.1296 31.4117 50.2608 31.279C49.8008 31.206 49.343 31.4658 49.1701 31.9046C48.9883 32.3696 48.7168 32.7815 48.3603 33.1299C47.1364 34.3331 45.2449 34.4902 43.8441 33.603C43.8428 33.6021 43.8419 33.6012 43.841 33.6003C43.6109 33.4536 43.4151 33.3001 43.2414 33.129C42.8606 32.7559 42.5774 32.3098 42.3969 31.8038C42.3546 31.6872 42.2902 31.5878 42.2151 31.4973C42.1939 31.4721 42.1678 31.4532 42.1448 31.4302C42.0854 31.373 42.0242 31.3226 41.954 31.2812C41.9198 31.2614 41.8856 31.2452 41.8496 31.2303C41.7802 31.2002 41.71 31.179 41.6348 31.1651C41.5943 31.157 41.5565 31.1489 41.5142 31.1462C41.493 31.1448 41.4719 31.1358 41.4507 31.1358C41.3634 31.1358 41.2752 31.1471 41.1879 31.1714C41.1865 31.1714 41.1847 31.1714 41.1829 31.1714C41.1406 31.1831 41.0974 31.1831 41.0555 31.1894C40.785 31.2294 40.519 31.1673 40.3042 31.0147C40.2628 30.9846 40.2187 30.9594 40.1818 30.9234C40.1116 30.8549 40.0562 30.7757 40.0108 30.6911C40 30.6699 39.9936 30.6461 39.9837 30.624C39.9558 30.5587 39.9315 30.4903 39.9185 30.4192C39.8915 30.2716 39.8942 30.1167 39.9414 29.9623C39.9545 29.92 39.9648 29.8768 39.9716 29.8336C40.2831 29.7674 40.5833 29.6711 40.8714 29.5522C40.9538 29.518 41.0281 29.4708 41.1086 29.4339C41.3184 29.3353 41.5241 29.2308 41.7181 29.1075C41.8176 29.044 41.9067 28.9707 42.0013 28.9013C42.1629 28.7821 42.32 28.6596 42.4662 28.5237C42.5576 28.4386 42.6422 28.349 42.7264 28.2576C42.8592 28.1163 42.9826 27.9696 43.0978 27.8138C43.1734 27.7134 43.2445 27.6122 43.312 27.5064C43.4174 27.3407 43.5097 27.1679 43.5961 26.9901C43.6492 26.8807 43.7055 26.774 43.7509 26.6606C43.8311 26.4607 43.8905 26.2536 43.9458 26.043C43.9728 25.9403 44.0089 25.8431 44.0291 25.7378C44.0912 25.4182 44.1304 25.0909 44.1304 24.7533C44.1304 24.4301 44.0993 24.1087 44.0372 23.791C45.5308 22.8461 46.4576 21.2112 46.4576 19.4183C46.4576 18.7544 46.328 18.1017 46.079 17.49C46.6241 16.9777 47.0009 16.3151 47.1558 15.589C47.2071 15.3469 47.2341 15.0979 47.2341 14.8445C47.2341 14.6028 47.2062 14.3647 47.1589 14.1324C47.1436 14.0572 47.1157 13.9879 47.0954 13.9136C47.0531 13.7592 47.009 13.6053 46.9478 13.4576C46.9127 13.3744 46.8677 13.2969 46.8263 13.2164C46.7601 13.0867 46.6926 12.9593 46.6115 12.8387C46.5571 12.7586 46.4959 12.6843 46.4355 12.6078C46.3824 12.5407 46.3392 12.4673 46.2807 12.4039C47.3534 11.6769 48.8397 11.7845 49.79 12.7194C50.1987 13.12 50.462 13.6305 50.552 14.1941C50.5943 14.461 50.742 14.6991 50.963 14.8558C51.1827 15.0115 51.4591 15.0718 51.7224 15.0246C52.805 14.8297 53.9127 15.1659 54.6847 15.9253C55.6782 16.9016 55.9312 18.3911 55.3167 19.6313C55.1029 20.0611 55.2231 20.5815 55.6039 20.8736C55.7092 20.9551 55.8128 21.0406 55.9104 21.1361C56.533 21.7487 56.8764 22.5612 56.8764 23.4245C56.8755 24.2906 56.5316 25.1031 55.9091 25.7162Z" fill="white"/>
</g>
<defs>
<clipPath id="clip0">
<rect width="59" height="59" fill="white"/>
</clipPath>
</defs>
</svg>
