<svg width="46" height="64" viewBox="0 0 46 64" fill="none" xmlns="http://www.w3.org/2000/svg">
<path d="M25.5011 40.3778C25.8429 40.6747 26.2122 40.9383 26.604 41.1651L27.6931 41.7952C27.8139 41.8651 27.9474 41.9105 28.0859 41.9288C28.2243 41.9471 28.365 41.938 28.4999 41.9018C28.6348 41.8657 28.7612 41.8034 28.872 41.7183C28.9828 41.6333 29.0757 41.5273 29.1455 41.4063L29.7734 40.3162C29.9999 39.9218 30.1888 39.507 30.3376 39.0773C30.744 39.2757 31.1675 39.4368 31.6031 39.5586L32.8186 39.8838C32.9082 39.9085 33.0008 39.921 33.0938 39.9209C33.3278 39.9209 33.5552 39.8436 33.7408 39.7011C33.9264 39.5585 34.0597 39.3587 34.1201 39.1326L34.4452 37.9171C34.5569 37.479 34.628 37.0316 34.6577 36.5804C35.1038 36.6668 35.557 36.7109 36.0114 36.7122H37.2704C37.5522 36.7122 37.8225 36.6002 38.0217 36.401C38.221 36.2017 38.3329 35.9315 38.3329 35.6497V34.3906C38.3316 33.9363 38.2875 33.4831 38.2012 33.037C38.6523 33.0073 39.0997 32.9361 39.5378 32.8245L40.7533 32.4994C40.8881 32.4633 41.0145 32.4009 41.1252 32.316C41.2359 32.231 41.3288 32.1251 41.3985 32.0042C41.4683 31.8833 41.5135 31.7499 41.5317 31.6115C41.5499 31.4732 41.5407 31.3326 41.5045 31.1978L41.1836 29.9813C41.0618 29.5457 40.9007 29.1222 40.7023 28.7158C41.132 28.5673 41.5468 28.3788 41.9412 28.1527L43.0313 27.5237C43.1523 27.4539 43.2583 27.361 43.3433 27.2502C43.4284 27.1394 43.4907 27.013 43.5268 26.8781C43.563 26.7432 43.5721 26.6025 43.5538 26.4641C43.5355 26.3256 43.4901 26.1921 43.4202 26.0713L42.7901 24.9822C42.5642 24.5925 42.302 24.225 42.0071 23.8846C42.3791 23.6278 42.7276 23.3384 43.0483 23.0198L43.9387 22.1294C44.1379 21.9301 44.2498 21.6599 44.2498 21.3782C44.2498 21.0965 44.1379 20.8263 43.9387 20.627L43.0483 19.7366C42.7258 19.4199 42.3759 19.1323 42.0028 18.8771C42.2993 18.535 42.563 18.1658 42.7901 17.7742L43.4202 16.6851C43.4901 16.5642 43.5355 16.4308 43.5538 16.2923C43.5721 16.1539 43.563 16.0132 43.5268 15.8783C43.4907 15.7434 43.4284 15.6169 43.3433 15.5062C43.2583 15.3954 43.1523 15.3025 43.0313 15.2327L41.9412 14.6048C41.5468 14.3783 41.132 14.1894 40.7023 14.0406C40.9007 13.6342 41.0618 13.2106 41.1836 12.7751L41.5087 11.5596C41.5449 11.4248 41.5542 11.2843 41.536 11.1459C41.5178 11.0075 41.4725 10.8741 41.4028 10.7532C41.333 10.6324 41.2401 10.5264 41.1294 10.4415C41.0187 10.3565 40.8924 10.2942 40.7576 10.2581L39.5421 9.93294C38.5324 9.66766 37.4793 9.61121 36.447 9.76705C35.4148 9.92289 34.4253 10.2877 33.5389 10.8393C33.9968 10.0925 34.3245 9.27331 34.5079 8.41675C34.9959 8.26147 35.5037 8.17702 36.0156 8.166H37.2747C37.5565 8.166 37.8267 8.05406 38.026 7.8548C38.2252 7.65555 38.3372 7.38529 38.3372 7.1035C38.3372 6.82171 38.2252 6.55146 38.026 6.3522C37.8267 6.15294 37.5565 6.041 37.2747 6.041H36.0156C35.5613 6.0423 35.1081 6.08641 34.662 6.17275C34.6323 5.72164 34.5611 5.27422 34.4495 4.83613L34.1244 3.62063C34.0883 3.48583 34.0259 3.35948 33.941 3.24877C33.856 3.13807 33.7501 3.04518 33.6292 2.97543C33.5083 2.90567 33.3749 2.86041 33.2365 2.84222C33.0982 2.82404 32.9576 2.83328 32.8228 2.86944L31.6062 3.19138C31.1707 3.31317 30.7472 3.47427 30.3408 3.67269C30.1923 3.24301 30.0038 2.82823 29.7777 2.43381L29.1487 1.34369C29.0789 1.22272 28.986 1.11669 28.8752 1.03166C28.7644 0.946633 28.638 0.884278 28.5031 0.848161C28.3682 0.812044 28.2275 0.802873 28.0891 0.821174C27.9506 0.839474 27.8171 0.884887 27.6962 0.954814L26.6072 1.58488C26.2154 1.81168 25.8461 2.07531 25.5043 2.37219C25.2491 1.99907 24.9615 1.64921 24.6448 1.32669L23.7544 0.436314C23.5551 0.237126 23.2849 0.125229 23.0032 0.125229C22.7214 0.125229 22.4512 0.237126 22.252 0.436314L21.3616 1.32669C21.0449 1.64921 20.7573 1.99907 20.5021 2.37219C20.1603 2.07531 19.791 1.81168 19.3992 1.58488L18.3101 0.954814C18.1892 0.884887 18.0558 0.839474 17.9173 0.821174C17.7789 0.802873 17.6382 0.812044 17.5033 0.848161C17.3684 0.884278 17.2419 0.946633 17.1312 1.03166C17.0204 1.11669 16.9275 1.22272 16.8577 1.34369L16.2298 2.43381C16.0033 2.8282 15.8144 3.24298 15.6656 3.67269C15.2571 3.47391 14.8314 3.3128 14.3937 3.19138L13.1814 2.86625C13.0467 2.8301 12.9061 2.82085 12.7677 2.83903C12.6293 2.85722 12.4959 2.90248 12.3751 2.97224C12.2542 3.04199 12.1482 3.13488 12.0633 3.24558C11.9783 3.35629 11.916 3.48265 11.8799 3.61744L11.5548 4.83294C11.4431 5.27103 11.372 5.71845 11.3422 6.16956C10.8962 6.08322 10.443 6.03911 9.98862 6.03781H8.72531C8.44352 6.03781 8.17327 6.14976 7.97401 6.34901C7.77475 6.54827 7.66281 6.81852 7.66281 7.10031V8.35938C7.66411 8.81372 7.70822 9.26693 7.79456 9.713C7.34345 9.74274 6.89603 9.81387 6.45794 9.9255L5.24244 10.2506C5.10764 10.2867 4.98129 10.3491 4.87058 10.434C4.75988 10.519 4.66699 10.6249 4.59724 10.7458C4.52748 10.8667 4.48222 11.0001 4.46403 11.1385C4.44585 11.2768 4.45509 11.4174 4.49125 11.5522L4.81637 12.7677C4.93817 13.2032 5.09927 13.6268 5.29769 14.0331C4.86801 14.1816 4.45323 14.3702 4.05881 14.5963L2.96869 15.2253C2.84772 15.295 2.74169 15.3879 2.65666 15.4987C2.57163 15.6095 2.50928 15.736 2.47316 15.8709C2.43704 16.0058 2.42787 16.1464 2.44617 16.2849C2.46447 16.4233 2.50989 16.5568 2.57981 16.6777L3.20987 17.7668C3.43694 18.1584 3.70055 18.5277 3.99719 18.8696C3.62387 19.1246 3.27399 19.4122 2.95169 19.7292L2.06131 20.6196C1.86212 20.8188 1.75023 21.089 1.75023 21.3708C1.75023 21.6525 1.86212 21.9227 2.06131 22.1219L2.95169 23.0123C3.27271 23.3306 3.62114 23.62 3.99294 23.8772C3.69796 24.2176 3.43577 24.5851 3.20987 24.9748L2.57981 26.0638C2.50989 26.1847 2.46447 26.3182 2.44617 26.4566C2.42787 26.5951 2.43704 26.7358 2.47316 26.8706C2.50928 27.0055 2.57163 27.132 2.65666 27.2428C2.74169 27.3536 2.84772 27.4465 2.96869 27.5163L4.05881 28.1442C4.45298 28.371 4.8678 28.56 5.29769 28.7084C5.09927 29.1147 4.93817 29.5383 4.81637 29.9738L4.49125 31.1893C4.45509 31.3241 4.44585 31.4647 4.46403 31.603C4.48222 31.7414 4.52748 31.8748 4.59724 31.9957C4.66699 32.1166 4.75988 32.2225 4.87058 32.3075C4.98129 32.3924 5.10764 32.4548 5.24244 32.4909L6.45794 32.816C6.89603 32.9276 7.34345 32.9988 7.79456 33.0285C7.70822 33.4746 7.66411 33.9278 7.66281 34.3821V35.6412C7.66281 35.923 7.77475 36.1932 7.97401 36.3925C8.17327 36.5917 8.44352 36.7037 8.72531 36.7037H9.98438C10.4387 36.7024 10.8919 36.6583 11.338 36.5719C11.3677 37.0231 11.4389 37.4705 11.5505 37.9086L11.8756 39.1241C11.936 39.3502 12.0693 39.55 12.2549 39.6926C12.4405 39.8351 12.668 39.9124 12.902 39.9124C12.995 39.9125 13.0876 39.9 13.1772 39.8753L14.3927 39.5501C14.8282 39.4283 15.2518 39.2672 15.6581 39.0688C15.8066 39.4985 15.9952 39.9133 16.2213 40.3077L16.8503 41.3978C16.92 41.5188 17.0129 41.6248 17.1237 41.7098C17.2345 41.7949 17.361 41.8572 17.4959 41.8933C17.6308 41.9295 17.7714 41.9386 17.9099 41.9203C18.0483 41.902 18.1818 41.8566 18.3027 41.7867L19.3918 41.1566C19.5352 41.0748 19.6712 40.9813 19.8083 40.8889V46.9813C18.5688 45.0001 16.8467 43.3662 14.8032 42.2326C12.7597 41.099 10.4619 40.5028 8.125 40.5H1.75C1.46821 40.5 1.19796 40.6119 0.998699 40.8112C0.799442 41.0105 0.6875 41.2807 0.6875 41.5625C0.691718 45.2245 2.14831 48.7353 4.73775 51.3248C7.32718 53.9142 10.838 55.3708 14.5 55.375H19.8125V62.8125C19.8125 63.0943 19.9244 63.3645 20.1237 63.5638C20.323 63.7631 20.5932 63.875 20.875 63.875C21.1568 63.875 21.427 63.7631 21.6263 63.5638C21.8256 63.3645 21.9375 63.0943 21.9375 62.8125V42.0024L22.2488 42.3137C22.4481 42.5129 22.7183 42.6248 23 42.6248C23.2817 42.6248 23.5519 42.5129 23.7512 42.3137L24.6416 41.4233C24.9583 41.1008 25.2459 40.7509 25.5011 40.3778ZM2.86031 42.625H8.125C10.4367 42.6281 12.6957 43.3161 14.6167 44.602C16.5378 45.8878 18.0349 47.714 18.9189 49.85C16.3354 47.2722 12.8371 45.8208 9.1875 45.8125C8.90571 45.8125 8.63546 45.9244 8.4362 46.1237C8.23694 46.323 8.125 46.5932 8.125 46.875C8.125 47.1568 8.23694 47.427 8.4362 47.6263C8.63546 47.8256 8.90571 47.9375 9.1875 47.9375C11.1305 47.9429 13.0417 48.4312 14.7491 49.3585C16.4565 50.2858 17.9066 51.6231 18.9689 53.25H14.5C11.5852 53.2465 8.77652 52.1555 6.62372 50.1903C4.47092 48.2252 3.1289 45.5274 2.86031 42.625ZM27.9353 39.2537L27.8365 39.4226L27.6676 39.3249C27.2343 39.0636 26.8407 38.7416 26.4988 38.3686C26.7703 37.5376 26.8958 36.6659 26.8696 35.7921C27.2851 36.5543 27.8264 37.2408 28.4708 37.8225C28.3619 38.3229 28.1812 38.805 27.9343 39.2537H27.9353ZM32.3978 37.3667L32.3468 37.5569L32.1566 37.5059C31.4605 37.3161 30.8084 36.9912 30.2378 36.5496C30.2197 36.5379 30.2038 36.5241 30.1857 36.5135C29.3758 35.8793 28.7609 35.0298 28.4113 34.0623C29.4357 33.6291 30.4033 33.0725 31.2928 32.4048C31.858 33.0845 32.2528 33.8894 32.4442 34.7524C32.6357 35.6154 32.6183 36.5117 32.3936 37.3667H32.3978ZM36.2164 34.5872H36.0156C35.5037 34.5762 34.9959 34.4917 34.5079 34.3364C34.3246 33.4804 33.9973 32.6616 33.54 31.915C34.287 32.3793 35.1076 32.7127 35.9667 32.901C36.1186 33.3827 36.2012 33.8835 36.2122 34.3885L36.2164 34.5872ZM38.9959 30.7686C38.3034 30.9525 37.5815 30.9995 36.8709 30.9067C36.8423 30.9067 36.8157 30.8993 36.7881 30.8993C35.7164 30.7456 34.7142 30.2783 33.9076 29.5563C33.9315 29.3814 33.9107 29.2034 33.8472 29.0388C33.7836 28.8742 33.6794 28.7283 33.5443 28.6149C33.3261 28.4365 33.0461 28.3521 32.7658 28.3802C32.4854 28.4083 32.2277 28.5466 32.0493 28.7647C30.1762 31.0829 27.5 32.612 24.5518 33.0486C21.6036 33.4851 18.599 32.7972 16.1345 31.1213C13.67 29.4455 11.9257 26.9042 11.2478 24.002C10.57 21.0997 11.0083 18.0487 12.4755 15.4546C13.9428 12.8604 16.3319 10.9128 19.1684 9.99838C22.005 9.08392 25.0817 9.26947 27.7879 10.5182C30.494 11.7669 32.6317 13.9875 33.7766 16.7392C34.9215 19.4908 34.9899 22.5724 33.9682 25.3721C33.8966 25.57 33.8855 25.7847 33.9361 25.989C33.9867 26.1933 34.0969 26.3779 34.2526 26.5195C34.4082 26.6611 34.6025 26.7532 34.8106 26.7843C35.0188 26.8153 35.2314 26.7839 35.4217 26.6939C36.4911 27.0176 37.4361 27.6604 38.13 28.5363C38.13 28.5458 38.1427 28.5533 38.1481 28.5628C38.6043 29.145 38.9386 29.8132 39.1309 30.5274L39.1819 30.7176L38.9959 30.7686ZM6.29431 22.7286C6.27625 22.718 6.25713 22.7116 6.238 22.7021C5.57132 22.4267 4.96521 22.0231 4.45406 21.5142L4.31487 21.375L4.45406 21.2358C4.95226 20.7392 5.54083 20.3425 6.18806 20.0671L6.24756 20.0405C7.21165 19.6403 8.27008 19.5242 9.298 19.7058C9.15066 20.8109 9.15066 21.9306 9.298 23.0357C8.28779 23.2171 7.24693 23.1107 6.29431 22.7286ZM39.7524 20.0437L39.8119 20.0724C40.459 20.3458 41.0476 20.7407 41.5459 21.2358L41.6851 21.375L41.5459 21.5142C41.035 22.0226 40.4293 22.4259 39.7631 22.701C39.7439 22.7106 39.7248 22.7169 39.7057 22.7286C38.7518 23.1126 37.709 23.2205 36.6967 23.0399C36.7697 22.4879 36.8084 21.9318 36.8125 21.375C36.8105 20.8184 36.775 20.2624 36.7063 19.7101C37.7327 19.5295 38.7894 19.6452 39.7524 20.0437ZM40.9499 26.0415L41.0476 26.2104L40.8776 26.3093C40.429 26.5562 39.9469 26.737 39.4464 26.8458C38.8603 26.1967 38.1684 25.6517 37.4001 25.234C37.4893 25.234 37.5796 25.2563 37.6689 25.2563C38.4608 25.254 39.2474 25.1275 40 24.8813C40.3699 25.2211 40.6897 25.6118 40.9499 26.0415ZM40.8787 16.4408L41.0476 16.5396L40.9499 16.7085C40.688 17.1413 40.366 17.5348 39.9936 17.8773C39.1629 17.6047 38.2909 17.4792 37.4171 17.5064C38.1791 17.0903 38.8655 16.5486 39.4475 15.9042C39.9479 16.0131 40.43 16.1938 40.8787 16.4408ZM38.9917 11.9783L39.1819 12.0293L39.1309 12.2194C38.9415 12.9171 38.6166 13.5705 38.1746 14.1426C38.164 14.1585 38.1512 14.1723 38.1417 14.1893C37.5091 14.9967 36.6623 15.6101 35.6979 15.9594C35.2556 14.939 34.6916 13.9758 34.0181 13.0907C34.6947 12.5158 35.5012 12.1144 36.3678 11.9211C37.2343 11.7278 38.1349 11.7485 38.9917 11.9814V11.9783ZM32.1524 5.24413L32.3426 5.19313L32.3936 5.38331C32.5788 6.08042 32.625 6.80717 32.5296 7.52213C32.5296 7.54338 32.5243 7.56356 32.5243 7.58481C32.3796 8.60392 31.9502 9.56148 31.2854 10.3473C30.4003 9.67385 29.4371 9.10982 28.4166 8.6675C28.7666 7.7052 29.3795 6.86038 30.1857 6.22906C30.2038 6.21844 30.2197 6.20463 30.2378 6.19294C30.8078 5.75451 31.4583 5.43215 32.1524 5.24413ZM27.6665 3.42513L27.8354 3.32738L27.9343 3.49738C28.1811 3.9462 28.3622 4.4282 28.4719 4.92856C27.8269 5.50995 27.2851 6.1965 26.8696 6.959C26.8958 6.08518 26.7703 5.21343 26.4988 4.38244C26.8403 4.00915 27.2335 3.68677 27.6665 3.42513ZM22.8608 2.82906L23 2.68988L23.1392 2.82906C23.6484 3.34042 24.052 3.94693 24.3271 4.61406C24.3366 4.63319 24.343 4.65125 24.3526 4.66931C24.7356 5.62013 24.8438 6.65942 24.6649 7.66875C23.5599 7.52142 22.4401 7.52142 21.3351 7.66875C21.1554 6.65804 21.2636 5.61717 21.6474 4.66506C21.6581 4.647 21.6634 4.62788 21.6729 4.60981C21.9485 3.9442 22.3521 3.33917 22.8608 2.82906ZM18.0658 3.49631L18.1646 3.32738L18.3335 3.42513C18.7668 3.68636 19.1604 4.00839 19.5023 4.38138C19.2308 5.21237 19.1053 6.08411 19.1314 6.95794C18.716 6.19571 18.1746 5.50921 17.5302 4.9275C17.6388 4.42713 17.8192 3.94508 18.0658 3.49631ZM13.6033 5.38331L13.6543 5.19313L13.8444 5.24413C14.5409 5.43409 15.1932 5.75899 15.7644 6.20038C15.7824 6.21206 15.7973 6.22588 15.8154 6.2365C16.6224 6.86926 17.2353 7.71602 17.5844 8.68025C16.564 9.12257 15.6008 9.6866 14.7157 10.3601C14.0509 9.57423 13.6215 8.61667 13.4768 7.59756C13.4768 7.57631 13.4768 7.55613 13.4715 7.53488C13.374 6.81581 13.4198 6.08456 13.6064 5.38331H13.6033ZM9.78781 8.16281H9.98438C10.4963 8.17383 11.0041 8.25828 11.4921 8.41356C11.6755 9.27012 12.0032 10.0893 12.4611 10.8361C11.7143 10.3782 10.8951 10.0505 10.0386 9.86706C9.88328 9.37909 9.79883 8.87135 9.78781 8.35938V8.16281ZM7.00831 11.9814C7.70685 11.796 8.4351 11.7501 9.15137 11.8465C9.17156 11.8465 9.19069 11.855 9.21087 11.855H9.22363C10.2379 12 11.1911 12.427 11.9744 13.0875C11.301 13.9726 10.7369 14.9358 10.2946 15.9563C9.32997 15.6069 8.48311 14.9931 7.85088 14.1851C7.84131 14.1691 7.82962 14.1564 7.819 14.1404C7.3774 13.5678 7.05251 12.914 6.86275 12.2163L6.81175 12.0261L7.00831 11.9814ZM5.05013 16.7085L4.95237 16.5396L5.12237 16.4408C5.5712 16.1939 6.0532 16.0128 6.55356 15.9031C7.13537 16.5472 7.82141 17.0889 8.58294 17.5054C7.70912 17.4793 6.83739 17.6048 6.00638 17.8762C5.63396 17.5342 5.312 17.141 5.05013 16.7085ZM5.12131 26.3093L4.95237 26.2104L5.05013 26.0415C5.3103 25.6118 5.63011 25.2211 6 24.8813C6.75472 25.1278 7.54354 25.254 8.3375 25.2553C8.42675 25.2553 8.51706 25.2361 8.60631 25.2329C7.83797 25.6507 7.14604 26.1957 6.55994 26.8448C6.05706 26.7366 5.57249 26.5563 5.12131 26.3093ZM6.82131 30.7176L6.87231 30.5274C7.06463 29.8132 7.39889 29.145 7.85513 28.5628C7.86044 28.5533 7.86788 28.5458 7.87319 28.5363C8.50351 27.7397 9.34302 27.1341 10.2978 26.7874C10.7401 27.8078 11.3042 28.771 11.9776 29.6561C11.1915 30.3204 10.2341 30.7497 9.21512 30.895C9.18962 30.895 9.16625 30.895 9.14075 30.9014C8.43024 30.9942 7.70845 30.9477 7.01575 30.7643L6.82131 30.7176ZM9.79631 34.5872V34.3906C9.8072 33.8857 9.88984 33.3848 10.0418 32.9031C10.901 32.7142 11.7219 32.3808 12.4696 31.9171C12.0115 32.6634 11.6838 33.4823 11.5006 34.3386C11.0126 34.4939 10.5048 34.5783 9.99287 34.5893L9.79631 34.5872ZM13.8561 37.5059L13.6659 37.5569L13.6149 37.3667C13.3897 36.5116 13.3717 35.6152 13.5626 34.7518C13.7535 33.8884 14.1477 33.0831 14.7125 32.4027C15.5977 33.0754 16.5609 33.6387 17.5812 34.0804C17.2322 35.0446 16.6192 35.8914 15.8122 36.5241C15.7941 36.5348 15.7793 36.5486 15.7612 36.5603C15.191 36.9971 14.541 37.3184 13.8476 37.5059H13.8561ZM18.342 39.3249L18.1731 39.4226L18.0743 39.2526C17.8274 38.8038 17.6463 38.3218 17.5366 37.8214C18.1816 37.2401 18.7234 36.5535 19.1389 35.791C19.1127 36.6648 19.2382 37.5366 19.5097 38.3676C19.1656 38.7415 18.7695 39.0639 18.3335 39.3249H18.342ZM23.1477 39.9209L23 40.0601L22.8608 39.9209C22.4575 39.515 22.1195 39.0491 21.8589 38.5397C21.8514 38.5206 21.8429 38.5046 21.8344 38.4866C21.7771 38.3729 21.7218 38.2581 21.6729 38.1402C21.6634 38.1221 21.6581 38.103 21.6474 38.0849C21.2636 37.1328 21.1554 36.092 21.3351 35.0813C22.4407 35.2257 23.5604 35.2257 24.666 35.0813C24.8448 36.0907 24.7362 37.13 24.3526 38.0807C24.343 38.0988 24.3366 38.1179 24.3271 38.1359C24.052 38.8031 23.6484 39.4096 23.1392 39.9209H23.1477Z" fill="white"/>
<path d="M20.875 21.375C21.4618 21.375 21.9375 20.8993 21.9375 20.3125C21.9375 19.7257 21.4618 19.25 20.875 19.25C20.2882 19.25 19.8125 19.7257 19.8125 20.3125C19.8125 20.8993 20.2882 21.375 20.875 21.375Z" fill="white"/>
<path d="M23 17.125C23.5868 17.125 24.0625 16.6493 24.0625 16.0625C24.0625 15.4757 23.5868 15 23 15C22.4132 15 21.9375 15.4757 21.9375 16.0625C21.9375 16.6493 22.4132 17.125 23 17.125Z" fill="white"/>
<path d="M23 27.75C23.5868 27.75 24.0625 27.2743 24.0625 26.6875C24.0625 26.1007 23.5868 25.625 23 25.625C22.4132 25.625 21.9375 26.1007 21.9375 26.6875C21.9375 27.2743 22.4132 27.75 23 27.75Z" fill="white"/>
<path d="M28.3125 22.4375C28.8993 22.4375 29.375 21.9618 29.375 21.375C29.375 20.7882 28.8993 20.3125 28.3125 20.3125C27.7257 20.3125 27.25 20.7882 27.25 21.375C27.25 21.9618 27.7257 22.4375 28.3125 22.4375Z" fill="white"/>
<path d="M26.1875 19.25C26.7743 19.25 27.25 18.7743 27.25 18.1875C27.25 17.6007 26.7743 17.125 26.1875 17.125C25.6007 17.125 25.125 17.6007 25.125 18.1875C25.125 18.7743 25.6007 19.25 26.1875 19.25Z" fill="white"/>
<path d="M27.25 26.6875C27.8368 26.6875 28.3125 26.2118 28.3125 25.625C28.3125 25.0382 27.8368 24.5625 27.25 24.5625C26.6632 24.5625 26.1875 25.0382 26.1875 25.625C26.1875 26.2118 26.6632 26.6875 27.25 26.6875Z" fill="white"/>
<path d="M17.6875 22.4375C18.2743 22.4375 18.75 21.9618 18.75 21.375C18.75 20.7882 18.2743 20.3125 17.6875 20.3125C17.1007 20.3125 16.625 20.7882 16.625 21.375C16.625 21.9618 17.1007 22.4375 17.6875 22.4375Z" fill="white"/>
<path d="M18.75 18.1875C19.3368 18.1875 19.8125 17.7118 19.8125 17.125C19.8125 16.5382 19.3368 16.0625 18.75 16.0625C18.1632 16.0625 17.6875 16.5382 17.6875 17.125C17.6875 17.7118 18.1632 18.1875 18.75 18.1875Z" fill="white"/>
<path d="M18.75 26.6875C19.3368 26.6875 19.8125 26.2118 19.8125 25.625C19.8125 25.0382 19.3368 24.5625 18.75 24.5625C18.1632 24.5625 17.6875 25.0382 17.6875 25.625C17.6875 26.2118 18.1632 26.6875 18.75 26.6875Z" fill="white"/>
<path d="M24.0625 23.5C24.6493 23.5 25.125 23.0243 25.125 22.4375C25.125 21.8507 24.6493 21.375 24.0625 21.375C23.4757 21.375 23 21.8507 23 22.4375C23 23.0243 23.4757 23.5 24.0625 23.5Z" fill="white"/>
<path d="M44.25 43.6875H37.875C35.5374 43.6896 33.2387 44.2854 31.1944 45.419C29.1501 46.5527 27.4273 48.187 26.1875 50.1687V44.2379C26.1875 43.9561 26.0756 43.6858 25.8763 43.4866C25.677 43.2873 25.4068 43.1754 25.125 43.1754C24.8432 43.1754 24.573 43.2873 24.3737 43.4866C24.1744 43.6858 24.0625 43.9561 24.0625 44.2379V62.8125C24.0625 63.0943 24.1744 63.3645 24.3737 63.5638C24.573 63.763 24.8432 63.875 25.125 63.875C25.4068 63.875 25.677 63.763 25.8763 63.5638C26.0756 63.3645 26.1875 63.0943 26.1875 62.8125V58.5625H31.5C35.162 58.5583 38.6728 57.1017 41.2623 54.5122C43.8517 51.9228 45.3083 48.412 45.3125 44.75C45.3125 44.4682 45.2006 44.1979 45.0013 43.9987C44.802 43.7994 44.5318 43.6875 44.25 43.6875ZM31.5 56.4375H27.0311C28.0935 54.8107 29.5436 53.4734 31.251 52.5461C32.9584 51.6188 34.8695 51.1304 36.8125 51.125C37.0943 51.125 37.3645 51.013 37.5638 50.8138C37.7631 50.6145 37.875 50.3443 37.875 50.0625C37.875 49.7807 37.7631 49.5104 37.5638 49.3112C37.3645 49.1119 37.0943 49 36.8125 49C33.1582 49.0098 29.6566 50.4673 27.0747 53.0534C27.9568 50.9135 29.4539 49.0834 31.3763 47.7945C33.2988 46.5056 35.5604 45.8158 37.875 45.8125H43.1397C42.8711 48.7149 41.5291 51.4127 39.3763 53.3778C37.2235 55.3429 34.4148 56.434 31.5 56.4375Z" fill="white"/>
<path d="M23.0001 11.8125C21.2932 11.8147 19.618 12.274 18.1487 13.1427C17.9059 13.286 17.73 13.5199 17.6597 13.7929C17.5894 14.0658 17.6303 14.3556 17.7736 14.5983C17.9169 14.8411 18.1508 15.017 18.4238 15.0874C18.6968 15.1577 18.9865 15.1167 19.2293 14.9734C20.7929 14.0502 22.6396 13.7292 24.423 14.0704C26.2065 14.4116 27.8042 15.3917 28.9166 16.8269C30.029 18.2621 30.5797 20.0538 30.4653 21.866C30.351 23.6782 29.5795 25.3864 28.2955 26.6704C27.0115 27.9544 25.3033 28.7259 23.4911 28.8402C21.6789 28.9546 19.8872 28.4039 18.452 27.2915C17.0168 26.1791 16.0367 24.5814 15.6955 22.7979C15.3543 21.0145 15.6753 19.1678 16.5985 17.6042C16.7418 17.3614 16.7828 17.0717 16.7125 16.7987C16.6421 16.5257 16.4662 16.2918 16.2235 16.1485C15.9807 16.0052 15.6909 15.9643 15.418 16.0346C15.145 16.1049 14.9111 16.2808 14.7678 16.5236C13.6979 18.3409 13.2588 20.4609 13.5187 22.5537C13.7787 24.6465 14.7232 26.5946 16.2051 28.095C17.6871 29.5953 19.6235 30.5637 21.7129 30.8493C23.8024 31.135 25.9276 30.722 27.758 29.6745C29.5883 28.6271 31.021 27.0039 31.8332 25.0577C32.6454 23.1115 32.7914 20.9515 32.2486 18.9136C31.7058 16.8758 30.5046 15.0746 28.8319 13.7903C27.1593 12.506 25.1089 11.8107 23.0001 11.8125Z" fill="white"/>
</svg>
