<svg width="95" height="74" viewBox="0 0 95 74" fill="none" xmlns="http://www.w3.org/2000/svg">
<path d="M94.8128 44.0164C94.2349 42.527 92.4889 41.765 90.9207 42.3136L51.3442 56.1136C48.8759 52.6877 44.602 50.8087 40.2501 51.2299L21.9473 4.12025L3.70188 0.199522C2.07509 -0.152684 0.445346 0.817904 0.0755919 2.36467C-0.294162 3.91143 0.728328 5.45069 2.36102 5.80098L17.3955 9.03245L34.57 53.2389C30.2334 56.1258 28.2955 61.5024 30.2143 66.4368C32.5008 72.3207 39.3886 75.3368 45.6004 73.1707C50.7917 71.3597 53.8531 66.5019 53.3884 61.5206L93.0154 47.7043C94.5854 47.155 95.3907 45.5047 94.8128 44.0164ZM43.6825 68.2355C40.3482 69.3994 36.6493 67.7788 35.4217 64.621C34.1951 61.4603 35.9026 57.958 39.2379 56.794C42.5722 55.6311 46.2722 57.2506 47.4998 60.4084C48.7273 63.5681 47.0168 67.0715 43.6825 68.2355Z" fill="#213B8F"/>
<path d="M86.7268 35.5174L74.0224 2.81451L58.2058 8.32995L61.7017 17.3267L55.3272 19.5483L51.8323 10.5526L36.0157 16.067L48.7202 48.7697L86.7268 35.5174ZM77.9981 29.5014L79.3934 33.0948L65.2724 38.0186L63.8771 34.4252L77.9981 29.5014Z" fill="#009649"/>
</svg>
