<svg width="16" height="16" viewBox="0 0 16 16" fill="none" xmlns="http://www.w3.org/2000/svg">
<path d="M8 0.320007C3.764 0.320007 0.319199 3.76561 0.319199 8.00001C0.319199 12.2344 3.764 15.68 8 15.68C12.2344 15.68 15.68 12.2344 15.68 8.00001C15.68 3.76561 12.2344 0.320007 8 0.320007ZM14.5504 8.00001C14.5504 9.49841 14.0416 10.88 13.1936 11.984C12.9536 11.7968 12.6984 11.2904 12.9384 10.7656C13.1808 10.2376 13.244 9.01521 13.188 8.53921C13.1352 8.06401 12.888 6.91921 12.2168 6.90801C11.5464 6.89841 11.0864 6.67681 10.688 5.88161C9.8616 4.22721 12.2392 3.90961 11.4128 2.99441C11.1816 2.73681 9.9864 4.05201 9.8112 2.29921C9.8 2.17361 9.9192 1.98561 10.08 1.79041C12.6752 2.66241 14.5504 5.11601 14.5504 8.00001ZM7.1 1.51441C6.9432 1.82001 6.5296 1.94401 6.2784 2.17361C5.7312 2.66881 5.496 2.60001 5.2016 3.07521C4.9048 3.55041 3.948 4.23441 3.948 4.57841C3.948 4.92241 4.4312 5.32721 4.6728 5.24881C4.9144 5.16881 5.552 5.17361 5.9264 5.30481C6.3016 5.43761 9.0576 5.57041 8.1792 7.90001C7.9008 8.64081 6.6808 8.51601 6.356 9.74241C6.3072 9.92241 6.1384 10.6912 6.128 10.9424C6.108 11.3312 6.4032 12.7968 6.028 12.7968C5.6512 12.7968 4.6376 11.4856 4.6376 11.248C4.6376 11.0104 4.3752 10.1776 4.3752 9.46401C4.3752 8.75121 3.1608 8.76241 3.1608 7.81441C3.1608 6.96001 3.8192 6.53441 3.6712 6.12401C3.5264 5.71601 2.3696 5.70241 1.8872 5.65201C2.30899 4.56067 3.01455 3.60177 3.93097 2.87437C4.84738 2.14698 5.94141 1.67748 7.1 1.51441ZM5.9392 14.216C6.3328 14.008 6.3728 13.7392 6.7296 13.7256C7.1376 13.7072 7.4696 13.5664 7.9296 13.4648C8.3376 13.376 9.068 12.9616 9.7104 12.9088C10.2528 12.8648 11.3224 12.9368 11.6104 13.46C10.7846 14.0084 9.84468 14.3615 8.86204 14.4925C7.87941 14.6235 6.87984 14.5289 5.9392 14.216Z" fill="white"/>
</svg>
