<svg width="95" height="90" viewBox="0 0 95 90" fill="none" xmlns="http://www.w3.org/2000/svg">
<g clip-path="url(#clip0)">
<path d="M26.1621 30.8077V41.3827C26.1621 50.0008 31.9662 57.3623 40.0781 60.1666V63.262C40.0781 67.0447 43.3274 70.1106 47.3369 70.1106C51.3443 70.1106 54.595 67.0447 54.595 63.262V60.1666C62.7054 57.3623 68.511 50.0008 68.511 41.3827V30.8077H26.1621Z" fill="#213B8F"/>
<path d="M19.1352 62.3124C8.58517 62.3124 0 70.4197 0 80.3815V82.0988C0 86.4542 3.75008 90 8.36048 90H16.6804V81.6449C16.6804 80.1899 17.9256 79.0082 19.4636 79.0082C21.0001 79.0082 22.2468 80.1899 22.2468 81.6449V90H30.0789L23.1433 62.3124H19.1352Z" fill="#213B8F"/>
<path d="M60.1614 62.3124V63.2621C60.1614 69.9472 54.408 75.3841 47.3369 75.3841C40.2658 75.3841 34.5117 69.9472 34.5117 63.2621V62.3124H28.8634L35.7997 90H59.0612L66.0177 62.3124H60.1614Z" fill="#009649"/>
<path d="M75.8646 62.3124H71.7412L64.7832 90H72.753V81.6449C72.753 80.1899 73.9997 79.0082 75.5362 79.0082C77.0742 79.0082 78.3194 80.1899 78.3194 81.6449V90H86.6393C91.2497 90 94.9998 86.4542 94.9998 82.0988V80.3815C94.9998 70.4197 86.4146 62.3124 75.8646 62.3124Z" fill="#213B8F"/>
<path d="M14.2655 25.5343H80.7348C82.272 25.5343 83.518 24.3539 83.518 22.8976C83.518 21.4412 82.272 20.2608 80.7348 20.2608H68.5111V20.0425C68.5111 8.99094 59.0113 0 47.3371 0C35.6607 0 26.1622 8.99094 26.1622 20.0425V20.2608H14.2655C12.7282 20.2608 11.4823 21.4412 11.4823 22.8976C11.4823 24.3539 12.7282 25.5343 14.2655 25.5343Z" fill="#009649"/>
</g>
<defs>
<clipPath id="clip0">
<rect width="95" height="90" fill="white"/>
</clipPath>
</defs>
</svg>
