<svg width="25" height="24" viewBox="0 0 25 24" fill="none" xmlns="http://www.w3.org/2000/svg">
<path d="M22.6562 5.96017C21.9092 6.26954 21.0962 6.4922 20.2588 6.57892C21.1282 6.08306 21.7793 5.2997 22.0898 4.37579C21.274 4.8417 20.3803 5.16841 19.4482 5.34142C19.0587 4.94163 18.5876 4.62315 18.0642 4.40581C17.5409 4.18847 16.9765 4.07693 16.4062 4.07813C14.0991 4.07813 12.2437 5.87345 12.2437 8.07657C12.2437 8.38595 12.2827 8.69532 12.3462 8.99298C8.8916 8.81954 5.81055 7.23517 3.76221 4.80938C3.38898 5.42137 3.19339 6.1182 3.1958 6.82735C3.1958 8.21485 3.93066 9.43829 5.05127 10.1578C4.39088 10.1329 3.74595 9.9586 3.16895 9.64923V9.69845C3.16895 11.6414 4.59961 13.2516 6.50635 13.6219C6.14834 13.7112 5.78005 13.7568 5.41016 13.7578C5.13916 13.7578 4.88281 13.732 4.62402 13.6969C5.15137 15.2813 6.68701 16.432 8.51562 16.4695C7.08496 17.5453 5.29297 18.1781 3.34717 18.1781C2.99805 18.1781 2.67578 18.1664 2.34131 18.1289C4.18701 19.2656 6.37695 19.9219 8.73535 19.9219C16.3916 19.9219 20.5811 13.8328 20.5811 8.54767C20.5811 8.37423 20.5811 8.20079 20.5688 8.02735C21.3794 7.45782 22.0898 6.75235 22.6562 5.96017Z" fill="white"/>
</svg>
