<svg width="27" height="27" viewBox="0 0 27 27" fill="none" xmlns="http://www.w3.org/2000/svg">
<path d="M18.85 23.65C18.8413 24.0361 18.9098 24.4202 19.0515 24.7795C19.1932 25.1389 19.4053 25.4663 19.6753 25.7426C19.9454 26.0188 20.2678 26.2383 20.6238 26.3882C20.9799 26.5381 21.3622 26.6154 21.7485 26.6155C22.1348 26.6156 22.5172 26.5385 22.8733 26.3888C23.2294 26.2391 23.552 26.0197 23.8222 25.7436C24.0923 25.4675 24.3046 25.1402 24.4465 24.7809C24.5884 24.4216 24.6571 24.0376 24.6486 23.6514C24.6318 22.8937 24.3191 22.1726 23.7773 21.6426C23.2356 21.1126 22.5079 20.8157 21.75 20.8155C20.9921 20.8153 20.2642 21.1118 19.7222 21.6416C19.1802 22.1714 18.8671 22.8922 18.85 23.65ZM4.35 23.65C4.35 24.4191 4.65553 25.1567 5.19939 25.7006C5.74325 26.2444 6.48087 26.55 7.25 26.55C8.01913 26.55 8.75675 26.2444 9.30061 25.7006C9.84447 25.1567 10.15 24.4191 10.15 23.65C10.15 22.8808 9.84447 22.1432 9.30061 21.5993C8.75675 21.0555 8.01913 20.75 7.25 20.75C6.48087 20.75 5.74325 21.0555 5.19939 21.5993C4.65553 22.1432 4.35 22.8808 4.35 23.65ZM9.49315 16.6494L25.5417 12.0645C25.6987 12.0121 25.836 11.9134 25.9357 11.7814C26.0354 11.6494 26.0927 11.4902 26.1 11.325V3.34995H5.8V1.02995C5.8 0.710951 5.53755 0.449951 5.22145 0.449951H0.57855C0.425094 0.450716 0.278162 0.512115 0.169787 0.620762C0.0614113 0.729409 0.000380782 0.876493 0 1.02995L0 3.34995H2.9L5.6695 16.3376L5.8 17.705V20.096C5.8 20.4136 6.061 20.676 6.38 20.676H25.52C25.839 20.676 26.1 20.4121 26.1 20.096V17.85H9.7904C8.1229 17.85 8.0881 17.051 9.49315 16.6494Z" fill="#009649"/>
</svg>
