<svg width="10" height="10" viewBox="0 0 10 10" fill="none" xmlns="http://www.w3.org/2000/svg">
<path d="M7.91671 3.75016C7.91671 3.36714 7.84127 2.98787 7.69469 2.634C7.54811 2.28014 7.33327 1.95861 7.06244 1.68777C6.7916 1.41693 6.47007 1.20209 6.1162 1.05551C5.76233 0.908938 5.38306 0.833496 5.00004 0.833496C4.61702 0.833496 4.23775 0.908938 3.88388 1.05551C3.53001 1.20209 3.20848 1.41693 2.93765 1.68777C2.66681 1.95861 2.45197 2.28014 2.30539 2.634C2.15882 2.98787 2.08337 3.36714 2.08337 3.75016C2.08337 4.32808 2.25421 4.86558 2.54379 5.31891H2.54046C3.52379 6.8585 5.00004 9.16683 5.00004 9.16683L7.45962 5.31891H7.45671C7.75688 4.85073 7.91652 4.30631 7.91671 3.75016V3.75016ZM5.00004 5.00016C4.66852 5.00016 4.35058 4.86847 4.11616 4.63405C3.88174 4.39963 3.75004 4.08168 3.75004 3.75016C3.75004 3.41864 3.88174 3.1007 4.11616 2.86628C4.35058 2.63186 4.66852 2.50016 5.00004 2.50016C5.33156 2.50016 5.6495 2.63186 5.88392 2.86628C6.11835 3.1007 6.25004 3.41864 6.25004 3.75016C6.25004 4.08168 6.11835 4.39963 5.88392 4.63405C5.6495 4.86847 5.33156 5.00016 5.00004 5.00016Z" fill="white"/>
</svg>
