<svg width="26" height="36" viewBox="0 0 26 36" fill="none" xmlns="http://www.w3.org/2000/svg">
<path d="M25.0833 12.5417C25.0833 10.8947 24.7589 9.2638 24.1287 7.74218C23.4984 6.22055 22.5746 4.83797 21.41 3.67337C20.2454 2.50877 18.8628 1.58496 17.3412 0.954678C15.8195 0.3244 14.1887 0 12.5417 0C10.8947 0 9.2638 0.3244 7.74218 0.954678C6.22055 1.58496 4.83797 2.50877 3.67337 3.67337C2.50877 4.83797 1.58496 6.22055 0.954677 7.74218C0.3244 9.2638 -2.45421e-08 10.8947 0 12.5417C0 15.0267 0.734583 17.338 1.97979 19.2873H1.96546C6.19379 25.9075 12.5417 35.8333 12.5417 35.8333L23.1179 19.2873H23.1053C24.3961 17.2741 25.0825 14.9331 25.0833 12.5417ZM12.5417 17.9167C11.1161 17.9167 9.74898 17.3504 8.74097 16.3424C7.73296 15.3344 7.16667 13.9672 7.16667 12.5417C7.16667 11.1161 7.73296 9.74898 8.74097 8.74097C9.74898 7.73296 11.1161 7.16667 12.5417 7.16667C13.9672 7.16667 15.3344 7.73296 16.3424 8.74097C17.3504 9.74898 17.9167 11.1161 17.9167 12.5417C17.9167 13.9672 17.3504 15.3344 16.3424 16.3424C15.3344 17.3504 13.9672 17.9167 12.5417 17.9167Z" fill="#009649"/>
</svg>
