<svg width="16" height="10" viewBox="0 0 16 10" fill="none" xmlns="http://www.w3.org/2000/svg">
<path d="M1.25901 1.22881L7.25901 4.45201C7.46061 4.56001 7.72141 4.61121 7.98381 4.61121C8.24621 4.61121 8.50701 4.56001 8.70861 4.45201L14.7086 1.22881C15.0998 1.01841 15.4694 0.200012 14.7518 0.200012H1.21661C0.499006 0.200012 0.868606 1.01841 1.25901 1.22881ZM14.8902 2.99121L8.70861 6.21281C8.43661 6.35521 8.24621 6.37201 7.98381 6.37201C7.72141 6.37201 7.53101 6.35521 7.25901 6.21281C6.98701 6.07041 1.55261 3.22161 1.10861 2.99041C0.796606 2.82721 0.799806 3.01841 0.799806 3.16561V9.00001C0.799806 9.33601 1.25261 9.80001 1.59981 9.80001H14.3998C14.747 9.80001 15.1998 9.33601 15.1998 9.00001V3.16641C15.1998 3.01921 15.203 2.82801 14.8902 2.99121Z" fill="#213B8F"/>
</svg>
