<svg width="91" height="91" viewBox="0 0 91 91" fill="none" xmlns="http://www.w3.org/2000/svg">
<path d="M45.5002 0.083252C20.4302 0.083252 0.0834961 20.4299 0.0834961 45.4999C0.0834961 70.5699 20.4302 90.9166 45.5002 90.9166C70.5702 90.9166 90.9168 70.5699 90.9168 45.4999C90.9168 20.4299 70.5702 0.083252 45.5002 0.083252ZM45.5002 13.7083C53.0393 13.7083 59.1252 19.7941 59.1252 27.3333C59.1252 34.8724 53.0393 40.9583 45.5002 40.9583C37.961 40.9583 31.8752 34.8724 31.8752 27.3333C31.8752 19.7941 37.961 13.7083 45.5002 13.7083ZM45.5002 78.1999C34.146 78.1999 24.1089 72.3866 18.2502 63.5758C18.3864 54.5378 36.4168 49.5874 45.5002 49.5874C54.5381 49.5874 72.6139 54.5378 72.7502 63.5758C66.8914 72.3866 56.8543 78.1999 45.5002 78.1999Z" fill="#213B8F"/>
</svg>
