<svg width="16" height="16" viewBox="0 0 16 16" fill="none" xmlns="http://www.w3.org/2000/svg">
<path d="M15.545 13.467L11.766 9.68801C12.3551 8.72108 12.6659 7.61028 12.664 6.47801C12.664 3.06101 9.70301 0.101013 6.28601 0.101013C5.47361 0.100882 4.66915 0.260798 3.91857 0.571627C3.16799 0.882456 2.486 1.33811 1.91155 1.91256C1.3371 2.48701 0.881449 3.169 0.57062 3.91958C0.259791 4.67016 0.0998748 5.47462 0.100006 6.28701C0.100006 9.70301 3.06101 12.664 6.47701 12.664C7.57196 12.665 8.64732 12.3736 9.59201 11.82L13.391 15.621C13.5697 15.7992 13.8117 15.8993 14.064 15.8993C14.3163 15.8993 14.5584 15.7992 14.737 15.621L15.68 14.678C16.051 14.307 15.916 13.838 15.545 13.467ZM2.00401 6.28701C2.00388 5.72461 2.11454 5.16769 2.32967 4.64806C2.5448 4.12842 2.86019 3.65626 3.25782 3.25854C3.65546 2.86081 4.12754 2.54531 4.64712 2.33006C5.16671 2.1148 5.7236 2.00401 6.28601 2.00401C8.65201 2.00401 10.76 4.11101 10.76 6.47801C10.7597 7.61385 10.3084 8.7031 9.50525 9.50626C8.70209 10.3094 7.61285 10.7607 6.47701 10.761C4.11101 10.76 2.00401 8.65201 2.00401 6.28701Z" fill="#213B8F"/>
</svg>
