<svg width="14" height="16" viewBox="0 0 14 16" fill="none" xmlns="http://www.w3.org/2000/svg">
<path d="M7 7.82505C8.77892 7.82505 10.2212 6.07337 10.2212 3.91255C10.2212 1.75168 9.74765 0 7 0C4.25235 0 3.77875 1.75168 3.77875 3.91255C3.77875 6.07337 5.22099 7.82505 7 7.82505Z" fill="#009649"/>
<path d="M0.915857 13.799C0.915307 13.6672 0.914757 13.7619 0.915857 13.799V13.799Z" fill="#009649"/>
<path d="M13.0839 13.9019C13.0856 13.8658 13.0845 13.6517 13.0839 13.9019V13.9019Z" fill="#009649"/>
<path d="M13.077 13.641C13.0174 9.87679 12.5258 8.80419 8.7638 8.12524C8.7638 8.12524 8.23425 8.80003 6.99996 8.80003C5.76568 8.80003 5.23603 8.12524 5.23603 8.12524C1.51512 8.79679 0.993608 9.85347 0.925036 13.5187C0.919413 13.818 0.916808 13.8337 0.915802 13.799C0.916031 13.8641 0.916305 13.9845 0.916305 14.1945C0.916305 14.1945 1.81194 16 6.99996 16C12.1879 16 13.0836 14.1945 13.0836 14.1945C13.0836 14.0596 13.0837 13.9657 13.0838 13.9019C13.0828 13.9234 13.0808 13.8818 13.077 13.641Z" fill="#009649"/>
</svg>
